<?xml version="1.0" encoding="us-ascii" standalone="no"?><svg xmlns="http://www.w3.org/2000/svg" xmlns:xlink="http://www.w3.org/1999/xlink" contentStyleType="text/css" height="441px" preserveAspectRatio="none" style="width:1377px;height:441px;background:#FFFFFF;" version="1.1" viewBox="0 0 1377 441" width="1377px" zoomAndPan="magnify"><defs/><g><!--cluster SmartHome--><g id="cluster_SmartHome"><path d="M16.5,4 L97.5,4 A3.75,3.75 0 0 1 100,6.5 L107,28.6211 L1367.5,28.6211 A2.5,2.5 0 0 1 1370,31.1211 L1370,431.5 A2.5,2.5 0 0 1 1367.5,434 L16.5,434 A2.5,2.5 0 0 1 14,431.5 L14,6.5 A2.5,2.5 0 0 1 16.5,4 " fill="none" style="stroke:#000000;stroke-width:1.5;"/><line style="stroke:#000000;stroke-width:1.5;" x1="14" x2="107" y1="28.6211" y2="28.6211"/><text fill="#000000" font-family="sans-serif" font-size="14" font-weight="bold" lengthAdjust="spacing" textLength="80" x="18" y="21.1074">SmartHome</text></g><!--cluster sensors--><g id="cluster_sensors"><path d="M24.5,33 L82.5,33 A3.75,3.75 0 0 1 85,35.5 L92,57.6211 L353.5,57.6211 A2.5,2.5 0 0 1 356,60.1211 L356,405 A2.5,2.5 0 0 1 353.5,407.5 L24.5,407.5 A2.5,2.5 0 0 1 22,405 L22,35.5 A2.5,2.5 0 0 1 24.5,33 " fill="none" style="stroke:#000000;stroke-width:1.5;"/><line style="stroke:#000000;stroke-width:1.5;" x1="22" x2="92" y1="57.6211" y2="57.6211"/><text fill="#000000" font-family="sans-serif" font-size="14" font-weight="bold" lengthAdjust="spacing" textLength="57" x="26" y="50.1074">sensors</text></g><!--cluster domain--><g id="cluster_domain"><path d="M366.5,248 L418.5,248 A3.75,3.75 0 0 1 421,250.5 L428,272.6211 L1359.5,272.6211 A2.5,2.5 0 0 1 1362,275.1211 L1362,423.5 A2.5,2.5 0 0 1 1359.5,426 L366.5,426 A2.5,2.5 0 0 1 364,423.5 L364,250.5 A2.5,2.5 0 0 1 366.5,248 " fill="none" style="stroke:#000000;stroke-width:1.5;"/><line style="stroke:#000000;stroke-width:1.5;" x1="364" x2="428" y1="272.6211" y2="272.6211"/><text fill="#000000" font-family="sans-serif" font-size="14" font-weight="bold" lengthAdjust="spacing" textLength="51" x="368" y="265.1074">domain</text></g><!--class HumiditySensor--><g id="elem_HumiditySensor"><rect codeLine="5" fill="#F1F1F1" height="141.1055" id="HumiditySensor" rx="2.5" ry="2.5" style="stroke:#181818;stroke-width:0.5;" width="318" x="30" y="62"/><ellipse cx="135.75" cy="78" fill="#ADD1B2" rx="11" ry="11" style="stroke:#181818;stroke-width:1.0;"/><path d="M138.5156,73.875 Q138.6719,73.6563 138.8594,73.5469 Q139.0469,73.4375 139.2656,73.4375 Q139.6406,73.4375 139.875,73.7031 Q140.1094,73.9531 140.1094,74.5625 L140.1094,76.0156 Q140.1094,76.625 139.875,76.8906 Q139.6406,77.1563 139.2656,77.1563 Q138.9219,77.1563 138.7188,76.9531 Q138.5156,76.7656 138.4063,76.25 Q138.3594,75.8906 138.1719,75.7031 Q137.8438,75.3281 137.2344,75.1094 Q136.625,74.8906 136,74.8906 Q135.2344,74.8906 134.5938,75.2188 Q133.9688,75.5469 133.4688,76.2969 Q132.9844,77.0469 132.9844,78.0781 L132.9844,79.1719 Q132.9844,80.4063 133.875,81.2344 Q134.7656,82.0469 136.3594,82.0469 Q137.2969,82.0469 137.9531,81.7969 Q138.3438,81.6406 138.7656,81.2031 Q139.0313,80.9375 139.1719,80.8594 Q139.3281,80.7813 139.5313,80.7813 Q139.8594,80.7813 140.1094,81.0469 Q140.375,81.2969 140.375,81.6406 Q140.375,81.9844 140.0313,82.3906 Q139.5313,82.9688 138.7344,83.2969 Q137.6563,83.75 136.3594,83.75 Q134.8438,83.75 133.6406,83.125 Q132.6563,82.625 131.9688,81.5625 Q131.2813,80.4844 131.2813,79.2031 L131.2813,78.0469 Q131.2813,76.7188 131.8906,75.5781 Q132.5156,74.4219 133.6094,73.8125 Q134.7031,73.1875 135.9375,73.1875 Q136.6719,73.1875 137.3125,73.3594 Q137.9688,73.5156 138.5156,73.875 Z " fill="#000000"/><text fill="#000000" font-family="sans-serif" font-size="14" lengthAdjust="spacing" textLength="98" x="156.25" y="83.7969">HumiditySensor</text><line style="stroke:#181818;stroke-width:0.5;" x1="31" x2="347" y1="94" y2="94"/><rect fill="none" height="6" style="stroke:#C82930;stroke-width:1.0;" width="6" x="38" y="105.8105"/><text fill="#000000" font-family="sans-serif" font-size="14" lengthAdjust="spacing" textLength="202" x="50" y="113.1074">final _sensorType : SensorType</text><rect fill="none" height="6" style="stroke:#C82930;stroke-width:1.0;" width="6" x="38" y="124.4316"/><text fill="#000000" font-family="sans-serif" font-size="14" lengthAdjust="spacing" textLength="188" x="50" y="131.7285">_value : HumiditySensorValue</text><line style="stroke:#181818;stroke-width:0.5;" x1="31" x2="347" y1="139.2422" y2="139.2422"/><ellipse cx="41" cy="154.0527" fill="#84BE84" rx="3" ry="3" style="stroke:#038048;stroke-width:1.0;"/><text fill="#000000" font-family="sans-serif" font-size="14" lengthAdjust="spacing" textLength="292" x="50" y="158.3496">HumiditySensor(catalogue : CatalogueSensor)</text><ellipse cx="41" cy="172.6738" fill="#84BE84" rx="3" ry="3" style="stroke:#038048;stroke-width:1.0;"/><text fill="#000000" font-family="sans-serif" font-size="14" lengthAdjust="spacing" textLength="196" x="50" y="176.9707">getSensorType() : SensorType</text><ellipse cx="41" cy="191.2949" fill="#84BE84" rx="3" ry="3" style="stroke:#038048;stroke-width:1.0;"/><text fill="#000000" font-family="sans-serif" font-size="14" lengthAdjust="spacing" textLength="114" x="50" y="195.5918">getValue() : Value</text></g><!--class HumiditySensorValue--><g id="elem_HumiditySensorValue"><rect codeLine="13" fill="#F1F1F1" height="103.8633" id="HumiditySensorValue" rx="2.5" ry="2.5" style="stroke:#181818;stroke-width:0.5;" width="269" x="63.5" y="295.5"/><ellipse cx="126.75" cy="311.5" fill="#ADD1B2" rx="11" ry="11" style="stroke:#181818;stroke-width:1.0;"/><path d="M129.5156,307.375 Q129.6719,307.1563 129.8594,307.0469 Q130.0469,306.9375 130.2656,306.9375 Q130.6406,306.9375 130.875,307.2031 Q131.1094,307.4531 131.1094,308.0625 L131.1094,309.5156 Q131.1094,310.125 130.875,310.3906 Q130.6406,310.6563 130.2656,310.6563 Q129.9219,310.6563 129.7188,310.4531 Q129.5156,310.2656 129.4063,309.75 Q129.3594,309.3906 129.1719,309.2031 Q128.8438,308.8281 128.2344,308.6094 Q127.625,308.3906 127,308.3906 Q126.2344,308.3906 125.5938,308.7188 Q124.9688,309.0469 124.4688,309.7969 Q123.9844,310.5469 123.9844,311.5781 L123.9844,312.6719 Q123.9844,313.9063 124.875,314.7344 Q125.7656,315.5469 127.3594,315.5469 Q128.2969,315.5469 128.9531,315.2969 Q129.3438,315.1406 129.7656,314.7031 Q130.0313,314.4375 130.1719,314.3594 Q130.3281,314.2813 130.5313,314.2813 Q130.8594,314.2813 131.1094,314.5469 Q131.375,314.7969 131.375,315.1406 Q131.375,315.4844 131.0313,315.8906 Q130.5313,316.4688 129.7344,316.7969 Q128.6563,317.25 127.3594,317.25 Q125.8438,317.25 124.6406,316.625 Q123.6563,316.125 122.9688,315.0625 Q122.2813,313.9844 122.2813,312.7031 L122.2813,311.5469 Q122.2813,310.2188 122.8906,309.0781 Q123.5156,307.9219 124.6094,307.3125 Q125.7031,306.6875 126.9375,306.6875 Q127.6719,306.6875 128.3125,306.8594 Q128.9688,307.0156 129.5156,307.375 Z " fill="#000000"/><text fill="#000000" font-family="sans-serif" font-size="14" lengthAdjust="spacing" textLength="134" x="147.25" y="317.2969">HumiditySensorValue</text><line style="stroke:#181818;stroke-width:0.5;" x1="64.5" x2="331.5" y1="327.5" y2="327.5"/><rect fill="none" height="6" style="stroke:#C82930;stroke-width:1.0;" width="6" x="71.5" y="339.3105"/><text fill="#000000" font-family="sans-serif" font-size="14" lengthAdjust="spacing" textLength="107" x="83.5" y="346.6074">_dValue : double</text><line style="stroke:#181818;stroke-width:0.5;" x1="64.5" x2="331.5" y1="354.1211" y2="354.1211"/><ellipse cx="74.5" cy="368.9316" fill="#84BE84" rx="3" ry="3" style="stroke:#038048;stroke-width:1.0;"/><text fill="#000000" font-family="sans-serif" font-size="14" lengthAdjust="spacing" textLength="243" x="83.5" y="373.2285">HumiditySensorValue(dValue : double)</text><ellipse cx="74.5" cy="387.5527" fill="#84BE84" rx="3" ry="3" style="stroke:#038048;stroke-width:1.0;"/><text fill="#000000" font-family="sans-serif" font-size="14" lengthAdjust="spacing" textLength="108" x="83.5" y="391.8496">toString() : String</text></g><!--class Value--><g id="elem_Value"><rect codeLine="36" fill="#F1F1F1" height="48" id="Value" rx="2.5" ry="2.5" style="stroke:#181818;stroke-width:0.5;" width="68" x="372" y="323.5"/><ellipse cx="387" cy="339.5" fill="#B4A7E5" rx="11" ry="11" style="stroke:#181818;stroke-width:1.0;"/><path d="M387.9531,336.1406 L387.9531,342.7969 L389.6719,342.7969 Q390.2813,342.7969 390.5469,343.0313 Q390.8125,343.2656 390.8125,343.6563 Q390.8125,344.0313 390.5469,344.2656 Q390.2813,344.5 389.6719,344.5 L384.5313,344.5 Q383.9219,344.5 383.6563,344.2656 Q383.3906,344.0313 383.3906,343.6406 Q383.3906,343.2656 383.6563,343.0313 Q383.9219,342.7969 384.5313,342.7969 L386.25,342.7969 L386.25,336.1406 L384.5313,336.1406 Q383.9219,336.1406 383.6563,335.9063 Q383.3906,335.6719 383.3906,335.2813 Q383.3906,334.9063 383.6563,334.6719 Q383.9219,334.4375 384.5313,334.4375 L389.6719,334.4375 Q390.2813,334.4375 390.5469,334.6719 Q390.8125,334.9063 390.8125,335.2813 Q390.8125,335.6719 390.5469,335.9063 Q390.2813,336.1406 389.6719,336.1406 L387.9531,336.1406 Z " fill="#000000"/><text fill="#000000" font-family="sans-serif" font-size="14" font-style="italic" lengthAdjust="spacing" textLength="36" x="401" y="345.2969">Value</text><line style="stroke:#181818;stroke-width:0.5;" x1="373" x2="439" y1="355.5" y2="355.5"/><line style="stroke:#181818;stroke-width:0.5;" x1="373" x2="439" y1="363.5" y2="363.5"/></g><!--class Sensor--><g id="elem_Sensor"><rect codeLine="23" fill="#F1F1F1" height="85.2422" id="Sensor" rx="2.5" ry="2.5" style="stroke:#181818;stroke-width:0.5;" width="222" x="458" y="305"/><ellipse cx="542.25" cy="321" fill="#B4A7E5" rx="11" ry="11" style="stroke:#181818;stroke-width:1.0;"/><path d="M543.2031,317.6406 L543.2031,324.2969 L544.9219,324.2969 Q545.5313,324.2969 545.7969,324.5313 Q546.0625,324.7656 546.0625,325.1563 Q546.0625,325.5313 545.7969,325.7656 Q545.5313,326 544.9219,326 L539.7813,326 Q539.1719,326 538.9063,325.7656 Q538.6406,325.5313 538.6406,325.1406 Q538.6406,324.7656 538.9063,324.5313 Q539.1719,324.2969 539.7813,324.2969 L541.5,324.2969 L541.5,317.6406 L539.7813,317.6406 Q539.1719,317.6406 538.9063,317.4063 Q538.6406,317.1719 538.6406,316.7813 Q538.6406,316.4063 538.9063,316.1719 Q539.1719,315.9375 539.7813,315.9375 L544.9219,315.9375 Q545.5313,315.9375 545.7969,316.1719 Q546.0625,316.4063 546.0625,316.7813 Q546.0625,317.1719 545.7969,317.4063 Q545.5313,317.6406 544.9219,317.6406 L543.2031,317.6406 Z " fill="#000000"/><text fill="#000000" font-family="sans-serif" font-size="14" font-style="italic" lengthAdjust="spacing" textLength="45" x="562.75" y="326.7969">Sensor</text><line style="stroke:#181818;stroke-width:0.5;" x1="459" x2="679" y1="337" y2="337"/><line style="stroke:#181818;stroke-width:0.5;" x1="459" x2="679" y1="345" y2="345"/><ellipse cx="469" cy="359.8105" fill="#84BE84" rx="3" ry="3" style="stroke:#038048;stroke-width:1.0;"/><text fill="#000000" font-family="sans-serif" font-size="14" lengthAdjust="spacing" textLength="196" x="478" y="364.1074">getSensorType() : SensorType</text><ellipse cx="469" cy="378.4316" fill="#84BE84" rx="3" ry="3" style="stroke:#038048;stroke-width:1.0;"/><text fill="#000000" font-family="sans-serif" font-size="14" lengthAdjust="spacing" textLength="114" x="478" y="382.7285">getValue() : Value</text></g><!--class SensorType--><g id="elem_SensorType"><rect codeLine="28" fill="#F1F1F1" height="141.1055" id="SensorType" rx="2.5" ry="2.5" style="stroke:#181818;stroke-width:0.5;" width="298" x="698" y="277"/><ellipse cx="804.25" cy="293" fill="#ADD1B2" rx="11" ry="11" style="stroke:#181818;stroke-width:1.0;"/><path d="M807.0156,288.875 Q807.1719,288.6563 807.3594,288.5469 Q807.5469,288.4375 807.7656,288.4375 Q808.1406,288.4375 808.375,288.7031 Q808.6094,288.9531 808.6094,289.5625 L808.6094,291.0156 Q808.6094,291.625 808.375,291.8906 Q808.1406,292.1563 807.7656,292.1563 Q807.4219,292.1563 807.2188,291.9531 Q807.0156,291.7656 806.9063,291.25 Q806.8594,290.8906 806.6719,290.7031 Q806.3438,290.3281 805.7344,290.1094 Q805.125,289.8906 804.5,289.8906 Q803.7344,289.8906 803.0938,290.2188 Q802.4688,290.5469 801.9688,291.2969 Q801.4844,292.0469 801.4844,293.0781 L801.4844,294.1719 Q801.4844,295.4063 802.375,296.2344 Q803.2656,297.0469 804.8594,297.0469 Q805.7969,297.0469 806.4531,296.7969 Q806.8438,296.6406 807.2656,296.2031 Q807.5313,295.9375 807.6719,295.8594 Q807.8281,295.7813 808.0313,295.7813 Q808.3594,295.7813 808.6094,296.0469 Q808.875,296.2969 808.875,296.6406 Q808.875,296.9844 808.5313,297.3906 Q808.0313,297.9688 807.2344,298.2969 Q806.1563,298.75 804.8594,298.75 Q803.3438,298.75 802.1406,298.125 Q801.1563,297.625 800.4688,296.5625 Q799.7813,295.4844 799.7813,294.2031 L799.7813,293.0469 Q799.7813,291.7188 800.3906,290.5781 Q801.0156,289.4219 802.1094,288.8125 Q803.2031,288.1875 804.4375,288.1875 Q805.1719,288.1875 805.8125,288.3594 Q806.4688,288.5156 807.0156,288.875 Z " fill="#000000"/><text fill="#000000" font-family="sans-serif" font-size="14" lengthAdjust="spacing" textLength="77" x="824.75" y="298.7969">SensorType</text><line style="stroke:#181818;stroke-width:0.5;" x1="699" x2="995" y1="309" y2="309"/><rect fill="none" height="6" style="stroke:#C82930;stroke-width:1.0;" width="6" x="706" y="320.8105"/><text fill="#000000" font-family="sans-serif" font-size="14" lengthAdjust="spacing" textLength="126" x="718" y="328.1074">_description : String</text><rect fill="none" height="6" style="stroke:#C82930;stroke-width:1.0;" width="6" x="706" y="339.4316"/><text fill="#000000" font-family="sans-serif" font-size="14" lengthAdjust="spacing" textLength="67" x="718" y="346.7285">_unit : Unit</text><line style="stroke:#181818;stroke-width:0.5;" x1="699" x2="995" y1="354.2422" y2="354.2422"/><polygon fill="#FFFF44" points="709,364.0527,713,368.0527,709,372.0527,705,368.0527" style="stroke:#B38D22;stroke-width:1.0;"/><text fill="#000000" font-family="sans-serif" font-size="14" lengthAdjust="spacing" textLength="272" x="718" y="373.3496">SensorType(description : String, unit : Unit)</text><ellipse cx="709" cy="387.6738" fill="#84BE84" rx="3" ry="3" style="stroke:#038048;stroke-width:1.0;"/><text fill="#000000" font-family="sans-serif" font-size="14" lengthAdjust="spacing" textLength="150" x="718" y="391.9707">getDescription() : String</text><ellipse cx="709" cy="406.2949" fill="#84BE84" rx="3" ry="3" style="stroke:#038048;stroke-width:1.0;"/><text fill="#000000" font-family="sans-serif" font-size="14" lengthAdjust="spacing" textLength="90" x="718" y="410.5918">getUnit() : Unit</text></g><!--class CatalogueSensor--><g id="elem_CatalogueSensor"><rect codeLine="39" fill="#F1F1F1" height="66.6211" id="CatalogueSensor" rx="2.5" ry="2.5" style="stroke:#181818;stroke-width:0.5;" width="340" x="1014" y="314"/><ellipse cx="1124.75" cy="330" fill="#ADD1B2" rx="11" ry="11" style="stroke:#181818;stroke-width:1.0;"/><path d="M1127.5156,325.875 Q1127.6719,325.6563 1127.8594,325.5469 Q1128.0469,325.4375 1128.2656,325.4375 Q1128.6406,325.4375 1128.875,325.7031 Q1129.1094,325.9531 1129.1094,326.5625 L1129.1094,328.0156 Q1129.1094,328.625 1128.875,328.8906 Q1128.6406,329.1563 1128.2656,329.1563 Q1127.9219,329.1563 1127.7188,328.9531 Q1127.5156,328.7656 1127.4063,328.25 Q1127.3594,327.8906 1127.1719,327.7031 Q1126.8438,327.3281 1126.2344,327.1094 Q1125.625,326.8906 1125,326.8906 Q1124.2344,326.8906 1123.5938,327.2188 Q1122.9688,327.5469 1122.4688,328.2969 Q1121.9844,329.0469 1121.9844,330.0781 L1121.9844,331.1719 Q1121.9844,332.4063 1122.875,333.2344 Q1123.7656,334.0469 1125.3594,334.0469 Q1126.2969,334.0469 1126.9531,333.7969 Q1127.3438,333.6406 1127.7656,333.2031 Q1128.0313,332.9375 1128.1719,332.8594 Q1128.3281,332.7813 1128.5313,332.7813 Q1128.8594,332.7813 1129.1094,333.0469 Q1129.375,333.2969 1129.375,333.6406 Q1129.375,333.9844 1129.0313,334.3906 Q1128.5313,334.9688 1127.7344,335.2969 Q1126.6563,335.75 1125.3594,335.75 Q1123.8438,335.75 1122.6406,335.125 Q1121.6563,334.625 1120.9688,333.5625 Q1120.2813,332.4844 1120.2813,331.2031 L1120.2813,330.0469 Q1120.2813,328.7188 1120.8906,327.5781 Q1121.5156,326.4219 1122.6094,325.8125 Q1123.7031,325.1875 1124.9375,325.1875 Q1125.6719,325.1875 1126.3125,325.3594 Q1126.9688,325.5156 1127.5156,325.875 Z " fill="#000000"/><text fill="#000000" font-family="sans-serif" font-size="14" lengthAdjust="spacing" textLength="110" x="1145.25" y="335.7969">CatalogueSensor</text><line style="stroke:#181818;stroke-width:0.5;" x1="1015" x2="1353" y1="346" y2="346"/><line style="stroke:#181818;stroke-width:0.5;" x1="1015" x2="1353" y1="354" y2="354"/><ellipse cx="1025" cy="368.8105" fill="#84BE84" rx="3" ry="3" style="stroke:#038048;stroke-width:1.0;"/><text fill="#000000" font-family="sans-serif" font-size="14" lengthAdjust="spacing" textLength="314" x="1034" y="373.1074">getSensorType(description : String) : SensorType</text></g><polygon fill="none" points="371.7227,347.5,353.7227,341.5,353.7227,353.5,371.7227,347.5" style="stroke:#181818;stroke-width:1.0;"/><path d="M353.7227,347.5 C340.7734,347.5 345.8242,347.5 332.875,347.5 " fill="none" style="stroke:#181818;stroke-width:1.0;stroke-dasharray:7.0,7.0;"/><polygon fill="none" points="524.2053,304.7879,514.5618,288.4477,506.6864,297.5018,524.2053,304.7879" style="stroke:#181818;stroke-width:1.0;"/><path d="M348.2073,195.3841 C382.3549,210.9026 417.5896,228.6957 449,248 C475.5222,264.3 488.9578,274.1289 510.6241,292.9747 " fill="none" style="stroke:#181818;stroke-width:1.0;stroke-dasharray:7.0,7.0;"/><polygon fill="#181818" points="746.3903,276.956,740.6319,268.9659,742.0715,274.4366,736.6008,275.8761,746.3903,276.956" style="stroke:#181818;stroke-width:1.0;"/><path d="M348.2503,156.0647 C448.5869,173.634 579.4091,202.7868 689,248 C708.2734,255.9515 722.6821,263.1257 741.2077,273.9327 " fill="none" style="stroke:#181818;stroke-width:1.0;"/><text fill="#000000" font-family="sans-serif" font-size="13" lengthAdjust="spacing" textLength="32" x="664" y="236.0283">has a</text><text fill="#000000" font-family="sans-serif" font-size="13" lengthAdjust="spacing" textLength="7" x="738.3903" y="272.9843">1</text><text fill="#000000" font-family="sans-serif" font-size="13" lengthAdjust="spacing" textLength="7" x="349.2503" y="152.093">1</text><polygon fill="#181818" points="195.8316,295.1805,199.4481,286.0196,195.6205,290.1849,191.4552,286.3574,195.8316,295.1805" style="stroke:#181818;stroke-width:1.0;"/><path d="M191.9469,203.2442 C193.2132,233.2121 194.4131,261.6111 195.5783,289.1858 " fill="none" style="stroke:#181818;stroke-width:1.0;"/><text fill="#000000" font-family="sans-serif" font-size="13" lengthAdjust="spacing" textLength="49" x="194" y="236.0283">contains</text><text fill="#000000" font-family="sans-serif" font-size="13" lengthAdjust="spacing" textLength="7" x="187.8316" y="291.2088">1</text><text fill="#000000" font-family="sans-serif" font-size="13" lengthAdjust="spacing" textLength="7" x="183.9469" y="218.2725">1</text><polygon fill="#181818" points="1136.0727,313.8134,1130.6233,305.6095,1131.8531,311.131,1126.3316,312.3608,1136.0727,313.8134" style="stroke:#181818;stroke-width:1.0;"/><path d="M348.1571,138.8136 C515.5044,148.2909 784.5973,174.6592 1005,248 C1052.1189,263.6792 1096.1719,288.4491 1131.0092,310.5946 " fill="none" style="stroke:#181818;stroke-width:1.0;stroke-dasharray:7.0,7.0;"/><text fill="#000000" font-family="sans-serif" font-size="13" lengthAdjust="spacing" textLength="28" x="963" y="236.0283">uses</text><text fill="#000000" font-family="sans-serif" font-size="13" lengthAdjust="spacing" textLength="7" x="1128.0727" y="309.8417">1</text><text fill="#000000" font-family="sans-serif" font-size="13" lengthAdjust="spacing" textLength="7" x="349.1571" y="134.8419">1</text><polygon fill="none" points="371.7227,347.5,353.7227,341.5,353.7227,353.5,371.7227,347.5" style="stroke:#181818;stroke-width:1.0;"/><path d="M332.875,347.5 C345.8242,347.5 340.7734,347.5 353.7227,347.5 " fill="none" style="stroke:#181818;stroke-width:1.0;stroke-dasharray:7.0,7.0;"/><!--SRC=[hLCzJyCm4DtpAuwoj89QOktG1ORkWQxLaRZ1mXzHx21LaFzEOkV3THsA45wS-BsxU_VElYahB0G2nvEg3MX13KfCaXApTomef08hirE24asbLfM6poI1TcKSjOPTBLZEp2crO8j1lzPmP18v75pOywcai85q_F68Xm_aTOUU9zjtfoFjBa2N6Hhagh21ZyEtmrPUL47DL7IvYckmD5lFCgRApNolbWHCb9mAAetsdCgLG2Q9O_YM7F9ztsgkwbS-tvtJ4h3zjenAJSLauJgoduFW9ZOy9scO7PE6LaVCA5pCxLyTcm836wZEAbOQfkIv_1wl9JCjyD9ku_6jbsqPIt0FNbXm1PucVkZOoEd2B3YMRKAt_8cUDHfSm1_yZ2cFUDnqOxnuUoHuReHyRI_ldGElHoyU5h1UR-q-awH_jc-e0V-QC4uUhdQcf6dhwTzb9sH6RZY03TIQNa_gLCHjjDWt]--></g></svg>