<?xml version="1.0" encoding="us-ascii" standalone="no"?><svg xmlns="http://www.w3.org/2000/svg" xmlns:xlink="http://www.w3.org/1999/xlink" contentStyleType="text/css" height="1155px" preserveAspectRatio="none" style="width:1840px;height:1155px;background:#FFFFFF;" version="1.1" viewBox="0 0 1840 1155" width="1840px" zoomAndPan="magnify"><defs/><g><!--cluster domain--><g id="cluster_domain"><path d="M16.5,4 L68.5,4 A3.75,3.75 0 0 1 71,6.5 L78,28.6211 L1830.5,28.6211 A2.5,2.5 0 0 1 1833,31.1211 L1833,1145.5 A2.5,2.5 0 0 1 1830.5,1148 L16.5,1148 A2.5,2.5 0 0 1 14,1145.5 L14,6.5 A2.5,2.5 0 0 1 16.5,4 " fill="none" style="stroke:#000000;stroke-width:1.5;"/><line style="stroke:#000000;stroke-width:1.5;" x1="14" x2="78" y1="28.6211" y2="28.6211"/><text fill="#000000" font-family="sans-serif" font-size="14" font-weight="bold" lengthAdjust="spacing" textLength="51" x="18" y="21.1074">domain</text></g><!--cluster Sensor--><g id="cluster_Sensor"><path d="M24.5,33 L75.5,33 A3.75,3.75 0 0 1 78,35.5 L85,57.6211 L1822.5,57.6211 A2.5,2.5 0 0 1 1825,60.1211 L1825,778.5 A2.5,2.5 0 0 1 1822.5,781 L24.5,781 A2.5,2.5 0 0 1 22,778.5 L22,35.5 A2.5,2.5 0 0 1 24.5,33 " fill="none" style="stroke:#000000;stroke-width:1.5;"/><line style="stroke:#000000;stroke-width:1.5;" x1="22" x2="85" y1="57.6211" y2="57.6211"/><text fill="#000000" font-family="sans-serif" font-size="14" font-weight="bold" lengthAdjust="spacing" textLength="50" x="26" y="50.1074">Sensor</text></g><!--cluster HumiditySensor--><g id="cluster_HumiditySensor"><path d="M298.5,174 L409.5,174 A3.75,3.75 0 0 1 412,176.5 L419,198.6211 L1560.5,198.6211 A2.5,2.5 0 0 1 1563,201.1211 L1563,747.5 A2.5,2.5 0 0 1 1560.5,750 L298.5,750 A2.5,2.5 0 0 1 296,747.5 L296,176.5 A2.5,2.5 0 0 1 298.5,174 " fill="none" style="stroke:#000000;stroke-width:1.5;"/><line style="stroke:#000000;stroke-width:1.5;" x1="296" x2="419" y1="198.6211" y2="198.6211"/><text fill="#000000" font-family="sans-serif" font-size="14" font-weight="bold" lengthAdjust="spacing" textLength="110" x="300" y="191.1074">HumiditySensor</text></g><!--cluster ddd--><g id="cluster_ddd"><path d="M1107.5,800 L1135.5,800 A3.75,3.75 0 0 1 1138,802.5 L1145,824.6211 L1246.5,824.6211 A2.5,2.5 0 0 1 1249,827.1211 L1249,1137.5 A2.5,2.5 0 0 1 1246.5,1140 L1107.5,1140 A2.5,2.5 0 0 1 1105,1137.5 L1105,802.5 A2.5,2.5 0 0 1 1107.5,800 " fill="none" style="stroke:#000000;stroke-width:1.5;"/><line style="stroke:#000000;stroke-width:1.5;" x1="1105" x2="1145" y1="824.6211" y2="824.6211"/><text fill="#000000" font-family="sans-serif" font-size="14" font-weight="bold" lengthAdjust="spacing" textLength="27" x="1109" y="817.1074">ddd</text></g><!--class FactorySensor--><g id="elem_FactorySensor"><rect codeLine="4" fill="#F1F1F1" height="66.6211" id="FactorySensor" rx="2.5" ry="2.5" style="stroke:#181818;stroke-width:0.5;" width="258" x="30" y="338"/><ellipse cx="108.25" cy="354" fill="#B4A7E5" rx="11" ry="11" style="stroke:#181818;stroke-width:1.0;"/><path d="M109.2031,350.6406 L109.2031,357.2969 L110.9219,357.2969 Q111.5313,357.2969 111.7969,357.5313 Q112.0625,357.7656 112.0625,358.1563 Q112.0625,358.5313 111.7969,358.7656 Q111.5313,359 110.9219,359 L105.7813,359 Q105.1719,359 104.9063,358.7656 Q104.6406,358.5313 104.6406,358.1406 Q104.6406,357.7656 104.9063,357.5313 Q105.1719,357.2969 105.7813,357.2969 L107.5,357.2969 L107.5,350.6406 L105.7813,350.6406 Q105.1719,350.6406 104.9063,350.4063 Q104.6406,350.1719 104.6406,349.7813 Q104.6406,349.4063 104.9063,349.1719 Q105.1719,348.9375 105.7813,348.9375 L110.9219,348.9375 Q111.5313,348.9375 111.7969,349.1719 Q112.0625,349.4063 112.0625,349.7813 Q112.0625,350.1719 111.7969,350.4063 Q111.5313,350.6406 110.9219,350.6406 L109.2031,350.6406 Z " fill="#000000"/><text fill="#000000" font-family="sans-serif" font-size="14" font-style="italic" lengthAdjust="spacing" textLength="93" x="128.75" y="359.7969">FactorySensor</text><line style="stroke:#181818;stroke-width:0.5;" x1="31" x2="287" y1="370" y2="370"/><line style="stroke:#181818;stroke-width:0.5;" x1="31" x2="287" y1="378" y2="378"/><ellipse cx="41" cy="392.8105" fill="#84BE84" rx="3" ry="3" style="stroke:#038048;stroke-width:1.0;"/><text fill="#000000" font-family="sans-serif" font-size="14" lengthAdjust="spacing" textLength="232" x="50" y="397.1074">create(Object... parameters): Sensor</text></g><!--class ImplFactorySensor--><g id="elem_ImplFactorySensor"><rect codeLine="8" fill="#F1F1F1" height="66.6211" id="ImplFactorySensor" rx="2.5" ry="2.5" style="stroke:#181818;stroke-width:0.5;" width="258" x="433" y="62"/><ellipse cx="498.75" cy="78" fill="#ADD1B2" rx="11" ry="11" style="stroke:#181818;stroke-width:1.0;"/><path d="M501.5156,73.875 Q501.6719,73.6563 501.8594,73.5469 Q502.0469,73.4375 502.2656,73.4375 Q502.6406,73.4375 502.875,73.7031 Q503.1094,73.9531 503.1094,74.5625 L503.1094,76.0156 Q503.1094,76.625 502.875,76.8906 Q502.6406,77.1563 502.2656,77.1563 Q501.9219,77.1563 501.7188,76.9531 Q501.5156,76.7656 501.4063,76.25 Q501.3594,75.8906 501.1719,75.7031 Q500.8438,75.3281 500.2344,75.1094 Q499.625,74.8906 499,74.8906 Q498.2344,74.8906 497.5938,75.2188 Q496.9688,75.5469 496.4688,76.2969 Q495.9844,77.0469 495.9844,78.0781 L495.9844,79.1719 Q495.9844,80.4063 496.875,81.2344 Q497.7656,82.0469 499.3594,82.0469 Q500.2969,82.0469 500.9531,81.7969 Q501.3438,81.6406 501.7656,81.2031 Q502.0313,80.9375 502.1719,80.8594 Q502.3281,80.7813 502.5313,80.7813 Q502.8594,80.7813 503.1094,81.0469 Q503.375,81.2969 503.375,81.6406 Q503.375,81.9844 503.0313,82.3906 Q502.5313,82.9688 501.7344,83.2969 Q500.6563,83.75 499.3594,83.75 Q497.8438,83.75 496.6406,83.125 Q495.6563,82.625 494.9688,81.5625 Q494.2813,80.4844 494.2813,79.2031 L494.2813,78.0469 Q494.2813,76.7188 494.8906,75.5781 Q495.5156,74.4219 496.6094,73.8125 Q497.7031,73.1875 498.9375,73.1875 Q499.6719,73.1875 500.3125,73.3594 Q500.9688,73.5156 501.5156,73.875 Z " fill="#000000"/><text fill="#000000" font-family="sans-serif" font-size="14" lengthAdjust="spacing" textLength="118" x="519.25" y="83.7969">ImplFactorySensor</text><line style="stroke:#181818;stroke-width:0.5;" x1="434" x2="690" y1="94" y2="94"/><line style="stroke:#181818;stroke-width:0.5;" x1="434" x2="690" y1="102" y2="102"/><ellipse cx="444" cy="116.8105" fill="#84BE84" rx="3" ry="3" style="stroke:#038048;stroke-width:1.0;"/><text fill="#000000" font-family="sans-serif" font-size="14" lengthAdjust="spacing" textLength="232" x="453" y="121.1074">create(Object... parameters): Sensor</text></g><!--class Sensor--><g id="elem_Sensor"><rect codeLine="12" fill="#F1F1F1" height="178.3477" id="Sensor" rx="2.5" ry="2.5" style="stroke:#181818;stroke-width:0.5;" width="244" x="1573" y="595"/><ellipse cx="1668.25" cy="611" fill="#B4A7E5" rx="11" ry="11" style="stroke:#181818;stroke-width:1.0;"/><path d="M1669.2031,607.6406 L1669.2031,614.2969 L1670.9219,614.2969 Q1671.5313,614.2969 1671.7969,614.5313 Q1672.0625,614.7656 1672.0625,615.1563 Q1672.0625,615.5313 1671.7969,615.7656 Q1671.5313,616 1670.9219,616 L1665.7813,616 Q1665.1719,616 1664.9063,615.7656 Q1664.6406,615.5313 1664.6406,615.1406 Q1664.6406,614.7656 1664.9063,614.5313 Q1665.1719,614.2969 1665.7813,614.2969 L1667.5,614.2969 L1667.5,607.6406 L1665.7813,607.6406 Q1665.1719,607.6406 1664.9063,607.4063 Q1664.6406,607.1719 1664.6406,606.7813 Q1664.6406,606.4063 1664.9063,606.1719 Q1665.1719,605.9375 1665.7813,605.9375 L1670.9219,605.9375 Q1671.5313,605.9375 1671.7969,606.1719 Q1672.0625,606.4063 1672.0625,606.7813 Q1672.0625,607.1719 1671.7969,607.4063 Q1671.5313,607.6406 1670.9219,607.6406 L1669.2031,607.6406 Z " fill="#000000"/><text fill="#000000" font-family="sans-serif" font-size="14" font-style="italic" lengthAdjust="spacing" textLength="45" x="1688.75" y="616.7969">Sensor</text><line style="stroke:#181818;stroke-width:0.5;" x1="1574" x2="1816" y1="627" y2="627"/><line style="stroke:#181818;stroke-width:0.5;" x1="1574" x2="1816" y1="635" y2="635"/><ellipse cx="1584" cy="649.8105" fill="#84BE84" rx="3" ry="3" style="stroke:#038048;stroke-width:1.0;"/><text fill="#000000" font-family="sans-serif" font-size="14" lengthAdjust="spacing" textLength="109" x="1593" y="654.1074">getID(): SensorID</text><ellipse cx="1584" cy="668.4316" fill="#84BE84" rx="3" ry="3" style="stroke:#038048;stroke-width:1.0;"/><text fill="#000000" font-family="sans-serif" font-size="14" lengthAdjust="spacing" textLength="155" x="1593" y="672.7285">getName(): SensorName</text><ellipse cx="1584" cy="687.0527" fill="#84BE84" rx="3" ry="3" style="stroke:#038048;stroke-width:1.0;"/><text fill="#000000" font-family="sans-serif" font-size="14" lengthAdjust="spacing" textLength="172" x="1593" y="691.3496">getModelPath(): ModelPath</text><ellipse cx="1584" cy="705.6738" fill="#84BE84" rx="3" ry="3" style="stroke:#038048;stroke-width:1.0;"/><text fill="#000000" font-family="sans-serif" font-size="14" lengthAdjust="spacing" textLength="218" x="1593" y="709.9707">getSensorTypeID(): SensorTypeID</text><ellipse cx="1584" cy="724.2949" fill="#84BE84" rx="3" ry="3" style="stroke:#038048;stroke-width:1.0;"/><text fill="#000000" font-family="sans-serif" font-size="14" lengthAdjust="spacing" textLength="150" x="1593" y="728.5918">getDeviceID(): DeviceID</text><ellipse cx="1584" cy="742.916" fill="#84BE84" rx="3" ry="3" style="stroke:#038048;stroke-width:1.0;"/><text fill="#000000" font-family="sans-serif" font-size="14" lengthAdjust="spacing" textLength="151" x="1593" y="747.2129">getValue(): ValueObject</text><ellipse cx="1584" cy="761.5371" fill="#84BE84" rx="3" ry="3" style="stroke:#038048;stroke-width:1.0;"/><text fill="#000000" font-family="sans-serif" font-size="14" lengthAdjust="spacing" textLength="104" x="1593" y="765.834">toString(): String</text></g><!--class HumiditySensor--><g id="elem_HumiditySensor"><rect codeLine="25" fill="#F1F1F1" height="337.2383" id="HumiditySensor" rx="2.5" ry="2.5" style="stroke:#181818;stroke-width:0.5;" width="772" x="579" y="203"/><ellipse cx="911.75" cy="233.2715" fill="#ADD1B2" rx="11" ry="11" style="stroke:#181818;stroke-width:1.0;"/><path d="M914.5156,229.1465 Q914.6719,228.9277 914.8594,228.8184 Q915.0469,228.709 915.2656,228.709 Q915.6406,228.709 915.875,228.9746 Q916.1094,229.2246 916.1094,229.834 L916.1094,231.2871 Q916.1094,231.8965 915.875,232.1621 Q915.6406,232.4277 915.2656,232.4277 Q914.9219,232.4277 914.7188,232.2246 Q914.5156,232.0371 914.4063,231.5215 Q914.3594,231.1621 914.1719,230.9746 Q913.8438,230.5996 913.2344,230.3809 Q912.625,230.1621 912,230.1621 Q911.2344,230.1621 910.5938,230.4902 Q909.9688,230.8184 909.4688,231.5684 Q908.9844,232.3184 908.9844,233.3496 L908.9844,234.4434 Q908.9844,235.6777 909.875,236.5059 Q910.7656,237.3184 912.3594,237.3184 Q913.2969,237.3184 913.9531,237.0684 Q914.3438,236.9121 914.7656,236.4746 Q915.0313,236.209 915.1719,236.1309 Q915.3281,236.0527 915.5313,236.0527 Q915.8594,236.0527 916.1094,236.3184 Q916.375,236.5684 916.375,236.9121 Q916.375,237.2559 916.0313,237.6621 Q915.5313,238.2402 914.7344,238.5684 Q913.6563,239.0215 912.3594,239.0215 Q910.8438,239.0215 909.6406,238.3965 Q908.6563,237.8965 907.9688,236.834 Q907.2813,235.7559 907.2813,234.4746 L907.2813,233.3184 Q907.2813,231.9902 907.8906,230.8496 Q908.5156,229.6934 909.6094,229.084 Q910.7031,228.459 911.9375,228.459 Q912.6719,228.459 913.3125,228.6309 Q913.9688,228.7871 914.5156,229.1465 Z " fill="#000000"/><text fill="#000000" font-family="sans-serif" font-size="12" font-style="italic" lengthAdjust="spacing" textLength="43" x="959.75" y="220.9492">&#171;entity&#187;</text><text fill="#000000" font-family="sans-serif" font-size="12" font-style="italic" lengthAdjust="spacing" textLength="40" x="961.25" y="236.9102">&#171;Root&#187;</text><text fill="#000000" font-family="sans-serif" font-size="14" lengthAdjust="spacing" textLength="98" x="932.25" y="255.0293">HumiditySensor</text><line style="stroke:#181818;stroke-width:0.5;" x1="580" x2="1350" y1="263.543" y2="263.543"/><rect fill="none" height="6" style="stroke:#C82930;stroke-width:1.0;" width="6" x="587" y="275.3535"/><text fill="#000000" font-family="sans-serif" font-size="14" lengthAdjust="spacing" textLength="130" x="599" y="282.6504">_sensorID: SensorID</text><rect fill="none" height="6" style="stroke:#C82930;stroke-width:1.0;" width="6" x="587" y="293.9746"/><text fill="#000000" font-family="sans-serif" font-size="14" lengthAdjust="spacing" textLength="176" x="599" y="301.2715">_sensorName: SensorName</text><rect fill="none" height="6" style="stroke:#C82930;stroke-width:1.0;" width="6" x="587" y="312.5957"/><text fill="#000000" font-family="sans-serif" font-size="14" lengthAdjust="spacing" textLength="194" x="599" y="319.8926">_sensorTypeID: SensorTypeID</text><rect fill="none" height="6" style="stroke:#C82930;stroke-width:1.0;" width="6" x="587" y="331.2168"/><text fill="#000000" font-family="sans-serif" font-size="14" lengthAdjust="spacing" textLength="150" x="599" y="338.5137">_modelPath: ModelPath</text><rect fill="none" height="6" style="stroke:#C82930;stroke-width:1.0;" width="6" x="587" y="349.8379"/><text fill="#000000" font-family="sans-serif" font-size="14" lengthAdjust="spacing" textLength="126" x="599" y="357.1348">_deviceID: DeviceID</text><rect fill="none" height="6" style="stroke:#C82930;stroke-width:1.0;" width="6" x="587" y="368.459"/><text fill="#000000" font-family="sans-serif" font-size="14" lengthAdjust="spacing" textLength="184" x="599" y="375.7559">_value: HumiditySensorValue</text><line style="stroke:#181818;stroke-width:0.5;" x1="580" x2="1350" y1="383.2695" y2="383.2695"/><ellipse cx="590" cy="398.0801" fill="#84BE84" rx="3" ry="3" style="stroke:#038048;stroke-width:1.0;"/><text fill="#000000" font-family="sans-serif" font-size="14" lengthAdjust="spacing" textLength="746" x="599" y="402.377">HumiditySensor(sensorTypeID: SensorTypeID, modelPath: ModelPath, deviceID: DeviceID, sensorName: SensorName)</text><ellipse cx="590" cy="416.7012" fill="#84BE84" rx="3" ry="3" style="stroke:#038048;stroke-width:1.0;"/><text fill="#000000" font-family="sans-serif" font-size="14" lengthAdjust="spacing" textLength="189" x="599" y="420.998">getSensorTypeString(): String</text><ellipse cx="590" cy="435.3223" fill="#84BE84" rx="3" ry="3" style="stroke:#038048;stroke-width:1.0;"/><text fill="#000000" font-family="sans-serif" font-size="14" lengthAdjust="spacing" textLength="109" x="599" y="439.6191">getID(): SensorID</text><ellipse cx="590" cy="453.9434" fill="#84BE84" rx="3" ry="3" style="stroke:#038048;stroke-width:1.0;"/><text fill="#000000" font-family="sans-serif" font-size="14" lengthAdjust="spacing" textLength="155" x="599" y="458.2402">getName(): SensorName</text><ellipse cx="590" cy="472.5645" fill="#84BE84" rx="3" ry="3" style="stroke:#038048;stroke-width:1.0;"/><text fill="#000000" font-family="sans-serif" font-size="14" lengthAdjust="spacing" textLength="172" x="599" y="476.8613">getModelPath(): ModelPath</text><ellipse cx="590" cy="491.1855" fill="#84BE84" rx="3" ry="3" style="stroke:#038048;stroke-width:1.0;"/><text fill="#000000" font-family="sans-serif" font-size="14" lengthAdjust="spacing" textLength="218" x="599" y="495.4824">getSensorTypeID(): SensorTypeID</text><ellipse cx="590" cy="509.8066" fill="#84BE84" rx="3" ry="3" style="stroke:#038048;stroke-width:1.0;"/><text fill="#000000" font-family="sans-serif" font-size="14" lengthAdjust="spacing" textLength="150" x="599" y="514.1035">getDeviceID(): DeviceID</text><ellipse cx="590" cy="528.4277" fill="#84BE84" rx="3" ry="3" style="stroke:#038048;stroke-width:1.0;"/><text fill="#000000" font-family="sans-serif" font-size="14" lengthAdjust="spacing" textLength="151" x="599" y="532.7246">getValue(): ValueObject</text></g><!--class SensorName--><g id="elem_SensorName"><rect codeLine="42" fill="#F1F1F1" height="116.4453" id="SensorName" rx="2.5" ry="2.5" style="stroke:#181818;stroke-width:0.5;" width="193" x="304.5" y="626"/><ellipse cx="356.25" cy="648.291" fill="#ADD1B2" rx="11" ry="11" style="stroke:#181818;stroke-width:1.0;"/><path d="M359.0156,644.166 Q359.1719,643.9473 359.3594,643.8379 Q359.5469,643.7285 359.7656,643.7285 Q360.1406,643.7285 360.375,643.9941 Q360.6094,644.2441 360.6094,644.8535 L360.6094,646.3066 Q360.6094,646.916 360.375,647.1816 Q360.1406,647.4473 359.7656,647.4473 Q359.4219,647.4473 359.2188,647.2441 Q359.0156,647.0566 358.9063,646.541 Q358.8594,646.1816 358.6719,645.9941 Q358.3438,645.6191 357.7344,645.4004 Q357.125,645.1816 356.5,645.1816 Q355.7344,645.1816 355.0938,645.5098 Q354.4688,645.8379 353.9688,646.5879 Q353.4844,647.3379 353.4844,648.3691 L353.4844,649.4629 Q353.4844,650.6973 354.375,651.5254 Q355.2656,652.3379 356.8594,652.3379 Q357.7969,652.3379 358.4531,652.0879 Q358.8438,651.9316 359.2656,651.4941 Q359.5313,651.2285 359.6719,651.1504 Q359.8281,651.0723 360.0313,651.0723 Q360.3594,651.0723 360.6094,651.3379 Q360.875,651.5879 360.875,651.9316 Q360.875,652.2754 360.5313,652.6816 Q360.0313,653.2598 359.2344,653.5879 Q358.1563,654.041 356.8594,654.041 Q355.3438,654.041 354.1406,653.416 Q353.1563,652.916 352.4688,651.8535 Q351.7813,650.7754 351.7813,649.4941 L351.7813,648.3379 Q351.7813,647.0098 352.3906,645.8691 Q353.0156,644.7129 354.1094,644.1035 Q355.2031,643.4785 356.4375,643.4785 Q357.1719,643.4785 357.8125,643.6504 Q358.4688,643.8066 359.0156,644.166 Z " fill="#000000"/><text fill="#000000" font-family="sans-serif" font-size="12" font-style="italic" lengthAdjust="spacing" textLength="82" x="376.25" y="643.9492">&#171;ValueObject&#187;</text><text fill="#000000" font-family="sans-serif" font-size="14" lengthAdjust="spacing" textLength="81" x="376.75" y="662.0684">SensorName</text><line style="stroke:#181818;stroke-width:0.5;" x1="305.5" x2="496.5" y1="670.582" y2="670.582"/><rect fill="none" height="6" style="stroke:#C82930;stroke-width:1.0;" width="6" x="312.5" y="682.3926"/><text fill="#000000" font-family="sans-serif" font-size="14" lengthAdjust="spacing" textLength="88" x="324.5" y="689.6895">_name: String</text><line style="stroke:#181818;stroke-width:0.5;" x1="305.5" x2="496.5" y1="697.2031" y2="697.2031"/><ellipse cx="315.5" cy="712.0137" fill="#84BE84" rx="3" ry="3" style="stroke:#038048;stroke-width:1.0;"/><text fill="#000000" font-family="sans-serif" font-size="14" lengthAdjust="spacing" textLength="167" x="324.5" y="716.3105">SensorName(String name)</text><ellipse cx="315.5" cy="730.6348" fill="#84BE84" rx="3" ry="3" style="stroke:#038048;stroke-width:1.0;"/><text fill="#000000" font-family="sans-serif" font-size="14" lengthAdjust="spacing" textLength="115" x="324.5" y="734.9316">getName() : String</text></g><!--class SensorID--><g id="elem_SensorID"><rect codeLine="48" fill="#F1F1F1" height="116.4453" id="SensorID" rx="2.5" ry="2.5" style="stroke:#181818;stroke-width:0.5;" width="146" x="1409" y="626"/><ellipse cx="1445.15" cy="648.291" fill="#ADD1B2" rx="11" ry="11" style="stroke:#181818;stroke-width:1.0;"/><path d="M1447.9156,644.166 Q1448.0719,643.9473 1448.2594,643.8379 Q1448.4469,643.7285 1448.6656,643.7285 Q1449.0406,643.7285 1449.275,643.9941 Q1449.5094,644.2441 1449.5094,644.8535 L1449.5094,646.3066 Q1449.5094,646.916 1449.275,647.1816 Q1449.0406,647.4473 1448.6656,647.4473 Q1448.3219,647.4473 1448.1188,647.2441 Q1447.9156,647.0566 1447.8063,646.541 Q1447.7594,646.1816 1447.5719,645.9941 Q1447.2438,645.6191 1446.6344,645.4004 Q1446.025,645.1816 1445.4,645.1816 Q1444.6344,645.1816 1443.9938,645.5098 Q1443.3688,645.8379 1442.8688,646.5879 Q1442.3844,647.3379 1442.3844,648.3691 L1442.3844,649.4629 Q1442.3844,650.6973 1443.275,651.5254 Q1444.1656,652.3379 1445.7594,652.3379 Q1446.6969,652.3379 1447.3531,652.0879 Q1447.7438,651.9316 1448.1656,651.4941 Q1448.4313,651.2285 1448.5719,651.1504 Q1448.7281,651.0723 1448.9313,651.0723 Q1449.2594,651.0723 1449.5094,651.3379 Q1449.775,651.5879 1449.775,651.9316 Q1449.775,652.2754 1449.4313,652.6816 Q1448.9313,653.2598 1448.1344,653.5879 Q1447.0563,654.041 1445.7594,654.041 Q1444.2438,654.041 1443.0406,653.416 Q1442.0563,652.916 1441.3688,651.8535 Q1440.6813,650.7754 1440.6813,649.4941 L1440.6813,648.3379 Q1440.6813,647.0098 1441.2906,645.8691 Q1441.9156,644.7129 1443.0094,644.1035 Q1444.1031,643.4785 1445.3375,643.4785 Q1446.0719,643.4785 1446.7125,643.6504 Q1447.3688,643.8066 1447.9156,644.166 Z " fill="#000000"/><text fill="#000000" font-family="sans-serif" font-size="12" font-style="italic" lengthAdjust="spacing" textLength="71" x="1461.85" y="643.9492">&#171;DomainID&#187;</text><text fill="#000000" font-family="sans-serif" font-size="14" lengthAdjust="spacing" textLength="58" x="1468.35" y="662.0684">SensorID</text><line style="stroke:#181818;stroke-width:0.5;" x1="1410" x2="1554" y1="670.582" y2="670.582"/><rect fill="none" height="6" style="stroke:#C82930;stroke-width:1.0;" width="6" x="1417" y="682.3926"/><text fill="#000000" font-family="sans-serif" font-size="14" lengthAdjust="spacing" textLength="64" x="1429" y="689.6895">_id: String</text><line style="stroke:#181818;stroke-width:0.5;" x1="1410" x2="1554" y1="697.2031" y2="697.2031"/><ellipse cx="1420" cy="712.0137" fill="#84BE84" rx="3" ry="3" style="stroke:#038048;stroke-width:1.0;"/><text fill="#000000" font-family="sans-serif" font-size="14" lengthAdjust="spacing" textLength="120" x="1429" y="716.3105">SensorID(String id)</text><ellipse cx="1420" cy="730.6348" fill="#84BE84" rx="3" ry="3" style="stroke:#038048;stroke-width:1.0;"/><text fill="#000000" font-family="sans-serif" font-size="14" lengthAdjust="spacing" textLength="92" x="1429" y="734.9316">getID() : String</text></g><!--class HumiditySensorValue--><g id="elem_HumiditySensorValue"><rect codeLine="54" fill="#F1F1F1" height="116.4453" id="HumiditySensorValue" rx="2.5" ry="2.5" style="stroke:#181818;stroke-width:0.5;" width="251" x="515.5" y="626"/><ellipse cx="569.75" cy="648.291" fill="#ADD1B2" rx="11" ry="11" style="stroke:#181818;stroke-width:1.0;"/><path d="M572.5156,644.166 Q572.6719,643.9473 572.8594,643.8379 Q573.0469,643.7285 573.2656,643.7285 Q573.6406,643.7285 573.875,643.9941 Q574.1094,644.2441 574.1094,644.8535 L574.1094,646.3066 Q574.1094,646.916 573.875,647.1816 Q573.6406,647.4473 573.2656,647.4473 Q572.9219,647.4473 572.7188,647.2441 Q572.5156,647.0566 572.4063,646.541 Q572.3594,646.1816 572.1719,645.9941 Q571.8438,645.6191 571.2344,645.4004 Q570.625,645.1816 570,645.1816 Q569.2344,645.1816 568.5938,645.5098 Q567.9688,645.8379 567.4688,646.5879 Q566.9844,647.3379 566.9844,648.3691 L566.9844,649.4629 Q566.9844,650.6973 567.875,651.5254 Q568.7656,652.3379 570.3594,652.3379 Q571.2969,652.3379 571.9531,652.0879 Q572.3438,651.9316 572.7656,651.4941 Q573.0313,651.2285 573.1719,651.1504 Q573.3281,651.0723 573.5313,651.0723 Q573.8594,651.0723 574.1094,651.3379 Q574.375,651.5879 574.375,651.9316 Q574.375,652.2754 574.0313,652.6816 Q573.5313,653.2598 572.7344,653.5879 Q571.6563,654.041 570.3594,654.041 Q568.8438,654.041 567.6406,653.416 Q566.6563,652.916 565.9688,651.8535 Q565.2813,650.7754 565.2813,649.4941 L565.2813,648.3379 Q565.2813,647.0098 565.8906,645.8691 Q566.5156,644.7129 567.6094,644.1035 Q568.7031,643.4785 569.9375,643.4785 Q570.6719,643.4785 571.3125,643.6504 Q571.9688,643.8066 572.5156,644.166 Z " fill="#000000"/><text fill="#000000" font-family="sans-serif" font-size="12" font-style="italic" lengthAdjust="spacing" textLength="82" x="616.25" y="643.9492">&#171;ValueObject&#187;</text><text fill="#000000" font-family="sans-serif" font-size="14" lengthAdjust="spacing" textLength="134" x="590.25" y="662.0684">HumiditySensorValue</text><line style="stroke:#181818;stroke-width:0.5;" x1="516.5" x2="765.5" y1="670.582" y2="670.582"/><rect fill="none" height="6" style="stroke:#C82930;stroke-width:1.0;" width="6" x="523.5" y="682.3926"/><text fill="#000000" font-family="sans-serif" font-size="14" lengthAdjust="spacing" textLength="69" x="535.5" y="689.6895">_value : int</text><line style="stroke:#181818;stroke-width:0.5;" x1="516.5" x2="765.5" y1="697.2031" y2="697.2031"/><ellipse cx="526.5" cy="712.0137" fill="#84BE84" rx="3" ry="3" style="stroke:#038048;stroke-width:1.0;"/><text fill="#000000" font-family="sans-serif" font-size="14" lengthAdjust="spacing" textLength="225" x="535.5" y="716.3105">HumiditySensorValue(double value)</text><ellipse cx="526.5" cy="730.6348" fill="#84BE84" rx="3" ry="3" style="stroke:#038048;stroke-width:1.0;"/><text fill="#000000" font-family="sans-serif" font-size="14" lengthAdjust="spacing" textLength="108" x="535.5" y="734.9316">toString() : String</text></g><!--class SensorTypeID--><g id="elem_SensorTypeID"><rect codeLine="60" fill="#F1F1F1" height="116.4453" id="SensorTypeID" rx="2.5" ry="2.5" style="stroke:#181818;stroke-width:0.5;" width="254" x="947" y="626"/><ellipse cx="1024.75" cy="648.291" fill="#ADD1B2" rx="11" ry="11" style="stroke:#181818;stroke-width:1.0;"/><path d="M1027.5156,644.166 Q1027.6719,643.9473 1027.8594,643.8379 Q1028.0469,643.7285 1028.2656,643.7285 Q1028.6406,643.7285 1028.875,643.9941 Q1029.1094,644.2441 1029.1094,644.8535 L1029.1094,646.3066 Q1029.1094,646.916 1028.875,647.1816 Q1028.6406,647.4473 1028.2656,647.4473 Q1027.9219,647.4473 1027.7188,647.2441 Q1027.5156,647.0566 1027.4063,646.541 Q1027.3594,646.1816 1027.1719,645.9941 Q1026.8438,645.6191 1026.2344,645.4004 Q1025.625,645.1816 1025,645.1816 Q1024.2344,645.1816 1023.5938,645.5098 Q1022.9688,645.8379 1022.4688,646.5879 Q1021.9844,647.3379 1021.9844,648.3691 L1021.9844,649.4629 Q1021.9844,650.6973 1022.875,651.5254 Q1023.7656,652.3379 1025.3594,652.3379 Q1026.2969,652.3379 1026.9531,652.0879 Q1027.3438,651.9316 1027.7656,651.4941 Q1028.0313,651.2285 1028.1719,651.1504 Q1028.3281,651.0723 1028.5313,651.0723 Q1028.8594,651.0723 1029.1094,651.3379 Q1029.375,651.5879 1029.375,651.9316 Q1029.375,652.2754 1029.0313,652.6816 Q1028.5313,653.2598 1027.7344,653.5879 Q1026.6563,654.041 1025.3594,654.041 Q1023.8438,654.041 1022.6406,653.416 Q1021.6563,652.916 1020.9688,651.8535 Q1020.2813,650.7754 1020.2813,649.4941 L1020.2813,648.3379 Q1020.2813,647.0098 1020.8906,645.8691 Q1021.5156,644.7129 1022.6094,644.1035 Q1023.7031,643.4785 1024.9375,643.4785 Q1025.6719,643.4785 1026.3125,643.6504 Q1026.9688,643.8066 1027.5156,644.166 Z " fill="#000000"/><text fill="#000000" font-family="sans-serif" font-size="12" font-style="italic" lengthAdjust="spacing" textLength="71" x="1054.75" y="643.9492">&#171;DomainID&#187;</text><text fill="#000000" font-family="sans-serif" font-size="14" lengthAdjust="spacing" textLength="90" x="1045.25" y="662.0684">SensorTypeID</text><line style="stroke:#181818;stroke-width:0.5;" x1="948" x2="1200" y1="670.582" y2="670.582"/><rect fill="none" height="6" style="stroke:#C82930;stroke-width:1.0;" width="6" x="955" y="682.3926"/><text fill="#000000" font-family="sans-serif" font-size="14" lengthAdjust="spacing" textLength="122" x="967" y="689.6895">_description: String</text><line style="stroke:#181818;stroke-width:0.5;" x1="948" x2="1200" y1="697.2031" y2="697.2031"/><ellipse cx="958" cy="712.0137" fill="#84BE84" rx="3" ry="3" style="stroke:#038048;stroke-width:1.0;"/><text fill="#000000" font-family="sans-serif" font-size="14" lengthAdjust="spacing" textLength="228" x="967" y="716.3105">SensorTypeID(String strDescription)</text><ellipse cx="958" cy="730.6348" fill="#84BE84" rx="3" ry="3" style="stroke:#038048;stroke-width:1.0;"/><text fill="#000000" font-family="sans-serif" font-size="14" lengthAdjust="spacing" textLength="124" x="967" y="734.9316">getTypeID() : String</text></g><!--class ModelPath--><g id="elem_ModelPath"><rect codeLine="66" fill="#F1F1F1" height="116.4453" id="ModelPath" rx="2.5" ry="2.5" style="stroke:#181818;stroke-width:0.5;" width="172" x="1219" y="626"/><ellipse cx="1267.25" cy="648.291" fill="#ADD1B2" rx="11" ry="11" style="stroke:#181818;stroke-width:1.0;"/><path d="M1270.0156,644.166 Q1270.1719,643.9473 1270.3594,643.8379 Q1270.5469,643.7285 1270.7656,643.7285 Q1271.1406,643.7285 1271.375,643.9941 Q1271.6094,644.2441 1271.6094,644.8535 L1271.6094,646.3066 Q1271.6094,646.916 1271.375,647.1816 Q1271.1406,647.4473 1270.7656,647.4473 Q1270.4219,647.4473 1270.2188,647.2441 Q1270.0156,647.0566 1269.9063,646.541 Q1269.8594,646.1816 1269.6719,645.9941 Q1269.3438,645.6191 1268.7344,645.4004 Q1268.125,645.1816 1267.5,645.1816 Q1266.7344,645.1816 1266.0938,645.5098 Q1265.4688,645.8379 1264.9688,646.5879 Q1264.4844,647.3379 1264.4844,648.3691 L1264.4844,649.4629 Q1264.4844,650.6973 1265.375,651.5254 Q1266.2656,652.3379 1267.8594,652.3379 Q1268.7969,652.3379 1269.4531,652.0879 Q1269.8438,651.9316 1270.2656,651.4941 Q1270.5313,651.2285 1270.6719,651.1504 Q1270.8281,651.0723 1271.0313,651.0723 Q1271.3594,651.0723 1271.6094,651.3379 Q1271.875,651.5879 1271.875,651.9316 Q1271.875,652.2754 1271.5313,652.6816 Q1271.0313,653.2598 1270.2344,653.5879 Q1269.1563,654.041 1267.8594,654.041 Q1266.3438,654.041 1265.1406,653.416 Q1264.1563,652.916 1263.4688,651.8535 Q1262.7813,650.7754 1262.7813,649.4941 L1262.7813,648.3379 Q1262.7813,647.0098 1263.3906,645.8691 Q1264.0156,644.7129 1265.1094,644.1035 Q1266.2031,643.4785 1267.4375,643.4785 Q1268.1719,643.4785 1268.8125,643.6504 Q1269.4688,643.8066 1270.0156,644.166 Z " fill="#000000"/><text fill="#000000" font-family="sans-serif" font-size="12" font-style="italic" lengthAdjust="spacing" textLength="71" x="1285.75" y="643.9492">&#171;DomainID&#187;</text><text fill="#000000" font-family="sans-serif" font-size="14" lengthAdjust="spacing" textLength="67" x="1287.75" y="662.0684">ModelPath</text><line style="stroke:#181818;stroke-width:0.5;" x1="1220" x2="1390" y1="670.582" y2="670.582"/><rect fill="none" height="6" style="stroke:#C82930;stroke-width:1.0;" width="6" x="1227" y="682.3926"/><text fill="#000000" font-family="sans-serif" font-size="14" lengthAdjust="spacing" textLength="81" x="1239" y="689.6895">_path: String</text><line style="stroke:#181818;stroke-width:0.5;" x1="1220" x2="1390" y1="697.2031" y2="697.2031"/><ellipse cx="1230" cy="712.0137" fill="#84BE84" rx="3" ry="3" style="stroke:#038048;stroke-width:1.0;"/><text fill="#000000" font-family="sans-serif" font-size="14" lengthAdjust="spacing" textLength="146" x="1239" y="716.3105">ModelPath(String path)</text><ellipse cx="1230" cy="730.6348" fill="#84BE84" rx="3" ry="3" style="stroke:#038048;stroke-width:1.0;"/><text fill="#000000" font-family="sans-serif" font-size="14" lengthAdjust="spacing" textLength="108" x="1239" y="734.9316">getPath() : String</text></g><!--class DeviceID--><g id="elem_DeviceID"><rect codeLine="72" fill="#F1F1F1" height="116.4453" id="DeviceID" rx="2.5" ry="2.5" style="stroke:#181818;stroke-width:0.5;" width="144" x="785" y="626"/><ellipse cx="820.25" cy="648.291" fill="#ADD1B2" rx="11" ry="11" style="stroke:#181818;stroke-width:1.0;"/><path d="M823.0156,644.166 Q823.1719,643.9473 823.3594,643.8379 Q823.5469,643.7285 823.7656,643.7285 Q824.1406,643.7285 824.375,643.9941 Q824.6094,644.2441 824.6094,644.8535 L824.6094,646.3066 Q824.6094,646.916 824.375,647.1816 Q824.1406,647.4473 823.7656,647.4473 Q823.4219,647.4473 823.2188,647.2441 Q823.0156,647.0566 822.9063,646.541 Q822.8594,646.1816 822.6719,645.9941 Q822.3438,645.6191 821.7344,645.4004 Q821.125,645.1816 820.5,645.1816 Q819.7344,645.1816 819.0938,645.5098 Q818.4688,645.8379 817.9688,646.5879 Q817.4844,647.3379 817.4844,648.3691 L817.4844,649.4629 Q817.4844,650.6973 818.375,651.5254 Q819.2656,652.3379 820.8594,652.3379 Q821.7969,652.3379 822.4531,652.0879 Q822.8438,651.9316 823.2656,651.4941 Q823.5313,651.2285 823.6719,651.1504 Q823.8281,651.0723 824.0313,651.0723 Q824.3594,651.0723 824.6094,651.3379 Q824.875,651.5879 824.875,651.9316 Q824.875,652.2754 824.5313,652.6816 Q824.0313,653.2598 823.2344,653.5879 Q822.1563,654.041 820.8594,654.041 Q819.3438,654.041 818.1406,653.416 Q817.1563,652.916 816.4688,651.8535 Q815.7813,650.7754 815.7813,649.4941 L815.7813,648.3379 Q815.7813,647.0098 816.3906,645.8691 Q817.0156,644.7129 818.1094,644.1035 Q819.2031,643.4785 820.4375,643.4785 Q821.1719,643.4785 821.8125,643.6504 Q822.4688,643.8066 823.0156,644.166 Z " fill="#000000"/><text fill="#000000" font-family="sans-serif" font-size="12" font-style="italic" lengthAdjust="spacing" textLength="71" x="836.75" y="643.9492">&#171;DomainID&#187;</text><text fill="#000000" font-family="sans-serif" font-size="14" lengthAdjust="spacing" textLength="56" x="844.25" y="662.0684">DeviceID</text><line style="stroke:#181818;stroke-width:0.5;" x1="786" x2="928" y1="670.582" y2="670.582"/><rect fill="none" height="6" style="stroke:#C82930;stroke-width:1.0;" width="6" x="793" y="682.3926"/><text fill="#000000" font-family="sans-serif" font-size="14" lengthAdjust="spacing" textLength="64" x="805" y="689.6895">_id: String</text><line style="stroke:#181818;stroke-width:0.5;" x1="786" x2="928" y1="697.2031" y2="697.2031"/><ellipse cx="796" cy="712.0137" fill="#84BE84" rx="3" ry="3" style="stroke:#038048;stroke-width:1.0;"/><text fill="#000000" font-family="sans-serif" font-size="14" lengthAdjust="spacing" textLength="118" x="805" y="716.3105">DeviceID(String id)</text><ellipse cx="796" cy="730.6348" fill="#84BE84" rx="3" ry="3" style="stroke:#038048;stroke-width:1.0;"/><text fill="#000000" font-family="sans-serif" font-size="14" lengthAdjust="spacing" textLength="92" x="805" y="734.9316">getID() : String</text></g><!--class DomainEntity--><g id="elem_DomainEntity"><rect codeLine="82" fill="#F1F1F1" height="48" id="DomainEntity" rx="2.5" ry="2.5" style="stroke:#181818;stroke-width:0.5;" width="115" x="1115.5" y="914"/><ellipse cx="1130.5" cy="930" fill="#B4A7E5" rx="11" ry="11" style="stroke:#181818;stroke-width:1.0;"/><path d="M1131.4531,926.6406 L1131.4531,933.2969 L1133.1719,933.2969 Q1133.7813,933.2969 1134.0469,933.5313 Q1134.3125,933.7656 1134.3125,934.1563 Q1134.3125,934.5313 1134.0469,934.7656 Q1133.7813,935 1133.1719,935 L1128.0313,935 Q1127.4219,935 1127.1563,934.7656 Q1126.8906,934.5313 1126.8906,934.1406 Q1126.8906,933.7656 1127.1563,933.5313 Q1127.4219,933.2969 1128.0313,933.2969 L1129.75,933.2969 L1129.75,926.6406 L1128.0313,926.6406 Q1127.4219,926.6406 1127.1563,926.4063 Q1126.8906,926.1719 1126.8906,925.7813 Q1126.8906,925.4063 1127.1563,925.1719 Q1127.4219,924.9375 1128.0313,924.9375 L1133.1719,924.9375 Q1133.7813,924.9375 1134.0469,925.1719 Q1134.3125,925.4063 1134.3125,925.7813 Q1134.3125,926.1719 1134.0469,926.4063 Q1133.7813,926.6406 1133.1719,926.6406 L1131.4531,926.6406 Z " fill="#000000"/><text fill="#000000" font-family="sans-serif" font-size="14" font-style="italic" lengthAdjust="spacing" textLength="83" x="1144.5" y="935.7969">DomainEntity</text><line style="stroke:#181818;stroke-width:0.5;" x1="1116.5" x2="1229.5" y1="946" y2="946"/><line style="stroke:#181818;stroke-width:0.5;" x1="1116.5" x2="1229.5" y1="954" y2="954"/></g><!--class DomainID--><g id="elem_DomainID"><rect codeLine="85" fill="#F1F1F1" height="48" id="DomainID" rx="2.5" ry="2.5" style="stroke:#181818;stroke-width:0.5;" width="94" x="1117" y="999"/><ellipse cx="1132" cy="1015" fill="#B4A7E5" rx="11" ry="11" style="stroke:#181818;stroke-width:1.0;"/><path d="M1132.9531,1011.6406 L1132.9531,1018.2969 L1134.6719,1018.2969 Q1135.2813,1018.2969 1135.5469,1018.5313 Q1135.8125,1018.7656 1135.8125,1019.1563 Q1135.8125,1019.5313 1135.5469,1019.7656 Q1135.2813,1020 1134.6719,1020 L1129.5313,1020 Q1128.9219,1020 1128.6563,1019.7656 Q1128.3906,1019.5313 1128.3906,1019.1406 Q1128.3906,1018.7656 1128.6563,1018.5313 Q1128.9219,1018.2969 1129.5313,1018.2969 L1131.25,1018.2969 L1131.25,1011.6406 L1129.5313,1011.6406 Q1128.9219,1011.6406 1128.6563,1011.4063 Q1128.3906,1011.1719 1128.3906,1010.7813 Q1128.3906,1010.4063 1128.6563,1010.1719 Q1128.9219,1009.9375 1129.5313,1009.9375 L1134.6719,1009.9375 Q1135.2813,1009.9375 1135.5469,1010.1719 Q1135.8125,1010.4063 1135.8125,1010.7813 Q1135.8125,1011.1719 1135.5469,1011.4063 Q1135.2813,1011.6406 1134.6719,1011.6406 L1132.9531,1011.6406 Z " fill="#000000"/><text fill="#000000" font-family="sans-serif" font-size="14" font-style="italic" lengthAdjust="spacing" textLength="62" x="1146" y="1020.7969">DomainID</text><line style="stroke:#181818;stroke-width:0.5;" x1="1118" x2="1210" y1="1031" y2="1031"/><line style="stroke:#181818;stroke-width:0.5;" x1="1118" x2="1210" y1="1039" y2="1039"/></g><!--class AggregateRoot--><g id="elem_AggregateRoot"><rect codeLine="88" fill="#F1F1F1" height="48" id="AggregateRoot" rx="2.5" ry="2.5" style="stroke:#181818;stroke-width:0.5;" width="128" x="1113" y="829"/><ellipse cx="1128" cy="845" fill="#B4A7E5" rx="11" ry="11" style="stroke:#181818;stroke-width:1.0;"/><path d="M1128.9531,841.6406 L1128.9531,848.2969 L1130.6719,848.2969 Q1131.2813,848.2969 1131.5469,848.5313 Q1131.8125,848.7656 1131.8125,849.1563 Q1131.8125,849.5313 1131.5469,849.7656 Q1131.2813,850 1130.6719,850 L1125.5313,850 Q1124.9219,850 1124.6563,849.7656 Q1124.3906,849.5313 1124.3906,849.1406 Q1124.3906,848.7656 1124.6563,848.5313 Q1124.9219,848.2969 1125.5313,848.2969 L1127.25,848.2969 L1127.25,841.6406 L1125.5313,841.6406 Q1124.9219,841.6406 1124.6563,841.4063 Q1124.3906,841.1719 1124.3906,840.7813 Q1124.3906,840.4063 1124.6563,840.1719 Q1124.9219,839.9375 1125.5313,839.9375 L1130.6719,839.9375 Q1131.2813,839.9375 1131.5469,840.1719 Q1131.8125,840.4063 1131.8125,840.7813 Q1131.8125,841.1719 1131.5469,841.4063 Q1131.2813,841.6406 1130.6719,841.6406 L1128.9531,841.6406 Z " fill="#000000"/><text fill="#000000" font-family="sans-serif" font-size="14" font-style="italic" lengthAdjust="spacing" textLength="96" x="1142" y="850.7969">AggregateRoot</text><line style="stroke:#181818;stroke-width:0.5;" x1="1114" x2="1240" y1="861" y2="861"/><line style="stroke:#181818;stroke-width:0.5;" x1="1114" x2="1240" y1="869" y2="869"/></g><!--class ValueObject--><g id="elem_ValueObject"><rect codeLine="91" fill="#F1F1F1" height="48" id="ValueObject" rx="2.5" ry="2.5" style="stroke:#181818;stroke-width:0.5;" width="109" x="1113.5" y="1084"/><ellipse cx="1128.5" cy="1100" fill="#B4A7E5" rx="11" ry="11" style="stroke:#181818;stroke-width:1.0;"/><path d="M1129.4531,1096.6406 L1129.4531,1103.2969 L1131.1719,1103.2969 Q1131.7813,1103.2969 1132.0469,1103.5313 Q1132.3125,1103.7656 1132.3125,1104.1563 Q1132.3125,1104.5313 1132.0469,1104.7656 Q1131.7813,1105 1131.1719,1105 L1126.0313,1105 Q1125.4219,1105 1125.1563,1104.7656 Q1124.8906,1104.5313 1124.8906,1104.1406 Q1124.8906,1103.7656 1125.1563,1103.5313 Q1125.4219,1103.2969 1126.0313,1103.2969 L1127.75,1103.2969 L1127.75,1096.6406 L1126.0313,1096.6406 Q1125.4219,1096.6406 1125.1563,1096.4063 Q1124.8906,1096.1719 1124.8906,1095.7813 Q1124.8906,1095.4063 1125.1563,1095.1719 Q1125.4219,1094.9375 1126.0313,1094.9375 L1131.1719,1094.9375 Q1131.7813,1094.9375 1132.0469,1095.1719 Q1132.3125,1095.4063 1132.3125,1095.7813 Q1132.3125,1096.1719 1132.0469,1096.4063 Q1131.7813,1096.6406 1131.1719,1096.6406 L1129.4531,1096.6406 Z " fill="#000000"/><text fill="#000000" font-family="sans-serif" font-size="14" font-style="italic" lengthAdjust="spacing" textLength="77" x="1142.5" y="1105.7969">ValueObject</text><line style="stroke:#181818;stroke-width:0.5;" x1="1114.5" x2="1221.5" y1="1116" y2="1116"/><line style="stroke:#181818;stroke-width:0.5;" x1="1114.5" x2="1221.5" y1="1124" y2="1124"/></g><polygon fill="none" points="172.4864,337.772,185.347,323.822,174.4049,318.8956,172.4864,337.772" style="stroke:#181818;stroke-width:1.0;"/><path d="M432.8935,114.5204 C385.3098,125.8407 333.052,144.2158 292,174 C233.1496,216.6973 199.617,277.5112 179.876,321.3588 " fill="none" style="stroke:#181818;stroke-width:1.0;stroke-dasharray:7.0,7.0;"/><polygon fill="#181818" points="718.4638,202.8798,713.2701,194.5117,714.3289,200.0686,708.7721,201.1274,718.4638,202.8798" style="stroke:#181818;stroke-width:1.0;"/><path d="M609.8119,129.0074 C638.376,148.4281 672.1229,171.3726 713.502,199.5063 " fill="none" style="stroke:#181818;stroke-width:1.0;stroke-dasharray:7.0,7.0;"/><text fill="#000000" font-family="sans-serif" font-size="13" lengthAdjust="spacing" textLength="43" x="660" y="162.0283">creates</text><text fill="#000000" font-family="sans-serif" font-size="13" lengthAdjust="spacing" textLength="7" x="710.4638" y="198.9081">1</text><text fill="#000000" font-family="sans-serif" font-size="13" lengthAdjust="spacing" textLength="7" x="601.8119" y="144.0357">1</text><polygon fill="none" points="1572.7599,598.0473,1559.768,584.2195,1554.0697,594.7802,1572.7599,598.0473" style="stroke:#181818;stroke-width:1.0;"/><path d="M1351.3049,499.0574 C1424.3604,527.5053 1499.1113,559.8152 1567,595 C1568.9154,595.9927 1554.995,588.4618 1556.9188,589.4999 " fill="none" style="stroke:#181818;stroke-width:1.0;stroke-dasharray:7.0,7.0;"/><polygon fill="#181818" points="700.574,625.9083,709.8395,622.5691,704.1839,622.4487,704.3043,616.7932,700.574,625.9083" style="stroke:#181818;stroke-width:1.0;"/><path d="M790.1974,540.0191 C757.9176,570.954 730.6519,597.0836 704.9059,621.7568 " fill="none" style="stroke:#181818;stroke-width:1.0;"/><text fill="#000000" font-family="sans-serif" font-size="13" lengthAdjust="spacing" textLength="21" x="765" y="573.0283">has</text><text fill="#000000" font-family="sans-serif" font-size="13" lengthAdjust="spacing" textLength="7" x="692.574" y="621.9366">1</text><text fill="#000000" font-family="sans-serif" font-size="13" lengthAdjust="spacing" textLength="7" x="791.1974" y="555.0475">1</text><polygon fill="#181818" points="1053.9581,625.9083,1054.7513,616.0914,1052.302,621.1905,1047.2029,618.7412,1053.9581,625.9083" style="stroke:#181818;stroke-width:1.0;"/><path d="M1023.807,540.0191 C1034.6666,570.954 1043.3093,595.5738 1051.9708,620.247 " fill="none" style="stroke:#181818;stroke-width:1.0;"/><text fill="#000000" font-family="sans-serif" font-size="13" lengthAdjust="spacing" textLength="21" x="1036" y="573.0283">has</text><text fill="#000000" font-family="sans-serif" font-size="13" lengthAdjust="spacing" textLength="7" x="1045.9581" y="621.9366">1</text><text fill="#000000" font-family="sans-serif" font-size="13" lengthAdjust="spacing" textLength="7" x="1015.807" y="555.0475">1</text><polygon fill="#181818" points="1243.5028,625.8698,1239.611,616.8225,1239.8319,622.475,1234.1794,622.6959,1243.5028,625.8698" style="stroke:#181818;stroke-width:1.0;"/><path d="M1150.1219,540.2667 C1170.3548,558.7082 1190.6277,577.2318 1210,595 C1220.8521,604.9536 1227.965,611.5008 1239.0977,621.7961 " fill="none" style="stroke:#181818;stroke-width:1.0;"/><text fill="#000000" font-family="sans-serif" font-size="13" lengthAdjust="spacing" textLength="21" x="1191" y="573.0283">has</text><text fill="#000000" font-family="sans-serif" font-size="13" lengthAdjust="spacing" textLength="7" x="1235.5028" y="621.8981">1</text><text fill="#000000" font-family="sans-serif" font-size="13" lengthAdjust="spacing" textLength="7" x="1142.1219" y="555.295">1</text><polygon fill="#181818" points="464.04,625.9283,473.5457,623.3513,467.9185,622.7729,468.4969,617.1456,464.04,625.9283" style="stroke:#181818;stroke-width:1.0;"/><path d="M598.1157,540.1273 C566.3983,557.6704 535.2722,576.0528 506,595 C491.8235,604.1761 482.0881,611.2447 468.6942,622.1418 " fill="none" style="stroke:#181818;stroke-width:1.0;"/><text fill="#000000" font-family="sans-serif" font-size="13" lengthAdjust="spacing" textLength="21" x="567" y="573.0283">has</text><text fill="#000000" font-family="sans-serif" font-size="13" lengthAdjust="spacing" textLength="7" x="456.04" y="621.9567">1</text><text fill="#000000" font-family="sans-serif" font-size="13" lengthAdjust="spacing" textLength="7" x="590.1157" y="555.1556">1</text><polygon fill="#181818" points="1433.9613,625.5494,1430.5614,616.306,1430.4782,621.9623,1424.8219,621.879,1433.9613,625.5494" style="stroke:#181818;stroke-width:1.0;"/><path d="M1318.9711,540.0109 C1347.1492,557.3826 1374.5293,575.7678 1400,595 C1411.8324,603.9343 1419.2291,610.3771 1429.7816,621.2448 " fill="none" style="stroke:#181818;stroke-width:1.0;"/><text fill="#000000" font-family="sans-serif" font-size="13" lengthAdjust="spacing" textLength="21" x="1368" y="573.0283">has</text><text fill="#000000" font-family="sans-serif" font-size="13" lengthAdjust="spacing" textLength="7" x="1425.9613" y="621.5778">1</text><text fill="#000000" font-family="sans-serif" font-size="13" lengthAdjust="spacing" textLength="7" x="1310.9711" y="555.0392">1</text><polygon fill="#181818" points="876.858,625.9083,883.5927,618.7219,878.5006,621.1858,876.0367,616.0937,876.858,625.9083" style="stroke:#181818;stroke-width:1.0;"/><path d="M906.7325,540.0191 C895.9725,570.954 887.4111,595.5681 878.8291,620.2413 " fill="none" style="stroke:#181818;stroke-width:1.0;"/><text fill="#000000" font-family="sans-serif" font-size="13" lengthAdjust="spacing" textLength="21" x="899" y="573.0283">has</text><text fill="#000000" font-family="sans-serif" font-size="13" lengthAdjust="spacing" textLength="7" x="868.858" y="621.9366">1</text><text fill="#000000" font-family="sans-serif" font-size="13" lengthAdjust="spacing" textLength="7" x="898.7325" y="555.0475">1</text><polygon fill="none" points="1113.3588,1107.6888,1095.3598,1101.6859,1095.3578,1113.6859,1113.3588,1107.6888" style="stroke:#181818;stroke-width:1.0;"/><path d="M695.1346,742.0734 C718.2471,772.3322 740,811.5543 740,852 C740,852 740,852 740,1024 C740,1099.2168 979.9753,1107.6668 1095.3588,1107.6859 " fill="none" style="stroke:#181818;stroke-width:1.0;stroke-dasharray:7.0,7.0;"/><polygon fill="none" points="1113.3307,1105.2241,1095.567,1098.5569,1095.1194,1110.5485,1113.3307,1105.2241" style="stroke:#181818;stroke-width:1.0;"/><path d="M463.3183,742.0194 C508.2437,784.37 561,837.2441 561,852 C561,852 561,852 561,1024 C561,1079.4747 946.1391,1098.9835 1095.3432,1104.5527 " fill="none" style="stroke:#181818;stroke-width:1.0;stroke-dasharray:7.0,7.0;"/><polygon fill="none" points="1166.5248,998.716,1174.4302,981.4677,1162.5002,980.1741,1166.5248,998.716" style="stroke:#181818;stroke-width:1.0;"/><path d="M1170.493,962.1201 C1169.2551,973.5362 1169.7055,969.3827 1168.4652,980.8209 " fill="none" style="stroke:#181818;stroke-width:1.0;"/><polygon fill="none" points="1174.1221,913.716,1180.9816,896.0257,1168.9955,895.448,1174.1221,913.716" style="stroke:#181818;stroke-width:1.0;"/><path d="M1175.8858,877.1201 C1175.3356,888.5362 1175.5398,884.2986 1174.9886,895.7369 " fill="none" style="stroke:#181818;stroke-width:1.0;"/><polygon fill="none" points="1166.8779,1083.716,1172.0045,1065.448,1160.0184,1066.0257,1166.8779,1083.716" style="stroke:#181818;stroke-width:1.0;"/><path d="M1165.1142,1047.1201 C1165.6644,1058.5362 1165.4602,1054.2986 1166.0114,1065.7369 " fill="none" style="stroke:#181818;stroke-width:1.0;"/><polygon fill="none" points="1241.0693,849.3409,1259.428,854.1325,1258.6312,842.159,1241.0693,849.3409" style="stroke:#181818;stroke-width:1.0;"/><path d="M1583.3337,773.0652 C1577.9295,775.9436 1572.473,778.6096 1567,781 C1458.8381,828.2409 1338.5264,842.8557 1259.0296,848.1458 " fill="none" style="stroke:#181818;stroke-width:1.0;"/><polygon fill="none" points="1116.9008,1005.6433,1104.056,991.6786,1098.2462,1002.1784,1116.9008,1005.6433" style="stroke:#181818;stroke-width:1.0;"/><path d="M1061.4197,742.2063 C1050.762,805.6749 1043.5872,908.6577 1089,981 C1095.6274,991.5573 1090.2308,990.8859 1101.1511,996.9285 " fill="none" style="stroke:#181818;stroke-width:1.0;stroke-dasharray:7.0,7.0;"/><polygon fill="none" points="1195.7307,998.97,1213.6858,992.8369,1206.4149,983.2905,1195.7307,998.97" style="stroke:#181818;stroke-width:1.0;"/><path d="M1437.397,742.2093 C1390.9141,800.2885 1314.5754,891.4601 1240,962 C1226.1995,975.0537 1224.0941,977.3675 1210.0504,988.0637 " fill="none" style="stroke:#181818;stroke-width:1.0;stroke-dasharray:7.0,7.0;"/><polygon fill="none" points="1134.2974,998.8049,1125.3612,982.0674,1117.1059,990.7766,1134.2974,998.8049" style="stroke:#181818;stroke-width:1.0;"/><path d="M1259.8007,742.1121 C1245.3895,756.8912 1228.3678,771.344 1210,781 C1167.6354,803.2712 1134.7132,763.2921 1104,800 C1098.9313,806.058 1106.6083,961.0672 1107,962 C1112.896,976.0423 1110.6181,976.3598 1121.2336,986.422 " fill="none" style="stroke:#181818;stroke-width:1.0;stroke-dasharray:7.0,7.0;"/><polygon fill="none" points="1116.8597,1002.051,1103.4908,988.5873,1098.0863,999.3013,1116.8597,1002.051" style="stroke:#181818;stroke-width:1.0;"/><path d="M890.5008,742.0109 C926.9717,801.1681 989.339,894.3284 1058,962 C1074.7929,978.5509 1080.9948,983.9597 1100.7886,993.9443 " fill="none" style="stroke:#181818;stroke-width:1.0;stroke-dasharray:7.0,7.0;"/><!--SRC=[hLRBRfmm5DtxAzoiG1sGkXsDa2hHg2pwK5DbMpdW459UCfv8epR_NcCRFy2ycfdDWExnzV6vv_hohYKehn0iqQKvKzXLcA8Q0T2Yz3VACSoQ2XLrU8VhhY7m3u3iLzGKaqUKOdYBKjgGYnNjV-zXIZ2YsFlsy8nJ6eOXR151B3acdN-4OW67lmB-bvQews1IjUNrScgUasGYOOvf4djgRH9Fur_P1XhHlqqnNveCbzyHVUg1wcMA4pb-NbfixYhUf-WOlnIfH0xFKzGzAi-S87yGqenGjBcZfAXplYL_aYBrEZdh77u-LqLMK5q4eqPBoF72qmdNbBr6qUdqesbe5EaI1F1N9sLt5415UycTyYk44716JeQgXeguYiFYcHJN8JEBllIw7g5zC2wsuKmxwitpEa0NcmESSZX0z_bzCECfPv7NVBxcyIt-tkxjTLylUzgwApHRPZC3QNfCrh0M6jgoYErq5a_4OMs9F189ZbfemYU96PkOjqWIEwWKsI8H9ekaKMI- -xPQeE0mwQestDyi9xiiH_ividbPStueCUIB_DbxnadHaaaOOq4ggp-xb1GjBPhQgTrOGsb2gMD7IQmJ-3ChcRQ3T-5aa-40wWog1xOTeENTliXSjvYatQzP82kwSGFLeSEsCPrnfzvQDU-CIrVSAYWoakEvasMPc39wPWkwd_Zyu9FxrHLd9tF4FkOvmJdxMEY7ZWjWz8GCCy3qwoCC_qRsHuu3TFFXXW4Z_hzdE1xb1qq7m9vbd9EzG5BRawKd6mIxIT_Bs-89TV-r7N-mhe0tvjAjU1LIV9nS9TFRZwPQL-G1kyjaEeKrM6YEqyLaXXPBEO3Lea70a4DJ0hi3ZPX00zMzF6HbTNbRm0mULdu0B4kDEIjIgZAp26sdMOWgoopY7m00]--></g></svg>