<?xml version="1.0" encoding="us-ascii" standalone="no"?><svg xmlns="http://www.w3.org/2000/svg" xmlns:xlink="http://www.w3.org/1999/xlink" contentStyleType="text/css" height="1155px" preserveAspectRatio="none" style="width:1882px;height:1155px;background:#FFFFFF;" version="1.1" viewBox="0 0 1882 1155" width="1882px" zoomAndPan="magnify"><defs/><g><!--cluster domain--><g id="cluster_domain"><path d="M16.5,4 L68.5,4 A3.75,3.75 0 0 1 71,6.5 L78,28.6211 L1872.5,28.6211 A2.5,2.5 0 0 1 1875,31.1211 L1875,1145.5 A2.5,2.5 0 0 1 1872.5,1148 L16.5,1148 A2.5,2.5 0 0 1 14,1145.5 L14,6.5 A2.5,2.5 0 0 1 16.5,4 " fill="none" style="stroke:#000000;stroke-width:1.5;"/><line style="stroke:#000000;stroke-width:1.5;" x1="14" x2="78" y1="28.6211" y2="28.6211"/><text fill="#000000" font-family="sans-serif" font-size="14" font-weight="bold" lengthAdjust="spacing" textLength="51" x="18" y="21.1074">domain</text></g><!--cluster Sensor--><g id="cluster_Sensor"><path d="M24.5,33 L75.5,33 A3.75,3.75 0 0 1 78,35.5 L85,57.6211 L1864.5,57.6211 A2.5,2.5 0 0 1 1867,60.1211 L1867,778.5 A2.5,2.5 0 0 1 1864.5,781 L24.5,781 A2.5,2.5 0 0 1 22,778.5 L22,35.5 A2.5,2.5 0 0 1 24.5,33 " fill="none" style="stroke:#000000;stroke-width:1.5;"/><line style="stroke:#000000;stroke-width:1.5;" x1="22" x2="85" y1="57.6211" y2="57.6211"/><text fill="#000000" font-family="sans-serif" font-size="14" font-weight="bold" lengthAdjust="spacing" textLength="50" x="26" y="50.1074">Sensor</text></g><!--cluster PercentegePositionSensor--><g id="cluster_PercentegePositionSensor"><path d="M298.5,174 L488.5,174 A3.75,3.75 0 0 1 491,176.5 L498,198.6211 L1602.5,198.6211 A2.5,2.5 0 0 1 1605,201.1211 L1605,747.5 A2.5,2.5 0 0 1 1602.5,750 L298.5,750 A2.5,2.5 0 0 1 296,747.5 L296,176.5 A2.5,2.5 0 0 1 298.5,174 " fill="none" style="stroke:#000000;stroke-width:1.5;"/><line style="stroke:#000000;stroke-width:1.5;" x1="296" x2="498" y1="198.6211" y2="198.6211"/><text fill="#000000" font-family="sans-serif" font-size="14" font-weight="bold" lengthAdjust="spacing" textLength="189" x="300" y="191.1074">PercentegePositionSensor</text></g><!--cluster ddd--><g id="cluster_ddd"><path d="M1149.5,800 L1177.5,800 A3.75,3.75 0 0 1 1180,802.5 L1187,824.6211 L1288.5,824.6211 A2.5,2.5 0 0 1 1291,827.1211 L1291,1137.5 A2.5,2.5 0 0 1 1288.5,1140 L1149.5,1140 A2.5,2.5 0 0 1 1147,1137.5 L1147,802.5 A2.5,2.5 0 0 1 1149.5,800 " fill="none" style="stroke:#000000;stroke-width:1.5;"/><line style="stroke:#000000;stroke-width:1.5;" x1="1147" x2="1187" y1="824.6211" y2="824.6211"/><text fill="#000000" font-family="sans-serif" font-size="14" font-weight="bold" lengthAdjust="spacing" textLength="27" x="1151" y="817.1074">ddd</text></g><!--class FactorySensor--><g id="elem_FactorySensor"><rect codeLine="4" fill="#F1F1F1" height="66.6211" id="FactorySensor" rx="2.5" ry="2.5" style="stroke:#181818;stroke-width:0.5;" width="258" x="30" y="338"/><ellipse cx="108.25" cy="354" fill="#B4A7E5" rx="11" ry="11" style="stroke:#181818;stroke-width:1.0;"/><path d="M109.2031,350.6406 L109.2031,357.2969 L110.9219,357.2969 Q111.5313,357.2969 111.7969,357.5313 Q112.0625,357.7656 112.0625,358.1563 Q112.0625,358.5313 111.7969,358.7656 Q111.5313,359 110.9219,359 L105.7813,359 Q105.1719,359 104.9063,358.7656 Q104.6406,358.5313 104.6406,358.1406 Q104.6406,357.7656 104.9063,357.5313 Q105.1719,357.2969 105.7813,357.2969 L107.5,357.2969 L107.5,350.6406 L105.7813,350.6406 Q105.1719,350.6406 104.9063,350.4063 Q104.6406,350.1719 104.6406,349.7813 Q104.6406,349.4063 104.9063,349.1719 Q105.1719,348.9375 105.7813,348.9375 L110.9219,348.9375 Q111.5313,348.9375 111.7969,349.1719 Q112.0625,349.4063 112.0625,349.7813 Q112.0625,350.1719 111.7969,350.4063 Q111.5313,350.6406 110.9219,350.6406 L109.2031,350.6406 Z " fill="#000000"/><text fill="#000000" font-family="sans-serif" font-size="14" font-style="italic" lengthAdjust="spacing" textLength="93" x="128.75" y="359.7969">FactorySensor</text><line style="stroke:#181818;stroke-width:0.5;" x1="31" x2="287" y1="370" y2="370"/><line style="stroke:#181818;stroke-width:0.5;" x1="31" x2="287" y1="378" y2="378"/><ellipse cx="41" cy="392.8105" fill="#84BE84" rx="3" ry="3" style="stroke:#038048;stroke-width:1.0;"/><text fill="#000000" font-family="sans-serif" font-size="14" lengthAdjust="spacing" textLength="232" x="50" y="397.1074">create(Object... parameters): Sensor</text></g><!--class ImplFactorySensor--><g id="elem_ImplFactorySensor"><rect codeLine="8" fill="#F1F1F1" height="66.6211" id="ImplFactorySensor" rx="2.5" ry="2.5" style="stroke:#181818;stroke-width:0.5;" width="258" x="454" y="62"/><ellipse cx="519.75" cy="78" fill="#ADD1B2" rx="11" ry="11" style="stroke:#181818;stroke-width:1.0;"/><path d="M522.5156,73.875 Q522.6719,73.6563 522.8594,73.5469 Q523.0469,73.4375 523.2656,73.4375 Q523.6406,73.4375 523.875,73.7031 Q524.1094,73.9531 524.1094,74.5625 L524.1094,76.0156 Q524.1094,76.625 523.875,76.8906 Q523.6406,77.1563 523.2656,77.1563 Q522.9219,77.1563 522.7188,76.9531 Q522.5156,76.7656 522.4063,76.25 Q522.3594,75.8906 522.1719,75.7031 Q521.8438,75.3281 521.2344,75.1094 Q520.625,74.8906 520,74.8906 Q519.2344,74.8906 518.5938,75.2188 Q517.9688,75.5469 517.4688,76.2969 Q516.9844,77.0469 516.9844,78.0781 L516.9844,79.1719 Q516.9844,80.4063 517.875,81.2344 Q518.7656,82.0469 520.3594,82.0469 Q521.2969,82.0469 521.9531,81.7969 Q522.3438,81.6406 522.7656,81.2031 Q523.0313,80.9375 523.1719,80.8594 Q523.3281,80.7813 523.5313,80.7813 Q523.8594,80.7813 524.1094,81.0469 Q524.375,81.2969 524.375,81.6406 Q524.375,81.9844 524.0313,82.3906 Q523.5313,82.9688 522.7344,83.2969 Q521.6563,83.75 520.3594,83.75 Q518.8438,83.75 517.6406,83.125 Q516.6563,82.625 515.9688,81.5625 Q515.2813,80.4844 515.2813,79.2031 L515.2813,78.0469 Q515.2813,76.7188 515.8906,75.5781 Q516.5156,74.4219 517.6094,73.8125 Q518.7031,73.1875 519.9375,73.1875 Q520.6719,73.1875 521.3125,73.3594 Q521.9688,73.5156 522.5156,73.875 Z " fill="#000000"/><text fill="#000000" font-family="sans-serif" font-size="14" lengthAdjust="spacing" textLength="118" x="540.25" y="83.7969">ImplFactorySensor</text><line style="stroke:#181818;stroke-width:0.5;" x1="455" x2="711" y1="94" y2="94"/><line style="stroke:#181818;stroke-width:0.5;" x1="455" x2="711" y1="102" y2="102"/><ellipse cx="465" cy="116.8105" fill="#84BE84" rx="3" ry="3" style="stroke:#038048;stroke-width:1.0;"/><text fill="#000000" font-family="sans-serif" font-size="14" lengthAdjust="spacing" textLength="232" x="474" y="121.1074">create(Object... parameters): Sensor</text></g><!--class Sensor--><g id="elem_Sensor"><rect codeLine="12" fill="#F1F1F1" height="178.3477" id="Sensor" rx="2.5" ry="2.5" style="stroke:#181818;stroke-width:0.5;" width="244" x="1615" y="595"/><ellipse cx="1710.25" cy="611" fill="#B4A7E5" rx="11" ry="11" style="stroke:#181818;stroke-width:1.0;"/><path d="M1711.2031,607.6406 L1711.2031,614.2969 L1712.9219,614.2969 Q1713.5313,614.2969 1713.7969,614.5313 Q1714.0625,614.7656 1714.0625,615.1563 Q1714.0625,615.5313 1713.7969,615.7656 Q1713.5313,616 1712.9219,616 L1707.7813,616 Q1707.1719,616 1706.9063,615.7656 Q1706.6406,615.5313 1706.6406,615.1406 Q1706.6406,614.7656 1706.9063,614.5313 Q1707.1719,614.2969 1707.7813,614.2969 L1709.5,614.2969 L1709.5,607.6406 L1707.7813,607.6406 Q1707.1719,607.6406 1706.9063,607.4063 Q1706.6406,607.1719 1706.6406,606.7813 Q1706.6406,606.4063 1706.9063,606.1719 Q1707.1719,605.9375 1707.7813,605.9375 L1712.9219,605.9375 Q1713.5313,605.9375 1713.7969,606.1719 Q1714.0625,606.4063 1714.0625,606.7813 Q1714.0625,607.1719 1713.7969,607.4063 Q1713.5313,607.6406 1712.9219,607.6406 L1711.2031,607.6406 Z " fill="#000000"/><text fill="#000000" font-family="sans-serif" font-size="14" font-style="italic" lengthAdjust="spacing" textLength="45" x="1730.75" y="616.7969">Sensor</text><line style="stroke:#181818;stroke-width:0.5;" x1="1616" x2="1858" y1="627" y2="627"/><line style="stroke:#181818;stroke-width:0.5;" x1="1616" x2="1858" y1="635" y2="635"/><ellipse cx="1626" cy="649.8105" fill="#84BE84" rx="3" ry="3" style="stroke:#038048;stroke-width:1.0;"/><text fill="#000000" font-family="sans-serif" font-size="14" lengthAdjust="spacing" textLength="109" x="1635" y="654.1074">getID(): SensorID</text><ellipse cx="1626" cy="668.4316" fill="#84BE84" rx="3" ry="3" style="stroke:#038048;stroke-width:1.0;"/><text fill="#000000" font-family="sans-serif" font-size="14" lengthAdjust="spacing" textLength="155" x="1635" y="672.7285">getName(): SensorName</text><ellipse cx="1626" cy="687.0527" fill="#84BE84" rx="3" ry="3" style="stroke:#038048;stroke-width:1.0;"/><text fill="#000000" font-family="sans-serif" font-size="14" lengthAdjust="spacing" textLength="172" x="1635" y="691.3496">getModelPath(): ModelPath</text><ellipse cx="1626" cy="705.6738" fill="#84BE84" rx="3" ry="3" style="stroke:#038048;stroke-width:1.0;"/><text fill="#000000" font-family="sans-serif" font-size="14" lengthAdjust="spacing" textLength="218" x="1635" y="709.9707">getSensorTypeID(): SensorTypeID</text><ellipse cx="1626" cy="724.2949" fill="#84BE84" rx="3" ry="3" style="stroke:#038048;stroke-width:1.0;"/><text fill="#000000" font-family="sans-serif" font-size="14" lengthAdjust="spacing" textLength="150" x="1635" y="728.5918">getDeviceID(): DeviceID</text><ellipse cx="1626" cy="742.916" fill="#84BE84" rx="3" ry="3" style="stroke:#038048;stroke-width:1.0;"/><text fill="#000000" font-family="sans-serif" font-size="14" lengthAdjust="spacing" textLength="151" x="1635" y="747.2129">getValue(): ValueObject</text><ellipse cx="1626" cy="761.5371" fill="#84BE84" rx="3" ry="3" style="stroke:#038048;stroke-width:1.0;"/><text fill="#000000" font-family="sans-serif" font-size="14" lengthAdjust="spacing" textLength="104" x="1635" y="765.834">toString(): String</text></g><!--class PercentegePositionSensor--><g id="elem_PercentegePositionSensor"><rect codeLine="25" fill="#F1F1F1" height="337.2383" id="PercentegePositionSensor" rx="2.5" ry="2.5" style="stroke:#181818;stroke-width:0.5;" width="842" x="586" y="203"/><ellipse cx="918.75" cy="233.2715" fill="#ADD1B2" rx="11" ry="11" style="stroke:#181818;stroke-width:1.0;"/><path d="M921.5156,229.1465 Q921.6719,228.9277 921.8594,228.8184 Q922.0469,228.709 922.2656,228.709 Q922.6406,228.709 922.875,228.9746 Q923.1094,229.2246 923.1094,229.834 L923.1094,231.2871 Q923.1094,231.8965 922.875,232.1621 Q922.6406,232.4277 922.2656,232.4277 Q921.9219,232.4277 921.7188,232.2246 Q921.5156,232.0371 921.4063,231.5215 Q921.3594,231.1621 921.1719,230.9746 Q920.8438,230.5996 920.2344,230.3809 Q919.625,230.1621 919,230.1621 Q918.2344,230.1621 917.5938,230.4902 Q916.9688,230.8184 916.4688,231.5684 Q915.9844,232.3184 915.9844,233.3496 L915.9844,234.4434 Q915.9844,235.6777 916.875,236.5059 Q917.7656,237.3184 919.3594,237.3184 Q920.2969,237.3184 920.9531,237.0684 Q921.3438,236.9121 921.7656,236.4746 Q922.0313,236.209 922.1719,236.1309 Q922.3281,236.0527 922.5313,236.0527 Q922.8594,236.0527 923.1094,236.3184 Q923.375,236.5684 923.375,236.9121 Q923.375,237.2559 923.0313,237.6621 Q922.5313,238.2402 921.7344,238.5684 Q920.6563,239.0215 919.3594,239.0215 Q917.8438,239.0215 916.6406,238.3965 Q915.6563,237.8965 914.9688,236.834 Q914.2813,235.7559 914.2813,234.4746 L914.2813,233.3184 Q914.2813,231.9902 914.8906,230.8496 Q915.5156,229.6934 916.6094,229.084 Q917.7031,228.459 918.9375,228.459 Q919.6719,228.459 920.3125,228.6309 Q920.9688,228.7871 921.5156,229.1465 Z " fill="#000000"/><text fill="#000000" font-family="sans-serif" font-size="12" font-style="italic" lengthAdjust="spacing" textLength="43" x="1001.75" y="220.9492">&#171;entity&#187;</text><text fill="#000000" font-family="sans-serif" font-size="12" font-style="italic" lengthAdjust="spacing" textLength="40" x="1003.25" y="236.9102">&#171;Root&#187;</text><text fill="#000000" font-family="sans-serif" font-size="14" lengthAdjust="spacing" textLength="168" x="939.25" y="255.0293">PercentegePositionSensor</text><line style="stroke:#181818;stroke-width:0.5;" x1="587" x2="1427" y1="263.543" y2="263.543"/><rect fill="none" height="6" style="stroke:#C82930;stroke-width:1.0;" width="6" x="594" y="275.3535"/><text fill="#000000" font-family="sans-serif" font-size="14" lengthAdjust="spacing" textLength="130" x="606" y="282.6504">_sensorID: SensorID</text><rect fill="none" height="6" style="stroke:#C82930;stroke-width:1.0;" width="6" x="594" y="293.9746"/><text fill="#000000" font-family="sans-serif" font-size="14" lengthAdjust="spacing" textLength="176" x="606" y="301.2715">_sensorName: SensorName</text><rect fill="none" height="6" style="stroke:#C82930;stroke-width:1.0;" width="6" x="594" y="312.5957"/><text fill="#000000" font-family="sans-serif" font-size="14" lengthAdjust="spacing" textLength="194" x="606" y="319.8926">_sensorTypeID: SensorTypeID</text><rect fill="none" height="6" style="stroke:#C82930;stroke-width:1.0;" width="6" x="594" y="331.2168"/><text fill="#000000" font-family="sans-serif" font-size="14" lengthAdjust="spacing" textLength="150" x="606" y="338.5137">_modelPath: ModelPath</text><rect fill="none" height="6" style="stroke:#C82930;stroke-width:1.0;" width="6" x="594" y="349.8379"/><text fill="#000000" font-family="sans-serif" font-size="14" lengthAdjust="spacing" textLength="126" x="606" y="357.1348">_deviceID: DeviceID</text><rect fill="none" height="6" style="stroke:#C82930;stroke-width:1.0;" width="6" x="594" y="368.459"/><text fill="#000000" font-family="sans-serif" font-size="14" lengthAdjust="spacing" textLength="292" x="606" y="375.7559">_percentege: PercentegePositionSensorValue</text><line style="stroke:#181818;stroke-width:0.5;" x1="587" x2="1427" y1="383.2695" y2="383.2695"/><ellipse cx="597" cy="398.0801" fill="#84BE84" rx="3" ry="3" style="stroke:#038048;stroke-width:1.0;"/><text fill="#000000" font-family="sans-serif" font-size="14" lengthAdjust="spacing" textLength="816" x="606" y="402.377">PercentegePositionSensor(sensorTypeID: SensorTypeID, modelPath: ModelPath, deviceID: DeviceID, sensorName: SensorName)</text><ellipse cx="597" cy="416.7012" fill="#84BE84" rx="3" ry="3" style="stroke:#038048;stroke-width:1.0;"/><text fill="#000000" font-family="sans-serif" font-size="14" lengthAdjust="spacing" textLength="189" x="606" y="420.998">getSensorTypeString(): String</text><ellipse cx="597" cy="435.3223" fill="#84BE84" rx="3" ry="3" style="stroke:#038048;stroke-width:1.0;"/><text fill="#000000" font-family="sans-serif" font-size="14" lengthAdjust="spacing" textLength="109" x="606" y="439.6191">getID(): SensorID</text><ellipse cx="597" cy="453.9434" fill="#84BE84" rx="3" ry="3" style="stroke:#038048;stroke-width:1.0;"/><text fill="#000000" font-family="sans-serif" font-size="14" lengthAdjust="spacing" textLength="155" x="606" y="458.2402">getName(): SensorName</text><ellipse cx="597" cy="472.5645" fill="#84BE84" rx="3" ry="3" style="stroke:#038048;stroke-width:1.0;"/><text fill="#000000" font-family="sans-serif" font-size="14" lengthAdjust="spacing" textLength="172" x="606" y="476.8613">getModelPath(): ModelPath</text><ellipse cx="597" cy="491.1855" fill="#84BE84" rx="3" ry="3" style="stroke:#038048;stroke-width:1.0;"/><text fill="#000000" font-family="sans-serif" font-size="14" lengthAdjust="spacing" textLength="218" x="606" y="495.4824">getSensorTypeID(): SensorTypeID</text><ellipse cx="597" cy="509.8066" fill="#84BE84" rx="3" ry="3" style="stroke:#038048;stroke-width:1.0;"/><text fill="#000000" font-family="sans-serif" font-size="14" lengthAdjust="spacing" textLength="150" x="606" y="514.1035">getDeviceID(): DeviceID</text><ellipse cx="597" cy="528.4277" fill="#84BE84" rx="3" ry="3" style="stroke:#038048;stroke-width:1.0;"/><text fill="#000000" font-family="sans-serif" font-size="14" lengthAdjust="spacing" textLength="278" x="606" y="532.7246">getValue(): PercentegePositionSensorValue</text></g><!--class SensorName--><g id="elem_SensorName"><rect codeLine="42" fill="#F1F1F1" height="116.4453" id="SensorName" rx="2.5" ry="2.5" style="stroke:#181818;stroke-width:0.5;" width="193" x="304.5" y="626"/><ellipse cx="356.25" cy="648.291" fill="#ADD1B2" rx="11" ry="11" style="stroke:#181818;stroke-width:1.0;"/><path d="M359.0156,644.166 Q359.1719,643.9473 359.3594,643.8379 Q359.5469,643.7285 359.7656,643.7285 Q360.1406,643.7285 360.375,643.9941 Q360.6094,644.2441 360.6094,644.8535 L360.6094,646.3066 Q360.6094,646.916 360.375,647.1816 Q360.1406,647.4473 359.7656,647.4473 Q359.4219,647.4473 359.2188,647.2441 Q359.0156,647.0566 358.9063,646.541 Q358.8594,646.1816 358.6719,645.9941 Q358.3438,645.6191 357.7344,645.4004 Q357.125,645.1816 356.5,645.1816 Q355.7344,645.1816 355.0938,645.5098 Q354.4688,645.8379 353.9688,646.5879 Q353.4844,647.3379 353.4844,648.3691 L353.4844,649.4629 Q353.4844,650.6973 354.375,651.5254 Q355.2656,652.3379 356.8594,652.3379 Q357.7969,652.3379 358.4531,652.0879 Q358.8438,651.9316 359.2656,651.4941 Q359.5313,651.2285 359.6719,651.1504 Q359.8281,651.0723 360.0313,651.0723 Q360.3594,651.0723 360.6094,651.3379 Q360.875,651.5879 360.875,651.9316 Q360.875,652.2754 360.5313,652.6816 Q360.0313,653.2598 359.2344,653.5879 Q358.1563,654.041 356.8594,654.041 Q355.3438,654.041 354.1406,653.416 Q353.1563,652.916 352.4688,651.8535 Q351.7813,650.7754 351.7813,649.4941 L351.7813,648.3379 Q351.7813,647.0098 352.3906,645.8691 Q353.0156,644.7129 354.1094,644.1035 Q355.2031,643.4785 356.4375,643.4785 Q357.1719,643.4785 357.8125,643.6504 Q358.4688,643.8066 359.0156,644.166 Z " fill="#000000"/><text fill="#000000" font-family="sans-serif" font-size="12" font-style="italic" lengthAdjust="spacing" textLength="82" x="376.25" y="643.9492">&#171;ValueObject&#187;</text><text fill="#000000" font-family="sans-serif" font-size="14" lengthAdjust="spacing" textLength="81" x="376.75" y="662.0684">SensorName</text><line style="stroke:#181818;stroke-width:0.5;" x1="305.5" x2="496.5" y1="670.582" y2="670.582"/><rect fill="none" height="6" style="stroke:#C82930;stroke-width:1.0;" width="6" x="312.5" y="682.3926"/><text fill="#000000" font-family="sans-serif" font-size="14" lengthAdjust="spacing" textLength="88" x="324.5" y="689.6895">_name: String</text><line style="stroke:#181818;stroke-width:0.5;" x1="305.5" x2="496.5" y1="697.2031" y2="697.2031"/><ellipse cx="315.5" cy="712.0137" fill="#84BE84" rx="3" ry="3" style="stroke:#038048;stroke-width:1.0;"/><text fill="#000000" font-family="sans-serif" font-size="14" lengthAdjust="spacing" textLength="167" x="324.5" y="716.3105">SensorName(String name)</text><ellipse cx="315.5" cy="730.6348" fill="#84BE84" rx="3" ry="3" style="stroke:#038048;stroke-width:1.0;"/><text fill="#000000" font-family="sans-serif" font-size="14" lengthAdjust="spacing" textLength="115" x="324.5" y="734.9316">getName() : String</text></g><!--class SensorID--><g id="elem_SensorID"><rect codeLine="48" fill="#F1F1F1" height="116.4453" id="SensorID" rx="2.5" ry="2.5" style="stroke:#181818;stroke-width:0.5;" width="146" x="1451" y="626"/><ellipse cx="1487.15" cy="648.291" fill="#ADD1B2" rx="11" ry="11" style="stroke:#181818;stroke-width:1.0;"/><path d="M1489.9156,644.166 Q1490.0719,643.9473 1490.2594,643.8379 Q1490.4469,643.7285 1490.6656,643.7285 Q1491.0406,643.7285 1491.275,643.9941 Q1491.5094,644.2441 1491.5094,644.8535 L1491.5094,646.3066 Q1491.5094,646.916 1491.275,647.1816 Q1491.0406,647.4473 1490.6656,647.4473 Q1490.3219,647.4473 1490.1188,647.2441 Q1489.9156,647.0566 1489.8063,646.541 Q1489.7594,646.1816 1489.5719,645.9941 Q1489.2438,645.6191 1488.6344,645.4004 Q1488.025,645.1816 1487.4,645.1816 Q1486.6344,645.1816 1485.9938,645.5098 Q1485.3688,645.8379 1484.8688,646.5879 Q1484.3844,647.3379 1484.3844,648.3691 L1484.3844,649.4629 Q1484.3844,650.6973 1485.275,651.5254 Q1486.1656,652.3379 1487.7594,652.3379 Q1488.6969,652.3379 1489.3531,652.0879 Q1489.7438,651.9316 1490.1656,651.4941 Q1490.4313,651.2285 1490.5719,651.1504 Q1490.7281,651.0723 1490.9313,651.0723 Q1491.2594,651.0723 1491.5094,651.3379 Q1491.775,651.5879 1491.775,651.9316 Q1491.775,652.2754 1491.4313,652.6816 Q1490.9313,653.2598 1490.1344,653.5879 Q1489.0563,654.041 1487.7594,654.041 Q1486.2438,654.041 1485.0406,653.416 Q1484.0563,652.916 1483.3688,651.8535 Q1482.6813,650.7754 1482.6813,649.4941 L1482.6813,648.3379 Q1482.6813,647.0098 1483.2906,645.8691 Q1483.9156,644.7129 1485.0094,644.1035 Q1486.1031,643.4785 1487.3375,643.4785 Q1488.0719,643.4785 1488.7125,643.6504 Q1489.3688,643.8066 1489.9156,644.166 Z " fill="#000000"/><text fill="#000000" font-family="sans-serif" font-size="12" font-style="italic" lengthAdjust="spacing" textLength="71" x="1503.85" y="643.9492">&#171;DomainID&#187;</text><text fill="#000000" font-family="sans-serif" font-size="14" lengthAdjust="spacing" textLength="58" x="1510.35" y="662.0684">SensorID</text><line style="stroke:#181818;stroke-width:0.5;" x1="1452" x2="1596" y1="670.582" y2="670.582"/><rect fill="none" height="6" style="stroke:#C82930;stroke-width:1.0;" width="6" x="1459" y="682.3926"/><text fill="#000000" font-family="sans-serif" font-size="14" lengthAdjust="spacing" textLength="64" x="1471" y="689.6895">_id: String</text><line style="stroke:#181818;stroke-width:0.5;" x1="1452" x2="1596" y1="697.2031" y2="697.2031"/><ellipse cx="1462" cy="712.0137" fill="#84BE84" rx="3" ry="3" style="stroke:#038048;stroke-width:1.0;"/><text fill="#000000" font-family="sans-serif" font-size="14" lengthAdjust="spacing" textLength="120" x="1471" y="716.3105">SensorID(String id)</text><ellipse cx="1462" cy="730.6348" fill="#84BE84" rx="3" ry="3" style="stroke:#038048;stroke-width:1.0;"/><text fill="#000000" font-family="sans-serif" font-size="14" lengthAdjust="spacing" textLength="92" x="1471" y="734.9316">getID() : String</text></g><!--class PercentegePositionSensorValue--><g id="elem_PercentegePositionSensorValue"><rect codeLine="54" fill="#F1F1F1" height="116.4453" id="PercentegePositionSensorValue" rx="2.5" ry="2.5" style="stroke:#181818;stroke-width:0.5;" width="293" x="515.5" y="626"/><ellipse cx="556.15" cy="648.291" fill="#ADD1B2" rx="11" ry="11" style="stroke:#181818;stroke-width:1.0;"/><path d="M558.9156,644.166 Q559.0719,643.9473 559.2594,643.8379 Q559.4469,643.7285 559.6656,643.7285 Q560.0406,643.7285 560.275,643.9941 Q560.5094,644.2441 560.5094,644.8535 L560.5094,646.3066 Q560.5094,646.916 560.275,647.1816 Q560.0406,647.4473 559.6656,647.4473 Q559.3219,647.4473 559.1188,647.2441 Q558.9156,647.0566 558.8063,646.541 Q558.7594,646.1816 558.5719,645.9941 Q558.2438,645.6191 557.6344,645.4004 Q557.025,645.1816 556.4,645.1816 Q555.6344,645.1816 554.9938,645.5098 Q554.3688,645.8379 553.8688,646.5879 Q553.3844,647.3379 553.3844,648.3691 L553.3844,649.4629 Q553.3844,650.6973 554.275,651.5254 Q555.1656,652.3379 556.7594,652.3379 Q557.6969,652.3379 558.3531,652.0879 Q558.7438,651.9316 559.1656,651.4941 Q559.4313,651.2285 559.5719,651.1504 Q559.7281,651.0723 559.9313,651.0723 Q560.2594,651.0723 560.5094,651.3379 Q560.775,651.5879 560.775,651.9316 Q560.775,652.2754 560.4313,652.6816 Q559.9313,653.2598 559.1344,653.5879 Q558.0563,654.041 556.7594,654.041 Q555.2438,654.041 554.0406,653.416 Q553.0563,652.916 552.3688,651.8535 Q551.6813,650.7754 551.6813,649.4941 L551.6813,648.3379 Q551.6813,647.0098 552.2906,645.8691 Q552.9156,644.7129 554.0094,644.1035 Q555.1031,643.4785 556.3375,643.4785 Q557.0719,643.4785 557.7125,643.6504 Q558.3688,643.8066 558.9156,644.166 Z " fill="#000000"/><text fill="#000000" font-family="sans-serif" font-size="12" font-style="italic" lengthAdjust="spacing" textLength="82" x="636.85" y="643.9492">&#171;ValueObject&#187;</text><text fill="#000000" font-family="sans-serif" font-size="14" lengthAdjust="spacing" textLength="204" x="575.85" y="662.0684">PercentegePositionSensorValue</text><line style="stroke:#181818;stroke-width:0.5;" x1="516.5" x2="807.5" y1="670.582" y2="670.582"/><rect fill="none" height="6" style="stroke:#C82930;stroke-width:1.0;" width="6" x="523.5" y="682.3926"/><text fill="#000000" font-family="sans-serif" font-size="14" lengthAdjust="spacing" textLength="107" x="535.5" y="689.6895">_percentege : int</text><line style="stroke:#181818;stroke-width:0.5;" x1="516.5" x2="807.5" y1="697.2031" y2="697.2031"/><ellipse cx="526.5" cy="712.0137" fill="#84BE84" rx="3" ry="3" style="stroke:#038048;stroke-width:1.0;"/><text fill="#000000" font-family="sans-serif" font-size="14" lengthAdjust="spacing" textLength="267" x="535.5" y="716.3105">PercentegePositionSensorValue(int value)</text><ellipse cx="526.5" cy="730.6348" fill="#84BE84" rx="3" ry="3" style="stroke:#038048;stroke-width:1.0;"/><text fill="#000000" font-family="sans-serif" font-size="14" lengthAdjust="spacing" textLength="108" x="535.5" y="734.9316">toString() : String</text></g><!--class SensorTypeID--><g id="elem_SensorTypeID"><rect codeLine="60" fill="#F1F1F1" height="116.4453" id="SensorTypeID" rx="2.5" ry="2.5" style="stroke:#181818;stroke-width:0.5;" width="254" x="989" y="626"/><ellipse cx="1066.75" cy="648.291" fill="#ADD1B2" rx="11" ry="11" style="stroke:#181818;stroke-width:1.0;"/><path d="M1069.5156,644.166 Q1069.6719,643.9473 1069.8594,643.8379 Q1070.0469,643.7285 1070.2656,643.7285 Q1070.6406,643.7285 1070.875,643.9941 Q1071.1094,644.2441 1071.1094,644.8535 L1071.1094,646.3066 Q1071.1094,646.916 1070.875,647.1816 Q1070.6406,647.4473 1070.2656,647.4473 Q1069.9219,647.4473 1069.7188,647.2441 Q1069.5156,647.0566 1069.4063,646.541 Q1069.3594,646.1816 1069.1719,645.9941 Q1068.8438,645.6191 1068.2344,645.4004 Q1067.625,645.1816 1067,645.1816 Q1066.2344,645.1816 1065.5938,645.5098 Q1064.9688,645.8379 1064.4688,646.5879 Q1063.9844,647.3379 1063.9844,648.3691 L1063.9844,649.4629 Q1063.9844,650.6973 1064.875,651.5254 Q1065.7656,652.3379 1067.3594,652.3379 Q1068.2969,652.3379 1068.9531,652.0879 Q1069.3438,651.9316 1069.7656,651.4941 Q1070.0313,651.2285 1070.1719,651.1504 Q1070.3281,651.0723 1070.5313,651.0723 Q1070.8594,651.0723 1071.1094,651.3379 Q1071.375,651.5879 1071.375,651.9316 Q1071.375,652.2754 1071.0313,652.6816 Q1070.5313,653.2598 1069.7344,653.5879 Q1068.6563,654.041 1067.3594,654.041 Q1065.8438,654.041 1064.6406,653.416 Q1063.6563,652.916 1062.9688,651.8535 Q1062.2813,650.7754 1062.2813,649.4941 L1062.2813,648.3379 Q1062.2813,647.0098 1062.8906,645.8691 Q1063.5156,644.7129 1064.6094,644.1035 Q1065.7031,643.4785 1066.9375,643.4785 Q1067.6719,643.4785 1068.3125,643.6504 Q1068.9688,643.8066 1069.5156,644.166 Z " fill="#000000"/><text fill="#000000" font-family="sans-serif" font-size="12" font-style="italic" lengthAdjust="spacing" textLength="71" x="1096.75" y="643.9492">&#171;DomainID&#187;</text><text fill="#000000" font-family="sans-serif" font-size="14" lengthAdjust="spacing" textLength="90" x="1087.25" y="662.0684">SensorTypeID</text><line style="stroke:#181818;stroke-width:0.5;" x1="990" x2="1242" y1="670.582" y2="670.582"/><rect fill="none" height="6" style="stroke:#C82930;stroke-width:1.0;" width="6" x="997" y="682.3926"/><text fill="#000000" font-family="sans-serif" font-size="14" lengthAdjust="spacing" textLength="122" x="1009" y="689.6895">_description: String</text><line style="stroke:#181818;stroke-width:0.5;" x1="990" x2="1242" y1="697.2031" y2="697.2031"/><ellipse cx="1000" cy="712.0137" fill="#84BE84" rx="3" ry="3" style="stroke:#038048;stroke-width:1.0;"/><text fill="#000000" font-family="sans-serif" font-size="14" lengthAdjust="spacing" textLength="228" x="1009" y="716.3105">SensorTypeID(String strDescription)</text><ellipse cx="1000" cy="730.6348" fill="#84BE84" rx="3" ry="3" style="stroke:#038048;stroke-width:1.0;"/><text fill="#000000" font-family="sans-serif" font-size="14" lengthAdjust="spacing" textLength="124" x="1009" y="734.9316">getTypeID() : String</text></g><!--class ModelPath--><g id="elem_ModelPath"><rect codeLine="66" fill="#F1F1F1" height="116.4453" id="ModelPath" rx="2.5" ry="2.5" style="stroke:#181818;stroke-width:0.5;" width="172" x="1261" y="626"/><ellipse cx="1309.25" cy="648.291" fill="#ADD1B2" rx="11" ry="11" style="stroke:#181818;stroke-width:1.0;"/><path d="M1312.0156,644.166 Q1312.1719,643.9473 1312.3594,643.8379 Q1312.5469,643.7285 1312.7656,643.7285 Q1313.1406,643.7285 1313.375,643.9941 Q1313.6094,644.2441 1313.6094,644.8535 L1313.6094,646.3066 Q1313.6094,646.916 1313.375,647.1816 Q1313.1406,647.4473 1312.7656,647.4473 Q1312.4219,647.4473 1312.2188,647.2441 Q1312.0156,647.0566 1311.9063,646.541 Q1311.8594,646.1816 1311.6719,645.9941 Q1311.3438,645.6191 1310.7344,645.4004 Q1310.125,645.1816 1309.5,645.1816 Q1308.7344,645.1816 1308.0938,645.5098 Q1307.4688,645.8379 1306.9688,646.5879 Q1306.4844,647.3379 1306.4844,648.3691 L1306.4844,649.4629 Q1306.4844,650.6973 1307.375,651.5254 Q1308.2656,652.3379 1309.8594,652.3379 Q1310.7969,652.3379 1311.4531,652.0879 Q1311.8438,651.9316 1312.2656,651.4941 Q1312.5313,651.2285 1312.6719,651.1504 Q1312.8281,651.0723 1313.0313,651.0723 Q1313.3594,651.0723 1313.6094,651.3379 Q1313.875,651.5879 1313.875,651.9316 Q1313.875,652.2754 1313.5313,652.6816 Q1313.0313,653.2598 1312.2344,653.5879 Q1311.1563,654.041 1309.8594,654.041 Q1308.3438,654.041 1307.1406,653.416 Q1306.1563,652.916 1305.4688,651.8535 Q1304.7813,650.7754 1304.7813,649.4941 L1304.7813,648.3379 Q1304.7813,647.0098 1305.3906,645.8691 Q1306.0156,644.7129 1307.1094,644.1035 Q1308.2031,643.4785 1309.4375,643.4785 Q1310.1719,643.4785 1310.8125,643.6504 Q1311.4688,643.8066 1312.0156,644.166 Z " fill="#000000"/><text fill="#000000" font-family="sans-serif" font-size="12" font-style="italic" lengthAdjust="spacing" textLength="71" x="1327.75" y="643.9492">&#171;DomainID&#187;</text><text fill="#000000" font-family="sans-serif" font-size="14" lengthAdjust="spacing" textLength="67" x="1329.75" y="662.0684">ModelPath</text><line style="stroke:#181818;stroke-width:0.5;" x1="1262" x2="1432" y1="670.582" y2="670.582"/><rect fill="none" height="6" style="stroke:#C82930;stroke-width:1.0;" width="6" x="1269" y="682.3926"/><text fill="#000000" font-family="sans-serif" font-size="14" lengthAdjust="spacing" textLength="81" x="1281" y="689.6895">_path: String</text><line style="stroke:#181818;stroke-width:0.5;" x1="1262" x2="1432" y1="697.2031" y2="697.2031"/><ellipse cx="1272" cy="712.0137" fill="#84BE84" rx="3" ry="3" style="stroke:#038048;stroke-width:1.0;"/><text fill="#000000" font-family="sans-serif" font-size="14" lengthAdjust="spacing" textLength="146" x="1281" y="716.3105">ModelPath(String path)</text><ellipse cx="1272" cy="730.6348" fill="#84BE84" rx="3" ry="3" style="stroke:#038048;stroke-width:1.0;"/><text fill="#000000" font-family="sans-serif" font-size="14" lengthAdjust="spacing" textLength="108" x="1281" y="734.9316">getPath() : String</text></g><!--class DeviceID--><g id="elem_DeviceID"><rect codeLine="72" fill="#F1F1F1" height="116.4453" id="DeviceID" rx="2.5" ry="2.5" style="stroke:#181818;stroke-width:0.5;" width="144" x="827" y="626"/><ellipse cx="862.25" cy="648.291" fill="#ADD1B2" rx="11" ry="11" style="stroke:#181818;stroke-width:1.0;"/><path d="M865.0156,644.166 Q865.1719,643.9473 865.3594,643.8379 Q865.5469,643.7285 865.7656,643.7285 Q866.1406,643.7285 866.375,643.9941 Q866.6094,644.2441 866.6094,644.8535 L866.6094,646.3066 Q866.6094,646.916 866.375,647.1816 Q866.1406,647.4473 865.7656,647.4473 Q865.4219,647.4473 865.2188,647.2441 Q865.0156,647.0566 864.9063,646.541 Q864.8594,646.1816 864.6719,645.9941 Q864.3438,645.6191 863.7344,645.4004 Q863.125,645.1816 862.5,645.1816 Q861.7344,645.1816 861.0938,645.5098 Q860.4688,645.8379 859.9688,646.5879 Q859.4844,647.3379 859.4844,648.3691 L859.4844,649.4629 Q859.4844,650.6973 860.375,651.5254 Q861.2656,652.3379 862.8594,652.3379 Q863.7969,652.3379 864.4531,652.0879 Q864.8438,651.9316 865.2656,651.4941 Q865.5313,651.2285 865.6719,651.1504 Q865.8281,651.0723 866.0313,651.0723 Q866.3594,651.0723 866.6094,651.3379 Q866.875,651.5879 866.875,651.9316 Q866.875,652.2754 866.5313,652.6816 Q866.0313,653.2598 865.2344,653.5879 Q864.1563,654.041 862.8594,654.041 Q861.3438,654.041 860.1406,653.416 Q859.1563,652.916 858.4688,651.8535 Q857.7813,650.7754 857.7813,649.4941 L857.7813,648.3379 Q857.7813,647.0098 858.3906,645.8691 Q859.0156,644.7129 860.1094,644.1035 Q861.2031,643.4785 862.4375,643.4785 Q863.1719,643.4785 863.8125,643.6504 Q864.4688,643.8066 865.0156,644.166 Z " fill="#000000"/><text fill="#000000" font-family="sans-serif" font-size="12" font-style="italic" lengthAdjust="spacing" textLength="71" x="878.75" y="643.9492">&#171;DomainID&#187;</text><text fill="#000000" font-family="sans-serif" font-size="14" lengthAdjust="spacing" textLength="56" x="886.25" y="662.0684">DeviceID</text><line style="stroke:#181818;stroke-width:0.5;" x1="828" x2="970" y1="670.582" y2="670.582"/><rect fill="none" height="6" style="stroke:#C82930;stroke-width:1.0;" width="6" x="835" y="682.3926"/><text fill="#000000" font-family="sans-serif" font-size="14" lengthAdjust="spacing" textLength="64" x="847" y="689.6895">_id: String</text><line style="stroke:#181818;stroke-width:0.5;" x1="828" x2="970" y1="697.2031" y2="697.2031"/><ellipse cx="838" cy="712.0137" fill="#84BE84" rx="3" ry="3" style="stroke:#038048;stroke-width:1.0;"/><text fill="#000000" font-family="sans-serif" font-size="14" lengthAdjust="spacing" textLength="118" x="847" y="716.3105">DeviceID(String id)</text><ellipse cx="838" cy="730.6348" fill="#84BE84" rx="3" ry="3" style="stroke:#038048;stroke-width:1.0;"/><text fill="#000000" font-family="sans-serif" font-size="14" lengthAdjust="spacing" textLength="92" x="847" y="734.9316">getID() : String</text></g><!--class DomainEntity--><g id="elem_DomainEntity"><rect codeLine="82" fill="#F1F1F1" height="48" id="DomainEntity" rx="2.5" ry="2.5" style="stroke:#181818;stroke-width:0.5;" width="115" x="1157.5" y="914"/><ellipse cx="1172.5" cy="930" fill="#B4A7E5" rx="11" ry="11" style="stroke:#181818;stroke-width:1.0;"/><path d="M1173.4531,926.6406 L1173.4531,933.2969 L1175.1719,933.2969 Q1175.7813,933.2969 1176.0469,933.5313 Q1176.3125,933.7656 1176.3125,934.1563 Q1176.3125,934.5313 1176.0469,934.7656 Q1175.7813,935 1175.1719,935 L1170.0313,935 Q1169.4219,935 1169.1563,934.7656 Q1168.8906,934.5313 1168.8906,934.1406 Q1168.8906,933.7656 1169.1563,933.5313 Q1169.4219,933.2969 1170.0313,933.2969 L1171.75,933.2969 L1171.75,926.6406 L1170.0313,926.6406 Q1169.4219,926.6406 1169.1563,926.4063 Q1168.8906,926.1719 1168.8906,925.7813 Q1168.8906,925.4063 1169.1563,925.1719 Q1169.4219,924.9375 1170.0313,924.9375 L1175.1719,924.9375 Q1175.7813,924.9375 1176.0469,925.1719 Q1176.3125,925.4063 1176.3125,925.7813 Q1176.3125,926.1719 1176.0469,926.4063 Q1175.7813,926.6406 1175.1719,926.6406 L1173.4531,926.6406 Z " fill="#000000"/><text fill="#000000" font-family="sans-serif" font-size="14" font-style="italic" lengthAdjust="spacing" textLength="83" x="1186.5" y="935.7969">DomainEntity</text><line style="stroke:#181818;stroke-width:0.5;" x1="1158.5" x2="1271.5" y1="946" y2="946"/><line style="stroke:#181818;stroke-width:0.5;" x1="1158.5" x2="1271.5" y1="954" y2="954"/></g><!--class DomainID--><g id="elem_DomainID"><rect codeLine="85" fill="#F1F1F1" height="48" id="DomainID" rx="2.5" ry="2.5" style="stroke:#181818;stroke-width:0.5;" width="94" x="1159" y="999"/><ellipse cx="1174" cy="1015" fill="#B4A7E5" rx="11" ry="11" style="stroke:#181818;stroke-width:1.0;"/><path d="M1174.9531,1011.6406 L1174.9531,1018.2969 L1176.6719,1018.2969 Q1177.2813,1018.2969 1177.5469,1018.5313 Q1177.8125,1018.7656 1177.8125,1019.1563 Q1177.8125,1019.5313 1177.5469,1019.7656 Q1177.2813,1020 1176.6719,1020 L1171.5313,1020 Q1170.9219,1020 1170.6563,1019.7656 Q1170.3906,1019.5313 1170.3906,1019.1406 Q1170.3906,1018.7656 1170.6563,1018.5313 Q1170.9219,1018.2969 1171.5313,1018.2969 L1173.25,1018.2969 L1173.25,1011.6406 L1171.5313,1011.6406 Q1170.9219,1011.6406 1170.6563,1011.4063 Q1170.3906,1011.1719 1170.3906,1010.7813 Q1170.3906,1010.4063 1170.6563,1010.1719 Q1170.9219,1009.9375 1171.5313,1009.9375 L1176.6719,1009.9375 Q1177.2813,1009.9375 1177.5469,1010.1719 Q1177.8125,1010.4063 1177.8125,1010.7813 Q1177.8125,1011.1719 1177.5469,1011.4063 Q1177.2813,1011.6406 1176.6719,1011.6406 L1174.9531,1011.6406 Z " fill="#000000"/><text fill="#000000" font-family="sans-serif" font-size="14" font-style="italic" lengthAdjust="spacing" textLength="62" x="1188" y="1020.7969">DomainID</text><line style="stroke:#181818;stroke-width:0.5;" x1="1160" x2="1252" y1="1031" y2="1031"/><line style="stroke:#181818;stroke-width:0.5;" x1="1160" x2="1252" y1="1039" y2="1039"/></g><!--class AggregateRoot--><g id="elem_AggregateRoot"><rect codeLine="88" fill="#F1F1F1" height="48" id="AggregateRoot" rx="2.5" ry="2.5" style="stroke:#181818;stroke-width:0.5;" width="128" x="1155" y="829"/><ellipse cx="1170" cy="845" fill="#B4A7E5" rx="11" ry="11" style="stroke:#181818;stroke-width:1.0;"/><path d="M1170.9531,841.6406 L1170.9531,848.2969 L1172.6719,848.2969 Q1173.2813,848.2969 1173.5469,848.5313 Q1173.8125,848.7656 1173.8125,849.1563 Q1173.8125,849.5313 1173.5469,849.7656 Q1173.2813,850 1172.6719,850 L1167.5313,850 Q1166.9219,850 1166.6563,849.7656 Q1166.3906,849.5313 1166.3906,849.1406 Q1166.3906,848.7656 1166.6563,848.5313 Q1166.9219,848.2969 1167.5313,848.2969 L1169.25,848.2969 L1169.25,841.6406 L1167.5313,841.6406 Q1166.9219,841.6406 1166.6563,841.4063 Q1166.3906,841.1719 1166.3906,840.7813 Q1166.3906,840.4063 1166.6563,840.1719 Q1166.9219,839.9375 1167.5313,839.9375 L1172.6719,839.9375 Q1173.2813,839.9375 1173.5469,840.1719 Q1173.8125,840.4063 1173.8125,840.7813 Q1173.8125,841.1719 1173.5469,841.4063 Q1173.2813,841.6406 1172.6719,841.6406 L1170.9531,841.6406 Z " fill="#000000"/><text fill="#000000" font-family="sans-serif" font-size="14" font-style="italic" lengthAdjust="spacing" textLength="96" x="1184" y="850.7969">AggregateRoot</text><line style="stroke:#181818;stroke-width:0.5;" x1="1156" x2="1282" y1="861" y2="861"/><line style="stroke:#181818;stroke-width:0.5;" x1="1156" x2="1282" y1="869" y2="869"/></g><!--class ValueObject--><g id="elem_ValueObject"><rect codeLine="91" fill="#F1F1F1" height="48" id="ValueObject" rx="2.5" ry="2.5" style="stroke:#181818;stroke-width:0.5;" width="109" x="1155.5" y="1084"/><ellipse cx="1170.5" cy="1100" fill="#B4A7E5" rx="11" ry="11" style="stroke:#181818;stroke-width:1.0;"/><path d="M1171.4531,1096.6406 L1171.4531,1103.2969 L1173.1719,1103.2969 Q1173.7813,1103.2969 1174.0469,1103.5313 Q1174.3125,1103.7656 1174.3125,1104.1563 Q1174.3125,1104.5313 1174.0469,1104.7656 Q1173.7813,1105 1173.1719,1105 L1168.0313,1105 Q1167.4219,1105 1167.1563,1104.7656 Q1166.8906,1104.5313 1166.8906,1104.1406 Q1166.8906,1103.7656 1167.1563,1103.5313 Q1167.4219,1103.2969 1168.0313,1103.2969 L1169.75,1103.2969 L1169.75,1096.6406 L1168.0313,1096.6406 Q1167.4219,1096.6406 1167.1563,1096.4063 Q1166.8906,1096.1719 1166.8906,1095.7813 Q1166.8906,1095.4063 1167.1563,1095.1719 Q1167.4219,1094.9375 1168.0313,1094.9375 L1173.1719,1094.9375 Q1173.7813,1094.9375 1174.0469,1095.1719 Q1174.3125,1095.4063 1174.3125,1095.7813 Q1174.3125,1096.1719 1174.0469,1096.4063 Q1173.7813,1096.6406 1173.1719,1096.6406 L1171.4531,1096.6406 Z " fill="#000000"/><text fill="#000000" font-family="sans-serif" font-size="14" font-style="italic" lengthAdjust="spacing" textLength="77" x="1184.5" y="1105.7969">ValueObject</text><line style="stroke:#181818;stroke-width:0.5;" x1="1156.5" x2="1263.5" y1="1116" y2="1116"/><line style="stroke:#181818;stroke-width:0.5;" x1="1156.5" x2="1263.5" y1="1124" y2="1124"/></g><polygon fill="none" points="172.2022,337.9811,184.9952,323.969,174.0293,319.0956,172.2022,337.9811" style="stroke:#181818;stroke-width:1.0;"/><path d="M453.8415,110.634 C400.0141,121.4236 339.1914,140.4497 292,174 C232.5737,216.2486 199.0532,277.5618 179.5123,321.5323 " fill="none" style="stroke:#181818;stroke-width:1.0;stroke-dasharray:7.0,7.0;"/><polygon fill="#181818" points="747.617,202.8798,742.229,194.6354,743.4175,200.166,737.8869,201.3546,747.617,202.8798" style="stroke:#181818;stroke-width:1.0;"/><path d="M633.3034,129.0074 C663.3559,148.4281 699.0423,171.4896 742.5776,199.6233 " fill="none" style="stroke:#181818;stroke-width:1.0;stroke-dasharray:7.0,7.0;"/><text fill="#000000" font-family="sans-serif" font-size="13" lengthAdjust="spacing" textLength="43" x="686" y="162.0283">creates</text><text fill="#000000" font-family="sans-serif" font-size="13" lengthAdjust="spacing" textLength="7" x="739.617" y="198.9081">1</text><text fill="#000000" font-family="sans-serif" font-size="13" lengthAdjust="spacing" textLength="7" x="625.3034" y="144.0357">1</text><polygon fill="none" points="1614.7599,598.0473,1601.768,584.2195,1596.0697,594.7802,1614.7599,598.0473" style="stroke:#181818;stroke-width:1.0;"/><path d="M1428.1299,512.8688 C1489.8796,537.8178 1551.8696,565.3909 1609,595 C1610.9154,595.9927 1596.995,588.4618 1598.9188,589.4999 " fill="none" style="stroke:#181818;stroke-width:1.0;stroke-dasharray:7.0,7.0;"/><polygon fill="#181818" points="725.4353,625.9083,734.8008,622.8608,729.1517,622.5634,729.4491,616.9144,725.4353,625.9083" style="stroke:#181818;stroke-width:1.0;"/><path d="M820.8676,540.0191 C786.4956,570.954 757.3097,597.2213 729.895,621.8945 " fill="none" style="stroke:#181818;stroke-width:1.0;"/><text fill="#000000" font-family="sans-serif" font-size="13" lengthAdjust="spacing" textLength="21" x="794" y="573.0283">has</text><text fill="#000000" font-family="sans-serif" font-size="13" lengthAdjust="spacing" textLength="7" x="717.4353" y="621.9366">1</text><text fill="#000000" font-family="sans-serif" font-size="13" lengthAdjust="spacing" textLength="7" x="821.8676" y="555.0475">1</text><polygon fill="#181818" points="1095.9581,625.9083,1096.7513,616.0914,1094.302,621.1905,1089.2029,618.7412,1095.9581,625.9083" style="stroke:#181818;stroke-width:1.0;"/><path d="M1065.807,540.0191 C1076.6666,570.954 1085.3093,595.5738 1093.9708,620.247 " fill="none" style="stroke:#181818;stroke-width:1.0;"/><text fill="#000000" font-family="sans-serif" font-size="13" lengthAdjust="spacing" textLength="21" x="1078" y="573.0283">has</text><text fill="#000000" font-family="sans-serif" font-size="13" lengthAdjust="spacing" textLength="7" x="1087.9581" y="621.9366">1</text><text fill="#000000" font-family="sans-serif" font-size="13" lengthAdjust="spacing" textLength="7" x="1057.807" y="555.0475">1</text><polygon fill="#181818" points="1285.5028,625.8698,1281.611,616.8225,1281.8319,622.475,1276.1794,622.6959,1285.5028,625.8698" style="stroke:#181818;stroke-width:1.0;"/><path d="M1192.1219,540.2667 C1212.3548,558.7082 1232.6277,577.2318 1252,595 C1262.8521,604.9536 1269.965,611.5008 1281.0977,621.7961 " fill="none" style="stroke:#181818;stroke-width:1.0;"/><text fill="#000000" font-family="sans-serif" font-size="13" lengthAdjust="spacing" textLength="21" x="1233" y="573.0283">has</text><text fill="#000000" font-family="sans-serif" font-size="13" lengthAdjust="spacing" textLength="7" x="1277.5028" y="621.8981">1</text><text fill="#000000" font-family="sans-serif" font-size="13" lengthAdjust="spacing" textLength="7" x="1184.1219" y="555.295">1</text><polygon fill="#181818" points="463.5196,625.7848,473.0288,623.2206,467.4024,622.6346,467.9885,617.0081,463.5196,625.7848" style="stroke:#181818;stroke-width:1.0;"/><path d="M602.5923,540.1067 C569.298,557.4977 536.6842,575.8588 506,595 C491.5712,604.0009 481.6709,611.0583 468.179,622.0045 " fill="none" style="stroke:#181818;stroke-width:1.0;"/><text fill="#000000" font-family="sans-serif" font-size="13" lengthAdjust="spacing" textLength="21" x="559" y="573.0283">has</text><text fill="#000000" font-family="sans-serif" font-size="13" lengthAdjust="spacing" textLength="7" x="455.5196" y="621.8131">1</text><text fill="#000000" font-family="sans-serif" font-size="13" lengthAdjust="spacing" textLength="7" x="594.5923" y="555.1351">1</text><polygon fill="#181818" points="1475.9613,625.5494,1472.5614,616.306,1472.4782,621.9623,1466.8219,621.879,1475.9613,625.5494" style="stroke:#181818;stroke-width:1.0;"/><path d="M1360.9711,540.0109 C1389.1492,557.3826 1416.5293,575.7678 1442,595 C1453.8324,603.9343 1461.2291,610.3771 1471.7816,621.2448 " fill="none" style="stroke:#181818;stroke-width:1.0;"/><text fill="#000000" font-family="sans-serif" font-size="13" lengthAdjust="spacing" textLength="21" x="1410" y="573.0283">has</text><text fill="#000000" font-family="sans-serif" font-size="13" lengthAdjust="spacing" textLength="7" x="1467.9613" y="621.5778">1</text><text fill="#000000" font-family="sans-serif" font-size="13" lengthAdjust="spacing" textLength="7" x="1352.9711" y="555.0392">1</text><polygon fill="#181818" points="918.858,625.9083,925.5927,618.7219,920.5006,621.1858,918.0367,616.0937,918.858,625.9083" style="stroke:#181818;stroke-width:1.0;"/><path d="M948.7325,540.0191 C937.9725,570.954 929.4111,595.5681 920.8291,620.2413 " fill="none" style="stroke:#181818;stroke-width:1.0;"/><text fill="#000000" font-family="sans-serif" font-size="13" lengthAdjust="spacing" textLength="21" x="941" y="573.0283">has</text><text fill="#000000" font-family="sans-serif" font-size="13" lengthAdjust="spacing" textLength="7" x="910.858" y="621.9366">1</text><text fill="#000000" font-family="sans-serif" font-size="13" lengthAdjust="spacing" textLength="7" x="940.7325" y="555.0475">1</text><polygon fill="none" points="1155.288,1107.9621,1137.2578,1102.0534,1137.3186,1114.0532,1155.288,1107.9621" style="stroke:#181818;stroke-width:1.0;"/><path d="M722.5562,742.2713 C747.6448,772.1449 771,810.9726 771,852 C771,852 771,852 771,1024 C771,1101.3716 1019.6065,1108.6497 1137.2882,1108.0533 " fill="none" style="stroke:#181818;stroke-width:1.0;stroke-dasharray:7.0,7.0;"/><polygon fill="none" points="1155.3968,1105.5515,1137.5927,1098.9929,1137.2184,1110.9871,1155.3968,1105.5515" style="stroke:#181818;stroke-width:1.0;"/><path d="M463.1912,742.3979 C513.4912,789.1173 576,847.9841 576,852 C576,852 576,852 576,1024 C576,1082.2102 983.6202,1100.1903 1137.4055,1104.99 " fill="none" style="stroke:#181818;stroke-width:1.0;stroke-dasharray:7.0,7.0;"/><polygon fill="none" points="1208.5248,998.716,1216.4302,981.4677,1204.5002,980.1741,1208.5248,998.716" style="stroke:#181818;stroke-width:1.0;"/><path d="M1212.493,962.1201 C1211.2551,973.5362 1211.7055,969.3827 1210.4652,980.8209 " fill="none" style="stroke:#181818;stroke-width:1.0;"/><polygon fill="none" points="1216.1221,913.716,1222.9816,896.0257,1210.9955,895.448,1216.1221,913.716" style="stroke:#181818;stroke-width:1.0;"/><path d="M1217.8858,877.1201 C1217.3356,888.5362 1217.5398,884.2986 1216.9886,895.7369 " fill="none" style="stroke:#181818;stroke-width:1.0;"/><polygon fill="none" points="1208.8779,1083.716,1214.0045,1065.448,1202.0184,1066.0257,1208.8779,1083.716" style="stroke:#181818;stroke-width:1.0;"/><path d="M1207.1142,1047.1201 C1207.6644,1058.5362 1207.4602,1054.2986 1208.0114,1065.7369 " fill="none" style="stroke:#181818;stroke-width:1.0;"/><polygon fill="none" points="1283.0693,849.3409,1301.428,854.1325,1300.6312,842.159,1283.0693,849.3409" style="stroke:#181818;stroke-width:1.0;"/><path d="M1625.3337,773.0652 C1619.9295,775.9436 1614.473,778.6096 1609,781 C1500.8381,828.2409 1380.5264,842.8557 1301.0296,848.1458 " fill="none" style="stroke:#181818;stroke-width:1.0;"/><polygon fill="none" points="1158.9008,1005.6433,1146.056,991.6786,1140.2462,1002.1784,1158.9008,1005.6433" style="stroke:#181818;stroke-width:1.0;"/><path d="M1103.4197,742.2063 C1092.762,805.6749 1085.5872,908.6577 1131,981 C1137.6274,991.5573 1132.2308,990.8859 1143.1511,996.9285 " fill="none" style="stroke:#181818;stroke-width:1.0;stroke-dasharray:7.0,7.0;"/><polygon fill="none" points="1237.7307,998.97,1255.6858,992.8369,1248.4149,983.2905,1237.7307,998.97" style="stroke:#181818;stroke-width:1.0;"/><path d="M1479.397,742.2093 C1432.9141,800.2885 1356.5754,891.4601 1282,962 C1268.1995,975.0537 1266.0941,977.3675 1252.0504,988.0637 " fill="none" style="stroke:#181818;stroke-width:1.0;stroke-dasharray:7.0,7.0;"/><polygon fill="none" points="1176.2974,998.8049,1167.3612,982.0674,1159.1059,990.7766,1176.2974,998.8049" style="stroke:#181818;stroke-width:1.0;"/><path d="M1301.8007,742.1121 C1287.3895,756.8912 1270.3678,771.344 1252,781 C1209.6354,803.2712 1176.7132,763.2921 1146,800 C1140.9313,806.058 1148.6083,961.0672 1149,962 C1154.896,976.0423 1152.6181,976.3598 1163.2336,986.422 " fill="none" style="stroke:#181818;stroke-width:1.0;stroke-dasharray:7.0,7.0;"/><polygon fill="none" points="1158.8597,1002.051,1145.4908,988.5873,1140.0863,999.3013,1158.8597,1002.051" style="stroke:#181818;stroke-width:1.0;"/><path d="M932.5008,742.0109 C968.9717,801.1681 1031.339,894.3284 1100,962 C1116.7929,978.5509 1122.9948,983.9597 1142.7886,993.9443 " fill="none" style="stroke:#181818;stroke-width:1.0;stroke-dasharray:7.0,7.0;"/><!--SRC=[jLPDYzim4BthLwXxIcXYw3K4Gy4jvD0sT4klHRLLhzl4Df9s8RJxtpkMP7tOacr8aeljpDFepPiFwKtBI7ac-4GkpRF0_4m5gGb2BSd_a9BYeZcJgauUQSqRXlyY3B-g5fJz8Zd57qak6dRnhDtlBSuP9OAkllpyJNEH90bk2IFWd3A-tc6rGC9VaNpa9y8vFfpRq-ryMfuZPyfXISKXMvcrXsni_mmRM4JtDSPyQWfwEXBnr07DnnYdV7oxjDJTLNsFqHbzgNADxD_7gE_az2m9oXSbpG0bcaV1ghgKMyetBLAdKp3FoP6od89w9Jqsl19LKni5dMmjMnDtjj_3tvMufEb-_xLfH9hQ16tn3wwJ4aYFiNO92IR789Iy4R41TUxp5KeTs0ijVI09O6rDR3iSYrDcnYdZ66uL9xp18PeRF2QtmM5XrYXIYi7Qc6kFkTPOqXRBMsA-7VnMc4-4DtGiVwX8futSSjJfhfMglb2AWFMoKdPSUx8FPCE3NXpnEMJ09fCTTiW2LAfYaWW8fMbKnJeyzYOeJ2eugv9j2jW2Xl1W-qddAy3Zb-vj7HrZGUAUUAg09WJq6fpdh6ex7a55XyhgOjNgSi4ows0TMGcAzpMEHvlq0PWOJAyi2w2LKs6IkMr5JRjRCq5MTUq2gdqdBcCQgLcxjMdoIEtErB2Y22I7nrfH5EheibS2HVU3F83anU0rP8V80hRtPSbe2NUHxjGA0Pp-q6O0Z2ytIV8lzUzG0T33kmS0fl9vxOcxqtSeZj2rhYHttuaEuLhFNQ3RxKq2LlDgXvy8lnaj-UADcJlujoFWRkJbWNStx_UHnOmRvHlTf3pSIeP1aRWtwOKRE8fEUKFUqDbk0TcF6UJF5CUcqCZC8sdol8QwKC4S7fv_XBm27d8sf4mkemXRg568ILeKyHy0]--></g></svg>