<?xml version="1.0" encoding="us-ascii" standalone="no"?><svg xmlns="http://www.w3.org/2000/svg" xmlns:xlink="http://www.w3.org/1999/xlink" contentStyleType="text/css" height="460px" preserveAspectRatio="none" style="width:1451px;height:460px;background:#FFFFFF;" version="1.1" viewBox="0 0 1451 460" width="1451px" zoomAndPan="magnify"><defs/><g><!--cluster SmartHome--><g id="cluster_SmartHome"><path d="M16.5,4 L97.5,4 A3.75,3.75 0 0 1 100,6.5 L107,28.6211 L1441.5,28.6211 A2.5,2.5 0 0 1 1444,31.1211 L1444,450.5 A2.5,2.5 0 0 1 1441.5,453 L16.5,453 A2.5,2.5 0 0 1 14,450.5 L14,6.5 A2.5,2.5 0 0 1 16.5,4 " fill="none" style="stroke:#000000;stroke-width:1.5;"/><line style="stroke:#000000;stroke-width:1.5;" x1="14" x2="107" y1="28.6211" y2="28.6211"/><text fill="#000000" font-family="sans-serif" font-size="14" font-weight="bold" lengthAdjust="spacing" textLength="80" x="18" y="21.1074">SmartHome</text></g><!--cluster sensors--><g id="cluster_sensors"><path d="M24.5,33 L82.5,33 A3.75,3.75 0 0 1 85,35.5 L92,57.6211 L427.5,57.6211 A2.5,2.5 0 0 1 430,60.1211 L430,424 A2.5,2.5 0 0 1 427.5,426.5 L24.5,426.5 A2.5,2.5 0 0 1 22,424 L22,35.5 A2.5,2.5 0 0 1 24.5,33 " fill="none" style="stroke:#000000;stroke-width:1.5;"/><line style="stroke:#000000;stroke-width:1.5;" x1="22" x2="92" y1="57.6211" y2="57.6211"/><text fill="#000000" font-family="sans-serif" font-size="14" font-weight="bold" lengthAdjust="spacing" textLength="57" x="26" y="50.1074">sensors</text></g><!--cluster domain--><g id="cluster_domain"><path d="M440.5,267 L492.5,267 A3.75,3.75 0 0 1 495,269.5 L502,291.6211 L1433.5,291.6211 A2.5,2.5 0 0 1 1436,294.1211 L1436,442.5 A2.5,2.5 0 0 1 1433.5,445 L440.5,445 A2.5,2.5 0 0 1 438,442.5 L438,269.5 A2.5,2.5 0 0 1 440.5,267 " fill="none" style="stroke:#000000;stroke-width:1.5;"/><line style="stroke:#000000;stroke-width:1.5;" x1="438" x2="502" y1="291.6211" y2="291.6211"/><text fill="#000000" font-family="sans-serif" font-size="14" font-weight="bold" lengthAdjust="spacing" textLength="51" x="442" y="284.1074">domain</text></g><!--class PercentagePositionSensor--><g id="elem_PercentagePositionSensor"><rect codeLine="5" fill="#F1F1F1" height="159.7266" id="PercentagePositionSensor" rx="2.5" ry="2.5" style="stroke:#181818;stroke-width:0.5;" width="392" x="30" y="62"/><ellipse cx="137.75" cy="78" fill="#ADD1B2" rx="11" ry="11" style="stroke:#181818;stroke-width:1.0;"/><path d="M140.5156,73.875 Q140.6719,73.6563 140.8594,73.5469 Q141.0469,73.4375 141.2656,73.4375 Q141.6406,73.4375 141.875,73.7031 Q142.1094,73.9531 142.1094,74.5625 L142.1094,76.0156 Q142.1094,76.625 141.875,76.8906 Q141.6406,77.1563 141.2656,77.1563 Q140.9219,77.1563 140.7188,76.9531 Q140.5156,76.7656 140.4063,76.25 Q140.3594,75.8906 140.1719,75.7031 Q139.8438,75.3281 139.2344,75.1094 Q138.625,74.8906 138,74.8906 Q137.2344,74.8906 136.5938,75.2188 Q135.9688,75.5469 135.4688,76.2969 Q134.9844,77.0469 134.9844,78.0781 L134.9844,79.1719 Q134.9844,80.4063 135.875,81.2344 Q136.7656,82.0469 138.3594,82.0469 Q139.2969,82.0469 139.9531,81.7969 Q140.3438,81.6406 140.7656,81.2031 Q141.0313,80.9375 141.1719,80.8594 Q141.3281,80.7813 141.5313,80.7813 Q141.8594,80.7813 142.1094,81.0469 Q142.375,81.2969 142.375,81.6406 Q142.375,81.9844 142.0313,82.3906 Q141.5313,82.9688 140.7344,83.2969 Q139.6563,83.75 138.3594,83.75 Q136.8438,83.75 135.6406,83.125 Q134.6563,82.625 133.9688,81.5625 Q133.2813,80.4844 133.2813,79.2031 L133.2813,78.0469 Q133.2813,76.7188 133.8906,75.5781 Q134.5156,74.4219 135.6094,73.8125 Q136.7031,73.1875 137.9375,73.1875 Q138.6719,73.1875 139.3125,73.3594 Q139.9688,73.5156 140.5156,73.875 Z " fill="#000000"/><text fill="#000000" font-family="sans-serif" font-size="14" lengthAdjust="spacing" textLength="168" x="158.25" y="83.7969">PercentagePositionSensor</text><line style="stroke:#181818;stroke-width:0.5;" x1="31" x2="421" y1="94" y2="94"/><rect fill="none" height="6" style="stroke:#C82930;stroke-width:1.0;" width="6" x="38" y="105.8105"/><text fill="#000000" font-family="sans-serif" font-size="14" lengthAdjust="spacing" textLength="202" x="50" y="113.1074">final _sensorType : SensorType</text><rect fill="none" height="6" style="stroke:#C82930;stroke-width:1.0;" width="6" x="38" y="124.4316"/><text fill="#000000" font-family="sans-serif" font-size="14" lengthAdjust="spacing" textLength="258" x="50" y="131.7285">_value : PercentagePositionSensorValue</text><line style="stroke:#181818;stroke-width:0.5;" x1="31" x2="421" y1="139.2422" y2="139.2422"/><ellipse cx="41" cy="154.0527" fill="#84BE84" rx="3" ry="3" style="stroke:#038048;stroke-width:1.0;"/><text fill="#000000" font-family="sans-serif" font-size="14" lengthAdjust="spacing" textLength="366" x="50" y="158.3496">PercentagePositionSensor (catalogue : CatalogueSensor)</text><ellipse cx="41" cy="172.6738" fill="#84BE84" rx="3" ry="3" style="stroke:#038048;stroke-width:1.0;"/><text fill="#000000" font-family="sans-serif" font-size="14" lengthAdjust="spacing" textLength="294" x="50" y="176.9707">setSensorType (catalogue : CatalogueSensor)</text><ellipse cx="41" cy="191.2949" fill="#84BE84" rx="3" ry="3" style="stroke:#038048;stroke-width:1.0;"/><text fill="#000000" font-family="sans-serif" font-size="14" lengthAdjust="spacing" textLength="196" x="50" y="195.5918">getSensorType() : SensorType</text><ellipse cx="41" cy="209.916" fill="#84BE84" rx="3" ry="3" style="stroke:#038048;stroke-width:1.0;"/><text fill="#000000" font-family="sans-serif" font-size="14" lengthAdjust="spacing" textLength="114" x="50" y="214.2129">getValue() : Value</text></g><!--class PercentagePositionSensorValue--><g id="elem_PercentagePositionSensorValue"><rect codeLine="14" fill="#F1F1F1" height="103.8633" id="PercentagePositionSensorValue" rx="2.5" ry="2.5" style="stroke:#181818;stroke-width:0.5;" width="363" x="46.5" y="314.5"/><ellipse cx="121.75" cy="330.5" fill="#ADD1B2" rx="11" ry="11" style="stroke:#181818;stroke-width:1.0;"/><path d="M124.5156,326.375 Q124.6719,326.1563 124.8594,326.0469 Q125.0469,325.9375 125.2656,325.9375 Q125.6406,325.9375 125.875,326.2031 Q126.1094,326.4531 126.1094,327.0625 L126.1094,328.5156 Q126.1094,329.125 125.875,329.3906 Q125.6406,329.6563 125.2656,329.6563 Q124.9219,329.6563 124.7188,329.4531 Q124.5156,329.2656 124.4063,328.75 Q124.3594,328.3906 124.1719,328.2031 Q123.8438,327.8281 123.2344,327.6094 Q122.625,327.3906 122,327.3906 Q121.2344,327.3906 120.5938,327.7188 Q119.9688,328.0469 119.4688,328.7969 Q118.9844,329.5469 118.9844,330.5781 L118.9844,331.6719 Q118.9844,332.9063 119.875,333.7344 Q120.7656,334.5469 122.3594,334.5469 Q123.2969,334.5469 123.9531,334.2969 Q124.3438,334.1406 124.7656,333.7031 Q125.0313,333.4375 125.1719,333.3594 Q125.3281,333.2813 125.5313,333.2813 Q125.8594,333.2813 126.1094,333.5469 Q126.375,333.7969 126.375,334.1406 Q126.375,334.4844 126.0313,334.8906 Q125.5313,335.4688 124.7344,335.7969 Q123.6563,336.25 122.3594,336.25 Q120.8438,336.25 119.6406,335.625 Q118.6563,335.125 117.9688,334.0625 Q117.2813,332.9844 117.2813,331.7031 L117.2813,330.5469 Q117.2813,329.2188 117.8906,328.0781 Q118.5156,326.9219 119.6094,326.3125 Q120.7031,325.6875 121.9375,325.6875 Q122.6719,325.6875 123.3125,325.8594 Q123.9688,326.0156 124.5156,326.375 Z " fill="#000000"/><text fill="#000000" font-family="sans-serif" font-size="14" lengthAdjust="spacing" textLength="204" x="142.25" y="336.2969">PercentagePositionSensorValue</text><line style="stroke:#181818;stroke-width:0.5;" x1="47.5" x2="408.5" y1="346.5" y2="346.5"/><rect fill="none" height="6" style="stroke:#C82930;stroke-width:1.0;" width="6" x="54.5" y="358.3105"/><text fill="#000000" font-family="sans-serif" font-size="14" lengthAdjust="spacing" textLength="129" x="66.5" y="365.6074">_percented : Double</text><line style="stroke:#181818;stroke-width:0.5;" x1="47.5" x2="408.5" y1="373.1211" y2="373.1211"/><ellipse cx="57.5" cy="387.9316" fill="#84BE84" rx="3" ry="3" style="stroke:#038048;stroke-width:1.0;"/><text fill="#000000" font-family="sans-serif" font-size="14" lengthAdjust="spacing" textLength="337" x="66.5" y="392.2285">PercentagePositionSensorValue (percented : double)</text><ellipse cx="57.5" cy="406.5527" fill="#84BE84" rx="3" ry="3" style="stroke:#038048;stroke-width:1.0;"/><text fill="#000000" font-family="sans-serif" font-size="14" lengthAdjust="spacing" textLength="108" x="66.5" y="410.8496">toString() : String</text></g><!--class Value--><g id="elem_Value"><rect codeLine="37" fill="#F1F1F1" height="48" id="Value" rx="2.5" ry="2.5" style="stroke:#181818;stroke-width:0.5;" width="68" x="446" y="342.5"/><ellipse cx="461" cy="358.5" fill="#B4A7E5" rx="11" ry="11" style="stroke:#181818;stroke-width:1.0;"/><path d="M461.9531,355.1406 L461.9531,361.7969 L463.6719,361.7969 Q464.2813,361.7969 464.5469,362.0313 Q464.8125,362.2656 464.8125,362.6563 Q464.8125,363.0313 464.5469,363.2656 Q464.2813,363.5 463.6719,363.5 L458.5313,363.5 Q457.9219,363.5 457.6563,363.2656 Q457.3906,363.0313 457.3906,362.6406 Q457.3906,362.2656 457.6563,362.0313 Q457.9219,361.7969 458.5313,361.7969 L460.25,361.7969 L460.25,355.1406 L458.5313,355.1406 Q457.9219,355.1406 457.6563,354.9063 Q457.3906,354.6719 457.3906,354.2813 Q457.3906,353.9063 457.6563,353.6719 Q457.9219,353.4375 458.5313,353.4375 L463.6719,353.4375 Q464.2813,353.4375 464.5469,353.6719 Q464.8125,353.9063 464.8125,354.2813 Q464.8125,354.6719 464.5469,354.9063 Q464.2813,355.1406 463.6719,355.1406 L461.9531,355.1406 Z " fill="#000000"/><text fill="#000000" font-family="sans-serif" font-size="14" font-style="italic" lengthAdjust="spacing" textLength="36" x="475" y="364.2969">Value</text><line style="stroke:#181818;stroke-width:0.5;" x1="447" x2="513" y1="374.5" y2="374.5"/><line style="stroke:#181818;stroke-width:0.5;" x1="447" x2="513" y1="382.5" y2="382.5"/></g><!--class Sensor--><g id="elem_Sensor"><rect codeLine="24" fill="#F1F1F1" height="85.2422" id="Sensor" rx="2.5" ry="2.5" style="stroke:#181818;stroke-width:0.5;" width="222" x="532" y="324"/><ellipse cx="616.25" cy="340" fill="#B4A7E5" rx="11" ry="11" style="stroke:#181818;stroke-width:1.0;"/><path d="M617.2031,336.6406 L617.2031,343.2969 L618.9219,343.2969 Q619.5313,343.2969 619.7969,343.5313 Q620.0625,343.7656 620.0625,344.1563 Q620.0625,344.5313 619.7969,344.7656 Q619.5313,345 618.9219,345 L613.7813,345 Q613.1719,345 612.9063,344.7656 Q612.6406,344.5313 612.6406,344.1406 Q612.6406,343.7656 612.9063,343.5313 Q613.1719,343.2969 613.7813,343.2969 L615.5,343.2969 L615.5,336.6406 L613.7813,336.6406 Q613.1719,336.6406 612.9063,336.4063 Q612.6406,336.1719 612.6406,335.7813 Q612.6406,335.4063 612.9063,335.1719 Q613.1719,334.9375 613.7813,334.9375 L618.9219,334.9375 Q619.5313,334.9375 619.7969,335.1719 Q620.0625,335.4063 620.0625,335.7813 Q620.0625,336.1719 619.7969,336.4063 Q619.5313,336.6406 618.9219,336.6406 L617.2031,336.6406 Z " fill="#000000"/><text fill="#000000" font-family="sans-serif" font-size="14" font-style="italic" lengthAdjust="spacing" textLength="45" x="636.75" y="345.7969">Sensor</text><line style="stroke:#181818;stroke-width:0.5;" x1="533" x2="753" y1="356" y2="356"/><line style="stroke:#181818;stroke-width:0.5;" x1="533" x2="753" y1="364" y2="364"/><ellipse cx="543" cy="378.8105" fill="#84BE84" rx="3" ry="3" style="stroke:#038048;stroke-width:1.0;"/><text fill="#000000" font-family="sans-serif" font-size="14" lengthAdjust="spacing" textLength="196" x="552" y="383.1074">getSensorType() : SensorType</text><ellipse cx="543" cy="397.4316" fill="#84BE84" rx="3" ry="3" style="stroke:#038048;stroke-width:1.0;"/><text fill="#000000" font-family="sans-serif" font-size="14" lengthAdjust="spacing" textLength="114" x="552" y="401.7285">getValue() : Value</text></g><!--class SensorType--><g id="elem_SensorType"><rect codeLine="29" fill="#F1F1F1" height="141.1055" id="SensorType" rx="2.5" ry="2.5" style="stroke:#181818;stroke-width:0.5;" width="298" x="772" y="296"/><ellipse cx="878.25" cy="312" fill="#ADD1B2" rx="11" ry="11" style="stroke:#181818;stroke-width:1.0;"/><path d="M881.0156,307.875 Q881.1719,307.6563 881.3594,307.5469 Q881.5469,307.4375 881.7656,307.4375 Q882.1406,307.4375 882.375,307.7031 Q882.6094,307.9531 882.6094,308.5625 L882.6094,310.0156 Q882.6094,310.625 882.375,310.8906 Q882.1406,311.1563 881.7656,311.1563 Q881.4219,311.1563 881.2188,310.9531 Q881.0156,310.7656 880.9063,310.25 Q880.8594,309.8906 880.6719,309.7031 Q880.3438,309.3281 879.7344,309.1094 Q879.125,308.8906 878.5,308.8906 Q877.7344,308.8906 877.0938,309.2188 Q876.4688,309.5469 875.9688,310.2969 Q875.4844,311.0469 875.4844,312.0781 L875.4844,313.1719 Q875.4844,314.4063 876.375,315.2344 Q877.2656,316.0469 878.8594,316.0469 Q879.7969,316.0469 880.4531,315.7969 Q880.8438,315.6406 881.2656,315.2031 Q881.5313,314.9375 881.6719,314.8594 Q881.8281,314.7813 882.0313,314.7813 Q882.3594,314.7813 882.6094,315.0469 Q882.875,315.2969 882.875,315.6406 Q882.875,315.9844 882.5313,316.3906 Q882.0313,316.9688 881.2344,317.2969 Q880.1563,317.75 878.8594,317.75 Q877.3438,317.75 876.1406,317.125 Q875.1563,316.625 874.4688,315.5625 Q873.7813,314.4844 873.7813,313.2031 L873.7813,312.0469 Q873.7813,310.7188 874.3906,309.5781 Q875.0156,308.4219 876.1094,307.8125 Q877.2031,307.1875 878.4375,307.1875 Q879.1719,307.1875 879.8125,307.3594 Q880.4688,307.5156 881.0156,307.875 Z " fill="#000000"/><text fill="#000000" font-family="sans-serif" font-size="14" lengthAdjust="spacing" textLength="77" x="898.75" y="317.7969">SensorType</text><line style="stroke:#181818;stroke-width:0.5;" x1="773" x2="1069" y1="328" y2="328"/><rect fill="none" height="6" style="stroke:#C82930;stroke-width:1.0;" width="6" x="780" y="339.8105"/><text fill="#000000" font-family="sans-serif" font-size="14" lengthAdjust="spacing" textLength="126" x="792" y="347.1074">_description : String</text><rect fill="none" height="6" style="stroke:#C82930;stroke-width:1.0;" width="6" x="780" y="358.4316"/><text fill="#000000" font-family="sans-serif" font-size="14" lengthAdjust="spacing" textLength="67" x="792" y="365.7285">_unit : Unit</text><line style="stroke:#181818;stroke-width:0.5;" x1="773" x2="1069" y1="373.2422" y2="373.2422"/><polygon fill="#FFFF44" points="783,383.0527,787,387.0527,783,391.0527,779,387.0527" style="stroke:#B38D22;stroke-width:1.0;"/><text fill="#000000" font-family="sans-serif" font-size="14" lengthAdjust="spacing" textLength="272" x="792" y="392.3496">SensorType(description : String, unit : Unit)</text><ellipse cx="783" cy="406.6738" fill="#84BE84" rx="3" ry="3" style="stroke:#038048;stroke-width:1.0;"/><text fill="#000000" font-family="sans-serif" font-size="14" lengthAdjust="spacing" textLength="150" x="792" y="410.9707">getDescription() : String</text><ellipse cx="783" cy="425.2949" fill="#84BE84" rx="3" ry="3" style="stroke:#038048;stroke-width:1.0;"/><text fill="#000000" font-family="sans-serif" font-size="14" lengthAdjust="spacing" textLength="90" x="792" y="429.5918">getUnit() : Unit</text></g><!--class CatalogueSensor--><g id="elem_CatalogueSensor"><rect codeLine="40" fill="#F1F1F1" height="66.6211" id="CatalogueSensor" rx="2.5" ry="2.5" style="stroke:#181818;stroke-width:0.5;" width="340" x="1088" y="333"/><ellipse cx="1198.75" cy="349" fill="#ADD1B2" rx="11" ry="11" style="stroke:#181818;stroke-width:1.0;"/><path d="M1201.5156,344.875 Q1201.6719,344.6563 1201.8594,344.5469 Q1202.0469,344.4375 1202.2656,344.4375 Q1202.6406,344.4375 1202.875,344.7031 Q1203.1094,344.9531 1203.1094,345.5625 L1203.1094,347.0156 Q1203.1094,347.625 1202.875,347.8906 Q1202.6406,348.1563 1202.2656,348.1563 Q1201.9219,348.1563 1201.7188,347.9531 Q1201.5156,347.7656 1201.4063,347.25 Q1201.3594,346.8906 1201.1719,346.7031 Q1200.8438,346.3281 1200.2344,346.1094 Q1199.625,345.8906 1199,345.8906 Q1198.2344,345.8906 1197.5938,346.2188 Q1196.9688,346.5469 1196.4688,347.2969 Q1195.9844,348.0469 1195.9844,349.0781 L1195.9844,350.1719 Q1195.9844,351.4063 1196.875,352.2344 Q1197.7656,353.0469 1199.3594,353.0469 Q1200.2969,353.0469 1200.9531,352.7969 Q1201.3438,352.6406 1201.7656,352.2031 Q1202.0313,351.9375 1202.1719,351.8594 Q1202.3281,351.7813 1202.5313,351.7813 Q1202.8594,351.7813 1203.1094,352.0469 Q1203.375,352.2969 1203.375,352.6406 Q1203.375,352.9844 1203.0313,353.3906 Q1202.5313,353.9688 1201.7344,354.2969 Q1200.6563,354.75 1199.3594,354.75 Q1197.8438,354.75 1196.6406,354.125 Q1195.6563,353.625 1194.9688,352.5625 Q1194.2813,351.4844 1194.2813,350.2031 L1194.2813,349.0469 Q1194.2813,347.7188 1194.8906,346.5781 Q1195.5156,345.4219 1196.6094,344.8125 Q1197.7031,344.1875 1198.9375,344.1875 Q1199.6719,344.1875 1200.3125,344.3594 Q1200.9688,344.5156 1201.5156,344.875 Z " fill="#000000"/><text fill="#000000" font-family="sans-serif" font-size="14" lengthAdjust="spacing" textLength="110" x="1219.25" y="354.7969">CatalogueSensor</text><line style="stroke:#181818;stroke-width:0.5;" x1="1089" x2="1427" y1="365" y2="365"/><line style="stroke:#181818;stroke-width:0.5;" x1="1089" x2="1427" y1="373" y2="373"/><ellipse cx="1099" cy="387.8105" fill="#84BE84" rx="3" ry="3" style="stroke:#038048;stroke-width:1.0;"/><text fill="#000000" font-family="sans-serif" font-size="14" lengthAdjust="spacing" textLength="314" x="1108" y="392.1074">getSensorType(description : String) : SensorType</text></g><polygon fill="none" points="445.9083,366.5,427.9083,360.5,427.9083,372.5,445.9083,366.5" style="stroke:#181818;stroke-width:1.0;"/><path d="M427.9083,366.5 C415.8113,366.5 421.7142,366.5 409.6172,366.5 " fill="none" style="stroke:#181818;stroke-width:1.0;stroke-dasharray:7.0,7.0;"/><polygon fill="none" points="598.6272,323.8009,589.0238,307.4371,581.1262,316.4719,598.6272,323.8009" style="stroke:#181818;stroke-width:1.0;"/><path d="M422.1235,215.293 C456.6126,230.6796 491.5157,248.0669 523,267 C549.7939,283.1125 563.3923,293.0009 585.075,311.9545 " fill="none" style="stroke:#181818;stroke-width:1.0;stroke-dasharray:7.0,7.0;"/><polygon fill="#181818" points="820.3782,295.9854,814.6211,287.9944,816.0597,293.4653,810.5889,294.9039,820.3782,295.9854" style="stroke:#181818;stroke-width:1.0;"/><path d="M422.1627,172.2063 C526.0319,191.6342 654.2466,222.0167 763,267 C782.2662,274.969 796.6718,282.1511 815.196,292.9612 " fill="none" style="stroke:#181818;stroke-width:1.0;"/><text fill="#000000" font-family="sans-serif" font-size="13" lengthAdjust="spacing" textLength="32" x="736" y="255.0283">has a</text><text fill="#000000" font-family="sans-serif" font-size="13" lengthAdjust="spacing" textLength="7" x="812.3782" y="292.0137">1</text><text fill="#000000" font-family="sans-serif" font-size="13" lengthAdjust="spacing" textLength="7" x="423.1627" y="168.2346">1</text><polygon fill="#181818" points="227.5413,314.4671,231.4602,305.4315,227.4963,309.4673,223.4605,305.5034,227.5413,314.4671" style="stroke:#181818;stroke-width:1.0;"/><path d="M226.7108,222.0717 C226.987,252.799 227.2414,281.11 227.4873,308.4673 " fill="none" style="stroke:#181818;stroke-width:1.0;"/><text fill="#000000" font-family="sans-serif" font-size="13" lengthAdjust="spacing" textLength="49" x="228" y="255.0283">contains</text><text fill="#000000" font-family="sans-serif" font-size="13" lengthAdjust="spacing" textLength="7" x="219.5413" y="310.4954">1</text><text fill="#000000" font-family="sans-serif" font-size="13" lengthAdjust="spacing" textLength="7" x="218.7108" y="237.1">1</text><polygon fill="#181818" points="1210.0487,332.8852,1204.5924,324.6858,1205.8269,330.2064,1200.3064,331.4408,1210.0487,332.8852" style="stroke:#181818;stroke-width:1.0;"/><path d="M422.4284,151.6075 C598.3564,163.9568 861.3999,193.9931 1079,267 C1126.0799,282.7958 1170.1339,307.559 1204.9825,329.6706 " fill="none" style="stroke:#181818;stroke-width:1.0;stroke-dasharray:7.0,7.0;"/><text fill="#000000" font-family="sans-serif" font-size="13" lengthAdjust="spacing" textLength="28" x="1035" y="255.0283">uses</text><text fill="#000000" font-family="sans-serif" font-size="13" lengthAdjust="spacing" textLength="7" x="1202.0487" y="328.9135">1</text><text fill="#000000" font-family="sans-serif" font-size="13" lengthAdjust="spacing" textLength="7" x="423.4284" y="147.6358">1</text><polygon fill="none" points="473.4651,342.1501,473.6343,323.1772,462.2168,326.8703,473.4651,342.1501" style="stroke:#181818;stroke-width:1.0;"/><path d="M382.7575,222.0768 C401.3863,235.472 419.0572,250.4715 434,267 C453.7452,288.8404 460.9679,303.5132 467.9255,325.0238 " fill="none" style="stroke:#181818;stroke-width:1.0;stroke-dasharray:7.0,7.0;"/><!--SRC=[hLInReCm4DtvYckw4BLOwfeXIpDqZ4IRDReQXrerDiAcKjJoxpKs8Gw1Df7YnOPxz-xktTbtPOLvWI1mhse3kc069KPHYVGJSmPfWPLvKGKZcacjAWtVKGHsKO5QmvfLb4bZaMkbkU5AfWvcKT2j17PSee2j9tZTbmmMaFOV0N3xXQ9khLEqczRUEpnCXuyf6XGgTspFXxCtpWC2pSmnaukzyj0hde-Nus0kOOSufjvS8g230_2Y5Aom01rq8bC5Saay91HwMtesbjc0ArM_Yql4yZnnw9ivtx1aer9JSPdxQjtnK4mpDYq-nyEmSCjRxP0oE1kFcwePzF94bunfMl6ohVaq_SvUIswiuSrk_U_xW2qU8tY4m6qm7giZVgXOZsdTdB4FsmpL2bjyKkXWEF_GSopp4OsRjerdbvrCNZ0Wv6TvFfFUUXNHx6a6IR9q-mHVzsPye0Qy0VT_Vflk5QBA6hdKLuSaPAASOTiMK6kcRw2xI_aN]--></g></svg>