<?xml version="1.0" encoding="us-ascii" standalone="no"?><svg xmlns="http://www.w3.org/2000/svg" xmlns:xlink="http://www.w3.org/1999/xlink" contentStyleType="text/css" height="311px" preserveAspectRatio="none" style="width:809px;height:311px;background:#FFFFFF;" version="1.1" viewBox="0 0 809 311" width="809px" zoomAndPan="magnify"><defs/><g><rect fill="#FFFFFF" height="93.873" style="stroke:#181818;stroke-width:1.0;" width="10" x="17.5" y="116.9121"/><rect fill="#FFFFFF" height="93.873" style="stroke:#181818;stroke-width:1.0;" width="10" x="461.5" y="116.9121"/><line style="stroke:#181818;stroke-width:0.5;stroke-dasharray:5.0,5.0;" x1="22" x2="22" y1="83.6211" y2="228.7852"/><line style="stroke:#181818;stroke-width:0.5;stroke-dasharray:5.0,5.0;" x1="466.5" x2="466.5" y1="83.6211" y2="228.7852"/><line style="stroke:#181818;stroke-width:0.5;stroke-dasharray:5.0,5.0;" x1="794.5" x2="794.5" y1="83.6211" y2="228.7852"/><text fill="#000000" font-family="sans-serif" font-size="14" lengthAdjust="spacing" textLength="29" x="5" y="80.1074">User</text><ellipse cx="22.5" cy="13.5" fill="#E2E2F0" rx="8" ry="8" style="stroke:#181818;stroke-width:0.5;"/><path d="M22.5,21.5 L22.5,48.5 M9.5,29.5 L35.5,29.5 M22.5,48.5 L9.5,63.5 M22.5,48.5 L35.5,63.5 " fill="none" style="stroke:#181818;stroke-width:0.5;"/><text fill="#000000" font-family="sans-serif" font-size="14" lengthAdjust="spacing" textLength="29" x="5" y="242.8926">User</text><ellipse cx="22.5" cy="254.9063" fill="#E2E2F0" rx="8" ry="8" style="stroke:#181818;stroke-width:0.5;"/><path d="M22.5,262.9063 L22.5,289.9063 M9.5,270.9063 L35.5,270.9063 M22.5,289.9063 L9.5,304.9063 M22.5,289.9063 L35.5,304.9063 " fill="none" style="stroke:#181818;stroke-width:0.5;"/><rect fill="#E2E2F0" height="51.2422" rx="2.5" ry="2.5" style="stroke:#181818;stroke-width:0.5;" width="108" x="412.5" y="31.3789"/><text fill="#000000" font-family="sans-serif" font-size="14" font-style="italic" lengthAdjust="spacing" textLength="94" x="419.5" y="53.4863">&#171;System (C4)&#187;</text><text fill="#000000" font-family="sans-serif" font-size="14" lengthAdjust="spacing" textLength="73" x="430" y="72.1074">SmartHome</text><rect fill="#E2E2F0" height="51.2422" rx="2.5" ry="2.5" style="stroke:#181818;stroke-width:0.5;" width="108" x="412.5" y="227.7852"/><text fill="#000000" font-family="sans-serif" font-size="14" font-style="italic" lengthAdjust="spacing" textLength="94" x="419.5" y="249.8926">&#171;System (C4)&#187;</text><text fill="#000000" font-family="sans-serif" font-size="14" lengthAdjust="spacing" textLength="73" x="430" y="268.5137">SmartHome</text><rect fill="#E2E2F0" height="32.6211" rx="2.5" ry="2.5" style="stroke:#181818;stroke-width:0.5;" width="18" x="785.5" y="50"/><text fill="#000000" font-family="sans-serif" font-size="14" lengthAdjust="spacing" textLength="4" x="792.5" y="72.1074">&#160;</text><rect fill="#E2E2F0" height="32.6211" rx="2.5" ry="2.5" style="stroke:#181818;stroke-width:0.5;" width="18" x="785.5" y="227.7852"/><text fill="#000000" font-family="sans-serif" font-size="14" lengthAdjust="spacing" textLength="4" x="792.5" y="249.8926">&#160;</text><rect fill="#FFFFFF" height="93.873" style="stroke:#181818;stroke-width:1.0;" width="10" x="17.5" y="116.9121"/><rect fill="#FFFFFF" height="93.873" style="stroke:#181818;stroke-width:1.0;" width="10" x="461.5" y="116.9121"/><polygon fill="#181818" points="449.5,112.9121,459.5,116.9121,449.5,120.9121,453.5,116.9121" style="stroke:#181818;stroke-width:1.0;"/><line style="stroke:#181818;stroke-width:1.0;" x1="27.5" x2="455.5" y1="116.9121" y2="116.9121"/><text fill="#000000" font-family="sans-serif" font-size="13" font-weight="bold" lengthAdjust="spacing" textLength="7" x="34.5" y="111.6494">1</text><text fill="#000000" font-family="sans-serif" font-size="13" lengthAdjust="spacing" textLength="408" x="45.5" y="111.6494">I want to have today&#8217;s sunrise and sunset hours on the front/main page</text><ellipse cx="794" cy="147.4531" fill="none" rx="4" ry="4" style="stroke:#181818;stroke-width:1.5;"/><polygon fill="#181818" points="777,144.2031,787,148.2031,777,152.2031,781,148.2031" style="stroke:#181818;stroke-width:1.0;"/><line style="stroke:#181818;stroke-width:1.0;" x1="471.5" x2="783" y1="148.2031" y2="148.2031"/><text fill="#000000" font-family="sans-serif" font-size="13" font-weight="bold" lengthAdjust="spacing" textLength="7" x="478.5" y="142.9404">2</text><text fill="#000000" font-family="sans-serif" font-size="13" lengthAdjust="spacing" textLength="151" x="489.5" y="142.9404">GET /sunriseSunsetHours</text><polygon fill="#181818" points="482.5,175.4941,472.5,179.4941,482.5,183.4941,478.5,179.4941" style="stroke:#181818;stroke-width:1.0;"/><ellipse cx="794" cy="178.7441" fill="none" rx="4" ry="4" style="stroke:#181818;stroke-width:1.5;"/><line style="stroke:#181818;stroke-width:1.0;stroke-dasharray:2.0,2.0;" x1="476.5" x2="789.5" y1="179.4941" y2="179.4941"/><text fill="#000000" font-family="sans-serif" font-size="13" font-weight="bold" lengthAdjust="spacing" textLength="7" x="488.5" y="174.2314">3</text><text fill="#000000" font-family="sans-serif" font-size="13" lengthAdjust="spacing" textLength="288" x="499.5" y="174.2314">HTTP Status (Sunrise and sunset hours for today)</text><polygon fill="#181818" points="33.5,206.7852,23.5,210.7852,33.5,214.7852,29.5,210.7852" style="stroke:#181818;stroke-width:1.0;"/><line style="stroke:#181818;stroke-width:1.0;stroke-dasharray:2.0,2.0;" x1="27.5" x2="465.5" y1="210.7852" y2="210.7852"/><text fill="#000000" font-family="sans-serif" font-size="13" font-weight="bold" lengthAdjust="spacing" textLength="7" x="39.5" y="205.5225">4</text><text fill="#000000" font-family="sans-serif" font-size="13" lengthAdjust="spacing" textLength="399" x="50.5" y="205.5225">OK (Shows today&#8217;s sunrise and sunset hours on the front/main page)</text><!--SRC=[dL2zJiCm4Dxz54SNsY5aOOggI0WXMZ5GAU41ZkJQMAhju3ktoiPhy7ey2Kw2I8jWwUJpwVkzwqQavInDsprQ2MP_KpcJChq5iXKbjSQTHwEkMeyxWx37pWK1DYHeKIaCucmmh-GLLk8yp5wO_0oGeH-KQj6BhdGRnM5McFXREKC3uEUtN1OT2ncOtzykyloS0oCss58RkjkibUg58SadFcImXcEF5WSD7YY-DNQVxnyC7ApNJ82sxcScWSO5p-0iI4EmzSvAQb1RQ757VGjzGA59VLgDZIRR97SdmMAAnuSIqc_7OZ1RzLwHCw5SyYlwgYmtK0XAO9WN_yNTnjiEhHRgB48K6-wHmVDJf3Vko9UtNwYQ_ZZ0oN8yWL9V]--></g></svg>