<?xml version="1.0" encoding="us-ascii" standalone="no"?><svg xmlns="http://www.w3.org/2000/svg" xmlns:xlink="http://www.w3.org/1999/xlink" contentStyleType="text/css" height="259px" preserveAspectRatio="none" style="width:523px;height:259px;background:#FFFFFF;" version="1.1" viewBox="0 0 523 259" width="523px" zoomAndPan="magnify"><defs/><g><!--cluster actuator_type--><g id="cluster_actuator_type"><path d="M16.5,4 L113.5,4 A3.75,3.75 0 0 1 116,6.5 L123,28.6211 L513.5,28.6211 A2.5,2.5 0 0 1 516,31.1211 L516,249.5 A2.5,2.5 0 0 1 513.5,252 L16.5,252 A2.5,2.5 0 0 1 14,249.5 L14,6.5 A2.5,2.5 0 0 1 16.5,4 " fill="none" style="stroke:#000000;stroke-width:1.5;"/><line style="stroke:#000000;stroke-width:1.5;" x1="14" x2="123" y1="28.6211" y2="28.6211"/><text fill="#000000" font-family="sans-serif" font-size="14" font-weight="bold" lengthAdjust="spacing" textLength="96" x="18" y="21.1074">actuator_type</text></g><!--class ActuatorType--><g id="elem_ActuatorType"><rect codeLine="4" fill="#F1F1F1" height="76.543" id="ActuatorType" rx="2.5" ry="2.5" style="stroke:#181818;stroke-width:0.5;" width="117" x="227.5" y="33"/><ellipse cx="242.5" cy="63.2715" fill="#ADD1B2" rx="11" ry="11" style="stroke:#181818;stroke-width:1.0;"/><path d="M245.2656,59.1465 Q245.4219,58.9277 245.6094,58.8184 Q245.7969,58.709 246.0156,58.709 Q246.3906,58.709 246.625,58.9746 Q246.8594,59.2246 246.8594,59.834 L246.8594,61.2871 Q246.8594,61.8965 246.625,62.1621 Q246.3906,62.4277 246.0156,62.4277 Q245.6719,62.4277 245.4688,62.2246 Q245.2656,62.0371 245.1563,61.5215 Q245.1094,61.1621 244.9219,60.9746 Q244.5938,60.5996 243.9844,60.3809 Q243.375,60.1621 242.75,60.1621 Q241.9844,60.1621 241.3438,60.4902 Q240.7188,60.8184 240.2188,61.5684 Q239.7344,62.3184 239.7344,63.3496 L239.7344,64.4434 Q239.7344,65.6777 240.625,66.5059 Q241.5156,67.3184 243.1094,67.3184 Q244.0469,67.3184 244.7031,67.0684 Q245.0938,66.9121 245.5156,66.4746 Q245.7813,66.209 245.9219,66.1309 Q246.0781,66.0527 246.2813,66.0527 Q246.6094,66.0527 246.8594,66.3184 Q247.125,66.5684 247.125,66.9121 Q247.125,67.2559 246.7813,67.6621 Q246.2813,68.2402 245.4844,68.5684 Q244.4063,69.0215 243.1094,69.0215 Q241.5938,69.0215 240.3906,68.3965 Q239.4063,67.8965 238.7188,66.834 Q238.0313,65.7559 238.0313,64.4746 L238.0313,63.3184 Q238.0313,61.9902 238.6406,60.8496 Q239.2656,59.6934 240.3594,59.084 Q241.4531,58.459 242.6875,58.459 Q243.4219,58.459 244.0625,58.6309 Q244.7188,58.7871 245.2656,59.1465 Z " fill="#000000"/><text fill="#000000" font-family="sans-serif" font-size="12" font-style="italic" lengthAdjust="spacing" textLength="43" x="277.5" y="50.9492">&#171;entity&#187;</text><text fill="#000000" font-family="sans-serif" font-size="12" font-style="italic" lengthAdjust="spacing" textLength="40" x="279" y="66.9102">&#171;Root&#187;</text><text fill="#000000" font-family="sans-serif" font-size="14" lengthAdjust="spacing" textLength="85" x="256.5" y="85.0293">ActuatorType</text><line style="stroke:#181818;stroke-width:0.5;" x1="228.5" x2="343.5" y1="93.543" y2="93.543"/><line style="stroke:#181818;stroke-width:0.5;" x1="228.5" x2="343.5" y1="101.543" y2="101.543"/></g><!--class ActuatorDescription--><g id="elem_ActuatorDescription"><rect codeLine="7" fill="#F1F1F1" height="79.2031" id="ActuatorDescription" rx="2.5" ry="2.5" style="stroke:#181818;stroke-width:0.5;" width="156" x="22" y="165"/><ellipse cx="37" cy="187.291" fill="#ADD1B2" rx="11" ry="11" style="stroke:#181818;stroke-width:1.0;"/><path d="M39.7656,183.166 Q39.9219,182.9473 40.1094,182.8379 Q40.2969,182.7285 40.5156,182.7285 Q40.8906,182.7285 41.125,182.9941 Q41.3594,183.2441 41.3594,183.8535 L41.3594,185.3066 Q41.3594,185.916 41.125,186.1816 Q40.8906,186.4473 40.5156,186.4473 Q40.1719,186.4473 39.9688,186.2441 Q39.7656,186.0566 39.6563,185.541 Q39.6094,185.1816 39.4219,184.9941 Q39.0938,184.6191 38.4844,184.4004 Q37.875,184.1816 37.25,184.1816 Q36.4844,184.1816 35.8438,184.5098 Q35.2188,184.8379 34.7188,185.5879 Q34.2344,186.3379 34.2344,187.3691 L34.2344,188.4629 Q34.2344,189.6973 35.125,190.5254 Q36.0156,191.3379 37.6094,191.3379 Q38.5469,191.3379 39.2031,191.0879 Q39.5938,190.9316 40.0156,190.4941 Q40.2813,190.2285 40.4219,190.1504 Q40.5781,190.0723 40.7813,190.0723 Q41.1094,190.0723 41.3594,190.3379 Q41.625,190.5879 41.625,190.9316 Q41.625,191.2754 41.2813,191.6816 Q40.7813,192.2598 39.9844,192.5879 Q38.9063,193.041 37.6094,193.041 Q36.0938,193.041 34.8906,192.416 Q33.9063,191.916 33.2188,190.8535 Q32.5313,189.7754 32.5313,188.4941 L32.5313,187.3379 Q32.5313,186.0098 33.1406,184.8691 Q33.7656,183.7129 34.8594,183.1035 Q35.9531,182.4785 37.1875,182.4785 Q37.9219,182.4785 38.5625,182.6504 Q39.2188,182.8066 39.7656,183.166 Z " fill="#000000"/><text fill="#000000" font-family="sans-serif" font-size="12" font-style="italic" lengthAdjust="spacing" textLength="85" x="70.5" y="182.9492">&#171;Value Object&#187;</text><text fill="#000000" font-family="sans-serif" font-size="14" lengthAdjust="spacing" textLength="124" x="51" y="201.0684">ActuatorDescription</text><line style="stroke:#181818;stroke-width:0.5;" x1="23" x2="177" y1="209.582" y2="209.582"/><rect fill="none" height="6" style="stroke:#C82930;stroke-width:1.0;" width="6" x="30" y="221.3926"/><text fill="#000000" font-family="sans-serif" font-size="14" lengthAdjust="spacing" textLength="126" x="42" y="228.6895">_description : String</text><line style="stroke:#181818;stroke-width:0.5;" x1="23" x2="177" y1="236.2031" y2="236.2031"/></g><!--class ActuatorTypeID--><g id="elem_ActuatorTypeID"><rect codeLine="10" fill="#F1F1F1" height="79.2031" id="ActuatorTypeID" rx="2.5" ry="2.5" style="stroke:#181818;stroke-width:0.5;" width="180" x="196" y="165"/><ellipse cx="233.5" cy="187.291" fill="#ADD1B2" rx="11" ry="11" style="stroke:#181818;stroke-width:1.0;"/><path d="M236.2656,183.166 Q236.4219,182.9473 236.6094,182.8379 Q236.7969,182.7285 237.0156,182.7285 Q237.3906,182.7285 237.625,182.9941 Q237.8594,183.2441 237.8594,183.8535 L237.8594,185.3066 Q237.8594,185.916 237.625,186.1816 Q237.3906,186.4473 237.0156,186.4473 Q236.6719,186.4473 236.4688,186.2441 Q236.2656,186.0566 236.1563,185.541 Q236.1094,185.1816 235.9219,184.9941 Q235.5938,184.6191 234.9844,184.4004 Q234.375,184.1816 233.75,184.1816 Q232.9844,184.1816 232.3438,184.5098 Q231.7188,184.8379 231.2188,185.5879 Q230.7344,186.3379 230.7344,187.3691 L230.7344,188.4629 Q230.7344,189.6973 231.625,190.5254 Q232.5156,191.3379 234.1094,191.3379 Q235.0469,191.3379 235.7031,191.0879 Q236.0938,190.9316 236.5156,190.4941 Q236.7813,190.2285 236.9219,190.1504 Q237.0781,190.0723 237.2813,190.0723 Q237.6094,190.0723 237.8594,190.3379 Q238.125,190.5879 238.125,190.9316 Q238.125,191.2754 237.7813,191.6816 Q237.2813,192.2598 236.4844,192.5879 Q235.4063,193.041 234.1094,193.041 Q232.5938,193.041 231.3906,192.416 Q230.4063,191.916 229.7188,190.8535 Q229.0313,189.7754 229.0313,188.4941 L229.0313,187.3379 Q229.0313,186.0098 229.6406,184.8691 Q230.2656,183.7129 231.3594,183.1035 Q232.4531,182.4785 233.6875,182.4785 Q234.4219,182.4785 235.0625,182.6504 Q235.7188,182.8066 236.2656,183.166 Z " fill="#000000"/><text fill="#000000" font-family="sans-serif" font-size="12" font-style="italic" lengthAdjust="spacing" textLength="85" x="259" y="182.9492">&#171;Value Object&#187;</text><text fill="#000000" font-family="sans-serif" font-size="14" lengthAdjust="spacing" textLength="98" x="252.5" y="201.0684">ActuatorTypeID</text><line style="stroke:#181818;stroke-width:0.5;" x1="197" x2="375" y1="209.582" y2="209.582"/><rect fill="none" height="6" style="stroke:#C82930;stroke-width:1.0;" width="6" x="204" y="221.3926"/><text fill="#000000" font-family="sans-serif" font-size="14" lengthAdjust="spacing" textLength="154" x="216" y="228.6895">_actuatorTypeID : String</text><line style="stroke:#181818;stroke-width:0.5;" x1="197" x2="375" y1="236.2031" y2="236.2031"/></g><!--class UnitID--><g id="elem_UnitID"><rect codeLine="13" fill="#F1F1F1" height="79.2031" id="UnitID" rx="2.5" ry="2.5" style="stroke:#181818;stroke-width:0.5;" width="113" x="394.5" y="165"/><ellipse cx="409.5" cy="187.291" fill="#ADD1B2" rx="11" ry="11" style="stroke:#181818;stroke-width:1.0;"/><path d="M412.2656,183.166 Q412.4219,182.9473 412.6094,182.8379 Q412.7969,182.7285 413.0156,182.7285 Q413.3906,182.7285 413.625,182.9941 Q413.8594,183.2441 413.8594,183.8535 L413.8594,185.3066 Q413.8594,185.916 413.625,186.1816 Q413.3906,186.4473 413.0156,186.4473 Q412.6719,186.4473 412.4688,186.2441 Q412.2656,186.0566 412.1563,185.541 Q412.1094,185.1816 411.9219,184.9941 Q411.5938,184.6191 410.9844,184.4004 Q410.375,184.1816 409.75,184.1816 Q408.9844,184.1816 408.3438,184.5098 Q407.7188,184.8379 407.2188,185.5879 Q406.7344,186.3379 406.7344,187.3691 L406.7344,188.4629 Q406.7344,189.6973 407.625,190.5254 Q408.5156,191.3379 410.1094,191.3379 Q411.0469,191.3379 411.7031,191.0879 Q412.0938,190.9316 412.5156,190.4941 Q412.7813,190.2285 412.9219,190.1504 Q413.0781,190.0723 413.2813,190.0723 Q413.6094,190.0723 413.8594,190.3379 Q414.125,190.5879 414.125,190.9316 Q414.125,191.2754 413.7813,191.6816 Q413.2813,192.2598 412.4844,192.5879 Q411.4063,193.041 410.1094,193.041 Q408.5938,193.041 407.3906,192.416 Q406.4063,191.916 405.7188,190.8535 Q405.0313,189.7754 405.0313,188.4941 L405.0313,187.3379 Q405.0313,186.0098 405.6406,184.8691 Q406.2656,183.7129 407.3594,183.1035 Q408.4531,182.4785 409.6875,182.4785 Q410.4219,182.4785 411.0625,182.6504 Q411.7188,182.8066 412.2656,183.166 Z " fill="#000000"/><text fill="#000000" font-family="sans-serif" font-size="12" font-style="italic" lengthAdjust="spacing" textLength="85" x="421.5" y="182.9492">&#171;Value Object&#187;</text><text fill="#000000" font-family="sans-serif" font-size="14" lengthAdjust="spacing" textLength="37" x="445.5" y="201.0684">UnitID</text><line style="stroke:#181818;stroke-width:0.5;" x1="395.5" x2="506.5" y1="209.582" y2="209.582"/><rect fill="none" height="6" style="stroke:#C82930;stroke-width:1.0;" width="6" x="402.5" y="221.3926"/><text fill="#000000" font-family="sans-serif" font-size="14" lengthAdjust="spacing" textLength="68" x="414.5" y="228.6895">_id : String</text><line style="stroke:#181818;stroke-width:0.5;" x1="395.5" x2="506.5" y1="236.2031" y2="236.2031"/></g><path d="M232.6999,110.0393 C208.3317,127.2019 179.4867,147.5174 154.9246,164.8165 " fill="none" style="stroke:#181818;stroke-width:1.0;"/><text fill="#000000" font-family="sans-serif" font-size="13" lengthAdjust="spacing" textLength="21" x="205" y="143.0283">has</text><text fill="#000000" font-family="sans-serif" font-size="13" lengthAdjust="spacing" textLength="7" x="146.9246" y="160.8448">1</text><path d="M286,110.0393 C286,127.1263 286,147.3385 286,164.5877 " fill="none" style="stroke:#181818;stroke-width:1.0;"/><text fill="#000000" font-family="sans-serif" font-size="13" lengthAdjust="spacing" textLength="21" x="287" y="143.0283">has</text><text fill="#000000" font-family="sans-serif" font-size="13" lengthAdjust="spacing" textLength="7" x="278" y="160.616">1</text><path d="M333.2824,110.0393 C354.8993,127.2019 380.4876,147.5174 402.2765,164.8165 " fill="none" style="stroke:#181818;stroke-width:1.0;"/><text fill="#000000" font-family="sans-serif" font-size="13" lengthAdjust="spacing" textLength="21" x="379" y="143.0283">has</text><text fill="#000000" font-family="sans-serif" font-size="13" lengthAdjust="spacing" textLength="7" x="403.2765" y="160.8448">1</text><!--SRC=[VOy_3u8m4CNtVegJdS7LD4rCM9nC_BUIipHOXRPfZu4OlhjD88eYtFZkzzwzMpcFPOrGOMiRWb0hGeECEPGFB1MWf0R9-fnQf-39P8KXm7PGJr7aN1dIr0h1-S5Q4Y9Y7ViXCnMaruwqDPnVi6eKxAzt9NiSugIG5ny8Dd0ahqqPewOtTzby27vnqvopqRJaryNOmyPdupw5P9ty-ogQRXYMyNUbMR8lDn0TUm40]--></g></svg>