<?xml version="1.0" encoding="us-ascii" standalone="no"?><svg xmlns="http://www.w3.org/2000/svg" xmlns:xlink="http://www.w3.org/1999/xlink" contentStyleType="text/css" height="275px" preserveAspectRatio="none" style="width:820px;height:275px;background:#FFFFFF;" version="1.1" viewBox="0 0 820 275" width="820px" zoomAndPan="magnify"><defs/><g><!--cluster actuator--><g id="cluster_actuator"><path d="M16.5,4 L75.5,4 A3.75,3.75 0 0 1 78,6.5 L85,28.6211 L810.5,28.6211 A2.5,2.5 0 0 1 813,31.1211 L813,265.5 A2.5,2.5 0 0 1 810.5,268 L16.5,268 A2.5,2.5 0 0 1 14,265.5 L14,6.5 A2.5,2.5 0 0 1 16.5,4 " fill="none" style="stroke:#000000;stroke-width:1.5;"/><line style="stroke:#000000;stroke-width:1.5;" x1="14" x2="85" y1="28.6211" y2="28.6211"/><text fill="#000000" font-family="sans-serif" font-size="14" font-weight="bold" lengthAdjust="spacing" textLength="58" x="18" y="21.1074">actuator</text></g><!--class Actuator--><g id="elem_Actuator"><rect codeLine="6" fill="#F1F1F1" height="76.543" id="Actuator" rx="2.5" ry="2.5" style="stroke:#181818;stroke-width:0.5;" width="85" x="361.5" y="33"/><ellipse cx="376.5" cy="63.2715" fill="#ADD1B2" rx="11" ry="11" style="stroke:#181818;stroke-width:1.0;"/><path d="M379.2656,59.1465 Q379.4219,58.9277 379.6094,58.8184 Q379.7969,58.709 380.0156,58.709 Q380.3906,58.709 380.625,58.9746 Q380.8594,59.2246 380.8594,59.834 L380.8594,61.2871 Q380.8594,61.8965 380.625,62.1621 Q380.3906,62.4277 380.0156,62.4277 Q379.6719,62.4277 379.4688,62.2246 Q379.2656,62.0371 379.1563,61.5215 Q379.1094,61.1621 378.9219,60.9746 Q378.5938,60.5996 377.9844,60.3809 Q377.375,60.1621 376.75,60.1621 Q375.9844,60.1621 375.3438,60.4902 Q374.7188,60.8184 374.2188,61.5684 Q373.7344,62.3184 373.7344,63.3496 L373.7344,64.4434 Q373.7344,65.6777 374.625,66.5059 Q375.5156,67.3184 377.1094,67.3184 Q378.0469,67.3184 378.7031,67.0684 Q379.0938,66.9121 379.5156,66.4746 Q379.7813,66.209 379.9219,66.1309 Q380.0781,66.0527 380.2813,66.0527 Q380.6094,66.0527 380.8594,66.3184 Q381.125,66.5684 381.125,66.9121 Q381.125,67.2559 380.7813,67.6621 Q380.2813,68.2402 379.4844,68.5684 Q378.4063,69.0215 377.1094,69.0215 Q375.5938,69.0215 374.3906,68.3965 Q373.4063,67.8965 372.7188,66.834 Q372.0313,65.7559 372.0313,64.4746 L372.0313,63.3184 Q372.0313,61.9902 372.6406,60.8496 Q373.2656,59.6934 374.3594,59.084 Q375.4531,58.459 376.6875,58.459 Q377.4219,58.459 378.0625,58.6309 Q378.7188,58.7871 379.2656,59.1465 Z " fill="#000000"/><text fill="#000000" font-family="sans-serif" font-size="12" font-style="italic" lengthAdjust="spacing" textLength="44" x="395" y="50.9492">&#171;Entity&#187;</text><text fill="#000000" font-family="sans-serif" font-size="12" font-style="italic" lengthAdjust="spacing" textLength="40" x="397" y="66.9102">&#171;Root&#187;</text><text fill="#000000" font-family="sans-serif" font-size="14" lengthAdjust="spacing" textLength="53" x="390.5" y="85.0293">Actuator</text><line style="stroke:#181818;stroke-width:0.5;" x1="362.5" x2="445.5" y1="93.543" y2="93.543"/><line style="stroke:#181818;stroke-width:0.5;" x1="362.5" x2="445.5" y1="101.543" y2="101.543"/></g><!--class DeviceID--><g id="elem_DeviceID"><rect codeLine="8" fill="#F1F1F1" height="95.1641" id="DeviceID" rx="2.5" ry="2.5" style="stroke:#181818;stroke-width:0.5;" width="110" x="22" y="165"/><ellipse cx="37" cy="195.2715" fill="#ADD1B2" rx="11" ry="11" style="stroke:#181818;stroke-width:1.0;"/><path d="M39.7656,191.1465 Q39.9219,190.9277 40.1094,190.8184 Q40.2969,190.709 40.5156,190.709 Q40.8906,190.709 41.125,190.9746 Q41.3594,191.2246 41.3594,191.834 L41.3594,193.2871 Q41.3594,193.8965 41.125,194.1621 Q40.8906,194.4277 40.5156,194.4277 Q40.1719,194.4277 39.9688,194.2246 Q39.7656,194.0371 39.6563,193.5215 Q39.6094,193.1621 39.4219,192.9746 Q39.0938,192.5996 38.4844,192.3809 Q37.875,192.1621 37.25,192.1621 Q36.4844,192.1621 35.8438,192.4902 Q35.2188,192.8184 34.7188,193.5684 Q34.2344,194.3184 34.2344,195.3496 L34.2344,196.4434 Q34.2344,197.6777 35.125,198.5059 Q36.0156,199.3184 37.6094,199.3184 Q38.5469,199.3184 39.2031,199.0684 Q39.5938,198.9121 40.0156,198.4746 Q40.2813,198.209 40.4219,198.1309 Q40.5781,198.0527 40.7813,198.0527 Q41.1094,198.0527 41.3594,198.3184 Q41.625,198.5684 41.625,198.9121 Q41.625,199.2559 41.2813,199.6621 Q40.7813,200.2402 39.9844,200.5684 Q38.9063,201.0215 37.6094,201.0215 Q36.0938,201.0215 34.8906,200.3965 Q33.9063,199.8965 33.2188,198.834 Q32.5313,197.7559 32.5313,196.4746 L32.5313,195.3184 Q32.5313,193.9902 33.1406,192.8496 Q33.7656,191.6934 34.8594,191.084 Q35.9531,190.459 37.1875,190.459 Q37.9219,190.459 38.5625,190.6309 Q39.2188,190.7871 39.7656,191.1465 Z " fill="#000000"/><text fill="#000000" font-family="sans-serif" font-size="12" font-style="italic" lengthAdjust="spacing" textLength="82" x="49" y="182.9492">&#171;ValueObject&#187;</text><text fill="#000000" font-family="sans-serif" font-size="12" font-style="italic" lengthAdjust="spacing" textLength="27" x="76.5" y="198.9102">&#171;ID&#187;</text><text fill="#000000" font-family="sans-serif" font-size="14" lengthAdjust="spacing" textLength="56" x="62" y="217.0293">DeviceID</text><line style="stroke:#181818;stroke-width:0.5;" x1="23" x2="131" y1="225.543" y2="225.543"/><rect fill="none" height="6" style="stroke:#C82930;stroke-width:1.0;" width="6" x="30" y="237.3535"/><text fill="#000000" font-family="sans-serif" font-size="14" lengthAdjust="spacing" textLength="68" x="42" y="244.6504">_id : String</text><line style="stroke:#181818;stroke-width:0.5;" x1="23" x2="131" y1="252.1641" y2="252.1641"/></g><!--class ActuatorTypeID--><g id="elem_ActuatorTypeID"><rect codeLine="12" fill="#F1F1F1" height="95.1641" id="ActuatorTypeID" rx="2.5" ry="2.5" style="stroke:#181818;stroke-width:0.5;" width="130" x="150" y="165"/><ellipse cx="165" cy="195.2715" fill="#ADD1B2" rx="11" ry="11" style="stroke:#181818;stroke-width:1.0;"/><path d="M167.7656,191.1465 Q167.9219,190.9277 168.1094,190.8184 Q168.2969,190.709 168.5156,190.709 Q168.8906,190.709 169.125,190.9746 Q169.3594,191.2246 169.3594,191.834 L169.3594,193.2871 Q169.3594,193.8965 169.125,194.1621 Q168.8906,194.4277 168.5156,194.4277 Q168.1719,194.4277 167.9688,194.2246 Q167.7656,194.0371 167.6563,193.5215 Q167.6094,193.1621 167.4219,192.9746 Q167.0938,192.5996 166.4844,192.3809 Q165.875,192.1621 165.25,192.1621 Q164.4844,192.1621 163.8438,192.4902 Q163.2188,192.8184 162.7188,193.5684 Q162.2344,194.3184 162.2344,195.3496 L162.2344,196.4434 Q162.2344,197.6777 163.125,198.5059 Q164.0156,199.3184 165.6094,199.3184 Q166.5469,199.3184 167.2031,199.0684 Q167.5938,198.9121 168.0156,198.4746 Q168.2813,198.209 168.4219,198.1309 Q168.5781,198.0527 168.7813,198.0527 Q169.1094,198.0527 169.3594,198.3184 Q169.625,198.5684 169.625,198.9121 Q169.625,199.2559 169.2813,199.6621 Q168.7813,200.2402 167.9844,200.5684 Q166.9063,201.0215 165.6094,201.0215 Q164.0938,201.0215 162.8906,200.3965 Q161.9063,199.8965 161.2188,198.834 Q160.5313,197.7559 160.5313,196.4746 L160.5313,195.3184 Q160.5313,193.9902 161.1406,192.8496 Q161.7656,191.6934 162.8594,191.084 Q163.9531,190.459 165.1875,190.459 Q165.9219,190.459 166.5625,190.6309 Q167.2188,190.7871 167.7656,191.1465 Z " fill="#000000"/><text fill="#000000" font-family="sans-serif" font-size="12" font-style="italic" lengthAdjust="spacing" textLength="82" x="187" y="182.9492">&#171;ValueObject&#187;</text><text fill="#000000" font-family="sans-serif" font-size="12" font-style="italic" lengthAdjust="spacing" textLength="27" x="214.5" y="198.9102">&#171;ID&#187;</text><text fill="#000000" font-family="sans-serif" font-size="14" lengthAdjust="spacing" textLength="98" x="179" y="217.0293">ActuatorTypeID</text><line style="stroke:#181818;stroke-width:0.5;" x1="151" x2="279" y1="225.543" y2="225.543"/><rect fill="none" height="6" style="stroke:#C82930;stroke-width:1.0;" width="6" x="158" y="237.3535"/><text fill="#000000" font-family="sans-serif" font-size="14" lengthAdjust="spacing" textLength="68" x="170" y="244.6504">_id : String</text><line style="stroke:#181818;stroke-width:0.5;" x1="151" x2="279" y1="252.1641" y2="252.1641"/></g><!--class ActuatorName--><g id="elem_ActuatorName"><rect codeLine="16" fill="#F1F1F1" height="79.2031" id="ActuatorName" rx="2.5" ry="2.5" style="stroke:#181818;stroke-width:0.5;" width="121" x="298.5" y="173"/><ellipse cx="313.5" cy="195.291" fill="#ADD1B2" rx="11" ry="11" style="stroke:#181818;stroke-width:1.0;"/><path d="M316.2656,191.166 Q316.4219,190.9473 316.6094,190.8379 Q316.7969,190.7285 317.0156,190.7285 Q317.3906,190.7285 317.625,190.9941 Q317.8594,191.2441 317.8594,191.8535 L317.8594,193.3066 Q317.8594,193.916 317.625,194.1816 Q317.3906,194.4473 317.0156,194.4473 Q316.6719,194.4473 316.4688,194.2441 Q316.2656,194.0566 316.1563,193.541 Q316.1094,193.1816 315.9219,192.9941 Q315.5938,192.6191 314.9844,192.4004 Q314.375,192.1816 313.75,192.1816 Q312.9844,192.1816 312.3438,192.5098 Q311.7188,192.8379 311.2188,193.5879 Q310.7344,194.3379 310.7344,195.3691 L310.7344,196.4629 Q310.7344,197.6973 311.625,198.5254 Q312.5156,199.3379 314.1094,199.3379 Q315.0469,199.3379 315.7031,199.0879 Q316.0938,198.9316 316.5156,198.4941 Q316.7813,198.2285 316.9219,198.1504 Q317.0781,198.0723 317.2813,198.0723 Q317.6094,198.0723 317.8594,198.3379 Q318.125,198.5879 318.125,198.9316 Q318.125,199.2754 317.7813,199.6816 Q317.2813,200.2598 316.4844,200.5879 Q315.4063,201.041 314.1094,201.041 Q312.5938,201.041 311.3906,200.416 Q310.4063,199.916 309.7188,198.8535 Q309.0313,197.7754 309.0313,196.4941 L309.0313,195.3379 Q309.0313,194.0098 309.6406,192.8691 Q310.2656,191.7129 311.3594,191.1035 Q312.4531,190.4785 313.6875,190.4785 Q314.4219,190.4785 315.0625,190.6504 Q315.7188,190.8066 316.2656,191.166 Z " fill="#000000"/><text fill="#000000" font-family="sans-serif" font-size="12" font-style="italic" lengthAdjust="spacing" textLength="82" x="331" y="190.9492">&#171;ValueObject&#187;</text><text fill="#000000" font-family="sans-serif" font-size="14" lengthAdjust="spacing" textLength="89" x="327.5" y="209.0684">ActuatorName</text><line style="stroke:#181818;stroke-width:0.5;" x1="299.5" x2="418.5" y1="217.582" y2="217.582"/><rect fill="none" height="6" style="stroke:#C82930;stroke-width:1.0;" width="6" x="306.5" y="229.3926"/><text fill="#000000" font-family="sans-serif" font-size="14" lengthAdjust="spacing" textLength="92" x="318.5" y="236.6895">_name : String</text><line style="stroke:#181818;stroke-width:0.5;" x1="299.5" x2="418.5" y1="244.2031" y2="244.2031"/></g><!--class ModelPath--><g id="elem_ModelPath"><rect codeLine="20" fill="#F1F1F1" height="79.2031" id="ModelPath" rx="2.5" ry="2.5" style="stroke:#181818;stroke-width:0.5;" width="111" x="437.5" y="173"/><ellipse cx="452.95" cy="195.291" fill="#ADD1B2" rx="11" ry="11" style="stroke:#181818;stroke-width:1.0;"/><path d="M455.7156,191.166 Q455.8719,190.9473 456.0594,190.8379 Q456.2469,190.7285 456.4656,190.7285 Q456.8406,190.7285 457.075,190.9941 Q457.3094,191.2441 457.3094,191.8535 L457.3094,193.3066 Q457.3094,193.916 457.075,194.1816 Q456.8406,194.4473 456.4656,194.4473 Q456.1219,194.4473 455.9188,194.2441 Q455.7156,194.0566 455.6063,193.541 Q455.5594,193.1816 455.3719,192.9941 Q455.0438,192.6191 454.4344,192.4004 Q453.825,192.1816 453.2,192.1816 Q452.4344,192.1816 451.7938,192.5098 Q451.1688,192.8379 450.6688,193.5879 Q450.1844,194.3379 450.1844,195.3691 L450.1844,196.4629 Q450.1844,197.6973 451.075,198.5254 Q451.9656,199.3379 453.5594,199.3379 Q454.4969,199.3379 455.1531,199.0879 Q455.5438,198.9316 455.9656,198.4941 Q456.2313,198.2285 456.3719,198.1504 Q456.5281,198.0723 456.7313,198.0723 Q457.0594,198.0723 457.3094,198.3379 Q457.575,198.5879 457.575,198.9316 Q457.575,199.2754 457.2313,199.6816 Q456.7313,200.2598 455.9344,200.5879 Q454.8563,201.041 453.5594,201.041 Q452.0438,201.041 450.8406,200.416 Q449.8563,199.916 449.1688,198.8535 Q448.4813,197.7754 448.4813,196.4941 L448.4813,195.3379 Q448.4813,194.0098 449.0906,192.8691 Q449.7156,191.7129 450.8094,191.1035 Q451.9031,190.4785 453.1375,190.4785 Q453.8719,190.4785 454.5125,190.6504 Q455.1688,190.8066 455.7156,191.166 Z " fill="#000000"/><text fill="#000000" font-family="sans-serif" font-size="12" font-style="italic" lengthAdjust="spacing" textLength="82" x="465.05" y="190.9492">&#171;ValueObject&#187;</text><text fill="#000000" font-family="sans-serif" font-size="14" lengthAdjust="spacing" textLength="67" x="472.55" y="209.0684">ModelPath</text><line style="stroke:#181818;stroke-width:0.5;" x1="438.5" x2="547.5" y1="217.582" y2="217.582"/><rect fill="none" height="6" style="stroke:#C82930;stroke-width:1.0;" width="6" x="445.5" y="229.3926"/><text fill="#000000" font-family="sans-serif" font-size="14" lengthAdjust="spacing" textLength="85" x="457.5" y="236.6895">_path : String</text><line style="stroke:#181818;stroke-width:0.5;" x1="438.5" x2="547.5" y1="244.2031" y2="244.2031"/></g><!--class Value--><g id="elem_Value"><rect codeLine="24" fill="#F1F1F1" height="60.582" id="Value" rx="2.5" ry="2.5" style="stroke:#181818;stroke-width:0.5;" width="110" x="567" y="182"/><ellipse cx="582" cy="204.291" fill="#ADD1B2" rx="11" ry="11" style="stroke:#181818;stroke-width:1.0;"/><path d="M584.7656,200.166 Q584.9219,199.9473 585.1094,199.8379 Q585.2969,199.7285 585.5156,199.7285 Q585.8906,199.7285 586.125,199.9941 Q586.3594,200.2441 586.3594,200.8535 L586.3594,202.3066 Q586.3594,202.916 586.125,203.1816 Q585.8906,203.4473 585.5156,203.4473 Q585.1719,203.4473 584.9688,203.2441 Q584.7656,203.0566 584.6563,202.541 Q584.6094,202.1816 584.4219,201.9941 Q584.0938,201.6191 583.4844,201.4004 Q582.875,201.1816 582.25,201.1816 Q581.4844,201.1816 580.8438,201.5098 Q580.2188,201.8379 579.7188,202.5879 Q579.2344,203.3379 579.2344,204.3691 L579.2344,205.4629 Q579.2344,206.6973 580.125,207.5254 Q581.0156,208.3379 582.6094,208.3379 Q583.5469,208.3379 584.2031,208.0879 Q584.5938,207.9316 585.0156,207.4941 Q585.2813,207.2285 585.4219,207.1504 Q585.5781,207.0723 585.7813,207.0723 Q586.1094,207.0723 586.3594,207.3379 Q586.625,207.5879 586.625,207.9316 Q586.625,208.2754 586.2813,208.6816 Q585.7813,209.2598 584.9844,209.5879 Q583.9063,210.041 582.6094,210.041 Q581.0938,210.041 579.8906,209.416 Q578.9063,208.916 578.2188,207.8535 Q577.5313,206.7754 577.5313,205.4941 L577.5313,204.3379 Q577.5313,203.0098 578.1406,201.8691 Q578.7656,200.7129 579.8594,200.1035 Q580.9531,199.4785 582.1875,199.4785 Q582.9219,199.4785 583.5625,199.6504 Q584.2188,199.8066 584.7656,200.166 Z " fill="#000000"/><text fill="#000000" font-family="sans-serif" font-size="12" font-style="italic" lengthAdjust="spacing" textLength="82" x="594" y="199.9492">&#171;ValueObject&#187;</text><text fill="#000000" font-family="sans-serif" font-size="14" lengthAdjust="spacing" textLength="36" x="617" y="218.0684">Value</text><line style="stroke:#181818;stroke-width:0.5;" x1="568" x2="676" y1="226.582" y2="226.582"/><line style="stroke:#181818;stroke-width:0.5;" x1="568" x2="676" y1="234.582" y2="234.582"/></g><!--class ActuatorID--><g id="elem_ActuatorID"><rect codeLine="27" fill="#F1F1F1" height="95.1641" id="ActuatorID" rx="2.5" ry="2.5" style="stroke:#181818;stroke-width:0.5;" width="110" x="695" y="165"/><ellipse cx="710" cy="195.2715" fill="#ADD1B2" rx="11" ry="11" style="stroke:#181818;stroke-width:1.0;"/><path d="M712.7656,191.1465 Q712.9219,190.9277 713.1094,190.8184 Q713.2969,190.709 713.5156,190.709 Q713.8906,190.709 714.125,190.9746 Q714.3594,191.2246 714.3594,191.834 L714.3594,193.2871 Q714.3594,193.8965 714.125,194.1621 Q713.8906,194.4277 713.5156,194.4277 Q713.1719,194.4277 712.9688,194.2246 Q712.7656,194.0371 712.6563,193.5215 Q712.6094,193.1621 712.4219,192.9746 Q712.0938,192.5996 711.4844,192.3809 Q710.875,192.1621 710.25,192.1621 Q709.4844,192.1621 708.8438,192.4902 Q708.2188,192.8184 707.7188,193.5684 Q707.2344,194.3184 707.2344,195.3496 L707.2344,196.4434 Q707.2344,197.6777 708.125,198.5059 Q709.0156,199.3184 710.6094,199.3184 Q711.5469,199.3184 712.2031,199.0684 Q712.5938,198.9121 713.0156,198.4746 Q713.2813,198.209 713.4219,198.1309 Q713.5781,198.0527 713.7813,198.0527 Q714.1094,198.0527 714.3594,198.3184 Q714.625,198.5684 714.625,198.9121 Q714.625,199.2559 714.2813,199.6621 Q713.7813,200.2402 712.9844,200.5684 Q711.9063,201.0215 710.6094,201.0215 Q709.0938,201.0215 707.8906,200.3965 Q706.9063,199.8965 706.2188,198.834 Q705.5313,197.7559 705.5313,196.4746 L705.5313,195.3184 Q705.5313,193.9902 706.1406,192.8496 Q706.7656,191.6934 707.8594,191.084 Q708.9531,190.459 710.1875,190.459 Q710.9219,190.459 711.5625,190.6309 Q712.2188,190.7871 712.7656,191.1465 Z " fill="#000000"/><text fill="#000000" font-family="sans-serif" font-size="12" font-style="italic" lengthAdjust="spacing" textLength="82" x="722" y="182.9492">&#171;ValueObject&#187;</text><text fill="#000000" font-family="sans-serif" font-size="12" font-style="italic" lengthAdjust="spacing" textLength="27" x="749.5" y="198.9102">&#171;ID&#187;</text><text fill="#000000" font-family="sans-serif" font-size="14" lengthAdjust="spacing" textLength="66" x="730" y="217.0293">ActuatorID</text><line style="stroke:#181818;stroke-width:0.5;" x1="696" x2="804" y1="225.543" y2="225.543"/><rect fill="none" height="6" style="stroke:#C82930;stroke-width:1.0;" width="6" x="703" y="237.3535"/><text fill="#000000" font-family="sans-serif" font-size="14" lengthAdjust="spacing" textLength="68" x="715" y="244.6504">_id : String</text><line style="stroke:#181818;stroke-width:0.5;" x1="696" x2="804" y1="252.1641" y2="252.1641"/></g><path d="M361.113,104.0413 C336.7167,121.9835 305.7002,144.7945 278.5258,164.7799 " fill="none" style="stroke:#181818;stroke-width:1.0;"/><text fill="#000000" font-family="sans-serif" font-size="13" lengthAdjust="spacing" textLength="21" x="327" y="143.0283">has</text><text fill="#000000" font-family="sans-serif" font-size="13" lengthAdjust="spacing" textLength="7" x="270.5258" y="160.8083">1</text><path d="M446.777,96.8437 C478.0298,114.9534 521.1976,140.6448 558,165 C566.0173,170.3057 574.4353,176.1866 582.4354,181.9314 " fill="none" style="stroke:#181818;stroke-width:1.0;"/><text fill="#000000" font-family="sans-serif" font-size="13" lengthAdjust="spacing" textLength="21" x="530" y="143.0283">has</text><text fill="#000000" font-family="sans-serif" font-size="13" lengthAdjust="spacing" textLength="7" x="574.4354" y="177.9597">1</text><path d="M361.4444,83.3467 C308.0991,97.8575 214.7169,126.3157 141,165 C138.0813,166.5317 135.1473,168.1848 132.2266,169.9233 " fill="none" style="stroke:#181818;stroke-width:1.0;"/><text fill="#000000" font-family="sans-serif" font-size="13" lengthAdjust="spacing" textLength="21" x="219" y="143.0283">has</text><text fill="#000000" font-family="sans-serif" font-size="13" lengthAdjust="spacing" textLength="7" x="133.2266" y="165.9516">1</text><path d="M391.8224,110.1154 C385.5233,129.5725 377.8462,153.2863 371.5009,172.8861 " fill="none" style="stroke:#181818;stroke-width:1.0;"/><text fill="#000000" font-family="sans-serif" font-size="13" lengthAdjust="spacing" textLength="21" x="386" y="143.0283">has</text><text fill="#000000" font-family="sans-serif" font-size="13" lengthAdjust="spacing" textLength="7" x="363.5009" y="168.9144">1</text><path d="M428.0847,110.1154 C440.5428,129.5725 455.7265,153.2863 468.276,172.8861 " fill="none" style="stroke:#181818;stroke-width:1.0;"/><text fill="#000000" font-family="sans-serif" font-size="13" lengthAdjust="spacing" textLength="21" x="452" y="143.0283">has</text><text fill="#000000" font-family="sans-serif" font-size="13" lengthAdjust="spacing" textLength="7" x="460.276" y="168.9144">1</text><path d="M446.7179,82.0928 C503.4171,95.7987 605.7169,123.9515 686,165 C688.9348,166.5006 691.8819,168.1285 694.8131,169.8467 " fill="none" style="stroke:#181818;stroke-width:1.0;"/><text fill="#000000" font-family="sans-serif" font-size="13" lengthAdjust="spacing" textLength="21" x="643" y="143.0283">has</text><text fill="#000000" font-family="sans-serif" font-size="13" lengthAdjust="spacing" textLength="7" x="686.8131" y="165.875">1</text><!--SRC=[hP5DQyCm38Rl_XLQBZjbOTTG2eFqqCC-M4klGtDCuivVnCeWbFttEkcMhHzUeLJu8AnNZyIhsvh8-JpBd493hLPttEgCA_G-BILM3MfsungiD8B2phO4NWj2WumnX_m3Am78gKMo3MmOX1YwuU7dSpAP6PBKJQSXVRMMGh8JVlsH5-9JSZ4lWcQ5gXNFxsl1QUYP5sD77ocyoH9oM50ZJVKDEZ5usRchyfvGYoFQ7iRqYZZeqPP2lI3L_rDShuXJXiv3mYQ-zkKMX3SU4T8KallaqDmSQlJ7gjsEaU9uwKXzp- -8vjVACv1np1O0]--></g></svg>