<?xml version="1.0" encoding="us-ascii" standalone="no"?><svg xmlns="http://www.w3.org/2000/svg" xmlns:xlink="http://www.w3.org/1999/xlink" contentStyleType="text/css" height="259px" preserveAspectRatio="none" style="width:611px;height:259px;background:#FFFFFF;" version="1.1" viewBox="0 0 611 259" width="611px" zoomAndPan="magnify"><defs/><g><!--cluster actuator_model--><g id="cluster_actuator_model"><path d="M16.5,4 L126.5,4 A3.75,3.75 0 0 1 129,6.5 L136,28.6211 L601.5,28.6211 A2.5,2.5 0 0 1 604,31.1211 L604,249.5 A2.5,2.5 0 0 1 601.5,252 L16.5,252 A2.5,2.5 0 0 1 14,249.5 L14,6.5 A2.5,2.5 0 0 1 16.5,4 " fill="none" style="stroke:#000000;stroke-width:1.5;"/><line style="stroke:#000000;stroke-width:1.5;" x1="14" x2="136" y1="28.6211" y2="28.6211"/><text fill="#000000" font-family="sans-serif" font-size="14" font-weight="bold" lengthAdjust="spacing" textLength="109" x="18" y="21.1074">actuator_model</text></g><!--class ActuatorModel--><g id="elem_ActuatorModel"><rect codeLine="5" fill="#F1F1F1" height="76.543" id="ActuatorModel" rx="2.5" ry="2.5" style="stroke:#181818;stroke-width:0.5;" width="123" x="231.5" y="33"/><ellipse cx="246.5" cy="63.2715" fill="#ADD1B2" rx="11" ry="11" style="stroke:#181818;stroke-width:1.0;"/><path d="M249.2656,59.1465 Q249.4219,58.9277 249.6094,58.8184 Q249.7969,58.709 250.0156,58.709 Q250.3906,58.709 250.625,58.9746 Q250.8594,59.2246 250.8594,59.834 L250.8594,61.2871 Q250.8594,61.8965 250.625,62.1621 Q250.3906,62.4277 250.0156,62.4277 Q249.6719,62.4277 249.4688,62.2246 Q249.2656,62.0371 249.1563,61.5215 Q249.1094,61.1621 248.9219,60.9746 Q248.5938,60.5996 247.9844,60.3809 Q247.375,60.1621 246.75,60.1621 Q245.9844,60.1621 245.3438,60.4902 Q244.7188,60.8184 244.2188,61.5684 Q243.7344,62.3184 243.7344,63.3496 L243.7344,64.4434 Q243.7344,65.6777 244.625,66.5059 Q245.5156,67.3184 247.1094,67.3184 Q248.0469,67.3184 248.7031,67.0684 Q249.0938,66.9121 249.5156,66.4746 Q249.7813,66.209 249.9219,66.1309 Q250.0781,66.0527 250.2813,66.0527 Q250.6094,66.0527 250.8594,66.3184 Q251.125,66.5684 251.125,66.9121 Q251.125,67.2559 250.7813,67.6621 Q250.2813,68.2402 249.4844,68.5684 Q248.4063,69.0215 247.1094,69.0215 Q245.5938,69.0215 244.3906,68.3965 Q243.4063,67.8965 242.7188,66.834 Q242.0313,65.7559 242.0313,64.4746 L242.0313,63.3184 Q242.0313,61.9902 242.6406,60.8496 Q243.2656,59.6934 244.3594,59.084 Q245.4531,58.459 246.6875,58.459 Q247.4219,58.459 248.0625,58.6309 Q248.7188,58.7871 249.2656,59.1465 Z " fill="#000000"/><text fill="#000000" font-family="sans-serif" font-size="12" font-style="italic" lengthAdjust="spacing" textLength="44" x="284" y="50.9492">&#171;Entity&#187;</text><text fill="#000000" font-family="sans-serif" font-size="12" font-style="italic" lengthAdjust="spacing" textLength="40" x="286" y="66.9102">&#171;Root&#187;</text><text fill="#000000" font-family="sans-serif" font-size="14" lengthAdjust="spacing" textLength="91" x="260.5" y="85.0293">ActuatorModel</text><line style="stroke:#181818;stroke-width:0.5;" x1="232.5" x2="353.5" y1="93.543" y2="93.543"/><line style="stroke:#181818;stroke-width:0.5;" x1="232.5" x2="353.5" y1="101.543" y2="101.543"/></g><!--class ActuatorTypeId--><g id="elem_ActuatorTypeId"><rect codeLine="9" fill="#F1F1F1" height="79.2031" id="ActuatorTypeId" rx="2.5" ry="2.5" style="stroke:#181818;stroke-width:0.5;" width="178" x="22" y="165"/><ellipse cx="59.5" cy="187.291" fill="#ADD1B2" rx="11" ry="11" style="stroke:#181818;stroke-width:1.0;"/><path d="M62.2656,183.166 Q62.4219,182.9473 62.6094,182.8379 Q62.7969,182.7285 63.0156,182.7285 Q63.3906,182.7285 63.625,182.9941 Q63.8594,183.2441 63.8594,183.8535 L63.8594,185.3066 Q63.8594,185.916 63.625,186.1816 Q63.3906,186.4473 63.0156,186.4473 Q62.6719,186.4473 62.4688,186.2441 Q62.2656,186.0566 62.1563,185.541 Q62.1094,185.1816 61.9219,184.9941 Q61.5938,184.6191 60.9844,184.4004 Q60.375,184.1816 59.75,184.1816 Q58.9844,184.1816 58.3438,184.5098 Q57.7188,184.8379 57.2188,185.5879 Q56.7344,186.3379 56.7344,187.3691 L56.7344,188.4629 Q56.7344,189.6973 57.625,190.5254 Q58.5156,191.3379 60.1094,191.3379 Q61.0469,191.3379 61.7031,191.0879 Q62.0938,190.9316 62.5156,190.4941 Q62.7813,190.2285 62.9219,190.1504 Q63.0781,190.0723 63.2813,190.0723 Q63.6094,190.0723 63.8594,190.3379 Q64.125,190.5879 64.125,190.9316 Q64.125,191.2754 63.7813,191.6816 Q63.2813,192.2598 62.4844,192.5879 Q61.4063,193.041 60.1094,193.041 Q58.5938,193.041 57.3906,192.416 Q56.4063,191.916 55.7188,190.8535 Q55.0313,189.7754 55.0313,188.4941 L55.0313,187.3379 Q55.0313,186.0098 55.6406,184.8691 Q56.2656,183.7129 57.3594,183.1035 Q58.4531,182.4785 59.6875,182.4785 Q60.4219,182.4785 61.0625,182.6504 Q61.7188,182.8066 62.2656,183.166 Z " fill="#000000"/><text fill="#000000" font-family="sans-serif" font-size="12" font-style="italic" lengthAdjust="spacing" textLength="82" x="85.5" y="182.9492">&#171;ValueObject&#187;</text><text fill="#000000" font-family="sans-serif" font-size="14" lengthAdjust="spacing" textLength="96" x="78.5" y="201.0684">ActuatorTypeId</text><line style="stroke:#181818;stroke-width:0.5;" x1="23" x2="199" y1="209.582" y2="209.582"/><rect fill="none" height="6" style="stroke:#C82930;stroke-width:1.0;" width="6" x="30" y="221.3926"/><text fill="#000000" font-family="sans-serif" font-size="14" lengthAdjust="spacing" textLength="152" x="42" y="228.6895">_actuatorTypeId : String</text><line style="stroke:#181818;stroke-width:0.5;" x1="23" x2="199" y1="236.2031" y2="236.2031"/></g><!--class ModelPath--><g id="elem_ModelPath"><rect codeLine="13" fill="#F1F1F1" height="79.2031" id="ModelPath" rx="2.5" ry="2.5" style="stroke:#181818;stroke-width:0.5;" width="150" x="218" y="165"/><ellipse cx="251" cy="187.291" fill="#ADD1B2" rx="11" ry="11" style="stroke:#181818;stroke-width:1.0;"/><path d="M253.7656,183.166 Q253.9219,182.9473 254.1094,182.8379 Q254.2969,182.7285 254.5156,182.7285 Q254.8906,182.7285 255.125,182.9941 Q255.3594,183.2441 255.3594,183.8535 L255.3594,185.3066 Q255.3594,185.916 255.125,186.1816 Q254.8906,186.4473 254.5156,186.4473 Q254.1719,186.4473 253.9688,186.2441 Q253.7656,186.0566 253.6563,185.541 Q253.6094,185.1816 253.4219,184.9941 Q253.0938,184.6191 252.4844,184.4004 Q251.875,184.1816 251.25,184.1816 Q250.4844,184.1816 249.8438,184.5098 Q249.2188,184.8379 248.7188,185.5879 Q248.2344,186.3379 248.2344,187.3691 L248.2344,188.4629 Q248.2344,189.6973 249.125,190.5254 Q250.0156,191.3379 251.6094,191.3379 Q252.5469,191.3379 253.2031,191.0879 Q253.5938,190.9316 254.0156,190.4941 Q254.2813,190.2285 254.4219,190.1504 Q254.5781,190.0723 254.7813,190.0723 Q255.1094,190.0723 255.3594,190.3379 Q255.625,190.5879 255.625,190.9316 Q255.625,191.2754 255.2813,191.6816 Q254.7813,192.2598 253.9844,192.5879 Q252.9063,193.041 251.6094,193.041 Q250.0938,193.041 248.8906,192.416 Q247.9063,191.916 247.2188,190.8535 Q246.5313,189.7754 246.5313,188.4941 L246.5313,187.3379 Q246.5313,186.0098 247.1406,184.8691 Q247.7656,183.7129 248.8594,183.1035 Q249.9531,182.4785 251.1875,182.4785 Q251.9219,182.4785 252.5625,182.6504 Q253.2188,182.8066 253.7656,183.166 Z " fill="#000000"/><text fill="#000000" font-family="sans-serif" font-size="12" font-style="italic" lengthAdjust="spacing" textLength="82" x="267" y="182.9492">&#171;ValueObject&#187;</text><text fill="#000000" font-family="sans-serif" font-size="14" lengthAdjust="spacing" textLength="67" x="274.5" y="201.0684">ModelPath</text><line style="stroke:#181818;stroke-width:0.5;" x1="219" x2="367" y1="209.582" y2="209.582"/><rect fill="none" height="6" style="stroke:#C82930;stroke-width:1.0;" width="6" x="226" y="221.3926"/><text fill="#000000" font-family="sans-serif" font-size="14" lengthAdjust="spacing" textLength="124" x="238" y="228.6895">_modelPath : String</text><line style="stroke:#181818;stroke-width:0.5;" x1="219" x2="367" y1="236.2031" y2="236.2031"/></g><!--class ActuatorModelName--><g id="elem_ActuatorModelName"><rect codeLine="16" fill="#F1F1F1" height="79.2031" id="ActuatorModelName" rx="2.5" ry="2.5" style="stroke:#181818;stroke-width:0.5;" width="209" x="386.5" y="165"/><ellipse cx="424" cy="187.291" fill="#ADD1B2" rx="11" ry="11" style="stroke:#181818;stroke-width:1.0;"/><path d="M426.7656,183.166 Q426.9219,182.9473 427.1094,182.8379 Q427.2969,182.7285 427.5156,182.7285 Q427.8906,182.7285 428.125,182.9941 Q428.3594,183.2441 428.3594,183.8535 L428.3594,185.3066 Q428.3594,185.916 428.125,186.1816 Q427.8906,186.4473 427.5156,186.4473 Q427.1719,186.4473 426.9688,186.2441 Q426.7656,186.0566 426.6563,185.541 Q426.6094,185.1816 426.4219,184.9941 Q426.0938,184.6191 425.4844,184.4004 Q424.875,184.1816 424.25,184.1816 Q423.4844,184.1816 422.8438,184.5098 Q422.2188,184.8379 421.7188,185.5879 Q421.2344,186.3379 421.2344,187.3691 L421.2344,188.4629 Q421.2344,189.6973 422.125,190.5254 Q423.0156,191.3379 424.6094,191.3379 Q425.5469,191.3379 426.2031,191.0879 Q426.5938,190.9316 427.0156,190.4941 Q427.2813,190.2285 427.4219,190.1504 Q427.5781,190.0723 427.7813,190.0723 Q428.1094,190.0723 428.3594,190.3379 Q428.625,190.5879 428.625,190.9316 Q428.625,191.2754 428.2813,191.6816 Q427.7813,192.2598 426.9844,192.5879 Q425.9063,193.041 424.6094,193.041 Q423.0938,193.041 421.8906,192.416 Q420.9063,191.916 420.2188,190.8535 Q419.5313,189.7754 419.5313,188.4941 L419.5313,187.3379 Q419.5313,186.0098 420.1406,184.8691 Q420.7656,183.7129 421.8594,183.1035 Q422.9531,182.4785 424.1875,182.4785 Q424.9219,182.4785 425.5625,182.6504 Q426.2188,182.8066 426.7656,183.166 Z " fill="#000000"/><text fill="#000000" font-family="sans-serif" font-size="12" font-style="italic" lengthAdjust="spacing" textLength="82" x="465.5" y="182.9492">&#171;ValueObject&#187;</text><text fill="#000000" font-family="sans-serif" font-size="14" lengthAdjust="spacing" textLength="127" x="443" y="201.0684">ActuatorModelName</text><line style="stroke:#181818;stroke-width:0.5;" x1="387.5" x2="594.5" y1="209.582" y2="209.582"/><rect fill="none" height="6" style="stroke:#C82930;stroke-width:1.0;" width="6" x="394.5" y="221.3926"/><text fill="#000000" font-family="sans-serif" font-size="14" lengthAdjust="spacing" textLength="183" x="406.5" y="228.6895">_actuatorModelName : String</text><line style="stroke:#181818;stroke-width:0.5;" x1="387.5" x2="594.5" y1="236.2031" y2="236.2031"/></g><path d="M240.8461,110.0393 C217.0019,127.2019 188.7773,147.5174 164.7435,164.8165 " fill="none" style="stroke:#181818;stroke-width:1.0;"/><text fill="#000000" font-family="sans-serif" font-size="13" lengthAdjust="spacing" textLength="21" x="213" y="143.0283">has</text><text fill="#000000" font-family="sans-serif" font-size="13" lengthAdjust="spacing" textLength="7" x="156.7435" y="160.8448">1</text><path d="M293,110.0393 C293,127.1263 293,147.3385 293,164.5877 " fill="none" style="stroke:#181818;stroke-width:1.0;"/><text fill="#000000" font-family="sans-serif" font-size="13" lengthAdjust="spacing" textLength="21" x="294" y="143.0283">has</text><text fill="#000000" font-family="sans-serif" font-size="13" lengthAdjust="spacing" textLength="7" x="285" y="160.616">1</text><path d="M349.7389,110.0393 C375.6792,127.2019 406.3851,147.5174 432.5318,164.8165 " fill="none" style="stroke:#181818;stroke-width:1.0;"/><text fill="#000000" font-family="sans-serif" font-size="13" lengthAdjust="spacing" textLength="21" x="404" y="143.0283">has</text><text fill="#000000" font-family="sans-serif" font-size="13" lengthAdjust="spacing" textLength="7" x="433.5318" y="160.8448">1</text><!--SRC=[ZP0z3u8m48Rt_egJdS6La2OC3WweKUDApjA0sb92Zu4O_xlb8of4ZBUqoJttvhbRb1Lc6a5XOse2goLXWOoLA6wOIK11DPAf4crIgUwCWIkXq5g8XbRSTY0CLmLTgE7SVVV64ES3_UYVoTInAUKwTUm9LIstvwiKtGWCvKE2OpI00rMN8kkHSMhdi4FAVmRg5pNDWfcrDgZbNuvlUXhjHCUN0jy7R-bDBn50ZdO6ZJ_4vwdeYqjBioS0]--></g></svg>