<?xml version="1.0" encoding="us-ascii" standalone="no"?><svg xmlns="http://www.w3.org/2000/svg" xmlns:xlink="http://www.w3.org/1999/xlink" contentStyleType="text/css" height="259px" preserveAspectRatio="none" style="width:680px;height:259px;background:#FFFFFF;" version="1.1" viewBox="0 0 680 259" width="680px" zoomAndPan="magnify"><defs/><g><!--cluster device--><g id="cluster_device"><path d="M16.5,4 L65.5,4 A3.75,3.75 0 0 1 68,6.5 L75,28.6211 L670.5,28.6211 A2.5,2.5 0 0 1 673,31.1211 L673,249.5 A2.5,2.5 0 0 1 670.5,252 L16.5,252 A2.5,2.5 0 0 1 14,249.5 L14,6.5 A2.5,2.5 0 0 1 16.5,4 " fill="none" style="stroke:#000000;stroke-width:1.5;"/><line style="stroke:#000000;stroke-width:1.5;" x1="14" x2="75" y1="28.6211" y2="28.6211"/><text fill="#000000" font-family="sans-serif" font-size="14" font-weight="bold" lengthAdjust="spacing" textLength="48" x="18" y="21.1074">device</text></g><!--class Device--><g id="elem_Device"><rect codeLine="4" fill="#F1F1F1" height="76.543" id="Device" rx="2.5" ry="2.5" style="stroke:#181818;stroke-width:0.5;" width="75" x="304.5" y="33"/><ellipse cx="319.5" cy="63.2715" fill="#ADD1B2" rx="11" ry="11" style="stroke:#181818;stroke-width:1.0;"/><path d="M322.2656,59.1465 Q322.4219,58.9277 322.6094,58.8184 Q322.7969,58.709 323.0156,58.709 Q323.3906,58.709 323.625,58.9746 Q323.8594,59.2246 323.8594,59.834 L323.8594,61.2871 Q323.8594,61.8965 323.625,62.1621 Q323.3906,62.4277 323.0156,62.4277 Q322.6719,62.4277 322.4688,62.2246 Q322.2656,62.0371 322.1563,61.5215 Q322.1094,61.1621 321.9219,60.9746 Q321.5938,60.5996 320.9844,60.3809 Q320.375,60.1621 319.75,60.1621 Q318.9844,60.1621 318.3438,60.4902 Q317.7188,60.8184 317.2188,61.5684 Q316.7344,62.3184 316.7344,63.3496 L316.7344,64.4434 Q316.7344,65.6777 317.625,66.5059 Q318.5156,67.3184 320.1094,67.3184 Q321.0469,67.3184 321.7031,67.0684 Q322.0938,66.9121 322.5156,66.4746 Q322.7813,66.209 322.9219,66.1309 Q323.0781,66.0527 323.2813,66.0527 Q323.6094,66.0527 323.8594,66.3184 Q324.125,66.5684 324.125,66.9121 Q324.125,67.2559 323.7813,67.6621 Q323.2813,68.2402 322.4844,68.5684 Q321.4063,69.0215 320.1094,69.0215 Q318.5938,69.0215 317.3906,68.3965 Q316.4063,67.8965 315.7188,66.834 Q315.0313,65.7559 315.0313,64.4746 L315.0313,63.3184 Q315.0313,61.9902 315.6406,60.8496 Q316.2656,59.6934 317.3594,59.084 Q318.4531,58.459 319.6875,58.459 Q320.4219,58.459 321.0625,58.6309 Q321.7188,58.7871 322.2656,59.1465 Z " fill="#000000"/><text fill="#000000" font-family="sans-serif" font-size="12" font-style="italic" lengthAdjust="spacing" textLength="43" x="333.5" y="50.9492">&#171;entity&#187;</text><text fill="#000000" font-family="sans-serif" font-size="12" font-style="italic" lengthAdjust="spacing" textLength="40" x="335" y="66.9102">&#171;Root&#187;</text><text fill="#000000" font-family="sans-serif" font-size="14" lengthAdjust="spacing" textLength="43" x="333.5" y="85.0293">Device</text><line style="stroke:#181818;stroke-width:0.5;" x1="305.5" x2="378.5" y1="93.543" y2="93.543"/><line style="stroke:#181818;stroke-width:0.5;" x1="305.5" x2="378.5" y1="101.543" y2="101.543"/></g><!--class DeviceID--><g id="elem_DeviceID"><rect codeLine="7" fill="#F1F1F1" height="79.2031" id="DeviceID" rx="2.5" ry="2.5" style="stroke:#181818;stroke-width:0.5;" width="109" x="22.5" y="165"/><ellipse cx="37.5" cy="187.291" fill="#ADD1B2" rx="11" ry="11" style="stroke:#181818;stroke-width:1.0;"/><path d="M40.2656,183.166 Q40.4219,182.9473 40.6094,182.8379 Q40.7969,182.7285 41.0156,182.7285 Q41.3906,182.7285 41.625,182.9941 Q41.8594,183.2441 41.8594,183.8535 L41.8594,185.3066 Q41.8594,185.916 41.625,186.1816 Q41.3906,186.4473 41.0156,186.4473 Q40.6719,186.4473 40.4688,186.2441 Q40.2656,186.0566 40.1563,185.541 Q40.1094,185.1816 39.9219,184.9941 Q39.5938,184.6191 38.9844,184.4004 Q38.375,184.1816 37.75,184.1816 Q36.9844,184.1816 36.3438,184.5098 Q35.7188,184.8379 35.2188,185.5879 Q34.7344,186.3379 34.7344,187.3691 L34.7344,188.4629 Q34.7344,189.6973 35.625,190.5254 Q36.5156,191.3379 38.1094,191.3379 Q39.0469,191.3379 39.7031,191.0879 Q40.0938,190.9316 40.5156,190.4941 Q40.7813,190.2285 40.9219,190.1504 Q41.0781,190.0723 41.2813,190.0723 Q41.6094,190.0723 41.8594,190.3379 Q42.125,190.5879 42.125,190.9316 Q42.125,191.2754 41.7813,191.6816 Q41.2813,192.2598 40.4844,192.5879 Q39.4063,193.041 38.1094,193.041 Q36.5938,193.041 35.3906,192.416 Q34.4063,191.916 33.7188,190.8535 Q33.0313,189.7754 33.0313,188.4941 L33.0313,187.3379 Q33.0313,186.0098 33.6406,184.8691 Q34.2656,183.7129 35.3594,183.1035 Q36.4531,182.4785 37.6875,182.4785 Q38.4219,182.4785 39.0625,182.6504 Q39.7188,182.8066 40.2656,183.166 Z " fill="#000000"/><text fill="#000000" font-family="sans-serif" font-size="12" font-style="italic" lengthAdjust="spacing" textLength="81" x="49.5" y="182.9492">&#171;value object&#187;</text><text fill="#000000" font-family="sans-serif" font-size="14" lengthAdjust="spacing" textLength="56" x="62" y="201.0684">DeviceID</text><line style="stroke:#181818;stroke-width:0.5;" x1="23.5" x2="130.5" y1="209.582" y2="209.582"/><rect fill="none" height="6" style="stroke:#C82930;stroke-width:1.0;" width="6" x="30.5" y="221.3926"/><text fill="#000000" font-family="sans-serif" font-size="14" lengthAdjust="spacing" textLength="64" x="42.5" y="228.6895">_id: String</text><line style="stroke:#181818;stroke-width:0.5;" x1="23.5" x2="130.5" y1="236.2031" y2="236.2031"/></g><!--class DeviceName--><g id="elem_DeviceName"><rect codeLine="10" fill="#F1F1F1" height="79.2031" id="DeviceName" rx="2.5" ry="2.5" style="stroke:#181818;stroke-width:0.5;" width="114" x="150" y="165"/><ellipse cx="166.35" cy="187.291" fill="#ADD1B2" rx="11" ry="11" style="stroke:#181818;stroke-width:1.0;"/><path d="M169.1156,183.166 Q169.2719,182.9473 169.4594,182.8379 Q169.6469,182.7285 169.8656,182.7285 Q170.2406,182.7285 170.475,182.9941 Q170.7094,183.2441 170.7094,183.8535 L170.7094,185.3066 Q170.7094,185.916 170.475,186.1816 Q170.2406,186.4473 169.8656,186.4473 Q169.5219,186.4473 169.3188,186.2441 Q169.1156,186.0566 169.0063,185.541 Q168.9594,185.1816 168.7719,184.9941 Q168.4438,184.6191 167.8344,184.4004 Q167.225,184.1816 166.6,184.1816 Q165.8344,184.1816 165.1938,184.5098 Q164.5688,184.8379 164.0688,185.5879 Q163.5844,186.3379 163.5844,187.3691 L163.5844,188.4629 Q163.5844,189.6973 164.475,190.5254 Q165.3656,191.3379 166.9594,191.3379 Q167.8969,191.3379 168.5531,191.0879 Q168.9438,190.9316 169.3656,190.4941 Q169.6313,190.2285 169.7719,190.1504 Q169.9281,190.0723 170.1313,190.0723 Q170.4594,190.0723 170.7094,190.3379 Q170.975,190.5879 170.975,190.9316 Q170.975,191.2754 170.6313,191.6816 Q170.1313,192.2598 169.3344,192.5879 Q168.2563,193.041 166.9594,193.041 Q165.4438,193.041 164.2406,192.416 Q163.2563,191.916 162.5688,190.8535 Q161.8813,189.7754 161.8813,188.4941 L161.8813,187.3379 Q161.8813,186.0098 162.4906,184.8691 Q163.1156,183.7129 164.2094,183.1035 Q165.3031,182.4785 166.5375,182.4785 Q167.2719,182.4785 167.9125,182.6504 Q168.5688,182.8066 169.1156,183.166 Z " fill="#000000"/><text fill="#000000" font-family="sans-serif" font-size="12" font-style="italic" lengthAdjust="spacing" textLength="81" x="179.65" y="182.9492">&#171;value object&#187;</text><text fill="#000000" font-family="sans-serif" font-size="14" lengthAdjust="spacing" textLength="79" x="180.65" y="201.0684">DeviceName</text><line style="stroke:#181818;stroke-width:0.5;" x1="151" x2="263" y1="209.582" y2="209.582"/><rect fill="none" height="6" style="stroke:#C82930;stroke-width:1.0;" width="6" x="158" y="221.3926"/><text fill="#000000" font-family="sans-serif" font-size="14" lengthAdjust="spacing" textLength="88" x="170" y="228.6895">_name: String</text><line style="stroke:#181818;stroke-width:0.5;" x1="151" x2="263" y1="236.2031" y2="236.2031"/></g><!--class DeviceTypeID--><g id="elem_DeviceTypeID"><rect codeLine="13" fill="#F1F1F1" height="79.2031" id="DeviceTypeID" rx="2.5" ry="2.5" style="stroke:#181818;stroke-width:0.5;" width="120" x="282" y="165"/><ellipse cx="297" cy="187.291" fill="#ADD1B2" rx="11" ry="11" style="stroke:#181818;stroke-width:1.0;"/><path d="M299.7656,183.166 Q299.9219,182.9473 300.1094,182.8379 Q300.2969,182.7285 300.5156,182.7285 Q300.8906,182.7285 301.125,182.9941 Q301.3594,183.2441 301.3594,183.8535 L301.3594,185.3066 Q301.3594,185.916 301.125,186.1816 Q300.8906,186.4473 300.5156,186.4473 Q300.1719,186.4473 299.9688,186.2441 Q299.7656,186.0566 299.6563,185.541 Q299.6094,185.1816 299.4219,184.9941 Q299.0938,184.6191 298.4844,184.4004 Q297.875,184.1816 297.25,184.1816 Q296.4844,184.1816 295.8438,184.5098 Q295.2188,184.8379 294.7188,185.5879 Q294.2344,186.3379 294.2344,187.3691 L294.2344,188.4629 Q294.2344,189.6973 295.125,190.5254 Q296.0156,191.3379 297.6094,191.3379 Q298.5469,191.3379 299.2031,191.0879 Q299.5938,190.9316 300.0156,190.4941 Q300.2813,190.2285 300.4219,190.1504 Q300.5781,190.0723 300.7813,190.0723 Q301.1094,190.0723 301.3594,190.3379 Q301.625,190.5879 301.625,190.9316 Q301.625,191.2754 301.2813,191.6816 Q300.7813,192.2598 299.9844,192.5879 Q298.9063,193.041 297.6094,193.041 Q296.0938,193.041 294.8906,192.416 Q293.9063,191.916 293.2188,190.8535 Q292.5313,189.7754 292.5313,188.4941 L292.5313,187.3379 Q292.5313,186.0098 293.1406,184.8691 Q293.7656,183.7129 294.8594,183.1035 Q295.9531,182.4785 297.1875,182.4785 Q297.9219,182.4785 298.5625,182.6504 Q299.2188,182.8066 299.7656,183.166 Z " fill="#000000"/><text fill="#000000" font-family="sans-serif" font-size="12" font-style="italic" lengthAdjust="spacing" textLength="81" x="314.5" y="182.9492">&#171;value object&#187;</text><text fill="#000000" font-family="sans-serif" font-size="14" lengthAdjust="spacing" textLength="88" x="311" y="201.0684">DeviceTypeID</text><line style="stroke:#181818;stroke-width:0.5;" x1="283" x2="401" y1="209.582" y2="209.582"/><rect fill="none" height="6" style="stroke:#C82930;stroke-width:1.0;" width="6" x="290" y="221.3926"/><text fill="#000000" font-family="sans-serif" font-size="14" lengthAdjust="spacing" textLength="64" x="302" y="228.6895">_id: String</text><line style="stroke:#181818;stroke-width:0.5;" x1="283" x2="401" y1="236.2031" y2="236.2031"/></g><!--class RoomID--><g id="elem_RoomID"><rect codeLine="16" fill="#F1F1F1" height="79.2031" id="RoomID" rx="2.5" ry="2.5" style="stroke:#181818;stroke-width:0.5;" width="109" x="420.5" y="165"/><ellipse cx="435.5" cy="187.291" fill="#ADD1B2" rx="11" ry="11" style="stroke:#181818;stroke-width:1.0;"/><path d="M438.2656,183.166 Q438.4219,182.9473 438.6094,182.8379 Q438.7969,182.7285 439.0156,182.7285 Q439.3906,182.7285 439.625,182.9941 Q439.8594,183.2441 439.8594,183.8535 L439.8594,185.3066 Q439.8594,185.916 439.625,186.1816 Q439.3906,186.4473 439.0156,186.4473 Q438.6719,186.4473 438.4688,186.2441 Q438.2656,186.0566 438.1563,185.541 Q438.1094,185.1816 437.9219,184.9941 Q437.5938,184.6191 436.9844,184.4004 Q436.375,184.1816 435.75,184.1816 Q434.9844,184.1816 434.3438,184.5098 Q433.7188,184.8379 433.2188,185.5879 Q432.7344,186.3379 432.7344,187.3691 L432.7344,188.4629 Q432.7344,189.6973 433.625,190.5254 Q434.5156,191.3379 436.1094,191.3379 Q437.0469,191.3379 437.7031,191.0879 Q438.0938,190.9316 438.5156,190.4941 Q438.7813,190.2285 438.9219,190.1504 Q439.0781,190.0723 439.2813,190.0723 Q439.6094,190.0723 439.8594,190.3379 Q440.125,190.5879 440.125,190.9316 Q440.125,191.2754 439.7813,191.6816 Q439.2813,192.2598 438.4844,192.5879 Q437.4063,193.041 436.1094,193.041 Q434.5938,193.041 433.3906,192.416 Q432.4063,191.916 431.7188,190.8535 Q431.0313,189.7754 431.0313,188.4941 L431.0313,187.3379 Q431.0313,186.0098 431.6406,184.8691 Q432.2656,183.7129 433.3594,183.1035 Q434.4531,182.4785 435.6875,182.4785 Q436.4219,182.4785 437.0625,182.6504 Q437.7188,182.8066 438.2656,183.166 Z " fill="#000000"/><text fill="#000000" font-family="sans-serif" font-size="12" font-style="italic" lengthAdjust="spacing" textLength="81" x="447.5" y="182.9492">&#171;value object&#187;</text><text fill="#000000" font-family="sans-serif" font-size="14" lengthAdjust="spacing" textLength="50" x="463" y="201.0684">RoomID</text><line style="stroke:#181818;stroke-width:0.5;" x1="421.5" x2="528.5" y1="209.582" y2="209.582"/><rect fill="none" height="6" style="stroke:#C82930;stroke-width:1.0;" width="6" x="428.5" y="221.3926"/><text fill="#000000" font-family="sans-serif" font-size="14" lengthAdjust="spacing" textLength="64" x="440.5" y="228.6895">_id: String</text><line style="stroke:#181818;stroke-width:0.5;" x1="421.5" x2="528.5" y1="236.2031" y2="236.2031"/></g><!--class DeviceStatus--><g id="elem_DeviceStatus"><rect codeLine="19" fill="#F1F1F1" height="79.2031" id="DeviceStatus" rx="2.5" ry="2.5" style="stroke:#181818;stroke-width:0.5;" width="117" x="547.5" y="165"/><ellipse cx="563.4" cy="187.291" fill="#ADD1B2" rx="11" ry="11" style="stroke:#181818;stroke-width:1.0;"/><path d="M566.1656,183.166 Q566.3219,182.9473 566.5094,182.8379 Q566.6969,182.7285 566.9156,182.7285 Q567.2906,182.7285 567.525,182.9941 Q567.7594,183.2441 567.7594,183.8535 L567.7594,185.3066 Q567.7594,185.916 567.525,186.1816 Q567.2906,186.4473 566.9156,186.4473 Q566.5719,186.4473 566.3688,186.2441 Q566.1656,186.0566 566.0563,185.541 Q566.0094,185.1816 565.8219,184.9941 Q565.4938,184.6191 564.8844,184.4004 Q564.275,184.1816 563.65,184.1816 Q562.8844,184.1816 562.2438,184.5098 Q561.6188,184.8379 561.1188,185.5879 Q560.6344,186.3379 560.6344,187.3691 L560.6344,188.4629 Q560.6344,189.6973 561.525,190.5254 Q562.4156,191.3379 564.0094,191.3379 Q564.9469,191.3379 565.6031,191.0879 Q565.9938,190.9316 566.4156,190.4941 Q566.6813,190.2285 566.8219,190.1504 Q566.9781,190.0723 567.1813,190.0723 Q567.5094,190.0723 567.7594,190.3379 Q568.025,190.5879 568.025,190.9316 Q568.025,191.2754 567.6813,191.6816 Q567.1813,192.2598 566.3844,192.5879 Q565.3063,193.041 564.0094,193.041 Q562.4938,193.041 561.2906,192.416 Q560.3063,191.916 559.6188,190.8535 Q558.9313,189.7754 558.9313,188.4941 L558.9313,187.3379 Q558.9313,186.0098 559.5406,184.8691 Q560.1656,183.7129 561.2594,183.1035 Q562.3531,182.4785 563.5875,182.4785 Q564.3219,182.4785 564.9625,182.6504 Q565.6188,182.8066 566.1656,183.166 Z " fill="#000000"/><text fill="#000000" font-family="sans-serif" font-size="12" font-style="italic" lengthAdjust="spacing" textLength="81" x="578.6" y="182.9492">&#171;value object&#187;</text><text fill="#000000" font-family="sans-serif" font-size="14" lengthAdjust="spacing" textLength="83" x="577.6" y="201.0684">DeviceStatus</text><line style="stroke:#181818;stroke-width:0.5;" x1="548.5" x2="663.5" y1="209.582" y2="209.582"/><rect fill="none" height="6" style="stroke:#C82930;stroke-width:1.0;" width="6" x="555.5" y="221.3926"/><text fill="#000000" font-family="sans-serif" font-size="14" lengthAdjust="spacing" textLength="91" x="567.5" y="228.6895">_status: String</text><line style="stroke:#181818;stroke-width:0.5;" x1="548.5" x2="663.5" y1="236.2031" y2="236.2031"/></g><path d="M304.358,88.3422 C263.5183,105.8705 196.6909,135.5496 141,165 C137.9051,166.6366 134.7511,168.3563 131.585,170.1233 " fill="none" style="stroke:#181818;stroke-width:1.0;"/><text fill="#000000" font-family="sans-serif" font-size="13" lengthAdjust="spacing" textLength="21" x="213" y="143.0283">has</text><text fill="#000000" font-family="sans-serif" font-size="13" lengthAdjust="spacing" textLength="7" x="132.585" y="166.1516">1</text><path d="M304.395,108.9908 C286.4507,126.4033 264.9742,147.2435 246.7601,164.918 " fill="none" style="stroke:#181818;stroke-width:1.0;"/><text fill="#000000" font-family="sans-serif" font-size="13" lengthAdjust="spacing" textLength="21" x="283" y="143.0283">has</text><text fill="#000000" font-family="sans-serif" font-size="13" lengthAdjust="spacing" textLength="7" x="238.7601" y="160.9463">1</text><path d="M342,110.0393 C342,127.1263 342,147.3385 342,164.5877 " fill="none" style="stroke:#181818;stroke-width:1.0;"/><text fill="#000000" font-family="sans-serif" font-size="13" lengthAdjust="spacing" textLength="21" x="343" y="143.0283">has</text><text fill="#000000" font-family="sans-serif" font-size="13" lengthAdjust="spacing" textLength="7" x="334" y="160.616">1</text><path d="M379.7567,109.6889 C397.2667,126.9356 418.0689,147.425 435.7589,164.849 " fill="none" style="stroke:#181818;stroke-width:1.0;"/><text fill="#000000" font-family="sans-serif" font-size="13" lengthAdjust="spacing" textLength="21" x="417" y="143.0283">has</text><text fill="#000000" font-family="sans-serif" font-size="13" lengthAdjust="spacing" textLength="7" x="436.7589" y="160.8773">1</text><path d="M379.8497,89.1517 C419.8472,107.0077 484.5471,136.6325 539,165 C541.7365,166.4256 544.5221,167.9058 547.3259,169.4193 " fill="none" style="stroke:#181818;stroke-width:1.0;"/><text fill="#000000" font-family="sans-serif" font-size="13" lengthAdjust="spacing" textLength="21" x="502" y="143.0283">has</text><text fill="#000000" font-family="sans-serif" font-size="13" lengthAdjust="spacing" textLength="7" x="539.3259" y="165.4476">1</text><!--SRC=[fP0n2uCm48Nt_8ghkqFN4ZAvTEbGkvTh33QjISH4GQJ_lT68595qy9RZkEyUzzwXRh1K21NsfdLWbN2eaP0Q-HjB0ONe91Sm45wXjP25aLAXdNGzOvHUZN6C3GHyVSZKVjbpHcc7LIl0F5w2B-XOATnbSOBSDLANiy3w_e9AH1Mq1_vetFfwnn_UeDhh8dVeMXlLi1Eoql61pf53ca9oJ9PKuGHFjDlRCRFOFkInJGItiUlW9H1V]--></g></svg>