<?xml version="1.0" encoding="us-ascii" standalone="no"?><svg xmlns="http://www.w3.org/2000/svg" xmlns:xlink="http://www.w3.org/1999/xlink" contentStyleType="text/css" height="259px" preserveAspectRatio="none" style="width:377px;height:259px;background:#FFFFFF;" version="1.1" viewBox="0 0 377 259" width="377px" zoomAndPan="magnify"><defs/><g><!--cluster device_type--><g id="cluster_device_type"><path d="M16.5,4 L103.5,4 A3.75,3.75 0 0 1 106,6.5 L113,28.6211 L367.5,28.6211 A2.5,2.5 0 0 1 370,31.1211 L370,249.5 A2.5,2.5 0 0 1 367.5,252 L16.5,252 A2.5,2.5 0 0 1 14,249.5 L14,6.5 A2.5,2.5 0 0 1 16.5,4 " fill="none" style="stroke:#000000;stroke-width:1.5;"/><line style="stroke:#000000;stroke-width:1.5;" x1="14" x2="113" y1="28.6211" y2="28.6211"/><text fill="#000000" font-family="sans-serif" font-size="14" font-weight="bold" lengthAdjust="spacing" textLength="86" x="18" y="21.1074">device_type</text></g><!--class DeviceType--><g id="elem_DeviceType"><rect codeLine="4" fill="#F1F1F1" height="76.543" id="DeviceType" rx="2.5" ry="2.5" style="stroke:#181818;stroke-width:0.5;" width="107" x="100.5" y="33"/><ellipse cx="115.5" cy="63.2715" fill="#ADD1B2" rx="11" ry="11" style="stroke:#181818;stroke-width:1.0;"/><path d="M118.2656,59.1465 Q118.4219,58.9277 118.6094,58.8184 Q118.7969,58.709 119.0156,58.709 Q119.3906,58.709 119.625,58.9746 Q119.8594,59.2246 119.8594,59.834 L119.8594,61.2871 Q119.8594,61.8965 119.625,62.1621 Q119.3906,62.4277 119.0156,62.4277 Q118.6719,62.4277 118.4688,62.2246 Q118.2656,62.0371 118.1563,61.5215 Q118.1094,61.1621 117.9219,60.9746 Q117.5938,60.5996 116.9844,60.3809 Q116.375,60.1621 115.75,60.1621 Q114.9844,60.1621 114.3438,60.4902 Q113.7188,60.8184 113.2188,61.5684 Q112.7344,62.3184 112.7344,63.3496 L112.7344,64.4434 Q112.7344,65.6777 113.625,66.5059 Q114.5156,67.3184 116.1094,67.3184 Q117.0469,67.3184 117.7031,67.0684 Q118.0938,66.9121 118.5156,66.4746 Q118.7813,66.209 118.9219,66.1309 Q119.0781,66.0527 119.2813,66.0527 Q119.6094,66.0527 119.8594,66.3184 Q120.125,66.5684 120.125,66.9121 Q120.125,67.2559 119.7813,67.6621 Q119.2813,68.2402 118.4844,68.5684 Q117.4063,69.0215 116.1094,69.0215 Q114.5938,69.0215 113.3906,68.3965 Q112.4063,67.8965 111.7188,66.834 Q111.0313,65.7559 111.0313,64.4746 L111.0313,63.3184 Q111.0313,61.9902 111.6406,60.8496 Q112.2656,59.6934 113.3594,59.084 Q114.4531,58.459 115.6875,58.459 Q116.4219,58.459 117.0625,58.6309 Q117.7188,58.7871 118.2656,59.1465 Z " fill="#000000"/><text fill="#000000" font-family="sans-serif" font-size="12" font-style="italic" lengthAdjust="spacing" textLength="43" x="145.5" y="50.9492">&#171;entity&#187;</text><text fill="#000000" font-family="sans-serif" font-size="12" font-style="italic" lengthAdjust="spacing" textLength="40" x="147" y="66.9102">&#171;Root&#187;</text><text fill="#000000" font-family="sans-serif" font-size="14" lengthAdjust="spacing" textLength="75" x="129.5" y="85.0293">DeviceType</text><line style="stroke:#181818;stroke-width:0.5;" x1="101.5" x2="206.5" y1="93.543" y2="93.543"/><line style="stroke:#181818;stroke-width:0.5;" x1="101.5" x2="206.5" y1="101.543" y2="101.543"/></g><!--class DeviceDescription--><g id="elem_DeviceDescription"><rect codeLine="7" fill="#F1F1F1" height="79.2031" id="DeviceDescription" rx="2.5" ry="2.5" style="stroke:#181818;stroke-width:0.5;" width="152" x="22" y="165"/><ellipse cx="39.7" cy="187.291" fill="#ADD1B2" rx="11" ry="11" style="stroke:#181818;stroke-width:1.0;"/><path d="M42.4656,183.166 Q42.6219,182.9473 42.8094,182.8379 Q42.9969,182.7285 43.2156,182.7285 Q43.5906,182.7285 43.825,182.9941 Q44.0594,183.2441 44.0594,183.8535 L44.0594,185.3066 Q44.0594,185.916 43.825,186.1816 Q43.5906,186.4473 43.2156,186.4473 Q42.8719,186.4473 42.6688,186.2441 Q42.4656,186.0566 42.3563,185.541 Q42.3094,185.1816 42.1219,184.9941 Q41.7938,184.6191 41.1844,184.4004 Q40.575,184.1816 39.95,184.1816 Q39.1844,184.1816 38.5438,184.5098 Q37.9188,184.8379 37.4188,185.5879 Q36.9344,186.3379 36.9344,187.3691 L36.9344,188.4629 Q36.9344,189.6973 37.825,190.5254 Q38.7156,191.3379 40.3094,191.3379 Q41.2469,191.3379 41.9031,191.0879 Q42.2938,190.9316 42.7156,190.4941 Q42.9813,190.2285 43.1219,190.1504 Q43.2781,190.0723 43.4813,190.0723 Q43.8094,190.0723 44.0594,190.3379 Q44.325,190.5879 44.325,190.9316 Q44.325,191.2754 43.9813,191.6816 Q43.4813,192.2598 42.6844,192.5879 Q41.6063,193.041 40.3094,193.041 Q38.7938,193.041 37.5906,192.416 Q36.6063,191.916 35.9188,190.8535 Q35.2313,189.7754 35.2313,188.4941 L35.2313,187.3379 Q35.2313,186.0098 35.8406,184.8691 Q36.4656,183.7129 37.5594,183.1035 Q38.6531,182.4785 39.8875,182.4785 Q40.6219,182.4785 41.2625,182.6504 Q41.9188,182.8066 42.4656,183.166 Z " fill="#000000"/><text fill="#000000" font-family="sans-serif" font-size="12" font-style="italic" lengthAdjust="spacing" textLength="85" x="68.8" y="182.9492">&#171;Value Object&#187;</text><text fill="#000000" font-family="sans-serif" font-size="14" lengthAdjust="spacing" textLength="114" x="54.3" y="201.0684">DeviceDescription</text><line style="stroke:#181818;stroke-width:0.5;" x1="23" x2="173" y1="209.582" y2="209.582"/><rect fill="none" height="6" style="stroke:#C82930;stroke-width:1.0;" width="6" x="30" y="221.3926"/><text fill="#000000" font-family="sans-serif" font-size="14" lengthAdjust="spacing" textLength="126" x="42" y="228.6895">_description : String</text><line style="stroke:#181818;stroke-width:0.5;" x1="23" x2="173" y1="236.2031" y2="236.2031"/></g><!--class DeviceTypeID--><g id="elem_DeviceTypeID"><rect codeLine="10" fill="#F1F1F1" height="79.2031" id="DeviceTypeID" rx="2.5" ry="2.5" style="stroke:#181818;stroke-width:0.5;" width="169" x="192.5" y="165"/><ellipse cx="229.55" cy="187.291" fill="#ADD1B2" rx="11" ry="11" style="stroke:#181818;stroke-width:1.0;"/><path d="M232.3156,183.166 Q232.4719,182.9473 232.6594,182.8379 Q232.8469,182.7285 233.0656,182.7285 Q233.4406,182.7285 233.675,182.9941 Q233.9094,183.2441 233.9094,183.8535 L233.9094,185.3066 Q233.9094,185.916 233.675,186.1816 Q233.4406,186.4473 233.0656,186.4473 Q232.7219,186.4473 232.5188,186.2441 Q232.3156,186.0566 232.2063,185.541 Q232.1594,185.1816 231.9719,184.9941 Q231.6438,184.6191 231.0344,184.4004 Q230.425,184.1816 229.8,184.1816 Q229.0344,184.1816 228.3938,184.5098 Q227.7688,184.8379 227.2688,185.5879 Q226.7844,186.3379 226.7844,187.3691 L226.7844,188.4629 Q226.7844,189.6973 227.675,190.5254 Q228.5656,191.3379 230.1594,191.3379 Q231.0969,191.3379 231.7531,191.0879 Q232.1438,190.9316 232.5656,190.4941 Q232.8313,190.2285 232.9719,190.1504 Q233.1281,190.0723 233.3313,190.0723 Q233.6594,190.0723 233.9094,190.3379 Q234.175,190.5879 234.175,190.9316 Q234.175,191.2754 233.8313,191.6816 Q233.3313,192.2598 232.5344,192.5879 Q231.4563,193.041 230.1594,193.041 Q228.6438,193.041 227.4406,192.416 Q226.4563,191.916 225.7688,190.8535 Q225.0813,189.7754 225.0813,188.4941 L225.0813,187.3379 Q225.0813,186.0098 225.6906,184.8691 Q226.3156,183.7129 227.4094,183.1035 Q228.5031,182.4785 229.7375,182.4785 Q230.4719,182.4785 231.1125,182.6504 Q231.7688,182.8066 232.3156,183.166 Z " fill="#000000"/><text fill="#000000" font-family="sans-serif" font-size="12" font-style="italic" lengthAdjust="spacing" textLength="85" x="249.95" y="182.9492">&#171;Value Object&#187;</text><text fill="#000000" font-family="sans-serif" font-size="14" lengthAdjust="spacing" textLength="88" x="248.45" y="201.0684">DeviceTypeID</text><line style="stroke:#181818;stroke-width:0.5;" x1="193.5" x2="360.5" y1="209.582" y2="209.582"/><rect fill="none" height="6" style="stroke:#C82930;stroke-width:1.0;" width="6" x="200.5" y="221.3926"/><text fill="#000000" font-family="sans-serif" font-size="14" lengthAdjust="spacing" textLength="143" x="212.5" y="228.6895">_deviceTypeID : String</text><line style="stroke:#181818;stroke-width:0.5;" x1="193.5" x2="360.5" y1="236.2031" y2="236.2031"/></g><path d="M137.9526,110.0393 C130.6483,127.1263 122.008,147.3385 114.6343,164.5877 " fill="none" style="stroke:#181818;stroke-width:1.0;"/><text fill="#000000" font-family="sans-serif" font-size="13" lengthAdjust="spacing" textLength="21" x="130" y="143.0283">has</text><text fill="#000000" font-family="sans-serif" font-size="13" lengthAdjust="spacing" textLength="7" x="106.6343" y="160.616">1</text><path d="M189.2469,110.0393 C205.2903,127.1263 224.2682,147.3385 240.464,164.5877 " fill="none" style="stroke:#181818;stroke-width:1.0;"/><text fill="#000000" font-family="sans-serif" font-size="13" lengthAdjust="spacing" textLength="21" x="223" y="143.0283">has</text><text fill="#000000" font-family="sans-serif" font-size="13" lengthAdjust="spacing" textLength="7" x="241.464" y="160.616">1</text><!--SRC=[VSuz2y8m40RWFR_YxDx1LKAcBaw2IjTofaUDjab8ha8G_xjHmVg1tdWyxtitym6x0Q77v4Q6E12ZHI4ywYDs12sTZAQ6aoSu2zrZZ53TTzkyaf8i6qvAIRbsZfNAw2BUN4LH1-FPE2jbZVr8iDeTI3ymv2cXQIS42zXmCBRBHP_tbjM_YaczTeWfdbq9nRpu_Ym7zXX_qsVjJLq1]--></g></svg>