<?xml version="1.0" encoding="us-ascii" standalone="no"?><svg xmlns="http://www.w3.org/2000/svg" xmlns:xlink="http://www.w3.org/1999/xlink" contentStyleType="text/css" height="430px" preserveAspectRatio="none" style="width:517px;height:430px;background:#FFFFFF;" version="1.1" viewBox="0 0 517 430" width="517px" zoomAndPan="magnify"><defs/><g><!--cluster house--><g id="cluster_house"><path d="M16.5,4 L61.5,4 A3.75,3.75 0 0 1 64,6.5 L71,28.6211 L507.5,28.6211 A2.5,2.5 0 0 1 510,31.1211 L510,420.5 A2.5,2.5 0 0 1 507.5,423 L16.5,423 A2.5,2.5 0 0 1 14,420.5 L14,6.5 A2.5,2.5 0 0 1 16.5,4 " fill="none" style="stroke:#000000;stroke-width:1.5;"/><line style="stroke:#000000;stroke-width:1.5;" x1="14" x2="71" y1="28.6211" y2="28.6211"/><text fill="#000000" font-family="sans-serif" font-size="14" font-weight="bold" lengthAdjust="spacing" textLength="44" x="18" y="21.1074">house</text></g><!--class House--><g id="elem_House"><rect codeLine="6" fill="#F1F1F1" height="76.543" id="House" rx="2.5" ry="2.5" style="stroke:#181818;stroke-width:0.5;" width="72" x="232" y="33"/><ellipse cx="247" cy="63.2715" fill="#ADD1B2" rx="11" ry="11" style="stroke:#181818;stroke-width:1.0;"/><path d="M249.7656,59.1465 Q249.9219,58.9277 250.1094,58.8184 Q250.2969,58.709 250.5156,58.709 Q250.8906,58.709 251.125,58.9746 Q251.3594,59.2246 251.3594,59.834 L251.3594,61.2871 Q251.3594,61.8965 251.125,62.1621 Q250.8906,62.4277 250.5156,62.4277 Q250.1719,62.4277 249.9688,62.2246 Q249.7656,62.0371 249.6563,61.5215 Q249.6094,61.1621 249.4219,60.9746 Q249.0938,60.5996 248.4844,60.3809 Q247.875,60.1621 247.25,60.1621 Q246.4844,60.1621 245.8438,60.4902 Q245.2188,60.8184 244.7188,61.5684 Q244.2344,62.3184 244.2344,63.3496 L244.2344,64.4434 Q244.2344,65.6777 245.125,66.5059 Q246.0156,67.3184 247.6094,67.3184 Q248.5469,67.3184 249.2031,67.0684 Q249.5938,66.9121 250.0156,66.4746 Q250.2813,66.209 250.4219,66.1309 Q250.5781,66.0527 250.7813,66.0527 Q251.1094,66.0527 251.3594,66.3184 Q251.625,66.5684 251.625,66.9121 Q251.625,67.2559 251.2813,67.6621 Q250.7813,68.2402 249.9844,68.5684 Q248.9063,69.0215 247.6094,69.0215 Q246.0938,69.0215 244.8906,68.3965 Q243.9063,67.8965 243.2188,66.834 Q242.5313,65.7559 242.5313,64.4746 L242.5313,63.3184 Q242.5313,61.9902 243.1406,60.8496 Q243.7656,59.6934 244.8594,59.084 Q245.9531,58.459 247.1875,58.459 Q247.9219,58.459 248.5625,58.6309 Q249.2188,58.7871 249.7656,59.1465 Z " fill="#000000"/><text fill="#000000" font-family="sans-serif" font-size="12" font-style="italic" lengthAdjust="spacing" textLength="43" x="259.5" y="50.9492">&#171;entity&#187;</text><text fill="#000000" font-family="sans-serif" font-size="12" font-style="italic" lengthAdjust="spacing" textLength="40" x="261" y="66.9102">&#171;Root&#187;</text><text fill="#000000" font-family="sans-serif" font-size="14" lengthAdjust="spacing" textLength="40" x="261" y="85.0293">House</text><line style="stroke:#181818;stroke-width:0.5;" x1="233" x2="303" y1="93.543" y2="93.543"/><line style="stroke:#181818;stroke-width:0.5;" x1="233" x2="303" y1="101.543" y2="101.543"/></g><!--class GPS--><g id="elem_GPS"><rect codeLine="9" fill="#F1F1F1" height="97.8242" id="GPS" rx="2.5" ry="2.5" style="stroke:#181818;stroke-width:0.5;" width="147" x="22.5" y="174"/><ellipse cx="55.05" cy="196.291" fill="#ADD1B2" rx="11" ry="11" style="stroke:#181818;stroke-width:1.0;"/><path d="M57.8156,192.166 Q57.9719,191.9473 58.1594,191.8379 Q58.3469,191.7285 58.5656,191.7285 Q58.9406,191.7285 59.175,191.9941 Q59.4094,192.2441 59.4094,192.8535 L59.4094,194.3066 Q59.4094,194.916 59.175,195.1816 Q58.9406,195.4473 58.5656,195.4473 Q58.2219,195.4473 58.0188,195.2441 Q57.8156,195.0566 57.7063,194.541 Q57.6594,194.1816 57.4719,193.9941 Q57.1438,193.6191 56.5344,193.4004 Q55.925,193.1816 55.3,193.1816 Q54.5344,193.1816 53.8938,193.5098 Q53.2688,193.8379 52.7688,194.5879 Q52.2844,195.3379 52.2844,196.3691 L52.2844,197.4629 Q52.2844,198.6973 53.175,199.5254 Q54.0656,200.3379 55.6594,200.3379 Q56.5969,200.3379 57.2531,200.0879 Q57.6438,199.9316 58.0656,199.4941 Q58.3313,199.2285 58.4719,199.1504 Q58.6281,199.0723 58.8313,199.0723 Q59.1594,199.0723 59.4094,199.3379 Q59.675,199.5879 59.675,199.9316 Q59.675,200.2754 59.3313,200.6816 Q58.8313,201.2598 58.0344,201.5879 Q56.9563,202.041 55.6594,202.041 Q54.1438,202.041 52.9406,201.416 Q51.9563,200.916 51.2688,199.8535 Q50.5813,198.7754 50.5813,197.4941 L50.5813,196.3379 Q50.5813,195.0098 51.1906,193.8691 Q51.8156,192.7129 52.9094,192.1035 Q54.0031,191.4785 55.2375,191.4785 Q55.9719,191.4785 56.6125,191.6504 Q57.2688,191.8066 57.8156,192.166 Z " fill="#000000"/><text fill="#000000" font-family="sans-serif" font-size="12" font-style="italic" lengthAdjust="spacing" textLength="80" x="70.95" y="191.9492">&#171;valueObject&#187;</text><text fill="#000000" font-family="sans-serif" font-size="14" lengthAdjust="spacing" textLength="29" x="96.45" y="210.0684">GPS</text><line style="stroke:#181818;stroke-width:0.5;" x1="23.5" x2="168.5" y1="218.582" y2="218.582"/><rect fill="none" height="6" style="stroke:#C82930;stroke-width:1.0;" width="6" x="30.5" y="230.3926"/><text fill="#000000" font-family="sans-serif" font-size="14" lengthAdjust="spacing" textLength="109" x="42.5" y="237.6895">_latitude : double</text><rect fill="none" height="6" style="stroke:#C82930;stroke-width:1.0;" width="6" x="30.5" y="249.0137"/><text fill="#000000" font-family="sans-serif" font-size="14" lengthAdjust="spacing" textLength="121" x="42.5" y="256.3105">_longitude : double</text><line style="stroke:#181818;stroke-width:0.5;" x1="23.5" x2="168.5" y1="263.8242" y2="263.8242"/></g><!--class Address--><g id="elem_Address"><rect codeLine="14" fill="#F1F1F1" height="116.4453" id="Address" rx="2.5" ry="2.5" style="stroke:#181818;stroke-width:0.5;" width="160" x="188" y="165"/><ellipse cx="226.4" cy="187.291" fill="#ADD1B2" rx="11" ry="11" style="stroke:#181818;stroke-width:1.0;"/><path d="M229.1656,183.166 Q229.3219,182.9473 229.5094,182.8379 Q229.6969,182.7285 229.9156,182.7285 Q230.2906,182.7285 230.525,182.9941 Q230.7594,183.2441 230.7594,183.8535 L230.7594,185.3066 Q230.7594,185.916 230.525,186.1816 Q230.2906,186.4473 229.9156,186.4473 Q229.5719,186.4473 229.3688,186.2441 Q229.1656,186.0566 229.0563,185.541 Q229.0094,185.1816 228.8219,184.9941 Q228.4938,184.6191 227.8844,184.4004 Q227.275,184.1816 226.65,184.1816 Q225.8844,184.1816 225.2438,184.5098 Q224.6188,184.8379 224.1188,185.5879 Q223.6344,186.3379 223.6344,187.3691 L223.6344,188.4629 Q223.6344,189.6973 224.525,190.5254 Q225.4156,191.3379 227.0094,191.3379 Q227.9469,191.3379 228.6031,191.0879 Q228.9938,190.9316 229.4156,190.4941 Q229.6813,190.2285 229.8219,190.1504 Q229.9781,190.0723 230.1813,190.0723 Q230.5094,190.0723 230.7594,190.3379 Q231.025,190.5879 231.025,190.9316 Q231.025,191.2754 230.6813,191.6816 Q230.1813,192.2598 229.3844,192.5879 Q228.3063,193.041 227.0094,193.041 Q225.4938,193.041 224.2906,192.416 Q223.3063,191.916 222.6188,190.8535 Q221.9313,189.7754 221.9313,188.4941 L221.9313,187.3379 Q221.9313,186.0098 222.5406,184.8691 Q223.1656,183.7129 224.2594,183.1035 Q225.3531,182.4785 226.5875,182.4785 Q227.3219,182.4785 227.9625,182.6504 Q228.6188,182.8066 229.1656,183.166 Z " fill="#000000"/><text fill="#000000" font-family="sans-serif" font-size="12" font-style="italic" lengthAdjust="spacing" textLength="80" x="243.6" y="182.9492">&#171;valueObject&#187;</text><text fill="#000000" font-family="sans-serif" font-size="14" lengthAdjust="spacing" textLength="52" x="257.6" y="201.0684">Address</text><line style="stroke:#181818;stroke-width:0.5;" x1="189" x2="347" y1="209.582" y2="209.582"/><rect fill="none" height="6" style="stroke:#C82930;stroke-width:1.0;" width="6" x="196" y="221.3926"/><text fill="#000000" font-family="sans-serif" font-size="14" lengthAdjust="spacing" textLength="93" x="208" y="228.6895">_street : String</text><rect fill="none" height="6" style="stroke:#C82930;stroke-width:1.0;" width="6" x="196" y="240.0137"/><text fill="#000000" font-family="sans-serif" font-size="14" lengthAdjust="spacing" textLength="113" x="208" y="247.3105">_doorNumber : int</text><rect fill="none" height="6" style="stroke:#C82930;stroke-width:1.0;" width="6" x="196" y="258.6348"/><text fill="#000000" font-family="sans-serif" font-size="14" lengthAdjust="spacing" textLength="134" x="208" y="265.9316">_countryCode: String</text><line style="stroke:#181818;stroke-width:0.5;" x1="189" x2="347" y1="273.4453" y2="273.4453"/></g><!--class PostalCodeImpl--><g id="elem_PostalCodeImpl"><rect codeLine="20" fill="#F1F1F1" height="79.2031" id="PostalCodeImpl" rx="2.5" ry="2.5" style="stroke:#181818;stroke-width:0.5;" width="155" x="190.5" y="336"/><ellipse cx="216.75" cy="358.291" fill="#ADD1B2" rx="11" ry="11" style="stroke:#181818;stroke-width:1.0;"/><path d="M219.5156,354.166 Q219.6719,353.9473 219.8594,353.8379 Q220.0469,353.7285 220.2656,353.7285 Q220.6406,353.7285 220.875,353.9941 Q221.1094,354.2441 221.1094,354.8535 L221.1094,356.3066 Q221.1094,356.916 220.875,357.1816 Q220.6406,357.4473 220.2656,357.4473 Q219.9219,357.4473 219.7188,357.2441 Q219.5156,357.0566 219.4063,356.541 Q219.3594,356.1816 219.1719,355.9941 Q218.8438,355.6191 218.2344,355.4004 Q217.625,355.1816 217,355.1816 Q216.2344,355.1816 215.5938,355.5098 Q214.9688,355.8379 214.4688,356.5879 Q213.9844,357.3379 213.9844,358.3691 L213.9844,359.4629 Q213.9844,360.6973 214.875,361.5254 Q215.7656,362.3379 217.3594,362.3379 Q218.2969,362.3379 218.9531,362.0879 Q219.3438,361.9316 219.7656,361.4941 Q220.0313,361.2285 220.1719,361.1504 Q220.3281,361.0723 220.5313,361.0723 Q220.8594,361.0723 221.1094,361.3379 Q221.375,361.5879 221.375,361.9316 Q221.375,362.2754 221.0313,362.6816 Q220.5313,363.2598 219.7344,363.5879 Q218.6563,364.041 217.3594,364.041 Q215.8438,364.041 214.6406,363.416 Q213.6563,362.916 212.9688,361.8535 Q212.2813,360.7754 212.2813,359.4941 L212.2813,358.3379 Q212.2813,357.0098 212.8906,355.8691 Q213.5156,354.7129 214.6094,354.1035 Q215.7031,353.4785 216.9375,353.4785 Q217.6719,353.4785 218.3125,353.6504 Q218.9688,353.8066 219.5156,354.166 Z " fill="#000000"/><text fill="#000000" font-family="sans-serif" font-size="12" font-style="italic" lengthAdjust="spacing" textLength="80" x="242.25" y="353.9492">&#171;valueObject&#187;</text><text fill="#000000" font-family="sans-serif" font-size="14" lengthAdjust="spacing" textLength="98" x="233.25" y="372.0684">PostalCodeImpl</text><line style="stroke:#181818;stroke-width:0.5;" x1="191.5" x2="344.5" y1="380.582" y2="380.582"/><rect fill="none" height="6" style="stroke:#C82930;stroke-width:1.0;" width="6" x="198.5" y="392.3926"/><text fill="#000000" font-family="sans-serif" font-size="14" lengthAdjust="spacing" textLength="129" x="210.5" y="399.6895">_postalCode : String</text><line style="stroke:#181818;stroke-width:0.5;" x1="191.5" x2="344.5" y1="407.2031" y2="407.2031"/></g><!--class HouseID--><g id="elem_HouseID"><rect codeLine="25" fill="#F1F1F1" height="79.2031" id="HouseID" rx="2.5" ry="2.5" style="stroke:#181818;stroke-width:0.5;" width="135" x="366.5" y="183.5"/><ellipse cx="393.65" cy="205.791" fill="#ADD1B2" rx="11" ry="11" style="stroke:#181818;stroke-width:1.0;"/><path d="M396.4156,201.666 Q396.5719,201.4473 396.7594,201.3379 Q396.9469,201.2285 397.1656,201.2285 Q397.5406,201.2285 397.775,201.4941 Q398.0094,201.7441 398.0094,202.3535 L398.0094,203.8066 Q398.0094,204.416 397.775,204.6816 Q397.5406,204.9473 397.1656,204.9473 Q396.8219,204.9473 396.6188,204.7441 Q396.4156,204.5566 396.3063,204.041 Q396.2594,203.6816 396.0719,203.4941 Q395.7438,203.1191 395.1344,202.9004 Q394.525,202.6816 393.9,202.6816 Q393.1344,202.6816 392.4938,203.0098 Q391.8688,203.3379 391.3688,204.0879 Q390.8844,204.8379 390.8844,205.8691 L390.8844,206.9629 Q390.8844,208.1973 391.775,209.0254 Q392.6656,209.8379 394.2594,209.8379 Q395.1969,209.8379 395.8531,209.5879 Q396.2438,209.4316 396.6656,208.9941 Q396.9313,208.7285 397.0719,208.6504 Q397.2281,208.5723 397.4313,208.5723 Q397.7594,208.5723 398.0094,208.8379 Q398.275,209.0879 398.275,209.4316 Q398.275,209.7754 397.9313,210.1816 Q397.4313,210.7598 396.6344,211.0879 Q395.5563,211.541 394.2594,211.541 Q392.7438,211.541 391.5406,210.916 Q390.5563,210.416 389.8688,209.3535 Q389.1813,208.2754 389.1813,206.9941 L389.1813,205.8379 Q389.1813,204.5098 389.7906,203.3691 Q390.4156,202.2129 391.5094,201.6035 Q392.6031,200.9785 393.8375,200.9785 Q394.5719,200.9785 395.2125,201.1504 Q395.8688,201.3066 396.4156,201.666 Z " fill="#000000"/><text fill="#000000" font-family="sans-serif" font-size="12" font-style="italic" lengthAdjust="spacing" textLength="80" x="408.35" y="201.4492">&#171;valueObject&#187;</text><text fill="#000000" font-family="sans-serif" font-size="14" lengthAdjust="spacing" textLength="53" x="421.85" y="219.5684">HouseID</text><line style="stroke:#181818;stroke-width:0.5;" x1="367.5" x2="500.5" y1="228.082" y2="228.082"/><rect fill="none" height="6" style="stroke:#C82930;stroke-width:1.0;" width="6" x="374.5" y="239.8926"/><text fill="#000000" font-family="sans-serif" font-size="14" lengthAdjust="spacing" textLength="109" x="386.5" y="247.1895">_houseID : String</text><line style="stroke:#181818;stroke-width:0.5;" x1="367.5" x2="500.5" y1="254.7031" y2="254.7031"/></g><path d="M304.0195,104.9393 C329.5748,127.9544 363.9898,158.9486 390.9877,183.263 " fill="none" style="stroke:#181818;stroke-width:1.0;"/><text fill="#000000" font-family="sans-serif" font-size="13" lengthAdjust="spacing" textLength="21" x="347" y="143.0283">has</text><text fill="#000000" font-family="sans-serif" font-size="13" lengthAdjust="spacing" textLength="7" x="382.9877" y="179.2914">1</text><path d="M231.9432,103.8401 C208.5969,124.1324 177.7359,150.9563 151.3195,173.917 " fill="none" style="stroke:#181818;stroke-width:1.0;"/><text fill="#000000" font-family="sans-serif" font-size="13" lengthAdjust="spacing" textLength="21" x="203" y="143.0283">has</text><text fill="#000000" font-family="sans-serif" font-size="13" lengthAdjust="spacing" textLength="7" x="143.3195" y="169.9453">1</text><path d="M268,110.2252 C268,126.7467 268,146.4967 268,164.7671 " fill="none" style="stroke:#181818;stroke-width:1.0;"/><text fill="#000000" font-family="sans-serif" font-size="13" lengthAdjust="spacing" textLength="21" x="269" y="143.0283">has</text><text fill="#000000" font-family="sans-serif" font-size="13" lengthAdjust="spacing" textLength="7" x="260" y="160.7955">1</text><path d="M268,281.3269 C268,299.6021 268,319.3747 268,335.9837 " fill="none" style="stroke:#181818;stroke-width:1.0;"/><text fill="#000000" font-family="sans-serif" font-size="13" lengthAdjust="spacing" textLength="21" x="269" y="314.0283">has</text><text fill="#000000" font-family="sans-serif" font-size="13" lengthAdjust="spacing" textLength="7" x="260" y="332.012">1</text><!--SRC=[TP71JiCm38RlVGgp2wTISQscIGWas0KczW38RQos8uchn46g9jwThAM5LcikSVp__gpOjxL8w_CiQpLQ2KRVbMooKgFtgMgmScYIczPXPH0qTXm4l251YqdIOlc95K7DmHESamJYwKlXfKzjjsIbaMwtY-4xiyJWtBk-_vkV3yUeVw4Ez5QSgFopfV2XCHA28iX1SIWqJGBRweeo8pyevIZUgtGlZaWYuIYkiTMOLipkDPY2N9GQAsE-v635TO-iQ5OoQtfWBwWldhrfzNhlTlB14hQSvFvf7LF_6XQCI1cM06aAc_lD1CgXHh_GBXkubX_dDsZZQrGN7nrCFm00]--></g></svg>