<?xml version="1.0" encoding="us-ascii" standalone="no"?><svg xmlns="http://www.w3.org/2000/svg" xmlns:xlink="http://www.w3.org/1999/xlink" contentStyleType="text/css" height="275px" preserveAspectRatio="none" style="width:1307px;height:275px;background:#FFFFFF;" version="1.1" viewBox="0 0 1307 275" width="1307px" zoomAndPan="magnify"><defs/><g><!--cluster log--><g id="cluster_log"><path d="M16.5,4 L39.5,4 A3.75,3.75 0 0 1 42,6.5 L49,28.6211 L1297.5,28.6211 A2.5,2.5 0 0 1 1300,31.1211 L1300,265.5 A2.5,2.5 0 0 1 1297.5,268 L16.5,268 A2.5,2.5 0 0 1 14,265.5 L14,6.5 A2.5,2.5 0 0 1 16.5,4 " fill="none" style="stroke:#000000;stroke-width:1.5;"/><line style="stroke:#000000;stroke-width:1.5;" x1="14" x2="49" y1="28.6211" y2="28.6211"/><text fill="#000000" font-family="sans-serif" font-size="14" font-weight="bold" lengthAdjust="spacing" textLength="22" x="18" y="21.1074">log</text></g><!--class Log--><g id="elem_Log"><rect codeLine="4" fill="#F1F1F1" height="76.543" id="Log" rx="2.5" ry="2.5" style="stroke:#181818;stroke-width:0.5;" width="72" x="588" y="33"/><ellipse cx="603" cy="63.2715" fill="#ADD1B2" rx="11" ry="11" style="stroke:#181818;stroke-width:1.0;"/><path d="M605.7656,59.1465 Q605.9219,58.9277 606.1094,58.8184 Q606.2969,58.709 606.5156,58.709 Q606.8906,58.709 607.125,58.9746 Q607.3594,59.2246 607.3594,59.834 L607.3594,61.2871 Q607.3594,61.8965 607.125,62.1621 Q606.8906,62.4277 606.5156,62.4277 Q606.1719,62.4277 605.9688,62.2246 Q605.7656,62.0371 605.6563,61.5215 Q605.6094,61.1621 605.4219,60.9746 Q605.0938,60.5996 604.4844,60.3809 Q603.875,60.1621 603.25,60.1621 Q602.4844,60.1621 601.8438,60.4902 Q601.2188,60.8184 600.7188,61.5684 Q600.2344,62.3184 600.2344,63.3496 L600.2344,64.4434 Q600.2344,65.6777 601.125,66.5059 Q602.0156,67.3184 603.6094,67.3184 Q604.5469,67.3184 605.2031,67.0684 Q605.5938,66.9121 606.0156,66.4746 Q606.2813,66.209 606.4219,66.1309 Q606.5781,66.0527 606.7813,66.0527 Q607.1094,66.0527 607.3594,66.3184 Q607.625,66.5684 607.625,66.9121 Q607.625,67.2559 607.2813,67.6621 Q606.7813,68.2402 605.9844,68.5684 Q604.9063,69.0215 603.6094,69.0215 Q602.0938,69.0215 600.8906,68.3965 Q599.9063,67.8965 599.2188,66.834 Q598.5313,65.7559 598.5313,64.4746 L598.5313,63.3184 Q598.5313,61.9902 599.1406,60.8496 Q599.7656,59.6934 600.8594,59.084 Q601.9531,58.459 603.1875,58.459 Q603.9219,58.459 604.5625,58.6309 Q605.2188,58.7871 605.7656,59.1465 Z " fill="#000000"/><text fill="#000000" font-family="sans-serif" font-size="12" font-style="italic" lengthAdjust="spacing" textLength="44" x="615" y="50.9492">&#171;Entity&#187;</text><text fill="#000000" font-family="sans-serif" font-size="12" font-style="italic" lengthAdjust="spacing" textLength="40" x="617" y="66.9102">&#171;Root&#187;</text><text fill="#000000" font-family="sans-serif" font-size="14" lengthAdjust="spacing" textLength="24" x="625" y="85.0293">Log</text><line style="stroke:#181818;stroke-width:0.5;" x1="589" x2="659" y1="93.543" y2="93.543"/><line style="stroke:#181818;stroke-width:0.5;" x1="589" x2="659" y1="101.543" y2="101.543"/></g><!--class LogID--><g id="elem_LogID"><rect codeLine="7" fill="#F1F1F1" height="95.1641" id="LogID" rx="2.5" ry="2.5" style="stroke:#181818;stroke-width:0.5;" width="115" x="22.5" y="165"/><ellipse cx="39.75" cy="195.2715" fill="#ADD1B2" rx="11" ry="11" style="stroke:#181818;stroke-width:1.0;"/><path d="M42.5156,191.1465 Q42.6719,190.9277 42.8594,190.8184 Q43.0469,190.709 43.2656,190.709 Q43.6406,190.709 43.875,190.9746 Q44.1094,191.2246 44.1094,191.834 L44.1094,193.2871 Q44.1094,193.8965 43.875,194.1621 Q43.6406,194.4277 43.2656,194.4277 Q42.9219,194.4277 42.7188,194.2246 Q42.5156,194.0371 42.4063,193.5215 Q42.3594,193.1621 42.1719,192.9746 Q41.8438,192.5996 41.2344,192.3809 Q40.625,192.1621 40,192.1621 Q39.2344,192.1621 38.5938,192.4902 Q37.9688,192.8184 37.4688,193.5684 Q36.9844,194.3184 36.9844,195.3496 L36.9844,196.4434 Q36.9844,197.6777 37.875,198.5059 Q38.7656,199.3184 40.3594,199.3184 Q41.2969,199.3184 41.9531,199.0684 Q42.3438,198.9121 42.7656,198.4746 Q43.0313,198.209 43.1719,198.1309 Q43.3281,198.0527 43.5313,198.0527 Q43.8594,198.0527 44.1094,198.3184 Q44.375,198.5684 44.375,198.9121 Q44.375,199.2559 44.0313,199.6621 Q43.5313,200.2402 42.7344,200.5684 Q41.6563,201.0215 40.3594,201.0215 Q38.8438,201.0215 37.6406,200.3965 Q36.6563,199.8965 35.9688,198.834 Q35.2813,197.7559 35.2813,196.4746 L35.2813,195.3184 Q35.2813,193.9902 35.8906,192.8496 Q36.5156,191.6934 37.6094,191.084 Q38.7031,190.459 39.9375,190.459 Q40.6719,190.459 41.3125,190.6309 Q41.9688,190.7871 42.5156,191.1465 Z " fill="#000000"/><text fill="#000000" font-family="sans-serif" font-size="12" font-style="italic" lengthAdjust="spacing" textLength="82" x="52.25" y="182.9492">&#171;ValueObject&#187;</text><text fill="#000000" font-family="sans-serif" font-size="12" font-style="italic" lengthAdjust="spacing" textLength="27" x="79.75" y="198.9102">&#171;ID&#187;</text><text fill="#000000" font-family="sans-serif" font-size="14" lengthAdjust="spacing" textLength="37" x="74.75" y="217.0293">LogID</text><line style="stroke:#181818;stroke-width:0.5;" x1="23.5" x2="136.5" y1="225.543" y2="225.543"/><rect fill="none" height="6" style="stroke:#C82930;stroke-width:1.0;" width="6" x="30.5" y="237.3535"/><text fill="#000000" font-family="sans-serif" font-size="14" lengthAdjust="spacing" textLength="89" x="42.5" y="244.6504">_logID : LogID</text><line style="stroke:#181818;stroke-width:0.5;" x1="23.5" x2="136.5" y1="252.1641" y2="252.1641"/></g><!--class DeviceID--><g id="elem_DeviceID"><rect codeLine="10" fill="#F1F1F1" height="95.1641" id="DeviceID" rx="2.5" ry="2.5" style="stroke:#181818;stroke-width:0.5;" width="156" x="156" y="165"/><ellipse cx="191.7" cy="195.2715" fill="#ADD1B2" rx="11" ry="11" style="stroke:#181818;stroke-width:1.0;"/><path d="M194.4656,191.1465 Q194.6219,190.9277 194.8094,190.8184 Q194.9969,190.709 195.2156,190.709 Q195.5906,190.709 195.825,190.9746 Q196.0594,191.2246 196.0594,191.834 L196.0594,193.2871 Q196.0594,193.8965 195.825,194.1621 Q195.5906,194.4277 195.2156,194.4277 Q194.8719,194.4277 194.6688,194.2246 Q194.4656,194.0371 194.3563,193.5215 Q194.3094,193.1621 194.1219,192.9746 Q193.7938,192.5996 193.1844,192.3809 Q192.575,192.1621 191.95,192.1621 Q191.1844,192.1621 190.5438,192.4902 Q189.9188,192.8184 189.4188,193.5684 Q188.9344,194.3184 188.9344,195.3496 L188.9344,196.4434 Q188.9344,197.6777 189.825,198.5059 Q190.7156,199.3184 192.3094,199.3184 Q193.2469,199.3184 193.9031,199.0684 Q194.2938,198.9121 194.7156,198.4746 Q194.9813,198.209 195.1219,198.1309 Q195.2781,198.0527 195.4813,198.0527 Q195.8094,198.0527 196.0594,198.3184 Q196.325,198.5684 196.325,198.9121 Q196.325,199.2559 195.9813,199.6621 Q195.4813,200.2402 194.6844,200.5684 Q193.6063,201.0215 192.3094,201.0215 Q190.7938,201.0215 189.5906,200.3965 Q188.6063,199.8965 187.9188,198.834 Q187.2313,197.7559 187.2313,196.4746 L187.2313,195.3184 Q187.2313,193.9902 187.8406,192.8496 Q188.4656,191.6934 189.5594,191.084 Q190.6531,190.459 191.8875,190.459 Q192.6219,190.459 193.2625,190.6309 Q193.9188,190.7871 194.4656,191.1465 Z " fill="#000000"/><text fill="#000000" font-family="sans-serif" font-size="12" font-style="italic" lengthAdjust="spacing" textLength="82" x="208.3" y="182.9492">&#171;ValueObject&#187;</text><text fill="#000000" font-family="sans-serif" font-size="12" font-style="italic" lengthAdjust="spacing" textLength="27" x="235.8" y="198.9102">&#171;ID&#187;</text><text fill="#000000" font-family="sans-serif" font-size="14" lengthAdjust="spacing" textLength="56" x="221.3" y="217.0293">DeviceID</text><line style="stroke:#181818;stroke-width:0.5;" x1="157" x2="311" y1="225.543" y2="225.543"/><rect fill="none" height="6" style="stroke:#C82930;stroke-width:1.0;" width="6" x="164" y="237.3535"/><text fill="#000000" font-family="sans-serif" font-size="14" lengthAdjust="spacing" textLength="130" x="176" y="244.6504">_deviceID : DeviceID</text><line style="stroke:#181818;stroke-width:0.5;" x1="157" x2="311" y1="252.1641" y2="252.1641"/></g><!--class SensorID--><g id="elem_SensorID"><rect codeLine="13" fill="#F1F1F1" height="95.1641" id="SensorID" rx="2.5" ry="2.5" style="stroke:#181818;stroke-width:0.5;" width="160" x="330" y="165"/><ellipse cx="367.5" cy="195.2715" fill="#ADD1B2" rx="11" ry="11" style="stroke:#181818;stroke-width:1.0;"/><path d="M370.2656,191.1465 Q370.4219,190.9277 370.6094,190.8184 Q370.7969,190.709 371.0156,190.709 Q371.3906,190.709 371.625,190.9746 Q371.8594,191.2246 371.8594,191.834 L371.8594,193.2871 Q371.8594,193.8965 371.625,194.1621 Q371.3906,194.4277 371.0156,194.4277 Q370.6719,194.4277 370.4688,194.2246 Q370.2656,194.0371 370.1563,193.5215 Q370.1094,193.1621 369.9219,192.9746 Q369.5938,192.5996 368.9844,192.3809 Q368.375,192.1621 367.75,192.1621 Q366.9844,192.1621 366.3438,192.4902 Q365.7188,192.8184 365.2188,193.5684 Q364.7344,194.3184 364.7344,195.3496 L364.7344,196.4434 Q364.7344,197.6777 365.625,198.5059 Q366.5156,199.3184 368.1094,199.3184 Q369.0469,199.3184 369.7031,199.0684 Q370.0938,198.9121 370.5156,198.4746 Q370.7813,198.209 370.9219,198.1309 Q371.0781,198.0527 371.2813,198.0527 Q371.6094,198.0527 371.8594,198.3184 Q372.125,198.5684 372.125,198.9121 Q372.125,199.2559 371.7813,199.6621 Q371.2813,200.2402 370.4844,200.5684 Q369.4063,201.0215 368.1094,201.0215 Q366.5938,201.0215 365.3906,200.3965 Q364.4063,199.8965 363.7188,198.834 Q363.0313,197.7559 363.0313,196.4746 L363.0313,195.3184 Q363.0313,193.9902 363.6406,192.8496 Q364.2656,191.6934 365.3594,191.084 Q366.4531,190.459 367.6875,190.459 Q368.4219,190.459 369.0625,190.6309 Q369.7188,190.7871 370.2656,191.1465 Z " fill="#000000"/><text fill="#000000" font-family="sans-serif" font-size="12" font-style="italic" lengthAdjust="spacing" textLength="82" x="384.5" y="182.9492">&#171;ValueObject&#187;</text><text fill="#000000" font-family="sans-serif" font-size="12" font-style="italic" lengthAdjust="spacing" textLength="27" x="412" y="198.9102">&#171;ID&#187;</text><text fill="#000000" font-family="sans-serif" font-size="14" lengthAdjust="spacing" textLength="58" x="396.5" y="217.0293">SensorID</text><line style="stroke:#181818;stroke-width:0.5;" x1="331" x2="489" y1="225.543" y2="225.543"/><rect fill="none" height="6" style="stroke:#C82930;stroke-width:1.0;" width="6" x="338" y="237.3535"/><text fill="#000000" font-family="sans-serif" font-size="14" lengthAdjust="spacing" textLength="134" x="350" y="244.6504">_sensorID : SensorID</text><line style="stroke:#181818;stroke-width:0.5;" x1="331" x2="489" y1="252.1641" y2="252.1641"/></g><!--class LocalDateTime--><g id="elem_LocalDateTime"><rect codeLine="16" fill="#F1F1F1" height="79.2031" id="LocalDateTime" rx="2.5" ry="2.5" style="stroke:#181818;stroke-width:0.5;" width="231" x="508.5" y="173"/><ellipse cx="572.25" cy="195.291" fill="#ADD1B2" rx="11" ry="11" style="stroke:#181818;stroke-width:1.0;"/><path d="M575.0156,191.166 Q575.1719,190.9473 575.3594,190.8379 Q575.5469,190.7285 575.7656,190.7285 Q576.1406,190.7285 576.375,190.9941 Q576.6094,191.2441 576.6094,191.8535 L576.6094,193.3066 Q576.6094,193.916 576.375,194.1816 Q576.1406,194.4473 575.7656,194.4473 Q575.4219,194.4473 575.2188,194.2441 Q575.0156,194.0566 574.9063,193.541 Q574.8594,193.1816 574.6719,192.9941 Q574.3438,192.6191 573.7344,192.4004 Q573.125,192.1816 572.5,192.1816 Q571.7344,192.1816 571.0938,192.5098 Q570.4688,192.8379 569.9688,193.5879 Q569.4844,194.3379 569.4844,195.3691 L569.4844,196.4629 Q569.4844,197.6973 570.375,198.5254 Q571.2656,199.3379 572.8594,199.3379 Q573.7969,199.3379 574.4531,199.0879 Q574.8438,198.9316 575.2656,198.4941 Q575.5313,198.2285 575.6719,198.1504 Q575.8281,198.0723 576.0313,198.0723 Q576.3594,198.0723 576.6094,198.3379 Q576.875,198.5879 576.875,198.9316 Q576.875,199.2754 576.5313,199.6816 Q576.0313,200.2598 575.2344,200.5879 Q574.1563,201.041 572.8594,201.041 Q571.3438,201.041 570.1406,200.416 Q569.1563,199.916 568.4688,198.8535 Q567.7813,197.7754 567.7813,196.4941 L567.7813,195.3379 Q567.7813,194.0098 568.3906,192.8691 Q569.0156,191.7129 570.1094,191.1035 Q571.2031,190.4785 572.4375,190.4785 Q573.1719,190.4785 573.8125,190.6504 Q574.4688,190.8066 575.0156,191.166 Z " fill="#000000"/><text fill="#000000" font-family="sans-serif" font-size="12" font-style="italic" lengthAdjust="spacing" textLength="82" x="599.25" y="190.9492">&#171;ValueObject&#187;</text><text fill="#000000" font-family="sans-serif" font-size="14" lengthAdjust="spacing" textLength="95" x="592.75" y="209.0684">LocalDateTime</text><line style="stroke:#181818;stroke-width:0.5;" x1="509.5" x2="738.5" y1="217.582" y2="217.582"/><rect fill="none" height="6" style="stroke:#C82930;stroke-width:1.0;" width="6" x="516.5" y="229.3926"/><text fill="#000000" font-family="sans-serif" font-size="14" lengthAdjust="spacing" textLength="205" x="528.5" y="236.6895">_localDateTime : LocalDateTime</text><line style="stroke:#181818;stroke-width:0.5;" x1="509.5" x2="738.5" y1="244.2031" y2="244.2031"/></g><!--class ReadingValue--><g id="elem_ReadingValue"><rect codeLine="19" fill="#F1F1F1" height="79.2031" id="ReadingValue" rx="2.5" ry="2.5" style="stroke:#181818;stroke-width:0.5;" width="183" x="757.5" y="173"/><ellipse cx="800.4" cy="195.291" fill="#ADD1B2" rx="11" ry="11" style="stroke:#181818;stroke-width:1.0;"/><path d="M803.1656,191.166 Q803.3219,190.9473 803.5094,190.8379 Q803.6969,190.7285 803.9156,190.7285 Q804.2906,190.7285 804.525,190.9941 Q804.7594,191.2441 804.7594,191.8535 L804.7594,193.3066 Q804.7594,193.916 804.525,194.1816 Q804.2906,194.4473 803.9156,194.4473 Q803.5719,194.4473 803.3688,194.2441 Q803.1656,194.0566 803.0563,193.541 Q803.0094,193.1816 802.8219,192.9941 Q802.4938,192.6191 801.8844,192.4004 Q801.275,192.1816 800.65,192.1816 Q799.8844,192.1816 799.2438,192.5098 Q798.6188,192.8379 798.1188,193.5879 Q797.6344,194.3379 797.6344,195.3691 L797.6344,196.4629 Q797.6344,197.6973 798.525,198.5254 Q799.4156,199.3379 801.0094,199.3379 Q801.9469,199.3379 802.6031,199.0879 Q802.9938,198.9316 803.4156,198.4941 Q803.6813,198.2285 803.8219,198.1504 Q803.9781,198.0723 804.1813,198.0723 Q804.5094,198.0723 804.7594,198.3379 Q805.025,198.5879 805.025,198.9316 Q805.025,199.2754 804.6813,199.6816 Q804.1813,200.2598 803.3844,200.5879 Q802.3063,201.041 801.0094,201.041 Q799.4938,201.041 798.2906,200.416 Q797.3063,199.916 796.6188,198.8535 Q795.9313,197.7754 795.9313,196.4941 L795.9313,195.3379 Q795.9313,194.0098 796.5406,192.8691 Q797.1656,191.7129 798.2594,191.1035 Q799.3531,190.4785 800.5875,190.4785 Q801.3219,190.4785 801.9625,190.6504 Q802.6188,190.8066 803.1656,191.166 Z " fill="#000000"/><text fill="#000000" font-family="sans-serif" font-size="12" font-style="italic" lengthAdjust="spacing" textLength="82" x="824.1" y="190.9492">&#171;ValueObject&#187;</text><text fill="#000000" font-family="sans-serif" font-size="14" lengthAdjust="spacing" textLength="89" x="820.6" y="209.0684">ReadingValue</text><line style="stroke:#181818;stroke-width:0.5;" x1="758.5" x2="939.5" y1="217.582" y2="217.582"/><rect fill="none" height="6" style="stroke:#C82930;stroke-width:1.0;" width="6" x="765.5" y="229.3926"/><text fill="#000000" font-family="sans-serif" font-size="14" lengthAdjust="spacing" textLength="157" x="777.5" y="236.6895">_reading : ReadingValue</text><line style="stroke:#181818;stroke-width:0.5;" x1="758.5" x2="939.5" y1="244.2031" y2="244.2031"/></g><!--class SensorTypeID--><g id="elem_SensorTypeID"><rect codeLine="22" fill="#F1F1F1" height="95.1641" id="SensorTypeID" rx="2.5" ry="2.5" style="stroke:#181818;stroke-width:0.5;" width="205" x="958.5" y="165"/><ellipse cx="1011.75" cy="195.2715" fill="#ADD1B2" rx="11" ry="11" style="stroke:#181818;stroke-width:1.0;"/><path d="M1014.5156,191.1465 Q1014.6719,190.9277 1014.8594,190.8184 Q1015.0469,190.709 1015.2656,190.709 Q1015.6406,190.709 1015.875,190.9746 Q1016.1094,191.2246 1016.1094,191.834 L1016.1094,193.2871 Q1016.1094,193.8965 1015.875,194.1621 Q1015.6406,194.4277 1015.2656,194.4277 Q1014.9219,194.4277 1014.7188,194.2246 Q1014.5156,194.0371 1014.4063,193.5215 Q1014.3594,193.1621 1014.1719,192.9746 Q1013.8438,192.5996 1013.2344,192.3809 Q1012.625,192.1621 1012,192.1621 Q1011.2344,192.1621 1010.5938,192.4902 Q1009.9688,192.8184 1009.4688,193.5684 Q1008.9844,194.3184 1008.9844,195.3496 L1008.9844,196.4434 Q1008.9844,197.6777 1009.875,198.5059 Q1010.7656,199.3184 1012.3594,199.3184 Q1013.2969,199.3184 1013.9531,199.0684 Q1014.3438,198.9121 1014.7656,198.4746 Q1015.0313,198.209 1015.1719,198.1309 Q1015.3281,198.0527 1015.5313,198.0527 Q1015.8594,198.0527 1016.1094,198.3184 Q1016.375,198.5684 1016.375,198.9121 Q1016.375,199.2559 1016.0313,199.6621 Q1015.5313,200.2402 1014.7344,200.5684 Q1013.6563,201.0215 1012.3594,201.0215 Q1010.8438,201.0215 1009.6406,200.3965 Q1008.6563,199.8965 1007.9688,198.834 Q1007.2813,197.7559 1007.2813,196.4746 L1007.2813,195.3184 Q1007.2813,193.9902 1007.8906,192.8496 Q1008.5156,191.6934 1009.6094,191.084 Q1010.7031,190.459 1011.9375,190.459 Q1012.6719,190.459 1013.3125,190.6309 Q1013.9688,190.7871 1014.5156,191.1465 Z " fill="#000000"/><text fill="#000000" font-family="sans-serif" font-size="12" font-style="italic" lengthAdjust="spacing" textLength="82" x="1036.25" y="182.9492">&#171;ValueObject&#187;</text><text fill="#000000" font-family="sans-serif" font-size="12" font-style="italic" lengthAdjust="spacing" textLength="27" x="1063.75" y="198.9102">&#171;ID&#187;</text><text fill="#000000" font-family="sans-serif" font-size="14" lengthAdjust="spacing" textLength="90" x="1032.25" y="217.0293">SensorTypeID</text><line style="stroke:#181818;stroke-width:0.5;" x1="959.5" x2="1162.5" y1="225.543" y2="225.543"/><rect fill="none" height="6" style="stroke:#C82930;stroke-width:1.0;" width="6" x="966.5" y="237.3535"/><text fill="#000000" font-family="sans-serif" font-size="14" lengthAdjust="spacing" textLength="179" x="978.5" y="244.6504">_description : SensorTypeID</text><line style="stroke:#181818;stroke-width:0.5;" x1="959.5" x2="1162.5" y1="252.1641" y2="252.1641"/></g><!--class UnitID--><g id="elem_UnitID"><rect codeLine="25" fill="#F1F1F1" height="95.1641" id="UnitID" rx="2.5" ry="2.5" style="stroke:#181818;stroke-width:0.5;" width="110" x="1182" y="165"/><ellipse cx="1197" cy="195.2715" fill="#ADD1B2" rx="11" ry="11" style="stroke:#181818;stroke-width:1.0;"/><path d="M1199.7656,191.1465 Q1199.9219,190.9277 1200.1094,190.8184 Q1200.2969,190.709 1200.5156,190.709 Q1200.8906,190.709 1201.125,190.9746 Q1201.3594,191.2246 1201.3594,191.834 L1201.3594,193.2871 Q1201.3594,193.8965 1201.125,194.1621 Q1200.8906,194.4277 1200.5156,194.4277 Q1200.1719,194.4277 1199.9688,194.2246 Q1199.7656,194.0371 1199.6563,193.5215 Q1199.6094,193.1621 1199.4219,192.9746 Q1199.0938,192.5996 1198.4844,192.3809 Q1197.875,192.1621 1197.25,192.1621 Q1196.4844,192.1621 1195.8438,192.4902 Q1195.2188,192.8184 1194.7188,193.5684 Q1194.2344,194.3184 1194.2344,195.3496 L1194.2344,196.4434 Q1194.2344,197.6777 1195.125,198.5059 Q1196.0156,199.3184 1197.6094,199.3184 Q1198.5469,199.3184 1199.2031,199.0684 Q1199.5938,198.9121 1200.0156,198.4746 Q1200.2813,198.209 1200.4219,198.1309 Q1200.5781,198.0527 1200.7813,198.0527 Q1201.1094,198.0527 1201.3594,198.3184 Q1201.625,198.5684 1201.625,198.9121 Q1201.625,199.2559 1201.2813,199.6621 Q1200.7813,200.2402 1199.9844,200.5684 Q1198.9063,201.0215 1197.6094,201.0215 Q1196.0938,201.0215 1194.8906,200.3965 Q1193.9063,199.8965 1193.2188,198.834 Q1192.5313,197.7559 1192.5313,196.4746 L1192.5313,195.3184 Q1192.5313,193.9902 1193.1406,192.8496 Q1193.7656,191.6934 1194.8594,191.084 Q1195.9531,190.459 1197.1875,190.459 Q1197.9219,190.459 1198.5625,190.6309 Q1199.2188,190.7871 1199.7656,191.1465 Z " fill="#000000"/><text fill="#000000" font-family="sans-serif" font-size="12" font-style="italic" lengthAdjust="spacing" textLength="82" x="1209" y="182.9492">&#171;ValueObject&#187;</text><text fill="#000000" font-family="sans-serif" font-size="12" font-style="italic" lengthAdjust="spacing" textLength="27" x="1236.5" y="198.9102">&#171;ID&#187;</text><text fill="#000000" font-family="sans-serif" font-size="14" lengthAdjust="spacing" textLength="37" x="1231.5" y="217.0293">UnitID</text><line style="stroke:#181818;stroke-width:0.5;" x1="1183" x2="1291" y1="225.543" y2="225.543"/><rect fill="none" height="6" style="stroke:#C82930;stroke-width:1.0;" width="6" x="1190" y="237.3535"/><text fill="#000000" font-family="sans-serif" font-size="14" lengthAdjust="spacing" textLength="80" x="1202" y="244.6504">_unit : UnitID</text><line style="stroke:#181818;stroke-width:0.5;" x1="1183" x2="1291" y1="252.1641" y2="252.1641"/></g><path d="M587.826,74.4304 C506.1471,79.8587 302.45,99.437 147,165 C143.869,166.3206 140.7361,167.8022 137.6293,169.4031 " fill="none" style="stroke:#181818;stroke-width:1.0;"/><text fill="#000000" font-family="sans-serif" font-size="13" lengthAdjust="spacing" textLength="21" x="249" y="143.0283">has</text><text fill="#000000" font-family="sans-serif" font-size="13" lengthAdjust="spacing" textLength="7" x="138.6293" y="165.4314">1</text><path d="M587.758,81.1252 C530.1038,95.3838 414.4641,126.1902 321,165 C318.153,166.1822 315.2762,167.428 312.3879,168.7227 " fill="none" style="stroke:#181818;stroke-width:1.0;"/><text fill="#000000" font-family="sans-serif" font-size="13" lengthAdjust="spacing" textLength="21" x="420" y="143.0283">has</text><text fill="#000000" font-family="sans-serif" font-size="13" lengthAdjust="spacing" textLength="7" x="313.3879" y="164.751">1</text><path d="M587.6978,96.0795 C558.7205,114.9012 517.2218,141.8559 481.6146,164.984 " fill="none" style="stroke:#181818;stroke-width:1.0;"/><text fill="#000000" font-family="sans-serif" font-size="13" lengthAdjust="spacing" textLength="21" x="537" y="143.0283">has</text><text fill="#000000" font-family="sans-serif" font-size="13" lengthAdjust="spacing" textLength="7" x="473.6146" y="161.0123">1</text><path d="M660.1501,94.8328 C694.1873,115.8602 745.8792,147.7943 786.5818,172.9394 " fill="none" style="stroke:#181818;stroke-width:1.0;"/><text fill="#000000" font-family="sans-serif" font-size="13" lengthAdjust="spacing" textLength="21" x="744" y="143.0283">has</text><text fill="#000000" font-family="sans-serif" font-size="13" lengthAdjust="spacing" textLength="7" x="778.5818" y="168.9677">1</text><path d="M660.137,81.2385 C720.7485,96.2311 846.4363,128.7623 950,165 C952.7609,165.9661 955.5519,166.9656 958.3613,167.9919 " fill="none" style="stroke:#181818;stroke-width:1.0;"/><text fill="#000000" font-family="sans-serif" font-size="13" lengthAdjust="spacing" textLength="21" x="889" y="143.0283">has</text><text fill="#000000" font-family="sans-serif" font-size="13" lengthAdjust="spacing" textLength="7" x="950.3613" y="164.0202">1</text><path d="M660.2502,72.9482 C750.5255,75.243 991.2052,88.6466 1173,165 C1175.9124,166.2232 1178.8181,167.602 1181.6948,169.0985 " fill="none" style="stroke:#181818;stroke-width:1.0;"/><text fill="#000000" font-family="sans-serif" font-size="13" lengthAdjust="spacing" textLength="21" x="1117" y="143.0283">has</text><text fill="#000000" font-family="sans-serif" font-size="13" lengthAdjust="spacing" textLength="7" x="1173.6948" y="165.1268">1</text><path d="M624,110.1154 C624,129.5725 624,153.2863 624,172.8861 " fill="none" style="stroke:#181818;stroke-width:1.0;"/><text fill="#000000" font-family="sans-serif" font-size="13" lengthAdjust="spacing" textLength="21" x="625" y="143.0283">has</text><text fill="#000000" font-family="sans-serif" font-size="13" lengthAdjust="spacing" textLength="7" x="616" y="168.9144">1</text><!--SRC=[ZP8_RyCW4CLtFiKrkuUkACf4XqYHAkLFr-fAa4kBmJAuaXNbkvTWujXGLsQ2k_T-qhlZgMwmh10KTgPrO2lXK2CXDV9lB0KeKyA5W3zSeRMmy-_r-aKxwRhDnb_tnZX_kP0WkawbM-OLRwXQyVhn9RWBZYqBUeYdW7SLbBHtP1mcVYGN2r7dkvWElWnu4DgQPY7GtiLqyFsHbADYwCHHLYAb9ad7IZfrPjozmBFKPS3zYsrweGUEBJF1ZrqzFyrac9OtidRIw25-xyxG9otTCcZhbPxM6oBdIiZjOnK5h9vNyUDG-4GxBhF7QfFEuR6Zf3EPu8mlpYFhnaXPVPViyDOclm00]--></g></svg>