<?xml version="1.0" encoding="us-ascii" standalone="no"?><svg xmlns="http://www.w3.org/2000/svg" xmlns:xlink="http://www.w3.org/1999/xlink" contentStyleType="text/css" height="296px" preserveAspectRatio="none" style="width:663px;height:296px;background:#FFFFFF;" version="1.1" viewBox="0 0 663 296" width="663px" zoomAndPan="magnify"><defs/><g><!--cluster room--><g id="cluster_room"><path d="M16.5,4 L53.5,4 A3.75,3.75 0 0 1 56,6.5 L63,28.6211 L653.5,28.6211 A2.5,2.5 0 0 1 656,31.1211 L656,286.5 A2.5,2.5 0 0 1 653.5,289 L16.5,289 A2.5,2.5 0 0 1 14,286.5 L14,6.5 A2.5,2.5 0 0 1 16.5,4 " fill="none" style="stroke:#000000;stroke-width:1.5;"/><line style="stroke:#000000;stroke-width:1.5;" x1="14" x2="63" y1="28.6211" y2="28.6211"/><text fill="#000000" font-family="sans-serif" font-size="14" font-weight="bold" lengthAdjust="spacing" textLength="36" x="18" y="21.1074">room</text></g><!--class Room--><g id="elem_Room"><rect codeLine="4" fill="#F1F1F1" height="76.543" id="Room" rx="2.5" ry="2.5" style="stroke:#181818;stroke-width:0.5;" width="72" x="297" y="33"/><ellipse cx="312" cy="63.2715" fill="#ADD1B2" rx="11" ry="11" style="stroke:#181818;stroke-width:1.0;"/><path d="M314.7656,59.1465 Q314.9219,58.9277 315.1094,58.8184 Q315.2969,58.709 315.5156,58.709 Q315.8906,58.709 316.125,58.9746 Q316.3594,59.2246 316.3594,59.834 L316.3594,61.2871 Q316.3594,61.8965 316.125,62.1621 Q315.8906,62.4277 315.5156,62.4277 Q315.1719,62.4277 314.9688,62.2246 Q314.7656,62.0371 314.6563,61.5215 Q314.6094,61.1621 314.4219,60.9746 Q314.0938,60.5996 313.4844,60.3809 Q312.875,60.1621 312.25,60.1621 Q311.4844,60.1621 310.8438,60.4902 Q310.2188,60.8184 309.7188,61.5684 Q309.2344,62.3184 309.2344,63.3496 L309.2344,64.4434 Q309.2344,65.6777 310.125,66.5059 Q311.0156,67.3184 312.6094,67.3184 Q313.5469,67.3184 314.2031,67.0684 Q314.5938,66.9121 315.0156,66.4746 Q315.2813,66.209 315.4219,66.1309 Q315.5781,66.0527 315.7813,66.0527 Q316.1094,66.0527 316.3594,66.3184 Q316.625,66.5684 316.625,66.9121 Q316.625,67.2559 316.2813,67.6621 Q315.7813,68.2402 314.9844,68.5684 Q313.9063,69.0215 312.6094,69.0215 Q311.0938,69.0215 309.8906,68.3965 Q308.9063,67.8965 308.2188,66.834 Q307.5313,65.7559 307.5313,64.4746 L307.5313,63.3184 Q307.5313,61.9902 308.1406,60.8496 Q308.7656,59.6934 309.8594,59.084 Q310.9531,58.459 312.1875,58.459 Q312.9219,58.459 313.5625,58.6309 Q314.2188,58.7871 314.7656,59.1465 Z " fill="#000000"/><text fill="#000000" font-family="sans-serif" font-size="12" font-style="italic" lengthAdjust="spacing" textLength="44" x="324" y="50.9492">&#171;Entity&#187;</text><text fill="#000000" font-family="sans-serif" font-size="12" font-style="italic" lengthAdjust="spacing" textLength="40" x="326" y="66.9102">&#171;Root&#187;</text><text fill="#000000" font-family="sans-serif" font-size="14" lengthAdjust="spacing" textLength="37" x="327.5" y="85.0293">Room</text><line style="stroke:#181818;stroke-width:0.5;" x1="298" x2="368" y1="93.543" y2="93.543"/><line style="stroke:#181818;stroke-width:0.5;" x1="298" x2="368" y1="101.543" y2="101.543"/></g><!--class RoomID--><g id="elem_RoomID"><rect codeLine="6" fill="#F1F1F1" height="79.2031" id="RoomID" rx="2.5" ry="2.5" style="stroke:#181818;stroke-width:0.5;" width="110" x="22" y="183.5"/><ellipse cx="37" cy="205.791" fill="#ADD1B2" rx="11" ry="11" style="stroke:#181818;stroke-width:1.0;"/><path d="M39.7656,201.666 Q39.9219,201.4473 40.1094,201.3379 Q40.2969,201.2285 40.5156,201.2285 Q40.8906,201.2285 41.125,201.4941 Q41.3594,201.7441 41.3594,202.3535 L41.3594,203.8066 Q41.3594,204.416 41.125,204.6816 Q40.8906,204.9473 40.5156,204.9473 Q40.1719,204.9473 39.9688,204.7441 Q39.7656,204.5566 39.6563,204.041 Q39.6094,203.6816 39.4219,203.4941 Q39.0938,203.1191 38.4844,202.9004 Q37.875,202.6816 37.25,202.6816 Q36.4844,202.6816 35.8438,203.0098 Q35.2188,203.3379 34.7188,204.0879 Q34.2344,204.8379 34.2344,205.8691 L34.2344,206.9629 Q34.2344,208.1973 35.125,209.0254 Q36.0156,209.8379 37.6094,209.8379 Q38.5469,209.8379 39.2031,209.5879 Q39.5938,209.4316 40.0156,208.9941 Q40.2813,208.7285 40.4219,208.6504 Q40.5781,208.5723 40.7813,208.5723 Q41.1094,208.5723 41.3594,208.8379 Q41.625,209.0879 41.625,209.4316 Q41.625,209.7754 41.2813,210.1816 Q40.7813,210.7598 39.9844,211.0879 Q38.9063,211.541 37.6094,211.541 Q36.0938,211.541 34.8906,210.916 Q33.9063,210.416 33.2188,209.3535 Q32.5313,208.2754 32.5313,206.9941 L32.5313,205.8379 Q32.5313,204.5098 33.1406,203.3691 Q33.7656,202.2129 34.8594,201.6035 Q35.9531,200.9785 37.1875,200.9785 Q37.9219,200.9785 38.5625,201.1504 Q39.2188,201.3066 39.7656,201.666 Z " fill="#000000"/><text fill="#000000" font-family="sans-serif" font-size="12" font-style="italic" lengthAdjust="spacing" textLength="82" x="49" y="201.4492">&#171;ValueObject&#187;</text><text fill="#000000" font-family="sans-serif" font-size="14" lengthAdjust="spacing" textLength="50" x="65" y="219.5684">RoomID</text><line style="stroke:#181818;stroke-width:0.5;" x1="23" x2="131" y1="228.082" y2="228.082"/><rect fill="none" height="6" style="stroke:#C82930;stroke-width:1.0;" width="6" x="30" y="239.8926"/><text fill="#000000" font-family="sans-serif" font-size="14" lengthAdjust="spacing" textLength="64" x="42" y="247.1895">_id: String</text><line style="stroke:#181818;stroke-width:0.5;" x1="23" x2="131" y1="254.7031" y2="254.7031"/></g><!--class RoomFloor--><g id="elem_RoomFloor"><rect codeLine="9" fill="#F1F1F1" height="79.2031" id="RoomFloor" rx="2.5" ry="2.5" style="stroke:#181818;stroke-width:0.5;" width="110" x="150" y="183.5"/><ellipse cx="165" cy="205.791" fill="#ADD1B2" rx="11" ry="11" style="stroke:#181818;stroke-width:1.0;"/><path d="M167.7656,201.666 Q167.9219,201.4473 168.1094,201.3379 Q168.2969,201.2285 168.5156,201.2285 Q168.8906,201.2285 169.125,201.4941 Q169.3594,201.7441 169.3594,202.3535 L169.3594,203.8066 Q169.3594,204.416 169.125,204.6816 Q168.8906,204.9473 168.5156,204.9473 Q168.1719,204.9473 167.9688,204.7441 Q167.7656,204.5566 167.6563,204.041 Q167.6094,203.6816 167.4219,203.4941 Q167.0938,203.1191 166.4844,202.9004 Q165.875,202.6816 165.25,202.6816 Q164.4844,202.6816 163.8438,203.0098 Q163.2188,203.3379 162.7188,204.0879 Q162.2344,204.8379 162.2344,205.8691 L162.2344,206.9629 Q162.2344,208.1973 163.125,209.0254 Q164.0156,209.8379 165.6094,209.8379 Q166.5469,209.8379 167.2031,209.5879 Q167.5938,209.4316 168.0156,208.9941 Q168.2813,208.7285 168.4219,208.6504 Q168.5781,208.5723 168.7813,208.5723 Q169.1094,208.5723 169.3594,208.8379 Q169.625,209.0879 169.625,209.4316 Q169.625,209.7754 169.2813,210.1816 Q168.7813,210.7598 167.9844,211.0879 Q166.9063,211.541 165.6094,211.541 Q164.0938,211.541 162.8906,210.916 Q161.9063,210.416 161.2188,209.3535 Q160.5313,208.2754 160.5313,206.9941 L160.5313,205.8379 Q160.5313,204.5098 161.1406,203.3691 Q161.7656,202.2129 162.8594,201.6035 Q163.9531,200.9785 165.1875,200.9785 Q165.9219,200.9785 166.5625,201.1504 Q167.2188,201.3066 167.7656,201.666 Z " fill="#000000"/><text fill="#000000" font-family="sans-serif" font-size="12" font-style="italic" lengthAdjust="spacing" textLength="82" x="177" y="201.4492">&#171;ValueObject&#187;</text><text fill="#000000" font-family="sans-serif" font-size="14" lengthAdjust="spacing" textLength="70" x="183" y="219.5684">RoomFloor</text><line style="stroke:#181818;stroke-width:0.5;" x1="151" x2="259" y1="228.082" y2="228.082"/><rect fill="none" height="6" style="stroke:#C82930;stroke-width:1.0;" width="6" x="158" y="239.8926"/><text fill="#000000" font-family="sans-serif" font-size="14" lengthAdjust="spacing" textLength="59" x="170" y="247.1895">_floor: int</text><line style="stroke:#181818;stroke-width:0.5;" x1="151" x2="259" y1="254.7031" y2="254.7031"/></g><!--class Dimension--><g id="elem_Dimension"><rect codeLine="12" fill="#F1F1F1" height="116.4453" id="Dimension" rx="2.5" ry="2.5" style="stroke:#181818;stroke-width:0.5;" width="110" x="278" y="165"/><ellipse cx="293" cy="187.291" fill="#ADD1B2" rx="11" ry="11" style="stroke:#181818;stroke-width:1.0;"/><path d="M295.7656,183.166 Q295.9219,182.9473 296.1094,182.8379 Q296.2969,182.7285 296.5156,182.7285 Q296.8906,182.7285 297.125,182.9941 Q297.3594,183.2441 297.3594,183.8535 L297.3594,185.3066 Q297.3594,185.916 297.125,186.1816 Q296.8906,186.4473 296.5156,186.4473 Q296.1719,186.4473 295.9688,186.2441 Q295.7656,186.0566 295.6563,185.541 Q295.6094,185.1816 295.4219,184.9941 Q295.0938,184.6191 294.4844,184.4004 Q293.875,184.1816 293.25,184.1816 Q292.4844,184.1816 291.8438,184.5098 Q291.2188,184.8379 290.7188,185.5879 Q290.2344,186.3379 290.2344,187.3691 L290.2344,188.4629 Q290.2344,189.6973 291.125,190.5254 Q292.0156,191.3379 293.6094,191.3379 Q294.5469,191.3379 295.2031,191.0879 Q295.5938,190.9316 296.0156,190.4941 Q296.2813,190.2285 296.4219,190.1504 Q296.5781,190.0723 296.7813,190.0723 Q297.1094,190.0723 297.3594,190.3379 Q297.625,190.5879 297.625,190.9316 Q297.625,191.2754 297.2813,191.6816 Q296.7813,192.2598 295.9844,192.5879 Q294.9063,193.041 293.6094,193.041 Q292.0938,193.041 290.8906,192.416 Q289.9063,191.916 289.2188,190.8535 Q288.5313,189.7754 288.5313,188.4941 L288.5313,187.3379 Q288.5313,186.0098 289.1406,184.8691 Q289.7656,183.7129 290.8594,183.1035 Q291.9531,182.4785 293.1875,182.4785 Q293.9219,182.4785 294.5625,182.6504 Q295.2188,182.8066 295.7656,183.166 Z " fill="#000000"/><text fill="#000000" font-family="sans-serif" font-size="12" font-style="italic" lengthAdjust="spacing" textLength="82" x="305" y="182.9492">&#171;ValueObject&#187;</text><text fill="#000000" font-family="sans-serif" font-size="14" lengthAdjust="spacing" textLength="66" x="313" y="201.0684">Dimension</text><line style="stroke:#181818;stroke-width:0.5;" x1="279" x2="387" y1="209.582" y2="209.582"/><rect fill="none" height="6" style="stroke:#C82930;stroke-width:1.0;" width="6" x="286" y="221.3926"/><text fill="#000000" font-family="sans-serif" font-size="14" lengthAdjust="spacing" textLength="63" x="298" y="228.6895">_width: int</text><rect fill="none" height="6" style="stroke:#C82930;stroke-width:1.0;" width="6" x="286" y="240.0137"/><text fill="#000000" font-family="sans-serif" font-size="14" lengthAdjust="spacing" textLength="70" x="298" y="247.3105">_length: int</text><rect fill="none" height="6" style="stroke:#C82930;stroke-width:1.0;" width="6" x="286" y="258.6348"/><text fill="#000000" font-family="sans-serif" font-size="14" lengthAdjust="spacing" textLength="70" x="298" y="265.9316">_height: int</text><line style="stroke:#181818;stroke-width:0.5;" x1="279" x2="387" y1="273.4453" y2="273.4453"/></g><!--class RoomName--><g id="elem_RoomName"><rect codeLine="17" fill="#F1F1F1" height="79.2031" id="RoomName" rx="2.5" ry="2.5" style="stroke:#181818;stroke-width:0.5;" width="114" x="406" y="183.5"/><ellipse cx="422.8" cy="205.791" fill="#ADD1B2" rx="11" ry="11" style="stroke:#181818;stroke-width:1.0;"/><path d="M425.5656,201.666 Q425.7219,201.4473 425.9094,201.3379 Q426.0969,201.2285 426.3156,201.2285 Q426.6906,201.2285 426.925,201.4941 Q427.1594,201.7441 427.1594,202.3535 L427.1594,203.8066 Q427.1594,204.416 426.925,204.6816 Q426.6906,204.9473 426.3156,204.9473 Q425.9719,204.9473 425.7688,204.7441 Q425.5656,204.5566 425.4563,204.041 Q425.4094,203.6816 425.2219,203.4941 Q424.8938,203.1191 424.2844,202.9004 Q423.675,202.6816 423.05,202.6816 Q422.2844,202.6816 421.6438,203.0098 Q421.0188,203.3379 420.5188,204.0879 Q420.0344,204.8379 420.0344,205.8691 L420.0344,206.9629 Q420.0344,208.1973 420.925,209.0254 Q421.8156,209.8379 423.4094,209.8379 Q424.3469,209.8379 425.0031,209.5879 Q425.3938,209.4316 425.8156,208.9941 Q426.0813,208.7285 426.2219,208.6504 Q426.3781,208.5723 426.5813,208.5723 Q426.9094,208.5723 427.1594,208.8379 Q427.425,209.0879 427.425,209.4316 Q427.425,209.7754 427.0813,210.1816 Q426.5813,210.7598 425.7844,211.0879 Q424.7063,211.541 423.4094,211.541 Q421.8938,211.541 420.6906,210.916 Q419.7063,210.416 419.0188,209.3535 Q418.3313,208.2754 418.3313,206.9941 L418.3313,205.8379 Q418.3313,204.5098 418.9406,203.3691 Q419.5656,202.2129 420.6594,201.6035 Q421.7531,200.9785 422.9875,200.9785 Q423.7219,200.9785 424.3625,201.1504 Q425.0188,201.3066 425.5656,201.666 Z " fill="#000000"/><text fill="#000000" font-family="sans-serif" font-size="12" font-style="italic" lengthAdjust="spacing" textLength="82" x="435.2" y="201.4492">&#171;ValueObject&#187;</text><text fill="#000000" font-family="sans-serif" font-size="14" lengthAdjust="spacing" textLength="73" x="439.7" y="219.5684">RoomName</text><line style="stroke:#181818;stroke-width:0.5;" x1="407" x2="519" y1="228.082" y2="228.082"/><rect fill="none" height="6" style="stroke:#C82930;stroke-width:1.0;" width="6" x="414" y="239.8926"/><text fill="#000000" font-family="sans-serif" font-size="14" lengthAdjust="spacing" textLength="88" x="426" y="247.1895">_name: String</text><line style="stroke:#181818;stroke-width:0.5;" x1="407" x2="519" y1="254.7031" y2="254.7031"/></g><!--class HouseID--><g id="elem_HouseID"><rect codeLine="20" fill="#F1F1F1" height="79.2031" id="HouseID" rx="2.5" ry="2.5" style="stroke:#181818;stroke-width:0.5;" width="110" x="538" y="183.5"/><ellipse cx="553" cy="205.791" fill="#ADD1B2" rx="11" ry="11" style="stroke:#181818;stroke-width:1.0;"/><path d="M555.7656,201.666 Q555.9219,201.4473 556.1094,201.3379 Q556.2969,201.2285 556.5156,201.2285 Q556.8906,201.2285 557.125,201.4941 Q557.3594,201.7441 557.3594,202.3535 L557.3594,203.8066 Q557.3594,204.416 557.125,204.6816 Q556.8906,204.9473 556.5156,204.9473 Q556.1719,204.9473 555.9688,204.7441 Q555.7656,204.5566 555.6563,204.041 Q555.6094,203.6816 555.4219,203.4941 Q555.0938,203.1191 554.4844,202.9004 Q553.875,202.6816 553.25,202.6816 Q552.4844,202.6816 551.8438,203.0098 Q551.2188,203.3379 550.7188,204.0879 Q550.2344,204.8379 550.2344,205.8691 L550.2344,206.9629 Q550.2344,208.1973 551.125,209.0254 Q552.0156,209.8379 553.6094,209.8379 Q554.5469,209.8379 555.2031,209.5879 Q555.5938,209.4316 556.0156,208.9941 Q556.2813,208.7285 556.4219,208.6504 Q556.5781,208.5723 556.7813,208.5723 Q557.1094,208.5723 557.3594,208.8379 Q557.625,209.0879 557.625,209.4316 Q557.625,209.7754 557.2813,210.1816 Q556.7813,210.7598 555.9844,211.0879 Q554.9063,211.541 553.6094,211.541 Q552.0938,211.541 550.8906,210.916 Q549.9063,210.416 549.2188,209.3535 Q548.5313,208.2754 548.5313,206.9941 L548.5313,205.8379 Q548.5313,204.5098 549.1406,203.3691 Q549.7656,202.2129 550.8594,201.6035 Q551.9531,200.9785 553.1875,200.9785 Q553.9219,200.9785 554.5625,201.1504 Q555.2188,201.3066 555.7656,201.666 Z " fill="#000000"/><text fill="#000000" font-family="sans-serif" font-size="12" font-style="italic" lengthAdjust="spacing" textLength="82" x="565" y="201.4492">&#171;ValueObject&#187;</text><text fill="#000000" font-family="sans-serif" font-size="14" lengthAdjust="spacing" textLength="53" x="579.5" y="219.5684">HouseID</text><line style="stroke:#181818;stroke-width:0.5;" x1="539" x2="647" y1="228.082" y2="228.082"/><rect fill="none" height="6" style="stroke:#C82930;stroke-width:1.0;" width="6" x="546" y="239.8926"/><text fill="#000000" font-family="sans-serif" font-size="14" lengthAdjust="spacing" textLength="64" x="558" y="247.1895">_id: String</text><line style="stroke:#181818;stroke-width:0.5;" x1="539" x2="647" y1="254.7031" y2="254.7031"/></g><path d="M333,110.2252 C333,126.7467 333,146.4967 333,164.7671 " fill="none" style="stroke:#181818;stroke-width:1.0;"/><text fill="#000000" font-family="sans-serif" font-size="13" lengthAdjust="spacing" textLength="21" x="334" y="143.0283">has</text><text fill="#000000" font-family="sans-serif" font-size="13" lengthAdjust="spacing" textLength="7" x="325" y="160.7955">1</text><path d="M300.7002,110.2252 C281.5926,132.5422 257.4415,160.7499 238.1817,183.2448 " fill="none" style="stroke:#181818;stroke-width:1.0;"/><text fill="#000000" font-family="sans-serif" font-size="13" lengthAdjust="spacing" textLength="21" x="285" y="143.0283">has</text><text fill="#000000" font-family="sans-serif" font-size="13" lengthAdjust="spacing" textLength="7" x="230.1817" y="179.2731">1</text><path d="M296.7177,86.4122 C256.8673,102.4879 191.7872,131.1212 141,165 C132.8307,170.4495 124.6198,176.8778 116.9317,183.4179 " fill="none" style="stroke:#181818;stroke-width:1.0;"/><text fill="#000000" font-family="sans-serif" font-size="13" lengthAdjust="spacing" textLength="21" x="203" y="143.0283">has</text><text fill="#000000" font-family="sans-serif" font-size="13" lengthAdjust="spacing" textLength="7" x="108.9317" y="179.4462">1</text><path d="M365.8045,110.2252 C385.2106,132.5422 409.7391,160.7499 429.2998,183.2448 " fill="none" style="stroke:#181818;stroke-width:1.0;"/><text fill="#000000" font-family="sans-serif" font-size="13" lengthAdjust="spacing" textLength="21" x="395" y="143.0283">has</text><text fill="#000000" font-family="sans-serif" font-size="13" lengthAdjust="spacing" textLength="7" x="421.2998" y="179.2731">1</text><path d="M369.3237,85.9845 C409.9555,101.8815 476.901,130.5468 529,165 C537.1911,170.4168 545.4125,176.8292 553.1043,183.3638 " fill="none" style="stroke:#181818;stroke-width:1.0;"/><text fill="#000000" font-family="sans-serif" font-size="13" lengthAdjust="spacing" textLength="21" x="499" y="143.0283">has</text><text fill="#000000" font-family="sans-serif" font-size="13" lengthAdjust="spacing" textLength="7" x="545.1043" y="179.3921">1</text><!--SRC=[bP1DYy9038RlyokYznwybg6dhgmNXLtmMh8rJaVdetHIHCJ_xdItM5sjuC0SaYTvyoQJka5b4GmUVSiGB34w5AB6Se-AeF7Umaa0b0P3WAyOIldXMFCnowICCMTPny_ntrOjSYdNQ5fQ_Uoex8kwbnHway8tDzgfFlNOFJVUDwC2suwce1q_5SYr9HUqTqy5akAWDrmDxKbXoAdxJ4LQLJna_ljRegLHUox2bnj- -ZRG-mSw2z7DZXK9J6VJOSyKAWptx7h44RR8Hy3or_m3wYt_aGi0]--></g></svg>