<?xml version="1.0" encoding="us-ascii" standalone="no"?><svg xmlns="http://www.w3.org/2000/svg" xmlns:xlink="http://www.w3.org/1999/xlink" contentStyleType="text/css" height="275px" preserveAspectRatio="none" style="width:867px;height:275px;background:#FFFFFF;" version="1.1" viewBox="0 0 867 275" width="867px" zoomAndPan="magnify"><defs/><g><!--cluster sensor--><g id="cluster_sensor"><path d="M16.5,4 L66.5,4 A3.75,3.75 0 0 1 69,6.5 L76,28.6211 L857.5,28.6211 A2.5,2.5 0 0 1 860,31.1211 L860,265.5 A2.5,2.5 0 0 1 857.5,268 L16.5,268 A2.5,2.5 0 0 1 14,265.5 L14,6.5 A2.5,2.5 0 0 1 16.5,4 " fill="none" style="stroke:#000000;stroke-width:1.5;"/><line style="stroke:#000000;stroke-width:1.5;" x1="14" x2="76" y1="28.6211" y2="28.6211"/><text fill="#000000" font-family="sans-serif" font-size="14" font-weight="bold" lengthAdjust="spacing" textLength="49" x="18" y="21.1074">sensor</text></g><!--class Sensor--><g id="elem_Sensor"><rect codeLine="5" fill="#F1F1F1" height="76.543" id="Sensor" rx="2.5" ry="2.5" style="stroke:#181818;stroke-width:0.5;" width="77" x="410.5" y="33"/><ellipse cx="425.5" cy="63.2715" fill="#ADD1B2" rx="11" ry="11" style="stroke:#181818;stroke-width:1.0;"/><path d="M428.2656,59.1465 Q428.4219,58.9277 428.6094,58.8184 Q428.7969,58.709 429.0156,58.709 Q429.3906,58.709 429.625,58.9746 Q429.8594,59.2246 429.8594,59.834 L429.8594,61.2871 Q429.8594,61.8965 429.625,62.1621 Q429.3906,62.4277 429.0156,62.4277 Q428.6719,62.4277 428.4688,62.2246 Q428.2656,62.0371 428.1563,61.5215 Q428.1094,61.1621 427.9219,60.9746 Q427.5938,60.5996 426.9844,60.3809 Q426.375,60.1621 425.75,60.1621 Q424.9844,60.1621 424.3438,60.4902 Q423.7188,60.8184 423.2188,61.5684 Q422.7344,62.3184 422.7344,63.3496 L422.7344,64.4434 Q422.7344,65.6777 423.625,66.5059 Q424.5156,67.3184 426.1094,67.3184 Q427.0469,67.3184 427.7031,67.0684 Q428.0938,66.9121 428.5156,66.4746 Q428.7813,66.209 428.9219,66.1309 Q429.0781,66.0527 429.2813,66.0527 Q429.6094,66.0527 429.8594,66.3184 Q430.125,66.5684 430.125,66.9121 Q430.125,67.2559 429.7813,67.6621 Q429.2813,68.2402 428.4844,68.5684 Q427.4063,69.0215 426.1094,69.0215 Q424.5938,69.0215 423.3906,68.3965 Q422.4063,67.8965 421.7188,66.834 Q421.0313,65.7559 421.0313,64.4746 L421.0313,63.3184 Q421.0313,61.9902 421.6406,60.8496 Q422.2656,59.6934 423.3594,59.084 Q424.4531,58.459 425.6875,58.459 Q426.4219,58.459 427.0625,58.6309 Q427.7188,58.7871 428.2656,59.1465 Z " fill="#000000"/><text fill="#000000" font-family="sans-serif" font-size="12" font-style="italic" lengthAdjust="spacing" textLength="44" x="440" y="50.9492">&#171;Entity&#187;</text><text fill="#000000" font-family="sans-serif" font-size="12" font-style="italic" lengthAdjust="spacing" textLength="40" x="442" y="66.9102">&#171;Root&#187;</text><text fill="#000000" font-family="sans-serif" font-size="14" lengthAdjust="spacing" textLength="45" x="439.5" y="85.0293">Sensor</text><line style="stroke:#181818;stroke-width:0.5;" x1="411.5" x2="486.5" y1="93.543" y2="93.543"/><line style="stroke:#181818;stroke-width:0.5;" x1="411.5" x2="486.5" y1="101.543" y2="101.543"/></g><!--class DeviceID--><g id="elem_DeviceID"><rect codeLine="7" fill="#F1F1F1" height="95.1641" id="DeviceID" rx="2.5" ry="2.5" style="stroke:#181818;stroke-width:0.5;" width="110" x="22" y="165"/><ellipse cx="37" cy="195.2715" fill="#ADD1B2" rx="11" ry="11" style="stroke:#181818;stroke-width:1.0;"/><path d="M39.7656,191.1465 Q39.9219,190.9277 40.1094,190.8184 Q40.2969,190.709 40.5156,190.709 Q40.8906,190.709 41.125,190.9746 Q41.3594,191.2246 41.3594,191.834 L41.3594,193.2871 Q41.3594,193.8965 41.125,194.1621 Q40.8906,194.4277 40.5156,194.4277 Q40.1719,194.4277 39.9688,194.2246 Q39.7656,194.0371 39.6563,193.5215 Q39.6094,193.1621 39.4219,192.9746 Q39.0938,192.5996 38.4844,192.3809 Q37.875,192.1621 37.25,192.1621 Q36.4844,192.1621 35.8438,192.4902 Q35.2188,192.8184 34.7188,193.5684 Q34.2344,194.3184 34.2344,195.3496 L34.2344,196.4434 Q34.2344,197.6777 35.125,198.5059 Q36.0156,199.3184 37.6094,199.3184 Q38.5469,199.3184 39.2031,199.0684 Q39.5938,198.9121 40.0156,198.4746 Q40.2813,198.209 40.4219,198.1309 Q40.5781,198.0527 40.7813,198.0527 Q41.1094,198.0527 41.3594,198.3184 Q41.625,198.5684 41.625,198.9121 Q41.625,199.2559 41.2813,199.6621 Q40.7813,200.2402 39.9844,200.5684 Q38.9063,201.0215 37.6094,201.0215 Q36.0938,201.0215 34.8906,200.3965 Q33.9063,199.8965 33.2188,198.834 Q32.5313,197.7559 32.5313,196.4746 L32.5313,195.3184 Q32.5313,193.9902 33.1406,192.8496 Q33.7656,191.6934 34.8594,191.084 Q35.9531,190.459 37.1875,190.459 Q37.9219,190.459 38.5625,190.6309 Q39.2188,190.7871 39.7656,191.1465 Z " fill="#000000"/><text fill="#000000" font-family="sans-serif" font-size="12" font-style="italic" lengthAdjust="spacing" textLength="82" x="49" y="182.9492">&#171;ValueObject&#187;</text><text fill="#000000" font-family="sans-serif" font-size="12" font-style="italic" lengthAdjust="spacing" textLength="27" x="76.5" y="198.9102">&#171;ID&#187;</text><text fill="#000000" font-family="sans-serif" font-size="14" lengthAdjust="spacing" textLength="56" x="62" y="217.0293">DeviceID</text><line style="stroke:#181818;stroke-width:0.5;" x1="23" x2="131" y1="225.543" y2="225.543"/><rect fill="none" height="6" style="stroke:#C82930;stroke-width:1.0;" width="6" x="30" y="237.3535"/><text fill="#000000" font-family="sans-serif" font-size="14" lengthAdjust="spacing" textLength="68" x="42" y="244.6504">_id : String</text><line style="stroke:#181818;stroke-width:0.5;" x1="23" x2="131" y1="252.1641" y2="252.1641"/></g><!--class SensorTypeDescription--><g id="elem_SensorTypeDescription"><rect codeLine="11" fill="#F1F1F1" height="95.1641" id="SensorTypeDescription" rx="2.5" ry="2.5" style="stroke:#181818;stroke-width:0.5;" width="180" x="150" y="165"/><ellipse cx="165" cy="195.2715" fill="#ADD1B2" rx="11" ry="11" style="stroke:#181818;stroke-width:1.0;"/><path d="M167.7656,191.1465 Q167.9219,190.9277 168.1094,190.8184 Q168.2969,190.709 168.5156,190.709 Q168.8906,190.709 169.125,190.9746 Q169.3594,191.2246 169.3594,191.834 L169.3594,193.2871 Q169.3594,193.8965 169.125,194.1621 Q168.8906,194.4277 168.5156,194.4277 Q168.1719,194.4277 167.9688,194.2246 Q167.7656,194.0371 167.6563,193.5215 Q167.6094,193.1621 167.4219,192.9746 Q167.0938,192.5996 166.4844,192.3809 Q165.875,192.1621 165.25,192.1621 Q164.4844,192.1621 163.8438,192.4902 Q163.2188,192.8184 162.7188,193.5684 Q162.2344,194.3184 162.2344,195.3496 L162.2344,196.4434 Q162.2344,197.6777 163.125,198.5059 Q164.0156,199.3184 165.6094,199.3184 Q166.5469,199.3184 167.2031,199.0684 Q167.5938,198.9121 168.0156,198.4746 Q168.2813,198.209 168.4219,198.1309 Q168.5781,198.0527 168.7813,198.0527 Q169.1094,198.0527 169.3594,198.3184 Q169.625,198.5684 169.625,198.9121 Q169.625,199.2559 169.2813,199.6621 Q168.7813,200.2402 167.9844,200.5684 Q166.9063,201.0215 165.6094,201.0215 Q164.0938,201.0215 162.8906,200.3965 Q161.9063,199.8965 161.2188,198.834 Q160.5313,197.7559 160.5313,196.4746 L160.5313,195.3184 Q160.5313,193.9902 161.1406,192.8496 Q161.7656,191.6934 162.8594,191.084 Q163.9531,190.459 165.1875,190.459 Q165.9219,190.459 166.5625,190.6309 Q167.2188,190.7871 167.7656,191.1465 Z " fill="#000000"/><text fill="#000000" font-family="sans-serif" font-size="12" font-style="italic" lengthAdjust="spacing" textLength="82" x="212" y="182.9492">&#171;ValueObject&#187;</text><text fill="#000000" font-family="sans-serif" font-size="12" font-style="italic" lengthAdjust="spacing" textLength="27" x="239.5" y="198.9102">&#171;ID&#187;</text><text fill="#000000" font-family="sans-serif" font-size="14" lengthAdjust="spacing" textLength="148" x="179" y="217.0293">SensorTypeDescription</text><line style="stroke:#181818;stroke-width:0.5;" x1="151" x2="329" y1="225.543" y2="225.543"/><rect fill="none" height="6" style="stroke:#C82930;stroke-width:1.0;" width="6" x="158" y="237.3535"/><text fill="#000000" font-family="sans-serif" font-size="14" lengthAdjust="spacing" textLength="68" x="170" y="244.6504">_id : String</text><line style="stroke:#181818;stroke-width:0.5;" x1="151" x2="329" y1="252.1641" y2="252.1641"/></g><!--class ModelPath--><g id="elem_ModelPath"><rect codeLine="14" fill="#F1F1F1" height="79.2031" id="ModelPath" rx="2.5" ry="2.5" style="stroke:#181818;stroke-width:0.5;" width="111" x="348.5" y="173"/><ellipse cx="363.95" cy="195.291" fill="#ADD1B2" rx="11" ry="11" style="stroke:#181818;stroke-width:1.0;"/><path d="M366.7156,191.166 Q366.8719,190.9473 367.0594,190.8379 Q367.2469,190.7285 367.4656,190.7285 Q367.8406,190.7285 368.075,190.9941 Q368.3094,191.2441 368.3094,191.8535 L368.3094,193.3066 Q368.3094,193.916 368.075,194.1816 Q367.8406,194.4473 367.4656,194.4473 Q367.1219,194.4473 366.9188,194.2441 Q366.7156,194.0566 366.6063,193.541 Q366.5594,193.1816 366.3719,192.9941 Q366.0438,192.6191 365.4344,192.4004 Q364.825,192.1816 364.2,192.1816 Q363.4344,192.1816 362.7938,192.5098 Q362.1688,192.8379 361.6688,193.5879 Q361.1844,194.3379 361.1844,195.3691 L361.1844,196.4629 Q361.1844,197.6973 362.075,198.5254 Q362.9656,199.3379 364.5594,199.3379 Q365.4969,199.3379 366.1531,199.0879 Q366.5438,198.9316 366.9656,198.4941 Q367.2313,198.2285 367.3719,198.1504 Q367.5281,198.0723 367.7313,198.0723 Q368.0594,198.0723 368.3094,198.3379 Q368.575,198.5879 368.575,198.9316 Q368.575,199.2754 368.2313,199.6816 Q367.7313,200.2598 366.9344,200.5879 Q365.8563,201.041 364.5594,201.041 Q363.0438,201.041 361.8406,200.416 Q360.8563,199.916 360.1688,198.8535 Q359.4813,197.7754 359.4813,196.4941 L359.4813,195.3379 Q359.4813,194.0098 360.0906,192.8691 Q360.7156,191.7129 361.8094,191.1035 Q362.9031,190.4785 364.1375,190.4785 Q364.8719,190.4785 365.5125,190.6504 Q366.1688,190.8066 366.7156,191.166 Z " fill="#000000"/><text fill="#000000" font-family="sans-serif" font-size="12" font-style="italic" lengthAdjust="spacing" textLength="82" x="376.05" y="190.9492">&#171;ValueObject&#187;</text><text fill="#000000" font-family="sans-serif" font-size="14" lengthAdjust="spacing" textLength="67" x="383.55" y="209.0684">ModelPath</text><line style="stroke:#181818;stroke-width:0.5;" x1="349.5" x2="458.5" y1="217.582" y2="217.582"/><rect fill="none" height="6" style="stroke:#C82930;stroke-width:1.0;" width="6" x="356.5" y="229.3926"/><text fill="#000000" font-family="sans-serif" font-size="14" lengthAdjust="spacing" textLength="85" x="368.5" y="236.6895">_path : String</text><line style="stroke:#181818;stroke-width:0.5;" x1="349.5" x2="458.5" y1="244.2031" y2="244.2031"/></g><!--class SensorName--><g id="elem_SensorName"><rect codeLine="18" fill="#F1F1F1" height="79.2031" id="SensorName" rx="2.5" ry="2.5" style="stroke:#181818;stroke-width:0.5;" width="118" x="478" y="173"/><ellipse cx="495.25" cy="195.291" fill="#ADD1B2" rx="11" ry="11" style="stroke:#181818;stroke-width:1.0;"/><path d="M498.0156,191.166 Q498.1719,190.9473 498.3594,190.8379 Q498.5469,190.7285 498.7656,190.7285 Q499.1406,190.7285 499.375,190.9941 Q499.6094,191.2441 499.6094,191.8535 L499.6094,193.3066 Q499.6094,193.916 499.375,194.1816 Q499.1406,194.4473 498.7656,194.4473 Q498.4219,194.4473 498.2188,194.2441 Q498.0156,194.0566 497.9063,193.541 Q497.8594,193.1816 497.6719,192.9941 Q497.3438,192.6191 496.7344,192.4004 Q496.125,192.1816 495.5,192.1816 Q494.7344,192.1816 494.0938,192.5098 Q493.4688,192.8379 492.9688,193.5879 Q492.4844,194.3379 492.4844,195.3691 L492.4844,196.4629 Q492.4844,197.6973 493.375,198.5254 Q494.2656,199.3379 495.8594,199.3379 Q496.7969,199.3379 497.4531,199.0879 Q497.8438,198.9316 498.2656,198.4941 Q498.5313,198.2285 498.6719,198.1504 Q498.8281,198.0723 499.0313,198.0723 Q499.3594,198.0723 499.6094,198.3379 Q499.875,198.5879 499.875,198.9316 Q499.875,199.2754 499.5313,199.6816 Q499.0313,200.2598 498.2344,200.5879 Q497.1563,201.041 495.8594,201.041 Q494.3438,201.041 493.1406,200.416 Q492.1563,199.916 491.4688,198.8535 Q490.7813,197.7754 490.7813,196.4941 L490.7813,195.3379 Q490.7813,194.0098 491.3906,192.8691 Q492.0156,191.7129 493.1094,191.1035 Q494.2031,190.4785 495.4375,190.4785 Q496.1719,190.4785 496.8125,190.6504 Q497.4688,190.8066 498.0156,191.166 Z " fill="#000000"/><text fill="#000000" font-family="sans-serif" font-size="12" font-style="italic" lengthAdjust="spacing" textLength="82" x="509.25" y="190.9492">&#171;ValueObject&#187;</text><text fill="#000000" font-family="sans-serif" font-size="14" lengthAdjust="spacing" textLength="81" x="509.75" y="209.0684">SensorName</text><line style="stroke:#181818;stroke-width:0.5;" x1="479" x2="595" y1="217.582" y2="217.582"/><rect fill="none" height="6" style="stroke:#C82930;stroke-width:1.0;" width="6" x="486" y="229.3926"/><text fill="#000000" font-family="sans-serif" font-size="14" lengthAdjust="spacing" textLength="92" x="498" y="236.6895">_name : String</text><line style="stroke:#181818;stroke-width:0.5;" x1="479" x2="595" y1="244.2031" y2="244.2031"/></g><!--class ValueImpl--><g id="elem_ValueImpl"><rect codeLine="22" fill="#F1F1F1" height="60.582" id="ValueImpl" rx="2.5" ry="2.5" style="stroke:#181818;stroke-width:0.5;" width="110" x="614" y="182"/><ellipse cx="629" cy="204.291" fill="#ADD1B2" rx="11" ry="11" style="stroke:#181818;stroke-width:1.0;"/><path d="M631.7656,200.166 Q631.9219,199.9473 632.1094,199.8379 Q632.2969,199.7285 632.5156,199.7285 Q632.8906,199.7285 633.125,199.9941 Q633.3594,200.2441 633.3594,200.8535 L633.3594,202.3066 Q633.3594,202.916 633.125,203.1816 Q632.8906,203.4473 632.5156,203.4473 Q632.1719,203.4473 631.9688,203.2441 Q631.7656,203.0566 631.6563,202.541 Q631.6094,202.1816 631.4219,201.9941 Q631.0938,201.6191 630.4844,201.4004 Q629.875,201.1816 629.25,201.1816 Q628.4844,201.1816 627.8438,201.5098 Q627.2188,201.8379 626.7188,202.5879 Q626.2344,203.3379 626.2344,204.3691 L626.2344,205.4629 Q626.2344,206.6973 627.125,207.5254 Q628.0156,208.3379 629.6094,208.3379 Q630.5469,208.3379 631.2031,208.0879 Q631.5938,207.9316 632.0156,207.4941 Q632.2813,207.2285 632.4219,207.1504 Q632.5781,207.0723 632.7813,207.0723 Q633.1094,207.0723 633.3594,207.3379 Q633.625,207.5879 633.625,207.9316 Q633.625,208.2754 633.2813,208.6816 Q632.7813,209.2598 631.9844,209.5879 Q630.9063,210.041 629.6094,210.041 Q628.0938,210.041 626.8906,209.416 Q625.9063,208.916 625.2188,207.8535 Q624.5313,206.7754 624.5313,205.4941 L624.5313,204.3379 Q624.5313,203.0098 625.1406,201.8691 Q625.7656,200.7129 626.8594,200.1035 Q627.9531,199.4785 629.1875,199.4785 Q629.9219,199.4785 630.5625,199.6504 Q631.2188,199.8066 631.7656,200.166 Z " fill="#000000"/><text fill="#000000" font-family="sans-serif" font-size="12" font-style="italic" lengthAdjust="spacing" textLength="82" x="641" y="199.9492">&#171;ValueObject&#187;</text><text fill="#000000" font-family="sans-serif" font-size="14" lengthAdjust="spacing" textLength="61" x="651.5" y="218.0684">ValueImpl</text><line style="stroke:#181818;stroke-width:0.5;" x1="615" x2="723" y1="226.582" y2="226.582"/><line style="stroke:#181818;stroke-width:0.5;" x1="615" x2="723" y1="234.582" y2="234.582"/></g><!--class SensorID--><g id="elem_SensorID"><rect codeLine="25" fill="#F1F1F1" height="95.1641" id="SensorID" rx="2.5" ry="2.5" style="stroke:#181818;stroke-width:0.5;" width="110" x="742" y="165"/><ellipse cx="757" cy="195.2715" fill="#ADD1B2" rx="11" ry="11" style="stroke:#181818;stroke-width:1.0;"/><path d="M759.7656,191.1465 Q759.9219,190.9277 760.1094,190.8184 Q760.2969,190.709 760.5156,190.709 Q760.8906,190.709 761.125,190.9746 Q761.3594,191.2246 761.3594,191.834 L761.3594,193.2871 Q761.3594,193.8965 761.125,194.1621 Q760.8906,194.4277 760.5156,194.4277 Q760.1719,194.4277 759.9688,194.2246 Q759.7656,194.0371 759.6563,193.5215 Q759.6094,193.1621 759.4219,192.9746 Q759.0938,192.5996 758.4844,192.3809 Q757.875,192.1621 757.25,192.1621 Q756.4844,192.1621 755.8438,192.4902 Q755.2188,192.8184 754.7188,193.5684 Q754.2344,194.3184 754.2344,195.3496 L754.2344,196.4434 Q754.2344,197.6777 755.125,198.5059 Q756.0156,199.3184 757.6094,199.3184 Q758.5469,199.3184 759.2031,199.0684 Q759.5938,198.9121 760.0156,198.4746 Q760.2813,198.209 760.4219,198.1309 Q760.5781,198.0527 760.7813,198.0527 Q761.1094,198.0527 761.3594,198.3184 Q761.625,198.5684 761.625,198.9121 Q761.625,199.2559 761.2813,199.6621 Q760.7813,200.2402 759.9844,200.5684 Q758.9063,201.0215 757.6094,201.0215 Q756.0938,201.0215 754.8906,200.3965 Q753.9063,199.8965 753.2188,198.834 Q752.5313,197.7559 752.5313,196.4746 L752.5313,195.3184 Q752.5313,193.9902 753.1406,192.8496 Q753.7656,191.6934 754.8594,191.084 Q755.9531,190.459 757.1875,190.459 Q757.9219,190.459 758.5625,190.6309 Q759.2188,190.7871 759.7656,191.1465 Z " fill="#000000"/><text fill="#000000" font-family="sans-serif" font-size="12" font-style="italic" lengthAdjust="spacing" textLength="82" x="769" y="182.9492">&#171;ValueObject&#187;</text><text fill="#000000" font-family="sans-serif" font-size="12" font-style="italic" lengthAdjust="spacing" textLength="27" x="796.5" y="198.9102">&#171;ID&#187;</text><text fill="#000000" font-family="sans-serif" font-size="14" lengthAdjust="spacing" textLength="58" x="781" y="217.0293">SensorID</text><line style="stroke:#181818;stroke-width:0.5;" x1="743" x2="851" y1="225.543" y2="225.543"/><rect fill="none" height="6" style="stroke:#C82930;stroke-width:1.0;" width="6" x="750" y="237.3535"/><text fill="#000000" font-family="sans-serif" font-size="14" lengthAdjust="spacing" textLength="68" x="762" y="244.6504">_id : String</text><line style="stroke:#181818;stroke-width:0.5;" x1="743" x2="851" y1="252.1641" y2="252.1641"/></g><path d="M410.1785,98.3191 C382.2008,116.9262 343.6606,142.5583 310.3311,164.7247 " fill="none" style="stroke:#181818;stroke-width:1.0;"/><text fill="#000000" font-family="sans-serif" font-size="13" lengthAdjust="spacing" textLength="21" x="364" y="143.0283">has</text><text fill="#000000" font-family="sans-serif" font-size="13" lengthAdjust="spacing" textLength="7" x="302.3311" y="160.7531">1</text><path d="M436.8224,110.1154 C430.5233,129.5725 422.8462,153.2863 416.5009,172.8861 " fill="none" style="stroke:#181818;stroke-width:1.0;"/><text fill="#000000" font-family="sans-serif" font-size="13" lengthAdjust="spacing" textLength="21" x="431" y="143.0283">has</text><text fill="#000000" font-family="sans-serif" font-size="13" lengthAdjust="spacing" textLength="7" x="408.5009" y="168.9144">1</text><path d="M487.7563,94.1422 C519.6987,112.296 565.9347,139.3064 605,165 C613.0323,170.2829 621.4572,176.1535 629.4592,181.8953 " fill="none" style="stroke:#181818;stroke-width:1.0;"/><text fill="#000000" font-family="sans-serif" font-size="13" lengthAdjust="spacing" textLength="21" x="576" y="143.0283">has</text><text fill="#000000" font-family="sans-serif" font-size="13" lengthAdjust="spacing" textLength="7" x="621.4592" y="177.9236">1</text><path d="M410.4819,79.7091 C350.6003,91.8613 232.5494,119.637 141,165 C138.0465,166.4635 135.0843,168.0612 132.1409,169.7553 " fill="none" style="stroke:#181818;stroke-width:1.0;"/><text fill="#000000" font-family="sans-serif" font-size="13" lengthAdjust="spacing" textLength="21" x="232" y="143.0283">has</text><text fill="#000000" font-family="sans-serif" font-size="13" lengthAdjust="spacing" textLength="7" x="133.1409" y="165.7836">1</text><path d="M472.8141,110.1154 C485.1322,129.5725 500.1453,153.2863 512.5538,172.8861 " fill="none" style="stroke:#181818;stroke-width:1.0;"/><text fill="#000000" font-family="sans-serif" font-size="13" lengthAdjust="spacing" textLength="21" x="496" y="143.0283">has</text><text fill="#000000" font-family="sans-serif" font-size="13" lengthAdjust="spacing" textLength="7" x="504.5538" y="168.9144">1</text><path d="M487.7115,81.0151 C543.8165,94.2499 650.0808,122.7128 733,165 C735.9364,166.4975 738.8847,168.1229 741.8169,169.8391 " fill="none" style="stroke:#181818;stroke-width:1.0;"/><text fill="#000000" font-family="sans-serif" font-size="13" lengthAdjust="spacing" textLength="21" x="689" y="143.0283">has</text><text fill="#000000" font-family="sans-serif" font-size="13" lengthAdjust="spacing" textLength="7" x="733.8169" y="165.8674">1</text><!--SRC=[dP8_JyCm4CNtV8gZ2rE8kaPLfp1a02gAMD7Xd18N_rDyGOeglZjEMYMbJOfKJoU_ztvddtrVCJkV9ebJQBZHwa5OdGY5tiU5nB967Tsv6akDeB2r3OFNn6WmYXoABom9F1blQzX745OVXUrXQxLwD2ovNQz3-MejX-9W-panP_Gj1ULPyBoZQkZbSqU2-qoU3ObknV0X2qXXoxKqvH5qqVQjTPIH5xLqBAsv4JjIdsn1QeDSNP3-85pd-EzipwZfEiPqZdbCdyorK-UK_LpBcmSRMCTtX3Y6nN8nCzyKAlJdrd5ea_9uZKbv-1AJwiaeh-X3-XS0]--></g></svg>