<?xml version="1.0" encoding="us-ascii" standalone="no"?><svg xmlns="http://www.w3.org/2000/svg" xmlns:xlink="http://www.w3.org/1999/xlink" contentStyleType="text/css" height="256px" preserveAspectRatio="none" style="width:534px;height:256px;background:#FFFFFF;" version="1.1" viewBox="0 0 534 256" width="534px" zoomAndPan="magnify"><defs/><g><!--cluster sensor_type--><g id="cluster_sensor_type"><path d="M16.5,4 L104.5,4 A3.75,3.75 0 0 1 107,6.5 L114,28.6211 L524.5,28.6211 A2.5,2.5 0 0 1 527,31.1211 L527,246.5 A2.5,2.5 0 0 1 524.5,249 L16.5,249 A2.5,2.5 0 0 1 14,246.5 L14,6.5 A2.5,2.5 0 0 1 16.5,4 " fill="none" style="stroke:#000000;stroke-width:1.5;"/><line style="stroke:#000000;stroke-width:1.5;" x1="14" x2="114" y1="28.6211" y2="28.6211"/><text fill="#000000" font-family="sans-serif" font-size="14" font-weight="bold" lengthAdjust="spacing" textLength="87" x="18" y="21.1074">sensor_type</text></g><!--class SensorType--><g id="elem_SensorType"><rect codeLine="5" fill="#F1F1F1" height="76.543" id="SensorType" rx="2.5" ry="2.5" style="stroke:#181818;stroke-width:0.5;" width="109" x="222.5" y="33"/><ellipse cx="237.5" cy="63.2715" fill="#ADD1B2" rx="11" ry="11" style="stroke:#181818;stroke-width:1.0;"/><path d="M240.2656,59.1465 Q240.4219,58.9277 240.6094,58.8184 Q240.7969,58.709 241.0156,58.709 Q241.3906,58.709 241.625,58.9746 Q241.8594,59.2246 241.8594,59.834 L241.8594,61.2871 Q241.8594,61.8965 241.625,62.1621 Q241.3906,62.4277 241.0156,62.4277 Q240.6719,62.4277 240.4688,62.2246 Q240.2656,62.0371 240.1563,61.5215 Q240.1094,61.1621 239.9219,60.9746 Q239.5938,60.5996 238.9844,60.3809 Q238.375,60.1621 237.75,60.1621 Q236.9844,60.1621 236.3438,60.4902 Q235.7188,60.8184 235.2188,61.5684 Q234.7344,62.3184 234.7344,63.3496 L234.7344,64.4434 Q234.7344,65.6777 235.625,66.5059 Q236.5156,67.3184 238.1094,67.3184 Q239.0469,67.3184 239.7031,67.0684 Q240.0938,66.9121 240.5156,66.4746 Q240.7813,66.209 240.9219,66.1309 Q241.0781,66.0527 241.2813,66.0527 Q241.6094,66.0527 241.8594,66.3184 Q242.125,66.5684 242.125,66.9121 Q242.125,67.2559 241.7813,67.6621 Q241.2813,68.2402 240.4844,68.5684 Q239.4063,69.0215 238.1094,69.0215 Q236.5938,69.0215 235.3906,68.3965 Q234.4063,67.8965 233.7188,66.834 Q233.0313,65.7559 233.0313,64.4746 L233.0313,63.3184 Q233.0313,61.9902 233.6406,60.8496 Q234.2656,59.6934 235.3594,59.084 Q236.4531,58.459 237.6875,58.459 Q238.4219,58.459 239.0625,58.6309 Q239.7188,58.7871 240.2656,59.1465 Z " fill="#000000"/><text fill="#000000" font-family="sans-serif" font-size="12" font-style="italic" lengthAdjust="spacing" textLength="44" x="268" y="50.9492">&#171;Entity&#187;</text><text fill="#000000" font-family="sans-serif" font-size="12" font-style="italic" lengthAdjust="spacing" textLength="40" x="270" y="66.9102">&#171;Root&#187;</text><text fill="#000000" font-family="sans-serif" font-size="14" lengthAdjust="spacing" textLength="77" x="251.5" y="85.0293">SensorType</text><line style="stroke:#181818;stroke-width:0.5;" x1="223.5" x2="330.5" y1="93.543" y2="93.543"/><line style="stroke:#181818;stroke-width:0.5;" x1="223.5" x2="330.5" y1="101.543" y2="101.543"/></g><!--class SensorTypeDescription--><g id="elem_SensorTypeDescription"><rect codeLine="8" fill="#F1F1F1" height="79.2031" id="SensorTypeDescription" rx="2.5" ry="2.5" style="stroke:#181818;stroke-width:0.5;" width="180" x="22" y="154"/><ellipse cx="37" cy="176.291" fill="#ADD1B2" rx="11" ry="11" style="stroke:#181818;stroke-width:1.0;"/><path d="M39.7656,172.166 Q39.9219,171.9473 40.1094,171.8379 Q40.2969,171.7285 40.5156,171.7285 Q40.8906,171.7285 41.125,171.9941 Q41.3594,172.2441 41.3594,172.8535 L41.3594,174.3066 Q41.3594,174.916 41.125,175.1816 Q40.8906,175.4473 40.5156,175.4473 Q40.1719,175.4473 39.9688,175.2441 Q39.7656,175.0566 39.6563,174.541 Q39.6094,174.1816 39.4219,173.9941 Q39.0938,173.6191 38.4844,173.4004 Q37.875,173.1816 37.25,173.1816 Q36.4844,173.1816 35.8438,173.5098 Q35.2188,173.8379 34.7188,174.5879 Q34.2344,175.3379 34.2344,176.3691 L34.2344,177.4629 Q34.2344,178.6973 35.125,179.5254 Q36.0156,180.3379 37.6094,180.3379 Q38.5469,180.3379 39.2031,180.0879 Q39.5938,179.9316 40.0156,179.4941 Q40.2813,179.2285 40.4219,179.1504 Q40.5781,179.0723 40.7813,179.0723 Q41.1094,179.0723 41.3594,179.3379 Q41.625,179.5879 41.625,179.9316 Q41.625,180.2754 41.2813,180.6816 Q40.7813,181.2598 39.9844,181.5879 Q38.9063,182.041 37.6094,182.041 Q36.0938,182.041 34.8906,181.416 Q33.9063,180.916 33.2188,179.8535 Q32.5313,178.7754 32.5313,177.4941 L32.5313,176.3379 Q32.5313,175.0098 33.1406,173.8691 Q33.7656,172.7129 34.8594,172.1035 Q35.9531,171.4785 37.1875,171.4785 Q37.9219,171.4785 38.5625,171.6504 Q39.2188,171.8066 39.7656,172.166 Z " fill="#000000"/><text fill="#000000" font-family="sans-serif" font-size="12" font-style="italic" lengthAdjust="spacing" textLength="85" x="82.5" y="171.9492">&#171;Value Object&#187;</text><text fill="#000000" font-family="sans-serif" font-size="14" lengthAdjust="spacing" textLength="148" x="51" y="190.0684">SensorTypeDescription</text><line style="stroke:#181818;stroke-width:0.5;" x1="23" x2="201" y1="198.582" y2="198.582"/><rect fill="none" height="6" style="stroke:#C82930;stroke-width:1.0;" width="6" x="30" y="210.3926"/><text fill="#000000" font-family="sans-serif" font-size="14" lengthAdjust="spacing" textLength="122" x="42" y="217.6895">_description: String</text><line style="stroke:#181818;stroke-width:0.5;" x1="23" x2="201" y1="225.2031" y2="225.2031"/></g><!--class UnitID--><g id="elem_UnitID"><rect codeLine="11" fill="#F1F1F1" height="79.2031" id="UnitID" rx="2.5" ry="2.5" style="stroke:#181818;stroke-width:0.5;" width="113" x="220.5" y="154"/><ellipse cx="235.5" cy="176.291" fill="#ADD1B2" rx="11" ry="11" style="stroke:#181818;stroke-width:1.0;"/><path d="M238.2656,172.166 Q238.4219,171.9473 238.6094,171.8379 Q238.7969,171.7285 239.0156,171.7285 Q239.3906,171.7285 239.625,171.9941 Q239.8594,172.2441 239.8594,172.8535 L239.8594,174.3066 Q239.8594,174.916 239.625,175.1816 Q239.3906,175.4473 239.0156,175.4473 Q238.6719,175.4473 238.4688,175.2441 Q238.2656,175.0566 238.1563,174.541 Q238.1094,174.1816 237.9219,173.9941 Q237.5938,173.6191 236.9844,173.4004 Q236.375,173.1816 235.75,173.1816 Q234.9844,173.1816 234.3438,173.5098 Q233.7188,173.8379 233.2188,174.5879 Q232.7344,175.3379 232.7344,176.3691 L232.7344,177.4629 Q232.7344,178.6973 233.625,179.5254 Q234.5156,180.3379 236.1094,180.3379 Q237.0469,180.3379 237.7031,180.0879 Q238.0938,179.9316 238.5156,179.4941 Q238.7813,179.2285 238.9219,179.1504 Q239.0781,179.0723 239.2813,179.0723 Q239.6094,179.0723 239.8594,179.3379 Q240.125,179.5879 240.125,179.9316 Q240.125,180.2754 239.7813,180.6816 Q239.2813,181.2598 238.4844,181.5879 Q237.4063,182.041 236.1094,182.041 Q234.5938,182.041 233.3906,181.416 Q232.4063,180.916 231.7188,179.8535 Q231.0313,178.7754 231.0313,177.4941 L231.0313,176.3379 Q231.0313,175.0098 231.6406,173.8691 Q232.2656,172.7129 233.3594,172.1035 Q234.4531,171.4785 235.6875,171.4785 Q236.4219,171.4785 237.0625,171.6504 Q237.7188,171.8066 238.2656,172.166 Z " fill="#000000"/><text fill="#000000" font-family="sans-serif" font-size="12" font-style="italic" lengthAdjust="spacing" textLength="85" x="247.5" y="171.9492">&#171;Value Object&#187;</text><text fill="#000000" font-family="sans-serif" font-size="14" lengthAdjust="spacing" textLength="37" x="271.5" y="190.0684">UnitID</text><line style="stroke:#181818;stroke-width:0.5;" x1="221.5" x2="332.5" y1="198.582" y2="198.582"/><rect fill="none" height="6" style="stroke:#C82930;stroke-width:1.0;" width="6" x="228.5" y="210.3926"/><text fill="#000000" font-family="sans-serif" font-size="14" lengthAdjust="spacing" textLength="76" x="240.5" y="217.6895">_unit: String</text><line style="stroke:#181818;stroke-width:0.5;" x1="221.5" x2="332.5" y1="225.2031" y2="225.2031"/></g><!--class SensorTypeID--><g id="elem_SensorTypeID"><rect codeLine="14" fill="#F1F1F1" height="95.1641" id="SensorTypeID" rx="2.5" ry="2.5" style="stroke:#181818;stroke-width:0.5;" width="167" x="351.5" y="146"/><ellipse cx="386.75" cy="176.2715" fill="#ADD1B2" rx="11" ry="11" style="stroke:#181818;stroke-width:1.0;"/><path d="M389.5156,172.1465 Q389.6719,171.9277 389.8594,171.8184 Q390.0469,171.709 390.2656,171.709 Q390.6406,171.709 390.875,171.9746 Q391.1094,172.2246 391.1094,172.834 L391.1094,174.2871 Q391.1094,174.8965 390.875,175.1621 Q390.6406,175.4277 390.2656,175.4277 Q389.9219,175.4277 389.7188,175.2246 Q389.5156,175.0371 389.4063,174.5215 Q389.3594,174.1621 389.1719,173.9746 Q388.8438,173.5996 388.2344,173.3809 Q387.625,173.1621 387,173.1621 Q386.2344,173.1621 385.5938,173.4902 Q384.9688,173.8184 384.4688,174.5684 Q383.9844,175.3184 383.9844,176.3496 L383.9844,177.4434 Q383.9844,178.6777 384.875,179.5059 Q385.7656,180.3184 387.3594,180.3184 Q388.2969,180.3184 388.9531,180.0684 Q389.3438,179.9121 389.7656,179.4746 Q390.0313,179.209 390.1719,179.1309 Q390.3281,179.0527 390.5313,179.0527 Q390.8594,179.0527 391.1094,179.3184 Q391.375,179.5684 391.375,179.9121 Q391.375,180.2559 391.0313,180.6621 Q390.5313,181.2402 389.7344,181.5684 Q388.6563,182.0215 387.3594,182.0215 Q385.8438,182.0215 384.6406,181.3965 Q383.6563,180.8965 382.9688,179.834 Q382.2813,178.7559 382.2813,177.4746 L382.2813,176.3184 Q382.2813,174.9902 382.8906,173.8496 Q383.5156,172.6934 384.6094,172.084 Q385.7031,171.459 386.9375,171.459 Q387.6719,171.459 388.3125,171.6309 Q388.9688,171.7871 389.5156,172.1465 Z " fill="#000000"/><text fill="#000000" font-family="sans-serif" font-size="12" font-style="italic" lengthAdjust="spacing" textLength="85" x="407.75" y="163.9492">&#171;Value Object&#187;</text><text fill="#000000" font-family="sans-serif" font-size="12" font-style="italic" lengthAdjust="spacing" textLength="27" x="436.75" y="179.9102">&#171;ID&#187;</text><text fill="#000000" font-family="sans-serif" font-size="14" lengthAdjust="spacing" textLength="90" x="405.25" y="198.0293">SensorTypeID</text><line style="stroke:#181818;stroke-width:0.5;" x1="352.5" x2="517.5" y1="206.543" y2="206.543"/><rect fill="none" height="6" style="stroke:#C82930;stroke-width:1.0;" width="6" x="359.5" y="218.3535"/><text fill="#000000" font-family="sans-serif" font-size="14" lengthAdjust="spacing" textLength="141" x="371.5" y="225.6504">_sensorTypeID: String</text><line style="stroke:#181818;stroke-width:0.5;" x1="352.5" x2="517.5" y1="233.1641" y2="233.1641"/></g><path d="M277,110.1395 C277,124.0239 277,139.7724 277,153.753 " fill="none" style="stroke:#181818;stroke-width:1.0;"/><text fill="#000000" font-family="sans-serif" font-size="13" lengthAdjust="spacing" textLength="7" x="269" y="149.7814">1</text><path d="M225.2457,110.1395 C206.0602,124.0926 184.286,139.9284 164.9918,153.9605 " fill="none" style="stroke:#181818;stroke-width:1.0;"/><text fill="#000000" font-family="sans-serif" font-size="13" lengthAdjust="spacing" textLength="7" x="156.9918" y="149.9889">1</text><path d="M326.5587,110.1395 C341.4913,121.4807 358.0615,134.0657 373.6631,145.915 " fill="none" style="stroke:#181818;stroke-width:1.0;"/><text fill="#000000" font-family="sans-serif" font-size="13" lengthAdjust="spacing" textLength="7" x="365.6631" y="141.9433">1</text><!--SRC=[VP2n3e8m48RtFiN9pk1gcauuC9c8kfApDgGARTCU0p6-kmrAG47Nk-__yj-jdCUgGQYnior1Q1IXGSOSoXjM2e8omVgIEgVWpXY0h344AFhn8KuvtnhIr0d1-TvQ4Y9o08ybDbD1Ukr8MyFv2UjMmUvyLN880QHGNaPe0mLvRQhUD-YEHbEU_SZtXZOIa-WhF2ipTt2UPv-cCA6_ZF70qHNX599ryYwtj5dymdymYfu0]--></g></svg>