<?xml version="1.0" encoding="us-ascii" standalone="no"?><svg xmlns="http://www.w3.org/2000/svg" xmlns:xlink="http://www.w3.org/1999/xlink" contentStyleType="text/css" height="275px" preserveAspectRatio="none" style="width:367px;height:275px;background:#FFFFFF;" version="1.1" viewBox="0 0 367 275" width="367px" zoomAndPan="magnify"><defs/><g><!--cluster sensor_model--><g id="cluster_sensor_model"><path d="M16.5,4 L117.5,4 A3.75,3.75 0 0 1 120,6.5 L127,28.6211 L357.5,28.6211 A2.5,2.5 0 0 1 360,31.1211 L360,265.5 A2.5,2.5 0 0 1 357.5,268 L16.5,268 A2.5,2.5 0 0 1 14,265.5 L14,6.5 A2.5,2.5 0 0 1 16.5,4 " fill="none" style="stroke:#000000;stroke-width:1.5;"/><line style="stroke:#000000;stroke-width:1.5;" x1="14" x2="127" y1="28.6211" y2="28.6211"/><text fill="#000000" font-family="sans-serif" font-size="14" font-weight="bold" lengthAdjust="spacing" textLength="100" x="18" y="21.1074">sensor_model</text></g><!--class SensorModel--><g id="elem_SensorModel"><rect codeLine="5" fill="#F1F1F1" height="76.543" id="SensorModel" rx="2.5" ry="2.5" style="stroke:#181818;stroke-width:0.5;" width="115" x="44.5" y="33"/><ellipse cx="59.5" cy="63.2715" fill="#ADD1B2" rx="11" ry="11" style="stroke:#181818;stroke-width:1.0;"/><path d="M62.2656,59.1465 Q62.4219,58.9277 62.6094,58.8184 Q62.7969,58.709 63.0156,58.709 Q63.3906,58.709 63.625,58.9746 Q63.8594,59.2246 63.8594,59.834 L63.8594,61.2871 Q63.8594,61.8965 63.625,62.1621 Q63.3906,62.4277 63.0156,62.4277 Q62.6719,62.4277 62.4688,62.2246 Q62.2656,62.0371 62.1563,61.5215 Q62.1094,61.1621 61.9219,60.9746 Q61.5938,60.5996 60.9844,60.3809 Q60.375,60.1621 59.75,60.1621 Q58.9844,60.1621 58.3438,60.4902 Q57.7188,60.8184 57.2188,61.5684 Q56.7344,62.3184 56.7344,63.3496 L56.7344,64.4434 Q56.7344,65.6777 57.625,66.5059 Q58.5156,67.3184 60.1094,67.3184 Q61.0469,67.3184 61.7031,67.0684 Q62.0938,66.9121 62.5156,66.4746 Q62.7813,66.209 62.9219,66.1309 Q63.0781,66.0527 63.2813,66.0527 Q63.6094,66.0527 63.8594,66.3184 Q64.125,66.5684 64.125,66.9121 Q64.125,67.2559 63.7813,67.6621 Q63.2813,68.2402 62.4844,68.5684 Q61.4063,69.0215 60.1094,69.0215 Q58.5938,69.0215 57.3906,68.3965 Q56.4063,67.8965 55.7188,66.834 Q55.0313,65.7559 55.0313,64.4746 L55.0313,63.3184 Q55.0313,61.9902 55.6406,60.8496 Q56.2656,59.6934 57.3594,59.084 Q58.4531,58.459 59.6875,58.459 Q60.4219,58.459 61.0625,58.6309 Q61.7188,58.7871 62.2656,59.1465 Z " fill="#000000"/><text fill="#000000" font-family="sans-serif" font-size="12" font-style="italic" lengthAdjust="spacing" textLength="44" x="93" y="50.9492">&#171;Entity&#187;</text><text fill="#000000" font-family="sans-serif" font-size="12" font-style="italic" lengthAdjust="spacing" textLength="40" x="95" y="66.9102">&#171;Root&#187;</text><text fill="#000000" font-family="sans-serif" font-size="14" lengthAdjust="spacing" textLength="83" x="73.5" y="85.0293">SensorModel</text><line style="stroke:#181818;stroke-width:0.5;" x1="45.5" x2="158.5" y1="93.543" y2="93.543"/><line style="stroke:#181818;stroke-width:0.5;" x1="45.5" x2="158.5" y1="101.543" y2="101.543"/></g><!--class ModelPath--><g id="elem_ModelPath"><rect codeLine="8" fill="#F1F1F1" height="95.1641" id="ModelPath" rx="2.5" ry="2.5" style="stroke:#181818;stroke-width:0.5;" width="111" x="22.5" y="165"/><ellipse cx="37.95" cy="195.2715" fill="#ADD1B2" rx="11" ry="11" style="stroke:#181818;stroke-width:1.0;"/><path d="M40.7156,191.1465 Q40.8719,190.9277 41.0594,190.8184 Q41.2469,190.709 41.4656,190.709 Q41.8406,190.709 42.075,190.9746 Q42.3094,191.2246 42.3094,191.834 L42.3094,193.2871 Q42.3094,193.8965 42.075,194.1621 Q41.8406,194.4277 41.4656,194.4277 Q41.1219,194.4277 40.9188,194.2246 Q40.7156,194.0371 40.6063,193.5215 Q40.5594,193.1621 40.3719,192.9746 Q40.0438,192.5996 39.4344,192.3809 Q38.825,192.1621 38.2,192.1621 Q37.4344,192.1621 36.7938,192.4902 Q36.1688,192.8184 35.6688,193.5684 Q35.1844,194.3184 35.1844,195.3496 L35.1844,196.4434 Q35.1844,197.6777 36.075,198.5059 Q36.9656,199.3184 38.5594,199.3184 Q39.4969,199.3184 40.1531,199.0684 Q40.5438,198.9121 40.9656,198.4746 Q41.2313,198.209 41.3719,198.1309 Q41.5281,198.0527 41.7313,198.0527 Q42.0594,198.0527 42.3094,198.3184 Q42.575,198.5684 42.575,198.9121 Q42.575,199.2559 42.2313,199.6621 Q41.7313,200.2402 40.9344,200.5684 Q39.8563,201.0215 38.5594,201.0215 Q37.0438,201.0215 35.8406,200.3965 Q34.8563,199.8965 34.1688,198.834 Q33.4813,197.7559 33.4813,196.4746 L33.4813,195.3184 Q33.4813,193.9902 34.0906,192.8496 Q34.7156,191.6934 35.8094,191.084 Q36.9031,190.459 38.1375,190.459 Q38.8719,190.459 39.5125,190.6309 Q40.1688,190.7871 40.7156,191.1465 Z " fill="#000000"/><text fill="#000000" font-family="sans-serif" font-size="12" font-style="italic" lengthAdjust="spacing" textLength="82" x="50.05" y="182.9492">&#171;ValueObject&#187;</text><text fill="#000000" font-family="sans-serif" font-size="12" font-style="italic" lengthAdjust="spacing" textLength="27" x="77.55" y="198.9102">&#171;ID&#187;</text><text fill="#000000" font-family="sans-serif" font-size="14" lengthAdjust="spacing" textLength="67" x="57.55" y="217.0293">ModelPath</text><line style="stroke:#181818;stroke-width:0.5;" x1="23.5" x2="132.5" y1="225.543" y2="225.543"/><rect fill="none" height="6" style="stroke:#C82930;stroke-width:1.0;" width="6" x="30.5" y="237.3535"/><text fill="#000000" font-family="sans-serif" font-size="14" lengthAdjust="spacing" textLength="85" x="42.5" y="244.6504">_path : String</text><line style="stroke:#181818;stroke-width:0.5;" x1="23.5" x2="132.5" y1="252.1641" y2="252.1641"/></g><!--class SensorModelName--><g id="elem_SensorModelName"><rect codeLine="11" fill="#F1F1F1" height="79.2031" id="SensorModelName" rx="2.5" ry="2.5" style="stroke:#181818;stroke-width:0.5;" width="200" x="152" y="173"/><ellipse cx="189.05" cy="195.291" fill="#ADD1B2" rx="11" ry="11" style="stroke:#181818;stroke-width:1.0;"/><path d="M191.8156,191.166 Q191.9719,190.9473 192.1594,190.8379 Q192.3469,190.7285 192.5656,190.7285 Q192.9406,190.7285 193.175,190.9941 Q193.4094,191.2441 193.4094,191.8535 L193.4094,193.3066 Q193.4094,193.916 193.175,194.1816 Q192.9406,194.4473 192.5656,194.4473 Q192.2219,194.4473 192.0188,194.2441 Q191.8156,194.0566 191.7063,193.541 Q191.6594,193.1816 191.4719,192.9941 Q191.1438,192.6191 190.5344,192.4004 Q189.925,192.1816 189.3,192.1816 Q188.5344,192.1816 187.8938,192.5098 Q187.2688,192.8379 186.7688,193.5879 Q186.2844,194.3379 186.2844,195.3691 L186.2844,196.4629 Q186.2844,197.6973 187.175,198.5254 Q188.0656,199.3379 189.6594,199.3379 Q190.5969,199.3379 191.2531,199.0879 Q191.6438,198.9316 192.0656,198.4941 Q192.3313,198.2285 192.4719,198.1504 Q192.6281,198.0723 192.8313,198.0723 Q193.1594,198.0723 193.4094,198.3379 Q193.675,198.5879 193.675,198.9316 Q193.675,199.2754 193.3313,199.6816 Q192.8313,200.2598 192.0344,200.5879 Q190.9563,201.041 189.6594,201.041 Q188.1438,201.041 186.9406,200.416 Q185.9563,199.916 185.2688,198.8535 Q184.5813,197.7754 184.5813,196.4941 L184.5813,195.3379 Q184.5813,194.0098 185.1906,192.8691 Q185.8156,191.7129 186.9094,191.1035 Q188.0031,190.4785 189.2375,190.4785 Q189.9719,190.4785 190.6125,190.6504 Q191.2688,190.8066 191.8156,191.166 Z " fill="#000000"/><text fill="#000000" font-family="sans-serif" font-size="12" font-style="italic" lengthAdjust="spacing" textLength="82" x="226.45" y="190.9492">&#171;ValueObject&#187;</text><text fill="#000000" font-family="sans-serif" font-size="14" lengthAdjust="spacing" textLength="119" x="207.95" y="209.0684">SensorModelName</text><line style="stroke:#181818;stroke-width:0.5;" x1="153" x2="351" y1="217.582" y2="217.582"/><rect fill="none" height="6" style="stroke:#C82930;stroke-width:1.0;" width="6" x="160" y="229.3926"/><text fill="#000000" font-family="sans-serif" font-size="14" lengthAdjust="spacing" textLength="174" x="172" y="236.6895">_sensorModelName : String</text><line style="stroke:#181818;stroke-width:0.5;" x1="153" x2="351" y1="244.2031" y2="244.2031"/></g><path d="M95.5053,110.1154 C92.59,126.9997 89.1213,147.0893 86.0435,164.9145 " fill="none" style="stroke:#181818;stroke-width:1.0;"/><text fill="#000000" font-family="sans-serif" font-size="13" lengthAdjust="spacing" textLength="21" x="93" y="143.0283">has</text><text fill="#000000" font-family="sans-serif" font-size="13" lengthAdjust="spacing" textLength="7" x="78.0435" y="160.9428">1</text><path d="M142.5922,110.1154 C163.589,129.5725 189.1794,153.2863 210.3303,172.8861 " fill="none" style="stroke:#181818;stroke-width:1.0;"/><text fill="#000000" font-family="sans-serif" font-size="13" lengthAdjust="spacing" textLength="21" x="182" y="143.0283">has</text><text fill="#000000" font-family="sans-serif" font-size="13" lengthAdjust="spacing" textLength="7" x="202.3303" y="168.9144">1</text><!--SRC=[ROyz3u8m48Rt_egJdS7LD9rqSF0ZahYI4nj0-q6uCX32VxS5JIfwq-NkUPzULqsBfKPGsDlE0Mdfq21Z3HPFB2MGD6JRNDkxL0DZuAjGI0JPj3Y4EN2-CwvslH2-lLZhX1WcT9mJxyW4dz5LdhgYwkJfzf25XpdVRp-HK2daJS0saBcsDkMy66DNzFmHjLmQlroqO9TQVsNy6qXJIDP9TEu6AgI_JFQZ3kGB]--></g></svg>