<?xml version="1.0" encoding="us-ascii" standalone="no"?><svg xmlns="http://www.w3.org/2000/svg" xmlns:xlink="http://www.w3.org/1999/xlink" contentStyleType="text/css" height="256px" preserveAspectRatio="none" style="width:432px;height:256px;background:#FFFFFF;" version="1.1" viewBox="0 0 432 256" width="432px" zoomAndPan="magnify"><defs/><g><!--cluster unit--><g id="cluster_unit"><path d="M16.5,4 L44.5,4 A3.75,3.75 0 0 1 47,6.5 L54,28.6211 L422.5,28.6211 A2.5,2.5 0 0 1 425,31.1211 L425,246.5 A2.5,2.5 0 0 1 422.5,249 L16.5,249 A2.5,2.5 0 0 1 14,246.5 L14,6.5 A2.5,2.5 0 0 1 16.5,4 " fill="none" style="stroke:#000000;stroke-width:1.5;"/><line style="stroke:#000000;stroke-width:1.5;" x1="14" x2="54" y1="28.6211" y2="28.6211"/><text fill="#000000" font-family="sans-serif" font-size="14" font-weight="bold" lengthAdjust="spacing" textLength="27" x="18" y="21.1074">unit</text></g><!--class Unit--><g id="elem_Unit"><rect codeLine="4" fill="#F1F1F1" height="76.543" id="Unit" rx="2.5" ry="2.5" style="stroke:#181818;stroke-width:0.5;" width="72" x="192" y="33"/><ellipse cx="207" cy="63.2715" fill="#ADD1B2" rx="11" ry="11" style="stroke:#181818;stroke-width:1.0;"/><path d="M209.7656,59.1465 Q209.9219,58.9277 210.1094,58.8184 Q210.2969,58.709 210.5156,58.709 Q210.8906,58.709 211.125,58.9746 Q211.3594,59.2246 211.3594,59.834 L211.3594,61.2871 Q211.3594,61.8965 211.125,62.1621 Q210.8906,62.4277 210.5156,62.4277 Q210.1719,62.4277 209.9688,62.2246 Q209.7656,62.0371 209.6563,61.5215 Q209.6094,61.1621 209.4219,60.9746 Q209.0938,60.5996 208.4844,60.3809 Q207.875,60.1621 207.25,60.1621 Q206.4844,60.1621 205.8438,60.4902 Q205.2188,60.8184 204.7188,61.5684 Q204.2344,62.3184 204.2344,63.3496 L204.2344,64.4434 Q204.2344,65.6777 205.125,66.5059 Q206.0156,67.3184 207.6094,67.3184 Q208.5469,67.3184 209.2031,67.0684 Q209.5938,66.9121 210.0156,66.4746 Q210.2813,66.209 210.4219,66.1309 Q210.5781,66.0527 210.7813,66.0527 Q211.1094,66.0527 211.3594,66.3184 Q211.625,66.5684 211.625,66.9121 Q211.625,67.2559 211.2813,67.6621 Q210.7813,68.2402 209.9844,68.5684 Q208.9063,69.0215 207.6094,69.0215 Q206.0938,69.0215 204.8906,68.3965 Q203.9063,67.8965 203.2188,66.834 Q202.5313,65.7559 202.5313,64.4746 L202.5313,63.3184 Q202.5313,61.9902 203.1406,60.8496 Q203.7656,59.6934 204.8594,59.084 Q205.9531,58.459 207.1875,58.459 Q207.9219,58.459 208.5625,58.6309 Q209.2188,58.7871 209.7656,59.1465 Z " fill="#000000"/><text fill="#000000" font-family="sans-serif" font-size="12" font-style="italic" lengthAdjust="spacing" textLength="44" x="219" y="50.9492">&#171;Entity&#187;</text><text fill="#000000" font-family="sans-serif" font-size="12" font-style="italic" lengthAdjust="spacing" textLength="40" x="221" y="66.9102">&#171;Root&#187;</text><text fill="#000000" font-family="sans-serif" font-size="14" lengthAdjust="spacing" textLength="24" x="229" y="85.0293">Unit</text><line style="stroke:#181818;stroke-width:0.5;" x1="193" x2="263" y1="93.543" y2="93.543"/><line style="stroke:#181818;stroke-width:0.5;" x1="193" x2="263" y1="101.543" y2="101.543"/></g><!--class UnitDescription--><g id="elem_UnitDescription"><rect codeLine="7" fill="#F1F1F1" height="79.2031" id="UnitDescription" rx="2.5" ry="2.5" style="stroke:#181818;stroke-width:0.5;" width="127" x="22.5" y="154"/><ellipse cx="37.5" cy="176.291" fill="#ADD1B2" rx="11" ry="11" style="stroke:#181818;stroke-width:1.0;"/><path d="M40.2656,172.166 Q40.4219,171.9473 40.6094,171.8379 Q40.7969,171.7285 41.0156,171.7285 Q41.3906,171.7285 41.625,171.9941 Q41.8594,172.2441 41.8594,172.8535 L41.8594,174.3066 Q41.8594,174.916 41.625,175.1816 Q41.3906,175.4473 41.0156,175.4473 Q40.6719,175.4473 40.4688,175.2441 Q40.2656,175.0566 40.1563,174.541 Q40.1094,174.1816 39.9219,173.9941 Q39.5938,173.6191 38.9844,173.4004 Q38.375,173.1816 37.75,173.1816 Q36.9844,173.1816 36.3438,173.5098 Q35.7188,173.8379 35.2188,174.5879 Q34.7344,175.3379 34.7344,176.3691 L34.7344,177.4629 Q34.7344,178.6973 35.625,179.5254 Q36.5156,180.3379 38.1094,180.3379 Q39.0469,180.3379 39.7031,180.0879 Q40.0938,179.9316 40.5156,179.4941 Q40.7813,179.2285 40.9219,179.1504 Q41.0781,179.0723 41.2813,179.0723 Q41.6094,179.0723 41.8594,179.3379 Q42.125,179.5879 42.125,179.9316 Q42.125,180.2754 41.7813,180.6816 Q41.2813,181.2598 40.4844,181.5879 Q39.4063,182.041 38.1094,182.041 Q36.5938,182.041 35.3906,181.416 Q34.4063,180.916 33.7188,179.8535 Q33.0313,178.7754 33.0313,177.4941 L33.0313,176.3379 Q33.0313,175.0098 33.6406,173.8691 Q34.2656,172.7129 35.3594,172.1035 Q36.4531,171.4785 37.6875,171.4785 Q38.4219,171.4785 39.0625,171.6504 Q39.7188,171.8066 40.2656,172.166 Z " fill="#000000"/><text fill="#000000" font-family="sans-serif" font-size="12" font-style="italic" lengthAdjust="spacing" textLength="82" x="58" y="171.9492">&#171;ValueObject&#187;</text><text fill="#000000" font-family="sans-serif" font-size="14" lengthAdjust="spacing" textLength="95" x="51.5" y="190.0684">UnitDescription</text><line style="stroke:#181818;stroke-width:0.5;" x1="23.5" x2="148.5" y1="198.582" y2="198.582"/><rect fill="none" height="6" style="stroke:#C82930;stroke-width:1.0;" width="6" x="30.5" y="210.3926"/><text fill="#000000" font-family="sans-serif" font-size="14" lengthAdjust="spacing" textLength="74" x="42.5" y="217.6895">_unit: string</text><line style="stroke:#181818;stroke-width:0.5;" x1="23.5" x2="148.5" y1="225.2031" y2="225.2031"/></g><!--class Symbol--><g id="elem_Symbol"><rect codeLine="10" fill="#F1F1F1" height="79.2031" id="Symbol" rx="2.5" ry="2.5" style="stroke:#181818;stroke-width:0.5;" width="121" x="167.5" y="154"/><ellipse cx="187.45" cy="176.291" fill="#ADD1B2" rx="11" ry="11" style="stroke:#181818;stroke-width:1.0;"/><path d="M190.2156,172.166 Q190.3719,171.9473 190.5594,171.8379 Q190.7469,171.7285 190.9656,171.7285 Q191.3406,171.7285 191.575,171.9941 Q191.8094,172.2441 191.8094,172.8535 L191.8094,174.3066 Q191.8094,174.916 191.575,175.1816 Q191.3406,175.4473 190.9656,175.4473 Q190.6219,175.4473 190.4188,175.2441 Q190.2156,175.0566 190.1063,174.541 Q190.0594,174.1816 189.8719,173.9941 Q189.5438,173.6191 188.9344,173.4004 Q188.325,173.1816 187.7,173.1816 Q186.9344,173.1816 186.2938,173.5098 Q185.6688,173.8379 185.1688,174.5879 Q184.6844,175.3379 184.6844,176.3691 L184.6844,177.4629 Q184.6844,178.6973 185.575,179.5254 Q186.4656,180.3379 188.0594,180.3379 Q188.9969,180.3379 189.6531,180.0879 Q190.0438,179.9316 190.4656,179.4941 Q190.7313,179.2285 190.8719,179.1504 Q191.0281,179.0723 191.2313,179.0723 Q191.5594,179.0723 191.8094,179.3379 Q192.075,179.5879 192.075,179.9316 Q192.075,180.2754 191.7313,180.6816 Q191.2313,181.2598 190.4344,181.5879 Q189.3563,182.041 188.0594,182.041 Q186.5438,182.041 185.3406,181.416 Q184.3563,180.916 183.6688,179.8535 Q182.9813,178.7754 182.9813,177.4941 L182.9813,176.3379 Q182.9813,175.0098 183.5906,173.8691 Q184.2156,172.7129 185.3094,172.1035 Q186.4031,171.4785 187.6375,171.4785 Q188.3719,171.4785 189.0125,171.6504 Q189.6688,171.8066 190.2156,172.166 Z " fill="#000000"/><text fill="#000000" font-family="sans-serif" font-size="12" font-style="italic" lengthAdjust="spacing" textLength="82" x="200.55" y="171.9492">&#171;ValueObject&#187;</text><text fill="#000000" font-family="sans-serif" font-size="14" lengthAdjust="spacing" textLength="46" x="218.55" y="190.0684">Symbol</text><line style="stroke:#181818;stroke-width:0.5;" x1="168.5" x2="287.5" y1="198.582" y2="198.582"/><rect fill="none" height="6" style="stroke:#C82930;stroke-width:1.0;" width="6" x="175.5" y="210.3926"/><text fill="#000000" font-family="sans-serif" font-size="14" lengthAdjust="spacing" textLength="95" x="187.5" y="217.6895">_symbol: string</text><line style="stroke:#181818;stroke-width:0.5;" x1="168.5" x2="287.5" y1="225.2031" y2="225.2031"/></g><!--class UnitID--><g id="elem_UnitID"><rect codeLine="13" fill="#F1F1F1" height="95.1641" id="UnitID" rx="2.5" ry="2.5" style="stroke:#181818;stroke-width:0.5;" width="110" x="307" y="146"/><ellipse cx="322" cy="176.2715" fill="#ADD1B2" rx="11" ry="11" style="stroke:#181818;stroke-width:1.0;"/><path d="M324.7656,172.1465 Q324.9219,171.9277 325.1094,171.8184 Q325.2969,171.709 325.5156,171.709 Q325.8906,171.709 326.125,171.9746 Q326.3594,172.2246 326.3594,172.834 L326.3594,174.2871 Q326.3594,174.8965 326.125,175.1621 Q325.8906,175.4277 325.5156,175.4277 Q325.1719,175.4277 324.9688,175.2246 Q324.7656,175.0371 324.6563,174.5215 Q324.6094,174.1621 324.4219,173.9746 Q324.0938,173.5996 323.4844,173.3809 Q322.875,173.1621 322.25,173.1621 Q321.4844,173.1621 320.8438,173.4902 Q320.2188,173.8184 319.7188,174.5684 Q319.2344,175.3184 319.2344,176.3496 L319.2344,177.4434 Q319.2344,178.6777 320.125,179.5059 Q321.0156,180.3184 322.6094,180.3184 Q323.5469,180.3184 324.2031,180.0684 Q324.5938,179.9121 325.0156,179.4746 Q325.2813,179.209 325.4219,179.1309 Q325.5781,179.0527 325.7813,179.0527 Q326.1094,179.0527 326.3594,179.3184 Q326.625,179.5684 326.625,179.9121 Q326.625,180.2559 326.2813,180.6621 Q325.7813,181.2402 324.9844,181.5684 Q323.9063,182.0215 322.6094,182.0215 Q321.0938,182.0215 319.8906,181.3965 Q318.9063,180.8965 318.2188,179.834 Q317.5313,178.7559 317.5313,177.4746 L317.5313,176.3184 Q317.5313,174.9902 318.1406,173.8496 Q318.7656,172.6934 319.8594,172.084 Q320.9531,171.459 322.1875,171.459 Q322.9219,171.459 323.5625,171.6309 Q324.2188,171.7871 324.7656,172.1465 Z " fill="#000000"/><text fill="#000000" font-family="sans-serif" font-size="12" font-style="italic" lengthAdjust="spacing" textLength="82" x="334" y="163.9492">&#171;ValueObject&#187;</text><text fill="#000000" font-family="sans-serif" font-size="12" font-style="italic" lengthAdjust="spacing" textLength="27" x="361.5" y="179.9102">&#171;ID&#187;</text><text fill="#000000" font-family="sans-serif" font-size="14" lengthAdjust="spacing" textLength="37" x="356.5" y="198.0293">UnitID</text><line style="stroke:#181818;stroke-width:0.5;" x1="308" x2="416" y1="206.543" y2="206.543"/><rect fill="none" height="6" style="stroke:#C82930;stroke-width:1.0;" width="6" x="315" y="218.3535"/><text fill="#000000" font-family="sans-serif" font-size="14" lengthAdjust="spacing" textLength="62" x="327" y="225.6504">_id: string</text><line style="stroke:#181818;stroke-width:0.5;" x1="308" x2="416" y1="233.1641" y2="233.1641"/></g><polygon fill="#181818" points="131.82,153.7789,141.276,151.0249,135.6389,150.5516,136.1123,144.9146,131.82,153.7789" style="stroke:#181818;stroke-width:1.0;"/><path d="M191.8,103.0916 C173.5582,118.5071 155.8275,133.4908 136.4027,149.9061 " fill="none" style="stroke:#181818;stroke-width:1.0;"/><text fill="#000000" font-family="sans-serif" font-size="13" lengthAdjust="spacing" textLength="7" x="123.82" y="149.8072">1</text><polygon fill="#181818" points="228,153.753,232,144.753,228,148.753,224,144.753,228,153.753" style="stroke:#181818;stroke-width:1.0;"/><path d="M228,110.1395 C228,124.0239 228,133.7724 228,147.753 " fill="none" style="stroke:#181818;stroke-width:1.0;"/><text fill="#000000" font-family="sans-serif" font-size="13" lengthAdjust="spacing" textLength="7" x="220" y="149.7814">1</text><polygon fill="#181818" points="309.8601,145.8076,305.8241,136.8237,306.1354,142.472,300.4871,142.7833,309.8601,145.8076" style="stroke:#181818;stroke-width:1.0;"/><path d="M264.2623,104.9737 C278.2915,117.5371 290.1465,128.1536 305.3904,141.8049 " fill="none" style="stroke:#181818;stroke-width:1.0;"/><text fill="#000000" font-family="sans-serif" font-size="13" lengthAdjust="spacing" textLength="7" x="301.8601" y="141.8359">1</text><!--SRC=[VO-z3i8m38JtF8Nfte4LHPd2q0a9L5RaXgWAf4dKk4E5-kxq1w4gAdYqxpxVxKABTODWiVSTGMmqeKF60gedrXewPmXU3CPH5cE4SbfmVdHag1U2yxFt9CIecKL38fKwgjO4CjwDhYlQJf-gXrQB1JwJmsrwT818hN7rTx-cNVgcylOl8ywI7vHLg4AcMJWlP4epzmqIc_j3dWl8zbbQCRakaJSiXMJ36m00]--></g></svg>