<?xml version="1.0" encoding="us-ascii" standalone="no"?><svg xmlns="http://www.w3.org/2000/svg" xmlns:xlink="http://www.w3.org/1999/xlink" contentStyleType="text/css" height="516px" preserveAspectRatio="none" style="width:1739px;height:516px;background:#FFFFFF;" version="1.1" viewBox="0 0 1739 516" width="1739px" zoomAndPan="magnify"><defs/><g><!--cluster SmartHome--><g id="cluster_SmartHome"><path d="M16.5,4 L97.5,4 A3.75,3.75 0 0 1 100,6.5 L107,28.6211 L1729.5,28.6211 A2.5,2.5 0 0 1 1732,31.1211 L1732,506.5 A2.5,2.5 0 0 1 1729.5,509 L16.5,509 A2.5,2.5 0 0 1 14,506.5 L14,6.5 A2.5,2.5 0 0 1 16.5,4 " fill="none" style="stroke:#000000;stroke-width:1.5;"/><line style="stroke:#000000;stroke-width:1.5;" x1="14" x2="107" y1="28.6211" y2="28.6211"/><text fill="#000000" font-family="sans-serif" font-size="14" font-weight="bold" lengthAdjust="spacing" textLength="80" x="18" y="21.1074">SmartHome</text></g><!--cluster sensors--><g id="cluster_sensors"><path d="M24.5,33 L82.5,33 A3.75,3.75 0 0 1 85,35.5 L92,57.6211 L363.5,57.6211 A2.5,2.5 0 0 1 366,60.1211 L366,442.5 A2.5,2.5 0 0 1 363.5,445 L24.5,445 A2.5,2.5 0 0 1 22,442.5 L22,35.5 A2.5,2.5 0 0 1 24.5,33 " fill="none" style="stroke:#000000;stroke-width:1.5;"/><line style="stroke:#000000;stroke-width:1.5;" x1="22" x2="92" y1="57.6211" y2="57.6211"/><text fill="#000000" font-family="sans-serif" font-size="14" font-weight="bold" lengthAdjust="spacing" textLength="57" x="26" y="50.1074">sensors</text></g><!--cluster domain--><g id="cluster_domain"><path d="M376.5,248 L428.5,248 A3.75,3.75 0 0 1 431,250.5 L438,272.6211 L1721.5,272.6211 A2.5,2.5 0 0 1 1724,275.1211 L1724,498.5 A2.5,2.5 0 0 1 1721.5,501 L376.5,501 A2.5,2.5 0 0 1 374,498.5 L374,250.5 A2.5,2.5 0 0 1 376.5,248 " fill="none" style="stroke:#000000;stroke-width:1.5;"/><line style="stroke:#000000;stroke-width:1.5;" x1="374" x2="438" y1="272.6211" y2="272.6211"/><text fill="#000000" font-family="sans-serif" font-size="14" font-weight="bold" lengthAdjust="spacing" textLength="51" x="378" y="265.1074">domain</text></g><!--class DewPointSensor--><g id="elem_DewPointSensor"><rect codeLine="5" fill="#F1F1F1" height="141.1055" id="DewPointSensor" rx="2.5" ry="2.5" style="stroke:#181818;stroke-width:0.5;" width="328" x="30" y="62"/><ellipse cx="137.75" cy="78" fill="#ADD1B2" rx="11" ry="11" style="stroke:#181818;stroke-width:1.0;"/><path d="M140.5156,73.875 Q140.6719,73.6563 140.8594,73.5469 Q141.0469,73.4375 141.2656,73.4375 Q141.6406,73.4375 141.875,73.7031 Q142.1094,73.9531 142.1094,74.5625 L142.1094,76.0156 Q142.1094,76.625 141.875,76.8906 Q141.6406,77.1563 141.2656,77.1563 Q140.9219,77.1563 140.7188,76.9531 Q140.5156,76.7656 140.4063,76.25 Q140.3594,75.8906 140.1719,75.7031 Q139.8438,75.3281 139.2344,75.1094 Q138.625,74.8906 138,74.8906 Q137.2344,74.8906 136.5938,75.2188 Q135.9688,75.5469 135.4688,76.2969 Q134.9844,77.0469 134.9844,78.0781 L134.9844,79.1719 Q134.9844,80.4063 135.875,81.2344 Q136.7656,82.0469 138.3594,82.0469 Q139.2969,82.0469 139.9531,81.7969 Q140.3438,81.6406 140.7656,81.2031 Q141.0313,80.9375 141.1719,80.8594 Q141.3281,80.7813 141.5313,80.7813 Q141.8594,80.7813 142.1094,81.0469 Q142.375,81.2969 142.375,81.6406 Q142.375,81.9844 142.0313,82.3906 Q141.5313,82.9688 140.7344,83.2969 Q139.6563,83.75 138.3594,83.75 Q136.8438,83.75 135.6406,83.125 Q134.6563,82.625 133.9688,81.5625 Q133.2813,80.4844 133.2813,79.2031 L133.2813,78.0469 Q133.2813,76.7188 133.8906,75.5781 Q134.5156,74.4219 135.6094,73.8125 Q136.7031,73.1875 137.9375,73.1875 Q138.6719,73.1875 139.3125,73.3594 Q139.9688,73.5156 140.5156,73.875 Z " fill="#000000"/><text fill="#000000" font-family="sans-serif" font-size="14" lengthAdjust="spacing" textLength="104" x="158.25" y="83.7969">DewPointSensor</text><line style="stroke:#181818;stroke-width:0.5;" x1="31" x2="357" y1="94" y2="94"/><rect fill="none" height="6" style="stroke:#C82930;stroke-width:1.0;" width="6" x="38" y="105.8105"/><text fill="#000000" font-family="sans-serif" font-size="14" lengthAdjust="spacing" textLength="172" x="50" y="113.1074">_sensorType : SensorType</text><rect fill="none" height="6" style="stroke:#C82930;stroke-width:1.0;" width="6" x="38" y="124.4316"/><text fill="#000000" font-family="sans-serif" font-size="14" lengthAdjust="spacing" textLength="208" x="50" y="131.7285">_dewPointValue : DewPointValue</text><line style="stroke:#181818;stroke-width:0.5;" x1="31" x2="357" y1="139.2422" y2="139.2422"/><ellipse cx="41" cy="154.0527" fill="#84BE84" rx="3" ry="3" style="stroke:#038048;stroke-width:1.0;"/><text fill="#000000" font-family="sans-serif" font-size="14" lengthAdjust="spacing" textLength="302" x="50" y="158.3496">DewPointSensor (catalogue : CatalogueSensor)</text><ellipse cx="41" cy="172.6738" fill="#84BE84" rx="3" ry="3" style="stroke:#038048;stroke-width:1.0;"/><text fill="#000000" font-family="sans-serif" font-size="14" lengthAdjust="spacing" textLength="200" x="50" y="176.9707">getSensorType () : SensorType</text><ellipse cx="41" cy="191.2949" fill="#84BE84" rx="3" ry="3" style="stroke:#038048;stroke-width:1.0;"/><text fill="#000000" font-family="sans-serif" font-size="14" lengthAdjust="spacing" textLength="118" x="50" y="195.5918">getValue () : Value</text></g><!--class DewPointValue--><g id="elem_DewPointValue"><rect codeLine="14" fill="#F1F1F1" height="103.8633" id="DewPointValue" rx="2.5" ry="2.5" style="stroke:#181818;stroke-width:0.5;" width="251" x="88.5" y="333"/><ellipse cx="162.25" cy="349" fill="#ADD1B2" rx="11" ry="11" style="stroke:#181818;stroke-width:1.0;"/><path d="M165.0156,344.875 Q165.1719,344.6563 165.3594,344.5469 Q165.5469,344.4375 165.7656,344.4375 Q166.1406,344.4375 166.375,344.7031 Q166.6094,344.9531 166.6094,345.5625 L166.6094,347.0156 Q166.6094,347.625 166.375,347.8906 Q166.1406,348.1563 165.7656,348.1563 Q165.4219,348.1563 165.2188,347.9531 Q165.0156,347.7656 164.9063,347.25 Q164.8594,346.8906 164.6719,346.7031 Q164.3438,346.3281 163.7344,346.1094 Q163.125,345.8906 162.5,345.8906 Q161.7344,345.8906 161.0938,346.2188 Q160.4688,346.5469 159.9688,347.2969 Q159.4844,348.0469 159.4844,349.0781 L159.4844,350.1719 Q159.4844,351.4063 160.375,352.2344 Q161.2656,353.0469 162.8594,353.0469 Q163.7969,353.0469 164.4531,352.7969 Q164.8438,352.6406 165.2656,352.2031 Q165.5313,351.9375 165.6719,351.8594 Q165.8281,351.7813 166.0313,351.7813 Q166.3594,351.7813 166.6094,352.0469 Q166.875,352.2969 166.875,352.6406 Q166.875,352.9844 166.5313,353.3906 Q166.0313,353.9688 165.2344,354.2969 Q164.1563,354.75 162.8594,354.75 Q161.3438,354.75 160.1406,354.125 Q159.1563,353.625 158.4688,352.5625 Q157.7813,351.4844 157.7813,350.2031 L157.7813,349.0469 Q157.7813,347.7188 158.3906,346.5781 Q159.0156,345.4219 160.1094,344.8125 Q161.2031,344.1875 162.4375,344.1875 Q163.1719,344.1875 163.8125,344.3594 Q164.4688,344.5156 165.0156,344.875 Z " fill="#000000"/><text fill="#000000" font-family="sans-serif" font-size="14" lengthAdjust="spacing" textLength="95" x="182.75" y="354.7969">DewPointValue</text><line style="stroke:#181818;stroke-width:0.5;" x1="89.5" x2="338.5" y1="365" y2="365"/><rect fill="none" height="6" style="stroke:#C82930;stroke-width:1.0;" width="6" x="96.5" y="376.8105"/><text fill="#000000" font-family="sans-serif" font-size="14" lengthAdjust="spacing" textLength="92" x="108.5" y="384.1074">_dewPoint : int</text><line style="stroke:#181818;stroke-width:0.5;" x1="89.5" x2="338.5" y1="391.6211" y2="391.6211"/><ellipse cx="99.5" cy="406.4316" fill="#84BE84" rx="3" ry="3" style="stroke:#038048;stroke-width:1.0;"/><text fill="#000000" font-family="sans-serif" font-size="14" lengthAdjust="spacing" textLength="225" x="108.5" y="410.7285">DewPointValue(dewPointValue : int)</text><ellipse cx="99.5" cy="425.0527" fill="#84BE84" rx="3" ry="3" style="stroke:#038048;stroke-width:1.0;"/><text fill="#000000" font-family="sans-serif" font-size="14" lengthAdjust="spacing" textLength="108" x="108.5" y="429.3496">toString() : String</text></g><!--class Value--><g id="elem_Value"><rect codeLine="39" fill="#F1F1F1" height="48" id="Value" rx="2.5" ry="2.5" style="stroke:#181818;stroke-width:0.5;" width="68" x="382" y="361"/><ellipse cx="397" cy="377" fill="#B4A7E5" rx="11" ry="11" style="stroke:#181818;stroke-width:1.0;"/><path d="M397.9531,373.6406 L397.9531,380.2969 L399.6719,380.2969 Q400.2813,380.2969 400.5469,380.5313 Q400.8125,380.7656 400.8125,381.1563 Q400.8125,381.5313 400.5469,381.7656 Q400.2813,382 399.6719,382 L394.5313,382 Q393.9219,382 393.6563,381.7656 Q393.3906,381.5313 393.3906,381.1406 Q393.3906,380.7656 393.6563,380.5313 Q393.9219,380.2969 394.5313,380.2969 L396.25,380.2969 L396.25,373.6406 L394.5313,373.6406 Q393.9219,373.6406 393.6563,373.4063 Q393.3906,373.1719 393.3906,372.7813 Q393.3906,372.4063 393.6563,372.1719 Q393.9219,371.9375 394.5313,371.9375 L399.6719,371.9375 Q400.2813,371.9375 400.5469,372.1719 Q400.8125,372.4063 400.8125,372.7813 Q400.8125,373.1719 400.5469,373.4063 Q400.2813,373.6406 399.6719,373.6406 L397.9531,373.6406 Z " fill="#000000"/><text fill="#000000" font-family="sans-serif" font-size="14" font-style="italic" lengthAdjust="spacing" textLength="36" x="411" y="382.7969">Value</text><line style="stroke:#181818;stroke-width:0.5;" x1="383" x2="449" y1="393" y2="393"/><line style="stroke:#181818;stroke-width:0.5;" x1="383" x2="449" y1="401" y2="401"/></g><!--class Sensor--><g id="elem_Sensor"><rect codeLine="25" fill="#F1F1F1" height="85.2422" id="Sensor" rx="2.5" ry="2.5" style="stroke:#181818;stroke-width:0.5;" width="222" x="468" y="342.5"/><ellipse cx="552.25" cy="358.5" fill="#B4A7E5" rx="11" ry="11" style="stroke:#181818;stroke-width:1.0;"/><path d="M553.2031,355.1406 L553.2031,361.7969 L554.9219,361.7969 Q555.5313,361.7969 555.7969,362.0313 Q556.0625,362.2656 556.0625,362.6563 Q556.0625,363.0313 555.7969,363.2656 Q555.5313,363.5 554.9219,363.5 L549.7813,363.5 Q549.1719,363.5 548.9063,363.2656 Q548.6406,363.0313 548.6406,362.6406 Q548.6406,362.2656 548.9063,362.0313 Q549.1719,361.7969 549.7813,361.7969 L551.5,361.7969 L551.5,355.1406 L549.7813,355.1406 Q549.1719,355.1406 548.9063,354.9063 Q548.6406,354.6719 548.6406,354.2813 Q548.6406,353.9063 548.9063,353.6719 Q549.1719,353.4375 549.7813,353.4375 L554.9219,353.4375 Q555.5313,353.4375 555.7969,353.6719 Q556.0625,353.9063 556.0625,354.2813 Q556.0625,354.6719 555.7969,354.9063 Q555.5313,355.1406 554.9219,355.1406 L553.2031,355.1406 Z " fill="#000000"/><text fill="#000000" font-family="sans-serif" font-size="14" font-style="italic" lengthAdjust="spacing" textLength="45" x="572.75" y="364.2969">Sensor</text><line style="stroke:#181818;stroke-width:0.5;" x1="469" x2="689" y1="374.5" y2="374.5"/><line style="stroke:#181818;stroke-width:0.5;" x1="469" x2="689" y1="382.5" y2="382.5"/><ellipse cx="479" cy="397.3105" fill="#84BE84" rx="3" ry="3" style="stroke:#038048;stroke-width:1.0;"/><text fill="#000000" font-family="sans-serif" font-size="14" lengthAdjust="spacing" textLength="196" x="488" y="401.6074">getSensorType() : SensorType</text><ellipse cx="479" cy="415.9316" fill="#84BE84" rx="3" ry="3" style="stroke:#038048;stroke-width:1.0;"/><text fill="#000000" font-family="sans-serif" font-size="14" lengthAdjust="spacing" textLength="114" x="488" y="420.2285">getValue() : Value</text></g><!--class SensorType--><g id="elem_SensorType"><rect codeLine="30" fill="#F1F1F1" height="141.1055" id="SensorType" rx="2.5" ry="2.5" style="stroke:#181818;stroke-width:0.5;" width="316" x="708" y="314.5"/><ellipse cx="823.25" cy="330.5" fill="#ADD1B2" rx="11" ry="11" style="stroke:#181818;stroke-width:1.0;"/><path d="M826.0156,326.375 Q826.1719,326.1563 826.3594,326.0469 Q826.5469,325.9375 826.7656,325.9375 Q827.1406,325.9375 827.375,326.2031 Q827.6094,326.4531 827.6094,327.0625 L827.6094,328.5156 Q827.6094,329.125 827.375,329.3906 Q827.1406,329.6563 826.7656,329.6563 Q826.4219,329.6563 826.2188,329.4531 Q826.0156,329.2656 825.9063,328.75 Q825.8594,328.3906 825.6719,328.2031 Q825.3438,327.8281 824.7344,327.6094 Q824.125,327.3906 823.5,327.3906 Q822.7344,327.3906 822.0938,327.7188 Q821.4688,328.0469 820.9688,328.7969 Q820.4844,329.5469 820.4844,330.5781 L820.4844,331.6719 Q820.4844,332.9063 821.375,333.7344 Q822.2656,334.5469 823.8594,334.5469 Q824.7969,334.5469 825.4531,334.2969 Q825.8438,334.1406 826.2656,333.7031 Q826.5313,333.4375 826.6719,333.3594 Q826.8281,333.2813 827.0313,333.2813 Q827.3594,333.2813 827.6094,333.5469 Q827.875,333.7969 827.875,334.1406 Q827.875,334.4844 827.5313,334.8906 Q827.0313,335.4688 826.2344,335.7969 Q825.1563,336.25 823.8594,336.25 Q822.3438,336.25 821.1406,335.625 Q820.1563,335.125 819.4688,334.0625 Q818.7813,332.9844 818.7813,331.7031 L818.7813,330.5469 Q818.7813,329.2188 819.3906,328.0781 Q820.0156,326.9219 821.1094,326.3125 Q822.2031,325.6875 823.4375,325.6875 Q824.1719,325.6875 824.8125,325.8594 Q825.4688,326.0156 826.0156,326.375 Z " fill="#000000"/><text fill="#000000" font-family="sans-serif" font-size="14" lengthAdjust="spacing" textLength="77" x="843.75" y="336.2969">SensorType</text><line style="stroke:#181818;stroke-width:0.5;" x1="709" x2="1023" y1="346.5" y2="346.5"/><rect fill="none" height="6" style="stroke:#C82930;stroke-width:1.0;" width="6" x="716" y="358.3105"/><text fill="#000000" font-family="sans-serif" font-size="14" lengthAdjust="spacing" textLength="174" x="728" y="365.6074">final _strDescription : String</text><rect fill="none" height="6" style="stroke:#C82930;stroke-width:1.0;" width="6" x="716" y="376.9316"/><text fill="#000000" font-family="sans-serif" font-size="14" lengthAdjust="spacing" textLength="97" x="728" y="384.2285">final _unit : Unit</text><line style="stroke:#181818;stroke-width:0.5;" x1="709" x2="1023" y1="391.7422" y2="391.7422"/><polygon fill="#FFFF44" points="719,401.5527,723,405.5527,719,409.5527,715,405.5527" style="stroke:#B38D22;stroke-width:1.0;"/><text fill="#000000" font-family="sans-serif" font-size="14" lengthAdjust="spacing" textLength="290" x="728" y="410.8496">SensorType(strDescription : String, unit : Unit)</text><ellipse cx="719" cy="425.1738" fill="#84BE84" rx="3" ry="3" style="stroke:#038048;stroke-width:1.0;"/><text fill="#000000" font-family="sans-serif" font-size="14" lengthAdjust="spacing" textLength="168" x="728" y="429.4707">getStrDescription() : String</text><ellipse cx="719" cy="443.7949" fill="#84BE84" rx="3" ry="3" style="stroke:#038048;stroke-width:1.0;"/><text fill="#000000" font-family="sans-serif" font-size="14" lengthAdjust="spacing" textLength="90" x="728" y="448.0918">getUnit() : Unit</text></g><!--class CatalogueSensor--><g id="elem_CatalogueSensor"><rect codeLine="42" fill="#F1F1F1" height="215.5898" id="CatalogueSensor" rx="2.5" ry="2.5" style="stroke:#181818;stroke-width:0.5;" width="673" x="1042.5" y="277"/><ellipse cx="1319.75" cy="293" fill="#ADD1B2" rx="11" ry="11" style="stroke:#181818;stroke-width:1.0;"/><path d="M1322.5156,288.875 Q1322.6719,288.6563 1322.8594,288.5469 Q1323.0469,288.4375 1323.2656,288.4375 Q1323.6406,288.4375 1323.875,288.7031 Q1324.1094,288.9531 1324.1094,289.5625 L1324.1094,291.0156 Q1324.1094,291.625 1323.875,291.8906 Q1323.6406,292.1563 1323.2656,292.1563 Q1322.9219,292.1563 1322.7188,291.9531 Q1322.5156,291.7656 1322.4063,291.25 Q1322.3594,290.8906 1322.1719,290.7031 Q1321.8438,290.3281 1321.2344,290.1094 Q1320.625,289.8906 1320,289.8906 Q1319.2344,289.8906 1318.5938,290.2188 Q1317.9688,290.5469 1317.4688,291.2969 Q1316.9844,292.0469 1316.9844,293.0781 L1316.9844,294.1719 Q1316.9844,295.4063 1317.875,296.2344 Q1318.7656,297.0469 1320.3594,297.0469 Q1321.2969,297.0469 1321.9531,296.7969 Q1322.3438,296.6406 1322.7656,296.2031 Q1323.0313,295.9375 1323.1719,295.8594 Q1323.3281,295.7813 1323.5313,295.7813 Q1323.8594,295.7813 1324.1094,296.0469 Q1324.375,296.2969 1324.375,296.6406 Q1324.375,296.9844 1324.0313,297.3906 Q1323.5313,297.9688 1322.7344,298.2969 Q1321.6563,298.75 1320.3594,298.75 Q1318.8438,298.75 1317.6406,298.125 Q1316.6563,297.625 1315.9688,296.5625 Q1315.2813,295.4844 1315.2813,294.2031 L1315.2813,293.0469 Q1315.2813,291.7188 1315.8906,290.5781 Q1316.5156,289.4219 1317.6094,288.8125 Q1318.7031,288.1875 1319.9375,288.1875 Q1320.6719,288.1875 1321.3125,288.3594 Q1321.9688,288.5156 1322.5156,288.875 Z " fill="#000000"/><text fill="#000000" font-family="sans-serif" font-size="14" lengthAdjust="spacing" textLength="110" x="1340.25" y="298.7969">CatalogueSensor</text><line style="stroke:#181818;stroke-width:0.5;" x1="1043.5" x2="1714.5" y1="309" y2="309"/><rect fill="none" height="6" style="stroke:#C82930;stroke-width:1.0;" width="6" x="1050.5" y="320.8105"/><text fill="#000000" font-family="sans-serif" font-size="14" lengthAdjust="spacing" textLength="229" x="1062.5" y="328.1074">_listSensorType : List&lt;SensorType&gt;</text><rect fill="none" height="6" style="stroke:#C82930;stroke-width:1.0;" width="6" x="1050.5" y="339.4316"/><text fill="#000000" font-family="sans-serif" font-size="14" lengthAdjust="spacing" textLength="244" x="1062.5" y="346.7285">_listStringClassesSensor : List&lt;String&gt;</text><line style="stroke:#181818;stroke-width:0.5;" x1="1043.5" x2="1714.5" y1="354.2422" y2="354.2422"/><ellipse cx="1053.5" cy="369.0527" fill="#84BE84" rx="3" ry="3" style="stroke:#038048;stroke-width:1.0;"/><text fill="#000000" font-family="sans-serif" font-size="14" lengthAdjust="spacing" textLength="243" x="1062.5" y="373.3496">CatalogueSensor(String filePathname)</text><ellipse cx="1053.5" cy="387.6738" fill="#84BE84" rx="3" ry="3" style="stroke:#038048;stroke-width:1.0;"/><text fill="#000000" font-family="sans-serif" font-size="14" lengthAdjust="spacing" textLength="647" x="1062.5" y="391.9707">addSensorType(String strDescription, Unit unit, SensorTypeFactory sensorTypeFactory) : SensorType</text><ellipse cx="1053.5" cy="406.2949" fill="#84BE84" rx="3" ry="3" style="stroke:#038048;stroke-width:1.0;"/><text fill="#000000" font-family="sans-serif" font-size="14" lengthAdjust="spacing" textLength="391" x="1062.5" y="410.5918">addSensorTypeToList(SensorType sensorType): SensorType</text><ellipse cx="1053.5" cy="424.916" fill="#84BE84" rx="3" ry="3" style="stroke:#038048;stroke-width:1.0;"/><text fill="#000000" font-family="sans-serif" font-size="14" lengthAdjust="spacing" textLength="320" x="1062.5" y="429.2129">getSensorType(String strDescription): SensorType</text><ellipse cx="1053.5" cy="443.5371" fill="#84BE84" rx="3" ry="3" style="stroke:#038048;stroke-width:1.0;"/><text fill="#000000" font-family="sans-serif" font-size="14" lengthAdjust="spacing" textLength="237" x="1062.5" y="447.834">getSensorTypes(): List&lt;SensorType&gt;</text><ellipse cx="1053.5" cy="462.1582" fill="#84BE84" rx="3" ry="3" style="stroke:#038048;stroke-width:1.0;"/><text fill="#000000" font-family="sans-serif" font-size="14" lengthAdjust="spacing" textLength="203" x="1062.5" y="466.4551">getSensorModels(): List&lt;String&gt;</text><ellipse cx="1053.5" cy="480.7793" fill="#84BE84" rx="3" ry="3" style="stroke:#038048;stroke-width:1.0;"/><text fill="#000000" font-family="sans-serif" font-size="14" lengthAdjust="spacing" textLength="419" x="1062.5" y="485.0762">getSensor(String strModel, SensorFactory sensorFactory): Sensor</text></g><polygon fill="none" points="381.7944,385,363.7944,379,363.7944,391,381.7944,385" style="stroke:#181818;stroke-width:1.0;"/><path d="M363.7944,385 C349.8148,385 353.8351,385 339.8555,385 " fill="none" style="stroke:#181818;stroke-width:1.0;stroke-dasharray:7.0,7.0;"/><polygon fill="none" points="550.0976,342.4247,544.0654,324.4354,534.4783,331.6525,550.0976,342.4247" style="stroke:#181818;stroke-width:1.0;"/><path d="M358.1234,191.0062 C393.0029,206.8247 428.4783,225.8473 459,248 C495.0592,274.1718 517.0922,298.5809 539.2719,328.044 " fill="none" style="stroke:#181818;stroke-width:1.0;stroke-dasharray:7.0,7.0;"/><polygon fill="#181818" points="795.4514,314.4011,791.2584,305.4894,791.6687,311.1314,786.0267,311.5417,795.4514,314.4011" style="stroke:#181818;stroke-width:1.0;"/><path d="M358.1312,151.2738 C460.1425,166.9514 591.8077,195.7961 699,248 C733.6248,264.8627 762.8823,286.2482 790.9122,310.4774 " fill="none" style="stroke:#181818;stroke-width:1.0;"/><text fill="#000000" font-family="sans-serif" font-size="13" lengthAdjust="spacing" textLength="35" x="674" y="236.0283">&#171;has&#187;</text><text fill="#000000" font-family="sans-serif" font-size="13" lengthAdjust="spacing" textLength="7" x="787.4514" y="310.4294">1</text><text fill="#000000" font-family="sans-serif" font-size="13" lengthAdjust="spacing" textLength="7" x="359.1312" y="166.3022">1</text><polygon fill="#181818" points="209.9173,332.8639,213.1883,323.5741,209.5193,327.8798,205.2137,324.2108,209.9173,332.8639" style="stroke:#181818;stroke-width:1.0;"/><path d="M199.5711,203.2782 C202.8537,244.3922 206.4566,289.5185 209.4398,326.8829 " fill="none" style="stroke:#181818;stroke-width:1.0;"/><text fill="#000000" font-family="sans-serif" font-size="13" lengthAdjust="spacing" textLength="35" x="203" y="236.0283">&#171;has&#187;</text><text fill="#000000" font-family="sans-serif" font-size="13" lengthAdjust="spacing" textLength="7" x="201.9173" y="328.8922">1</text><text fill="#000000" font-family="sans-serif" font-size="13" lengthAdjust="spacing" textLength="7" x="191.5711" y="218.3065">1</text><polygon fill="#181818" points="1126.6776,276.8578,1119.4953,270.1188,1121.9561,275.2124,1116.8626,277.6732,1126.6776,276.8578" style="stroke:#181818;stroke-width:1.0;"/><path d="M1121.0118,274.8833 C1089.8231,264.014 1063.759,256.0205 1033,248 C803.083,188.0485 529.0558,158.1578 358.2611,144.2669 " fill="none" style="stroke:#181818;stroke-width:1.0;stroke-dasharray:7.0,7.0;"/><text fill="#000000" font-family="sans-serif" font-size="13" lengthAdjust="spacing" textLength="42" x="989" y="236.0283">&#171;uses&#187;</text><text fill="#000000" font-family="sans-serif" font-size="13" lengthAdjust="spacing" textLength="7" x="359.2611" y="140.2952">1</text><text fill="#000000" font-family="sans-serif" font-size="13" lengthAdjust="spacing" textLength="7" x="1118.6776" y="272.8862">1</text><polygon fill="none" points="381.7944,385,363.7944,379,363.7944,391,381.7944,385" style="stroke:#181818;stroke-width:1.0;"/><path d="M339.8555,385 C353.8351,385 349.8148,385 363.7944,385 " fill="none" style="stroke:#181818;stroke-width:1.0;stroke-dasharray:7.0,7.0;"/><!--SRC=[dLHDJuGm4BtpAqQzi76NnAiXNDmO3vgOh7er4wZOM5f2kp4RzRzR-W6b2suYXwLqthoPzphRixR3ka5WU11x1R8X2ZacIOlb1zO4TWrswauq99E4Iz59-4eIq4_9K4hOaiz7GRdQcQ2EWNisy6eJdWujWMlO3HyXf7BfByZsFMeRVYS3yZAkavQea8dQ9DtujGsknhIQgB4kfAlvFdgORS0WREq-y3Edr29fqpBI4Avau50b6gGyiuYlEPsQNl_E2JD9QUo7NWPoG8cTwYYlhHApz8t-p1sPRSYVc2OZtHkM18vEwn8cLYqw1TwglvmABBSLDl16EJ8z4QhR4bbsj5LKyAc60RJdjFVfMRyiwqN0c2vGh258ivPPJHDux9k1z1acO2e6QaQ_mXETI8r6Rz3xogWCH-yQxlL6FkuK4w3fwAPd9D8n-GmJAXBNRbGljM7j72EFgDuvDiIBnweAR7F0gNjh8zaujmuyliLIYUu0CjwPcOgepfFekqu3vIF9QYPvEdMpJPvCa-bgmTu0-20gmWAaipL21HsO1E_Ar17lXc_CZOKUZAFBCelkBSYoxmAEhmn7T3B__EeSDfl2l1T8tBpb-JlAelWlPGps5z8nhIiU_nDwkZpBJj0EmvxdUptxV_PhMrXoqDv5lm00]--></g></svg>