<?xml version="1.0" encoding="us-ascii" standalone="no"?><svg xmlns="http://www.w3.org/2000/svg" xmlns:xlink="http://www.w3.org/1999/xlink" contentStyleType="text/css" height="1137px" preserveAspectRatio="none" style="width:2550px;height:1137px;background:#FFFFFF;" version="1.1" viewBox="0 0 2550 1137" width="2550px" zoomAndPan="magnify"><defs/><g><!--cluster domain--><g id="cluster_domain"><path d="M16.5,4 L68.5,4 A3.75,3.75 0 0 1 71,6.5 L78,28.6211 L2540.5,28.6211 A2.5,2.5 0 0 1 2543,31.1211 L2543,1127.5 A2.5,2.5 0 0 1 2540.5,1130 L16.5,1130 A2.5,2.5 0 0 1 14,1127.5 L14,6.5 A2.5,2.5 0 0 1 16.5,4 " fill="none" style="stroke:#000000;stroke-width:1.5;"/><line style="stroke:#000000;stroke-width:1.5;" x1="14" x2="78" y1="28.6211" y2="28.6211"/><text fill="#000000" font-family="sans-serif" font-size="14" font-weight="bold" lengthAdjust="spacing" textLength="51" x="18" y="21.1074">domain</text></g><!--cluster Sensor--><g id="cluster_Sensor"><path d="M24.5,33 L75.5,33 A3.75,3.75 0 0 1 78,35.5 L85,57.6211 L2532.5,57.6211 A2.5,2.5 0 0 1 2535,60.1211 L2535,760.5 A2.5,2.5 0 0 1 2532.5,763 L24.5,763 A2.5,2.5 0 0 1 22,760.5 L22,35.5 A2.5,2.5 0 0 1 24.5,33 " fill="none" style="stroke:#000000;stroke-width:1.5;"/><line style="stroke:#000000;stroke-width:1.5;" x1="22" x2="85" y1="57.6211" y2="57.6211"/><text fill="#000000" font-family="sans-serif" font-size="14" font-weight="bold" lengthAdjust="spacing" textLength="50" x="26" y="50.1074">Sensor</text></g><!--cluster DewPointSensor--><g id="cluster_DewPointSensor"><path d="M868.5,174 L985.5,174 A3.75,3.75 0 0 1 988,176.5 L995,198.6211 L2270.5,198.6211 A2.5,2.5 0 0 1 2273,201.1211 L2273,729.5 A2.5,2.5 0 0 1 2270.5,732 L868.5,732 A2.5,2.5 0 0 1 866,729.5 L866,176.5 A2.5,2.5 0 0 1 868.5,174 " fill="none" style="stroke:#000000;stroke-width:1.5;"/><line style="stroke:#000000;stroke-width:1.5;" x1="866" x2="995" y1="198.6211" y2="198.6211"/><text fill="#000000" font-family="sans-serif" font-size="14" font-weight="bold" lengthAdjust="spacing" textLength="116" x="870" y="191.1074">DewPointSensor</text></g><!--cluster ddd--><g id="cluster_ddd"><path d="M1698.5,782 L1726.5,782 A3.75,3.75 0 0 1 1729,784.5 L1736,806.6211 L1837.5,806.6211 A2.5,2.5 0 0 1 1840,809.1211 L1840,1119.5 A2.5,2.5 0 0 1 1837.5,1122 L1698.5,1122 A2.5,2.5 0 0 1 1696,1119.5 L1696,784.5 A2.5,2.5 0 0 1 1698.5,782 " fill="none" style="stroke:#000000;stroke-width:1.5;"/><line style="stroke:#000000;stroke-width:1.5;" x1="1696" x2="1736" y1="806.6211" y2="806.6211"/><text fill="#000000" font-family="sans-serif" font-size="14" font-weight="bold" lengthAdjust="spacing" textLength="27" x="1700" y="799.1074">ddd</text></g><!--class SensorFactory--><g id="elem_SensorFactory"><rect codeLine="5" fill="#F1F1F1" height="66.6211" id="SensorFactory" rx="2.5" ry="2.5" style="stroke:#181818;stroke-width:0.5;" width="828" x="30" y="329"/><ellipse cx="393.25" cy="345" fill="#B4A7E5" rx="11" ry="11" style="stroke:#181818;stroke-width:1.0;"/><path d="M394.2031,341.6406 L394.2031,348.2969 L395.9219,348.2969 Q396.5313,348.2969 396.7969,348.5313 Q397.0625,348.7656 397.0625,349.1563 Q397.0625,349.5313 396.7969,349.7656 Q396.5313,350 395.9219,350 L390.7813,350 Q390.1719,350 389.9063,349.7656 Q389.6406,349.5313 389.6406,349.1406 Q389.6406,348.7656 389.9063,348.5313 Q390.1719,348.2969 390.7813,348.2969 L392.5,348.2969 L392.5,341.6406 L390.7813,341.6406 Q390.1719,341.6406 389.9063,341.4063 Q389.6406,341.1719 389.6406,340.7813 Q389.6406,340.4063 389.9063,340.1719 Q390.1719,339.9375 390.7813,339.9375 L395.9219,339.9375 Q396.5313,339.9375 396.7969,340.1719 Q397.0625,340.4063 397.0625,340.7813 Q397.0625,341.1719 396.7969,341.4063 Q396.5313,341.6406 395.9219,341.6406 L394.2031,341.6406 Z " fill="#000000"/><text fill="#000000" font-family="sans-serif" font-size="14" font-style="italic" lengthAdjust="spacing" textLength="93" x="413.75" y="350.7969">SensorFactory</text><line style="stroke:#181818;stroke-width:0.5;" x1="31" x2="857" y1="361" y2="361"/><line style="stroke:#181818;stroke-width:0.5;" x1="31" x2="857" y1="369" y2="369"/><ellipse cx="41" cy="383.8105" fill="#84BE84" rx="3" ry="3" style="stroke:#038048;stroke-width:1.0;"/><text fill="#000000" font-family="sans-serif" font-size="14" lengthAdjust="spacing" textLength="802" x="50" y="388.1074">createSensor(deviceID : DeviceID, modelPath : ModelPath, sensorTypeID : SensorTypeID, sensorName : SensorName): Sensor</text></g><!--class SensorFactoryImpl--><g id="elem_SensorFactoryImpl"><rect codeLine="8" fill="#F1F1F1" height="66.6211" id="SensorFactoryImpl" rx="2.5" ry="2.5" style="stroke:#181818;stroke-width:0.5;" width="303" x="846.5" y="62"/><ellipse cx="934.75" cy="78" fill="#ADD1B2" rx="11" ry="11" style="stroke:#181818;stroke-width:1.0;"/><path d="M937.5156,73.875 Q937.6719,73.6563 937.8594,73.5469 Q938.0469,73.4375 938.2656,73.4375 Q938.6406,73.4375 938.875,73.7031 Q939.1094,73.9531 939.1094,74.5625 L939.1094,76.0156 Q939.1094,76.625 938.875,76.8906 Q938.6406,77.1563 938.2656,77.1563 Q937.9219,77.1563 937.7188,76.9531 Q937.5156,76.7656 937.4063,76.25 Q937.3594,75.8906 937.1719,75.7031 Q936.8438,75.3281 936.2344,75.1094 Q935.625,74.8906 935,74.8906 Q934.2344,74.8906 933.5938,75.2188 Q932.9688,75.5469 932.4688,76.2969 Q931.9844,77.0469 931.9844,78.0781 L931.9844,79.1719 Q931.9844,80.4063 932.875,81.2344 Q933.7656,82.0469 935.3594,82.0469 Q936.2969,82.0469 936.9531,81.7969 Q937.3438,81.6406 937.7656,81.2031 Q938.0313,80.9375 938.1719,80.8594 Q938.3281,80.7813 938.5313,80.7813 Q938.8594,80.7813 939.1094,81.0469 Q939.375,81.2969 939.375,81.6406 Q939.375,81.9844 939.0313,82.3906 Q938.5313,82.9688 937.7344,83.2969 Q936.6563,83.75 935.3594,83.75 Q933.8438,83.75 932.6406,83.125 Q931.6563,82.625 930.9688,81.5625 Q930.2813,80.4844 930.2813,79.2031 L930.2813,78.0469 Q930.2813,76.7188 930.8906,75.5781 Q931.5156,74.4219 932.6094,73.8125 Q933.7031,73.1875 934.9375,73.1875 Q935.6719,73.1875 936.3125,73.3594 Q936.9688,73.5156 937.5156,73.875 Z " fill="#000000"/><text fill="#000000" font-family="sans-serif" font-size="14" lengthAdjust="spacing" textLength="118" x="955.25" y="83.7969">SensorFactoryImpl</text><line style="stroke:#181818;stroke-width:0.5;" x1="847.5" x2="1148.5" y1="94" y2="94"/><line style="stroke:#181818;stroke-width:0.5;" x1="847.5" x2="1148.5" y1="102" y2="102"/><ellipse cx="857.5" cy="116.8105" fill="#84BE84" rx="3" ry="3" style="stroke:#038048;stroke-width:1.0;"/><text fill="#000000" font-family="sans-serif" font-size="14" lengthAdjust="spacing" textLength="277" x="866.5" y="121.1074">createSensor(Object... parameters): Sensor</text></g><!--class Sensor--><g id="elem_Sensor"><rect codeLine="12" fill="#F1F1F1" height="178.3477" id="Sensor" rx="2.5" ry="2.5" style="stroke:#181818;stroke-width:0.5;" width="244" x="2283" y="577"/><ellipse cx="2378.25" cy="593" fill="#B4A7E5" rx="11" ry="11" style="stroke:#181818;stroke-width:1.0;"/><path d="M2379.2031,589.6406 L2379.2031,596.2969 L2380.9219,596.2969 Q2381.5313,596.2969 2381.7969,596.5313 Q2382.0625,596.7656 2382.0625,597.1563 Q2382.0625,597.5313 2381.7969,597.7656 Q2381.5313,598 2380.9219,598 L2375.7813,598 Q2375.1719,598 2374.9063,597.7656 Q2374.6406,597.5313 2374.6406,597.1406 Q2374.6406,596.7656 2374.9063,596.5313 Q2375.1719,596.2969 2375.7813,596.2969 L2377.5,596.2969 L2377.5,589.6406 L2375.7813,589.6406 Q2375.1719,589.6406 2374.9063,589.4063 Q2374.6406,589.1719 2374.6406,588.7813 Q2374.6406,588.4063 2374.9063,588.1719 Q2375.1719,587.9375 2375.7813,587.9375 L2380.9219,587.9375 Q2381.5313,587.9375 2381.7969,588.1719 Q2382.0625,588.4063 2382.0625,588.7813 Q2382.0625,589.1719 2381.7969,589.4063 Q2381.5313,589.6406 2380.9219,589.6406 L2379.2031,589.6406 Z " fill="#000000"/><text fill="#000000" font-family="sans-serif" font-size="14" font-style="italic" lengthAdjust="spacing" textLength="45" x="2398.75" y="598.7969">Sensor</text><line style="stroke:#181818;stroke-width:0.5;" x1="2284" x2="2526" y1="609" y2="609"/><line style="stroke:#181818;stroke-width:0.5;" x1="2284" x2="2526" y1="617" y2="617"/><ellipse cx="2294" cy="631.8105" fill="#84BE84" rx="3" ry="3" style="stroke:#038048;stroke-width:1.0;"/><text fill="#000000" font-family="sans-serif" font-size="14" lengthAdjust="spacing" textLength="109" x="2303" y="636.1074">getID(): SensorID</text><ellipse cx="2294" cy="650.4316" fill="#84BE84" rx="3" ry="3" style="stroke:#038048;stroke-width:1.0;"/><text fill="#000000" font-family="sans-serif" font-size="14" lengthAdjust="spacing" textLength="155" x="2303" y="654.7285">getName(): SensorName</text><ellipse cx="2294" cy="669.0527" fill="#84BE84" rx="3" ry="3" style="stroke:#038048;stroke-width:1.0;"/><text fill="#000000" font-family="sans-serif" font-size="14" lengthAdjust="spacing" textLength="172" x="2303" y="673.3496">getModelPath(): ModelPath</text><ellipse cx="2294" cy="687.6738" fill="#84BE84" rx="3" ry="3" style="stroke:#038048;stroke-width:1.0;"/><text fill="#000000" font-family="sans-serif" font-size="14" lengthAdjust="spacing" textLength="218" x="2303" y="691.9707">getSensorTypeID(): SensorTypeID</text><ellipse cx="2294" cy="706.2949" fill="#84BE84" rx="3" ry="3" style="stroke:#038048;stroke-width:1.0;"/><text fill="#000000" font-family="sans-serif" font-size="14" lengthAdjust="spacing" textLength="150" x="2303" y="710.5918">getDeviceID(): DeviceID</text><ellipse cx="2294" cy="724.916" fill="#84BE84" rx="3" ry="3" style="stroke:#038048;stroke-width:1.0;"/><text fill="#000000" font-family="sans-serif" font-size="14" lengthAdjust="spacing" textLength="151" x="2303" y="729.2129">getValue(): ValueObject</text><ellipse cx="2294" cy="743.5371" fill="#84BE84" rx="3" ry="3" style="stroke:#038048;stroke-width:1.0;"/><text fill="#000000" font-family="sans-serif" font-size="14" lengthAdjust="spacing" textLength="104" x="2303" y="747.834">toString(): String</text></g><!--class DewPointSensor--><g id="elem_DewPointSensor"><rect codeLine="26" fill="#F1F1F1" height="318.6172" id="DewPointSensor" rx="2.5" ry="2.5" style="stroke:#181818;stroke-width:0.5;" width="794" x="1155" y="203"/><ellipse cx="1495.75" cy="233.2715" fill="#ADD1B2" rx="11" ry="11" style="stroke:#181818;stroke-width:1.0;"/><path d="M1498.5156,229.1465 Q1498.6719,228.9277 1498.8594,228.8184 Q1499.0469,228.709 1499.2656,228.709 Q1499.6406,228.709 1499.875,228.9746 Q1500.1094,229.2246 1500.1094,229.834 L1500.1094,231.2871 Q1500.1094,231.8965 1499.875,232.1621 Q1499.6406,232.4277 1499.2656,232.4277 Q1498.9219,232.4277 1498.7188,232.2246 Q1498.5156,232.0371 1498.4063,231.5215 Q1498.3594,231.1621 1498.1719,230.9746 Q1497.8438,230.5996 1497.2344,230.3809 Q1496.625,230.1621 1496,230.1621 Q1495.2344,230.1621 1494.5938,230.4902 Q1493.9688,230.8184 1493.4688,231.5684 Q1492.9844,232.3184 1492.9844,233.3496 L1492.9844,234.4434 Q1492.9844,235.6777 1493.875,236.5059 Q1494.7656,237.3184 1496.3594,237.3184 Q1497.2969,237.3184 1497.9531,237.0684 Q1498.3438,236.9121 1498.7656,236.4746 Q1499.0313,236.209 1499.1719,236.1309 Q1499.3281,236.0527 1499.5313,236.0527 Q1499.8594,236.0527 1500.1094,236.3184 Q1500.375,236.5684 1500.375,236.9121 Q1500.375,237.2559 1500.0313,237.6621 Q1499.5313,238.2402 1498.7344,238.5684 Q1497.6563,239.0215 1496.3594,239.0215 Q1494.8438,239.0215 1493.6406,238.3965 Q1492.6563,237.8965 1491.9688,236.834 Q1491.2813,235.7559 1491.2813,234.4746 L1491.2813,233.3184 Q1491.2813,231.9902 1491.8906,230.8496 Q1492.5156,229.6934 1493.6094,229.084 Q1494.7031,228.459 1495.9375,228.459 Q1496.6719,228.459 1497.3125,228.6309 Q1497.9688,228.7871 1498.5156,229.1465 Z " fill="#000000"/><text fill="#000000" font-family="sans-serif" font-size="12" font-style="italic" lengthAdjust="spacing" textLength="43" x="1546.75" y="220.9492">&#171;entity&#187;</text><text fill="#000000" font-family="sans-serif" font-size="12" font-style="italic" lengthAdjust="spacing" textLength="40" x="1548.25" y="236.9102">&#171;Root&#187;</text><text fill="#000000" font-family="sans-serif" font-size="14" lengthAdjust="spacing" textLength="104" x="1516.25" y="255.0293">DewPointSensor</text><line style="stroke:#181818;stroke-width:0.5;" x1="1156" x2="1948" y1="263.543" y2="263.543"/><rect fill="none" height="6" style="stroke:#C82930;stroke-width:1.0;" width="6" x="1163" y="275.3535"/><text fill="#000000" font-family="sans-serif" font-size="14" lengthAdjust="spacing" textLength="154" x="1175" y="282.6504">_modelPath : ModelPath</text><rect fill="none" height="6" style="stroke:#C82930;stroke-width:1.0;" width="6" x="1163" y="293.9746"/><text fill="#000000" font-family="sans-serif" font-size="14" lengthAdjust="spacing" textLength="180" x="1175" y="301.2715">_sensorName : SensorName</text><rect fill="none" height="6" style="stroke:#C82930;stroke-width:1.0;" width="6" x="1163" y="312.5957"/><text fill="#000000" font-family="sans-serif" font-size="14" lengthAdjust="spacing" textLength="134" x="1175" y="319.8926">_sensorID : SensorID</text><rect fill="none" height="6" style="stroke:#C82930;stroke-width:1.0;" width="6" x="1163" y="331.2168"/><text fill="#000000" font-family="sans-serif" font-size="14" lengthAdjust="spacing" textLength="198" x="1175" y="338.5137">_sensorTypeID : SensorTypeID</text><rect fill="none" height="6" style="stroke:#C82930;stroke-width:1.0;" width="6" x="1163" y="349.8379"/><text fill="#000000" font-family="sans-serif" font-size="14" lengthAdjust="spacing" textLength="208" x="1175" y="357.1348">_dewPointValue : DewPointValue</text><rect fill="none" height="6" style="stroke:#C82930;stroke-width:1.0;" width="6" x="1163" y="368.459"/><text fill="#000000" font-family="sans-serif" font-size="14" lengthAdjust="spacing" textLength="130" x="1175" y="375.7559">_deviceID : DeviceID</text><line style="stroke:#181818;stroke-width:0.5;" x1="1156" x2="1948" y1="383.2695" y2="383.2695"/><ellipse cx="1166" cy="398.0801" fill="#84BE84" rx="3" ry="3" style="stroke:#038048;stroke-width:1.0;"/><text fill="#000000" font-family="sans-serif" font-size="14" lengthAdjust="spacing" textLength="768" x="1175" y="402.377">DewPointSensor(deviceID : DeviceID, modelPath : ModelPath, sensorTypeID : SensorTypeID, sensorName : SensorName)</text><ellipse cx="1166" cy="416.7012" fill="#84BE84" rx="3" ry="3" style="stroke:#038048;stroke-width:1.0;"/><text fill="#000000" font-family="sans-serif" font-size="14" lengthAdjust="spacing" textLength="117" x="1175" y="420.998">getID () : SensorID</text><ellipse cx="1166" cy="435.3223" fill="#84BE84" rx="3" ry="3" style="stroke:#038048;stroke-width:1.0;"/><text fill="#000000" font-family="sans-serif" font-size="14" lengthAdjust="spacing" textLength="163" x="1175" y="439.6191">getName () : SensorName</text><ellipse cx="1166" cy="453.9434" fill="#84BE84" rx="3" ry="3" style="stroke:#038048;stroke-width:1.0;"/><text fill="#000000" font-family="sans-serif" font-size="14" lengthAdjust="spacing" textLength="180" x="1175" y="458.2402">getModelPath () : ModelPath</text><ellipse cx="1166" cy="472.5645" fill="#84BE84" rx="3" ry="3" style="stroke:#038048;stroke-width:1.0;"/><text fill="#000000" font-family="sans-serif" font-size="14" lengthAdjust="spacing" textLength="226" x="1175" y="476.8613">getSensorTypeID () : SensorTypeID</text><ellipse cx="1166" cy="491.1855" fill="#84BE84" rx="3" ry="3" style="stroke:#038048;stroke-width:1.0;"/><text fill="#000000" font-family="sans-serif" font-size="14" lengthAdjust="spacing" textLength="159" x="1175" y="495.4824">getValue () : ValueObject</text><ellipse cx="1166" cy="509.8066" fill="#84BE84" rx="3" ry="3" style="stroke:#038048;stroke-width:1.0;"/><text fill="#000000" font-family="sans-serif" font-size="14" lengthAdjust="spacing" textLength="158" x="1175" y="514.1035">getDeviceID () : DeviceID</text></g><!--class SensorName--><g id="elem_SensorName"><rect codeLine="43" fill="#F1F1F1" height="116.4453" id="SensorName" rx="2.5" ry="2.5" style="stroke:#181818;stroke-width:0.5;" width="201" x="874.5" y="608"/><ellipse cx="930.25" cy="630.291" fill="#ADD1B2" rx="11" ry="11" style="stroke:#181818;stroke-width:1.0;"/><path d="M933.0156,626.166 Q933.1719,625.9473 933.3594,625.8379 Q933.5469,625.7285 933.7656,625.7285 Q934.1406,625.7285 934.375,625.9941 Q934.6094,626.2441 934.6094,626.8535 L934.6094,628.3066 Q934.6094,628.916 934.375,629.1816 Q934.1406,629.4473 933.7656,629.4473 Q933.4219,629.4473 933.2188,629.2441 Q933.0156,629.0566 932.9063,628.541 Q932.8594,628.1816 932.6719,627.9941 Q932.3438,627.6191 931.7344,627.4004 Q931.125,627.1816 930.5,627.1816 Q929.7344,627.1816 929.0938,627.5098 Q928.4688,627.8379 927.9688,628.5879 Q927.4844,629.3379 927.4844,630.3691 L927.4844,631.4629 Q927.4844,632.6973 928.375,633.5254 Q929.2656,634.3379 930.8594,634.3379 Q931.7969,634.3379 932.4531,634.0879 Q932.8438,633.9316 933.2656,633.4941 Q933.5313,633.2285 933.6719,633.1504 Q933.8281,633.0723 934.0313,633.0723 Q934.3594,633.0723 934.6094,633.3379 Q934.875,633.5879 934.875,633.9316 Q934.875,634.2754 934.5313,634.6816 Q934.0313,635.2598 933.2344,635.5879 Q932.1563,636.041 930.8594,636.041 Q929.3438,636.041 928.1406,635.416 Q927.1563,634.916 926.4688,633.8535 Q925.7813,632.7754 925.7813,631.4941 L925.7813,630.3379 Q925.7813,629.0098 926.3906,627.8691 Q927.0156,626.7129 928.1094,626.1035 Q929.2031,625.4785 930.4375,625.4785 Q931.1719,625.4785 931.8125,625.6504 Q932.4688,625.8066 933.0156,626.166 Z " fill="#000000"/><text fill="#000000" font-family="sans-serif" font-size="12" font-style="italic" lengthAdjust="spacing" textLength="82" x="950.25" y="625.9492">&#171;ValueObject&#187;</text><text fill="#000000" font-family="sans-serif" font-size="14" lengthAdjust="spacing" textLength="81" x="950.75" y="644.0684">SensorName</text><line style="stroke:#181818;stroke-width:0.5;" x1="875.5" x2="1074.5" y1="652.582" y2="652.582"/><rect fill="none" height="6" style="stroke:#C82930;stroke-width:1.0;" width="6" x="882.5" y="664.3926"/><text fill="#000000" font-family="sans-serif" font-size="14" lengthAdjust="spacing" textLength="88" x="894.5" y="671.6895">_name: String</text><line style="stroke:#181818;stroke-width:0.5;" x1="875.5" x2="1074.5" y1="679.2031" y2="679.2031"/><ellipse cx="885.5" cy="694.0137" fill="#84BE84" rx="3" ry="3" style="stroke:#038048;stroke-width:1.0;"/><text fill="#000000" font-family="sans-serif" font-size="14" lengthAdjust="spacing" textLength="175" x="894.5" y="698.3105">SensorName(name : String)</text><ellipse cx="885.5" cy="712.6348" fill="#84BE84" rx="3" ry="3" style="stroke:#038048;stroke-width:1.0;"/><text fill="#000000" font-family="sans-serif" font-size="14" lengthAdjust="spacing" textLength="115" x="894.5" y="716.9316">getName() : String</text></g><!--class SensorID--><g id="elem_SensorID"><rect codeLine="49" fill="#F1F1F1" height="116.4453" id="SensorID" rx="2.5" ry="2.5" style="stroke:#181818;stroke-width:0.5;" width="199" x="2065.5" y="608"/><ellipse cx="2127.25" cy="630.291" fill="#ADD1B2" rx="11" ry="11" style="stroke:#181818;stroke-width:1.0;"/><path d="M2130.0156,626.166 Q2130.1719,625.9473 2130.3594,625.8379 Q2130.5469,625.7285 2130.7656,625.7285 Q2131.1406,625.7285 2131.375,625.9941 Q2131.6094,626.2441 2131.6094,626.8535 L2131.6094,628.3066 Q2131.6094,628.916 2131.375,629.1816 Q2131.1406,629.4473 2130.7656,629.4473 Q2130.4219,629.4473 2130.2188,629.2441 Q2130.0156,629.0566 2129.9063,628.541 Q2129.8594,628.1816 2129.6719,627.9941 Q2129.3438,627.6191 2128.7344,627.4004 Q2128.125,627.1816 2127.5,627.1816 Q2126.7344,627.1816 2126.0938,627.5098 Q2125.4688,627.8379 2124.9688,628.5879 Q2124.4844,629.3379 2124.4844,630.3691 L2124.4844,631.4629 Q2124.4844,632.6973 2125.375,633.5254 Q2126.2656,634.3379 2127.8594,634.3379 Q2128.7969,634.3379 2129.4531,634.0879 Q2129.8438,633.9316 2130.2656,633.4941 Q2130.5313,633.2285 2130.6719,633.1504 Q2130.8281,633.0723 2131.0313,633.0723 Q2131.3594,633.0723 2131.6094,633.3379 Q2131.875,633.5879 2131.875,633.9316 Q2131.875,634.2754 2131.5313,634.6816 Q2131.0313,635.2598 2130.2344,635.5879 Q2129.1563,636.041 2127.8594,636.041 Q2126.3438,636.041 2125.1406,635.416 Q2124.1563,634.916 2123.4688,633.8535 Q2122.7813,632.7754 2122.7813,631.4941 L2122.7813,630.3379 Q2122.7813,629.0098 2123.3906,627.8691 Q2124.0156,626.7129 2125.1094,626.1035 Q2126.2031,625.4785 2127.4375,625.4785 Q2128.1719,625.4785 2128.8125,625.6504 Q2129.4688,625.8066 2130.0156,626.166 Z " fill="#000000"/><text fill="#000000" font-family="sans-serif" font-size="12" font-style="italic" lengthAdjust="spacing" textLength="71" x="2145.75" y="625.9492">&#171;DomainID&#187;</text><text fill="#000000" font-family="sans-serif" font-size="14" lengthAdjust="spacing" textLength="58" x="2152.25" y="644.0684">SensorID</text><line style="stroke:#181818;stroke-width:0.5;" x1="2066.5" x2="2263.5" y1="652.582" y2="652.582"/><rect fill="none" height="6" style="stroke:#C82930;stroke-width:1.0;" width="6" x="2073.5" y="664.3926"/><text fill="#000000" font-family="sans-serif" font-size="14" lengthAdjust="spacing" textLength="64" x="2085.5" y="671.6895">_id: String</text><line style="stroke:#181818;stroke-width:0.5;" x1="2066.5" x2="2263.5" y1="679.2031" y2="679.2031"/><ellipse cx="2076.5" cy="694.0137" fill="#84BE84" rx="3" ry="3" style="stroke:#038048;stroke-width:1.0;"/><text fill="#000000" font-family="sans-serif" font-size="14" lengthAdjust="spacing" textLength="173" x="2085.5" y="698.3105">SensorID(sensorID : String)</text><ellipse cx="2076.5" cy="712.6348" fill="#84BE84" rx="3" ry="3" style="stroke:#038048;stroke-width:1.0;"/><text fill="#000000" font-family="sans-serif" font-size="14" lengthAdjust="spacing" textLength="92" x="2085.5" y="716.9316">getID() : String</text></g><!--class DewPointValue--><g id="elem_DewPointValue"><rect codeLine="56" fill="#F1F1F1" height="116.4453" id="DewPointValue" rx="2.5" ry="2.5" style="stroke:#181818;stroke-width:0.5;" width="251" x="1093.5" y="608"/><ellipse cx="1167.25" cy="630.291" fill="#ADD1B2" rx="11" ry="11" style="stroke:#181818;stroke-width:1.0;"/><path d="M1170.0156,626.166 Q1170.1719,625.9473 1170.3594,625.8379 Q1170.5469,625.7285 1170.7656,625.7285 Q1171.1406,625.7285 1171.375,625.9941 Q1171.6094,626.2441 1171.6094,626.8535 L1171.6094,628.3066 Q1171.6094,628.916 1171.375,629.1816 Q1171.1406,629.4473 1170.7656,629.4473 Q1170.4219,629.4473 1170.2188,629.2441 Q1170.0156,629.0566 1169.9063,628.541 Q1169.8594,628.1816 1169.6719,627.9941 Q1169.3438,627.6191 1168.7344,627.4004 Q1168.125,627.1816 1167.5,627.1816 Q1166.7344,627.1816 1166.0938,627.5098 Q1165.4688,627.8379 1164.9688,628.5879 Q1164.4844,629.3379 1164.4844,630.3691 L1164.4844,631.4629 Q1164.4844,632.6973 1165.375,633.5254 Q1166.2656,634.3379 1167.8594,634.3379 Q1168.7969,634.3379 1169.4531,634.0879 Q1169.8438,633.9316 1170.2656,633.4941 Q1170.5313,633.2285 1170.6719,633.1504 Q1170.8281,633.0723 1171.0313,633.0723 Q1171.3594,633.0723 1171.6094,633.3379 Q1171.875,633.5879 1171.875,633.9316 Q1171.875,634.2754 1171.5313,634.6816 Q1171.0313,635.2598 1170.2344,635.5879 Q1169.1563,636.041 1167.8594,636.041 Q1166.3438,636.041 1165.1406,635.416 Q1164.1563,634.916 1163.4688,633.8535 Q1162.7813,632.7754 1162.7813,631.4941 L1162.7813,630.3379 Q1162.7813,629.0098 1163.3906,627.8691 Q1164.0156,626.7129 1165.1094,626.1035 Q1166.2031,625.4785 1167.4375,625.4785 Q1168.1719,625.4785 1168.8125,625.6504 Q1169.4688,625.8066 1170.0156,626.166 Z " fill="#000000"/><text fill="#000000" font-family="sans-serif" font-size="12" font-style="italic" lengthAdjust="spacing" textLength="82" x="1194.25" y="625.9492">&#171;ValueObject&#187;</text><text fill="#000000" font-family="sans-serif" font-size="14" lengthAdjust="spacing" textLength="95" x="1187.75" y="644.0684">DewPointValue</text><line style="stroke:#181818;stroke-width:0.5;" x1="1094.5" x2="1343.5" y1="652.582" y2="652.582"/><rect fill="none" height="6" style="stroke:#C82930;stroke-width:1.0;" width="6" x="1101.5" y="664.3926"/><text fill="#000000" font-family="sans-serif" font-size="14" lengthAdjust="spacing" textLength="130" x="1113.5" y="671.6895">_DewPointValue : int</text><line style="stroke:#181818;stroke-width:0.5;" x1="1094.5" x2="1343.5" y1="679.2031" y2="679.2031"/><ellipse cx="1104.5" cy="694.0137" fill="#84BE84" rx="3" ry="3" style="stroke:#038048;stroke-width:1.0;"/><text fill="#000000" font-family="sans-serif" font-size="14" lengthAdjust="spacing" textLength="225" x="1113.5" y="698.3105">DewPointValue(dewPointValue : int)</text><ellipse cx="1104.5" cy="712.6348" fill="#84BE84" rx="3" ry="3" style="stroke:#038048;stroke-width:1.0;"/><text fill="#000000" font-family="sans-serif" font-size="14" lengthAdjust="spacing" textLength="108" x="1113.5" y="716.9316">toString() : String</text></g><!--class SensorTypeID--><g id="elem_SensorTypeID"><rect codeLine="62" fill="#F1F1F1" height="116.4453" id="SensorTypeID" rx="2.5" ry="2.5" style="stroke:#181818;stroke-width:0.5;" width="263" x="1533.5" y="608"/><ellipse cx="1615.75" cy="630.291" fill="#ADD1B2" rx="11" ry="11" style="stroke:#181818;stroke-width:1.0;"/><path d="M1618.5156,626.166 Q1618.6719,625.9473 1618.8594,625.8379 Q1619.0469,625.7285 1619.2656,625.7285 Q1619.6406,625.7285 1619.875,625.9941 Q1620.1094,626.2441 1620.1094,626.8535 L1620.1094,628.3066 Q1620.1094,628.916 1619.875,629.1816 Q1619.6406,629.4473 1619.2656,629.4473 Q1618.9219,629.4473 1618.7188,629.2441 Q1618.5156,629.0566 1618.4063,628.541 Q1618.3594,628.1816 1618.1719,627.9941 Q1617.8438,627.6191 1617.2344,627.4004 Q1616.625,627.1816 1616,627.1816 Q1615.2344,627.1816 1614.5938,627.5098 Q1613.9688,627.8379 1613.4688,628.5879 Q1612.9844,629.3379 1612.9844,630.3691 L1612.9844,631.4629 Q1612.9844,632.6973 1613.875,633.5254 Q1614.7656,634.3379 1616.3594,634.3379 Q1617.2969,634.3379 1617.9531,634.0879 Q1618.3438,633.9316 1618.7656,633.4941 Q1619.0313,633.2285 1619.1719,633.1504 Q1619.3281,633.0723 1619.5313,633.0723 Q1619.8594,633.0723 1620.1094,633.3379 Q1620.375,633.5879 1620.375,633.9316 Q1620.375,634.2754 1620.0313,634.6816 Q1619.5313,635.2598 1618.7344,635.5879 Q1617.6563,636.041 1616.3594,636.041 Q1614.8438,636.041 1613.6406,635.416 Q1612.6563,634.916 1611.9688,633.8535 Q1611.2813,632.7754 1611.2813,631.4941 L1611.2813,630.3379 Q1611.2813,629.0098 1611.8906,627.8691 Q1612.5156,626.7129 1613.6094,626.1035 Q1614.7031,625.4785 1615.9375,625.4785 Q1616.6719,625.4785 1617.3125,625.6504 Q1617.9688,625.8066 1618.5156,626.166 Z " fill="#000000"/><text fill="#000000" font-family="sans-serif" font-size="12" font-style="italic" lengthAdjust="spacing" textLength="71" x="1645.75" y="625.9492">&#171;DomainID&#187;</text><text fill="#000000" font-family="sans-serif" font-size="14" lengthAdjust="spacing" textLength="90" x="1636.25" y="644.0684">SensorTypeID</text><line style="stroke:#181818;stroke-width:0.5;" x1="1534.5" x2="1795.5" y1="652.582" y2="652.582"/><rect fill="none" height="6" style="stroke:#C82930;stroke-width:1.0;" width="6" x="1541.5" y="664.3926"/><text fill="#000000" font-family="sans-serif" font-size="14" lengthAdjust="spacing" textLength="68" x="1553.5" y="671.6895">_id : String</text><line style="stroke:#181818;stroke-width:0.5;" x1="1534.5" x2="1795.5" y1="679.2031" y2="679.2031"/><ellipse cx="1544.5" cy="694.0137" fill="#84BE84" rx="3" ry="3" style="stroke:#038048;stroke-width:1.0;"/><text fill="#000000" font-family="sans-serif" font-size="14" lengthAdjust="spacing" textLength="237" x="1553.5" y="698.3105">SensorTypeID(sensorTypeID : String)</text><ellipse cx="1544.5" cy="712.6348" fill="#84BE84" rx="3" ry="3" style="stroke:#038048;stroke-width:1.0;"/><text fill="#000000" font-family="sans-serif" font-size="14" lengthAdjust="spacing" textLength="92" x="1553.5" y="716.9316">getID() : String</text></g><!--class ModelPath--><g id="elem_ModelPath"><rect codeLine="70" fill="#F1F1F1" height="116.4453" id="ModelPath" rx="2.5" ry="2.5" style="stroke:#181818;stroke-width:0.5;" width="232" x="1815" y="608"/><ellipse cx="1893.25" cy="630.291" fill="#ADD1B2" rx="11" ry="11" style="stroke:#181818;stroke-width:1.0;"/><path d="M1896.0156,626.166 Q1896.1719,625.9473 1896.3594,625.8379 Q1896.5469,625.7285 1896.7656,625.7285 Q1897.1406,625.7285 1897.375,625.9941 Q1897.6094,626.2441 1897.6094,626.8535 L1897.6094,628.3066 Q1897.6094,628.916 1897.375,629.1816 Q1897.1406,629.4473 1896.7656,629.4473 Q1896.4219,629.4473 1896.2188,629.2441 Q1896.0156,629.0566 1895.9063,628.541 Q1895.8594,628.1816 1895.6719,627.9941 Q1895.3438,627.6191 1894.7344,627.4004 Q1894.125,627.1816 1893.5,627.1816 Q1892.7344,627.1816 1892.0938,627.5098 Q1891.4688,627.8379 1890.9688,628.5879 Q1890.4844,629.3379 1890.4844,630.3691 L1890.4844,631.4629 Q1890.4844,632.6973 1891.375,633.5254 Q1892.2656,634.3379 1893.8594,634.3379 Q1894.7969,634.3379 1895.4531,634.0879 Q1895.8438,633.9316 1896.2656,633.4941 Q1896.5313,633.2285 1896.6719,633.1504 Q1896.8281,633.0723 1897.0313,633.0723 Q1897.3594,633.0723 1897.6094,633.3379 Q1897.875,633.5879 1897.875,633.9316 Q1897.875,634.2754 1897.5313,634.6816 Q1897.0313,635.2598 1896.2344,635.5879 Q1895.1563,636.041 1893.8594,636.041 Q1892.3438,636.041 1891.1406,635.416 Q1890.1563,634.916 1889.4688,633.8535 Q1888.7813,632.7754 1888.7813,631.4941 L1888.7813,630.3379 Q1888.7813,629.0098 1889.3906,627.8691 Q1890.0156,626.7129 1891.1094,626.1035 Q1892.2031,625.4785 1893.4375,625.4785 Q1894.1719,625.4785 1894.8125,625.6504 Q1895.4688,625.8066 1896.0156,626.166 Z " fill="#000000"/><text fill="#000000" font-family="sans-serif" font-size="12" font-style="italic" lengthAdjust="spacing" textLength="71" x="1911.75" y="625.9492">&#171;DomainID&#187;</text><text fill="#000000" font-family="sans-serif" font-size="14" lengthAdjust="spacing" textLength="67" x="1913.75" y="644.0684">ModelPath</text><line style="stroke:#181818;stroke-width:0.5;" x1="1816" x2="2046" y1="652.582" y2="652.582"/><rect fill="none" height="6" style="stroke:#C82930;stroke-width:1.0;" width="6" x="1823" y="664.3926"/><text fill="#000000" font-family="sans-serif" font-size="14" lengthAdjust="spacing" textLength="81" x="1835" y="671.6895">_path: String</text><line style="stroke:#181818;stroke-width:0.5;" x1="1816" x2="2046" y1="679.2031" y2="679.2031"/><ellipse cx="1826" cy="694.0137" fill="#84BE84" rx="3" ry="3" style="stroke:#038048;stroke-width:1.0;"/><text fill="#000000" font-family="sans-serif" font-size="14" lengthAdjust="spacing" textLength="206" x="1835" y="698.3105">ModelPath(Object... parameters)</text><ellipse cx="1826" cy="712.6348" fill="#84BE84" rx="3" ry="3" style="stroke:#038048;stroke-width:1.0;"/><text fill="#000000" font-family="sans-serif" font-size="14" lengthAdjust="spacing" textLength="92" x="1835" y="716.9316">getID() : String</text></g><!--class DeviceID--><g id="elem_DeviceID"><rect codeLine="78" fill="#F1F1F1" height="116.4453" id="DeviceID" rx="2.5" ry="2.5" style="stroke:#181818;stroke-width:0.5;" width="152" x="1363" y="608"/><ellipse cx="1401.85" cy="630.291" fill="#ADD1B2" rx="11" ry="11" style="stroke:#181818;stroke-width:1.0;"/><path d="M1404.6156,626.166 Q1404.7719,625.9473 1404.9594,625.8379 Q1405.1469,625.7285 1405.3656,625.7285 Q1405.7406,625.7285 1405.975,625.9941 Q1406.2094,626.2441 1406.2094,626.8535 L1406.2094,628.3066 Q1406.2094,628.916 1405.975,629.1816 Q1405.7406,629.4473 1405.3656,629.4473 Q1405.0219,629.4473 1404.8188,629.2441 Q1404.6156,629.0566 1404.5063,628.541 Q1404.4594,628.1816 1404.2719,627.9941 Q1403.9438,627.6191 1403.3344,627.4004 Q1402.725,627.1816 1402.1,627.1816 Q1401.3344,627.1816 1400.6938,627.5098 Q1400.0688,627.8379 1399.5688,628.5879 Q1399.0844,629.3379 1399.0844,630.3691 L1399.0844,631.4629 Q1399.0844,632.6973 1399.975,633.5254 Q1400.8656,634.3379 1402.4594,634.3379 Q1403.3969,634.3379 1404.0531,634.0879 Q1404.4438,633.9316 1404.8656,633.4941 Q1405.1313,633.2285 1405.2719,633.1504 Q1405.4281,633.0723 1405.6313,633.0723 Q1405.9594,633.0723 1406.2094,633.3379 Q1406.475,633.5879 1406.475,633.9316 Q1406.475,634.2754 1406.1313,634.6816 Q1405.6313,635.2598 1404.8344,635.5879 Q1403.7563,636.041 1402.4594,636.041 Q1400.9438,636.041 1399.7406,635.416 Q1398.7563,634.916 1398.0688,633.8535 Q1397.3813,632.7754 1397.3813,631.4941 L1397.3813,630.3379 Q1397.3813,629.0098 1397.9906,627.8691 Q1398.6156,626.7129 1399.7094,626.1035 Q1400.8031,625.4785 1402.0375,625.4785 Q1402.7719,625.4785 1403.4125,625.6504 Q1404.0688,625.8066 1404.6156,626.166 Z " fill="#000000"/><text fill="#000000" font-family="sans-serif" font-size="12" font-style="italic" lengthAdjust="spacing" textLength="71" x="1419.15" y="625.9492">&#171;DomainID&#187;</text><text fill="#000000" font-family="sans-serif" font-size="14" lengthAdjust="spacing" textLength="56" x="1426.65" y="644.0684">DeviceID</text><line style="stroke:#181818;stroke-width:0.5;" x1="1364" x2="1514" y1="652.582" y2="652.582"/><rect fill="none" height="6" style="stroke:#C82930;stroke-width:1.0;" width="6" x="1371" y="664.3926"/><text fill="#000000" font-family="sans-serif" font-size="14" lengthAdjust="spacing" textLength="64" x="1383" y="671.6895">_id: String</text><line style="stroke:#181818;stroke-width:0.5;" x1="1364" x2="1514" y1="679.2031" y2="679.2031"/><ellipse cx="1374" cy="694.0137" fill="#84BE84" rx="3" ry="3" style="stroke:#038048;stroke-width:1.0;"/><text fill="#000000" font-family="sans-serif" font-size="14" lengthAdjust="spacing" textLength="126" x="1383" y="698.3105">DeviceID(id : String)</text><ellipse cx="1374" cy="712.6348" fill="#84BE84" rx="3" ry="3" style="stroke:#038048;stroke-width:1.0;"/><text fill="#000000" font-family="sans-serif" font-size="14" lengthAdjust="spacing" textLength="92" x="1383" y="716.9316">getID() : String</text></g><!--class DomainEntity--><g id="elem_DomainEntity"><rect codeLine="89" fill="#F1F1F1" height="48" id="DomainEntity" rx="2.5" ry="2.5" style="stroke:#181818;stroke-width:0.5;" width="115" x="1706.5" y="896"/><ellipse cx="1721.5" cy="912" fill="#B4A7E5" rx="11" ry="11" style="stroke:#181818;stroke-width:1.0;"/><path d="M1722.4531,908.6406 L1722.4531,915.2969 L1724.1719,915.2969 Q1724.7813,915.2969 1725.0469,915.5313 Q1725.3125,915.7656 1725.3125,916.1563 Q1725.3125,916.5313 1725.0469,916.7656 Q1724.7813,917 1724.1719,917 L1719.0313,917 Q1718.4219,917 1718.1563,916.7656 Q1717.8906,916.5313 1717.8906,916.1406 Q1717.8906,915.7656 1718.1563,915.5313 Q1718.4219,915.2969 1719.0313,915.2969 L1720.75,915.2969 L1720.75,908.6406 L1719.0313,908.6406 Q1718.4219,908.6406 1718.1563,908.4063 Q1717.8906,908.1719 1717.8906,907.7813 Q1717.8906,907.4063 1718.1563,907.1719 Q1718.4219,906.9375 1719.0313,906.9375 L1724.1719,906.9375 Q1724.7813,906.9375 1725.0469,907.1719 Q1725.3125,907.4063 1725.3125,907.7813 Q1725.3125,908.1719 1725.0469,908.4063 Q1724.7813,908.6406 1724.1719,908.6406 L1722.4531,908.6406 Z " fill="#000000"/><text fill="#000000" font-family="sans-serif" font-size="14" font-style="italic" lengthAdjust="spacing" textLength="83" x="1735.5" y="917.7969">DomainEntity</text><line style="stroke:#181818;stroke-width:0.5;" x1="1707.5" x2="1820.5" y1="928" y2="928"/><line style="stroke:#181818;stroke-width:0.5;" x1="1707.5" x2="1820.5" y1="936" y2="936"/></g><!--class DomainID--><g id="elem_DomainID"><rect codeLine="92" fill="#F1F1F1" height="48" id="DomainID" rx="2.5" ry="2.5" style="stroke:#181818;stroke-width:0.5;" width="94" x="1708" y="981"/><ellipse cx="1723" cy="997" fill="#B4A7E5" rx="11" ry="11" style="stroke:#181818;stroke-width:1.0;"/><path d="M1723.9531,993.6406 L1723.9531,1000.2969 L1725.6719,1000.2969 Q1726.2813,1000.2969 1726.5469,1000.5313 Q1726.8125,1000.7656 1726.8125,1001.1563 Q1726.8125,1001.5313 1726.5469,1001.7656 Q1726.2813,1002 1725.6719,1002 L1720.5313,1002 Q1719.9219,1002 1719.6563,1001.7656 Q1719.3906,1001.5313 1719.3906,1001.1406 Q1719.3906,1000.7656 1719.6563,1000.5313 Q1719.9219,1000.2969 1720.5313,1000.2969 L1722.25,1000.2969 L1722.25,993.6406 L1720.5313,993.6406 Q1719.9219,993.6406 1719.6563,993.4063 Q1719.3906,993.1719 1719.3906,992.7813 Q1719.3906,992.4063 1719.6563,992.1719 Q1719.9219,991.9375 1720.5313,991.9375 L1725.6719,991.9375 Q1726.2813,991.9375 1726.5469,992.1719 Q1726.8125,992.4063 1726.8125,992.7813 Q1726.8125,993.1719 1726.5469,993.4063 Q1726.2813,993.6406 1725.6719,993.6406 L1723.9531,993.6406 Z " fill="#000000"/><text fill="#000000" font-family="sans-serif" font-size="14" font-style="italic" lengthAdjust="spacing" textLength="62" x="1737" y="1002.7969">DomainID</text><line style="stroke:#181818;stroke-width:0.5;" x1="1709" x2="1801" y1="1013" y2="1013"/><line style="stroke:#181818;stroke-width:0.5;" x1="1709" x2="1801" y1="1021" y2="1021"/></g><!--class AggregateRoot--><g id="elem_AggregateRoot"><rect codeLine="95" fill="#F1F1F1" height="48" id="AggregateRoot" rx="2.5" ry="2.5" style="stroke:#181818;stroke-width:0.5;" width="128" x="1704" y="811"/><ellipse cx="1719" cy="827" fill="#B4A7E5" rx="11" ry="11" style="stroke:#181818;stroke-width:1.0;"/><path d="M1719.9531,823.6406 L1719.9531,830.2969 L1721.6719,830.2969 Q1722.2813,830.2969 1722.5469,830.5313 Q1722.8125,830.7656 1722.8125,831.1563 Q1722.8125,831.5313 1722.5469,831.7656 Q1722.2813,832 1721.6719,832 L1716.5313,832 Q1715.9219,832 1715.6563,831.7656 Q1715.3906,831.5313 1715.3906,831.1406 Q1715.3906,830.7656 1715.6563,830.5313 Q1715.9219,830.2969 1716.5313,830.2969 L1718.25,830.2969 L1718.25,823.6406 L1716.5313,823.6406 Q1715.9219,823.6406 1715.6563,823.4063 Q1715.3906,823.1719 1715.3906,822.7813 Q1715.3906,822.4063 1715.6563,822.1719 Q1715.9219,821.9375 1716.5313,821.9375 L1721.6719,821.9375 Q1722.2813,821.9375 1722.5469,822.1719 Q1722.8125,822.4063 1722.8125,822.7813 Q1722.8125,823.1719 1722.5469,823.4063 Q1722.2813,823.6406 1721.6719,823.6406 L1719.9531,823.6406 Z " fill="#000000"/><text fill="#000000" font-family="sans-serif" font-size="14" font-style="italic" lengthAdjust="spacing" textLength="96" x="1733" y="832.7969">AggregateRoot</text><line style="stroke:#181818;stroke-width:0.5;" x1="1705" x2="1831" y1="843" y2="843"/><line style="stroke:#181818;stroke-width:0.5;" x1="1705" x2="1831" y1="851" y2="851"/></g><!--class ValueObject--><g id="elem_ValueObject"><rect codeLine="97" fill="#F1F1F1" height="48" id="ValueObject" rx="2.5" ry="2.5" style="stroke:#181818;stroke-width:0.5;" width="109" x="1704.5" y="1066"/><ellipse cx="1719.5" cy="1082" fill="#B4A7E5" rx="11" ry="11" style="stroke:#181818;stroke-width:1.0;"/><path d="M1720.4531,1078.6406 L1720.4531,1085.2969 L1722.1719,1085.2969 Q1722.7813,1085.2969 1723.0469,1085.5313 Q1723.3125,1085.7656 1723.3125,1086.1563 Q1723.3125,1086.5313 1723.0469,1086.7656 Q1722.7813,1087 1722.1719,1087 L1717.0313,1087 Q1716.4219,1087 1716.1563,1086.7656 Q1715.8906,1086.5313 1715.8906,1086.1406 Q1715.8906,1085.7656 1716.1563,1085.5313 Q1716.4219,1085.2969 1717.0313,1085.2969 L1718.75,1085.2969 L1718.75,1078.6406 L1717.0313,1078.6406 Q1716.4219,1078.6406 1716.1563,1078.4063 Q1715.8906,1078.1719 1715.8906,1077.7813 Q1715.8906,1077.4063 1716.1563,1077.1719 Q1716.4219,1076.9375 1717.0313,1076.9375 L1722.1719,1076.9375 Q1722.7813,1076.9375 1723.0469,1077.1719 Q1723.3125,1077.4063 1723.3125,1077.7813 Q1723.3125,1078.1719 1723.0469,1078.4063 Q1722.7813,1078.6406 1722.1719,1078.6406 L1720.4531,1078.6406 Z " fill="#000000"/><text fill="#000000" font-family="sans-serif" font-size="14" font-style="italic" lengthAdjust="spacing" textLength="77" x="1733.5" y="1087.7969">ValueObject</text><line style="stroke:#181818;stroke-width:0.5;" x1="1705.5" x2="1812.5" y1="1098" y2="1098"/><line style="stroke:#181818;stroke-width:0.5;" x1="1705.5" x2="1812.5" y1="1106" y2="1106"/></g><polygon fill="none" points="511.9749,328.9849,530.8019,326.6303,525.6237,315.8051,511.9749,328.9849" style="stroke:#181818;stroke-width:1.0;"/><path d="M929.7911,129.127 C823.2148,180.1066 634.6451,270.3069 528.2128,321.2177 " fill="none" style="stroke:#181818;stroke-width:1.0;stroke-dasharray:7.0,7.0;"/><polygon fill="#181818" points="1220.3676,202.8672,1213.9747,195.3751,1215.8571,200.7096,1210.5226,202.592,1220.3676,202.8672" style="stroke:#181818;stroke-width:1.0;"/><path d="M1066.2089,129.127 C1106.9161,148.5989 1156.5415,172.3367 1214.955,200.2781 " fill="none" style="stroke:#181818;stroke-width:1.0;stroke-dasharray:7.0,7.0;"/><text fill="#000000" font-family="sans-serif" font-size="13" lengthAdjust="spacing" textLength="43" x="1133" y="162.0283">creates</text><text fill="#000000" font-family="sans-serif" font-size="13" lengthAdjust="spacing" textLength="7" x="1212.3676" y="198.8955">1</text><text fill="#000000" font-family="sans-serif" font-size="13" lengthAdjust="spacing" textLength="7" x="1058.2089" y="144.1553">1</text><polygon fill="none" points="2282.8514,579.8634,2269.4598,566.4222,2264.0734,577.1454,2282.8514,579.8634" style="stroke:#181818;stroke-width:1.0;"/><path d="M1949.3708,456.0435 C2058.1889,487.9019 2174.3745,528.141 2277,577 C2278.9479,577.9274 2264.8143,570.8031 2266.7666,571.7838 " fill="none" style="stroke:#181818;stroke-width:1.0;stroke-dasharray:7.0,7.0;"/><polygon fill="#181818" points="1282.2591,607.7249,1291.6155,604.6495,1285.9656,604.369,1286.2461,598.7191,1282.2591,607.7249" style="stroke:#181818;stroke-width:1.0;"/><path d="M1376.7233,522.1964 C1342.8789,552.8394 1313.9671,579.0163 1286.7069,603.6978 " fill="none" style="stroke:#181818;stroke-width:1.0;"/><text fill="#000000" font-family="sans-serif" font-size="13" lengthAdjust="spacing" textLength="21" x="1356" y="555.0283">has</text><text fill="#000000" font-family="sans-serif" font-size="13" lengthAdjust="spacing" textLength="7" x="1274.2591" y="603.7532">1</text><text fill="#000000" font-family="sans-serif" font-size="13" lengthAdjust="spacing" textLength="7" x="1377.7233" y="537.2248">1</text><polygon fill="#181818" points="1643.5337,607.7249,1644.1207,597.8935,1641.7789,603.0429,1636.6296,600.7012,1643.5337,607.7249" style="stroke:#181818;stroke-width:1.0;"/><path d="M1611.4783,522.1964 C1622.963,552.8394 1632.1775,577.425 1641.428,602.1065 " fill="none" style="stroke:#181818;stroke-width:1.0;"/><text fill="#000000" font-family="sans-serif" font-size="13" lengthAdjust="spacing" textLength="21" x="1626" y="555.0283">has</text><text fill="#000000" font-family="sans-serif" font-size="13" lengthAdjust="spacing" textLength="7" x="1635.5337" y="603.7532">1</text><text fill="#000000" font-family="sans-serif" font-size="13" lengthAdjust="spacing" textLength="7" x="1603.4783" y="537.2248">1</text><polygon fill="#181818" points="2100.2943,607.9191,2095.671,599.2229,2096.3564,604.838,2090.7412,605.5235,2100.2943,607.9191" style="stroke:#181818;stroke-width:1.0;"/><path d="M1949.3163,519.2868 C1986.0704,537.4149 2022.1741,556.7262 2056,577 C2071.0199,586.0023 2081.4878,593.2045 2095.5688,604.2218 " fill="none" style="stroke:#181818;stroke-width:1.0;"/><text fill="#000000" font-family="sans-serif" font-size="13" lengthAdjust="spacing" textLength="21" x="2018" y="555.0283">has</text><text fill="#000000" font-family="sans-serif" font-size="13" lengthAdjust="spacing" textLength="7" x="2092.2943" y="603.9474">1</text><text fill="#000000" font-family="sans-serif" font-size="13" lengthAdjust="spacing" textLength="7" x="1950.3163" y="515.3151">1</text><polygon fill="#181818" points="1460.4663,607.7249,1467.3704,600.7012,1462.2211,603.0429,1459.8793,597.8935,1460.4663,607.7249" style="stroke:#181818;stroke-width:1.0;"/><path d="M1492.5217,522.1964 C1481.037,552.8394 1471.8225,577.425 1462.572,602.1065 " fill="none" style="stroke:#181818;stroke-width:1.0;"/><text fill="#000000" font-family="sans-serif" font-size="13" lengthAdjust="spacing" textLength="21" x="1486" y="555.0283">has</text><text fill="#000000" font-family="sans-serif" font-size="13" lengthAdjust="spacing" textLength="7" x="1452.4663" y="603.7532">1</text><text fill="#000000" font-family="sans-serif" font-size="13" lengthAdjust="spacing" textLength="7" x="1484.5217" y="537.2248">1</text><polygon fill="#181818" points="1859.0024,607.7249,1854.4494,598.9916,1855.0895,604.6121,1849.469,605.2522,1859.0024,607.7249" style="stroke:#181818;stroke-width:1.0;"/><path d="M1751.489,522.1964 C1790.0087,552.8394 1823.2811,579.308 1854.307,603.9896 " fill="none" style="stroke:#181818;stroke-width:1.0;"/><text fill="#000000" font-family="sans-serif" font-size="13" lengthAdjust="spacing" textLength="21" x="1798" y="555.0283">has</text><text fill="#000000" font-family="sans-serif" font-size="13" lengthAdjust="spacing" textLength="7" x="1851.0024" y="603.7532">1</text><text fill="#000000" font-family="sans-serif" font-size="13" lengthAdjust="spacing" textLength="7" x="1743.489" y="537.2248">1</text><polygon fill="#181818" points="1040.4851,607.7756,1050.0372,605.3762,1044.4217,604.6929,1045.1049,599.0775,1040.4851,607.7756" style="stroke:#181818;stroke-width:1.0;"/><path d="M1181.1475,522.0741 C1147.7136,539.5285 1114.8614,557.9256 1084,577 C1069.3112,586.0786 1059.1099,593.1912 1045.2091,604.0764 " fill="none" style="stroke:#181818;stroke-width:1.0;"/><text fill="#000000" font-family="sans-serif" font-size="13" lengthAdjust="spacing" textLength="21" x="1146" y="555.0283">has</text><text fill="#000000" font-family="sans-serif" font-size="13" lengthAdjust="spacing" textLength="7" x="1032.4851" y="603.8039">1</text><text fill="#000000" font-family="sans-serif" font-size="13" lengthAdjust="spacing" textLength="7" x="1173.1475" y="537.1025">1</text><polygon fill="none" points="1704.4126,1089.9372,1686.3849,1084.021,1686.4407,1096.0209,1704.4126,1089.9372" style="stroke:#181818;stroke-width:1.0;"/><path d="M1275.0726,724.1784 C1298.7743,754.3168 1321,793.402 1321,834 C1321,834 1321,834 1321,1006 C1321,1083.2014 1568.9992,1090.5671 1686.4128,1090.021 " fill="none" style="stroke:#181818;stroke-width:1.0;stroke-dasharray:7.0,7.0;"/><polygon fill="none" points="1704.4347,1087.3998,1686.6495,1080.7902,1686.2407,1092.7833,1704.4347,1087.3998" style="stroke:#181818;stroke-width:1.0;"/><path d="M1038.9541,724.3792 C1084.6195,766.6158 1138,819.1616 1138,834 C1138,834 1138,834 1138,1006 C1138,1062.9009 1534.9096,1081.6226 1686.4451,1086.7868 " fill="none" style="stroke:#181818;stroke-width:1.0;stroke-dasharray:7.0,7.0;"/><polygon fill="none" points="1757.5248,980.716,1765.4302,963.4677,1753.5002,962.1741,1757.5248,980.716" style="stroke:#181818;stroke-width:1.0;"/><path d="M1761.493,944.1201 C1760.2551,955.5362 1760.7055,951.3827 1759.4652,962.8209 " fill="none" style="stroke:#181818;stroke-width:1.0;"/><polygon fill="none" points="1765.1221,895.716,1771.9816,878.0257,1759.9955,877.448,1765.1221,895.716" style="stroke:#181818;stroke-width:1.0;"/><path d="M1766.8858,859.1201 C1766.3356,870.5362 1766.5398,866.2986 1765.9886,877.7369 " fill="none" style="stroke:#181818;stroke-width:1.0;"/><polygon fill="none" points="1832.2215,829.0658,1850.6535,833.5672,1849.6679,821.6078,1832.2215,829.0658" style="stroke:#181818;stroke-width:1.0;"/><path d="M2293.8348,755.1565 C2288.2738,758.0328 2282.6498,760.6707 2277,763 C2197.7083,795.6904 1968.3896,817.8446 1850.1607,827.5875 " fill="none" style="stroke:#181818;stroke-width:1.0;"/><polygon fill="none" points="1707.9008,987.6433,1695.056,973.6786,1689.2462,984.1784,1707.9008,987.6433" style="stroke:#181818;stroke-width:1.0;"/><path d="M1652.4197,724.2063 C1641.762,787.6749 1634.5872,890.6577 1680,963 C1686.6274,973.5573 1681.2308,972.8859 1692.1511,978.9285 " fill="none" style="stroke:#181818;stroke-width:1.0;stroke-dasharray:7.0,7.0;"/><polygon fill="none" points="1784.2822,980.9839,1802.1345,974.5576,1794.7083,965.1315,1784.2822,980.9839" style="stroke:#181818;stroke-width:1.0;"/><path d="M2101.1493,724.0813 C2086.4285,737.0048 2070.7574,750.5761 2056,763 C1957.8196,845.6554 1931.3672,864.0142 1831,944 C1815.6185,956.258 1812.561,958.7048 1798.4214,969.8445 " fill="none" style="stroke:#181818;stroke-width:1.0;stroke-dasharray:7.0,7.0;"/><polygon fill="none" points="1725.2974,980.8049,1716.3612,964.0674,1708.1059,972.7766,1725.2974,980.8049" style="stroke:#181818;stroke-width:1.0;"/><path d="M1868.9835,724.0528 C1849.9734,738.8308 1828.1876,753.2978 1806,763 C1760.1418,783.0528 1727.2679,743.7395 1695,782 C1689.9179,788.0259 1697.5935,943.0318 1698,944 C1703.896,958.0423 1701.6181,958.3598 1712.2336,968.422 " fill="none" style="stroke:#181818;stroke-width:1.0;stroke-dasharray:7.0,7.0;"/><polygon fill="none" points="1707.7586,983.747,1694.4252,970.2481,1688.9925,980.9479,1707.7586,983.747" style="stroke:#181818;stroke-width:1.0;"/><path d="M1474.695,724.1531 C1513.2458,783.2163 1578.6554,876.1074 1649,944 C1665.8893,960.3006 1672.0111,965.5967 1691.7089,975.598 " fill="none" style="stroke:#181818;stroke-width:1.0;stroke-dasharray:7.0,7.0;"/><polygon fill="none" points="1757.8779,1065.716,1763.0045,1047.448,1751.0184,1048.0257,1757.8779,1065.716" style="stroke:#181818;stroke-width:1.0;"/><path d="M1756.1142,1029.1201 C1756.6644,1040.5362 1756.4602,1036.2986 1757.0114,1047.7369 " fill="none" style="stroke:#181818;stroke-width:1.0;"/><!--SRC=[jLRBRjGm5DtxAqnN6Kqd4jigYeGKaB8eL0nYYqpYfe79GuaB6i7yEtx5ldwa8hJCehLpZwzFpZtNpgjn8ar7y8cSXqU6vuuoqXE4Hb9z9mt5zT2Hja-Fj9-72Vz22FDVspCwtPEAOlNy7QdOC9rv6ElV7bSJ9OogU5BJ7sr5omBVu48Fht4trFHqHzW3VtgxZA_nB9TyEeyAVmJJ9VYUTDI4n6ItJ2I1Y_nRdSWykmJBRZoja_pmzHkjM9gcU2GJJyhVSVOJwxM-022fIjnGLXQ9MLqMOLpmjWWn2p565W4qan07HR8vrJn4BoKGo6KSeZwJqwCaA0TA70_5XYERshwHMygH0V0Q2BMYDaeB-lDku1fQLu6AFGNrLsOPxLdBpddEXn-7WV61BSK1Vubw309M31L2W1c1MYOSzIk4rPgvL5Fs0PYxmA1N4B2igy3_xopacHedkvWGnj8mxYZf6bh1mf84TeRvF5MjJHKePbJ7y0hcMFw2WiD2laMMWMoEgtIPUeuANAzsj6cINkifORkrGm0xYPPJ1dBYtBEia9rH5ddkij6CsZhA1tBYFG_T767b75ykBq4CBRGS-wwenJaLdklv4Ba-LiTC7U9so3za89r8tRHVe4xkOT3ME51exonE_1Rn55fHHWW3w5YJnsl6gOmy6k5Yp_lePRIHXx7zAes8PVPcMGBq-fkjrVxUYL_NjVfgi5Ucul9M7jooG9TOdDEEnDuqpKGRVcUBmru3O1pOK4TvWl0R84r_v-wdGGHqzVgA0tFvVykbTAC_AsQ4jYoJdDm5-jDZInP1zd3OG7hfk0So_zD6Sd1qs-O5SZq_Js5lncVbkGMNwGkycBvXHIQqeK3G7RodKdZNWSHFmP3JU8S3HowjXjo-0Z65zgdgrvCui9kJPUaxxGgVcTdQr7iLOIkm2Z75NaL4dWNyeLf_0000]--></g></svg>