<?xml version="1.0" encoding="us-ascii" standalone="no"?><svg xmlns="http://www.w3.org/2000/svg" xmlns:xlink="http://www.w3.org/1999/xlink" contentStyleType="text/css" height="747px" preserveAspectRatio="none" style="width:2188px;height:747px;background:#FFFFFF;" version="1.1" viewBox="0 0 2188 747" width="2188px" zoomAndPan="magnify"><defs/><g><rect fill="#FFFFFF" height="619.5977" style="stroke:#181818;stroke-width:1.0;" width="10" x="127.5" y="71.9121"/><rect fill="#FFFFFF" height="106.2031" style="stroke:#181818;stroke-width:1.0;" width="10" x="297.5" y="554.0156"/><rect fill="#FFFFFF" height="33.6211" style="stroke:#181818;stroke-width:1.0;" width="10" x="551" y="595.3066"/><rect fill="#FFFFFF" height="419.5215" style="stroke:#181818;stroke-width:1.0;" width="10" x="663.5" y="103.2031"/><rect fill="#FFFFFF" height="302.6484" style="stroke:#181818;stroke-width:1.0;" width="10" x="1060" y="144.4941"/><rect fill="#FFFFFF" height="227.7363" style="stroke:#181818;stroke-width:1.0;" width="10" x="1409.5" y="188.1152"/><rect fill="#FFFFFF" height="108.5332" style="stroke:#181818;stroke-width:1.0;" width="10" x="1747" y="276.0273"/><rect fill="#FFFFFF" height="33.6211" style="stroke:#181818;stroke-width:1.0;" width="10" x="2096" y="319.6484"/><line style="stroke:#181818;stroke-width:0.5;stroke-dasharray:5.0,5.0;" x1="14" x2="14" y1="38.6211" y2="709.5098"/><line style="stroke:#181818;stroke-width:0.5;stroke-dasharray:5.0,5.0;" x1="132" x2="132" y1="38.6211" y2="709.5098"/><line style="stroke:#181818;stroke-width:0.5;stroke-dasharray:5.0,5.0;" x1="302" x2="302" y1="38.6211" y2="709.5098"/><line style="stroke:#181818;stroke-width:0.5;stroke-dasharray:5.0,5.0;" x1="555.5" x2="555.5" y1="593.8262" y2="709.5098"/><line style="stroke:#181818;stroke-width:0.5;stroke-dasharray:5.0,5.0;" x1="668.5" x2="668.5" y1="38.6211" y2="709.5098"/><line style="stroke:#181818;stroke-width:0.5;stroke-dasharray:5.0,5.0;" x1="1064.5" x2="1064.5" y1="143.0137" y2="709.5098"/><line style="stroke:#181818;stroke-width:0.5;stroke-dasharray:5.0,5.0;" x1="1414" x2="1414" y1="186.6348" y2="709.5098"/><line style="stroke:#181818;stroke-width:0.5;stroke-dasharray:5.0,5.0;" x1="1751.5" x2="1751.5" y1="274.5469" y2="709.5098"/><line style="stroke:#181818;stroke-width:0.5;stroke-dasharray:5.0,5.0;" x1="2101" x2="2101" y1="318.168" y2="709.5098"/><rect fill="#E2E2F0" height="32.6211" rx="2.5" ry="2.5" style="stroke:#181818;stroke-width:0.5;" width="18" x="5" y="5"/><text fill="#000000" font-family="sans-serif" font-size="14" lengthAdjust="spacing" textLength="4" x="12" y="27.1074">&#160;</text><rect fill="#E2E2F0" height="32.6211" rx="2.5" ry="2.5" style="stroke:#181818;stroke-width:0.5;" width="18" x="5" y="708.5098"/><text fill="#000000" font-family="sans-serif" font-size="14" lengthAdjust="spacing" textLength="4" x="12" y="730.6172">&#160;</text><rect fill="#E2E2F0" height="32.6211" rx="2.5" ry="2.5" style="stroke:#181818;stroke-width:0.5;" width="199" x="33" y="5"/><text fill="#000000" font-family="sans-serif" font-size="14" lengthAdjust="spacing" textLength="185" x="40" y="27.1074">:AddRoomToHouseController</text><rect fill="#E2E2F0" height="32.6211" rx="2.5" ry="2.5" style="stroke:#181818;stroke-width:0.5;" width="199" x="33" y="708.5098"/><text fill="#000000" font-family="sans-serif" font-size="14" lengthAdjust="spacing" textLength="185" x="40" y="730.6172">:AddRoomToHouseController</text><rect fill="#E2E2F0" height="32.6211" rx="2.5" ry="2.5" style="stroke:#181818;stroke-width:0.5;" width="121" x="242" y="5"/><text fill="#000000" font-family="sans-serif" font-size="14" lengthAdjust="spacing" textLength="107" x="249" y="27.1074">:RoomAssembler</text><rect fill="#E2E2F0" height="32.6211" rx="2.5" ry="2.5" style="stroke:#181818;stroke-width:0.5;" width="121" x="242" y="708.5098"/><text fill="#000000" font-family="sans-serif" font-size="14" lengthAdjust="spacing" textLength="107" x="249" y="730.6172">:RoomAssembler</text><rect fill="#E2E2F0" height="32.6211" rx="2.5" ry="2.5" style="stroke:#181818;stroke-width:0.5;" width="147" x="482.5" y="708.5098"/><text fill="#000000" font-family="sans-serif" font-size="14" lengthAdjust="spacing" textLength="133" x="489.5" y="730.6172">roomDTO:RoomDTO</text><rect fill="#E2E2F0" height="32.6211" rx="2.5" ry="2.5" style="stroke:#181818;stroke-width:0.5;" width="58" x="639.5" y="5"/><text fill="#000000" font-family="sans-serif" font-size="14" lengthAdjust="spacing" textLength="44" x="646.5" y="27.1074">:House</text><rect fill="#E2E2F0" height="32.6211" rx="2.5" ry="2.5" style="stroke:#181818;stroke-width:0.5;" width="58" x="639.5" y="708.5098"/><text fill="#000000" font-family="sans-serif" font-size="14" lengthAdjust="spacing" textLength="44" x="646.5" y="730.6172">:House</text><rect fill="#E2E2F0" height="32.6211" rx="2.5" ry="2.5" style="stroke:#181818;stroke-width:0.5;" width="103" x="1013.5" y="708.5098"/><text fill="#000000" font-family="sans-serif" font-size="14" lengthAdjust="spacing" textLength="89" x="1020.5" y="730.6172">:RoomFactory</text><rect fill="#E2E2F0" height="32.6211" rx="2.5" ry="2.5" style="stroke:#181818;stroke-width:0.5;" width="87" x="1371" y="708.5098"/><text fill="#000000" font-family="sans-serif" font-size="14" lengthAdjust="spacing" textLength="73" x="1378" y="730.6172">room:Room</text><rect fill="#E2E2F0" height="32.6211" rx="2.5" ry="2.5" style="stroke:#181818;stroke-width:0.5;" width="139" x="1682.5" y="708.5098"/><text fill="#000000" font-family="sans-serif" font-size="14" lengthAdjust="spacing" textLength="125" x="1689.5" y="730.6172">:DimensionsFactory</text><rect fill="#E2E2F0" height="32.6211" rx="2.5" ry="2.5" style="stroke:#181818;stroke-width:0.5;" width="162" x="2020" y="708.5098"/><text fill="#000000" font-family="sans-serif" font-size="14" lengthAdjust="spacing" textLength="148" x="2027" y="730.6172">dimensions:Dimensions</text><rect fill="#FFFFFF" height="619.5977" style="stroke:#181818;stroke-width:1.0;" width="10" x="127.5" y="71.9121"/><rect fill="#FFFFFF" height="106.2031" style="stroke:#181818;stroke-width:1.0;" width="10" x="297.5" y="554.0156"/><rect fill="#FFFFFF" height="33.6211" style="stroke:#181818;stroke-width:1.0;" width="10" x="551" y="595.3066"/><rect fill="#FFFFFF" height="419.5215" style="stroke:#181818;stroke-width:1.0;" width="10" x="663.5" y="103.2031"/><rect fill="#FFFFFF" height="302.6484" style="stroke:#181818;stroke-width:1.0;" width="10" x="1060" y="144.4941"/><rect fill="#FFFFFF" height="227.7363" style="stroke:#181818;stroke-width:1.0;" width="10" x="1409.5" y="188.1152"/><rect fill="#FFFFFF" height="108.5332" style="stroke:#181818;stroke-width:1.0;" width="10" x="1747" y="276.0273"/><rect fill="#FFFFFF" height="33.6211" style="stroke:#181818;stroke-width:1.0;" width="10" x="2096" y="319.6484"/><polygon fill="#181818" points="115.5,67.9121,125.5,71.9121,115.5,75.9121,119.5,71.9121" style="stroke:#181818;stroke-width:1.0;"/><line style="stroke:#181818;stroke-width:1.0;" x1="14" x2="121.5" y1="71.9121" y2="71.9121"/><text fill="#000000" font-family="sans-serif" font-size="13" font-weight="bold" lengthAdjust="spacing" textLength="7" x="21" y="66.6494">1</text><text fill="#000000" font-family="sans-serif" font-size="13" lengthAdjust="spacing" textLength="55" x="32" y="66.6494">addRoom</text><polygon fill="#181818" points="651.5,99.2031,661.5,103.2031,651.5,107.2031,655.5,103.2031" style="stroke:#181818;stroke-width:1.0;"/><line style="stroke:#181818;stroke-width:1.0;" x1="137.5" x2="657.5" y1="103.2031" y2="103.2031"/><text fill="#000000" font-family="sans-serif" font-size="13" font-weight="bold" lengthAdjust="spacing" textLength="7" x="144.5" y="97.9404">2</text><text fill="#000000" font-family="sans-serif" font-size="13" lengthAdjust="spacing" textLength="305" x="155.5" y="97.9404">addRoom(StrName,nFloor,dLenght, dWidth, dHeight)</text><polygon fill="#181818" points="1001.5,130.4941,1011.5,134.4941,1001.5,138.4941,1005.5,134.4941" style="stroke:#181818;stroke-width:1.0;"/><line style="stroke:#181818;stroke-width:1.0;" x1="673.5" x2="1007.5" y1="134.4941" y2="134.4941"/><text fill="#000000" font-family="sans-serif" font-size="13" font-weight="bold" lengthAdjust="spacing" textLength="7" x="680.5" y="129.2314">3</text><text fill="#000000" font-family="sans-serif" font-size="13" lengthAdjust="spacing" textLength="305" x="691.5" y="129.2314">addRoom(StrName,nFloor,dLenght, dWidth, dHeight)</text><rect fill="#E2E2F0" height="32.6211" rx="2.5" ry="2.5" style="stroke:#181818;stroke-width:0.5;" width="103" x="1013.5" y="111.2031"/><text fill="#000000" font-family="sans-serif" font-size="14" lengthAdjust="spacing" textLength="89" x="1020.5" y="133.3105">:RoomFactory</text><polygon fill="#181818" points="1359,174.1152,1369,178.1152,1359,182.1152,1363,178.1152" style="stroke:#181818;stroke-width:1.0;"/><line style="stroke:#181818;stroke-width:1.0;" x1="1070" x2="1365" y1="178.1152" y2="178.1152"/><text fill="#000000" font-family="sans-serif" font-size="13" font-weight="bold" lengthAdjust="spacing" textLength="7" x="1077" y="172.8525">4</text><text fill="#000000" font-family="sans-serif" font-size="13" lengthAdjust="spacing" textLength="266" x="1088" y="172.8525">createRoom(name, floor, length, width, height)</text><rect fill="#E2E2F0" height="32.6211" rx="2.5" ry="2.5" style="stroke:#181818;stroke-width:0.5;" width="87" x="1371" y="154.8242"/><text fill="#000000" font-family="sans-serif" font-size="14" lengthAdjust="spacing" textLength="73" x="1378" y="176.9316">room:Room</text><line style="stroke:#181818;stroke-width:1.0;" x1="1419.5" x2="1461.5" y1="221.7363" y2="221.7363"/><line style="stroke:#181818;stroke-width:1.0;" x1="1461.5" x2="1461.5" y1="221.7363" y2="234.7363"/><line style="stroke:#181818;stroke-width:1.0;" x1="1420.5" x2="1461.5" y1="234.7363" y2="234.7363"/><polygon fill="#181818" points="1430.5,230.7363,1420.5,234.7363,1430.5,238.7363,1426.5,234.7363" style="stroke:#181818;stroke-width:1.0;"/><text fill="#000000" font-family="sans-serif" font-size="13" font-weight="bold" lengthAdjust="spacing" textLength="7" x="1426.5" y="216.4736">5</text><text fill="#000000" font-family="sans-serif" font-size="13" lengthAdjust="spacing" textLength="207" x="1437.5" y="216.4736">setDimension(width, length, height))</text><polygon fill="#181818" points="1670.5,262.0273,1680.5,266.0273,1670.5,270.0273,1674.5,266.0273" style="stroke:#181818;stroke-width:1.0;"/><line style="stroke:#181818;stroke-width:1.0;" x1="1419.5" x2="1676.5" y1="266.0273" y2="266.0273"/><text fill="#000000" font-family="sans-serif" font-size="13" font-weight="bold" lengthAdjust="spacing" textLength="7" x="1426.5" y="260.7646">6</text><text fill="#000000" font-family="sans-serif" font-size="13" lengthAdjust="spacing" textLength="228" x="1437.5" y="260.7646">createDimensions(length, width, height)</text><rect fill="#E2E2F0" height="32.6211" rx="2.5" ry="2.5" style="stroke:#181818;stroke-width:0.5;" width="139" x="1682.5" y="242.7363"/><text fill="#000000" font-family="sans-serif" font-size="14" lengthAdjust="spacing" textLength="125" x="1689.5" y="264.8438">:DimensionsFactory</text><polygon fill="#181818" points="2008,305.6484,2018,309.6484,2008,313.6484,2012,309.6484" style="stroke:#181818;stroke-width:1.0;"/><line style="stroke:#181818;stroke-width:1.0;" x1="1757" x2="2014" y1="309.6484" y2="309.6484"/><text fill="#000000" font-family="sans-serif" font-size="13" font-weight="bold" lengthAdjust="spacing" textLength="7" x="1764" y="304.3857">7</text><text fill="#000000" font-family="sans-serif" font-size="13" lengthAdjust="spacing" textLength="228" x="1775" y="304.3857">createDimensions(length, width, height)</text><rect fill="#E2E2F0" height="32.6211" rx="2.5" ry="2.5" style="stroke:#181818;stroke-width:0.5;" width="162" x="2020" y="286.3574"/><text fill="#000000" font-family="sans-serif" font-size="14" lengthAdjust="spacing" textLength="148" x="2027" y="308.4648">dimensions:Dimensions</text><polygon fill="#181818" points="1768,349.2695,1758,353.2695,1768,357.2695,1764,353.2695" style="stroke:#181818;stroke-width:1.0;"/><line style="stroke:#181818;stroke-width:1.0;" x1="1762" x2="2100" y1="353.2695" y2="353.2695"/><text fill="#000000" font-family="sans-serif" font-size="13" font-weight="bold" lengthAdjust="spacing" textLength="7" x="1774" y="348.0068">8</text><text fill="#000000" font-family="sans-serif" font-size="13" lengthAdjust="spacing" textLength="66" x="1785" y="348.0068">dimensions</text><polygon fill="#181818" points="1430.5,380.5605,1420.5,384.5605,1430.5,388.5605,1426.5,384.5605" style="stroke:#181818;stroke-width:1.0;"/><line style="stroke:#181818;stroke-width:1.0;stroke-dasharray:2.0,2.0;" x1="1424.5" x2="1751" y1="384.5605" y2="384.5605"/><text fill="#000000" font-family="sans-serif" font-size="13" font-weight="bold" lengthAdjust="spacing" textLength="7" x="1436.5" y="379.2979">9</text><text fill="#000000" font-family="sans-serif" font-size="13" lengthAdjust="spacing" textLength="66" x="1447.5" y="379.2979">dimensions</text><polygon fill="#181818" points="1081,411.8516,1071,415.8516,1081,419.8516,1077,415.8516" style="stroke:#181818;stroke-width:1.0;"/><line style="stroke:#181818;stroke-width:1.0;stroke-dasharray:2.0,2.0;" x1="1075" x2="1413.5" y1="415.8516" y2="415.8516"/><text fill="#000000" font-family="sans-serif" font-size="13" font-weight="bold" lengthAdjust="spacing" textLength="14" x="1087" y="410.5889">10</text><text fill="#000000" font-family="sans-serif" font-size="13" lengthAdjust="spacing" textLength="66" x="1105" y="410.5889">dimensions</text><polygon fill="#181818" points="684.5,443.1426,674.5,447.1426,684.5,451.1426,680.5,447.1426" style="stroke:#181818;stroke-width:1.0;"/><line style="stroke:#181818;stroke-width:1.0;stroke-dasharray:2.0,2.0;" x1="678.5" x2="1064" y1="447.1426" y2="447.1426"/><text fill="#000000" font-family="sans-serif" font-size="13" font-weight="bold" lengthAdjust="spacing" textLength="14" x="690.5" y="441.8799">11</text><text fill="#000000" font-family="sans-serif" font-size="13" lengthAdjust="spacing" textLength="29" x="708.5" y="441.8799">room</text><line style="stroke:#181818;stroke-width:1.0;" x1="673.5" x2="715.5" y1="478.4336" y2="478.4336"/><line style="stroke:#181818;stroke-width:1.0;" x1="715.5" x2="715.5" y1="478.4336" y2="491.4336"/><line style="stroke:#181818;stroke-width:1.0;" x1="674.5" x2="715.5" y1="491.4336" y2="491.4336"/><polygon fill="#181818" points="684.5,487.4336,674.5,491.4336,684.5,495.4336,680.5,491.4336" style="stroke:#181818;stroke-width:1.0;"/><text fill="#000000" font-family="sans-serif" font-size="13" font-weight="bold" lengthAdjust="spacing" textLength="14" x="680.5" y="473.1709">12</text><text fill="#000000" font-family="sans-serif" font-size="13" lengthAdjust="spacing" textLength="92" x="698.5" y="473.1709">addRoom(room)</text><polygon fill="#181818" points="148.5,518.7246,138.5,522.7246,148.5,526.7246,144.5,522.7246" style="stroke:#181818;stroke-width:1.0;"/><line style="stroke:#181818;stroke-width:1.0;stroke-dasharray:2.0,2.0;" x1="142.5" x2="667.5" y1="522.7246" y2="522.7246"/><text fill="#000000" font-family="sans-serif" font-size="13" font-weight="bold" lengthAdjust="spacing" textLength="14" x="154.5" y="517.4619">13</text><text fill="#000000" font-family="sans-serif" font-size="13" lengthAdjust="spacing" textLength="29" x="172.5" y="517.4619">room</text><polygon fill="#181818" points="285.5,550.0156,295.5,554.0156,285.5,558.0156,289.5,554.0156" style="stroke:#181818;stroke-width:1.0;"/><line style="stroke:#181818;stroke-width:1.0;" x1="137.5" x2="291.5" y1="554.0156" y2="554.0156"/><text fill="#000000" font-family="sans-serif" font-size="13" font-weight="bold" lengthAdjust="spacing" textLength="14" x="144.5" y="548.7529">14</text><text fill="#000000" font-family="sans-serif" font-size="13" lengthAdjust="spacing" textLength="112" x="162.5" y="548.7529">domain2DTO(room)</text><polygon fill="#181818" points="470.5,581.3066,480.5,585.3066,470.5,589.3066,474.5,585.3066" style="stroke:#181818;stroke-width:1.0;"/><line style="stroke:#181818;stroke-width:1.0;" x1="307.5" x2="476.5" y1="585.3066" y2="585.3066"/><text fill="#000000" font-family="sans-serif" font-size="13" font-weight="bold" lengthAdjust="spacing" textLength="14" x="314.5" y="580.0439">15</text><text fill="#000000" font-family="sans-serif" font-size="13" lengthAdjust="spacing" textLength="133" x="332.5" y="580.0439">createRoomDTO(room)</text><rect fill="#E2E2F0" height="32.6211" rx="2.5" ry="2.5" style="stroke:#181818;stroke-width:0.5;" width="147" x="482.5" y="562.0156"/><text fill="#000000" font-family="sans-serif" font-size="14" lengthAdjust="spacing" textLength="133" x="489.5" y="584.123">roomDTO:RoomDTO</text><polygon fill="#181818" points="318.5,624.9277,308.5,628.9277,318.5,632.9277,314.5,628.9277" style="stroke:#181818;stroke-width:1.0;"/><line style="stroke:#181818;stroke-width:1.0;stroke-dasharray:2.0,2.0;" x1="312.5" x2="555" y1="628.9277" y2="628.9277"/><text fill="#000000" font-family="sans-serif" font-size="13" font-weight="bold" lengthAdjust="spacing" textLength="14" x="324.5" y="623.665">16</text><text fill="#000000" font-family="sans-serif" font-size="13" lengthAdjust="spacing" textLength="55" x="342.5" y="623.665">roomDTO</text><polygon fill="#181818" points="148.5,656.2188,138.5,660.2188,148.5,664.2188,144.5,660.2188" style="stroke:#181818;stroke-width:1.0;"/><line style="stroke:#181818;stroke-width:1.0;stroke-dasharray:2.0,2.0;" x1="142.5" x2="301.5" y1="660.2188" y2="660.2188"/><text fill="#000000" font-family="sans-serif" font-size="13" font-weight="bold" lengthAdjust="spacing" textLength="14" x="154.5" y="654.9561">17</text><text fill="#000000" font-family="sans-serif" font-size="13" lengthAdjust="spacing" textLength="55" x="172.5" y="654.9561">roomDTO</text><polygon fill="#181818" points="25,687.5098,15,691.5098,25,695.5098,21,691.5098" style="stroke:#181818;stroke-width:1.0;"/><line style="stroke:#181818;stroke-width:1.0;stroke-dasharray:2.0,2.0;" x1="19" x2="131.5" y1="691.5098" y2="691.5098"/><text fill="#000000" font-family="sans-serif" font-size="13" font-weight="bold" lengthAdjust="spacing" textLength="14" x="31" y="686.2471">18</text><text fill="#000000" font-family="sans-serif" font-size="13" lengthAdjust="spacing" textLength="55" x="49" y="686.2471">roomDTO</text><!--SRC=[fLHDJmCX4BtpAuYdDcal7dimQMoQ7emcMkEP5hGakz00rVZl1PQFuSFqqEm1c9dttZ0x3BaOAIxZWIc4paGPVkHd8Wo-in_H-5rRHs5VhIbzbNBSovsyQFOeXL5o69ZoyVbOeHnahJKR3p4qdSf8PGCt-nSFiAiF3VkAqkjxlzzr1BVaQAJwJHpXt0hww1HMCMtuo8JcKcZ8rrXB54rkWA-0225NNxny07LROJ8L65bQ_aqCWqNDMuVozqw0sPjHpsHa2x4Tf5GB-iJ4ryaiCFtWr9pikcFS6kQPUIeSEYhcJh14tkCqWF4M9SWDzH1mHBaLdWAyb70w-DFhuC7gEFwVIURKK_6CcKepaoe-2xX84_3pb57xKoDPuub9PiViMdOjUwkBcg1I_IPPGFxFdNBR8ifw3BtyKgsleSkYLitL1_i_MZP9RdptTElWLDhKmTKhSQ1vz5PFhoOCxwDyTMbmsGlBaN1nRsTJe4t8FDrWjxiXbZonHwqHmvRli4Li35-MQOIPMPV2cQ1Svx8LAcSDhsnnRavr4M0s_G40]--></g></svg>