<?xml version="1.0" encoding="us-ascii" standalone="no"?><svg xmlns="http://www.w3.org/2000/svg" xmlns:xlink="http://www.w3.org/1999/xlink" contentStyleType="text/css" height="278px" preserveAspectRatio="none" style="width:309px;height:278px;background:#FFFFFF;" version="1.1" viewBox="0 0 309 278" width="309px" zoomAndPan="magnify"><defs/><g><text fill="#000000" font-family="sans-serif" font-size="14" font-weight="bold" lengthAdjust="spacing" textLength="180" x="63.75" y="28.5352">Add a room to the house</text><rect fill="#FFFFFF" height="50.6211" style="stroke:#181818;stroke-width:1.0;" width="10" x="25.5" y="128.9766"/><rect fill="#FFFFFF" height="29.3105" style="stroke:#181818;stroke-width:1.0;" width="10" x="267.5" y="150.2871"/><line style="stroke:#181818;stroke-width:0.5;stroke-dasharray:5.0,5.0;" x1="30" x2="30" y1="118.9766" y2="197.5977"/><line style="stroke:#181818;stroke-width:0.5;stroke-dasharray:5.0,5.0;" x1="272.5" x2="272.5" y1="118.9766" y2="197.5977"/><text fill="#000000" font-family="sans-serif" font-size="14" lengthAdjust="spacing" textLength="45" x="5" y="116.0234">Admin</text><ellipse cx="30.5" cy="50.9883" fill="#E2E2F0" rx="8" ry="8" style="stroke:#181818;stroke-width:0.5;"/><path d="M30.5,58.9883 L30.5,85.9883 M17.5,66.9883 L43.5,66.9883 M30.5,85.9883 L17.5,100.9883 M30.5,85.9883 L43.5,100.9883 " fill="none" style="stroke:#181818;stroke-width:0.5;"/><text fill="#000000" font-family="sans-serif" font-size="14" lengthAdjust="spacing" textLength="45" x="5" y="210.1328">Admin</text><ellipse cx="30.5" cy="221.5859" fill="#E2E2F0" rx="8" ry="8" style="stroke:#181818;stroke-width:0.5;"/><path d="M30.5,229.5859 L30.5,256.5859 M17.5,237.5859 L43.5,237.5859 M30.5,256.5859 L17.5,271.5859 M30.5,256.5859 L43.5,271.5859 " fill="none" style="stroke:#181818;stroke-width:0.5;"/><rect fill="#E2E2F0" height="30.4883" rx="2.5" ry="2.5" style="stroke:#181818;stroke-width:0.5;" width="62" x="241.5" y="87.4883"/><text fill="#000000" font-family="sans-serif" font-size="14" lengthAdjust="spacing" textLength="48" x="248.5" y="108.0234">System</text><rect fill="#E2E2F0" height="30.4883" rx="2.5" ry="2.5" style="stroke:#181818;stroke-width:0.5;" width="62" x="241.5" y="196.5977"/><text fill="#000000" font-family="sans-serif" font-size="14" lengthAdjust="spacing" textLength="48" x="248.5" y="217.1328">System</text><rect fill="#FFFFFF" height="50.6211" style="stroke:#181818;stroke-width:1.0;" width="10" x="25.5" y="128.9766"/><rect fill="#FFFFFF" height="29.3105" style="stroke:#181818;stroke-width:1.0;" width="10" x="267.5" y="150.2871"/><polygon fill="#181818" points="255.5,146.2871,265.5,150.2871,255.5,154.2871,259.5,150.2871" style="stroke:#181818;stroke-width:1.0;"/><line style="stroke:#181818;stroke-width:1.0;" x1="35.5" x2="261.5" y1="150.2871" y2="150.2871"/><text fill="#000000" font-family="sans-serif" font-size="13" lengthAdjust="spacing" textLength="213" x="42.5" y="145.5449">I want to add a room to the house</text><polygon fill="#181818" points="41.5,175.5977,31.5,179.5977,41.5,183.5977,37.5,179.5977" style="stroke:#181818;stroke-width:1.0;"/><line style="stroke:#181818;stroke-width:1.0;stroke-dasharray:2.0,2.0;" x1="35.5" x2="271.5" y1="179.5977" y2="179.5977"/><text fill="#000000" font-family="sans-serif" font-size="13" lengthAdjust="spacing" textLength="36" x="47.5" y="174.8555">Room</text><!--SRC=[TOsz3e8X34LtdgAR4x8pc3YwwXCqq0W9VqBH-FOY7p76nALDUdlEtJdcqhHI9M3Y7iFUvAWQtJebGz9wl5QCGg3XNE5eeq-YO6LlV1a0N9wDQUJiET38BI3Kd2Dm1dO4BlT64_TtP5g6EK4U5gxX18-tRK3uH_4nhCPjWHoIQTDm7eomzFluTTdAnGi0]--></g></svg>