<?xml version="1.0" encoding="us-ascii" standalone="no"?><svg xmlns="http://www.w3.org/2000/svg" xmlns:xlink="http://www.w3.org/1999/xlink" contentStyleType="text/css" height="835px" preserveAspectRatio="none" style="width:1487px;height:835px;background:#FFFFFF;" version="1.1" viewBox="0 0 1487 835" width="1487px" zoomAndPan="magnify"><defs/><g><!--class AddRoomController--><g id="elem_AddRoomController"><rect codeLine="3" fill="#F1F1F1" height="135.0664" id="AddRoomController" rx="2.5" ry="2.5" style="stroke:#181818;stroke-width:0.5;" width="600" x="543" y="12"/><ellipse cx="776.75" cy="34.291" fill="#ADD1B2" rx="11" ry="11" style="stroke:#181818;stroke-width:1.0;"/><path d="M779.5156,30.166 Q779.6719,29.9473 779.8594,29.8379 Q780.0469,29.7285 780.2656,29.7285 Q780.6406,29.7285 780.875,29.9941 Q781.1094,30.2441 781.1094,30.8535 L781.1094,32.3066 Q781.1094,32.916 780.875,33.1816 Q780.6406,33.4473 780.2656,33.4473 Q779.9219,33.4473 779.7188,33.2441 Q779.5156,33.0566 779.4063,32.541 Q779.3594,32.1816 779.1719,31.9941 Q778.8438,31.6191 778.2344,31.4004 Q777.625,31.1816 777,31.1816 Q776.2344,31.1816 775.5938,31.5098 Q774.9688,31.8379 774.4688,32.5879 Q773.9844,33.3379 773.9844,34.3691 L773.9844,35.4629 Q773.9844,36.6973 774.875,37.5254 Q775.7656,38.3379 777.3594,38.3379 Q778.2969,38.3379 778.9531,38.0879 Q779.3438,37.9316 779.7656,37.4941 Q780.0313,37.2285 780.1719,37.1504 Q780.3281,37.0723 780.5313,37.0723 Q780.8594,37.0723 781.1094,37.3379 Q781.375,37.5879 781.375,37.9316 Q781.375,38.2754 781.0313,38.6816 Q780.5313,39.2598 779.7344,39.5879 Q778.6563,40.041 777.3594,40.041 Q775.8438,40.041 774.6406,39.416 Q773.6563,38.916 772.9688,37.8535 Q772.2813,36.7754 772.2813,35.4941 L772.2813,34.3379 Q772.2813,33.0098 772.8906,31.8691 Q773.5156,30.7129 774.6094,30.1035 Q775.7031,29.4785 776.9375,29.4785 Q777.6719,29.4785 778.3125,29.6504 Q778.9688,29.8066 779.5156,30.166 Z " fill="#000000"/><text fill="#000000" font-family="sans-serif" font-size="12" font-style="italic" lengthAdjust="spacing" textLength="68" x="825.25" y="29.9492">&#171;Controller&#187;</text><text fill="#000000" font-family="sans-serif" font-size="14" lengthAdjust="spacing" textLength="124" x="797.25" y="48.0684">AddRoomController</text><line style="stroke:#181818;stroke-width:0.5;" x1="544" x2="1142" y1="56.582" y2="56.582"/><rect fill="none" height="6" style="stroke:#C82930;stroke-width:1.0;" width="6" x="551" y="68.3926"/><text fill="#000000" font-family="sans-serif" font-size="14" lengthAdjust="spacing" textLength="179" x="563" y="75.6895">_roomService: RoomService</text><rect fill="none" height="6" style="stroke:#C82930;stroke-width:1.0;" width="6" x="551" y="87.0137"/><text fill="#000000" font-family="sans-serif" font-size="14" lengthAdjust="spacing" textLength="217" x="563" y="94.3105">_roomAssembler: RoomAssembler</text><line style="stroke:#181818;stroke-width:0.5;" x1="544" x2="1142" y1="101.8242" y2="101.8242"/><ellipse cx="554" cy="116.6348" fill="#84BE84" rx="3" ry="3" style="stroke:#038048;stroke-width:1.0;"/><text fill="#000000" font-family="sans-serif" font-size="14" lengthAdjust="spacing" textLength="571" x="563" y="120.9316">AddRoomToHouseController(RoomService roomServiceImpl, RoomAssembler roomAssembler)</text><ellipse cx="554" cy="135.2559" fill="#84BE84" rx="3" ry="3" style="stroke:#038048;stroke-width:1.0;"/><text fill="#000000" font-family="sans-serif" font-size="14" lengthAdjust="spacing" textLength="574" x="563" y="139.5527">AddRoom(houseID: String, name: String, int floor, int width, int length, int height):RoomDTO</text></g><!--class RoomService--><g id="elem_RoomService"><rect codeLine="10" fill="#F1F1F1" height="172.3086" id="RoomService" rx="2.5" ry="2.5" style="stroke:#181818;stroke-width:0.5;" width="946" x="534" y="202"/><ellipse cx="960.75" cy="224.291" fill="#ADD1B2" rx="11" ry="11" style="stroke:#181818;stroke-width:1.0;"/><path d="M963.5156,220.166 Q963.6719,219.9473 963.8594,219.8379 Q964.0469,219.7285 964.2656,219.7285 Q964.6406,219.7285 964.875,219.9941 Q965.1094,220.2441 965.1094,220.8535 L965.1094,222.3066 Q965.1094,222.916 964.875,223.1816 Q964.6406,223.4473 964.2656,223.4473 Q963.9219,223.4473 963.7188,223.2441 Q963.5156,223.0566 963.4063,222.541 Q963.3594,222.1816 963.1719,221.9941 Q962.8438,221.6191 962.2344,221.4004 Q961.625,221.1816 961,221.1816 Q960.2344,221.1816 959.5938,221.5098 Q958.9688,221.8379 958.4688,222.5879 Q957.9844,223.3379 957.9844,224.3691 L957.9844,225.4629 Q957.9844,226.6973 958.875,227.5254 Q959.7656,228.3379 961.3594,228.3379 Q962.2969,228.3379 962.9531,228.0879 Q963.3438,227.9316 963.7656,227.4941 Q964.0313,227.2285 964.1719,227.1504 Q964.3281,227.0723 964.5313,227.0723 Q964.8594,227.0723 965.1094,227.3379 Q965.375,227.5879 965.375,227.9316 Q965.375,228.2754 965.0313,228.6816 Q964.5313,229.2598 963.7344,229.5879 Q962.6563,230.041 961.3594,230.041 Q959.8438,230.041 958.6406,229.416 Q957.6563,228.916 956.9688,227.8535 Q956.2813,226.7754 956.2813,225.4941 L956.2813,224.3379 Q956.2813,223.0098 956.8906,221.8691 Q957.5156,220.7129 958.6094,220.1035 Q959.7031,219.4785 960.9375,219.4785 Q961.6719,219.4785 962.3125,219.6504 Q962.9688,219.8066 963.5156,220.166 Z " fill="#000000"/><text fill="#000000" font-family="sans-serif" font-size="12" font-style="italic" lengthAdjust="spacing" textLength="55" x="995.75" y="219.9492">&#171;Service&#187;</text><text fill="#000000" font-family="sans-serif" font-size="14" lengthAdjust="spacing" textLength="84" x="981.25" y="238.0684">RoomService</text><line style="stroke:#181818;stroke-width:0.5;" x1="535" x2="1479" y1="246.582" y2="246.582"/><rect fill="none" height="6" style="stroke:#C82930;stroke-width:1.0;" width="6" x="542" y="258.3926"/><text fill="#000000" font-family="sans-serif" font-size="14" lengthAdjust="spacing" textLength="221" x="554" y="265.6895">_roomRepository: RoomRepository</text><rect fill="none" height="6" style="stroke:#C82930;stroke-width:1.0;" width="6" x="542" y="277.0137"/><text fill="#000000" font-family="sans-serif" font-size="14" lengthAdjust="spacing" textLength="181" x="554" y="284.3105">_roomFactory: RoomFactory</text><rect fill="none" height="6" style="stroke:#C82930;stroke-width:1.0;" width="6" x="542" y="295.6348"/><text fill="#000000" font-family="sans-serif" font-size="14" lengthAdjust="spacing" textLength="217" x="554" y="302.9316">_roomAssembler: RoomAssembler</text><rect fill="none" height="6" style="stroke:#C82930;stroke-width:1.0;" width="6" x="542" y="314.2559"/><text fill="#000000" font-family="sans-serif" font-size="14" lengthAdjust="spacing" textLength="231" x="554" y="321.5527">_houseRepository: HouseRepository</text><line style="stroke:#181818;stroke-width:0.5;" x1="535" x2="1479" y1="329.0664" y2="329.0664"/><ellipse cx="545" cy="343.877" fill="#84BE84" rx="3" ry="3" style="stroke:#038048;stroke-width:1.0;"/><text fill="#000000" font-family="sans-serif" font-size="14" lengthAdjust="spacing" textLength="920" x="554" y="348.1738">RoomService(roomRepository:RoomRepository, roomFactory:RoomFactory, roomAssembler:RoomAssembler, houseRepository:HouseRepository)</text><ellipse cx="545" cy="362.498" fill="#84BE84" rx="3" ry="3" style="stroke:#038048;stroke-width:1.0;"/><text fill="#000000" font-family="sans-serif" font-size="14" lengthAdjust="spacing" textLength="577" x="554" y="366.7949">addRoom(houseID: String, name: String, int floor, int width, int length, int height): RoomDTO</text></g><!--class RoomRepository--><g id="elem_RoomRepository"><rect codeLine="19" fill="#F1F1F1" height="97.8242" id="RoomRepository" rx="2.5" ry="2.5" style="stroke:#181818;stroke-width:0.5;" width="204" x="1017" y="646.5"/><ellipse cx="1062.25" cy="668.791" fill="#ADD1B2" rx="11" ry="11" style="stroke:#181818;stroke-width:1.0;"/><path d="M1065.0156,664.666 Q1065.1719,664.4473 1065.3594,664.3379 Q1065.5469,664.2285 1065.7656,664.2285 Q1066.1406,664.2285 1066.375,664.4941 Q1066.6094,664.7441 1066.6094,665.3535 L1066.6094,666.8066 Q1066.6094,667.416 1066.375,667.6816 Q1066.1406,667.9473 1065.7656,667.9473 Q1065.4219,667.9473 1065.2188,667.7441 Q1065.0156,667.5566 1064.9063,667.041 Q1064.8594,666.6816 1064.6719,666.4941 Q1064.3438,666.1191 1063.7344,665.9004 Q1063.125,665.6816 1062.5,665.6816 Q1061.7344,665.6816 1061.0938,666.0098 Q1060.4688,666.3379 1059.9688,667.0879 Q1059.4844,667.8379 1059.4844,668.8691 L1059.4844,669.9629 Q1059.4844,671.1973 1060.375,672.0254 Q1061.2656,672.8379 1062.8594,672.8379 Q1063.7969,672.8379 1064.4531,672.5879 Q1064.8438,672.4316 1065.2656,671.9941 Q1065.5313,671.7285 1065.6719,671.6504 Q1065.8281,671.5723 1066.0313,671.5723 Q1066.3594,671.5723 1066.6094,671.8379 Q1066.875,672.0879 1066.875,672.4316 Q1066.875,672.7754 1066.5313,673.1816 Q1066.0313,673.7598 1065.2344,674.0879 Q1064.1563,674.541 1062.8594,674.541 Q1061.3438,674.541 1060.1406,673.916 Q1059.1563,673.416 1058.4688,672.3535 Q1057.7813,671.2754 1057.7813,669.9941 L1057.7813,668.8379 Q1057.7813,667.5098 1058.3906,666.3691 Q1059.0156,665.2129 1060.1094,664.6035 Q1061.2031,663.9785 1062.4375,663.9785 Q1063.1719,663.9785 1063.8125,664.1504 Q1064.4688,664.3066 1065.0156,664.666 Z " fill="#000000"/><text fill="#000000" font-family="sans-serif" font-size="12" font-style="italic" lengthAdjust="spacing" textLength="73" x="1098.75" y="664.4492">&#171;Repository&#187;</text><text fill="#000000" font-family="sans-serif" font-size="14" lengthAdjust="spacing" textLength="105" x="1082.75" y="682.5684">RoomRepository</text><line style="stroke:#181818;stroke-width:0.5;" x1="1018" x2="1220" y1="691.082" y2="691.082"/><rect fill="none" height="6" style="stroke:#C82930;stroke-width:1.0;" width="6" x="1025" y="702.8926"/><text fill="#000000" font-family="sans-serif" font-size="14" lengthAdjust="spacing" textLength="178" x="1037" y="710.1895">_map&lt;RoomID,Room&gt; room</text><line style="stroke:#181818;stroke-width:0.5;" x1="1018" x2="1220" y1="717.7031" y2="717.7031"/><ellipse cx="1028" cy="732.5137" fill="#84BE84" rx="3" ry="3" style="stroke:#038048;stroke-width:1.0;"/><text fill="#000000" font-family="sans-serif" font-size="14" lengthAdjust="spacing" textLength="162" x="1037" y="736.8105">save(room: Room): Room</text></g><!--class RoomFactory--><g id="elem_RoomFactory"><rect codeLine="24" fill="#F1F1F1" height="79.2031" id="RoomFactory" rx="2.5" ry="2.5" style="stroke:#181818;stroke-width:0.5;" width="721" x="349.5" y="429"/><ellipse cx="663.25" cy="451.291" fill="#ADD1B2" rx="11" ry="11" style="stroke:#181818;stroke-width:1.0;"/><path d="M666.0156,447.166 Q666.1719,446.9473 666.3594,446.8379 Q666.5469,446.7285 666.7656,446.7285 Q667.1406,446.7285 667.375,446.9941 Q667.6094,447.2441 667.6094,447.8535 L667.6094,449.3066 Q667.6094,449.916 667.375,450.1816 Q667.1406,450.4473 666.7656,450.4473 Q666.4219,450.4473 666.2188,450.2441 Q666.0156,450.0566 665.9063,449.541 Q665.8594,449.1816 665.6719,448.9941 Q665.3438,448.6191 664.7344,448.4004 Q664.125,448.1816 663.5,448.1816 Q662.7344,448.1816 662.0938,448.5098 Q661.4688,448.8379 660.9688,449.5879 Q660.4844,450.3379 660.4844,451.3691 L660.4844,452.4629 Q660.4844,453.6973 661.375,454.5254 Q662.2656,455.3379 663.8594,455.3379 Q664.7969,455.3379 665.4531,455.0879 Q665.8438,454.9316 666.2656,454.4941 Q666.5313,454.2285 666.6719,454.1504 Q666.8281,454.0723 667.0313,454.0723 Q667.3594,454.0723 667.6094,454.3379 Q667.875,454.5879 667.875,454.9316 Q667.875,455.2754 667.5313,455.6816 Q667.0313,456.2598 666.2344,456.5879 Q665.1563,457.041 663.8594,457.041 Q662.3438,457.041 661.1406,456.416 Q660.1563,455.916 659.4688,454.8535 Q658.7813,453.7754 658.7813,452.4941 L658.7813,451.3379 Q658.7813,450.0098 659.3906,448.8691 Q660.0156,447.7129 661.1094,447.1035 Q662.2031,446.4785 663.4375,446.4785 Q664.1719,446.4785 664.8125,446.6504 Q665.4688,446.8066 666.0156,447.166 Z " fill="#000000"/><text fill="#000000" font-family="sans-serif" font-size="12" font-style="italic" lengthAdjust="spacing" textLength="54" x="699.25" y="446.9492">&#171;Factory&#187;</text><text fill="#000000" font-family="sans-serif" font-size="14" lengthAdjust="spacing" textLength="85" x="683.75" y="465.0684">RoomFactory</text><line style="stroke:#181818;stroke-width:0.5;" x1="350.5" x2="1069.5" y1="473.582" y2="473.582"/><line style="stroke:#181818;stroke-width:0.5;" x1="350.5" x2="1069.5" y1="481.582" y2="481.582"/><ellipse cx="360.5" cy="496.3926" fill="#84BE84" rx="3" ry="3" style="stroke:#038048;stroke-width:1.0;"/><text fill="#000000" font-family="sans-serif" font-size="14" lengthAdjust="spacing" textLength="695" x="369.5" y="500.6895">createRoom(houseID: HouseID, roomName: RoomName, dimension: Dimension, roomFloor: RoomFloor):Room</text></g><!--class RoomAssembler--><g id="elem_RoomAssembler"><rect codeLine="28" fill="#F1F1F1" height="79.2031" id="RoomAssembler" rx="2.5" ry="2.5" style="stroke:#181818;stroke-width:0.5;" width="273" x="189.5" y="40"/><ellipse cx="270.25" cy="62.291" fill="#ADD1B2" rx="11" ry="11" style="stroke:#181818;stroke-width:1.0;"/><path d="M273.0156,58.166 Q273.1719,57.9473 273.3594,57.8379 Q273.5469,57.7285 273.7656,57.7285 Q274.1406,57.7285 274.375,57.9941 Q274.6094,58.2441 274.6094,58.8535 L274.6094,60.3066 Q274.6094,60.916 274.375,61.1816 Q274.1406,61.4473 273.7656,61.4473 Q273.4219,61.4473 273.2188,61.2441 Q273.0156,61.0566 272.9063,60.541 Q272.8594,60.1816 272.6719,59.9941 Q272.3438,59.6191 271.7344,59.4004 Q271.125,59.1816 270.5,59.1816 Q269.7344,59.1816 269.0938,59.5098 Q268.4688,59.8379 267.9688,60.5879 Q267.4844,61.3379 267.4844,62.3691 L267.4844,63.4629 Q267.4844,64.6973 268.375,65.5254 Q269.2656,66.3379 270.8594,66.3379 Q271.7969,66.3379 272.4531,66.0879 Q272.8438,65.9316 273.2656,65.4941 Q273.5313,65.2285 273.6719,65.1504 Q273.8281,65.0723 274.0313,65.0723 Q274.3594,65.0723 274.6094,65.3379 Q274.875,65.5879 274.875,65.9316 Q274.875,66.2754 274.5313,66.6816 Q274.0313,67.2598 273.2344,67.5879 Q272.1563,68.041 270.8594,68.041 Q269.3438,68.041 268.1406,67.416 Q267.1563,66.916 266.4688,65.8535 Q265.7813,64.7754 265.7813,63.4941 L265.7813,62.3379 Q265.7813,61.0098 266.3906,59.8691 Q267.0156,58.7129 268.1094,58.1035 Q269.2031,57.4785 270.4375,57.4785 Q271.1719,57.4785 271.8125,57.6504 Q272.4688,57.8066 273.0156,58.166 Z " fill="#000000"/><text fill="#000000" font-family="sans-serif" font-size="12" font-style="italic" lengthAdjust="spacing" textLength="74" x="305.25" y="57.9492">&#171;Assembler&#187;</text><text fill="#000000" font-family="sans-serif" font-size="14" lengthAdjust="spacing" textLength="103" x="290.75" y="76.0684">RoomAssembler</text><line style="stroke:#181818;stroke-width:0.5;" x1="190.5" x2="461.5" y1="84.582" y2="84.582"/><line style="stroke:#181818;stroke-width:0.5;" x1="190.5" x2="461.5" y1="92.582" y2="92.582"/><ellipse cx="200.5" cy="107.3926" fill="#84BE84" rx="3" ry="3" style="stroke:#038048;stroke-width:1.0;"/><text fill="#000000" font-family="sans-serif" font-size="14" lengthAdjust="spacing" textLength="247" x="209.5" y="111.6895">domainToDTO(room:Room):RoomDTO</text></g><!--class RoomDTO--><g id="elem_RoomDTO"><rect codeLine="32" fill="#F1F1F1" height="153.6875" id="RoomDTO" rx="2.5" ry="2.5" style="stroke:#181818;stroke-width:0.5;" width="510" x="6" y="211"/><ellipse cx="223.25" cy="233.291" fill="#ADD1B2" rx="11" ry="11" style="stroke:#181818;stroke-width:1.0;"/><path d="M226.0156,229.166 Q226.1719,228.9473 226.3594,228.8379 Q226.5469,228.7285 226.7656,228.7285 Q227.1406,228.7285 227.375,228.9941 Q227.6094,229.2441 227.6094,229.8535 L227.6094,231.3066 Q227.6094,231.916 227.375,232.1816 Q227.1406,232.4473 226.7656,232.4473 Q226.4219,232.4473 226.2188,232.2441 Q226.0156,232.0566 225.9063,231.541 Q225.8594,231.1816 225.6719,230.9941 Q225.3438,230.6191 224.7344,230.4004 Q224.125,230.1816 223.5,230.1816 Q222.7344,230.1816 222.0938,230.5098 Q221.4688,230.8379 220.9688,231.5879 Q220.4844,232.3379 220.4844,233.3691 L220.4844,234.4629 Q220.4844,235.6973 221.375,236.5254 Q222.2656,237.3379 223.8594,237.3379 Q224.7969,237.3379 225.4531,237.0879 Q225.8438,236.9316 226.2656,236.4941 Q226.5313,236.2285 226.6719,236.1504 Q226.8281,236.0723 227.0313,236.0723 Q227.3594,236.0723 227.6094,236.3379 Q227.875,236.5879 227.875,236.9316 Q227.875,237.2754 227.5313,237.6816 Q227.0313,238.2598 226.2344,238.5879 Q225.1563,239.041 223.8594,239.041 Q222.3438,239.041 221.1406,238.416 Q220.1563,237.916 219.4688,236.8535 Q218.7813,235.7754 218.7813,234.4941 L218.7813,233.3379 Q218.7813,232.0098 219.3906,230.8691 Q220.0156,229.7129 221.1094,229.1035 Q222.2031,228.4785 223.4375,228.4785 Q224.1719,228.4785 224.8125,228.6504 Q225.4688,228.8066 226.0156,229.166 Z " fill="#000000"/><text fill="#000000" font-family="sans-serif" font-size="12" font-style="italic" lengthAdjust="spacing" textLength="39" x="257.75" y="228.9492">&#171;DTO&#187;</text><text fill="#000000" font-family="sans-serif" font-size="14" lengthAdjust="spacing" textLength="67" x="243.75" y="247.0684">RoomDTO</text><line style="stroke:#181818;stroke-width:0.5;" x1="7" x2="515" y1="255.582" y2="255.582"/><ellipse cx="17" cy="270.3926" fill="none" rx="3" ry="3" style="stroke:#038048;stroke-width:1.0;"/><text fill="#000000" font-family="sans-serif" font-size="14" lengthAdjust="spacing" textLength="121" x="26" y="274.6895">_roomName: String</text><ellipse cx="17" cy="289.0137" fill="none" rx="3" ry="3" style="stroke:#038048;stroke-width:1.0;"/><text fill="#000000" font-family="sans-serif" font-size="14" lengthAdjust="spacing" textLength="118" x="26" y="293.3105">_roomFloor: String</text><ellipse cx="17" cy="307.6348" fill="none" rx="3" ry="3" style="stroke:#038048;stroke-width:1.0;"/><text fill="#000000" font-family="sans-serif" font-size="14" lengthAdjust="spacing" textLength="151" x="26" y="311.9316">_roomDimension: String</text><ellipse cx="17" cy="326.2559" fill="none" rx="3" ry="3" style="stroke:#038048;stroke-width:1.0;"/><text fill="#000000" font-family="sans-serif" font-size="14" lengthAdjust="spacing" textLength="98" x="26" y="330.5527">_roomID: String</text><line style="stroke:#181818;stroke-width:0.5;" x1="7" x2="515" y1="338.0664" y2="338.0664"/><ellipse cx="17" cy="352.877" fill="#84BE84" rx="3" ry="3" style="stroke:#038048;stroke-width:1.0;"/><text fill="#000000" font-family="sans-serif" font-size="14" lengthAdjust="spacing" textLength="484" x="26" y="357.1738">RoomDTO(roomId: String, roomName: String, floor: String, dimension: String)</text></g><!--class Room--><g id="elem_Room"><rect codeLine="40" fill="#F1F1F1" height="265.4141" id="Room" rx="2.5" ry="2.5" style="stroke:#181818;stroke-width:0.5;" width="547" x="429.5" y="563"/><ellipse cx="678.75" cy="585.291" fill="#ADD1B2" rx="11" ry="11" style="stroke:#181818;stroke-width:1.0;"/><path d="M681.5156,581.166 Q681.6719,580.9473 681.8594,580.8379 Q682.0469,580.7285 682.2656,580.7285 Q682.6406,580.7285 682.875,580.9941 Q683.1094,581.2441 683.1094,581.8535 L683.1094,583.3066 Q683.1094,583.916 682.875,584.1816 Q682.6406,584.4473 682.2656,584.4473 Q681.9219,584.4473 681.7188,584.2441 Q681.5156,584.0566 681.4063,583.541 Q681.3594,583.1816 681.1719,582.9941 Q680.8438,582.6191 680.2344,582.4004 Q679.625,582.1816 679,582.1816 Q678.2344,582.1816 677.5938,582.5098 Q676.9688,582.8379 676.4688,583.5879 Q675.9844,584.3379 675.9844,585.3691 L675.9844,586.4629 Q675.9844,587.6973 676.875,588.5254 Q677.7656,589.3379 679.3594,589.3379 Q680.2969,589.3379 680.9531,589.0879 Q681.3438,588.9316 681.7656,588.4941 Q682.0313,588.2285 682.1719,588.1504 Q682.3281,588.0723 682.5313,588.0723 Q682.8594,588.0723 683.1094,588.3379 Q683.375,588.5879 683.375,588.9316 Q683.375,589.2754 683.0313,589.6816 Q682.5313,590.2598 681.7344,590.5879 Q680.6563,591.041 679.3594,591.041 Q677.8438,591.041 676.6406,590.416 Q675.6563,589.916 674.9688,588.8535 Q674.2813,587.7754 674.2813,586.4941 L674.2813,585.3379 Q674.2813,584.0098 674.8906,582.8691 Q675.5156,581.7129 676.6094,581.1035 Q677.7031,580.4785 678.9375,580.4785 Q679.6719,580.4785 680.3125,580.6504 Q680.9688,580.8066 681.5156,581.166 Z " fill="#000000"/><text fill="#000000" font-family="sans-serif" font-size="12" font-style="italic" lengthAdjust="spacing" textLength="44" x="697.25" y="580.9492">&#171;Entity&#187;</text><text fill="#000000" font-family="sans-serif" font-size="14" lengthAdjust="spacing" textLength="37" x="700.75" y="599.0684">Room</text><line style="stroke:#181818;stroke-width:0.5;" x1="430.5" x2="975.5" y1="607.582" y2="607.582"/><rect fill="none" height="6" style="stroke:#C82930;stroke-width:1.0;" width="6" x="437.5" y="619.3926"/><text fill="#000000" font-family="sans-serif" font-size="14" lengthAdjust="spacing" textLength="121" x="449.5" y="626.6895">_houseID: HouseID</text><rect fill="none" height="6" style="stroke:#C82930;stroke-width:1.0;" width="6" x="437.5" y="638.0137"/><text fill="#000000" font-family="sans-serif" font-size="14" lengthAdjust="spacing" textLength="111" x="449.5" y="645.3105">_roomID: RoomID</text><rect fill="none" height="6" style="stroke:#C82930;stroke-width:1.0;" width="6" x="437.5" y="656.6348"/><text fill="#000000" font-family="sans-serif" font-size="14" lengthAdjust="spacing" textLength="157" x="449.5" y="663.9316">_roomName: RoomName</text><rect fill="none" height="6" style="stroke:#C82930;stroke-width:1.0;" width="6" x="437.5" y="675.2559"/><text fill="#000000" font-family="sans-serif" font-size="14" lengthAdjust="spacing" textLength="160" x="449.5" y="682.5527">_dimensions: Dimensions</text><rect fill="none" height="6" style="stroke:#C82930;stroke-width:1.0;" width="6" x="437.5" y="693.877"/><text fill="#000000" font-family="sans-serif" font-size="14" lengthAdjust="spacing" textLength="77" x="449.5" y="701.1738">_floor: Floor</text><line style="stroke:#181818;stroke-width:0.5;" x1="430.5" x2="975.5" y1="708.6875" y2="708.6875"/><ellipse cx="440.5" cy="723.498" fill="#84BE84" rx="3" ry="3" style="stroke:#038048;stroke-width:1.0;"/><text fill="#000000" font-family="sans-serif" font-size="14" lengthAdjust="spacing" textLength="521" x="449.5" y="727.7949">Room(houseID: HouseID, name: RoomName, dimensions: Dimensions, floor: Floor)</text><ellipse cx="440.5" cy="742.1191" fill="#84BE84" rx="3" ry="3" style="stroke:#038048;stroke-width:1.0;"/><text fill="#000000" font-family="sans-serif" font-size="14" lengthAdjust="spacing" textLength="88" x="449.5" y="746.416">getID(): String</text><ellipse cx="440.5" cy="760.7402" fill="#84BE84" rx="3" ry="3" style="stroke:#038048;stroke-width:1.0;"/><text fill="#000000" font-family="sans-serif" font-size="14" lengthAdjust="spacing" textLength="148" x="449.5" y="765.0371">getRoomName(): String</text><ellipse cx="440.5" cy="779.3613" fill="#84BE84" rx="3" ry="3" style="stroke:#038048;stroke-width:1.0;"/><text fill="#000000" font-family="sans-serif" font-size="14" lengthAdjust="spacing" textLength="184" x="449.5" y="783.6582">getDimensions(): Dimensions</text><ellipse cx="440.5" cy="797.9824" fill="#84BE84" rx="3" ry="3" style="stroke:#038048;stroke-width:1.0;"/><text fill="#000000" font-family="sans-serif" font-size="14" lengthAdjust="spacing" textLength="104" x="449.5" y="802.2793">getFloor(): Floor</text><ellipse cx="440.5" cy="816.6035" fill="#84BE84" rx="3" ry="3" style="stroke:#038048;stroke-width:1.0;"/><text fill="#000000" font-family="sans-serif" font-size="14" lengthAdjust="spacing" textLength="144" x="449.5" y="820.9004">getHouseID(): HouseID</text></g><polygon fill="#181818" points="939.4795,201.9818,937.0146,192.4464,936.3699,198.0664,930.7499,197.4217,939.4795,201.9818" style="stroke:#181818;stroke-width:1.0;"/><path d="M896.0196,147.2595 C909.87,164.6992 921.2549,179.0343 935.748,197.2833 " fill="none" style="stroke:#181818;stroke-width:1.0;stroke-dasharray:7.0,7.0;"/><text fill="#000000" font-family="sans-serif" font-size="13" lengthAdjust="spacing" textLength="28" x="926" y="180.0283">uses</text><text fill="#000000" font-family="sans-serif" font-size="13" lengthAdjust="spacing" textLength="7" x="931.4795" y="198.0101">1</text><text fill="#000000" font-family="sans-serif" font-size="13" lengthAdjust="spacing" textLength="7" x="888.0196" y="162.2878">1</text><polygon fill="#181818" points="774.1931,428.9193,783.9676,427.7115,778.4787,426.3436,779.8466,420.8547,774.1931,428.9193" style="stroke:#181818;stroke-width:1.0;"/><path d="M865.4587,374.0678 C833.4859,393.2837 806.2248,409.6679 779.3358,425.8285 " fill="none" style="stroke:#181818;stroke-width:1.0;stroke-dasharray:7.0,7.0;"/><text fill="#000000" font-family="sans-serif" font-size="13" lengthAdjust="spacing" textLength="28" x="833" y="407.0283">uses</text><text fill="#000000" font-family="sans-serif" font-size="13" lengthAdjust="spacing" textLength="7" x="766.1931" y="424.9476">1</text><text fill="#000000" font-family="sans-serif" font-size="13" lengthAdjust="spacing" textLength="7" x="866.4587" y="389.0961">1</text><polygon fill="#181818" points="1116.7648,646.4087,1120.156,637.1621,1116.4316,641.4198,1112.1738,637.6953,1116.7648,646.4087" style="stroke:#181818;stroke-width:1.0;"/><path d="M1057.0602,374.0362 C1065.8336,391.7391 1074.045,410.6154 1080,429 C1103.8312,502.5734 1112.7548,586.3797 1116.3649,640.422 " fill="none" style="stroke:#181818;stroke-width:1.0;stroke-dasharray:7.0,7.0;"/><text fill="#000000" font-family="sans-serif" font-size="13" lengthAdjust="spacing" textLength="28" x="1099" y="474.0283">uses</text><text fill="#000000" font-family="sans-serif" font-size="13" lengthAdjust="spacing" textLength="7" x="1108.7648" y="642.437">1</text><text fill="#000000" font-family="sans-serif" font-size="13" lengthAdjust="spacing" textLength="7" x="1049.0602" y="389.0645">1</text><polygon fill="#181818" points="976.7092,695.5,985.7092,699.5,981.7092,695.5,985.7092,691.5,976.7092,695.5" style="stroke:#181818;stroke-width:1.0;"/><path d="M982.7092,695.5 C996.5758,695.5 1004.0081,695.5 1016.7225,695.5 " fill="none" style="stroke:#181818;stroke-width:1.0;"/><text fill="#000000" font-family="sans-serif" font-size="13" lengthAdjust="spacing" textLength="21" x="986.25" y="688.5283">has</text><text fill="#000000" font-family="sans-serif" font-size="13" lengthAdjust="spacing" textLength="7" x="1008.7225" y="710.5283">1</text><text fill="#000000" font-family="sans-serif" font-size="13" lengthAdjust="spacing" textLength="20" x="977.7092" y="710.5283">1..*</text><polygon fill="#181818" points="462.5119,79.5,471.5119,83.5,467.5119,79.5,471.5119,75.5,462.5119,79.5" style="stroke:#181818;stroke-width:1.0;"/><path d="M468.5119,79.5 C493.6417,79.5 514.7672,79.5 542.5571,79.5 " fill="none" style="stroke:#181818;stroke-width:1.0;stroke-dasharray:7.0,7.0;"/><text fill="#000000" font-family="sans-serif" font-size="13" lengthAdjust="spacing" textLength="28" x="488.75" y="72.5283">uses</text><text fill="#000000" font-family="sans-serif" font-size="13" lengthAdjust="spacing" textLength="7" x="534.5571" y="75.5283">1</text><text fill="#000000" font-family="sans-serif" font-size="13" lengthAdjust="spacing" textLength="7" x="463.5119" y="75.5283">1</text><polygon fill="#181818" points="285.0218,210.6846,291.5395,203.3008,286.523,205.9153,283.9086,200.8988,285.0218,210.6846" style="stroke:#181818;stroke-width:1.0;"/><path d="M313.774,119.3411 C305.6834,145.0441 296.6035,173.8905 286.8233,204.9614 " fill="none" style="stroke:#181818;stroke-width:1.0;stroke-dasharray:7.0,7.0;"/><text fill="#000000" font-family="sans-serif" font-size="13" lengthAdjust="spacing" textLength="43" x="301" y="180.0283">creates</text><text fill="#000000" font-family="sans-serif" font-size="13" lengthAdjust="spacing" textLength="7" x="277.0218" y="206.7129">1</text><text fill="#000000" font-family="sans-serif" font-size="13" lengthAdjust="spacing" textLength="7" x="305.774" y="134.3694">1</text><polygon fill="#181818" points="707.0914,562.9922,711.3693,554.121,707.2468,557.9947,703.3732,553.8722,707.0914,562.9922" style="stroke:#181818;stroke-width:1.0;"/><path d="M708.7967,508.1789 C708.308,523.8846 707.8991,537.0301 707.2779,556.9952 " fill="none" style="stroke:#181818;stroke-width:1.0;stroke-dasharray:7.0,7.0;"/><text fill="#000000" font-family="sans-serif" font-size="13" lengthAdjust="spacing" textLength="43" x="710" y="541.0283">creates</text><text fill="#000000" font-family="sans-serif" font-size="13" lengthAdjust="spacing" textLength="7" x="699.0914" y="559.0206">1</text><text fill="#000000" font-family="sans-serif" font-size="13" lengthAdjust="spacing" textLength="7" x="700.7967" y="523.2072">1</text><!--SRC=[jLHDRzmW4BtpAwOvxTRUbNgrB4jHtMhtaahEtYkw9ZQI3Ij34aLL_tl10mOSHptrOW_pyNWp3_XqcsWtKXZectpMe4QcgQ24N0Ug5DotRIFb-5KAFSbXO5DP1hkgu3SvmC_9P3oowOLVMG5DMFZOlL9i_6KACBeiIURWB_8adnKBoBi81IBuF0M017s_uErw2tUk2tZK4nTT3eAEBAouqF0qI3cX-SfRtQCvCD5vksUyw_M-i8ZrvGVvuuSIaojBPrNLCek6tQJYMavls71O-uplz1h2Rl7FQPdut5SCVqeT98kuxLPSKYevn4GY7dawrI8XaSEQmeg14O7-3n5WKuMmhn4YB9mM8xsLDkjSv_PNpOsHJD4Nd0s2EkmKsCt2e3hBGcRNYL7DqkPEQE3K7kOE6sVbqFAH2SMbAA3sfXkyxTpfRqqyPYc9SCxBSh5d8gqSAHSNQGQ2dM0ZcpCo3bDlldCbdh67I0dlSunIPnqQI0D1Lpnpdicv3GglTyfHxx1ir-ZxbBhX_KrehhsWww7xAsDTABJtf49OxxANYhHGDk98pVrZCnlgYe-KJU2M3b5JadLCd-lTFipAE3p8oXrGR22YQ8CpdlKxbiRbg5cd7uSP7ddtOiFTbpiujl9L7AlPRkBdsXGg4ZzeMzdBSxMTFTah6gN73zHI4LrLctSOs9C-s9hZyJEM5T1JzH5_cnvj4JsIomxXkcprO0ve0NY1CTrVyQtaa4d-0W00]--></g></svg>