<?xml version="1.0" encoding="us-ascii" standalone="no"?><svg xmlns="http://www.w3.org/2000/svg" xmlns:xlink="http://www.w3.org/1999/xlink" contentStyleType="text/css" height="1441px" preserveAspectRatio="none" style="width:1339px;height:1441px;background:#FFFFFF;" version="1.1" viewBox="0 0 1339 1441" width="1339px" zoomAndPan="magnify"><defs/><g><!--class AddRoomToHouseController--><g id="elem_AddRoomToHouseController"><rect codeLine="3" fill="#F1F1F1" height="122.4844" id="AddRoomToHouseController" rx="2.5" ry="2.5" style="stroke:#181818;stroke-width:0.5;" width="679" x="479" y="7"/><ellipse cx="723.75" cy="23" fill="#ADD1B2" rx="11" ry="11" style="stroke:#181818;stroke-width:1.0;"/><path d="M726.5156,18.875 Q726.6719,18.6563 726.8594,18.5469 Q727.0469,18.4375 727.2656,18.4375 Q727.6406,18.4375 727.875,18.7031 Q728.1094,18.9531 728.1094,19.5625 L728.1094,21.0156 Q728.1094,21.625 727.875,21.8906 Q727.6406,22.1563 727.2656,22.1563 Q726.9219,22.1563 726.7188,21.9531 Q726.5156,21.7656 726.4063,21.25 Q726.3594,20.8906 726.1719,20.7031 Q725.8438,20.3281 725.2344,20.1094 Q724.625,19.8906 724,19.8906 Q723.2344,19.8906 722.5938,20.2188 Q721.9688,20.5469 721.4688,21.2969 Q720.9844,22.0469 720.9844,23.0781 L720.9844,24.1719 Q720.9844,25.4063 721.875,26.2344 Q722.7656,27.0469 724.3594,27.0469 Q725.2969,27.0469 725.9531,26.7969 Q726.3438,26.6406 726.7656,26.2031 Q727.0313,25.9375 727.1719,25.8594 Q727.3281,25.7813 727.5313,25.7813 Q727.8594,25.7813 728.1094,26.0469 Q728.375,26.2969 728.375,26.6406 Q728.375,26.9844 728.0313,27.3906 Q727.5313,27.9688 726.7344,28.2969 Q725.6563,28.75 724.3594,28.75 Q722.8438,28.75 721.6406,28.125 Q720.6563,27.625 719.9688,26.5625 Q719.2813,25.4844 719.2813,24.2031 L719.2813,23.0469 Q719.2813,21.7188 719.8906,20.5781 Q720.5156,19.4219 721.6094,18.8125 Q722.7031,18.1875 723.9375,18.1875 Q724.6719,18.1875 725.3125,18.3594 Q725.9688,18.5156 726.5156,18.875 Z " fill="#000000"/><text fill="#000000" font-family="sans-serif" font-size="14" lengthAdjust="spacing" textLength="181" x="744.25" y="28.7969">AddRoomToHouseController</text><line style="stroke:#181818;stroke-width:0.5;" x1="480" x2="1157" y1="39" y2="39"/><rect fill="none" height="6" style="stroke:#C82930;stroke-width:1.0;" width="6" x="487" y="50.8105"/><text fill="#000000" font-family="sans-serif" font-size="14" lengthAdjust="spacing" textLength="87" x="499" y="58.1074">house: House</text><line style="stroke:#181818;stroke-width:0.5;" x1="480" x2="1157" y1="65.6211" y2="65.6211"/><ellipse cx="490" cy="80.4316" fill="#84BE84" rx="3" ry="3" style="stroke:#038048;stroke-width:1.0;"/><text fill="#000000" font-family="sans-serif" font-size="14" lengthAdjust="spacing" textLength="219" x="499" y="84.7285">addRoomToHouse(house : House)</text><rect fill="#F24D5C" height="6" style="stroke:#C82930;stroke-width:1.0;" width="6" x="487" y="96.0527"/><text fill="#000000" font-family="sans-serif" font-size="14" lengthAdjust="spacing" textLength="343" x="499" y="103.3496">isValidConstructorArguments(house : House): boolean</text><ellipse cx="490" cy="117.6738" fill="#84BE84" rx="3" ry="3" style="stroke:#038048;stroke-width:1.0;"/><text fill="#000000" font-family="sans-serif" font-size="14" lengthAdjust="spacing" textLength="653" x="499" y="121.9707">addRoomToHouse(name : String, floor : int, width : double, lenght : double, height : double) : RoomDTO</text></g><!--class House--><g id="elem_House"><rect codeLine="13" fill="#F1F1F1" height="178.3477" id="House" rx="2.5" ry="2.5" style="stroke:#181818;stroke-width:0.5;" width="592" x="241.5" y="208"/><ellipse cx="513.25" cy="224" fill="#ADD1B2" rx="11" ry="11" style="stroke:#181818;stroke-width:1.0;"/><path d="M516.0156,219.875 Q516.1719,219.6563 516.3594,219.5469 Q516.5469,219.4375 516.7656,219.4375 Q517.1406,219.4375 517.375,219.7031 Q517.6094,219.9531 517.6094,220.5625 L517.6094,222.0156 Q517.6094,222.625 517.375,222.8906 Q517.1406,223.1563 516.7656,223.1563 Q516.4219,223.1563 516.2188,222.9531 Q516.0156,222.7656 515.9063,222.25 Q515.8594,221.8906 515.6719,221.7031 Q515.3438,221.3281 514.7344,221.1094 Q514.125,220.8906 513.5,220.8906 Q512.7344,220.8906 512.0938,221.2188 Q511.4688,221.5469 510.9688,222.2969 Q510.4844,223.0469 510.4844,224.0781 L510.4844,225.1719 Q510.4844,226.4063 511.375,227.2344 Q512.2656,228.0469 513.8594,228.0469 Q514.7969,228.0469 515.4531,227.7969 Q515.8438,227.6406 516.2656,227.2031 Q516.5313,226.9375 516.6719,226.8594 Q516.8281,226.7813 517.0313,226.7813 Q517.3594,226.7813 517.6094,227.0469 Q517.875,227.2969 517.875,227.6406 Q517.875,227.9844 517.5313,228.3906 Q517.0313,228.9688 516.2344,229.2969 Q515.1563,229.75 513.8594,229.75 Q512.3438,229.75 511.1406,229.125 Q510.1563,228.625 509.4688,227.5625 Q508.7813,226.4844 508.7813,225.2031 L508.7813,224.0469 Q508.7813,222.7188 509.3906,221.5781 Q510.0156,220.4219 511.1094,219.8125 Q512.2031,219.1875 513.4375,219.1875 Q514.1719,219.1875 514.8125,219.3594 Q515.4688,219.5156 516.0156,219.875 Z " fill="#000000"/><text fill="#000000" font-family="sans-serif" font-size="14" lengthAdjust="spacing" textLength="40" x="533.75" y="229.7969">House</text><line style="stroke:#181818;stroke-width:0.5;" x1="242.5" x2="832.5" y1="240" y2="240"/><rect fill="none" height="6" style="stroke:#C82930;stroke-width:1.0;" width="6" x="249.5" y="251.8105"/><text fill="#000000" font-family="sans-serif" font-size="14" lengthAdjust="spacing" textLength="215" x="261.5" y="259.1074">_locationFactory: LocationFactory</text><rect fill="none" height="6" style="stroke:#C82930;stroke-width:1.0;" width="6" x="249.5" y="270.4316"/><text fill="#000000" font-family="sans-serif" font-size="14" lengthAdjust="spacing" textLength="181" x="261.5" y="277.7285">_roomFactory: RoomFactory</text><rect fill="none" height="6" style="stroke:#C82930;stroke-width:1.0;" width="6" x="249.5" y="289.0527"/><text fill="#000000" font-family="sans-serif" font-size="14" lengthAdjust="spacing" textLength="123" x="261.5" y="296.3496">_location : Location</text><rect fill="none" height="6" style="stroke:#C82930;stroke-width:1.0;" width="6" x="249.5" y="307.6738"/><text fill="#000000" font-family="sans-serif" font-size="14" lengthAdjust="spacing" textLength="130" x="261.5" y="314.9707">_rooms: List&lt;Room&gt;</text><line style="stroke:#181818;stroke-width:0.5;" x1="242.5" x2="832.5" y1="322.4844" y2="322.4844"/><ellipse cx="252.5" cy="337.2949" fill="#84BE84" rx="3" ry="3" style="stroke:#038048;stroke-width:1.0;"/><text fill="#000000" font-family="sans-serif" font-size="14" lengthAdjust="spacing" textLength="446" x="261.5" y="341.5918">House(locationFactory : LocationFactory, roomFactory : RoomFactory)</text><ellipse cx="252.5" cy="355.916" fill="#84BE84" rx="3" ry="3" style="stroke:#038048;stroke-width:1.0;"/><text fill="#000000" font-family="sans-serif" font-size="14" lengthAdjust="spacing" textLength="566" x="261.5" y="360.2129">addRoom(name : String, floor : int, width : double, lenght : double, height : double) : Room</text><ellipse cx="252.5" cy="374.5371" fill="#84BE84" rx="3" ry="3" style="stroke:#038048;stroke-width:1.0;"/><text fill="#000000" font-family="sans-serif" font-size="14" lengthAdjust="spacing" textLength="186" x="261.5" y="378.834">addRoomtoList(room : Room)</text></g><!--class Room--><g id="elem_Room"><rect codeLine="27" fill="#F1F1F1" height="290.0742" id="Room" rx="2.5" ry="2.5" style="stroke:#181818;stroke-width:0.5;" width="677" x="9" y="685"/><ellipse cx="324.75" cy="701" fill="#ADD1B2" rx="11" ry="11" style="stroke:#181818;stroke-width:1.0;"/><path d="M327.5156,696.875 Q327.6719,696.6563 327.8594,696.5469 Q328.0469,696.4375 328.2656,696.4375 Q328.6406,696.4375 328.875,696.7031 Q329.1094,696.9531 329.1094,697.5625 L329.1094,699.0156 Q329.1094,699.625 328.875,699.8906 Q328.6406,700.1563 328.2656,700.1563 Q327.9219,700.1563 327.7188,699.9531 Q327.5156,699.7656 327.4063,699.25 Q327.3594,698.8906 327.1719,698.7031 Q326.8438,698.3281 326.2344,698.1094 Q325.625,697.8906 325,697.8906 Q324.2344,697.8906 323.5938,698.2188 Q322.9688,698.5469 322.4688,699.2969 Q321.9844,700.0469 321.9844,701.0781 L321.9844,702.1719 Q321.9844,703.4063 322.875,704.2344 Q323.7656,705.0469 325.3594,705.0469 Q326.2969,705.0469 326.9531,704.7969 Q327.3438,704.6406 327.7656,704.2031 Q328.0313,703.9375 328.1719,703.8594 Q328.3281,703.7813 328.5313,703.7813 Q328.8594,703.7813 329.1094,704.0469 Q329.375,704.2969 329.375,704.6406 Q329.375,704.9844 329.0313,705.3906 Q328.5313,705.9688 327.7344,706.2969 Q326.6563,706.75 325.3594,706.75 Q323.8438,706.75 322.6406,706.125 Q321.6563,705.625 320.9688,704.5625 Q320.2813,703.4844 320.2813,702.2031 L320.2813,701.0469 Q320.2813,699.7188 320.8906,698.5781 Q321.5156,697.4219 322.6094,696.8125 Q323.7031,696.1875 324.9375,696.1875 Q325.6719,696.1875 326.3125,696.3594 Q326.9688,696.5156 327.5156,696.875 Z " fill="#000000"/><text fill="#000000" font-family="sans-serif" font-size="14" lengthAdjust="spacing" textLength="37" x="345.25" y="706.7969">Room</text><line style="stroke:#181818;stroke-width:0.5;" x1="10" x2="685" y1="717" y2="717"/><rect fill="none" height="6" style="stroke:#C82930;stroke-width:1.0;" width="6" x="17" y="728.8105"/><text fill="#000000" font-family="sans-serif" font-size="14" lengthAdjust="spacing" textLength="92" x="29" y="736.1074">_name : String</text><rect fill="none" height="6" style="stroke:#C82930;stroke-width:1.0;" width="6" x="17" y="747.4316"/><text fill="#000000" font-family="sans-serif" font-size="14" lengthAdjust="spacing" textLength="63" x="29" y="754.7285">_floor : int</text><rect fill="none" height="6" style="stroke:#C82930;stroke-width:1.0;" width="6" x="17" y="766.0527"/><text fill="#000000" font-family="sans-serif" font-size="14" lengthAdjust="spacing" textLength="260" x="29" y="773.3496">_dimensionsFactory : DimensionsFactory</text><rect fill="none" height="6" style="stroke:#C82930;stroke-width:1.0;" width="6" x="17" y="784.6738"/><text fill="#000000" font-family="sans-serif" font-size="14" lengthAdjust="spacing" textLength="164" x="29" y="791.9707">_dimensions : Dimensions</text><rect fill="none" height="6" style="stroke:#C82930;stroke-width:1.0;" width="6" x="17" y="803.2949"/><text fill="#000000" font-family="sans-serif" font-size="14" lengthAdjust="spacing" textLength="94" x="29" y="810.5918">_roomId : UUID</text><rect fill="none" height="6" style="stroke:#C82930;stroke-width:1.0;" width="6" x="17" y="821.916"/><text fill="#000000" font-family="sans-serif" font-size="14" lengthAdjust="spacing" textLength="164" x="29" y="829.2129">_deviceList : List&lt;Device&gt;</text><line style="stroke:#181818;stroke-width:0.5;" x1="10" x2="685" y1="836.7266" y2="836.7266"/><polygon fill="#FFFF44" points="20,846.5371,24,850.5371,20,854.5371,16,850.5371" style="stroke:#B38D22;stroke-width:1.0;"/><text fill="#000000" font-family="sans-serif" font-size="14" lengthAdjust="spacing" textLength="651" x="29" y="855.834">Room(name : String, floor : int, width : double, length : double, dimensionsFactory : DimensionsFactory)</text><rect fill="#F24D5C" height="6" style="stroke:#C82930;stroke-width:1.0;" width="6" x="17" y="867.1582"/><text fill="#000000" font-family="sans-serif" font-size="14" lengthAdjust="spacing" textLength="407" x="29" y="874.4551">setDimensions(double width, double length, double height) : void</text><rect fill="#F24D5C" height="6" style="stroke:#C82930;stroke-width:1.0;" width="6" x="17" y="885.7793"/><text fill="#000000" font-family="sans-serif" font-size="14" lengthAdjust="spacing" textLength="179" x="29" y="893.0762">setName(String name) : void</text><rect fill="#F24D5C" height="6" style="stroke:#C82930;stroke-width:1.0;" width="6" x="17" y="904.4004"/><text fill="#000000" font-family="sans-serif" font-size="14" lengthAdjust="spacing" textLength="147" x="29" y="911.6973">setFloor(int floor) : void</text><rect fill="#F24D5C" height="6" style="stroke:#C82930;stroke-width:1.0;" width="6" x="17" y="923.0215"/><text fill="#000000" font-family="sans-serif" font-size="14" lengthAdjust="spacing" textLength="115" x="29" y="930.3184">getName() : String</text><rect fill="#F24D5C" height="6" style="stroke:#C82930;stroke-width:1.0;" width="6" x="17" y="941.6426"/><text fill="#000000" font-family="sans-serif" font-size="14" lengthAdjust="spacing" textLength="188" x="29" y="948.9395">getDimensions() : Dimensions</text><rect fill="#F24D5C" height="6" style="stroke:#C82930;stroke-width:1.0;" width="6" x="17" y="960.2637"/><text fill="#000000" font-family="sans-serif" font-size="14" lengthAdjust="spacing" textLength="90" x="29" y="967.5605">getFloor() : int</text></g><!--class RoomFactory--><g id="elem_RoomFactory"><rect codeLine="46" fill="#F1F1F1" height="66.6211" id="RoomFactory" rx="2.5" ry="2.5" style="stroke:#181818;stroke-width:0.5;" width="506" x="419.5" y="502"/><ellipse cx="625.75" cy="518" fill="#ADD1B2" rx="11" ry="11" style="stroke:#181818;stroke-width:1.0;"/><path d="M628.5156,513.875 Q628.6719,513.6563 628.8594,513.5469 Q629.0469,513.4375 629.2656,513.4375 Q629.6406,513.4375 629.875,513.7031 Q630.1094,513.9531 630.1094,514.5625 L630.1094,516.0156 Q630.1094,516.625 629.875,516.8906 Q629.6406,517.1563 629.2656,517.1563 Q628.9219,517.1563 628.7188,516.9531 Q628.5156,516.7656 628.4063,516.25 Q628.3594,515.8906 628.1719,515.7031 Q627.8438,515.3281 627.2344,515.1094 Q626.625,514.8906 626,514.8906 Q625.2344,514.8906 624.5938,515.2188 Q623.9688,515.5469 623.4688,516.2969 Q622.9844,517.0469 622.9844,518.0781 L622.9844,519.1719 Q622.9844,520.4063 623.875,521.2344 Q624.7656,522.0469 626.3594,522.0469 Q627.2969,522.0469 627.9531,521.7969 Q628.3438,521.6406 628.7656,521.2031 Q629.0313,520.9375 629.1719,520.8594 Q629.3281,520.7813 629.5313,520.7813 Q629.8594,520.7813 630.1094,521.0469 Q630.375,521.2969 630.375,521.6406 Q630.375,521.9844 630.0313,522.3906 Q629.5313,522.9688 628.7344,523.2969 Q627.6563,523.75 626.3594,523.75 Q624.8438,523.75 623.6406,523.125 Q622.6563,522.625 621.9688,521.5625 Q621.2813,520.4844 621.2813,519.2031 L621.2813,518.0469 Q621.2813,516.7188 621.8906,515.5781 Q622.5156,514.4219 623.6094,513.8125 Q624.7031,513.1875 625.9375,513.1875 Q626.6719,513.1875 627.3125,513.3594 Q627.9688,513.5156 628.5156,513.875 Z " fill="#000000"/><text fill="#000000" font-family="sans-serif" font-size="14" lengthAdjust="spacing" textLength="85" x="646.25" y="523.7969">RoomFactory</text><line style="stroke:#181818;stroke-width:0.5;" x1="420.5" x2="924.5" y1="534" y2="534"/><line style="stroke:#181818;stroke-width:0.5;" x1="420.5" x2="924.5" y1="542" y2="542"/><ellipse cx="430.5" cy="556.8105" fill="#84BE84" rx="3" ry="3" style="stroke:#038048;stroke-width:1.0;"/><text fill="#000000" font-family="sans-serif" font-size="14" lengthAdjust="spacing" textLength="480" x="439.5" y="561.1074">createRoom(name : String, floor : int, width : double, length : double) : Room</text></g><!--class Dimensions--><g id="elem_Dimensions"><rect codeLine="52" fill="#F1F1F1" height="234.2109" id="Dimensions" rx="2.5" ry="2.5" style="stroke:#181818;stroke-width:0.5;" width="151" x="476" y="1200"/><ellipse cx="511.7" cy="1216" fill="#ADD1B2" rx="11" ry="11" style="stroke:#181818;stroke-width:1.0;"/><path d="M514.4656,1211.875 Q514.6219,1211.6563 514.8094,1211.5469 Q514.9969,1211.4375 515.2156,1211.4375 Q515.5906,1211.4375 515.825,1211.7031 Q516.0594,1211.9531 516.0594,1212.5625 L516.0594,1214.0156 Q516.0594,1214.625 515.825,1214.8906 Q515.5906,1215.1563 515.2156,1215.1563 Q514.8719,1215.1563 514.6688,1214.9531 Q514.4656,1214.7656 514.3563,1214.25 Q514.3094,1213.8906 514.1219,1213.7031 Q513.7938,1213.3281 513.1844,1213.1094 Q512.575,1212.8906 511.95,1212.8906 Q511.1844,1212.8906 510.5438,1213.2188 Q509.9188,1213.5469 509.4188,1214.2969 Q508.9344,1215.0469 508.9344,1216.0781 L508.9344,1217.1719 Q508.9344,1218.4063 509.825,1219.2344 Q510.7156,1220.0469 512.3094,1220.0469 Q513.2469,1220.0469 513.9031,1219.7969 Q514.2938,1219.6406 514.7156,1219.2031 Q514.9813,1218.9375 515.1219,1218.8594 Q515.2781,1218.7813 515.4813,1218.7813 Q515.8094,1218.7813 516.0594,1219.0469 Q516.325,1219.2969 516.325,1219.6406 Q516.325,1219.9844 515.9813,1220.3906 Q515.4813,1220.9688 514.6844,1221.2969 Q513.6063,1221.75 512.3094,1221.75 Q510.7938,1221.75 509.5906,1221.125 Q508.6063,1220.625 507.9188,1219.5625 Q507.2313,1218.4844 507.2313,1217.2031 L507.2313,1216.0469 Q507.2313,1214.7188 507.8406,1213.5781 Q508.4656,1212.4219 509.5594,1211.8125 Q510.6531,1211.1875 511.8875,1211.1875 Q512.6219,1211.1875 513.2625,1211.3594 Q513.9188,1211.5156 514.4656,1211.875 Z " fill="#000000"/><text fill="#000000" font-family="sans-serif" font-size="14" lengthAdjust="spacing" textLength="73" x="530.3" y="1221.7969">Dimensions</text><line style="stroke:#181818;stroke-width:0.5;" x1="477" x2="626" y1="1232" y2="1232"/><rect fill="none" height="6" style="stroke:#C82930;stroke-width:1.0;" width="6" x="484" y="1243.8105"/><text fill="#000000" font-family="sans-serif" font-size="14" lengthAdjust="spacing" textLength="91" x="496" y="1251.1074">_width: double</text><rect fill="none" height="6" style="stroke:#C82930;stroke-width:1.0;" width="6" x="484" y="1262.4316"/><text fill="#000000" font-family="sans-serif" font-size="14" lengthAdjust="spacing" textLength="98" x="496" y="1269.7285">_lenght: double</text><rect fill="none" height="6" style="stroke:#C82930;stroke-width:1.0;" width="6" x="484" y="1281.0527"/><text fill="#000000" font-family="sans-serif" font-size="14" lengthAdjust="spacing" textLength="98" x="496" y="1288.3496">_height: double</text><line style="stroke:#181818;stroke-width:0.5;" x1="477" x2="626" y1="1295.8633" y2="1295.8633"/><rect fill="#F24D5C" height="6" style="stroke:#C82930;stroke-width:1.0;" width="6" x="484" y="1307.6738"/><text fill="#000000" font-family="sans-serif" font-size="14" lengthAdjust="spacing" textLength="103" x="496" y="1314.9707">setHeight(): void</text><rect fill="#F24D5C" height="6" style="stroke:#C82930;stroke-width:1.0;" width="6" x="484" y="1326.2949"/><text fill="#000000" font-family="sans-serif" font-size="14" lengthAdjust="spacing" textLength="107" x="496" y="1333.5918">setLenght(): void</text><rect fill="#F24D5C" height="6" style="stroke:#C82930;stroke-width:1.0;" width="6" x="484" y="1344.916"/><text fill="#000000" font-family="sans-serif" font-size="14" lengthAdjust="spacing" textLength="99" x="496" y="1352.2129">setWidth(): void</text><ellipse cx="487" cy="1366.5371" fill="#84BE84" rx="3" ry="3" style="stroke:#038048;stroke-width:1.0;"/><text fill="#000000" font-family="sans-serif" font-size="14" lengthAdjust="spacing" textLength="121" x="496" y="1370.834">getHeigth(): double</text><ellipse cx="487" cy="1385.1582" fill="#84BE84" rx="3" ry="3" style="stroke:#038048;stroke-width:1.0;"/><text fill="#000000" font-family="sans-serif" font-size="14" lengthAdjust="spacing" textLength="125" x="496" y="1389.4551">getLenght(): double</text><ellipse cx="487" cy="1403.7793" fill="#84BE84" rx="3" ry="3" style="stroke:#038048;stroke-width:1.0;"/><text fill="#000000" font-family="sans-serif" font-size="14" lengthAdjust="spacing" textLength="117" x="496" y="1408.0762">getWidth(): double</text><ellipse cx="487" cy="1422.4004" fill="#84BE84" rx="3" ry="3" style="stroke:#038048;stroke-width:1.0;"/><text fill="#000000" font-family="sans-serif" font-size="14" lengthAdjust="spacing" textLength="104" x="496" y="1426.6973">toString(): String</text></g><!--class DimensionsFactory--><g id="elem_DimensionsFactory"><rect codeLine="68" fill="#F1F1F1" height="66.6211" id="DimensionsFactory" rx="2.5" ry="2.5" style="stroke:#181818;stroke-width:0.5;" width="525" x="289" y="1054"/><ellipse cx="486.75" cy="1070" fill="#ADD1B2" rx="11" ry="11" style="stroke:#181818;stroke-width:1.0;"/><path d="M489.5156,1065.875 Q489.6719,1065.6563 489.8594,1065.5469 Q490.0469,1065.4375 490.2656,1065.4375 Q490.6406,1065.4375 490.875,1065.7031 Q491.1094,1065.9531 491.1094,1066.5625 L491.1094,1068.0156 Q491.1094,1068.625 490.875,1068.8906 Q490.6406,1069.1563 490.2656,1069.1563 Q489.9219,1069.1563 489.7188,1068.9531 Q489.5156,1068.7656 489.4063,1068.25 Q489.3594,1067.8906 489.1719,1067.7031 Q488.8438,1067.3281 488.2344,1067.1094 Q487.625,1066.8906 487,1066.8906 Q486.2344,1066.8906 485.5938,1067.2188 Q484.9688,1067.5469 484.4688,1068.2969 Q483.9844,1069.0469 483.9844,1070.0781 L483.9844,1071.1719 Q483.9844,1072.4063 484.875,1073.2344 Q485.7656,1074.0469 487.3594,1074.0469 Q488.2969,1074.0469 488.9531,1073.7969 Q489.3438,1073.6406 489.7656,1073.2031 Q490.0313,1072.9375 490.1719,1072.8594 Q490.3281,1072.7813 490.5313,1072.7813 Q490.8594,1072.7813 491.1094,1073.0469 Q491.375,1073.2969 491.375,1073.6406 Q491.375,1073.9844 491.0313,1074.3906 Q490.5313,1074.9688 489.7344,1075.2969 Q488.6563,1075.75 487.3594,1075.75 Q485.8438,1075.75 484.6406,1075.125 Q483.6563,1074.625 482.9688,1073.5625 Q482.2813,1072.4844 482.2813,1071.2031 L482.2813,1070.0469 Q482.2813,1068.7188 482.8906,1067.5781 Q483.5156,1066.4219 484.6094,1065.8125 Q485.7031,1065.1875 486.9375,1065.1875 Q487.6719,1065.1875 488.3125,1065.3594 Q488.9688,1065.5156 489.5156,1065.875 Z " fill="#000000"/><text fill="#000000" font-family="sans-serif" font-size="14" lengthAdjust="spacing" textLength="121" x="507.25" y="1075.7969">DimensionsFactory</text><line style="stroke:#181818;stroke-width:0.5;" x1="290" x2="813" y1="1086" y2="1086"/><line style="stroke:#181818;stroke-width:0.5;" x1="290" x2="813" y1="1094" y2="1094"/><ellipse cx="300" cy="1108.8105" fill="#84BE84" rx="3" ry="3" style="stroke:#038048;stroke-width:1.0;"/><text fill="#000000" font-family="sans-serif" font-size="14" lengthAdjust="spacing" textLength="499" x="309" y="1113.1074">createDimensions(width : double, lenght : double, height : double) : Dimensions</text></g><!--class RoomAssembler--><g id="elem_RoomAssembler"><rect codeLine="73" fill="#F1F1F1" height="103.8633" id="RoomAssembler" rx="2.5" ry="2.5" style="stroke:#181818;stroke-width:0.5;" width="463" x="869" y="245"/><ellipse cx="1044.75" cy="261" fill="#ADD1B2" rx="11" ry="11" style="stroke:#181818;stroke-width:1.0;"/><path d="M1047.5156,256.875 Q1047.6719,256.6563 1047.8594,256.5469 Q1048.0469,256.4375 1048.2656,256.4375 Q1048.6406,256.4375 1048.875,256.7031 Q1049.1094,256.9531 1049.1094,257.5625 L1049.1094,259.0156 Q1049.1094,259.625 1048.875,259.8906 Q1048.6406,260.1563 1048.2656,260.1563 Q1047.9219,260.1563 1047.7188,259.9531 Q1047.5156,259.7656 1047.4063,259.25 Q1047.3594,258.8906 1047.1719,258.7031 Q1046.8438,258.3281 1046.2344,258.1094 Q1045.625,257.8906 1045,257.8906 Q1044.2344,257.8906 1043.5938,258.2188 Q1042.9688,258.5469 1042.4688,259.2969 Q1041.9844,260.0469 1041.9844,261.0781 L1041.9844,262.1719 Q1041.9844,263.4063 1042.875,264.2344 Q1043.7656,265.0469 1045.3594,265.0469 Q1046.2969,265.0469 1046.9531,264.7969 Q1047.3438,264.6406 1047.7656,264.2031 Q1048.0313,263.9375 1048.1719,263.8594 Q1048.3281,263.7813 1048.5313,263.7813 Q1048.8594,263.7813 1049.1094,264.0469 Q1049.375,264.2969 1049.375,264.6406 Q1049.375,264.9844 1049.0313,265.3906 Q1048.5313,265.9688 1047.7344,266.2969 Q1046.6563,266.75 1045.3594,266.75 Q1043.8438,266.75 1042.6406,266.125 Q1041.6563,265.625 1040.9688,264.5625 Q1040.2813,263.4844 1040.2813,262.2031 L1040.2813,261.0469 Q1040.2813,259.7188 1040.8906,258.5781 Q1041.5156,257.4219 1042.6094,256.8125 Q1043.7031,256.1875 1044.9375,256.1875 Q1045.6719,256.1875 1046.3125,256.3594 Q1046.9688,256.5156 1047.5156,256.875 Z " fill="#000000"/><text fill="#000000" font-family="sans-serif" font-size="14" lengthAdjust="spacing" textLength="103" x="1065.25" y="266.7969">RoomAssembler</text><line style="stroke:#181818;stroke-width:0.5;" x1="870" x2="1331" y1="277" y2="277"/><line style="stroke:#181818;stroke-width:0.5;" x1="870" x2="1331" y1="285" y2="285"/><ellipse cx="880" cy="299.8105" fill="#84BE84" rx="3" ry="3" style="stroke:#038048;stroke-width:1.0;"/><text fill="#000000" font-family="sans-serif" font-size="14" lengthAdjust="spacing" textLength="307" x="889" y="304.1074">&#171;static&#187; domain2DTO(room : Room) : RoomDTO</text><ellipse cx="880" cy="318.4316" fill="#84BE84" rx="3" ry="3" style="stroke:#038048;stroke-width:1.0;"/><text fill="#000000" font-family="sans-serif" font-size="14" lengthAdjust="spacing" textLength="390" x="889" y="322.7285">&#171;static&#187; domain2DTO(rooms : List&lt;Room&gt;) : List&lt;RoomDTO&gt;</text><ellipse cx="880" cy="337.0527" fill="#84BE84" rx="3" ry="3" style="stroke:#038048;stroke-width:1.0;"/><text fill="#000000" font-family="sans-serif" font-size="14" lengthAdjust="spacing" textLength="437" x="889" y="341.3496">&#171;static&#187; domain2Map(rooms : List&lt;Room&gt;) : Map&lt;RoomDTO, Room&gt;</text></g><!--class RoomDTO--><g id="elem_RoomDTO"><rect codeLine="80" fill="#F1F1F1" height="141.1055" id="RoomDTO" rx="2.5" ry="2.5" style="stroke:#181818;stroke-width:0.5;" width="190" x="1005.5" y="465"/><ellipse cx="1062.75" cy="481" fill="#ADD1B2" rx="11" ry="11" style="stroke:#181818;stroke-width:1.0;"/><path d="M1065.5156,476.875 Q1065.6719,476.6563 1065.8594,476.5469 Q1066.0469,476.4375 1066.2656,476.4375 Q1066.6406,476.4375 1066.875,476.7031 Q1067.1094,476.9531 1067.1094,477.5625 L1067.1094,479.0156 Q1067.1094,479.625 1066.875,479.8906 Q1066.6406,480.1563 1066.2656,480.1563 Q1065.9219,480.1563 1065.7188,479.9531 Q1065.5156,479.7656 1065.4063,479.25 Q1065.3594,478.8906 1065.1719,478.7031 Q1064.8438,478.3281 1064.2344,478.1094 Q1063.625,477.8906 1063,477.8906 Q1062.2344,477.8906 1061.5938,478.2188 Q1060.9688,478.5469 1060.4688,479.2969 Q1059.9844,480.0469 1059.9844,481.0781 L1059.9844,482.1719 Q1059.9844,483.4063 1060.875,484.2344 Q1061.7656,485.0469 1063.3594,485.0469 Q1064.2969,485.0469 1064.9531,484.7969 Q1065.3438,484.6406 1065.7656,484.2031 Q1066.0313,483.9375 1066.1719,483.8594 Q1066.3281,483.7813 1066.5313,483.7813 Q1066.8594,483.7813 1067.1094,484.0469 Q1067.375,484.2969 1067.375,484.6406 Q1067.375,484.9844 1067.0313,485.3906 Q1066.5313,485.9688 1065.7344,486.2969 Q1064.6563,486.75 1063.3594,486.75 Q1061.8438,486.75 1060.6406,486.125 Q1059.6563,485.625 1058.9688,484.5625 Q1058.2813,483.4844 1058.2813,482.2031 L1058.2813,481.0469 Q1058.2813,479.7188 1058.8906,478.5781 Q1059.5156,477.4219 1060.6094,476.8125 Q1061.7031,476.1875 1062.9375,476.1875 Q1063.6719,476.1875 1064.3125,476.3594 Q1064.9688,476.5156 1065.5156,476.875 Z " fill="#000000"/><text fill="#000000" font-family="sans-serif" font-size="14" lengthAdjust="spacing" textLength="67" x="1083.25" y="486.7969">RoomDTO</text><line style="stroke:#181818;stroke-width:0.5;" x1="1006.5" x2="1194.5" y1="497" y2="497"/><ellipse cx="1016.5" cy="511.8105" fill="none" rx="3" ry="3" style="stroke:#038048;stroke-width:1.0;"/><text fill="#000000" font-family="sans-serif" font-size="14" lengthAdjust="spacing" textLength="92" x="1025.5" y="516.1074">_name : String</text><ellipse cx="1016.5" cy="530.4316" fill="none" rx="3" ry="3" style="stroke:#038048;stroke-width:1.0;"/><text fill="#000000" font-family="sans-serif" font-size="14" lengthAdjust="spacing" textLength="164" x="1025.5" y="534.7285">_dimensions : Dimensions</text><ellipse cx="1016.5" cy="549.0527" fill="none" rx="3" ry="3" style="stroke:#038048;stroke-width:1.0;"/><text fill="#000000" font-family="sans-serif" font-size="14" lengthAdjust="spacing" textLength="63" x="1025.5" y="553.3496">_floor : int</text><ellipse cx="1016.5" cy="567.6738" fill="none" rx="3" ry="3" style="stroke:#038048;stroke-width:1.0;"/><text fill="#000000" font-family="sans-serif" font-size="14" lengthAdjust="spacing" textLength="94" x="1025.5" y="571.9707">_roomId : UUID</text><line style="stroke:#181818;stroke-width:0.5;" x1="1006.5" x2="1194.5" y1="579.4844" y2="579.4844"/><ellipse cx="1016.5" cy="594.2949" fill="#84BE84" rx="3" ry="3" style="stroke:#038048;stroke-width:1.0;"/><text fill="#000000" font-family="sans-serif" font-size="14" lengthAdjust="spacing" textLength="158" x="1025.5" y="598.5918">RoomDTO(room : Room)</text></g><!--link AddRoomToHouseController to House--><g id="link_AddRoomToHouseController_House"><path codeLine="92" d="M743.93,129.24 C714.1,153.34 683.7966,177.8086 651.2166,204.1386 " fill="none" id="AddRoomToHouseController-to-House" style="stroke:#181818;stroke-width:1.0;stroke-dasharray:7.0,7.0;"/><polygon fill="#181818" points="646.55,207.91,656.0641,205.364,650.4388,204.7672,651.0356,199.1419,646.55,207.91" style="stroke:#181818;stroke-width:1.0;"/><text fill="#000000" font-family="sans-serif" font-size="13" lengthAdjust="spacing" textLength="42" x="704.5" y="174.0283">&#171;uses&#187;</text><text fill="#000000" font-family="sans-serif" font-size="13" lengthAdjust="spacing" textLength="7" x="727.9032" y="151.3208">1</text><text fill="#000000" font-family="sans-serif" font-size="13" lengthAdjust="spacing" textLength="7" x="648.2909" y="196.8543">1</text></g><!--link House to RoomFactory--><g id="link_House_RoomFactory"><path codeLine="93" d="M587.77,386.06 C610.86,426.51 633.856,466.7989 650.886,496.6389 " fill="none" id="House-to-RoomFactory" style="stroke:#181818;stroke-width:1.0;stroke-dasharray:7.0,7.0;"/><polygon fill="#181818" points="653.86,501.85,652.873,492.0507,651.3817,497.5074,645.9249,496.0161,653.86,501.85" style="stroke:#181818;stroke-width:1.0;"/><text fill="#000000" font-family="sans-serif" font-size="13" lengthAdjust="spacing" textLength="42" x="614.5" y="431.0283">&#171;uses&#187;</text><text fill="#000000" font-family="sans-serif" font-size="13" lengthAdjust="spacing" textLength="7" x="584.7893" y="408.4699">1</text><text fill="#000000" font-family="sans-serif" font-size="13" lengthAdjust="spacing" textLength="7" x="642.5012" y="490.646">1</text></g><!--link RoomFactory to Room--><g id="link_RoomFactory_Room"><path codeLine="94" d="M636.16,569.2 C604.36,597.82 560.2795,637.4959 512.0195,680.9359 " fill="none" id="RoomFactory-to-Room" style="stroke:#181818;stroke-width:1.0;stroke-dasharray:7.0,7.0;"/><polygon fill="#181818" points="507.56,684.95,516.9253,681.9019,511.2762,681.6049,511.5732,675.9559,507.56,684.95" style="stroke:#181818;stroke-width:1.0;"/><text fill="#000000" font-family="sans-serif" font-size="13" lengthAdjust="spacing" textLength="57" x="559.5" y="651.0283">&#171;creates&#187;</text><text fill="#000000" font-family="sans-serif" font-size="13" lengthAdjust="spacing" textLength="7" x="622.3125" y="590.539">1</text><text fill="#000000" font-family="sans-serif" font-size="13" lengthAdjust="spacing" textLength="7" x="509.1219" y="673.587">1</text></g><!--link RoomFactory to DimensionsFactory--><g id="link_RoomFactory_DimensionsFactory"><path codeLine="95" d="M685.57,569.01 C713.89,644.92 773,837.82 703.5,975 C686.19,1009.16 658.1184,1032.3156 627.1284,1050.7256 " fill="none" id="RoomFactory-to-DimensionsFactory" style="stroke:#181818;stroke-width:1.0;stroke-dasharray:7.0,7.0;"/><polygon fill="#181818" points="621.97,1053.79,631.7506,1052.6323,626.2687,1051.2363,627.6647,1045.7544,621.97,1053.79" style="stroke:#181818;stroke-width:1.0;"/><text fill="#000000" font-family="sans-serif" font-size="13" lengthAdjust="spacing" textLength="57" x="737.5" y="835.5283">&#171;creates&#187;</text><text fill="#000000" font-family="sans-serif" font-size="13" lengthAdjust="spacing" textLength="7" x="680.2747" y="590.581">1</text><text fill="#000000" font-family="sans-serif" font-size="13" lengthAdjust="spacing" textLength="7" x="627.7362" y="1042.8359">1</text></g><!--link DimensionsFactory to Dimensions--><g id="link_DimensionsFactory_Dimensions"><path codeLine="96" d="M551.5,1121.1 C551.5,1142.1 551.5,1164.82 551.5,1193.75 " fill="none" id="DimensionsFactory-to-Dimensions" style="stroke:#181818;stroke-width:1.0;stroke-dasharray:7.0,7.0;"/><polygon fill="#181818" points="551.5,1199.75,555.5,1190.75,551.5,1194.75,547.5,1190.75,551.5,1199.75" style="stroke:#181818;stroke-width:1.0;"/><text fill="#000000" font-family="sans-serif" font-size="13" lengthAdjust="spacing" textLength="42" x="552.5" y="1166.0283">&#171;uses&#187;</text><text fill="#000000" font-family="sans-serif" font-size="13" lengthAdjust="spacing" textLength="7" x="543.8766" y="1142.687">1</text><text fill="#000000" font-family="sans-serif" font-size="13" lengthAdjust="spacing" textLength="7" x="544.2758" y="1188.725">1</text></g><!--link AddRoomToHouseController to RoomAssembler--><g id="link_AddRoomToHouseController_RoomAssembler"><path codeLine="97" d="M893.33,129.24 C938.04,165.23 989.5568,206.6869 1032.1268,240.9669 " fill="none" id="AddRoomToHouseController-to-RoomAssembler" style="stroke:#181818;stroke-width:1.0;stroke-dasharray:7.0,7.0;"/><polygon fill="#181818" points="1036.8,244.73,1032.299,235.9698,1032.9057,241.594,1027.2814,242.2007,1036.8,244.73" style="stroke:#181818;stroke-width:1.0;"/><text fill="#000000" font-family="sans-serif" font-size="13" lengthAdjust="spacing" textLength="42" x="952.5" y="174.0283">&#171;uses&#187;</text><text fill="#000000" font-family="sans-serif" font-size="13" lengthAdjust="spacing" textLength="7" x="894.5775" y="151.3208">1</text><text fill="#000000" font-family="sans-serif" font-size="13" lengthAdjust="spacing" textLength="7" x="1020.77" y="233.6211">1</text></g><!--link RoomAssembler to RoomDTO--><g id="link_RoomAssembler_RoomDTO"><path codeLine="98" d="M1100.5,349.03 C1100.5,382.84 1100.5,421.63 1100.5,458.72 " fill="none" id="RoomAssembler-to-RoomDTO" style="stroke:#181818;stroke-width:1.0;stroke-dasharray:7.0,7.0;"/><polygon fill="#181818" points="1100.5,464.72,1104.5,455.72,1100.5,459.72,1096.5,455.72,1100.5,464.72" style="stroke:#181818;stroke-width:1.0;"/><text fill="#000000" font-family="sans-serif" font-size="13" lengthAdjust="spacing" textLength="57" x="1101.5" y="431.0283">&#171;creates&#187;</text><text fill="#000000" font-family="sans-serif" font-size="13" lengthAdjust="spacing" textLength="7" x="1093.0516" y="370.8411">1</text><text fill="#000000" font-family="sans-serif" font-size="13" lengthAdjust="spacing" textLength="7" x="1093.1391" y="453.5821">1</text></g><!--link Room to DimensionsFactory--><g id="link_Room_DimensionsFactory"><path codeLine="99" d="M462.62,975.18 C486.11,1004.61 504.9265,1028.161 521.4365,1048.841 " fill="none" id="Room-to-DimensionsFactory" style="stroke:#181818;stroke-width:1.0;stroke-dasharray:7.0,7.0;"/><polygon fill="#181818" points="525.18,1053.53,522.6908,1044.0009,522.0604,1049.6225,516.4388,1048.9922,525.18,1053.53" style="stroke:#181818;stroke-width:1.0;"/><text fill="#000000" font-family="sans-serif" font-size="13" lengthAdjust="spacing" textLength="42" x="498.5" y="1020.0283">&#171;uses&#187;</text><text fill="#000000" font-family="sans-serif" font-size="13" lengthAdjust="spacing" textLength="7" x="461.3754" y="997.138">1</text><text fill="#000000" font-family="sans-serif" font-size="13" lengthAdjust="spacing" textLength="7" x="512.6819" y="1042.7897">1</text></g><!--reverse link House to Room--><g id="link_House_Room"><path codeLine="100" d="M412.6194,394.8193 C389.9994,417.8393 377.66,435.9 364.5,465 C333.79,532.87 327.74,615.31 330.15,684.57 " fill="none" id="House-backto-Room" style="stroke:#181818;stroke-width:1.0;"/><polygon fill="#181818" points="421.03,386.26,413.9716,387.7361,412.6194,394.8193,419.6778,393.3432,421.03,386.26" style="stroke:#181818;stroke-width:1.0;"/><text fill="#000000" font-family="sans-serif" font-size="13" lengthAdjust="spacing" textLength="35" x="365.5" y="541.0283">&#171;has&#187;</text><text fill="#000000" font-family="sans-serif" font-size="13" lengthAdjust="spacing" textLength="7" x="404.095" y="408.3817">1</text><text fill="#000000" font-family="sans-serif" font-size="13" lengthAdjust="spacing" textLength="20" x="308.7398" y="673.6669">0..*</text></g><!--SRC=[jLLDRzim3BtxLmZP8N7j9DkEGM0WM52aGBi1MRiT1yNMR06sbLboXw78Vn_r4PkocwBei5F2nqUAVABeQQ7KKQwMosD9QzLMvI8LrLAoNoshKpRFECqRMWL1Mb8foIRBza9Kzs8dMia-YLereYnPynHCDqer_D0g9gV1d1JQloA65WJJEwOAaO4debw6cU4HHmo3EPVVQCapo2nLqwPAD9icRojMApdWhiX1Y9BHUfIpffMcVOLwwZmcFqiX6h1vhMBocsUg02CJxQ5aCIbPdHSA0GNZ60ZXdywzlVyIdCugc6E6BVyeHKeL5_KrrMN_MP5R7m1A0vawzxutK3Jfuro018HBjTRynDFIjZiubumEZWawbtW7Xvru_qMrBhiIkeMPhiEvGYsdqrFR8pczUi161O6LSPW92JtAlg_j4FDu7i59UvC1-l1mizLCziXJfiiaJl2jGJp9txr9AWzuLUNm4YHJFJopqJPxx7Avt9rfBq5h_oXuPZ9yXafdjawYg_QSrxhk6LHjE-XzkGiCaVwvLquuK3C_PmlT3PtmtRgcdl3ifWsZYlshdDsWzSFKbsL62asKoNMEr4_EJ342h80TWChLSksCTnOY1MzD1W_whW_fa2YtSHPoUJNOHoAmYprZIbXHDEOkuZJkyxAywCRUyeJH3NltkP6ILGUxzliZoNej5UoTD4aWHqLv_H6sflVcqJ9zYIu9NdaXje2IF1jxHuyNOi5p3es9NQ9UDu0FbayqM3xHnJKIUMif6YmLh8uxQRm2BtrIoUJ3X2mMYVdTsS_fUWq_Caa2OtkCFVwqT3o4ZjYQPiVa9UPepFomaVj2CAhfLGtxSpRegCE9vkAUGE5nMnxhsNv6gbxDvsJoVh6uwgKggARy1G00]--></g></svg>