<?xml version="1.0" encoding="us-ascii" standalone="no"?><svg xmlns="http://www.w3.org/2000/svg" xmlns:xlink="http://www.w3.org/1999/xlink" contentStyleType="text/css" height="558px" preserveAspectRatio="none" style="width:2974px;height:558px;background:#FFFFFF;" version="1.1" viewBox="0 0 2974 558" width="2974px" zoomAndPan="magnify"><defs/><g><rect fill="#FFFFFF" height="431.4434" style="stroke:#181818;stroke-width:1.0;" width="10" x="189" y="71.9121"/><rect fill="#FFFFFF" height="368.8613" style="stroke:#181818;stroke-width:1.0;" width="10" x="759" y="103.2031"/><rect fill="#FFFFFF" height="106.2031" style="stroke:#181818;stroke-width:1.0;" width="10" x="1439" y="134.4941"/><rect fill="#FFFFFF" height="33.6211" style="stroke:#181818;stroke-width:1.0;" width="10" x="2025.5" y="175.7852"/><rect fill="#FFFFFF" height="31.291" style="stroke:#181818;stroke-width:1.0;" width="10" x="2142.5" y="271.9883"/><rect fill="#FFFFFF" height="106.2031" style="stroke:#181818;stroke-width:1.0;" width="10" x="2274.5" y="334.5703"/><rect fill="#FFFFFF" height="33.6211" style="stroke:#181818;stroke-width:1.0;" width="10" x="2888" y="375.8613"/><line style="stroke:#181818;stroke-width:0.5;stroke-dasharray:5.0,5.0;" x1="14" x2="14" y1="38.6211" y2="521.3555"/><line style="stroke:#181818;stroke-width:0.5;stroke-dasharray:5.0,5.0;" x1="194" x2="194" y1="38.6211" y2="521.3555"/><line style="stroke:#181818;stroke-width:0.5;stroke-dasharray:5.0,5.0;" x1="764" x2="764" y1="38.6211" y2="521.3555"/><line style="stroke:#181818;stroke-width:0.5;stroke-dasharray:5.0,5.0;" x1="1443.5" x2="1443.5" y1="38.6211" y2="521.3555"/><line style="stroke:#181818;stroke-width:0.5;stroke-dasharray:5.0,5.0;" x1="2030" x2="2030" y1="174.3047" y2="521.3555"/><line style="stroke:#181818;stroke-width:0.5;stroke-dasharray:5.0,5.0;" x1="2147" x2="2147" y1="38.6211" y2="521.3555"/><line style="stroke:#181818;stroke-width:0.5;stroke-dasharray:5.0,5.0;" x1="2279" x2="2279" y1="38.6211" y2="521.3555"/><line style="stroke:#181818;stroke-width:0.5;stroke-dasharray:5.0,5.0;" x1="2892.5" x2="2892.5" y1="374.3809" y2="521.3555"/><rect fill="#E2E2F0" height="32.6211" rx="2.5" ry="2.5" style="stroke:#181818;stroke-width:0.5;" width="18" x="5" y="5"/><text fill="#000000" font-family="sans-serif" font-size="14" lengthAdjust="spacing" textLength="4" x="12" y="27.1074">&#160;</text><rect fill="#E2E2F0" height="32.6211" rx="2.5" ry="2.5" style="stroke:#181818;stroke-width:0.5;" width="18" x="5" y="520.3555"/><text fill="#000000" font-family="sans-serif" font-size="14" lengthAdjust="spacing" textLength="4" x="12" y="542.4629">&#160;</text><rect fill="#E2E2F0" height="32.6211" rx="2.5" ry="2.5" style="stroke:#181818;stroke-width:0.5;" width="142" x="123" y="5"/><text fill="#000000" font-family="sans-serif" font-size="14" lengthAdjust="spacing" textLength="128" x="130" y="27.1074">:AddRoomController</text><rect fill="#E2E2F0" height="32.6211" rx="2.5" ry="2.5" style="stroke:#181818;stroke-width:0.5;" width="142" x="123" y="520.3555"/><text fill="#000000" font-family="sans-serif" font-size="14" lengthAdjust="spacing" textLength="128" x="130" y="542.4629">:AddRoomController</text><rect fill="#E2E2F0" height="32.6211" rx="2.5" ry="2.5" style="stroke:#181818;stroke-width:0.5;" width="184" x="672" y="5"/><text fill="#000000" font-family="sans-serif" font-size="14" lengthAdjust="spacing" textLength="170" x="679" y="27.1074">serviceRoom:ServiceRoom</text><rect fill="#E2E2F0" height="32.6211" rx="2.5" ry="2.5" style="stroke:#181818;stroke-width:0.5;" width="184" x="672" y="520.3555"/><text fill="#000000" font-family="sans-serif" font-size="14" lengthAdjust="spacing" textLength="170" x="679" y="542.4629">serviceRoom:ServiceRoom</text><rect fill="#E2E2F0" height="32.6211" rx="2.5" ry="2.5" style="stroke:#181818;stroke-width:0.5;" width="103" x="1392.5" y="5"/><text fill="#000000" font-family="sans-serif" font-size="14" lengthAdjust="spacing" textLength="89" x="1399.5" y="27.1074">:RoomFactory</text><rect fill="#E2E2F0" height="32.6211" rx="2.5" ry="2.5" style="stroke:#181818;stroke-width:0.5;" width="103" x="1392.5" y="520.3555"/><text fill="#000000" font-family="sans-serif" font-size="14" lengthAdjust="spacing" textLength="89" x="1399.5" y="542.4629">:RoomFactory</text><rect fill="#E2E2F0" height="32.6211" rx="2.5" ry="2.5" style="stroke:#181818;stroke-width:0.5;" width="91" x="1985" y="520.3555"/><text fill="#000000" font-family="sans-serif" font-size="14" lengthAdjust="spacing" textLength="77" x="1992" y="542.4629">room :Room</text><rect fill="#E2E2F0" height="32.6211" rx="2.5" ry="2.5" style="stroke:#181818;stroke-width:0.5;" width="123" x="2086" y="5"/><text fill="#000000" font-family="sans-serif" font-size="14" lengthAdjust="spacing" textLength="109" x="2093" y="27.1074">:RoomRepository</text><rect fill="#E2E2F0" height="32.6211" rx="2.5" ry="2.5" style="stroke:#181818;stroke-width:0.5;" width="123" x="2086" y="520.3555"/><text fill="#000000" font-family="sans-serif" font-size="14" lengthAdjust="spacing" textLength="109" x="2093" y="542.4629">:RoomRepository</text><rect fill="#E2E2F0" height="32.6211" rx="2.5" ry="2.5" style="stroke:#181818;stroke-width:0.5;" width="121" x="2219" y="5"/><text fill="#000000" font-family="sans-serif" font-size="14" lengthAdjust="spacing" textLength="107" x="2226" y="27.1074">:RoomAssembler</text><rect fill="#E2E2F0" height="32.6211" rx="2.5" ry="2.5" style="stroke:#181818;stroke-width:0.5;" width="121" x="2219" y="520.3555"/><text fill="#000000" font-family="sans-serif" font-size="14" lengthAdjust="spacing" textLength="107" x="2226" y="542.4629">:RoomAssembler</text><rect fill="#E2E2F0" height="32.6211" rx="2.5" ry="2.5" style="stroke:#181818;stroke-width:0.5;" width="151" x="2817.5" y="520.3555"/><text fill="#000000" font-family="sans-serif" font-size="14" lengthAdjust="spacing" textLength="137" x="2824.5" y="542.4629">roomDTO :RoomDTO</text><rect fill="#FFFFFF" height="431.4434" style="stroke:#181818;stroke-width:1.0;" width="10" x="189" y="71.9121"/><rect fill="#FFFFFF" height="368.8613" style="stroke:#181818;stroke-width:1.0;" width="10" x="759" y="103.2031"/><rect fill="#FFFFFF" height="106.2031" style="stroke:#181818;stroke-width:1.0;" width="10" x="1439" y="134.4941"/><rect fill="#FFFFFF" height="33.6211" style="stroke:#181818;stroke-width:1.0;" width="10" x="2025.5" y="175.7852"/><rect fill="#FFFFFF" height="31.291" style="stroke:#181818;stroke-width:1.0;" width="10" x="2142.5" y="271.9883"/><rect fill="#FFFFFF" height="106.2031" style="stroke:#181818;stroke-width:1.0;" width="10" x="2274.5" y="334.5703"/><rect fill="#FFFFFF" height="33.6211" style="stroke:#181818;stroke-width:1.0;" width="10" x="2888" y="375.8613"/><ellipse cx="13.5" cy="71.1621" fill="none" rx="4" ry="4" style="stroke:#181818;stroke-width:1.5;"/><polygon fill="#181818" points="177,67.9121,187,71.9121,177,75.9121,181,71.9121" style="stroke:#181818;stroke-width:1.0;"/><line style="stroke:#181818;stroke-width:1.0;" x1="18" x2="183" y1="71.9121" y2="71.9121"/><text fill="#000000" font-family="sans-serif" font-size="13" font-weight="bold" lengthAdjust="spacing" textLength="7" x="21" y="66.6494">1</text><text fill="#000000" font-family="sans-serif" font-size="13" lengthAdjust="spacing" textLength="145" x="32" y="66.6494">addRoom(roomDataDTO)</text><polygon fill="#181818" points="747,99.2031,757,103.2031,747,107.2031,751,103.2031" style="stroke:#181818;stroke-width:1.0;"/><line style="stroke:#181818;stroke-width:1.0;" x1="199" x2="753" y1="103.2031" y2="103.2031"/><text fill="#000000" font-family="sans-serif" font-size="13" font-weight="bold" lengthAdjust="spacing" textLength="7" x="206" y="97.9404">2</text><text fill="#000000" font-family="sans-serif" font-size="13" lengthAdjust="spacing" textLength="530" x="217" y="97.9404">addRoom(houseID: String, name: String, int floor, int width, int length, int height): RoomDTO</text><polygon fill="#181818" points="1427,130.4941,1437,134.4941,1427,138.4941,1431,134.4941" style="stroke:#181818;stroke-width:1.0;"/><line style="stroke:#181818;stroke-width:1.0;" x1="769" x2="1433" y1="134.4941" y2="134.4941"/><text fill="#000000" font-family="sans-serif" font-size="13" font-weight="bold" lengthAdjust="spacing" textLength="7" x="776" y="129.2314">3</text><text fill="#000000" font-family="sans-serif" font-size="13" lengthAdjust="spacing" textLength="640" x="787" y="129.2314">createRoom(houseID: HouseID, roomName: RoomName, dimension: Dimension, roomFloor: RoomFloor):Room</text><polygon fill="#181818" points="1973,161.7852,1983,165.7852,1973,169.7852,1977,165.7852" style="stroke:#181818;stroke-width:1.0;"/><line style="stroke:#181818;stroke-width:1.0;" x1="1449" x2="1979" y1="165.7852" y2="165.7852"/><text fill="#000000" font-family="sans-serif" font-size="13" font-weight="bold" lengthAdjust="spacing" textLength="7" x="1456" y="160.5225">4</text><text fill="#000000" font-family="sans-serif" font-size="13" lengthAdjust="spacing" textLength="501" x="1467" y="160.5225">createRoom(HouseID houseID, RoomName name, Dimensions dimensions, Floor floor)</text><rect fill="#E2E2F0" height="32.6211" rx="2.5" ry="2.5" style="stroke:#181818;stroke-width:0.5;" width="91" x="1985" y="142.4941"/><text fill="#000000" font-family="sans-serif" font-size="14" lengthAdjust="spacing" textLength="77" x="1992" y="164.6016">room :Room</text><polygon fill="#181818" points="1460,205.4063,1450,209.4063,1460,213.4063,1456,209.4063" style="stroke:#181818;stroke-width:1.0;"/><line style="stroke:#181818;stroke-width:1.0;stroke-dasharray:2.0,2.0;" x1="1454" x2="2029.5" y1="209.4063" y2="209.4063"/><text fill="#000000" font-family="sans-serif" font-size="13" font-weight="bold" lengthAdjust="spacing" textLength="7" x="1466" y="204.1436">5</text><text fill="#000000" font-family="sans-serif" font-size="13" lengthAdjust="spacing" textLength="29" x="1477" y="204.1436">room</text><polygon fill="#181818" points="780,236.6973,770,240.6973,780,244.6973,776,240.6973" style="stroke:#181818;stroke-width:1.0;"/><line style="stroke:#181818;stroke-width:1.0;stroke-dasharray:2.0,2.0;" x1="774" x2="1443" y1="240.6973" y2="240.6973"/><text fill="#000000" font-family="sans-serif" font-size="13" font-weight="bold" lengthAdjust="spacing" textLength="7" x="786" y="235.4346">6</text><text fill="#000000" font-family="sans-serif" font-size="13" lengthAdjust="spacing" textLength="29" x="797" y="235.4346">room</text><polygon fill="#181818" points="2130.5,267.9883,2140.5,271.9883,2130.5,275.9883,2134.5,271.9883" style="stroke:#181818;stroke-width:1.0;"/><line style="stroke:#181818;stroke-width:1.0;" x1="769" x2="2136.5" y1="271.9883" y2="271.9883"/><text fill="#000000" font-family="sans-serif" font-size="13" font-weight="bold" lengthAdjust="spacing" textLength="7" x="776" y="266.7256">7</text><text fill="#000000" font-family="sans-serif" font-size="13" lengthAdjust="spacing" textLength="63" x="787" y="266.7256">save(room)</text><polygon fill="#181818" points="780,299.2793,770,303.2793,780,307.2793,776,303.2793" style="stroke:#181818;stroke-width:1.0;"/><line style="stroke:#181818;stroke-width:1.0;stroke-dasharray:2.0,2.0;" x1="774" x2="2146.5" y1="303.2793" y2="303.2793"/><text fill="#000000" font-family="sans-serif" font-size="13" font-weight="bold" lengthAdjust="spacing" textLength="7" x="786" y="298.0166">8</text><text fill="#000000" font-family="sans-serif" font-size="13" lengthAdjust="spacing" textLength="29" x="797" y="298.0166">room</text><polygon fill="#181818" points="2262.5,330.5703,2272.5,334.5703,2262.5,338.5703,2266.5,334.5703" style="stroke:#181818;stroke-width:1.0;"/><line style="stroke:#181818;stroke-width:1.0;" x1="769" x2="2268.5" y1="334.5703" y2="334.5703"/><text fill="#000000" font-family="sans-serif" font-size="13" font-weight="bold" lengthAdjust="spacing" textLength="7" x="776" y="329.3076">9</text><text fill="#000000" font-family="sans-serif" font-size="13" lengthAdjust="spacing" textLength="143" x="787" y="329.3076">RoomDTO(room : Room)</text><polygon fill="#181818" points="2805.5,361.8613,2815.5,365.8613,2805.5,369.8613,2809.5,365.8613" style="stroke:#181818;stroke-width:1.0;"/><line style="stroke:#181818;stroke-width:1.0;" x1="2284.5" x2="2811.5" y1="365.8613" y2="365.8613"/><text fill="#000000" font-family="sans-serif" font-size="13" font-weight="bold" lengthAdjust="spacing" textLength="14" x="2291.5" y="360.5986">10</text><text fill="#000000" font-family="sans-serif" font-size="13" lengthAdjust="spacing" textLength="491" x="2309.5" y="360.5986">roomDTO(String roomName, String roomDimension, String roomFloor, String roomID)</text><rect fill="#E2E2F0" height="32.6211" rx="2.5" ry="2.5" style="stroke:#181818;stroke-width:0.5;" width="151" x="2817.5" y="342.5703"/><text fill="#000000" font-family="sans-serif" font-size="14" lengthAdjust="spacing" textLength="137" x="2824.5" y="364.6777">roomDTO :RoomDTO</text><polygon fill="#181818" points="2295.5,405.4824,2285.5,409.4824,2295.5,413.4824,2291.5,409.4824" style="stroke:#181818;stroke-width:1.0;"/><line style="stroke:#181818;stroke-width:1.0;stroke-dasharray:2.0,2.0;" x1="2289.5" x2="2892" y1="409.4824" y2="409.4824"/><text fill="#000000" font-family="sans-serif" font-size="13" font-weight="bold" lengthAdjust="spacing" textLength="14" x="2301.5" y="404.2197">11</text><text fill="#000000" font-family="sans-serif" font-size="13" lengthAdjust="spacing" textLength="55" x="2319.5" y="404.2197">roomDTO</text><polygon fill="#181818" points="780,436.7734,770,440.7734,780,444.7734,776,440.7734" style="stroke:#181818;stroke-width:1.0;"/><line style="stroke:#181818;stroke-width:1.0;stroke-dasharray:2.0,2.0;" x1="774" x2="2278.5" y1="440.7734" y2="440.7734"/><text fill="#000000" font-family="sans-serif" font-size="13" font-weight="bold" lengthAdjust="spacing" textLength="14" x="786" y="435.5107">12</text><text fill="#000000" font-family="sans-serif" font-size="13" lengthAdjust="spacing" textLength="55" x="804" y="435.5107">roomDTO</text><polygon fill="#181818" points="210,468.0645,200,472.0645,210,476.0645,206,472.0645" style="stroke:#181818;stroke-width:1.0;"/><line style="stroke:#181818;stroke-width:1.0;stroke-dasharray:2.0,2.0;" x1="204" x2="763" y1="472.0645" y2="472.0645"/><text fill="#000000" font-family="sans-serif" font-size="13" font-weight="bold" lengthAdjust="spacing" textLength="14" x="216" y="466.8018">13</text><text fill="#000000" font-family="sans-serif" font-size="13" lengthAdjust="spacing" textLength="55" x="234" y="466.8018">roomDTO</text><polygon fill="#181818" points="25,499.3555,15,503.3555,25,507.3555,21,503.3555" style="stroke:#181818;stroke-width:1.0;"/><line style="stroke:#181818;stroke-width:1.0;stroke-dasharray:2.0,2.0;" x1="19" x2="193" y1="503.3555" y2="503.3555"/><text fill="#000000" font-family="sans-serif" font-size="13" font-weight="bold" lengthAdjust="spacing" textLength="14" x="31" y="498.0928">14</text><text fill="#000000" font-family="sans-serif" font-size="13" lengthAdjust="spacing" textLength="55" x="49" y="498.0928">roomDTO</text><!--SRC=[RLFRRi8m37tlLtXx0gdyG1uceI4qNZO9jW_8Q4OZjGbA0XD_lpXNjokLgEqUsyUtfwlXbv73m1_wvi2Emd756tvpMjt6Rs6QvigDasTvvSh1it-uXI_hFqpiRDjrHwt7LwsSqSCWJ01MTGht_dTv5kZ1JbKEFacVnSVFUtvssZm2AibJbF4WO2KI2WjXZkAghIoHghg0tLehnkzSJj7-fzrzViJCNWXO_suQR1JepGjf10CUMxKARjnnZrmtlXnvvqxGbbKHV8ZKb-hVwviLXns3apDINLfGV1HLavxQpw2rYUAlx5mVnK6eIvPx8I-zMpD8t2kHF8VqHWgfwGpEHdZ8bCLR55h0kju3bMEIMkZaA9ILMZ7OPJ4YzqWnGeEu3bsiDFAWOyeuqsH3Ic65A9z40_fC9vC8xMbhUbj9sHP2xjWlCeoG3VzWGyj7taqdfh12YivgZipLaARM_MDW-Ls4lQ0SwdvMaMQ11KBLXsGgwrkclOeN4rIIikvvwZekHZ5YA6-8MJ58tBWoznQ8WKoRMFTnBudbi2FvCHqUr6PAEkMZXSw8pLi_GzUwIbTcjxdWbE-0NgFtmjDUn9C3njyV]--></g></svg>