<?xml version="1.0" encoding="us-ascii" standalone="no"?><svg xmlns="http://www.w3.org/2000/svg" xmlns:xlink="http://www.w3.org/1999/xlink" contentStyleType="text/css" height="812px" preserveAspectRatio="none" style="width:1485px;height:812px;background:#FFFFFF;" version="1.1" viewBox="0 0 1485 812" width="1485px" zoomAndPan="magnify"><defs/><g><!--entity Admin--><g id="elem_Admin"><ellipse cx="47.5" cy="403" fill="#000000" rx="16" ry="16" style="stroke:#181818;stroke-width:0.5;"/><path d="M47.5,423 C51.5,423 54.5,423 58.5,419 C66.5,419 74.5,427 74.5,435 L74.5,439 C74.5,443 70.5,447 66.5,447 L28.5,447 C24.5,447 20.5,443 20.5,439 L20.5,435 C20.5,427 28.5,419 36.5,419 C40.5,423 43.5,423 47.5,423 " fill="#000000" style="stroke:#181818;stroke-width:0.5;"/><text fill="#000000" font-family="sans-serif" font-size="14" lengthAdjust="spacing" textLength="83" x="6" y="462.6074">Administrator</text></g><!--entity Power_User--><g id="elem_Power_User"><ellipse cx="1344" cy="93" fill="#000000" rx="16" ry="16" style="stroke:#181818;stroke-width:0.5;"/><path d="M1344,113 C1348,113 1351,113 1355,109 C1363,109 1371,117 1371,125 L1371,129 C1371,133 1367,137 1363,137 L1325,137 C1321,137 1317,133 1317,129 L1317,125 C1317,117 1325,109 1333,109 C1337,113 1340,113 1344,113 " fill="#000000" style="stroke:#181818;stroke-width:0.5;"/><text fill="#000000" font-family="sans-serif" font-size="14" lengthAdjust="spacing" textLength="72" x="1308" y="152.6074">Power User</text></g><!--entity Room_Owner--><g id="elem_Room_Owner"><ellipse cx="1344" cy="208" fill="#000000" rx="16" ry="16" style="stroke:#181818;stroke-width:0.5;"/><path d="M1344,228 C1348,228 1351,228 1355,224 C1363,224 1371,232 1371,240 L1371,244 C1371,248 1367,252 1363,252 L1325,252 C1321,252 1317,248 1317,244 L1317,240 C1317,232 1325,224 1333,224 C1337,228 1340,228 1344,228 " fill="#000000" style="stroke:#181818;stroke-width:0.5;"/><text fill="#000000" font-family="sans-serif" font-size="14" lengthAdjust="spacing" textLength="82" x="1303" y="267.6074">Room Owner</text></g><g id="elem_Use1"><ellipse cx="398.8285" cy="582.4657" fill="#F1F1F1" rx="145.3285" ry="31.4657" style="stroke:#181818;stroke-width:0.5;"/><text fill="#000000" font-family="sans-serif" font-size="14" lengthAdjust="spacing" textLength="257" x="270.3285" y="586.2626">US01/UC01: To configure house location</text></g><g id="elem_Use2"><ellipse cx="398.8867" cy="682.5773" fill="#F1F1F1" rx="153.3867" ry="33.0773" style="stroke:#181818;stroke-width:0.5;"/><text fill="#000000" font-family="sans-serif" font-size="14" lengthAdjust="spacing" textLength="274" x="261.8867" y="686.3742">US02/UC02: To add new room to the house</text></g><g id="elem_Use3"><ellipse cx="1343.9188" cy="405.5838" fill="#F1F1F1" rx="135.9188" ry="29.5838" style="stroke:#181818;stroke-width:0.5;"/><text fill="#000000" font-family="sans-serif" font-size="14" lengthAdjust="spacing" textLength="237" x="1225.4188" y="409.3806">US03/UC03: To get list existing rooms</text></g><g id="elem_Use4"><ellipse cx="399.0287" cy="778.4057" fill="#F1F1F1" rx="127.5287" ry="27.9057" style="stroke:#181818;stroke-width:0.5;"/><text fill="#000000" font-family="sans-serif" font-size="14" lengthAdjust="spacing" textLength="219" x="289.5287" y="782.2026">US04/UC04: To define sensor type</text></g><g id="elem_Use5"><ellipse cx="927.7659" cy="405.5532" fill="#F1F1F1" rx="155.7659" ry="33.5532" style="stroke:#181818;stroke-width:0.5;"/><text fill="#000000" font-family="sans-serif" font-size="14" lengthAdjust="spacing" textLength="279" x="788.2659" y="409.35">US05v2/UC05: To add new device to a room</text></g><g id="elem_Use6"><ellipse cx="927.8867" cy="216.5773" fill="#F1F1F1" rx="153.3867" ry="33.0773" style="stroke:#181818;stroke-width:0.5;"/><text fill="#000000" font-family="sans-serif" font-size="14" lengthAdjust="spacing" textLength="274" x="790.8867" y="220.3742">US06/UC06: To get list of devices in a room</text></g><g id="elem_Use7"><ellipse cx="398.7659" cy="39.5532" fill="#F1F1F1" rx="155.7659" ry="33.5532" style="stroke:#181818;stroke-width:0.5;"/><text fill="#000000" font-family="sans-serif" font-size="14" lengthAdjust="spacing" textLength="279" x="259.2659" y="43.35">US07/UC7: To add a new sensor to a device</text></g><g id="elem_Use8"><ellipse cx="399.1388" cy="135.6278" fill="#F1F1F1" rx="126.1388" ry="27.6278" style="stroke:#181818;stroke-width:0.5;"/><text fill="#000000" font-family="sans-serif" font-size="14" lengthAdjust="spacing" textLength="216" x="291.1388" y="139.4246">US08/UC8: To deactivate a device</text></g><g id="elem_Use9"><ellipse cx="398.9459" cy="321.6892" fill="#F1F1F1" rx="248.9459" ry="52.1892" style="stroke:#181818;stroke-width:0.5;"/><text fill="#000000" font-family="sans-serif" font-size="14" lengthAdjust="spacing" textLength="471" x="163.4459" y="325.4861">US09/UC9: To get list of devices in the house grouped by functionality type</text></g><!--link Admin to Use1--><g id="link_Admin_Use1"><path d="M68.42,466.56 C80.4,486.63 97.52,509.57 119,523.5 C160.43,550.37 206.0269,564.2427 253.4569,572.4027 " fill="none" id="Admin-to-Use1" style="stroke:#181818;stroke-width:1.0;"/><polygon fill="#181818" points="259.37,573.42,251.1785,567.9519,254.4424,572.5722,249.8221,575.8361,259.37,573.42" style="stroke:#181818;stroke-width:1.0;"/></g><!--link Admin to Use2--><g id="link_Admin_Use2"><path d="M57.18,466.82 C69.48,513.85 96.7,590.39 150,631.5 C178.63,653.58 208.596,665.4696 244.046,673.1496 " fill="none" id="Admin-to-Use2" style="stroke:#181818;stroke-width:1.0;"/><polygon fill="#181818" points="249.91,674.42,241.961,668.6051,245.0234,673.3613,240.2671,676.4237,249.91,674.42" style="stroke:#181818;stroke-width:1.0;"/></g><!--link Admin to Use3--><g id="link_Admin_Use3"><path d="M89.09,431.34 C228.17,447.14 698.25,494.12 1084,456.5 C1140.9,450.95 1197.9949,440.0106 1247.5849,428.9106 " fill="none" id="Admin-to-Use3" style="stroke:#181818;stroke-width:1.0;"/><polygon fill="#181818" points="1253.44,427.6,1243.7836,425.6625,1248.5607,428.6922,1245.531,433.4693,1253.44,427.6" style="stroke:#181818;stroke-width:1.0;"/></g><!--link Admin to Use4--><g id="link_Admin_Use4"><path d="M49.39,466.64 C53.18,532.92 70.87,664.73 150,733.5 C183.28,762.42 222.8149,774.8177 265.7549,780.0977 " fill="none" id="Admin-to-Use4" style="stroke:#181818;stroke-width:1.0;"/><polygon fill="#181818" points="271.71,780.83,263.2654,775.7615,266.7474,780.2198,262.2891,783.7017,271.71,780.83" style="stroke:#181818;stroke-width:1.0;"/></g><!--link Admin to Use5--><g id="link_Admin_Use5"><path d="M89.11,425.53 C208.9,422.67 559.3917,414.2832 766.7517,409.3332 " fill="none" id="Admin-to-Use5" style="stroke:#181818;stroke-width:1.0;"/><polygon fill="#181818" points="772.75,409.19,763.6571,405.4059,767.7514,409.3093,763.848,413.4036,772.75,409.19" style="stroke:#181818;stroke-width:1.0;"/></g><!--link Admin to Use6--><g id="link_Admin_Use6"><path d="M59.52,386.37 C73.25,344.88 101.09,282.12 150,252.5 C252.37,190.51 579.4777,196.7956 774.7277,206.7156 " fill="none" id="Admin-to-Use6" style="stroke:#181818;stroke-width:1.0;"/><polygon fill="#181818" points="780.72,207.02,771.9346,202.5685,775.7264,206.7663,771.5286,210.5582,780.72,207.02" style="stroke:#181818;stroke-width:1.0;"/></g><!--link Admin to Use7--><g id="link_Admin_Use7"><path d="M54.96,386.34 C68.8,305.69 103.83,128.49 150,90.5 C177.33,68.02 206.1355,55.9434 240.8155,48.1634 " fill="none" id="Admin-to-Use7" style="stroke:#181818;stroke-width:1.0;"/><polygon fill="#181818" points="246.67,46.85,237.0127,44.9171,241.7913,47.9445,238.7639,52.7231,246.67,46.85" style="stroke:#181818;stroke-width:1.0;"/></g><!--link Admin to Use8--><g id="link_Admin_Use8"><path d="M48.55,386.14 C50.94,333.15 63.46,240.97 119,190.5 C160.47,152.82 214.0373,138.3122 267.4773,133.1922 " fill="none" id="Admin-to-Use8" style="stroke:#181818;stroke-width:1.0;"/><polygon fill="#181818" points="273.45,132.62,264.1095,129.4966,268.4728,133.0969,264.8725,137.4601,273.45,132.62" style="stroke:#181818;stroke-width:1.0;"/></g><!--link Admin to Use9--><g id="link_Admin_Use9"><path d="M89.32,410.84 C99,407.29 109.32,403.65 119,400.5 C159.69,387.26 198.3471,375.7352 239.5471,364.0652 " fill="none" id="Admin-to-Use9" style="stroke:#181818;stroke-width:1.0;"/><polygon fill="#181818" points="245.32,362.43,235.5706,361.0342,240.5093,363.7927,237.7508,368.7314,245.32,362.43" style="stroke:#181818;stroke-width:1.0;"/></g><!--reverse link Use5 to Power_User--><g id="link_Use5_Power_User"><path d="M969.8649,368.9643 C1033.1149,312.7543 1157.01,204.53 1208,173.5 C1239.95,154.06 1279.72,138.15 1307.8,128.13 " fill="none" id="Use5-backto-Power_User" style="stroke:#181818;stroke-width:1.0;"/><polygon fill="#181818" points="965.38,372.95,974.7645,369.9614,969.1174,369.6286,969.4502,363.9815,965.38,372.95" style="stroke:#181818;stroke-width:1.0;"/></g><!--reverse link Use6 to Power_User--><g id="link_Use6_Power_User"><path d="M1036.6423,190.5015 C1126.6623,168.7615 1247,139.69 1307.67,125.03 " fill="none" id="Use6-backto-Power_User" style="stroke:#181818;stroke-width:1.0;"/><polygon fill="#181818" points="1030.81,191.91,1040.4975,193.6854,1035.6703,190.7362,1038.6195,185.909,1030.81,191.91" style="stroke:#181818;stroke-width:1.0;"/></g><!--reverse link Use7 to Power_User--><g id="link_Use7_Power_User"><path d="M556.8305,47.7279 C713.7405,56.5779 960.45,72.33 1178,94.5 C1222.99,99.09 1274.64,106.29 1307.99,111.19 " fill="none" id="Use7-backto-Power_User" style="stroke:#181818;stroke-width:1.0;"/><polygon fill="#181818" points="550.84,47.39,559.6005,51.8905,555.8321,47.6716,560.051,43.9032,550.84,47.39" style="stroke:#181818;stroke-width:1.0;"/></g><!--reverse link Use8 to Power_User--><g id="link_Use8_Power_User"><path d="M530.7388,132.8691 C748.4788,128.4791 1180.88,119.77 1307.82,117.21 " fill="none" id="Use8-backto-Power_User" style="stroke:#181818;stroke-width:1.0;"/><polygon fill="#181818" points="524.74,132.99,533.8188,136.8078,529.739,132.8892,533.6575,128.8094,524.74,132.99" style="stroke:#181818;stroke-width:1.0;"/></g><!--reverse link Use6 to Room_Owner--><g id="link_Use6_Room_Owner"><path d="M1085.6261,222.1772 C1165.3961,225.0672 1251.25,228.18 1302.68,230.04 " fill="none" id="Use6-backto-Room_Owner" style="stroke:#181818;stroke-width:1.0;"/><polygon fill="#181818" points="1079.63,221.96,1088.4793,226.2832,1084.6267,222.141,1088.7689,218.2885,1079.63,221.96" style="stroke:#181818;stroke-width:1.0;"/></g><!--link Use6 to Use3--><g id="link_Use6_Use3"><path d="M994.6,246.45 C1074.51,282.93 1202.832,341.508 1279.272,376.408 " fill="none" id="Use6-to-Use3" style="stroke:#181818;stroke-width:1.0;stroke-dasharray:7.0,7.0;"/><polygon fill="#181818" points="1284.73,378.9,1278.2043,371.5234,1280.1816,376.8234,1274.8816,378.8008,1284.73,378.9" style="stroke:#181818;stroke-width:1.0;"/><text fill="#000000" font-family="sans-serif" font-size="13" lengthAdjust="spacing" textLength="62" x="1115" y="300.5283">&#171;includes&#187;</text></g><!--link Use5 to Use3--><g id="link_Use5_Use3"><path d="M1084.04,405.5 C1124.67,405.5 1162.16,405.5 1201.67,405.5 " fill="none" id="Use5-to-Use3" style="stroke:#181818;stroke-width:1.0;stroke-dasharray:7.0,7.0;"/><polygon fill="#181818" points="1207.67,405.5,1198.67,401.5,1202.67,405.5,1198.67,409.5,1207.67,405.5" style="stroke:#181818;stroke-width:1.0;"/><text fill="#000000" font-family="sans-serif" font-size="13" lengthAdjust="spacing" textLength="62" x="1115" y="401.5283">&#171;includes&#187;</text></g><!--link Use7 to Use6--><g id="link_Use7_Use6"><path d="M524.39,59.49 C564.35,67.39 608.49,77.69 648,90.5 C727.25,116.19 808.7066,154.9309 864.0966,183.2209 " fill="none" id="Use7-to-Use6" style="stroke:#181818;stroke-width:1.0;stroke-dasharray:7.0,7.0;"/><polygon fill="#181818" points="869.44,185.95,863.2443,178.2941,864.9872,183.6757,859.6055,185.4186,869.44,185.95" style="stroke:#181818;stroke-width:1.0;"/><text fill="#000000" font-family="sans-serif" font-size="13" lengthAdjust="spacing" textLength="62" x="679" y="97.5283">&#171;includes&#187;</text></g><!--link Use8 to Use6--><g id="link_Use8_Use6"><path d="M502.55,151.26 C588.34,164.45 705.0897,182.388 796.5197,196.448 " fill="none" id="Use8-to-Use6" style="stroke:#181818;stroke-width:1.0;stroke-dasharray:7.0,7.0;"/><polygon fill="#181818" points="802.45,197.36,794.1625,192.0385,797.5081,196.6,792.9466,199.9456,802.45,197.36" style="stroke:#181818;stroke-width:1.0;"/><text fill="#000000" font-family="sans-serif" font-size="13" lengthAdjust="spacing" textLength="62" x="679" y="174.5283">&#171;includes&#187;</text></g><!--link Use9 to Use6--><g id="link_Use9_Use6"><path d="M595.29,289.49 C643.38,280.99 694.65,271.4 742,261.5 C770.15,255.61 794.7003,249.9492 822.5503,243.1692 " fill="none" id="Use9-to-Use6" style="stroke:#181818;stroke-width:1.0;stroke-dasharray:7.0,7.0;"/><polygon fill="#181818" points="828.38,241.75,818.6892,239.9924,823.5219,242.9327,820.5816,247.7653,828.38,241.75" style="stroke:#181818;stroke-width:1.0;"/><text fill="#000000" font-family="sans-serif" font-size="13" lengthAdjust="spacing" textLength="62" x="679" y="257.5283">&#171;includes&#187;</text></g><!--SRC=[XPBBRjim44Nt_8hPDLxOZb-IB0G6adn0YgPU1umuaebGf41ITlttvSEM8ZLnDnHuPyxC7Mf-7AnjJ3wVDu9AszPYLgXwtXgS5jGTZDDAqve8B2rO1PfN1mkCQomiLvAO3ouRwZA05bRfLtiM2FI4HjNuAVZeWq-q-AYqQYLxLa9fU1TE82H_P3MNt5XDNL8Er41GIFvJdL33tc1Km_NDNqd-IwaQNaxo4lBNjt0bv6x_Uh-Oxv_l5pdyLb0eMVAgrGW7vSO2eGhghKyyT-UgBIO1MNfa6H3A64WyWVPDtD3sS84xPXcPbMTMWQdGWd130Fvn9vTLe4r7h2AnziGw40nBBX4CIkCUmvwRllmw9c-EmTHcO8hXaHVeRT7GeeCs4KeyaWmzgVA26U1op2MHInsNTfrew7Nrvdl50XsLHYfpL7OPnsq0FrAB_oPdCNdhahUtd7KF3NvF6cJmVeQobM7NgE3sF7odxOIGi2imdUwkFtCeBCV2QYoiny9cB2HZ8HqBsLZmplfzXMdRzCM_r9DlzFGRtNKa_TOF2v7uXTdiEd8E3mzS5g9bQ7Ox4etSZgTzFFagdlqdlhqH_mi0]--></g></svg>