<?xml version="1.0" encoding="us-ascii" standalone="no"?><svg xmlns="http://www.w3.org/2000/svg" xmlns:xlink="http://www.w3.org/1999/xlink" contentStyleType="text/css" height="448px" preserveAspectRatio="none" style="width:795px;height:448px;background:#FFFFFF;" version="1.1" viewBox="0 0 795 448" width="795px" zoomAndPan="magnify"><defs/><g><!--entity Admin--><g id="elem_Admin"><ellipse cx="47.5" cy="196" fill="#F1F1F1" rx="8" ry="8" style="stroke:#181818;stroke-width:0.5;"/><path d="M47.5,204 L47.5,231 M34.5,212 L60.5,212 M47.5,231 L34.5,246 M47.5,231 L60.5,246 " fill="none" style="stroke:#181818;stroke-width:0.5;"/><text fill="#000000" font-family="sans-serif" font-size="14" lengthAdjust="spacing" textLength="83" x="6" y="262.6074">Administrator</text></g><!--entity Power_User--><g id="elem_Power_User"><ellipse cx="47.5" cy="373" fill="#F1F1F1" rx="8" ry="8" style="stroke:#181818;stroke-width:0.5;"/><path d="M47.5,381 L47.5,408 M34.5,389 L60.5,389 M47.5,408 L34.5,423 M47.5,408 L60.5,423 " fill="none" style="stroke:#181818;stroke-width:0.5;"/><text fill="#000000" font-family="sans-serif" font-size="14" lengthAdjust="spacing" textLength="72" x="11.5" y="439.6074">Power User</text></g><g id="elem_Use1"><ellipse cx="292.997" cy="36.8994" fill="#F1F1F1" rx="142.497" ry="30.8994" style="stroke:#181818;stroke-width:0.5;"/><text fill="#000000" font-family="sans-serif" font-size="14" lengthAdjust="spacing" textLength="251" x="167.497" y="40.6963">UC1: To configure location of the house</text></g><g id="elem_Use2"><ellipse cx="293.2135" cy="132.2427" fill="#F1F1F1" rx="131.7135" ry="28.7427" style="stroke:#181818;stroke-width:0.5;"/><text fill="#000000" font-family="sans-serif" font-size="14" lengthAdjust="spacing" textLength="228" x="179.2135" y="136.0396">UC2: To add new room to the house</text></g><g id="elem_Use3"><ellipse cx="674.6919" cy="131.8384" fill="#F1F1F1" rx="109.6919" ry="24.3384" style="stroke:#181818;stroke-width:0.5;"/><text fill="#000000" font-family="sans-serif" font-size="14" lengthAdjust="spacing" textLength="180" x="584.6919" y="135.6353">UC3: To configure new room</text></g><g id="elem_Use4"><ellipse cx="292.9684" cy="226.9937" fill="#F1F1F1" rx="142.9684" ry="30.9937" style="stroke:#181818;stroke-width:0.5;"/><text fill="#000000" font-family="sans-serif" font-size="14" lengthAdjust="spacing" textLength="252" x="166.9684" y="230.7906">UC4: To choose an existing room to edit</text></g><g id="elem_Use5"><ellipse cx="293.0539" cy="317.2108" fill="#F1F1F1" rx="106.5539" ry="23.7108" style="stroke:#181818;stroke-width:0.5;"/><text fill="#000000" font-family="sans-serif" font-size="14" lengthAdjust="spacing" textLength="173" x="206.5539" y="321.0077">UC5: To define sensor type</text></g><g id="elem_Use6"><ellipse cx="292.9926" cy="403.9985" fill="#F1F1F1" rx="127.9926" ry="27.9985" style="stroke:#181818;stroke-width:0.5;"/><text fill="#000000" font-family="sans-serif" font-size="14" lengthAdjust="spacing" textLength="220" x="182.9926" y="407.7954">UC6: To add new sensor to a room</text></g><g id="elem_Use7"><ellipse cx="674.6665" cy="403.8333" fill="#F1F1F1" rx="114.6665" ry="25.3333" style="stroke:#181818;stroke-width:0.5;"/><text fill="#000000" font-family="sans-serif" font-size="14" lengthAdjust="spacing" textLength="191" x="579.1665" y="407.6302">UC7: To configure new sensor</text></g><!--link Admin to Use1--><g id="link_Admin_Use1"><path d="M68.15,187.43 C85.66,155.9 114.06,112.73 150,86 C164.33,75.34 175.577,69.0677 192.547,62.3877 " fill="none" id="Admin-to-Use1" style="stroke:#181818;stroke-width:1.0;"/><polygon fill="#181818" points="198.13,60.19,188.2903,59.7645,193.4775,62.0214,191.2206,67.2085,198.13,60.19" style="stroke:#181818;stroke-width:1.0;"/></g><!--link Admin to Use2--><g id="link_Admin_Use2"><path d="M89.41,205.68 C107.69,196.56 129.66,186.16 150,178 C170.68,169.7 187.7914,163.6371 208.9614,156.7871 " fill="none" id="Admin-to-Use2" style="stroke:#181818;stroke-width:1.0;"/><polygon fill="#181818" points="214.67,154.94,204.8757,153.905,209.9128,156.4793,207.3385,161.5164,214.67,154.94" style="stroke:#181818;stroke-width:1.0;"/></g><!--link Admin to Use4--><g id="link_Admin_Use4"><path d="M89.26,227 C106.52,227 121.76,227 143.92,227 " fill="none" id="Admin-to-Use4" style="stroke:#181818;stroke-width:1.0;"/><polygon fill="#181818" points="149.92,227,140.92,223,144.92,227,140.92,231,149.92,227" style="stroke:#181818;stroke-width:1.0;"/></g><!--link Admin to Use5--><g id="link_Admin_Use5"><path d="M89.36,248.09 C107.63,257.05 129.6,267.21 150,275 C173.66,284.03 194.3635,290.6723 217.9835,297.4623 " fill="none" id="Admin-to-Use5" style="stroke:#181818;stroke-width:1.0;"/><polygon fill="#181818" points="223.75,299.12,216.2054,292.7892,218.9446,297.7386,213.9952,300.4778,223.75,299.12" style="stroke:#181818;stroke-width:1.0;"/></g><!--link Admin to Use6--><g id="link_Admin_Use6"><path d="M70.32,266.61 C88.22,295.71 116.1,334.18 150,358 C165.69,369.02 178.5243,375.5166 196.8743,382.0166 " fill="none" id="Admin-to-Use6" style="stroke:#181818;stroke-width:1.0;"/><polygon fill="#181818" points="202.53,384.02,195.3821,377.2445,197.8169,382.3505,192.7109,384.7854,202.53,384.02" style="stroke:#181818;stroke-width:1.0;"/></g><!--link Power_User to Use6--><g id="link_Power_User_Use6"><path d="M83.65,404 C105.44,404 128.92,404 158.83,404 " fill="none" id="Power_User-to-Use6" style="stroke:#181818;stroke-width:1.0;"/><polygon fill="#181818" points="164.83,404,155.83,400,159.83,404,155.83,408,164.83,404" style="stroke:#181818;stroke-width:1.0;"/></g><!--link Use2 to Use3--><g id="link_Use2_Use3"><path d="M424.6,132 C470.27,132 515.02,132 558.71,132 " fill="none" id="Use2-to-Use3" style="stroke:#181818;stroke-width:1.0;stroke-dasharray:7.0,7.0;"/><polygon fill="#181818" points="564.71,132,555.71,128,559.71,132,555.71,136,564.71,132" style="stroke:#181818;stroke-width:1.0;"/><text fill="#000000" font-family="sans-serif" font-size="13" lengthAdjust="spacing" textLength="62" x="467" y="128.0283">&#171;includes&#187;</text></g><!--link Use6 to Use7--><g id="link_Use6_Use7"><path d="M421.16,404 C466.07,404 510.25,404 553.96,404 " fill="none" id="Use6-to-Use7" style="stroke:#181818;stroke-width:1.0;stroke-dasharray:7.0,7.0;"/><polygon fill="#181818" points="559.96,404,550.96,400,554.96,404,550.96,408,559.96,404" style="stroke:#181818;stroke-width:1.0;"/><text fill="#000000" font-family="sans-serif" font-size="13" lengthAdjust="spacing" textLength="62" x="467" y="400.0283">&#171;includes&#187;</text></g><!--SRC=[RP51ReCm44NtFiNi6XQ0GY2HK8HKzG9TDElAiWUm11va6wMzVOqff91kaFprtlXxU6cT6soPfaF7jHlxBX7KfwF5M73_aOetXlUimzg18p2gQHr8PL0uHPgnybNsIYlh37TaIk0MGiBATxgZWPl5EGt7p-d863lSteubV108qhLgHeFGaU3JIA0QN8lGaYyHJUR1IyTeShBWS2b1unqCKJzrUgQpG9zsDopEYfq2bizOIsGHk0RyygzHkbdderHkTVBW5C6HM2kDO55RCk2-XqU38c3dJT-5yycsnpd0bt_gpieANYB6mdOXZgjbBziWsmVvFYZsWR_-yNF-flCyI9BgTrrGmlMgjEX6YRQgsCojmEK9O3y0]--></g></svg>