<?xml version="1.0" encoding="us-ascii" standalone="no"?><svg xmlns="http://www.w3.org/2000/svg" xmlns:xlink="http://www.w3.org/1999/xlink" contentStyleType="text/css" height="339px" preserveAspectRatio="none" style="width:814px;height:339px;background:#FFFFFF;" version="1.1" viewBox="0 0 814 339" width="814px" zoomAndPan="magnify"><defs/><g><rect fill="#DDDDDD" height="327.6973" style="stroke:#181818;stroke-width:0.5;" width="173" x="404.5" y="6"/><text fill="#000000" font-family="sans-serif" font-size="13" font-weight="bold" lengthAdjust="spacing" textLength="167" x="407.5" y="20.0283">SmartHome &#171;System (C4)&#187;</text><rect fill="#FFFFFF" height="117.1641" style="stroke:#181818;stroke-width:1.0;" width="10" x="21" y="116.9121"/><rect fill="#FFFFFF" height="117.1641" style="stroke:#181818;stroke-width:1.0;" width="10" x="486" y="116.9121"/><line style="stroke:#181818;stroke-width:0.5;stroke-dasharray:5.0,5.0;" x1="26" x2="26" y1="83.6211" y2="252.0762"/><line style="stroke:#181818;stroke-width:0.5;stroke-dasharray:5.0,5.0;" x1="490.5" x2="490.5" y1="83.6211" y2="252.0762"/><line style="stroke:#181818;stroke-width:0.5;stroke-dasharray:5.0,5.0;" x1="633" x2="633" y1="83.6211" y2="252.0762"/><text fill="#000000" font-family="sans-serif" font-size="14" lengthAdjust="spacing" textLength="36" x="5" y="80.1074">Client</text><ellipse cx="26" cy="13.5" fill="#E2E2F0" rx="8" ry="8" style="stroke:#181818;stroke-width:0.5;"/><path d="M26,21.5 L26,48.5 M13,29.5 L39,29.5 M26,48.5 L13,63.5 M26,48.5 L39,63.5 " fill="none" style="stroke:#181818;stroke-width:0.5;"/><text fill="#000000" font-family="sans-serif" font-size="14" lengthAdjust="spacing" textLength="36" x="5" y="266.1836">Client</text><ellipse cx="26" cy="278.1973" fill="#E2E2F0" rx="8" ry="8" style="stroke:#181818;stroke-width:0.5;"/><path d="M26,286.1973 L26,313.1973 M13,294.1973 L39,294.1973 M26,313.1973 L13,328.1973 M26,313.1973 L39,328.1973 " fill="none" style="stroke:#181818;stroke-width:0.5;"/><rect fill="#E2E2F0" height="51.2422" rx="2.5" ry="2.5" style="stroke:#181818;stroke-width:0.5;" width="121" x="430.5" y="31.3789"/><text fill="#000000" font-family="sans-serif" font-size="14" font-style="italic" lengthAdjust="spacing" textLength="107" x="437.5" y="53.4863">&#171;container (C4)&#187;</text><text fill="#000000" font-family="sans-serif" font-size="14" lengthAdjust="spacing" textLength="58" x="462" y="72.1074">Frontend</text><rect fill="#E2E2F0" height="51.2422" rx="2.5" ry="2.5" style="stroke:#181818;stroke-width:0.5;" width="121" x="430.5" y="251.0762"/><text fill="#000000" font-family="sans-serif" font-size="14" font-style="italic" lengthAdjust="spacing" textLength="107" x="437.5" y="273.1836">&#171;container (C4)&#187;</text><text fill="#000000" font-family="sans-serif" font-size="14" lengthAdjust="spacing" textLength="58" x="462" y="291.8047">Frontend</text><rect fill="#E2E2F0" height="32.6211" rx="2.5" ry="2.5" style="stroke:#181818;stroke-width:0.5;" width="18" x="624" y="50"/><text fill="#000000" font-family="sans-serif" font-size="14" lengthAdjust="spacing" textLength="4" x="631" y="72.1074">&#160;</text><rect fill="#E2E2F0" height="32.6211" rx="2.5" ry="2.5" style="stroke:#181818;stroke-width:0.5;" width="18" x="624" y="251.0762"/><text fill="#000000" font-family="sans-serif" font-size="14" lengthAdjust="spacing" textLength="4" x="631" y="273.1836">&#160;</text><rect fill="#FFFFFF" height="117.1641" style="stroke:#181818;stroke-width:1.0;" width="10" x="21" y="116.9121"/><rect fill="#FFFFFF" height="117.1641" style="stroke:#181818;stroke-width:1.0;" width="10" x="486" y="116.9121"/><polygon fill="#181818" points="474,112.9121,484,116.9121,474,120.9121,478,116.9121" style="stroke:#181818;stroke-width:1.0;"/><line style="stroke:#181818;stroke-width:1.0;" x1="31" x2="480" y1="116.9121" y2="116.9121"/><text fill="#000000" font-family="sans-serif" font-size="13" font-weight="bold" lengthAdjust="spacing" textLength="7" x="38" y="111.6494">1</text><text fill="#000000" font-family="sans-serif" font-size="13" lengthAdjust="spacing" textLength="408" x="49" y="111.6494">I want to have today&#8217;s sunrise and sunset hours on the front/main page</text><ellipse cx="632.5" cy="159.0986" fill="none" rx="4" ry="4" style="stroke:#181818;stroke-width:1.5;"/><polygon fill="#181818" points="615.5,155.8486,625.5,159.8486,615.5,163.8486,619.5,159.8486" style="stroke:#181818;stroke-width:1.0;"/><line style="stroke:#181818;stroke-width:1.0;" x1="496" x2="621.5" y1="159.8486" y2="159.8486"/><text fill="#000000" font-family="sans-serif" font-size="13" font-weight="bold" lengthAdjust="spacing" textLength="7" x="503" y="154.5859">2</text><text fill="#000000" font-family="sans-serif" font-size="13" lengthAdjust="spacing" textLength="80" x="514" y="154.5859">GET/ suntime</text><path d="M638,129.9121 L638,173.9121 L807,173.9121 L807,139.9121 L797,129.9121 L638,129.9121 " fill="#FEFFDD" style="stroke:#181818;stroke-width:0.5;"/><path d="M797,129.9121 L797,139.9121 L807,139.9121 L797,129.9121 " fill="#FEFFDD" style="stroke:#181818;stroke-width:0.5;"/><text fill="#000000" font-family="sans-serif" font-size="13" lengthAdjust="spacing" textLength="148" x="644" y="148.9404">Frontend sends a request</text><text fill="#000000" font-family="sans-serif" font-size="13" lengthAdjust="spacing" textLength="104" x="644" y="166.2314">to an external API</text><polygon fill="#181818" points="507,198.7852,497,202.7852,507,206.7852,503,202.7852" style="stroke:#181818;stroke-width:1.0;"/><ellipse cx="632.5" cy="202.0352" fill="none" rx="4" ry="4" style="stroke:#181818;stroke-width:1.5;"/><line style="stroke:#181818;stroke-width:1.0;stroke-dasharray:2.0,2.0;" x1="501" x2="628" y1="202.7852" y2="202.7852"/><text fill="#000000" font-family="sans-serif" font-size="13" font-weight="bold" lengthAdjust="spacing" textLength="7" x="513" y="197.5225">3</text><text fill="#000000" font-family="sans-serif" font-size="13" lengthAdjust="spacing" textLength="59" x="524" y="197.5225">JSON 200</text><polygon fill="#181818" points="37,230.0762,27,234.0762,37,238.0762,33,234.0762" style="stroke:#181818;stroke-width:1.0;"/><line style="stroke:#181818;stroke-width:1.0;stroke-dasharray:2.0,2.0;" x1="31" x2="490" y1="234.0762" y2="234.0762"/><text fill="#000000" font-family="sans-serif" font-size="13" font-weight="bold" lengthAdjust="spacing" textLength="7" x="43" y="228.8135">4</text><text fill="#000000" font-family="sans-serif" font-size="13" lengthAdjust="spacing" textLength="180" x="54" y="228.8135">show sunrise and sunset hours</text><!--SRC=[TL1BJiCm4Dtx54Csm2AaGgogA1AgMYWBG2eSO9eCYQNO3lQudntNu7gSX75AHIM45_PytyVd7VCGfaKnz6WvclwgTgO8z1x9rfGt6bkFHfqD7bk3qEFUHOPWYD6YKXZPsMZMv1NMx3nairwJvGmmm6kGyjhj85iPz7pl345PhlQ1oS35xEQogZ85SWRfwbeFeW2oXNUMoJOZn69UbhNag2tvdnqbJH3Olwimxjm-BvLIYHpoIX1W2alOfW5sqE66v6rm__Nn6I14wtKWG86KE113vw8Fu2nmH_2Mn1H6w8MffMHIRv19O7_ZqQSIehnoYLq8x-OlHG9aRKXP9qDUjnshepa8SWL0yEcd0okHXXPen-GjzgE7D9PMnKm2TVdHpSFgwH6k9nDr89NoQ7OAeNFRVosfXaxLdsG7_Ty0]--></g></svg>