<?xml version="1.0" encoding="us-ascii" standalone="no"?><svg xmlns="http://www.w3.org/2000/svg" xmlns:xlink="http://www.w3.org/1999/xlink" contentStyleType="text/css" height="1137px" preserveAspectRatio="none" style="width:2347px;height:1137px;background:#FFFFFF;" version="1.1" viewBox="0 0 2347 1137" width="2347px" zoomAndPan="magnify"><defs/><g><!--cluster domain--><g id="cluster_domain"><path d="M16.5,4 L68.5,4 A3.75,3.75 0 0 1 71,6.5 L78,28.6211 L2337.5,28.6211 A2.5,2.5 0 0 1 2340,31.1211 L2340,1127.5 A2.5,2.5 0 0 1 2337.5,1130 L16.5,1130 A2.5,2.5 0 0 1 14,1127.5 L14,6.5 A2.5,2.5 0 0 1 16.5,4 " fill="none" style="stroke:#000000;stroke-width:1.5;"/><line style="stroke:#000000;stroke-width:1.5;" x1="14" x2="78" y1="28.6211" y2="28.6211"/><text fill="#000000" font-family="sans-serif" font-size="14" font-weight="bold" lengthAdjust="spacing" textLength="51" x="18" y="21.1074">domain</text></g><!--cluster Sensor--><g id="cluster_Sensor"><path d="M24.5,33 L75.5,33 A3.75,3.75 0 0 1 78,35.5 L85,57.6211 L2329.5,57.6211 A2.5,2.5 0 0 1 2332,60.1211 L2332,760.5 A2.5,2.5 0 0 1 2329.5,763 L24.5,763 A2.5,2.5 0 0 1 22,760.5 L22,35.5 A2.5,2.5 0 0 1 24.5,33 " fill="none" style="stroke:#000000;stroke-width:1.5;"/><line style="stroke:#000000;stroke-width:1.5;" x1="22" x2="85" y1="57.6211" y2="57.6211"/><text fill="#000000" font-family="sans-serif" font-size="14" font-weight="bold" lengthAdjust="spacing" textLength="50" x="26" y="50.1074">Sensor</text></g><!--cluster InstantPowerConsumptionSensor--><g id="cluster_InstantPowerConsumptionSensor"><path d="M868.5,174 L1104.5,174 A3.75,3.75 0 0 1 1107,176.5 L1114,198.6211 L2321.5,198.6211 A2.5,2.5 0 0 1 2324,201.1211 L2324,729.5 A2.5,2.5 0 0 1 2321.5,732 L868.5,732 A2.5,2.5 0 0 1 866,729.5 L866,176.5 A2.5,2.5 0 0 1 868.5,174 " fill="none" style="stroke:#000000;stroke-width:1.5;"/><line style="stroke:#000000;stroke-width:1.5;" x1="866" x2="1114" y1="198.6211" y2="198.6211"/><text fill="#000000" font-family="sans-serif" font-size="14" font-weight="bold" lengthAdjust="spacing" textLength="235" x="870" y="191.1074">InstantPowerConsumptionSensor</text></g><!--cluster ddd--><g id="cluster_ddd"><path d="M1321.5,782 L1349.5,782 A3.75,3.75 0 0 1 1352,784.5 L1359,806.6211 L1460.5,806.6211 A2.5,2.5 0 0 1 1463,809.1211 L1463,1119.5 A2.5,2.5 0 0 1 1460.5,1122 L1321.5,1122 A2.5,2.5 0 0 1 1319,1119.5 L1319,784.5 A2.5,2.5 0 0 1 1321.5,782 " fill="none" style="stroke:#000000;stroke-width:1.5;"/><line style="stroke:#000000;stroke-width:1.5;" x1="1319" x2="1359" y1="806.6211" y2="806.6211"/><text fill="#000000" font-family="sans-serif" font-size="14" font-weight="bold" lengthAdjust="spacing" textLength="27" x="1323" y="799.1074">ddd</text></g><!--class SensorFactory--><g id="elem_SensorFactory"><rect codeLine="5" fill="#F1F1F1" height="66.6211" id="SensorFactory" rx="2.5" ry="2.5" style="stroke:#181818;stroke-width:0.5;" width="828" x="30" y="329"/><ellipse cx="393.25" cy="345" fill="#B4A7E5" rx="11" ry="11" style="stroke:#181818;stroke-width:1.0;"/><path d="M394.2031,341.6406 L394.2031,348.2969 L395.9219,348.2969 Q396.5313,348.2969 396.7969,348.5313 Q397.0625,348.7656 397.0625,349.1563 Q397.0625,349.5313 396.7969,349.7656 Q396.5313,350 395.9219,350 L390.7813,350 Q390.1719,350 389.9063,349.7656 Q389.6406,349.5313 389.6406,349.1406 Q389.6406,348.7656 389.9063,348.5313 Q390.1719,348.2969 390.7813,348.2969 L392.5,348.2969 L392.5,341.6406 L390.7813,341.6406 Q390.1719,341.6406 389.9063,341.4063 Q389.6406,341.1719 389.6406,340.7813 Q389.6406,340.4063 389.9063,340.1719 Q390.1719,339.9375 390.7813,339.9375 L395.9219,339.9375 Q396.5313,339.9375 396.7969,340.1719 Q397.0625,340.4063 397.0625,340.7813 Q397.0625,341.1719 396.7969,341.4063 Q396.5313,341.6406 395.9219,341.6406 L394.2031,341.6406 Z " fill="#000000"/><text fill="#000000" font-family="sans-serif" font-size="14" font-style="italic" lengthAdjust="spacing" textLength="93" x="413.75" y="350.7969">SensorFactory</text><line style="stroke:#181818;stroke-width:0.5;" x1="31" x2="857" y1="361" y2="361"/><line style="stroke:#181818;stroke-width:0.5;" x1="31" x2="857" y1="369" y2="369"/><ellipse cx="41" cy="383.8105" fill="#84BE84" rx="3" ry="3" style="stroke:#038048;stroke-width:1.0;"/><text fill="#000000" font-family="sans-serif" font-size="14" lengthAdjust="spacing" textLength="802" x="50" y="388.1074">createSensor(deviceID : DeviceID, modelPath : ModelPath, sensorTypeID : SensorTypeID, sensorName : SensorName): Sensor</text></g><!--class SensorFactoryImpl--><g id="elem_SensorFactoryImpl"><rect codeLine="9" fill="#F1F1F1" height="66.6211" id="SensorFactoryImpl" rx="2.5" ry="2.5" style="stroke:#181818;stroke-width:0.5;" width="828" x="490" y="62"/><ellipse cx="840.75" cy="78" fill="#ADD1B2" rx="11" ry="11" style="stroke:#181818;stroke-width:1.0;"/><path d="M843.5156,73.875 Q843.6719,73.6563 843.8594,73.5469 Q844.0469,73.4375 844.2656,73.4375 Q844.6406,73.4375 844.875,73.7031 Q845.1094,73.9531 845.1094,74.5625 L845.1094,76.0156 Q845.1094,76.625 844.875,76.8906 Q844.6406,77.1563 844.2656,77.1563 Q843.9219,77.1563 843.7188,76.9531 Q843.5156,76.7656 843.4063,76.25 Q843.3594,75.8906 843.1719,75.7031 Q842.8438,75.3281 842.2344,75.1094 Q841.625,74.8906 841,74.8906 Q840.2344,74.8906 839.5938,75.2188 Q838.9688,75.5469 838.4688,76.2969 Q837.9844,77.0469 837.9844,78.0781 L837.9844,79.1719 Q837.9844,80.4063 838.875,81.2344 Q839.7656,82.0469 841.3594,82.0469 Q842.2969,82.0469 842.9531,81.7969 Q843.3438,81.6406 843.7656,81.2031 Q844.0313,80.9375 844.1719,80.8594 Q844.3281,80.7813 844.5313,80.7813 Q844.8594,80.7813 845.1094,81.0469 Q845.375,81.2969 845.375,81.6406 Q845.375,81.9844 845.0313,82.3906 Q844.5313,82.9688 843.7344,83.2969 Q842.6563,83.75 841.3594,83.75 Q839.8438,83.75 838.6406,83.125 Q837.6563,82.625 836.9688,81.5625 Q836.2813,80.4844 836.2813,79.2031 L836.2813,78.0469 Q836.2813,76.7188 836.8906,75.5781 Q837.5156,74.4219 838.6094,73.8125 Q839.7031,73.1875 840.9375,73.1875 Q841.6719,73.1875 842.3125,73.3594 Q842.9688,73.5156 843.5156,73.875 Z " fill="#000000"/><text fill="#000000" font-family="sans-serif" font-size="14" lengthAdjust="spacing" textLength="118" x="861.25" y="83.7969">SensorFactoryImpl</text><line style="stroke:#181818;stroke-width:0.5;" x1="491" x2="1317" y1="94" y2="94"/><line style="stroke:#181818;stroke-width:0.5;" x1="491" x2="1317" y1="102" y2="102"/><ellipse cx="501" cy="116.8105" fill="#84BE84" rx="3" ry="3" style="stroke:#038048;stroke-width:1.0;"/><text fill="#000000" font-family="sans-serif" font-size="14" lengthAdjust="spacing" textLength="802" x="510" y="121.1074">createSensor(deviceID : DeviceID, modelPath : ModelPath, sensorTypeID : SensorTypeID, sensorName : SensorName): Sensor</text></g><!--class Sensor--><g id="elem_Sensor"><rect codeLine="13" fill="#F1F1F1" height="178.3477" id="Sensor" rx="2.5" ry="2.5" style="stroke:#181818;stroke-width:0.5;" width="244" x="612" y="577"/><ellipse cx="707.25" cy="593" fill="#B4A7E5" rx="11" ry="11" style="stroke:#181818;stroke-width:1.0;"/><path d="M708.2031,589.6406 L708.2031,596.2969 L709.9219,596.2969 Q710.5313,596.2969 710.7969,596.5313 Q711.0625,596.7656 711.0625,597.1563 Q711.0625,597.5313 710.7969,597.7656 Q710.5313,598 709.9219,598 L704.7813,598 Q704.1719,598 703.9063,597.7656 Q703.6406,597.5313 703.6406,597.1406 Q703.6406,596.7656 703.9063,596.5313 Q704.1719,596.2969 704.7813,596.2969 L706.5,596.2969 L706.5,589.6406 L704.7813,589.6406 Q704.1719,589.6406 703.9063,589.4063 Q703.6406,589.1719 703.6406,588.7813 Q703.6406,588.4063 703.9063,588.1719 Q704.1719,587.9375 704.7813,587.9375 L709.9219,587.9375 Q710.5313,587.9375 710.7969,588.1719 Q711.0625,588.4063 711.0625,588.7813 Q711.0625,589.1719 710.7969,589.4063 Q710.5313,589.6406 709.9219,589.6406 L708.2031,589.6406 Z " fill="#000000"/><text fill="#000000" font-family="sans-serif" font-size="14" font-style="italic" lengthAdjust="spacing" textLength="45" x="727.75" y="598.7969">Sensor</text><line style="stroke:#181818;stroke-width:0.5;" x1="613" x2="855" y1="609" y2="609"/><line style="stroke:#181818;stroke-width:0.5;" x1="613" x2="855" y1="617" y2="617"/><ellipse cx="623" cy="631.8105" fill="#84BE84" rx="3" ry="3" style="stroke:#038048;stroke-width:1.0;"/><text fill="#000000" font-family="sans-serif" font-size="14" lengthAdjust="spacing" textLength="109" x="632" y="636.1074">getID(): SensorID</text><ellipse cx="623" cy="650.4316" fill="#84BE84" rx="3" ry="3" style="stroke:#038048;stroke-width:1.0;"/><text fill="#000000" font-family="sans-serif" font-size="14" lengthAdjust="spacing" textLength="155" x="632" y="654.7285">getName(): SensorName</text><ellipse cx="623" cy="669.0527" fill="#84BE84" rx="3" ry="3" style="stroke:#038048;stroke-width:1.0;"/><text fill="#000000" font-family="sans-serif" font-size="14" lengthAdjust="spacing" textLength="172" x="632" y="673.3496">getModelPath(): ModelPath</text><ellipse cx="623" cy="687.6738" fill="#84BE84" rx="3" ry="3" style="stroke:#038048;stroke-width:1.0;"/><text fill="#000000" font-family="sans-serif" font-size="14" lengthAdjust="spacing" textLength="218" x="632" y="691.9707">getSensorTypeID(): SensorTypeID</text><ellipse cx="623" cy="706.2949" fill="#84BE84" rx="3" ry="3" style="stroke:#038048;stroke-width:1.0;"/><text fill="#000000" font-family="sans-serif" font-size="14" lengthAdjust="spacing" textLength="150" x="632" y="710.5918">getDeviceID(): DeviceID</text><ellipse cx="623" cy="724.916" fill="#84BE84" rx="3" ry="3" style="stroke:#038048;stroke-width:1.0;"/><text fill="#000000" font-family="sans-serif" font-size="14" lengthAdjust="spacing" textLength="151" x="632" y="729.2129">getValue(): ValueObject</text><ellipse cx="623" cy="743.5371" fill="#84BE84" rx="3" ry="3" style="stroke:#038048;stroke-width:1.0;"/><text fill="#000000" font-family="sans-serif" font-size="14" lengthAdjust="spacing" textLength="104" x="632" y="747.834">toString(): String</text></g><!--class InstantPowerConsumptionSensor--><g id="elem_InstantPowerConsumptionSensor"><rect codeLine="25" fill="#F1F1F1" height="318.6172" id="InstantPowerConsumptionSensor" rx="2.5" ry="2.5" style="stroke:#181818;stroke-width:0.5;" width="899" x="913.5" y="203"/><ellipse cx="1254.25" cy="233.2715" fill="#ADD1B2" rx="11" ry="11" style="stroke:#181818;stroke-width:1.0;"/><path d="M1257.0156,229.1465 Q1257.1719,228.9277 1257.3594,228.8184 Q1257.5469,228.709 1257.7656,228.709 Q1258.1406,228.709 1258.375,228.9746 Q1258.6094,229.2246 1258.6094,229.834 L1258.6094,231.2871 Q1258.6094,231.8965 1258.375,232.1621 Q1258.1406,232.4277 1257.7656,232.4277 Q1257.4219,232.4277 1257.2188,232.2246 Q1257.0156,232.0371 1256.9063,231.5215 Q1256.8594,231.1621 1256.6719,230.9746 Q1256.3438,230.5996 1255.7344,230.3809 Q1255.125,230.1621 1254.5,230.1621 Q1253.7344,230.1621 1253.0938,230.4902 Q1252.4688,230.8184 1251.9688,231.5684 Q1251.4844,232.3184 1251.4844,233.3496 L1251.4844,234.4434 Q1251.4844,235.6777 1252.375,236.5059 Q1253.2656,237.3184 1254.8594,237.3184 Q1255.7969,237.3184 1256.4531,237.0684 Q1256.8438,236.9121 1257.2656,236.4746 Q1257.5313,236.209 1257.6719,236.1309 Q1257.8281,236.0527 1258.0313,236.0527 Q1258.3594,236.0527 1258.6094,236.3184 Q1258.875,236.5684 1258.875,236.9121 Q1258.875,237.2559 1258.5313,237.6621 Q1258.0313,238.2402 1257.2344,238.5684 Q1256.1563,239.0215 1254.8594,239.0215 Q1253.3438,239.0215 1252.1406,238.3965 Q1251.1563,237.8965 1250.4688,236.834 Q1249.7813,235.7559 1249.7813,234.4746 L1249.7813,233.3184 Q1249.7813,231.9902 1250.3906,230.8496 Q1251.0156,229.6934 1252.1094,229.084 Q1253.2031,228.459 1254.4375,228.459 Q1255.1719,228.459 1255.8125,228.6309 Q1256.4688,228.7871 1257.0156,229.1465 Z " fill="#000000"/><text fill="#000000" font-family="sans-serif" font-size="12" font-style="italic" lengthAdjust="spacing" textLength="43" x="1357.75" y="220.9492">&#171;entity&#187;</text><text fill="#000000" font-family="sans-serif" font-size="12" font-style="italic" lengthAdjust="spacing" textLength="40" x="1359.25" y="236.9102">&#171;Root&#187;</text><text fill="#000000" font-family="sans-serif" font-size="14" lengthAdjust="spacing" textLength="209" x="1274.75" y="255.0293">InstantPowerConsumptionSensor</text><line style="stroke:#181818;stroke-width:0.5;" x1="914.5" x2="1811.5" y1="263.543" y2="263.543"/><rect fill="none" height="6" style="stroke:#C82930;stroke-width:1.0;" width="6" x="921.5" y="275.3535"/><text fill="#000000" font-family="sans-serif" font-size="14" lengthAdjust="spacing" textLength="154" x="933.5" y="282.6504">_modelPath : ModelPath</text><rect fill="none" height="6" style="stroke:#C82930;stroke-width:1.0;" width="6" x="921.5" y="293.9746"/><text fill="#000000" font-family="sans-serif" font-size="14" lengthAdjust="spacing" textLength="180" x="933.5" y="301.2715">_sensorName : SensorName</text><rect fill="none" height="6" style="stroke:#C82930;stroke-width:1.0;" width="6" x="921.5" y="312.5957"/><text fill="#000000" font-family="sans-serif" font-size="14" lengthAdjust="spacing" textLength="134" x="933.5" y="319.8926">_sensorID : SensorID</text><rect fill="none" height="6" style="stroke:#C82930;stroke-width:1.0;" width="6" x="921.5" y="331.2168"/><text fill="#000000" font-family="sans-serif" font-size="14" lengthAdjust="spacing" textLength="198" x="933.5" y="338.5137">_sensorTypeID : SensorTypeID</text><rect fill="none" height="6" style="stroke:#C82930;stroke-width:1.0;" width="6" x="921.5" y="349.8379"/><text fill="#000000" font-family="sans-serif" font-size="14" lengthAdjust="spacing" textLength="313" x="933.5" y="357.1348">_dewPointValue : InstantPowerConsumptionValue</text><rect fill="none" height="6" style="stroke:#C82930;stroke-width:1.0;" width="6" x="921.5" y="368.459"/><text fill="#000000" font-family="sans-serif" font-size="14" lengthAdjust="spacing" textLength="130" x="933.5" y="375.7559">_deviceID : DeviceID</text><line style="stroke:#181818;stroke-width:0.5;" x1="914.5" x2="1811.5" y1="383.2695" y2="383.2695"/><ellipse cx="924.5" cy="398.0801" fill="#84BE84" rx="3" ry="3" style="stroke:#038048;stroke-width:1.0;"/><text fill="#000000" font-family="sans-serif" font-size="14" lengthAdjust="spacing" textLength="873" x="933.5" y="402.377">InstantPowerConsumptionSensor(deviceID : DeviceID, modelPath : ModelPath, sensorTypeID : SensorTypeID, sensorName : SensorName)</text><ellipse cx="924.5" cy="416.7012" fill="#84BE84" rx="3" ry="3" style="stroke:#038048;stroke-width:1.0;"/><text fill="#000000" font-family="sans-serif" font-size="14" lengthAdjust="spacing" textLength="117" x="933.5" y="420.998">getID () : SensorID</text><ellipse cx="924.5" cy="435.3223" fill="#84BE84" rx="3" ry="3" style="stroke:#038048;stroke-width:1.0;"/><text fill="#000000" font-family="sans-serif" font-size="14" lengthAdjust="spacing" textLength="163" x="933.5" y="439.6191">getName () : SensorName</text><ellipse cx="924.5" cy="453.9434" fill="#84BE84" rx="3" ry="3" style="stroke:#038048;stroke-width:1.0;"/><text fill="#000000" font-family="sans-serif" font-size="14" lengthAdjust="spacing" textLength="180" x="933.5" y="458.2402">getModelPath () : ModelPath</text><ellipse cx="924.5" cy="472.5645" fill="#84BE84" rx="3" ry="3" style="stroke:#038048;stroke-width:1.0;"/><text fill="#000000" font-family="sans-serif" font-size="14" lengthAdjust="spacing" textLength="226" x="933.5" y="476.8613">getSensorTypeID () : SensorTypeID</text><ellipse cx="924.5" cy="491.1855" fill="#84BE84" rx="3" ry="3" style="stroke:#038048;stroke-width:1.0;"/><text fill="#000000" font-family="sans-serif" font-size="14" lengthAdjust="spacing" textLength="159" x="933.5" y="495.4824">getValue () : ValueObject</text><ellipse cx="924.5" cy="509.8066" fill="#84BE84" rx="3" ry="3" style="stroke:#038048;stroke-width:1.0;"/><text fill="#000000" font-family="sans-serif" font-size="14" lengthAdjust="spacing" textLength="158" x="933.5" y="514.1035">getDeviceID () : DeviceID</text></g><!--class SensorName--><g id="elem_SensorName"><rect codeLine="42" fill="#F1F1F1" height="116.4453" id="SensorName" rx="2.5" ry="2.5" style="stroke:#181818;stroke-width:0.5;" width="201" x="874.5" y="608"/><ellipse cx="930.25" cy="630.291" fill="#ADD1B2" rx="11" ry="11" style="stroke:#181818;stroke-width:1.0;"/><path d="M933.0156,626.166 Q933.1719,625.9473 933.3594,625.8379 Q933.5469,625.7285 933.7656,625.7285 Q934.1406,625.7285 934.375,625.9941 Q934.6094,626.2441 934.6094,626.8535 L934.6094,628.3066 Q934.6094,628.916 934.375,629.1816 Q934.1406,629.4473 933.7656,629.4473 Q933.4219,629.4473 933.2188,629.2441 Q933.0156,629.0566 932.9063,628.541 Q932.8594,628.1816 932.6719,627.9941 Q932.3438,627.6191 931.7344,627.4004 Q931.125,627.1816 930.5,627.1816 Q929.7344,627.1816 929.0938,627.5098 Q928.4688,627.8379 927.9688,628.5879 Q927.4844,629.3379 927.4844,630.3691 L927.4844,631.4629 Q927.4844,632.6973 928.375,633.5254 Q929.2656,634.3379 930.8594,634.3379 Q931.7969,634.3379 932.4531,634.0879 Q932.8438,633.9316 933.2656,633.4941 Q933.5313,633.2285 933.6719,633.1504 Q933.8281,633.0723 934.0313,633.0723 Q934.3594,633.0723 934.6094,633.3379 Q934.875,633.5879 934.875,633.9316 Q934.875,634.2754 934.5313,634.6816 Q934.0313,635.2598 933.2344,635.5879 Q932.1563,636.041 930.8594,636.041 Q929.3438,636.041 928.1406,635.416 Q927.1563,634.916 926.4688,633.8535 Q925.7813,632.7754 925.7813,631.4941 L925.7813,630.3379 Q925.7813,629.0098 926.3906,627.8691 Q927.0156,626.7129 928.1094,626.1035 Q929.2031,625.4785 930.4375,625.4785 Q931.1719,625.4785 931.8125,625.6504 Q932.4688,625.8066 933.0156,626.166 Z " fill="#000000"/><text fill="#000000" font-family="sans-serif" font-size="12" font-style="italic" lengthAdjust="spacing" textLength="82" x="950.25" y="625.9492">&#171;ValueObject&#187;</text><text fill="#000000" font-family="sans-serif" font-size="14" lengthAdjust="spacing" textLength="81" x="950.75" y="644.0684">SensorName</text><line style="stroke:#181818;stroke-width:0.5;" x1="875.5" x2="1074.5" y1="652.582" y2="652.582"/><rect fill="none" height="6" style="stroke:#C82930;stroke-width:1.0;" width="6" x="882.5" y="664.3926"/><text fill="#000000" font-family="sans-serif" font-size="14" lengthAdjust="spacing" textLength="88" x="894.5" y="671.6895">_name: String</text><line style="stroke:#181818;stroke-width:0.5;" x1="875.5" x2="1074.5" y1="679.2031" y2="679.2031"/><ellipse cx="885.5" cy="694.0137" fill="#84BE84" rx="3" ry="3" style="stroke:#038048;stroke-width:1.0;"/><text fill="#000000" font-family="sans-serif" font-size="14" lengthAdjust="spacing" textLength="175" x="894.5" y="698.3105">SensorName(name : String)</text><ellipse cx="885.5" cy="712.6348" fill="#84BE84" rx="3" ry="3" style="stroke:#038048;stroke-width:1.0;"/><text fill="#000000" font-family="sans-serif" font-size="14" lengthAdjust="spacing" textLength="115" x="894.5" y="716.9316">getName() : String</text></g><!--class SensorID--><g id="elem_SensorID"><rect codeLine="48" fill="#F1F1F1" height="116.4453" id="SensorID" rx="2.5" ry="2.5" style="stroke:#181818;stroke-width:0.5;" width="199" x="1374.5" y="608"/><ellipse cx="1436.25" cy="630.291" fill="#ADD1B2" rx="11" ry="11" style="stroke:#181818;stroke-width:1.0;"/><path d="M1439.0156,626.166 Q1439.1719,625.9473 1439.3594,625.8379 Q1439.5469,625.7285 1439.7656,625.7285 Q1440.1406,625.7285 1440.375,625.9941 Q1440.6094,626.2441 1440.6094,626.8535 L1440.6094,628.3066 Q1440.6094,628.916 1440.375,629.1816 Q1440.1406,629.4473 1439.7656,629.4473 Q1439.4219,629.4473 1439.2188,629.2441 Q1439.0156,629.0566 1438.9063,628.541 Q1438.8594,628.1816 1438.6719,627.9941 Q1438.3438,627.6191 1437.7344,627.4004 Q1437.125,627.1816 1436.5,627.1816 Q1435.7344,627.1816 1435.0938,627.5098 Q1434.4688,627.8379 1433.9688,628.5879 Q1433.4844,629.3379 1433.4844,630.3691 L1433.4844,631.4629 Q1433.4844,632.6973 1434.375,633.5254 Q1435.2656,634.3379 1436.8594,634.3379 Q1437.7969,634.3379 1438.4531,634.0879 Q1438.8438,633.9316 1439.2656,633.4941 Q1439.5313,633.2285 1439.6719,633.1504 Q1439.8281,633.0723 1440.0313,633.0723 Q1440.3594,633.0723 1440.6094,633.3379 Q1440.875,633.5879 1440.875,633.9316 Q1440.875,634.2754 1440.5313,634.6816 Q1440.0313,635.2598 1439.2344,635.5879 Q1438.1563,636.041 1436.8594,636.041 Q1435.3438,636.041 1434.1406,635.416 Q1433.1563,634.916 1432.4688,633.8535 Q1431.7813,632.7754 1431.7813,631.4941 L1431.7813,630.3379 Q1431.7813,629.0098 1432.3906,627.8691 Q1433.0156,626.7129 1434.1094,626.1035 Q1435.2031,625.4785 1436.4375,625.4785 Q1437.1719,625.4785 1437.8125,625.6504 Q1438.4688,625.8066 1439.0156,626.166 Z " fill="#000000"/><text fill="#000000" font-family="sans-serif" font-size="12" font-style="italic" lengthAdjust="spacing" textLength="71" x="1454.75" y="625.9492">&#171;DomainID&#187;</text><text fill="#000000" font-family="sans-serif" font-size="14" lengthAdjust="spacing" textLength="58" x="1461.25" y="644.0684">SensorID</text><line style="stroke:#181818;stroke-width:0.5;" x1="1375.5" x2="1572.5" y1="652.582" y2="652.582"/><rect fill="none" height="6" style="stroke:#C82930;stroke-width:1.0;" width="6" x="1382.5" y="664.3926"/><text fill="#000000" font-family="sans-serif" font-size="14" lengthAdjust="spacing" textLength="64" x="1394.5" y="671.6895">_id: String</text><line style="stroke:#181818;stroke-width:0.5;" x1="1375.5" x2="1572.5" y1="679.2031" y2="679.2031"/><ellipse cx="1385.5" cy="694.0137" fill="#84BE84" rx="3" ry="3" style="stroke:#038048;stroke-width:1.0;"/><text fill="#000000" font-family="sans-serif" font-size="14" lengthAdjust="spacing" textLength="173" x="1394.5" y="698.3105">SensorID(sensorID : String)</text><ellipse cx="1385.5" cy="712.6348" fill="#84BE84" rx="3" ry="3" style="stroke:#038048;stroke-width:1.0;"/><text fill="#000000" font-family="sans-serif" font-size="14" lengthAdjust="spacing" textLength="92" x="1394.5" y="716.9316">getID() : String</text></g><!--class SensorTypeID--><g id="elem_SensorTypeID"><rect codeLine="54" fill="#F1F1F1" height="116.4453" id="SensorTypeID" rx="2.5" ry="2.5" style="stroke:#181818;stroke-width:0.5;" width="263" x="1093.5" y="608"/><ellipse cx="1175.75" cy="630.291" fill="#ADD1B2" rx="11" ry="11" style="stroke:#181818;stroke-width:1.0;"/><path d="M1178.5156,626.166 Q1178.6719,625.9473 1178.8594,625.8379 Q1179.0469,625.7285 1179.2656,625.7285 Q1179.6406,625.7285 1179.875,625.9941 Q1180.1094,626.2441 1180.1094,626.8535 L1180.1094,628.3066 Q1180.1094,628.916 1179.875,629.1816 Q1179.6406,629.4473 1179.2656,629.4473 Q1178.9219,629.4473 1178.7188,629.2441 Q1178.5156,629.0566 1178.4063,628.541 Q1178.3594,628.1816 1178.1719,627.9941 Q1177.8438,627.6191 1177.2344,627.4004 Q1176.625,627.1816 1176,627.1816 Q1175.2344,627.1816 1174.5938,627.5098 Q1173.9688,627.8379 1173.4688,628.5879 Q1172.9844,629.3379 1172.9844,630.3691 L1172.9844,631.4629 Q1172.9844,632.6973 1173.875,633.5254 Q1174.7656,634.3379 1176.3594,634.3379 Q1177.2969,634.3379 1177.9531,634.0879 Q1178.3438,633.9316 1178.7656,633.4941 Q1179.0313,633.2285 1179.1719,633.1504 Q1179.3281,633.0723 1179.5313,633.0723 Q1179.8594,633.0723 1180.1094,633.3379 Q1180.375,633.5879 1180.375,633.9316 Q1180.375,634.2754 1180.0313,634.6816 Q1179.5313,635.2598 1178.7344,635.5879 Q1177.6563,636.041 1176.3594,636.041 Q1174.8438,636.041 1173.6406,635.416 Q1172.6563,634.916 1171.9688,633.8535 Q1171.2813,632.7754 1171.2813,631.4941 L1171.2813,630.3379 Q1171.2813,629.0098 1171.8906,627.8691 Q1172.5156,626.7129 1173.6094,626.1035 Q1174.7031,625.4785 1175.9375,625.4785 Q1176.6719,625.4785 1177.3125,625.6504 Q1177.9688,625.8066 1178.5156,626.166 Z " fill="#000000"/><text fill="#000000" font-family="sans-serif" font-size="12" font-style="italic" lengthAdjust="spacing" textLength="71" x="1205.75" y="625.9492">&#171;DomainID&#187;</text><text fill="#000000" font-family="sans-serif" font-size="14" lengthAdjust="spacing" textLength="90" x="1196.25" y="644.0684">SensorTypeID</text><line style="stroke:#181818;stroke-width:0.5;" x1="1094.5" x2="1355.5" y1="652.582" y2="652.582"/><rect fill="none" height="6" style="stroke:#C82930;stroke-width:1.0;" width="6" x="1101.5" y="664.3926"/><text fill="#000000" font-family="sans-serif" font-size="14" lengthAdjust="spacing" textLength="68" x="1113.5" y="671.6895">_id : String</text><line style="stroke:#181818;stroke-width:0.5;" x1="1094.5" x2="1355.5" y1="679.2031" y2="679.2031"/><ellipse cx="1104.5" cy="694.0137" fill="#84BE84" rx="3" ry="3" style="stroke:#038048;stroke-width:1.0;"/><text fill="#000000" font-family="sans-serif" font-size="14" lengthAdjust="spacing" textLength="237" x="1113.5" y="698.3105">SensorTypeID(sensorTypeID : String)</text><ellipse cx="1104.5" cy="712.6348" fill="#84BE84" rx="3" ry="3" style="stroke:#038048;stroke-width:1.0;"/><text fill="#000000" font-family="sans-serif" font-size="14" lengthAdjust="spacing" textLength="92" x="1113.5" y="716.9316">getID() : String</text></g><!--class InstantPowerConsumptionValue--><g id="elem_InstantPowerConsumptionValue"><rect codeLine="60" fill="#F1F1F1" height="116.4453" id="InstantPowerConsumptionValue" rx="2.5" ry="2.5" style="stroke:#181818;stroke-width:0.5;" width="356" x="1960" y="608"/><ellipse cx="2033.75" cy="630.291" fill="#ADD1B2" rx="11" ry="11" style="stroke:#181818;stroke-width:1.0;"/><path d="M2036.5156,626.166 Q2036.6719,625.9473 2036.8594,625.8379 Q2037.0469,625.7285 2037.2656,625.7285 Q2037.6406,625.7285 2037.875,625.9941 Q2038.1094,626.2441 2038.1094,626.8535 L2038.1094,628.3066 Q2038.1094,628.916 2037.875,629.1816 Q2037.6406,629.4473 2037.2656,629.4473 Q2036.9219,629.4473 2036.7188,629.2441 Q2036.5156,629.0566 2036.4063,628.541 Q2036.3594,628.1816 2036.1719,627.9941 Q2035.8438,627.6191 2035.2344,627.4004 Q2034.625,627.1816 2034,627.1816 Q2033.2344,627.1816 2032.5938,627.5098 Q2031.9688,627.8379 2031.4688,628.5879 Q2030.9844,629.3379 2030.9844,630.3691 L2030.9844,631.4629 Q2030.9844,632.6973 2031.875,633.5254 Q2032.7656,634.3379 2034.3594,634.3379 Q2035.2969,634.3379 2035.9531,634.0879 Q2036.3438,633.9316 2036.7656,633.4941 Q2037.0313,633.2285 2037.1719,633.1504 Q2037.3281,633.0723 2037.5313,633.0723 Q2037.8594,633.0723 2038.1094,633.3379 Q2038.375,633.5879 2038.375,633.9316 Q2038.375,634.2754 2038.0313,634.6816 Q2037.5313,635.2598 2036.7344,635.5879 Q2035.6563,636.041 2034.3594,636.041 Q2032.8438,636.041 2031.6406,635.416 Q2030.6563,634.916 2029.9688,633.8535 Q2029.2813,632.7754 2029.2813,631.4941 L2029.2813,630.3379 Q2029.2813,629.0098 2029.8906,627.8691 Q2030.5156,626.7129 2031.6094,626.1035 Q2032.7031,625.4785 2033.9375,625.4785 Q2034.6719,625.4785 2035.3125,625.6504 Q2035.9688,625.8066 2036.5156,626.166 Z " fill="#000000"/><text fill="#000000" font-family="sans-serif" font-size="12" font-style="italic" lengthAdjust="spacing" textLength="82" x="2113.25" y="625.9492">&#171;ValueObject&#187;</text><text fill="#000000" font-family="sans-serif" font-size="14" lengthAdjust="spacing" textLength="200" x="2054.25" y="644.0684">InstantPowerConsumptionValue</text><line style="stroke:#181818;stroke-width:0.5;" x1="1961" x2="2315" y1="652.582" y2="652.582"/><rect fill="none" height="6" style="stroke:#C82930;stroke-width:1.0;" width="6" x="1968" y="664.3926"/><text fill="#000000" font-family="sans-serif" font-size="14" lengthAdjust="spacing" textLength="130" x="1980" y="671.6895">_DewPointValue : int</text><line style="stroke:#181818;stroke-width:0.5;" x1="1961" x2="2315" y1="679.2031" y2="679.2031"/><ellipse cx="1971" cy="694.0137" fill="#84BE84" rx="3" ry="3" style="stroke:#038048;stroke-width:1.0;"/><text fill="#000000" font-family="sans-serif" font-size="14" lengthAdjust="spacing" textLength="330" x="1980" y="698.3105">InstantPowerConsumptionValue(dewPointValue : int)</text><ellipse cx="1971" cy="712.6348" fill="#84BE84" rx="3" ry="3" style="stroke:#038048;stroke-width:1.0;"/><text fill="#000000" font-family="sans-serif" font-size="14" lengthAdjust="spacing" textLength="108" x="1980" y="716.9316">toString() : String</text></g><!--class ModelPath--><g id="elem_ModelPath"><rect codeLine="65" fill="#F1F1F1" height="116.4453" id="ModelPath" rx="2.5" ry="2.5" style="stroke:#181818;stroke-width:0.5;" width="180" x="1592" y="608"/><ellipse cx="1644.25" cy="630.291" fill="#ADD1B2" rx="11" ry="11" style="stroke:#181818;stroke-width:1.0;"/><path d="M1647.0156,626.166 Q1647.1719,625.9473 1647.3594,625.8379 Q1647.5469,625.7285 1647.7656,625.7285 Q1648.1406,625.7285 1648.375,625.9941 Q1648.6094,626.2441 1648.6094,626.8535 L1648.6094,628.3066 Q1648.6094,628.916 1648.375,629.1816 Q1648.1406,629.4473 1647.7656,629.4473 Q1647.4219,629.4473 1647.2188,629.2441 Q1647.0156,629.0566 1646.9063,628.541 Q1646.8594,628.1816 1646.6719,627.9941 Q1646.3438,627.6191 1645.7344,627.4004 Q1645.125,627.1816 1644.5,627.1816 Q1643.7344,627.1816 1643.0938,627.5098 Q1642.4688,627.8379 1641.9688,628.5879 Q1641.4844,629.3379 1641.4844,630.3691 L1641.4844,631.4629 Q1641.4844,632.6973 1642.375,633.5254 Q1643.2656,634.3379 1644.8594,634.3379 Q1645.7969,634.3379 1646.4531,634.0879 Q1646.8438,633.9316 1647.2656,633.4941 Q1647.5313,633.2285 1647.6719,633.1504 Q1647.8281,633.0723 1648.0313,633.0723 Q1648.3594,633.0723 1648.6094,633.3379 Q1648.875,633.5879 1648.875,633.9316 Q1648.875,634.2754 1648.5313,634.6816 Q1648.0313,635.2598 1647.2344,635.5879 Q1646.1563,636.041 1644.8594,636.041 Q1643.3438,636.041 1642.1406,635.416 Q1641.1563,634.916 1640.4688,633.8535 Q1639.7813,632.7754 1639.7813,631.4941 L1639.7813,630.3379 Q1639.7813,629.0098 1640.3906,627.8691 Q1641.0156,626.7129 1642.1094,626.1035 Q1643.2031,625.4785 1644.4375,625.4785 Q1645.1719,625.4785 1645.8125,625.6504 Q1646.4688,625.8066 1647.0156,626.166 Z " fill="#000000"/><text fill="#000000" font-family="sans-serif" font-size="12" font-style="italic" lengthAdjust="spacing" textLength="71" x="1662.75" y="625.9492">&#171;DomainID&#187;</text><text fill="#000000" font-family="sans-serif" font-size="14" lengthAdjust="spacing" textLength="67" x="1664.75" y="644.0684">ModelPath</text><line style="stroke:#181818;stroke-width:0.5;" x1="1593" x2="1771" y1="652.582" y2="652.582"/><rect fill="none" height="6" style="stroke:#C82930;stroke-width:1.0;" width="6" x="1600" y="664.3926"/><text fill="#000000" font-family="sans-serif" font-size="14" lengthAdjust="spacing" textLength="81" x="1612" y="671.6895">_path: String</text><line style="stroke:#181818;stroke-width:0.5;" x1="1593" x2="1771" y1="679.2031" y2="679.2031"/><ellipse cx="1603" cy="694.0137" fill="#84BE84" rx="3" ry="3" style="stroke:#038048;stroke-width:1.0;"/><text fill="#000000" font-family="sans-serif" font-size="14" lengthAdjust="spacing" textLength="154" x="1612" y="698.3105">ModelPath(path : String)</text><ellipse cx="1603" cy="712.6348" fill="#84BE84" rx="3" ry="3" style="stroke:#038048;stroke-width:1.0;"/><text fill="#000000" font-family="sans-serif" font-size="14" lengthAdjust="spacing" textLength="108" x="1612" y="716.9316">getPath() : String</text></g><!--class DeviceID--><g id="elem_DeviceID"><rect codeLine="71" fill="#F1F1F1" height="116.4453" id="DeviceID" rx="2.5" ry="2.5" style="stroke:#181818;stroke-width:0.5;" width="152" x="1790" y="608"/><ellipse cx="1828.85" cy="630.291" fill="#ADD1B2" rx="11" ry="11" style="stroke:#181818;stroke-width:1.0;"/><path d="M1831.6156,626.166 Q1831.7719,625.9473 1831.9594,625.8379 Q1832.1469,625.7285 1832.3656,625.7285 Q1832.7406,625.7285 1832.975,625.9941 Q1833.2094,626.2441 1833.2094,626.8535 L1833.2094,628.3066 Q1833.2094,628.916 1832.975,629.1816 Q1832.7406,629.4473 1832.3656,629.4473 Q1832.0219,629.4473 1831.8188,629.2441 Q1831.6156,629.0566 1831.5063,628.541 Q1831.4594,628.1816 1831.2719,627.9941 Q1830.9438,627.6191 1830.3344,627.4004 Q1829.725,627.1816 1829.1,627.1816 Q1828.3344,627.1816 1827.6938,627.5098 Q1827.0688,627.8379 1826.5688,628.5879 Q1826.0844,629.3379 1826.0844,630.3691 L1826.0844,631.4629 Q1826.0844,632.6973 1826.975,633.5254 Q1827.8656,634.3379 1829.4594,634.3379 Q1830.3969,634.3379 1831.0531,634.0879 Q1831.4438,633.9316 1831.8656,633.4941 Q1832.1313,633.2285 1832.2719,633.1504 Q1832.4281,633.0723 1832.6313,633.0723 Q1832.9594,633.0723 1833.2094,633.3379 Q1833.475,633.5879 1833.475,633.9316 Q1833.475,634.2754 1833.1313,634.6816 Q1832.6313,635.2598 1831.8344,635.5879 Q1830.7563,636.041 1829.4594,636.041 Q1827.9438,636.041 1826.7406,635.416 Q1825.7563,634.916 1825.0688,633.8535 Q1824.3813,632.7754 1824.3813,631.4941 L1824.3813,630.3379 Q1824.3813,629.0098 1824.9906,627.8691 Q1825.6156,626.7129 1826.7094,626.1035 Q1827.8031,625.4785 1829.0375,625.4785 Q1829.7719,625.4785 1830.4125,625.6504 Q1831.0688,625.8066 1831.6156,626.166 Z " fill="#000000"/><text fill="#000000" font-family="sans-serif" font-size="12" font-style="italic" lengthAdjust="spacing" textLength="71" x="1846.15" y="625.9492">&#171;DomainID&#187;</text><text fill="#000000" font-family="sans-serif" font-size="14" lengthAdjust="spacing" textLength="56" x="1853.65" y="644.0684">DeviceID</text><line style="stroke:#181818;stroke-width:0.5;" x1="1791" x2="1941" y1="652.582" y2="652.582"/><rect fill="none" height="6" style="stroke:#C82930;stroke-width:1.0;" width="6" x="1798" y="664.3926"/><text fill="#000000" font-family="sans-serif" font-size="14" lengthAdjust="spacing" textLength="64" x="1810" y="671.6895">_id: String</text><line style="stroke:#181818;stroke-width:0.5;" x1="1791" x2="1941" y1="679.2031" y2="679.2031"/><ellipse cx="1801" cy="694.0137" fill="#84BE84" rx="3" ry="3" style="stroke:#038048;stroke-width:1.0;"/><text fill="#000000" font-family="sans-serif" font-size="14" lengthAdjust="spacing" textLength="126" x="1810" y="698.3105">DeviceID(id : String)</text><ellipse cx="1801" cy="712.6348" fill="#84BE84" rx="3" ry="3" style="stroke:#038048;stroke-width:1.0;"/><text fill="#000000" font-family="sans-serif" font-size="14" lengthAdjust="spacing" textLength="92" x="1810" y="716.9316">getID() : String</text></g><!--class DomainEntity--><g id="elem_DomainEntity"><rect codeLine="80" fill="#F1F1F1" height="48" id="DomainEntity" rx="2.5" ry="2.5" style="stroke:#181818;stroke-width:0.5;" width="115" x="1336.5" y="896"/><ellipse cx="1351.5" cy="912" fill="#B4A7E5" rx="11" ry="11" style="stroke:#181818;stroke-width:1.0;"/><path d="M1352.4531,908.6406 L1352.4531,915.2969 L1354.1719,915.2969 Q1354.7813,915.2969 1355.0469,915.5313 Q1355.3125,915.7656 1355.3125,916.1563 Q1355.3125,916.5313 1355.0469,916.7656 Q1354.7813,917 1354.1719,917 L1349.0313,917 Q1348.4219,917 1348.1563,916.7656 Q1347.8906,916.5313 1347.8906,916.1406 Q1347.8906,915.7656 1348.1563,915.5313 Q1348.4219,915.2969 1349.0313,915.2969 L1350.75,915.2969 L1350.75,908.6406 L1349.0313,908.6406 Q1348.4219,908.6406 1348.1563,908.4063 Q1347.8906,908.1719 1347.8906,907.7813 Q1347.8906,907.4063 1348.1563,907.1719 Q1348.4219,906.9375 1349.0313,906.9375 L1354.1719,906.9375 Q1354.7813,906.9375 1355.0469,907.1719 Q1355.3125,907.4063 1355.3125,907.7813 Q1355.3125,908.1719 1355.0469,908.4063 Q1354.7813,908.6406 1354.1719,908.6406 L1352.4531,908.6406 Z " fill="#000000"/><text fill="#000000" font-family="sans-serif" font-size="14" font-style="italic" lengthAdjust="spacing" textLength="83" x="1365.5" y="917.7969">DomainEntity</text><line style="stroke:#181818;stroke-width:0.5;" x1="1337.5" x2="1450.5" y1="928" y2="928"/><line style="stroke:#181818;stroke-width:0.5;" x1="1337.5" x2="1450.5" y1="936" y2="936"/></g><!--class DomainID--><g id="elem_DomainID"><rect codeLine="83" fill="#F1F1F1" height="48" id="DomainID" rx="2.5" ry="2.5" style="stroke:#181818;stroke-width:0.5;" width="94" x="1359" y="981"/><ellipse cx="1374" cy="997" fill="#B4A7E5" rx="11" ry="11" style="stroke:#181818;stroke-width:1.0;"/><path d="M1374.9531,993.6406 L1374.9531,1000.2969 L1376.6719,1000.2969 Q1377.2813,1000.2969 1377.5469,1000.5313 Q1377.8125,1000.7656 1377.8125,1001.1563 Q1377.8125,1001.5313 1377.5469,1001.7656 Q1377.2813,1002 1376.6719,1002 L1371.5313,1002 Q1370.9219,1002 1370.6563,1001.7656 Q1370.3906,1001.5313 1370.3906,1001.1406 Q1370.3906,1000.7656 1370.6563,1000.5313 Q1370.9219,1000.2969 1371.5313,1000.2969 L1373.25,1000.2969 L1373.25,993.6406 L1371.5313,993.6406 Q1370.9219,993.6406 1370.6563,993.4063 Q1370.3906,993.1719 1370.3906,992.7813 Q1370.3906,992.4063 1370.6563,992.1719 Q1370.9219,991.9375 1371.5313,991.9375 L1376.6719,991.9375 Q1377.2813,991.9375 1377.5469,992.1719 Q1377.8125,992.4063 1377.8125,992.7813 Q1377.8125,993.1719 1377.5469,993.4063 Q1377.2813,993.6406 1376.6719,993.6406 L1374.9531,993.6406 Z " fill="#000000"/><text fill="#000000" font-family="sans-serif" font-size="14" font-style="italic" lengthAdjust="spacing" textLength="62" x="1388" y="1002.7969">DomainID</text><line style="stroke:#181818;stroke-width:0.5;" x1="1360" x2="1452" y1="1013" y2="1013"/><line style="stroke:#181818;stroke-width:0.5;" x1="1360" x2="1452" y1="1021" y2="1021"/></g><!--class AggregateRoot--><g id="elem_AggregateRoot"><rect codeLine="86" fill="#F1F1F1" height="48" id="AggregateRoot" rx="2.5" ry="2.5" style="stroke:#181818;stroke-width:0.5;" width="128" x="1327" y="811"/><ellipse cx="1342" cy="827" fill="#B4A7E5" rx="11" ry="11" style="stroke:#181818;stroke-width:1.0;"/><path d="M1342.9531,823.6406 L1342.9531,830.2969 L1344.6719,830.2969 Q1345.2813,830.2969 1345.5469,830.5313 Q1345.8125,830.7656 1345.8125,831.1563 Q1345.8125,831.5313 1345.5469,831.7656 Q1345.2813,832 1344.6719,832 L1339.5313,832 Q1338.9219,832 1338.6563,831.7656 Q1338.3906,831.5313 1338.3906,831.1406 Q1338.3906,830.7656 1338.6563,830.5313 Q1338.9219,830.2969 1339.5313,830.2969 L1341.25,830.2969 L1341.25,823.6406 L1339.5313,823.6406 Q1338.9219,823.6406 1338.6563,823.4063 Q1338.3906,823.1719 1338.3906,822.7813 Q1338.3906,822.4063 1338.6563,822.1719 Q1338.9219,821.9375 1339.5313,821.9375 L1344.6719,821.9375 Q1345.2813,821.9375 1345.5469,822.1719 Q1345.8125,822.4063 1345.8125,822.7813 Q1345.8125,823.1719 1345.5469,823.4063 Q1345.2813,823.6406 1344.6719,823.6406 L1342.9531,823.6406 Z " fill="#000000"/><text fill="#000000" font-family="sans-serif" font-size="14" font-style="italic" lengthAdjust="spacing" textLength="96" x="1356" y="832.7969">AggregateRoot</text><line style="stroke:#181818;stroke-width:0.5;" x1="1328" x2="1454" y1="843" y2="843"/><line style="stroke:#181818;stroke-width:0.5;" x1="1328" x2="1454" y1="851" y2="851"/></g><!--class ValueObject--><g id="elem_ValueObject"><rect codeLine="89" fill="#F1F1F1" height="48" id="ValueObject" rx="2.5" ry="2.5" style="stroke:#181818;stroke-width:0.5;" width="109" x="1345.5" y="1066"/><ellipse cx="1360.5" cy="1082" fill="#B4A7E5" rx="11" ry="11" style="stroke:#181818;stroke-width:1.0;"/><path d="M1361.4531,1078.6406 L1361.4531,1085.2969 L1363.1719,1085.2969 Q1363.7813,1085.2969 1364.0469,1085.5313 Q1364.3125,1085.7656 1364.3125,1086.1563 Q1364.3125,1086.5313 1364.0469,1086.7656 Q1363.7813,1087 1363.1719,1087 L1358.0313,1087 Q1357.4219,1087 1357.1563,1086.7656 Q1356.8906,1086.5313 1356.8906,1086.1406 Q1356.8906,1085.7656 1357.1563,1085.5313 Q1357.4219,1085.2969 1358.0313,1085.2969 L1359.75,1085.2969 L1359.75,1078.6406 L1358.0313,1078.6406 Q1357.4219,1078.6406 1357.1563,1078.4063 Q1356.8906,1078.1719 1356.8906,1077.7813 Q1356.8906,1077.4063 1357.1563,1077.1719 Q1357.4219,1076.9375 1358.0313,1076.9375 L1363.1719,1076.9375 Q1363.7813,1076.9375 1364.0469,1077.1719 Q1364.3125,1077.4063 1364.3125,1077.7813 Q1364.3125,1078.1719 1364.0469,1078.4063 Q1363.7813,1078.6406 1363.1719,1078.6406 L1361.4531,1078.6406 Z " fill="#000000"/><text fill="#000000" font-family="sans-serif" font-size="14" font-style="italic" lengthAdjust="spacing" textLength="77" x="1374.5" y="1087.7969">ValueObject</text><line style="stroke:#181818;stroke-width:0.5;" x1="1346.5" x2="1453.5" y1="1098" y2="1098"/><line style="stroke:#181818;stroke-width:0.5;" x1="1346.5" x2="1453.5" y1="1106" y2="1106"/></g><polygon fill="none" points="500.7365,328.8149,519.3285,325.0286,513.3384,314.6306,500.7365,328.8149" style="stroke:#181818;stroke-width:1.0;"/><path d="M847.1336,129.26 C758.6746,180.22 604.713,268.9154 516.3335,319.8296 " fill="none" style="stroke:#181818;stroke-width:1.0;stroke-dasharray:7.0,7.0;"/><polygon fill="#181818" points="1088.2178,202.8567,1082.4235,194.8926,1083.8876,200.3567,1078.4235,201.8208,1088.2178,202.8567" style="stroke:#181818;stroke-width:1.0;"/><path d="M960.7428,129.26 C994.4424,148.7162 1034.7418,171.9827 1083.0216,199.8567 " fill="none" style="stroke:#181818;stroke-width:1.0;stroke-dasharray:7.0,7.0;"/><text fill="#000000" font-family="sans-serif" font-size="13" lengthAdjust="spacing" textLength="43" x="1016" y="162.0283">creates</text><text fill="#000000" font-family="sans-serif" font-size="13" lengthAdjust="spacing" textLength="7" x="1080.2178" y="198.885">1</text><text fill="#000000" font-family="sans-serif" font-size="13" lengthAdjust="spacing" textLength="7" x="952.7428" y="144.2883">1</text><polygon fill="none" points="856.3099,580.1781,874.9269,576.5166,869.0066,566.0787,856.3099,580.1781" style="stroke:#181818;stroke-width:1.0;"/><path d="M969.9848,522.0226 C933.0081,539.607 896.4892,558.0435 862,577 C860.1094,578.0392 873.8688,570.2189 871.9668,571.2977 " fill="none" style="stroke:#181818;stroke-width:1.0;stroke-dasharray:7.0,7.0;"/><polygon fill="#181818" points="2021.025,607.9487,2014.5385,600.5376,2016.4877,605.848,2011.1773,607.7973,2021.025,607.9487" style="stroke:#181818;stroke-width:1.0;"/><path d="M1812.8943,522.0447 C1859.7608,539.9926 1906.5006,558.4964 1951,577 C1973.86,586.5056 1992.5372,594.7591 2015.5803,605.4279 " fill="none" style="stroke:#181818;stroke-width:1.0;"/><text fill="#000000" font-family="sans-serif" font-size="13" lengthAdjust="spacing" textLength="21" x="1905" y="555.0283">has</text><text fill="#000000" font-family="sans-serif" font-size="13" lengthAdjust="spacing" textLength="7" x="2013.025" y="603.977">1</text><text fill="#000000" font-family="sans-serif" font-size="13" lengthAdjust="spacing" textLength="7" x="1804.8943" y="537.073">1</text><polygon fill="#181818" points="1251.2155,607.7249,1258.5983,601.2061,1253.2964,603.1785,1251.324,597.8766,1251.2155,607.7249" style="stroke:#181818;stroke-width:1.0;"/><path d="M1290.3628,522.1964 C1276.3372,552.8394 1265.0096,577.5877 1253.7126,602.2692 " fill="none" style="stroke:#181818;stroke-width:1.0;"/><text fill="#000000" font-family="sans-serif" font-size="13" lengthAdjust="spacing" textLength="21" x="1282" y="555.0283">has</text><text fill="#000000" font-family="sans-serif" font-size="13" lengthAdjust="spacing" textLength="7" x="1243.2155" y="603.7532">1</text><text fill="#000000" font-family="sans-serif" font-size="13" lengthAdjust="spacing" textLength="7" x="1282.3628" y="537.2248">1</text><polygon fill="#181818" points="1452.9136,607.7249,1453.5579,597.8971,1451.1862,603.0328,1446.0505,600.661,1452.9136,607.7249" style="stroke:#181818;stroke-width:1.0;"/><path d="M1421.4256,522.1964 C1432.707,552.8394 1441.754,577.4128 1450.8407,602.0943 " fill="none" style="stroke:#181818;stroke-width:1.0;"/><text fill="#000000" font-family="sans-serif" font-size="13" lengthAdjust="spacing" textLength="21" x="1435" y="555.0283">has</text><text fill="#000000" font-family="sans-serif" font-size="13" lengthAdjust="spacing" textLength="7" x="1444.9136" y="603.7532">1</text><text fill="#000000" font-family="sans-serif" font-size="13" lengthAdjust="spacing" textLength="7" x="1413.4256" y="537.2248">1</text><polygon fill="#181818" points="1815.9748,607.6145,1812.419,598.43,1812.4315,604.0868,1806.7747,604.0993,1815.9748,607.6145" style="stroke:#181818;stroke-width:1.0;"/><path d="M1698.4461,522.0513 C1727.1226,539.3986 1755.0523,557.7822 1781,577 C1793.1191,585.9758 1800.8021,592.5085 1811.7229,603.3813 " fill="none" style="stroke:#181818;stroke-width:1.0;"/><text fill="#000000" font-family="sans-serif" font-size="13" lengthAdjust="spacing" textLength="21" x="1751" y="555.0283">has</text><text fill="#000000" font-family="sans-serif" font-size="13" lengthAdjust="spacing" textLength="7" x="1807.9748" y="603.6429">1</text><text fill="#000000" font-family="sans-serif" font-size="13" lengthAdjust="spacing" textLength="7" x="1690.4461" y="537.0796">1</text><polygon fill="#181818" points="1621.4005,607.7249,1617.6072,598.6358,1617.7667,604.2904,1612.1121,604.4499,1621.4005,607.7249" style="stroke:#181818;stroke-width:1.0;"/><path d="M1530.9077,522.1964 C1563.3293,552.8394 1590.9258,578.922 1617.0399,603.6035 " fill="none" style="stroke:#181818;stroke-width:1.0;"/><text fill="#000000" font-family="sans-serif" font-size="13" lengthAdjust="spacing" textLength="21" x="1570" y="555.0283">has</text><text fill="#000000" font-family="sans-serif" font-size="13" lengthAdjust="spacing" textLength="7" x="1613.4005" y="603.7532">1</text><text fill="#000000" font-family="sans-serif" font-size="13" lengthAdjust="spacing" textLength="7" x="1522.9077" y="537.2248">1</text><polygon fill="#181818" points="1045.1465,607.9245,1054.6672,605.4035,1049.0435,604.7919,1049.6551,599.1682,1045.1465,607.9245" style="stroke:#181818;stroke-width:1.0;"/><path d="M1154.5773,522.0474 C1130.7066,540.4855 1106.7768,559.0958 1084,577 C1071.3803,586.92 1062.6991,593.815 1049.8229,604.1654 " fill="none" style="stroke:#181818;stroke-width:1.0;"/><text fill="#000000" font-family="sans-serif" font-size="13" lengthAdjust="spacing" textLength="21" x="1130" y="555.0283">has</text><text fill="#000000" font-family="sans-serif" font-size="13" lengthAdjust="spacing" textLength="7" x="1037.1465" y="603.9528">1</text><text fill="#000000" font-family="sans-serif" font-size="13" lengthAdjust="spacing" textLength="7" x="1155.5773" y="537.0757">1</text><polygon fill="none" points="1454.6032,1087.5515,1472.7816,1092.9871,1472.4073,1080.9929,1454.6032,1087.5515" style="stroke:#181818;stroke-width:1.0;"/><path d="M2080.5247,724.3708 C2056.4723,754.4117 2034,793.3549 2034,834 C2034,834 2034,834 2034,1006 C2034,1064.2102 1626.3798,1082.1903 1472.5945,1086.99 " fill="none" style="stroke:#181818;stroke-width:1.0;stroke-dasharray:7.0,7.0;"/><polygon fill="none" points="1345.3337,1087.0819,1327.6593,1080.1815,1327.054,1092.1662,1345.3337,1087.0819" style="stroke:#181818;stroke-width:1.0;"/><path d="M1017.8104,724.129 C1036.8311,755.0132 1055,794.7794 1055,834 C1055,834 1055,834 1055,1006 C1055,1064.9866 1230.076,1081.2604 1327.3566,1086.1739 " fill="none" style="stroke:#181818;stroke-width:1.0;stroke-dasharray:7.0,7.0;"/><polygon fill="none" points="1402.6336,980.716,1405.9963,962.0427,1394.1198,963.7598,1402.6336,980.716" style="stroke:#181818;stroke-width:1.0;"/><path d="M1397.3427,944.1201 C1398.9932,955.5362 1398.4043,951.463 1400.058,962.9012 " fill="none" style="stroke:#181818;stroke-width:1.0;"/><polygon fill="none" points="1393.1584,895.716,1398.5043,877.511,1386.5121,877.9445,1393.1584,895.716" style="stroke:#181818;stroke-width:1.0;"/><path d="M1391.8357,859.1201 C1392.2483,870.5362 1392.0948,866.2895 1392.5082,877.7277 " fill="none" style="stroke:#181818;stroke-width:1.0;"/><polygon fill="none" points="1326.64,829.4426,1309.1485,822.0909,1308.2358,834.0561,1326.64,829.4426" style="stroke:#181818;stroke-width:1.0;"/><path d="M845.1501,755.1931 C850.7152,758.0595 856.3442,760.6853 862,763 C944.9725,796.957 1186.7962,818.7755 1308.6921,828.0735 " fill="none" style="stroke:#181818;stroke-width:1.0;"/><polygon fill="none" points="1367.3149,980.7839,1356.1269,965.4599,1349.17,975.2375,1367.3149,980.7839" style="stroke:#181818;stroke-width:1.0;"/><path d="M1236.3765,724.0101 C1250.3456,783.3782 1278.5073,876.9049 1328,944 C1338.5474,958.2987 1338.7317,960.4468 1352.6485,970.3487 " fill="none" style="stroke:#181818;stroke-width:1.0;stroke-dasharray:7.0,7.0;"/><polygon fill="none" points="1434.302,980.8698,1451.3496,972.5404,1442.9424,963.9777,1434.302,980.8698" style="stroke:#181818;stroke-width:1.0;"/><path d="M1482.3189,724.1019 C1488.2636,781.8955 1490.6929,872.663 1461,944 C1455.1897,957.9591 1457.4721,958.1204 1447.146,968.259 " fill="none" style="stroke:#181818;stroke-width:1.0;stroke-dasharray:7.0,7.0;"/><polygon fill="none" points="1435.358,980.7914,1452.9531,973.6912,1445.1739,964.5542,1435.358,980.7914" style="stroke:#181818;stroke-width:1.0;"/><path d="M1641.7584,724.1407 C1600.931,781.1771 1535.0764,870.6553 1473,944 C1461.8029,957.2296 1461.4251,958.5982 1449.0635,969.1227 " fill="none" style="stroke:#181818;stroke-width:1.0;stroke-dasharray:7.0,7.0;"/><polygon fill="none" points="1449.9729,980.9683,1468.6648,977.7109,1462.972,967.1472,1449.9729,980.9683" style="stroke:#181818;stroke-width:1.0;"/><path d="M1820.1116,724.049 C1808.0594,737.5171 1794.6056,751.3375 1781,763 C1671.5643,856.8065 1538.7192,933.1424 1465.8184,972.429 " fill="none" style="stroke:#181818;stroke-width:1.0;stroke-dasharray:7.0,7.0;"/><polygon fill="none" points="1401.6832,1065.716,1408.9654,1048.1954,1396.9966,1047.3302,1401.6832,1065.716" style="stroke:#181818;stroke-width:1.0;"/><path d="M1404.3287,1029.1201 C1403.5034,1040.5362 1403.8079,1036.3246 1402.981,1047.7628 " fill="none" style="stroke:#181818;stroke-width:1.0;"/><!--SRC=[pLPDZvim4BtxLxXxIfGbKgyh5AbQjXA7RQEcwhLomMLfWut0wIfgyzzhR6oFmT1TAKZD9JRpFFCyNvutTKEAYk0ZEVEJm6r51M44ePfaFqb1SSuhKhBjWRAMD_WtGbZzIYPeyvra56l9Uv89tfmb08FV1cSD9O9gp2gdlygCfWc-mqc_lCKLp-bnJyIJ_FferhUuLKS-dskDFu2j4NuW5RMYRhCs6qlYOlXcHzAsFjUqge__AT-XTm7D3IweI9ELFPiclgnJxAJTpfTRpXt8RdmCPEzqwRsFD7xfK6Rj8xwGuqaHKekFttxGJ024u0VHbAnGPjGAzOu8Pk0sPQrCKB7dpxIvvwmzLRKeEVFpKqVx5GV_eJQEAHEbEEzsSlc9So4NBYGH_XfC2WYOo80n16GFyAGL1nCCmdBwlESoVvIt9MxYOahidnlbEW9XclNFyeKoJ7-yMkEv0e3ocHBGi1SK0TGNAWFjRGKAfpae5GtpYiMqATYbr3NY6AZpaguF6vCeht2SIQTcnNg7AjXwWBCz0uyKNLmAG6ho3d6SgEfAan4howtCWynyVh9rmCGFC1pqFHnMUe6LxuLkWgeYE5QsyGwlXjawu3V1If7HLERgRoAyabaog6AvHBE5gBjiFZwsHiC-2wbUWDDSLKnxh9RYWClScrBhUW_wIJyw0KyP1hP2va8MC6yV8H3G5yHe_CRaUQwV4FS0Qo8FglqhAfUGN78EoDuLHKCBEKzqJuO5E3a8VY-Lyl6Cijt-sVcZIm1qy_P60dVg_teFtrq_4BK8NK-fke-lhX-3hcUZSqCKNSqTfg2UIBi0IRKu-9rcSKjBMqdSJB2WbKSmP2pkidukwUoWgoKLh0RPVxPmVW1cvs38Qr9H996cBI6_1m6PHWylqbzUuO0rJulfKNsk3fbPqpRF9X4kUfCGcqQJYC2t4N_ehRy0]--></g></svg>