<?xml version="1.0" encoding="us-ascii" standalone="no"?><svg xmlns="http://www.w3.org/2000/svg" xmlns:xlink="http://www.w3.org/1999/xlink" contentStyleType="text/css" height="516px" preserveAspectRatio="none" style="width:1918px;height:516px;background:#FFFFFF;" version="1.1" viewBox="0 0 1918 516" width="1918px" zoomAndPan="magnify"><defs/><g><!--cluster SmartHome--><g id="cluster_SmartHome"><path d="M16.5,4 L97.5,4 A3.75,3.75 0 0 1 100,6.5 L107,28.6211 L1908.5,28.6211 A2.5,2.5 0 0 1 1911,31.1211 L1911,506.5 A2.5,2.5 0 0 1 1908.5,509 L16.5,509 A2.5,2.5 0 0 1 14,506.5 L14,6.5 A2.5,2.5 0 0 1 16.5,4 " fill="none" style="stroke:#000000;stroke-width:1.5;"/><line style="stroke:#000000;stroke-width:1.5;" x1="14" x2="107" y1="28.6211" y2="28.6211"/><text fill="#000000" font-family="sans-serif" font-size="14" font-weight="bold" lengthAdjust="spacing" textLength="80" x="18" y="21.1074">SmartHome</text></g><!--cluster sensors--><g id="cluster_sensors"><path d="M24.5,33 L82.5,33 A3.75,3.75 0 0 1 85,35.5 L92,57.6211 L531.5,57.6211 A2.5,2.5 0 0 1 534,60.1211 L534,442.5 A2.5,2.5 0 0 1 531.5,445 L24.5,445 A2.5,2.5 0 0 1 22,442.5 L22,35.5 A2.5,2.5 0 0 1 24.5,33 " fill="none" style="stroke:#000000;stroke-width:1.5;"/><line style="stroke:#000000;stroke-width:1.5;" x1="22" x2="92" y1="57.6211" y2="57.6211"/><text fill="#000000" font-family="sans-serif" font-size="14" font-weight="bold" lengthAdjust="spacing" textLength="57" x="26" y="50.1074">sensors</text></g><!--cluster domain--><g id="cluster_domain"><path d="M555.5,248 L607.5,248 A3.75,3.75 0 0 1 610,250.5 L617,272.6211 L1900.5,272.6211 A2.5,2.5 0 0 1 1903,275.1211 L1903,498.5 A2.5,2.5 0 0 1 1900.5,501 L555.5,501 A2.5,2.5 0 0 1 553,498.5 L553,250.5 A2.5,2.5 0 0 1 555.5,248 " fill="none" style="stroke:#000000;stroke-width:1.5;"/><line style="stroke:#000000;stroke-width:1.5;" x1="553" x2="617" y1="272.6211" y2="272.6211"/><text fill="#000000" font-family="sans-serif" font-size="14" font-weight="bold" lengthAdjust="spacing" textLength="51" x="557" y="265.1074">domain</text></g><!--class InstantPowerConsumptionSensor--><g id="elem_InstantPowerConsumptionSensor"><rect codeLine="5" fill="#F1F1F1" height="141.1055" id="InstantPowerConsumptionSensor" rx="2.5" ry="2.5" style="stroke:#181818;stroke-width:0.5;" width="446" x="80" y="62"/><ellipse cx="194.25" cy="78" fill="#ADD1B2" rx="11" ry="11" style="stroke:#181818;stroke-width:1.0;"/><path d="M197.0156,73.875 Q197.1719,73.6563 197.3594,73.5469 Q197.5469,73.4375 197.7656,73.4375 Q198.1406,73.4375 198.375,73.7031 Q198.6094,73.9531 198.6094,74.5625 L198.6094,76.0156 Q198.6094,76.625 198.375,76.8906 Q198.1406,77.1563 197.7656,77.1563 Q197.4219,77.1563 197.2188,76.9531 Q197.0156,76.7656 196.9063,76.25 Q196.8594,75.8906 196.6719,75.7031 Q196.3438,75.3281 195.7344,75.1094 Q195.125,74.8906 194.5,74.8906 Q193.7344,74.8906 193.0938,75.2188 Q192.4688,75.5469 191.9688,76.2969 Q191.4844,77.0469 191.4844,78.0781 L191.4844,79.1719 Q191.4844,80.4063 192.375,81.2344 Q193.2656,82.0469 194.8594,82.0469 Q195.7969,82.0469 196.4531,81.7969 Q196.8438,81.6406 197.2656,81.2031 Q197.5313,80.9375 197.6719,80.8594 Q197.8281,80.7813 198.0313,80.7813 Q198.3594,80.7813 198.6094,81.0469 Q198.875,81.2969 198.875,81.6406 Q198.875,81.9844 198.5313,82.3906 Q198.0313,82.9688 197.2344,83.2969 Q196.1563,83.75 194.8594,83.75 Q193.3438,83.75 192.1406,83.125 Q191.1563,82.625 190.4688,81.5625 Q189.7813,80.4844 189.7813,79.2031 L189.7813,78.0469 Q189.7813,76.7188 190.3906,75.5781 Q191.0156,74.4219 192.1094,73.8125 Q193.2031,73.1875 194.4375,73.1875 Q195.1719,73.1875 195.8125,73.3594 Q196.4688,73.5156 197.0156,73.875 Z " fill="#000000"/><text fill="#000000" font-family="sans-serif" font-size="14" lengthAdjust="spacing" textLength="209" x="214.75" y="83.7969">InstantPowerConsumptionSensor</text><line style="stroke:#181818;stroke-width:0.5;" x1="81" x2="525" y1="94" y2="94"/><rect fill="none" height="6" style="stroke:#C82930;stroke-width:1.0;" width="6" x="88" y="105.8105"/><text fill="#000000" font-family="sans-serif" font-size="14" lengthAdjust="spacing" textLength="172" x="100" y="113.1074">_sensorType : SensorType</text><rect fill="none" height="6" style="stroke:#C82930;stroke-width:1.0;" width="6" x="88" y="124.4316"/><text fill="#000000" font-family="sans-serif" font-size="14" lengthAdjust="spacing" textLength="420" x="100" y="131.7285">_InstantPowerConsumptionValue : InstantPowerConsumptionValue</text><line style="stroke:#181818;stroke-width:0.5;" x1="81" x2="525" y1="139.2422" y2="139.2422"/><ellipse cx="91" cy="154.0527" fill="#84BE84" rx="3" ry="3" style="stroke:#038048;stroke-width:1.0;"/><text fill="#000000" font-family="sans-serif" font-size="14" lengthAdjust="spacing" textLength="407" x="100" y="158.3496">InstantPowerConsumptionSensor (catalogue : CatalogueSensor)</text><ellipse cx="91" cy="172.6738" fill="#84BE84" rx="3" ry="3" style="stroke:#038048;stroke-width:1.0;"/><text fill="#000000" font-family="sans-serif" font-size="14" lengthAdjust="spacing" textLength="200" x="100" y="176.9707">getSensorType () : SensorType</text><ellipse cx="91" cy="191.2949" fill="#84BE84" rx="3" ry="3" style="stroke:#038048;stroke-width:1.0;"/><text fill="#000000" font-family="sans-serif" font-size="14" lengthAdjust="spacing" textLength="118" x="100" y="195.5918">getValue () : Value</text></g><!--class InstantPowerConsumptionValue--><g id="elem_InstantPowerConsumptionValue"><rect codeLine="14" fill="#F1F1F1" height="103.8633" id="InstantPowerConsumptionValue" rx="2.5" ry="2.5" style="stroke:#181818;stroke-width:0.5;" width="495" x="30.5" y="333"/><ellipse cx="173.75" cy="349" fill="#ADD1B2" rx="11" ry="11" style="stroke:#181818;stroke-width:1.0;"/><path d="M176.5156,344.875 Q176.6719,344.6563 176.8594,344.5469 Q177.0469,344.4375 177.2656,344.4375 Q177.6406,344.4375 177.875,344.7031 Q178.1094,344.9531 178.1094,345.5625 L178.1094,347.0156 Q178.1094,347.625 177.875,347.8906 Q177.6406,348.1563 177.2656,348.1563 Q176.9219,348.1563 176.7188,347.9531 Q176.5156,347.7656 176.4063,347.25 Q176.3594,346.8906 176.1719,346.7031 Q175.8438,346.3281 175.2344,346.1094 Q174.625,345.8906 174,345.8906 Q173.2344,345.8906 172.5938,346.2188 Q171.9688,346.5469 171.4688,347.2969 Q170.9844,348.0469 170.9844,349.0781 L170.9844,350.1719 Q170.9844,351.4063 171.875,352.2344 Q172.7656,353.0469 174.3594,353.0469 Q175.2969,353.0469 175.9531,352.7969 Q176.3438,352.6406 176.7656,352.2031 Q177.0313,351.9375 177.1719,351.8594 Q177.3281,351.7813 177.5313,351.7813 Q177.8594,351.7813 178.1094,352.0469 Q178.375,352.2969 178.375,352.6406 Q178.375,352.9844 178.0313,353.3906 Q177.5313,353.9688 176.7344,354.2969 Q175.6563,354.75 174.3594,354.75 Q172.8438,354.75 171.6406,354.125 Q170.6563,353.625 169.9688,352.5625 Q169.2813,351.4844 169.2813,350.2031 L169.2813,349.0469 Q169.2813,347.7188 169.8906,346.5781 Q170.5156,345.4219 171.6094,344.8125 Q172.7031,344.1875 173.9375,344.1875 Q174.6719,344.1875 175.3125,344.3594 Q175.9688,344.5156 176.5156,344.875 Z " fill="#000000"/><text fill="#000000" font-family="sans-serif" font-size="14" lengthAdjust="spacing" textLength="200" x="194.25" y="354.7969">InstantPowerConsumptionValue</text><line style="stroke:#181818;stroke-width:0.5;" x1="31.5" x2="524.5" y1="365" y2="365"/><rect fill="none" height="6" style="stroke:#C82930;stroke-width:1.0;" width="6" x="38.5" y="376.8105"/><text fill="#000000" font-family="sans-serif" font-size="14" lengthAdjust="spacing" textLength="263" x="50.5" y="384.1074">_instantPowerConsumptionValue : double</text><line style="stroke:#181818;stroke-width:0.5;" x1="31.5" x2="524.5" y1="391.6211" y2="391.6211"/><ellipse cx="41.5" cy="406.4316" fill="#84BE84" rx="3" ry="3" style="stroke:#038048;stroke-width:1.0;"/><text fill="#000000" font-family="sans-serif" font-size="14" lengthAdjust="spacing" textLength="469" x="50.5" y="410.7285">InstantPowerConsumptionValue (instantPowerConsumptionValue : double)</text><ellipse cx="41.5" cy="425.0527" fill="#84BE84" rx="3" ry="3" style="stroke:#038048;stroke-width:1.0;"/><text fill="#000000" font-family="sans-serif" font-size="14" lengthAdjust="spacing" textLength="108" x="50.5" y="429.3496">toString() : String</text></g><!--class Value--><g id="elem_Value"><rect codeLine="39" fill="#F1F1F1" height="48" id="Value" rx="2.5" ry="2.5" style="stroke:#181818;stroke-width:0.5;" width="68" x="561" y="361"/><ellipse cx="576" cy="377" fill="#B4A7E5" rx="11" ry="11" style="stroke:#181818;stroke-width:1.0;"/><path d="M576.9531,373.6406 L576.9531,380.2969 L578.6719,380.2969 Q579.2813,380.2969 579.5469,380.5313 Q579.8125,380.7656 579.8125,381.1563 Q579.8125,381.5313 579.5469,381.7656 Q579.2813,382 578.6719,382 L573.5313,382 Q572.9219,382 572.6563,381.7656 Q572.3906,381.5313 572.3906,381.1406 Q572.3906,380.7656 572.6563,380.5313 Q572.9219,380.2969 573.5313,380.2969 L575.25,380.2969 L575.25,373.6406 L573.5313,373.6406 Q572.9219,373.6406 572.6563,373.4063 Q572.3906,373.1719 572.3906,372.7813 Q572.3906,372.4063 572.6563,372.1719 Q572.9219,371.9375 573.5313,371.9375 L578.6719,371.9375 Q579.2813,371.9375 579.5469,372.1719 Q579.8125,372.4063 579.8125,372.7813 Q579.8125,373.1719 579.5469,373.4063 Q579.2813,373.6406 578.6719,373.6406 L576.9531,373.6406 Z " fill="#000000"/><text fill="#000000" font-family="sans-serif" font-size="14" font-style="italic" lengthAdjust="spacing" textLength="36" x="590" y="382.7969">Value</text><line style="stroke:#181818;stroke-width:0.5;" x1="562" x2="628" y1="393" y2="393"/><line style="stroke:#181818;stroke-width:0.5;" x1="562" x2="628" y1="401" y2="401"/></g><!--class Sensor--><g id="elem_Sensor"><rect codeLine="25" fill="#F1F1F1" height="85.2422" id="Sensor" rx="2.5" ry="2.5" style="stroke:#181818;stroke-width:0.5;" width="222" x="647" y="342.5"/><ellipse cx="731.25" cy="358.5" fill="#B4A7E5" rx="11" ry="11" style="stroke:#181818;stroke-width:1.0;"/><path d="M732.2031,355.1406 L732.2031,361.7969 L733.9219,361.7969 Q734.5313,361.7969 734.7969,362.0313 Q735.0625,362.2656 735.0625,362.6563 Q735.0625,363.0313 734.7969,363.2656 Q734.5313,363.5 733.9219,363.5 L728.7813,363.5 Q728.1719,363.5 727.9063,363.2656 Q727.6406,363.0313 727.6406,362.6406 Q727.6406,362.2656 727.9063,362.0313 Q728.1719,361.7969 728.7813,361.7969 L730.5,361.7969 L730.5,355.1406 L728.7813,355.1406 Q728.1719,355.1406 727.9063,354.9063 Q727.6406,354.6719 727.6406,354.2813 Q727.6406,353.9063 727.9063,353.6719 Q728.1719,353.4375 728.7813,353.4375 L733.9219,353.4375 Q734.5313,353.4375 734.7969,353.6719 Q735.0625,353.9063 735.0625,354.2813 Q735.0625,354.6719 734.7969,354.9063 Q734.5313,355.1406 733.9219,355.1406 L732.2031,355.1406 Z " fill="#000000"/><text fill="#000000" font-family="sans-serif" font-size="14" font-style="italic" lengthAdjust="spacing" textLength="45" x="751.75" y="364.2969">Sensor</text><line style="stroke:#181818;stroke-width:0.5;" x1="648" x2="868" y1="374.5" y2="374.5"/><line style="stroke:#181818;stroke-width:0.5;" x1="648" x2="868" y1="382.5" y2="382.5"/><ellipse cx="658" cy="397.3105" fill="#84BE84" rx="3" ry="3" style="stroke:#038048;stroke-width:1.0;"/><text fill="#000000" font-family="sans-serif" font-size="14" lengthAdjust="spacing" textLength="196" x="667" y="401.6074">getSensorType() : SensorType</text><ellipse cx="658" cy="415.9316" fill="#84BE84" rx="3" ry="3" style="stroke:#038048;stroke-width:1.0;"/><text fill="#000000" font-family="sans-serif" font-size="14" lengthAdjust="spacing" textLength="114" x="667" y="420.2285">getValue() : Value</text></g><!--class SensorType--><g id="elem_SensorType"><rect codeLine="30" fill="#F1F1F1" height="141.1055" id="SensorType" rx="2.5" ry="2.5" style="stroke:#181818;stroke-width:0.5;" width="316" x="887" y="314.5"/><ellipse cx="1002.25" cy="330.5" fill="#ADD1B2" rx="11" ry="11" style="stroke:#181818;stroke-width:1.0;"/><path d="M1005.0156,326.375 Q1005.1719,326.1563 1005.3594,326.0469 Q1005.5469,325.9375 1005.7656,325.9375 Q1006.1406,325.9375 1006.375,326.2031 Q1006.6094,326.4531 1006.6094,327.0625 L1006.6094,328.5156 Q1006.6094,329.125 1006.375,329.3906 Q1006.1406,329.6563 1005.7656,329.6563 Q1005.4219,329.6563 1005.2188,329.4531 Q1005.0156,329.2656 1004.9063,328.75 Q1004.8594,328.3906 1004.6719,328.2031 Q1004.3438,327.8281 1003.7344,327.6094 Q1003.125,327.3906 1002.5,327.3906 Q1001.7344,327.3906 1001.0938,327.7188 Q1000.4688,328.0469 999.9688,328.7969 Q999.4844,329.5469 999.4844,330.5781 L999.4844,331.6719 Q999.4844,332.9063 1000.375,333.7344 Q1001.2656,334.5469 1002.8594,334.5469 Q1003.7969,334.5469 1004.4531,334.2969 Q1004.8438,334.1406 1005.2656,333.7031 Q1005.5313,333.4375 1005.6719,333.3594 Q1005.8281,333.2813 1006.0313,333.2813 Q1006.3594,333.2813 1006.6094,333.5469 Q1006.875,333.7969 1006.875,334.1406 Q1006.875,334.4844 1006.5313,334.8906 Q1006.0313,335.4688 1005.2344,335.7969 Q1004.1563,336.25 1002.8594,336.25 Q1001.3438,336.25 1000.1406,335.625 Q999.1563,335.125 998.4688,334.0625 Q997.7813,332.9844 997.7813,331.7031 L997.7813,330.5469 Q997.7813,329.2188 998.3906,328.0781 Q999.0156,326.9219 1000.1094,326.3125 Q1001.2031,325.6875 1002.4375,325.6875 Q1003.1719,325.6875 1003.8125,325.8594 Q1004.4688,326.0156 1005.0156,326.375 Z " fill="#000000"/><text fill="#000000" font-family="sans-serif" font-size="14" lengthAdjust="spacing" textLength="77" x="1022.75" y="336.2969">SensorType</text><line style="stroke:#181818;stroke-width:0.5;" x1="888" x2="1202" y1="346.5" y2="346.5"/><rect fill="none" height="6" style="stroke:#C82930;stroke-width:1.0;" width="6" x="895" y="358.3105"/><text fill="#000000" font-family="sans-serif" font-size="14" lengthAdjust="spacing" textLength="174" x="907" y="365.6074">final _strDescription : String</text><rect fill="none" height="6" style="stroke:#C82930;stroke-width:1.0;" width="6" x="895" y="376.9316"/><text fill="#000000" font-family="sans-serif" font-size="14" lengthAdjust="spacing" textLength="97" x="907" y="384.2285">final _unit : Unit</text><line style="stroke:#181818;stroke-width:0.5;" x1="888" x2="1202" y1="391.7422" y2="391.7422"/><ellipse cx="898" cy="406.5527" fill="#84BE84" rx="3" ry="3" style="stroke:#038048;stroke-width:1.0;"/><text fill="#000000" font-family="sans-serif" font-size="14" lengthAdjust="spacing" textLength="290" x="907" y="410.8496">SensorType(strDescription : String, unit : Unit)</text><ellipse cx="898" cy="425.1738" fill="#84BE84" rx="3" ry="3" style="stroke:#038048;stroke-width:1.0;"/><text fill="#000000" font-family="sans-serif" font-size="14" lengthAdjust="spacing" textLength="168" x="907" y="429.4707">getStrDescription() : String</text><ellipse cx="898" cy="443.7949" fill="#84BE84" rx="3" ry="3" style="stroke:#038048;stroke-width:1.0;"/><text fill="#000000" font-family="sans-serif" font-size="14" lengthAdjust="spacing" textLength="90" x="907" y="448.0918">getUnit() : Unit</text></g><!--class CatalogueSensor--><g id="elem_CatalogueSensor"><rect codeLine="42" fill="#F1F1F1" height="215.5898" id="CatalogueSensor" rx="2.5" ry="2.5" style="stroke:#181818;stroke-width:0.5;" width="673" x="1221.5" y="277"/><ellipse cx="1498.75" cy="293" fill="#ADD1B2" rx="11" ry="11" style="stroke:#181818;stroke-width:1.0;"/><path d="M1501.5156,288.875 Q1501.6719,288.6563 1501.8594,288.5469 Q1502.0469,288.4375 1502.2656,288.4375 Q1502.6406,288.4375 1502.875,288.7031 Q1503.1094,288.9531 1503.1094,289.5625 L1503.1094,291.0156 Q1503.1094,291.625 1502.875,291.8906 Q1502.6406,292.1563 1502.2656,292.1563 Q1501.9219,292.1563 1501.7188,291.9531 Q1501.5156,291.7656 1501.4063,291.25 Q1501.3594,290.8906 1501.1719,290.7031 Q1500.8438,290.3281 1500.2344,290.1094 Q1499.625,289.8906 1499,289.8906 Q1498.2344,289.8906 1497.5938,290.2188 Q1496.9688,290.5469 1496.4688,291.2969 Q1495.9844,292.0469 1495.9844,293.0781 L1495.9844,294.1719 Q1495.9844,295.4063 1496.875,296.2344 Q1497.7656,297.0469 1499.3594,297.0469 Q1500.2969,297.0469 1500.9531,296.7969 Q1501.3438,296.6406 1501.7656,296.2031 Q1502.0313,295.9375 1502.1719,295.8594 Q1502.3281,295.7813 1502.5313,295.7813 Q1502.8594,295.7813 1503.1094,296.0469 Q1503.375,296.2969 1503.375,296.6406 Q1503.375,296.9844 1503.0313,297.3906 Q1502.5313,297.9688 1501.7344,298.2969 Q1500.6563,298.75 1499.3594,298.75 Q1497.8438,298.75 1496.6406,298.125 Q1495.6563,297.625 1494.9688,296.5625 Q1494.2813,295.4844 1494.2813,294.2031 L1494.2813,293.0469 Q1494.2813,291.7188 1494.8906,290.5781 Q1495.5156,289.4219 1496.6094,288.8125 Q1497.7031,288.1875 1498.9375,288.1875 Q1499.6719,288.1875 1500.3125,288.3594 Q1500.9688,288.5156 1501.5156,288.875 Z " fill="#000000"/><text fill="#000000" font-family="sans-serif" font-size="14" lengthAdjust="spacing" textLength="110" x="1519.25" y="298.7969">CatalogueSensor</text><line style="stroke:#181818;stroke-width:0.5;" x1="1222.5" x2="1893.5" y1="309" y2="309"/><rect fill="none" height="6" style="stroke:#C82930;stroke-width:1.0;" width="6" x="1229.5" y="320.8105"/><text fill="#000000" font-family="sans-serif" font-size="14" lengthAdjust="spacing" textLength="229" x="1241.5" y="328.1074">_listSensorType : List&lt;SensorType&gt;</text><rect fill="none" height="6" style="stroke:#C82930;stroke-width:1.0;" width="6" x="1229.5" y="339.4316"/><text fill="#000000" font-family="sans-serif" font-size="14" lengthAdjust="spacing" textLength="244" x="1241.5" y="346.7285">_listStringClassesSensor : List&lt;String&gt;</text><line style="stroke:#181818;stroke-width:0.5;" x1="1222.5" x2="1893.5" y1="354.2422" y2="354.2422"/><ellipse cx="1232.5" cy="369.0527" fill="#84BE84" rx="3" ry="3" style="stroke:#038048;stroke-width:1.0;"/><text fill="#000000" font-family="sans-serif" font-size="14" lengthAdjust="spacing" textLength="243" x="1241.5" y="373.3496">CatalogueSensor(String filePathname)</text><ellipse cx="1232.5" cy="387.6738" fill="#84BE84" rx="3" ry="3" style="stroke:#038048;stroke-width:1.0;"/><text fill="#000000" font-family="sans-serif" font-size="14" lengthAdjust="spacing" textLength="647" x="1241.5" y="391.9707">addSensorType(String strDescription, Unit unit, SensorTypeFactory sensorTypeFactory) : SensorType</text><ellipse cx="1232.5" cy="406.2949" fill="#84BE84" rx="3" ry="3" style="stroke:#038048;stroke-width:1.0;"/><text fill="#000000" font-family="sans-serif" font-size="14" lengthAdjust="spacing" textLength="391" x="1241.5" y="410.5918">addSensorTypeToList(SensorType sensorType): SensorType</text><ellipse cx="1232.5" cy="424.916" fill="#84BE84" rx="3" ry="3" style="stroke:#038048;stroke-width:1.0;"/><text fill="#000000" font-family="sans-serif" font-size="14" lengthAdjust="spacing" textLength="320" x="1241.5" y="429.2129">getSensorType(String strDescription): SensorType</text><ellipse cx="1232.5" cy="443.5371" fill="#84BE84" rx="3" ry="3" style="stroke:#038048;stroke-width:1.0;"/><text fill="#000000" font-family="sans-serif" font-size="14" lengthAdjust="spacing" textLength="237" x="1241.5" y="447.834">getSensorTypes(): List&lt;SensorType&gt;</text><ellipse cx="1232.5" cy="462.1582" fill="#84BE84" rx="3" ry="3" style="stroke:#038048;stroke-width:1.0;"/><text fill="#000000" font-family="sans-serif" font-size="14" lengthAdjust="spacing" textLength="203" x="1241.5" y="466.4551">getSensorModels(): List&lt;String&gt;</text><ellipse cx="1232.5" cy="480.7793" fill="#84BE84" rx="3" ry="3" style="stroke:#038048;stroke-width:1.0;"/><text fill="#000000" font-family="sans-serif" font-size="14" lengthAdjust="spacing" textLength="419" x="1241.5" y="485.0762">getSensor(String strModel, SensorFactory sensorFactory): Sensor</text></g><polygon fill="none" points="560.8699,385,542.8699,379,542.8699,391,560.8699,385" style="stroke:#181818;stroke-width:1.0;"/><path d="M542.8699,385 C531.132,385 537.3941,385 525.6563,385 " fill="none" style="stroke:#181818;stroke-width:1.0;stroke-dasharray:7.0,7.0;"/><polygon fill="none" points="730.1596,342.1956,724.3891,324.1207,714.6983,331.198,730.1596,342.1956" style="stroke:#181818;stroke-width:1.0;"/><path d="M526.0458,191.5335 C565.0659,206.6792 604.0048,225.3081 638,248 C675.3204,272.9114 697.6586,297.6926 719.5437,327.6594 " fill="none" style="stroke:#181818;stroke-width:1.0;stroke-dasharray:7.0,7.0;"/><polygon fill="#181818" points="975.0941,314.2633,970.9229,305.3414,971.3194,310.9843,965.6765,311.3808,975.0941,314.2633" style="stroke:#181818;stroke-width:1.0;"/><path d="M526.2702,152.4021 C636.1828,167.9794 768.2962,196.3535 878,248 C913.0135,264.4837 942.4829,285.934 970.5645,310.3285 " fill="none" style="stroke:#181818;stroke-width:1.0;"/><text fill="#000000" font-family="sans-serif" font-size="13" lengthAdjust="spacing" textLength="35" x="850" y="236.0283">&#171;has&#187;</text><text fill="#000000" font-family="sans-serif" font-size="13" lengthAdjust="spacing" textLength="7" x="967.0941" y="310.2917">1</text><text fill="#000000" font-family="sans-serif" font-size="13" lengthAdjust="spacing" textLength="7" x="527.2702" y="167.4304">1</text><polygon fill="#181818" points="283.1034,332.8639,287.9774,324.3056,283.5999,327.8886,280.0169,323.5112,283.1034,332.8639" style="stroke:#181818;stroke-width:1.0;"/><path d="M296.0361,203.2782 C291.9329,244.3922 287.4282,289.5291 283.6992,326.8936 " fill="none" style="stroke:#181818;stroke-width:1.0;"/><text fill="#000000" font-family="sans-serif" font-size="13" lengthAdjust="spacing" textLength="35" x="295" y="236.0283">&#171;has&#187;</text><text fill="#000000" font-family="sans-serif" font-size="13" lengthAdjust="spacing" textLength="7" x="275.1034" y="328.8922">1</text><text fill="#000000" font-family="sans-serif" font-size="13" lengthAdjust="spacing" textLength="7" x="288.0361" y="218.3065">1</text><polygon fill="#181818" points="1306.7081,276.8764,1299.5188,270.1448,1301.9849,275.2358,1296.8939,277.7019,1306.7081,276.8764" style="stroke:#181818;stroke-width:1.0;"/><path d="M1301.0402,274.9077 C1269.5322,263.9636 1243.1127,255.9413 1212,248 C982.3636,189.3868 712.1051,160.215 526.3029,146.0687 " fill="none" style="stroke:#181818;stroke-width:1.0;stroke-dasharray:7.0,7.0;"/><text fill="#000000" font-family="sans-serif" font-size="13" lengthAdjust="spacing" textLength="42" x="1165" y="236.0283">&#171;uses&#187;</text><text fill="#000000" font-family="sans-serif" font-size="13" lengthAdjust="spacing" textLength="7" x="527.3029" y="142.0971">1</text><text fill="#000000" font-family="sans-serif" font-size="13" lengthAdjust="spacing" textLength="7" x="1298.7081" y="272.9047">1</text><polygon fill="none" points="560.8699,385,542.8699,379,542.8699,391,560.8699,385" style="stroke:#181818;stroke-width:1.0;"/><path d="M525.6563,385 C537.3941,385 531.132,385 542.8699,385 " fill="none" style="stroke:#181818;stroke-width:1.0;stroke-dasharray:7.0,7.0;"/><!--SRC=[hLHDRvmm4BtpAwOvWTX5oZL2N3QgMgcH8ctQQpG5XrWrDi96qIhT_rwmCTWix8TKBWRFcpTl7cD_gHiiAmI61z4ga1LHo348Qip_O4bWNs6ZlecA999mAHe9dq40tPCpb1A-SzdXrRFu8CrESDbMjQA2xpMsWyBmRE7LvBySQW8Fi1y_NCWAsozaRPzqBXoCFF45KM6E2faeDUNElfjWDB6KH4qY8OoMHVSm8qyZZ9G-SBp29PD8gvgHYd0b7RCBKI7bYK5uDjBp7XMY_SskSMDGVHMTOmieiLSDvQLnHB_QXezBOsCwiLD3kIBD6-O4JaOa1i_oLSV1MdxESUVNcGfRUACSMJU6gdaaCc-exjFlOGIrdAekzBDR36liC8Oh51jmqg9Wwic3pttJa3v31tH5fvl9BtSKl5Pd8pps-ygeT4Vu0Nvq6-cqatb0hMZNCn8vCDaC7Sg6cOhd1KCJxwnZv1dLEyVA3amCM1IESGFIzs-ZczRURHoNlsAkH7C0ETzPcejPeHVH2m-TvYUMQ2dRdxn5cPVpP1YjUEmYdqH1c0CTp9t3714wmrhZss8jiTh6KtBi3-F9tPsSlnaXIVvcS7eB3TotqjtTty5sc-brXNCOp3HzHvbb_wd2XLnxjPqM7QJD3rJFdYR9RLN68vIcRNUYRcdE25px6UR2-mS0]--></g></svg>