<?xml version="1.0" encoding="us-ascii" standalone="no"?><svg xmlns="http://www.w3.org/2000/svg" xmlns:xlink="http://www.w3.org/1999/xlink" contentStyleType="text/css" height="1026px" preserveAspectRatio="none" style="width:2560px;height:1026px;background:#FFFFFF;" version="1.1" viewBox="0 0 2560 1026" width="2560px" zoomAndPan="magnify"><defs/><g><rect fill="#FFFFFF" height="850.2266" style="stroke:#181818;stroke-width:1.0;" width="10" x="251" y="120.1641"/><rect fill="#FFFFFF" height="93.873" style="stroke:#181818;stroke-width:1.0;" width="10" x="714" y="451.1035"/><rect fill="#FFFFFF" height="168.0859" style="stroke:#181818;stroke-width:1.0;" width="10" x="714" y="701.4316"/><rect fill="#FFFFFF" height="93.873" style="stroke:#181818;stroke-width:1.0;" width="10" x="910" y="576.2676"/><rect fill="#FFFFFF" height="31.291" style="stroke:#181818;stroke-width:1.0;" width="10" x="1093" y="482.3945"/><rect fill="#FFFFFF" height="31.291" style="stroke:#181818;stroke-width:1.0;" width="10" x="1297" y="607.5586"/><rect fill="#FFFFFF" height="33.6211" style="stroke:#181818;stroke-width:1.0;" width="10" x="1503.5" y="161.4551"/><rect fill="#FFFFFF" height="33.6211" style="stroke:#181818;stroke-width:1.0;" width="10" x="1724" y="236.3672"/><rect fill="#FFFFFF" height="33.6211" style="stroke:#181818;stroke-width:1.0;" width="10" x="1921" y="311.2793"/><rect fill="#FFFFFF" height="33.6211" style="stroke:#181818;stroke-width:1.0;" width="10" x="2069.5" y="386.1914"/><rect fill="#FFFFFF" height="31.291" style="stroke:#181818;stroke-width:1.0;" width="10" x="2273" y="759.0137"/><rect fill="#FFFFFF" height="31.291" style="stroke:#181818;stroke-width:1.0;" width="10" x="2481" y="907.8086"/><rect fill="none" height="161.0859" style="stroke:#000000;stroke-width:1.5;" width="2238" x="179.5" y="716.4316"/><line style="stroke:#181818;stroke-width:0.5;stroke-dasharray:5.0,5.0;" x1="14" x2="14" y1="38.6211" y2="988.3906"/><line style="stroke:#181818;stroke-width:0.5;stroke-dasharray:5.0,5.0;" x1="255.5" x2="255.5" y1="38.6211" y2="988.3906"/><line style="stroke:#181818;stroke-width:0.5;stroke-dasharray:5.0,5.0;" x1="718.5" x2="718.5" y1="38.6211" y2="988.3906"/><line style="stroke:#181818;stroke-width:0.5;stroke-dasharray:5.0,5.0;" x1="914.5" x2="914.5" y1="38.6211" y2="988.3906"/><line style="stroke:#181818;stroke-width:0.5;stroke-dasharray:5.0,5.0;" x1="1097.5" x2="1097.5" y1="38.6211" y2="988.3906"/><line style="stroke:#181818;stroke-width:0.5;stroke-dasharray:5.0,5.0;" x1="1301.5" x2="1301.5" y1="38.6211" y2="988.3906"/><line style="stroke:#181818;stroke-width:0.5;stroke-dasharray:5.0,5.0;" x1="1508.5" x2="1508.5" y1="159.9746" y2="988.3906"/><line style="stroke:#181818;stroke-width:0.5;stroke-dasharray:5.0,5.0;" x1="1728.5" x2="1728.5" y1="234.8867" y2="988.3906"/><line style="stroke:#181818;stroke-width:0.5;stroke-dasharray:5.0,5.0;" x1="1925.5" x2="1925.5" y1="309.7988" y2="988.3906"/><line style="stroke:#181818;stroke-width:0.5;stroke-dasharray:5.0,5.0;" x1="2074.5" x2="2074.5" y1="384.7109" y2="988.3906"/><line style="stroke:#181818;stroke-width:0.5;stroke-dasharray:5.0,5.0;" x1="2277.5" x2="2277.5" y1="38.6211" y2="988.3906"/><line style="stroke:#181818;stroke-width:0.5;stroke-dasharray:5.0,5.0;" x1="2485.5" x2="2485.5" y1="38.6211" y2="988.3906"/><rect fill="#E2E2F0" height="32.6211" rx="2.5" ry="2.5" style="stroke:#181818;stroke-width:0.5;" width="18" x="5" y="5"/><text fill="#000000" font-family="sans-serif" font-size="14" lengthAdjust="spacing" textLength="4" x="12" y="27.1074">&#160;</text><rect fill="#E2E2F0" height="32.6211" rx="2.5" ry="2.5" style="stroke:#181818;stroke-width:0.5;" width="18" x="5" y="987.3906"/><text fill="#000000" font-family="sans-serif" font-size="14" lengthAdjust="spacing" textLength="4" x="12" y="1009.498">&#160;</text><rect fill="#E2E2F0" height="32.6211" rx="2.5" ry="2.5" style="stroke:#181818;stroke-width:0.5;" width="133" x="189.5" y="5"/><text fill="#000000" font-family="sans-serif" font-size="14" lengthAdjust="spacing" textLength="119" x="196.5" y="27.1074">:ActuatorController</text><rect fill="#E2E2F0" height="32.6211" rx="2.5" ry="2.5" style="stroke:#181818;stroke-width:0.5;" width="133" x="189.5" y="987.3906"/><text fill="#000000" font-family="sans-serif" font-size="14" lengthAdjust="spacing" textLength="119" x="196.5" y="1009.498">:ActuatorController</text><rect fill="#E2E2F0" height="32.6211" rx="2.5" ry="2.5" style="stroke:#181818;stroke-width:0.5;" width="217" x="610.5" y="5"/><text fill="#000000" font-family="sans-serif" font-size="14" lengthAdjust="spacing" textLength="203" x="617.5" y="27.1074">actuatorService:ActuatorService</text><rect fill="#E2E2F0" height="32.6211" rx="2.5" ry="2.5" style="stroke:#181818;stroke-width:0.5;" width="217" x="610.5" y="987.3906"/><text fill="#000000" font-family="sans-serif" font-size="14" lengthAdjust="spacing" textLength="203" x="617.5" y="1009.498">actuatorService:ActuatorService</text><rect fill="#E2E2F0" height="32.6211" rx="2.5" ry="2.5" style="stroke:#181818;stroke-width:0.5;" width="155" x="837.5" y="5"/><text fill="#000000" font-family="sans-serif" font-size="14" lengthAdjust="spacing" textLength="141" x="844.5" y="27.1074">logService:LogService</text><rect fill="#E2E2F0" height="32.6211" rx="2.5" ry="2.5" style="stroke:#181818;stroke-width:0.5;" width="155" x="837.5" y="987.3906"/><text fill="#000000" font-family="sans-serif" font-size="14" lengthAdjust="spacing" textLength="141" x="844.5" y="1009.498">logService:LogService</text><rect fill="#E2E2F0" height="32.6211" rx="2.5" ry="2.5" style="stroke:#181818;stroke-width:0.5;" width="191" x="1002.5" y="5"/><text fill="#000000" font-family="sans-serif" font-size="14" lengthAdjust="spacing" textLength="177" x="1009.5" y="27.1074">actuatorRepo:ActuatorRepo</text><rect fill="#E2E2F0" height="32.6211" rx="2.5" ry="2.5" style="stroke:#181818;stroke-width:0.5;" width="191" x="1002.5" y="987.3906"/><text fill="#000000" font-family="sans-serif" font-size="14" lengthAdjust="spacing" textLength="177" x="1009.5" y="1009.498">actuatorRepo:ActuatorRepo</text><rect fill="#E2E2F0" height="32.6211" rx="2.5" ry="2.5" style="stroke:#181818;stroke-width:0.5;" width="197" x="1203.5" y="5"/><text fill="#000000" font-family="sans-serif" font-size="14" lengthAdjust="spacing" textLength="183" x="1210.5" y="27.1074">logRepository:LogRepository</text><rect fill="#E2E2F0" height="32.6211" rx="2.5" ry="2.5" style="stroke:#181818;stroke-width:0.5;" width="197" x="1203.5" y="987.3906"/><text fill="#000000" font-family="sans-serif" font-size="14" lengthAdjust="spacing" textLength="183" x="1210.5" y="1009.498">logRepository:LogRepository</text><rect fill="#E2E2F0" height="32.6211" rx="2.5" ry="2.5" style="stroke:#181818;stroke-width:0.5;" width="196" x="1410.5" y="987.3906"/><text fill="#000000" font-family="sans-serif" font-size="14" lengthAdjust="spacing" textLength="182" x="1417.5" y="1009.498">sensorTypeID:SensorTypeID</text><rect fill="#E2E2F0" height="32.6211" rx="2.5" ry="2.5" style="stroke:#181818;stroke-width:0.5;" width="225" x="1616.5" y="987.3906"/><text fill="#000000" font-family="sans-serif" font-size="14" lengthAdjust="spacing" textLength="211" x="1623.5" y="1009.498">blindRollerValue:BlindRollerValue</text><rect fill="#E2E2F0" height="32.6211" rx="2.5" ry="2.5" style="stroke:#181818;stroke-width:0.5;" width="149" x="1851.5" y="987.3906"/><text fill="#000000" font-family="sans-serif" font-size="14" lengthAdjust="spacing" textLength="135" x="1858.5" y="1009.498">actuatorID:ActuatorID</text><rect fill="#E2E2F0" height="32.6211" rx="2.5" ry="2.5" style="stroke:#181818;stroke-width:0.5;" width="128" x="2010.5" y="987.3906"/><text fill="#000000" font-family="sans-serif" font-size="14" lengthAdjust="spacing" textLength="114" x="2017.5" y="1009.498">deviceID:DeviceID</text><rect fill="#E2E2F0" height="32.6211" rx="2.5" ry="2.5" style="stroke:#181818;stroke-width:0.5;" width="259" x="2148.5" y="5"/><text fill="#000000" font-family="sans-serif" font-size="14" lengthAdjust="spacing" textLength="245" x="2155.5" y="27.1074">blindRollerActuator:BlindRollerActuator</text><rect fill="#E2E2F0" height="32.6211" rx="2.5" ry="2.5" style="stroke:#181818;stroke-width:0.5;" width="259" x="2148.5" y="987.3906"/><text fill="#000000" font-family="sans-serif" font-size="14" lengthAdjust="spacing" textLength="245" x="2155.5" y="1009.498">blindRollerActuator:BlindRollerActuator</text><rect fill="#E2E2F0" height="32.6211" rx="2.5" ry="2.5" style="stroke:#181818;stroke-width:0.5;" width="137" x="2417.5" y="5"/><text fill="#000000" font-family="sans-serif" font-size="14" lengthAdjust="spacing" textLength="123" x="2424.5" y="27.1074">:ActuatorAssembler</text><rect fill="#E2E2F0" height="32.6211" rx="2.5" ry="2.5" style="stroke:#181818;stroke-width:0.5;" width="137" x="2417.5" y="987.3906"/><text fill="#000000" font-family="sans-serif" font-size="14" lengthAdjust="spacing" textLength="123" x="2424.5" y="1009.498">:ActuatorAssembler</text><rect fill="#FFFFFF" height="850.2266" style="stroke:#181818;stroke-width:1.0;" width="10" x="251" y="120.1641"/><rect fill="#FFFFFF" height="93.873" style="stroke:#181818;stroke-width:1.0;" width="10" x="714" y="451.1035"/><rect fill="#FFFFFF" height="168.0859" style="stroke:#181818;stroke-width:1.0;" width="10" x="714" y="701.4316"/><rect fill="#FFFFFF" height="93.873" style="stroke:#181818;stroke-width:1.0;" width="10" x="910" y="576.2676"/><rect fill="#FFFFFF" height="31.291" style="stroke:#181818;stroke-width:1.0;" width="10" x="1093" y="482.3945"/><rect fill="#FFFFFF" height="31.291" style="stroke:#181818;stroke-width:1.0;" width="10" x="1297" y="607.5586"/><rect fill="#FFFFFF" height="33.6211" style="stroke:#181818;stroke-width:1.0;" width="10" x="1503.5" y="161.4551"/><rect fill="#FFFFFF" height="33.6211" style="stroke:#181818;stroke-width:1.0;" width="10" x="1724" y="236.3672"/><rect fill="#FFFFFF" height="33.6211" style="stroke:#181818;stroke-width:1.0;" width="10" x="1921" y="311.2793"/><rect fill="#FFFFFF" height="33.6211" style="stroke:#181818;stroke-width:1.0;" width="10" x="2069.5" y="386.1914"/><rect fill="#FFFFFF" height="31.291" style="stroke:#181818;stroke-width:1.0;" width="10" x="2273" y="759.0137"/><rect fill="#FFFFFF" height="31.291" style="stroke:#181818;stroke-width:1.0;" width="10" x="2481" y="907.8086"/><rect fill="none" height="43.252" style="stroke:#000000;stroke-width:1.5;" width="323.5" x="2" y="48.6211"/><path d="M2,48.6211 L64,48.6211 L64,57.6211 L54,67.6211 L2,67.6211 L2,48.6211 " fill="#EEEEEE" style="stroke:#000000;stroke-width:2.0;"/><text fill="#000000" font-family="sans-serif" font-size="13" font-weight="bold" lengthAdjust="spacing" textLength="17" x="15" y="64.6494">ref</text><text fill="#000000" font-family="sans-serif" font-size="12" lengthAdjust="spacing" textLength="130" x="98.75" y="84.5703">getActuatorsByDeviceID</text><ellipse cx="13.5" cy="119.4141" fill="none" rx="4" ry="4" style="stroke:#181818;stroke-width:1.5;"/><polygon fill="#181818" points="239,116.1641,249,120.1641,239,124.1641,243,120.1641" style="stroke:#181818;stroke-width:1.0;"/><line style="stroke:#181818;stroke-width:1.0;" x1="18" x2="245" y1="120.1641" y2="120.1641"/><text fill="#000000" font-family="sans-serif" font-size="13" font-weight="bold" lengthAdjust="spacing" textLength="7" x="21" y="114.9014">1</text><text fill="#000000" font-family="sans-serif" font-size="13" lengthAdjust="spacing" textLength="207" x="32" y="114.9014">closeBlindRoller(actuatorValueDTO)</text><polygon fill="#181818" points="1398.5,147.4551,1408.5,151.4551,1398.5,155.4551,1402.5,151.4551" style="stroke:#181818;stroke-width:1.0;"/><line style="stroke:#181818;stroke-width:1.0;" x1="261" x2="1404.5" y1="151.4551" y2="151.4551"/><text fill="#000000" font-family="sans-serif" font-size="13" font-weight="bold" lengthAdjust="spacing" textLength="7" x="268" y="146.1924">2</text><text fill="#000000" font-family="sans-serif" font-size="13" lengthAdjust="spacing" textLength="216" x="279" y="146.1924">SensorTypeID ("PercentagePosition")</text><rect fill="#E2E2F0" height="32.6211" rx="2.5" ry="2.5" style="stroke:#181818;stroke-width:0.5;" width="196" x="1410.5" y="128.1641"/><text fill="#000000" font-family="sans-serif" font-size="14" lengthAdjust="spacing" textLength="182" x="1417.5" y="150.2715">sensorTypeID:SensorTypeID</text><polygon fill="#181818" points="272,191.0762,262,195.0762,272,199.0762,268,195.0762" style="stroke:#181818;stroke-width:1.0;"/><line style="stroke:#181818;stroke-width:1.0;stroke-dasharray:2.0,2.0;" x1="266" x2="1507.5" y1="195.0762" y2="195.0762"/><text fill="#000000" font-family="sans-serif" font-size="13" font-weight="bold" lengthAdjust="spacing" textLength="7" x="278" y="189.8135">3</text><text fill="#000000" font-family="sans-serif" font-size="13" lengthAdjust="spacing" textLength="79" x="289" y="189.8135">sensorTypeID</text><polygon fill="#181818" points="1604.5,222.3672,1614.5,226.3672,1604.5,230.3672,1608.5,226.3672" style="stroke:#181818;stroke-width:1.0;"/><line style="stroke:#181818;stroke-width:1.0;" x1="261" x2="1610.5" y1="226.3672" y2="226.3672"/><text fill="#000000" font-family="sans-serif" font-size="13" font-weight="bold" lengthAdjust="spacing" textLength="7" x="268" y="221.1045">4</text><text fill="#000000" font-family="sans-serif" font-size="13" lengthAdjust="spacing" textLength="132" x="279" y="221.1045">BlindRollerValue(value)</text><rect fill="#E2E2F0" height="32.6211" rx="2.5" ry="2.5" style="stroke:#181818;stroke-width:0.5;" width="225" x="1616.5" y="203.0762"/><text fill="#000000" font-family="sans-serif" font-size="14" lengthAdjust="spacing" textLength="211" x="1623.5" y="225.1836">blindRollerValue:BlindRollerValue</text><polygon fill="#181818" points="272,265.9883,262,269.9883,272,273.9883,268,269.9883" style="stroke:#181818;stroke-width:1.0;"/><line style="stroke:#181818;stroke-width:1.0;stroke-dasharray:2.0,2.0;" x1="266" x2="1728" y1="269.9883" y2="269.9883"/><text fill="#000000" font-family="sans-serif" font-size="13" font-weight="bold" lengthAdjust="spacing" textLength="7" x="278" y="264.7256">5</text><text fill="#000000" font-family="sans-serif" font-size="13" lengthAdjust="spacing" textLength="93" x="289" y="264.7256">blindRollerValue</text><polygon fill="#181818" points="1839.5,297.2793,1849.5,301.2793,1839.5,305.2793,1843.5,301.2793" style="stroke:#181818;stroke-width:1.0;"/><line style="stroke:#181818;stroke-width:1.0;" x1="261" x2="1845.5" y1="301.2793" y2="301.2793"/><text fill="#000000" font-family="sans-serif" font-size="13" font-weight="bold" lengthAdjust="spacing" textLength="7" x="268" y="296.0166">6</text><text fill="#000000" font-family="sans-serif" font-size="13" lengthAdjust="spacing" textLength="149" x="279" y="296.0166">ActuatorID (strActuatorID)</text><rect fill="#E2E2F0" height="32.6211" rx="2.5" ry="2.5" style="stroke:#181818;stroke-width:0.5;" width="149" x="1851.5" y="277.9883"/><text fill="#000000" font-family="sans-serif" font-size="14" lengthAdjust="spacing" textLength="135" x="1858.5" y="300.0957">actuatorID:ActuatorID</text><polygon fill="#181818" points="272,340.9004,262,344.9004,272,348.9004,268,344.9004" style="stroke:#181818;stroke-width:1.0;"/><line style="stroke:#181818;stroke-width:1.0;stroke-dasharray:2.0,2.0;" x1="266" x2="1925" y1="344.9004" y2="344.9004"/><text fill="#000000" font-family="sans-serif" font-size="13" font-weight="bold" lengthAdjust="spacing" textLength="7" x="278" y="339.6377">7</text><text fill="#000000" font-family="sans-serif" font-size="13" lengthAdjust="spacing" textLength="59" x="289" y="339.6377">actuatorID</text><polygon fill="#181818" points="1998.5,372.1914,2008.5,376.1914,1998.5,380.1914,2002.5,376.1914" style="stroke:#181818;stroke-width:1.0;"/><line style="stroke:#181818;stroke-width:1.0;" x1="261" x2="2004.5" y1="376.1914" y2="376.1914"/><text fill="#000000" font-family="sans-serif" font-size="13" font-weight="bold" lengthAdjust="spacing" textLength="7" x="268" y="370.9287">8</text><text fill="#000000" font-family="sans-serif" font-size="13" lengthAdjust="spacing" textLength="127" x="279" y="370.9287">DeviceID (strDeviceID)</text><rect fill="#E2E2F0" height="32.6211" rx="2.5" ry="2.5" style="stroke:#181818;stroke-width:0.5;" width="128" x="2010.5" y="352.9004"/><text fill="#000000" font-family="sans-serif" font-size="14" lengthAdjust="spacing" textLength="114" x="2017.5" y="375.0078">deviceID:DeviceID</text><polygon fill="#181818" points="272,415.8125,262,419.8125,272,423.8125,268,419.8125" style="stroke:#181818;stroke-width:1.0;"/><line style="stroke:#181818;stroke-width:1.0;stroke-dasharray:2.0,2.0;" x1="266" x2="2073.5" y1="419.8125" y2="419.8125"/><text fill="#000000" font-family="sans-serif" font-size="13" font-weight="bold" lengthAdjust="spacing" textLength="7" x="278" y="414.5498">9</text><text fill="#000000" font-family="sans-serif" font-size="13" lengthAdjust="spacing" textLength="48" x="289" y="414.5498">deviceID</text><polygon fill="#181818" points="702,447.1035,712,451.1035,702,455.1035,706,451.1035" style="stroke:#181818;stroke-width:1.0;"/><line style="stroke:#181818;stroke-width:1.0;" x1="261" x2="708" y1="451.1035" y2="451.1035"/><text fill="#000000" font-family="sans-serif" font-size="13" font-weight="bold" lengthAdjust="spacing" textLength="14" x="268" y="445.8408">10</text><text fill="#000000" font-family="sans-serif" font-size="13" lengthAdjust="spacing" textLength="166" x="286" y="445.8408">getActuatorByID (actuatorID)</text><polygon fill="#181818" points="1081,478.3945,1091,482.3945,1081,486.3945,1085,482.3945" style="stroke:#181818;stroke-width:1.0;"/><line style="stroke:#181818;stroke-width:1.0;" x1="724" x2="1087" y1="482.3945" y2="482.3945"/><text fill="#000000" font-family="sans-serif" font-size="13" font-weight="bold" lengthAdjust="spacing" textLength="14" x="731" y="477.1318">11</text><text fill="#000000" font-family="sans-serif" font-size="13" lengthAdjust="spacing" textLength="119" x="749" y="477.1318">ofIdentity(actuatorID)</text><polygon fill="#181818" points="735,509.6855,725,513.6855,735,517.6855,731,513.6855" style="stroke:#181818;stroke-width:1.0;"/><line style="stroke:#181818;stroke-width:1.0;stroke-dasharray:2.0,2.0;" x1="729" x2="1097" y1="513.6855" y2="513.6855"/><text fill="#000000" font-family="sans-serif" font-size="13" font-weight="bold" lengthAdjust="spacing" textLength="14" x="741" y="508.4229">12</text><text fill="#000000" font-family="sans-serif" font-size="13" lengthAdjust="spacing" textLength="109" x="759" y="508.4229">actuatorBlindRoller</text><polygon fill="#181818" points="272,540.9766,262,544.9766,272,548.9766,268,544.9766" style="stroke:#181818;stroke-width:1.0;"/><line style="stroke:#181818;stroke-width:1.0;stroke-dasharray:2.0,2.0;" x1="266" x2="718" y1="544.9766" y2="544.9766"/><text fill="#000000" font-family="sans-serif" font-size="13" font-weight="bold" lengthAdjust="spacing" textLength="14" x="278" y="539.7139">13</text><text fill="#000000" font-family="sans-serif" font-size="13" lengthAdjust="spacing" textLength="109" x="296" y="539.7139">actuatorBlindRoller</text><polygon fill="#181818" points="898,572.2676,908,576.2676,898,580.2676,902,576.2676" style="stroke:#181818;stroke-width:1.0;"/><line style="stroke:#181818;stroke-width:1.0;" x1="261" x2="904" y1="576.2676" y2="576.2676"/><text fill="#000000" font-family="sans-serif" font-size="13" font-weight="bold" lengthAdjust="spacing" textLength="14" x="268" y="571.0049">14</text><text fill="#000000" font-family="sans-serif" font-size="13" lengthAdjust="spacing" textLength="257" x="286" y="571.0049">getDeviceReadings (deviceID, sensorTypeID)</text><polygon fill="#181818" points="1285,603.5586,1295,607.5586,1285,611.5586,1289,607.5586" style="stroke:#181818;stroke-width:1.0;"/><line style="stroke:#181818;stroke-width:1.0;" x1="920" x2="1291" y1="607.5586" y2="607.5586"/><text fill="#000000" font-family="sans-serif" font-size="13" font-weight="bold" lengthAdjust="spacing" textLength="14" x="927" y="602.2959">15</text><text fill="#000000" font-family="sans-serif" font-size="13" lengthAdjust="spacing" textLength="257" x="945" y="602.2959">getDeviceReadings (deviceID, sensorTypeID)</text><polygon fill="#181818" points="931,634.8496,921,638.8496,931,642.8496,927,638.8496" style="stroke:#181818;stroke-width:1.0;"/><line style="stroke:#181818;stroke-width:1.0;stroke-dasharray:2.0,2.0;" x1="925" x2="1301" y1="638.8496" y2="638.8496"/><text fill="#000000" font-family="sans-serif" font-size="13" font-weight="bold" lengthAdjust="spacing" textLength="14" x="937" y="633.5869">16</text><text fill="#000000" font-family="sans-serif" font-size="13" lengthAdjust="spacing" textLength="111" x="955" y="633.5869">deviceReadingsList</text><polygon fill="#181818" points="272,666.1406,262,670.1406,272,674.1406,268,670.1406" style="stroke:#181818;stroke-width:1.0;"/><line style="stroke:#181818;stroke-width:1.0;stroke-dasharray:2.0,2.0;" x1="266" x2="914" y1="670.1406" y2="670.1406"/><text fill="#000000" font-family="sans-serif" font-size="13" font-weight="bold" lengthAdjust="spacing" textLength="14" x="278" y="664.8779">17</text><text fill="#000000" font-family="sans-serif" font-size="13" lengthAdjust="spacing" textLength="111" x="296" y="664.8779">deviceReadingsList</text><polygon fill="#181818" points="702,697.4316,712,701.4316,702,705.4316,706,701.4316" style="stroke:#181818;stroke-width:1.0;"/><line style="stroke:#181818;stroke-width:1.0;" x1="261" x2="708" y1="701.4316" y2="701.4316"/><text fill="#000000" font-family="sans-serif" font-size="13" font-weight="bold" lengthAdjust="spacing" textLength="14" x="268" y="696.1689">18</text><text fill="#000000" font-family="sans-serif" font-size="13" lengthAdjust="spacing" textLength="416" x="286" y="696.1689">setValue (actuatorBlindRoller, blindRollerValue, blindRollerCurrentValue)</text><path d="M179.5,716.4316 L240.5,716.4316 L240.5,725.7227 L230.5,735.7227 L179.5,735.7227 L179.5,716.4316 " fill="#EEEEEE" style="stroke:#000000;stroke-width:1.5;"/><rect fill="none" height="161.0859" style="stroke:#000000;stroke-width:1.5;" width="2238" x="179.5" y="716.4316"/><text fill="#000000" font-family="sans-serif" font-size="13" font-weight="bold" lengthAdjust="spacing" textLength="16" x="194.5" y="731.46">alt</text><text fill="#000000" font-family="sans-serif" font-size="11" font-weight="bold" lengthAdjust="spacing" textLength="192" x="255.5" y="730.3018">[value lower than blindRollerValue]</text><polygon fill="#181818" points="2261,755.0137,2271,759.0137,2261,763.0137,2265,759.0137" style="stroke:#181818;stroke-width:1.0;"/><line style="stroke:#181818;stroke-width:1.0;" x1="724" x2="2267" y1="759.0137" y2="759.0137"/><text fill="#000000" font-family="sans-serif" font-size="13" font-weight="bold" lengthAdjust="spacing" textLength="14" x="731" y="753.751">19</text><text fill="#000000" font-family="sans-serif" font-size="13" lengthAdjust="spacing" textLength="88" x="749" y="753.751">setValue(value)</text><polygon fill="#181818" points="735,786.3047,725,790.3047,735,794.3047,731,790.3047" style="stroke:#181818;stroke-width:1.0;"/><line style="stroke:#181818;stroke-width:1.0;stroke-dasharray:2.0,2.0;" x1="729" x2="2277" y1="790.3047" y2="790.3047"/><text fill="#000000" font-family="sans-serif" font-size="13" font-weight="bold" lengthAdjust="spacing" textLength="14" x="741" y="785.042">20</text><text fill="#000000" font-family="sans-serif" font-size="13" lengthAdjust="spacing" textLength="93" x="759" y="785.042">blindRollerValue</text><polygon fill="#181818" points="272,817.5957,262,821.5957,272,825.5957,268,821.5957" style="stroke:#181818;stroke-width:1.0;"/><line style="stroke:#181818;stroke-width:1.0;stroke-dasharray:2.0,2.0;" x1="266" x2="713" y1="821.5957" y2="821.5957"/><text fill="#000000" font-family="sans-serif" font-size="13" font-weight="bold" lengthAdjust="spacing" textLength="14" x="278" y="816.333">21</text><text fill="#000000" font-family="sans-serif" font-size="13" lengthAdjust="spacing" textLength="93" x="296" y="816.333">blindRollerValue</text><line style="stroke:#000000;stroke-width:1.0;stroke-dasharray:2.0,2.0;" x1="179.5" x2="2417.5" y1="830.5957" y2="830.5957"/><text fill="#000000" font-family="sans-serif" font-size="11" font-weight="bold" lengthAdjust="spacing" textLength="196" x="184.5" y="842.4658">[value higher than blindRollerValue]</text><polygon fill="#181818" points="272,865.5176,262,869.5176,272,873.5176,268,869.5176" style="stroke:#181818;stroke-width:1.0;"/><line style="stroke:#181818;stroke-width:1.0;stroke-dasharray:2.0,2.0;" x1="266" x2="718" y1="869.5176" y2="869.5176"/><text fill="#000000" font-family="sans-serif" font-size="13" font-weight="bold" lengthAdjust="spacing" textLength="14" x="278" y="864.2549">22</text><text fill="#000000" font-family="sans-serif" font-size="13" lengthAdjust="spacing" textLength="147" x="296" y="864.2549">IllegalArgumentException</text><polygon fill="#181818" points="2469,903.8086,2479,907.8086,2469,911.8086,2473,907.8086" style="stroke:#181818;stroke-width:1.0;"/><line style="stroke:#181818;stroke-width:1.0;" x1="261" x2="2475" y1="907.8086" y2="907.8086"/><text fill="#000000" font-family="sans-serif" font-size="13" font-weight="bold" lengthAdjust="spacing" textLength="14" x="268" y="902.5459">23</text><text fill="#000000" font-family="sans-serif" font-size="13" lengthAdjust="spacing" textLength="203" x="286" y="902.5459">domainToDTO (actuatorBlindRoller)</text><polygon fill="#181818" points="272,935.0996,262,939.0996,272,943.0996,268,939.0996" style="stroke:#181818;stroke-width:1.0;"/><line style="stroke:#181818;stroke-width:1.0;stroke-dasharray:2.0,2.0;" x1="266" x2="2485" y1="939.0996" y2="939.0996"/><text fill="#000000" font-family="sans-serif" font-size="13" font-weight="bold" lengthAdjust="spacing" textLength="14" x="278" y="933.8369">24</text><text fill="#000000" font-family="sans-serif" font-size="13" lengthAdjust="spacing" textLength="73" x="296" y="933.8369">actuatorDTO</text><polygon fill="#181818" points="25,966.3906,15,970.3906,25,974.3906,21,970.3906" style="stroke:#181818;stroke-width:1.0;"/><line style="stroke:#181818;stroke-width:1.0;stroke-dasharray:2.0,2.0;" x1="19" x2="255" y1="970.3906" y2="970.3906"/><text fill="#000000" font-family="sans-serif" font-size="13" font-weight="bold" lengthAdjust="spacing" textLength="14" x="31" y="965.1279">25</text><text fill="#000000" font-family="sans-serif" font-size="13" lengthAdjust="spacing" textLength="73" x="49" y="965.1279">actuatorDTO</text><!--SRC=[dLP1Jzqm3BxdLsHSzYR1kFSmwS7R0Gbf21Ztq9g-IctI9UdRthzV4fhKQT8M0HB4JlpvisCx_NhKkbV5zNNVCgw7hlrUYkvQmPy1U0bNLSDgoJhofPUixXXjsLaCcgeEDEECi44BFdIl80cXvgTdKZTbqnieUc5-cQA_bTbCzefzgGUcXRmLN4lHjY3TwLITshBnp1F8KrD2W1hb26VKfI2jgBtzVLWwqqbSTlq8lGX-hH0vjOgiHxkX6dFYR9rEalSxQL9p1Lm9-NpkuUvGF2716MD5QllQDhnwTEbyOUq0nSrCuJ3cokNm3ODzM4QXvxnNO9DfR0xZmbbuOPMjXyM4lMxEsUjNYcsl57IlyreBMl9Un1BUg3Y1TALxcId9WjQWlLhTd4Cen5fGSVKZQrIsGW4YlFFfTDa-FF_wHeocEJ4DkJuWfGIx5LrrUeuQx_X84KbqT_40iWIkMGqFjjWQmI-GumYTHAPN2t7XoYGLB42Dx9CYoqSmFrOacjt9_aNC4sGoron6CEyF74KAEqQ2IZuVmtI05bZOAIqdCNFfDbte_1BhgHinNmmoCWtrcUVfjmtBiBGSlO0OJfKUJYwnyrsFkKtcwndpandtsStPqc9hUVDZcymK6DfDRYhUxYhJ0uq-hoEwIKwm5CKRU7eGL2ovEudX0hkD-zq0JQAESpezPowTxrVm2AngUAtepb_JPTJ6A1NeEIJJUaH63zfdmT6RHoBHvGMphoBq-qPfd8uKQYk_ctWRcKsgG85-dpExpDLT9bCcqjmEKfgAV9aDjUIIMQkfctoq5NyD3traF9rVkGx8F9KJvRLf6XvMab7c- -630tL2_cXFf952gs3CoB6fZuif-QY7E_ElPkrUraDdBkJdln9w-qYIjTu3NcrLIVZAC8KdEjRmPs6U_6ofPEuVVQCagiq1Olpao6SmCNK3QZzdDc7G9yf_]--></g></svg>