<?xml version="1.0" encoding="us-ascii" standalone="no"?><svg xmlns="http://www.w3.org/2000/svg" xmlns:xlink="http://www.w3.org/1999/xlink" contentStyleType="text/css" height="249px" preserveAspectRatio="none" style="width:375px;height:249px;background:#FFFFFF;" version="1.1" viewBox="0 0 375 249" width="375px" zoomAndPan="magnify"><defs/><g><rect fill="#FFFFFF" height="63.582" style="stroke:#181818;stroke-width:1.0;" width="10" x="56.5" y="93.6211"/><rect fill="#FFFFFF" height="63.582" style="stroke:#181818;stroke-width:1.0;" width="10" x="334.5" y="93.6211"/><line style="stroke:#181818;stroke-width:0.5;stroke-dasharray:5.0,5.0;" x1="61" x2="61" y1="83.6211" y2="166.2031"/><line style="stroke:#181818;stroke-width:0.5;stroke-dasharray:5.0,5.0;" x1="339.5" x2="339.5" y1="83.6211" y2="166.2031"/><text fill="#000000" font-family="sans-serif" font-size="14" lengthAdjust="spacing" textLength="107" x="5" y="80.1074">RO, PU or Admin</text><ellipse cx="61.5" cy="13.5" fill="#E2E2F0" rx="8" ry="8" style="stroke:#181818;stroke-width:0.5;"/><path d="M61.5,21.5 L61.5,48.5 M48.5,29.5 L74.5,29.5 M61.5,48.5 L48.5,63.5 M61.5,48.5 L74.5,63.5 " fill="none" style="stroke:#181818;stroke-width:0.5;"/><text fill="#000000" font-family="sans-serif" font-size="14" lengthAdjust="spacing" textLength="107" x="5" y="180.3105">RO, PU or Admin</text><ellipse cx="61.5" cy="192.3242" fill="#E2E2F0" rx="8" ry="8" style="stroke:#181818;stroke-width:0.5;"/><path d="M61.5,200.3242 L61.5,227.3242 M48.5,208.3242 L74.5,208.3242 M61.5,227.3242 L48.5,242.3242 M61.5,227.3242 L74.5,242.3242 " fill="none" style="stroke:#181818;stroke-width:0.5;"/><rect fill="#E2E2F0" height="32.6211" rx="2.5" ry="2.5" style="stroke:#181818;stroke-width:0.5;" width="60" x="309.5" y="50"/><text fill="#000000" font-family="sans-serif" font-size="14" lengthAdjust="spacing" textLength="46" x="316.5" y="72.1074">System</text><rect fill="#E2E2F0" height="32.6211" rx="2.5" ry="2.5" style="stroke:#181818;stroke-width:0.5;" width="60" x="309.5" y="165.2031"/><text fill="#000000" font-family="sans-serif" font-size="14" lengthAdjust="spacing" textLength="46" x="316.5" y="187.3105">System</text><rect fill="#FFFFFF" height="63.582" style="stroke:#181818;stroke-width:1.0;" width="10" x="56.5" y="93.6211"/><rect fill="#FFFFFF" height="63.582" style="stroke:#181818;stroke-width:1.0;" width="10" x="334.5" y="93.6211"/><polygon fill="#181818" points="322.5,112.9121,332.5,116.9121,322.5,120.9121,326.5,116.9121" style="stroke:#181818;stroke-width:1.0;"/><line style="stroke:#181818;stroke-width:1.0;" x1="66.5" x2="328.5" y1="116.9121" y2="116.9121"/><text fill="#000000" font-family="sans-serif" font-size="13" lengthAdjust="spacing" textLength="244" x="73.5" y="111.6494">I want to close the blind roller in this room!</text><polygon fill="#181818" points="77.5,144.2031,67.5,148.2031,77.5,152.2031,73.5,148.2031" style="stroke:#181818;stroke-width:1.0;"/><line style="stroke:#181818;stroke-width:1.0;stroke-dasharray:2.0,2.0;" x1="71.5" x2="333.5" y1="148.2031" y2="148.2031"/><text fill="#000000" font-family="sans-serif" font-size="13" lengthAdjust="spacing" textLength="106" x="83.5" y="142.9404">Blind roller closed!</text><!--SRC=[JOmx3i8m44HxdsAIcbmW1H9qL21G3h3O5gpad-m5bDjZ9n6YsvbzRxgKwU49ZkRu4XHlXG8fHLfYHdyzxt2PKC-3yHnwKC5KR5Q9ih3cH45mcujOlpZy9h4hyKlRkvKOzbiSSSAdoHAXNImMyhIuEmu6EJfNMGwrur9Zz9rQDGnreIsDEFwpouJfr1S0]--></g></svg>