<?xml version="1.0" encoding="us-ascii" standalone="no"?><svg xmlns="http://www.w3.org/2000/svg" xmlns:xlink="http://www.w3.org/1999/xlink" contentStyleType="text/css" height="430.4px" preserveAspectRatio="none" style="width:1164px;height:430px;background:#FFFFFF;" version="1.1" viewBox="0 0 1164 430" width="1164.8px" zoomAndPan="magnify"><defs/><g><!--class ActuatorController--><g id="elem_ActuatorController"><rect codeLine="2" fill="#F1F1F1" height="97.9875" id="ActuatorController" rx="2" ry="2" style="stroke:#181818;stroke-width:0.4000000000000001;" width="277.6" x="526.4" y="5.6"/><ellipse cx="615.8" cy="18.4" fill="#ADD1B2" rx="8.8" ry="8.8" style="stroke:#181818;stroke-width:0.8000000000000002;"/><path d="M618.0125,15.1 Q618.1375,14.925 618.2875,14.8375 Q618.4375,14.75 618.6125,14.75 Q618.9125,14.75 619.1,14.9625 Q619.2875,15.1625 619.2875,15.65 L619.2875,16.8125 Q619.2875,17.3 619.1,17.5125 Q618.9125,17.725 618.6125,17.725 Q618.3375,17.725 618.175,17.5625 Q618.0125,17.4125 617.925,17 Q617.8875,16.7125 617.7375,16.5625 Q617.475,16.2625 616.9875,16.0875 Q616.5,15.9125 616,15.9125 Q615.3875,15.9125 614.875,16.175 Q614.375,16.4375 613.975,17.0375 Q613.5875,17.6375 613.5875,18.4625 L613.5875,19.3375 Q613.5875,20.325 614.3,20.9875 Q615.0125,21.6375 616.2875,21.6375 Q617.0375,21.6375 617.5625,21.4375 Q617.875,21.3125 618.2125,20.9625 Q618.425,20.75 618.5375,20.6875 Q618.6625,20.625 618.825,20.625 Q619.0875,20.625 619.2875,20.8375 Q619.5,21.0375 619.5,21.3125 Q619.5,21.5875 619.225,21.9125 Q618.825,22.375 618.1875,22.6375 Q617.325,23 616.2875,23 Q615.075,23 614.1125,22.5 Q613.325,22.1 612.775,21.25 Q612.225,20.3875 612.225,19.3625 L612.225,18.4375 Q612.225,17.375 612.7125,16.4625 Q613.2125,15.5375 614.0875,15.05 Q614.9625,14.55 615.95,14.55 Q616.5375,14.55 617.05,14.6875 Q617.575,14.8125 618.0125,15.1 Z " fill="#000000"/><text fill="#000000" font-family="sans-serif" font-size="11.2" lengthAdjust="spacing" textLength="92" x="632.2" y="23.0375">ActuatorController</text><line style="stroke:#181818;stroke-width:0.4000000000000001;" x1="527.2" x2="803.2" y1="31.2" y2="31.2"/><rect fill="none" height="4.8" style="stroke:#C82930;stroke-width:0.8000000000000002;" width="4.8" x="532.8" y="40.6484"/><text fill="#000000" font-family="sans-serif" font-size="11.2" lengthAdjust="spacing" textLength="168" x="542.4" y="46.4859">actuatorService: IActuatorService</text><rect fill="none" height="4.8" style="stroke:#C82930;stroke-width:0.8000000000000002;" width="4.8" x="532.8" y="55.5453"/><text fill="#000000" font-family="sans-serif" font-size="11.2" lengthAdjust="spacing" textLength="118.4" x="542.4" y="61.3828">logService: ILogService</text><rect fill="none" height="4.8" style="stroke:#C82930;stroke-width:0.8000000000000002;" width="4.8" x="532.8" y="70.4422"/><text fill="#000000" font-family="sans-serif" font-size="11.2" lengthAdjust="spacing" textLength="196" x="542.4" y="76.2797">actuatorAssembler: ActuatorAssembler</text><line style="stroke:#181818;stroke-width:0.4000000000000001;" x1="527.2" x2="803.2" y1="82.2906" y2="82.2906"/><ellipse cx="535.2" cy="94.1391" fill="#84BE84" rx="2.4" ry="2.4" style="stroke:#038048;stroke-width:0.8000000000000002;"/><text fill="#000000" font-family="sans-serif" font-size="11.2" lengthAdjust="spacing" textLength="256.8" x="542.4" y="97.5766">closeBlindRoller(ActuatorValueDTO): ActuatorDTO</text></g><!--class ActuatorService--><g id="elem_ActuatorService"><rect codeLine="9" fill="#F1F1F1" height="112.8844" id="ActuatorService" rx="2" ry="2" style="stroke:#181818;stroke-width:0.4000000000000001;" width="355.2" x="51.6" y="166.4"/><ellipse cx="185.8" cy="179.2" fill="#ADD1B2" rx="8.8" ry="8.8" style="stroke:#181818;stroke-width:0.8000000000000002;"/><path d="M188.0125,175.9 Q188.1375,175.725 188.2875,175.6375 Q188.4375,175.55 188.6125,175.55 Q188.9125,175.55 189.1,175.7625 Q189.2875,175.9625 189.2875,176.45 L189.2875,177.6125 Q189.2875,178.1 189.1,178.3125 Q188.9125,178.525 188.6125,178.525 Q188.3375,178.525 188.175,178.3625 Q188.0125,178.2125 187.925,177.8 Q187.8875,177.5125 187.7375,177.3625 Q187.475,177.0625 186.9875,176.8875 Q186.5,176.7125 186,176.7125 Q185.3875,176.7125 184.875,176.975 Q184.375,177.2375 183.975,177.8375 Q183.5875,178.4375 183.5875,179.2625 L183.5875,180.1375 Q183.5875,181.125 184.3,181.7875 Q185.0125,182.4375 186.2875,182.4375 Q187.0375,182.4375 187.5625,182.2375 Q187.875,182.1125 188.2125,181.7625 Q188.425,181.55 188.5375,181.4875 Q188.6625,181.425 188.825,181.425 Q189.0875,181.425 189.2875,181.6375 Q189.5,181.8375 189.5,182.1125 Q189.5,182.3875 189.225,182.7125 Q188.825,183.175 188.1875,183.4375 Q187.325,183.8 186.2875,183.8 Q185.075,183.8 184.1125,183.3 Q183.325,182.9 182.775,182.05 Q182.225,181.1875 182.225,180.1625 L182.225,179.2375 Q182.225,178.175 182.7125,177.2625 Q183.2125,176.3375 184.0875,175.85 Q184.9625,175.35 185.95,175.35 Q186.5375,175.35 187.05,175.4875 Q187.575,175.6125 188.0125,175.9 Z " fill="#000000"/><text fill="#000000" font-family="sans-serif" font-size="11.2" lengthAdjust="spacing" textLength="80" x="202.2" y="183.8375">ActuatorService</text><line style="stroke:#181818;stroke-width:0.4000000000000001;" x1="52.4" x2="406" y1="192" y2="192"/><rect fill="none" height="4.8" style="stroke:#C82930;stroke-width:0.8000000000000002;" width="4.8" x="58" y="201.4484"/><text fill="#000000" font-family="sans-serif" font-size="11.2" lengthAdjust="spacing" textLength="147.2" x="67.6" y="207.2859">actuatorRepo: IActuatorRepo</text><rect fill="none" height="4.8" style="stroke:#C82930;stroke-width:0.8000000000000002;" width="4.8" x="58" y="216.3453"/><text fill="#000000" font-family="sans-serif" font-size="11.2" lengthAdjust="spacing" textLength="169.6" x="67.6" y="222.1828">actuatorFactory: IActuatorFactory</text><rect fill="none" height="4.8" style="stroke:#C82930;stroke-width:0.8000000000000002;" width="4.8" x="58" y="231.2422"/><text fill="#000000" font-family="sans-serif" font-size="11.2" lengthAdjust="spacing" textLength="184.8" x="67.6" y="237.0797">deviceRepository: IDeviceRepository</text><rect fill="none" height="4.8" style="stroke:#C82930;stroke-width:0.8000000000000002;" width="4.8" x="58" y="246.1391"/><text fill="#000000" font-family="sans-serif" font-size="11.2" lengthAdjust="spacing" textLength="252.8" x="67.6" y="251.9766">actuatorTypeRepository: IActuatorTypeRepository</text><line style="stroke:#181818;stroke-width:0.4000000000000001;" x1="52.4" x2="406" y1="257.9875" y2="257.9875"/><ellipse cx="60.4" cy="269.8359" fill="#84BE84" rx="2.4" ry="2.4" style="stroke:#038048;stroke-width:0.8000000000000002;"/><text fill="#000000" font-family="sans-serif" font-size="11.2" lengthAdjust="spacing" textLength="334.4" x="67.6" y="273.2734">setValue(IActuator, IActuatorValue, ReadingValue): IActuatorValue</text></g><!--class LogService--><g id="elem_LogService"><rect codeLine="17" fill="#F1F1F1" height="83.0906" id="LogService" rx="2" ry="2" style="stroke:#181818;stroke-width:0.4000000000000001;" width="456" x="437.2" y="181.2"/><ellipse cx="633.4" cy="194" fill="#ADD1B2" rx="8.8" ry="8.8" style="stroke:#181818;stroke-width:0.8000000000000002;"/><path d="M635.6125,190.7 Q635.7375,190.525 635.8875,190.4375 Q636.0375,190.35 636.2125,190.35 Q636.5125,190.35 636.7,190.5625 Q636.8875,190.7625 636.8875,191.25 L636.8875,192.4125 Q636.8875,192.9 636.7,193.1125 Q636.5125,193.325 636.2125,193.325 Q635.9375,193.325 635.775,193.1625 Q635.6125,193.0125 635.525,192.6 Q635.4875,192.3125 635.3375,192.1625 Q635.075,191.8625 634.5875,191.6875 Q634.1,191.5125 633.6,191.5125 Q632.9875,191.5125 632.475,191.775 Q631.975,192.0375 631.575,192.6375 Q631.1875,193.2375 631.1875,194.0625 L631.1875,194.9375 Q631.1875,195.925 631.9,196.5875 Q632.6125,197.2375 633.8875,197.2375 Q634.6375,197.2375 635.1625,197.0375 Q635.475,196.9125 635.8125,196.5625 Q636.025,196.35 636.1375,196.2875 Q636.2625,196.225 636.425,196.225 Q636.6875,196.225 636.8875,196.4375 Q637.1,196.6375 637.1,196.9125 Q637.1,197.1875 636.825,197.5125 Q636.425,197.975 635.7875,198.2375 Q634.925,198.6 633.8875,198.6 Q632.675,198.6 631.7125,198.1 Q630.925,197.7 630.375,196.85 Q629.825,195.9875 629.825,194.9625 L629.825,194.0375 Q629.825,192.975 630.3125,192.0625 Q630.8125,191.1375 631.6875,190.65 Q632.5625,190.15 633.55,190.15 Q634.1375,190.15 634.65,190.2875 Q635.175,190.4125 635.6125,190.7 Z " fill="#000000"/><text fill="#000000" font-family="sans-serif" font-size="11.2" lengthAdjust="spacing" textLength="56.8" x="649.8" y="198.6375">LogService</text><line style="stroke:#181818;stroke-width:0.4000000000000001;" x1="438" x2="892.4" y1="206.8" y2="206.8"/><rect fill="none" height="4.8" style="stroke:#C82930;stroke-width:0.8000000000000002;" width="4.8" x="443.6" y="216.2484"/><text fill="#000000" font-family="sans-serif" font-size="11.2" lengthAdjust="spacing" textLength="124.8" x="453.2" y="222.0859">logRepo: ILogRepository</text><rect fill="none" height="4.8" style="stroke:#C82930;stroke-width:0.8000000000000002;" width="4.8" x="443.6" y="231.1453"/><text fill="#000000" font-family="sans-serif" font-size="11.2" lengthAdjust="spacing" textLength="178.4" x="453.2" y="236.9828">VALUE_IF_NO_CONSUMPTION: int</text><line style="stroke:#181818;stroke-width:0.4000000000000001;" x1="438" x2="892.4" y1="242.9938" y2="242.9938"/><ellipse cx="446" cy="254.8422" fill="#84BE84" rx="2.4" ry="2.4" style="stroke:#038048;stroke-width:0.8000000000000002;"/><text fill="#000000" font-family="sans-serif" font-size="11.2" lengthAdjust="spacing" textLength="435.2" x="453.2" y="258.2797">getDeviceReadingsByDeviceIDAndSensorTypeID(DeviceID, SensorTypeID): List&lt;Log&gt;</text></g><!--class ActuatorRepo--><g id="elem_ActuatorRepo"><rect codeLine="23" fill="#F1F1F1" height="83.0906" id="ActuatorRepo" rx="2" ry="2" style="stroke:#181818;stroke-width:0.4000000000000001;" width="444" x="5.6" y="342.4"/><ellipse cx="189.4" cy="355.2" fill="#ADD1B2" rx="8.8" ry="8.8" style="stroke:#181818;stroke-width:0.8000000000000002;"/><path d="M191.6125,351.9 Q191.7375,351.725 191.8875,351.6375 Q192.0375,351.55 192.2125,351.55 Q192.5125,351.55 192.7,351.7625 Q192.8875,351.9625 192.8875,352.45 L192.8875,353.6125 Q192.8875,354.1 192.7,354.3125 Q192.5125,354.525 192.2125,354.525 Q191.9375,354.525 191.775,354.3625 Q191.6125,354.2125 191.525,353.8 Q191.4875,353.5125 191.3375,353.3625 Q191.075,353.0625 190.5875,352.8875 Q190.1,352.7125 189.6,352.7125 Q188.9875,352.7125 188.475,352.975 Q187.975,353.2375 187.575,353.8375 Q187.1875,354.4375 187.1875,355.2625 L187.1875,356.1375 Q187.1875,357.125 187.9,357.7875 Q188.6125,358.4375 189.8875,358.4375 Q190.6375,358.4375 191.1625,358.2375 Q191.475,358.1125 191.8125,357.7625 Q192.025,357.55 192.1375,357.4875 Q192.2625,357.425 192.425,357.425 Q192.6875,357.425 192.8875,357.6375 Q193.1,357.8375 193.1,358.1125 Q193.1,358.3875 192.825,358.7125 Q192.425,359.175 191.7875,359.4375 Q190.925,359.8 189.8875,359.8 Q188.675,359.8 187.7125,359.3 Q186.925,358.9 186.375,358.05 Q185.825,357.1875 185.825,356.1625 L185.825,355.2375 Q185.825,354.175 186.3125,353.2625 Q186.8125,352.3375 187.6875,351.85 Q188.5625,351.35 189.55,351.35 Q190.1375,351.35 190.65,351.4875 Q191.175,351.6125 191.6125,351.9 Z " fill="#000000"/><text fill="#000000" font-family="sans-serif" font-size="11.2" lengthAdjust="spacing" textLength="69.6" x="205.8" y="359.8375">ActuatorRepo</text><line style="stroke:#181818;stroke-width:0.4000000000000001;" x1="6.4" x2="448.8" y1="368" y2="368"/><rect fill="none" height="4.8" style="stroke:#C82930;stroke-width:0.8000000000000002;" width="4.8" x="12" y="377.4484"/><text fill="#000000" font-family="sans-serif" font-size="11.2" lengthAdjust="spacing" textLength="258.4" x="21.6" y="383.2859">actuatorRepository: IActuatorSpringDataRepository</text><rect fill="none" height="4.8" style="stroke:#C82930;stroke-width:0.8000000000000002;" width="4.8" x="12" y="392.3453"/><text fill="#000000" font-family="sans-serif" font-size="11.2" lengthAdjust="spacing" textLength="423.2" x="21.6" y="398.1828">actuatorDataModelAssembler: IDataModelAssembler&lt;ActuatorDataModel, Actuator&gt;</text><line style="stroke:#181818;stroke-width:0.4000000000000001;" x1="6.4" x2="448.8" y1="404.1938" y2="404.1938"/><ellipse cx="14.4" cy="416.0422" fill="#84BE84" rx="2.4" ry="2.4" style="stroke:#038048;stroke-width:0.8000000000000002;"/><text fill="#000000" font-family="sans-serif" font-size="11.2" lengthAdjust="spacing" textLength="164" x="21.6" y="419.4797">ofDeviceID(ActuatorID): Actuator</text></g><!--class LogRepo--><g id="elem_LogRepo"><rect codeLine="29" fill="#F1F1F1" height="83.0906" id="LogRepo" rx="2" ry="2" style="stroke:#181818;stroke-width:0.4000000000000001;" width="376" x="478" y="342.4"/><ellipse cx="639.4" cy="355.2" fill="#ADD1B2" rx="8.8" ry="8.8" style="stroke:#181818;stroke-width:0.8000000000000002;"/><path d="M641.6125,351.9 Q641.7375,351.725 641.8875,351.6375 Q642.0375,351.55 642.2125,351.55 Q642.5125,351.55 642.7,351.7625 Q642.8875,351.9625 642.8875,352.45 L642.8875,353.6125 Q642.8875,354.1 642.7,354.3125 Q642.5125,354.525 642.2125,354.525 Q641.9375,354.525 641.775,354.3625 Q641.6125,354.2125 641.525,353.8 Q641.4875,353.5125 641.3375,353.3625 Q641.075,353.0625 640.5875,352.8875 Q640.1,352.7125 639.6,352.7125 Q638.9875,352.7125 638.475,352.975 Q637.975,353.2375 637.575,353.8375 Q637.1875,354.4375 637.1875,355.2625 L637.1875,356.1375 Q637.1875,357.125 637.9,357.7875 Q638.6125,358.4375 639.8875,358.4375 Q640.6375,358.4375 641.1625,358.2375 Q641.475,358.1125 641.8125,357.7625 Q642.025,357.55 642.1375,357.4875 Q642.2625,357.425 642.425,357.425 Q642.6875,357.425 642.8875,357.6375 Q643.1,357.8375 643.1,358.1125 Q643.1,358.3875 642.825,358.7125 Q642.425,359.175 641.7875,359.4375 Q640.925,359.8 639.8875,359.8 Q638.675,359.8 637.7125,359.3 Q636.925,358.9 636.375,358.05 Q635.825,357.1875 635.825,356.1625 L635.825,355.2375 Q635.825,354.175 636.3125,353.2625 Q636.8125,352.3375 637.6875,351.85 Q638.5625,351.35 639.55,351.35 Q640.1375,351.35 640.65,351.4875 Q641.175,351.6125 641.6125,351.9 Z " fill="#000000"/><text fill="#000000" font-family="sans-serif" font-size="11.2" lengthAdjust="spacing" textLength="46.4" x="655.8" y="359.8375">LogRepo</text><line style="stroke:#181818;stroke-width:0.4000000000000001;" x1="478.8" x2="853.2" y1="368" y2="368"/><rect fill="none" height="4.8" style="stroke:#C82930;stroke-width:0.8000000000000002;" width="4.8" x="484.4" y="377.4484"/><text fill="#000000" font-family="sans-serif" font-size="11.2" lengthAdjust="spacing" textLength="208.8" x="494" y="383.2859">logRepository: ILogSpringDataRepository</text><rect fill="none" height="4.8" style="stroke:#C82930;stroke-width:0.8000000000000002;" width="4.8" x="484.4" y="392.3453"/><text fill="#000000" font-family="sans-serif" font-size="11.2" lengthAdjust="spacing" textLength="350.4" x="494" y="398.1828">logDataModelAssembler: IDataModelAssembler&lt;LogDataModel, Log&gt;</text><line style="stroke:#181818;stroke-width:0.4000000000000001;" x1="478.8" x2="853.2" y1="404.1938" y2="404.1938"/><ellipse cx="486.8" cy="416.0422" fill="#84BE84" rx="2.4" ry="2.4" style="stroke:#038048;stroke-width:0.8000000000000002;"/><text fill="#000000" font-family="sans-serif" font-size="11.2" lengthAdjust="spacing" textLength="355.2" x="494" y="419.4797">findByDeviceIDAndSensorTypeID(DeviceID, SensorTypeID): List&lt;Log&gt;</text></g><!--class ActuatorAssembler--><g id="elem_ActuatorAssembler"><rect codeLine="35" fill="#F1F1F1" height="68.1938" id="ActuatorAssembler" rx="2" ry="2" style="stroke:#181818;stroke-width:0.4000000000000001;" width="238.4" x="921.2" y="188.8"/><ellipse cx="989.4" cy="201.6" fill="#ADD1B2" rx="8.8" ry="8.8" style="stroke:#181818;stroke-width:0.8000000000000002;"/><path d="M991.6125,198.3 Q991.7375,198.125 991.8875,198.0375 Q992.0375,197.95 992.2125,197.95 Q992.5125,197.95 992.7,198.1625 Q992.8875,198.3625 992.8875,198.85 L992.8875,200.0125 Q992.8875,200.5 992.7,200.7125 Q992.5125,200.925 992.2125,200.925 Q991.9375,200.925 991.775,200.7625 Q991.6125,200.6125 991.525,200.2 Q991.4875,199.9125 991.3375,199.7625 Q991.075,199.4625 990.5875,199.2875 Q990.1,199.1125 989.6,199.1125 Q988.9875,199.1125 988.475,199.375 Q987.975,199.6375 987.575,200.2375 Q987.1875,200.8375 987.1875,201.6625 L987.1875,202.5375 Q987.1875,203.525 987.9,204.1875 Q988.6125,204.8375 989.8875,204.8375 Q990.6375,204.8375 991.1625,204.6375 Q991.475,204.5125 991.8125,204.1625 Q992.025,203.95 992.1375,203.8875 Q992.2625,203.825 992.425,203.825 Q992.6875,203.825 992.8875,204.0375 Q993.1,204.2375 993.1,204.5125 Q993.1,204.7875 992.825,205.1125 Q992.425,205.575 991.7875,205.8375 Q990.925,206.2 989.8875,206.2 Q988.675,206.2 987.7125,205.7 Q986.925,205.3 986.375,204.45 Q985.825,203.5875 985.825,202.5625 L985.825,201.6375 Q985.825,200.575 986.3125,199.6625 Q986.8125,198.7375 987.6875,198.25 Q988.5625,197.75 989.55,197.75 Q990.1375,197.75 990.65,197.8875 Q991.175,198.0125 991.6125,198.3 Z " fill="#000000"/><text fill="#000000" font-family="sans-serif" font-size="11.2" lengthAdjust="spacing" textLength="95.2" x="1005.8" y="206.2375">ActuatorAssembler</text><line style="stroke:#181818;stroke-width:0.4000000000000001;" x1="922" x2="1158.8" y1="214.4" y2="214.4"/><line style="stroke:#181818;stroke-width:0.4000000000000001;" x1="922" x2="1158.8" y1="220.8" y2="220.8"/><ellipse cx="930" cy="232.6484" fill="#84BE84" rx="2.4" ry="2.4" style="stroke:#038048;stroke-width:0.8000000000000002;"/><text fill="#000000" font-family="sans-serif" font-size="11.2" lengthAdjust="spacing" textLength="156.8" x="937.2" y="236.0859">toDTO(Actuator): ActuatorDTO</text><ellipse cx="930" cy="247.5453" fill="#84BE84" rx="2.4" ry="2.4" style="stroke:#038048;stroke-width:0.8000000000000002;"/><text fill="#000000" font-family="sans-serif" font-size="11.2" lengthAdjust="spacing" textLength="217.6" x="937.2" y="250.9828">toDTO(List&lt;Actuator&gt;): List&lt;ActuatorDTO&gt;</text></g><!--link ActuatorController to ActuatorService--><g id="link_ActuatorController_ActuatorService"><path codeLine="40" d="M539.672,103.224 C488.104,122.952 432.5391,144.2047 379.0751,164.6607 " fill="none" id="ActuatorController-to-ActuatorService" style="stroke:#181818;stroke-width:0.8000000000000002;stroke-dasharray:7.0,7.0;"/><polygon fill="#181818" points="374.592,166.376,382.4601,166.7918,378.3279,164.9466,380.1731,160.8144,374.592,166.376" style="stroke:#181818;stroke-width:0.8000000000000002;"/><text fill="#000000" font-family="sans-serif" font-size="10.4" lengthAdjust="spacing" textLength="22.4" x="474.8" y="139.2227">uses</text></g><!--link ActuatorController to ActuatorAssembler--><g id="link_ActuatorController_ActuatorAssembler"><path codeLine="41" d="M773.224,103.224 C834.808,130.6 906.0618,162.2824 961.1178,186.7544 " fill="none" id="ActuatorController-to-ActuatorAssembler" style="stroke:#181818;stroke-width:0.8000000000000002;stroke-dasharray:7.0,7.0;"/><polygon fill="#181818" points="965.504,188.704,960.2244,182.8554,961.8488,187.0793,957.6249,188.7037,965.504,188.704" style="stroke:#181818;stroke-width:0.8000000000000002;"/><text fill="#000000" font-family="sans-serif" font-size="10.4" lengthAdjust="spacing" textLength="22.4" x="854" y="139.2227">uses</text></g><!--link ActuatorController to LogService--><g id="link_ActuatorController_LogService"><path codeLine="42" d="M665.2,103.224 C665.2,127.856 665.2,152.752 665.2,176.288 " fill="none" id="ActuatorController-to-LogService" style="stroke:#181818;stroke-width:0.8000000000000002;stroke-dasharray:7.0,7.0;"/><polygon fill="#181818" points="665.2,181.088,668.4,173.888,665.2,177.088,662,173.888,665.2,181.088" style="stroke:#181818;stroke-width:0.8000000000000002;"/><text fill="#000000" font-family="sans-serif" font-size="10.4" lengthAdjust="spacing" textLength="22.4" x="666" y="139.2227">uses</text></g><!--link ActuatorService to ActuatorRepo--><g id="link_ActuatorService_ActuatorRepo"><path codeLine="44" d="M228.64,279.424 C228.432,300.096 228.2482,318.3362 228.0562,337.4482 " fill="none" id="ActuatorService-to-ActuatorRepo" style="stroke:#181818;stroke-width:0.8000000000000002;stroke-dasharray:7.0,7.0;"/><polygon fill="#181818" points="228.008,342.248,231.2802,335.0805,228.0482,338.2482,224.8805,335.0162,228.008,342.248" style="stroke:#181818;stroke-width:0.8000000000000002;"/><text fill="#000000" font-family="sans-serif" font-size="10.4" lengthAdjust="spacing" textLength="22.4" x="229.2" y="315.2227">uses</text></g><!--link LogService to LogRepo--><g id="link_LogService_LogRepo"><path codeLine="46" d="M665.408,264.496 C665.528,288.32 665.6479,313.4801 665.7679,337.3361 " fill="none" id="LogService-to-LogRepo" style="stroke:#181818;stroke-width:0.8000000000000002;stroke-dasharray:7.0,7.0;"/><polygon fill="#181818" points="665.792,342.136,668.9557,334.92,665.7719,338.1361,662.5558,334.9522,665.792,342.136" style="stroke:#181818;stroke-width:0.8000000000000002;"/><text fill="#000000" font-family="sans-serif" font-size="10.4" lengthAdjust="spacing" textLength="22.4" x="666.8" y="315.2227">uses</text></g><!--SRC=[hLHDRy8m3BttL-G8ekC7L0Wfq25LAdIYm1LrRK2LiWOrOH92- -_BTz8MjXtMKso_sE_PSKjSK0fWoQu58-sIDAmb6AFs7W3-lHGwaAFsiovH11BOzIWO9cU7IAtHpG4fHH_lF7TawrcNH4vAJ2XQuBgfjfB4oE0E1RwYU9UDtLLk1Lz1K7Ruwxezybjq8HvpONO1AtuWxSt3Q8-2LKWa5TTehN5npzNDjxjTkd3uCA14KyIal955XUw2Z8HWYuggRixI6aUzi6k3w_pTpaMBJzN9Ptk0wVxrcAoEc-oup3RvVlssIx9D1Eg6AMfdn8nGMPykRifEOjXKEMgeafJ48-CFWU_cNDEQiXclFXzEIn1wCAf1r_9Boul71IkUDLp4rgH2s7jZoT0vWtryQCdCbMHoCahiuvCoZD5fjg03j0A0_GxhDNXANA3_IZhre26GhPHKmOalolzEn1RLgYQCy3spdUYjduUGEMqhJH4FB8iDVpDWEfttjnT4u4eH_GtjkFwCTqjXW46_e9zMpjG0lRiwbH_-1W00]--></g></svg>