<?xml version="1.0" encoding="us-ascii" standalone="no"?><svg xmlns="http://www.w3.org/2000/svg" xmlns:xlink="http://www.w3.org/1999/xlink" contentStyleType="text/css" height="460.8px" preserveAspectRatio="none" style="width:901px;height:460px;background:#FFFFFF;" version="1.1" viewBox="0 0 901 460" width="901.6px" zoomAndPan="magnify"><defs/><g><!--class ActuatorController--><g id="elem_ActuatorController"><rect codeLine="1" fill="#F1F1F1" height="97.9875" id="ActuatorController" rx="2" ry="2" style="stroke:#181818;stroke-width:0.4000000000000001;" width="493.6" x="109.6" y="5.6"/><ellipse cx="307" cy="18.4" fill="#ADD1B2" rx="8.8" ry="8.8" style="stroke:#181818;stroke-width:0.8000000000000002;"/><path d="M309.2125,15.1 Q309.3375,14.925 309.4875,14.8375 Q309.6375,14.75 309.8125,14.75 Q310.1125,14.75 310.3,14.9625 Q310.4875,15.1625 310.4875,15.65 L310.4875,16.8125 Q310.4875,17.3 310.3,17.5125 Q310.1125,17.725 309.8125,17.725 Q309.5375,17.725 309.375,17.5625 Q309.2125,17.4125 309.125,17 Q309.0875,16.7125 308.9375,16.5625 Q308.675,16.2625 308.1875,16.0875 Q307.7,15.9125 307.2,15.9125 Q306.5875,15.9125 306.075,16.175 Q305.575,16.4375 305.175,17.0375 Q304.7875,17.6375 304.7875,18.4625 L304.7875,19.3375 Q304.7875,20.325 305.5,20.9875 Q306.2125,21.6375 307.4875,21.6375 Q308.2375,21.6375 308.7625,21.4375 Q309.075,21.3125 309.4125,20.9625 Q309.625,20.75 309.7375,20.6875 Q309.8625,20.625 310.025,20.625 Q310.2875,20.625 310.4875,20.8375 Q310.7,21.0375 310.7,21.3125 Q310.7,21.5875 310.425,21.9125 Q310.025,22.375 309.3875,22.6375 Q308.525,23 307.4875,23 Q306.275,23 305.3125,22.5 Q304.525,22.1 303.975,21.25 Q303.425,20.3875 303.425,19.3625 L303.425,18.4375 Q303.425,17.375 303.9125,16.4625 Q304.4125,15.5375 305.2875,15.05 Q306.1625,14.55 307.15,14.55 Q307.7375,14.55 308.25,14.6875 Q308.775,14.8125 309.2125,15.1 Z " fill="#000000"/><text fill="#000000" font-family="sans-serif" font-size="11.2" lengthAdjust="spacing" textLength="92" x="323.4" y="23.0375">ActuatorController</text><line style="stroke:#181818;stroke-width:0.4000000000000001;" x1="110.4" x2="602.4" y1="31.2" y2="31.2"/><rect fill="none" height="4.8" style="stroke:#C82930;stroke-width:0.8000000000000002;" width="4.8" x="116" y="40.6484"/><text fill="#000000" font-family="sans-serif" font-size="11.2" lengthAdjust="spacing" textLength="164.8" x="125.6" y="46.4859">IActuatorService actuatorService</text><rect fill="none" height="4.8" style="stroke:#C82930;stroke-width:0.8000000000000002;" width="4.8" x="116" y="55.5453"/><text fill="#000000" font-family="sans-serif" font-size="11.2" lengthAdjust="spacing" textLength="283.2" x="125.6" y="61.3828">IAssembler&lt;IActuator, ActuatorDTO&gt; actuatorAssembler</text><rect fill="none" height="4.8" style="stroke:#C82930;stroke-width:0.8000000000000002;" width="4.8" x="116" y="70.4422"/><text fill="#000000" font-family="sans-serif" font-size="11.2" lengthAdjust="spacing" textLength="115.2" x="125.6" y="76.2797">ILogService logService</text><line style="stroke:#181818;stroke-width:0.4000000000000001;" x1="110.4" x2="602.4" y1="82.2906" y2="82.2906"/><ellipse cx="118.4" cy="94.1391" fill="#84BE84" rx="2.4" ry="2.4" style="stroke:#038048;stroke-width:0.8000000000000002;"/><text fill="#000000" font-family="sans-serif" font-size="11.2" lengthAdjust="spacing" textLength="472.8" x="125.6" y="97.5766">getActuatorByDeviceID (deviceID: String): ResponseEntity&lt;List&lt;EntityModel&lt;ActuatorDTO&gt;&gt;&gt;</text></g><!--class DeviceID--><g id="elem_DeviceID"><rect codeLine="9" fill="#F1F1F1" height="68.1938" id="DeviceID" rx="2" ry="2" style="stroke:#181818;stroke-width:0.4000000000000001;" width="156" x="5.6" y="188.8"/><ellipse cx="57.8" cy="201.6" fill="#ADD1B2" rx="8.8" ry="8.8" style="stroke:#181818;stroke-width:0.8000000000000002;"/><path d="M60.0125,198.3 Q60.1375,198.125 60.2875,198.0375 Q60.4375,197.95 60.6125,197.95 Q60.9125,197.95 61.1,198.1625 Q61.2875,198.3625 61.2875,198.85 L61.2875,200.0125 Q61.2875,200.5 61.1,200.7125 Q60.9125,200.925 60.6125,200.925 Q60.3375,200.925 60.175,200.7625 Q60.0125,200.6125 59.925,200.2 Q59.8875,199.9125 59.7375,199.7625 Q59.475,199.4625 58.9875,199.2875 Q58.5,199.1125 58,199.1125 Q57.3875,199.1125 56.875,199.375 Q56.375,199.6375 55.975,200.2375 Q55.5875,200.8375 55.5875,201.6625 L55.5875,202.5375 Q55.5875,203.525 56.3,204.1875 Q57.0125,204.8375 58.2875,204.8375 Q59.0375,204.8375 59.5625,204.6375 Q59.875,204.5125 60.2125,204.1625 Q60.425,203.95 60.5375,203.8875 Q60.6625,203.825 60.825,203.825 Q61.0875,203.825 61.2875,204.0375 Q61.5,204.2375 61.5,204.5125 Q61.5,204.7875 61.225,205.1125 Q60.825,205.575 60.1875,205.8375 Q59.325,206.2 58.2875,206.2 Q57.075,206.2 56.1125,205.7 Q55.325,205.3 54.775,204.45 Q54.225,203.5875 54.225,202.5625 L54.225,201.6375 Q54.225,200.575 54.7125,199.6625 Q55.2125,198.7375 56.0875,198.25 Q56.9625,197.75 57.95,197.75 Q58.5375,197.75 59.05,197.8875 Q59.575,198.0125 60.0125,198.3 Z " fill="#000000"/><text fill="#000000" font-family="sans-serif" font-size="11.2" lengthAdjust="spacing" textLength="44.8" x="74.2" y="206.2375">DeviceID</text><line style="stroke:#181818;stroke-width:0.4000000000000001;" x1="6.4" x2="160.8" y1="214.4" y2="214.4"/><rect fill="none" height="4.8" style="stroke:#C82930;stroke-width:0.8000000000000002;" width="4.8" x="12" y="223.8484"/><text fill="#000000" font-family="sans-serif" font-size="11.2" lengthAdjust="spacing" textLength="76" x="21.6" y="229.6859">String deviceID</text><line style="stroke:#181818;stroke-width:0.4000000000000001;" x1="6.4" x2="160.8" y1="235.6969" y2="235.6969"/><ellipse cx="14.4" cy="247.5453" fill="#84BE84" rx="2.4" ry="2.4" style="stroke:#038048;stroke-width:0.8000000000000002;"/><text fill="#000000" font-family="sans-serif" font-size="11.2" lengthAdjust="spacing" textLength="135.2" x="21.6" y="250.9828">DeviceID (deviceID: String)</text></g><!--class ActuatorService--><g id="elem_ActuatorService"><rect codeLine="15" fill="#F1F1F1" height="112.8844" id="ActuatorService" rx="2" ry="2" style="stroke:#181818;stroke-width:0.4000000000000001;" width="333.6" x="189.6" y="166.4"/><ellipse cx="313" cy="179.2" fill="#ADD1B2" rx="8.8" ry="8.8" style="stroke:#181818;stroke-width:0.8000000000000002;"/><path d="M315.2125,175.9 Q315.3375,175.725 315.4875,175.6375 Q315.6375,175.55 315.8125,175.55 Q316.1125,175.55 316.3,175.7625 Q316.4875,175.9625 316.4875,176.45 L316.4875,177.6125 Q316.4875,178.1 316.3,178.3125 Q316.1125,178.525 315.8125,178.525 Q315.5375,178.525 315.375,178.3625 Q315.2125,178.2125 315.125,177.8 Q315.0875,177.5125 314.9375,177.3625 Q314.675,177.0625 314.1875,176.8875 Q313.7,176.7125 313.2,176.7125 Q312.5875,176.7125 312.075,176.975 Q311.575,177.2375 311.175,177.8375 Q310.7875,178.4375 310.7875,179.2625 L310.7875,180.1375 Q310.7875,181.125 311.5,181.7875 Q312.2125,182.4375 313.4875,182.4375 Q314.2375,182.4375 314.7625,182.2375 Q315.075,182.1125 315.4125,181.7625 Q315.625,181.55 315.7375,181.4875 Q315.8625,181.425 316.025,181.425 Q316.2875,181.425 316.4875,181.6375 Q316.7,181.8375 316.7,182.1125 Q316.7,182.3875 316.425,182.7125 Q316.025,183.175 315.3875,183.4375 Q314.525,183.8 313.4875,183.8 Q312.275,183.8 311.3125,183.3 Q310.525,182.9 309.975,182.05 Q309.425,181.1875 309.425,180.1625 L309.425,179.2375 Q309.425,178.175 309.9125,177.2625 Q310.4125,176.3375 311.2875,175.85 Q312.1625,175.35 313.15,175.35 Q313.7375,175.35 314.25,175.4875 Q314.775,175.6125 315.2125,175.9 Z " fill="#000000"/><text fill="#000000" font-family="sans-serif" font-size="11.2" lengthAdjust="spacing" textLength="80" x="329.4" y="183.8375">ActuatorService</text><line style="stroke:#181818;stroke-width:0.4000000000000001;" x1="190.4" x2="522.4" y1="192" y2="192"/><rect fill="none" height="4.8" style="stroke:#C82930;stroke-width:0.8000000000000002;" width="4.8" x="196" y="201.4484"/><text fill="#000000" font-family="sans-serif" font-size="11.2" lengthAdjust="spacing" textLength="198.4" x="205.6" y="207.2859">IActuatorRepository actuatorRepository</text><rect fill="none" height="4.8" style="stroke:#C82930;stroke-width:0.8000000000000002;" width="4.8" x="196" y="216.3453"/><text fill="#000000" font-family="sans-serif" font-size="11.2" lengthAdjust="spacing" textLength="166.4" x="205.6" y="222.1828">IActuatorFactory actuatorFactory</text><rect fill="none" height="4.8" style="stroke:#C82930;stroke-width:0.8000000000000002;" width="4.8" x="196" y="231.2422"/><text fill="#000000" font-family="sans-serif" font-size="11.2" lengthAdjust="spacing" textLength="181.6" x="205.6" y="237.0797">IDeviceRepository deviceRepository</text><rect fill="none" height="4.8" style="stroke:#C82930;stroke-width:0.8000000000000002;" width="4.8" x="196" y="246.1391"/><text fill="#000000" font-family="sans-serif" font-size="11.2" lengthAdjust="spacing" textLength="249.6" x="205.6" y="251.9766">IActuatorTypeRepository actuatorTypeRepository</text><line style="stroke:#181818;stroke-width:0.4000000000000001;" x1="190.4" x2="522.4" y1="257.9875" y2="257.9875"/><ellipse cx="198.4" cy="269.8359" fill="#84BE84" rx="2.4" ry="2.4" style="stroke:#038048;stroke-width:0.8000000000000002;"/><text fill="#000000" font-family="sans-serif" font-size="11.2" lengthAdjust="spacing" textLength="312.8" x="205.6" y="273.2734">getActuatorsByDeviceID (deviceID : DeviceID) : List&lt;Actuator&gt;</text></g><!--class ActuatorSpringDataRepository--><g id="elem_ActuatorSpringDataRepository"><rect codeLine="24" fill="#F1F1F1" height="97.9875" id="ActuatorSpringDataRepository" rx="2" ry="2" style="stroke:#181818;stroke-width:0.4000000000000001;" width="446.4" x="133.2" y="350"/><ellipse cx="276.2" cy="362.8" fill="#ADD1B2" rx="8.8" ry="8.8" style="stroke:#181818;stroke-width:0.8000000000000002;"/><path d="M278.4125,359.5 Q278.5375,359.325 278.6875,359.2375 Q278.8375,359.15 279.0125,359.15 Q279.3125,359.15 279.5,359.3625 Q279.6875,359.5625 279.6875,360.05 L279.6875,361.2125 Q279.6875,361.7 279.5,361.9125 Q279.3125,362.125 279.0125,362.125 Q278.7375,362.125 278.575,361.9625 Q278.4125,361.8125 278.325,361.4 Q278.2875,361.1125 278.1375,360.9625 Q277.875,360.6625 277.3875,360.4875 Q276.9,360.3125 276.4,360.3125 Q275.7875,360.3125 275.275,360.575 Q274.775,360.8375 274.375,361.4375 Q273.9875,362.0375 273.9875,362.8625 L273.9875,363.7375 Q273.9875,364.725 274.7,365.3875 Q275.4125,366.0375 276.6875,366.0375 Q277.4375,366.0375 277.9625,365.8375 Q278.275,365.7125 278.6125,365.3625 Q278.825,365.15 278.9375,365.0875 Q279.0625,365.025 279.225,365.025 Q279.4875,365.025 279.6875,365.2375 Q279.9,365.4375 279.9,365.7125 Q279.9,365.9875 279.625,366.3125 Q279.225,366.775 278.5875,367.0375 Q277.725,367.4 276.6875,367.4 Q275.475,367.4 274.5125,366.9 Q273.725,366.5 273.175,365.65 Q272.625,364.7875 272.625,363.7625 L272.625,362.8375 Q272.625,361.775 273.1125,360.8625 Q273.6125,359.9375 274.4875,359.45 Q275.3625,358.95 276.35,358.95 Q276.9375,358.95 277.45,359.0875 Q277.975,359.2125 278.4125,359.5 Z " fill="#000000"/><text fill="#000000" font-family="sans-serif" font-size="11.2" lengthAdjust="spacing" textLength="153.6" x="292.6" y="367.4375">ActuatorSpringDataRepository</text><line style="stroke:#181818;stroke-width:0.4000000000000001;" x1="134" x2="578.8" y1="375.6" y2="375.6"/><rect fill="none" height="4.8" style="stroke:#C82930;stroke-width:0.8000000000000002;" width="4.8" x="139.6" y="385.0484"/><text fill="#000000" font-family="sans-serif" font-size="11.2" lengthAdjust="spacing" textLength="312" x="149.2" y="390.8859">IActuatorSpringDataRepository actuatorSpringDataRepository</text><rect fill="none" height="4.8" style="stroke:#C82930;stroke-width:0.8000000000000002;" width="4.8" x="139.6" y="399.9453"/><text fill="#000000" font-family="sans-serif" font-size="11.2" lengthAdjust="spacing" textLength="425.6" x="149.2" y="405.7828">IDataModelAssembler &lt;ActuatorDataModel, IActuator&gt; actuatorDataModelAssembler</text><rect fill="none" height="4.8" style="stroke:#C82930;stroke-width:0.8000000000000002;" width="4.8" x="139.6" y="414.8422"/><text fill="#000000" font-family="sans-serif" font-size="11.2" lengthAdjust="spacing" textLength="296" x="149.2" y="420.6797">IActuatorVisitorForDataModel actuatorVisitorForDataModel</text><line style="stroke:#181818;stroke-width:0.4000000000000001;" x1="134" x2="578.8" y1="426.6906" y2="426.6906"/><ellipse cx="142" cy="438.5391" fill="#84BE84" rx="2.4" ry="2.4" style="stroke:#038048;stroke-width:0.8000000000000002;"/><text fill="#000000" font-family="sans-serif" font-size="11.2" lengthAdjust="spacing" textLength="248" x="149.2" y="441.9766">ofDeviceID (deviceID : DeviceID) : List&lt;IActuator&gt;</text></g><!--class ActuatorAssembler--><g id="elem_ActuatorAssembler"><rect codeLine="32" fill="#F1F1F1" height="53.2969" id="ActuatorAssembler" rx="2" ry="2" style="stroke:#181818;stroke-width:0.4000000000000001;" width="344.8" x="551.2" y="196"/><ellipse cx="672.6" cy="208.8" fill="#ADD1B2" rx="8.8" ry="8.8" style="stroke:#181818;stroke-width:0.8000000000000002;"/><path d="M674.8125,205.5 Q674.9375,205.325 675.0875,205.2375 Q675.2375,205.15 675.4125,205.15 Q675.7125,205.15 675.9,205.3625 Q676.0875,205.5625 676.0875,206.05 L676.0875,207.2125 Q676.0875,207.7 675.9,207.9125 Q675.7125,208.125 675.4125,208.125 Q675.1375,208.125 674.975,207.9625 Q674.8125,207.8125 674.725,207.4 Q674.6875,207.1125 674.5375,206.9625 Q674.275,206.6625 673.7875,206.4875 Q673.3,206.3125 672.8,206.3125 Q672.1875,206.3125 671.675,206.575 Q671.175,206.8375 670.775,207.4375 Q670.3875,208.0375 670.3875,208.8625 L670.3875,209.7375 Q670.3875,210.725 671.1,211.3875 Q671.8125,212.0375 673.0875,212.0375 Q673.8375,212.0375 674.3625,211.8375 Q674.675,211.7125 675.0125,211.3625 Q675.225,211.15 675.3375,211.0875 Q675.4625,211.025 675.625,211.025 Q675.8875,211.025 676.0875,211.2375 Q676.3,211.4375 676.3,211.7125 Q676.3,211.9875 676.025,212.3125 Q675.625,212.775 674.9875,213.0375 Q674.125,213.4 673.0875,213.4 Q671.875,213.4 670.9125,212.9 Q670.125,212.5 669.575,211.65 Q669.025,210.7875 669.025,209.7625 L669.025,208.8375 Q669.025,207.775 669.5125,206.8625 Q670.0125,205.9375 670.8875,205.45 Q671.7625,204.95 672.75,204.95 Q673.3375,204.95 673.85,205.0875 Q674.375,205.2125 674.8125,205.5 Z " fill="#000000"/><text fill="#000000" font-family="sans-serif" font-size="11.2" lengthAdjust="spacing" textLength="95.2" x="689" y="213.4375">ActuatorAssembler</text><line style="stroke:#181818;stroke-width:0.4000000000000001;" x1="552" x2="895.2" y1="221.6" y2="221.6"/><line style="stroke:#181818;stroke-width:0.4000000000000001;" x1="552" x2="895.2" y1="228" y2="228"/><ellipse cx="560" cy="239.8484" fill="#84BE84" rx="2.4" ry="2.4" style="stroke:#038048;stroke-width:0.8000000000000002;"/><text fill="#000000" font-family="sans-serif" font-size="11.2" lengthAdjust="spacing" textLength="324" x="567.2" y="243.2859">domainToDTO (actuators : List&lt;IActuator&gt;) : List&lt;ActuatorDTO&gt;</text></g><!--class ActuatorDTO--><g id="elem_ActuatorDTO"><rect codeLine="37" fill="#F1F1F1" height="112.8844" id="ActuatorDTO" rx="2" ry="2" style="stroke:#181818;stroke-width:0.4000000000000001;" width="131.2" x="658" y="342.4"/><ellipse cx="687.64" cy="355.2" fill="#ADD1B2" rx="8.8" ry="8.8" style="stroke:#181818;stroke-width:0.8000000000000002;"/><path d="M689.8525,351.9 Q689.9775,351.725 690.1275,351.6375 Q690.2775,351.55 690.4525,351.55 Q690.7525,351.55 690.94,351.7625 Q691.1275,351.9625 691.1275,352.45 L691.1275,353.6125 Q691.1275,354.1 690.94,354.3125 Q690.7525,354.525 690.4525,354.525 Q690.1775,354.525 690.015,354.3625 Q689.8525,354.2125 689.765,353.8 Q689.7275,353.5125 689.5775,353.3625 Q689.315,353.0625 688.8275,352.8875 Q688.34,352.7125 687.84,352.7125 Q687.2275,352.7125 686.715,352.975 Q686.215,353.2375 685.815,353.8375 Q685.4275,354.4375 685.4275,355.2625 L685.4275,356.1375 Q685.4275,357.125 686.14,357.7875 Q686.8525,358.4375 688.1275,358.4375 Q688.8775,358.4375 689.4025,358.2375 Q689.715,358.1125 690.0525,357.7625 Q690.265,357.55 690.3775,357.4875 Q690.5025,357.425 690.665,357.425 Q690.9275,357.425 691.1275,357.6375 Q691.34,357.8375 691.34,358.1125 Q691.34,358.3875 691.065,358.7125 Q690.665,359.175 690.0275,359.4375 Q689.165,359.8 688.1275,359.8 Q686.915,359.8 685.9525,359.3 Q685.165,358.9 684.615,358.05 Q684.065,357.1875 684.065,356.1625 L684.065,355.2375 Q684.065,354.175 684.5525,353.2625 Q685.0525,352.3375 685.9275,351.85 Q686.8025,351.35 687.79,351.35 Q688.3775,351.35 688.89,351.4875 Q689.415,351.6125 689.8525,351.9 Z " fill="#000000"/><text fill="#000000" font-family="sans-serif" font-size="11.2" lengthAdjust="spacing" textLength="66.4" x="702.76" y="359.8375">ActuatorDTO</text><line style="stroke:#181818;stroke-width:0.4000000000000001;" x1="658.8" x2="788.4" y1="368" y2="368"/><ellipse cx="666.8" cy="379.8484" fill="none" rx="2.4" ry="2.4" style="stroke:#038048;stroke-width:0.8000000000000002;"/><text fill="#000000" font-family="sans-serif" font-size="11.2" lengthAdjust="spacing" textLength="76" x="674" y="383.2859">String deviceID</text><ellipse cx="666.8" cy="394.7453" fill="none" rx="2.4" ry="2.4" style="stroke:#038048;stroke-width:0.8000000000000002;"/><text fill="#000000" font-family="sans-serif" font-size="11.2" lengthAdjust="spacing" textLength="110.4" x="674" y="398.1828">String actuatorTypeID</text><ellipse cx="666.8" cy="409.6422" fill="none" rx="2.4" ry="2.4" style="stroke:#038048;stroke-width:0.8000000000000002;"/><text fill="#000000" font-family="sans-serif" font-size="11.2" lengthAdjust="spacing" textLength="103.2" x="674" y="413.0797">String actuatorName</text><ellipse cx="666.8" cy="424.5391" fill="none" rx="2.4" ry="2.4" style="stroke:#038048;stroke-width:0.8000000000000002;"/><text fill="#000000" font-family="sans-serif" font-size="11.2" lengthAdjust="spacing" textLength="86.4" x="674" y="427.9766">String modelPath</text><ellipse cx="666.8" cy="439.4359" fill="none" rx="2.4" ry="2.4" style="stroke:#038048;stroke-width:0.8000000000000002;"/><text fill="#000000" font-family="sans-serif" font-size="11.2" lengthAdjust="spacing" textLength="84.8" x="674" y="442.8734">String actuatorID</text><line style="stroke:#181818;stroke-width:0.4000000000000001;" x1="658.8" x2="788.4" y1="448.8844" y2="448.8844"/></g><!--link ActuatorController to DeviceID--><g id="link_ActuatorController_DeviceID"><path codeLine="45" d="M277.864,103.224 C233.08,130.6 182.1834,161.7284 142.1514,186.2004 " fill="none" id="ActuatorController-to-DeviceID" style="stroke:#181818;stroke-width:0.8000000000000002;stroke-dasharray:7.0,7.0;"/><polygon fill="#181818" points="138.056,188.704,145.8681,187.6789,141.4688,186.6177,142.53,182.2184,138.056,188.704" style="stroke:#181818;stroke-width:0.8000000000000002;"/><text fill="#000000" font-family="sans-serif" font-size="10.4" lengthAdjust="spacing" textLength="22.4" x="237.2" y="139.2227">uses</text></g><!--link ActuatorController to ActuatorService--><g id="link_ActuatorController_ActuatorService"><path codeLine="46" d="M356.4,103.224 C356.4,122.952 356.4,141.12 356.4,161.576 " fill="none" id="ActuatorController-to-ActuatorService" style="stroke:#181818;stroke-width:0.8000000000000002;stroke-dasharray:7.0,7.0;"/><polygon fill="#181818" points="356.4,166.376,359.6,159.176,356.4,162.376,353.2,159.176,356.4,166.376" style="stroke:#181818;stroke-width:0.8000000000000002;"/><text fill="#000000" font-family="sans-serif" font-size="10.4" lengthAdjust="spacing" textLength="22.4" x="357.2" y="139.2227">uses</text></g><!--link ActuatorService to ActuatorSpringDataRepository--><g id="link_ActuatorService_ActuatorSpringDataRepository"><path codeLine="47" d="M356.4,279.264 C356.4,301.992 356.4,323.224 356.4,345.112 " fill="none" id="ActuatorService-to-ActuatorSpringDataRepository" style="stroke:#181818;stroke-width:0.8000000000000002;stroke-dasharray:7.0,7.0;"/><polygon fill="#181818" points="356.4,349.912,359.6,342.712,356.4,345.912,353.2,342.712,356.4,349.912" style="stroke:#181818;stroke-width:0.8000000000000002;"/><text fill="#000000" font-family="sans-serif" font-size="10.4" lengthAdjust="spacing" textLength="22.4" x="357.2" y="315.2227">uses</text></g><!--link ActuatorController to ActuatorAssembler--><g id="link_ActuatorController_ActuatorAssembler"><path codeLine="49" d="M462.12,103.224 C528.536,133.392 607.2856,169.1671 661.7496,193.9031 " fill="none" id="ActuatorController-to-ActuatorAssembler" style="stroke:#181818;stroke-width:0.8000000000000002;stroke-dasharray:7.0,7.0;"/><polygon fill="#181818" points="666.12,195.888,660.8877,189.9971,662.478,194.2339,658.2412,195.8242,666.12,195.888" style="stroke:#181818;stroke-width:0.8000000000000002;"/><text fill="#000000" font-family="sans-serif" font-size="10.4" lengthAdjust="spacing" textLength="22.4" x="540.4" y="139.2227">uses</text></g><!--link ActuatorAssembler to ActuatorDTO--><g id="link_ActuatorAssembler_ActuatorDTO"><path codeLine="50" d="M723.6,249.712 C723.6,274.032 723.6,306.304 723.6,337.296 " fill="none" id="ActuatorAssembler-to-ActuatorDTO" style="stroke:#181818;stroke-width:0.8000000000000002;stroke-dasharray:7.0,7.0;"/><polygon fill="#181818" points="723.6,342.096,726.8,334.896,723.6,338.096,720.4,334.896,723.6,342.096" style="stroke:#181818;stroke-width:0.8000000000000002;"/><text fill="#000000" font-family="sans-serif" font-size="10.4" lengthAdjust="spacing" textLength="22.4" x="724.4" y="315.2227">uses</text></g><!--SRC=[ZLJBReCm4Bpp5NjCr3GVW11IMnefKlfG4lNkmfPQ0eomKmb5_VVQ43ymRjhRUdPsrZjUo2l2ETpbuaG4wnvO8pfMLTZ1ERg5hSOFs7tH785CpmE5SwpVPKLYs2kZbnrVKbDacAfinqejMfamYcwWHA6hx_iC5RpDO55SeXWEegDDkOnXZxnb3SV7Hb3H9plAHJB6Jwp0Ad4laQRHTnJbmx16L8quge6MLpUuqjIA-CvCxDfZopYLGM-6jv1BtCYqoxgS5MMyXQDKU82hS-nR33ITmfwxF6Gln6RyfOm7JtL16fY-LRPaH12d-tHpGWno9JdCBf7X3StAW7rDdLlP9dR7vfNkPTxeq6FZy4nb8ASCOn__CsbxnIKxnLb95gmcj3aokPUmqEtvN6Zs06gHv-fAvYnb_KqsYBiD8VoPr6ZHMat-IiJdd2YBPVV0lsAzJkrN4yE98_-Dvdyt7bl34sfeXIvrVxMnrdkDRCAbAoz7uWy0]--></g></svg>