<?xml version="1.0" encoding="us-ascii" standalone="no"?><svg xmlns="http://www.w3.org/2000/svg" xmlns:xlink="http://www.w3.org/1999/xlink" contentStyleType="text/css" height="517px" preserveAspectRatio="none" style="width:1216px;height:517px;background:#FFFFFF;" version="1.1" viewBox="0 0 1216 517" width="1216px" zoomAndPan="magnify"><defs/><g><rect fill="#FFFFFF" height="293.9492" style="stroke:#181818;stroke-width:1.0;" width="10" x="257" y="168.416"/><rect fill="#FFFFFF" height="93.873" style="stroke:#181818;stroke-width:1.0;" width="10" x="493" y="274.6191"/><rect fill="#FFFFFF" height="31.291" style="stroke:#181818;stroke-width:1.0;" width="10" x="707" y="305.9102"/><rect fill="#FFFFFF" height="31.291" style="stroke:#181818;stroke-width:1.0;" width="10" x="940" y="399.7832"/><rect fill="#FFFFFF" height="33.6211" style="stroke:#181818;stroke-width:1.0;" width="10" x="1141.5" y="209.707"/><line style="stroke:#181818;stroke-width:0.5;stroke-dasharray:5.0,5.0;" x1="14" x2="14" y1="38.6211" y2="480.3652"/><line style="stroke:#181818;stroke-width:0.5;stroke-dasharray:5.0,5.0;" x1="261.5" x2="261.5" y1="38.6211" y2="480.3652"/><line style="stroke:#181818;stroke-width:0.5;stroke-dasharray:5.0,5.0;" x1="497.5" x2="497.5" y1="38.6211" y2="480.3652"/><line style="stroke:#181818;stroke-width:0.5;stroke-dasharray:5.0,5.0;" x1="711.5" x2="711.5" y1="38.6211" y2="480.3652"/><line style="stroke:#181818;stroke-width:0.5;stroke-dasharray:5.0,5.0;" x1="944.5" x2="944.5" y1="38.6211" y2="480.3652"/><line style="stroke:#181818;stroke-width:0.5;stroke-dasharray:5.0,5.0;" x1="1146.5" x2="1146.5" y1="208.2266" y2="480.3652"/><rect fill="#E2E2F0" height="32.6211" rx="2.5" ry="2.5" style="stroke:#181818;stroke-width:0.5;" width="18" x="5" y="5"/><text fill="#000000" font-family="sans-serif" font-size="14" lengthAdjust="spacing" textLength="4" x="12" y="27.1074">&#160;</text><rect fill="#E2E2F0" height="32.6211" rx="2.5" ry="2.5" style="stroke:#181818;stroke-width:0.5;" width="18" x="5" y="479.3652"/><text fill="#000000" font-family="sans-serif" font-size="14" lengthAdjust="spacing" textLength="4" x="12" y="501.4727">&#160;</text><rect fill="#E2E2F0" height="32.6211" rx="2.5" ry="2.5" style="stroke:#181818;stroke-width:0.5;" width="133" x="195.5" y="5"/><text fill="#000000" font-family="sans-serif" font-size="14" lengthAdjust="spacing" textLength="119" x="202.5" y="27.1074">:ActuatorController</text><rect fill="#E2E2F0" height="32.6211" rx="2.5" ry="2.5" style="stroke:#181818;stroke-width:0.5;" width="133" x="195.5" y="479.3652"/><text fill="#000000" font-family="sans-serif" font-size="14" lengthAdjust="spacing" textLength="119" x="202.5" y="501.4727">:ActuatorController</text><rect fill="#E2E2F0" height="32.6211" rx="2.5" ry="2.5" style="stroke:#181818;stroke-width:0.5;" width="217" x="389.5" y="5"/><text fill="#000000" font-family="sans-serif" font-size="14" lengthAdjust="spacing" textLength="203" x="396.5" y="27.1074">actuatorService:ActuatorService</text><rect fill="#E2E2F0" height="32.6211" rx="2.5" ry="2.5" style="stroke:#181818;stroke-width:0.5;" width="217" x="389.5" y="479.3652"/><text fill="#000000" font-family="sans-serif" font-size="14" lengthAdjust="spacing" textLength="203" x="396.5" y="501.4727">actuatorService:ActuatorService</text><rect fill="#E2E2F0" height="32.6211" rx="2.5" ry="2.5" style="stroke:#181818;stroke-width:0.5;" width="191" x="616.5" y="5"/><text fill="#000000" font-family="sans-serif" font-size="14" lengthAdjust="spacing" textLength="177" x="623.5" y="27.1074">actuatorRepo:ActuatorRepo</text><rect fill="#E2E2F0" height="32.6211" rx="2.5" ry="2.5" style="stroke:#181818;stroke-width:0.5;" width="191" x="616.5" y="479.3652"/><text fill="#000000" font-family="sans-serif" font-size="14" lengthAdjust="spacing" textLength="177" x="623.5" y="501.4727">actuatorRepo:ActuatorRepo</text><rect fill="#E2E2F0" height="32.6211" rx="2.5" ry="2.5" style="stroke:#181818;stroke-width:0.5;" width="255" x="817.5" y="5"/><text fill="#000000" font-family="sans-serif" font-size="14" lengthAdjust="spacing" textLength="241" x="824.5" y="27.1074">actuatorAssembler:ActuatorAssembler</text><rect fill="#E2E2F0" height="32.6211" rx="2.5" ry="2.5" style="stroke:#181818;stroke-width:0.5;" width="255" x="817.5" y="479.3652"/><text fill="#000000" font-family="sans-serif" font-size="14" lengthAdjust="spacing" textLength="241" x="824.5" y="501.4727">actuatorAssembler:ActuatorAssembler</text><rect fill="#E2E2F0" height="32.6211" rx="2.5" ry="2.5" style="stroke:#181818;stroke-width:0.5;" width="128" x="1082.5" y="479.3652"/><text fill="#000000" font-family="sans-serif" font-size="14" lengthAdjust="spacing" textLength="114" x="1089.5" y="501.4727">deviceID:DeviceID</text><rect fill="#FFFFFF" height="293.9492" style="stroke:#181818;stroke-width:1.0;" width="10" x="257" y="168.416"/><rect fill="#FFFFFF" height="93.873" style="stroke:#181818;stroke-width:1.0;" width="10" x="493" y="274.6191"/><rect fill="#FFFFFF" height="31.291" style="stroke:#181818;stroke-width:1.0;" width="10" x="707" y="305.9102"/><rect fill="#FFFFFF" height="31.291" style="stroke:#181818;stroke-width:1.0;" width="10" x="940" y="399.7832"/><rect fill="#FFFFFF" height="33.6211" style="stroke:#181818;stroke-width:1.0;" width="10" x="1141.5" y="209.707"/><rect fill="none" height="43.252" style="stroke:#000000;stroke-width:1.5;" width="329.5" x="2" y="48.6211"/><path d="M2,48.6211 L64,48.6211 L64,57.6211 L54,67.6211 L2,67.6211 L2,48.6211 " fill="#EEEEEE" style="stroke:#000000;stroke-width:2.0;"/><text fill="#000000" font-family="sans-serif" font-size="13" font-weight="bold" lengthAdjust="spacing" textLength="17" x="15" y="64.6494">ref</text><text fill="#000000" font-family="sans-serif" font-size="12" lengthAdjust="spacing" textLength="58" x="137.75" y="84.5703">getRooms</text><rect fill="none" height="43.252" style="stroke:#000000;stroke-width:1.5;" width="329.5" x="2" y="96.873"/><path d="M2,96.873 L64,96.873 L64,105.873 L54,115.873 L2,115.873 L2,96.873 " fill="#EEEEEE" style="stroke:#000000;stroke-width:2.0;"/><text fill="#000000" font-family="sans-serif" font-size="13" font-weight="bold" lengthAdjust="spacing" textLength="17" x="15" y="112.9014">ref</text><text fill="#000000" font-family="sans-serif" font-size="12" lengthAdjust="spacing" textLength="169" x="82.25" y="132.8223">getDevicesByRoomID(roomID)</text><ellipse cx="13.5" cy="167.666" fill="none" rx="4" ry="4" style="stroke:#181818;stroke-width:1.5;"/><polygon fill="#181818" points="245,164.416,255,168.416,245,172.416,249,168.416" style="stroke:#181818;stroke-width:1.0;"/><line style="stroke:#181818;stroke-width:1.0;" x1="18" x2="251" y1="168.416" y2="168.416"/><text fill="#000000" font-family="sans-serif" font-size="13" font-weight="bold" lengthAdjust="spacing" textLength="7" x="21" y="163.1533">1</text><text fill="#000000" font-family="sans-serif" font-size="13" lengthAdjust="spacing" textLength="213" x="32" y="163.1533">getActuatorsByDeviceID(strDeviceID)</text><polygon fill="#181818" points="1070.5,195.707,1080.5,199.707,1070.5,203.707,1074.5,199.707" style="stroke:#181818;stroke-width:1.0;"/><line style="stroke:#181818;stroke-width:1.0;" x1="267" x2="1076.5" y1="199.707" y2="199.707"/><text fill="#000000" font-family="sans-serif" font-size="13" font-weight="bold" lengthAdjust="spacing" textLength="7" x="274" y="194.4443">2</text><text fill="#000000" font-family="sans-serif" font-size="13" lengthAdjust="spacing" textLength="123" x="285" y="194.4443">DeviceID(strDeviceID)</text><rect fill="#E2E2F0" height="32.6211" rx="2.5" ry="2.5" style="stroke:#181818;stroke-width:0.5;" width="128" x="1082.5" y="176.416"/><text fill="#000000" font-family="sans-serif" font-size="14" lengthAdjust="spacing" textLength="114" x="1089.5" y="198.5234">deviceID:DeviceID</text><polygon fill="#181818" points="278,239.3281,268,243.3281,278,247.3281,274,243.3281" style="stroke:#181818;stroke-width:1.0;"/><line style="stroke:#181818;stroke-width:1.0;" x1="272" x2="1145.5" y1="243.3281" y2="243.3281"/><text fill="#000000" font-family="sans-serif" font-size="13" font-weight="bold" lengthAdjust="spacing" textLength="7" x="284" y="238.0654">3</text><text fill="#000000" font-family="sans-serif" font-size="13" lengthAdjust="spacing" textLength="68" x="295" y="238.0654">getDeviceID</text><polygon fill="#181818" points="481,270.6191,491,274.6191,481,278.6191,485,274.6191" style="stroke:#181818;stroke-width:1.0;"/><line style="stroke:#181818;stroke-width:1.0;" x1="267" x2="487" y1="274.6191" y2="274.6191"/><text fill="#000000" font-family="sans-serif" font-size="13" font-weight="bold" lengthAdjust="spacing" textLength="7" x="274" y="269.3564">4</text><text fill="#000000" font-family="sans-serif" font-size="13" lengthAdjust="spacing" textLength="196" x="285" y="269.3564">getActuatorsByDeviceID(deviceID)</text><polygon fill="#181818" points="695,301.9102,705,305.9102,695,309.9102,699,305.9102" style="stroke:#181818;stroke-width:1.0;"/><line style="stroke:#181818;stroke-width:1.0;" x1="503" x2="701" y1="305.9102" y2="305.9102"/><text fill="#000000" font-family="sans-serif" font-size="13" font-weight="bold" lengthAdjust="spacing" textLength="7" x="510" y="300.6475">5</text><text fill="#000000" font-family="sans-serif" font-size="13" lengthAdjust="spacing" textLength="116" x="521" y="300.6475">ofDeviceID(deviceID)</text><polygon fill="#181818" points="514,333.2012,504,337.2012,514,341.2012,510,337.2012" style="stroke:#181818;stroke-width:1.0;"/><line style="stroke:#181818;stroke-width:1.0;stroke-dasharray:2.0,2.0;" x1="508" x2="711" y1="337.2012" y2="337.2012"/><text fill="#000000" font-family="sans-serif" font-size="13" font-weight="bold" lengthAdjust="spacing" textLength="7" x="520" y="331.9385">6</text><text fill="#000000" font-family="sans-serif" font-size="13" lengthAdjust="spacing" textLength="73" x="531" y="331.9385">listActuators</text><polygon fill="#181818" points="278,364.4922,268,368.4922,278,372.4922,274,368.4922" style="stroke:#181818;stroke-width:1.0;"/><line style="stroke:#181818;stroke-width:1.0;stroke-dasharray:2.0,2.0;" x1="272" x2="497" y1="368.4922" y2="368.4922"/><text fill="#000000" font-family="sans-serif" font-size="13" font-weight="bold" lengthAdjust="spacing" textLength="7" x="284" y="363.2295">7</text><text fill="#000000" font-family="sans-serif" font-size="13" lengthAdjust="spacing" textLength="73" x="295" y="363.2295">listActuators</text><polygon fill="#181818" points="928,395.7832,938,399.7832,928,403.7832,932,399.7832" style="stroke:#181818;stroke-width:1.0;"/><line style="stroke:#181818;stroke-width:1.0;" x1="267" x2="934" y1="399.7832" y2="399.7832"/><text fill="#000000" font-family="sans-serif" font-size="13" font-weight="bold" lengthAdjust="spacing" textLength="7" x="274" y="394.5205">8</text><text fill="#000000" font-family="sans-serif" font-size="13" lengthAdjust="spacing" textLength="163" x="285" y="394.5205">domainToDTO(listActuators)</text><polygon fill="#181818" points="278,427.0742,268,431.0742,278,435.0742,274,431.0742" style="stroke:#181818;stroke-width:1.0;"/><line style="stroke:#181818;stroke-width:1.0;stroke-dasharray:2.0,2.0;" x1="272" x2="944" y1="431.0742" y2="431.0742"/><text fill="#000000" font-family="sans-serif" font-size="13" font-weight="bold" lengthAdjust="spacing" textLength="7" x="284" y="425.8115">9</text><text fill="#000000" font-family="sans-serif" font-size="13" lengthAdjust="spacing" textLength="94" x="295" y="425.8115">actuatorListDTO</text><polygon fill="#181818" points="25,458.3652,15,462.3652,25,466.3652,21,462.3652" style="stroke:#181818;stroke-width:1.0;"/><line style="stroke:#181818;stroke-width:1.0;stroke-dasharray:2.0,2.0;" x1="19" x2="261" y1="462.3652" y2="462.3652"/><text fill="#000000" font-family="sans-serif" font-size="13" font-weight="bold" lengthAdjust="spacing" textLength="14" x="31" y="457.1025">10</text><text fill="#000000" font-family="sans-serif" font-size="13" lengthAdjust="spacing" textLength="94" x="49" y="457.1025">actuatorListDTO</text><!--SRC=[bPJ1JiCm38RlUGh3XKrYxDu3qc0N92Ia0G_WjTw8bCGbSIVjxKbBstKqrKPxQEBOd_yuJk- -HCgGBPUbGIULDGyvssMWxufSJej2uzwZLJUbnxr5C7ZaIY1O4dIei19sbTsILmhYKw8NdUioek0slXZWCyJ5qLgsogL2OV_CJZmRGxxn7fl7iTZwl9C_w9nwL3i_uxIsQSY6Iku9zUGil3PCnwv28BkD6dj0RpcZzDOngg1QtiiwMxU39h2RgFZSmQO-Z220ni2lVu3j4Jop1NG5x2gNYsQ7HiknIU5f1tmWtnJ_Fb7K3FOacmW8__3_LHMUZdNWothccyzye50OSiE1GBu8jaP7SUqXgfeCl7YSWdVcYEzsFmlYk_5SnQBh0mgbMaJbdkgblcvZ7uYfksN8u4AEqm7qCKdfC2XCz2ueGKXh-TEWC5c4Ohe2NNEhlx01l-bluDqrlARRrN06Yx7K38mE9wd3JQT1lQg9qx-86-qpNShJTOI2BMhtmUkFjzaPFh7hq-rK8zEavkuNy1hXCKbATO8xr1t1zPsu2ZLiTVK3]--></g></svg>