<?xml version="1.0" encoding="us-ascii" standalone="no"?><svg xmlns="http://www.w3.org/2000/svg" xmlns:xlink="http://www.w3.org/1999/xlink" contentStyleType="text/css" height="1155px" preserveAspectRatio="none" style="width:1869px;height:1155px;background:#FFFFFF;" version="1.1" viewBox="0 0 1869 1155" width="1869px" zoomAndPan="magnify"><defs/><g><!--cluster domain--><g id="cluster_domain"><path d="M16.5,4 L68.5,4 A3.75,3.75 0 0 1 71,6.5 L78,28.6211 L1859.5,28.6211 A2.5,2.5 0 0 1 1862,31.1211 L1862,1145.5 A2.5,2.5 0 0 1 1859.5,1148 L16.5,1148 A2.5,2.5 0 0 1 14,1145.5 L14,6.5 A2.5,2.5 0 0 1 16.5,4 " fill="none" style="stroke:#000000;stroke-width:1.5;"/><line style="stroke:#000000;stroke-width:1.5;" x1="14" x2="78" y1="28.6211" y2="28.6211"/><text fill="#000000" font-family="sans-serif" font-size="14" font-weight="bold" lengthAdjust="spacing" textLength="51" x="18" y="21.1074">domain</text></g><!--cluster Sensor--><g id="cluster_Sensor"><path d="M24.5,33 L75.5,33 A3.75,3.75 0 0 1 78,35.5 L85,57.6211 L1851.5,57.6211 A2.5,2.5 0 0 1 1854,60.1211 L1854,778.5 A2.5,2.5 0 0 1 1851.5,781 L24.5,781 A2.5,2.5 0 0 1 22,778.5 L22,35.5 A2.5,2.5 0 0 1 24.5,33 " fill="none" style="stroke:#000000;stroke-width:1.5;"/><line style="stroke:#000000;stroke-width:1.5;" x1="22" x2="85" y1="57.6211" y2="57.6211"/><text fill="#000000" font-family="sans-serif" font-size="14" font-weight="bold" lengthAdjust="spacing" textLength="50" x="26" y="50.1074">Sensor</text></g><!--cluster TemperatureSensor--><g id="cluster_TemperatureSensor"><path d="M298.5,174 L439.5,174 A3.75,3.75 0 0 1 442,176.5 L449,198.6211 L1589.5,198.6211 A2.5,2.5 0 0 1 1592,201.1211 L1592,747.5 A2.5,2.5 0 0 1 1589.5,750 L298.5,750 A2.5,2.5 0 0 1 296,747.5 L296,176.5 A2.5,2.5 0 0 1 298.5,174 " fill="none" style="stroke:#000000;stroke-width:1.5;"/><line style="stroke:#000000;stroke-width:1.5;" x1="296" x2="449" y1="198.6211" y2="198.6211"/><text fill="#000000" font-family="sans-serif" font-size="14" font-weight="bold" lengthAdjust="spacing" textLength="140" x="300" y="191.1074">TemperatureSensor</text></g><!--cluster ddd--><g id="cluster_ddd"><path d="M1136.5,800 L1164.5,800 A3.75,3.75 0 0 1 1167,802.5 L1174,824.6211 L1275.5,824.6211 A2.5,2.5 0 0 1 1278,827.1211 L1278,1137.5 A2.5,2.5 0 0 1 1275.5,1140 L1136.5,1140 A2.5,2.5 0 0 1 1134,1137.5 L1134,802.5 A2.5,2.5 0 0 1 1136.5,800 " fill="none" style="stroke:#000000;stroke-width:1.5;"/><line style="stroke:#000000;stroke-width:1.5;" x1="1134" x2="1174" y1="824.6211" y2="824.6211"/><text fill="#000000" font-family="sans-serif" font-size="14" font-weight="bold" lengthAdjust="spacing" textLength="27" x="1138" y="817.1074">ddd</text></g><!--class FactorySensor--><g id="elem_FactorySensor"><rect codeLine="4" fill="#F1F1F1" height="66.6211" id="FactorySensor" rx="2.5" ry="2.5" style="stroke:#181818;stroke-width:0.5;" width="258" x="30" y="338"/><ellipse cx="108.25" cy="354" fill="#B4A7E5" rx="11" ry="11" style="stroke:#181818;stroke-width:1.0;"/><path d="M109.2031,350.6406 L109.2031,357.2969 L110.9219,357.2969 Q111.5313,357.2969 111.7969,357.5313 Q112.0625,357.7656 112.0625,358.1563 Q112.0625,358.5313 111.7969,358.7656 Q111.5313,359 110.9219,359 L105.7813,359 Q105.1719,359 104.9063,358.7656 Q104.6406,358.5313 104.6406,358.1406 Q104.6406,357.7656 104.9063,357.5313 Q105.1719,357.2969 105.7813,357.2969 L107.5,357.2969 L107.5,350.6406 L105.7813,350.6406 Q105.1719,350.6406 104.9063,350.4063 Q104.6406,350.1719 104.6406,349.7813 Q104.6406,349.4063 104.9063,349.1719 Q105.1719,348.9375 105.7813,348.9375 L110.9219,348.9375 Q111.5313,348.9375 111.7969,349.1719 Q112.0625,349.4063 112.0625,349.7813 Q112.0625,350.1719 111.7969,350.4063 Q111.5313,350.6406 110.9219,350.6406 L109.2031,350.6406 Z " fill="#000000"/><text fill="#000000" font-family="sans-serif" font-size="14" font-style="italic" lengthAdjust="spacing" textLength="93" x="128.75" y="359.7969">FactorySensor</text><line style="stroke:#181818;stroke-width:0.5;" x1="31" x2="287" y1="370" y2="370"/><line style="stroke:#181818;stroke-width:0.5;" x1="31" x2="287" y1="378" y2="378"/><ellipse cx="41" cy="392.8105" fill="#84BE84" rx="3" ry="3" style="stroke:#038048;stroke-width:1.0;"/><text fill="#000000" font-family="sans-serif" font-size="14" lengthAdjust="spacing" textLength="232" x="50" y="397.1074">create(Object... parameters): Sensor</text></g><!--class ImplFactorySensor--><g id="elem_ImplFactorySensor"><rect codeLine="8" fill="#F1F1F1" height="66.6211" id="ImplFactorySensor" rx="2.5" ry="2.5" style="stroke:#181818;stroke-width:0.5;" width="258" x="448" y="62"/><ellipse cx="513.75" cy="78" fill="#ADD1B2" rx="11" ry="11" style="stroke:#181818;stroke-width:1.0;"/><path d="M516.5156,73.875 Q516.6719,73.6563 516.8594,73.5469 Q517.0469,73.4375 517.2656,73.4375 Q517.6406,73.4375 517.875,73.7031 Q518.1094,73.9531 518.1094,74.5625 L518.1094,76.0156 Q518.1094,76.625 517.875,76.8906 Q517.6406,77.1563 517.2656,77.1563 Q516.9219,77.1563 516.7188,76.9531 Q516.5156,76.7656 516.4063,76.25 Q516.3594,75.8906 516.1719,75.7031 Q515.8438,75.3281 515.2344,75.1094 Q514.625,74.8906 514,74.8906 Q513.2344,74.8906 512.5938,75.2188 Q511.9688,75.5469 511.4688,76.2969 Q510.9844,77.0469 510.9844,78.0781 L510.9844,79.1719 Q510.9844,80.4063 511.875,81.2344 Q512.7656,82.0469 514.3594,82.0469 Q515.2969,82.0469 515.9531,81.7969 Q516.3438,81.6406 516.7656,81.2031 Q517.0313,80.9375 517.1719,80.8594 Q517.3281,80.7813 517.5313,80.7813 Q517.8594,80.7813 518.1094,81.0469 Q518.375,81.2969 518.375,81.6406 Q518.375,81.9844 518.0313,82.3906 Q517.5313,82.9688 516.7344,83.2969 Q515.6563,83.75 514.3594,83.75 Q512.8438,83.75 511.6406,83.125 Q510.6563,82.625 509.9688,81.5625 Q509.2813,80.4844 509.2813,79.2031 L509.2813,78.0469 Q509.2813,76.7188 509.8906,75.5781 Q510.5156,74.4219 511.6094,73.8125 Q512.7031,73.1875 513.9375,73.1875 Q514.6719,73.1875 515.3125,73.3594 Q515.9688,73.5156 516.5156,73.875 Z " fill="#000000"/><text fill="#000000" font-family="sans-serif" font-size="14" lengthAdjust="spacing" textLength="118" x="534.25" y="83.7969">ImplFactorySensor</text><line style="stroke:#181818;stroke-width:0.5;" x1="449" x2="705" y1="94" y2="94"/><line style="stroke:#181818;stroke-width:0.5;" x1="449" x2="705" y1="102" y2="102"/><ellipse cx="459" cy="116.8105" fill="#84BE84" rx="3" ry="3" style="stroke:#038048;stroke-width:1.0;"/><text fill="#000000" font-family="sans-serif" font-size="14" lengthAdjust="spacing" textLength="232" x="468" y="121.1074">create(Object... parameters): Sensor</text></g><!--class Sensor--><g id="elem_Sensor"><rect codeLine="12" fill="#F1F1F1" height="178.3477" id="Sensor" rx="2.5" ry="2.5" style="stroke:#181818;stroke-width:0.5;" width="244" x="1602" y="595"/><ellipse cx="1697.25" cy="611" fill="#B4A7E5" rx="11" ry="11" style="stroke:#181818;stroke-width:1.0;"/><path d="M1698.2031,607.6406 L1698.2031,614.2969 L1699.9219,614.2969 Q1700.5313,614.2969 1700.7969,614.5313 Q1701.0625,614.7656 1701.0625,615.1563 Q1701.0625,615.5313 1700.7969,615.7656 Q1700.5313,616 1699.9219,616 L1694.7813,616 Q1694.1719,616 1693.9063,615.7656 Q1693.6406,615.5313 1693.6406,615.1406 Q1693.6406,614.7656 1693.9063,614.5313 Q1694.1719,614.2969 1694.7813,614.2969 L1696.5,614.2969 L1696.5,607.6406 L1694.7813,607.6406 Q1694.1719,607.6406 1693.9063,607.4063 Q1693.6406,607.1719 1693.6406,606.7813 Q1693.6406,606.4063 1693.9063,606.1719 Q1694.1719,605.9375 1694.7813,605.9375 L1699.9219,605.9375 Q1700.5313,605.9375 1700.7969,606.1719 Q1701.0625,606.4063 1701.0625,606.7813 Q1701.0625,607.1719 1700.7969,607.4063 Q1700.5313,607.6406 1699.9219,607.6406 L1698.2031,607.6406 Z " fill="#000000"/><text fill="#000000" font-family="sans-serif" font-size="14" font-style="italic" lengthAdjust="spacing" textLength="45" x="1717.75" y="616.7969">Sensor</text><line style="stroke:#181818;stroke-width:0.5;" x1="1603" x2="1845" y1="627" y2="627"/><line style="stroke:#181818;stroke-width:0.5;" x1="1603" x2="1845" y1="635" y2="635"/><ellipse cx="1613" cy="649.8105" fill="#84BE84" rx="3" ry="3" style="stroke:#038048;stroke-width:1.0;"/><text fill="#000000" font-family="sans-serif" font-size="14" lengthAdjust="spacing" textLength="109" x="1622" y="654.1074">getID(): SensorID</text><ellipse cx="1613" cy="668.4316" fill="#84BE84" rx="3" ry="3" style="stroke:#038048;stroke-width:1.0;"/><text fill="#000000" font-family="sans-serif" font-size="14" lengthAdjust="spacing" textLength="155" x="1622" y="672.7285">getName(): SensorName</text><ellipse cx="1613" cy="687.0527" fill="#84BE84" rx="3" ry="3" style="stroke:#038048;stroke-width:1.0;"/><text fill="#000000" font-family="sans-serif" font-size="14" lengthAdjust="spacing" textLength="172" x="1622" y="691.3496">getModelPath(): ModelPath</text><ellipse cx="1613" cy="705.6738" fill="#84BE84" rx="3" ry="3" style="stroke:#038048;stroke-width:1.0;"/><text fill="#000000" font-family="sans-serif" font-size="14" lengthAdjust="spacing" textLength="218" x="1622" y="709.9707">getSensorTypeID(): SensorTypeID</text><ellipse cx="1613" cy="724.2949" fill="#84BE84" rx="3" ry="3" style="stroke:#038048;stroke-width:1.0;"/><text fill="#000000" font-family="sans-serif" font-size="14" lengthAdjust="spacing" textLength="150" x="1622" y="728.5918">getDeviceID(): DeviceID</text><ellipse cx="1613" cy="742.916" fill="#84BE84" rx="3" ry="3" style="stroke:#038048;stroke-width:1.0;"/><text fill="#000000" font-family="sans-serif" font-size="14" lengthAdjust="spacing" textLength="151" x="1622" y="747.2129">getValue(): ValueObject</text><ellipse cx="1613" cy="761.5371" fill="#84BE84" rx="3" ry="3" style="stroke:#038048;stroke-width:1.0;"/><text fill="#000000" font-family="sans-serif" font-size="14" lengthAdjust="spacing" textLength="104" x="1622" y="765.834">toString(): String</text></g><!--class TemperatureSensor--><g id="elem_TemperatureSensor"><rect codeLine="25" fill="#F1F1F1" height="337.2383" id="TemperatureSensor" rx="2.5" ry="2.5" style="stroke:#181818;stroke-width:0.5;" width="801" x="593.5" y="203"/><ellipse cx="926.25" cy="233.2715" fill="#ADD1B2" rx="11" ry="11" style="stroke:#181818;stroke-width:1.0;"/><path d="M929.0156,229.1465 Q929.1719,228.9277 929.3594,228.8184 Q929.5469,228.709 929.7656,228.709 Q930.1406,228.709 930.375,228.9746 Q930.6094,229.2246 930.6094,229.834 L930.6094,231.2871 Q930.6094,231.8965 930.375,232.1621 Q930.1406,232.4277 929.7656,232.4277 Q929.4219,232.4277 929.2188,232.2246 Q929.0156,232.0371 928.9063,231.5215 Q928.8594,231.1621 928.6719,230.9746 Q928.3438,230.5996 927.7344,230.3809 Q927.125,230.1621 926.5,230.1621 Q925.7344,230.1621 925.0938,230.4902 Q924.4688,230.8184 923.9688,231.5684 Q923.4844,232.3184 923.4844,233.3496 L923.4844,234.4434 Q923.4844,235.6777 924.375,236.5059 Q925.2656,237.3184 926.8594,237.3184 Q927.7969,237.3184 928.4531,237.0684 Q928.8438,236.9121 929.2656,236.4746 Q929.5313,236.209 929.6719,236.1309 Q929.8281,236.0527 930.0313,236.0527 Q930.3594,236.0527 930.6094,236.3184 Q930.875,236.5684 930.875,236.9121 Q930.875,237.2559 930.5313,237.6621 Q930.0313,238.2402 929.2344,238.5684 Q928.1563,239.0215 926.8594,239.0215 Q925.3438,239.0215 924.1406,238.3965 Q923.1563,237.8965 922.4688,236.834 Q921.7813,235.7559 921.7813,234.4746 L921.7813,233.3184 Q921.7813,231.9902 922.3906,230.8496 Q923.0156,229.6934 924.1094,229.084 Q925.2031,228.459 926.4375,228.459 Q927.1719,228.459 927.8125,228.6309 Q928.4688,228.7871 929.0156,229.1465 Z " fill="#000000"/><text fill="#000000" font-family="sans-serif" font-size="12" font-style="italic" lengthAdjust="spacing" textLength="43" x="988.75" y="220.9492">&#171;entity&#187;</text><text fill="#000000" font-family="sans-serif" font-size="12" font-style="italic" lengthAdjust="spacing" textLength="40" x="990.25" y="236.9102">&#171;Root&#187;</text><text fill="#000000" font-family="sans-serif" font-size="14" lengthAdjust="spacing" textLength="127" x="946.75" y="255.0293">TemperatureSensor</text><line style="stroke:#181818;stroke-width:0.5;" x1="594.5" x2="1393.5" y1="263.543" y2="263.543"/><rect fill="none" height="6" style="stroke:#C82930;stroke-width:1.0;" width="6" x="601.5" y="275.3535"/><text fill="#000000" font-family="sans-serif" font-size="14" lengthAdjust="spacing" textLength="130" x="613.5" y="282.6504">_sensorID: SensorID</text><rect fill="none" height="6" style="stroke:#C82930;stroke-width:1.0;" width="6" x="601.5" y="293.9746"/><text fill="#000000" font-family="sans-serif" font-size="14" lengthAdjust="spacing" textLength="176" x="613.5" y="301.2715">_sensorName: SensorName</text><rect fill="none" height="6" style="stroke:#C82930;stroke-width:1.0;" width="6" x="601.5" y="312.5957"/><text fill="#000000" font-family="sans-serif" font-size="14" lengthAdjust="spacing" textLength="194" x="613.5" y="319.8926">_sensorTypeID: SensorTypeID</text><rect fill="none" height="6" style="stroke:#C82930;stroke-width:1.0;" width="6" x="601.5" y="331.2168"/><text fill="#000000" font-family="sans-serif" font-size="14" lengthAdjust="spacing" textLength="150" x="613.5" y="338.5137">_modelPath: ModelPath</text><rect fill="none" height="6" style="stroke:#C82930;stroke-width:1.0;" width="6" x="601.5" y="349.8379"/><text fill="#000000" font-family="sans-serif" font-size="14" lengthAdjust="spacing" textLength="126" x="613.5" y="357.1348">_deviceID: DeviceID</text><rect fill="none" height="6" style="stroke:#C82930;stroke-width:1.0;" width="6" x="601.5" y="368.459"/><text fill="#000000" font-family="sans-serif" font-size="14" lengthAdjust="spacing" textLength="213" x="613.5" y="375.7559">_value: TemperatureSensorValue</text><line style="stroke:#181818;stroke-width:0.5;" x1="594.5" x2="1393.5" y1="383.2695" y2="383.2695"/><ellipse cx="604.5" cy="398.0801" fill="#84BE84" rx="3" ry="3" style="stroke:#038048;stroke-width:1.0;"/><text fill="#000000" font-family="sans-serif" font-size="14" lengthAdjust="spacing" textLength="775" x="613.5" y="402.377">TemperatureSensor(sensorTypeID: SensorTypeID, modelPath: ModelPath, deviceID: DeviceID, sensorName: SensorName)</text><ellipse cx="604.5" cy="416.7012" fill="#84BE84" rx="3" ry="3" style="stroke:#038048;stroke-width:1.0;"/><text fill="#000000" font-family="sans-serif" font-size="14" lengthAdjust="spacing" textLength="189" x="613.5" y="420.998">getSensorTypeString(): String</text><ellipse cx="604.5" cy="435.3223" fill="#84BE84" rx="3" ry="3" style="stroke:#038048;stroke-width:1.0;"/><text fill="#000000" font-family="sans-serif" font-size="14" lengthAdjust="spacing" textLength="109" x="613.5" y="439.6191">getID(): SensorID</text><ellipse cx="604.5" cy="453.9434" fill="#84BE84" rx="3" ry="3" style="stroke:#038048;stroke-width:1.0;"/><text fill="#000000" font-family="sans-serif" font-size="14" lengthAdjust="spacing" textLength="155" x="613.5" y="458.2402">getName(): SensorName</text><ellipse cx="604.5" cy="472.5645" fill="#84BE84" rx="3" ry="3" style="stroke:#038048;stroke-width:1.0;"/><text fill="#000000" font-family="sans-serif" font-size="14" lengthAdjust="spacing" textLength="172" x="613.5" y="476.8613">getModelPath(): ModelPath</text><ellipse cx="604.5" cy="491.1855" fill="#84BE84" rx="3" ry="3" style="stroke:#038048;stroke-width:1.0;"/><text fill="#000000" font-family="sans-serif" font-size="14" lengthAdjust="spacing" textLength="218" x="613.5" y="495.4824">getSensorTypeID(): SensorTypeID</text><ellipse cx="604.5" cy="509.8066" fill="#84BE84" rx="3" ry="3" style="stroke:#038048;stroke-width:1.0;"/><text fill="#000000" font-family="sans-serif" font-size="14" lengthAdjust="spacing" textLength="150" x="613.5" y="514.1035">getDeviceID(): DeviceID</text><ellipse cx="604.5" cy="528.4277" fill="#84BE84" rx="3" ry="3" style="stroke:#038048;stroke-width:1.0;"/><text fill="#000000" font-family="sans-serif" font-size="14" lengthAdjust="spacing" textLength="151" x="613.5" y="532.7246">getValue(): ValueObject</text></g><!--class SensorName--><g id="elem_SensorName"><rect codeLine="42" fill="#F1F1F1" height="116.4453" id="SensorName" rx="2.5" ry="2.5" style="stroke:#181818;stroke-width:0.5;" width="193" x="304.5" y="626"/><ellipse cx="356.25" cy="648.291" fill="#ADD1B2" rx="11" ry="11" style="stroke:#181818;stroke-width:1.0;"/><path d="M359.0156,644.166 Q359.1719,643.9473 359.3594,643.8379 Q359.5469,643.7285 359.7656,643.7285 Q360.1406,643.7285 360.375,643.9941 Q360.6094,644.2441 360.6094,644.8535 L360.6094,646.3066 Q360.6094,646.916 360.375,647.1816 Q360.1406,647.4473 359.7656,647.4473 Q359.4219,647.4473 359.2188,647.2441 Q359.0156,647.0566 358.9063,646.541 Q358.8594,646.1816 358.6719,645.9941 Q358.3438,645.6191 357.7344,645.4004 Q357.125,645.1816 356.5,645.1816 Q355.7344,645.1816 355.0938,645.5098 Q354.4688,645.8379 353.9688,646.5879 Q353.4844,647.3379 353.4844,648.3691 L353.4844,649.4629 Q353.4844,650.6973 354.375,651.5254 Q355.2656,652.3379 356.8594,652.3379 Q357.7969,652.3379 358.4531,652.0879 Q358.8438,651.9316 359.2656,651.4941 Q359.5313,651.2285 359.6719,651.1504 Q359.8281,651.0723 360.0313,651.0723 Q360.3594,651.0723 360.6094,651.3379 Q360.875,651.5879 360.875,651.9316 Q360.875,652.2754 360.5313,652.6816 Q360.0313,653.2598 359.2344,653.5879 Q358.1563,654.041 356.8594,654.041 Q355.3438,654.041 354.1406,653.416 Q353.1563,652.916 352.4688,651.8535 Q351.7813,650.7754 351.7813,649.4941 L351.7813,648.3379 Q351.7813,647.0098 352.3906,645.8691 Q353.0156,644.7129 354.1094,644.1035 Q355.2031,643.4785 356.4375,643.4785 Q357.1719,643.4785 357.8125,643.6504 Q358.4688,643.8066 359.0156,644.166 Z " fill="#000000"/><text fill="#000000" font-family="sans-serif" font-size="12" font-style="italic" lengthAdjust="spacing" textLength="82" x="376.25" y="643.9492">&#171;ValueObject&#187;</text><text fill="#000000" font-family="sans-serif" font-size="14" lengthAdjust="spacing" textLength="81" x="376.75" y="662.0684">SensorName</text><line style="stroke:#181818;stroke-width:0.5;" x1="305.5" x2="496.5" y1="670.582" y2="670.582"/><rect fill="none" height="6" style="stroke:#C82930;stroke-width:1.0;" width="6" x="312.5" y="682.3926"/><text fill="#000000" font-family="sans-serif" font-size="14" lengthAdjust="spacing" textLength="88" x="324.5" y="689.6895">_name: String</text><line style="stroke:#181818;stroke-width:0.5;" x1="305.5" x2="496.5" y1="697.2031" y2="697.2031"/><ellipse cx="315.5" cy="712.0137" fill="#84BE84" rx="3" ry="3" style="stroke:#038048;stroke-width:1.0;"/><text fill="#000000" font-family="sans-serif" font-size="14" lengthAdjust="spacing" textLength="167" x="324.5" y="716.3105">SensorName(String name)</text><ellipse cx="315.5" cy="730.6348" fill="#84BE84" rx="3" ry="3" style="stroke:#038048;stroke-width:1.0;"/><text fill="#000000" font-family="sans-serif" font-size="14" lengthAdjust="spacing" textLength="115" x="324.5" y="734.9316">getName() : String</text></g><!--class SensorID--><g id="elem_SensorID"><rect codeLine="48" fill="#F1F1F1" height="116.4453" id="SensorID" rx="2.5" ry="2.5" style="stroke:#181818;stroke-width:0.5;" width="146" x="1438" y="626"/><ellipse cx="1474.15" cy="648.291" fill="#ADD1B2" rx="11" ry="11" style="stroke:#181818;stroke-width:1.0;"/><path d="M1476.9156,644.166 Q1477.0719,643.9473 1477.2594,643.8379 Q1477.4469,643.7285 1477.6656,643.7285 Q1478.0406,643.7285 1478.275,643.9941 Q1478.5094,644.2441 1478.5094,644.8535 L1478.5094,646.3066 Q1478.5094,646.916 1478.275,647.1816 Q1478.0406,647.4473 1477.6656,647.4473 Q1477.3219,647.4473 1477.1188,647.2441 Q1476.9156,647.0566 1476.8063,646.541 Q1476.7594,646.1816 1476.5719,645.9941 Q1476.2438,645.6191 1475.6344,645.4004 Q1475.025,645.1816 1474.4,645.1816 Q1473.6344,645.1816 1472.9938,645.5098 Q1472.3688,645.8379 1471.8688,646.5879 Q1471.3844,647.3379 1471.3844,648.3691 L1471.3844,649.4629 Q1471.3844,650.6973 1472.275,651.5254 Q1473.1656,652.3379 1474.7594,652.3379 Q1475.6969,652.3379 1476.3531,652.0879 Q1476.7438,651.9316 1477.1656,651.4941 Q1477.4313,651.2285 1477.5719,651.1504 Q1477.7281,651.0723 1477.9313,651.0723 Q1478.2594,651.0723 1478.5094,651.3379 Q1478.775,651.5879 1478.775,651.9316 Q1478.775,652.2754 1478.4313,652.6816 Q1477.9313,653.2598 1477.1344,653.5879 Q1476.0563,654.041 1474.7594,654.041 Q1473.2438,654.041 1472.0406,653.416 Q1471.0563,652.916 1470.3688,651.8535 Q1469.6813,650.7754 1469.6813,649.4941 L1469.6813,648.3379 Q1469.6813,647.0098 1470.2906,645.8691 Q1470.9156,644.7129 1472.0094,644.1035 Q1473.1031,643.4785 1474.3375,643.4785 Q1475.0719,643.4785 1475.7125,643.6504 Q1476.3688,643.8066 1476.9156,644.166 Z " fill="#000000"/><text fill="#000000" font-family="sans-serif" font-size="12" font-style="italic" lengthAdjust="spacing" textLength="71" x="1490.85" y="643.9492">&#171;DomainID&#187;</text><text fill="#000000" font-family="sans-serif" font-size="14" lengthAdjust="spacing" textLength="58" x="1497.35" y="662.0684">SensorID</text><line style="stroke:#181818;stroke-width:0.5;" x1="1439" x2="1583" y1="670.582" y2="670.582"/><rect fill="none" height="6" style="stroke:#C82930;stroke-width:1.0;" width="6" x="1446" y="682.3926"/><text fill="#000000" font-family="sans-serif" font-size="14" lengthAdjust="spacing" textLength="64" x="1458" y="689.6895">_id: String</text><line style="stroke:#181818;stroke-width:0.5;" x1="1439" x2="1583" y1="697.2031" y2="697.2031"/><ellipse cx="1449" cy="712.0137" fill="#84BE84" rx="3" ry="3" style="stroke:#038048;stroke-width:1.0;"/><text fill="#000000" font-family="sans-serif" font-size="14" lengthAdjust="spacing" textLength="120" x="1458" y="716.3105">SensorID(String id)</text><ellipse cx="1449" cy="730.6348" fill="#84BE84" rx="3" ry="3" style="stroke:#038048;stroke-width:1.0;"/><text fill="#000000" font-family="sans-serif" font-size="14" lengthAdjust="spacing" textLength="92" x="1458" y="734.9316">getID() : String</text></g><!--class TemperatureSensorValue--><g id="elem_TemperatureSensorValue"><rect codeLine="54" fill="#F1F1F1" height="116.4453" id="TemperatureSensorValue" rx="2.5" ry="2.5" style="stroke:#181818;stroke-width:0.5;" width="280" x="516" y="626"/><ellipse cx="570.25" cy="648.291" fill="#ADD1B2" rx="11" ry="11" style="stroke:#181818;stroke-width:1.0;"/><path d="M573.0156,644.166 Q573.1719,643.9473 573.3594,643.8379 Q573.5469,643.7285 573.7656,643.7285 Q574.1406,643.7285 574.375,643.9941 Q574.6094,644.2441 574.6094,644.8535 L574.6094,646.3066 Q574.6094,646.916 574.375,647.1816 Q574.1406,647.4473 573.7656,647.4473 Q573.4219,647.4473 573.2188,647.2441 Q573.0156,647.0566 572.9063,646.541 Q572.8594,646.1816 572.6719,645.9941 Q572.3438,645.6191 571.7344,645.4004 Q571.125,645.1816 570.5,645.1816 Q569.7344,645.1816 569.0938,645.5098 Q568.4688,645.8379 567.9688,646.5879 Q567.4844,647.3379 567.4844,648.3691 L567.4844,649.4629 Q567.4844,650.6973 568.375,651.5254 Q569.2656,652.3379 570.8594,652.3379 Q571.7969,652.3379 572.4531,652.0879 Q572.8438,651.9316 573.2656,651.4941 Q573.5313,651.2285 573.6719,651.1504 Q573.8281,651.0723 574.0313,651.0723 Q574.3594,651.0723 574.6094,651.3379 Q574.875,651.5879 574.875,651.9316 Q574.875,652.2754 574.5313,652.6816 Q574.0313,653.2598 573.2344,653.5879 Q572.1563,654.041 570.8594,654.041 Q569.3438,654.041 568.1406,653.416 Q567.1563,652.916 566.4688,651.8535 Q565.7813,650.7754 565.7813,649.4941 L565.7813,648.3379 Q565.7813,647.0098 566.3906,645.8691 Q567.0156,644.7129 568.1094,644.1035 Q569.2031,643.4785 570.4375,643.4785 Q571.1719,643.4785 571.8125,643.6504 Q572.4688,643.8066 573.0156,644.166 Z " fill="#000000"/><text fill="#000000" font-family="sans-serif" font-size="12" font-style="italic" lengthAdjust="spacing" textLength="82" x="631.25" y="643.9492">&#171;ValueObject&#187;</text><text fill="#000000" font-family="sans-serif" font-size="14" lengthAdjust="spacing" textLength="163" x="590.75" y="662.0684">TemperatureSensorValue</text><line style="stroke:#181818;stroke-width:0.5;" x1="517" x2="795" y1="670.582" y2="670.582"/><rect fill="none" height="6" style="stroke:#C82930;stroke-width:1.0;" width="6" x="524" y="682.3926"/><text fill="#000000" font-family="sans-serif" font-size="14" lengthAdjust="spacing" textLength="97" x="536" y="689.6895">_value : double</text><line style="stroke:#181818;stroke-width:0.5;" x1="517" x2="795" y1="697.2031" y2="697.2031"/><ellipse cx="527" cy="712.0137" fill="#84BE84" rx="3" ry="3" style="stroke:#038048;stroke-width:1.0;"/><text fill="#000000" font-family="sans-serif" font-size="14" lengthAdjust="spacing" textLength="254" x="536" y="716.3105">TemperatureSensorValue(double value)</text><ellipse cx="527" cy="730.6348" fill="#84BE84" rx="3" ry="3" style="stroke:#038048;stroke-width:1.0;"/><text fill="#000000" font-family="sans-serif" font-size="14" lengthAdjust="spacing" textLength="108" x="536" y="734.9316">toString() : String</text></g><!--class SensorTypeID--><g id="elem_SensorTypeID"><rect codeLine="60" fill="#F1F1F1" height="116.4453" id="SensorTypeID" rx="2.5" ry="2.5" style="stroke:#181818;stroke-width:0.5;" width="254" x="976" y="626"/><ellipse cx="1053.75" cy="648.291" fill="#ADD1B2" rx="11" ry="11" style="stroke:#181818;stroke-width:1.0;"/><path d="M1056.5156,644.166 Q1056.6719,643.9473 1056.8594,643.8379 Q1057.0469,643.7285 1057.2656,643.7285 Q1057.6406,643.7285 1057.875,643.9941 Q1058.1094,644.2441 1058.1094,644.8535 L1058.1094,646.3066 Q1058.1094,646.916 1057.875,647.1816 Q1057.6406,647.4473 1057.2656,647.4473 Q1056.9219,647.4473 1056.7188,647.2441 Q1056.5156,647.0566 1056.4063,646.541 Q1056.3594,646.1816 1056.1719,645.9941 Q1055.8438,645.6191 1055.2344,645.4004 Q1054.625,645.1816 1054,645.1816 Q1053.2344,645.1816 1052.5938,645.5098 Q1051.9688,645.8379 1051.4688,646.5879 Q1050.9844,647.3379 1050.9844,648.3691 L1050.9844,649.4629 Q1050.9844,650.6973 1051.875,651.5254 Q1052.7656,652.3379 1054.3594,652.3379 Q1055.2969,652.3379 1055.9531,652.0879 Q1056.3438,651.9316 1056.7656,651.4941 Q1057.0313,651.2285 1057.1719,651.1504 Q1057.3281,651.0723 1057.5313,651.0723 Q1057.8594,651.0723 1058.1094,651.3379 Q1058.375,651.5879 1058.375,651.9316 Q1058.375,652.2754 1058.0313,652.6816 Q1057.5313,653.2598 1056.7344,653.5879 Q1055.6563,654.041 1054.3594,654.041 Q1052.8438,654.041 1051.6406,653.416 Q1050.6563,652.916 1049.9688,651.8535 Q1049.2813,650.7754 1049.2813,649.4941 L1049.2813,648.3379 Q1049.2813,647.0098 1049.8906,645.8691 Q1050.5156,644.7129 1051.6094,644.1035 Q1052.7031,643.4785 1053.9375,643.4785 Q1054.6719,643.4785 1055.3125,643.6504 Q1055.9688,643.8066 1056.5156,644.166 Z " fill="#000000"/><text fill="#000000" font-family="sans-serif" font-size="12" font-style="italic" lengthAdjust="spacing" textLength="71" x="1083.75" y="643.9492">&#171;DomainID&#187;</text><text fill="#000000" font-family="sans-serif" font-size="14" lengthAdjust="spacing" textLength="90" x="1074.25" y="662.0684">SensorTypeID</text><line style="stroke:#181818;stroke-width:0.5;" x1="977" x2="1229" y1="670.582" y2="670.582"/><rect fill="none" height="6" style="stroke:#C82930;stroke-width:1.0;" width="6" x="984" y="682.3926"/><text fill="#000000" font-family="sans-serif" font-size="14" lengthAdjust="spacing" textLength="122" x="996" y="689.6895">_description: String</text><line style="stroke:#181818;stroke-width:0.5;" x1="977" x2="1229" y1="697.2031" y2="697.2031"/><ellipse cx="987" cy="712.0137" fill="#84BE84" rx="3" ry="3" style="stroke:#038048;stroke-width:1.0;"/><text fill="#000000" font-family="sans-serif" font-size="14" lengthAdjust="spacing" textLength="228" x="996" y="716.3105">SensorTypeID(String strDescription)</text><ellipse cx="987" cy="730.6348" fill="#84BE84" rx="3" ry="3" style="stroke:#038048;stroke-width:1.0;"/><text fill="#000000" font-family="sans-serif" font-size="14" lengthAdjust="spacing" textLength="124" x="996" y="734.9316">getTypeID() : String</text></g><!--class ModelPath--><g id="elem_ModelPath"><rect codeLine="66" fill="#F1F1F1" height="116.4453" id="ModelPath" rx="2.5" ry="2.5" style="stroke:#181818;stroke-width:0.5;" width="172" x="1248" y="626"/><ellipse cx="1296.25" cy="648.291" fill="#ADD1B2" rx="11" ry="11" style="stroke:#181818;stroke-width:1.0;"/><path d="M1299.0156,644.166 Q1299.1719,643.9473 1299.3594,643.8379 Q1299.5469,643.7285 1299.7656,643.7285 Q1300.1406,643.7285 1300.375,643.9941 Q1300.6094,644.2441 1300.6094,644.8535 L1300.6094,646.3066 Q1300.6094,646.916 1300.375,647.1816 Q1300.1406,647.4473 1299.7656,647.4473 Q1299.4219,647.4473 1299.2188,647.2441 Q1299.0156,647.0566 1298.9063,646.541 Q1298.8594,646.1816 1298.6719,645.9941 Q1298.3438,645.6191 1297.7344,645.4004 Q1297.125,645.1816 1296.5,645.1816 Q1295.7344,645.1816 1295.0938,645.5098 Q1294.4688,645.8379 1293.9688,646.5879 Q1293.4844,647.3379 1293.4844,648.3691 L1293.4844,649.4629 Q1293.4844,650.6973 1294.375,651.5254 Q1295.2656,652.3379 1296.8594,652.3379 Q1297.7969,652.3379 1298.4531,652.0879 Q1298.8438,651.9316 1299.2656,651.4941 Q1299.5313,651.2285 1299.6719,651.1504 Q1299.8281,651.0723 1300.0313,651.0723 Q1300.3594,651.0723 1300.6094,651.3379 Q1300.875,651.5879 1300.875,651.9316 Q1300.875,652.2754 1300.5313,652.6816 Q1300.0313,653.2598 1299.2344,653.5879 Q1298.1563,654.041 1296.8594,654.041 Q1295.3438,654.041 1294.1406,653.416 Q1293.1563,652.916 1292.4688,651.8535 Q1291.7813,650.7754 1291.7813,649.4941 L1291.7813,648.3379 Q1291.7813,647.0098 1292.3906,645.8691 Q1293.0156,644.7129 1294.1094,644.1035 Q1295.2031,643.4785 1296.4375,643.4785 Q1297.1719,643.4785 1297.8125,643.6504 Q1298.4688,643.8066 1299.0156,644.166 Z " fill="#000000"/><text fill="#000000" font-family="sans-serif" font-size="12" font-style="italic" lengthAdjust="spacing" textLength="71" x="1314.75" y="643.9492">&#171;DomainID&#187;</text><text fill="#000000" font-family="sans-serif" font-size="14" lengthAdjust="spacing" textLength="67" x="1316.75" y="662.0684">ModelPath</text><line style="stroke:#181818;stroke-width:0.5;" x1="1249" x2="1419" y1="670.582" y2="670.582"/><rect fill="none" height="6" style="stroke:#C82930;stroke-width:1.0;" width="6" x="1256" y="682.3926"/><text fill="#000000" font-family="sans-serif" font-size="14" lengthAdjust="spacing" textLength="81" x="1268" y="689.6895">_path: String</text><line style="stroke:#181818;stroke-width:0.5;" x1="1249" x2="1419" y1="697.2031" y2="697.2031"/><ellipse cx="1259" cy="712.0137" fill="#84BE84" rx="3" ry="3" style="stroke:#038048;stroke-width:1.0;"/><text fill="#000000" font-family="sans-serif" font-size="14" lengthAdjust="spacing" textLength="146" x="1268" y="716.3105">ModelPath(String path)</text><ellipse cx="1259" cy="730.6348" fill="#84BE84" rx="3" ry="3" style="stroke:#038048;stroke-width:1.0;"/><text fill="#000000" font-family="sans-serif" font-size="14" lengthAdjust="spacing" textLength="108" x="1268" y="734.9316">getPath() : String</text></g><!--class DeviceID--><g id="elem_DeviceID"><rect codeLine="72" fill="#F1F1F1" height="116.4453" id="DeviceID" rx="2.5" ry="2.5" style="stroke:#181818;stroke-width:0.5;" width="144" x="814" y="626"/><ellipse cx="849.25" cy="648.291" fill="#ADD1B2" rx="11" ry="11" style="stroke:#181818;stroke-width:1.0;"/><path d="M852.0156,644.166 Q852.1719,643.9473 852.3594,643.8379 Q852.5469,643.7285 852.7656,643.7285 Q853.1406,643.7285 853.375,643.9941 Q853.6094,644.2441 853.6094,644.8535 L853.6094,646.3066 Q853.6094,646.916 853.375,647.1816 Q853.1406,647.4473 852.7656,647.4473 Q852.4219,647.4473 852.2188,647.2441 Q852.0156,647.0566 851.9063,646.541 Q851.8594,646.1816 851.6719,645.9941 Q851.3438,645.6191 850.7344,645.4004 Q850.125,645.1816 849.5,645.1816 Q848.7344,645.1816 848.0938,645.5098 Q847.4688,645.8379 846.9688,646.5879 Q846.4844,647.3379 846.4844,648.3691 L846.4844,649.4629 Q846.4844,650.6973 847.375,651.5254 Q848.2656,652.3379 849.8594,652.3379 Q850.7969,652.3379 851.4531,652.0879 Q851.8438,651.9316 852.2656,651.4941 Q852.5313,651.2285 852.6719,651.1504 Q852.8281,651.0723 853.0313,651.0723 Q853.3594,651.0723 853.6094,651.3379 Q853.875,651.5879 853.875,651.9316 Q853.875,652.2754 853.5313,652.6816 Q853.0313,653.2598 852.2344,653.5879 Q851.1563,654.041 849.8594,654.041 Q848.3438,654.041 847.1406,653.416 Q846.1563,652.916 845.4688,651.8535 Q844.7813,650.7754 844.7813,649.4941 L844.7813,648.3379 Q844.7813,647.0098 845.3906,645.8691 Q846.0156,644.7129 847.1094,644.1035 Q848.2031,643.4785 849.4375,643.4785 Q850.1719,643.4785 850.8125,643.6504 Q851.4688,643.8066 852.0156,644.166 Z " fill="#000000"/><text fill="#000000" font-family="sans-serif" font-size="12" font-style="italic" lengthAdjust="spacing" textLength="71" x="865.75" y="643.9492">&#171;DomainID&#187;</text><text fill="#000000" font-family="sans-serif" font-size="14" lengthAdjust="spacing" textLength="56" x="873.25" y="662.0684">DeviceID</text><line style="stroke:#181818;stroke-width:0.5;" x1="815" x2="957" y1="670.582" y2="670.582"/><rect fill="none" height="6" style="stroke:#C82930;stroke-width:1.0;" width="6" x="822" y="682.3926"/><text fill="#000000" font-family="sans-serif" font-size="14" lengthAdjust="spacing" textLength="64" x="834" y="689.6895">_id: String</text><line style="stroke:#181818;stroke-width:0.5;" x1="815" x2="957" y1="697.2031" y2="697.2031"/><ellipse cx="825" cy="712.0137" fill="#84BE84" rx="3" ry="3" style="stroke:#038048;stroke-width:1.0;"/><text fill="#000000" font-family="sans-serif" font-size="14" lengthAdjust="spacing" textLength="118" x="834" y="716.3105">DeviceID(String id)</text><ellipse cx="825" cy="730.6348" fill="#84BE84" rx="3" ry="3" style="stroke:#038048;stroke-width:1.0;"/><text fill="#000000" font-family="sans-serif" font-size="14" lengthAdjust="spacing" textLength="92" x="834" y="734.9316">getID() : String</text></g><!--class DomainEntity--><g id="elem_DomainEntity"><rect codeLine="82" fill="#F1F1F1" height="48" id="DomainEntity" rx="2.5" ry="2.5" style="stroke:#181818;stroke-width:0.5;" width="115" x="1144.5" y="914"/><ellipse cx="1159.5" cy="930" fill="#B4A7E5" rx="11" ry="11" style="stroke:#181818;stroke-width:1.0;"/><path d="M1160.4531,926.6406 L1160.4531,933.2969 L1162.1719,933.2969 Q1162.7813,933.2969 1163.0469,933.5313 Q1163.3125,933.7656 1163.3125,934.1563 Q1163.3125,934.5313 1163.0469,934.7656 Q1162.7813,935 1162.1719,935 L1157.0313,935 Q1156.4219,935 1156.1563,934.7656 Q1155.8906,934.5313 1155.8906,934.1406 Q1155.8906,933.7656 1156.1563,933.5313 Q1156.4219,933.2969 1157.0313,933.2969 L1158.75,933.2969 L1158.75,926.6406 L1157.0313,926.6406 Q1156.4219,926.6406 1156.1563,926.4063 Q1155.8906,926.1719 1155.8906,925.7813 Q1155.8906,925.4063 1156.1563,925.1719 Q1156.4219,924.9375 1157.0313,924.9375 L1162.1719,924.9375 Q1162.7813,924.9375 1163.0469,925.1719 Q1163.3125,925.4063 1163.3125,925.7813 Q1163.3125,926.1719 1163.0469,926.4063 Q1162.7813,926.6406 1162.1719,926.6406 L1160.4531,926.6406 Z " fill="#000000"/><text fill="#000000" font-family="sans-serif" font-size="14" font-style="italic" lengthAdjust="spacing" textLength="83" x="1173.5" y="935.7969">DomainEntity</text><line style="stroke:#181818;stroke-width:0.5;" x1="1145.5" x2="1258.5" y1="946" y2="946"/><line style="stroke:#181818;stroke-width:0.5;" x1="1145.5" x2="1258.5" y1="954" y2="954"/></g><!--class DomainID--><g id="elem_DomainID"><rect codeLine="85" fill="#F1F1F1" height="48" id="DomainID" rx="2.5" ry="2.5" style="stroke:#181818;stroke-width:0.5;" width="94" x="1146" y="999"/><ellipse cx="1161" cy="1015" fill="#B4A7E5" rx="11" ry="11" style="stroke:#181818;stroke-width:1.0;"/><path d="M1161.9531,1011.6406 L1161.9531,1018.2969 L1163.6719,1018.2969 Q1164.2813,1018.2969 1164.5469,1018.5313 Q1164.8125,1018.7656 1164.8125,1019.1563 Q1164.8125,1019.5313 1164.5469,1019.7656 Q1164.2813,1020 1163.6719,1020 L1158.5313,1020 Q1157.9219,1020 1157.6563,1019.7656 Q1157.3906,1019.5313 1157.3906,1019.1406 Q1157.3906,1018.7656 1157.6563,1018.5313 Q1157.9219,1018.2969 1158.5313,1018.2969 L1160.25,1018.2969 L1160.25,1011.6406 L1158.5313,1011.6406 Q1157.9219,1011.6406 1157.6563,1011.4063 Q1157.3906,1011.1719 1157.3906,1010.7813 Q1157.3906,1010.4063 1157.6563,1010.1719 Q1157.9219,1009.9375 1158.5313,1009.9375 L1163.6719,1009.9375 Q1164.2813,1009.9375 1164.5469,1010.1719 Q1164.8125,1010.4063 1164.8125,1010.7813 Q1164.8125,1011.1719 1164.5469,1011.4063 Q1164.2813,1011.6406 1163.6719,1011.6406 L1161.9531,1011.6406 Z " fill="#000000"/><text fill="#000000" font-family="sans-serif" font-size="14" font-style="italic" lengthAdjust="spacing" textLength="62" x="1175" y="1020.7969">DomainID</text><line style="stroke:#181818;stroke-width:0.5;" x1="1147" x2="1239" y1="1031" y2="1031"/><line style="stroke:#181818;stroke-width:0.5;" x1="1147" x2="1239" y1="1039" y2="1039"/></g><!--class AggregateRoot--><g id="elem_AggregateRoot"><rect codeLine="88" fill="#F1F1F1" height="48" id="AggregateRoot" rx="2.5" ry="2.5" style="stroke:#181818;stroke-width:0.5;" width="128" x="1142" y="829"/><ellipse cx="1157" cy="845" fill="#B4A7E5" rx="11" ry="11" style="stroke:#181818;stroke-width:1.0;"/><path d="M1157.9531,841.6406 L1157.9531,848.2969 L1159.6719,848.2969 Q1160.2813,848.2969 1160.5469,848.5313 Q1160.8125,848.7656 1160.8125,849.1563 Q1160.8125,849.5313 1160.5469,849.7656 Q1160.2813,850 1159.6719,850 L1154.5313,850 Q1153.9219,850 1153.6563,849.7656 Q1153.3906,849.5313 1153.3906,849.1406 Q1153.3906,848.7656 1153.6563,848.5313 Q1153.9219,848.2969 1154.5313,848.2969 L1156.25,848.2969 L1156.25,841.6406 L1154.5313,841.6406 Q1153.9219,841.6406 1153.6563,841.4063 Q1153.3906,841.1719 1153.3906,840.7813 Q1153.3906,840.4063 1153.6563,840.1719 Q1153.9219,839.9375 1154.5313,839.9375 L1159.6719,839.9375 Q1160.2813,839.9375 1160.5469,840.1719 Q1160.8125,840.4063 1160.8125,840.7813 Q1160.8125,841.1719 1160.5469,841.4063 Q1160.2813,841.6406 1159.6719,841.6406 L1157.9531,841.6406 Z " fill="#000000"/><text fill="#000000" font-family="sans-serif" font-size="14" font-style="italic" lengthAdjust="spacing" textLength="96" x="1171" y="850.7969">AggregateRoot</text><line style="stroke:#181818;stroke-width:0.5;" x1="1143" x2="1269" y1="861" y2="861"/><line style="stroke:#181818;stroke-width:0.5;" x1="1143" x2="1269" y1="869" y2="869"/></g><!--class ValueObject--><g id="elem_ValueObject"><rect codeLine="91" fill="#F1F1F1" height="48" id="ValueObject" rx="2.5" ry="2.5" style="stroke:#181818;stroke-width:0.5;" width="109" x="1142.5" y="1084"/><ellipse cx="1157.5" cy="1100" fill="#B4A7E5" rx="11" ry="11" style="stroke:#181818;stroke-width:1.0;"/><path d="M1158.4531,1096.6406 L1158.4531,1103.2969 L1160.1719,1103.2969 Q1160.7813,1103.2969 1161.0469,1103.5313 Q1161.3125,1103.7656 1161.3125,1104.1563 Q1161.3125,1104.5313 1161.0469,1104.7656 Q1160.7813,1105 1160.1719,1105 L1155.0313,1105 Q1154.4219,1105 1154.1563,1104.7656 Q1153.8906,1104.5313 1153.8906,1104.1406 Q1153.8906,1103.7656 1154.1563,1103.5313 Q1154.4219,1103.2969 1155.0313,1103.2969 L1156.75,1103.2969 L1156.75,1096.6406 L1155.0313,1096.6406 Q1154.4219,1096.6406 1154.1563,1096.4063 Q1153.8906,1096.1719 1153.8906,1095.7813 Q1153.8906,1095.4063 1154.1563,1095.1719 Q1154.4219,1094.9375 1155.0313,1094.9375 L1160.1719,1094.9375 Q1160.7813,1094.9375 1161.0469,1095.1719 Q1161.3125,1095.4063 1161.3125,1095.7813 Q1161.3125,1096.1719 1161.0469,1096.4063 Q1160.7813,1096.6406 1160.1719,1096.6406 L1158.4531,1096.6406 Z " fill="#000000"/><text fill="#000000" font-family="sans-serif" font-size="14" font-style="italic" lengthAdjust="spacing" textLength="77" x="1171.5" y="1105.7969">ValueObject</text><line style="stroke:#181818;stroke-width:0.5;" x1="1143.5" x2="1250.5" y1="1116" y2="1116"/><line style="stroke:#181818;stroke-width:0.5;" x1="1143.5" x2="1250.5" y1="1124" y2="1124"/></g><polygon fill="none" points="172.4003,337.6524,185.2185,323.6634,174.2614,318.7703,172.4003,337.6524" style="stroke:#181818;stroke-width:1.0;"/><path d="M447.98,111.6624 C395.8839,122.6214 337.4673,141.4962 292,174 C232.8519,216.284 199.3822,277.2321 179.7399,321.2168 " fill="none" style="stroke:#181818;stroke-width:1.0;stroke-dasharray:7.0,7.0;"/><polygon fill="#181818" points="738.8992,202.8798,733.5742,194.5947,734.7206,200.1341,729.1811,201.2805,738.8992,202.8798" style="stroke:#181818;stroke-width:1.0;"/><path d="M626.4729,129.0074 C656.0293,148.4281 691.0683,171.4513 733.8848,199.585 " fill="none" style="stroke:#181818;stroke-width:1.0;stroke-dasharray:7.0,7.0;"/><text fill="#000000" font-family="sans-serif" font-size="13" lengthAdjust="spacing" textLength="43" x="678" y="162.0283">creates</text><text fill="#000000" font-family="sans-serif" font-size="13" lengthAdjust="spacing" textLength="7" x="730.8992" y="198.9081">1</text><text fill="#000000" font-family="sans-serif" font-size="13" lengthAdjust="spacing" textLength="7" x="618.4729" y="144.0357">1</text><polygon fill="none" points="1601.7599,598.0473,1588.768,584.2195,1583.0697,594.7802,1601.7599,598.0473" style="stroke:#181818;stroke-width:1.0;"/><path d="M1394.696,504.7033 C1463.1343,531.755 1532.563,562.1224 1596,595 C1597.9154,595.9927 1583.995,588.4618 1585.9188,589.4999 " fill="none" style="stroke:#181818;stroke-width:1.0;stroke-dasharray:7.0,7.0;"/><polygon fill="#181818" points="718.1482,625.9083,727.4821,622.7654,721.8303,622.5257,722.07,616.8739,718.1482,625.9083" style="stroke:#181818;stroke-width:1.0;"/><path d="M811.6442,540.0191 C777.9696,570.954 749.4252,597.176 722.5668,621.8492 " fill="none" style="stroke:#181818;stroke-width:1.0;"/><text fill="#000000" font-family="sans-serif" font-size="13" lengthAdjust="spacing" textLength="21" x="785" y="573.0283">has</text><text fill="#000000" font-family="sans-serif" font-size="13" lengthAdjust="spacing" textLength="7" x="710.1482" y="621.9366">1</text><text fill="#000000" font-family="sans-serif" font-size="13" lengthAdjust="spacing" textLength="7" x="812.6442" y="555.0475">1</text><polygon fill="#181818" points="1082.9581,625.9083,1083.7513,616.0914,1081.302,621.1905,1076.2029,618.7412,1082.9581,625.9083" style="stroke:#181818;stroke-width:1.0;"/><path d="M1052.807,540.0191 C1063.6666,570.954 1072.3093,595.5738 1080.9708,620.247 " fill="none" style="stroke:#181818;stroke-width:1.0;"/><text fill="#000000" font-family="sans-serif" font-size="13" lengthAdjust="spacing" textLength="21" x="1065" y="573.0283">has</text><text fill="#000000" font-family="sans-serif" font-size="13" lengthAdjust="spacing" textLength="7" x="1074.9581" y="621.9366">1</text><text fill="#000000" font-family="sans-serif" font-size="13" lengthAdjust="spacing" textLength="7" x="1044.807" y="555.0475">1</text><polygon fill="#181818" points="1272.5028,625.8698,1268.611,616.8225,1268.8319,622.475,1263.1794,622.6959,1272.5028,625.8698" style="stroke:#181818;stroke-width:1.0;"/><path d="M1179.1219,540.2667 C1199.3548,558.7082 1219.6277,577.2318 1239,595 C1249.8521,604.9536 1256.965,611.5008 1268.0977,621.7961 " fill="none" style="stroke:#181818;stroke-width:1.0;"/><text fill="#000000" font-family="sans-serif" font-size="13" lengthAdjust="spacing" textLength="21" x="1220" y="573.0283">has</text><text fill="#000000" font-family="sans-serif" font-size="13" lengthAdjust="spacing" textLength="7" x="1264.5028" y="621.8981">1</text><text fill="#000000" font-family="sans-serif" font-size="13" lengthAdjust="spacing" textLength="7" x="1171.1219" y="555.295">1</text><polygon fill="#181818" points="464.2452,625.9306,473.7641,623.4026,468.1399,622.7951,468.7474,617.171,464.2452,625.9306" style="stroke:#181818;stroke-width:1.0;"/><path d="M602.6823,540.0335 C569.723,557.5095 537.406,575.9065 507,595 C492.5173,604.0945 482.5295,611.2109 468.9189,622.1681 " fill="none" style="stroke:#181818;stroke-width:1.0;"/><text fill="#000000" font-family="sans-serif" font-size="13" lengthAdjust="spacing" textLength="21" x="571" y="573.0283">has</text><text fill="#000000" font-family="sans-serif" font-size="13" lengthAdjust="spacing" textLength="7" x="456.2452" y="621.9589">1</text><text fill="#000000" font-family="sans-serif" font-size="13" lengthAdjust="spacing" textLength="7" x="594.6823" y="555.0618">1</text><polygon fill="#181818" points="1462.9613,625.5494,1459.5614,616.306,1459.4782,621.9623,1453.8219,621.879,1462.9613,625.5494" style="stroke:#181818;stroke-width:1.0;"/><path d="M1347.9711,540.0109 C1376.1492,557.3826 1403.5293,575.7678 1429,595 C1440.8324,603.9343 1448.2291,610.3771 1458.7816,621.2448 " fill="none" style="stroke:#181818;stroke-width:1.0;"/><text fill="#000000" font-family="sans-serif" font-size="13" lengthAdjust="spacing" textLength="21" x="1397" y="573.0283">has</text><text fill="#000000" font-family="sans-serif" font-size="13" lengthAdjust="spacing" textLength="7" x="1454.9613" y="621.5778">1</text><text fill="#000000" font-family="sans-serif" font-size="13" lengthAdjust="spacing" textLength="7" x="1339.9711" y="555.0392">1</text><polygon fill="#181818" points="905.858,625.9083,912.5927,618.7219,907.5006,621.1858,905.0367,616.0937,905.858,625.9083" style="stroke:#181818;stroke-width:1.0;"/><path d="M935.7325,540.0191 C924.9725,570.954 916.4111,595.5681 907.8291,620.2413 " fill="none" style="stroke:#181818;stroke-width:1.0;"/><text fill="#000000" font-family="sans-serif" font-size="13" lengthAdjust="spacing" textLength="21" x="928" y="573.0283">has</text><text fill="#000000" font-family="sans-serif" font-size="13" lengthAdjust="spacing" textLength="7" x="897.858" y="621.9366">1</text><text fill="#000000" font-family="sans-serif" font-size="13" lengthAdjust="spacing" textLength="7" x="927.7325" y="555.0475">1</text><polygon fill="none" points="1142.3474,1107.8641,1124.3282,1101.9219,1124.3668,1113.9218,1142.3474,1107.8641" style="stroke:#181818;stroke-width:1.0;"/><path d="M714.5806,742.1819 C739.0956,772.1764 762,811.135 762,852 C762,852 762,852 762,1024 C762,1100.595 1007.5155,1108.2968 1124.3475,1107.9219 " fill="none" style="stroke:#181818;stroke-width:1.0;stroke-dasharray:7.0,7.0;"/><polygon fill="none" points="1142.3562,1105.4449,1124.5652,1098.8511,1124.1671,1110.8445,1142.3562,1105.4449" style="stroke:#181818;stroke-width:1.0;"/><path d="M463.7031,742.2835 C512.5064,787.473 572,844.1676 572,852 C572,852 572,852 572,1024 C572,1081.2952 972.0806,1099.7929 1124.3661,1104.8478 " fill="none" style="stroke:#181818;stroke-width:1.0;stroke-dasharray:7.0,7.0;"/><polygon fill="none" points="1195.5248,998.716,1203.4302,981.4677,1191.5002,980.1741,1195.5248,998.716" style="stroke:#181818;stroke-width:1.0;"/><path d="M1199.493,962.1201 C1198.2551,973.5362 1198.7055,969.3827 1197.4652,980.8209 " fill="none" style="stroke:#181818;stroke-width:1.0;"/><polygon fill="none" points="1203.1221,913.716,1209.9816,896.0257,1197.9955,895.448,1203.1221,913.716" style="stroke:#181818;stroke-width:1.0;"/><path d="M1204.8858,877.1201 C1204.3356,888.5362 1204.5398,884.2986 1203.9886,895.7369 " fill="none" style="stroke:#181818;stroke-width:1.0;"/><polygon fill="none" points="1195.8779,1083.716,1201.0045,1065.448,1189.0184,1066.0257,1195.8779,1083.716" style="stroke:#181818;stroke-width:1.0;"/><path d="M1194.1142,1047.1201 C1194.6644,1058.5362 1194.4602,1054.2986 1195.0114,1065.7369 " fill="none" style="stroke:#181818;stroke-width:1.0;"/><polygon fill="none" points="1270.0693,849.3409,1288.428,854.1325,1287.6312,842.159,1270.0693,849.3409" style="stroke:#181818;stroke-width:1.0;"/><path d="M1612.3337,773.0652 C1606.9295,775.9436 1601.473,778.6096 1596,781 C1487.8381,828.2409 1367.5264,842.8557 1288.0296,848.1458 " fill="none" style="stroke:#181818;stroke-width:1.0;"/><polygon fill="none" points="1145.9008,1005.6433,1133.056,991.6786,1127.2462,1002.1784,1145.9008,1005.6433" style="stroke:#181818;stroke-width:1.0;"/><path d="M1090.4197,742.2063 C1079.762,805.6749 1072.5872,908.6577 1118,981 C1124.6274,991.5573 1119.2308,990.8859 1130.1511,996.9285 " fill="none" style="stroke:#181818;stroke-width:1.0;stroke-dasharray:7.0,7.0;"/><polygon fill="none" points="1224.7307,998.97,1242.6858,992.8369,1235.4149,983.2905,1224.7307,998.97" style="stroke:#181818;stroke-width:1.0;"/><path d="M1466.397,742.2093 C1419.9141,800.2885 1343.5754,891.4601 1269,962 C1255.1995,975.0537 1253.0941,977.3675 1239.0504,988.0637 " fill="none" style="stroke:#181818;stroke-width:1.0;stroke-dasharray:7.0,7.0;"/><polygon fill="none" points="1163.2974,998.8049,1154.3612,982.0674,1146.1059,990.7766,1163.2974,998.8049" style="stroke:#181818;stroke-width:1.0;"/><path d="M1288.8007,742.1121 C1274.3895,756.8912 1257.3678,771.344 1239,781 C1196.6354,803.2712 1163.7132,763.2921 1133,800 C1127.9313,806.058 1135.6083,961.0672 1136,962 C1141.896,976.0423 1139.6181,976.3598 1150.2336,986.422 " fill="none" style="stroke:#181818;stroke-width:1.0;stroke-dasharray:7.0,7.0;"/><polygon fill="none" points="1145.8597,1002.051,1132.4908,988.5873,1127.0863,999.3013,1145.8597,1002.051" style="stroke:#181818;stroke-width:1.0;"/><path d="M919.5008,742.0109 C955.9717,801.1681 1018.339,894.3284 1087,962 C1103.7929,978.5509 1109.9948,983.9597 1129.7886,993.9443 " fill="none" style="stroke:#181818;stroke-width:1.0;stroke-dasharray:7.0,7.0;"/><!--SRC=[hLRBRjim4BppAzYSRDGIqAjX22YW1l2X3pH1hWKZCOfIIHGeEe3HvjzBaHGV8lLmQbyiOOVBuUmiLnzQYeeQmGgToOd1hiOCDGY05cM_KO5XJcfKDl4TRZf2uHy0-Qzi6APFACFm5cMCqBCJxNyVOKOnOdZp_V45PooEOzWYYdXoJBlj7ie50lu6n5zMeQw3nxgjhfVJyFIIoOG5PiTqezSUKp_-ZMzW4FsRZ_bASbpzGEov1-eN7oTpt9zRREygttrqYb_BJ267Pn_rWAgJ82WUf3GZ52DtZ9PD8ROKJqgaNgTWdUDxNBUO8dQYM4jdbMa175X-EE26bUoS98V3Jq9OafXQHF1Nf_GFL497U-s3TT08gUI4hXnL3wK9LOd7SwLoG6yUVUq5taFlR49uowKUO3FDRWT3d7RGPxA3OHMsOC9YmPelsNx9ycliljxgopQVjxXpTHYst6mMqdQQgcGZDNHbaTkPB1iPXuqZyaWaEEeeZyynvMnIqIx7D42bp6U9S5aKZJBVXY-l6GfXgoxA8upEq-Raz5YDhxjmpet4Gh5qEtd_1BawUac7p6Zcj6kNqR9b9Mc28ex5L6vKWdQCfYR1Tc8b5tamCVGs6GwWpw2ROTq1Mj7siynDhodQ_PePih8jLr0TMcqTqmcRcgrr5q_OTS6saY8dEPv7UPxBqMDckQJxHOmJCT7VGd5-ia3iSr5GNF2FY7u6XG1MPwWm1_XV9N7yDt4_VWAWcqyt79Y8_yidvbvzxdG0NBvOy7ENAPgNv-hfHz4xZ_6Wxf9drFt7rkB1kI2kaj6qwnK9YWbqnNpNEgnkU9aDlBEKjhDuSyRsJ5vAQGaqbmOu7Hv573dqD70Rs8f9DD3DBq9Erb0xI9Z5myaFWEEvCMTDIXTg4c6SDWdHzPb4_0C0]--></g></svg>