<?xml version="1.0" encoding="us-ascii" standalone="no"?><svg xmlns="http://www.w3.org/2000/svg" xmlns:xlink="http://www.w3.org/1999/xlink" contentStyleType="text/css" height="657px" preserveAspectRatio="none" style="width:1367px;height:657px;background:#FFFFFF;" version="1.1" viewBox="0 0 1367 657" width="1367px" zoomAndPan="magnify"><defs/><g><!--cluster SmartHome--><g id="cluster_SmartHome"><path d="M16.5,4 L97.5,4 A3.75,3.75 0 0 1 100,6.5 L107,28.6211 L1357.5,28.6211 A2.5,2.5 0 0 1 1360,31.1211 L1360,647.5 A2.5,2.5 0 0 1 1357.5,650 L16.5,650 A2.5,2.5 0 0 1 14,647.5 L14,6.5 A2.5,2.5 0 0 1 16.5,4 " fill="none" style="stroke:#000000;stroke-width:1.5;"/><line style="stroke:#000000;stroke-width:1.5;" x1="14" x2="107" y1="28.6211" y2="28.6211"/><text fill="#000000" font-family="sans-serif" font-size="14" font-weight="bold" lengthAdjust="spacing" textLength="80" x="18" y="21.1074">SmartHome</text></g><!--cluster sensors--><g id="cluster_sensors"><path d="M121.5,33 L179.5,33 A3.75,3.75 0 0 1 182,35.5 L189,57.6211 L486.5,57.6211 A2.5,2.5 0 0 1 489,60.1211 L489,367.5 A2.5,2.5 0 0 1 486.5,370 L121.5,370 A2.5,2.5 0 0 1 119,367.5 L119,35.5 A2.5,2.5 0 0 1 121.5,33 " fill="none" style="stroke:#000000;stroke-width:1.5;"/><line style="stroke:#000000;stroke-width:1.5;" x1="119" x2="189" y1="57.6211" y2="57.6211"/><text fill="#000000" font-family="sans-serif" font-size="14" font-weight="bold" lengthAdjust="spacing" textLength="57" x="123" y="50.1074">sensors</text></g><!--cluster domain--><g id="cluster_domain"><path d="M24.5,389 L76.5,389 A3.75,3.75 0 0 1 79,391.5 L86,413.6211 L1349.5,413.6211 A2.5,2.5 0 0 1 1352,416.1211 L1352,639.5 A2.5,2.5 0 0 1 1349.5,642 L24.5,642 A2.5,2.5 0 0 1 22,639.5 L22,391.5 A2.5,2.5 0 0 1 24.5,389 " fill="none" style="stroke:#000000;stroke-width:1.5;"/><line style="stroke:#000000;stroke-width:1.5;" x1="22" x2="86" y1="413.6211" y2="413.6211"/><text fill="#000000" font-family="sans-serif" font-size="14" font-weight="bold" lengthAdjust="spacing" textLength="51" x="26" y="406.1074">domain</text></g><!--class SolarIrradianceSensor--><g id="elem_SolarIrradianceSensor"><rect codeLine="5" fill="#F1F1F1" height="141.1055" id="SolarIrradianceSensor" rx="2.5" ry="2.5" style="stroke:#181818;stroke-width:0.5;" width="353" x="127.5" y="62"/><ellipse cx="229.25" cy="78" fill="#ADD1B2" rx="11" ry="11" style="stroke:#181818;stroke-width:1.0;"/><path d="M232.0156,73.875 Q232.1719,73.6563 232.3594,73.5469 Q232.5469,73.4375 232.7656,73.4375 Q233.1406,73.4375 233.375,73.7031 Q233.6094,73.9531 233.6094,74.5625 L233.6094,76.0156 Q233.6094,76.625 233.375,76.8906 Q233.1406,77.1563 232.7656,77.1563 Q232.4219,77.1563 232.2188,76.9531 Q232.0156,76.7656 231.9063,76.25 Q231.8594,75.8906 231.6719,75.7031 Q231.3438,75.3281 230.7344,75.1094 Q230.125,74.8906 229.5,74.8906 Q228.7344,74.8906 228.0938,75.2188 Q227.4688,75.5469 226.9688,76.2969 Q226.4844,77.0469 226.4844,78.0781 L226.4844,79.1719 Q226.4844,80.4063 227.375,81.2344 Q228.2656,82.0469 229.8594,82.0469 Q230.7969,82.0469 231.4531,81.7969 Q231.8438,81.6406 232.2656,81.2031 Q232.5313,80.9375 232.6719,80.8594 Q232.8281,80.7813 233.0313,80.7813 Q233.3594,80.7813 233.6094,81.0469 Q233.875,81.2969 233.875,81.6406 Q233.875,81.9844 233.5313,82.3906 Q233.0313,82.9688 232.2344,83.2969 Q231.1563,83.75 229.8594,83.75 Q228.3438,83.75 227.1406,83.125 Q226.1563,82.625 225.4688,81.5625 Q224.7813,80.4844 224.7813,79.2031 L224.7813,78.0469 Q224.7813,76.7188 225.3906,75.5781 Q226.0156,74.4219 227.1094,73.8125 Q228.2031,73.1875 229.4375,73.1875 Q230.1719,73.1875 230.8125,73.3594 Q231.4688,73.5156 232.0156,73.875 Z " fill="#000000"/><text fill="#000000" font-family="sans-serif" font-size="14" lengthAdjust="spacing" textLength="141" x="249.75" y="83.7969">SolarIrradianceSensor</text><line style="stroke:#181818;stroke-width:0.5;" x1="128.5" x2="479.5" y1="94" y2="94"/><rect fill="none" height="6" style="stroke:#C82930;stroke-width:1.0;" width="6" x="135.5" y="105.8105"/><text fill="#000000" font-family="sans-serif" font-size="14" lengthAdjust="spacing" textLength="168" x="147.5" y="113.1074">_sensorType: SensorType</text><rect fill="none" height="6" style="stroke:#C82930;stroke-width:1.0;" width="6" x="135.5" y="124.4316"/><text fill="#000000" font-family="sans-serif" font-size="14" lengthAdjust="spacing" textLength="179" x="147.5" y="131.7285">_value: SetIrradianceSensor</text><line style="stroke:#181818;stroke-width:0.5;" x1="128.5" x2="479.5" y1="139.2422" y2="139.2422"/><ellipse cx="138.5" cy="154.0527" fill="#84BE84" rx="3" ry="3" style="stroke:#038048;stroke-width:1.0;"/><text fill="#000000" font-family="sans-serif" font-size="14" lengthAdjust="spacing" textLength="327" x="147.5" y="158.3496">SolarIrradianceSensor(CatalogueSensor catalogue)</text><ellipse cx="138.5" cy="172.6738" fill="#84BE84" rx="3" ry="3" style="stroke:#038048;stroke-width:1.0;"/><text fill="#000000" font-family="sans-serif" font-size="14" lengthAdjust="spacing" textLength="200" x="147.5" y="176.9707">getSensorType(): ActuatorType</text><ellipse cx="138.5" cy="191.2949" fill="#84BE84" rx="3" ry="3" style="stroke:#038048;stroke-width:1.0;"/><text fill="#000000" font-family="sans-serif" font-size="14" lengthAdjust="spacing" textLength="110" x="147.5" y="195.5918">getValue(): Value</text></g><!--class SolarIrradianceValue--><g id="elem_SolarIrradianceValue"><rect codeLine="14" fill="#F1F1F1" height="103.8633" id="SolarIrradianceValue" rx="2.5" ry="2.5" style="stroke:#181818;stroke-width:0.5;" width="221" x="127.5" y="258"/><ellipse cx="168.15" cy="274" fill="#ADD1B2" rx="11" ry="11" style="stroke:#181818;stroke-width:1.0;"/><path d="M170.9156,269.875 Q171.0719,269.6563 171.2594,269.5469 Q171.4469,269.4375 171.6656,269.4375 Q172.0406,269.4375 172.275,269.7031 Q172.5094,269.9531 172.5094,270.5625 L172.5094,272.0156 Q172.5094,272.625 172.275,272.8906 Q172.0406,273.1563 171.6656,273.1563 Q171.3219,273.1563 171.1188,272.9531 Q170.9156,272.7656 170.8063,272.25 Q170.7594,271.8906 170.5719,271.7031 Q170.2438,271.3281 169.6344,271.1094 Q169.025,270.8906 168.4,270.8906 Q167.6344,270.8906 166.9938,271.2188 Q166.3688,271.5469 165.8688,272.2969 Q165.3844,273.0469 165.3844,274.0781 L165.3844,275.1719 Q165.3844,276.4063 166.275,277.2344 Q167.1656,278.0469 168.7594,278.0469 Q169.6969,278.0469 170.3531,277.7969 Q170.7438,277.6406 171.1656,277.2031 Q171.4313,276.9375 171.5719,276.8594 Q171.7281,276.7813 171.9313,276.7813 Q172.2594,276.7813 172.5094,277.0469 Q172.775,277.2969 172.775,277.6406 Q172.775,277.9844 172.4313,278.3906 Q171.9313,278.9688 171.1344,279.2969 Q170.0563,279.75 168.7594,279.75 Q167.2438,279.75 166.0406,279.125 Q165.0563,278.625 164.3688,277.5625 Q163.6813,276.4844 163.6813,275.2031 L163.6813,274.0469 Q163.6813,272.7188 164.2906,271.5781 Q164.9156,270.4219 166.0094,269.8125 Q167.1031,269.1875 168.3375,269.1875 Q169.0719,269.1875 169.7125,269.3594 Q170.3688,269.5156 170.9156,269.875 Z " fill="#000000"/><text fill="#000000" font-family="sans-serif" font-size="14" lengthAdjust="spacing" textLength="132" x="187.85" y="279.7969">SolarIrradianceValue</text><line style="stroke:#181818;stroke-width:0.5;" x1="128.5" x2="347.5" y1="290" y2="290"/><rect fill="none" height="6" style="stroke:#C82930;stroke-width:1.0;" width="6" x="135.5" y="301.8105"/><text fill="#000000" font-family="sans-serif" font-size="14" lengthAdjust="spacing" textLength="69" x="147.5" y="309.1074">_value : int</text><line style="stroke:#181818;stroke-width:0.5;" x1="128.5" x2="347.5" y1="316.6211" y2="316.6211"/><ellipse cx="138.5" cy="331.4316" fill="#84BE84" rx="3" ry="3" style="stroke:#038048;stroke-width:1.0;"/><text fill="#000000" font-family="sans-serif" font-size="14" lengthAdjust="spacing" textLength="195" x="147.5" y="335.7285">SolarIrradianceValue(int value)</text><ellipse cx="138.5" cy="350.0527" fill="#84BE84" rx="3" ry="3" style="stroke:#038048;stroke-width:1.0;"/><text fill="#000000" font-family="sans-serif" font-size="14" lengthAdjust="spacing" textLength="108" x="147.5" y="354.3496">toString() : String</text></g><!--class Sensor--><g id="elem_Sensor"><rect codeLine="24" fill="#F1F1F1" height="85.2422" id="Sensor" rx="2.5" ry="2.5" style="stroke:#181818;stroke-width:0.5;" width="218" x="116" y="483.5"/><ellipse cx="198.25" cy="499.5" fill="#B4A7E5" rx="11" ry="11" style="stroke:#181818;stroke-width:1.0;"/><path d="M199.2031,496.1406 L199.2031,502.7969 L200.9219,502.7969 Q201.5313,502.7969 201.7969,503.0313 Q202.0625,503.2656 202.0625,503.6563 Q202.0625,504.0313 201.7969,504.2656 Q201.5313,504.5 200.9219,504.5 L195.7813,504.5 Q195.1719,504.5 194.9063,504.2656 Q194.6406,504.0313 194.6406,503.6406 Q194.6406,503.2656 194.9063,503.0313 Q195.1719,502.7969 195.7813,502.7969 L197.5,502.7969 L197.5,496.1406 L195.7813,496.1406 Q195.1719,496.1406 194.9063,495.9063 Q194.6406,495.6719 194.6406,495.2813 Q194.6406,494.9063 194.9063,494.6719 Q195.1719,494.4375 195.7813,494.4375 L200.9219,494.4375 Q201.5313,494.4375 201.7969,494.6719 Q202.0625,494.9063 202.0625,495.2813 Q202.0625,495.6719 201.7969,495.9063 Q201.5313,496.1406 200.9219,496.1406 L199.2031,496.1406 Z " fill="#000000"/><text fill="#000000" font-family="sans-serif" font-size="14" font-style="italic" lengthAdjust="spacing" textLength="45" x="218.75" y="505.2969">Sensor</text><line style="stroke:#181818;stroke-width:0.5;" x1="117" x2="333" y1="515.5" y2="515.5"/><line style="stroke:#181818;stroke-width:0.5;" x1="117" x2="333" y1="523.5" y2="523.5"/><ellipse cx="127" cy="538.3105" fill="#84BE84" rx="3" ry="3" style="stroke:#038048;stroke-width:1.0;"/><text fill="#000000" font-family="sans-serif" font-size="14" lengthAdjust="spacing" textLength="192" x="136" y="542.6074">getSensorType(): SensorType</text><ellipse cx="127" cy="556.9316" fill="#84BE84" rx="3" ry="3" style="stroke:#038048;stroke-width:1.0;"/><text fill="#000000" font-family="sans-serif" font-size="14" lengthAdjust="spacing" textLength="110" x="136" y="561.2285">getValue(): Value</text></g><!--class Value--><g id="elem_Value"><rect codeLine="29" fill="#F1F1F1" height="48" id="Value" rx="2.5" ry="2.5" style="stroke:#181818;stroke-width:0.5;" width="68" x="30" y="502"/><ellipse cx="45" cy="518" fill="#B4A7E5" rx="11" ry="11" style="stroke:#181818;stroke-width:1.0;"/><path d="M45.9531,514.6406 L45.9531,521.2969 L47.6719,521.2969 Q48.2813,521.2969 48.5469,521.5313 Q48.8125,521.7656 48.8125,522.1563 Q48.8125,522.5313 48.5469,522.7656 Q48.2813,523 47.6719,523 L42.5313,523 Q41.9219,523 41.6563,522.7656 Q41.3906,522.5313 41.3906,522.1406 Q41.3906,521.7656 41.6563,521.5313 Q41.9219,521.2969 42.5313,521.2969 L44.25,521.2969 L44.25,514.6406 L42.5313,514.6406 Q41.9219,514.6406 41.6563,514.4063 Q41.3906,514.1719 41.3906,513.7813 Q41.3906,513.4063 41.6563,513.1719 Q41.9219,512.9375 42.5313,512.9375 L47.6719,512.9375 Q48.2813,512.9375 48.5469,513.1719 Q48.8125,513.4063 48.8125,513.7813 Q48.8125,514.1719 48.5469,514.4063 Q48.2813,514.6406 47.6719,514.6406 L45.9531,514.6406 Z " fill="#000000"/><text fill="#000000" font-family="sans-serif" font-size="14" font-style="italic" lengthAdjust="spacing" textLength="36" x="59" y="523.7969">Value</text><line style="stroke:#181818;stroke-width:0.5;" x1="31" x2="97" y1="534" y2="534"/><line style="stroke:#181818;stroke-width:0.5;" x1="31" x2="97" y1="542" y2="542"/></g><!--class SensorType--><g id="elem_SensorType"><rect codeLine="32" fill="#F1F1F1" height="141.1055" id="SensorType" rx="2.5" ry="2.5" style="stroke:#181818;stroke-width:0.5;" width="300" x="352" y="455.5"/><ellipse cx="459.25" cy="471.5" fill="#ADD1B2" rx="11" ry="11" style="stroke:#181818;stroke-width:1.0;"/><path d="M462.0156,467.375 Q462.1719,467.1563 462.3594,467.0469 Q462.5469,466.9375 462.7656,466.9375 Q463.1406,466.9375 463.375,467.2031 Q463.6094,467.4531 463.6094,468.0625 L463.6094,469.5156 Q463.6094,470.125 463.375,470.3906 Q463.1406,470.6563 462.7656,470.6563 Q462.4219,470.6563 462.2188,470.4531 Q462.0156,470.2656 461.9063,469.75 Q461.8594,469.3906 461.6719,469.2031 Q461.3438,468.8281 460.7344,468.6094 Q460.125,468.3906 459.5,468.3906 Q458.7344,468.3906 458.0938,468.7188 Q457.4688,469.0469 456.9688,469.7969 Q456.4844,470.5469 456.4844,471.5781 L456.4844,472.6719 Q456.4844,473.9063 457.375,474.7344 Q458.2656,475.5469 459.8594,475.5469 Q460.7969,475.5469 461.4531,475.2969 Q461.8438,475.1406 462.2656,474.7031 Q462.5313,474.4375 462.6719,474.3594 Q462.8281,474.2813 463.0313,474.2813 Q463.3594,474.2813 463.6094,474.5469 Q463.875,474.7969 463.875,475.1406 Q463.875,475.4844 463.5313,475.8906 Q463.0313,476.4688 462.2344,476.7969 Q461.1563,477.25 459.8594,477.25 Q458.3438,477.25 457.1406,476.625 Q456.1563,476.125 455.4688,475.0625 Q454.7813,473.9844 454.7813,472.7031 L454.7813,471.5469 Q454.7813,470.2188 455.3906,469.0781 Q456.0156,467.9219 457.1094,467.3125 Q458.2031,466.6875 459.4375,466.6875 Q460.1719,466.6875 460.8125,466.8594 Q461.4688,467.0156 462.0156,467.375 Z " fill="#000000"/><text fill="#000000" font-family="sans-serif" font-size="14" lengthAdjust="spacing" textLength="77" x="479.75" y="477.2969">SensorType</text><line style="stroke:#181818;stroke-width:0.5;" x1="353" x2="651" y1="487.5" y2="487.5"/><rect fill="none" height="6" style="stroke:#C82930;stroke-width:1.0;" width="6" x="360" y="499.3105"/><text fill="#000000" font-family="sans-serif" font-size="14" lengthAdjust="spacing" textLength="122" x="372" y="506.6074">_description: String</text><rect fill="none" height="6" style="stroke:#C82930;stroke-width:1.0;" width="6" x="360" y="517.9316"/><text fill="#000000" font-family="sans-serif" font-size="14" lengthAdjust="spacing" textLength="63" x="372" y="525.2285">_unit: Unit</text><line style="stroke:#181818;stroke-width:0.5;" x1="353" x2="651" y1="532.7422" y2="532.7422"/><polygon fill="#FFFF44" points="363,542.5527,367,546.5527,363,550.5527,359,546.5527" style="stroke:#B38D22;stroke-width:1.0;"/><text fill="#000000" font-family="sans-serif" font-size="14" lengthAdjust="spacing" textLength="274" x="372" y="551.8496">SensorType(String strDescription, Unit unit)</text><ellipse cx="363" cy="566.1738" fill="#84BE84" rx="3" ry="3" style="stroke:#038048;stroke-width:1.0;"/><text fill="#000000" font-family="sans-serif" font-size="14" lengthAdjust="spacing" textLength="150" x="372" y="570.4707">getDescription() : String</text><ellipse cx="363" cy="584.7949" fill="#84BE84" rx="3" ry="3" style="stroke:#038048;stroke-width:1.0;"/><text fill="#000000" font-family="sans-serif" font-size="14" lengthAdjust="spacing" textLength="90" x="372" y="589.0918">getUnit() : Unit</text></g><!--class CatalogueSensor--><g id="elem_CatalogueSensor"><rect codeLine="40" fill="#F1F1F1" height="215.5898" id="CatalogueSensor" rx="2.5" ry="2.5" style="stroke:#181818;stroke-width:0.5;" width="673" x="670.5" y="418"/><ellipse cx="947.75" cy="434" fill="#ADD1B2" rx="11" ry="11" style="stroke:#181818;stroke-width:1.0;"/><path d="M950.5156,429.875 Q950.6719,429.6563 950.8594,429.5469 Q951.0469,429.4375 951.2656,429.4375 Q951.6406,429.4375 951.875,429.7031 Q952.1094,429.9531 952.1094,430.5625 L952.1094,432.0156 Q952.1094,432.625 951.875,432.8906 Q951.6406,433.1563 951.2656,433.1563 Q950.9219,433.1563 950.7188,432.9531 Q950.5156,432.7656 950.4063,432.25 Q950.3594,431.8906 950.1719,431.7031 Q949.8438,431.3281 949.2344,431.1094 Q948.625,430.8906 948,430.8906 Q947.2344,430.8906 946.5938,431.2188 Q945.9688,431.5469 945.4688,432.2969 Q944.9844,433.0469 944.9844,434.0781 L944.9844,435.1719 Q944.9844,436.4063 945.875,437.2344 Q946.7656,438.0469 948.3594,438.0469 Q949.2969,438.0469 949.9531,437.7969 Q950.3438,437.6406 950.7656,437.2031 Q951.0313,436.9375 951.1719,436.8594 Q951.3281,436.7813 951.5313,436.7813 Q951.8594,436.7813 952.1094,437.0469 Q952.375,437.2969 952.375,437.6406 Q952.375,437.9844 952.0313,438.3906 Q951.5313,438.9688 950.7344,439.2969 Q949.6563,439.75 948.3594,439.75 Q946.8438,439.75 945.6406,439.125 Q944.6563,438.625 943.9688,437.5625 Q943.2813,436.4844 943.2813,435.2031 L943.2813,434.0469 Q943.2813,432.7188 943.8906,431.5781 Q944.5156,430.4219 945.6094,429.8125 Q946.7031,429.1875 947.9375,429.1875 Q948.6719,429.1875 949.3125,429.3594 Q949.9688,429.5156 950.5156,429.875 Z " fill="#000000"/><text fill="#000000" font-family="sans-serif" font-size="14" lengthAdjust="spacing" textLength="110" x="968.25" y="439.7969">CatalogueSensor</text><line style="stroke:#181818;stroke-width:0.5;" x1="671.5" x2="1342.5" y1="450" y2="450"/><rect fill="none" height="6" style="stroke:#C82930;stroke-width:1.0;" width="6" x="678.5" y="461.8105"/><text fill="#000000" font-family="sans-serif" font-size="14" lengthAdjust="spacing" textLength="232" x="690.5" y="469.1074">_listSensorTypes: List&lt;SensorType&gt;</text><rect fill="none" height="6" style="stroke:#C82930;stroke-width:1.0;" width="6" x="678.5" y="480.4316"/><text fill="#000000" font-family="sans-serif" font-size="14" lengthAdjust="spacing" textLength="244" x="690.5" y="487.7285">_listStringClassesSensor : List&lt;String&gt;</text><line style="stroke:#181818;stroke-width:0.5;" x1="671.5" x2="1342.5" y1="495.2422" y2="495.2422"/><ellipse cx="681.5" cy="510.0527" fill="#84BE84" rx="3" ry="3" style="stroke:#038048;stroke-width:1.0;"/><text fill="#000000" font-family="sans-serif" font-size="14" lengthAdjust="spacing" textLength="243" x="690.5" y="514.3496">CatalogueSensor(String filePathname)</text><ellipse cx="681.5" cy="528.6738" fill="#84BE84" rx="3" ry="3" style="stroke:#038048;stroke-width:1.0;"/><text fill="#000000" font-family="sans-serif" font-size="14" lengthAdjust="spacing" textLength="647" x="690.5" y="532.9707">addSensorType(String strDescription, Unit unit, SensorTypeFactory sensorTypeFactory) : SensorType</text><ellipse cx="681.5" cy="547.2949" fill="#84BE84" rx="3" ry="3" style="stroke:#038048;stroke-width:1.0;"/><text fill="#000000" font-family="sans-serif" font-size="14" lengthAdjust="spacing" textLength="391" x="690.5" y="551.5918">addSensorTypeToList(SensorType sensorType): SensorType</text><ellipse cx="681.5" cy="565.916" fill="#84BE84" rx="3" ry="3" style="stroke:#038048;stroke-width:1.0;"/><text fill="#000000" font-family="sans-serif" font-size="14" lengthAdjust="spacing" textLength="320" x="690.5" y="570.2129">getSensorType(String strDescription): SensorType</text><ellipse cx="681.5" cy="584.5371" fill="#84BE84" rx="3" ry="3" style="stroke:#038048;stroke-width:1.0;"/><text fill="#000000" font-family="sans-serif" font-size="14" lengthAdjust="spacing" textLength="237" x="690.5" y="588.834">getSensorTypes(): List&lt;SensorType&gt;</text><ellipse cx="681.5" cy="603.1582" fill="#84BE84" rx="3" ry="3" style="stroke:#038048;stroke-width:1.0;"/><text fill="#000000" font-family="sans-serif" font-size="14" lengthAdjust="spacing" textLength="203" x="690.5" y="607.4551">getSensorModels(): List&lt;String&gt;</text><ellipse cx="681.5" cy="621.7793" fill="#84BE84" rx="3" ry="3" style="stroke:#038048;stroke-width:1.0;"/><text fill="#000000" font-family="sans-serif" font-size="14" lengthAdjust="spacing" textLength="419" x="690.5" y="626.0762">getSensor(String strModel, SensorFactory sensorFactory): Sensor</text></g><polygon fill="none" points="261.2328,483.4834,277.5779,473.8481,268.5278,465.9681,261.2328,483.4834" style="stroke:#181818;stroke-width:1.0;"/><path d="M340.7042,203.1803 C360.9106,251.0298 378.1789,315.4958 358,370 C356.7112,373.4811 311.9911,425.1878 273.0529,469.9081 " fill="none" style="stroke:#181818;stroke-width:1.0;stroke-dasharray:7.0,7.0;"/><polygon fill="#181818" points="470.6643,455.3093,470.5557,445.4611,468.5834,450.7629,463.2815,448.7906,470.6643,455.3093" style="stroke:#181818;stroke-width:1.0;"/><path d="M346.2746,203.3926 C349.6296,209.3123 352.9115,215.2371 356,221 C398.3143,299.956 439.7028,387.6659 468.1672,449.8537 " fill="none" style="stroke:#181818;stroke-width:1.0;"/><text fill="#000000" font-family="sans-serif" font-size="13" lengthAdjust="spacing" textLength="35" x="430" y="315.5283">&#171;has&#187;</text><text fill="#000000" font-family="sans-serif" font-size="13" lengthAdjust="spacing" textLength="7" x="462.6643" y="451.3376">1</text><text fill="#000000" font-family="sans-serif" font-size="13" lengthAdjust="spacing" textLength="7" x="338.2746" y="218.421">1</text><polygon fill="#181818" points="257.2242,257.8812,264.1362,250.8652,258.9842,253.2012,256.6482,248.0492,257.2242,257.8812" style="stroke:#181818;stroke-width:1.0;"/><path d="M277.8203,203.1143 C270.9462,221.3931 265.7713,235.1536 259.3362,252.2652 " fill="none" style="stroke:#181818;stroke-width:1.0;"/><text fill="#000000" font-family="sans-serif" font-size="13" lengthAdjust="spacing" textLength="35" x="272" y="236.0283">&#171;has&#187;</text><text fill="#000000" font-family="sans-serif" font-size="13" lengthAdjust="spacing" textLength="7" x="249.2242" y="253.9095">1</text><text fill="#000000" font-family="sans-serif" font-size="13" lengthAdjust="spacing" textLength="7" x="269.8203" y="218.1426">1</text><polygon fill="none" points="66.2399,501.9714,74.5628,484.9206,62.6677,483.337,66.2399,501.9714" style="stroke:#181818;stroke-width:1.0;"/><path d="M134.7147,362.0788 C124.4262,370.0749 114.8897,379.0413 107,389 C80.3971,422.5794 72.4878,455.0401 68.6152,484.1288 " fill="none" style="stroke:#181818;stroke-width:1.0;stroke-dasharray:7.0,7.0;"/><polygon fill="#181818" points="814.7247,417.9221,808.808,410.0486,810.3564,415.4894,804.9156,417.0379,814.7247,417.9221" style="stroke:#181818;stroke-width:1.0;"/><path d="M428.8722,203.0412 C535.8963,262.6428 686.5434,346.538 809.4828,415.0029 " fill="none" style="stroke:#181818;stroke-width:1.0;stroke-dasharray:7.0,7.0;"/><text fill="#000000" font-family="sans-serif" font-size="13" lengthAdjust="spacing" textLength="42" x="726" y="315.5283">&#171;uses&#187;</text><text fill="#000000" font-family="sans-serif" font-size="13" lengthAdjust="spacing" textLength="7" x="806.7247" y="413.9504">1</text><!--SRC=[fLJ1Qjmm4BtxAoRfnKkpXbxDOYWffOKM0avo3OEjEAAsj4XoOKdpxv56bYrxRRgbUzZLQjwyUVCqqjLHOTCXj7YIlG7TCOC2a-I8rIzi69GTAlDDTYpJJ6YfDBmc2K3LejPGoXRLTwMmvYWgLXB20i1-zl3aC-vFHvP3EQv3z3UsFGNCae4G7zVPqriqsCgc3zMgy7ytf3NCJCNINGwVAzEZYOeJvj6LTs5Qk9xUDXiZoDGNAOSSk33hKZst3GD1Wp8ZIwEuQDATJVPBN_PjpUzQTiY5jzjICVMC5OEPnniDBxpUQddeUEAUseoj6Cac0sgcAyMFXaiHDKAXNd2JmuFzffqFKNxgaQ2D-Z8Ht10ON5vqWX5WxjOGTpaK62evmLxlSZv6qItNaKywXnzsup3j53CWrRjrZ4mFJ263GiMWPL4kzFZCMtQ7vaLWDnu_rlK_c74JEVSLApk_9z3B7R9cVjgBElVIYKwZKvn8TYl9ys5Q5VdNDErcRDNT2FXJrgoDa3DNHrIaW1A2AtD7WXj1MEBcmTsgizShMt-oiknFSNRrie7iKfBhJzUmtnVqky551v33uV22kYZ-ataZvt5udIukuXFMBV0lnUKsRdI_l9HENMzlbfNt3W00]--></g></svg>