<?xml version="1.0" encoding="us-ascii" standalone="no"?><svg xmlns="http://www.w3.org/2000/svg" xmlns:xlink="http://www.w3.org/1999/xlink" contentStyleType="text/css" height="1070px" preserveAspectRatio="none" style="width:1556px;height:1070px;background:#FFFFFF;" version="1.1" viewBox="0 0 1556 1070" width="1556px" zoomAndPan="magnify"><defs/><g><!--cluster domain--><g id="cluster_domain"><path d="M16.5,4 L68.5,4 A3.75,3.75 0 0 1 71,6.5 L78,28.6211 L1546.5,28.6211 A2.5,2.5 0 0 1 1549,31.1211 L1549,1060.5 A2.5,2.5 0 0 1 1546.5,1063 L16.5,1063 A2.5,2.5 0 0 1 14,1060.5 L14,6.5 A2.5,2.5 0 0 1 16.5,4 " fill="none" style="stroke:#000000;stroke-width:1.5;"/><line style="stroke:#000000;stroke-width:1.5;" x1="14" x2="78" y1="28.6211" y2="28.6211"/><text fill="#000000" font-family="sans-serif" font-size="14" font-weight="bold" lengthAdjust="spacing" textLength="51" x="18" y="21.1074">domain</text></g><!--cluster Sensor--><g id="cluster_Sensor"><path d="M24.5,33 L75.5,33 A3.75,3.75 0 0 1 78,35.5 L85,57.6211 L1538.5,57.6211 A2.5,2.5 0 0 1 1541,60.1211 L1541,778.5 A2.5,2.5 0 0 1 1538.5,781 L24.5,781 A2.5,2.5 0 0 1 22,778.5 L22,35.5 A2.5,2.5 0 0 1 24.5,33 " fill="none" style="stroke:#000000;stroke-width:1.5;"/><line style="stroke:#000000;stroke-width:1.5;" x1="22" x2="85" y1="57.6211" y2="57.6211"/><text fill="#000000" font-family="sans-serif" font-size="14" font-weight="bold" lengthAdjust="spacing" textLength="50" x="26" y="50.1074">Sensor</text></g><!--cluster SolarIrradianceSensor--><g id="cluster_SolarIrradianceSensor"><path d="M298.5,174 L456.5,174 A3.75,3.75 0 0 1 459,176.5 L466,198.6211 L1530.5,198.6211 A2.5,2.5 0 0 1 1533,201.1211 L1533,747.5 A2.5,2.5 0 0 1 1530.5,750 L298.5,750 A2.5,2.5 0 0 1 296,747.5 L296,176.5 A2.5,2.5 0 0 1 298.5,174 " fill="none" style="stroke:#000000;stroke-width:1.5;"/><line style="stroke:#000000;stroke-width:1.5;" x1="296" x2="466" y1="198.6211" y2="198.6211"/><text fill="#000000" font-family="sans-serif" font-size="14" font-weight="bold" lengthAdjust="spacing" textLength="157" x="300" y="191.1074">SolarIrradianceSensor</text></g><!--cluster ddd--><g id="cluster_ddd"><path d="M560.5,800 L588.5,800 A3.75,3.75 0 0 1 591,802.5 L598,824.6211 L814.5,824.6211 A2.5,2.5 0 0 1 817,827.1211 L817,1052.5 A2.5,2.5 0 0 1 814.5,1055 L560.5,1055 A2.5,2.5 0 0 1 558,1052.5 L558,802.5 A2.5,2.5 0 0 1 560.5,800 " fill="none" style="stroke:#000000;stroke-width:1.5;"/><line style="stroke:#000000;stroke-width:1.5;" x1="558" x2="598" y1="824.6211" y2="824.6211"/><text fill="#000000" font-family="sans-serif" font-size="14" font-weight="bold" lengthAdjust="spacing" textLength="27" x="562" y="817.1074">ddd</text></g><!--class FactorySensor--><g id="elem_FactorySensor"><rect codeLine="4" fill="#F1F1F1" height="66.6211" id="FactorySensor" rx="2.5" ry="2.5" style="stroke:#181818;stroke-width:0.5;" width="258" x="30" y="338"/><ellipse cx="108.25" cy="354" fill="#B4A7E5" rx="11" ry="11" style="stroke:#181818;stroke-width:1.0;"/><path d="M109.2031,350.6406 L109.2031,357.2969 L110.9219,357.2969 Q111.5313,357.2969 111.7969,357.5313 Q112.0625,357.7656 112.0625,358.1563 Q112.0625,358.5313 111.7969,358.7656 Q111.5313,359 110.9219,359 L105.7813,359 Q105.1719,359 104.9063,358.7656 Q104.6406,358.5313 104.6406,358.1406 Q104.6406,357.7656 104.9063,357.5313 Q105.1719,357.2969 105.7813,357.2969 L107.5,357.2969 L107.5,350.6406 L105.7813,350.6406 Q105.1719,350.6406 104.9063,350.4063 Q104.6406,350.1719 104.6406,349.7813 Q104.6406,349.4063 104.9063,349.1719 Q105.1719,348.9375 105.7813,348.9375 L110.9219,348.9375 Q111.5313,348.9375 111.7969,349.1719 Q112.0625,349.4063 112.0625,349.7813 Q112.0625,350.1719 111.7969,350.4063 Q111.5313,350.6406 110.9219,350.6406 L109.2031,350.6406 Z " fill="#000000"/><text fill="#000000" font-family="sans-serif" font-size="14" font-style="italic" lengthAdjust="spacing" textLength="93" x="128.75" y="359.7969">FactorySensor</text><line style="stroke:#181818;stroke-width:0.5;" x1="31" x2="287" y1="370" y2="370"/><line style="stroke:#181818;stroke-width:0.5;" x1="31" x2="287" y1="378" y2="378"/><ellipse cx="41" cy="392.8105" fill="#84BE84" rx="3" ry="3" style="stroke:#038048;stroke-width:1.0;"/><text fill="#000000" font-family="sans-serif" font-size="14" lengthAdjust="spacing" textLength="232" x="50" y="397.1074">create(Object... parameters): Sensor</text></g><!--class ImplFactorySensor--><g id="elem_ImplFactorySensor"><rect codeLine="8" fill="#F1F1F1" height="66.6211" id="ImplFactorySensor" rx="2.5" ry="2.5" style="stroke:#181818;stroke-width:0.5;" width="258" x="322" y="62"/><ellipse cx="387.75" cy="78" fill="#ADD1B2" rx="11" ry="11" style="stroke:#181818;stroke-width:1.0;"/><path d="M390.5156,73.875 Q390.6719,73.6563 390.8594,73.5469 Q391.0469,73.4375 391.2656,73.4375 Q391.6406,73.4375 391.875,73.7031 Q392.1094,73.9531 392.1094,74.5625 L392.1094,76.0156 Q392.1094,76.625 391.875,76.8906 Q391.6406,77.1563 391.2656,77.1563 Q390.9219,77.1563 390.7188,76.9531 Q390.5156,76.7656 390.4063,76.25 Q390.3594,75.8906 390.1719,75.7031 Q389.8438,75.3281 389.2344,75.1094 Q388.625,74.8906 388,74.8906 Q387.2344,74.8906 386.5938,75.2188 Q385.9688,75.5469 385.4688,76.2969 Q384.9844,77.0469 384.9844,78.0781 L384.9844,79.1719 Q384.9844,80.4063 385.875,81.2344 Q386.7656,82.0469 388.3594,82.0469 Q389.2969,82.0469 389.9531,81.7969 Q390.3438,81.6406 390.7656,81.2031 Q391.0313,80.9375 391.1719,80.8594 Q391.3281,80.7813 391.5313,80.7813 Q391.8594,80.7813 392.1094,81.0469 Q392.375,81.2969 392.375,81.6406 Q392.375,81.9844 392.0313,82.3906 Q391.5313,82.9688 390.7344,83.2969 Q389.6563,83.75 388.3594,83.75 Q386.8438,83.75 385.6406,83.125 Q384.6563,82.625 383.9688,81.5625 Q383.2813,80.4844 383.2813,79.2031 L383.2813,78.0469 Q383.2813,76.7188 383.8906,75.5781 Q384.5156,74.4219 385.6094,73.8125 Q386.7031,73.1875 387.9375,73.1875 Q388.6719,73.1875 389.3125,73.3594 Q389.9688,73.5156 390.5156,73.875 Z " fill="#000000"/><text fill="#000000" font-family="sans-serif" font-size="14" lengthAdjust="spacing" textLength="118" x="408.25" y="83.7969">ImplFactorySensor</text><line style="stroke:#181818;stroke-width:0.5;" x1="323" x2="579" y1="94" y2="94"/><line style="stroke:#181818;stroke-width:0.5;" x1="323" x2="579" y1="102" y2="102"/><ellipse cx="333" cy="116.8105" fill="#84BE84" rx="3" ry="3" style="stroke:#038048;stroke-width:1.0;"/><text fill="#000000" font-family="sans-serif" font-size="14" lengthAdjust="spacing" textLength="232" x="342" y="121.1074">create(Object... parameters): Sensor</text></g><!--class Sensor--><g id="elem_Sensor"><rect codeLine="12" fill="#F1F1F1" height="178.3477" id="Sensor" rx="2.5" ry="2.5" style="stroke:#181818;stroke-width:0.5;" width="244" x="42" y="595"/><ellipse cx="137.25" cy="611" fill="#B4A7E5" rx="11" ry="11" style="stroke:#181818;stroke-width:1.0;"/><path d="M138.2031,607.6406 L138.2031,614.2969 L139.9219,614.2969 Q140.5313,614.2969 140.7969,614.5313 Q141.0625,614.7656 141.0625,615.1563 Q141.0625,615.5313 140.7969,615.7656 Q140.5313,616 139.9219,616 L134.7813,616 Q134.1719,616 133.9063,615.7656 Q133.6406,615.5313 133.6406,615.1406 Q133.6406,614.7656 133.9063,614.5313 Q134.1719,614.2969 134.7813,614.2969 L136.5,614.2969 L136.5,607.6406 L134.7813,607.6406 Q134.1719,607.6406 133.9063,607.4063 Q133.6406,607.1719 133.6406,606.7813 Q133.6406,606.4063 133.9063,606.1719 Q134.1719,605.9375 134.7813,605.9375 L139.9219,605.9375 Q140.5313,605.9375 140.7969,606.1719 Q141.0625,606.4063 141.0625,606.7813 Q141.0625,607.1719 140.7969,607.4063 Q140.5313,607.6406 139.9219,607.6406 L138.2031,607.6406 Z " fill="#000000"/><text fill="#000000" font-family="sans-serif" font-size="14" font-style="italic" lengthAdjust="spacing" textLength="45" x="157.75" y="616.7969">Sensor</text><line style="stroke:#181818;stroke-width:0.5;" x1="43" x2="285" y1="627" y2="627"/><line style="stroke:#181818;stroke-width:0.5;" x1="43" x2="285" y1="635" y2="635"/><ellipse cx="53" cy="649.8105" fill="#84BE84" rx="3" ry="3" style="stroke:#038048;stroke-width:1.0;"/><text fill="#000000" font-family="sans-serif" font-size="14" lengthAdjust="spacing" textLength="109" x="62" y="654.1074">getID(): SensorID</text><ellipse cx="53" cy="668.4316" fill="#84BE84" rx="3" ry="3" style="stroke:#038048;stroke-width:1.0;"/><text fill="#000000" font-family="sans-serif" font-size="14" lengthAdjust="spacing" textLength="155" x="62" y="672.7285">getName(): SensorName</text><ellipse cx="53" cy="687.0527" fill="#84BE84" rx="3" ry="3" style="stroke:#038048;stroke-width:1.0;"/><text fill="#000000" font-family="sans-serif" font-size="14" lengthAdjust="spacing" textLength="172" x="62" y="691.3496">getModelPath(): ModelPath</text><ellipse cx="53" cy="705.6738" fill="#84BE84" rx="3" ry="3" style="stroke:#038048;stroke-width:1.0;"/><text fill="#000000" font-family="sans-serif" font-size="14" lengthAdjust="spacing" textLength="218" x="62" y="709.9707">getSensorTypeID(): SensorTypeID</text><ellipse cx="53" cy="724.2949" fill="#84BE84" rx="3" ry="3" style="stroke:#038048;stroke-width:1.0;"/><text fill="#000000" font-family="sans-serif" font-size="14" lengthAdjust="spacing" textLength="150" x="62" y="728.5918">getDeviceID(): DeviceID</text><ellipse cx="53" cy="742.916" fill="#84BE84" rx="3" ry="3" style="stroke:#038048;stroke-width:1.0;"/><text fill="#000000" font-family="sans-serif" font-size="14" lengthAdjust="spacing" textLength="151" x="62" y="747.2129">getValue(): ValueObject</text><ellipse cx="53" cy="761.5371" fill="#84BE84" rx="3" ry="3" style="stroke:#038048;stroke-width:1.0;"/><text fill="#000000" font-family="sans-serif" font-size="14" lengthAdjust="spacing" textLength="104" x="62" y="765.834">toString(): String</text></g><!--class SolarIrradianceSensor--><g id="elem_SolarIrradianceSensor"><rect codeLine="25" fill="#F1F1F1" height="337.2383" id="SolarIrradianceSensor" rx="2.5" ry="2.5" style="stroke:#181818;stroke-width:0.5;" width="815" x="334.5" y="203"/><ellipse cx="667.25" cy="233.2715" fill="#ADD1B2" rx="11" ry="11" style="stroke:#181818;stroke-width:1.0;"/><path d="M670.0156,229.1465 Q670.1719,228.9277 670.3594,228.8184 Q670.5469,228.709 670.7656,228.709 Q671.1406,228.709 671.375,228.9746 Q671.6094,229.2246 671.6094,229.834 L671.6094,231.2871 Q671.6094,231.8965 671.375,232.1621 Q671.1406,232.4277 670.7656,232.4277 Q670.4219,232.4277 670.2188,232.2246 Q670.0156,232.0371 669.9063,231.5215 Q669.8594,231.1621 669.6719,230.9746 Q669.3438,230.5996 668.7344,230.3809 Q668.125,230.1621 667.5,230.1621 Q666.7344,230.1621 666.0938,230.4902 Q665.4688,230.8184 664.9688,231.5684 Q664.4844,232.3184 664.4844,233.3496 L664.4844,234.4434 Q664.4844,235.6777 665.375,236.5059 Q666.2656,237.3184 667.8594,237.3184 Q668.7969,237.3184 669.4531,237.0684 Q669.8438,236.9121 670.2656,236.4746 Q670.5313,236.209 670.6719,236.1309 Q670.8281,236.0527 671.0313,236.0527 Q671.3594,236.0527 671.6094,236.3184 Q671.875,236.5684 671.875,236.9121 Q671.875,237.2559 671.5313,237.6621 Q671.0313,238.2402 670.2344,238.5684 Q669.1563,239.0215 667.8594,239.0215 Q666.3438,239.0215 665.1406,238.3965 Q664.1563,237.8965 663.4688,236.834 Q662.7813,235.7559 662.7813,234.4746 L662.7813,233.3184 Q662.7813,231.9902 663.3906,230.8496 Q664.0156,229.6934 665.1094,229.084 Q666.2031,228.459 667.4375,228.459 Q668.1719,228.459 668.8125,228.6309 Q669.4688,228.7871 670.0156,229.1465 Z " fill="#000000"/><text fill="#000000" font-family="sans-serif" font-size="12" font-style="italic" lengthAdjust="spacing" textLength="43" x="736.75" y="220.9492">&#171;entity&#187;</text><text fill="#000000" font-family="sans-serif" font-size="12" font-style="italic" lengthAdjust="spacing" textLength="40" x="738.25" y="236.9102">&#171;Root&#187;</text><text fill="#000000" font-family="sans-serif" font-size="14" lengthAdjust="spacing" textLength="141" x="687.75" y="255.0293">SolarIrradianceSensor</text><line style="stroke:#181818;stroke-width:0.5;" x1="335.5" x2="1148.5" y1="263.543" y2="263.543"/><rect fill="none" height="6" style="stroke:#C82930;stroke-width:1.0;" width="6" x="342.5" y="275.3535"/><text fill="#000000" font-family="sans-serif" font-size="14" lengthAdjust="spacing" textLength="130" x="354.5" y="282.6504">_sensorID: SensorID</text><rect fill="none" height="6" style="stroke:#C82930;stroke-width:1.0;" width="6" x="342.5" y="293.9746"/><text fill="#000000" font-family="sans-serif" font-size="14" lengthAdjust="spacing" textLength="169" x="354.5" y="301.2715">_senorName: SensorName</text><rect fill="none" height="6" style="stroke:#C82930;stroke-width:1.0;" width="6" x="342.5" y="312.5957"/><text fill="#000000" font-family="sans-serif" font-size="14" lengthAdjust="spacing" textLength="194" x="354.5" y="319.8926">_sensorTypeID: SensorTypeID</text><rect fill="none" height="6" style="stroke:#C82930;stroke-width:1.0;" width="6" x="342.5" y="331.2168"/><text fill="#000000" font-family="sans-serif" font-size="14" lengthAdjust="spacing" textLength="150" x="354.5" y="338.5137">_modelPath: ModelPath</text><rect fill="none" height="6" style="stroke:#C82930;stroke-width:1.0;" width="6" x="342.5" y="349.8379"/><text fill="#000000" font-family="sans-serif" font-size="14" lengthAdjust="spacing" textLength="126" x="354.5" y="357.1348">_deviceID: DeviceID</text><rect fill="none" height="6" style="stroke:#C82930;stroke-width:1.0;" width="6" x="342.5" y="368.459"/><text fill="#000000" font-family="sans-serif" font-size="14" lengthAdjust="spacing" textLength="182" x="354.5" y="375.7559">_value: SolarIrradianceValue</text><line style="stroke:#181818;stroke-width:0.5;" x1="335.5" x2="1148.5" y1="383.2695" y2="383.2695"/><ellipse cx="345.5" cy="398.0801" fill="#84BE84" rx="3" ry="3" style="stroke:#038048;stroke-width:1.0;"/><text fill="#000000" font-family="sans-serif" font-size="14" lengthAdjust="spacing" textLength="789" x="354.5" y="402.377">SolarIrradianceSensor(sensorTypeID: SensorTypeID, modelPath: ModelPath, deviceID: DeviceID, sensorName: SensorName)</text><ellipse cx="345.5" cy="416.7012" fill="#84BE84" rx="3" ry="3" style="stroke:#038048;stroke-width:1.0;"/><text fill="#000000" font-family="sans-serif" font-size="14" lengthAdjust="spacing" textLength="189" x="354.5" y="420.998">getSensorTypeString(): String</text><ellipse cx="345.5" cy="435.3223" fill="#84BE84" rx="3" ry="3" style="stroke:#038048;stroke-width:1.0;"/><text fill="#000000" font-family="sans-serif" font-size="14" lengthAdjust="spacing" textLength="109" x="354.5" y="439.6191">getID(): SensorID</text><ellipse cx="345.5" cy="453.9434" fill="#84BE84" rx="3" ry="3" style="stroke:#038048;stroke-width:1.0;"/><text fill="#000000" font-family="sans-serif" font-size="14" lengthAdjust="spacing" textLength="155" x="354.5" y="458.2402">getName(): SensorName</text><ellipse cx="345.5" cy="472.5645" fill="#84BE84" rx="3" ry="3" style="stroke:#038048;stroke-width:1.0;"/><text fill="#000000" font-family="sans-serif" font-size="14" lengthAdjust="spacing" textLength="172" x="354.5" y="476.8613">getModelPath(): ModelPath</text><ellipse cx="345.5" cy="491.1855" fill="#84BE84" rx="3" ry="3" style="stroke:#038048;stroke-width:1.0;"/><text fill="#000000" font-family="sans-serif" font-size="14" lengthAdjust="spacing" textLength="218" x="354.5" y="495.4824">getSensorTypeID(): SensorTypeID</text><ellipse cx="345.5" cy="509.8066" fill="#84BE84" rx="3" ry="3" style="stroke:#038048;stroke-width:1.0;"/><text fill="#000000" font-family="sans-serif" font-size="14" lengthAdjust="spacing" textLength="150" x="354.5" y="514.1035">getDeviceID(): DeviceID</text><ellipse cx="345.5" cy="528.4277" fill="#84BE84" rx="3" ry="3" style="stroke:#038048;stroke-width:1.0;"/><text fill="#000000" font-family="sans-serif" font-size="14" lengthAdjust="spacing" textLength="151" x="354.5" y="532.7246">getValue(): ValueObject</text></g><!--class SensorName--><g id="elem_SensorName"><rect codeLine="42" fill="#F1F1F1" height="116.4453" id="SensorName" rx="2.5" ry="2.5" style="stroke:#181818;stroke-width:0.5;" width="193" x="304.5" y="626"/><ellipse cx="356.25" cy="648.291" fill="#ADD1B2" rx="11" ry="11" style="stroke:#181818;stroke-width:1.0;"/><path d="M359.0156,644.166 Q359.1719,643.9473 359.3594,643.8379 Q359.5469,643.7285 359.7656,643.7285 Q360.1406,643.7285 360.375,643.9941 Q360.6094,644.2441 360.6094,644.8535 L360.6094,646.3066 Q360.6094,646.916 360.375,647.1816 Q360.1406,647.4473 359.7656,647.4473 Q359.4219,647.4473 359.2188,647.2441 Q359.0156,647.0566 358.9063,646.541 Q358.8594,646.1816 358.6719,645.9941 Q358.3438,645.6191 357.7344,645.4004 Q357.125,645.1816 356.5,645.1816 Q355.7344,645.1816 355.0938,645.5098 Q354.4688,645.8379 353.9688,646.5879 Q353.4844,647.3379 353.4844,648.3691 L353.4844,649.4629 Q353.4844,650.6973 354.375,651.5254 Q355.2656,652.3379 356.8594,652.3379 Q357.7969,652.3379 358.4531,652.0879 Q358.8438,651.9316 359.2656,651.4941 Q359.5313,651.2285 359.6719,651.1504 Q359.8281,651.0723 360.0313,651.0723 Q360.3594,651.0723 360.6094,651.3379 Q360.875,651.5879 360.875,651.9316 Q360.875,652.2754 360.5313,652.6816 Q360.0313,653.2598 359.2344,653.5879 Q358.1563,654.041 356.8594,654.041 Q355.3438,654.041 354.1406,653.416 Q353.1563,652.916 352.4688,651.8535 Q351.7813,650.7754 351.7813,649.4941 L351.7813,648.3379 Q351.7813,647.0098 352.3906,645.8691 Q353.0156,644.7129 354.1094,644.1035 Q355.2031,643.4785 356.4375,643.4785 Q357.1719,643.4785 357.8125,643.6504 Q358.4688,643.8066 359.0156,644.166 Z " fill="#000000"/><text fill="#000000" font-family="sans-serif" font-size="12" font-style="italic" lengthAdjust="spacing" textLength="82" x="376.25" y="643.9492">&#171;ValueObject&#187;</text><text fill="#000000" font-family="sans-serif" font-size="14" lengthAdjust="spacing" textLength="81" x="376.75" y="662.0684">SensorName</text><line style="stroke:#181818;stroke-width:0.5;" x1="305.5" x2="496.5" y1="670.582" y2="670.582"/><rect fill="none" height="6" style="stroke:#C82930;stroke-width:1.0;" width="6" x="312.5" y="682.3926"/><text fill="#000000" font-family="sans-serif" font-size="14" lengthAdjust="spacing" textLength="88" x="324.5" y="689.6895">_name: String</text><line style="stroke:#181818;stroke-width:0.5;" x1="305.5" x2="496.5" y1="697.2031" y2="697.2031"/><ellipse cx="315.5" cy="712.0137" fill="#84BE84" rx="3" ry="3" style="stroke:#038048;stroke-width:1.0;"/><text fill="#000000" font-family="sans-serif" font-size="14" lengthAdjust="spacing" textLength="167" x="324.5" y="716.3105">SensorName(String name)</text><ellipse cx="315.5" cy="730.6348" fill="#84BE84" rx="3" ry="3" style="stroke:#038048;stroke-width:1.0;"/><text fill="#000000" font-family="sans-serif" font-size="14" lengthAdjust="spacing" textLength="115" x="324.5" y="734.9316">getName() : String</text></g><!--class SensorID--><g id="elem_SensorID"><rect codeLine="48" fill="#F1F1F1" height="116.4453" id="SensorID" rx="2.5" ry="2.5" style="stroke:#181818;stroke-width:0.5;" width="146" x="755" y="626"/><ellipse cx="791.15" cy="648.291" fill="#ADD1B2" rx="11" ry="11" style="stroke:#181818;stroke-width:1.0;"/><path d="M793.9156,644.166 Q794.0719,643.9473 794.2594,643.8379 Q794.4469,643.7285 794.6656,643.7285 Q795.0406,643.7285 795.275,643.9941 Q795.5094,644.2441 795.5094,644.8535 L795.5094,646.3066 Q795.5094,646.916 795.275,647.1816 Q795.0406,647.4473 794.6656,647.4473 Q794.3219,647.4473 794.1188,647.2441 Q793.9156,647.0566 793.8063,646.541 Q793.7594,646.1816 793.5719,645.9941 Q793.2438,645.6191 792.6344,645.4004 Q792.025,645.1816 791.4,645.1816 Q790.6344,645.1816 789.9938,645.5098 Q789.3688,645.8379 788.8688,646.5879 Q788.3844,647.3379 788.3844,648.3691 L788.3844,649.4629 Q788.3844,650.6973 789.275,651.5254 Q790.1656,652.3379 791.7594,652.3379 Q792.6969,652.3379 793.3531,652.0879 Q793.7438,651.9316 794.1656,651.4941 Q794.4313,651.2285 794.5719,651.1504 Q794.7281,651.0723 794.9313,651.0723 Q795.2594,651.0723 795.5094,651.3379 Q795.775,651.5879 795.775,651.9316 Q795.775,652.2754 795.4313,652.6816 Q794.9313,653.2598 794.1344,653.5879 Q793.0563,654.041 791.7594,654.041 Q790.2438,654.041 789.0406,653.416 Q788.0563,652.916 787.3688,651.8535 Q786.6813,650.7754 786.6813,649.4941 L786.6813,648.3379 Q786.6813,647.0098 787.2906,645.8691 Q787.9156,644.7129 789.0094,644.1035 Q790.1031,643.4785 791.3375,643.4785 Q792.0719,643.4785 792.7125,643.6504 Q793.3688,643.8066 793.9156,644.166 Z " fill="#000000"/><text fill="#000000" font-family="sans-serif" font-size="12" font-style="italic" lengthAdjust="spacing" textLength="71" x="807.85" y="643.9492">&#171;DomainID&#187;</text><text fill="#000000" font-family="sans-serif" font-size="14" lengthAdjust="spacing" textLength="58" x="814.35" y="662.0684">SensorID</text><line style="stroke:#181818;stroke-width:0.5;" x1="756" x2="900" y1="670.582" y2="670.582"/><rect fill="none" height="6" style="stroke:#C82930;stroke-width:1.0;" width="6" x="763" y="682.3926"/><text fill="#000000" font-family="sans-serif" font-size="14" lengthAdjust="spacing" textLength="64" x="775" y="689.6895">_id: String</text><line style="stroke:#181818;stroke-width:0.5;" x1="756" x2="900" y1="697.2031" y2="697.2031"/><ellipse cx="766" cy="712.0137" fill="#84BE84" rx="3" ry="3" style="stroke:#038048;stroke-width:1.0;"/><text fill="#000000" font-family="sans-serif" font-size="14" lengthAdjust="spacing" textLength="120" x="775" y="716.3105">SensorID(String id)</text><ellipse cx="766" cy="730.6348" fill="#84BE84" rx="3" ry="3" style="stroke:#038048;stroke-width:1.0;"/><text fill="#000000" font-family="sans-serif" font-size="14" lengthAdjust="spacing" textLength="92" x="775" y="734.9316">getID() : String</text></g><!--class SolarIrradianceValue--><g id="elem_SolarIrradianceValue"><rect codeLine="54" fill="#F1F1F1" height="116.4453" id="SolarIrradianceValue" rx="2.5" ry="2.5" style="stroke:#181818;stroke-width:0.5;" width="221" x="515.5" y="626"/><ellipse cx="556.15" cy="648.291" fill="#ADD1B2" rx="11" ry="11" style="stroke:#181818;stroke-width:1.0;"/><path d="M558.9156,644.166 Q559.0719,643.9473 559.2594,643.8379 Q559.4469,643.7285 559.6656,643.7285 Q560.0406,643.7285 560.275,643.9941 Q560.5094,644.2441 560.5094,644.8535 L560.5094,646.3066 Q560.5094,646.916 560.275,647.1816 Q560.0406,647.4473 559.6656,647.4473 Q559.3219,647.4473 559.1188,647.2441 Q558.9156,647.0566 558.8063,646.541 Q558.7594,646.1816 558.5719,645.9941 Q558.2438,645.6191 557.6344,645.4004 Q557.025,645.1816 556.4,645.1816 Q555.6344,645.1816 554.9938,645.5098 Q554.3688,645.8379 553.8688,646.5879 Q553.3844,647.3379 553.3844,648.3691 L553.3844,649.4629 Q553.3844,650.6973 554.275,651.5254 Q555.1656,652.3379 556.7594,652.3379 Q557.6969,652.3379 558.3531,652.0879 Q558.7438,651.9316 559.1656,651.4941 Q559.4313,651.2285 559.5719,651.1504 Q559.7281,651.0723 559.9313,651.0723 Q560.2594,651.0723 560.5094,651.3379 Q560.775,651.5879 560.775,651.9316 Q560.775,652.2754 560.4313,652.6816 Q559.9313,653.2598 559.1344,653.5879 Q558.0563,654.041 556.7594,654.041 Q555.2438,654.041 554.0406,653.416 Q553.0563,652.916 552.3688,651.8535 Q551.6813,650.7754 551.6813,649.4941 L551.6813,648.3379 Q551.6813,647.0098 552.2906,645.8691 Q552.9156,644.7129 554.0094,644.1035 Q555.1031,643.4785 556.3375,643.4785 Q557.0719,643.4785 557.7125,643.6504 Q558.3688,643.8066 558.9156,644.166 Z " fill="#000000"/><text fill="#000000" font-family="sans-serif" font-size="12" font-style="italic" lengthAdjust="spacing" textLength="82" x="600.85" y="643.9492">&#171;ValueObject&#187;</text><text fill="#000000" font-family="sans-serif" font-size="14" lengthAdjust="spacing" textLength="132" x="575.85" y="662.0684">SolarIrradianceValue</text><line style="stroke:#181818;stroke-width:0.5;" x1="516.5" x2="735.5" y1="670.582" y2="670.582"/><rect fill="none" height="6" style="stroke:#C82930;stroke-width:1.0;" width="6" x="523.5" y="682.3926"/><text fill="#000000" font-family="sans-serif" font-size="14" lengthAdjust="spacing" textLength="69" x="535.5" y="689.6895">_value : int</text><line style="stroke:#181818;stroke-width:0.5;" x1="516.5" x2="735.5" y1="697.2031" y2="697.2031"/><ellipse cx="526.5" cy="712.0137" fill="#84BE84" rx="3" ry="3" style="stroke:#038048;stroke-width:1.0;"/><text fill="#000000" font-family="sans-serif" font-size="14" lengthAdjust="spacing" textLength="195" x="535.5" y="716.3105">SolarIrradianceValue(int value)</text><ellipse cx="526.5" cy="730.6348" fill="#84BE84" rx="3" ry="3" style="stroke:#038048;stroke-width:1.0;"/><text fill="#000000" font-family="sans-serif" font-size="14" lengthAdjust="spacing" textLength="108" x="535.5" y="734.9316">toString() : String</text></g><!--class SensorTypeID--><g id="elem_SensorTypeID"><rect codeLine="60" fill="#F1F1F1" height="116.4453" id="SensorTypeID" rx="2.5" ry="2.5" style="stroke:#181818;stroke-width:0.5;" width="254" x="919" y="626"/><ellipse cx="996.75" cy="648.291" fill="#ADD1B2" rx="11" ry="11" style="stroke:#181818;stroke-width:1.0;"/><path d="M999.5156,644.166 Q999.6719,643.9473 999.8594,643.8379 Q1000.0469,643.7285 1000.2656,643.7285 Q1000.6406,643.7285 1000.875,643.9941 Q1001.1094,644.2441 1001.1094,644.8535 L1001.1094,646.3066 Q1001.1094,646.916 1000.875,647.1816 Q1000.6406,647.4473 1000.2656,647.4473 Q999.9219,647.4473 999.7188,647.2441 Q999.5156,647.0566 999.4063,646.541 Q999.3594,646.1816 999.1719,645.9941 Q998.8438,645.6191 998.2344,645.4004 Q997.625,645.1816 997,645.1816 Q996.2344,645.1816 995.5938,645.5098 Q994.9688,645.8379 994.4688,646.5879 Q993.9844,647.3379 993.9844,648.3691 L993.9844,649.4629 Q993.9844,650.6973 994.875,651.5254 Q995.7656,652.3379 997.3594,652.3379 Q998.2969,652.3379 998.9531,652.0879 Q999.3438,651.9316 999.7656,651.4941 Q1000.0313,651.2285 1000.1719,651.1504 Q1000.3281,651.0723 1000.5313,651.0723 Q1000.8594,651.0723 1001.1094,651.3379 Q1001.375,651.5879 1001.375,651.9316 Q1001.375,652.2754 1001.0313,652.6816 Q1000.5313,653.2598 999.7344,653.5879 Q998.6563,654.041 997.3594,654.041 Q995.8438,654.041 994.6406,653.416 Q993.6563,652.916 992.9688,651.8535 Q992.2813,650.7754 992.2813,649.4941 L992.2813,648.3379 Q992.2813,647.0098 992.8906,645.8691 Q993.5156,644.7129 994.6094,644.1035 Q995.7031,643.4785 996.9375,643.4785 Q997.6719,643.4785 998.3125,643.6504 Q998.9688,643.8066 999.5156,644.166 Z " fill="#000000"/><text fill="#000000" font-family="sans-serif" font-size="12" font-style="italic" lengthAdjust="spacing" textLength="71" x="1026.75" y="643.9492">&#171;DomainID&#187;</text><text fill="#000000" font-family="sans-serif" font-size="14" lengthAdjust="spacing" textLength="90" x="1017.25" y="662.0684">SensorTypeID</text><line style="stroke:#181818;stroke-width:0.5;" x1="920" x2="1172" y1="670.582" y2="670.582"/><rect fill="none" height="6" style="stroke:#C82930;stroke-width:1.0;" width="6" x="927" y="682.3926"/><text fill="#000000" font-family="sans-serif" font-size="14" lengthAdjust="spacing" textLength="122" x="939" y="689.6895">_description: String</text><line style="stroke:#181818;stroke-width:0.5;" x1="920" x2="1172" y1="697.2031" y2="697.2031"/><ellipse cx="930" cy="712.0137" fill="#84BE84" rx="3" ry="3" style="stroke:#038048;stroke-width:1.0;"/><text fill="#000000" font-family="sans-serif" font-size="14" lengthAdjust="spacing" textLength="228" x="939" y="716.3105">SensorTypeID(String strDescription)</text><ellipse cx="930" cy="730.6348" fill="#84BE84" rx="3" ry="3" style="stroke:#038048;stroke-width:1.0;"/><text fill="#000000" font-family="sans-serif" font-size="14" lengthAdjust="spacing" textLength="124" x="939" y="734.9316">getTypeID() : String</text></g><!--class ModelPath--><g id="elem_ModelPath"><rect codeLine="66" fill="#F1F1F1" height="116.4453" id="ModelPath" rx="2.5" ry="2.5" style="stroke:#181818;stroke-width:0.5;" width="172" x="1191" y="626"/><ellipse cx="1239.25" cy="648.291" fill="#ADD1B2" rx="11" ry="11" style="stroke:#181818;stroke-width:1.0;"/><path d="M1242.0156,644.166 Q1242.1719,643.9473 1242.3594,643.8379 Q1242.5469,643.7285 1242.7656,643.7285 Q1243.1406,643.7285 1243.375,643.9941 Q1243.6094,644.2441 1243.6094,644.8535 L1243.6094,646.3066 Q1243.6094,646.916 1243.375,647.1816 Q1243.1406,647.4473 1242.7656,647.4473 Q1242.4219,647.4473 1242.2188,647.2441 Q1242.0156,647.0566 1241.9063,646.541 Q1241.8594,646.1816 1241.6719,645.9941 Q1241.3438,645.6191 1240.7344,645.4004 Q1240.125,645.1816 1239.5,645.1816 Q1238.7344,645.1816 1238.0938,645.5098 Q1237.4688,645.8379 1236.9688,646.5879 Q1236.4844,647.3379 1236.4844,648.3691 L1236.4844,649.4629 Q1236.4844,650.6973 1237.375,651.5254 Q1238.2656,652.3379 1239.8594,652.3379 Q1240.7969,652.3379 1241.4531,652.0879 Q1241.8438,651.9316 1242.2656,651.4941 Q1242.5313,651.2285 1242.6719,651.1504 Q1242.8281,651.0723 1243.0313,651.0723 Q1243.3594,651.0723 1243.6094,651.3379 Q1243.875,651.5879 1243.875,651.9316 Q1243.875,652.2754 1243.5313,652.6816 Q1243.0313,653.2598 1242.2344,653.5879 Q1241.1563,654.041 1239.8594,654.041 Q1238.3438,654.041 1237.1406,653.416 Q1236.1563,652.916 1235.4688,651.8535 Q1234.7813,650.7754 1234.7813,649.4941 L1234.7813,648.3379 Q1234.7813,647.0098 1235.3906,645.8691 Q1236.0156,644.7129 1237.1094,644.1035 Q1238.2031,643.4785 1239.4375,643.4785 Q1240.1719,643.4785 1240.8125,643.6504 Q1241.4688,643.8066 1242.0156,644.166 Z " fill="#000000"/><text fill="#000000" font-family="sans-serif" font-size="12" font-style="italic" lengthAdjust="spacing" textLength="71" x="1257.75" y="643.9492">&#171;DomainID&#187;</text><text fill="#000000" font-family="sans-serif" font-size="14" lengthAdjust="spacing" textLength="67" x="1259.75" y="662.0684">ModelPath</text><line style="stroke:#181818;stroke-width:0.5;" x1="1192" x2="1362" y1="670.582" y2="670.582"/><rect fill="none" height="6" style="stroke:#C82930;stroke-width:1.0;" width="6" x="1199" y="682.3926"/><text fill="#000000" font-family="sans-serif" font-size="14" lengthAdjust="spacing" textLength="81" x="1211" y="689.6895">_path: String</text><line style="stroke:#181818;stroke-width:0.5;" x1="1192" x2="1362" y1="697.2031" y2="697.2031"/><ellipse cx="1202" cy="712.0137" fill="#84BE84" rx="3" ry="3" style="stroke:#038048;stroke-width:1.0;"/><text fill="#000000" font-family="sans-serif" font-size="14" lengthAdjust="spacing" textLength="146" x="1211" y="716.3105">ModelPath(String path)</text><ellipse cx="1202" cy="730.6348" fill="#84BE84" rx="3" ry="3" style="stroke:#038048;stroke-width:1.0;"/><text fill="#000000" font-family="sans-serif" font-size="14" lengthAdjust="spacing" textLength="108" x="1211" y="734.9316">getPath() : String</text></g><!--class DeviceID--><g id="elem_DeviceID"><rect codeLine="72" fill="#F1F1F1" height="116.4453" id="DeviceID" rx="2.5" ry="2.5" style="stroke:#181818;stroke-width:0.5;" width="144" x="1381" y="626"/><ellipse cx="1416.25" cy="648.291" fill="#ADD1B2" rx="11" ry="11" style="stroke:#181818;stroke-width:1.0;"/><path d="M1419.0156,644.166 Q1419.1719,643.9473 1419.3594,643.8379 Q1419.5469,643.7285 1419.7656,643.7285 Q1420.1406,643.7285 1420.375,643.9941 Q1420.6094,644.2441 1420.6094,644.8535 L1420.6094,646.3066 Q1420.6094,646.916 1420.375,647.1816 Q1420.1406,647.4473 1419.7656,647.4473 Q1419.4219,647.4473 1419.2188,647.2441 Q1419.0156,647.0566 1418.9063,646.541 Q1418.8594,646.1816 1418.6719,645.9941 Q1418.3438,645.6191 1417.7344,645.4004 Q1417.125,645.1816 1416.5,645.1816 Q1415.7344,645.1816 1415.0938,645.5098 Q1414.4688,645.8379 1413.9688,646.5879 Q1413.4844,647.3379 1413.4844,648.3691 L1413.4844,649.4629 Q1413.4844,650.6973 1414.375,651.5254 Q1415.2656,652.3379 1416.8594,652.3379 Q1417.7969,652.3379 1418.4531,652.0879 Q1418.8438,651.9316 1419.2656,651.4941 Q1419.5313,651.2285 1419.6719,651.1504 Q1419.8281,651.0723 1420.0313,651.0723 Q1420.3594,651.0723 1420.6094,651.3379 Q1420.875,651.5879 1420.875,651.9316 Q1420.875,652.2754 1420.5313,652.6816 Q1420.0313,653.2598 1419.2344,653.5879 Q1418.1563,654.041 1416.8594,654.041 Q1415.3438,654.041 1414.1406,653.416 Q1413.1563,652.916 1412.4688,651.8535 Q1411.7813,650.7754 1411.7813,649.4941 L1411.7813,648.3379 Q1411.7813,647.0098 1412.3906,645.8691 Q1413.0156,644.7129 1414.1094,644.1035 Q1415.2031,643.4785 1416.4375,643.4785 Q1417.1719,643.4785 1417.8125,643.6504 Q1418.4688,643.8066 1419.0156,644.166 Z " fill="#000000"/><text fill="#000000" font-family="sans-serif" font-size="12" font-style="italic" lengthAdjust="spacing" textLength="71" x="1432.75" y="643.9492">&#171;DomainID&#187;</text><text fill="#000000" font-family="sans-serif" font-size="14" lengthAdjust="spacing" textLength="56" x="1440.25" y="662.0684">DeviceID</text><line style="stroke:#181818;stroke-width:0.5;" x1="1382" x2="1524" y1="670.582" y2="670.582"/><rect fill="none" height="6" style="stroke:#C82930;stroke-width:1.0;" width="6" x="1389" y="682.3926"/><text fill="#000000" font-family="sans-serif" font-size="14" lengthAdjust="spacing" textLength="64" x="1401" y="689.6895">_id: String</text><line style="stroke:#181818;stroke-width:0.5;" x1="1382" x2="1524" y1="697.2031" y2="697.2031"/><ellipse cx="1392" cy="712.0137" fill="#84BE84" rx="3" ry="3" style="stroke:#038048;stroke-width:1.0;"/><text fill="#000000" font-family="sans-serif" font-size="14" lengthAdjust="spacing" textLength="118" x="1401" y="716.3105">DeviceID(String id)</text><ellipse cx="1392" cy="730.6348" fill="#84BE84" rx="3" ry="3" style="stroke:#038048;stroke-width:1.0;"/><text fill="#000000" font-family="sans-serif" font-size="14" lengthAdjust="spacing" textLength="92" x="1401" y="734.9316">getID() : String</text></g><!--class DomainEntity--><g id="elem_DomainEntity"><rect codeLine="82" fill="#F1F1F1" height="48" id="DomainEntity" rx="2.5" ry="2.5" style="stroke:#181818;stroke-width:0.5;" width="115" x="566.5" y="914"/><ellipse cx="581.5" cy="930" fill="#B4A7E5" rx="11" ry="11" style="stroke:#181818;stroke-width:1.0;"/><path d="M582.4531,926.6406 L582.4531,933.2969 L584.1719,933.2969 Q584.7813,933.2969 585.0469,933.5313 Q585.3125,933.7656 585.3125,934.1563 Q585.3125,934.5313 585.0469,934.7656 Q584.7813,935 584.1719,935 L579.0313,935 Q578.4219,935 578.1563,934.7656 Q577.8906,934.5313 577.8906,934.1406 Q577.8906,933.7656 578.1563,933.5313 Q578.4219,933.2969 579.0313,933.2969 L580.75,933.2969 L580.75,926.6406 L579.0313,926.6406 Q578.4219,926.6406 578.1563,926.4063 Q577.8906,926.1719 577.8906,925.7813 Q577.8906,925.4063 578.1563,925.1719 Q578.4219,924.9375 579.0313,924.9375 L584.1719,924.9375 Q584.7813,924.9375 585.0469,925.1719 Q585.3125,925.4063 585.3125,925.7813 Q585.3125,926.1719 585.0469,926.4063 Q584.7813,926.6406 584.1719,926.6406 L582.4531,926.6406 Z " fill="#000000"/><text fill="#000000" font-family="sans-serif" font-size="14" font-style="italic" lengthAdjust="spacing" textLength="83" x="595.5" y="935.7969">DomainEntity</text><line style="stroke:#181818;stroke-width:0.5;" x1="567.5" x2="680.5" y1="946" y2="946"/><line style="stroke:#181818;stroke-width:0.5;" x1="567.5" x2="680.5" y1="954" y2="954"/></g><!--class DomainID--><g id="elem_DomainID"><rect codeLine="85" fill="#F1F1F1" height="48" id="DomainID" rx="2.5" ry="2.5" style="stroke:#181818;stroke-width:0.5;" width="94" x="715" y="999"/><ellipse cx="730" cy="1015" fill="#B4A7E5" rx="11" ry="11" style="stroke:#181818;stroke-width:1.0;"/><path d="M730.9531,1011.6406 L730.9531,1018.2969 L732.6719,1018.2969 Q733.2813,1018.2969 733.5469,1018.5313 Q733.8125,1018.7656 733.8125,1019.1563 Q733.8125,1019.5313 733.5469,1019.7656 Q733.2813,1020 732.6719,1020 L727.5313,1020 Q726.9219,1020 726.6563,1019.7656 Q726.3906,1019.5313 726.3906,1019.1406 Q726.3906,1018.7656 726.6563,1018.5313 Q726.9219,1018.2969 727.5313,1018.2969 L729.25,1018.2969 L729.25,1011.6406 L727.5313,1011.6406 Q726.9219,1011.6406 726.6563,1011.4063 Q726.3906,1011.1719 726.3906,1010.7813 Q726.3906,1010.4063 726.6563,1010.1719 Q726.9219,1009.9375 727.5313,1009.9375 L732.6719,1009.9375 Q733.2813,1009.9375 733.5469,1010.1719 Q733.8125,1010.4063 733.8125,1010.7813 Q733.8125,1011.1719 733.5469,1011.4063 Q733.2813,1011.6406 732.6719,1011.6406 L730.9531,1011.6406 Z " fill="#000000"/><text fill="#000000" font-family="sans-serif" font-size="14" font-style="italic" lengthAdjust="spacing" textLength="62" x="744" y="1020.7969">DomainID</text><line style="stroke:#181818;stroke-width:0.5;" x1="716" x2="808" y1="1031" y2="1031"/><line style="stroke:#181818;stroke-width:0.5;" x1="716" x2="808" y1="1039" y2="1039"/></g><!--class ValueObject--><g id="elem_ValueObject"><rect codeLine="91" fill="#F1F1F1" height="48" id="ValueObject" rx="2.5" ry="2.5" style="stroke:#181818;stroke-width:0.5;" width="109" x="699.5" y="914"/><ellipse cx="714.5" cy="930" fill="#B4A7E5" rx="11" ry="11" style="stroke:#181818;stroke-width:1.0;"/><path d="M715.4531,926.6406 L715.4531,933.2969 L717.1719,933.2969 Q717.7813,933.2969 718.0469,933.5313 Q718.3125,933.7656 718.3125,934.1563 Q718.3125,934.5313 718.0469,934.7656 Q717.7813,935 717.1719,935 L712.0313,935 Q711.4219,935 711.1563,934.7656 Q710.8906,934.5313 710.8906,934.1406 Q710.8906,933.7656 711.1563,933.5313 Q711.4219,933.2969 712.0313,933.2969 L713.75,933.2969 L713.75,926.6406 L712.0313,926.6406 Q711.4219,926.6406 711.1563,926.4063 Q710.8906,926.1719 710.8906,925.7813 Q710.8906,925.4063 711.1563,925.1719 Q711.4219,924.9375 712.0313,924.9375 L717.1719,924.9375 Q717.7813,924.9375 718.0469,925.1719 Q718.3125,925.4063 718.3125,925.7813 Q718.3125,926.1719 718.0469,926.4063 Q717.7813,926.6406 717.1719,926.6406 L715.4531,926.6406 Z " fill="#000000"/><text fill="#000000" font-family="sans-serif" font-size="14" font-style="italic" lengthAdjust="spacing" textLength="77" x="728.5" y="935.7969">ValueObject</text><line style="stroke:#181818;stroke-width:0.5;" x1="700.5" x2="807.5" y1="946" y2="946"/><line style="stroke:#181818;stroke-width:0.5;" x1="700.5" x2="807.5" y1="954" y2="954"/></g><!--class AggregateRoot--><g id="elem_AggregateRoot"><rect codeLine="88" fill="#F1F1F1" height="48" id="AggregateRoot" rx="2.5" ry="2.5" style="stroke:#181818;stroke-width:0.5;" width="128" x="566" y="829"/><ellipse cx="581" cy="845" fill="#B4A7E5" rx="11" ry="11" style="stroke:#181818;stroke-width:1.0;"/><path d="M581.9531,841.6406 L581.9531,848.2969 L583.6719,848.2969 Q584.2813,848.2969 584.5469,848.5313 Q584.8125,848.7656 584.8125,849.1563 Q584.8125,849.5313 584.5469,849.7656 Q584.2813,850 583.6719,850 L578.5313,850 Q577.9219,850 577.6563,849.7656 Q577.3906,849.5313 577.3906,849.1406 Q577.3906,848.7656 577.6563,848.5313 Q577.9219,848.2969 578.5313,848.2969 L580.25,848.2969 L580.25,841.6406 L578.5313,841.6406 Q577.9219,841.6406 577.6563,841.4063 Q577.3906,841.1719 577.3906,840.7813 Q577.3906,840.4063 577.6563,840.1719 Q577.9219,839.9375 578.5313,839.9375 L583.6719,839.9375 Q584.2813,839.9375 584.5469,840.1719 Q584.8125,840.4063 584.8125,840.7813 Q584.8125,841.1719 584.5469,841.4063 Q584.2813,841.6406 583.6719,841.6406 L581.9531,841.6406 Z " fill="#000000"/><text fill="#000000" font-family="sans-serif" font-size="14" font-style="italic" lengthAdjust="spacing" textLength="96" x="595" y="850.7969">AggregateRoot</text><line style="stroke:#181818;stroke-width:0.5;" x1="567" x2="693" y1="861" y2="861"/><line style="stroke:#181818;stroke-width:0.5;" x1="567" x2="693" y1="869" y2="869"/></g><polygon fill="none" points="756.2284,962.1201,751.9831,980.6127,763.9277,979.4614,756.2284,962.1201" style="stroke:#181818;stroke-width:1.0;"/><path d="M757.9554,980.0371 C759.0557,991.4532 758.6533,987.2778 759.7558,998.716 " fill="none" style="stroke:#181818;stroke-width:1.0;"/><polygon fill="none" points="174.3479,337.7575,187.778,324.3548,177.0504,318.9772,174.3479,337.7575" style="stroke:#181818;stroke-width:1.0;"/><path d="M363.4701,129.1513 C338.7245,140.9314 312.8753,155.8873 292,174 C237.7048,221.1098 203.6992,279.2048 182.4142,321.666 " fill="none" style="stroke:#181818;stroke-width:1.0;stroke-dasharray:7.0,7.0;"/><polygon fill="#181818" points="563.98,202.8798,560.1696,193.7979,560.3398,199.4522,554.6855,199.6224,563.98,202.8798" style="stroke:#181818;stroke-width:1.0;"/><path d="M485.5243,129.0074 C506.1499,148.4281 529.7325,170.633 559.6117,198.7667 " fill="none" style="stroke:#181818;stroke-width:1.0;stroke-dasharray:7.0,7.0;"/><text fill="#000000" font-family="sans-serif" font-size="13" lengthAdjust="spacing" textLength="43" x="523" y="162.0283">creates</text><text fill="#000000" font-family="sans-serif" font-size="13" lengthAdjust="spacing" textLength="7" x="555.98" y="198.9081">1</text><text fill="#000000" font-family="sans-serif" font-size="13" lengthAdjust="spacing" textLength="7" x="477.5243" y="144.0357">1</text><polygon fill="none" points="286.0427,598.5381,304.5625,594.4129,298.3834,584.126,286.0427,598.5381" style="stroke:#181818;stroke-width:1.0;"/><path d="M390.5428,540.1565 C356.8915,558.0344 323.5688,576.4719 292,595 C290.0231,596.1603 303.4666,588.0719 301.4729,589.2695 " fill="none" style="stroke:#181818;stroke-width:1.0;stroke-dasharray:7.0,7.0;"/><polygon fill="#181818" points="647.329,625.9083,654.2257,618.8773,649.0788,621.2245,646.7316,616.0775,647.329,625.9083" style="stroke:#181818;stroke-width:1.0;"/><path d="M679.4164,540.0191 C667.8594,570.954 658.6464,595.6145 649.4288,620.2877 " fill="none" style="stroke:#181818;stroke-width:1.0;"/><text fill="#000000" font-family="sans-serif" font-size="13" lengthAdjust="spacing" textLength="21" x="671" y="573.0283">has</text><text fill="#000000" font-family="sans-serif" font-size="13" lengthAdjust="spacing" textLength="7" x="639.329" y="621.9366">1</text><text fill="#000000" font-family="sans-serif" font-size="13" lengthAdjust="spacing" textLength="7" x="671.4164" y="555.0475">1</text><polygon fill="#181818" points="990.1034,625.9083,986.6653,616.679,986.6055,622.3355,980.9489,622.2757,990.1034,625.9083" style="stroke:#181818;stroke-width:1.0;"/><path d="M906.0123,540.0191 C936.2995,570.954 961.7492,596.9478 985.9059,621.621 " fill="none" style="stroke:#181818;stroke-width:1.0;"/><text fill="#000000" font-family="sans-serif" font-size="13" lengthAdjust="spacing" textLength="21" x="939" y="573.0283">has</text><text fill="#000000" font-family="sans-serif" font-size="13" lengthAdjust="spacing" textLength="7" x="982.1034" y="621.9366">1</text><text fill="#000000" font-family="sans-serif" font-size="13" lengthAdjust="spacing" textLength="7" x="898.0123" y="555.0475">1</text><polygon fill="#181818" points="1220.3996,625.8305,1216.3664,616.8454,1216.6759,622.4937,1211.0275,622.8033,1220.3996,625.8305" style="stroke:#181818;stroke-width:1.0;"/><path d="M1095.6848,540.163 C1125.5113,557.6398 1154.6802,576.0001 1182,595 C1195.1045,604.1137 1203.7791,610.9369 1215.9311,621.8264 " fill="none" style="stroke:#181818;stroke-width:1.0;"/><text fill="#000000" font-family="sans-serif" font-size="13" lengthAdjust="spacing" textLength="21" x="1149" y="573.0283">has</text><text fill="#000000" font-family="sans-serif" font-size="13" lengthAdjust="spacing" textLength="7" x="1212.3996" y="621.8588">1</text><text fill="#000000" font-family="sans-serif" font-size="13" lengthAdjust="spacing" textLength="7" x="1087.6848" y="555.1913">1</text><polygon fill="#181818" points="463.6998,625.9083,473.0474,622.8065,467.3968,622.5419,467.6613,616.8913,463.6998,625.9083" style="stroke:#181818;stroke-width:1.0;"/><path d="M558.0257,540.0191 C524.0522,570.954 495.233,597.1955 468.1362,621.8687 " fill="none" style="stroke:#181818;stroke-width:1.0;"/><text fill="#000000" font-family="sans-serif" font-size="13" lengthAdjust="spacing" textLength="21" x="532" y="573.0283">has</text><text fill="#000000" font-family="sans-serif" font-size="13" lengthAdjust="spacing" textLength="7" x="455.6998" y="621.9366">1</text><text fill="#000000" font-family="sans-serif" font-size="13" lengthAdjust="spacing" textLength="7" x="559.0257" y="555.0475">1</text><polygon fill="#181818" points="812.1872,625.9083,813.6397,616.1671,810.8525,621.0897,805.93,618.3025,812.1872,625.9083" style="stroke:#181818;stroke-width:1.0;"/><path d="M788.3982,540.0191 C796.9663,570.954 803.7518,595.4527 810.5856,620.126 " fill="none" style="stroke:#181818;stroke-width:1.0;"/><text fill="#000000" font-family="sans-serif" font-size="13" lengthAdjust="spacing" textLength="21" x="798" y="573.0283">has</text><text fill="#000000" font-family="sans-serif" font-size="13" lengthAdjust="spacing" textLength="7" x="804.1872" y="621.9366">1</text><text fill="#000000" font-family="sans-serif" font-size="13" lengthAdjust="spacing" textLength="7" x="780.3982" y="555.0475">1</text><polygon fill="#181818" points="1407.84,625.6378,1404.4797,616.3799,1404.3723,622.0358,1398.7164,621.9284,1407.84,625.6378" style="stroke:#181818;stroke-width:1.0;"/><path d="M1149.5238,483.5422 C1226.6841,513.5245 1304.3431,550.3683 1372,595 C1384.8263,603.4612 1392.8442,610.0614 1403.6787,621.3154 " fill="none" style="stroke:#181818;stroke-width:1.0;"/><text fill="#000000" font-family="sans-serif" font-size="13" lengthAdjust="spacing" textLength="21" x="1342" y="573.0283">has</text><text fill="#000000" font-family="sans-serif" font-size="13" lengthAdjust="spacing" textLength="7" x="1399.84" y="621.6661">1</text><text fill="#000000" font-family="sans-serif" font-size="13" lengthAdjust="spacing" textLength="7" x="1150.5238" y="479.5705">1</text><polygon fill="none" points="747.1055,913.5145,747.5332,894.5457,736.0663,898.0828,747.1055,913.5145" style="stroke:#181818;stroke-width:1.0;"/><path d="M668.1105,742.1871 C680.287,760.159 692.9808,780.4306 703,800 C722.5466,838.1782 733.206,868.4544 741.7998,896.3143 " fill="none" style="stroke:#181818;stroke-width:1.0;stroke-dasharray:7.0,7.0;"/><polygon fill="none" points="699.4571,916.7824,684.3173,905.3462,680.4836,916.7174,699.4571,916.7824" style="stroke:#181818;stroke-width:1.0;"/><path d="M433.8668,742.3243 C461.451,785.4612 504.6926,842.8088 557,877 C608.7159,910.8046 632.1557,895.1683 691,914 C693.7724,914.8872 679.5474,910.0699 682.4005,911.0318 " fill="none" style="stroke:#181818;stroke-width:1.0;stroke-dasharray:7.0,7.0;"/><polygon fill="none" points="723.2868,998.716,710.9543,984.297,704.7694,994.5803,723.2868,998.716" style="stroke:#181818;stroke-width:1.0;"/><path d="M662.4407,962.1201 C681.4217,973.5362 688.844,978.0004 707.8618,989.4386 " fill="none" style="stroke:#181818;stroke-width:1.0;"/><polygon fill="none" points="625.6832,913.716,632.9654,896.1954,620.9966,895.3302,625.6832,913.716" style="stroke:#181818;stroke-width:1.0;"/><path d="M628.3287,877.1201 C627.5034,888.5362 627.8079,884.3246 626.981,895.7628 " fill="none" style="stroke:#181818;stroke-width:1.0;"/><polygon fill="none" points="565.763,846.8692,548.5008,838.9941,547.2282,850.9264,565.763,846.8692" style="stroke:#181818;stroke-width:1.0;"/><path d="M276.1242,773.0839 C281.383,775.9355 286.6863,778.5933 292,781 C381.8502,821.6945 477.8928,837.4976 547.8645,844.9603 " fill="none" style="stroke:#181818;stroke-width:1.0;"/><polygon fill="none" points="791.345,998.9693,809.0466,992.1391,801.4082,982.8842,791.345,998.9693" style="stroke:#181818;stroke-width:1.0;"/><path d="M1003.9004,742.2387 C961.4527,799.1569 893.3277,888.3726 830,962 C822.4148,970.8189 820.5142,973.0743 812,981 C805.5088,987.0426 812.1448,981.8025 805.2274,987.5116 " fill="none" style="stroke:#181818;stroke-width:1.0;stroke-dasharray:7.0,7.0;"/><polygon fill="none" points="790.8878,998.9936,808.0209,990.8416,799.7031,982.1922,790.8878,998.9936" style="stroke:#181818;stroke-width:1.0;"/><path d="M837.2271,742.104 C844.0257,799.8991 847.6143,890.6679 818,962 C812.1541,976.081 814.3862,976.3962 803.862,986.5169 " fill="none" style="stroke:#181818;stroke-width:1.0;stroke-dasharray:7.0,7.0;"/><polygon fill="none" points="809.2864,1000.1145,828.1166,997.786,822.9534,986.9536,809.2864,1000.1145" style="stroke:#181818;stroke-width:1.0;"/><path d="M1225.6165,742.0133 C1212.091,755.5552 1197.053,769.4186 1182,781 C1057.0692,877.1187 906.0856,953.9762 825.535,992.3698 " fill="none" style="stroke:#181818;stroke-width:1.0;stroke-dasharray:7.0,7.0;"/><polygon fill="none" points="809.1965,1012.0319,828.0787,1013.8927,825.4187,1002.1913,809.1965,1012.0319" style="stroke:#181818;stroke-width:1.0;"/><path d="M1412.459,742.1261 C1400.5851,756.1286 1386.7826,770.1829 1372,781 C1187.5236,915.9896 934.8126,983.477 826.7487,1008.042 " fill="none" style="stroke:#181818;stroke-width:1.0;stroke-dasharray:7.0,7.0;"/><!--SRC=[jLPDZziW4BtpA-YU4ZMnrEigibJ9hUH3FzIjzbfHc_MwTR05xAfHk_-z630V1XmhokOIMpo6Ds_U37upKDGS4UpGgN_Ya1qnHmG1CA3gDsemhFiZQabsXmdhAVmBeFYrX6FwW2eCFwAAz_JahOw_jx2Y676y-VBp5wvubcLmG1I9u9YoxIrK6oJy1SY_gaECmV8uTDUBQNa6mLJ01lEos9YzPH6kVnO7MCJu5c8-zJNklYB-E0BDIuXJCRwV1koUgjv3T86VsqeZf-SGTO-w9qbGFYXfPYZUtt7QaaOUAP-qIADEqJfdTts7Q4afgbj4AcpaSqgrOaCYpE602M_vASyFXszzp_FSrcKFVp1TYqXLrAegGxGaPhiIDI6nG1sdAiKA9jPhBNX4Uh7wF6ejWllfoGeuTerclqdpsy4OgnqCkUmWCxcxEcn1mczH0vphWNF-N-FzzRu_x_bbltjpnB8LRdEGhjLqBOdIq9T55z14sQXrI3oHPoB1MNi5VCf2i2batvH5X4fRBn8HicWQRRsDJx8b2X6pdXL76bq45PDqJYaIRYDWK6xP9aTGbA6dalB5Wb9UcxAAjWDlUnALRYwXzg2MaN5Qs03Rn4uXxMHT61mo9M1oC2smBe51DliYSzjXclQuPu6iQiOLLAS6MySqOKvxjEdTX4dFc5LH52JdLr9Tr-hciTUvelj1tYBoKd-9hOlCy1-EIStSOH61lsyQYXlnQJ7UHh5updQzB03XjqgM_SlzJw88wERTZG3cyl_oE_HMVmmn02uF8ldEjYlQbySSqzhlBqxlNW-SHyIkG48-U5Fbgf5jhxy2ONbvlKBSQujWfeYA2Yukkkj6qVEPUy6l2cfbMme5lE6ntmlaD2w0FmYSDOKEabDoI9npcXS50Cz_SsRcQ5ES9CAwBGanjKWY_WC0]--></g></svg>