<?xml version="1.0" encoding="us-ascii" standalone="no"?><svg xmlns="http://www.w3.org/2000/svg" xmlns:xlink="http://www.w3.org/1999/xlink" contentStyleType="text/css" height="411.5px" preserveAspectRatio="none" style="width:1346px;height:411px;background:#FFFFFF;" version="1.1" viewBox="0 0 1346 411" width="1346.5px" zoomAndPan="magnify"><defs/><g><!--cluster domain--><g id="cluster_domain"><path d="M8.25,2 L34.25,2 A1.875,1.875 0 0 1 35.5,3.25 L39,14.3105 L462.75,14.3105 A1.25,1.25 0 0 1 464,15.5605 L464,322.75 A1.25,1.25 0 0 1 462.75,324 L8.25,324 A1.25,1.25 0 0 1 7,322.75 L7,3.25 A1.25,1.25 0 0 1 8.25,2 " fill="none" style="stroke:#000000;stroke-width:0.75;"/><line style="stroke:#000000;stroke-width:0.75;" x1="7" x2="39" y1="14.3105" y2="14.3105"/><text fill="#000000" font-family="sans-serif" font-size="7" font-weight="bold" lengthAdjust="spacing" textLength="25.5" x="9" y="10.5537">domain</text></g><!--cluster Sensor--><g id="cluster_Sensor"><path d="M12.25,16.5 L37.75,16.5 A1.875,1.875 0 0 1 39,17.75 L42.5,28.8105 L458.75,28.8105 A1.25,1.25 0 0 1 460,30.0605 L460,318.75 A1.25,1.25 0 0 1 458.75,320 L12.25,320 A1.25,1.25 0 0 1 11,318.75 L11,17.75 A1.25,1.25 0 0 1 12.25,16.5 " fill="none" style="stroke:#000000;stroke-width:0.75;"/><line style="stroke:#000000;stroke-width:0.75;" x1="11" x2="42.5" y1="28.8105" y2="28.8105"/><text fill="#000000" font-family="sans-serif" font-size="7" font-weight="bold" lengthAdjust="spacing" textLength="25" x="13" y="25.0537">Sensor</text></g><!--cluster valueObject--><g id="cluster_valueObject"><path d="M469.25,217 L512.25,217 A1.875,1.875 0 0 1 513.5,218.25 L517,229.3105 L1234.25,229.3105 A1.25,1.25 0 0 1 1235.5,230.5605 L1235.5,314.25 A1.25,1.25 0 0 1 1234.25,315.5 L469.25,315.5 A1.25,1.25 0 0 1 468,314.25 L468,218.25 A1.25,1.25 0 0 1 469.25,217 " fill="none" style="stroke:#000000;stroke-width:0.75;"/><line style="stroke:#000000;stroke-width:0.75;" x1="468" x2="517" y1="229.3105" y2="229.3105"/><text fill="#000000" font-family="sans-serif" font-size="7" font-weight="bold" lengthAdjust="spacing" textLength="42.5" x="470" y="225.5537">valueObject</text></g><!--cluster ddd--><g id="cluster_ddd"><path d="M1240.75,86.25 L1254.75,86.25 A1.875,1.875 0 0 1 1256,87.5 L1259.5,98.5605 L1314.25,98.5605 A1.25,1.25 0 0 1 1315.5,99.8105 L1315.5,406.75 A1.25,1.25 0 0 1 1314.25,408 L1240.75,408 A1.25,1.25 0 0 1 1239.5,406.75 L1239.5,87.5 A1.25,1.25 0 0 1 1240.75,86.25 " fill="none" style="stroke:#000000;stroke-width:0.75;"/><line style="stroke:#000000;stroke-width:0.75;" x1="1239.5" x2="1259.5" y1="98.5605" y2="98.5605"/><text fill="#000000" font-family="sans-serif" font-size="7" font-weight="bold" lengthAdjust="spacing" textLength="13.5" x="1241.5" y="94.8037">ddd</text></g><!--class Sensor--><g id="elem_Sensor"><rect codeLine="5" fill="#F1F1F1" height="89.1738" id="Sensor" rx="1.25" ry="1.25" style="stroke:#181818;stroke-width:0.25;" width="122" x="174.5" y="227"/><ellipse cx="222.125" cy="235" fill="#B4A7E5" rx="5.5" ry="5.5" style="stroke:#181818;stroke-width:0.5;"/><path d="M222.6016,233.3203 L222.6016,236.6484 L223.4609,236.6484 Q223.7656,236.6484 223.8984,236.7656 Q224.0313,236.8828 224.0313,237.0781 Q224.0313,237.2656 223.8984,237.3828 Q223.7656,237.5 223.4609,237.5 L220.8906,237.5 Q220.5859,237.5 220.4531,237.3828 Q220.3203,237.2656 220.3203,237.0703 Q220.3203,236.8828 220.4531,236.7656 Q220.5859,236.6484 220.8906,236.6484 L221.75,236.6484 L221.75,233.3203 L220.8906,233.3203 Q220.5859,233.3203 220.4531,233.2031 Q220.3203,233.0859 220.3203,232.8906 Q220.3203,232.7031 220.4531,232.5859 Q220.5859,232.4688 220.8906,232.4688 L223.4609,232.4688 Q223.7656,232.4688 223.8984,232.5859 Q224.0313,232.7031 224.0313,232.8906 Q224.0313,233.0859 223.8984,233.2031 Q223.7656,233.3203 223.4609,233.3203 L222.6016,233.3203 Z " fill="#000000"/><text fill="#000000" font-family="sans-serif" font-size="7" font-style="italic" lengthAdjust="spacing" textLength="22.5" x="232.375" y="237.8984">Sensor</text><line style="stroke:#181818;stroke-width:0.25;" x1="175" x2="296" y1="243" y2="243"/><ellipse cx="180" cy="250.4053" fill="none" rx="1.5" ry="1.5" style="stroke:#038048;stroke-width:0.5;"/><text fill="#000000" font-family="sans-serif" font-size="7" lengthAdjust="spacing" textLength="72.5" x="184.5" y="252.5537">getName: SensorName</text><line style="stroke:#181818;stroke-width:0.25;" x1="175" x2="296" y1="256.3105" y2="256.3105"/><ellipse cx="180" cy="263.7158" fill="#84BE84" rx="1.5" ry="1.5" style="stroke:#038048;stroke-width:0.5;"/><text fill="#000000" font-family="sans-serif" font-size="7" lengthAdjust="spacing" textLength="54.5" x="184.5" y="265.8643">getID(): SensorID</text><ellipse cx="180" cy="273.0264" fill="#84BE84" rx="1.5" ry="1.5" style="stroke:#038048;stroke-width:0.5;"/><text fill="#000000" font-family="sans-serif" font-size="7" lengthAdjust="spacing" textLength="86" x="184.5" y="275.1748">getModelPath(): ModelPath</text><ellipse cx="180" cy="282.3369" fill="#84BE84" rx="1.5" ry="1.5" style="stroke:#038048;stroke-width:0.5;"/><text fill="#000000" font-family="sans-serif" font-size="7" lengthAdjust="spacing" textLength="109" x="184.5" y="284.4854">getSensorTypeID(): SensorTypeID</text><ellipse cx="180" cy="291.6475" fill="#84BE84" rx="1.5" ry="1.5" style="stroke:#038048;stroke-width:0.5;"/><text fill="#000000" font-family="sans-serif" font-size="7" lengthAdjust="spacing" textLength="52" x="184.5" y="293.7959">toString(): String</text><ellipse cx="180" cy="300.958" fill="#84BE84" rx="1.5" ry="1.5" style="stroke:#038048;stroke-width:0.5;"/><text fill="#000000" font-family="sans-serif" font-size="7" lengthAdjust="spacing" textLength="75.5" x="184.5" y="303.1064">getValue(): ValueObject</text><ellipse cx="180" cy="310.2686" fill="#84BE84" rx="1.5" ry="1.5" style="stroke:#038048;stroke-width:0.5;"/><text fill="#000000" font-family="sans-serif" font-size="7" lengthAdjust="spacing" textLength="75" x="184.5" y="312.417">getDeviceID(): DeviceID</text></g><!--class SunriseTimeSensor--><g id="elem_SunriseTimeSensor"><rect codeLine="15" fill="#F1F1F1" height="163.6582" id="SunriseTimeSensor" rx="1.25" ry="1.25" style="stroke:#181818;stroke-width:0.25;" width="441" x="15" y="31"/><ellipse cx="202.375" cy="39" fill="#ADD1B2" rx="5.5" ry="5.5" style="stroke:#181818;stroke-width:0.5;"/><path d="M203.7578,36.9375 Q203.8359,36.8281 203.9297,36.7734 Q204.0234,36.7188 204.1328,36.7188 Q204.3203,36.7188 204.4375,36.8516 Q204.5547,36.9766 204.5547,37.2813 L204.5547,38.0078 Q204.5547,38.3125 204.4375,38.4453 Q204.3203,38.5781 204.1328,38.5781 Q203.9609,38.5781 203.8594,38.4766 Q203.7578,38.3828 203.7031,38.125 Q203.6797,37.9453 203.5859,37.8516 Q203.4219,37.6641 203.1172,37.5547 Q202.8125,37.4453 202.5,37.4453 Q202.1172,37.4453 201.7969,37.6094 Q201.4844,37.7734 201.2344,38.1484 Q200.9922,38.5234 200.9922,39.0391 L200.9922,39.5859 Q200.9922,40.2031 201.4375,40.6172 Q201.8828,41.0234 202.6797,41.0234 Q203.1484,41.0234 203.4766,40.8984 Q203.6719,40.8203 203.8828,40.6016 Q204.0156,40.4688 204.0859,40.4297 Q204.1641,40.3906 204.2656,40.3906 Q204.4297,40.3906 204.5547,40.5234 Q204.6875,40.6484 204.6875,40.8203 Q204.6875,40.9922 204.5156,41.1953 Q204.2656,41.4844 203.8672,41.6484 Q203.3281,41.875 202.6797,41.875 Q201.9219,41.875 201.3203,41.5625 Q200.8281,41.3125 200.4844,40.7813 Q200.1406,40.2422 200.1406,39.6016 L200.1406,39.0234 Q200.1406,38.3594 200.4453,37.7891 Q200.7578,37.2109 201.3047,36.9063 Q201.8516,36.5938 202.4688,36.5938 Q202.8359,36.5938 203.1563,36.6797 Q203.4844,36.7578 203.7578,36.9375 Z " fill="#000000"/><text fill="#000000" font-family="sans-serif" font-size="7" lengthAdjust="spacing" textLength="62" x="212.625" y="41.8984">SunriseTimeSensor</text><line style="stroke:#181818;stroke-width:0.25;" x1="15.5" x2="455.5" y1="47" y2="47"/><rect fill="none" height="3" style="stroke:#C82930;stroke-width:0.5;" width="3" x="19" y="52.9053"/><text fill="#000000" font-family="sans-serif" font-size="7" lengthAdjust="spacing" textLength="77" x="25" y="56.5537">_modelPath : ModelPath</text><rect fill="none" height="3" style="stroke:#C82930;stroke-width:0.5;" width="3" x="19" y="62.2158"/><text fill="#000000" font-family="sans-serif" font-size="7" lengthAdjust="spacing" textLength="90" x="25" y="65.8643">_sensorName : SensorName</text><rect fill="none" height="3" style="stroke:#C82930;stroke-width:0.5;" width="3" x="19" y="71.5264"/><text fill="#000000" font-family="sans-serif" font-size="7" lengthAdjust="spacing" textLength="67" x="25" y="75.1748">_sensorID : SensorID</text><rect fill="none" height="3" style="stroke:#C82930;stroke-width:0.5;" width="3" x="19" y="80.8369"/><text fill="#000000" font-family="sans-serif" font-size="7" lengthAdjust="spacing" textLength="99" x="25" y="84.4854">_sensorTypeID : SensorTypeID</text><rect fill="none" height="3" style="stroke:#C82930;stroke-width:0.5;" width="3" x="19" y="90.1475"/><text fill="#000000" font-family="sans-serif" font-size="7" lengthAdjust="spacing" textLength="170" x="25" y="93.7959">_SunriseTimeSensorValue : SunriseTimeSensorValue</text><rect fill="none" height="3" style="stroke:#C82930;stroke-width:0.5;" width="3" x="19" y="99.458"/><text fill="#000000" font-family="sans-serif" font-size="7" lengthAdjust="spacing" textLength="65" x="25" y="103.1064">_deviceID : DeviceID</text><rect fill="none" height="3" style="stroke:#C82930;stroke-width:0.5;" width="3" x="19" y="108.7686"/><text fill="#000000" font-family="sans-serif" font-size="7" lengthAdjust="spacing" textLength="36" x="25" y="112.417">_gps : GPS</text><line style="stroke:#181818;stroke-width:0.25;" x1="15.5" x2="455.5" y1="116.1738" y2="116.1738"/><ellipse cx="20.5" cy="123.5791" fill="#84BE84" rx="1.5" ry="1.5" style="stroke:#038048;stroke-width:0.5;"/><text fill="#000000" font-family="sans-serif" font-size="7" lengthAdjust="spacing" textLength="428" x="25" y="125.7275">SunriseTimeSensor(deviceID : DeviceID, modelPath : ModelPath, sensorTypeID : SensorTypeID, sensorName : SensorName, gps: GPS)</text><ellipse cx="20.5" cy="132.8896" fill="#84BE84" rx="1.5" ry="1.5" style="stroke:#038048;stroke-width:0.5;"/><text fill="#000000" font-family="sans-serif" font-size="7" lengthAdjust="spacing" textLength="56.5" x="25" y="135.0381">getID() : SensorID</text><ellipse cx="20.5" cy="142.2002" fill="#84BE84" rx="1.5" ry="1.5" style="stroke:#038048;stroke-width:0.5;"/><text fill="#000000" font-family="sans-serif" font-size="7" lengthAdjust="spacing" textLength="79.5" x="25" y="144.3486">getName() : SensorName</text><ellipse cx="20.5" cy="151.5107" fill="#84BE84" rx="1.5" ry="1.5" style="stroke:#038048;stroke-width:0.5;"/><text fill="#000000" font-family="sans-serif" font-size="7" lengthAdjust="spacing" textLength="88" x="25" y="153.6592">getModelPath() : ModelPath</text><ellipse cx="20.5" cy="160.8213" fill="#84BE84" rx="1.5" ry="1.5" style="stroke:#038048;stroke-width:0.5;"/><text fill="#000000" font-family="sans-serif" font-size="7" lengthAdjust="spacing" textLength="111" x="25" y="162.9697">getSensorTypeID() : SensorTypeID</text><ellipse cx="20.5" cy="170.1318" fill="#84BE84" rx="1.5" ry="1.5" style="stroke:#038048;stroke-width:0.5;"/><text fill="#000000" font-family="sans-serif" font-size="7" lengthAdjust="spacing" textLength="77" x="25" y="172.2803">getDeviceID() : DeviceID</text><ellipse cx="20.5" cy="179.4424" fill="#84BE84" rx="1.5" ry="1.5" style="stroke:#038048;stroke-width:0.5;"/><text fill="#000000" font-family="sans-serif" font-size="7" lengthAdjust="spacing" textLength="77.5" x="25" y="181.5908">getValue() : ValueObject</text><ellipse cx="20.5" cy="188.7529" fill="#84BE84" rx="1.5" ry="1.5" style="stroke:#038048;stroke-width:0.5;"/><text fill="#000000" font-family="sans-serif" font-size="7" lengthAdjust="spacing" textLength="125.5" x="25" y="190.9014">getValue(LocalDate date) : ValueObject</text></g><!--class SunriseTimeSensorValue--><g id="elem_SunriseTimeSensorValue"><rect codeLine="36" fill="#F1F1F1" height="51.9316" id="SunriseTimeSensorValue" rx="1.25" ry="1.25" style="stroke:#181818;stroke-width:0.25;" width="153.5" x="472.25" y="245.5"/><ellipse cx="506.875" cy="253.5" fill="#ADD1B2" rx="5.5" ry="5.5" style="stroke:#181818;stroke-width:0.5;"/><path d="M508.2578,251.4375 Q508.3359,251.3281 508.4297,251.2734 Q508.5234,251.2188 508.6328,251.2188 Q508.8203,251.2188 508.9375,251.3516 Q509.0547,251.4766 509.0547,251.7813 L509.0547,252.5078 Q509.0547,252.8125 508.9375,252.9453 Q508.8203,253.0781 508.6328,253.0781 Q508.4609,253.0781 508.3594,252.9766 Q508.2578,252.8828 508.2031,252.625 Q508.1797,252.4453 508.0859,252.3516 Q507.9219,252.1641 507.6172,252.0547 Q507.3125,251.9453 507,251.9453 Q506.6172,251.9453 506.2969,252.1094 Q505.9844,252.2734 505.7344,252.6484 Q505.4922,253.0234 505.4922,253.5391 L505.4922,254.0859 Q505.4922,254.7031 505.9375,255.1172 Q506.3828,255.5234 507.1797,255.5234 Q507.6484,255.5234 507.9766,255.3984 Q508.1719,255.3203 508.3828,255.1016 Q508.5156,254.9688 508.5859,254.9297 Q508.6641,254.8906 508.7656,254.8906 Q508.9297,254.8906 509.0547,255.0234 Q509.1875,255.1484 509.1875,255.3203 Q509.1875,255.4922 509.0156,255.6953 Q508.7656,255.9844 508.3672,256.1484 Q507.8281,256.375 507.1797,256.375 Q506.4219,256.375 505.8203,256.0625 Q505.3281,255.8125 504.9844,255.2813 Q504.6406,254.7422 504.6406,254.1016 L504.6406,253.5234 Q504.6406,252.8594 504.9453,252.2891 Q505.2578,251.7109 505.8047,251.4063 Q506.3516,251.0938 506.9688,251.0938 Q507.3359,251.0938 507.6563,251.1797 Q507.9844,251.2578 508.2578,251.4375 Z " fill="#000000"/><text fill="#000000" font-family="sans-serif" font-size="7" lengthAdjust="spacing" textLength="80" x="517.125" y="256.3984">SunriseTimeSensorValue</text><line style="stroke:#181818;stroke-width:0.25;" x1="472.75" x2="625.25" y1="261.5" y2="261.5"/><rect fill="none" height="3" style="stroke:#C82930;stroke-width:0.5;" width="3" x="476.25" y="267.4053"/><text fill="#000000" font-family="sans-serif" font-size="7" lengthAdjust="spacing" textLength="59.5" x="482.25" y="271.0537">_value : LocalTime</text><line style="stroke:#181818;stroke-width:0.25;" x1="472.75" x2="625.25" y1="274.8105" y2="274.8105"/><ellipse cx="477.75" cy="282.2158" fill="#84BE84" rx="1.5" ry="1.5" style="stroke:#038048;stroke-width:0.5;"/><text fill="#000000" font-family="sans-serif" font-size="7" lengthAdjust="spacing" textLength="140.5" x="482.25" y="284.3643">SunriseTimeSensorValue(value : LocalTime)</text><ellipse cx="477.75" cy="291.5264" fill="#84BE84" rx="1.5" ry="1.5" style="stroke:#038048;stroke-width:0.5;"/><text fill="#000000" font-family="sans-serif" font-size="7" lengthAdjust="spacing" textLength="54" x="482.25" y="293.6748">toString() : String</text></g><!--class SensorTypeID--><g id="elem_SensorTypeID"><rect codeLine="41" fill="#F1F1F1" height="79.8633" id="SensorTypeID" rx="1.25" ry="1.25" style="stroke:#181818;stroke-width:0.25;" width="129" x="635" y="231.5"/><ellipse cx="674.875" cy="239.5" fill="#ADD1B2" rx="5.5" ry="5.5" style="stroke:#181818;stroke-width:0.5;"/><path d="M676.2578,237.4375 Q676.3359,237.3281 676.4297,237.2734 Q676.5234,237.2188 676.6328,237.2188 Q676.8203,237.2188 676.9375,237.3516 Q677.0547,237.4766 677.0547,237.7813 L677.0547,238.5078 Q677.0547,238.8125 676.9375,238.9453 Q676.8203,239.0781 676.6328,239.0781 Q676.4609,239.0781 676.3594,238.9766 Q676.2578,238.8828 676.2031,238.625 Q676.1797,238.4453 676.0859,238.3516 Q675.9219,238.1641 675.6172,238.0547 Q675.3125,237.9453 675,237.9453 Q674.6172,237.9453 674.2969,238.1094 Q673.9844,238.2734 673.7344,238.6484 Q673.4922,239.0234 673.4922,239.5391 L673.4922,240.0859 Q673.4922,240.7031 673.9375,241.1172 Q674.3828,241.5234 675.1797,241.5234 Q675.6484,241.5234 675.9766,241.3984 Q676.1719,241.3203 676.3828,241.1016 Q676.5156,240.9688 676.5859,240.9297 Q676.6641,240.8906 676.7656,240.8906 Q676.9297,240.8906 677.0547,241.0234 Q677.1875,241.1484 677.1875,241.3203 Q677.1875,241.4922 677.0156,241.6953 Q676.7656,241.9844 676.3672,242.1484 Q675.8281,242.375 675.1797,242.375 Q674.4219,242.375 673.8203,242.0625 Q673.3281,241.8125 672.9844,241.2813 Q672.6406,240.7422 672.6406,240.1016 L672.6406,239.5234 Q672.6406,238.8594 672.9453,238.2891 Q673.2578,237.7109 673.8047,237.4063 Q674.3516,237.0938 674.9688,237.0938 Q675.3359,237.0938 675.6563,237.1797 Q675.9844,237.2578 676.2578,237.4375 Z " fill="#000000"/><text fill="#000000" font-family="sans-serif" font-size="7" lengthAdjust="spacing" textLength="45" x="685.125" y="242.3984">SensorTypeID</text><line style="stroke:#181818;stroke-width:0.25;" x1="635.5" x2="763.5" y1="247.5" y2="247.5"/><rect fill="none" height="3" style="stroke:#C82930;stroke-width:0.5;" width="3" x="639" y="253.4053"/><text fill="#000000" font-family="sans-serif" font-size="7" lengthAdjust="spacing" textLength="32" x="645" y="257.0537">_id: String</text><line style="stroke:#181818;stroke-width:0.25;" x1="635.5" x2="763.5" y1="260.8105" y2="260.8105"/><ellipse cx="640.5" cy="268.2158" fill="#84BE84" rx="1.5" ry="1.5" style="stroke:#038048;stroke-width:0.5;"/><text fill="#000000" font-family="sans-serif" font-size="7" lengthAdjust="spacing" textLength="116" x="645" y="270.3643">SensorTypeID(strDescription: String)</text><ellipse cx="640.5" cy="277.5264" fill="#84BE84" rx="1.5" ry="1.5" style="stroke:#038048;stroke-width:0.5;"/><text fill="#000000" font-family="sans-serif" font-size="7" lengthAdjust="spacing" textLength="45" x="645" y="279.6748">getId() : String</text><ellipse cx="640.5" cy="286.8369" fill="#84BE84" rx="1.5" ry="1.5" style="stroke:#038048;stroke-width:0.5;"/><text fill="#000000" font-family="sans-serif" font-size="7" lengthAdjust="spacing" textLength="51" x="645" y="288.9854">hashCode() : int</text><ellipse cx="640.5" cy="296.1475" fill="#84BE84" rx="1.5" ry="1.5" style="stroke:#038048;stroke-width:0.5;"/><text fill="#000000" font-family="sans-serif" font-size="7" lengthAdjust="spacing" textLength="91.5" x="645" y="298.2959">equals(obj: Object) : boolean</text><ellipse cx="640.5" cy="305.458" fill="#84BE84" rx="1.5" ry="1.5" style="stroke:#038048;stroke-width:0.5;"/><text fill="#000000" font-family="sans-serif" font-size="7" lengthAdjust="spacing" textLength="54" x="645" y="307.6064">toString() : String</text></g><!--class SensorModelID--><g id="elem_SensorModelID"><rect codeLine="50" fill="#F1F1F1" height="79.8633" id="SensorModelID" rx="1.25" ry="1.25" style="stroke:#181818;stroke-width:0.25;" width="134" x="773" y="231.5"/><ellipse cx="813.875" cy="239.5" fill="#ADD1B2" rx="5.5" ry="5.5" style="stroke:#181818;stroke-width:0.5;"/><path d="M815.2578,237.4375 Q815.3359,237.3281 815.4297,237.2734 Q815.5234,237.2188 815.6328,237.2188 Q815.8203,237.2188 815.9375,237.3516 Q816.0547,237.4766 816.0547,237.7813 L816.0547,238.5078 Q816.0547,238.8125 815.9375,238.9453 Q815.8203,239.0781 815.6328,239.0781 Q815.4609,239.0781 815.3594,238.9766 Q815.2578,238.8828 815.2031,238.625 Q815.1797,238.4453 815.0859,238.3516 Q814.9219,238.1641 814.6172,238.0547 Q814.3125,237.9453 814,237.9453 Q813.6172,237.9453 813.2969,238.1094 Q812.9844,238.2734 812.7344,238.6484 Q812.4922,239.0234 812.4922,239.5391 L812.4922,240.0859 Q812.4922,240.7031 812.9375,241.1172 Q813.3828,241.5234 814.1797,241.5234 Q814.6484,241.5234 814.9766,241.3984 Q815.1719,241.3203 815.3828,241.1016 Q815.5156,240.9688 815.5859,240.9297 Q815.6641,240.8906 815.7656,240.8906 Q815.9297,240.8906 816.0547,241.0234 Q816.1875,241.1484 816.1875,241.3203 Q816.1875,241.4922 816.0156,241.6953 Q815.7656,241.9844 815.3672,242.1484 Q814.8281,242.375 814.1797,242.375 Q813.4219,242.375 812.8203,242.0625 Q812.3281,241.8125 811.9844,241.2813 Q811.6406,240.7422 811.6406,240.1016 L811.6406,239.5234 Q811.6406,238.8594 811.9453,238.2891 Q812.2578,237.7109 812.8047,237.4063 Q813.3516,237.0938 813.9688,237.0938 Q814.3359,237.0938 814.6563,237.1797 Q814.9844,237.2578 815.2578,237.4375 Z " fill="#000000"/><text fill="#000000" font-family="sans-serif" font-size="7" lengthAdjust="spacing" textLength="48" x="824.125" y="242.3984">SensorModelID</text><line style="stroke:#181818;stroke-width:0.25;" x1="773.5" x2="906.5" y1="247.5" y2="247.5"/><rect fill="none" height="3" style="stroke:#C82930;stroke-width:0.5;" width="3" x="777" y="253.4053"/><text fill="#000000" font-family="sans-serif" font-size="7" lengthAdjust="spacing" textLength="73.5" x="783" y="257.0537">_sensorModelID: String</text><line style="stroke:#181818;stroke-width:0.25;" x1="773.5" x2="906.5" y1="260.8105" y2="260.8105"/><ellipse cx="778.5" cy="268.2158" fill="#84BE84" rx="1.5" ry="1.5" style="stroke:#038048;stroke-width:0.5;"/><text fill="#000000" font-family="sans-serif" font-size="7" lengthAdjust="spacing" textLength="121" x="783" y="270.3643">SensorModelID(strDescription : String)</text><ellipse cx="778.5" cy="277.5264" fill="#84BE84" rx="1.5" ry="1.5" style="stroke:#038048;stroke-width:0.5;"/><text fill="#000000" font-family="sans-serif" font-size="7" lengthAdjust="spacing" textLength="45" x="783" y="279.6748">getId() : String</text><ellipse cx="778.5" cy="286.8369" fill="#84BE84" rx="1.5" ry="1.5" style="stroke:#038048;stroke-width:0.5;"/><text fill="#000000" font-family="sans-serif" font-size="7" lengthAdjust="spacing" textLength="51" x="783" y="288.9854">hashCode() : int</text><ellipse cx="778.5" cy="296.1475" fill="#84BE84" rx="1.5" ry="1.5" style="stroke:#038048;stroke-width:0.5;"/><text fill="#000000" font-family="sans-serif" font-size="7" lengthAdjust="spacing" textLength="91.5" x="783" y="298.2959">equals(obj: Object) : boolean</text><ellipse cx="778.5" cy="305.458" fill="#84BE84" rx="1.5" ry="1.5" style="stroke:#038048;stroke-width:0.5;"/><text fill="#000000" font-family="sans-serif" font-size="7" lengthAdjust="spacing" textLength="54" x="783" y="307.6064">toString() : String</text></g><!--class SensorID--><g id="elem_SensorID"><rect codeLine="59" fill="#F1F1F1" height="79.8633" id="SensorID" rx="1.25" ry="1.25" style="stroke:#181818;stroke-width:0.25;" width="104.5" x="916.25" y="231.5"/><ellipse cx="951.875" cy="239.5" fill="#ADD1B2" rx="5.5" ry="5.5" style="stroke:#181818;stroke-width:0.5;"/><path d="M953.2578,237.4375 Q953.3359,237.3281 953.4297,237.2734 Q953.5234,237.2188 953.6328,237.2188 Q953.8203,237.2188 953.9375,237.3516 Q954.0547,237.4766 954.0547,237.7813 L954.0547,238.5078 Q954.0547,238.8125 953.9375,238.9453 Q953.8203,239.0781 953.6328,239.0781 Q953.4609,239.0781 953.3594,238.9766 Q953.2578,238.8828 953.2031,238.625 Q953.1797,238.4453 953.0859,238.3516 Q952.9219,238.1641 952.6172,238.0547 Q952.3125,237.9453 952,237.9453 Q951.6172,237.9453 951.2969,238.1094 Q950.9844,238.2734 950.7344,238.6484 Q950.4922,239.0234 950.4922,239.5391 L950.4922,240.0859 Q950.4922,240.7031 950.9375,241.1172 Q951.3828,241.5234 952.1797,241.5234 Q952.6484,241.5234 952.9766,241.3984 Q953.1719,241.3203 953.3828,241.1016 Q953.5156,240.9688 953.5859,240.9297 Q953.6641,240.8906 953.7656,240.8906 Q953.9297,240.8906 954.0547,241.0234 Q954.1875,241.1484 954.1875,241.3203 Q954.1875,241.4922 954.0156,241.6953 Q953.7656,241.9844 953.3672,242.1484 Q952.8281,242.375 952.1797,242.375 Q951.4219,242.375 950.8203,242.0625 Q950.3281,241.8125 949.9844,241.2813 Q949.6406,240.7422 949.6406,240.1016 L949.6406,239.5234 Q949.6406,238.8594 949.9453,238.2891 Q950.2578,237.7109 950.8047,237.4063 Q951.3516,237.0938 951.9688,237.0938 Q952.3359,237.0938 952.6563,237.1797 Q952.9844,237.2578 953.2578,237.4375 Z " fill="#000000"/><text fill="#000000" font-family="sans-serif" font-size="7" lengthAdjust="spacing" textLength="29" x="962.125" y="242.3984">SensorID</text><line style="stroke:#181818;stroke-width:0.25;" x1="916.75" x2="1020.25" y1="247.5" y2="247.5"/><rect fill="none" height="3" style="stroke:#C82930;stroke-width:0.5;" width="3" x="920.25" y="253.4053"/><text fill="#000000" font-family="sans-serif" font-size="7" lengthAdjust="spacing" textLength="32" x="926.25" y="257.0537">_id: String</text><line style="stroke:#181818;stroke-width:0.25;" x1="916.75" x2="1020.25" y1="260.8105" y2="260.8105"/><ellipse cx="921.75" cy="268.2158" fill="#84BE84" rx="1.5" ry="1.5" style="stroke:#038048;stroke-width:0.5;"/><text fill="#000000" font-family="sans-serif" font-size="7" lengthAdjust="spacing" textLength="62" x="926.25" y="270.3643">SensorID(id: String)</text><ellipse cx="921.75" cy="277.5264" fill="#84BE84" rx="1.5" ry="1.5" style="stroke:#038048;stroke-width:0.5;"/><text fill="#000000" font-family="sans-serif" font-size="7" lengthAdjust="spacing" textLength="46" x="926.25" y="279.6748">getID() : String</text><ellipse cx="921.75" cy="286.8369" fill="#84BE84" rx="1.5" ry="1.5" style="stroke:#038048;stroke-width:0.5;"/><text fill="#000000" font-family="sans-serif" font-size="7" lengthAdjust="spacing" textLength="51" x="926.25" y="288.9854">hashCode() : int</text><ellipse cx="921.75" cy="296.1475" fill="#84BE84" rx="1.5" ry="1.5" style="stroke:#038048;stroke-width:0.5;"/><text fill="#000000" font-family="sans-serif" font-size="7" lengthAdjust="spacing" textLength="91.5" x="926.25" y="298.2959">equals(obj: Object) : boolean</text><ellipse cx="921.75" cy="305.458" fill="#84BE84" rx="1.5" ry="1.5" style="stroke:#038048;stroke-width:0.5;"/><text fill="#000000" font-family="sans-serif" font-size="7" lengthAdjust="spacing" textLength="54" x="926.25" y="307.6064">toString() : String</text></g><!--class DeviceID--><g id="elem_DeviceID"><rect codeLine="68" fill="#F1F1F1" height="79.8633" id="DeviceID" rx="1.25" ry="1.25" style="stroke:#181818;stroke-width:0.25;" width="104.5" x="1029.75" y="231.5"/><ellipse cx="1065.875" cy="239.5" fill="#ADD1B2" rx="5.5" ry="5.5" style="stroke:#181818;stroke-width:0.5;"/><path d="M1067.2578,237.4375 Q1067.3359,237.3281 1067.4297,237.2734 Q1067.5234,237.2188 1067.6328,237.2188 Q1067.8203,237.2188 1067.9375,237.3516 Q1068.0547,237.4766 1068.0547,237.7813 L1068.0547,238.5078 Q1068.0547,238.8125 1067.9375,238.9453 Q1067.8203,239.0781 1067.6328,239.0781 Q1067.4609,239.0781 1067.3594,238.9766 Q1067.2578,238.8828 1067.2031,238.625 Q1067.1797,238.4453 1067.0859,238.3516 Q1066.9219,238.1641 1066.6172,238.0547 Q1066.3125,237.9453 1066,237.9453 Q1065.6172,237.9453 1065.2969,238.1094 Q1064.9844,238.2734 1064.7344,238.6484 Q1064.4922,239.0234 1064.4922,239.5391 L1064.4922,240.0859 Q1064.4922,240.7031 1064.9375,241.1172 Q1065.3828,241.5234 1066.1797,241.5234 Q1066.6484,241.5234 1066.9766,241.3984 Q1067.1719,241.3203 1067.3828,241.1016 Q1067.5156,240.9688 1067.5859,240.9297 Q1067.6641,240.8906 1067.7656,240.8906 Q1067.9297,240.8906 1068.0547,241.0234 Q1068.1875,241.1484 1068.1875,241.3203 Q1068.1875,241.4922 1068.0156,241.6953 Q1067.7656,241.9844 1067.3672,242.1484 Q1066.8281,242.375 1066.1797,242.375 Q1065.4219,242.375 1064.8203,242.0625 Q1064.3281,241.8125 1063.9844,241.2813 Q1063.6406,240.7422 1063.6406,240.1016 L1063.6406,239.5234 Q1063.6406,238.8594 1063.9453,238.2891 Q1064.2578,237.7109 1064.8047,237.4063 Q1065.3516,237.0938 1065.9688,237.0938 Q1066.3359,237.0938 1066.6563,237.1797 Q1066.9844,237.2578 1067.2578,237.4375 Z " fill="#000000"/><text fill="#000000" font-family="sans-serif" font-size="7" lengthAdjust="spacing" textLength="28" x="1076.125" y="242.3984">DeviceID</text><line style="stroke:#181818;stroke-width:0.25;" x1="1030.25" x2="1133.75" y1="247.5" y2="247.5"/><rect fill="none" height="3" style="stroke:#C82930;stroke-width:0.5;" width="3" x="1033.75" y="253.4053"/><text fill="#000000" font-family="sans-serif" font-size="7" lengthAdjust="spacing" textLength="32" x="1039.75" y="257.0537">_id: String</text><line style="stroke:#181818;stroke-width:0.25;" x1="1030.25" x2="1133.75" y1="260.8105" y2="260.8105"/><ellipse cx="1035.25" cy="268.2158" fill="#84BE84" rx="1.5" ry="1.5" style="stroke:#038048;stroke-width:0.5;"/><text fill="#000000" font-family="sans-serif" font-size="7" lengthAdjust="spacing" textLength="59" x="1039.75" y="270.3643">DeviceID(String id)</text><ellipse cx="1035.25" cy="277.5264" fill="#84BE84" rx="1.5" ry="1.5" style="stroke:#038048;stroke-width:0.5;"/><text fill="#000000" font-family="sans-serif" font-size="7" lengthAdjust="spacing" textLength="46" x="1039.75" y="279.6748">getID() : String</text><ellipse cx="1035.25" cy="286.8369" fill="#84BE84" rx="1.5" ry="1.5" style="stroke:#038048;stroke-width:0.5;"/><text fill="#000000" font-family="sans-serif" font-size="7" lengthAdjust="spacing" textLength="51" x="1039.75" y="288.9854">hashCode() : int</text><ellipse cx="1035.25" cy="296.1475" fill="#84BE84" rx="1.5" ry="1.5" style="stroke:#038048;stroke-width:0.5;"/><text fill="#000000" font-family="sans-serif" font-size="7" lengthAdjust="spacing" textLength="91.5" x="1039.75" y="298.2959">equals(obj: Object) : boolean</text><ellipse cx="1035.25" cy="305.458" fill="#84BE84" rx="1.5" ry="1.5" style="stroke:#038048;stroke-width:0.5;"/><text fill="#000000" font-family="sans-serif" font-size="7" lengthAdjust="spacing" textLength="54" x="1039.75" y="307.6064">toString() : String</text></g><!--class ModelPath--><g id="elem_ModelPath"><rect codeLine="77" fill="#F1F1F1" height="51.9316" id="ModelPath" rx="1.25" ry="1.25" style="stroke:#181818;stroke-width:0.25;" width="88" x="1143.5" y="245.5"/><ellipse cx="1168.625" cy="253.5" fill="#ADD1B2" rx="5.5" ry="5.5" style="stroke:#181818;stroke-width:0.5;"/><path d="M1170.0078,251.4375 Q1170.0859,251.3281 1170.1797,251.2734 Q1170.2734,251.2188 1170.3828,251.2188 Q1170.5703,251.2188 1170.6875,251.3516 Q1170.8047,251.4766 1170.8047,251.7813 L1170.8047,252.5078 Q1170.8047,252.8125 1170.6875,252.9453 Q1170.5703,253.0781 1170.3828,253.0781 Q1170.2109,253.0781 1170.1094,252.9766 Q1170.0078,252.8828 1169.9531,252.625 Q1169.9297,252.4453 1169.8359,252.3516 Q1169.6719,252.1641 1169.3672,252.0547 Q1169.0625,251.9453 1168.75,251.9453 Q1168.3672,251.9453 1168.0469,252.1094 Q1167.7344,252.2734 1167.4844,252.6484 Q1167.2422,253.0234 1167.2422,253.5391 L1167.2422,254.0859 Q1167.2422,254.7031 1167.6875,255.1172 Q1168.1328,255.5234 1168.9297,255.5234 Q1169.3984,255.5234 1169.7266,255.3984 Q1169.9219,255.3203 1170.1328,255.1016 Q1170.2656,254.9688 1170.3359,254.9297 Q1170.4141,254.8906 1170.5156,254.8906 Q1170.6797,254.8906 1170.8047,255.0234 Q1170.9375,255.1484 1170.9375,255.3203 Q1170.9375,255.4922 1170.7656,255.6953 Q1170.5156,255.9844 1170.1172,256.1484 Q1169.5781,256.375 1168.9297,256.375 Q1168.1719,256.375 1167.5703,256.0625 Q1167.0781,255.8125 1166.7344,255.2813 Q1166.3906,254.7422 1166.3906,254.1016 L1166.3906,253.5234 Q1166.3906,252.8594 1166.6953,252.2891 Q1167.0078,251.7109 1167.5547,251.4063 Q1168.1016,251.0938 1168.7188,251.0938 Q1169.0859,251.0938 1169.4063,251.1797 Q1169.7344,251.2578 1170.0078,251.4375 Z " fill="#000000"/><text fill="#000000" font-family="sans-serif" font-size="7" lengthAdjust="spacing" textLength="33.5" x="1178.875" y="256.3984">ModelPath</text><line style="stroke:#181818;stroke-width:0.25;" x1="1144" x2="1231" y1="261.5" y2="261.5"/><rect fill="none" height="3" style="stroke:#C82930;stroke-width:0.5;" width="3" x="1147.5" y="267.4053"/><text fill="#000000" font-family="sans-serif" font-size="7" lengthAdjust="spacing" textLength="40.5" x="1153.5" y="271.0537">_path: String</text><line style="stroke:#181818;stroke-width:0.25;" x1="1144" x2="1231" y1="274.8105" y2="274.8105"/><ellipse cx="1149" cy="282.2158" fill="#84BE84" rx="1.5" ry="1.5" style="stroke:#038048;stroke-width:0.5;"/><text fill="#000000" font-family="sans-serif" font-size="7" lengthAdjust="spacing" textLength="75" x="1153.5" y="284.3643">ModelPath(path: String)</text><ellipse cx="1149" cy="291.5264" fill="#84BE84" rx="1.5" ry="1.5" style="stroke:#038048;stroke-width:0.5;"/><text fill="#000000" font-family="sans-serif" font-size="7" lengthAdjust="spacing" textLength="54" x="1153.5" y="293.6748">toString() : String</text></g><!--class DomainEntity--><g id="elem_DomainEntity"><rect codeLine="86" fill="#F1F1F1" height="24" id="DomainEntity" rx="1.25" ry="1.25" style="stroke:#181818;stroke-width:0.25;" width="57.5" x="1243.75" y="259.5"/><ellipse cx="1251.25" cy="267.5" fill="#B4A7E5" rx="5.5" ry="5.5" style="stroke:#181818;stroke-width:0.5;"/><path d="M1251.7266,265.8203 L1251.7266,269.1484 L1252.5859,269.1484 Q1252.8906,269.1484 1253.0234,269.2656 Q1253.1563,269.3828 1253.1563,269.5781 Q1253.1563,269.7656 1253.0234,269.8828 Q1252.8906,270 1252.5859,270 L1250.0156,270 Q1249.7109,270 1249.5781,269.8828 Q1249.4453,269.7656 1249.4453,269.5703 Q1249.4453,269.3828 1249.5781,269.2656 Q1249.7109,269.1484 1250.0156,269.1484 L1250.875,269.1484 L1250.875,265.8203 L1250.0156,265.8203 Q1249.7109,265.8203 1249.5781,265.7031 Q1249.4453,265.5859 1249.4453,265.3906 Q1249.4453,265.2031 1249.5781,265.0859 Q1249.7109,264.9688 1250.0156,264.9688 L1252.5859,264.9688 Q1252.8906,264.9688 1253.0234,265.0859 Q1253.1563,265.2031 1253.1563,265.3906 Q1253.1563,265.5859 1253.0234,265.7031 Q1252.8906,265.8203 1252.5859,265.8203 L1251.7266,265.8203 Z " fill="#000000"/><text fill="#000000" font-family="sans-serif" font-size="7" font-style="italic" lengthAdjust="spacing" textLength="41.5" x="1258.25" y="270.3984">DomainEntity</text><line style="stroke:#181818;stroke-width:0.25;" x1="1244.25" x2="1300.75" y1="275.5" y2="275.5"/><line style="stroke:#181818;stroke-width:0.25;" x1="1244.25" x2="1300.75" y1="279.5" y2="279.5"/></g><!--class DomainID--><g id="elem_DomainID"><rect codeLine="89" fill="#F1F1F1" height="24" id="DomainID" rx="1.25" ry="1.25" style="stroke:#181818;stroke-width:0.25;" width="47" x="1243.5" y="337.5"/><ellipse cx="1251" cy="345.5" fill="#B4A7E5" rx="5.5" ry="5.5" style="stroke:#181818;stroke-width:0.5;"/><path d="M1251.4766,343.8203 L1251.4766,347.1484 L1252.3359,347.1484 Q1252.6406,347.1484 1252.7734,347.2656 Q1252.9063,347.3828 1252.9063,347.5781 Q1252.9063,347.7656 1252.7734,347.8828 Q1252.6406,348 1252.3359,348 L1249.7656,348 Q1249.4609,348 1249.3281,347.8828 Q1249.1953,347.7656 1249.1953,347.5703 Q1249.1953,347.3828 1249.3281,347.2656 Q1249.4609,347.1484 1249.7656,347.1484 L1250.625,347.1484 L1250.625,343.8203 L1249.7656,343.8203 Q1249.4609,343.8203 1249.3281,343.7031 Q1249.1953,343.5859 1249.1953,343.3906 Q1249.1953,343.2031 1249.3281,343.0859 Q1249.4609,342.9688 1249.7656,342.9688 L1252.3359,342.9688 Q1252.6406,342.9688 1252.7734,343.0859 Q1252.9063,343.2031 1252.9063,343.3906 Q1252.9063,343.5859 1252.7734,343.7031 Q1252.6406,343.8203 1252.3359,343.8203 L1251.4766,343.8203 Z " fill="#000000"/><text fill="#000000" font-family="sans-serif" font-size="7" font-style="italic" lengthAdjust="spacing" textLength="31" x="1258" y="348.3984">DomainID</text><line style="stroke:#181818;stroke-width:0.25;" x1="1244" x2="1290" y1="353.5" y2="353.5"/><line style="stroke:#181818;stroke-width:0.25;" x1="1244" x2="1290" y1="357.5" y2="357.5"/></g><!--class AggregateRoot--><g id="elem_AggregateRoot"><rect codeLine="92" fill="#F1F1F1" height="24" id="AggregateRoot" rx="1.25" ry="1.25" style="stroke:#181818;stroke-width:0.25;" width="64" x="1245.5" y="100.75"/><ellipse cx="1253" cy="108.75" fill="#B4A7E5" rx="5.5" ry="5.5" style="stroke:#181818;stroke-width:0.5;"/><path d="M1253.4766,107.0703 L1253.4766,110.3984 L1254.3359,110.3984 Q1254.6406,110.3984 1254.7734,110.5156 Q1254.9063,110.6328 1254.9063,110.8281 Q1254.9063,111.0156 1254.7734,111.1328 Q1254.6406,111.25 1254.3359,111.25 L1251.7656,111.25 Q1251.4609,111.25 1251.3281,111.1328 Q1251.1953,111.0156 1251.1953,110.8203 Q1251.1953,110.6328 1251.3281,110.5156 Q1251.4609,110.3984 1251.7656,110.3984 L1252.625,110.3984 L1252.625,107.0703 L1251.7656,107.0703 Q1251.4609,107.0703 1251.3281,106.9531 Q1251.1953,106.8359 1251.1953,106.6406 Q1251.1953,106.4531 1251.3281,106.3359 Q1251.4609,106.2188 1251.7656,106.2188 L1254.3359,106.2188 Q1254.6406,106.2188 1254.7734,106.3359 Q1254.9063,106.4531 1254.9063,106.6406 Q1254.9063,106.8359 1254.7734,106.9531 Q1254.6406,107.0703 1254.3359,107.0703 L1253.4766,107.0703 Z " fill="#000000"/><text fill="#000000" font-family="sans-serif" font-size="7" font-style="italic" lengthAdjust="spacing" textLength="48" x="1260" y="111.6484">AggregateRoot</text><line style="stroke:#181818;stroke-width:0.25;" x1="1246" x2="1309" y1="116.75" y2="116.75"/><line style="stroke:#181818;stroke-width:0.25;" x1="1246" x2="1309" y1="120.75" y2="120.75"/></g><!--class ValueObject--><g id="elem_ValueObject"><rect codeLine="95" fill="#F1F1F1" height="24" id="ValueObject" rx="1.25" ry="1.25" style="stroke:#181818;stroke-width:0.25;" width="54.5" x="1243.75" y="380"/><ellipse cx="1251.25" cy="388" fill="#B4A7E5" rx="5.5" ry="5.5" style="stroke:#181818;stroke-width:0.5;"/><path d="M1251.7266,386.3203 L1251.7266,389.6484 L1252.5859,389.6484 Q1252.8906,389.6484 1253.0234,389.7656 Q1253.1563,389.8828 1253.1563,390.0781 Q1253.1563,390.2656 1253.0234,390.3828 Q1252.8906,390.5 1252.5859,390.5 L1250.0156,390.5 Q1249.7109,390.5 1249.5781,390.3828 Q1249.4453,390.2656 1249.4453,390.0703 Q1249.4453,389.8828 1249.5781,389.7656 Q1249.7109,389.6484 1250.0156,389.6484 L1250.875,389.6484 L1250.875,386.3203 L1250.0156,386.3203 Q1249.7109,386.3203 1249.5781,386.2031 Q1249.4453,386.0859 1249.4453,385.8906 Q1249.4453,385.7031 1249.5781,385.5859 Q1249.7109,385.4688 1250.0156,385.4688 L1252.5859,385.4688 Q1252.8906,385.4688 1253.0234,385.5859 Q1253.1563,385.7031 1253.1563,385.8906 Q1253.1563,386.0859 1253.0234,386.2031 Q1252.8906,386.3203 1252.5859,386.3203 L1251.7266,386.3203 Z " fill="#000000"/><text fill="#000000" font-family="sans-serif" font-size="7" font-style="italic" lengthAdjust="spacing" textLength="38.5" x="1258.25" y="390.8984">ValueObject</text><line style="stroke:#181818;stroke-width:0.25;" x1="1244.25" x2="1297.75" y1="396" y2="396"/><line style="stroke:#181818;stroke-width:0.25;" x1="1244.25" x2="1297.75" y1="400" y2="400"/></g><polygon fill="none" points="235.5,226.8149,238.5,217.8149,232.5,217.8149,235.5,226.8149" style="stroke:#181818;stroke-width:0.5;"/><path d="M235.5,194.6665 C235.5,205.741 235.5,207.7486 235.5,217.8149 " fill="none" style="stroke:#181818;stroke-width:0.5;stroke-dasharray:7.0,7.0;"/><polygon fill="#181818" points="510.207,245.4681,507.4715,241.3733,508.0937,244.1325,505.3345,244.7547,510.207,245.4681" style="stroke:#181818;stroke-width:0.5;"/><path d="M418.2145,194.5115 C433.1423,201.8861 447.8988,209.433 462,217 C478.1342,225.658 492.833,234.4878 507.671,243.8654 " fill="none" style="stroke:#181818;stroke-width:0.5;"/><text fill="#000000" font-family="sans-serif" font-size="6.5" lengthAdjust="spacing" textLength="10.5" x="451" y="211.0142">has</text><text fill="#000000" font-family="sans-serif" font-size="6.5" lengthAdjust="spacing" textLength="3.5" x="506.207" y="243.4823">1</text><text fill="#000000" font-family="sans-serif" font-size="6.5" lengthAdjust="spacing" textLength="3.5" x="414.2145" y="202.0256">1</text><polygon fill="#181818" points="653.7322,231.3765,651.2082,227.148,651.6895,229.9352,648.9023,230.4165,653.7322,231.3765" style="stroke:#181818;stroke-width:0.5;"/><path d="M456.0379,154.5595 C514.3185,169.9133 575.9913,190.3183 630,217 C638.0827,220.993 643.68,224.2843 651.2809,229.647 " fill="none" style="stroke:#181818;stroke-width:0.5;"/><text fill="#000000" font-family="sans-serif" font-size="6.5" lengthAdjust="spacing" textLength="10.5" x="621" y="211.0142">has</text><text fill="#000000" font-family="sans-serif" font-size="6.5" lengthAdjust="spacing" textLength="3.5" x="649.7322" y="229.3906">1</text><text fill="#000000" font-family="sans-serif" font-size="6.5" lengthAdjust="spacing" textLength="3.5" x="456.5379" y="152.5737">1</text><polygon fill="#181818" points="793.8286,231.465,791.2409,227.2753,791.7643,230.0549,788.9847,230.5782,793.8286,231.465" style="stroke:#181818;stroke-width:0.5;"/><path d="M456.0936,133.3629 C554.8138,148.0553 670.7277,173.3904 768.5,217 C777.166,220.8653 783.2845,224.2624 791.3514,229.7729 " fill="none" style="stroke:#181818;stroke-width:0.5;"/><text fill="#000000" font-family="sans-serif" font-size="6.5" lengthAdjust="spacing" textLength="10.5" x="756" y="211.0142">has</text><text fill="#000000" font-family="sans-serif" font-size="6.5" lengthAdjust="spacing" textLength="3.5" x="789.8286" y="229.4792">1</text><text fill="#000000" font-family="sans-serif" font-size="6.5" lengthAdjust="spacing" textLength="3.5" x="456.5936" y="140.8771">1</text><polygon fill="#181818" points="932.9877,231.3711,930.8257,226.9467,931.0724,229.7643,928.2548,230.0111,932.9877,231.3711" style="stroke:#181818;stroke-width:0.5;"/><path d="M456.1671,132.7868 C621.8599,150.1094 833.1211,178.6218 911.5,217 C919.0905,220.7167 924.0493,223.8723 930.6894,229.4429 " fill="none" style="stroke:#181818;stroke-width:0.5;"/><text fill="#000000" font-family="sans-serif" font-size="6.5" lengthAdjust="spacing" textLength="10.5" x="894" y="211.0142">has</text><text fill="#000000" font-family="sans-serif" font-size="6.5" lengthAdjust="spacing" textLength="3.5" x="928.9877" y="229.3853">1</text><text fill="#000000" font-family="sans-serif" font-size="6.5" lengthAdjust="spacing" textLength="3.5" x="456.6671" y="130.801">1</text><polygon fill="#181818" points="1046.8773,231.4984,1044.719,227.0722,1044.9634,229.8901,1042.1456,230.1345,1046.8773,231.4984" style="stroke:#181818;stroke-width:0.5;"/><path d="M456.0908,126.9858 C653.8101,142.0428 927.2976,170.4629 1025,217 C1032.7533,220.693 1037.8458,223.9086 1044.5806,229.5684 " fill="none" style="stroke:#181818;stroke-width:0.5;"/><text fill="#000000" font-family="sans-serif" font-size="6.5" lengthAdjust="spacing" textLength="10.5" x="1015.5" y="211.0142">has</text><text fill="#000000" font-family="sans-serif" font-size="6.5" lengthAdjust="spacing" textLength="3.5" x="1042.8773" y="229.5126">1</text><text fill="#000000" font-family="sans-serif" font-size="6.5" lengthAdjust="spacing" textLength="3.5" x="456.5908" y="124.9999">1</text><polygon fill="#181818" points="1170.6028,245.4355,1169.3768,240.6662,1169.0507,243.4757,1166.2411,243.1496,1170.6028,245.4355" style="stroke:#181818;stroke-width:0.5;"/><path d="M456.0414,137.8232 C615.1861,155.6839 835.1673,180.6354 1028.5,203.5 C1077.4148,209.2849 1094.7653,194.3417 1138.5,217 C1151.2016,223.5805 1160.3746,232.5212 1168.7402,243.0838 " fill="none" style="stroke:#181818;stroke-width:0.5;"/><text fill="#000000" font-family="sans-serif" font-size="6.5" lengthAdjust="spacing" textLength="10.5" x="1129" y="211.0142">has</text><text fill="#000000" font-family="sans-serif" font-size="6.5" lengthAdjust="spacing" textLength="3.5" x="1166.6028" y="243.4497">1</text><text fill="#000000" font-family="sans-serif" font-size="6.5" lengthAdjust="spacing" textLength="3.5" x="452.0414" y="135.8374">1</text><polygon fill="none" points="1267.829,337.3935,1271.4626,328.6301,1265.4779,328.2026,1267.829,337.3935" style="stroke:#181818;stroke-width:0.5;"/><path d="M1271.6766,283.5277 C1270.6397,298.0437 1269.5098,313.8632 1268.4703,328.4164 " fill="none" style="stroke:#181818;stroke-width:0.5;"/><polygon fill="none" points="1272.8682,259.3833,1276.1518,250.4828,1270.1548,250.2927,1272.8682,259.3833" style="stroke:#181818;stroke-width:0.5;"/><path d="M1277.1323,124.8497 C1276.2077,154.0225 1274.0786,221.1967 1273.1533,250.3878 " fill="none" style="stroke:#181818;stroke-width:0.5;"/><polygon fill="none" points="1290.5481,339.1082,1299.7825,336.9344,1296.6314,331.8285,1290.5481,339.1082" style="stroke:#181818;stroke-width:0.5;"/><path d="M1283.6524,124.8665 C1300.3944,158.2031 1343.1096,256.1324 1306,324 C1302.5274,330.3509 1304.3351,330.5995 1298.2069,334.3815 " fill="none" style="stroke:#181818;stroke-width:0.5;"/><polygon fill="none" points="1243.6342,390.2885,1234.7838,386.8722,1234.5041,392.8656,1243.6342,390.2885" style="stroke:#181818;stroke-width:0.5;"/><path d="M581.2841,297.5006 C595.5746,307.4467 613.0728,317.9047 630.5,324 C746.6647,364.6295 1127.6308,384.875 1234.644,389.8689 " fill="none" style="stroke:#181818;stroke-width:0.5;stroke-dasharray:7.0,7.0;"/><polygon fill="none" points="1243.4909,348.6307,1234.5429,345.4791,1234.4415,351.4783,1243.4909,348.6307" style="stroke:#181818;stroke-width:0.5;"/><path d="M744.4142,311.626 C752.0306,316.5935 760.1804,320.9823 768.5,324 C813.4052,340.2881 1141.7857,346.9125 1234.4922,348.4787 " fill="none" style="stroke:#181818;stroke-width:0.5;stroke-dasharray:7.0,7.0;"/><polygon fill="none" points="1243.3469,349.0254,1234.3552,346.0008,1234.3387,352.0007,1243.3469,349.0254" style="stroke:#181818;stroke-width:0.5;"/><path d="M886.9419,311.6047 C894.7494,316.5404 903.0638,320.9253 911.5,324 C972.7552,346.3253 1165.0869,348.8109 1234.347,349.0008 " fill="none" style="stroke:#181818;stroke-width:0.5;stroke-dasharray:7.0,7.0;"/><polygon fill="none" points="1243.4505,348.4435,1234.5422,345.1814,1234.3665,351.1788,1243.4505,348.4435" style="stroke:#181818;stroke-width:0.5;"/><path d="M1004.9631,311.5002 C1011.1957,316.4162 1017.9509,320.8229 1025,324 C1063.6514,341.4206 1181.5023,346.6294 1234.4543,348.1801 " fill="none" style="stroke:#181818;stroke-width:0.5;stroke-dasharray:7.0,7.0;"/><polygon fill="none" points="1243.3524,348.1834,1234.5694,344.5974,1234.1744,350.5844,1243.3524,348.1834" style="stroke:#181818;stroke-width:0.5;"/><path d="M1119.9039,311.5779 C1125.9187,316.3213 1132.3592,320.6582 1139,324 C1172.6756,340.9463 1207.7112,345.8318 1234.3719,347.5909 " fill="none" style="stroke:#181818;stroke-width:0.5;stroke-dasharray:7.0,7.0;"/><polygon fill="none" points="1269.8779,379.858,1272.0006,370.6117,1266.0282,371.1873,1269.8779,379.858" style="stroke:#181818;stroke-width:0.5;"/><path d="M1268.1142,361.5601 C1268.6644,367.2681 1268.4632,365.1804 1269.0144,370.8995 " fill="none" style="stroke:#181818;stroke-width:0.5;stroke-dasharray:7.0,7.0;"/><!--SRC=[pLPDZzCm4BtxLmnxeT4shRZkOQKLGQWI2okwuehSsAHUaZZ4RgLgwN_7iVDXE_PIJcmEZTFt9fvvy-6ytKlPY9lrkYbnBGzLkSfvjSvBB4HA62vQNA4tJOkB2aE9J_mWGLHKuXeZrE3y9oue45vXLg-sj1QyXMS4wcArfEqFd5Dm_kwkQoYet6IBvAR7DfcBVSOL7R1kxQBtdD3o0SjzzuBnmUKOsyTJG-rzpBF5b7mhMrONcg9Nxck-uV90Er0llkoUQ2vTHaQFBEyt6TQQSKRwfeM4xQ5kcQ2FhA8pDRehXU_L40Y4Wkf9OfG4Wleuj4q60O4TYX448lhqr9dpMepEA0ZuvgHN1Jo1B4hH28L-VDWY1xcUxx08l6q9GUsMy4AC0pYJSWdA6UrBuldIrsnCqx5mBSeiDtxzHdCTAEANikILOangkwOXNDGUxHFFSPbXgNfS_SICpkWy3OFZHEYhFD83femCHHN1iQyglMN7Gf4QC9xDw0doUngSfZxRljYLCRMYyeAHm2Hm4Y5acr6HjwoHZDS3E_6c6_6tDz0UY_rxbN6DgX5fGVJN0PTYmNTFDs3awpWxpakAw-3CykER1QXhouzGs50qs1xteeLN7Uu_v595Dg492dRv_mfcQDqBWXbRtY30o2kBPPnkRZ2D-YVWrJGPRK9oqQRM12A4gEsG_GsIwI-K3xLaygHTEOVmNdCFkokAbXPg_7tbN4u4cs8DnUV9d_cflrhzldM_blfRW7prxWhIz1QwU_G8LdcCMnfJzn2yr60O7PTRN4ZEfWFyx-Hxws3lsCZ9OvegDOVC8JTD5cROSLpPHlJLwR8FFEIeQR99o6fwZwDT30z2eou1Q2ZEcJz_0000]--></g></svg>