<?xml version="1.0" encoding="us-ascii" standalone="no"?><svg xmlns="http://www.w3.org/2000/svg" xmlns:xlink="http://www.w3.org/1999/xlink" contentStyleType="text/css" height="468px" preserveAspectRatio="none" style="width:1974px;height:468px;background:#FFFFFF;" version="1.1" viewBox="0 0 1974 468" width="1974px" zoomAndPan="magnify"><defs/><g><!--cluster domain--><g id="cluster_domain"><path d="M8.5,72.36 L60.5,72.36 A3.75,3.75 0 0 1 63,74.86 L70,96.9811 L1554.5,96.9811 A2.5,2.5 0 0 1 1557,99.4811 L1557,430.86 A2.5,2.5 0 0 1 1554.5,433.36 L8.5,433.36 A2.5,2.5 0 0 1 6,430.86 L6,74.86 A2.5,2.5 0 0 1 8.5,72.36 " fill="none" style="stroke:#000000;stroke-width:1.5;"/><line style="stroke:#000000;stroke-width:1.5;" x1="6" x2="70" y1="96.9811" y2="96.9811"/><text fill="#000000" font-family="sans-serif" font-size="14" font-weight="bold" lengthAdjust="spacing" textLength="51" x="10" y="89.4674">domain</text></g><!--cluster sensors--><g id="cluster_sensors"><path d="M1597.5,44.36 L1655.5,44.36 A3.75,3.75 0 0 1 1658,46.86 L1665,68.9811 L1964.5,68.9811 A2.5,2.5 0 0 1 1967,71.4811 L1967,458.86 A2.5,2.5 0 0 1 1964.5,461.36 L1597.5,461.36 A2.5,2.5 0 0 1 1595,458.86 L1595,46.86 A2.5,2.5 0 0 1 1597.5,44.36 " fill="none" style="stroke:#000000;stroke-width:1.5;"/><line style="stroke:#000000;stroke-width:1.5;" x1="1595" x2="1665" y1="68.9811" y2="68.9811"/><text fill="#000000" font-family="sans-serif" font-size="14" font-weight="bold" lengthAdjust="spacing" textLength="57" x="1599" y="61.4674">sensors</text></g><!--class CatalogueSensor--><g id="elem_CatalogueSensor"><rect codeLine="2" fill="#F1F1F1" height="103.8633" id="CatalogueSensor" rx="2.5" ry="2.5" style="stroke:#181818;stroke-width:0.5;" width="273" x="490.5" y="130.36"/><ellipse cx="567.75" cy="146.36" fill="#ADD1B2" rx="11" ry="11" style="stroke:#181818;stroke-width:1.0;"/><path d="M570.5156,142.235 Q570.6719,142.0163 570.8594,141.9069 Q571.0469,141.7975 571.2656,141.7975 Q571.6406,141.7975 571.875,142.0631 Q572.1094,142.3131 572.1094,142.9225 L572.1094,144.3756 Q572.1094,144.985 571.875,145.2506 Q571.6406,145.5163 571.2656,145.5163 Q570.9219,145.5163 570.7188,145.3131 Q570.5156,145.1256 570.4063,144.61 Q570.3594,144.2506 570.1719,144.0631 Q569.8438,143.6881 569.2344,143.4694 Q568.625,143.2506 568,143.2506 Q567.2344,143.2506 566.5938,143.5788 Q565.9688,143.9069 565.4688,144.6569 Q564.9844,145.4069 564.9844,146.4381 L564.9844,147.5319 Q564.9844,148.7663 565.875,149.5944 Q566.7656,150.4069 568.3594,150.4069 Q569.2969,150.4069 569.9531,150.1569 Q570.3438,150.0006 570.7656,149.5631 Q571.0313,149.2975 571.1719,149.2194 Q571.3281,149.1413 571.5313,149.1413 Q571.8594,149.1413 572.1094,149.4069 Q572.375,149.6569 572.375,150.0006 Q572.375,150.3444 572.0313,150.7506 Q571.5313,151.3288 570.7344,151.6569 Q569.6563,152.11 568.3594,152.11 Q566.8438,152.11 565.6406,151.485 Q564.6563,150.985 563.9688,149.9225 Q563.2813,148.8444 563.2813,147.5631 L563.2813,146.4069 Q563.2813,145.0788 563.8906,143.9381 Q564.5156,142.7819 565.6094,142.1725 Q566.7031,141.5475 567.9375,141.5475 Q568.6719,141.5475 569.3125,141.7194 Q569.9688,141.8756 570.5156,142.235 Z " fill="#000000"/><text fill="#000000" font-family="sans-serif" font-size="14" lengthAdjust="spacing" textLength="110" x="588.25" y="152.1569">CatalogueSensor</text><line style="stroke:#181818;stroke-width:0.5;" x1="491.5" x2="762.5" y1="162.36" y2="162.36"/><rect fill="none" height="6" style="stroke:#C82930;stroke-width:1.0;" width="6" x="498.5" y="174.1705"/><text fill="#000000" font-family="sans-serif" font-size="14" lengthAdjust="spacing" textLength="232" x="510.5" y="181.4674">_listSensorTypes: List&lt;SensorType&gt;</text><rect fill="none" height="6" style="stroke:#C82930;stroke-width:1.0;" width="6" x="498.5" y="192.7916"/><text fill="#000000" font-family="sans-serif" font-size="14" lengthAdjust="spacing" textLength="247" x="510.5" y="200.0885">_listStringClassesSensors: List&lt;String&gt;</text><line style="stroke:#181818;stroke-width:0.5;" x1="491.5" x2="762.5" y1="207.6022" y2="207.6022"/><ellipse cx="501.5" cy="222.4127" fill="#84BE84" rx="3" ry="3" style="stroke:#038048;stroke-width:1.0;"/><text fill="#000000" font-family="sans-serif" font-size="14" lengthAdjust="spacing" textLength="247" x="510.5" y="226.7096">CatalogueSensor(filePathname: String)</text></g><!--class SensorType--><g id="elem_SensorType"><rect codeLine="11" fill="#F1F1F1" height="48" id="SensorType" rx="2.5" ry="2.5" style="stroke:#181818;stroke-width:0.5;" width="109" x="572.5" y="369.36"/><ellipse cx="587.5" cy="385.36" fill="#ADD1B2" rx="11" ry="11" style="stroke:#181818;stroke-width:1.0;"/><path d="M590.2656,381.235 Q590.4219,381.0163 590.6094,380.9069 Q590.7969,380.7975 591.0156,380.7975 Q591.3906,380.7975 591.625,381.0631 Q591.8594,381.3131 591.8594,381.9225 L591.8594,383.3756 Q591.8594,383.985 591.625,384.2506 Q591.3906,384.5163 591.0156,384.5163 Q590.6719,384.5163 590.4688,384.3131 Q590.2656,384.1256 590.1563,383.61 Q590.1094,383.2506 589.9219,383.0631 Q589.5938,382.6881 588.9844,382.4694 Q588.375,382.2506 587.75,382.2506 Q586.9844,382.2506 586.3438,382.5788 Q585.7188,382.9069 585.2188,383.6569 Q584.7344,384.4069 584.7344,385.4381 L584.7344,386.5319 Q584.7344,387.7663 585.625,388.5944 Q586.5156,389.4069 588.1094,389.4069 Q589.0469,389.4069 589.7031,389.1569 Q590.0938,389.0006 590.5156,388.5631 Q590.7813,388.2975 590.9219,388.2194 Q591.0781,388.1413 591.2813,388.1413 Q591.6094,388.1413 591.8594,388.4069 Q592.125,388.6569 592.125,389.0006 Q592.125,389.3444 591.7813,389.7506 Q591.2813,390.3288 590.4844,390.6569 Q589.4063,391.11 588.1094,391.11 Q586.5938,391.11 585.3906,390.485 Q584.4063,389.985 583.7188,388.9225 Q583.0313,387.8444 583.0313,386.5631 L583.0313,385.4069 Q583.0313,384.0788 583.6406,382.9381 Q584.2656,381.7819 585.3594,381.1725 Q586.4531,380.5475 587.6875,380.5475 Q588.4219,380.5475 589.0625,380.7194 Q589.7188,380.8756 590.2656,381.235 Z " fill="#000000"/><text fill="#000000" font-family="sans-serif" font-size="14" lengthAdjust="spacing" textLength="77" x="601.5" y="391.1569">SensorType</text><line style="stroke:#181818;stroke-width:0.5;" x1="573.5" x2="680.5" y1="401.36" y2="401.36"/><line style="stroke:#181818;stroke-width:0.5;" x1="573.5" x2="680.5" y1="409.36" y2="409.36"/></g><!--class Sensor--><g id="elem_Sensor"><rect codeLine="14" fill="#F1F1F1" height="85.2422" id="Sensor" rx="2.5" ry="2.5" style="stroke:#181818;stroke-width:0.5;" width="204" x="1337" y="139.86"/><ellipse cx="1412.25" cy="155.86" fill="#B4A7E5" rx="11" ry="11" style="stroke:#181818;stroke-width:1.0;"/><path d="M1413.2031,152.5006 L1413.2031,159.1569 L1414.9219,159.1569 Q1415.5313,159.1569 1415.7969,159.3913 Q1416.0625,159.6256 1416.0625,160.0163 Q1416.0625,160.3913 1415.7969,160.6256 Q1415.5313,160.86 1414.9219,160.86 L1409.7813,160.86 Q1409.1719,160.86 1408.9063,160.6256 Q1408.6406,160.3913 1408.6406,160.0006 Q1408.6406,159.6256 1408.9063,159.3913 Q1409.1719,159.1569 1409.7813,159.1569 L1411.5,159.1569 L1411.5,152.5006 L1409.7813,152.5006 Q1409.1719,152.5006 1408.9063,152.2663 Q1408.6406,152.0319 1408.6406,151.6413 Q1408.6406,151.2663 1408.9063,151.0319 Q1409.1719,150.7975 1409.7813,150.7975 L1414.9219,150.7975 Q1415.5313,150.7975 1415.7969,151.0319 Q1416.0625,151.2663 1416.0625,151.6413 Q1416.0625,152.0319 1415.7969,152.2663 Q1415.5313,152.5006 1414.9219,152.5006 L1413.2031,152.5006 Z " fill="#000000"/><text fill="#000000" font-family="sans-serif" font-size="14" font-style="italic" lengthAdjust="spacing" textLength="45" x="1432.75" y="161.6569">Sensor</text><line style="stroke:#181818;stroke-width:0.5;" x1="1338" x2="1540" y1="171.86" y2="171.86"/><line style="stroke:#181818;stroke-width:0.5;" x1="1338" x2="1540" y1="179.86" y2="179.86"/><text fill="#000000" font-family="sans-serif" font-size="14" lengthAdjust="spacing" textLength="192" x="1343" y="198.9674">getSensorType(): SensorType</text><text fill="#000000" font-family="sans-serif" font-size="14" lengthAdjust="spacing" textLength="110" x="1343" y="217.5885">getValue(): Value</text></g><!--class Value--><g id="elem_Value"><rect codeLine="20" fill="#F1F1F1" height="48" id="Value" rx="2.5" ry="2.5" style="stroke:#181818;stroke-width:0.5;" width="68" x="1234" y="158.36"/><ellipse cx="1249" cy="174.36" fill="#B4A7E5" rx="11" ry="11" style="stroke:#181818;stroke-width:1.0;"/><path d="M1249.9531,171.0006 L1249.9531,177.6569 L1251.6719,177.6569 Q1252.2813,177.6569 1252.5469,177.8913 Q1252.8125,178.1256 1252.8125,178.5163 Q1252.8125,178.8913 1252.5469,179.1256 Q1252.2813,179.36 1251.6719,179.36 L1246.5313,179.36 Q1245.9219,179.36 1245.6563,179.1256 Q1245.3906,178.8913 1245.3906,178.5006 Q1245.3906,178.1256 1245.6563,177.8913 Q1245.9219,177.6569 1246.5313,177.6569 L1248.25,177.6569 L1248.25,171.0006 L1246.5313,171.0006 Q1245.9219,171.0006 1245.6563,170.7663 Q1245.3906,170.5319 1245.3906,170.1413 Q1245.3906,169.7663 1245.6563,169.5319 Q1245.9219,169.2975 1246.5313,169.2975 L1251.6719,169.2975 Q1252.2813,169.2975 1252.5469,169.5319 Q1252.8125,169.7663 1252.8125,170.1413 Q1252.8125,170.5319 1252.5469,170.7663 Q1252.2813,171.0006 1251.6719,171.0006 L1249.9531,171.0006 Z " fill="#000000"/><text fill="#000000" font-family="sans-serif" font-size="14" font-style="italic" lengthAdjust="spacing" textLength="36" x="1263" y="180.1569">Value</text><line style="stroke:#181818;stroke-width:0.5;" x1="1235" x2="1301" y1="190.36" y2="190.36"/><line style="stroke:#181818;stroke-width:0.5;" x1="1235" x2="1301" y1="198.36" y2="198.36"/></g><!--class SensorFactory--><g id="elem_SensorFactory"><rect codeLine="23" fill="#F1F1F1" height="66.6211" id="SensorFactory" rx="2.5" ry="2.5" style="stroke:#181818;stroke-width:0.5;" width="400" x="799" y="148.86"/><ellipse cx="948.25" cy="164.86" fill="#ADD1B2" rx="11" ry="11" style="stroke:#181818;stroke-width:1.0;"/><path d="M951.0156,160.735 Q951.1719,160.5163 951.3594,160.4069 Q951.5469,160.2975 951.7656,160.2975 Q952.1406,160.2975 952.375,160.5631 Q952.6094,160.8131 952.6094,161.4225 L952.6094,162.8756 Q952.6094,163.485 952.375,163.7506 Q952.1406,164.0163 951.7656,164.0163 Q951.4219,164.0163 951.2188,163.8131 Q951.0156,163.6256 950.9063,163.11 Q950.8594,162.7506 950.6719,162.5631 Q950.3438,162.1881 949.7344,161.9694 Q949.125,161.7506 948.5,161.7506 Q947.7344,161.7506 947.0938,162.0788 Q946.4688,162.4069 945.9688,163.1569 Q945.4844,163.9069 945.4844,164.9381 L945.4844,166.0319 Q945.4844,167.2663 946.375,168.0944 Q947.2656,168.9069 948.8594,168.9069 Q949.7969,168.9069 950.4531,168.6569 Q950.8438,168.5006 951.2656,168.0631 Q951.5313,167.7975 951.6719,167.7194 Q951.8281,167.6413 952.0313,167.6413 Q952.3594,167.6413 952.6094,167.9069 Q952.875,168.1569 952.875,168.5006 Q952.875,168.8444 952.5313,169.2506 Q952.0313,169.8288 951.2344,170.1569 Q950.1563,170.61 948.8594,170.61 Q947.3438,170.61 946.1406,169.985 Q945.1563,169.485 944.4688,168.4225 Q943.7813,167.3444 943.7813,166.0631 L943.7813,164.9069 Q943.7813,163.5788 944.3906,162.4381 Q945.0156,161.2819 946.1094,160.6725 Q947.2031,160.0475 948.4375,160.0475 Q949.1719,160.0475 949.8125,160.2194 Q950.4688,160.3756 951.0156,160.735 Z " fill="#000000"/><text fill="#000000" font-family="sans-serif" font-size="14" lengthAdjust="spacing" textLength="93" x="968.75" y="170.6569">SensorFactory</text><line style="stroke:#181818;stroke-width:0.5;" x1="800" x2="1198" y1="180.86" y2="180.86"/><line style="stroke:#181818;stroke-width:0.5;" x1="800" x2="1198" y1="188.86" y2="188.86"/><ellipse cx="810" cy="203.6705" fill="#84BE84" rx="3" ry="3" style="stroke:#038048;stroke-width:1.0;"/><text fill="#000000" font-family="sans-serif" font-size="14" lengthAdjust="spacing" textLength="374" x="819" y="207.9674">createSensor(model: String, catalogue: Catalogue): Sensor</text></g><!--class SensorTypeFactory--><g id="elem_SensorTypeFactory"><rect codeLine="28" fill="#F1F1F1" height="66.6211" id="SensorTypeFactory" rx="2.5" ry="2.5" style="stroke:#181818;stroke-width:0.5;" width="433" x="22.5" y="148.86"/><ellipse cx="172.25" cy="164.86" fill="#ADD1B2" rx="11" ry="11" style="stroke:#181818;stroke-width:1.0;"/><path d="M175.0156,160.735 Q175.1719,160.5163 175.3594,160.4069 Q175.5469,160.2975 175.7656,160.2975 Q176.1406,160.2975 176.375,160.5631 Q176.6094,160.8131 176.6094,161.4225 L176.6094,162.8756 Q176.6094,163.485 176.375,163.7506 Q176.1406,164.0163 175.7656,164.0163 Q175.4219,164.0163 175.2188,163.8131 Q175.0156,163.6256 174.9063,163.11 Q174.8594,162.7506 174.6719,162.5631 Q174.3438,162.1881 173.7344,161.9694 Q173.125,161.7506 172.5,161.7506 Q171.7344,161.7506 171.0938,162.0788 Q170.4688,162.4069 169.9688,163.1569 Q169.4844,163.9069 169.4844,164.9381 L169.4844,166.0319 Q169.4844,167.2663 170.375,168.0944 Q171.2656,168.9069 172.8594,168.9069 Q173.7969,168.9069 174.4531,168.6569 Q174.8438,168.5006 175.2656,168.0631 Q175.5313,167.7975 175.6719,167.7194 Q175.8281,167.6413 176.0313,167.6413 Q176.3594,167.6413 176.6094,167.9069 Q176.875,168.1569 176.875,168.5006 Q176.875,168.8444 176.5313,169.2506 Q176.0313,169.8288 175.2344,170.1569 Q174.1563,170.61 172.8594,170.61 Q171.3438,170.61 170.1406,169.985 Q169.1563,169.485 168.4688,168.4225 Q167.7813,167.3444 167.7813,166.0631 L167.7813,164.9069 Q167.7813,163.5788 168.3906,162.4381 Q169.0156,161.2819 170.1094,160.6725 Q171.2031,160.0475 172.4375,160.0475 Q173.1719,160.0475 173.8125,160.2194 Q174.4688,160.3756 175.0156,160.735 Z " fill="#000000"/><text fill="#000000" font-family="sans-serif" font-size="14" lengthAdjust="spacing" textLength="125" x="192.75" y="170.6569">SensorTypeFactory</text><line style="stroke:#181818;stroke-width:0.5;" x1="23.5" x2="454.5" y1="180.86" y2="180.86"/><line style="stroke:#181818;stroke-width:0.5;" x1="23.5" x2="454.5" y1="188.86" y2="188.86"/><ellipse cx="33.5" cy="203.6705" fill="#84BE84" rx="3" ry="3" style="stroke:#038048;stroke-width:1.0;"/><text fill="#000000" font-family="sans-serif" font-size="14" lengthAdjust="spacing" textLength="407" x="42.5" y="207.9674">createSensorType(strDescription: String, unit: Unit): SensorType</text></g><!--class SunriseTimeValue--><g id="elem_SunriseTimeValue"><rect codeLine="36" fill="#F1F1F1" height="103.8633" id="SunriseTimeValue" rx="2.5" ry="2.5" style="stroke:#181818;stroke-width:0.5;" width="254" x="1632" y="341.36"/><ellipse cx="1697.25" cy="357.36" fill="#ADD1B2" rx="11" ry="11" style="stroke:#181818;stroke-width:1.0;"/><path d="M1700.0156,353.235 Q1700.1719,353.0163 1700.3594,352.9069 Q1700.5469,352.7975 1700.7656,352.7975 Q1701.1406,352.7975 1701.375,353.0631 Q1701.6094,353.3131 1701.6094,353.9225 L1701.6094,355.3756 Q1701.6094,355.985 1701.375,356.2506 Q1701.1406,356.5163 1700.7656,356.5163 Q1700.4219,356.5163 1700.2188,356.3131 Q1700.0156,356.1256 1699.9063,355.61 Q1699.8594,355.2506 1699.6719,355.0631 Q1699.3438,354.6881 1698.7344,354.4694 Q1698.125,354.2506 1697.5,354.2506 Q1696.7344,354.2506 1696.0938,354.5788 Q1695.4688,354.9069 1694.9688,355.6569 Q1694.4844,356.4069 1694.4844,357.4381 L1694.4844,358.5319 Q1694.4844,359.7663 1695.375,360.5944 Q1696.2656,361.4069 1697.8594,361.4069 Q1698.7969,361.4069 1699.4531,361.1569 Q1699.8438,361.0006 1700.2656,360.5631 Q1700.5313,360.2975 1700.6719,360.2194 Q1700.8281,360.1413 1701.0313,360.1413 Q1701.3594,360.1413 1701.6094,360.4069 Q1701.875,360.6569 1701.875,361.0006 Q1701.875,361.3444 1701.5313,361.7506 Q1701.0313,362.3288 1700.2344,362.6569 Q1699.1563,363.11 1697.8594,363.11 Q1696.3438,363.11 1695.1406,362.485 Q1694.1563,361.985 1693.4688,360.9225 Q1692.7813,359.8444 1692.7813,358.5631 L1692.7813,357.4069 Q1692.7813,356.0788 1693.3906,354.9381 Q1694.0156,353.7819 1695.1094,353.1725 Q1696.2031,352.5475 1697.4375,352.5475 Q1698.1719,352.5475 1698.8125,352.7194 Q1699.4688,352.8756 1700.0156,353.235 Z " fill="#000000"/><text fill="#000000" font-family="sans-serif" font-size="14" lengthAdjust="spacing" textLength="115" x="1717.75" y="363.1569">SunriseTimeValue</text><line style="stroke:#181818;stroke-width:0.5;" x1="1633" x2="1885" y1="373.36" y2="373.36"/><rect fill="none" height="6" style="stroke:#C82930;stroke-width:1.0;" width="6" x="1640" y="385.1705"/><text fill="#000000" font-family="sans-serif" font-size="14" lengthAdjust="spacing" textLength="115" x="1652" y="392.4674">_value: LocalTime</text><line style="stroke:#181818;stroke-width:0.5;" x1="1633" x2="1885" y1="399.9811" y2="399.9811"/><ellipse cx="1643" cy="414.7916" fill="#84BE84" rx="3" ry="3" style="stroke:#038048;stroke-width:1.0;"/><text fill="#000000" font-family="sans-serif" font-size="14" lengthAdjust="spacing" textLength="228" x="1652" y="419.0885">SunsetTimeValue(value: LocalTime)</text><ellipse cx="1643" cy="433.4127" fill="#84BE84" rx="3" ry="3" style="stroke:#038048;stroke-width:1.0;"/><text fill="#000000" font-family="sans-serif" font-size="14" lengthAdjust="spacing" textLength="104" x="1652" y="437.7096">toString(): String</text></g><!--class SunriseTimeSensor--><g id="elem_SunriseTimeSensor"><rect codeLine="44" fill="#F1F1F1" height="159.7266" id="SunriseTimeSensor" rx="2.5" ry="2.5" style="stroke:#181818;stroke-width:0.5;" width="340" x="1611" y="102.36"/><ellipse cx="1714.75" cy="118.36" fill="#ADD1B2" rx="11" ry="11" style="stroke:#181818;stroke-width:1.0;"/><path d="M1717.5156,114.235 Q1717.6719,114.0163 1717.8594,113.9069 Q1718.0469,113.7975 1718.2656,113.7975 Q1718.6406,113.7975 1718.875,114.0631 Q1719.1094,114.3131 1719.1094,114.9225 L1719.1094,116.3756 Q1719.1094,116.985 1718.875,117.2506 Q1718.6406,117.5163 1718.2656,117.5163 Q1717.9219,117.5163 1717.7188,117.3131 Q1717.5156,117.1256 1717.4063,116.61 Q1717.3594,116.2506 1717.1719,116.0631 Q1716.8438,115.6881 1716.2344,115.4694 Q1715.625,115.2506 1715,115.2506 Q1714.2344,115.2506 1713.5938,115.5788 Q1712.9688,115.9069 1712.4688,116.6569 Q1711.9844,117.4069 1711.9844,118.4381 L1711.9844,119.5319 Q1711.9844,120.7663 1712.875,121.5944 Q1713.7656,122.4069 1715.3594,122.4069 Q1716.2969,122.4069 1716.9531,122.1569 Q1717.3438,122.0006 1717.7656,121.5631 Q1718.0313,121.2975 1718.1719,121.2194 Q1718.3281,121.1413 1718.5313,121.1413 Q1718.8594,121.1413 1719.1094,121.4069 Q1719.375,121.6569 1719.375,122.0006 Q1719.375,122.3444 1719.0313,122.7506 Q1718.5313,123.3288 1717.7344,123.6569 Q1716.6563,124.11 1715.3594,124.11 Q1713.8438,124.11 1712.6406,123.485 Q1711.6563,122.985 1710.9688,121.9225 Q1710.2813,120.8444 1710.2813,119.5631 L1710.2813,118.4069 Q1710.2813,117.0788 1710.8906,115.9381 Q1711.5156,114.7819 1712.6094,114.1725 Q1713.7031,113.5475 1714.9375,113.5475 Q1715.6719,113.5475 1716.3125,113.7194 Q1716.9688,113.8756 1717.5156,114.235 Z " fill="#000000"/><text fill="#000000" font-family="sans-serif" font-size="14" lengthAdjust="spacing" textLength="124" x="1735.25" y="124.1569">SunriseTimeSensor</text><line style="stroke:#181818;stroke-width:0.5;" x1="1612" x2="1950" y1="134.36" y2="134.36"/><rect fill="none" height="6" style="stroke:#C82930;stroke-width:1.0;" width="6" x="1619" y="146.1705"/><text fill="#000000" font-family="sans-serif" font-size="14" lengthAdjust="spacing" textLength="168" x="1631" y="153.4674">_sensorType: SensorType</text><rect fill="none" height="6" style="stroke:#C82930;stroke-width:1.0;" width="6" x="1619" y="164.7916"/><text fill="#000000" font-family="sans-serif" font-size="14" lengthAdjust="spacing" textLength="65" x="1631" y="172.0885">_gps: Gps</text><line style="stroke:#181818;stroke-width:0.5;" x1="1612" x2="1950" y1="179.6022" y2="179.6022"/><ellipse cx="1622" cy="194.4127" fill="#84BE84" rx="3" ry="3" style="stroke:#038048;stroke-width:1.0;"/><text fill="#000000" font-family="sans-serif" font-size="14" lengthAdjust="spacing" textLength="314" x="1631" y="198.7096">SunriseTimeSensor(catalogue: CatalogueSensor)</text><ellipse cx="1622" cy="213.0338" fill="#84BE84" rx="3" ry="3" style="stroke:#038048;stroke-width:1.0;"/><text fill="#000000" font-family="sans-serif" font-size="14" lengthAdjust="spacing" textLength="192" x="1631" y="217.3307">getSensorType(): SensorType</text><ellipse cx="1622" cy="231.6549" fill="#84BE84" rx="3" ry="3" style="stroke:#038048;stroke-width:1.0;"/><text fill="#000000" font-family="sans-serif" font-size="14" lengthAdjust="spacing" textLength="110" x="1631" y="235.9518">getValue(): Value</text><ellipse cx="1622" cy="250.276" fill="#84BE84" rx="3" ry="3" style="stroke:#038048;stroke-width:1.0;"/><text fill="#000000" font-family="sans-serif" font-size="14" lengthAdjust="spacing" textLength="210" x="1631" y="254.5729">getValue(date: LocalDate): Value</text></g><!--link SensorFactory to SunriseTimeSensor--><g id="link_SensorFactory_SunriseTimeSensor"><path codeLine="59" d="M1037.92,148.8 C1079.19,115.62 1147.85,67.04 1217,47.36 C1362.34,6 1411.41,6.88 1557,47.36 C1598.12,58.79 1634.166,76.8436 1669.746,99.1436 " fill="none" id="SensorFactory-to-SunriseTimeSensor" style="stroke:#181818;stroke-width:1.0;"/><polygon fill="#181818" points="1674.83,102.33,1669.3283,94.1611,1670.5934,99.6747,1665.0798,100.9397,1674.83,102.33" style="stroke:#181818;stroke-width:1.0;"/><text fill="#000000" font-family="sans-serif" font-size="13" lengthAdjust="spacing" textLength="57" x="1355.5" y="24.3883">&#171;creates&#187;</text><text fill="#000000" font-family="sans-serif" font-size="13" lengthAdjust="spacing" textLength="7" x="1037.8933" y="137.6137">1</text><text fill="#000000" font-family="sans-serif" font-size="13" lengthAdjust="spacing" textLength="7" x="1665.3651" y="91.223">1</text></g><!--link SunriseTimeSensor to SensorType--><g id="link_SunriseTimeSensor_SensorType"><path codeLine="60" d="M1610.85,247.33 C1592.81,252.91 1574.63,258.07 1557,262.36 C1230.31,341.95 832.3531,377.23 687.6831,388.11 " fill="none" id="SunriseTimeSensor-to-SensorType" style="stroke:#181818;stroke-width:1.0;"/><polygon fill="#181818" points="681.7,388.56,690.9746,391.8738,686.6859,388.185,690.3747,383.8963,681.7,388.56" style="stroke:#181818;stroke-width:1.0;"/><text fill="#000000" font-family="sans-serif" font-size="13" lengthAdjust="spacing" textLength="35" x="1407" y="307.3883">&#171;has&#187;</text><text fill="#000000" font-family="sans-serif" font-size="13" lengthAdjust="spacing" textLength="7" x="1595.9815" y="246.9299">1</text><text fill="#000000" font-family="sans-serif" font-size="13" lengthAdjust="spacing" textLength="7" x="689.5206" y="383.8207">1</text></g><!--link SunriseTimeSensor to SunriseTimeValue--><g id="link_SunriseTimeSensor_SunriseTimeValue"><path codeLine="61" d="M1772.68,262.37 C1769.91,288.73 1767.5175,311.4229 1765.0275,335.1029 " fill="none" id="SunriseTimeSensor-to-SunriseTimeValue" style="stroke:#181818;stroke-width:1.0;"/><polygon fill="#181818" points="1764.4,341.07,1769.3192,332.5376,1764.9229,336.0974,1761.3631,331.701,1764.4,341.07" style="stroke:#181818;stroke-width:1.0;"/><text fill="#000000" font-family="sans-serif" font-size="13" lengthAdjust="spacing" textLength="42" x="1770" y="307.3883">&#171;uses&#187;</text><text fill="#000000" font-family="sans-serif" font-size="13" lengthAdjust="spacing" textLength="7" x="1764.6642" y="284.0289">1</text><text fill="#000000" font-family="sans-serif" font-size="13" lengthAdjust="spacing" textLength="7" x="1757.6553" y="329.9584">1</text></g><!--link SunriseTimeSensor to Sensor--><g id="link_SunriseTimeSensor_Sensor"><path codeLine="62" d="M1610.98,182.36 C1587.72,182.36 1582.46,182.36 1559.2,182.36 " fill="none" id="SunriseTimeSensor-to-Sensor" style="stroke:#181818;stroke-width:1.0;stroke-dasharray:7.0,7.0;"/><polygon fill="none" points="1541.2,182.36,1559.2,188.36,1559.2,176.36,1541.2,182.36" style="stroke:#181818;stroke-width:1.0;"/></g><!--link CatalogueSensor to SunriseTimeSensor--><g id="link_CatalogueSensor_SunriseTimeSensor"><path codeLine="64" d="M669.18,130.34 C697.45,99.79 737.55,64 782,47.36 C862.64,17.16 1474.04,24.29 1557,47.36 C1598.12,58.79 1634.166,76.8436 1669.746,99.1436 " fill="none" id="CatalogueSensor-to-SunriseTimeSensor" style="stroke:#181818;stroke-width:1.0;"/><polygon fill="#181818" points="1674.83,102.33,1669.3283,94.1611,1670.5934,99.6747,1665.0798,100.9397,1674.83,102.33" style="stroke:#181818;stroke-width:1.0;"/><text fill="#000000" font-family="sans-serif" font-size="13" lengthAdjust="spacing" textLength="35" x="1479.5" y="24.3883">&#171;has&#187;</text><text fill="#000000" font-family="sans-serif" font-size="13" lengthAdjust="spacing" textLength="7" x="667.3776" y="119.2647">1</text><text fill="#000000" font-family="sans-serif" font-size="13" lengthAdjust="spacing" textLength="7" x="1657.7198" y="91.223">1</text></g><!--link CatalogueSensor to SensorType--><g id="link_CatalogueSensor_SensorType"><path codeLine="65" d="M627,234.49 C627,277.51 627,331.03 627,363.3 " fill="none" id="CatalogueSensor-to-SensorType" style="stroke:#181818;stroke-width:1.0;"/><polygon fill="#181818" points="627,369.3,631,360.3,627,364.3,623,360.3,627,369.3" style="stroke:#181818;stroke-width:1.0;"/><text fill="#000000" font-family="sans-serif" font-size="13" lengthAdjust="spacing" textLength="42" x="628" y="307.3883">&#171;uses&#187;</text><text fill="#000000" font-family="sans-serif" font-size="13" lengthAdjust="spacing" textLength="7" x="619.5516" y="256.3139">1</text><text fill="#000000" font-family="sans-serif" font-size="13" lengthAdjust="spacing" textLength="5" x="621.3594" y="358.0221">*</text></g><!--link SunriseTimeValue to Value--><g id="link_SunriseTimeValue_Value"><path codeLine="66" d="M1632,359.52 C1511.67,327.64 1345.61,281.36 1320,262.36 C1300.75,248.08 1294.4361,240.5656 1285.7861,222.8456 " fill="none" id="SunriseTimeValue-to-Value" style="stroke:#181818;stroke-width:1.0;stroke-dasharray:7.0,7.0;"/><polygon fill="none" points="1277.89,206.67,1280.3942,225.4777,1291.178,220.2136,1277.89,206.67" style="stroke:#181818;stroke-width:1.0;"/></g><!--link SensorTypeFactory to SensorType--><g id="link_SensorTypeFactory_SensorType"><path codeLine="67" d="M299.62,216.02 C378.7,258.61 509.7877,329.2244 578.8977,366.4544 " fill="none" id="SensorTypeFactory-to-SensorType" style="stroke:#181818;stroke-width:1.0;"/><polygon fill="#181818" points="584.18,369.3,578.1536,361.5101,579.7781,366.9287,574.3595,368.5531,584.18,369.3" style="stroke:#181818;stroke-width:1.0;"/><text fill="#000000" font-family="sans-serif" font-size="13" lengthAdjust="spacing" textLength="57" x="468" y="307.3883">&#171;creates&#187;</text><text fill="#000000" font-family="sans-serif" font-size="13" lengthAdjust="spacing" textLength="7" x="302.7945" y="237.6177">1</text><text fill="#000000" font-family="sans-serif" font-size="13" lengthAdjust="spacing" textLength="7" x="565.3105" y="358.0221">1</text></g><!--SRC=[ZLDTIyCm57tFhmY-hBDku6iP1TdG5mN1wQl4zAuBjab9Kc7K_NVJf4s_jhcNDToRatFEFNS5eTya1Po8d31U8PeHfV2QQ9A9j8Gtu4h82iqUj9RigzIWPcY1FpEcjEjj3mMe23-RmgghnFwIWV5qNRyAolNzRTkA4PgzWDwBnBmSZeY37SlWbUWz9pb4s27cw8WQdHqXhkegunhaZb30NhX_EuMUuc0UzS1rxuDafItRm_0nMwh6j8-4QY4Fk4yIKWb4j-fpaK3Mohx3j3KNTGFsEawP-fV1Mb5QRa1HoGhD1E_eIivqXD_Dxz3iiQOgcjoLYwJov2MNJC6MvT2u7aV_KvTDX8AIhBusoC_05MYF3iQNvoZKmWcq4TYJqJCXFxTuoliOU3ATj32BzLIeiPxXYy6f45pBQBkq8-5qIRfIOY9fR6xCiRT6PjO83HVcvlu6BnQn_Ku4uWYlLYvZ5STesX-Wk_slONjo1MGKi0MMwWpPSlaRjmkAHlEwmeSJT1PtEt4m5U94MXrkfDE_nuM9T8D4Vm00]--></g></svg>