<?xml version="1.0" encoding="us-ascii" standalone="no"?><svg xmlns="http://www.w3.org/2000/svg" xmlns:xlink="http://www.w3.org/1999/xlink" contentStyleType="text/css" height="617px" preserveAspectRatio="none" style="width:676px;height:617px;background:#FFFFFF;" version="1.1" viewBox="0 0 676 617" width="676px" zoomAndPan="magnify"><defs/><g><!--class US05--><g id="elem_US05"><rect codeLine="4" fill="#F1F1F1" height="122.4844" id="US05" rx="2.5" ry="2.5" style="stroke:#181818;stroke-width:0.5;" width="356" x="232" y="12"/><ellipse cx="388.75" cy="28" fill="#ADD1B2" rx="11" ry="11" style="stroke:#181818;stroke-width:1.0;"/><path d="M391.5156,23.875 Q391.6719,23.6563 391.8594,23.5469 Q392.0469,23.4375 392.2656,23.4375 Q392.6406,23.4375 392.875,23.7031 Q393.1094,23.9531 393.1094,24.5625 L393.1094,26.0156 Q393.1094,26.625 392.875,26.8906 Q392.6406,27.1563 392.2656,27.1563 Q391.9219,27.1563 391.7188,26.9531 Q391.5156,26.7656 391.4063,26.25 Q391.3594,25.8906 391.1719,25.7031 Q390.8438,25.3281 390.2344,25.1094 Q389.625,24.8906 389,24.8906 Q388.2344,24.8906 387.5938,25.2188 Q386.9688,25.5469 386.4688,26.2969 Q385.9844,27.0469 385.9844,28.0781 L385.9844,29.1719 Q385.9844,30.4063 386.875,31.2344 Q387.7656,32.0469 389.3594,32.0469 Q390.2969,32.0469 390.9531,31.7969 Q391.3438,31.6406 391.7656,31.2031 Q392.0313,30.9375 392.1719,30.8594 Q392.3281,30.7813 392.5313,30.7813 Q392.8594,30.7813 393.1094,31.0469 Q393.375,31.2969 393.375,31.6406 Q393.375,31.9844 393.0313,32.3906 Q392.5313,32.9688 391.7344,33.2969 Q390.6563,33.75 389.3594,33.75 Q387.8438,33.75 386.6406,33.125 Q385.6563,32.625 384.9688,31.5625 Q384.2813,30.4844 384.2813,29.2031 L384.2813,28.0469 Q384.2813,26.7188 384.8906,25.5781 Q385.5156,24.4219 386.6094,23.8125 Q387.7031,23.1875 388.9375,23.1875 Q389.6719,23.1875 390.3125,23.3594 Q390.9688,23.5156 391.5156,23.875 Z " fill="#000000"/><text fill="#000000" font-family="sans-serif" font-size="14" lengthAdjust="spacing" textLength="34" x="409.25" y="33.7969">US05</text><line style="stroke:#181818;stroke-width:0.5;" x1="233" x2="587" y1="44" y2="44"/><rect fill="none" height="6" style="stroke:#C82930;stroke-width:1.0;" width="6" x="240" y="55.8105"/><text fill="#000000" font-family="sans-serif" font-size="14" lengthAdjust="spacing" textLength="87" x="252" y="63.1074">house: House</text><rect fill="none" height="6" style="stroke:#C82930;stroke-width:1.0;" width="6" x="240" y="74.4316"/><text fill="#000000" font-family="sans-serif" font-size="14" lengthAdjust="spacing" textLength="301" x="252" y="81.7285">roomsDTOAndRooms: Map&lt;RoomDTO, Room&gt;</text><line style="stroke:#181818;stroke-width:0.5;" x1="233" x2="587" y1="89.2422" y2="89.2422"/><ellipse cx="243" cy="104.0527" fill="#84BE84" rx="3" ry="3" style="stroke:#038048;stroke-width:1.0;"/><text fill="#000000" font-family="sans-serif" font-size="14" lengthAdjust="spacing" textLength="330" x="252" y="108.3496">addDeviceToRoom(Room room, String deviceName)</text><ellipse cx="243" cy="122.6738" fill="#84BE84" rx="3" ry="3" style="stroke:#038048;stroke-width:1.0;"/><text fill="#000000" font-family="sans-serif" font-size="14" lengthAdjust="spacing" textLength="172" x="252" y="126.9707">getRoomList(): List&lt;Room&gt;</text></g><!--class House--><g id="elem_House"><rect codeLine="11" fill="#F1F1F1" height="85.2422" id="House" rx="2.5" ry="2.5" style="stroke:#181818;stroke-width:0.5;" width="198" x="151" y="189"/><ellipse cx="225.75" cy="205" fill="#ADD1B2" rx="11" ry="11" style="stroke:#181818;stroke-width:1.0;"/><path d="M228.5156,200.875 Q228.6719,200.6563 228.8594,200.5469 Q229.0469,200.4375 229.2656,200.4375 Q229.6406,200.4375 229.875,200.7031 Q230.1094,200.9531 230.1094,201.5625 L230.1094,203.0156 Q230.1094,203.625 229.875,203.8906 Q229.6406,204.1563 229.2656,204.1563 Q228.9219,204.1563 228.7188,203.9531 Q228.5156,203.7656 228.4063,203.25 Q228.3594,202.8906 228.1719,202.7031 Q227.8438,202.3281 227.2344,202.1094 Q226.625,201.8906 226,201.8906 Q225.2344,201.8906 224.5938,202.2188 Q223.9688,202.5469 223.4688,203.2969 Q222.9844,204.0469 222.9844,205.0781 L222.9844,206.1719 Q222.9844,207.4063 223.875,208.2344 Q224.7656,209.0469 226.3594,209.0469 Q227.2969,209.0469 227.9531,208.7969 Q228.3438,208.6406 228.7656,208.2031 Q229.0313,207.9375 229.1719,207.8594 Q229.3281,207.7813 229.5313,207.7813 Q229.8594,207.7813 230.1094,208.0469 Q230.375,208.2969 230.375,208.6406 Q230.375,208.9844 230.0313,209.3906 Q229.5313,209.9688 228.7344,210.2969 Q227.6563,210.75 226.3594,210.75 Q224.8438,210.75 223.6406,210.125 Q222.6563,209.625 221.9688,208.5625 Q221.2813,207.4844 221.2813,206.2031 L221.2813,205.0469 Q221.2813,203.7188 221.8906,202.5781 Q222.5156,201.4219 223.6094,200.8125 Q224.7031,200.1875 225.9375,200.1875 Q226.6719,200.1875 227.3125,200.3594 Q227.9688,200.5156 228.5156,200.875 Z " fill="#000000"/><text fill="#000000" font-family="sans-serif" font-size="14" lengthAdjust="spacing" textLength="40" x="246.25" y="210.7969">House</text><line style="stroke:#181818;stroke-width:0.5;" x1="152" x2="348" y1="221" y2="221"/><rect fill="none" height="6" style="stroke:#C82930;stroke-width:1.0;" width="6" x="159" y="232.8105"/><text fill="#000000" font-family="sans-serif" font-size="14" lengthAdjust="spacing" textLength="122" x="171" y="240.1074">rooms: List&lt;Room&gt;</text><line style="stroke:#181818;stroke-width:0.5;" x1="152" x2="348" y1="247.6211" y2="247.6211"/><ellipse cx="162" cy="262.4316" fill="#84BE84" rx="3" ry="3" style="stroke:#038048;stroke-width:1.0;"/><text fill="#000000" font-family="sans-serif" font-size="14" lengthAdjust="spacing" textLength="172" x="171" y="266.7285">getRoomList(): List&lt;Room&gt;</text></g><!--class Room--><g id="elem_Room"><rect codeLine="16" fill="#F1F1F1" height="85.2422" id="Room" rx="2.5" ry="2.5" style="stroke:#181818;stroke-width:0.5;" width="225" x="137.5" y="338.5"/><ellipse cx="227.25" cy="354.5" fill="#ADD1B2" rx="11" ry="11" style="stroke:#181818;stroke-width:1.0;"/><path d="M230.0156,350.375 Q230.1719,350.1563 230.3594,350.0469 Q230.5469,349.9375 230.7656,349.9375 Q231.1406,349.9375 231.375,350.2031 Q231.6094,350.4531 231.6094,351.0625 L231.6094,352.5156 Q231.6094,353.125 231.375,353.3906 Q231.1406,353.6563 230.7656,353.6563 Q230.4219,353.6563 230.2188,353.4531 Q230.0156,353.2656 229.9063,352.75 Q229.8594,352.3906 229.6719,352.2031 Q229.3438,351.8281 228.7344,351.6094 Q228.125,351.3906 227.5,351.3906 Q226.7344,351.3906 226.0938,351.7188 Q225.4688,352.0469 224.9688,352.7969 Q224.4844,353.5469 224.4844,354.5781 L224.4844,355.6719 Q224.4844,356.9063 225.375,357.7344 Q226.2656,358.5469 227.8594,358.5469 Q228.7969,358.5469 229.4531,358.2969 Q229.8438,358.1406 230.2656,357.7031 Q230.5313,357.4375 230.6719,357.3594 Q230.8281,357.2813 231.0313,357.2813 Q231.3594,357.2813 231.6094,357.5469 Q231.875,357.7969 231.875,358.1406 Q231.875,358.4844 231.5313,358.8906 Q231.0313,359.4688 230.2344,359.7969 Q229.1563,360.25 227.8594,360.25 Q226.3438,360.25 225.1406,359.625 Q224.1563,359.125 223.4688,358.0625 Q222.7813,356.9844 222.7813,355.7031 L222.7813,354.5469 Q222.7813,353.2188 223.3906,352.0781 Q224.0156,350.9219 225.1094,350.3125 Q226.2031,349.6875 227.4375,349.6875 Q228.1719,349.6875 228.8125,349.8594 Q229.4688,350.0156 230.0156,350.375 Z " fill="#000000"/><text fill="#000000" font-family="sans-serif" font-size="14" lengthAdjust="spacing" textLength="37" x="247.75" y="360.2969">Room</text><line style="stroke:#181818;stroke-width:0.5;" x1="138.5" x2="361.5" y1="370.5" y2="370.5"/><rect fill="none" height="6" style="stroke:#C82930;stroke-width:1.0;" width="6" x="145.5" y="382.3105"/><text fill="#000000" font-family="sans-serif" font-size="14" lengthAdjust="spacing" textLength="137" x="157.5" y="389.6074">devices: List&lt;Device&gt;</text><line style="stroke:#181818;stroke-width:0.5;" x1="138.5" x2="361.5" y1="397.1211" y2="397.1211"/><ellipse cx="148.5" cy="411.9316" fill="#84BE84" rx="3" ry="3" style="stroke:#038048;stroke-width:1.0;"/><text fill="#000000" font-family="sans-serif" font-size="14" lengthAdjust="spacing" textLength="199" x="157.5" y="416.2285">addDevice(deviceName: String)</text></g><!--class Device--><g id="elem_Device"><rect codeLine="21" fill="#F1F1F1" height="122.4844" id="Device" rx="2.5" ry="2.5" style="stroke:#181818;stroke-width:0.5;" width="488" x="6" y="488"/><ellipse cx="224.25" cy="504" fill="#ADD1B2" rx="11" ry="11" style="stroke:#181818;stroke-width:1.0;"/><path d="M227.0156,499.875 Q227.1719,499.6563 227.3594,499.5469 Q227.5469,499.4375 227.7656,499.4375 Q228.1406,499.4375 228.375,499.7031 Q228.6094,499.9531 228.6094,500.5625 L228.6094,502.0156 Q228.6094,502.625 228.375,502.8906 Q228.1406,503.1563 227.7656,503.1563 Q227.4219,503.1563 227.2188,502.9531 Q227.0156,502.7656 226.9063,502.25 Q226.8594,501.8906 226.6719,501.7031 Q226.3438,501.3281 225.7344,501.1094 Q225.125,500.8906 224.5,500.8906 Q223.7344,500.8906 223.0938,501.2188 Q222.4688,501.5469 221.9688,502.2969 Q221.4844,503.0469 221.4844,504.0781 L221.4844,505.1719 Q221.4844,506.4063 222.375,507.2344 Q223.2656,508.0469 224.8594,508.0469 Q225.7969,508.0469 226.4531,507.7969 Q226.8438,507.6406 227.2656,507.2031 Q227.5313,506.9375 227.6719,506.8594 Q227.8281,506.7813 228.0313,506.7813 Q228.3594,506.7813 228.6094,507.0469 Q228.875,507.2969 228.875,507.6406 Q228.875,507.9844 228.5313,508.3906 Q228.0313,508.9688 227.2344,509.2969 Q226.1563,509.75 224.8594,509.75 Q223.3438,509.75 222.1406,509.125 Q221.1563,508.625 220.4688,507.5625 Q219.7813,506.4844 219.7813,505.2031 L219.7813,504.0469 Q219.7813,502.7188 220.3906,501.5781 Q221.0156,500.4219 222.1094,499.8125 Q223.2031,499.1875 224.4375,499.1875 Q225.1719,499.1875 225.8125,499.3594 Q226.4688,499.5156 227.0156,499.875 Z " fill="#000000"/><text fill="#000000" font-family="sans-serif" font-size="14" lengthAdjust="spacing" textLength="43" x="244.75" y="509.7969">Device</text><line style="stroke:#181818;stroke-width:0.5;" x1="7" x2="493" y1="520" y2="520"/><rect fill="none" height="6" style="stroke:#C82930;stroke-width:1.0;" width="6" x="14" y="531.8105"/><text fill="#000000" font-family="sans-serif" font-size="14" lengthAdjust="spacing" textLength="122" x="26" y="539.1074">deviceName: String</text><rect fill="none" height="6" style="stroke:#C82930;stroke-width:1.0;" width="6" x="14" y="550.4316"/><text fill="#000000" font-family="sans-serif" font-size="14" lengthAdjust="spacing" textLength="97" x="26" y="557.7285">status: boolean</text><rect fill="none" height="6" style="stroke:#C82930;stroke-width:1.0;" width="6" x="14" y="569.0527"/><text fill="#000000" font-family="sans-serif" font-size="14" lengthAdjust="spacing" textLength="134" x="26" y="576.3496">sensor: List&lt;Sensor&gt;</text><line style="stroke:#181818;stroke-width:0.5;" x1="7" x2="493" y1="583.8633" y2="583.8633"/><ellipse cx="17" cy="598.6738" fill="#84BE84" rx="3" ry="3" style="stroke:#038048;stroke-width:1.0;"/><text fill="#000000" font-family="sans-serif" font-size="14" lengthAdjust="spacing" textLength="462" x="26" y="602.9707">createDevice(deviceName: String, status: boolean, sensor: List&lt;Sensor&gt;)</text></g><!--class DeviceAssembler--><g id="elem_DeviceAssembler"><rect codeLine="28" fill="#F1F1F1" height="66.6211" id="DeviceAssembler" rx="2.5" ry="2.5" style="stroke:#181818;stroke-width:0.5;" width="302" x="367" y="198"/><ellipse cx="459.25" cy="214" fill="#ADD1B2" rx="11" ry="11" style="stroke:#181818;stroke-width:1.0;"/><path d="M462.0156,209.875 Q462.1719,209.6563 462.3594,209.5469 Q462.5469,209.4375 462.7656,209.4375 Q463.1406,209.4375 463.375,209.7031 Q463.6094,209.9531 463.6094,210.5625 L463.6094,212.0156 Q463.6094,212.625 463.375,212.8906 Q463.1406,213.1563 462.7656,213.1563 Q462.4219,213.1563 462.2188,212.9531 Q462.0156,212.7656 461.9063,212.25 Q461.8594,211.8906 461.6719,211.7031 Q461.3438,211.3281 460.7344,211.1094 Q460.125,210.8906 459.5,210.8906 Q458.7344,210.8906 458.0938,211.2188 Q457.4688,211.5469 456.9688,212.2969 Q456.4844,213.0469 456.4844,214.0781 L456.4844,215.1719 Q456.4844,216.4063 457.375,217.2344 Q458.2656,218.0469 459.8594,218.0469 Q460.7969,218.0469 461.4531,217.7969 Q461.8438,217.6406 462.2656,217.2031 Q462.5313,216.9375 462.6719,216.8594 Q462.8281,216.7813 463.0313,216.7813 Q463.3594,216.7813 463.6094,217.0469 Q463.875,217.2969 463.875,217.6406 Q463.875,217.9844 463.5313,218.3906 Q463.0313,218.9688 462.2344,219.2969 Q461.1563,219.75 459.8594,219.75 Q458.3438,219.75 457.1406,219.125 Q456.1563,218.625 455.4688,217.5625 Q454.7813,216.4844 454.7813,215.2031 L454.7813,214.0469 Q454.7813,212.7188 455.3906,211.5781 Q456.0156,210.4219 457.1094,209.8125 Q458.2031,209.1875 459.4375,209.1875 Q460.1719,209.1875 460.8125,209.3594 Q461.4688,209.5156 462.0156,209.875 Z " fill="#000000"/><text fill="#000000" font-family="sans-serif" font-size="14" lengthAdjust="spacing" textLength="109" x="479.75" y="219.7969">DeviceAssembler</text><line style="stroke:#181818;stroke-width:0.5;" x1="368" x2="668" y1="230" y2="230"/><line style="stroke:#181818;stroke-width:0.5;" x1="368" x2="668" y1="238" y2="238"/><ellipse cx="378" cy="252.8105" fill="#84BE84" rx="3" ry="3" style="stroke:#038048;stroke-width:1.0;"/><text fill="#000000" font-family="sans-serif" font-size="14" lengthAdjust="spacing" textLength="276" x="387" y="257.1074">domainToDTO(device: Device): DeviceDTO</text></g><!--class DeviceDTO--><g id="elem_DeviceDTO"><rect codeLine="32" fill="#F1F1F1" height="103.8633" id="DeviceDTO" rx="2.5" ry="2.5" style="stroke:#181818;stroke-width:0.5;" width="230" x="403" y="329"/><ellipse cx="477.25" cy="345" fill="#ADD1B2" rx="11" ry="11" style="stroke:#181818;stroke-width:1.0;"/><path d="M480.0156,340.875 Q480.1719,340.6563 480.3594,340.5469 Q480.5469,340.4375 480.7656,340.4375 Q481.1406,340.4375 481.375,340.7031 Q481.6094,340.9531 481.6094,341.5625 L481.6094,343.0156 Q481.6094,343.625 481.375,343.8906 Q481.1406,344.1563 480.7656,344.1563 Q480.4219,344.1563 480.2188,343.9531 Q480.0156,343.7656 479.9063,343.25 Q479.8594,342.8906 479.6719,342.7031 Q479.3438,342.3281 478.7344,342.1094 Q478.125,341.8906 477.5,341.8906 Q476.7344,341.8906 476.0938,342.2188 Q475.4688,342.5469 474.9688,343.2969 Q474.4844,344.0469 474.4844,345.0781 L474.4844,346.1719 Q474.4844,347.4063 475.375,348.2344 Q476.2656,349.0469 477.8594,349.0469 Q478.7969,349.0469 479.4531,348.7969 Q479.8438,348.6406 480.2656,348.2031 Q480.5313,347.9375 480.6719,347.8594 Q480.8281,347.7813 481.0313,347.7813 Q481.3594,347.7813 481.6094,348.0469 Q481.875,348.2969 481.875,348.6406 Q481.875,348.9844 481.5313,349.3906 Q481.0313,349.9688 480.2344,350.2969 Q479.1563,350.75 477.8594,350.75 Q476.3438,350.75 475.1406,350.125 Q474.1563,349.625 473.4688,348.5625 Q472.7813,347.4844 472.7813,346.2031 L472.7813,345.0469 Q472.7813,343.7188 473.3906,342.5781 Q474.0156,341.4219 475.1094,340.8125 Q476.2031,340.1875 477.4375,340.1875 Q478.1719,340.1875 478.8125,340.3594 Q479.4688,340.5156 480.0156,340.875 Z " fill="#000000"/><text fill="#000000" font-family="sans-serif" font-size="14" lengthAdjust="spacing" textLength="73" x="497.75" y="350.7969">DeviceDTO</text><line style="stroke:#181818;stroke-width:0.5;" x1="404" x2="632" y1="361" y2="361"/><rect fill="none" height="6" style="stroke:#C82930;stroke-width:1.0;" width="6" x="411" y="372.8105"/><text fill="#000000" font-family="sans-serif" font-size="14" lengthAdjust="spacing" textLength="122" x="423" y="380.1074">deviceName: String</text><rect fill="none" height="6" style="stroke:#C82930;stroke-width:1.0;" width="6" x="411" y="391.4316"/><text fill="#000000" font-family="sans-serif" font-size="14" lengthAdjust="spacing" textLength="97" x="423" y="398.7285">status: boolean</text><line style="stroke:#181818;stroke-width:0.5;" x1="404" x2="632" y1="406.2422" y2="406.2422"/><ellipse cx="414" cy="421.0527" fill="#84BE84" rx="3" ry="3" style="stroke:#038048;stroke-width:1.0;"/><text fill="#000000" font-family="sans-serif" font-size="14" lengthAdjust="spacing" textLength="204" x="423" y="425.3496">createDeviceDTO(): DeviceDTO</text></g><polygon fill="#181818" points="250,338.2777,254,332.2777,250,326.2777,246,332.2777,250,338.2777" style="stroke:#181818;stroke-width:1.0;"/><path d="M250,274.373 C250,294.3882 250,306.2821 250,326.2777 " fill="none" style="stroke:#181818;stroke-width:1.0;stroke-dasharray:7.0,7.0;"/><text fill="#000000" font-family="sans-serif" font-size="13" lengthAdjust="spacing" textLength="49" x="251" y="307.0283">contains</text><text fill="#000000" font-family="sans-serif" font-size="13" lengthAdjust="spacing" textLength="20" x="229" y="334.3061">0..*</text><text fill="#000000" font-family="sans-serif" font-size="13" lengthAdjust="spacing" textLength="7" x="242" y="289.4014">1</text><polygon fill="none" points="250,487.9382,256,469.9382,244,469.9382,250,487.9382" style="stroke:#181818;stroke-width:1.0;"/><path d="M250,423.8888 C250,443.2903 250,448.7014 250,469.9382 " fill="none" style="stroke:#181818;stroke-width:1.0;"/><text fill="#000000" font-family="sans-serif" font-size="13" lengthAdjust="spacing" textLength="43" x="251" y="466.0283">creates</text><text fill="#000000" font-family="sans-serif" font-size="13" lengthAdjust="spacing" textLength="20" x="229" y="483.9665">0..*</text><text fill="#000000" font-family="sans-serif" font-size="13" lengthAdjust="spacing" textLength="7" x="242" y="438.9171">1</text><polygon fill="#181818" points="518,328.8127,522,319.8127,518,323.8127,514,319.8127,518,328.8127" style="stroke:#181818;stroke-width:1.0;"/><path d="M518,265.235 C518,283.907 518,301.7219 518,322.8127 " fill="none" style="stroke:#181818;stroke-width:1.0;stroke-dasharray:7.0,7.0;"/><text fill="#000000" font-family="sans-serif" font-size="13" lengthAdjust="spacing" textLength="43" x="519" y="307.0283">creates</text><polygon fill="#181818" points="292.6406,188.7921,301.8716,185.3585,296.215,185.2959,296.2776,179.6394,292.6406,188.7921" style="stroke:#181818;stroke-width:1.0;"/><path d="M348.5974,134.0594 C329.9146,152.3336 314.0884,167.8135 296.9299,184.5967 " fill="none" style="stroke:#181818;stroke-width:1.0;stroke-dasharray:7.0,7.0;"/><text fill="#000000" font-family="sans-serif" font-size="13" lengthAdjust="spacing" textLength="28" x="331" y="167.0283">uses</text><polygon fill="#181818" points="495.5404,197.9543,493.7207,188.275,492.7005,193.8391,487.1364,192.8188,495.5404,197.9543" style="stroke:#181818;stroke-width:1.0;"/><path d="M451.4467,134.0594 C466.4371,155.7815 479.3859,174.5453 492.1325,193.0161 " fill="none" style="stroke:#181818;stroke-width:1.0;stroke-dasharray:7.0,7.0;"/><text fill="#000000" font-family="sans-serif" font-size="13" lengthAdjust="spacing" textLength="28" x="478" y="167.0283">uses</text><!--SRC=[dLFDJiCm3BxdAKmkMzbMZGEN2asQj0C7VgHjF43McX6fJQOaGqB0qt3WGVPYE3_RkW8I8eVOiJz__bohPniZres0MhpehGFRe1DACDQ36JvA9NUVkmyD5K9P2slHic3XOJ6-X5S6T4PFUcknW6jlOiHetTZPydwgghbt2xWLcollKd08tfa4v41KrGoVPObBxQDzVu4l7yB26QdMrDgdxqI3MInPe_Ee6sbTFol0swl8-CwIkY1bByz41ItSNsc2cCGIPUnvekRk3FsZrYB9puvi4NFAruR6k7N2RQdDIkiQXKf1L5QRr7iH7gbtQL0u_BNz43fy5FY1wvlAAQswMTLeajn1fHiXrLBJ_bAR8a6plKEfBWs5_ZFloLI-OxT73-POYr9gHNpAQSlYnZd4Sy4Xpy-1Z-dcSOq5b5evci6oyEQ46OtU9eUQqnChqygeDWYohFjrydpI6hK0de2SXH_4fwCoIf5fnxjK1yGN]--></g></svg>