<?xml version="1.0" encoding="us-ascii" standalone="no"?><svg xmlns="http://www.w3.org/2000/svg" xmlns:xlink="http://www.w3.org/1999/xlink" contentStyleType="text/css" height="1261px" preserveAspectRatio="none" style="width:3356px;height:1261px;background:#FFFFFF;" version="1.1" viewBox="0 0 3356 1261" width="3356px" zoomAndPan="magnify"><defs/><g><rect fill="#FFFFFF" height="371.5313" style="stroke:#181818;stroke-width:1.0;" width="10" x="255" y="71.9121"/><rect fill="#FFFFFF" height="731.0918" style="stroke:#181818;stroke-width:1.0;" width="10" x="255" y="474.7344"/><rect fill="#FFFFFF" height="93.873" style="stroke:#181818;stroke-width:1.0;" width="10" x="456.5" y="103.2031"/><rect fill="#FFFFFF" height="31.291" style="stroke:#181818;stroke-width:1.0;" width="10" x="618.5" y="134.4941"/><rect fill="#FFFFFF" height="183.7852" style="stroke:#181818;stroke-width:1.0;" width="10" x="799.5" y="228.3672"/><rect fill="#FFFFFF" height="33.6211" style="stroke:#181818;stroke-width:1.0;" width="10" x="1013.5" y="295.9492"/><rect fill="#FFFFFF" height="33.6211" style="stroke:#181818;stroke-width:1.0;" width="10" x="1153.5" y="516.0254"/><rect fill="#FFFFFF" height="33.6211" style="stroke:#181818;stroke-width:1.0;" width="10" x="1307" y="590.9375"/><rect fill="#FFFFFF" height="33.6211" style="stroke:#181818;stroke-width:1.0;" width="10" x="1495" y="665.8496"/><rect fill="#FFFFFF" height="33.6211" style="stroke:#181818;stroke-width:1.0;" width="10" x="1692" y="740.7617"/><rect fill="#FFFFFF" height="231.3672" style="stroke:#181818;stroke-width:1.0;" width="10" x="1896" y="805.6738"/><rect fill="#FFFFFF" height="106.2031" style="stroke:#181818;stroke-width:1.0;" width="10" x="2298" y="836.9648"/><rect fill="#FFFFFF" height="33.6211" style="stroke:#181818;stroke-width:1.0;" width="10" x="2713" y="878.2559"/><rect fill="#FFFFFF" height="31.291" style="stroke:#181818;stroke-width:1.0;" width="10" x="2838.5" y="974.459"/><rect fill="#FFFFFF" height="106.2031" style="stroke:#181818;stroke-width:1.0;" width="10" x="3030" y="1068.332"/><rect fill="#FFFFFF" height="33.6211" style="stroke:#181818;stroke-width:1.0;" width="10" x="3264" y="1109.623"/><rect fill="none" height="138.4941" style="stroke:#000000;stroke-width:1.5;" width="417" x="685" y="243.3672"/><line style="stroke:#181818;stroke-width:0.5;stroke-dasharray:5.0,5.0;" x1="14" x2="14" y1="38.6211" y2="1223.8262"/><line style="stroke:#181818;stroke-width:0.5;stroke-dasharray:5.0,5.0;" x1="260" x2="260" y1="38.6211" y2="1223.8262"/><line style="stroke:#181818;stroke-width:0.5;stroke-dasharray:5.0,5.0;" x1="461" x2="461" y1="38.6211" y2="1223.8262"/><line style="stroke:#181818;stroke-width:0.5;stroke-dasharray:5.0,5.0;" x1="623" x2="623" y1="38.6211" y2="1223.8262"/><line style="stroke:#181818;stroke-width:0.5;stroke-dasharray:5.0,5.0;" x1="804" x2="804" y1="38.6211" y2="1223.8262"/><line style="stroke:#181818;stroke-width:0.5;stroke-dasharray:5.0,5.0;" x1="1018" x2="1018" y1="294.4688" y2="1223.8262"/><line style="stroke:#181818;stroke-width:0.5;stroke-dasharray:5.0,5.0;" x1="1158" x2="1158" y1="514.5449" y2="1223.8262"/><line style="stroke:#181818;stroke-width:0.5;stroke-dasharray:5.0,5.0;" x1="1312" x2="1312" y1="589.457" y2="1223.8262"/><line style="stroke:#181818;stroke-width:0.5;stroke-dasharray:5.0,5.0;" x1="1500" x2="1500" y1="664.3691" y2="1223.8262"/><line style="stroke:#181818;stroke-width:0.5;stroke-dasharray:5.0,5.0;" x1="1697" x2="1697" y1="739.2813" y2="1223.8262"/><line style="stroke:#181818;stroke-width:0.5;stroke-dasharray:5.0,5.0;" x1="1901" x2="1901" y1="38.6211" y2="1223.8262"/><line style="stroke:#181818;stroke-width:0.5;stroke-dasharray:5.0,5.0;" x1="2303" x2="2303" y1="38.6211" y2="1223.8262"/><line style="stroke:#181818;stroke-width:0.5;stroke-dasharray:5.0,5.0;" x1="2718" x2="2718" y1="876.7754" y2="1223.8262"/><line style="stroke:#181818;stroke-width:0.5;stroke-dasharray:5.0,5.0;" x1="2843" x2="2843" y1="38.6211" y2="1223.8262"/><line style="stroke:#181818;stroke-width:0.5;stroke-dasharray:5.0,5.0;" x1="3035" x2="3035" y1="38.6211" y2="1223.8262"/><line style="stroke:#181818;stroke-width:0.5;stroke-dasharray:5.0,5.0;" x1="3269" x2="3269" y1="1108.1426" y2="1223.8262"/><rect fill="#E2E2F0" height="32.6211" rx="2.5" ry="2.5" style="stroke:#181818;stroke-width:0.5;" width="18" x="5" y="5"/><text fill="#000000" font-family="sans-serif" font-size="14" lengthAdjust="spacing" textLength="4" x="12" y="27.1074">&#160;</text><rect fill="#E2E2F0" height="32.6211" rx="2.5" ry="2.5" style="stroke:#181818;stroke-width:0.5;" width="18" x="5" y="1222.8262"/><text fill="#000000" font-family="sans-serif" font-size="14" lengthAdjust="spacing" textLength="4" x="12" y="1244.9336">&#160;</text><rect fill="#E2E2F0" height="32.6211" rx="2.5" ry="2.5" style="stroke:#181818;stroke-width:0.5;" width="202" x="159" y="5"/><text fill="#000000" font-family="sans-serif" font-size="14" lengthAdjust="spacing" textLength="188" x="166" y="27.1074">:AddDeviceToRoomController</text><rect fill="#E2E2F0" height="32.6211" rx="2.5" ry="2.5" style="stroke:#181818;stroke-width:0.5;" width="202" x="159" y="1222.8262"/><text fill="#000000" font-family="sans-serif" font-size="14" lengthAdjust="spacing" textLength="188" x="166" y="1244.9336">:AddDeviceToRoomController</text><rect fill="#E2E2F0" height="32.6211" rx="2.5" ry="2.5" style="stroke:#181818;stroke-width:0.5;" width="181" x="371" y="5"/><text fill="#000000" font-family="sans-serif" font-size="14" lengthAdjust="spacing" textLength="167" x="378" y="27.1074">roomServiceImpl:RoomService</text><rect fill="#E2E2F0" height="32.6211" rx="2.5" ry="2.5" style="stroke:#181818;stroke-width:0.5;" width="181" x="371" y="1222.8262"/><text fill="#000000" font-family="sans-serif" font-size="14" lengthAdjust="spacing" textLength="167" x="378" y="1244.9336">roomServiceImpl:RoomService</text><rect fill="#E2E2F0" height="32.6211" rx="2.5" ry="2.5" style="stroke:#181818;stroke-width:0.5;" width="123" x="562" y="5"/><text fill="#000000" font-family="sans-serif" font-size="14" lengthAdjust="spacing" textLength="109" x="569" y="27.1074">:RoomRepository</text><rect fill="#E2E2F0" height="32.6211" rx="2.5" ry="2.5" style="stroke:#181818;stroke-width:0.5;" width="123" x="562" y="1222.8262"/><text fill="#000000" font-family="sans-serif" font-size="14" lengthAdjust="spacing" textLength="109" x="569" y="1244.9336">:RoomRepository</text><rect fill="#E2E2F0" height="32.6211" rx="2.5" ry="2.5" style="stroke:#181818;stroke-width:0.5;" width="219" x="695" y="5"/><text fill="#000000" font-family="sans-serif" font-size="14" lengthAdjust="spacing" textLength="205" x="702" y="27.1074">roomAssembler:RoomAssembler</text><rect fill="#E2E2F0" height="32.6211" rx="2.5" ry="2.5" style="stroke:#181818;stroke-width:0.5;" width="219" x="695" y="1222.8262"/><text fill="#000000" font-family="sans-serif" font-size="14" lengthAdjust="spacing" textLength="205" x="702" y="1244.9336">roomAssembler:RoomAssembler</text><rect fill="#E2E2F0" height="32.6211" rx="2.5" ry="2.5" style="stroke:#181818;stroke-width:0.5;" width="147" x="945" y="1222.8262"/><text fill="#000000" font-family="sans-serif" font-size="14" lengthAdjust="spacing" textLength="133" x="952" y="1244.9336">roomDTO:RoomDTO</text><rect fill="#E2E2F0" height="32.6211" rx="2.5" ry="2.5" style="stroke:#181818;stroke-width:0.5;" width="113" x="1102" y="1222.8262"/><text fill="#000000" font-family="sans-serif" font-size="14" lengthAdjust="spacing" textLength="99" x="1109" y="1244.9336">roomID:RoomID</text><rect fill="#E2E2F0" height="32.6211" rx="2.5" ry="2.5" style="stroke:#181818;stroke-width:0.5;" width="174" x="1225" y="1222.8262"/><text fill="#000000" font-family="sans-serif" font-size="14" lengthAdjust="spacing" textLength="160" x="1232" y="1244.9336">deviceName:DeviceName</text><rect fill="#E2E2F0" height="32.6211" rx="2.5" ry="2.5" style="stroke:#181818;stroke-width:0.5;" width="182" x="1409" y="1222.8262"/><text fill="#000000" font-family="sans-serif" font-size="14" lengthAdjust="spacing" textLength="168" x="1416" y="1244.9336">deviceStatus:DeviceStatus</text><rect fill="#E2E2F0" height="32.6211" rx="2.5" ry="2.5" style="stroke:#181818;stroke-width:0.5;" width="192" x="1601" y="1222.8262"/><text fill="#000000" font-family="sans-serif" font-size="14" lengthAdjust="spacing" textLength="178" x="1608" y="1244.9336">deviceTypeID:DeviceTypeID</text><rect fill="#E2E2F0" height="32.6211" rx="2.5" ry="2.5" style="stroke:#181818;stroke-width:0.5;" width="196" x="1803" y="5"/><text fill="#000000" font-family="sans-serif" font-size="14" lengthAdjust="spacing" textLength="182" x="1810" y="27.1074">deviceServiceImpl:DeviceService</text><rect fill="#E2E2F0" height="32.6211" rx="2.5" ry="2.5" style="stroke:#181818;stroke-width:0.5;" width="196" x="1803" y="1222.8262"/><text fill="#000000" font-family="sans-serif" font-size="14" lengthAdjust="spacing" textLength="182" x="1810" y="1244.9336">deviceServiceImpl:DeviceService</text><rect fill="#E2E2F0" height="32.6211" rx="2.5" ry="2.5" style="stroke:#181818;stroke-width:0.5;" width="198" x="2204" y="5"/><text fill="#000000" font-family="sans-serif" font-size="14" lengthAdjust="spacing" textLength="184" x="2211" y="27.1074">deviceFactory:DeviceFactory</text><rect fill="#E2E2F0" height="32.6211" rx="2.5" ry="2.5" style="stroke:#181818;stroke-width:0.5;" width="198" x="2204" y="1222.8262"/><text fill="#000000" font-family="sans-serif" font-size="14" lengthAdjust="spacing" textLength="184" x="2211" y="1244.9336">deviceFactory:DeviceFactory</text><rect fill="#E2E2F0" height="32.6211" rx="2.5" ry="2.5" style="stroke:#181818;stroke-width:0.5;" width="102" x="2667" y="1222.8262"/><text fill="#000000" font-family="sans-serif" font-size="14" lengthAdjust="spacing" textLength="88" x="2674" y="1244.9336">device:Device</text><rect fill="#E2E2F0" height="32.6211" rx="2.5" ry="2.5" style="stroke:#181818;stroke-width:0.5;" width="129" x="2779" y="5"/><text fill="#000000" font-family="sans-serif" font-size="14" lengthAdjust="spacing" textLength="115" x="2786" y="27.1074">:DeviceRepository</text><rect fill="#E2E2F0" height="32.6211" rx="2.5" ry="2.5" style="stroke:#181818;stroke-width:0.5;" width="129" x="2779" y="1222.8262"/><text fill="#000000" font-family="sans-serif" font-size="14" lengthAdjust="spacing" textLength="115" x="2786" y="1244.9336">:DeviceRepository</text><rect fill="#E2E2F0" height="32.6211" rx="2.5" ry="2.5" style="stroke:#181818;stroke-width:0.5;" width="234" x="2918" y="5"/><text fill="#000000" font-family="sans-serif" font-size="14" lengthAdjust="spacing" textLength="220" x="2925" y="27.1074">deviceAssembler:DeviceAssembler</text><rect fill="#E2E2F0" height="32.6211" rx="2.5" ry="2.5" style="stroke:#181818;stroke-width:0.5;" width="234" x="2918" y="1222.8262"/><text fill="#000000" font-family="sans-serif" font-size="14" lengthAdjust="spacing" textLength="220" x="2925" y="1244.9336">deviceAssembler:DeviceAssembler</text><rect fill="#E2E2F0" height="32.6211" rx="2.5" ry="2.5" style="stroke:#181818;stroke-width:0.5;" width="162" x="3188" y="1222.8262"/><text fill="#000000" font-family="sans-serif" font-size="14" lengthAdjust="spacing" textLength="148" x="3195" y="1244.9336">deviceDTO:DeviceDTO</text><rect fill="#FFFFFF" height="371.5313" style="stroke:#181818;stroke-width:1.0;" width="10" x="255" y="71.9121"/><rect fill="#FFFFFF" height="731.0918" style="stroke:#181818;stroke-width:1.0;" width="10" x="255" y="474.7344"/><rect fill="#FFFFFF" height="93.873" style="stroke:#181818;stroke-width:1.0;" width="10" x="456.5" y="103.2031"/><rect fill="#FFFFFF" height="31.291" style="stroke:#181818;stroke-width:1.0;" width="10" x="618.5" y="134.4941"/><rect fill="#FFFFFF" height="183.7852" style="stroke:#181818;stroke-width:1.0;" width="10" x="799.5" y="228.3672"/><rect fill="#FFFFFF" height="33.6211" style="stroke:#181818;stroke-width:1.0;" width="10" x="1013.5" y="295.9492"/><rect fill="#FFFFFF" height="33.6211" style="stroke:#181818;stroke-width:1.0;" width="10" x="1153.5" y="516.0254"/><rect fill="#FFFFFF" height="33.6211" style="stroke:#181818;stroke-width:1.0;" width="10" x="1307" y="590.9375"/><rect fill="#FFFFFF" height="33.6211" style="stroke:#181818;stroke-width:1.0;" width="10" x="1495" y="665.8496"/><rect fill="#FFFFFF" height="33.6211" style="stroke:#181818;stroke-width:1.0;" width="10" x="1692" y="740.7617"/><rect fill="#FFFFFF" height="231.3672" style="stroke:#181818;stroke-width:1.0;" width="10" x="1896" y="805.6738"/><rect fill="#FFFFFF" height="106.2031" style="stroke:#181818;stroke-width:1.0;" width="10" x="2298" y="836.9648"/><rect fill="#FFFFFF" height="33.6211" style="stroke:#181818;stroke-width:1.0;" width="10" x="2713" y="878.2559"/><rect fill="#FFFFFF" height="31.291" style="stroke:#181818;stroke-width:1.0;" width="10" x="2838.5" y="974.459"/><rect fill="#FFFFFF" height="106.2031" style="stroke:#181818;stroke-width:1.0;" width="10" x="3030" y="1068.332"/><rect fill="#FFFFFF" height="33.6211" style="stroke:#181818;stroke-width:1.0;" width="10" x="3264" y="1109.623"/><ellipse cx="13.5" cy="71.1621" fill="none" rx="4" ry="4" style="stroke:#181818;stroke-width:1.5;"/><polygon fill="#181818" points="243,67.9121,253,71.9121,243,75.9121,247,71.9121" style="stroke:#181818;stroke-width:1.0;"/><line style="stroke:#181818;stroke-width:1.0;" x1="18" x2="249" y1="71.9121" y2="71.9121"/><text fill="#000000" font-family="sans-serif" font-size="13" font-weight="bold" lengthAdjust="spacing" textLength="7" x="21" y="66.6494">1</text><text fill="#000000" font-family="sans-serif" font-size="13" lengthAdjust="spacing" textLength="67" x="32" y="66.6494">getRooms()</text><polygon fill="#181818" points="444.5,99.2031,454.5,103.2031,444.5,107.2031,448.5,103.2031" style="stroke:#181818;stroke-width:1.0;"/><line style="stroke:#181818;stroke-width:1.0;" x1="265" x2="450.5" y1="103.2031" y2="103.2031"/><text fill="#000000" font-family="sans-serif" font-size="13" font-weight="bold" lengthAdjust="spacing" textLength="7" x="272" y="97.9404">2</text><text fill="#000000" font-family="sans-serif" font-size="13" lengthAdjust="spacing" textLength="67" x="283" y="97.9404">getRooms()</text><polygon fill="#181818" points="606.5,130.4941,616.5,134.4941,606.5,138.4941,610.5,134.4941" style="stroke:#181818;stroke-width:1.0;"/><line style="stroke:#181818;stroke-width:1.0;" x1="466.5" x2="612.5" y1="134.4941" y2="134.4941"/><text fill="#000000" font-family="sans-serif" font-size="13" font-weight="bold" lengthAdjust="spacing" textLength="7" x="473.5" y="129.2314">3</text><text fill="#000000" font-family="sans-serif" font-size="13" lengthAdjust="spacing" textLength="43" x="484.5" y="129.2314">findAll()</text><polygon fill="#181818" points="477.5,161.7852,467.5,165.7852,477.5,169.7852,473.5,165.7852" style="stroke:#181818;stroke-width:1.0;"/><line style="stroke:#181818;stroke-width:1.0;stroke-dasharray:2.0,2.0;" x1="471.5" x2="622.5" y1="165.7852" y2="165.7852"/><text fill="#000000" font-family="sans-serif" font-size="13" font-weight="bold" lengthAdjust="spacing" textLength="7" x="483.5" y="160.5225">4</text><text fill="#000000" font-family="sans-serif" font-size="13" lengthAdjust="spacing" textLength="71" x="494.5" y="160.5225">listOfRooms</text><polygon fill="#181818" points="276,193.0762,266,197.0762,276,201.0762,272,197.0762" style="stroke:#181818;stroke-width:1.0;"/><line style="stroke:#181818;stroke-width:1.0;stroke-dasharray:2.0,2.0;" x1="270" x2="460.5" y1="197.0762" y2="197.0762"/><text fill="#000000" font-family="sans-serif" font-size="13" font-weight="bold" lengthAdjust="spacing" textLength="7" x="282" y="191.8135">5</text><text fill="#000000" font-family="sans-serif" font-size="13" lengthAdjust="spacing" textLength="71" x="293" y="191.8135">listOfRooms</text><polygon fill="#181818" points="787.5,224.3672,797.5,228.3672,787.5,232.3672,791.5,228.3672" style="stroke:#181818;stroke-width:1.0;"/><line style="stroke:#181818;stroke-width:1.0;" x1="265" x2="793.5" y1="228.3672" y2="228.3672"/><text fill="#000000" font-family="sans-serif" font-size="13" font-weight="bold" lengthAdjust="spacing" textLength="7" x="272" y="223.1045">6</text><text fill="#000000" font-family="sans-serif" font-size="13" lengthAdjust="spacing" textLength="161" x="283" y="223.1045">domainToDTO(listOfRooms)</text><path d="M685,243.3672 L758,243.3672 L758,252.6582 L748,262.6582 L685,262.6582 L685,243.3672 " fill="#EEEEEE" style="stroke:#000000;stroke-width:1.5;"/><rect fill="none" height="138.4941" style="stroke:#000000;stroke-width:1.5;" width="417" x="685" y="243.3672"/><text fill="#000000" font-family="sans-serif" font-size="13" font-weight="bold" lengthAdjust="spacing" textLength="28" x="700" y="258.3955">loop</text><text fill="#000000" font-family="sans-serif" font-size="11" font-weight="bold" lengthAdjust="spacing" textLength="86" x="773" y="257.2373">[for each room]</text><polygon fill="#181818" points="933,281.9492,943,285.9492,933,289.9492,937,285.9492" style="stroke:#181818;stroke-width:1.0;"/><line style="stroke:#181818;stroke-width:1.0;" x1="809.5" x2="939" y1="285.9492" y2="285.9492"/><text fill="#000000" font-family="sans-serif" font-size="13" font-weight="bold" lengthAdjust="spacing" textLength="7" x="816.5" y="280.6865">7</text><text fill="#000000" font-family="sans-serif" font-size="13" lengthAdjust="spacing" textLength="96" x="827.5" y="280.6865">roomDTO (room)</text><rect fill="#E2E2F0" height="32.6211" rx="2.5" ry="2.5" style="stroke:#181818;stroke-width:0.5;" width="147" x="945" y="262.6582"/><text fill="#000000" font-family="sans-serif" font-size="14" lengthAdjust="spacing" textLength="133" x="952" y="284.7656">roomDTO:RoomDTO</text><polygon fill="#181818" points="820.5,325.5703,810.5,329.5703,820.5,333.5703,816.5,329.5703" style="stroke:#181818;stroke-width:1.0;"/><line style="stroke:#181818;stroke-width:1.0;stroke-dasharray:2.0,2.0;" x1="814.5" x2="1017.5" y1="329.5703" y2="329.5703"/><text fill="#000000" font-family="sans-serif" font-size="13" font-weight="bold" lengthAdjust="spacing" textLength="7" x="826.5" y="324.3076">8</text><text fill="#000000" font-family="sans-serif" font-size="13" lengthAdjust="spacing" textLength="55" x="837.5" y="324.3076">roomDTO</text><line style="stroke:#181818;stroke-width:1.0;" x1="809.5" x2="851.5" y1="360.8613" y2="360.8613"/><line style="stroke:#181818;stroke-width:1.0;" x1="851.5" x2="851.5" y1="360.8613" y2="373.8613"/><line style="stroke:#181818;stroke-width:1.0;" x1="810.5" x2="851.5" y1="373.8613" y2="373.8613"/><polygon fill="#181818" points="820.5,369.8613,810.5,373.8613,820.5,377.8613,816.5,373.8613" style="stroke:#181818;stroke-width:1.0;"/><text fill="#000000" font-family="sans-serif" font-size="13" font-weight="bold" lengthAdjust="spacing" textLength="7" x="816.5" y="355.5986">9</text><text fill="#000000" font-family="sans-serif" font-size="13" lengthAdjust="spacing" textLength="179" x="827.5" y="355.5986">addRoomDTOToList(roomDTO)</text><polygon fill="#181818" points="276,408.1523,266,412.1523,276,416.1523,272,412.1523" style="stroke:#181818;stroke-width:1.0;"/><line style="stroke:#181818;stroke-width:1.0;stroke-dasharray:2.0,2.0;" x1="270" x2="803.5" y1="412.1523" y2="412.1523"/><text fill="#000000" font-family="sans-serif" font-size="13" font-weight="bold" lengthAdjust="spacing" textLength="14" x="282" y="406.8896">10</text><text fill="#000000" font-family="sans-serif" font-size="13" lengthAdjust="spacing" textLength="76" x="300" y="406.8896">roomDTOList</text><polygon fill="#181818" points="25,439.4434,15,443.4434,25,447.4434,21,443.4434" style="stroke:#181818;stroke-width:1.0;"/><line style="stroke:#181818;stroke-width:1.0;stroke-dasharray:2.0,2.0;" x1="19" x2="259" y1="443.4434" y2="443.4434"/><text fill="#000000" font-family="sans-serif" font-size="13" font-weight="bold" lengthAdjust="spacing" textLength="14" x="31" y="438.1807">11</text><text fill="#000000" font-family="sans-serif" font-size="13" lengthAdjust="spacing" textLength="76" x="49" y="438.1807">roomDTOList</text><ellipse cx="13.5" cy="473.9844" fill="none" rx="4" ry="4" style="stroke:#181818;stroke-width:1.5;"/><polygon fill="#181818" points="243,470.7344,253,474.7344,243,478.7344,247,474.7344" style="stroke:#181818;stroke-width:1.0;"/><line style="stroke:#181818;stroke-width:1.0;" x1="18" x2="249" y1="474.7344" y2="474.7344"/><text fill="#000000" font-family="sans-serif" font-size="13" font-weight="bold" lengthAdjust="spacing" textLength="14" x="21" y="469.4717">12</text><text fill="#000000" font-family="sans-serif" font-size="13" lengthAdjust="spacing" textLength="204" x="39" y="469.4717">addDeviceToRoom(deviceDataDTO)</text><polygon fill="#181818" points="1090,502.0254,1100,506.0254,1090,510.0254,1094,506.0254" style="stroke:#181818;stroke-width:1.0;"/><line style="stroke:#181818;stroke-width:1.0;" x1="265" x2="1096" y1="506.0254" y2="506.0254"/><text fill="#000000" font-family="sans-serif" font-size="13" font-weight="bold" lengthAdjust="spacing" textLength="14" x="272" y="500.7627">13</text><text fill="#000000" font-family="sans-serif" font-size="13" lengthAdjust="spacing" textLength="110" x="290" y="500.7627">roomID(strRoomID)</text><rect fill="#E2E2F0" height="32.6211" rx="2.5" ry="2.5" style="stroke:#181818;stroke-width:0.5;" width="113" x="1102" y="482.7344"/><text fill="#000000" font-family="sans-serif" font-size="14" lengthAdjust="spacing" textLength="99" x="1109" y="504.8418">roomID:RoomID</text><polygon fill="#181818" points="276,545.6465,266,549.6465,276,553.6465,272,549.6465" style="stroke:#181818;stroke-width:1.0;"/><line style="stroke:#181818;stroke-width:1.0;stroke-dasharray:2.0,2.0;" x1="270" x2="1157.5" y1="549.6465" y2="549.6465"/><text fill="#000000" font-family="sans-serif" font-size="13" font-weight="bold" lengthAdjust="spacing" textLength="14" x="282" y="544.3838">14</text><text fill="#000000" font-family="sans-serif" font-size="13" lengthAdjust="spacing" textLength="41" x="300" y="544.3838">roomID</text><polygon fill="#181818" points="1213,576.9375,1223,580.9375,1213,584.9375,1217,580.9375" style="stroke:#181818;stroke-width:1.0;"/><line style="stroke:#181818;stroke-width:1.0;" x1="265" x2="1219" y1="580.9375" y2="580.9375"/><text fill="#000000" font-family="sans-serif" font-size="13" font-weight="bold" lengthAdjust="spacing" textLength="14" x="272" y="575.6748">15</text><text fill="#000000" font-family="sans-serif" font-size="13" lengthAdjust="spacing" textLength="165" x="290" y="575.6748">deviceName(strDeviceName)</text><rect fill="#E2E2F0" height="32.6211" rx="2.5" ry="2.5" style="stroke:#181818;stroke-width:0.5;" width="174" x="1225" y="557.6465"/><text fill="#000000" font-family="sans-serif" font-size="14" lengthAdjust="spacing" textLength="160" x="1232" y="579.7539">deviceName:DeviceName</text><polygon fill="#181818" points="276,620.5586,266,624.5586,276,628.5586,272,624.5586" style="stroke:#181818;stroke-width:1.0;"/><line style="stroke:#181818;stroke-width:1.0;stroke-dasharray:2.0,2.0;" x1="270" x2="1311" y1="624.5586" y2="624.5586"/><text fill="#000000" font-family="sans-serif" font-size="13" font-weight="bold" lengthAdjust="spacing" textLength="14" x="282" y="619.2959">16</text><text fill="#000000" font-family="sans-serif" font-size="13" lengthAdjust="spacing" textLength="70" x="300" y="619.2959">deviceName</text><polygon fill="#181818" points="1397,651.8496,1407,655.8496,1397,659.8496,1401,655.8496" style="stroke:#181818;stroke-width:1.0;"/><line style="stroke:#181818;stroke-width:1.0;" x1="265" x2="1403" y1="655.8496" y2="655.8496"/><text fill="#000000" font-family="sans-serif" font-size="13" font-weight="bold" lengthAdjust="spacing" textLength="14" x="272" y="650.5869">17</text><text fill="#000000" font-family="sans-serif" font-size="13" lengthAdjust="spacing" textLength="127" x="290" y="650.5869">deviceStatus(boolean)</text><rect fill="#E2E2F0" height="32.6211" rx="2.5" ry="2.5" style="stroke:#181818;stroke-width:0.5;" width="182" x="1409" y="632.5586"/><text fill="#000000" font-family="sans-serif" font-size="14" lengthAdjust="spacing" textLength="168" x="1416" y="654.666">deviceStatus:DeviceStatus</text><polygon fill="#181818" points="276,695.4707,266,699.4707,276,703.4707,272,699.4707" style="stroke:#181818;stroke-width:1.0;"/><line style="stroke:#181818;stroke-width:1.0;stroke-dasharray:2.0,2.0;" x1="270" x2="1499" y1="699.4707" y2="699.4707"/><text fill="#000000" font-family="sans-serif" font-size="13" font-weight="bold" lengthAdjust="spacing" textLength="14" x="282" y="694.208">18</text><text fill="#000000" font-family="sans-serif" font-size="13" lengthAdjust="spacing" textLength="74" x="300" y="694.208">deviceStatus</text><polygon fill="#181818" points="1589,726.7617,1599,730.7617,1589,734.7617,1593,730.7617" style="stroke:#181818;stroke-width:1.0;"/><line style="stroke:#181818;stroke-width:1.0;" x1="265" x2="1595" y1="730.7617" y2="730.7617"/><text fill="#000000" font-family="sans-serif" font-size="13" font-weight="bold" lengthAdjust="spacing" textLength="14" x="272" y="725.499">19</text><text fill="#000000" font-family="sans-serif" font-size="13" lengthAdjust="spacing" textLength="177" x="290" y="725.499">deviceTypeID(strDeviceTypeID)</text><rect fill="#E2E2F0" height="32.6211" rx="2.5" ry="2.5" style="stroke:#181818;stroke-width:0.5;" width="192" x="1601" y="707.4707"/><text fill="#000000" font-family="sans-serif" font-size="14" lengthAdjust="spacing" textLength="178" x="1608" y="729.5781">deviceTypeID:DeviceTypeID</text><polygon fill="#181818" points="276,770.3828,266,774.3828,276,778.3828,272,774.3828" style="stroke:#181818;stroke-width:1.0;"/><line style="stroke:#181818;stroke-width:1.0;stroke-dasharray:2.0,2.0;" x1="270" x2="1696" y1="774.3828" y2="774.3828"/><text fill="#000000" font-family="sans-serif" font-size="13" font-weight="bold" lengthAdjust="spacing" textLength="14" x="282" y="769.1201">20</text><text fill="#000000" font-family="sans-serif" font-size="13" lengthAdjust="spacing" textLength="76" x="300" y="769.1201">deviceTypeID</text><polygon fill="#181818" points="1884,801.6738,1894,805.6738,1884,809.6738,1888,805.6738" style="stroke:#181818;stroke-width:1.0;"/><line style="stroke:#181818;stroke-width:1.0;" x1="265" x2="1890" y1="805.6738" y2="805.6738"/><text fill="#000000" font-family="sans-serif" font-size="13" font-weight="bold" lengthAdjust="spacing" textLength="14" x="272" y="800.4111">21</text><text fill="#000000" font-family="sans-serif" font-size="13" lengthAdjust="spacing" textLength="340" x="290" y="800.4111">addDevice(roomID,deviceName,deviceStatus,deviceTypeID)</text><polygon fill="#181818" points="2286,832.9648,2296,836.9648,2286,840.9648,2290,836.9648" style="stroke:#181818;stroke-width:1.0;"/><line style="stroke:#181818;stroke-width:1.0;" x1="1906" x2="2292" y1="836.9648" y2="836.9648"/><text fill="#000000" font-family="sans-serif" font-size="13" font-weight="bold" lengthAdjust="spacing" textLength="14" x="1913" y="831.7021">22</text><text fill="#000000" font-family="sans-serif" font-size="13" lengthAdjust="spacing" textLength="355" x="1931" y="831.7021">createDevice(roomID,deviceName,deviceStatus,deviceTypeID)</text><polygon fill="#181818" points="2655,864.2559,2665,868.2559,2655,872.2559,2659,868.2559" style="stroke:#181818;stroke-width:1.0;"/><line style="stroke:#181818;stroke-width:1.0;" x1="2308" x2="2661" y1="868.2559" y2="868.2559"/><text fill="#000000" font-family="sans-serif" font-size="13" font-weight="bold" lengthAdjust="spacing" textLength="14" x="2315" y="862.9932">23</text><text fill="#000000" font-family="sans-serif" font-size="13" lengthAdjust="spacing" textLength="317" x="2333" y="862.9932">device(roomID,deviceName,deviceStatus,deviceTypeID)</text><rect fill="#E2E2F0" height="32.6211" rx="2.5" ry="2.5" style="stroke:#181818;stroke-width:0.5;" width="102" x="2667" y="844.9648"/><text fill="#000000" font-family="sans-serif" font-size="14" lengthAdjust="spacing" textLength="88" x="2674" y="867.0723">device:Device</text><polygon fill="#181818" points="2319,907.877,2309,911.877,2319,915.877,2315,911.877" style="stroke:#181818;stroke-width:1.0;"/><line style="stroke:#181818;stroke-width:1.0;stroke-dasharray:2.0,2.0;" x1="2313" x2="2717" y1="911.877" y2="911.877"/><text fill="#000000" font-family="sans-serif" font-size="13" font-weight="bold" lengthAdjust="spacing" textLength="14" x="2325" y="906.6143">24</text><text fill="#000000" font-family="sans-serif" font-size="13" lengthAdjust="spacing" textLength="36" x="2343" y="906.6143">device</text><polygon fill="#181818" points="1917,939.168,1907,943.168,1917,947.168,1913,943.168" style="stroke:#181818;stroke-width:1.0;"/><line style="stroke:#181818;stroke-width:1.0;stroke-dasharray:2.0,2.0;" x1="1911" x2="2302" y1="943.168" y2="943.168"/><text fill="#000000" font-family="sans-serif" font-size="13" font-weight="bold" lengthAdjust="spacing" textLength="14" x="1923" y="937.9053">25</text><text fill="#000000" font-family="sans-serif" font-size="13" lengthAdjust="spacing" textLength="36" x="1941" y="937.9053">device</text><polygon fill="#181818" points="2826.5,970.459,2836.5,974.459,2826.5,978.459,2830.5,974.459" style="stroke:#181818;stroke-width:1.0;"/><line style="stroke:#181818;stroke-width:1.0;" x1="1906" x2="2832.5" y1="974.459" y2="974.459"/><text fill="#000000" font-family="sans-serif" font-size="13" font-weight="bold" lengthAdjust="spacing" textLength="14" x="1913" y="969.1963">26</text><text fill="#000000" font-family="sans-serif" font-size="13" lengthAdjust="spacing" textLength="70" x="1931" y="969.1963">save(device)</text><polygon fill="#181818" points="1917,1001.75,1907,1005.75,1917,1009.75,1913,1005.75" style="stroke:#181818;stroke-width:1.0;"/><line style="stroke:#181818;stroke-width:1.0;stroke-dasharray:2.0,2.0;" x1="1911" x2="2842.5" y1="1005.75" y2="1005.75"/><text fill="#000000" font-family="sans-serif" font-size="13" font-weight="bold" lengthAdjust="spacing" textLength="14" x="1923" y="1000.4873">27</text><text fill="#000000" font-family="sans-serif" font-size="13" lengthAdjust="spacing" textLength="36" x="1941" y="1000.4873">device</text><polygon fill="#181818" points="276,1033.041,266,1037.041,276,1041.041,272,1037.041" style="stroke:#181818;stroke-width:1.0;"/><line style="stroke:#181818;stroke-width:1.0;stroke-dasharray:2.0,2.0;" x1="270" x2="1900" y1="1037.041" y2="1037.041"/><text fill="#000000" font-family="sans-serif" font-size="13" font-weight="bold" lengthAdjust="spacing" textLength="14" x="282" y="1031.7783">28</text><text fill="#000000" font-family="sans-serif" font-size="13" lengthAdjust="spacing" textLength="36" x="300" y="1031.7783">device</text><polygon fill="#181818" points="3018,1064.332,3028,1068.332,3018,1072.332,3022,1068.332" style="stroke:#181818;stroke-width:1.0;"/><line style="stroke:#181818;stroke-width:1.0;" x1="265" x2="3024" y1="1068.332" y2="1068.332"/><text fill="#000000" font-family="sans-serif" font-size="13" font-weight="bold" lengthAdjust="spacing" textLength="14" x="272" y="1063.0693">29</text><text fill="#000000" font-family="sans-serif" font-size="13" lengthAdjust="spacing" textLength="119" x="290" y="1063.0693">domain2DTO(device)</text><polygon fill="#181818" points="3176,1095.623,3186,1099.623,3176,1103.623,3180,1099.623" style="stroke:#181818;stroke-width:1.0;"/><line style="stroke:#181818;stroke-width:1.0;" x1="3040" x2="3182" y1="1099.623" y2="1099.623"/><text fill="#000000" font-family="sans-serif" font-size="13" font-weight="bold" lengthAdjust="spacing" textLength="14" x="3047" y="1094.3604">30</text><text fill="#000000" font-family="sans-serif" font-size="13" lengthAdjust="spacing" textLength="106" x="3065" y="1094.3604">deviceDTO(device)</text><rect fill="#E2E2F0" height="32.6211" rx="2.5" ry="2.5" style="stroke:#181818;stroke-width:0.5;" width="162" x="3188" y="1076.332"/><text fill="#000000" font-family="sans-serif" font-size="14" lengthAdjust="spacing" textLength="148" x="3195" y="1098.4395">deviceDTO:DeviceDTO</text><polygon fill="#181818" points="3051,1139.2441,3041,1143.2441,3051,1147.2441,3047,1143.2441" style="stroke:#181818;stroke-width:1.0;"/><line style="stroke:#181818;stroke-width:1.0;stroke-dasharray:2.0,2.0;" x1="3045" x2="3268" y1="1143.2441" y2="1143.2441"/><text fill="#000000" font-family="sans-serif" font-size="13" font-weight="bold" lengthAdjust="spacing" textLength="14" x="3057" y="1137.9814">31</text><text fill="#000000" font-family="sans-serif" font-size="13" lengthAdjust="spacing" textLength="62" x="3075" y="1137.9814">deviceDTO</text><polygon fill="#181818" points="276,1170.5352,266,1174.5352,276,1178.5352,272,1174.5352" style="stroke:#181818;stroke-width:1.0;"/><line style="stroke:#181818;stroke-width:1.0;stroke-dasharray:2.0,2.0;" x1="270" x2="3034" y1="1174.5352" y2="1174.5352"/><text fill="#000000" font-family="sans-serif" font-size="13" font-weight="bold" lengthAdjust="spacing" textLength="14" x="282" y="1169.2725">32</text><text fill="#000000" font-family="sans-serif" font-size="13" lengthAdjust="spacing" textLength="62" x="300" y="1169.2725">deviceDTO</text><polygon fill="#181818" points="25,1201.8262,15,1205.8262,25,1209.8262,21,1205.8262" style="stroke:#181818;stroke-width:1.0;"/><line style="stroke:#181818;stroke-width:1.0;stroke-dasharray:2.0,2.0;" x1="19" x2="259" y1="1205.8262" y2="1205.8262"/><text fill="#000000" font-family="sans-serif" font-size="13" font-weight="bold" lengthAdjust="spacing" textLength="14" x="31" y="1200.5635">33</text><text fill="#000000" font-family="sans-serif" font-size="13" lengthAdjust="spacing" textLength="62" x="49" y="1200.5635">deviceDTO</text><!--SRC=[fLPDYzim4BthLwXxSY2vz9X38LGK0gKBsVG7AB6oDTYMiPL0_dtrCP967-xITdDOZJHlvkbffF6dQURl0wSzVygxeiiW51yv8MJYi-gktSH7HUcB_l65_bp4dAwyx0zjoyIZkugpF4avV9MZccNVYzaYefd2Pktw9cQ3sv_Ys6AGdUKoAoSnoQLJSdu6PpD5olY7PH73HQUsk605M9WfeUpyQa7wVt3NuzBnoApVaGMt8qkzMYlE3pw8FGj3wntD6k9DSNLV0ECCX78JDTpvEGdDYY43uTn43HVLOgcDq2kAkG16C-P725Jevjp15pbMLO0QOTZ2EjJgn46_yQkf4e22PQ4mhe7eHxHWFQ_2O5Qz_qLBkYecloivteUBkOlcHbAv-u8ksfw-2sKgSMasXEYjTW-k1Bw998wfXgBxjeB5Dv8WmwFDzlVqretjeUyBfBkUVaHtUSg-MzJhpMObf1Khs90oson6P-10kTnlK9_kQIi7terdgRLjKBHy6_70I2_bH6zofZhVBshU0KAe_hlEmdkRWx9pQJP8R-uAXOU6DcQmSTuqIHc2U2k85s-h3mEEDDCW3L4GGN5usmBWBBzh6He8h9c9iIKPF3i5y3MuuWoHSFWWT0HRlIaOON75rWgTMiwu-JHmUxZYbdWz5477fD_2iZYE34WTMREesKrjqchGG0A-kvoLW-Oo60HaHYz_cZqkcBeCXc4Hbn0J58WWRC4eXiAiC3fX1jsbniqjXP3ER2vIzeAF1JC8H1Bi2ZlmBVZv60b3w6CrXcufX7LcLD3P1LC8I98OAqp1js3gOrHrW-SBrMpZwcGR3sUBbTYsV-8RthOqlCu7tKrdSehzLpBVAbFrYSyHjXUq-Riy-QvWDrRuk0-78QNWaKT5vmhAxwRGBFPl3LpuGy1BalI0sEC9yYzIXypu_YDibhnUOfLhK6zcsST4Q6UVJJVpcqWEptQ4B7XyelDu8ONz9A7XywGYK0mV4RiwnU1PRDEoAqZKHQe6-B3RLB7HzJS0]--></g></svg>