<?xml version="1.0" encoding="us-ascii" standalone="no"?><svg xmlns="http://www.w3.org/2000/svg" xmlns:xlink="http://www.w3.org/1999/xlink" contentStyleType="text/css" height="1130px" preserveAspectRatio="none" style="width:2755px;height:1130px;background:#FFFFFF;" version="1.1" viewBox="0 0 2755 1130" width="2755px" zoomAndPan="magnify"><defs/><g><!--class Device--><g id="elem_Device"><rect codeLine="3" fill="#F1F1F1" height="252.832" id="Device" rx="2.5" ry="2.5" style="stroke:#181818;stroke-width:0.5;" width="720" x="365.5" y="871"/><ellipse cx="699.75" cy="887" fill="#ADD1B2" rx="11" ry="11" style="stroke:#181818;stroke-width:1.0;"/><path d="M702.5156,882.875 Q702.6719,882.6563 702.8594,882.5469 Q703.0469,882.4375 703.2656,882.4375 Q703.6406,882.4375 703.875,882.7031 Q704.1094,882.9531 704.1094,883.5625 L704.1094,885.0156 Q704.1094,885.625 703.875,885.8906 Q703.6406,886.1563 703.2656,886.1563 Q702.9219,886.1563 702.7188,885.9531 Q702.5156,885.7656 702.4063,885.25 Q702.3594,884.8906 702.1719,884.7031 Q701.8438,884.3281 701.2344,884.1094 Q700.625,883.8906 700,883.8906 Q699.2344,883.8906 698.5938,884.2188 Q697.9688,884.5469 697.4688,885.2969 Q696.9844,886.0469 696.9844,887.0781 L696.9844,888.1719 Q696.9844,889.4063 697.875,890.2344 Q698.7656,891.0469 700.3594,891.0469 Q701.2969,891.0469 701.9531,890.7969 Q702.3438,890.6406 702.7656,890.2031 Q703.0313,889.9375 703.1719,889.8594 Q703.3281,889.7813 703.5313,889.7813 Q703.8594,889.7813 704.1094,890.0469 Q704.375,890.2969 704.375,890.6406 Q704.375,890.9844 704.0313,891.3906 Q703.5313,891.9688 702.7344,892.2969 Q701.6563,892.75 700.3594,892.75 Q698.8438,892.75 697.6406,892.125 Q696.6563,891.625 695.9688,890.5625 Q695.2813,889.4844 695.2813,888.2031 L695.2813,887.0469 Q695.2813,885.7188 695.8906,884.5781 Q696.5156,883.4219 697.6094,882.8125 Q698.7031,882.1875 699.9375,882.1875 Q700.6719,882.1875 701.3125,882.3594 Q701.9688,882.5156 702.5156,882.875 Z " fill="#000000"/><text fill="#000000" font-family="sans-serif" font-size="14" lengthAdjust="spacing" textLength="43" x="720.25" y="892.7969">Device</text><line style="stroke:#181818;stroke-width:0.5;" x1="366.5" x2="1084.5" y1="903" y2="903"/><rect fill="none" height="6" style="stroke:#C82930;stroke-width:1.0;" width="6" x="373.5" y="914.8105"/><text fill="#000000" font-family="sans-serif" font-size="14" lengthAdjust="spacing" textLength="124" x="385.5" y="922.1074">_deviceId: DeviceID</text><rect fill="none" height="6" style="stroke:#C82930;stroke-width:1.0;" width="6" x="373.5" y="933.4316"/><text fill="#000000" font-family="sans-serif" font-size="14" lengthAdjust="spacing" textLength="172" x="385.5" y="940.7285">_deviceName: DeviceName</text><rect fill="none" height="6" style="stroke:#C82930;stroke-width:1.0;" width="6" x="373.5" y="952.0527"/><text fill="#000000" font-family="sans-serif" font-size="14" lengthAdjust="spacing" textLength="111" x="385.5" y="959.3496">_roomID: RoomID</text><rect fill="none" height="6" style="stroke:#C82930;stroke-width:1.0;" width="6" x="373.5" y="970.6738"/><text fill="#000000" font-family="sans-serif" font-size="14" lengthAdjust="spacing" textLength="180" x="385.5" y="977.9707">_deviceStatus: DeviceStatus</text><rect fill="none" height="6" style="stroke:#C82930;stroke-width:1.0;" width="6" x="373.5" y="989.2949"/><text fill="#000000" font-family="sans-serif" font-size="14" lengthAdjust="spacing" textLength="190" x="385.5" y="996.5918">_deviceTypeID: DeviceTypeID</text><line style="stroke:#181818;stroke-width:0.5;" x1="366.5" x2="1084.5" y1="1004.1055" y2="1004.1055"/><ellipse cx="376.5" cy="1018.916" fill="#84BE84" rx="3" ry="3" style="stroke:#038048;stroke-width:1.0;"/><text fill="#000000" font-family="sans-serif" font-size="14" lengthAdjust="spacing" textLength="694" x="385.5" y="1023.2129">Device(roomID: RoomID,deviceName: DeviceName, deviceStatus: DeviceStatus, deviceTypeID: DeviceTypeID)</text><ellipse cx="376.5" cy="1037.5371" fill="#84BE84" rx="3" ry="3" style="stroke:#038048;stroke-width:1.0;"/><text fill="#000000" font-family="sans-serif" font-size="14" lengthAdjust="spacing" textLength="86" x="385.5" y="1041.834">getId(): String</text><ellipse cx="376.5" cy="1056.1582" fill="#84BE84" rx="3" ry="3" style="stroke:#038048;stroke-width:1.0;"/><text fill="#000000" font-family="sans-serif" font-size="14" lengthAdjust="spacing" textLength="154" x="385.5" y="1060.4551">getDeviceName(): String</text><ellipse cx="376.5" cy="1074.7793" fill="#84BE84" rx="3" ry="3" style="stroke:#038048;stroke-width:1.0;"/><text fill="#000000" font-family="sans-serif" font-size="14" lengthAdjust="spacing" textLength="138" x="385.5" y="1079.0762">getRoomID(): RoomID</text><ellipse cx="376.5" cy="1093.4004" fill="#84BE84" rx="3" ry="3" style="stroke:#038048;stroke-width:1.0;"/><text fill="#000000" font-family="sans-serif" font-size="14" lengthAdjust="spacing" textLength="204" x="385.5" y="1097.6973">getDeviceStatus(): DeviceStatus</text><ellipse cx="376.5" cy="1112.0215" fill="#84BE84" rx="3" ry="3" style="stroke:#038048;stroke-width:1.0;"/><text fill="#000000" font-family="sans-serif" font-size="14" lengthAdjust="spacing" textLength="214" x="385.5" y="1116.3184">getDeviceTypeID(): DeviceTypeID</text></g><!--class DeviceFactory--><g id="elem_DeviceFactory"><rect codeLine="18" fill="#F1F1F1" height="66.6211" id="DeviceFactory" rx="2.5" ry="2.5" style="stroke:#181818;stroke-width:0.5;" width="815" x="527" y="712"/><ellipse cx="884.75" cy="728" fill="#ADD1B2" rx="11" ry="11" style="stroke:#181818;stroke-width:1.0;"/><path d="M887.5156,723.875 Q887.6719,723.6563 887.8594,723.5469 Q888.0469,723.4375 888.2656,723.4375 Q888.6406,723.4375 888.875,723.7031 Q889.1094,723.9531 889.1094,724.5625 L889.1094,726.0156 Q889.1094,726.625 888.875,726.8906 Q888.6406,727.1563 888.2656,727.1563 Q887.9219,727.1563 887.7188,726.9531 Q887.5156,726.7656 887.4063,726.25 Q887.3594,725.8906 887.1719,725.7031 Q886.8438,725.3281 886.2344,725.1094 Q885.625,724.8906 885,724.8906 Q884.2344,724.8906 883.5938,725.2188 Q882.9688,725.5469 882.4688,726.2969 Q881.9844,727.0469 881.9844,728.0781 L881.9844,729.1719 Q881.9844,730.4063 882.875,731.2344 Q883.7656,732.0469 885.3594,732.0469 Q886.2969,732.0469 886.9531,731.7969 Q887.3438,731.6406 887.7656,731.2031 Q888.0313,730.9375 888.1719,730.8594 Q888.3281,730.7813 888.5313,730.7813 Q888.8594,730.7813 889.1094,731.0469 Q889.375,731.2969 889.375,731.6406 Q889.375,731.9844 889.0313,732.3906 Q888.5313,732.9688 887.7344,733.2969 Q886.6563,733.75 885.3594,733.75 Q883.8438,733.75 882.6406,733.125 Q881.6563,732.625 880.9688,731.5625 Q880.2813,730.4844 880.2813,729.2031 L880.2813,728.0469 Q880.2813,726.7188 880.8906,725.5781 Q881.5156,724.4219 882.6094,723.8125 Q883.7031,723.1875 884.9375,723.1875 Q885.6719,723.1875 886.3125,723.3594 Q886.9688,723.5156 887.5156,723.875 Z " fill="#000000"/><text fill="#000000" font-family="sans-serif" font-size="14" lengthAdjust="spacing" textLength="91" x="905.25" y="733.7969">DeviceFactory</text><line style="stroke:#181818;stroke-width:0.5;" x1="528" x2="1341" y1="744" y2="744"/><line style="stroke:#181818;stroke-width:0.5;" x1="528" x2="1341" y1="752" y2="752"/><ellipse cx="538" cy="766.8105" fill="#84BE84" rx="3" ry="3" style="stroke:#038048;stroke-width:1.0;"/><text fill="#000000" font-family="sans-serif" font-size="14" lengthAdjust="spacing" textLength="789" x="547" y="771.1074">createDevice( roomID: RoomID, deviceName: DeviceName, deviceStatus DeviceStatus, deviceTypeID: DeviceTypeID): Device</text></g><!--class DeviceRepository--><g id="elem_DeviceRepository"><rect codeLine="22" fill="#F1F1F1" height="85.2422" id="DeviceRepository" rx="2.5" ry="2.5" style="stroke:#181818;stroke-width:0.5;" width="229" x="280" y="703"/><ellipse cx="334.75" cy="719" fill="#ADD1B2" rx="11" ry="11" style="stroke:#181818;stroke-width:1.0;"/><path d="M337.5156,714.875 Q337.6719,714.6563 337.8594,714.5469 Q338.0469,714.4375 338.2656,714.4375 Q338.6406,714.4375 338.875,714.7031 Q339.1094,714.9531 339.1094,715.5625 L339.1094,717.0156 Q339.1094,717.625 338.875,717.8906 Q338.6406,718.1563 338.2656,718.1563 Q337.9219,718.1563 337.7188,717.9531 Q337.5156,717.7656 337.4063,717.25 Q337.3594,716.8906 337.1719,716.7031 Q336.8438,716.3281 336.2344,716.1094 Q335.625,715.8906 335,715.8906 Q334.2344,715.8906 333.5938,716.2188 Q332.9688,716.5469 332.4688,717.2969 Q331.9844,718.0469 331.9844,719.0781 L331.9844,720.1719 Q331.9844,721.4063 332.875,722.2344 Q333.7656,723.0469 335.3594,723.0469 Q336.2969,723.0469 336.9531,722.7969 Q337.3438,722.6406 337.7656,722.2031 Q338.0313,721.9375 338.1719,721.8594 Q338.3281,721.7813 338.5313,721.7813 Q338.8594,721.7813 339.1094,722.0469 Q339.375,722.2969 339.375,722.6406 Q339.375,722.9844 339.0313,723.3906 Q338.5313,723.9688 337.7344,724.2969 Q336.6563,724.75 335.3594,724.75 Q333.8438,724.75 332.6406,724.125 Q331.6563,723.625 330.9688,722.5625 Q330.2813,721.4844 330.2813,720.2031 L330.2813,719.0469 Q330.2813,717.7188 330.8906,716.5781 Q331.5156,715.4219 332.6094,714.8125 Q333.7031,714.1875 334.9375,714.1875 Q335.6719,714.1875 336.3125,714.3594 Q336.9688,714.5156 337.5156,714.875 Z " fill="#000000"/><text fill="#000000" font-family="sans-serif" font-size="14" lengthAdjust="spacing" textLength="111" x="355.25" y="724.7969">DeviceRepository</text><line style="stroke:#181818;stroke-width:0.5;" x1="281" x2="508" y1="735" y2="735"/><rect fill="none" height="6" style="stroke:#C82930;stroke-width:1.0;" width="6" x="288" y="746.8105"/><text fill="#000000" font-family="sans-serif" font-size="14" lengthAdjust="spacing" textLength="203" x="300" y="754.1074">_map&lt;DeviceID, Device&gt; device</text><line style="stroke:#181818;stroke-width:0.5;" x1="281" x2="508" y1="761.6211" y2="761.6211"/><ellipse cx="291" cy="776.4316" fill="#84BE84" rx="3" ry="3" style="stroke:#038048;stroke-width:1.0;"/><text fill="#000000" font-family="sans-serif" font-size="14" lengthAdjust="spacing" textLength="183" x="300" y="780.7285">save(device: Device): Device</text></g><!--class DeviceService--><g id="elem_DeviceService"><rect codeLine="26" fill="#F1F1F1" height="141.1055" id="DeviceService" rx="2.5" ry="2.5" style="stroke:#181818;stroke-width:0.5;" width="799" x="535" y="479"/><ellipse cx="885.25" cy="495" fill="#ADD1B2" rx="11" ry="11" style="stroke:#181818;stroke-width:1.0;"/><path d="M888.0156,490.875 Q888.1719,490.6563 888.3594,490.5469 Q888.5469,490.4375 888.7656,490.4375 Q889.1406,490.4375 889.375,490.7031 Q889.6094,490.9531 889.6094,491.5625 L889.6094,493.0156 Q889.6094,493.625 889.375,493.8906 Q889.1406,494.1563 888.7656,494.1563 Q888.4219,494.1563 888.2188,493.9531 Q888.0156,493.7656 887.9063,493.25 Q887.8594,492.8906 887.6719,492.7031 Q887.3438,492.3281 886.7344,492.1094 Q886.125,491.8906 885.5,491.8906 Q884.7344,491.8906 884.0938,492.2188 Q883.4688,492.5469 882.9688,493.2969 Q882.4844,494.0469 882.4844,495.0781 L882.4844,496.1719 Q882.4844,497.4063 883.375,498.2344 Q884.2656,499.0469 885.8594,499.0469 Q886.7969,499.0469 887.4531,498.7969 Q887.8438,498.6406 888.2656,498.2031 Q888.5313,497.9375 888.6719,497.8594 Q888.8281,497.7813 889.0313,497.7813 Q889.3594,497.7813 889.6094,498.0469 Q889.875,498.2969 889.875,498.6406 Q889.875,498.9844 889.5313,499.3906 Q889.0313,499.9688 888.2344,500.2969 Q887.1563,500.75 885.8594,500.75 Q884.3438,500.75 883.1406,500.125 Q882.1563,499.625 881.4688,498.5625 Q880.7813,497.4844 880.7813,496.2031 L880.7813,495.0469 Q880.7813,493.7188 881.3906,492.5781 Q882.0156,491.4219 883.1094,490.8125 Q884.2031,490.1875 885.4375,490.1875 Q886.1719,490.1875 886.8125,490.3594 Q887.4688,490.5156 888.0156,490.875 Z " fill="#000000"/><text fill="#000000" font-family="sans-serif" font-size="14" lengthAdjust="spacing" textLength="90" x="905.75" y="500.7969">DeviceService</text><line style="stroke:#181818;stroke-width:0.5;" x1="536" x2="1333" y1="511" y2="511"/><rect fill="none" height="6" style="stroke:#C82930;stroke-width:1.0;" width="6" x="543" y="522.8105"/><text fill="#000000" font-family="sans-serif" font-size="14" lengthAdjust="spacing" textLength="236" x="555" y="530.1074">_deviceRepository: DeviceRepository</text><rect fill="none" height="6" style="stroke:#C82930;stroke-width:1.0;" width="6" x="543" y="541.4316"/><text fill="#000000" font-family="sans-serif" font-size="14" lengthAdjust="spacing" textLength="196" x="555" y="548.7285">_deviceFactory: DeviceFactory</text><rect fill="none" height="6" style="stroke:#C82930;stroke-width:1.0;" width="6" x="543" y="560.0527"/><text fill="#000000" font-family="sans-serif" font-size="14" lengthAdjust="spacing" textLength="221" x="555" y="567.3496">_roomRepository: RoomRepository</text><line style="stroke:#181818;stroke-width:0.5;" x1="536" x2="1333" y1="574.8633" y2="574.8633"/><ellipse cx="546" cy="589.6738" fill="#84BE84" rx="3" ry="3" style="stroke:#038048;stroke-width:1.0;"/><text fill="#000000" font-family="sans-serif" font-size="14" lengthAdjust="spacing" textLength="745" x="555" y="593.9707">DeviceService(roomRepository: RoomRepository, deviceRepository: DeviceRepository, deviceFactory: DeviceFactory)</text><ellipse cx="546" cy="608.2949" fill="#84BE84" rx="3" ry="3" style="stroke:#038048;stroke-width:1.0;"/><text fill="#000000" font-family="sans-serif" font-size="14" lengthAdjust="spacing" textLength="773" x="555" y="612.5918">addDevice(roomID: RoomID, deviceName: DeviceName, deviceStatus: DeviceStatus, deviceTypeID: DeviceTypeID): Device</text></g><!--class RoomService--><g id="elem_RoomService"><rect codeLine="34" fill="#F1F1F1" height="159.7266" id="RoomService" rx="2.5" ry="2.5" style="stroke:#181818;stroke-width:0.5;" width="962" x="1530.5" y="236"/><ellipse cx="1965.25" cy="252" fill="#ADD1B2" rx="11" ry="11" style="stroke:#181818;stroke-width:1.0;"/><path d="M1968.0156,247.875 Q1968.1719,247.6563 1968.3594,247.5469 Q1968.5469,247.4375 1968.7656,247.4375 Q1969.1406,247.4375 1969.375,247.7031 Q1969.6094,247.9531 1969.6094,248.5625 L1969.6094,250.0156 Q1969.6094,250.625 1969.375,250.8906 Q1969.1406,251.1563 1968.7656,251.1563 Q1968.4219,251.1563 1968.2188,250.9531 Q1968.0156,250.7656 1967.9063,250.25 Q1967.8594,249.8906 1967.6719,249.7031 Q1967.3438,249.3281 1966.7344,249.1094 Q1966.125,248.8906 1965.5,248.8906 Q1964.7344,248.8906 1964.0938,249.2188 Q1963.4688,249.5469 1962.9688,250.2969 Q1962.4844,251.0469 1962.4844,252.0781 L1962.4844,253.1719 Q1962.4844,254.4063 1963.375,255.2344 Q1964.2656,256.0469 1965.8594,256.0469 Q1966.7969,256.0469 1967.4531,255.7969 Q1967.8438,255.6406 1968.2656,255.2031 Q1968.5313,254.9375 1968.6719,254.8594 Q1968.8281,254.7813 1969.0313,254.7813 Q1969.3594,254.7813 1969.6094,255.0469 Q1969.875,255.2969 1969.875,255.6406 Q1969.875,255.9844 1969.5313,256.3906 Q1969.0313,256.9688 1968.2344,257.2969 Q1967.1563,257.75 1965.8594,257.75 Q1964.3438,257.75 1963.1406,257.125 Q1962.1563,256.625 1961.4688,255.5625 Q1960.7813,254.4844 1960.7813,253.2031 L1960.7813,252.0469 Q1960.7813,250.7188 1961.3906,249.5781 Q1962.0156,248.4219 1963.1094,247.8125 Q1964.2031,247.1875 1965.4375,247.1875 Q1966.1719,247.1875 1966.8125,247.3594 Q1967.4688,247.5156 1968.0156,247.875 Z " fill="#000000"/><text fill="#000000" font-family="sans-serif" font-size="14" lengthAdjust="spacing" textLength="84" x="1985.75" y="257.7969">RoomService</text><line style="stroke:#181818;stroke-width:0.5;" x1="1531.5" x2="2491.5" y1="268" y2="268"/><rect fill="none" height="6" style="stroke:#C82930;stroke-width:1.0;" width="6" x="1538.5" y="279.8105"/><text fill="#000000" font-family="sans-serif" font-size="14" lengthAdjust="spacing" textLength="221" x="1550.5" y="287.1074">_roomRepository: RoomRepository</text><rect fill="none" height="6" style="stroke:#C82930;stroke-width:1.0;" width="6" x="1538.5" y="298.4316"/><text fill="#000000" font-family="sans-serif" font-size="14" lengthAdjust="spacing" textLength="181" x="1550.5" y="305.7285">_roomFactory: RoomFactory</text><rect fill="none" height="6" style="stroke:#C82930;stroke-width:1.0;" width="6" x="1538.5" y="317.0527"/><text fill="#000000" font-family="sans-serif" font-size="14" lengthAdjust="spacing" textLength="231" x="1550.5" y="324.3496">_houseRepository: HouseRepository</text><rect fill="none" height="6" style="stroke:#C82930;stroke-width:1.0;" width="6" x="1538.5" y="335.6738"/><text fill="#000000" font-family="sans-serif" font-size="14" lengthAdjust="spacing" textLength="217" x="1550.5" y="342.9707">_roomAssembler: RoomAssembler</text><line style="stroke:#181818;stroke-width:0.5;" x1="1531.5" x2="2491.5" y1="350.4844" y2="350.4844"/><ellipse cx="1541.5" cy="365.2949" fill="#84BE84" rx="3" ry="3" style="stroke:#038048;stroke-width:1.0;"/><text fill="#000000" font-family="sans-serif" font-size="14" lengthAdjust="spacing" textLength="936" x="1550.5" y="369.5918">RoomService(houseRepository: HouseRepository, roomRepository: RoomRepository, roomFactory: RoomFactory, roomAssembler: RoomAssembler)</text><ellipse cx="1541.5" cy="383.916" fill="#84BE84" rx="3" ry="3" style="stroke:#038048;stroke-width:1.0;"/><text fill="#000000" font-family="sans-serif" font-size="14" lengthAdjust="spacing" textLength="161" x="1550.5" y="388.2129">getRooms() : List&lt;Room&gt;</text></g><!--class RoomRepository--><g id="elem_RoomRepository"><rect codeLine="43" fill="#F1F1F1" height="85.2422" id="RoomRepository" rx="2.5" ry="2.5" style="stroke:#181818;stroke-width:0.5;" width="208" x="2540.5" y="273.5"/><ellipse cx="2587.75" cy="289.5" fill="#ADD1B2" rx="11" ry="11" style="stroke:#181818;stroke-width:1.0;"/><path d="M2590.5156,285.375 Q2590.6719,285.1563 2590.8594,285.0469 Q2591.0469,284.9375 2591.2656,284.9375 Q2591.6406,284.9375 2591.875,285.2031 Q2592.1094,285.4531 2592.1094,286.0625 L2592.1094,287.5156 Q2592.1094,288.125 2591.875,288.3906 Q2591.6406,288.6563 2591.2656,288.6563 Q2590.9219,288.6563 2590.7188,288.4531 Q2590.5156,288.2656 2590.4063,287.75 Q2590.3594,287.3906 2590.1719,287.2031 Q2589.8438,286.8281 2589.2344,286.6094 Q2588.625,286.3906 2588,286.3906 Q2587.2344,286.3906 2586.5938,286.7188 Q2585.9688,287.0469 2585.4688,287.7969 Q2584.9844,288.5469 2584.9844,289.5781 L2584.9844,290.6719 Q2584.9844,291.9063 2585.875,292.7344 Q2586.7656,293.5469 2588.3594,293.5469 Q2589.2969,293.5469 2589.9531,293.2969 Q2590.3438,293.1406 2590.7656,292.7031 Q2591.0313,292.4375 2591.1719,292.3594 Q2591.3281,292.2813 2591.5313,292.2813 Q2591.8594,292.2813 2592.1094,292.5469 Q2592.375,292.7969 2592.375,293.1406 Q2592.375,293.4844 2592.0313,293.8906 Q2591.5313,294.4688 2590.7344,294.7969 Q2589.6563,295.25 2588.3594,295.25 Q2586.8438,295.25 2585.6406,294.625 Q2584.6563,294.125 2583.9688,293.0625 Q2583.2813,291.9844 2583.2813,290.7031 L2583.2813,289.5469 Q2583.2813,288.2188 2583.8906,287.0781 Q2584.5156,285.9219 2585.6094,285.3125 Q2586.7031,284.6875 2587.9375,284.6875 Q2588.6719,284.6875 2589.3125,284.8594 Q2589.9688,285.0156 2590.5156,285.375 Z " fill="#000000"/><text fill="#000000" font-family="sans-serif" font-size="14" lengthAdjust="spacing" textLength="105" x="2608.25" y="295.2969">RoomRepository</text><line style="stroke:#181818;stroke-width:0.5;" x1="2541.5" x2="2747.5" y1="305.5" y2="305.5"/><rect fill="none" height="6" style="stroke:#C82930;stroke-width:1.0;" width="6" x="2548.5" y="317.3105"/><text fill="#000000" font-family="sans-serif" font-size="14" lengthAdjust="spacing" textLength="182" x="2560.5" y="324.6074">_data: Map&lt;RoomID, Room&gt;</text><line style="stroke:#181818;stroke-width:0.5;" x1="2541.5" x2="2747.5" y1="332.1211" y2="332.1211"/><ellipse cx="2551.5" cy="346.9316" fill="#84BE84" rx="3" ry="3" style="stroke:#038048;stroke-width:1.0;"/><text fill="#000000" font-family="sans-serif" font-size="14" lengthAdjust="spacing" textLength="131" x="2560.5" y="351.2285">findAll(): List&lt;Room&gt;</text></g><!--class RoomAssembler--><g id="elem_RoomAssembler"><rect codeLine="48" fill="#F1F1F1" height="85.2422" id="RoomAssembler" rx="2.5" ry="2.5" style="stroke:#181818;stroke-width:0.5;" width="364" x="1393.5" y="507"/><ellipse cx="1519.75" cy="523" fill="#ADD1B2" rx="11" ry="11" style="stroke:#181818;stroke-width:1.0;"/><path d="M1522.5156,518.875 Q1522.6719,518.6563 1522.8594,518.5469 Q1523.0469,518.4375 1523.2656,518.4375 Q1523.6406,518.4375 1523.875,518.7031 Q1524.1094,518.9531 1524.1094,519.5625 L1524.1094,521.0156 Q1524.1094,521.625 1523.875,521.8906 Q1523.6406,522.1563 1523.2656,522.1563 Q1522.9219,522.1563 1522.7188,521.9531 Q1522.5156,521.7656 1522.4063,521.25 Q1522.3594,520.8906 1522.1719,520.7031 Q1521.8438,520.3281 1521.2344,520.1094 Q1520.625,519.8906 1520,519.8906 Q1519.2344,519.8906 1518.5938,520.2188 Q1517.9688,520.5469 1517.4688,521.2969 Q1516.9844,522.0469 1516.9844,523.0781 L1516.9844,524.1719 Q1516.9844,525.4063 1517.875,526.2344 Q1518.7656,527.0469 1520.3594,527.0469 Q1521.2969,527.0469 1521.9531,526.7969 Q1522.3438,526.6406 1522.7656,526.2031 Q1523.0313,525.9375 1523.1719,525.8594 Q1523.3281,525.7813 1523.5313,525.7813 Q1523.8594,525.7813 1524.1094,526.0469 Q1524.375,526.2969 1524.375,526.6406 Q1524.375,526.9844 1524.0313,527.3906 Q1523.5313,527.9688 1522.7344,528.2969 Q1521.6563,528.75 1520.3594,528.75 Q1518.8438,528.75 1517.6406,528.125 Q1516.6563,527.625 1515.9688,526.5625 Q1515.2813,525.4844 1515.2813,524.2031 L1515.2813,523.0469 Q1515.2813,521.7188 1515.8906,520.5781 Q1516.5156,519.4219 1517.6094,518.8125 Q1518.7031,518.1875 1519.9375,518.1875 Q1520.6719,518.1875 1521.3125,518.3594 Q1521.9688,518.5156 1522.5156,518.875 Z " fill="#000000"/><text fill="#000000" font-family="sans-serif" font-size="14" lengthAdjust="spacing" textLength="103" x="1540.25" y="528.7969">RoomAssembler</text><line style="stroke:#181818;stroke-width:0.5;" x1="1394.5" x2="1756.5" y1="539" y2="539"/><line style="stroke:#181818;stroke-width:0.5;" x1="1394.5" x2="1756.5" y1="547" y2="547"/><ellipse cx="1404.5" cy="561.8105" fill="#84BE84" rx="3" ry="3" style="stroke:#038048;stroke-width:1.0;"/><text fill="#000000" font-family="sans-serif" font-size="14" lengthAdjust="spacing" textLength="113" x="1413.5" y="566.1074">RoomAssembler()</text><ellipse cx="1404.5" cy="580.4316" fill="#84BE84" rx="3" ry="3" style="stroke:#038048;stroke-width:1.0;"/><text fill="#000000" font-family="sans-serif" font-size="14" lengthAdjust="spacing" textLength="338" x="1413.5" y="584.7285">domainToDTO(rooms: List&lt;Room&gt;): List&lt;RoomDTO&gt;</text></g><!--class RoomID--><g id="elem_RoomID"><rect codeLine="54" fill="#F1F1F1" height="85.2422" id="RoomID" rx="2.5" ry="2.5" style="stroke:#181818;stroke-width:0.5;" width="176" x="1538.5" y="40"/><ellipse cx="1597.25" cy="56" fill="#ADD1B2" rx="11" ry="11" style="stroke:#181818;stroke-width:1.0;"/><path d="M1600.0156,51.875 Q1600.1719,51.6563 1600.3594,51.5469 Q1600.5469,51.4375 1600.7656,51.4375 Q1601.1406,51.4375 1601.375,51.7031 Q1601.6094,51.9531 1601.6094,52.5625 L1601.6094,54.0156 Q1601.6094,54.625 1601.375,54.8906 Q1601.1406,55.1563 1600.7656,55.1563 Q1600.4219,55.1563 1600.2188,54.9531 Q1600.0156,54.7656 1599.9063,54.25 Q1599.8594,53.8906 1599.6719,53.7031 Q1599.3438,53.3281 1598.7344,53.1094 Q1598.125,52.8906 1597.5,52.8906 Q1596.7344,52.8906 1596.0938,53.2188 Q1595.4688,53.5469 1594.9688,54.2969 Q1594.4844,55.0469 1594.4844,56.0781 L1594.4844,57.1719 Q1594.4844,58.4063 1595.375,59.2344 Q1596.2656,60.0469 1597.8594,60.0469 Q1598.7969,60.0469 1599.4531,59.7969 Q1599.8438,59.6406 1600.2656,59.2031 Q1600.5313,58.9375 1600.6719,58.8594 Q1600.8281,58.7813 1601.0313,58.7813 Q1601.3594,58.7813 1601.6094,59.0469 Q1601.875,59.2969 1601.875,59.6406 Q1601.875,59.9844 1601.5313,60.3906 Q1601.0313,60.9688 1600.2344,61.2969 Q1599.1563,61.75 1597.8594,61.75 Q1596.3438,61.75 1595.1406,61.125 Q1594.1563,60.625 1593.4688,59.5625 Q1592.7813,58.4844 1592.7813,57.2031 L1592.7813,56.0469 Q1592.7813,54.7188 1593.3906,53.5781 Q1594.0156,52.4219 1595.1094,51.8125 Q1596.2031,51.1875 1597.4375,51.1875 Q1598.1719,51.1875 1598.8125,51.3594 Q1599.4688,51.5156 1600.0156,51.875 Z " fill="#000000"/><text fill="#000000" font-family="sans-serif" font-size="14" lengthAdjust="spacing" textLength="50" x="1617.75" y="61.7969">RoomID</text><line style="stroke:#181818;stroke-width:0.5;" x1="1539.5" x2="1713.5" y1="72" y2="72"/><rect fill="none" height="6" style="stroke:#C82930;stroke-width:1.0;" width="6" x="1546.5" y="83.8105"/><text fill="#000000" font-family="sans-serif" font-size="14" lengthAdjust="spacing" textLength="64" x="1558.5" y="91.1074">_id: String</text><line style="stroke:#181818;stroke-width:0.5;" x1="1539.5" x2="1713.5" y1="98.6211" y2="98.6211"/><ellipse cx="1549.5" cy="113.4316" fill="#84BE84" rx="3" ry="3" style="stroke:#038048;stroke-width:1.0;"/><text fill="#000000" font-family="sans-serif" font-size="14" lengthAdjust="spacing" textLength="150" x="1558.5" y="117.7285">RoomID(roomID: String)</text></g><!--class DeviceName--><g id="elem_DeviceName"><rect codeLine="59" fill="#F1F1F1" height="85.2422" id="DeviceName" rx="2.5" ry="2.5" style="stroke:#181818;stroke-width:0.5;" width="237" x="733" y="40"/><ellipse cx="807.75" cy="56" fill="#ADD1B2" rx="11" ry="11" style="stroke:#181818;stroke-width:1.0;"/><path d="M810.5156,51.875 Q810.6719,51.6563 810.8594,51.5469 Q811.0469,51.4375 811.2656,51.4375 Q811.6406,51.4375 811.875,51.7031 Q812.1094,51.9531 812.1094,52.5625 L812.1094,54.0156 Q812.1094,54.625 811.875,54.8906 Q811.6406,55.1563 811.2656,55.1563 Q810.9219,55.1563 810.7188,54.9531 Q810.5156,54.7656 810.4063,54.25 Q810.3594,53.8906 810.1719,53.7031 Q809.8438,53.3281 809.2344,53.1094 Q808.625,52.8906 808,52.8906 Q807.2344,52.8906 806.5938,53.2188 Q805.9688,53.5469 805.4688,54.2969 Q804.9844,55.0469 804.9844,56.0781 L804.9844,57.1719 Q804.9844,58.4063 805.875,59.2344 Q806.7656,60.0469 808.3594,60.0469 Q809.2969,60.0469 809.9531,59.7969 Q810.3438,59.6406 810.7656,59.2031 Q811.0313,58.9375 811.1719,58.8594 Q811.3281,58.7813 811.5313,58.7813 Q811.8594,58.7813 812.1094,59.0469 Q812.375,59.2969 812.375,59.6406 Q812.375,59.9844 812.0313,60.3906 Q811.5313,60.9688 810.7344,61.2969 Q809.6563,61.75 808.3594,61.75 Q806.8438,61.75 805.6406,61.125 Q804.6563,60.625 803.9688,59.5625 Q803.2813,58.4844 803.2813,57.2031 L803.2813,56.0469 Q803.2813,54.7188 803.8906,53.5781 Q804.5156,52.4219 805.6094,51.8125 Q806.7031,51.1875 807.9375,51.1875 Q808.6719,51.1875 809.3125,51.3594 Q809.9688,51.5156 810.5156,51.875 Z " fill="#000000"/><text fill="#000000" font-family="sans-serif" font-size="14" lengthAdjust="spacing" textLength="79" x="828.25" y="61.7969">DeviceName</text><line style="stroke:#181818;stroke-width:0.5;" x1="734" x2="969" y1="72" y2="72"/><rect fill="none" height="6" style="stroke:#C82930;stroke-width:1.0;" width="6" x="741" y="83.8105"/><text fill="#000000" font-family="sans-serif" font-size="14" lengthAdjust="spacing" textLength="88" x="753" y="91.1074">_name: String</text><line style="stroke:#181818;stroke-width:0.5;" x1="734" x2="969" y1="98.6211" y2="98.6211"/><ellipse cx="744" cy="113.4316" fill="#84BE84" rx="3" ry="3" style="stroke:#038048;stroke-width:1.0;"/><text fill="#000000" font-family="sans-serif" font-size="14" lengthAdjust="spacing" textLength="211" x="753" y="117.7285">DeviceName(deviceName: String)</text></g><!--class DeviceStatus--><g id="elem_DeviceStatus"><rect codeLine="64" fill="#F1F1F1" height="85.2422" id="DeviceStatus" rx="2.5" ry="2.5" style="stroke:#181818;stroke-width:0.5;" width="259" x="988" y="40"/><ellipse cx="1071.75" cy="56" fill="#ADD1B2" rx="11" ry="11" style="stroke:#181818;stroke-width:1.0;"/><path d="M1074.5156,51.875 Q1074.6719,51.6563 1074.8594,51.5469 Q1075.0469,51.4375 1075.2656,51.4375 Q1075.6406,51.4375 1075.875,51.7031 Q1076.1094,51.9531 1076.1094,52.5625 L1076.1094,54.0156 Q1076.1094,54.625 1075.875,54.8906 Q1075.6406,55.1563 1075.2656,55.1563 Q1074.9219,55.1563 1074.7188,54.9531 Q1074.5156,54.7656 1074.4063,54.25 Q1074.3594,53.8906 1074.1719,53.7031 Q1073.8438,53.3281 1073.2344,53.1094 Q1072.625,52.8906 1072,52.8906 Q1071.2344,52.8906 1070.5938,53.2188 Q1069.9688,53.5469 1069.4688,54.2969 Q1068.9844,55.0469 1068.9844,56.0781 L1068.9844,57.1719 Q1068.9844,58.4063 1069.875,59.2344 Q1070.7656,60.0469 1072.3594,60.0469 Q1073.2969,60.0469 1073.9531,59.7969 Q1074.3438,59.6406 1074.7656,59.2031 Q1075.0313,58.9375 1075.1719,58.8594 Q1075.3281,58.7813 1075.5313,58.7813 Q1075.8594,58.7813 1076.1094,59.0469 Q1076.375,59.2969 1076.375,59.6406 Q1076.375,59.9844 1076.0313,60.3906 Q1075.5313,60.9688 1074.7344,61.2969 Q1073.6563,61.75 1072.3594,61.75 Q1070.8438,61.75 1069.6406,61.125 Q1068.6563,60.625 1067.9688,59.5625 Q1067.2813,58.4844 1067.2813,57.2031 L1067.2813,56.0469 Q1067.2813,54.7188 1067.8906,53.5781 Q1068.5156,52.4219 1069.6094,51.8125 Q1070.7031,51.1875 1071.9375,51.1875 Q1072.6719,51.1875 1073.3125,51.3594 Q1073.9688,51.5156 1074.5156,51.875 Z " fill="#000000"/><text fill="#000000" font-family="sans-serif" font-size="14" lengthAdjust="spacing" textLength="83" x="1092.25" y="61.7969">DeviceStatus</text><line style="stroke:#181818;stroke-width:0.5;" x1="989" x2="1246" y1="72" y2="72"/><rect fill="none" height="6" style="stroke:#C82930;stroke-width:1.0;" width="6" x="996" y="83.8105"/><text fill="#000000" font-family="sans-serif" font-size="14" lengthAdjust="spacing" textLength="105" x="1008" y="91.1074">_status: boolean</text><line style="stroke:#181818;stroke-width:0.5;" x1="989" x2="1246" y1="98.6211" y2="98.6211"/><ellipse cx="999" cy="113.4316" fill="#84BE84" rx="3" ry="3" style="stroke:#038048;stroke-width:1.0;"/><text fill="#000000" font-family="sans-serif" font-size="14" lengthAdjust="spacing" textLength="233" x="1008" y="117.7285">DeviceStatus(deviceStatus: boolean)</text></g><!--class DeviceTypeID--><g id="elem_DeviceTypeID"><rect codeLine="68" fill="#F1F1F1" height="85.2422" id="DeviceTypeID" rx="2.5" ry="2.5" style="stroke:#181818;stroke-width:0.5;" width="255" x="1265" y="40"/><ellipse cx="1344.25" cy="56" fill="#ADD1B2" rx="11" ry="11" style="stroke:#181818;stroke-width:1.0;"/><path d="M1347.0156,51.875 Q1347.1719,51.6563 1347.3594,51.5469 Q1347.5469,51.4375 1347.7656,51.4375 Q1348.1406,51.4375 1348.375,51.7031 Q1348.6094,51.9531 1348.6094,52.5625 L1348.6094,54.0156 Q1348.6094,54.625 1348.375,54.8906 Q1348.1406,55.1563 1347.7656,55.1563 Q1347.4219,55.1563 1347.2188,54.9531 Q1347.0156,54.7656 1346.9063,54.25 Q1346.8594,53.8906 1346.6719,53.7031 Q1346.3438,53.3281 1345.7344,53.1094 Q1345.125,52.8906 1344.5,52.8906 Q1343.7344,52.8906 1343.0938,53.2188 Q1342.4688,53.5469 1341.9688,54.2969 Q1341.4844,55.0469 1341.4844,56.0781 L1341.4844,57.1719 Q1341.4844,58.4063 1342.375,59.2344 Q1343.2656,60.0469 1344.8594,60.0469 Q1345.7969,60.0469 1346.4531,59.7969 Q1346.8438,59.6406 1347.2656,59.2031 Q1347.5313,58.9375 1347.6719,58.8594 Q1347.8281,58.7813 1348.0313,58.7813 Q1348.3594,58.7813 1348.6094,59.0469 Q1348.875,59.2969 1348.875,59.6406 Q1348.875,59.9844 1348.5313,60.3906 Q1348.0313,60.9688 1347.2344,61.2969 Q1346.1563,61.75 1344.8594,61.75 Q1343.3438,61.75 1342.1406,61.125 Q1341.1563,60.625 1340.4688,59.5625 Q1339.7813,58.4844 1339.7813,57.2031 L1339.7813,56.0469 Q1339.7813,54.7188 1340.3906,53.5781 Q1341.0156,52.4219 1342.1094,51.8125 Q1343.2031,51.1875 1344.4375,51.1875 Q1345.1719,51.1875 1345.8125,51.3594 Q1346.4688,51.5156 1347.0156,51.875 Z " fill="#000000"/><text fill="#000000" font-family="sans-serif" font-size="14" lengthAdjust="spacing" textLength="88" x="1364.75" y="61.7969">DeviceTypeID</text><line style="stroke:#181818;stroke-width:0.5;" x1="1266" x2="1519" y1="72" y2="72"/><rect fill="none" height="6" style="stroke:#C82930;stroke-width:1.0;" width="6" x="1273" y="83.8105"/><text fill="#000000" font-family="sans-serif" font-size="14" lengthAdjust="spacing" textLength="64" x="1285" y="91.1074">_id: String</text><line style="stroke:#181818;stroke-width:0.5;" x1="1266" x2="1519" y1="98.6211" y2="98.6211"/><ellipse cx="1276" cy="113.4316" fill="#84BE84" rx="3" ry="3" style="stroke:#038048;stroke-width:1.0;"/><text fill="#000000" font-family="sans-serif" font-size="14" lengthAdjust="spacing" textLength="229" x="1285" y="117.7285">DeviceTypeID(deviceTypeID: String)</text></g><!--class RoomDTO--><g id="elem_RoomDTO"><rect codeLine="73" fill="#F1F1F1" height="141.1055" id="RoomDTO" rx="2.5" ry="2.5" style="stroke:#181818;stroke-width:0.5;" width="510" x="1360.5" y="675"/><ellipse cx="1577.75" cy="691" fill="#ADD1B2" rx="11" ry="11" style="stroke:#181818;stroke-width:1.0;"/><path d="M1580.5156,686.875 Q1580.6719,686.6563 1580.8594,686.5469 Q1581.0469,686.4375 1581.2656,686.4375 Q1581.6406,686.4375 1581.875,686.7031 Q1582.1094,686.9531 1582.1094,687.5625 L1582.1094,689.0156 Q1582.1094,689.625 1581.875,689.8906 Q1581.6406,690.1563 1581.2656,690.1563 Q1580.9219,690.1563 1580.7188,689.9531 Q1580.5156,689.7656 1580.4063,689.25 Q1580.3594,688.8906 1580.1719,688.7031 Q1579.8438,688.3281 1579.2344,688.1094 Q1578.625,687.8906 1578,687.8906 Q1577.2344,687.8906 1576.5938,688.2188 Q1575.9688,688.5469 1575.4688,689.2969 Q1574.9844,690.0469 1574.9844,691.0781 L1574.9844,692.1719 Q1574.9844,693.4063 1575.875,694.2344 Q1576.7656,695.0469 1578.3594,695.0469 Q1579.2969,695.0469 1579.9531,694.7969 Q1580.3438,694.6406 1580.7656,694.2031 Q1581.0313,693.9375 1581.1719,693.8594 Q1581.3281,693.7813 1581.5313,693.7813 Q1581.8594,693.7813 1582.1094,694.0469 Q1582.375,694.2969 1582.375,694.6406 Q1582.375,694.9844 1582.0313,695.3906 Q1581.5313,695.9688 1580.7344,696.2969 Q1579.6563,696.75 1578.3594,696.75 Q1576.8438,696.75 1575.6406,696.125 Q1574.6563,695.625 1573.9688,694.5625 Q1573.2813,693.4844 1573.2813,692.2031 L1573.2813,691.0469 Q1573.2813,689.7188 1573.8906,688.5781 Q1574.5156,687.4219 1575.6094,686.8125 Q1576.7031,686.1875 1577.9375,686.1875 Q1578.6719,686.1875 1579.3125,686.3594 Q1579.9688,686.5156 1580.5156,686.875 Z " fill="#000000"/><text fill="#000000" font-family="sans-serif" font-size="14" lengthAdjust="spacing" textLength="67" x="1598.25" y="696.7969">RoomDTO</text><line style="stroke:#181818;stroke-width:0.5;" x1="1361.5" x2="1869.5" y1="707" y2="707"/><ellipse cx="1371.5" cy="721.8105" fill="none" rx="3" ry="3" style="stroke:#038048;stroke-width:1.0;"/><text fill="#000000" font-family="sans-serif" font-size="14" lengthAdjust="spacing" textLength="88" x="1380.5" y="726.1074">roomId: String</text><ellipse cx="1371.5" cy="740.4316" fill="none" rx="3" ry="3" style="stroke:#038048;stroke-width:1.0;"/><text fill="#000000" font-family="sans-serif" font-size="14" lengthAdjust="spacing" textLength="113" x="1380.5" y="744.7285">roomName: String</text><ellipse cx="1371.5" cy="759.0527" fill="none" rx="3" ry="3" style="stroke:#038048;stroke-width:1.0;"/><text fill="#000000" font-family="sans-serif" font-size="14" lengthAdjust="spacing" textLength="73" x="1380.5" y="763.3496">floor: String</text><ellipse cx="1371.5" cy="777.6738" fill="none" rx="3" ry="3" style="stroke:#038048;stroke-width:1.0;"/><text fill="#000000" font-family="sans-serif" font-size="14" lengthAdjust="spacing" textLength="109" x="1380.5" y="781.9707">dimension: String</text><line style="stroke:#181818;stroke-width:0.5;" x1="1361.5" x2="1869.5" y1="789.4844" y2="789.4844"/><ellipse cx="1371.5" cy="804.2949" fill="#84BE84" rx="3" ry="3" style="stroke:#038048;stroke-width:1.0;"/><text fill="#000000" font-family="sans-serif" font-size="14" lengthAdjust="spacing" textLength="484" x="1380.5" y="808.5918">RoomDTO(roomId: String, roomName: String, floor: String, dimension: String)</text></g><!--class AddDeviceToRoomController--><g id="elem_AddDeviceToRoomController"><rect codeLine="81" fill="#F1F1F1" height="215.5898" id="AddDeviceToRoomController" rx="2.5" ry="2.5" style="stroke:#181818;stroke-width:0.5;" width="731" x="752" y="208"/><ellipse cx="1021.25" cy="224" fill="#ADD1B2" rx="11" ry="11" style="stroke:#181818;stroke-width:1.0;"/><path d="M1024.0156,219.875 Q1024.1719,219.6563 1024.3594,219.5469 Q1024.5469,219.4375 1024.7656,219.4375 Q1025.1406,219.4375 1025.375,219.7031 Q1025.6094,219.9531 1025.6094,220.5625 L1025.6094,222.0156 Q1025.6094,222.625 1025.375,222.8906 Q1025.1406,223.1563 1024.7656,223.1563 Q1024.4219,223.1563 1024.2188,222.9531 Q1024.0156,222.7656 1023.9063,222.25 Q1023.8594,221.8906 1023.6719,221.7031 Q1023.3438,221.3281 1022.7344,221.1094 Q1022.125,220.8906 1021.5,220.8906 Q1020.7344,220.8906 1020.0938,221.2188 Q1019.4688,221.5469 1018.9688,222.2969 Q1018.4844,223.0469 1018.4844,224.0781 L1018.4844,225.1719 Q1018.4844,226.4063 1019.375,227.2344 Q1020.2656,228.0469 1021.8594,228.0469 Q1022.7969,228.0469 1023.4531,227.7969 Q1023.8438,227.6406 1024.2656,227.2031 Q1024.5313,226.9375 1024.6719,226.8594 Q1024.8281,226.7813 1025.0313,226.7813 Q1025.3594,226.7813 1025.6094,227.0469 Q1025.875,227.2969 1025.875,227.6406 Q1025.875,227.9844 1025.5313,228.3906 Q1025.0313,228.9688 1024.2344,229.2969 Q1023.1563,229.75 1021.8594,229.75 Q1020.3438,229.75 1019.1406,229.125 Q1018.1563,228.625 1017.4688,227.5625 Q1016.7813,226.4844 1016.7813,225.2031 L1016.7813,224.0469 Q1016.7813,222.7188 1017.3906,221.5781 Q1018.0156,220.4219 1019.1094,219.8125 Q1020.2031,219.1875 1021.4375,219.1875 Q1022.1719,219.1875 1022.8125,219.3594 Q1023.4688,219.5156 1024.0156,219.875 Z " fill="#000000"/><text fill="#000000" font-family="sans-serif" font-size="14" lengthAdjust="spacing" textLength="184" x="1041.75" y="229.7969">AddDeviceToRoomController</text><line style="stroke:#181818;stroke-width:0.5;" x1="753" x2="1482" y1="240" y2="240"/><rect fill="none" height="6" style="stroke:#C82930;stroke-width:1.0;" width="6" x="760" y="251.8105"/><text fill="#000000" font-family="sans-serif" font-size="14" lengthAdjust="spacing" textLength="194" x="772" y="259.1074">_deviceService: DeviceService</text><rect fill="none" height="6" style="stroke:#C82930;stroke-width:1.0;" width="6" x="760" y="270.4316"/><text fill="#000000" font-family="sans-serif" font-size="14" lengthAdjust="spacing" textLength="217" x="772" y="277.7285">_roomAssembler: RoomAssembler</text><rect fill="none" height="6" style="stroke:#C82930;stroke-width:1.0;" width="6" x="760" y="289.0527"/><text fill="#000000" font-family="sans-serif" font-size="14" lengthAdjust="spacing" textLength="179" x="772" y="296.3496">_roomService: RoomService</text><rect fill="none" height="6" style="stroke:#C82930;stroke-width:1.0;" width="6" x="760" y="307.6738"/><text fill="#000000" font-family="sans-serif" font-size="14" lengthAdjust="spacing" textLength="232" x="772" y="314.9707">_deviceAssembler: DeviceAssembler</text><line style="stroke:#181818;stroke-width:0.5;" x1="753" x2="1482" y1="322.4844" y2="322.4844"/><ellipse cx="763" cy="337.2949" fill="#84BE84" rx="3" ry="3" style="stroke:#038048;stroke-width:1.0;"/><text fill="#000000" font-family="sans-serif" font-size="14" lengthAdjust="spacing" textLength="558" x="772" y="341.5918">AddDeviceToRoomController(roomServiceImpl: RoomService, deviceServiceImpl: DeviceService,</text><text fill="#000000" font-family="sans-serif" font-size="14" lengthAdjust="spacing" textLength="446" x="772" y="360.2129">roomAssembler: RoomAssembler, deviceAssembler: DeviceAssembler)</text><text fill="#000000" font-family="sans-serif" font-size="14" lengthAdjust="spacing" textLength="4" x="772" y="378.834">&#160;</text><ellipse cx="763" cy="393.1582" fill="#84BE84" rx="3" ry="3" style="stroke:#038048;stroke-width:1.0;"/><text fill="#000000" font-family="sans-serif" font-size="14" lengthAdjust="spacing" textLength="705" x="772" y="397.4551">addDeviceToRoom(deviceTypeID: String, deviceName: String, roomID: String, deviceStatus: String): DeviceDTO</text><ellipse cx="763" cy="411.7793" fill="#84BE84" rx="3" ry="3" style="stroke:#038048;stroke-width:1.0;"/><text fill="#000000" font-family="sans-serif" font-size="14" lengthAdjust="spacing" textLength="202" x="772" y="416.0762">getAllRooms(): List&lt;RoomDTO&gt;</text></g><!--class DeviceDTO--><g id="elem_DeviceDTO"><rect codeLine="92" fill="#F1F1F1" height="141.1055" id="DeviceDTO" rx="2.5" ry="2.5" style="stroke:#181818;stroke-width:0.5;" width="709" x="6" y="12"/><ellipse cx="319.75" cy="28" fill="#ADD1B2" rx="11" ry="11" style="stroke:#181818;stroke-width:1.0;"/><path d="M322.5156,23.875 Q322.6719,23.6563 322.8594,23.5469 Q323.0469,23.4375 323.2656,23.4375 Q323.6406,23.4375 323.875,23.7031 Q324.1094,23.9531 324.1094,24.5625 L324.1094,26.0156 Q324.1094,26.625 323.875,26.8906 Q323.6406,27.1563 323.2656,27.1563 Q322.9219,27.1563 322.7188,26.9531 Q322.5156,26.7656 322.4063,26.25 Q322.3594,25.8906 322.1719,25.7031 Q321.8438,25.3281 321.2344,25.1094 Q320.625,24.8906 320,24.8906 Q319.2344,24.8906 318.5938,25.2188 Q317.9688,25.5469 317.4688,26.2969 Q316.9844,27.0469 316.9844,28.0781 L316.9844,29.1719 Q316.9844,30.4063 317.875,31.2344 Q318.7656,32.0469 320.3594,32.0469 Q321.2969,32.0469 321.9531,31.7969 Q322.3438,31.6406 322.7656,31.2031 Q323.0313,30.9375 323.1719,30.8594 Q323.3281,30.7813 323.5313,30.7813 Q323.8594,30.7813 324.1094,31.0469 Q324.375,31.2969 324.375,31.6406 Q324.375,31.9844 324.0313,32.3906 Q323.5313,32.9688 322.7344,33.2969 Q321.6563,33.75 320.3594,33.75 Q318.8438,33.75 317.6406,33.125 Q316.6563,32.625 315.9688,31.5625 Q315.2813,30.4844 315.2813,29.2031 L315.2813,28.0469 Q315.2813,26.7188 315.8906,25.5781 Q316.5156,24.4219 317.6094,23.8125 Q318.7031,23.1875 319.9375,23.1875 Q320.6719,23.1875 321.3125,23.3594 Q321.9688,23.5156 322.5156,23.875 Z " fill="#000000"/><text fill="#000000" font-family="sans-serif" font-size="14" lengthAdjust="spacing" textLength="73" x="340.25" y="33.7969">DeviceDTO</text><line style="stroke:#181818;stroke-width:0.5;" x1="7" x2="714" y1="44" y2="44"/><ellipse cx="17" cy="58.8105" fill="none" rx="3" ry="3" style="stroke:#038048;stroke-width:1.0;"/><text fill="#000000" font-family="sans-serif" font-size="14" lengthAdjust="spacing" textLength="99" x="26" y="63.1074">deviceID: String</text><ellipse cx="17" cy="77.4316" fill="none" rx="3" ry="3" style="stroke:#038048;stroke-width:1.0;"/><text fill="#000000" font-family="sans-serif" font-size="14" lengthAdjust="spacing" textLength="122" x="26" y="81.7285">deviceName: String</text><ellipse cx="17" cy="96.0527" fill="none" rx="3" ry="3" style="stroke:#038048;stroke-width:1.0;"/><text fill="#000000" font-family="sans-serif" font-size="14" lengthAdjust="spacing" textLength="90" x="26" y="100.3496">roomID: String</text><ellipse cx="17" cy="114.6738" fill="none" rx="3" ry="3" style="stroke:#038048;stroke-width:1.0;"/><text fill="#000000" font-family="sans-serif" font-size="14" lengthAdjust="spacing" textLength="130" x="26" y="118.9707">deviceStatus : String</text><line style="stroke:#181818;stroke-width:0.5;" x1="7" x2="714" y1="126.4844" y2="126.4844"/><ellipse cx="17" cy="141.2949" fill="#84BE84" rx="3" ry="3" style="stroke:#038048;stroke-width:1.0;"/><text fill="#000000" font-family="sans-serif" font-size="14" lengthAdjust="spacing" textLength="683" x="26" y="145.5918">DeviceDTO(deviceID: String, deviceTypeID: String, deviceName: String, roomID: String, deviceStatus: String)</text></g><!--class DeviceAssembler--><g id="elem_DeviceAssembler"><rect codeLine="99" fill="#F1F1F1" height="66.6211" id="DeviceAssembler" rx="2.5" ry="2.5" style="stroke:#181818;stroke-width:0.5;" width="342" x="276.5" y="282.5"/><ellipse cx="388.75" cy="298.5" fill="#ADD1B2" rx="11" ry="11" style="stroke:#181818;stroke-width:1.0;"/><path d="M391.5156,294.375 Q391.6719,294.1563 391.8594,294.0469 Q392.0469,293.9375 392.2656,293.9375 Q392.6406,293.9375 392.875,294.2031 Q393.1094,294.4531 393.1094,295.0625 L393.1094,296.5156 Q393.1094,297.125 392.875,297.3906 Q392.6406,297.6563 392.2656,297.6563 Q391.9219,297.6563 391.7188,297.4531 Q391.5156,297.2656 391.4063,296.75 Q391.3594,296.3906 391.1719,296.2031 Q390.8438,295.8281 390.2344,295.6094 Q389.625,295.3906 389,295.3906 Q388.2344,295.3906 387.5938,295.7188 Q386.9688,296.0469 386.4688,296.7969 Q385.9844,297.5469 385.9844,298.5781 L385.9844,299.6719 Q385.9844,300.9063 386.875,301.7344 Q387.7656,302.5469 389.3594,302.5469 Q390.2969,302.5469 390.9531,302.2969 Q391.3438,302.1406 391.7656,301.7031 Q392.0313,301.4375 392.1719,301.3594 Q392.3281,301.2813 392.5313,301.2813 Q392.8594,301.2813 393.1094,301.5469 Q393.375,301.7969 393.375,302.1406 Q393.375,302.4844 393.0313,302.8906 Q392.5313,303.4688 391.7344,303.7969 Q390.6563,304.25 389.3594,304.25 Q387.8438,304.25 386.6406,303.625 Q385.6563,303.125 384.9688,302.0625 Q384.2813,300.9844 384.2813,299.7031 L384.2813,298.5469 Q384.2813,297.2188 384.8906,296.0781 Q385.5156,294.9219 386.6094,294.3125 Q387.7031,293.6875 388.9375,293.6875 Q389.6719,293.6875 390.3125,293.8594 Q390.9688,294.0156 391.5156,294.375 Z " fill="#000000"/><text fill="#000000" font-family="sans-serif" font-size="14" lengthAdjust="spacing" textLength="109" x="409.25" y="304.2969">DeviceAssembler</text><line style="stroke:#181818;stroke-width:0.5;" x1="277.5" x2="617.5" y1="314.5" y2="314.5"/><line style="stroke:#181818;stroke-width:0.5;" x1="277.5" x2="617.5" y1="322.5" y2="322.5"/><ellipse cx="287.5" cy="337.3105" fill="#84BE84" rx="3" ry="3" style="stroke:#038048;stroke-width:1.0;"/><text fill="#000000" font-family="sans-serif" font-size="14" lengthAdjust="spacing" textLength="316" x="296.5" y="341.6074">domainToDTO(domainEntity: Device): DeviceDTO</text></g><polygon fill="#181818" points="559.1955,870.8924,554.4246,862.2762,555.2057,867.8789,549.603,868.66,559.1955,870.8924" style="stroke:#181818;stroke-width:1.0;"/><path d="M449.5295,788.0631 C479.9534,811.0419 514.7559,837.3277 554.4077,867.2762 " fill="none" style="stroke:#181818;stroke-width:1.0;"/><text fill="#000000" font-family="sans-serif" font-size="13" lengthAdjust="spacing" textLength="21" x="531.5" y="849.0283">has</text><text fill="#000000" font-family="sans-serif" font-size="13" lengthAdjust="spacing" textLength="7" x="560.1955" y="866.9207">1</text><text fill="#000000" font-family="sans-serif" font-size="13" lengthAdjust="spacing" textLength="7" x="441.5295" y="803.0914">1</text><polygon fill="#181818" points="934.5,711.9331,938.5,702.9331,934.5,706.9331,930.5,702.9331,934.5,711.9331" style="stroke:#181818;stroke-width:1.0;"/><path d="M934.5,620.2644 C934.5,651.5494 934.5,680.9477 934.5,705.9331 " fill="none" style="stroke:#181818;stroke-width:1.0;stroke-dasharray:7.0,7.0;"/><text fill="#000000" font-family="sans-serif" font-size="13" lengthAdjust="spacing" textLength="28" x="935.5" y="653.0283">uses</text><text fill="#000000" font-family="sans-serif" font-size="13" lengthAdjust="spacing" textLength="7" x="918.5" y="707.9614">1</text><text fill="#000000" font-family="sans-serif" font-size="13" lengthAdjust="spacing" textLength="7" x="926.5" y="635.2927">1</text><polygon fill="#181818" points="618.7371,316,627.7371,320,623.7371,316,627.7371,312,618.7371,316" style="stroke:#181818;stroke-width:1.0;"/><path d="M624.7371,316 C665.9314,316 705.5074,316 751.8725,316 " fill="none" style="stroke:#181818;stroke-width:1.0;stroke-dasharray:7.0,7.0;"/><text fill="#000000" font-family="sans-serif" font-size="13" lengthAdjust="spacing" textLength="28" x="671.25" y="309.0283">uses</text><text fill="#000000" font-family="sans-serif" font-size="13" lengthAdjust="spacing" textLength="7" x="743.8725" y="312.0283">1</text><text fill="#000000" font-family="sans-serif" font-size="13" lengthAdjust="spacing" textLength="7" x="619.7371" y="312.0283">1</text><polygon fill="#181818" points="461.7529,702.917,471.5586,701.9966,466.1121,700.4682,467.6405,695.0218,461.7529,702.917" style="stroke:#181818;stroke-width:1.0;"/><path d="M668.8417,620.0737 C617.8771,636.1406 565.4714,654.592 517.5,675 C498.8799,682.9214 484.718,690.0165 466.984,699.9785 " fill="none" style="stroke:#181818;stroke-width:1.0;stroke-dasharray:7.0,7.0;"/><text fill="#000000" font-family="sans-serif" font-size="13" lengthAdjust="spacing" textLength="28" x="607.5" y="653.0283">uses</text><text fill="#000000" font-family="sans-serif" font-size="13" lengthAdjust="spacing" textLength="7" x="453.7529" y="698.9454">1</text><text fill="#000000" font-family="sans-serif" font-size="13" lengthAdjust="spacing" textLength="7" x="660.8417" y="635.102">1</text><polygon fill="#181818" points="2540.2556,316,2531.2556,312,2535.2556,316,2531.2556,320,2540.2556,316" style="stroke:#181818;stroke-width:1.0;"/><path d="M2492.8807,316 C2509.6217,316 2519.5088,316 2534.2556,316 " fill="none" style="stroke:#181818;stroke-width:1.0;stroke-dasharray:7.0,7.0;"/><text fill="#000000" font-family="sans-serif" font-size="13" lengthAdjust="spacing" textLength="28" x="2502.5" y="309.0283">uses</text><text fill="#000000" font-family="sans-serif" font-size="13" lengthAdjust="spacing" textLength="7" x="2532.2556" y="331.0283">1</text><text fill="#000000" font-family="sans-serif" font-size="13" lengthAdjust="spacing" textLength="7" x="2493.8807" y="312.0283">1</text><polygon fill="#181818" points="830.4784,870.9278,839.3197,866.5884,833.6853,867.0917,833.182,861.4573,830.4784,870.9278" style="stroke:#181818;stroke-width:1.0;"/><path d="M907.1769,779.1831 C887.2602,803.0069 862.7412,832.3359 834.3267,866.3245 " fill="none" style="stroke:#181818;stroke-width:1.0;stroke-dasharray:7.0,7.0;"/><text fill="#000000" font-family="sans-serif" font-size="13" lengthAdjust="spacing" textLength="43" x="862.5" y="849.0283">creates</text><text fill="#000000" font-family="sans-serif" font-size="13" lengthAdjust="spacing" textLength="7" x="814.4784" y="866.9561">1</text><text fill="#000000" font-family="sans-serif" font-size="13" lengthAdjust="spacing" textLength="7" x="899.1769" y="794.2115">1</text><polygon fill="#181818" points="989.4889,478.9376,998.2081,474.3577,992.5896,475.0151,991.9322,469.3966,989.4889,478.9376" style="stroke:#181818;stroke-width:1.0;"/><path d="M1032.6963,424.279 C1018.0176,442.8479 1006.8286,457.0023 993.2097,474.2306 " fill="none" style="stroke:#181818;stroke-width:1.0;stroke-dasharray:7.0,7.0;"/><text fill="#000000" font-family="sans-serif" font-size="13" lengthAdjust="spacing" textLength="28" x="1016.5" y="457.0283">uses</text><text fill="#000000" font-family="sans-serif" font-size="13" lengthAdjust="spacing" textLength="7" x="981.4889" y="474.9659">1</text><text fill="#000000" font-family="sans-serif" font-size="13" lengthAdjust="spacing" textLength="7" x="1024.6963" y="439.3073">1</text><polygon fill="#181818" points="1530.4377,316,1521.4377,312,1525.4377,316,1521.4377,320,1530.4377,316" style="stroke:#181818;stroke-width:1.0;"/><path d="M1483.0584,316 C1498.74,316 1508.56,316 1524.4377,316 " fill="none" style="stroke:#181818;stroke-width:1.0;stroke-dasharray:7.0,7.0;"/><text fill="#000000" font-family="sans-serif" font-size="13" lengthAdjust="spacing" textLength="28" x="1492.75" y="309.0283">uses</text><text fill="#000000" font-family="sans-serif" font-size="13" lengthAdjust="spacing" textLength="7" x="1522.4377" y="331.0283">1</text><text fill="#000000" font-family="sans-serif" font-size="13" lengthAdjust="spacing" textLength="7" x="1484.0584" y="312.0283">1</text><polygon fill="#181818" points="386.7208,153.2716,386.1426,163.1034,388.4798,157.952,393.6313,160.2891,386.7208,153.2716" style="stroke:#181818;stroke-width:1.0;"/><path d="M388.8316,158.888 C404.942,201.7565 422.7173,249.0553 435.258,282.425 " fill="none" style="stroke:#181818;stroke-width:1.0;stroke-dasharray:7.0,7.0;"/><text fill="#000000" font-family="sans-serif" font-size="13" lengthAdjust="spacing" textLength="43" x="400.5" y="186.0283">creates</text><text fill="#000000" font-family="sans-serif" font-size="13" lengthAdjust="spacing" textLength="7" x="427.258" y="278.4533">1</text><text fill="#000000" font-family="sans-serif" font-size="13" lengthAdjust="spacing" textLength="5" x="380.7208" y="168.2999">*</text><polygon fill="#181818" points="1493.2891,506.9458,1487.0613,499.316,1488.8267,504.6903,1483.4524,506.4557,1493.2891,506.9458" style="stroke:#181818;stroke-width:1.0;"/><path d="M1329.4062,424.1098 C1387.6021,453.5254 1441.9236,480.9826 1487.9343,504.2392 " fill="none" style="stroke:#181818;stroke-width:1.0;stroke-dasharray:7.0,7.0;"/><text fill="#000000" font-family="sans-serif" font-size="13" lengthAdjust="spacing" textLength="28" x="1401.5" y="457.0283">uses</text><text fill="#000000" font-family="sans-serif" font-size="13" lengthAdjust="spacing" textLength="7" x="1485.2891" y="502.9741">1</text><text fill="#000000" font-family="sans-serif" font-size="13" lengthAdjust="spacing" textLength="7" x="1321.4062" y="439.1381">1</text><polygon fill="#181818" points="1601.1103,674.7099,1603.2105,665.0876,1600.1006,669.813,1595.3753,666.7031,1601.1103,674.7099" style="stroke:#181818;stroke-width:1.0;"/><path d="M1584.081,592.1179 C1589.0394,616.1663 1594.1945,641.1682 1599.8987,668.8336 " fill="none" style="stroke:#181818;stroke-width:1.0;stroke-dasharray:7.0,7.0;"/><text fill="#000000" font-family="sans-serif" font-size="13" lengthAdjust="spacing" textLength="43" x="1597.5" y="653.0283">creates</text><text fill="#000000" font-family="sans-serif" font-size="13" lengthAdjust="spacing" textLength="5" x="1595.1103" y="670.7383">*</text><text fill="#000000" font-family="sans-serif" font-size="13" lengthAdjust="spacing" textLength="7" x="1576.081" y="607.1462">1</text><polygon fill="#181818" points="1573.4083,125.1076,1563.7552,127.0617,1569.333,128.0045,1568.3902,133.5822,1573.4083,125.1076" style="stroke:#181818;stroke-width:1.0;"/><path d="M1568.5179,128.5839 C1554.661,138.4339 1544.332,144.9324 1529.5,153 C1493.5472,172.5559 1454.7252,190.9855 1415.7833,207.9112 " fill="none" style="stroke:#181818;stroke-width:1.0;stroke-dasharray:7.0,7.0;"/><text fill="#000000" font-family="sans-serif" font-size="13" lengthAdjust="spacing" textLength="43" x="1487.5" y="186.0283">creates</text><text fill="#000000" font-family="sans-serif" font-size="13" lengthAdjust="spacing" textLength="7" x="1407.7833" y="203.9396">1</text><text fill="#000000" font-family="sans-serif" font-size="13" lengthAdjust="spacing" textLength="7" x="1565.4083" y="140.1359">1</text><polygon fill="#181818" points="899.3627,125.1549,903.5257,134.0807,903.1343,128.4374,908.7776,128.0461,899.3627,125.1549" style="stroke:#181818;stroke-width:1.0;"/><path d="M903.8887,129.0939 C930.588,152.3304 960.6583,178.5006 994.4001,207.8661 " fill="none" style="stroke:#181818;stroke-width:1.0;stroke-dasharray:7.0,7.0;"/><text fill="#000000" font-family="sans-serif" font-size="13" lengthAdjust="spacing" textLength="43" x="970.5" y="186.0283">creates</text><text fill="#000000" font-family="sans-serif" font-size="13" lengthAdjust="spacing" textLength="7" x="986.4001" y="203.8944">1</text><text fill="#000000" font-family="sans-serif" font-size="13" lengthAdjust="spacing" textLength="7" x="891.3627" y="140.1832">1</text><polygon fill="#181818" points="1117.5,125.1549,1113.5,134.1549,1117.5,130.1549,1121.5,134.1549,1117.5,125.1549" style="stroke:#181818;stroke-width:1.0;"/><path d="M1117.5,131.1549 C1117.5,154.3263 1117.5,178.332 1117.5,207.6193 " fill="none" style="stroke:#181818;stroke-width:1.0;stroke-dasharray:7.0,7.0;"/><text fill="#000000" font-family="sans-serif" font-size="13" lengthAdjust="spacing" textLength="43" x="1118.5" y="186.0283">creates</text><text fill="#000000" font-family="sans-serif" font-size="13" lengthAdjust="spacing" textLength="7" x="1109.5" y="203.6476">1</text><text fill="#000000" font-family="sans-serif" font-size="13" lengthAdjust="spacing" textLength="7" x="1109.5" y="140.1832">1</text><polygon fill="#181818" points="1343.0179,125.1549,1333.5567,127.8909,1339.1928,128.375,1338.7088,134.0111,1343.0179,125.1549" style="stroke:#181818;stroke-width:1.0;"/><path d="M1338.4278,129.019 C1310.8251,152.2555 1279.6483,178.5006 1244.7649,207.8661 " fill="none" style="stroke:#181818;stroke-width:1.0;stroke-dasharray:7.0,7.0;"/><text fill="#000000" font-family="sans-serif" font-size="13" lengthAdjust="spacing" textLength="43" x="1288.5" y="186.0283">creates</text><text fill="#000000" font-family="sans-serif" font-size="13" lengthAdjust="spacing" textLength="7" x="1236.7649" y="203.8944">1</text><text fill="#000000" font-family="sans-serif" font-size="13" lengthAdjust="spacing" textLength="7" x="1335.0179" y="140.1832">1</text><!--SRC=[hLPBRzim3BxxLsW-sOqJe5UZ253C6nPWwu0qzq6DrTI0RGMMqo4ezjzdIPHC-j6ctKw9AFBZnwVrwTZmGyLPoS_or39LYPRNF0Zs9LUAPUAvs0ls4Z2sPBzoSzhaASWt6PRVyKgu6_tVtZLILfiiPLlpY_NlMzwUbBEm9to_En-5jipGAUWK5Y29A7GopI9XyzxStPIds7WwY7QJHt7Axjkcg0zEriEFxomRBVSX8nlhMDyEmaOwba2l0w4pzeUMvIlVjx8vc-eisBuHl1MG6ZR83RiaEPVdnXt7dBRYA5NXQNN5hFZnnhLB0bfh03V45NyMaJqxNEe0uz-BPjoHlTDqH0FhGS9Ich- -Jp7EbfmxdRxnW4FqkebBu6ladCuqCTk2FC-d-vtzvuQdHMKswzeNnFjoOQ90nyUqxG_szacU54dBDoheCMwL4jL3AHgBueycCOXQz1PamjugrXnbUpD79CPJtuqrIzdtGhKt-hZ6qq7T-VRbBK_PZsv2N4sTuO8z5dL-MvPw3Sn3UY86iJCZmYYsmbnMlAXtCjlzD4saC2J6xnJMngHpWhniCaUuoCcwWrtd6jFUnEEjeFlIGTIcNn48MgQuesV1O5a1d88sVv2o5Bn6YB1gwJI0MZnQB7O8Pk8aUvcEq0HDoAGhYTt56D09xsWgJDLBAPk1B2ygKQj2rWCv-8aeVZA2JYXgCWQC0q_-rgsRdTJudsNTDh9q7TP_lEtWfNGbNZIveE4Hq1nZ3mWXem9JabcUqHouNuoJr1ETrDUOE_DvNd505xPbDjalT7dZmerrNEj2gPpRhl9k-NHh0lRFU9PfbzksN01oxykBI4ik1eoy5emWadluQ0Wz_ERySm826f9Fltq6uLrd_t-fsw8zZvuMDdzwqOrUBk5ro9Qv_5qlr-P_1e-J9wu2-WpfRbTQSRKEhnaBwVSxPTqtI0Np4wMjI_7OQkjm60vOp_iBHyy9C44zRmoQul04FhQ3ho1ouLwJqo6byBvyAvmXEJzi5wHYm9EQ3h9Z34x7LLUWgx2lwFjfRkd8-mHIJw1_5RgbUwaZJT6vqPtzFgiCpSX7BDtaVCJMpQkp3OA_]--></g></svg>