<?xml version="1.0" encoding="us-ascii" standalone="no"?>
<svg xmlns="http://www.w3.org/2000/svg" contentStyleType="text/css"
     height="623px" preserveAspectRatio="none" style="width:437px;height:623px;background:#FFFFFF;" version="1.1"
     viewBox="0 0 437 623" width="437px" zoomAndPan="magnify">
    <defs/>
    <g><!--class House-->
        <g id="elem_House">
            <rect codeLine="3" fill="#F1F1F1" height="76.543" id="House" rx="2.5" ry="2.5"
                  style="stroke:#181818;stroke-width:0.5;" width="72" x="138.8374" y="12"/>
            <ellipse cx="153.8374" cy="42.2715" fill="#ADD1B2" rx="11" ry="11"
                     style="stroke:#181818;stroke-width:1.0;"/>
            <path d="M156.603,38.1465 Q156.7592,37.9277 156.9467,37.8184 Q157.1342,37.709 157.353,37.709 Q157.728,37.709 157.9624,37.9746 Q158.1967,38.2246 158.1967,38.834 L158.1967,40.2871 Q158.1967,40.8965 157.9624,41.1621 Q157.728,41.4277 157.353,41.4277 Q157.0092,41.4277 156.8061,41.2246 Q156.603,41.0371 156.4936,40.5215 Q156.4467,40.1621 156.2592,39.9746 Q155.9311,39.5996 155.3217,39.3809 Q154.7124,39.1621 154.0874,39.1621 Q153.3217,39.1621 152.6811,39.4902 Q152.0561,39.8184 151.5561,40.5684 Q151.0717,41.3184 151.0717,42.3496 L151.0717,43.4434 Q151.0717,44.6777 151.9624,45.5059 Q152.853,46.3184 154.4467,46.3184 Q155.3842,46.3184 156.0405,46.0684 Q156.4311,45.9121 156.853,45.4746 Q157.1186,45.209 157.2592,45.1309 Q157.4155,45.0527 157.6186,45.0527 Q157.9467,45.0527 158.1967,45.3184 Q158.4624,45.5684 158.4624,45.9121 Q158.4624,46.2559 158.1186,46.6621 Q157.6186,47.2402 156.8217,47.5684 Q155.7436,48.0215 154.4467,48.0215 Q152.9311,48.0215 151.728,47.3965 Q150.7436,46.8965 150.0561,45.834 Q149.3686,44.7559 149.3686,43.4746 L149.3686,42.3184 Q149.3686,40.9902 149.978,39.8496 Q150.603,38.6934 151.6967,38.084 Q152.7905,37.459 154.0249,37.459 Q154.7592,37.459 155.3999,37.6309 Q156.0561,37.7871 156.603,38.1465 Z "
                  fill="#000000"/>
            <text fill="#000000" font-family="sans-serif" font-size="12" font-style="italic" lengthAdjust="spacing"
                  textLength="44" x="165.8374" y="29.9492">&#171;Entity&#187;
            </text>
            <text fill="#000000" font-family="sans-serif" font-size="12" font-style="italic" lengthAdjust="spacing"
                  textLength="40" x="167.8374" y="45.9102">&#171;Root&#187;
            </text>
            <text fill="#000000" font-family="sans-serif" font-size="14" lengthAdjust="spacing" textLength="40"
                  x="167.8374" y="64.0293">House
            </text>
            <line style="stroke:#181818;stroke-width:0.5;" x1="139.8374" x2="209.8374" y1="72.543" y2="72.543"/>
            <line style="stroke:#181818;stroke-width:0.5;" x1="139.8374" x2="209.8374" y1="80.543" y2="80.543"/>
        </g><!--class Room-->
        <g id="elem_Room">
            <rect codeLine="4" fill="#F1F1F1" height="76.543" id="Room" rx="2.5" ry="2.5"
                  style="stroke:#181818;stroke-width:0.5;" width="72" x="138.8374" y="144"/>
            <ellipse cx="153.8374" cy="174.2715" fill="#ADD1B2" rx="11" ry="11"
                     style="stroke:#181818;stroke-width:1.0;"/>
            <path d="M156.603,170.1465 Q156.7592,169.9277 156.9467,169.8184 Q157.1342,169.709 157.353,169.709 Q157.728,169.709 157.9624,169.9746 Q158.1967,170.2246 158.1967,170.834 L158.1967,172.2871 Q158.1967,172.8965 157.9624,173.1621 Q157.728,173.4277 157.353,173.4277 Q157.0092,173.4277 156.8061,173.2246 Q156.603,173.0371 156.4936,172.5215 Q156.4467,172.1621 156.2592,171.9746 Q155.9311,171.5996 155.3217,171.3809 Q154.7124,171.1621 154.0874,171.1621 Q153.3217,171.1621 152.6811,171.4902 Q152.0561,171.8184 151.5561,172.5684 Q151.0717,173.3184 151.0717,174.3496 L151.0717,175.4434 Q151.0717,176.6777 151.9624,177.5059 Q152.853,178.3184 154.4467,178.3184 Q155.3842,178.3184 156.0405,178.0684 Q156.4311,177.9121 156.853,177.4746 Q157.1186,177.209 157.2592,177.1309 Q157.4155,177.0527 157.6186,177.0527 Q157.9467,177.0527 158.1967,177.3184 Q158.4624,177.5684 158.4624,177.9121 Q158.4624,178.2559 158.1186,178.6621 Q157.6186,179.2402 156.8217,179.5684 Q155.7436,180.0215 154.4467,180.0215 Q152.9311,180.0215 151.728,179.3965 Q150.7436,178.8965 150.0561,177.834 Q149.3686,176.7559 149.3686,175.4746 L149.3686,174.3184 Q149.3686,172.9902 149.978,171.8496 Q150.603,170.6934 151.6967,170.084 Q152.7905,169.459 154.0249,169.459 Q154.7592,169.459 155.3999,169.6309 Q156.0561,169.7871 156.603,170.1465 Z "
                  fill="#000000"/>
            <text fill="#000000" font-family="sans-serif" font-size="12" font-style="italic" lengthAdjust="spacing"
                  textLength="44" x="165.8374" y="161.9492">&#171;Entity&#187;
            </text>
            <text fill="#000000" font-family="sans-serif" font-size="12" font-style="italic" lengthAdjust="spacing"
                  textLength="40" x="167.8374" y="177.9102">&#171;Root&#187;
            </text>
            <text fill="#000000" font-family="sans-serif" font-size="14" lengthAdjust="spacing" textLength="37"
                  x="169.3374" y="196.0293">Room
            </text>
            <line style="stroke:#181818;stroke-width:0.5;" x1="139.8374" x2="209.8374" y1="204.543" y2="204.543"/>
            <line style="stroke:#181818;stroke-width:0.5;" x1="139.8374" x2="209.8374" y1="212.543" y2="212.543"/>
        </g><!--class Device-->
        <g id="elem_Device">
            <rect codeLine="5" fill="#F1F1F1" height="76.543" id="Device" rx="2.5" ry="2.5"
                  style="stroke:#181818;stroke-width:0.5;" width="75" x="205.3374" y="276"/>
            <ellipse cx="220.3374" cy="306.2715" fill="#ADD1B2" rx="11" ry="11"
                     style="stroke:#181818;stroke-width:1.0;"/>
            <path d="M223.103,302.1465 Q223.2592,301.9277 223.4467,301.8184 Q223.6342,301.709 223.853,301.709 Q224.228,301.709 224.4624,301.9746 Q224.6967,302.2246 224.6967,302.834 L224.6967,304.2871 Q224.6967,304.8965 224.4624,305.1621 Q224.228,305.4277 223.853,305.4277 Q223.5092,305.4277 223.3061,305.2246 Q223.103,305.0371 222.9936,304.5215 Q222.9467,304.1621 222.7592,303.9746 Q222.4311,303.5996 221.8217,303.3809 Q221.2124,303.1621 220.5874,303.1621 Q219.8217,303.1621 219.1811,303.4902 Q218.5561,303.8184 218.0561,304.5684 Q217.5717,305.3184 217.5717,306.3496 L217.5717,307.4434 Q217.5717,308.6777 218.4624,309.5059 Q219.353,310.3184 220.9467,310.3184 Q221.8842,310.3184 222.5405,310.0684 Q222.9311,309.9121 223.353,309.4746 Q223.6186,309.209 223.7592,309.1309 Q223.9155,309.0527 224.1186,309.0527 Q224.4467,309.0527 224.6967,309.3184 Q224.9624,309.5684 224.9624,309.9121 Q224.9624,310.2559 224.6186,310.6621 Q224.1186,311.2402 223.3217,311.5684 Q222.2436,312.0215 220.9467,312.0215 Q219.4311,312.0215 218.228,311.3965 Q217.2436,310.8965 216.5561,309.834 Q215.8686,308.7559 215.8686,307.4746 L215.8686,306.3184 Q215.8686,304.9902 216.478,303.8496 Q217.103,302.6934 218.1967,302.084 Q219.2905,301.459 220.5249,301.459 Q221.2592,301.459 221.8999,301.6309 Q222.5561,301.7871 223.103,302.1465 Z "
                  fill="#000000"/>
            <text fill="#000000" font-family="sans-serif" font-size="12" font-style="italic" lengthAdjust="spacing"
                  textLength="44" x="233.8374" y="293.9492">&#171;Entity&#187;
            </text>
            <text fill="#000000" font-family="sans-serif" font-size="12" font-style="italic" lengthAdjust="spacing"
                  textLength="40" x="235.8374" y="309.9102">&#171;Root&#187;
            </text>
            <text fill="#000000" font-family="sans-serif" font-size="14" lengthAdjust="spacing" textLength="43"
                  x="234.3374" y="328.0293">Device
            </text>
            <line style="stroke:#181818;stroke-width:0.5;" x1="206.3374" x2="279.3374" y1="336.543" y2="336.543"/>
            <line style="stroke:#181818;stroke-width:0.5;" x1="206.3374" x2="279.3374" y1="344.543" y2="344.543"/>
        </g><!--class DeviceType-->
        <g id="elem_DeviceType">
            <rect codeLine="6" fill="#F1F1F1" height="76.543" id="DeviceType" rx="2.5" ry="2.5"
                  style="stroke:#181818;stroke-width:0.5;" width="107" x="229.3374" y="144"/>
            <ellipse cx="244.3374" cy="174.2715" fill="#ADD1B2" rx="11" ry="11"
                     style="stroke:#181818;stroke-width:1.0;"/>
            <path d="M247.103,170.1465 Q247.2592,169.9277 247.4467,169.8184 Q247.6342,169.709 247.853,169.709 Q248.228,169.709 248.4624,169.9746 Q248.6967,170.2246 248.6967,170.834 L248.6967,172.2871 Q248.6967,172.8965 248.4624,173.1621 Q248.228,173.4277 247.853,173.4277 Q247.5092,173.4277 247.3061,173.2246 Q247.103,173.0371 246.9936,172.5215 Q246.9467,172.1621 246.7592,171.9746 Q246.4311,171.5996 245.8217,171.3809 Q245.2124,171.1621 244.5874,171.1621 Q243.8217,171.1621 243.1811,171.4902 Q242.5561,171.8184 242.0561,172.5684 Q241.5717,173.3184 241.5717,174.3496 L241.5717,175.4434 Q241.5717,176.6777 242.4624,177.5059 Q243.353,178.3184 244.9467,178.3184 Q245.8842,178.3184 246.5405,178.0684 Q246.9311,177.9121 247.353,177.4746 Q247.6186,177.209 247.7592,177.1309 Q247.9155,177.0527 248.1186,177.0527 Q248.4467,177.0527 248.6967,177.3184 Q248.9624,177.5684 248.9624,177.9121 Q248.9624,178.2559 248.6186,178.6621 Q248.1186,179.2402 247.3217,179.5684 Q246.2436,180.0215 244.9467,180.0215 Q243.4311,180.0215 242.228,179.3965 Q241.2436,178.8965 240.5561,177.834 Q239.8686,176.7559 239.8686,175.4746 L239.8686,174.3184 Q239.8686,172.9902 240.478,171.8496 Q241.103,170.6934 242.1967,170.084 Q243.2905,169.459 244.5249,169.459 Q245.2592,169.459 245.8999,169.6309 Q246.5561,169.7871 247.103,170.1465 Z "
                  fill="#000000"/>
            <text fill="#000000" font-family="sans-serif" font-size="12" font-style="italic" lengthAdjust="spacing"
                  textLength="44" x="273.8374" y="161.9492">&#171;Entity&#187;
            </text>
            <text fill="#000000" font-family="sans-serif" font-size="12" font-style="italic" lengthAdjust="spacing"
                  textLength="40" x="275.8374" y="177.9102">&#171;Root&#187;
            </text>
            <text fill="#000000" font-family="sans-serif" font-size="14" lengthAdjust="spacing" textLength="75"
                  x="258.3374" y="196.0293">DeviceType
            </text>
            <line style="stroke:#181818;stroke-width:0.5;" x1="230.3374" x2="335.3374" y1="204.543" y2="204.543"/>
            <line style="stroke:#181818;stroke-width:0.5;" x1="230.3374" x2="335.3374" y1="212.543" y2="212.543"/>
        </g><!--class Sensor-->
        <g id="elem_Sensor">
            <rect codeLine="7" fill="#F1F1F1" height="76.543" id="Sensor" rx="2.5" ry="2.5"
                  style="stroke:#181818;stroke-width:0.5;" width="77" x="184.3374" y="408"/>
            <ellipse cx="199.3374" cy="438.2715" fill="#ADD1B2" rx="11" ry="11"
                     style="stroke:#181818;stroke-width:1.0;"/>
            <path d="M202.103,434.1465 Q202.2592,433.9277 202.4467,433.8184 Q202.6342,433.709 202.853,433.709 Q203.228,433.709 203.4624,433.9746 Q203.6967,434.2246 203.6967,434.834 L203.6967,436.2871 Q203.6967,436.8965 203.4624,437.1621 Q203.228,437.4277 202.853,437.4277 Q202.5092,437.4277 202.3061,437.2246 Q202.103,437.0371 201.9936,436.5215 Q201.9467,436.1621 201.7592,435.9746 Q201.4311,435.5996 200.8217,435.3809 Q200.2124,435.1621 199.5874,435.1621 Q198.8217,435.1621 198.1811,435.4902 Q197.5561,435.8184 197.0561,436.5684 Q196.5717,437.3184 196.5717,438.3496 L196.5717,439.4434 Q196.5717,440.6777 197.4624,441.5059 Q198.353,442.3184 199.9467,442.3184 Q200.8842,442.3184 201.5405,442.0684 Q201.9311,441.9121 202.353,441.4746 Q202.6186,441.209 202.7592,441.1309 Q202.9155,441.0527 203.1186,441.0527 Q203.4467,441.0527 203.6967,441.3184 Q203.9624,441.5684 203.9624,441.9121 Q203.9624,442.2559 203.6186,442.6621 Q203.1186,443.2402 202.3217,443.5684 Q201.2436,444.0215 199.9467,444.0215 Q198.4311,444.0215 197.228,443.3965 Q196.2436,442.8965 195.5561,441.834 Q194.8686,440.7559 194.8686,439.4746 L194.8686,438.3184 Q194.8686,436.9902 195.478,435.8496 Q196.103,434.6934 197.1967,434.084 Q198.2905,433.459 199.5249,433.459 Q200.2592,433.459 200.8999,433.6309 Q201.5561,433.7871 202.103,434.1465 Z "
                  fill="#000000"/>
            <text fill="#000000" font-family="sans-serif" font-size="12" font-style="italic" lengthAdjust="spacing"
                  textLength="44" x="213.8374" y="425.9492">&#171;Entity&#187;
            </text>
            <text fill="#000000" font-family="sans-serif" font-size="12" font-style="italic" lengthAdjust="spacing"
                  textLength="40" x="215.8374" y="441.9102">&#171;Root&#187;
            </text>
            <text fill="#000000" font-family="sans-serif" font-size="14" lengthAdjust="spacing" textLength="45"
                  x="213.3374" y="460.0293">Sensor
            </text>
            <line style="stroke:#181818;stroke-width:0.5;" x1="185.3374" x2="260.3374" y1="468.543" y2="468.543"/>
            <line style="stroke:#181818;stroke-width:0.5;" x1="185.3374" x2="260.3374" y1="476.543" y2="476.543"/>
        </g><!--class Actuator-->
        <g id="elem_Actuator">
            <rect codeLine="8" fill="#F1F1F1" height="76.543" id="Actuator" rx="2.5" ry="2.5"
                  style="stroke:#181818;stroke-width:0.5;" width="85" x="279.3374" y="408"/>
            <ellipse cx="294.3374" cy="438.2715" fill="#ADD1B2" rx="11" ry="11"
                     style="stroke:#181818;stroke-width:1.0;"/>
            <path d="M297.103,434.1465 Q297.2592,433.9277 297.4467,433.8184 Q297.6342,433.709 297.853,433.709 Q298.228,433.709 298.4624,433.9746 Q298.6967,434.2246 298.6967,434.834 L298.6967,436.2871 Q298.6967,436.8965 298.4624,437.1621 Q298.228,437.4277 297.853,437.4277 Q297.5092,437.4277 297.3061,437.2246 Q297.103,437.0371 296.9936,436.5215 Q296.9467,436.1621 296.7592,435.9746 Q296.4311,435.5996 295.8217,435.3809 Q295.2124,435.1621 294.5874,435.1621 Q293.8217,435.1621 293.1811,435.4902 Q292.5561,435.8184 292.0561,436.5684 Q291.5717,437.3184 291.5717,438.3496 L291.5717,439.4434 Q291.5717,440.6777 292.4624,441.5059 Q293.353,442.3184 294.9467,442.3184 Q295.8842,442.3184 296.5405,442.0684 Q296.9311,441.9121 297.353,441.4746 Q297.6186,441.209 297.7592,441.1309 Q297.9155,441.0527 298.1186,441.0527 Q298.4467,441.0527 298.6967,441.3184 Q298.9624,441.5684 298.9624,441.9121 Q298.9624,442.2559 298.6186,442.6621 Q298.1186,443.2402 297.3217,443.5684 Q296.2436,444.0215 294.9467,444.0215 Q293.4311,444.0215 292.228,443.3965 Q291.2436,442.8965 290.5561,441.834 Q289.8686,440.7559 289.8686,439.4746 L289.8686,438.3184 Q289.8686,436.9902 290.478,435.8496 Q291.103,434.6934 292.1967,434.084 Q293.2905,433.459 294.5249,433.459 Q295.2592,433.459 295.8999,433.6309 Q296.5561,433.7871 297.103,434.1465 Z "
                  fill="#000000"/>
            <text fill="#000000" font-family="sans-serif" font-size="12" font-style="italic" lengthAdjust="spacing"
                  textLength="44" x="312.8374" y="425.9492">&#171;Entity&#187;
            </text>
            <text fill="#000000" font-family="sans-serif" font-size="12" font-style="italic" lengthAdjust="spacing"
                  textLength="40" x="314.8374" y="441.9102">&#171;Root&#187;
            </text>
            <text fill="#000000" font-family="sans-serif" font-size="14" lengthAdjust="spacing" textLength="53"
                  x="308.3374" y="460.0293">Actuator
            </text>
            <line style="stroke:#181818;stroke-width:0.5;" x1="280.3374" x2="363.3374" y1="468.543" y2="468.543"/>
            <line style="stroke:#181818;stroke-width:0.5;" x1="280.3374" x2="363.3374" y1="476.543" y2="476.543"/>
        </g><!--class ActuatorType-->
        <g id="elem_ActuatorType">
            <rect codeLine="9" fill="#F1F1F1" height="76.543" id="ActuatorType" rx="2.5" ry="2.5"
                  style="stroke:#181818;stroke-width:0.5;" width="117" x="313.3374" y="276"/>
            <ellipse cx="328.3374" cy="306.2715" fill="#ADD1B2" rx="11" ry="11"
                     style="stroke:#181818;stroke-width:1.0;"/>
            <path d="M331.103,302.1465 Q331.2592,301.9277 331.4467,301.8184 Q331.6342,301.709 331.853,301.709 Q332.228,301.709 332.4624,301.9746 Q332.6967,302.2246 332.6967,302.834 L332.6967,304.2871 Q332.6967,304.8965 332.4624,305.1621 Q332.228,305.4277 331.853,305.4277 Q331.5092,305.4277 331.3061,305.2246 Q331.103,305.0371 330.9936,304.5215 Q330.9467,304.1621 330.7592,303.9746 Q330.4311,303.5996 329.8217,303.3809 Q329.2124,303.1621 328.5874,303.1621 Q327.8217,303.1621 327.1811,303.4902 Q326.5561,303.8184 326.0561,304.5684 Q325.5717,305.3184 325.5717,306.3496 L325.5717,307.4434 Q325.5717,308.6777 326.4624,309.5059 Q327.353,310.3184 328.9467,310.3184 Q329.8842,310.3184 330.5405,310.0684 Q330.9311,309.9121 331.353,309.4746 Q331.6186,309.209 331.7592,309.1309 Q331.9155,309.0527 332.1186,309.0527 Q332.4467,309.0527 332.6967,309.3184 Q332.9624,309.5684 332.9624,309.9121 Q332.9624,310.2559 332.6186,310.6621 Q332.1186,311.2402 331.3217,311.5684 Q330.2436,312.0215 328.9467,312.0215 Q327.4311,312.0215 326.228,311.3965 Q325.2436,310.8965 324.5561,309.834 Q323.8686,308.7559 323.8686,307.4746 L323.8686,306.3184 Q323.8686,304.9902 324.478,303.8496 Q325.103,302.6934 326.1967,302.084 Q327.2905,301.459 328.5249,301.459 Q329.2592,301.459 329.8999,301.6309 Q330.5561,301.7871 331.103,302.1465 Z "
                  fill="#000000"/>
            <text fill="#000000" font-family="sans-serif" font-size="12" font-style="italic" lengthAdjust="spacing"
                  textLength="44" x="362.8374" y="293.9492">&#171;Entity&#187;
            </text>
            <text fill="#000000" font-family="sans-serif" font-size="12" font-style="italic" lengthAdjust="spacing"
                  textLength="40" x="364.8374" y="309.9102">&#171;Root&#187;
            </text>
            <text fill="#000000" font-family="sans-serif" font-size="14" lengthAdjust="spacing" textLength="85"
                  x="342.3374" y="328.0293">ActuatorType
            </text>
            <line style="stroke:#181818;stroke-width:0.5;" x1="314.3374" x2="429.3374" y1="336.543" y2="336.543"/>
            <line style="stroke:#181818;stroke-width:0.5;" x1="314.3374" x2="429.3374" y1="344.543" y2="344.543"/>
        </g><!--class ActuatorModel-->
        <g id="elem_ActuatorModel">
            <rect codeLine="10" fill="#F1F1F1" height="76.543" id="ActuatorModel" rx="2.5" ry="2.5"
                  style="stroke:#181818;stroke-width:0.5;" width="123" x="288.3374" y="540"/>
            <ellipse cx="303.3374" cy="570.2715" fill="#ADD1B2" rx="11" ry="11"
                     style="stroke:#181818;stroke-width:1.0;"/>
            <path d="M306.103,566.1465 Q306.2592,565.9277 306.4467,565.8184 Q306.6342,565.709 306.853,565.709 Q307.228,565.709 307.4624,565.9746 Q307.6967,566.2246 307.6967,566.834 L307.6967,568.2871 Q307.6967,568.8965 307.4624,569.1621 Q307.228,569.4277 306.853,569.4277 Q306.5092,569.4277 306.3061,569.2246 Q306.103,569.0371 305.9936,568.5215 Q305.9467,568.1621 305.7592,567.9746 Q305.4311,567.5996 304.8217,567.3809 Q304.2124,567.1621 303.5874,567.1621 Q302.8217,567.1621 302.1811,567.4902 Q301.5561,567.8184 301.0561,568.5684 Q300.5717,569.3184 300.5717,570.3496 L300.5717,571.4434 Q300.5717,572.6777 301.4624,573.5059 Q302.353,574.3184 303.9467,574.3184 Q304.8842,574.3184 305.5405,574.0684 Q305.9311,573.9121 306.353,573.4746 Q306.6186,573.209 306.7592,573.1309 Q306.9155,573.0527 307.1186,573.0527 Q307.4467,573.0527 307.6967,573.3184 Q307.9624,573.5684 307.9624,573.9121 Q307.9624,574.2559 307.6186,574.6621 Q307.1186,575.2402 306.3217,575.5684 Q305.2436,576.0215 303.9467,576.0215 Q302.4311,576.0215 301.228,575.3965 Q300.2436,574.8965 299.5561,573.834 Q298.8686,572.7559 298.8686,571.4746 L298.8686,570.3184 Q298.8686,568.9902 299.478,567.8496 Q300.103,566.6934 301.1967,566.084 Q302.2905,565.459 303.5249,565.459 Q304.2592,565.459 304.8999,565.6309 Q305.5561,565.7871 306.103,566.1465 Z "
                  fill="#000000"/>
            <text fill="#000000" font-family="sans-serif" font-size="12" font-style="italic" lengthAdjust="spacing"
                  textLength="44" x="340.8374" y="557.9492">&#171;Entity&#187;
            </text>
            <text fill="#000000" font-family="sans-serif" font-size="12" font-style="italic" lengthAdjust="spacing"
                  textLength="40" x="342.8374" y="573.9102">&#171;Root&#187;
            </text>
            <text fill="#000000" font-family="sans-serif" font-size="14" lengthAdjust="spacing" textLength="91"
                  x="317.3374" y="592.0293">ActuatorModel
            </text>
            <line style="stroke:#181818;stroke-width:0.5;" x1="289.3374" x2="410.3374" y1="600.543" y2="600.543"/>
            <line style="stroke:#181818;stroke-width:0.5;" x1="289.3374" x2="410.3374" y1="608.543" y2="608.543"/>
        </g><!--class SensorType-->
        <g id="elem_SensorType">
            <rect codeLine="11" fill="#F1F1F1" height="76.543" id="SensorType" rx="2.5" ry="2.5"
                  style="stroke:#181818;stroke-width:0.5;" width="109" x="52.3374" y="276"/>
            <ellipse cx="67.3374" cy="306.2715" fill="#ADD1B2" rx="11" ry="11"
                     style="stroke:#181818;stroke-width:1.0;"/>
            <path d="M70.103,302.1465 Q70.2592,301.9277 70.4467,301.8184 Q70.6342,301.709 70.853,301.709 Q71.228,301.709 71.4624,301.9746 Q71.6967,302.2246 71.6967,302.834 L71.6967,304.2871 Q71.6967,304.8965 71.4624,305.1621 Q71.228,305.4277 70.853,305.4277 Q70.5092,305.4277 70.3061,305.2246 Q70.103,305.0371 69.9936,304.5215 Q69.9467,304.1621 69.7592,303.9746 Q69.4311,303.5996 68.8217,303.3809 Q68.2124,303.1621 67.5874,303.1621 Q66.8217,303.1621 66.1811,303.4902 Q65.5561,303.8184 65.0561,304.5684 Q64.5717,305.3184 64.5717,306.3496 L64.5717,307.4434 Q64.5717,308.6777 65.4624,309.5059 Q66.353,310.3184 67.9467,310.3184 Q68.8842,310.3184 69.5405,310.0684 Q69.9311,309.9121 70.353,309.4746 Q70.6186,309.209 70.7592,309.1309 Q70.9155,309.0527 71.1186,309.0527 Q71.4467,309.0527 71.6967,309.3184 Q71.9624,309.5684 71.9624,309.9121 Q71.9624,310.2559 71.6186,310.6621 Q71.1186,311.2402 70.3217,311.5684 Q69.2436,312.0215 67.9467,312.0215 Q66.4311,312.0215 65.228,311.3965 Q64.2436,310.8965 63.5561,309.834 Q62.8686,308.7559 62.8686,307.4746 L62.8686,306.3184 Q62.8686,304.9902 63.478,303.8496 Q64.103,302.6934 65.1967,302.084 Q66.2905,301.459 67.5249,301.459 Q68.2592,301.459 68.8999,301.6309 Q69.5561,301.7871 70.103,302.1465 Z "
                  fill="#000000"/>
            <text fill="#000000" font-family="sans-serif" font-size="12" font-style="italic" lengthAdjust="spacing"
                  textLength="44" x="97.8374" y="293.9492">&#171;Entity&#187;
            </text>
            <text fill="#000000" font-family="sans-serif" font-size="12" font-style="italic" lengthAdjust="spacing"
                  textLength="40" x="99.8374" y="309.9102">&#171;Root&#187;
            </text>
            <text fill="#000000" font-family="sans-serif" font-size="14" lengthAdjust="spacing" textLength="77"
                  x="81.3374" y="328.0293">SensorType
            </text>
            <line style="stroke:#181818;stroke-width:0.5;" x1="53.3374" x2="160.3374" y1="336.543" y2="336.543"/>
            <line style="stroke:#181818;stroke-width:0.5;" x1="53.3374" x2="160.3374" y1="344.543" y2="344.543"/>
        </g><!--class SensorModel-->
        <g id="elem_SensorModel">
            <rect codeLine="12" fill="#F1F1F1" height="76.543" id="SensorModel" rx="2.5" ry="2.5"
                  style="stroke:#181818;stroke-width:0.5;" width="115" x="52.3374" y="540"/>
            <ellipse cx="67.3374" cy="570.2715" fill="#ADD1B2" rx="11" ry="11"
                     style="stroke:#181818;stroke-width:1.0;"/>
            <path d="M70.103,566.1465 Q70.2592,565.9277 70.4467,565.8184 Q70.6342,565.709 70.853,565.709 Q71.228,565.709 71.4624,565.9746 Q71.6967,566.2246 71.6967,566.834 L71.6967,568.2871 Q71.6967,568.8965 71.4624,569.1621 Q71.228,569.4277 70.853,569.4277 Q70.5092,569.4277 70.3061,569.2246 Q70.103,569.0371 69.9936,568.5215 Q69.9467,568.1621 69.7592,567.9746 Q69.4311,567.5996 68.8217,567.3809 Q68.2124,567.1621 67.5874,567.1621 Q66.8217,567.1621 66.1811,567.4902 Q65.5561,567.8184 65.0561,568.5684 Q64.5717,569.3184 64.5717,570.3496 L64.5717,571.4434 Q64.5717,572.6777 65.4624,573.5059 Q66.353,574.3184 67.9467,574.3184 Q68.8842,574.3184 69.5405,574.0684 Q69.9311,573.9121 70.353,573.4746 Q70.6186,573.209 70.7592,573.1309 Q70.9155,573.0527 71.1186,573.0527 Q71.4467,573.0527 71.6967,573.3184 Q71.9624,573.5684 71.9624,573.9121 Q71.9624,574.2559 71.6186,574.6621 Q71.1186,575.2402 70.3217,575.5684 Q69.2436,576.0215 67.9467,576.0215 Q66.4311,576.0215 65.228,575.3965 Q64.2436,574.8965 63.5561,573.834 Q62.8686,572.7559 62.8686,571.4746 L62.8686,570.3184 Q62.8686,568.9902 63.478,567.8496 Q64.103,566.6934 65.1967,566.084 Q66.2905,565.459 67.5249,565.459 Q68.2592,565.459 68.8999,565.6309 Q69.5561,565.7871 70.103,566.1465 Z "
                  fill="#000000"/>
            <text fill="#000000" font-family="sans-serif" font-size="12" font-style="italic" lengthAdjust="spacing"
                  textLength="44" x="100.8374" y="557.9492">&#171;Entity&#187;
            </text>
            <text fill="#000000" font-family="sans-serif" font-size="12" font-style="italic" lengthAdjust="spacing"
                  textLength="35" x="105.3374" y="573.9102">&#171;root&#187;
            </text>
            <text fill="#000000" font-family="sans-serif" font-size="14" lengthAdjust="spacing" textLength="83"
                  x="81.3374" y="592.0293">SensorModel
            </text>
            <line style="stroke:#181818;stroke-width:0.5;" x1="53.3374" x2="166.3374" y1="600.543" y2="600.543"/>
            <line style="stroke:#181818;stroke-width:0.5;" x1="53.3374" x2="166.3374" y1="608.543" y2="608.543"/>
        </g><!--class unit-->
        <g id="elem_unit">
            <rect codeLine="13" fill="#F1F1F1" height="76.543" id="unit" rx="2.5" ry="2.5"
                  style="stroke:#181818;stroke-width:0.5;" width="118" x="47.8374" y="408"/>
            <ellipse cx="62.8374" cy="438.2715" fill="#ADD1B2" rx="11" ry="11"
                     style="stroke:#181818;stroke-width:1.0;"/>
            <path d="M65.603,434.1465 Q65.7592,433.9277 65.9467,433.8184 Q66.1342,433.709 66.353,433.709 Q66.728,433.709 66.9624,433.9746 Q67.1967,434.2246 67.1967,434.834 L67.1967,436.2871 Q67.1967,436.8965 66.9624,437.1621 Q66.728,437.4277 66.353,437.4277 Q66.0092,437.4277 65.8061,437.2246 Q65.603,437.0371 65.4936,436.5215 Q65.4467,436.1621 65.2592,435.9746 Q64.9311,435.5996 64.3217,435.3809 Q63.7124,435.1621 63.0874,435.1621 Q62.3217,435.1621 61.6811,435.4902 Q61.0561,435.8184 60.5561,436.5684 Q60.0717,437.3184 60.0717,438.3496 L60.0717,439.4434 Q60.0717,440.6777 60.9624,441.5059 Q61.853,442.3184 63.4467,442.3184 Q64.3842,442.3184 65.0405,442.0684 Q65.4311,441.9121 65.853,441.4746 Q66.1186,441.209 66.2592,441.1309 Q66.4155,441.0527 66.6186,441.0527 Q66.9467,441.0527 67.1967,441.3184 Q67.4624,441.5684 67.4624,441.9121 Q67.4624,442.2559 67.1186,442.6621 Q66.6186,443.2402 65.8217,443.5684 Q64.7436,444.0215 63.4467,444.0215 Q61.9311,444.0215 60.728,443.3965 Q59.7436,442.8965 59.0561,441.834 Q58.3686,440.7559 58.3686,439.4746 L58.3686,438.3184 Q58.3686,436.9902 58.978,435.8496 Q59.603,434.6934 60.6967,434.084 Q61.7905,433.459 63.0249,433.459 Q63.7592,433.459 64.3999,433.6309 Q65.0561,433.7871 65.603,434.1465 Z "
                  fill="#000000"/>
            <text fill="#000000" font-family="sans-serif" font-size="12" font-style="italic" lengthAdjust="spacing"
                  textLength="44" x="97.8374" y="425.9492">&#171;Entity&#187;
            </text>
            <text fill="#000000" font-family="sans-serif" font-size="12" font-style="italic" lengthAdjust="spacing"
                  textLength="40" x="99.8374" y="441.9102">&#171;Root&#187;
            </text>
            <text fill="#000000" font-family="sans-serif" font-size="14" lengthAdjust="spacing" textLength="86"
                  x="76.8374" y="460.0293">unit
            </text>
            <line style="stroke:#181818;stroke-width:0.5;" x1="48.8374" x2="164.8374" y1="468.543" y2="468.543"/>
            <line style="stroke:#181818;stroke-width:0.5;" x1="48.8374" x2="164.8374" y1="476.543" y2="476.543"/>
        </g>
        <polygon fill="#181818"
                 points="174.8374,89.1014,170.8374,98.1014,174.8374,94.1014,178.8374,98.1014,174.8374,89.1014"
                 style="stroke:#181818;stroke-width:1.0;"/>
        <path d="M174.8374,95.1014 C174.8374,112.3487 174.8374,126.7462 174.8374,143.9831 " fill="none"
              style="stroke:#181818;stroke-width:1.0;"/>
        <text fill="#000000" font-family="sans-serif" font-size="13" lengthAdjust="spacing" textLength="24" x="175.8374"
              y="122.0283">is in
        </text>
        <text fill="#000000" font-family="sans-serif" font-size="13" lengthAdjust="spacing" textLength="20" x="153.8374"
              y="140.0114">0..*
        </text>
        <text fill="#000000" font-family="sans-serif" font-size="13" lengthAdjust="spacing" textLength="7" x="166.8374"
              y="104.1297">1
        </text>
        <polygon fill="#181818"
                 points="194.5058,221.1014,195.1329,230.9303,196.8233,225.5319,202.2217,227.2223,194.5058,221.1014"
                 style="stroke:#181818;stroke-width:1.0;"/>
        <path d="M197.2868,226.418 C206.3084,243.6653 214.1969,258.7462 223.2132,275.9831 " fill="none"
              style="stroke:#181818;stroke-width:1.0;"/>
        <text fill="#000000" font-family="sans-serif" font-size="13" lengthAdjust="spacing" textLength="24" x="214.8374"
              y="254.0283">is in
        </text>
        <text fill="#000000" font-family="sans-serif" font-size="13" lengthAdjust="spacing" textLength="20" x="202.2132"
              y="272.0114">0..*
        </text>
        <text fill="#000000" font-family="sans-serif" font-size="13" lengthAdjust="spacing" textLength="7" x="186.5058"
              y="236.1297">1
        </text>
        <polygon fill="#181818"
                 points="271.2677,221.1014,264.7978,228.5271,269.7973,225.8803,272.4441,230.8797,271.2677,221.1014"
                 style="stroke:#181818;stroke-width:1.0;"/>
        <path d="M269.5032,226.8361 C264.1963,244.0833 259.6847,258.7462 254.381,275.9831 " fill="none"
              style="stroke:#181818;stroke-width:1.0;"/>
        <text fill="#000000" font-family="sans-serif" font-size="13" lengthAdjust="spacing" textLength="21" x="266.8374"
              y="254.0283">has
        </text>
        <text fill="#000000" font-family="sans-serif" font-size="13" lengthAdjust="spacing" textLength="5" x="248.381"
              y="272.0114">*
        </text>
        <text fill="#000000" font-family="sans-serif" font-size="13" lengthAdjust="spacing" textLength="7" x="263.2677"
              y="236.1297">1
        </text>
        <polygon fill="#181818"
                 points="237.0525,353.1014,231.7305,361.3885,236.2923,358.0432,239.6375,362.605,237.0525,353.1014"
                 style="stroke:#181818;stroke-width:1.0;"/>
        <path d="M236.1402,359.0316 C233.4868,376.2789 231.261,390.7462 228.6092,407.9831 " fill="none"
              style="stroke:#181818;stroke-width:1.0;"/>
        <text fill="#000000" font-family="sans-serif" font-size="13" lengthAdjust="spacing" textLength="24" x="235.8374"
              y="386.0283">is in
        </text>
        <text fill="#000000" font-family="sans-serif" font-size="13" lengthAdjust="spacing" textLength="20" x="207.6092"
              y="404.0114">0..*
        </text>
        <text fill="#000000" font-family="sans-serif" font-size="13" lengthAdjust="spacing" textLength="7" x="229.0525"
              y="368.1297">1
        </text>
        <polygon fill="#181818"
                 points="265.6874,353.1014,266.943,362.8699,268.2841,357.3743,273.7797,358.7153,265.6874,353.1014"
                 style="stroke:#181818;stroke-width:1.0;"/>
        <path d="M268.8034,358.2289 C279.2844,375.4761 288.5639,390.7462 299.0387,407.9831 " fill="none"
              style="stroke:#181818;stroke-width:1.0;"/>
        <text fill="#000000" font-family="sans-serif" font-size="13" lengthAdjust="spacing" textLength="24" x="288.8374"
              y="386.0283">is in
        </text>
        <text fill="#000000" font-family="sans-serif" font-size="13" lengthAdjust="spacing" textLength="20" x="278.0387"
              y="404.0114">0..*
        </text>
        <text fill="#000000" font-family="sans-serif" font-size="13" lengthAdjust="spacing" textLength="7" x="266.6874"
              y="368.1297">1
        </text>
        <polygon fill="#181818"
                 points="140.3894,353.1014,143.3969,362.4798,143.7183,356.8321,149.366,357.1535,140.3894,353.1014"
                 style="stroke:#181818;stroke-width:1.0;"/>
        <path d="M144.3841,357.5782 C159.774,374.8255 173.9801,390.7462 189.3608,407.9831 " fill="none"
              style="stroke:#181818;stroke-width:1.0;"/>
        <text fill="#000000" font-family="sans-serif" font-size="13" lengthAdjust="spacing" textLength="21" x="172.8374"
              y="386.0283">has
        </text>
        <text fill="#000000" font-family="sans-serif" font-size="13" lengthAdjust="spacing" textLength="20" x="168.3608"
              y="404.0114">1..*
        </text>
        <text fill="#000000" font-family="sans-serif" font-size="13" lengthAdjust="spacing" textLength="7" x="132.3894"
              y="368.1297">1
        </text>
        <polygon fill="#181818"
                 points="106.8374,407.9831,110.8374,398.9831,106.8374,402.9831,102.8374,398.9831,106.8374,407.9831"
                 style="stroke:#181818;stroke-width:1.0;"/>
        <path d="M106.8374,353.1014 C106.8374,370.3487 106.8374,384.7462 106.8374,401.9831 " fill="none"
              style="stroke:#181818;stroke-width:1.0;"/>
        <text fill="#000000" font-family="sans-serif" font-size="13" lengthAdjust="spacing" textLength="21" x="107.8374"
              y="386.0283">has
        </text>
        <text fill="#000000" font-family="sans-serif" font-size="13" lengthAdjust="spacing" textLength="7" x="98.8374"
              y="404.0114">1
        </text>
        <text fill="#000000" font-family="sans-serif" font-size="13" lengthAdjust="spacing" textLength="5" x="100.8374"
              y="368.1297">*
        </text>
        <polygon fill="#181818"
                 points="142.4482,539.9831,151.3714,535.8147,145.7284,536.2095,145.3336,530.5664,142.4482,539.9831"
                 style="stroke:#181818;stroke-width:1.0;"/>
        <path d="M190.1531,485.1014 C175.1612,502.3487 161.3673,518.2178 146.3844,535.4547 " fill="none"
              style="stroke:#181818;stroke-width:1.0;"/>
        <text fill="#000000" font-family="sans-serif" font-size="13" lengthAdjust="spacing" textLength="21" x="174.8374"
              y="518.0283">has
        </text>
        <text fill="#000000" font-family="sans-serif" font-size="13" lengthAdjust="spacing" textLength="7" x="134.4482"
              y="536.0114">1
        </text>
        <text fill="#000000" font-family="sans-serif" font-size="13" lengthAdjust="spacing" textLength="5" x="191.1531"
              y="500.1297">*
        </text>
        <polygon fill="#181818"
                 points="56.6357,353.0096,47.3248,356.2201,52.9782,356.4188,52.7795,362.0721,56.6357,353.0096"
                 style="stroke:#181818;stroke-width:1.0;"/>
        <path d="M52.2467,357.1006 C36.0526,372.1952 24.4585,386.9438 15.8374,408 C2.8704,439.6705 2.6141,453.4357 15.8374,485 C24.6842,506.1175 40.9627,524.8514 57.517,539.8415 "
              fill="none" style="stroke:#181818;stroke-width:1.0;"/>
        <text fill="#000000" font-family="sans-serif" font-size="13" lengthAdjust="spacing" textLength="21" x="16.8374"
              y="452.0283">has
        </text>
        <text fill="#000000" font-family="sans-serif" font-size="13" lengthAdjust="spacing" textLength="5" x="51.517"
              y="535.8698">*
        </text>
        <text fill="#000000" font-family="sans-serif" font-size="13" lengthAdjust="spacing" textLength="7" x="48.6357"
              y="368.0379">1
        </text>
        <polygon fill="#181818"
                 points="357.3753,353.1014,350.4111,360.0656,355.5804,357.7681,357.8779,362.9374,357.3753,353.1014"
                 style="stroke:#181818;stroke-width:1.0;"/>
        <path d="M355.2214,358.7015 C348.5879,375.9487 342.8965,390.7462 336.2669,407.9831 " fill="none"
              style="stroke:#181818;stroke-width:1.0;"/>
        <text fill="#000000" font-family="sans-serif" font-size="13" lengthAdjust="spacing" textLength="21" x="350.8374"
              y="386.0283">has
        </text>
        <text fill="#000000" font-family="sans-serif" font-size="13" lengthAdjust="spacing" textLength="20" x="315.2669"
              y="404.0114">1..*
        </text>
        <text fill="#000000" font-family="sans-serif" font-size="13" lengthAdjust="spacing" textLength="7" x="349.3753"
              y="368.1297">1
        </text>
        <polygon fill="#181818"
                 points="375.6837,353.0855,372.4156,362.3763,376.0832,358.0695,380.39,361.7371,375.6837,353.0855"
                 style="stroke:#181818;stroke-width:1.0;"/>
        <path d="M376.1631,359.0663 C376.6429,365.0527 376.5767,365.2012 376.8374,371 C379.8607,438.2548 380.7388,456.5822 364.8374,522 C363.4229,527.8192 361.8474,533.9594 360.2642,539.9504 "
              fill="none" style="stroke:#181818;stroke-width:1.0;"/>
        <text fill="#000000" font-family="sans-serif" font-size="13" lengthAdjust="spacing" textLength="21" x="379.8374"
              y="452.0283">has
        </text>
        <text fill="#000000" font-family="sans-serif" font-size="13" lengthAdjust="spacing" textLength="5" x="361.2642"
              y="535.9787">*
        </text>
        <text fill="#000000" font-family="sans-serif" font-size="13" lengthAdjust="spacing" textLength="7" x="376.6837"
              y="368.1138">1
        </text>
        <polygon fill="#181818"
                 points="341.7568,539.9831,343.7721,530.3427,340.704,535.0952,335.9515,532.0271,341.7568,539.9831"
                 style="stroke:#181818;stroke-width:1.0;"/>
        <path d="M329.9361,485.1014 C333.6509,502.3487 336.7809,516.8807 340.4935,534.1176 " fill="none"
              style="stroke:#181818;stroke-width:1.0;"/>
        <text fill="#000000" font-family="sans-serif" font-size="13" lengthAdjust="spacing" textLength="21" x="338.8374"
              y="518.0283">has
        </text>
        <text fill="#000000" font-family="sans-serif" font-size="13" lengthAdjust="spacing" textLength="7" x="333.7568"
              y="536.0114">1
        </text>
        <text fill="#000000" font-family="sans-serif" font-size="13" lengthAdjust="spacing" textLength="5" x="323.9361"
              y="500.1297">*
        </text><!--SRC=[ZTBH2e8m50RW-pt5oSj0gTiOWw2W6s-g5pZOeGJTnCr0edSljFAuHBqS-_RlxDT5KU8rHyYmDfK3cvD3ZK8a6LeB1rDPadAlNUfgfQGy6kEKUZm_- -zbFhAzetkQq2GuryKOEf6sfXm1syHLw6QHYQk-B3ONoYP7cZNtNrJPLp6XhKhAIRl1BD5y0mZM0SWmX60LHSkWAHusa5f8DIZHB3tITijGLtP7kRkX_Ia_h7tBNvZFllqns5NLuNK_ixsOm_Tk6Ahc0El7ept6oXvCP0yUelp_yETaZnh3JF9ivdi33rabNW00]-->
    </g>
</svg>