<?xml version="1.0" encoding="us-ascii" standalone="no"?><svg xmlns="http://www.w3.org/2000/svg" xmlns:xlink="http://www.w3.org/1999/xlink" contentStyleType="text/css" height="618.6px" preserveAspectRatio="none" style="width:1895px;height:618px;background:#FFFFFF;" version="1.1" viewBox="0 0 1895 618" width="1895.4px" zoomAndPan="magnify"><defs/><g><!--cluster domain--><g id="cluster_domain"><path d="M9.9,2.4 L41.1,2.4 A2.25,2.25 0 0 1 42.6,3.9 L46.8,17.1727 L1889.7,17.1727 A1.5,1.5 0 0 1 1891.2,18.6727 L1891.2,613.2 A1.5,1.5 0 0 1 1889.7,614.7 L9.9,614.7 A1.5,1.5 0 0 1 8.4,613.2 L8.4,3.9 A1.5,1.5 0 0 1 9.9,2.4 " fill="none" style="stroke:#000000;stroke-width:0.8999999999999999;"/><line style="stroke:#000000;stroke-width:0.8999999999999999;" x1="8.4" x2="46.8" y1="17.1727" y2="17.1727"/><text fill="#000000" font-family="sans-serif" font-size="8.4" font-weight="bold" lengthAdjust="spacing" textLength="30.6" x="10.8" y="12.6645">domain</text></g><!--cluster Actuator--><g id="cluster_Actuator"><path d="M14.7,19.8 L50.7,19.8 A2.25,2.25 0 0 1 52.2,21.3 L56.4,34.5727 L1884.9,34.5727 A1.5,1.5 0 0 1 1886.4,36.0727 L1886.4,394.2 A1.5,1.5 0 0 1 1884.9,395.7 L14.7,395.7 A1.5,1.5 0 0 1 13.2,394.2 L13.2,21.3 A1.5,1.5 0 0 1 14.7,19.8 " fill="none" style="stroke:#000000;stroke-width:0.8999999999999999;"/><line style="stroke:#000000;stroke-width:0.8999999999999999;" x1="13.2" x2="56.4" y1="34.5727" y2="34.5727"/><text fill="#000000" font-family="sans-serif" font-size="8.4" font-weight="bold" lengthAdjust="spacing" textLength="35.4" x="15.6" y="30.0645">Actuator</text></g><!--cluster SetIntegerActuator--><g id="cluster_SetIntegerActuator"><path d="M200.7,183.3 L281.1,183.3 A2.25,2.25 0 0 1 282.6,184.8 L286.8,198.0727 L1880.1,198.0727 A1.5,1.5 0 0 1 1881.6,199.5727 L1881.6,389.4 A1.5,1.5 0 0 1 1880.1,390.9 L200.7,390.9 A1.5,1.5 0 0 1 199.2,389.4 L199.2,184.8 A1.5,1.5 0 0 1 200.7,183.3 " fill="none" style="stroke:#000000;stroke-width:0.8999999999999999;"/><line style="stroke:#000000;stroke-width:0.8999999999999999;" x1="199.2" x2="286.8" y1="198.0727" y2="198.0727"/><text fill="#000000" font-family="sans-serif" font-size="8.4" font-weight="bold" lengthAdjust="spacing" textLength="79.8" x="201.6" y="193.5645">SetIntegerActuator</text></g><!--cluster SetDecimalActuator--><g id="cluster_SetDecimalActuator"><path d="M503.1,104.4 L585.9,104.4 A2.25,2.25 0 0 1 587.4,105.9 L591.6,119.1727 L603.3,119.1727 A1.5,1.5 0 0 1 604.8,120.6727 L604.8,153.9 A1.5,1.5 0 0 1 603.3,155.4 L503.1,155.4 A1.5,1.5 0 0 1 501.6,153.9 L501.6,105.9 A1.5,1.5 0 0 1 503.1,104.4 " fill="none" style="stroke:#000000;stroke-width:0.8999999999999999;"/><line style="stroke:#000000;stroke-width:0.8999999999999999;" x1="501.6" x2="591.6" y1="119.1727" y2="119.1727"/><text fill="#000000" font-family="sans-serif" font-size="8.4" font-weight="bold" lengthAdjust="spacing" textLength="82.2" x="504" y="114.6645">SetDecimalActuator</text></g><!--cluster ddd--><g id="cluster_ddd"><path d="M431.7,405.9 L448.5,405.9 A2.25,2.25 0 0 1 450,407.4 L454.2,420.6727 L515.1,420.6727 A1.5,1.5 0 0 1 516.6,422.1727 L516.6,608.4 A1.5,1.5 0 0 1 515.1,609.9 L431.7,609.9 A1.5,1.5 0 0 1 430.2,608.4 L430.2,407.4 A1.5,1.5 0 0 1 431.7,405.9 " fill="none" style="stroke:#000000;stroke-width:0.8999999999999999;"/><line style="stroke:#000000;stroke-width:0.8999999999999999;" x1="430.2" x2="454.2" y1="420.6727" y2="420.6727"/><text fill="#000000" font-family="sans-serif" font-size="8.4" font-weight="bold" lengthAdjust="spacing" textLength="16.2" x="432.6" y="416.1645">ddd</text></g><!--class Actuator--><g id="elem_Actuator"><rect codeLine="4" fill="#F1F1F1" height="95.8359" id="Actuator" rx="1.5" ry="1.5" style="stroke:#181818;stroke-width:0.3;" width="174.6" x="18.3" y="245.4"/><ellipse cx="87.15" cy="255" fill="#B4A7E5" rx="6.6" ry="6.6" style="stroke:#181818;stroke-width:0.6;"/><path d="M87.7219,252.9844 L87.7219,256.9781 L88.7531,256.9781 Q89.1187,256.9781 89.2781,257.1188 Q89.4375,257.2594 89.4375,257.4938 Q89.4375,257.7188 89.2781,257.8594 Q89.1187,258 88.7531,258 L85.6688,258 Q85.3031,258 85.1438,257.8594 Q84.9844,257.7188 84.9844,257.4844 Q84.9844,257.2594 85.1438,257.1188 Q85.3031,256.9781 85.6688,256.9781 L86.7,256.9781 L86.7,252.9844 L85.6688,252.9844 Q85.3031,252.9844 85.1438,252.8438 Q84.9844,252.7031 84.9844,252.4688 Q84.9844,252.2437 85.1438,252.1031 Q85.3031,251.9625 85.6688,251.9625 L88.7531,251.9625 Q89.1187,251.9625 89.2781,252.1031 Q89.4375,252.2437 89.4375,252.4688 Q89.4375,252.7031 89.2781,252.8438 Q89.1187,252.9844 88.7531,252.9844 L87.7219,252.9844 Z " fill="#000000"/><text fill="#000000" font-family="sans-serif" font-size="8.4" font-style="italic" lengthAdjust="spacing" textLength="31.8" x="99.45" y="258.4781">Actuator</text><line style="stroke:#181818;stroke-width:0.3;" x1="18.9" x2="192.3" y1="264.6" y2="264.6"/><line style="stroke:#181818;stroke-width:0.3;" x1="18.9" x2="192.3" y1="269.4" y2="269.4"/><ellipse cx="24.9" cy="278.2863" fill="#84BE84" rx="1.8" ry="1.8" style="stroke:#038048;stroke-width:0.6;"/><text fill="#000000" font-family="sans-serif" font-size="8.4" lengthAdjust="spacing" textLength="140.4" x="30.3" y="280.8645">getActuatorTypeID(): ActuatorTypeID</text><ellipse cx="24.9" cy="289.459" fill="#84BE84" rx="1.8" ry="1.8" style="stroke:#038048;stroke-width:0.6;"/><text fill="#000000" font-family="sans-serif" font-size="8.4" lengthAdjust="spacing" textLength="70.2" x="30.3" y="292.0371">getID(): ActuatorID</text><ellipse cx="24.9" cy="300.6316" fill="#84BE84" rx="1.8" ry="1.8" style="stroke:#038048;stroke-width:0.6;"/><text fill="#000000" font-family="sans-serif" font-size="8.4" lengthAdjust="spacing" textLength="100.2" x="30.3" y="303.2098">getName() : ActuatorName</text><ellipse cx="24.9" cy="311.8043" fill="#84BE84" rx="1.8" ry="1.8" style="stroke:#038048;stroke-width:0.6;"/><text fill="#000000" font-family="sans-serif" font-size="8.4" lengthAdjust="spacing" textLength="105.6" x="30.3" y="314.3824">getModelPath() : ModelPath</text><ellipse cx="24.9" cy="322.977" fill="#84BE84" rx="1.8" ry="1.8" style="stroke:#038048;stroke-width:0.6;"/><text fill="#000000" font-family="sans-serif" font-size="8.4" lengthAdjust="spacing" textLength="92.4" x="30.3" y="325.5551">getDeviceID() : DeviceID</text><ellipse cx="24.9" cy="334.1496" fill="#84BE84" rx="1.8" ry="1.8" style="stroke:#038048;stroke-width:0.6;"/><text fill="#000000" font-family="sans-serif" font-size="8.4" lengthAdjust="spacing" textLength="159" x="30.3" y="336.7277">setValue(ValueObject value): ValueObject</text></g><!--class ActuatorFactory--><g id="elem_ActuatorFactory"><rect codeLine="12" fill="#F1F1F1" height="39.9727" id="ActuatorFactory" rx="1.5" ry="1.5" style="stroke:#181818;stroke-width:0.3;" width="191.4" x="303.9" y="116.1"/><ellipse cx="366.75" cy="125.7" fill="#B4A7E5" rx="6.6" ry="6.6" style="stroke:#181818;stroke-width:0.6;"/><path d="M367.3219,123.6844 L367.3219,127.6781 L368.3531,127.6781 Q368.7188,127.6781 368.8781,127.8188 Q369.0375,127.9594 369.0375,128.1938 Q369.0375,128.4188 368.8781,128.5594 Q368.7188,128.7 368.3531,128.7 L365.2688,128.7 Q364.9031,128.7 364.7438,128.5594 Q364.5844,128.4188 364.5844,128.1844 Q364.5844,127.9594 364.7438,127.8188 Q364.9031,127.6781 365.2688,127.6781 L366.3,127.6781 L366.3,123.6844 L365.2688,123.6844 Q364.9031,123.6844 364.7438,123.5437 Q364.5844,123.4031 364.5844,123.1687 Q364.5844,122.9438 364.7438,122.8031 Q364.9031,122.6625 365.2688,122.6625 L368.3531,122.6625 Q368.7188,122.6625 368.8781,122.8031 Q369.0375,122.9438 369.0375,123.1687 Q369.0375,123.4031 368.8781,123.5437 Q368.7188,123.6844 368.3531,123.6844 L367.3219,123.6844 Z " fill="#000000"/><text fill="#000000" font-family="sans-serif" font-size="8.4" font-style="italic" lengthAdjust="spacing" textLength="60.6" x="379.05" y="129.1781">ActuatorFactory</text><line style="stroke:#181818;stroke-width:0.3;" x1="304.5" x2="494.7" y1="135.3" y2="135.3"/><line style="stroke:#181818;stroke-width:0.3;" x1="304.5" x2="494.7" y1="140.1" y2="140.1"/><ellipse cx="310.5" cy="148.9863" fill="#84BE84" rx="1.8" ry="1.8" style="stroke:#038048;stroke-width:0.6;"/><text fill="#000000" font-family="sans-serif" font-size="8.4" lengthAdjust="spacing" textLength="175.8" x="315.9" y="151.5645">createActuator(Object... parameters): Actuator</text></g><!--class ImplActuatorFactory--><g id="elem_ImplActuatorFactory"><rect codeLine="15" fill="#F1F1F1" height="39.9727" id="ImplActuatorFactory" rx="1.5" ry="1.5" style="stroke:#181818;stroke-width:0.3;" width="191.4" x="380.7" y="37.2"/><ellipse cx="436.05" cy="46.8" fill="#ADD1B2" rx="6.6" ry="6.6" style="stroke:#181818;stroke-width:0.6;"/><path d="M437.7094,44.325 Q437.8031,44.1938 437.9156,44.1281 Q438.0281,44.0625 438.1594,44.0625 Q438.3844,44.0625 438.525,44.2219 Q438.6656,44.3719 438.6656,44.7375 L438.6656,45.6094 Q438.6656,45.975 438.525,46.1344 Q438.3844,46.2937 438.1594,46.2937 Q437.9531,46.2937 437.8313,46.1719 Q437.7094,46.0594 437.6438,45.75 Q437.6156,45.5344 437.5031,45.4219 Q437.3063,45.1969 436.9406,45.0656 Q436.575,44.9344 436.2,44.9344 Q435.7406,44.9344 435.3563,45.1313 Q434.9813,45.3281 434.6813,45.7781 Q434.3906,46.2281 434.3906,46.8469 L434.3906,47.5031 Q434.3906,48.2438 434.925,48.7406 Q435.4594,49.2281 436.4156,49.2281 Q436.9781,49.2281 437.3719,49.0781 Q437.6063,48.9844 437.8594,48.7219 Q438.0188,48.5625 438.1031,48.5156 Q438.1969,48.4688 438.3187,48.4688 Q438.5156,48.4688 438.6656,48.6281 Q438.825,48.7781 438.825,48.9844 Q438.825,49.1906 438.6188,49.4344 Q438.3187,49.7813 437.8406,49.9781 Q437.1937,50.25 436.4156,50.25 Q435.5062,50.25 434.7844,49.875 Q434.1937,49.575 433.7813,48.9375 Q433.3688,48.2906 433.3688,47.5219 L433.3688,46.8281 Q433.3688,46.0313 433.7344,45.3469 Q434.1094,44.6531 434.7656,44.2875 Q435.4219,43.9125 436.1625,43.9125 Q436.6031,43.9125 436.9875,44.0156 Q437.3812,44.1094 437.7094,44.325 Z " fill="#000000"/><text fill="#000000" font-family="sans-serif" font-size="8.4" lengthAdjust="spacing" textLength="75.6" x="448.35" y="50.2781">ImplActuatorFactory</text><line style="stroke:#181818;stroke-width:0.3;" x1="381.3" x2="571.5" y1="56.4" y2="56.4"/><line style="stroke:#181818;stroke-width:0.3;" x1="381.3" x2="571.5" y1="61.2" y2="61.2"/><ellipse cx="387.3" cy="70.0863" fill="#84BE84" rx="1.8" ry="1.8" style="stroke:#038048;stroke-width:0.6;"/><text fill="#000000" font-family="sans-serif" font-size="8.4" lengthAdjust="spacing" textLength="175.8" x="392.7" y="72.6645">createActuator(Object... parameters): Actuator</text></g><!--class SetDecimalActuator--><g id="elem_SetDecimalActuator"><rect codeLine="20" fill="#F1F1F1" height="185.2172" id="SetDecimalActuator" rx="1.5" ry="1.5" style="stroke:#181818;stroke-width:0.3;" width="646.8" x="1230" y="200.7"/><ellipse cx="1513.65" cy="210.3" fill="#ADD1B2" rx="6.6" ry="6.6" style="stroke:#181818;stroke-width:0.6;"/><path d="M1515.3094,207.825 Q1515.4031,207.6938 1515.5156,207.6281 Q1515.6281,207.5625 1515.7594,207.5625 Q1515.9844,207.5625 1516.125,207.7219 Q1516.2656,207.8719 1516.2656,208.2375 L1516.2656,209.1094 Q1516.2656,209.475 1516.125,209.6344 Q1515.9844,209.7938 1515.7594,209.7938 Q1515.5531,209.7938 1515.4312,209.6719 Q1515.3094,209.5594 1515.2437,209.25 Q1515.2156,209.0344 1515.1031,208.9219 Q1514.9063,208.6969 1514.5406,208.5656 Q1514.175,208.4344 1513.8,208.4344 Q1513.3406,208.4344 1512.9563,208.6313 Q1512.5813,208.8281 1512.2813,209.2781 Q1511.9906,209.7281 1511.9906,210.3469 L1511.9906,211.0031 Q1511.9906,211.7438 1512.525,212.2406 Q1513.0594,212.7281 1514.0156,212.7281 Q1514.5781,212.7281 1514.9719,212.5781 Q1515.2063,212.4844 1515.4594,212.2219 Q1515.6187,212.0625 1515.7031,212.0156 Q1515.7969,211.9688 1515.9188,211.9688 Q1516.1156,211.9688 1516.2656,212.1281 Q1516.425,212.2781 1516.425,212.4844 Q1516.425,212.6906 1516.2188,212.9344 Q1515.9188,213.2813 1515.4406,213.4781 Q1514.7938,213.75 1514.0156,213.75 Q1513.1063,213.75 1512.3844,213.375 Q1511.7938,213.075 1511.3813,212.4375 Q1510.9688,211.7906 1510.9688,211.0219 L1510.9688,210.3281 Q1510.9688,209.5313 1511.3344,208.8469 Q1511.7094,208.1531 1512.3656,207.7875 Q1513.0219,207.4125 1513.7625,207.4125 Q1514.2031,207.4125 1514.5875,207.5156 Q1514.9813,207.6094 1515.3094,207.825 Z " fill="#000000"/><text fill="#000000" font-family="sans-serif" font-size="8.4" lengthAdjust="spacing" textLength="74.4" x="1525.95" y="213.7781">SetDecimalActuator</text><line style="stroke:#181818;stroke-width:0.3;" x1="1230.6" x2="1876.2" y1="219.9" y2="219.9"/><rect fill="none" height="3.6" style="stroke:#C82930;stroke-width:0.6;" width="3.6" x="1234.8" y="226.9863"/><text fill="#000000" font-family="sans-serif" font-size="8.4" lengthAdjust="spacing" textLength="88.2" x="1242" y="231.3645">_actuatorID: ActuatorID</text><rect fill="none" height="3.6" style="stroke:#C82930;stroke-width:0.6;" width="3.6" x="1234.8" y="238.159"/><text fill="#000000" font-family="sans-serif" font-size="8.4" lengthAdjust="spacing" textLength="115.8" x="1242" y="242.5371">_actuatorName: ActuatorName</text><rect fill="none" height="3.6" style="stroke:#C82930;stroke-width:0.6;" width="3.6" x="1234.8" y="249.3316"/><text fill="#000000" font-family="sans-serif" font-size="8.4" lengthAdjust="spacing" textLength="126.6" x="1242" y="253.7098">_actuatorTypeID: ActuatorTypeID</text><rect fill="none" height="3.6" style="stroke:#C82930;stroke-width:0.6;" width="3.6" x="1234.8" y="260.5043"/><text fill="#000000" font-family="sans-serif" font-size="8.4" lengthAdjust="spacing" textLength="90" x="1242" y="264.8824">_modelPath: ModelPath</text><rect fill="none" height="3.6" style="stroke:#C82930;stroke-width:0.6;" width="3.6" x="1234.8" y="271.677"/><text fill="#000000" font-family="sans-serif" font-size="8.4" lengthAdjust="spacing" textLength="75.6" x="1242" y="276.0551">_deviceID: DeviceID</text><rect fill="none" height="3.6" style="stroke:#C82930;stroke-width:0.6;" width="3.6" x="1234.8" y="282.8496"/><text fill="#000000" font-family="sans-serif" font-size="8.4" lengthAdjust="spacing" textLength="94.2" x="1242" y="287.2277">_value: SetDecimalValue</text><rect fill="none" height="3.6" style="stroke:#C82930;stroke-width:0.6;" width="3.6" x="1234.8" y="294.0223"/><text fill="#000000" font-family="sans-serif" font-size="8.4" lengthAdjust="spacing" textLength="124.2" x="1242" y="298.4004">_limits: SetDecimalActuatorLimits</text><line style="stroke:#181818;stroke-width:0.3;" x1="1230.6" x2="1876.2" y1="302.9086" y2="302.9086"/><ellipse cx="1236.6" cy="311.7949" fill="#84BE84" rx="1.8" ry="1.8" style="stroke:#038048;stroke-width:0.6;"/><text fill="#000000" font-family="sans-serif" font-size="8.4" lengthAdjust="spacing" textLength="631.2" x="1242" y="314.373">SetDecimalActuator(ActuatorName: actuatorName, actuatorTypeID: ActuatorTypeID, modelPath: ModelPath, deviceID: DeviceID, lowerLimit: double, upperLimit: double)</text><ellipse cx="1236.6" cy="322.9676" fill="#84BE84" rx="1.8" ry="1.8" style="stroke:#038048;stroke-width:0.6;"/><text fill="#000000" font-family="sans-serif" font-size="8.4" lengthAdjust="spacing" textLength="140.4" x="1242" y="325.5457">getActuatorTypeID(): ActuatorTypeID</text><ellipse cx="1236.6" cy="334.1402" fill="#84BE84" rx="1.8" ry="1.8" style="stroke:#038048;stroke-width:0.6;"/><text fill="#000000" font-family="sans-serif" font-size="8.4" lengthAdjust="spacing" textLength="70.2" x="1242" y="336.7184">getID(): ActuatorID</text><ellipse cx="1236.6" cy="345.3129" fill="#84BE84" rx="1.8" ry="1.8" style="stroke:#038048;stroke-width:0.6;"/><text fill="#000000" font-family="sans-serif" font-size="8.4" lengthAdjust="spacing" textLength="100.2" x="1242" y="347.891">getName() : ActuatorName</text><ellipse cx="1236.6" cy="356.4855" fill="#84BE84" rx="1.8" ry="1.8" style="stroke:#038048;stroke-width:0.6;"/><text fill="#000000" font-family="sans-serif" font-size="8.4" lengthAdjust="spacing" textLength="105.6" x="1242" y="359.0637">getModelPath() : ModelPath</text><ellipse cx="1236.6" cy="367.6582" fill="#84BE84" rx="1.8" ry="1.8" style="stroke:#038048;stroke-width:0.6;"/><text fill="#000000" font-family="sans-serif" font-size="8.4" lengthAdjust="spacing" textLength="92.4" x="1242" y="370.2363">getDeviceID() : DeviceID</text><ellipse cx="1236.6" cy="378.8309" fill="#84BE84" rx="1.8" ry="1.8" style="stroke:#038048;stroke-width:0.6;"/><text fill="#000000" font-family="sans-serif" font-size="8.4" lengthAdjust="spacing" textLength="159" x="1242" y="381.409">setValue(ValueObject value): ValueObject</text></g><!--class ActuatorTypeID--><g id="elem_ActuatorTypeID"><rect codeLine="37" fill="#F1F1F1" height="62.318" id="ActuatorTypeID" rx="1.5" ry="1.5" style="stroke:#181818;stroke-width:0.3;" width="157.2" x="404.4" y="262.2"/><ellipse cx="451.05" cy="271.8" fill="#ADD1B2" rx="6.6" ry="6.6" style="stroke:#181818;stroke-width:0.6;"/><path d="M452.7094,269.325 Q452.8031,269.1937 452.9156,269.1281 Q453.0281,269.0625 453.1594,269.0625 Q453.3844,269.0625 453.525,269.2219 Q453.6656,269.3719 453.6656,269.7375 L453.6656,270.6094 Q453.6656,270.975 453.525,271.1344 Q453.3844,271.2938 453.1594,271.2938 Q452.9531,271.2938 452.8313,271.1719 Q452.7094,271.0594 452.6438,270.75 Q452.6156,270.5344 452.5031,270.4219 Q452.3063,270.1969 451.9406,270.0656 Q451.575,269.9344 451.2,269.9344 Q450.7406,269.9344 450.3563,270.1312 Q449.9813,270.3281 449.6813,270.7781 Q449.3906,271.2281 449.3906,271.8469 L449.3906,272.5031 Q449.3906,273.2438 449.925,273.7406 Q450.4594,274.2281 451.4156,274.2281 Q451.9781,274.2281 452.3719,274.0781 Q452.6063,273.9844 452.8594,273.7219 Q453.0188,273.5625 453.1031,273.5156 Q453.1969,273.4688 453.3187,273.4688 Q453.5156,273.4688 453.6656,273.6281 Q453.825,273.7781 453.825,273.9844 Q453.825,274.1906 453.6188,274.4344 Q453.3187,274.7813 452.8406,274.9781 Q452.1937,275.25 451.4156,275.25 Q450.5062,275.25 449.7844,274.875 Q449.1937,274.575 448.7813,273.9375 Q448.3688,273.2906 448.3688,272.5219 L448.3688,271.8281 Q448.3688,271.0313 448.7344,270.3469 Q449.1094,269.6531 449.7656,269.2875 Q450.4219,268.9125 451.1625,268.9125 Q451.6031,268.9125 451.9875,269.0156 Q452.3812,269.1094 452.7094,269.325 Z " fill="#000000"/><text fill="#000000" font-family="sans-serif" font-size="8.4" lengthAdjust="spacing" textLength="58.8" x="463.35" y="275.2781">ActuatorTypeID</text><line style="stroke:#181818;stroke-width:0.3;" x1="405" x2="561" y1="281.4" y2="281.4"/><rect fill="none" height="3.6" style="stroke:#C82930;stroke-width:0.6;" width="3.6" x="409.2" y="288.4863"/><text fill="#000000" font-family="sans-serif" font-size="8.4" lengthAdjust="spacing" textLength="73.2" x="416.4" y="292.8645">_description: String</text><line style="stroke:#181818;stroke-width:0.3;" x1="405" x2="561" y1="297.3727" y2="297.3727"/><ellipse cx="411" cy="306.259" fill="#84BE84" rx="1.8" ry="1.8" style="stroke:#038048;stroke-width:0.6;"/><text fill="#000000" font-family="sans-serif" font-size="8.4" lengthAdjust="spacing" textLength="141.6" x="416.4" y="308.8371">ActuatorTypeID(String strDescription)</text><ellipse cx="411" cy="317.4316" fill="#84BE84" rx="1.8" ry="1.8" style="stroke:#038048;stroke-width:0.6;"/><text fill="#000000" font-family="sans-serif" font-size="8.4" lengthAdjust="spacing" textLength="66.6" x="416.4" y="320.0098">getType() : String</text></g><!--class ModelPath--><g id="elem_ModelPath"><rect codeLine="43" fill="#F1F1F1" height="62.318" id="ModelPath" rx="1.5" ry="1.5" style="stroke:#181818;stroke-width:0.3;" width="103.2" x="572.4" y="262.2"/><ellipse cx="601.35" cy="271.8" fill="#ADD1B2" rx="6.6" ry="6.6" style="stroke:#181818;stroke-width:0.6;"/><path d="M603.0094,269.325 Q603.1031,269.1937 603.2156,269.1281 Q603.3281,269.0625 603.4594,269.0625 Q603.6844,269.0625 603.825,269.2219 Q603.9656,269.3719 603.9656,269.7375 L603.9656,270.6094 Q603.9656,270.975 603.825,271.1344 Q603.6844,271.2938 603.4594,271.2938 Q603.2531,271.2938 603.1313,271.1719 Q603.0094,271.0594 602.9438,270.75 Q602.9156,270.5344 602.8031,270.4219 Q602.6062,270.1969 602.2406,270.0656 Q601.875,269.9344 601.5,269.9344 Q601.0406,269.9344 600.6563,270.1312 Q600.2813,270.3281 599.9812,270.7781 Q599.6906,271.2281 599.6906,271.8469 L599.6906,272.5031 Q599.6906,273.2438 600.225,273.7406 Q600.7594,274.2281 601.7156,274.2281 Q602.2781,274.2281 602.6719,274.0781 Q602.9063,273.9844 603.1594,273.7219 Q603.3188,273.5625 603.4031,273.5156 Q603.4969,273.4688 603.6188,273.4688 Q603.8156,273.4688 603.9656,273.6281 Q604.125,273.7781 604.125,273.9844 Q604.125,274.1906 603.9187,274.4344 Q603.6188,274.7813 603.1406,274.9781 Q602.4938,275.25 601.7156,275.25 Q600.8063,275.25 600.0844,274.875 Q599.4938,274.575 599.0813,273.9375 Q598.6687,273.2906 598.6687,272.5219 L598.6687,271.8281 Q598.6687,271.0313 599.0344,270.3469 Q599.4094,269.6531 600.0656,269.2875 Q600.7219,268.9125 601.4625,268.9125 Q601.9031,268.9125 602.2875,269.0156 Q602.6813,269.1094 603.0094,269.325 Z " fill="#000000"/><text fill="#000000" font-family="sans-serif" font-size="8.4" lengthAdjust="spacing" textLength="40.2" x="613.65" y="275.2781">ModelPath</text><line style="stroke:#181818;stroke-width:0.3;" x1="573" x2="675" y1="281.4" y2="281.4"/><rect fill="none" height="3.6" style="stroke:#C82930;stroke-width:0.6;" width="3.6" x="577.2" y="288.4863"/><text fill="#000000" font-family="sans-serif" font-size="8.4" lengthAdjust="spacing" textLength="48.6" x="584.4" y="292.8645">_path: String</text><line style="stroke:#181818;stroke-width:0.3;" x1="573" x2="675" y1="297.3727" y2="297.3727"/><ellipse cx="579" cy="306.259" fill="#84BE84" rx="1.8" ry="1.8" style="stroke:#038048;stroke-width:0.6;"/><text fill="#000000" font-family="sans-serif" font-size="8.4" lengthAdjust="spacing" textLength="87.6" x="584.4" y="308.8371">ModelPath(String path)</text><ellipse cx="579" cy="317.4316" fill="#84BE84" rx="1.8" ry="1.8" style="stroke:#038048;stroke-width:0.6;"/><text fill="#000000" font-family="sans-serif" font-size="8.4" lengthAdjust="spacing" textLength="64.8" x="584.4" y="320.0098">getPath() : String</text></g><!--class ActuatorName--><g id="elem_ActuatorName"><rect codeLine="49" fill="#F1F1F1" height="62.318" id="ActuatorName" rx="1.5" ry="1.5" style="stroke:#181818;stroke-width:0.3;" width="120.6" x="1098.3" y="262.2"/><ellipse cx="1129.35" cy="271.8" fill="#ADD1B2" rx="6.6" ry="6.6" style="stroke:#181818;stroke-width:0.6;"/><path d="M1131.0094,269.325 Q1131.1031,269.1937 1131.2156,269.1281 Q1131.3281,269.0625 1131.4594,269.0625 Q1131.6844,269.0625 1131.825,269.2219 Q1131.9656,269.3719 1131.9656,269.7375 L1131.9656,270.6094 Q1131.9656,270.975 1131.825,271.1344 Q1131.6844,271.2938 1131.4594,271.2938 Q1131.2531,271.2938 1131.1313,271.1719 Q1131.0094,271.0594 1130.9438,270.75 Q1130.9156,270.5344 1130.8031,270.4219 Q1130.6063,270.1969 1130.2406,270.0656 Q1129.875,269.9344 1129.5,269.9344 Q1129.0406,269.9344 1128.6563,270.1312 Q1128.2813,270.3281 1127.9813,270.7781 Q1127.6906,271.2281 1127.6906,271.8469 L1127.6906,272.5031 Q1127.6906,273.2438 1128.225,273.7406 Q1128.7594,274.2281 1129.7156,274.2281 Q1130.2781,274.2281 1130.6719,274.0781 Q1130.9063,273.9844 1131.1594,273.7219 Q1131.3188,273.5625 1131.4031,273.5156 Q1131.4969,273.4688 1131.6187,273.4688 Q1131.8156,273.4688 1131.9656,273.6281 Q1132.125,273.7781 1132.125,273.9844 Q1132.125,274.1906 1131.9188,274.4344 Q1131.6187,274.7813 1131.1406,274.9781 Q1130.4937,275.25 1129.7156,275.25 Q1128.8062,275.25 1128.0844,274.875 Q1127.4937,274.575 1127.0813,273.9375 Q1126.6688,273.2906 1126.6688,272.5219 L1126.6688,271.8281 Q1126.6688,271.0313 1127.0344,270.3469 Q1127.4094,269.6531 1128.0656,269.2875 Q1128.7219,268.9125 1129.4625,268.9125 Q1129.9031,268.9125 1130.2875,269.0156 Q1130.6812,269.1094 1131.0094,269.325 Z " fill="#000000"/><text fill="#000000" font-family="sans-serif" font-size="8.4" lengthAdjust="spacing" textLength="53.4" x="1141.65" y="275.2781">ActuatorName</text><line style="stroke:#181818;stroke-width:0.3;" x1="1098.9" x2="1218.3" y1="281.4" y2="281.4"/><rect fill="none" height="3.6" style="stroke:#C82930;stroke-width:0.6;" width="3.6" x="1103.1" y="288.4863"/><text fill="#000000" font-family="sans-serif" font-size="8.4" lengthAdjust="spacing" textLength="52.8" x="1110.3" y="292.8645">_name: String</text><line style="stroke:#181818;stroke-width:0.3;" x1="1098.9" x2="1218.3" y1="297.3727" y2="297.3727"/><ellipse cx="1104.9" cy="306.259" fill="#84BE84" rx="1.8" ry="1.8" style="stroke:#038048;stroke-width:0.6;"/><text fill="#000000" font-family="sans-serif" font-size="8.4" lengthAdjust="spacing" textLength="105" x="1110.3" y="308.8371">ActuatorName(String name)</text><ellipse cx="1104.9" cy="317.4316" fill="#84BE84" rx="1.8" ry="1.8" style="stroke:#038048;stroke-width:0.6;"/><text fill="#000000" font-family="sans-serif" font-size="8.4" lengthAdjust="spacing" textLength="69" x="1110.3" y="320.0098">getName() : String</text></g><!--class SetDecimalActuatorLimits--><g id="elem_SetDecimalActuatorLimits"><rect codeLine="55" fill="#F1F1F1" height="84.6633" id="SetDecimalActuatorLimits" rx="1.5" ry="1.5" style="stroke:#181818;stroke-width:0.3;" width="255.6" x="686.4" y="251.1"/><ellipse cx="763.65" cy="260.7" fill="#ADD1B2" rx="6.6" ry="6.6" style="stroke:#181818;stroke-width:0.6;"/><path d="M765.3094,258.225 Q765.4031,258.0938 765.5156,258.0281 Q765.6281,257.9625 765.7594,257.9625 Q765.9844,257.9625 766.125,258.1219 Q766.2656,258.2719 766.2656,258.6375 L766.2656,259.5094 Q766.2656,259.875 766.125,260.0344 Q765.9844,260.1937 765.7594,260.1937 Q765.5531,260.1937 765.4313,260.0719 Q765.3094,259.9594 765.2438,259.65 Q765.2156,259.4344 765.1031,259.3219 Q764.9063,259.0969 764.5406,258.9656 Q764.175,258.8344 763.8,258.8344 Q763.3406,258.8344 762.9563,259.0313 Q762.5813,259.2281 762.2813,259.6781 Q761.9906,260.1281 761.9906,260.7469 L761.9906,261.4031 Q761.9906,262.1438 762.525,262.6406 Q763.0594,263.1281 764.0156,263.1281 Q764.5781,263.1281 764.9719,262.9781 Q765.2063,262.8844 765.4594,262.6219 Q765.6188,262.4625 765.7031,262.4156 Q765.7969,262.3688 765.9187,262.3688 Q766.1156,262.3688 766.2656,262.5281 Q766.425,262.6781 766.425,262.8844 Q766.425,263.0906 766.2188,263.3344 Q765.9187,263.6813 765.4406,263.8781 Q764.7937,264.15 764.0156,264.15 Q763.1062,264.15 762.3844,263.775 Q761.7937,263.475 761.3813,262.8375 Q760.9688,262.1906 760.9688,261.4219 L760.9688,260.7281 Q760.9688,259.9313 761.3344,259.2469 Q761.7094,258.5531 762.3656,258.1875 Q763.0219,257.8125 763.7625,257.8125 Q764.2031,257.8125 764.5875,257.9156 Q764.9812,258.0094 765.3094,258.225 Z " fill="#000000"/><text fill="#000000" font-family="sans-serif" font-size="8.4" lengthAdjust="spacing" textLength="96" x="775.95" y="264.1781">SetDecimalActuatorLimits</text><line style="stroke:#181818;stroke-width:0.3;" x1="687" x2="941.4" y1="270.3" y2="270.3"/><rect fill="none" height="3.6" style="stroke:#C82930;stroke-width:0.6;" width="3.6" x="691.2" y="277.3863"/><text fill="#000000" font-family="sans-serif" font-size="8.4" lengthAdjust="spacing" textLength="72.6" x="698.4" y="281.7645">_lowerLimit: double</text><rect fill="none" height="3.6" style="stroke:#C82930;stroke-width:0.6;" width="3.6" x="691.2" y="288.559"/><text fill="#000000" font-family="sans-serif" font-size="8.4" lengthAdjust="spacing" textLength="75" x="698.4" y="292.9371">_upperLimit: double</text><line style="stroke:#181818;stroke-width:0.3;" x1="687" x2="941.4" y1="297.4453" y2="297.4453"/><ellipse cx="693" cy="306.3316" fill="#84BE84" rx="1.8" ry="1.8" style="stroke:#038048;stroke-width:0.6;"/><text fill="#000000" font-family="sans-serif" font-size="8.4" lengthAdjust="spacing" textLength="240" x="698.4" y="308.9098">SetDecimalActuatorLimits(double lowerLimit, double upperLimit)</text><ellipse cx="693" cy="317.5043" fill="#84BE84" rx="1.8" ry="1.8" style="stroke:#038048;stroke-width:0.6;"/><text fill="#000000" font-family="sans-serif" font-size="8.4" lengthAdjust="spacing" textLength="91.2" x="698.4" y="320.0824">getLowerLimit() : double</text><ellipse cx="693" cy="328.677" fill="#84BE84" rx="1.8" ry="1.8" style="stroke:#038048;stroke-width:0.6;"/><text fill="#000000" font-family="sans-serif" font-size="8.4" lengthAdjust="spacing" textLength="91.2" x="698.4" y="331.2551">getUpperLimit() : double</text></g><!--class ActuatorID--><g id="elem_ActuatorID"><rect codeLine="63" fill="#F1F1F1" height="62.318" id="ActuatorID" rx="1.5" ry="1.5" style="stroke:#181818;stroke-width:0.3;" width="92.4" x="204" y="262.2"/><ellipse cx="228.12" cy="271.8" fill="#ADD1B2" rx="6.6" ry="6.6" style="stroke:#181818;stroke-width:0.6;"/><path d="M229.7794,269.325 Q229.8731,269.1937 229.9856,269.1281 Q230.0981,269.0625 230.2294,269.0625 Q230.4544,269.0625 230.595,269.2219 Q230.7356,269.3719 230.7356,269.7375 L230.7356,270.6094 Q230.7356,270.975 230.595,271.1344 Q230.4544,271.2938 230.2294,271.2938 Q230.0231,271.2938 229.9012,271.1719 Q229.7794,271.0594 229.7137,270.75 Q229.6856,270.5344 229.5731,270.4219 Q229.3763,270.1969 229.0106,270.0656 Q228.645,269.9344 228.27,269.9344 Q227.8106,269.9344 227.4262,270.1312 Q227.0512,270.3281 226.7513,270.7781 Q226.4606,271.2281 226.4606,271.8469 L226.4606,272.5031 Q226.4606,273.2438 226.995,273.7406 Q227.5294,274.2281 228.4856,274.2281 Q229.0481,274.2281 229.4419,274.0781 Q229.6762,273.9844 229.9294,273.7219 Q230.0887,273.5625 230.1731,273.5156 Q230.2669,273.4688 230.3888,273.4688 Q230.5856,273.4688 230.7356,273.6281 Q230.895,273.7781 230.895,273.9844 Q230.895,274.1906 230.6887,274.4344 Q230.3888,274.7813 229.9106,274.9781 Q229.2638,275.25 228.4856,275.25 Q227.5763,275.25 226.8544,274.875 Q226.2638,274.575 225.8513,273.9375 Q225.4388,273.2906 225.4388,272.5219 L225.4388,271.8281 Q225.4388,271.0313 225.8044,270.3469 Q226.1794,269.6531 226.8356,269.2875 Q227.4919,268.9125 228.2325,268.9125 Q228.6731,268.9125 229.0575,269.0156 Q229.4513,269.1094 229.7794,269.325 Z " fill="#000000"/><text fill="#000000" font-family="sans-serif" font-size="8.4" lengthAdjust="spacing" textLength="39.6" x="239.88" y="275.2781">ActuatorID</text><line style="stroke:#181818;stroke-width:0.3;" x1="204.6" x2="295.8" y1="281.4" y2="281.4"/><rect fill="none" height="3.6" style="stroke:#C82930;stroke-width:0.6;" width="3.6" x="208.8" y="288.4863"/><text fill="#000000" font-family="sans-serif" font-size="8.4" lengthAdjust="spacing" textLength="38.4" x="216" y="292.8645">_id: String</text><line style="stroke:#181818;stroke-width:0.3;" x1="204.6" x2="295.8" y1="297.3727" y2="297.3727"/><ellipse cx="210.6" cy="306.259" fill="#84BE84" rx="1.8" ry="1.8" style="stroke:#038048;stroke-width:0.6;"/><text fill="#000000" font-family="sans-serif" font-size="8.4" lengthAdjust="spacing" textLength="76.8" x="216" y="308.8371">ActuatorID(String id)</text><ellipse cx="210.6" cy="317.4316" fill="#84BE84" rx="1.8" ry="1.8" style="stroke:#038048;stroke-width:0.6;"/><text fill="#000000" font-family="sans-serif" font-size="8.4" lengthAdjust="spacing" textLength="55.2" x="216" y="320.0098">getID() : String</text></g><!--class DeviceID--><g id="elem_DeviceID"><rect codeLine="69" fill="#F1F1F1" height="62.318" id="DeviceID" rx="1.5" ry="1.5" style="stroke:#181818;stroke-width:0.3;" width="86.4" x="307.2" y="262.2"/><ellipse cx="331.32" cy="271.8" fill="#ADD1B2" rx="6.6" ry="6.6" style="stroke:#181818;stroke-width:0.6;"/><path d="M332.9794,269.325 Q333.0731,269.1937 333.1856,269.1281 Q333.2981,269.0625 333.4294,269.0625 Q333.6544,269.0625 333.795,269.2219 Q333.9356,269.3719 333.9356,269.7375 L333.9356,270.6094 Q333.9356,270.975 333.795,271.1344 Q333.6544,271.2938 333.4294,271.2938 Q333.2231,271.2938 333.1013,271.1719 Q332.9794,271.0594 332.9138,270.75 Q332.8856,270.5344 332.7731,270.4219 Q332.5763,270.1969 332.2106,270.0656 Q331.845,269.9344 331.47,269.9344 Q331.0106,269.9344 330.6263,270.1312 Q330.2513,270.3281 329.9513,270.7781 Q329.6606,271.2281 329.6606,271.8469 L329.6606,272.5031 Q329.6606,273.2438 330.195,273.7406 Q330.7294,274.2281 331.6856,274.2281 Q332.2481,274.2281 332.6419,274.0781 Q332.8763,273.9844 333.1294,273.7219 Q333.2888,273.5625 333.3731,273.5156 Q333.4669,273.4688 333.5888,273.4688 Q333.7856,273.4688 333.9356,273.6281 Q334.095,273.7781 334.095,273.9844 Q334.095,274.1906 333.8888,274.4344 Q333.5888,274.7813 333.1106,274.9781 Q332.4638,275.25 331.6856,275.25 Q330.7763,275.25 330.0544,274.875 Q329.4638,274.575 329.0513,273.9375 Q328.6388,273.2906 328.6388,272.5219 L328.6388,271.8281 Q328.6388,271.0313 329.0044,270.3469 Q329.3794,269.6531 330.0356,269.2875 Q330.6919,268.9125 331.4325,268.9125 Q331.8731,268.9125 332.2575,269.0156 Q332.6513,269.1094 332.9794,269.325 Z " fill="#000000"/><text fill="#000000" font-family="sans-serif" font-size="8.4" lengthAdjust="spacing" textLength="33.6" x="343.08" y="275.2781">DeviceID</text><line style="stroke:#181818;stroke-width:0.3;" x1="307.8" x2="393" y1="281.4" y2="281.4"/><rect fill="none" height="3.6" style="stroke:#C82930;stroke-width:0.6;" width="3.6" x="312" y="288.4863"/><text fill="#000000" font-family="sans-serif" font-size="8.4" lengthAdjust="spacing" textLength="38.4" x="319.2" y="292.8645">_id: String</text><line style="stroke:#181818;stroke-width:0.3;" x1="307.8" x2="393" y1="297.3727" y2="297.3727"/><ellipse cx="313.8" cy="306.259" fill="#84BE84" rx="1.8" ry="1.8" style="stroke:#038048;stroke-width:0.6;"/><text fill="#000000" font-family="sans-serif" font-size="8.4" lengthAdjust="spacing" textLength="70.8" x="319.2" y="308.8371">DeviceID(String id)</text><ellipse cx="313.8" cy="317.4316" fill="#84BE84" rx="1.8" ry="1.8" style="stroke:#038048;stroke-width:0.6;"/><text fill="#000000" font-family="sans-serif" font-size="8.4" lengthAdjust="spacing" textLength="55.2" x="319.2" y="320.0098">getID() : String</text></g><!--class SetDecimalValue--><g id="elem_SetDecimalValue"><rect codeLine="75" fill="#F1F1F1" height="62.318" id="SetDecimalValue" rx="1.5" ry="1.5" style="stroke:#181818;stroke-width:0.3;" width="134.4" x="952.8" y="262.2"/><ellipse cx="985.35" cy="271.8" fill="#ADD1B2" rx="6.6" ry="6.6" style="stroke:#181818;stroke-width:0.6;"/><path d="M987.0094,269.325 Q987.1031,269.1937 987.2156,269.1281 Q987.3281,269.0625 987.4594,269.0625 Q987.6844,269.0625 987.825,269.2219 Q987.9656,269.3719 987.9656,269.7375 L987.9656,270.6094 Q987.9656,270.975 987.825,271.1344 Q987.6844,271.2938 987.4594,271.2938 Q987.2531,271.2938 987.1312,271.1719 Q987.0094,271.0594 986.9437,270.75 Q986.9156,270.5344 986.8031,270.4219 Q986.6062,270.1969 986.2406,270.0656 Q985.875,269.9344 985.5,269.9344 Q985.0406,269.9344 984.6563,270.1312 Q984.2813,270.3281 983.9812,270.7781 Q983.6906,271.2281 983.6906,271.8469 L983.6906,272.5031 Q983.6906,273.2438 984.225,273.7406 Q984.7594,274.2281 985.7156,274.2281 Q986.2781,274.2281 986.6719,274.0781 Q986.9063,273.9844 987.1594,273.7219 Q987.3187,273.5625 987.4031,273.5156 Q987.4969,273.4688 987.6188,273.4688 Q987.8156,273.4688 987.9656,273.6281 Q988.125,273.7781 988.125,273.9844 Q988.125,274.1906 987.9187,274.4344 Q987.6188,274.7813 987.1406,274.9781 Q986.4938,275.25 985.7156,275.25 Q984.8063,275.25 984.0844,274.875 Q983.4938,274.575 983.0813,273.9375 Q982.6687,273.2906 982.6687,272.5219 L982.6687,271.8281 Q982.6687,271.0313 983.0344,270.3469 Q983.4094,269.6531 984.0656,269.2875 Q984.7219,268.9125 985.4625,268.9125 Q985.9031,268.9125 986.2875,269.0156 Q986.6813,269.1094 987.0094,269.325 Z " fill="#000000"/><text fill="#000000" font-family="sans-serif" font-size="8.4" lengthAdjust="spacing" textLength="64.2" x="997.65" y="275.2781">SetDecimalValue</text><line style="stroke:#181818;stroke-width:0.3;" x1="953.4" x2="1086.6" y1="281.4" y2="281.4"/><rect fill="none" height="3.6" style="stroke:#C82930;stroke-width:0.6;" width="3.6" x="957.6" y="288.4863"/><text fill="#000000" font-family="sans-serif" font-size="8.4" lengthAdjust="spacing" textLength="58.2" x="964.8" y="292.8645">_value : double</text><line style="stroke:#181818;stroke-width:0.3;" x1="953.4" x2="1086.6" y1="297.3727" y2="297.3727"/><ellipse cx="959.4" cy="306.259" fill="#84BE84" rx="1.8" ry="1.8" style="stroke:#038048;stroke-width:0.6;"/><text fill="#000000" font-family="sans-serif" font-size="8.4" lengthAdjust="spacing" textLength="118.8" x="964.8" y="308.8371">SetDecimalValue(double value)</text><ellipse cx="959.4" cy="317.4316" fill="#84BE84" rx="1.8" ry="1.8" style="stroke:#038048;stroke-width:0.6;"/><text fill="#000000" font-family="sans-serif" font-size="8.4" lengthAdjust="spacing" textLength="64.8" x="964.8" y="320.0098">toString() : String</text></g><!--class SetDecimalActuator--><g id="elem_SetDecimalActuator"><rect fill="#F1F1F1" height="28.8" id="SetDecimalActuator" rx="1.5" ry="1.5" style="stroke:#181818;stroke-width:0.3;" width="93.6" x="506.4" y="121.8"/><ellipse cx="515.4" cy="131.4" fill="#ADD1B2" rx="6.6" ry="6.6" style="stroke:#181818;stroke-width:0.6;"/><path d="M517.0594,128.925 Q517.1531,128.7938 517.2656,128.7281 Q517.3781,128.6625 517.5094,128.6625 Q517.7344,128.6625 517.875,128.8219 Q518.0156,128.9719 518.0156,129.3375 L518.0156,130.2094 Q518.0156,130.575 517.875,130.7344 Q517.7344,130.8937 517.5094,130.8937 Q517.3031,130.8937 517.1813,130.7719 Q517.0594,130.6594 516.9938,130.35 Q516.9656,130.1344 516.8531,130.0219 Q516.6563,129.7969 516.2906,129.6656 Q515.925,129.5344 515.55,129.5344 Q515.0906,129.5344 514.7063,129.7313 Q514.3313,129.9281 514.0313,130.3781 Q513.7406,130.8281 513.7406,131.4469 L513.7406,132.1031 Q513.7406,132.8438 514.275,133.3406 Q514.8094,133.8281 515.7656,133.8281 Q516.3281,133.8281 516.7219,133.6781 Q516.9563,133.5844 517.2094,133.3219 Q517.3688,133.1625 517.4531,133.1156 Q517.5469,133.0688 517.6687,133.0688 Q517.8656,133.0688 518.0156,133.2281 Q518.175,133.3781 518.175,133.5844 Q518.175,133.7906 517.9688,134.0344 Q517.6687,134.3813 517.1906,134.5781 Q516.5437,134.85 515.7656,134.85 Q514.8562,134.85 514.1344,134.475 Q513.5437,134.175 513.1313,133.5375 Q512.7188,132.8906 512.7188,132.1219 L512.7188,131.4281 Q512.7188,130.6313 513.0844,129.9469 Q513.4594,129.2531 514.1156,128.8875 Q514.7719,128.5125 515.5125,128.5125 Q515.9531,128.5125 516.3375,128.6156 Q516.7312,128.7094 517.0594,128.925 Z " fill="#000000"/><text fill="#000000" font-family="sans-serif" font-size="8.4" lengthAdjust="spacing" textLength="74.4" x="523.8" y="134.8781">SetDecimalActuator</text><line style="stroke:#181818;stroke-width:0.3;" x1="507" x2="599.4" y1="141" y2="141"/><line style="stroke:#181818;stroke-width:0.3;" x1="507" x2="599.4" y1="145.8" y2="145.8"/></g><!--class DomainEntity--><g id="elem_DomainEntity"><rect codeLine="84" fill="#F1F1F1" height="28.8" id="DomainEntity" rx="1.5" ry="1.5" style="stroke:#181818;stroke-width:0.3;" width="69" x="440.7" y="474.3"/><ellipse cx="449.7" cy="483.9" fill="#B4A7E5" rx="6.6" ry="6.6" style="stroke:#181818;stroke-width:0.6;"/><path d="M450.2719,481.8844 L450.2719,485.8781 L451.3031,485.8781 Q451.6688,485.8781 451.8281,486.0187 Q451.9875,486.1594 451.9875,486.3937 Q451.9875,486.6188 451.8281,486.7594 Q451.6688,486.9 451.3031,486.9 L448.2188,486.9 Q447.8531,486.9 447.6937,486.7594 Q447.5344,486.6188 447.5344,486.3844 Q447.5344,486.1594 447.6937,486.0187 Q447.8531,485.8781 448.2188,485.8781 L449.25,485.8781 L449.25,481.8844 L448.2188,481.8844 Q447.8531,481.8844 447.6937,481.7438 Q447.5344,481.6031 447.5344,481.3688 Q447.5344,481.1437 447.6937,481.0031 Q447.8531,480.8625 448.2188,480.8625 L451.3031,480.8625 Q451.6688,480.8625 451.8281,481.0031 Q451.9875,481.1437 451.9875,481.3688 Q451.9875,481.6031 451.8281,481.7438 Q451.6688,481.8844 451.3031,481.8844 L450.2719,481.8844 Z " fill="#000000"/><text fill="#000000" font-family="sans-serif" font-size="8.4" font-style="italic" lengthAdjust="spacing" textLength="49.8" x="458.1" y="487.3781">DomainEntity</text><line style="stroke:#181818;stroke-width:0.3;" x1="441.3" x2="509.1" y1="493.5" y2="493.5"/><line style="stroke:#181818;stroke-width:0.3;" x1="441.3" x2="509.1" y1="498.3" y2="498.3"/></g><!--class DomainID--><g id="elem_DomainID"><rect codeLine="87" fill="#F1F1F1" height="28.8" id="DomainID" rx="1.5" ry="1.5" style="stroke:#181818;stroke-width:0.3;" width="56.4" x="455.4" y="525.3"/><ellipse cx="464.4" cy="534.9" fill="#B4A7E5" rx="6.6" ry="6.6" style="stroke:#181818;stroke-width:0.6;"/><path d="M464.9719,532.8844 L464.9719,536.8781 L466.0031,536.8781 Q466.3688,536.8781 466.5281,537.0188 Q466.6875,537.1594 466.6875,537.3938 Q466.6875,537.6188 466.5281,537.7594 Q466.3688,537.9 466.0031,537.9 L462.9188,537.9 Q462.5531,537.9 462.3937,537.7594 Q462.2344,537.6188 462.2344,537.3844 Q462.2344,537.1594 462.3937,537.0188 Q462.5531,536.8781 462.9188,536.8781 L463.95,536.8781 L463.95,532.8844 L462.9188,532.8844 Q462.5531,532.8844 462.3937,532.7438 Q462.2344,532.6031 462.2344,532.3688 Q462.2344,532.1438 462.3937,532.0031 Q462.5531,531.8625 462.9188,531.8625 L466.0031,531.8625 Q466.3688,531.8625 466.5281,532.0031 Q466.6875,532.1438 466.6875,532.3688 Q466.6875,532.6031 466.5281,532.7438 Q466.3688,532.8844 466.0031,532.8844 L464.9719,532.8844 Z " fill="#000000"/><text fill="#000000" font-family="sans-serif" font-size="8.4" font-style="italic" lengthAdjust="spacing" textLength="37.2" x="472.8" y="538.3781">DomainID</text><line style="stroke:#181818;stroke-width:0.3;" x1="456" x2="511.2" y1="544.5" y2="544.5"/><line style="stroke:#181818;stroke-width:0.3;" x1="456" x2="511.2" y1="549.3" y2="549.3"/></g><!--class AggregateRoot--><g id="elem_AggregateRoot"><rect codeLine="90" fill="#F1F1F1" height="28.8" id="AggregateRoot" rx="1.5" ry="1.5" style="stroke:#181818;stroke-width:0.3;" width="76.8" x="435" y="423.3"/><ellipse cx="444" cy="432.9" fill="#B4A7E5" rx="6.6" ry="6.6" style="stroke:#181818;stroke-width:0.6;"/><path d="M444.5719,430.8844 L444.5719,434.8781 L445.6031,434.8781 Q445.9688,434.8781 446.1281,435.0188 Q446.2875,435.1594 446.2875,435.3938 Q446.2875,435.6188 446.1281,435.7594 Q445.9688,435.9 445.6031,435.9 L442.5188,435.9 Q442.1531,435.9 441.9938,435.7594 Q441.8344,435.6188 441.8344,435.3844 Q441.8344,435.1594 441.9938,435.0188 Q442.1531,434.8781 442.5188,434.8781 L443.55,434.8781 L443.55,430.8844 L442.5188,430.8844 Q442.1531,430.8844 441.9938,430.7438 Q441.8344,430.6031 441.8344,430.3688 Q441.8344,430.1438 441.9938,430.0031 Q442.1531,429.8625 442.5188,429.8625 L445.6031,429.8625 Q445.9688,429.8625 446.1281,430.0031 Q446.2875,430.1438 446.2875,430.3688 Q446.2875,430.6031 446.1281,430.7438 Q445.9688,430.8844 445.6031,430.8844 L444.5719,430.8844 Z " fill="#000000"/><text fill="#000000" font-family="sans-serif" font-size="8.4" font-style="italic" lengthAdjust="spacing" textLength="57.6" x="452.4" y="436.3781">AggregateRoot</text><line style="stroke:#181818;stroke-width:0.3;" x1="435.6" x2="511.2" y1="442.5" y2="442.5"/><line style="stroke:#181818;stroke-width:0.3;" x1="435.6" x2="511.2" y1="447.3" y2="447.3"/></g><!--class ValueObject--><g id="elem_ValueObject"><rect codeLine="93" fill="#F1F1F1" height="28.8" id="ValueObject" rx="1.5" ry="1.5" style="stroke:#181818;stroke-width:0.3;" width="65.4" x="446.1" y="576.3"/><ellipse cx="455.1" cy="585.9" fill="#B4A7E5" rx="6.6" ry="6.6" style="stroke:#181818;stroke-width:0.6;"/><path d="M455.6719,583.8844 L455.6719,587.8781 L456.7031,587.8781 Q457.0687,587.8781 457.2281,588.0188 Q457.3875,588.1594 457.3875,588.3938 Q457.3875,588.6188 457.2281,588.7594 Q457.0687,588.9 456.7031,588.9 L453.6188,588.9 Q453.2531,588.9 453.0938,588.7594 Q452.9344,588.6188 452.9344,588.3844 Q452.9344,588.1594 453.0938,588.0188 Q453.2531,587.8781 453.6188,587.8781 L454.65,587.8781 L454.65,583.8844 L453.6188,583.8844 Q453.2531,583.8844 453.0938,583.7438 Q452.9344,583.6031 452.9344,583.3688 Q452.9344,583.1438 453.0938,583.0031 Q453.2531,582.8625 453.6188,582.8625 L456.7031,582.8625 Q457.0687,582.8625 457.2281,583.0031 Q457.3875,583.1438 457.3875,583.3688 Q457.3875,583.6031 457.2281,583.7438 Q457.0687,583.8844 456.7031,583.8844 L455.6719,583.8844 Z " fill="#000000"/><text fill="#000000" font-family="sans-serif" font-size="8.4" font-style="italic" lengthAdjust="spacing" textLength="46.2" x="463.5" y="589.3781">ValueObject</text><line style="stroke:#181818;stroke-width:0.3;" x1="446.7" x2="510.9" y1="595.5" y2="595.5"/><line style="stroke:#181818;stroke-width:0.3;" x1="446.7" x2="510.9" y1="600.3" y2="600.3"/></g><polygon fill="none" points="418.9737,115.9993,429.1262,110.8489,424.0055,105.7875,418.9737,115.9993" style="stroke:#181818;stroke-width:0.6;"/><path d="M457.0201,77.507 C445.3778,89.2857 438.207,96.5406 426.5658,108.3182 " fill="none" style="stroke:#181818;stroke-width:0.6;stroke-dasharray:7.0,7.0;"/><polygon fill="#181818" points="539.3976,121.6359,537.3085,116.1082,537.2887,119.5023,533.8947,119.4825,539.3976,121.6359" style="stroke:#181818;stroke-width:0.6;"/><path d="M495.7799,77.507 C509.3774,91.2638 524.701,106.767 536.8669,119.0755 " fill="none" style="stroke:#181818;stroke-width:0.6;stroke-dasharray:7.0,7.0;"/><text fill="#000000" font-family="sans-serif" font-size="7.8" lengthAdjust="spacing" textLength="25.8" x="517.2" y="97.217">creates</text><text fill="#000000" font-family="sans-serif" font-size="7.8" lengthAdjust="spacing" textLength="4.2" x="534.5976" y="119.2529">1</text><text fill="#000000" font-family="sans-serif" font-size="7.8" lengthAdjust="spacing" textLength="4.2" x="490.9799" y="86.524">1</text><polygon fill="none" points="133.5298,245.192,142.6711,238.4069,136.7718,234.2792,133.5298,245.192" style="stroke:#181818;stroke-width:0.6;"/><path d="M522.7079,150.6354 C516.6204,152.8952 510.192,154.9391 504,156.3 C437.0676,171.0103 256.6137,149.8536 196.8,183.3 C170.8875,197.7897 155.4205,213.9064 139.7215,236.3431 " fill="none" style="stroke:#181818;stroke-width:0.6;stroke-dasharray:7.0,7.0;"/><polygon fill="#181818" points="1008.2986,262.0074,1008.2845,256.0981,1007.0737,259.2689,1003.9029,258.058,1008.2986,262.0074" style="stroke:#181818;stroke-width:0.6;"/><path d="M600.1067,137.471 C691.6591,139.5571 890.2045,148.125 947.4,183.3 C976.835,201.4024 995.3872,233.1421 1006.8287,258.7212 " fill="none" style="stroke:#181818;stroke-width:0.6;"/><text fill="#000000" font-family="sans-serif" font-size="7.8" lengthAdjust="spacing" textLength="12.6" x="937.8" y="176.117">has</text><text fill="#000000" font-family="sans-serif" font-size="7.8" lengthAdjust="spacing" textLength="4.2" x="1003.4986" y="259.6244">1</text><text fill="#000000" font-family="sans-serif" font-size="7.8" lengthAdjust="spacing" textLength="4.2" x="600.7067" y="146.488">1</text><polygon fill="#181818" points="496.8238,262.0805,501.2283,258.141,498.0549,259.3448,496.8511,256.1713,496.8238,262.0805" style="stroke:#181818;stroke-width:0.6;"/><path d="M546.9702,150.644 C535.7794,175.5125 513.5033,225.0149 498.3011,258.7976 " fill="none" style="stroke:#181818;stroke-width:0.6;"/><text fill="#000000" font-family="sans-serif" font-size="7.8" lengthAdjust="spacing" textLength="12.6" x="538.2" y="176.117">has</text><text fill="#000000" font-family="sans-serif" font-size="7.8" lengthAdjust="spacing" textLength="4.2" x="492.0238" y="259.6975">1</text><text fill="#000000" font-family="sans-serif" font-size="7.8" lengthAdjust="spacing" textLength="4.2" x="542.1702" y="159.661">1</text><polygon fill="#181818" points="610.0581,262.0805,610.0119,256.1714,608.8183,259.3487,605.6409,258.1551,610.0581,262.0805" style="stroke:#181818;stroke-width:0.6;"/><path d="M559.483,150.644 C570.7695,175.5125 593.2381,225.0196 608.5703,258.8023 " fill="none" style="stroke:#181818;stroke-width:0.6;"/><text fill="#000000" font-family="sans-serif" font-size="7.8" lengthAdjust="spacing" textLength="12.6" x="570.6" y="176.117">has</text><text fill="#000000" font-family="sans-serif" font-size="7.8" lengthAdjust="spacing" textLength="4.2" x="605.2581" y="259.6975">1</text><text fill="#000000" font-family="sans-serif" font-size="7.8" lengthAdjust="spacing" textLength="4.2" x="554.683" y="159.661">1</text><polygon fill="#181818" points="1148.7191,262.0594,1149.0012,256.1568,1147.633,259.2629,1144.5269,257.8947,1148.7191,262.0594" style="stroke:#181818;stroke-width:0.6;"/><path d="M600.201,138.3561 C723.8764,142.7988 1051.6795,156.9492 1092.6,183.3 C1120.8729,201.5064 1137.4936,233.1575 1147.4157,258.7037 " fill="none" style="stroke:#181818;stroke-width:0.6;"/><text fill="#000000" font-family="sans-serif" font-size="7.8" lengthAdjust="spacing" textLength="12.6" x="1079.4" y="176.117">has</text><text fill="#000000" font-family="sans-serif" font-size="7.8" lengthAdjust="spacing" textLength="4.2" x="1143.9191" y="259.6764">1</text><text fill="#000000" font-family="sans-serif" font-size="7.8" lengthAdjust="spacing" textLength="4.2" x="600.801" y="135.9731">1</text><polygon fill="#181818" points="771.088,250.9612,768.6841,245.563,768.8597,248.9525,765.4702,249.1282,771.088,250.9612" style="stroke:#181818;stroke-width:0.6;"/><path d="M600.1145,149.6621 C625.0403,157.5192 655.6737,168.8493 681,183.3 C713.6315,201.9189 743.6068,226.1883 768.4141,248.5508 " fill="none" style="stroke:#181818;stroke-width:0.6;"/><text fill="#000000" font-family="sans-serif" font-size="7.8" lengthAdjust="spacing" textLength="12.6" x="671.4" y="176.117">has</text><text fill="#000000" font-family="sans-serif" font-size="7.8" lengthAdjust="spacing" textLength="4.2" x="766.288" y="248.5782">1</text><text fill="#000000" font-family="sans-serif" font-size="7.8" lengthAdjust="spacing" textLength="4.2" x="600.7145" y="158.6791">1</text><polygon fill="#181818" points="256.5099,262.1826,260.2411,257.6003,257.296,259.2875,255.6088,256.3424,256.5099,262.1826" style="stroke:#181818;stroke-width:0.6;"/><path d="M522.1347,150.6442 C516.2091,152.8442 509.9862,154.8641 504,156.3 C459.9182,166.8735 337.688,155.6042 301.8,183.3 C276.761,202.6233 264.272,233.5973 257.4533,258.7084 " fill="none" style="stroke:#181818;stroke-width:0.6;"/><text fill="#000000" font-family="sans-serif" font-size="7.8" lengthAdjust="spacing" textLength="12.6" x="353.4" y="176.117">has</text><text fill="#000000" font-family="sans-serif" font-size="7.8" lengthAdjust="spacing" textLength="4.2" x="251.7099" y="259.7996">1</text><text fill="#000000" font-family="sans-serif" font-size="7.8" lengthAdjust="spacing" textLength="4.2" x="522.7347" y="159.6612">1</text><polygon fill="#181818" points="356.3121,262.1446,359.9799,257.5113,357.0584,259.2389,355.3308,256.3173,356.3121,262.1446" style="stroke:#181818;stroke-width:0.6;"/><path d="M519.7935,150.6908 C514.5472,152.6832 509.1551,154.623 504,156.3 C458.1789,171.2064 435.7796,152.1707 399,183.3 C375.2658,203.388 363.5734,233.8707 357.2076,258.6577 " fill="none" style="stroke:#181818;stroke-width:0.6;"/><text fill="#000000" font-family="sans-serif" font-size="7.8" lengthAdjust="spacing" textLength="12.6" x="427.8" y="176.117">has</text><text fill="#000000" font-family="sans-serif" font-size="7.8" lengthAdjust="spacing" textLength="4.2" x="351.5121" y="259.7615">1</text><text fill="#000000" font-family="sans-serif" font-size="7.8" lengthAdjust="spacing" textLength="4.2" x="514.9935" y="159.7078">1</text><polygon fill="none" points="481.2435,525.1296,482.9971,513.8813,475.8974,515.0788,481.2435,525.1296" style="stroke:#181818;stroke-width:0.6;"/><path d="M477.5399,503.1721 C478.6952,510.0217 478.2896,507.6171 479.4472,514.48 " fill="none" style="stroke:#181818;stroke-width:0.6;"/><polygon fill="none" points="474.695,474.1296,477.9026,463.2066,470.7073,463.4667,474.695,474.1296" style="stroke:#181818;stroke-width:0.6;"/><path d="M473.9014,452.1721 C474.149,459.0217 474.0569,456.4737 474.3049,463.3366 " fill="none" style="stroke:#181818;stroke-width:0.6;"/><polygon fill="none" points="480.1465,576.1296,484.7661,565.7248,477.5993,565.034,480.1465,576.1296" style="stroke:#181818;stroke-width:0.6;"/><path d="M482.2629,554.1721 C481.6027,561.0217 481.8442,558.5165 481.1827,565.3794 " fill="none" style="stroke:#181818;stroke-width:0.6;"/><polygon fill="none" points="434.7795,434.5493,424.2748,430.1616,423.7431,437.342,434.7795,434.5493" style="stroke:#181818;stroke-width:0.6;"/><path d="M136.8878,341.586 C152.4916,361.4958 173.103,382.9329 196.8,395.7 C237.1955,417.4636 357.9374,428.8599 424.0089,433.7518 " fill="none" style="stroke:#181818;stroke-width:0.6;"/><polygon fill="none" points="511.9944,533.0902,523.3748,532.7944,520.9212,526.0253,511.9944,533.0902" style="stroke:#181818;stroke-width:0.6;"/><path d="M504.0168,324.8074 C516.6662,345.2706 531.5665,373.2864 538.2,400.5 C550.199,449.7253 565.7008,471.9463 538.2,514.5 C532.2746,523.6687 532.1782,525.7742 522.148,529.4099 " fill="none" style="stroke:#181818;stroke-width:0.6;stroke-dasharray:7.0,7.0;"/><polygon fill="none" points="500.0192,525.1334,510.1515,519.9433,505.011,514.9019,500.0192,525.1334" style="stroke:#181818;stroke-width:0.6;"/><path d="M256.9371,324.7707 C263.8869,348.4907 277.2816,379.8356 301.8,395.7 C321.9164,408.7161 500.6632,388.5615 517.2,405.9 C520.3591,409.2122 515.7652,502.184 515.4,503.1 C512.0952,511.3884 513.5597,511.3265 507.5812,517.4226 " fill="none" style="stroke:#181818;stroke-width:0.6;stroke-dasharray:7.0,7.0;"/><polygon fill="none" points="511.9152,528.327,522.9953,525.7134,519.2111,519.5881,511.9152,528.327" style="stroke:#181818;stroke-width:0.6;"/><path d="M356.1909,324.778 C362.4189,348.5021 374.878,379.8491 399,395.7 C410.8199,403.467 516.3895,390.3123 526.2,400.5 C543.7724,418.748 538.8657,492.5601 526.2,514.5 C522.8695,520.2692 526.8018,519.1302 521.1032,522.6507 " fill="none" style="stroke:#181818;stroke-width:0.6;stroke-dasharray:7.0,7.0;"/><polygon fill="none" points="511.8203,531.8638,523.2001,531.5494,520.7355,524.7844,511.8203,531.8638" style="stroke:#181818;stroke-width:0.6;"/><path d="M617.7674,324.6664 C608.2217,367.0556 587.2799,444.9058 552,503.1 C543.2344,517.5588 536.6752,522.8088 521.9678,528.1669 " fill="none" style="stroke:#181818;stroke-width:0.6;stroke-dasharray:7.0,7.0;"/><polygon fill="none" points="511.6483,589.3496,522.543,592.652,522.3455,585.4547,511.6483,589.3496" style="stroke:#181818;stroke-width:0.6;"/><path d="M1003.2592,324.6742 C990.2061,346.5027 970.4575,375.4364 947.4,395.7 C918.0963,421.4529 870,398.0882 870,437.1 C870,437.1 870,437.1 870,540.3 C870,576.3082 616.6115,586.4696 522.4442,589.0534 " fill="none" style="stroke:#181818;stroke-width:0.6;stroke-dasharray:7.0,7.0;"/><polygon fill="none" points="511.7247,589.7444,522.611,593.0745,522.4318,585.8767,511.7247,589.7444" style="stroke:#181818;stroke-width:0.6;"/><path d="M761.5547,335.7575 C735.1032,361.6641 708.6,397.5016 708.6,437.1 C708.6,437.1 708.6,437.1 708.6,540.3 C708.6,580.1014 586.0631,587.8938 522.5214,589.4756 " fill="none" style="stroke:#181818;stroke-width:0.6;stroke-dasharray:7.0,7.0;"/><polygon fill="none" points="511.6375,588.8087,522.5764,591.9616,522.2803,584.7677,511.6375,588.8087" style="stroke:#181818;stroke-width:0.6;"/><path d="M1143.674,324.7951 C1132.0093,346.5427 1114.1792,375.3251 1092.6,395.7 C1065.5922,421.2005 1020,399.9557 1020,437.1 C1020,437.1 1020,437.1 1020,540.3 C1020,565.9676 639.684,583.54 522.4283,588.3647 " fill="none" style="stroke:#181818;stroke-width:0.6;stroke-dasharray:7.0,7.0;"/><!--SRC=[hLRBRjim4BppAzYSP5GMqAiE0Gmu1GAa3pHjhmKZiGfRlI1HAOpM_rwAb2W-bexZA0V79aVBsPtPfTwq7IagWajoQ0QE-ufoKXE4MfBz9WN5ULCHLYUxZ0-4Dnt-Yx3uOpMdtK-IKUniZ7zlSK7vlFxrqDBRVRH9iRsYqTPJDZA4-aWg6ctm0XmNOEY79gVbPy8V9Lx_Wi5x-iGooLPWvny0jAVyEoa76idFJm-_QCRnq_XTa3VMvAF7GC7Uaqny7gowPHqbdCw8I4L9aWItf1CfYX2zKHuZV5QIliUtLLkk7luOia9oB_GIQHMqSqoWsDoF1SrOHKh08rlyWsYLGSKDn2XlG6m3fNmLz9b0LhFya1F4VZv93eWlTgN0gP6MLDf4bAnYl4-1pE_aZY653ubsLhPcxZ4-dMECeSnYxESJuxBvGnMTL0WwF9GY-j2spjhcmcO-tSHdDEzPJNj6ixwuIGtZshaPfjKswREEjPmrjT2QTwmka3qWd7ef3EvvjryUtI1l_enmcOuHr6AcI-6JQgNu89kbd1EH4GiShoiUEjvKp6TGIz-Uh8VKVY8nmW4IsXuX4g7cyWdvLdSHll4TGg738eKskYcU0XZD16Htf_4oH_1C0VkcOxWmK0_8f2n_Hel5bom7c4wD5L9XRhWN7AmRzXN7EiFNFrqsE7vMJJKP9iNKK72ml54SV3f7x-KeptF119ct_5xktDISSNK77w7zgNxEtgueEbg8c_fBqt08O4uqjIq0qEMV9F-ktHSE47Zrxag0h-L_u9ftUW1O4aLIRnSzGfS5a5pTH_Mxo6KnntIsMvMMQvqKFvB-bN7b5-UwM2tkCknNfoe7-6fHWnDvTTvhbbTFC1KHMHsxtGeppZsAx8OqzXGQwMQMM-Qx1GePMa6N-P5OPo3acCfiZX6zK5ig4yJeJ8E8nMf127BxnqMQQGSTSUeXovodWEW_]--></g></svg>