<?xml version="1.0" encoding="us-ascii" standalone="no"?><svg xmlns="http://www.w3.org/2000/svg" xmlns:xlink="http://www.w3.org/1999/xlink" contentStyleType="text/css" height="545px" preserveAspectRatio="none" style="width:680px;height:545px;background:#FFFFFF;" version="1.1" viewBox="0 0 680 545" width="680px" zoomAndPan="magnify"><defs/><g><!--cluster SmartHome--><g id="cluster_SmartHome"><rect fill="none" height="427" rx="2.5" ry="2.5" style="stroke:#181818;stroke-width:1.0;" width="635" x="39.5" y="112"/><rect fill="none" height="10" style="stroke:#181818;stroke-width:1.0;" width="15" x="654.5" y="117"/><rect fill="none" height="2" style="stroke:#181818;stroke-width:1.0;" width="4" x="652.5" y="119"/><rect fill="none" height="2" style="stroke:#181818;stroke-width:1.0;" width="4" x="652.5" y="123"/><text fill="#000000" font-family="sans-serif" font-size="14" font-style="italic" lengthAdjust="spacing" textLength="92" x="311" y="140.1074">&#171;system (C4)&#187;</text><text fill="#000000" font-family="sans-serif" font-size="14" font-style="italic" lengthAdjust="spacing" textLength="86" x="314" y="158.7285">&#171;component&#187;</text><text fill="#000000" font-family="sans-serif" font-size="14" font-weight="bold" lengthAdjust="spacing" textLength="80" x="317" y="177.3496">SmartHome</text></g><!--cluster Frontend--><g id="cluster_Frontend"><rect fill="none" height="196" rx="2.5" ry="2.5" style="stroke:#181818;stroke-width:1.0;" width="247" x="81.5" y="208"/><rect fill="none" height="10" style="stroke:#181818;stroke-width:1.0;" width="15" x="308.5" y="213"/><rect fill="none" height="2" style="stroke:#181818;stroke-width:1.0;" width="4" x="306.5" y="215"/><rect fill="none" height="2" style="stroke:#181818;stroke-width:1.0;" width="4" x="306.5" y="219"/><text fill="#000000" font-family="sans-serif" font-size="14" font-style="italic" lengthAdjust="spacing" textLength="107" x="151.5" y="236.1074">&#171;container (C4)&#187;</text><text fill="#000000" font-family="sans-serif" font-size="14" font-style="italic" lengthAdjust="spacing" textLength="86" x="162" y="254.7285">&#171;component&#187;</text><text fill="#000000" font-family="sans-serif" font-size="14" font-weight="bold" lengthAdjust="spacing" textLength="65" x="172.5" y="273.3496">Frontend</text></g><!--cluster Backend--><g id="cluster_Backend"><rect fill="none" height="164" rx="2.5" ry="2.5" style="stroke:#181818;stroke-width:1.0;" width="128" x="360.5" y="359"/><rect fill="none" height="10" style="stroke:#181818;stroke-width:1.0;" width="15" x="468.5" y="364"/><rect fill="none" height="2" style="stroke:#181818;stroke-width:1.0;" width="4" x="466.5" y="366"/><rect fill="none" height="2" style="stroke:#181818;stroke-width:1.0;" width="4" x="466.5" y="370"/><text fill="#000000" font-family="sans-serif" font-size="14" font-style="italic" lengthAdjust="spacing" textLength="107" x="371" y="387.1074">&#171;container (C4)&#187;</text><text fill="#000000" font-family="sans-serif" font-size="14" font-style="italic" lengthAdjust="spacing" textLength="86" x="381.5" y="405.7285">&#171;component&#187;</text><text fill="#000000" font-family="sans-serif" font-size="14" font-weight="bold" lengthAdjust="spacing" textLength="61" x="394" y="424.3496">Backend</text></g><!--cluster WeatherService--><g id="cluster_WeatherService"><rect fill="none" height="164" rx="2.5" ry="2.5" style="stroke:#181818;stroke-width:1.0;" width="133" x="525.5" y="359"/><rect fill="none" height="10" style="stroke:#181818;stroke-width:1.0;" width="15" x="638.5" y="364"/><rect fill="none" height="2" style="stroke:#181818;stroke-width:1.0;" width="4" x="636.5" y="366"/><rect fill="none" height="2" style="stroke:#181818;stroke-width:1.0;" width="4" x="636.5" y="370"/><text fill="#000000" font-family="sans-serif" font-size="14" font-style="italic" lengthAdjust="spacing" textLength="107" x="538.5" y="387.1074">&#171;container (C4)&#187;</text><text fill="#000000" font-family="sans-serif" font-size="14" font-style="italic" lengthAdjust="spacing" textLength="86" x="549" y="405.7285">&#171;component&#187;</text><text fill="#000000" font-family="sans-serif" font-size="14" font-weight="bold" lengthAdjust="spacing" textLength="113" x="535.5" y="424.3496">WeatherService</text></g><text fill="#000000" font-family="sans-serif" font-size="14" lengthAdjust="spacing" textLength="16" x="138.5" y="90.4863">p1</text><rect fill="#F1F1F1" height="12" style="stroke:#181818;stroke-width:1.5;" width="12" x="140.5" y="106"/><text fill="#000000" font-family="sans-serif" font-size="14" lengthAdjust="spacing" textLength="16" x="49.5" y="90.4863">p8</text><rect fill="#F1F1F1" height="12" style="stroke:#181818;stroke-width:1.5;" width="12" x="51.5" y="106"/><text fill="#000000" font-family="sans-serif" font-size="14" lengthAdjust="spacing" textLength="16" x="138.5" y="186.4863">p2</text><rect fill="#F1F1F1" height="12" style="stroke:#181818;stroke-width:1.5;" width="12" x="140.5" y="202"/><text fill="#000000" font-family="sans-serif" font-size="14" lengthAdjust="spacing" textLength="16" x="220.5" y="186.4863">p3</text><rect fill="#F1F1F1" height="12" style="stroke:#181818;stroke-width:1.5;" width="12" x="222.5" y="202"/><text fill="#000000" font-family="sans-serif" font-size="14" lengthAdjust="spacing" textLength="16" x="302.5" y="186.4863">p4</text><rect fill="#F1F1F1" height="12" style="stroke:#181818;stroke-width:1.5;" width="12" x="304.5" y="202"/><text fill="#000000" font-family="sans-serif" font-size="14" lengthAdjust="spacing" textLength="16" x="91.5" y="186.4863">p7</text><rect fill="#F1F1F1" height="12" style="stroke:#181818;stroke-width:1.5;" width="12" x="93.5" y="202"/><text fill="#000000" font-family="sans-serif" font-size="14" lengthAdjust="spacing" textLength="16" x="370.5" y="337.4863">p5</text><rect fill="#F1F1F1" height="12" style="stroke:#181818;stroke-width:1.5;" width="12" x="372.5" y="353"/><text fill="#000000" font-family="sans-serif" font-size="14" lengthAdjust="spacing" textLength="16" x="535.5" y="337.4863">p6</text><rect fill="#F1F1F1" height="12" style="stroke:#181818;stroke-width:1.5;" width="12" x="537.5" y="353"/><!--entity UI--><g id="elem_UI"><ellipse cx="152.5" cy="14" fill="#F1F1F1" rx="8" ry="8" style="stroke:#181818;stroke-width:0.5;"/><text fill="#000000" font-family="sans-serif" font-size="14" lengthAdjust="spacing" textLength="12" x="146.5" y="46.1074">UI</text></g><!--entity SunTimeAPI--><g id="elem_SunTimeAPI"><ellipse cx="44.5" cy="14" fill="#F1F1F1" rx="8" ry="8" style="stroke:#181818;stroke-width:0.5;"/><text fill="#000000" font-family="sans-serif" font-size="14" lengthAdjust="spacing" textLength="77" x="6" y="46.1074">SunTimeAPI</text></g><!--link UI to p1--><g id="link_UI_p1"><path d="M151.99,23.18 C150.79,42.41 147.81,90.02 146.82,105.81 " fill="none" id="UI-p1" style="stroke:#181818;stroke-width:1.0;"/></g><!--link p1 to p2--><g id="link_p1_p2"><path d="M146.5,118.05 C146.5,134.38 146.5,185.56 146.5,201.92 " fill="none" id="p1-p2" style="stroke:#181818;stroke-width:1.0;"/></g><!--link p3 to p5--><g id="link_p3_p5"><path d="M233.84,214.3 C257.22,237.53 350.44,330.13 373.38,352.91 " fill="none" id="p3-p5" style="stroke:#181818;stroke-width:1.0;"/><text fill="#000000" font-family="sans-serif" font-size="13" lengthAdjust="spacing" textLength="59" x="324.5" y="289.0283">REST API</text><path d="M303.7416,273.7738 A10,10 0 0 0 293.7751 283.8072" fill="none" style="stroke:#181818;stroke-width:1.5;"/><ellipse cx="303.775" cy="283.7737" fill="#FFFFFF" rx="6" ry="6" style="stroke:#181818;stroke-width:1.5;"/></g><!--link p4 to p6--><g id="link_p4_p6"><path d="M316.75,212.47 C340.64,225.8 428.2,275.29 496.5,322 C511.6,332.33 528.43,345.7 537.28,352.89 " fill="none" id="p4-p6" style="stroke:#181818;stroke-width:1.0;"/><text fill="#000000" font-family="sans-serif" font-size="13" lengthAdjust="spacing" textLength="47" x="469.5" y="289.0283">WS API</text><path d="M387.5094,245.0253 A10,10 0 0 0 380.279 257.1794" fill="none" style="stroke:#181818;stroke-width:1.5;"/><ellipse cx="389.9713" cy="254.7175" fill="#FFFFFF" rx="6" ry="6" style="stroke:#181818;stroke-width:1.5;"/></g><!--link p7 to p8--><g id="link_p7_p8"><path d="M98.44,201.75 C96.92,194.62 93.81,181.57 89.5,171 C81.16,150.56 67.33,128.15 60.94,118.23 " fill="none" id="p7-p8" style="stroke:#181818;stroke-width:1.0;"/></g><!--reverse link SunTimeAPI to p8--><g id="link_SunTimeAPI_p8"><path d="M46.9499,33.0898 C49.5499,52.3198 54.66,90.02 56.8,105.81 " fill="none" id="SunTimeAPI-backto-p8" style="stroke:#181818;stroke-width:1.0;"/><path d="M37.6415,27.3636 A9,9 0 0 0 54.4034 25.0973" fill="none" style="stroke:#181818;stroke-width:1.5;"/></g><!--SRC=[ZP5FIyD04CNl-HHpCpsiiMtwXn82LHHx4xVIyv8CDhIxEsmcYeZVlPkaf24gT61XtflXzs3sPizCvIgAwAWCL_fucraT-KVMe66H5-hTAHrq3aYj73zRZP0avLV9g25yY4TfcYJTKfh2Tn20BxAEWSQzVjaEBi0dPmsZoQ4665Q5GVSF4ixLaYO3FHteUA0NZVuPvj-hx71DV2__mfnrtY_k3XNlqKbq7qM6r-3_uCzxV9z0On0L2NZRD6rz0vg22EzyEuCLl3xABQnV_3G-ktFlxcJhBK3azjE8-XDesP12a9NP5XhhXU04]--></g></svg>