<?xml version="1.0" encoding="us-ascii" standalone="no"?><svg xmlns="http://www.w3.org/2000/svg" xmlns:xlink="http://www.w3.org/1999/xlink" contentStyleType="text/css" height="552px" preserveAspectRatio="none" style="width:954px;height:552px;background:#FFFFFF;" version="1.1" viewBox="0 0 954 552" width="954px" zoomAndPan="magnify"><defs/><g><!--class GetListOfRoomsController--><g id="elem_GetListOfRoomsController"><rect codeLine="5" fill="#F1F1F1" height="122.4844" id="GetListOfRoomsController" rx="2.5" ry="2.5" style="stroke:#181818;stroke-width:0.5;" width="360" x="415.5" y="12"/><ellipse cx="508.25" cy="28" fill="#ADD1B2" rx="11" ry="11" style="stroke:#181818;stroke-width:1.0;"/><path d="M511.0156,23.875 Q511.1719,23.6563 511.3594,23.5469 Q511.5469,23.4375 511.7656,23.4375 Q512.1406,23.4375 512.375,23.7031 Q512.6094,23.9531 512.6094,24.5625 L512.6094,26.0156 Q512.6094,26.625 512.375,26.8906 Q512.1406,27.1563 511.7656,27.1563 Q511.4219,27.1563 511.2188,26.9531 Q511.0156,26.7656 510.9063,26.25 Q510.8594,25.8906 510.6719,25.7031 Q510.3438,25.3281 509.7344,25.1094 Q509.125,24.8906 508.5,24.8906 Q507.7344,24.8906 507.0938,25.2188 Q506.4688,25.5469 505.9688,26.2969 Q505.4844,27.0469 505.4844,28.0781 L505.4844,29.1719 Q505.4844,30.4063 506.375,31.2344 Q507.2656,32.0469 508.8594,32.0469 Q509.7969,32.0469 510.4531,31.7969 Q510.8438,31.6406 511.2656,31.2031 Q511.5313,30.9375 511.6719,30.8594 Q511.8281,30.7813 512.0313,30.7813 Q512.3594,30.7813 512.6094,31.0469 Q512.875,31.2969 512.875,31.6406 Q512.875,31.9844 512.5313,32.3906 Q512.0313,32.9688 511.2344,33.2969 Q510.1563,33.75 508.8594,33.75 Q507.3438,33.75 506.1406,33.125 Q505.1563,32.625 504.4688,31.5625 Q503.7813,30.4844 503.7813,29.2031 L503.7813,28.0469 Q503.7813,26.7188 504.3906,25.5781 Q505.0156,24.4219 506.1094,23.8125 Q507.2031,23.1875 508.4375,23.1875 Q509.1719,23.1875 509.8125,23.3594 Q510.4688,23.5156 511.0156,23.875 Z " fill="#000000"/><text fill="#000000" font-family="sans-serif" font-size="14" lengthAdjust="spacing" textLength="166" x="528.75" y="33.7969">GetListOfRoomsController</text><line style="stroke:#181818;stroke-width:0.5;" x1="416.5" x2="774.5" y1="44" y2="44"/><rect fill="none" height="6" style="stroke:#C82930;stroke-width:1.0;" width="6" x="423.5" y="55.8105"/><text fill="#000000" font-family="sans-serif" font-size="14" lengthAdjust="spacing" textLength="99" x="435.5" y="63.1074">_house : House</text><line style="stroke:#181818;stroke-width:0.5;" x1="416.5" x2="774.5" y1="70.6211" y2="70.6211"/><ellipse cx="426.5" cy="85.4316" fill="#84BE84" rx="3" ry="3" style="stroke:#038048;stroke-width:1.0;"/><text fill="#000000" font-family="sans-serif" font-size="14" lengthAdjust="spacing" textLength="259" x="435.5" y="89.7285">GetListOfRoomsController(house:House)</text><rect fill="#F24D5C" height="6" style="stroke:#C82930;stroke-width:1.0;" width="6" x="423.5" y="101.0527"/><text fill="#000000" font-family="sans-serif" font-size="14" lengthAdjust="spacing" textLength="334" x="435.5" y="108.3496">isValidConstructorArguments(house:house): boolean</text><ellipse cx="426.5" cy="122.6738" fill="#84BE84" rx="3" ry="3" style="stroke:#038048;stroke-width:1.0;"/><text fill="#000000" font-family="sans-serif" font-size="14" lengthAdjust="spacing" textLength="161" x="435.5" y="126.9707">getRooms() : List&lt;Room&gt;</text></g><!--class RoomAssembler--><g id="elem_RoomAssembler"><rect codeLine="15" fill="#F1F1F1" height="103.8633" id="RoomAssembler" rx="2.5" ry="2.5" style="stroke:#181818;stroke-width:0.5;" width="459" x="6" y="217"/><ellipse cx="179.75" cy="233" fill="#ADD1B2" rx="11" ry="11" style="stroke:#181818;stroke-width:1.0;"/><path d="M182.5156,228.875 Q182.6719,228.6563 182.8594,228.5469 Q183.0469,228.4375 183.2656,228.4375 Q183.6406,228.4375 183.875,228.7031 Q184.1094,228.9531 184.1094,229.5625 L184.1094,231.0156 Q184.1094,231.625 183.875,231.8906 Q183.6406,232.1563 183.2656,232.1563 Q182.9219,232.1563 182.7188,231.9531 Q182.5156,231.7656 182.4063,231.25 Q182.3594,230.8906 182.1719,230.7031 Q181.8438,230.3281 181.2344,230.1094 Q180.625,229.8906 180,229.8906 Q179.2344,229.8906 178.5938,230.2188 Q177.9688,230.5469 177.4688,231.2969 Q176.9844,232.0469 176.9844,233.0781 L176.9844,234.1719 Q176.9844,235.4063 177.875,236.2344 Q178.7656,237.0469 180.3594,237.0469 Q181.2969,237.0469 181.9531,236.7969 Q182.3438,236.6406 182.7656,236.2031 Q183.0313,235.9375 183.1719,235.8594 Q183.3281,235.7813 183.5313,235.7813 Q183.8594,235.7813 184.1094,236.0469 Q184.375,236.2969 184.375,236.6406 Q184.375,236.9844 184.0313,237.3906 Q183.5313,237.9688 182.7344,238.2969 Q181.6563,238.75 180.3594,238.75 Q178.8438,238.75 177.6406,238.125 Q176.6563,237.625 175.9688,236.5625 Q175.2813,235.4844 175.2813,234.2031 L175.2813,233.0469 Q175.2813,231.7188 175.8906,230.5781 Q176.5156,229.4219 177.6094,228.8125 Q178.7031,228.1875 179.9375,228.1875 Q180.6719,228.1875 181.3125,228.3594 Q181.9688,228.5156 182.5156,228.875 Z " fill="#000000"/><text fill="#000000" font-family="sans-serif" font-size="14" lengthAdjust="spacing" textLength="103" x="200.25" y="238.7969">RoomAssembler</text><line style="stroke:#181818;stroke-width:0.5;" x1="7" x2="464" y1="249" y2="249"/><line style="stroke:#181818;stroke-width:0.5;" x1="7" x2="464" y1="257" y2="257"/><ellipse cx="17" cy="271.8105" fill="#84BE84" rx="3" ry="3" style="stroke:#038048;stroke-width:1.0;"/><text fill="#000000" font-family="sans-serif" font-size="14" lengthAdjust="spacing" textLength="299" x="26" y="276.1074">&#171;static&#187; domain2DTO(room: Room): RoomDTO</text><ellipse cx="17" cy="290.4316" fill="#84BE84" rx="3" ry="3" style="stroke:#038048;stroke-width:1.0;"/><text fill="#000000" font-family="sans-serif" font-size="14" lengthAdjust="spacing" textLength="382" x="26" y="294.7285">&#171;static&#187; domain2DTO(List&lt;Room&gt; rooms): List &lt;RoomDTO&gt;</text><ellipse cx="17" cy="309.0527" fill="#84BE84" rx="3" ry="3" style="stroke:#038048;stroke-width:1.0;"/><text fill="#000000" font-family="sans-serif" font-size="14" lengthAdjust="spacing" textLength="433" x="26" y="313.3496">&#171;static&#187; domain2Map(rooms: List&lt;Room&gt;): Map &lt;RoomDTO, Room&gt;</text></g><!--class House--><g id="elem_House"><rect codeLine="23" fill="#F1F1F1" height="159.7266" id="House" rx="2.5" ry="2.5" style="stroke:#181818;stroke-width:0.5;" width="464" x="483.5" y="189"/><ellipse cx="691.25" cy="205" fill="#ADD1B2" rx="11" ry="11" style="stroke:#181818;stroke-width:1.0;"/><path d="M694.0156,200.875 Q694.1719,200.6563 694.3594,200.5469 Q694.5469,200.4375 694.7656,200.4375 Q695.1406,200.4375 695.375,200.7031 Q695.6094,200.9531 695.6094,201.5625 L695.6094,203.0156 Q695.6094,203.625 695.375,203.8906 Q695.1406,204.1563 694.7656,204.1563 Q694.4219,204.1563 694.2188,203.9531 Q694.0156,203.7656 693.9063,203.25 Q693.8594,202.8906 693.6719,202.7031 Q693.3438,202.3281 692.7344,202.1094 Q692.125,201.8906 691.5,201.8906 Q690.7344,201.8906 690.0938,202.2188 Q689.4688,202.5469 688.9688,203.2969 Q688.4844,204.0469 688.4844,205.0781 L688.4844,206.1719 Q688.4844,207.4063 689.375,208.2344 Q690.2656,209.0469 691.8594,209.0469 Q692.7969,209.0469 693.4531,208.7969 Q693.8438,208.6406 694.2656,208.2031 Q694.5313,207.9375 694.6719,207.8594 Q694.8281,207.7813 695.0313,207.7813 Q695.3594,207.7813 695.6094,208.0469 Q695.875,208.2969 695.875,208.6406 Q695.875,208.9844 695.5313,209.3906 Q695.0313,209.9688 694.2344,210.2969 Q693.1563,210.75 691.8594,210.75 Q690.3438,210.75 689.1406,210.125 Q688.1563,209.625 687.4688,208.5625 Q686.7813,207.4844 686.7813,206.2031 L686.7813,205.0469 Q686.7813,203.7188 687.3906,202.5781 Q688.0156,201.4219 689.1094,200.8125 Q690.2031,200.1875 691.4375,200.1875 Q692.1719,200.1875 692.8125,200.3594 Q693.4688,200.5156 694.0156,200.875 Z " fill="#000000"/><text fill="#000000" font-family="sans-serif" font-size="14" lengthAdjust="spacing" textLength="40" x="711.75" y="210.7969">House</text><line style="stroke:#181818;stroke-width:0.5;" x1="484.5" x2="946.5" y1="221" y2="221"/><rect fill="none" height="6" style="stroke:#C82930;stroke-width:1.0;" width="6" x="491.5" y="232.8105"/><text fill="#000000" font-family="sans-serif" font-size="14" lengthAdjust="spacing" textLength="219" x="503.5" y="240.1074">_locationFactory : LocationFactory</text><rect fill="none" height="6" style="stroke:#C82930;stroke-width:1.0;" width="6" x="491.5" y="251.4316"/><text fill="#000000" font-family="sans-serif" font-size="14" lengthAdjust="spacing" textLength="185" x="503.5" y="258.7285">_roomFactory : RoomFactory</text><rect fill="none" height="6" style="stroke:#C82930;stroke-width:1.0;" width="6" x="491.5" y="270.0527"/><text fill="#000000" font-family="sans-serif" font-size="14" lengthAdjust="spacing" textLength="123" x="503.5" y="277.3496">_location : Location</text><rect fill="none" height="6" style="stroke:#C82930;stroke-width:1.0;" width="6" x="491.5" y="288.6738"/><text fill="#000000" font-family="sans-serif" font-size="14" lengthAdjust="spacing" textLength="134" x="503.5" y="295.9707">_rooms : List&lt;Room&gt;</text><line style="stroke:#181818;stroke-width:0.5;" x1="484.5" x2="946.5" y1="303.4844" y2="303.4844"/><ellipse cx="494.5" cy="318.2949" fill="#84BE84" rx="3" ry="3" style="stroke:#038048;stroke-width:1.0;"/><text fill="#000000" font-family="sans-serif" font-size="14" lengthAdjust="spacing" textLength="438" x="503.5" y="322.5918">House(locationFactory: LocationFactory, roomFactory: RoomFactory)</text><ellipse cx="494.5" cy="336.916" fill="#84BE84" rx="3" ry="3" style="stroke:#038048;stroke-width:1.0;"/><text fill="#000000" font-family="sans-serif" font-size="14" lengthAdjust="spacing" textLength="161" x="503.5" y="341.2129">getRooms() : List&lt;Room&gt;</text></g><!--class RoomDTO--><g id="elem_RoomDTO"><rect codeLine="35" fill="#F1F1F1" height="141.1055" id="RoomDTO" rx="2.5" ry="2.5" style="stroke:#181818;stroke-width:0.5;" width="180" x="145.5" y="404"/><ellipse cx="197.75" cy="420" fill="#ADD1B2" rx="11" ry="11" style="stroke:#181818;stroke-width:1.0;"/><path d="M200.5156,415.875 Q200.6719,415.6563 200.8594,415.5469 Q201.0469,415.4375 201.2656,415.4375 Q201.6406,415.4375 201.875,415.7031 Q202.1094,415.9531 202.1094,416.5625 L202.1094,418.0156 Q202.1094,418.625 201.875,418.8906 Q201.6406,419.1563 201.2656,419.1563 Q200.9219,419.1563 200.7188,418.9531 Q200.5156,418.7656 200.4063,418.25 Q200.3594,417.8906 200.1719,417.7031 Q199.8438,417.3281 199.2344,417.1094 Q198.625,416.8906 198,416.8906 Q197.2344,416.8906 196.5938,417.2188 Q195.9688,417.5469 195.4688,418.2969 Q194.9844,419.0469 194.9844,420.0781 L194.9844,421.1719 Q194.9844,422.4063 195.875,423.2344 Q196.7656,424.0469 198.3594,424.0469 Q199.2969,424.0469 199.9531,423.7969 Q200.3438,423.6406 200.7656,423.2031 Q201.0313,422.9375 201.1719,422.8594 Q201.3281,422.7813 201.5313,422.7813 Q201.8594,422.7813 202.1094,423.0469 Q202.375,423.2969 202.375,423.6406 Q202.375,423.9844 202.0313,424.3906 Q201.5313,424.9688 200.7344,425.2969 Q199.6563,425.75 198.3594,425.75 Q196.8438,425.75 195.6406,425.125 Q194.6563,424.625 193.9688,423.5625 Q193.2813,422.4844 193.2813,421.2031 L193.2813,420.0469 Q193.2813,418.7188 193.8906,417.5781 Q194.5156,416.4219 195.6094,415.8125 Q196.7031,415.1875 197.9375,415.1875 Q198.6719,415.1875 199.3125,415.3594 Q199.9688,415.5156 200.5156,415.875 Z " fill="#000000"/><text fill="#000000" font-family="sans-serif" font-size="14" lengthAdjust="spacing" textLength="67" x="218.25" y="425.7969">RoomDTO</text><line style="stroke:#181818;stroke-width:0.5;" x1="146.5" x2="324.5" y1="436" y2="436"/><ellipse cx="156.5" cy="450.8105" fill="none" rx="3" ry="3" style="stroke:#038048;stroke-width:1.0;"/><text fill="#000000" font-family="sans-serif" font-size="14" lengthAdjust="spacing" textLength="84" x="165.5" y="455.1074">name : String</text><ellipse cx="156.5" cy="469.4316" fill="none" rx="3" ry="3" style="stroke:#038048;stroke-width:1.0;"/><text fill="#000000" font-family="sans-serif" font-size="14" lengthAdjust="spacing" textLength="149" x="165.5" y="473.7285">dimensions : Dimension</text><ellipse cx="156.5" cy="488.0527" fill="none" rx="3" ry="3" style="stroke:#038048;stroke-width:1.0;"/><text fill="#000000" font-family="sans-serif" font-size="14" lengthAdjust="spacing" textLength="55" x="165.5" y="492.3496">floor : int</text><ellipse cx="156.5" cy="506.6738" fill="none" rx="3" ry="3" style="stroke:#038048;stroke-width:1.0;"/><text fill="#000000" font-family="sans-serif" font-size="14" lengthAdjust="spacing" textLength="88" x="165.5" y="510.9707">roomID : UUID</text><line style="stroke:#181818;stroke-width:0.5;" x1="146.5" x2="324.5" y1="518.4844" y2="518.4844"/><ellipse cx="156.5" cy="533.2949" fill="#84BE84" rx="3" ry="3" style="stroke:#038048;stroke-width:1.0;"/><text fill="#000000" font-family="sans-serif" font-size="14" lengthAdjust="spacing" textLength="154" x="165.5" y="537.5918">RoomDTO(room: Room)</text></g><polygon fill="#181818" points="666.6089,188.9594,665.2763,179.2012,663.9787,184.7072,658.4727,183.4096,666.6089,188.9594" style="stroke:#181818;stroke-width:1.0;"/><path d="M632.6469,134.0542 C643.385,151.4141 652.1148,165.5273 663.4526,183.8567 " fill="none" style="stroke:#181818;stroke-width:1.0;stroke-dasharray:7.0,7.0;"/><text fill="#000000" font-family="sans-serif" font-size="13" lengthAdjust="spacing" textLength="28" x="656.5" y="167.0283">uses</text><text fill="#000000" font-family="sans-serif" font-size="13" lengthAdjust="spacing" textLength="7" x="658.6089" y="184.9878">1</text><text fill="#000000" font-family="sans-serif" font-size="13" lengthAdjust="spacing" textLength="7" x="624.6469" y="149.0826">1</text><polygon fill="#181818" points="235.5,403.9321,239.5,394.9321,235.5,398.9321,231.5,394.9321,235.5,403.9321" style="stroke:#181818;stroke-width:1.0;"/><path d="M235.5,321.089 C235.5,346.1667 235.5,370.7565 235.5,397.9321 " fill="none" style="stroke:#181818;stroke-width:1.0;stroke-dasharray:7.0,7.0;"/><text fill="#000000" font-family="sans-serif" font-size="13" lengthAdjust="spacing" textLength="43" x="236.5" y="382.0283">creates</text><text fill="#000000" font-family="sans-serif" font-size="13" lengthAdjust="spacing" textLength="7" x="227.5" y="399.9605">1</text><text fill="#000000" font-family="sans-serif" font-size="13" lengthAdjust="spacing" textLength="7" x="227.5" y="336.1173">1</text><polygon fill="#181818" points="330.3427,216.8903,340.1631,216.142,334.7443,214.5183,336.368,209.0995,330.3427,216.8903" style="stroke:#181818;stroke-width:1.0;"/><path d="M484.0592,134.0542 C434.8088,160.5947 382.7894,188.6274 335.6246,214.044 " fill="none" style="stroke:#181818;stroke-width:1.0;stroke-dasharray:7.0,7.0;"/><text fill="#000000" font-family="sans-serif" font-size="13" lengthAdjust="spacing" textLength="28" x="449.5" y="167.0283">uses</text><text fill="#000000" font-family="sans-serif" font-size="13" lengthAdjust="spacing" textLength="7" x="322.3427" y="212.9186">1</text><text fill="#000000" font-family="sans-serif" font-size="13" lengthAdjust="spacing" textLength="7" x="485.0592" y="149.0826">1</text><!--SRC=[ZL9DQyCm3BtxLtYxj25hotOC9L1MzW4RWtrTYvfugS4VnL8EO-o_J_RIDUbMsCL6ifxUqxD66w8j5hFPre2ZrfffvUsiCe0ugJKq0QmusGPeB4W3xxubYLOHE112f39vhUXE8psyFNflyT8x2juO5UI762s8Wbwtf70a9gkDRr79Gjx4MuZHlQADh_afFzPZd2150cHYel4LZAxv7Icq5Vcm24rhbIFiAjEP5NBjlL7WHDueIZt76HD7ZdaCI_6van_31QAoQ-Rx6AYIypaIaAxAKjRUWdONo-U7SM14aN3PzyN9eyLxIXbnc7shaFCEMFw9l8Tjei6-PePo_WTv9WycIIxzSbskZA-uktTN41rxZpuCCx4eikqB7lTHlqCFkiFWqDQ-VKdF-83z5_cPx54FcBD__XvxSJXrxi36JNlYb6j4NcjU4cJIA7Uv2qJ-PhmFdDAEH1vrt2uvUdcvNGucwLZwFnyb7Dtyq_DJEPsMwRxfbfvF58Db6vJj1Yba5HJm4F_hFcpOiNm1]--></g></svg>