<?xml version="1.0" encoding="us-ascii" standalone="no"?><svg xmlns="http://www.w3.org/2000/svg" xmlns:xlink="http://www.w3.org/1999/xlink" contentStyleType="text/css" height="576px" preserveAspectRatio="none" style="width:1202px;height:576px;background:#FFFFFF;" version="1.1" viewBox="0 0 1202 576" width="1202px" zoomAndPan="magnify"><defs/><g><!--class GetListOfRoomsController--><g id="elem_GetListOfRoomsController"><rect codeLine="3" fill="#F1F1F1" height="122.4844" id="GetListOfRoomsController" rx="2.5" ry="2.5" style="stroke:#181818;stroke-width:0.5;" width="597" x="325" y="7"/><ellipse cx="536.25" cy="23" fill="#ADD1B2" rx="11" ry="11" style="stroke:#181818;stroke-width:1.0;"/><path d="M539.0156,18.875 Q539.1719,18.6563 539.3594,18.5469 Q539.5469,18.4375 539.7656,18.4375 Q540.1406,18.4375 540.375,18.7031 Q540.6094,18.9531 540.6094,19.5625 L540.6094,21.0156 Q540.6094,21.625 540.375,21.8906 Q540.1406,22.1563 539.7656,22.1563 Q539.4219,22.1563 539.2188,21.9531 Q539.0156,21.7656 538.9063,21.25 Q538.8594,20.8906 538.6719,20.7031 Q538.3438,20.3281 537.7344,20.1094 Q537.125,19.8906 536.5,19.8906 Q535.7344,19.8906 535.0938,20.2188 Q534.4688,20.5469 533.9688,21.2969 Q533.4844,22.0469 533.4844,23.0781 L533.4844,24.1719 Q533.4844,25.4063 534.375,26.2344 Q535.2656,27.0469 536.8594,27.0469 Q537.7969,27.0469 538.4531,26.7969 Q538.8438,26.6406 539.2656,26.2031 Q539.5313,25.9375 539.6719,25.8594 Q539.8281,25.7813 540.0313,25.7813 Q540.3594,25.7813 540.6094,26.0469 Q540.875,26.2969 540.875,26.6406 Q540.875,26.9844 540.5313,27.3906 Q540.0313,27.9688 539.2344,28.2969 Q538.1563,28.75 536.8594,28.75 Q535.3438,28.75 534.1406,28.125 Q533.1563,27.625 532.4688,26.5625 Q531.7813,25.4844 531.7813,24.2031 L531.7813,23.0469 Q531.7813,21.7188 532.3906,20.5781 Q533.0156,19.4219 534.1094,18.8125 Q535.2031,18.1875 536.4375,18.1875 Q537.1719,18.1875 537.8125,18.3594 Q538.4688,18.5156 539.0156,18.875 Z " fill="#000000"/><text fill="#000000" font-family="sans-serif" font-size="14" lengthAdjust="spacing" textLength="166" x="556.75" y="28.7969">GetListOfRoomsController</text><line style="stroke:#181818;stroke-width:0.5;" x1="326" x2="921" y1="39" y2="39"/><rect fill="none" height="6" style="stroke:#C82930;stroke-width:1.0;" width="6" x="333" y="50.8105"/><text fill="#000000" font-family="sans-serif" font-size="14" lengthAdjust="spacing" textLength="179" x="345" y="58.1074">_roomService: RoomService</text><rect fill="none" height="6" style="stroke:#C82930;stroke-width:1.0;" width="6" x="333" y="69.4316"/><text fill="#000000" font-family="sans-serif" font-size="14" lengthAdjust="spacing" textLength="217" x="345" y="76.7285">_roomAssembler: RoomAssembler</text><line style="stroke:#181818;stroke-width:0.5;" x1="326" x2="921" y1="84.2422" y2="84.2422"/><ellipse cx="336" cy="99.0527" fill="#84BE84" rx="3" ry="3" style="stroke:#038048;stroke-width:1.0;"/><text fill="#000000" font-family="sans-serif" font-size="14" lengthAdjust="spacing" textLength="571" x="345" y="103.3496">GetListOfRoomsController(serviceRoom: ServiceRoom, roomAssembler : RoomAssembler)</text><ellipse cx="336" cy="117.6738" fill="#84BE84" rx="3" ry="3" style="stroke:#038048;stroke-width:1.0;"/><text fill="#000000" font-family="sans-serif" font-size="14" lengthAdjust="spacing" textLength="187" x="345" y="121.9707">getRooms(): List&lt;RoomDTO&gt;</text></g><!--class RoomService--><g id="elem_RoomService"><rect codeLine="12" fill="#F1F1F1" height="141.1055" id="RoomService" rx="2.5" ry="2.5" style="stroke:#181818;stroke-width:0.5;" width="677" x="7" y="208"/><ellipse cx="299.25" cy="224" fill="#ADD1B2" rx="11" ry="11" style="stroke:#181818;stroke-width:1.0;"/><path d="M302.0156,219.875 Q302.1719,219.6563 302.3594,219.5469 Q302.5469,219.4375 302.7656,219.4375 Q303.1406,219.4375 303.375,219.7031 Q303.6094,219.9531 303.6094,220.5625 L303.6094,222.0156 Q303.6094,222.625 303.375,222.8906 Q303.1406,223.1563 302.7656,223.1563 Q302.4219,223.1563 302.2188,222.9531 Q302.0156,222.7656 301.9063,222.25 Q301.8594,221.8906 301.6719,221.7031 Q301.3438,221.3281 300.7344,221.1094 Q300.125,220.8906 299.5,220.8906 Q298.7344,220.8906 298.0938,221.2188 Q297.4688,221.5469 296.9688,222.2969 Q296.4844,223.0469 296.4844,224.0781 L296.4844,225.1719 Q296.4844,226.4063 297.375,227.2344 Q298.2656,228.0469 299.8594,228.0469 Q300.7969,228.0469 301.4531,227.7969 Q301.8438,227.6406 302.2656,227.2031 Q302.5313,226.9375 302.6719,226.8594 Q302.8281,226.7813 303.0313,226.7813 Q303.3594,226.7813 303.6094,227.0469 Q303.875,227.2969 303.875,227.6406 Q303.875,227.9844 303.5313,228.3906 Q303.0313,228.9688 302.2344,229.2969 Q301.1563,229.75 299.8594,229.75 Q298.3438,229.75 297.1406,229.125 Q296.1563,228.625 295.4688,227.5625 Q294.7813,226.4844 294.7813,225.2031 L294.7813,224.0469 Q294.7813,222.7188 295.3906,221.5781 Q296.0156,220.4219 297.1094,219.8125 Q298.2031,219.1875 299.4375,219.1875 Q300.1719,219.1875 300.8125,219.3594 Q301.4688,219.5156 302.0156,219.875 Z " fill="#000000"/><text fill="#000000" font-family="sans-serif" font-size="14" lengthAdjust="spacing" textLength="84" x="319.75" y="229.7969">RoomService</text><line style="stroke:#181818;stroke-width:0.5;" x1="8" x2="683" y1="240" y2="240"/><rect fill="none" height="6" style="stroke:#C82930;stroke-width:1.0;" width="6" x="15" y="251.8105"/><text fill="#000000" font-family="sans-serif" font-size="14" lengthAdjust="spacing" textLength="181" x="27" y="259.1074">_factoryRoom: RoomFactory</text><rect fill="none" height="6" style="stroke:#C82930;stroke-width:1.0;" width="6" x="15" y="270.4316"/><text fill="#000000" font-family="sans-serif" font-size="14" lengthAdjust="spacing" textLength="187" x="27" y="277.7285">_roomRepo: RoomRepository</text><rect fill="none" height="6" style="stroke:#C82930;stroke-width:1.0;" width="6" x="15" y="289.0527"/><text fill="#000000" font-family="sans-serif" font-size="14" lengthAdjust="spacing" textLength="197" x="27" y="296.3496">_houseRepo: HouseRepository</text><line style="stroke:#181818;stroke-width:0.5;" x1="8" x2="683" y1="303.8633" y2="303.8633"/><ellipse cx="18" cy="318.6738" fill="#84BE84" rx="3" ry="3" style="stroke:#038048;stroke-width:1.0;"/><text fill="#000000" font-family="sans-serif" font-size="14" lengthAdjust="spacing" textLength="651" x="27" y="322.9707">RoomService(factoryRoom: RoomFactory, roomRepo: RoomRepository, houseRepo: HouseRepository)</text><ellipse cx="18" cy="337.2949" fill="#84BE84" rx="3" ry="3" style="stroke:#038048;stroke-width:1.0;"/><text fill="#000000" font-family="sans-serif" font-size="14" lengthAdjust="spacing" textLength="157" x="27" y="341.5918">getRooms(): List&lt;Room&gt;</text></g><!--class RoomRepository--><g id="elem_RoomRepository"><rect codeLine="23" fill="#F1F1F1" height="85.2422" id="RoomRepository" rx="2.5" ry="2.5" style="stroke:#181818;stroke-width:0.5;" width="221" x="235" y="456"/><ellipse cx="288.75" cy="472" fill="#ADD1B2" rx="11" ry="11" style="stroke:#181818;stroke-width:1.0;"/><path d="M291.5156,467.875 Q291.6719,467.6563 291.8594,467.5469 Q292.0469,467.4375 292.2656,467.4375 Q292.6406,467.4375 292.875,467.7031 Q293.1094,467.9531 293.1094,468.5625 L293.1094,470.0156 Q293.1094,470.625 292.875,470.8906 Q292.6406,471.1563 292.2656,471.1563 Q291.9219,471.1563 291.7188,470.9531 Q291.5156,470.7656 291.4063,470.25 Q291.3594,469.8906 291.1719,469.7031 Q290.8438,469.3281 290.2344,469.1094 Q289.625,468.8906 289,468.8906 Q288.2344,468.8906 287.5938,469.2188 Q286.9688,469.5469 286.4688,470.2969 Q285.9844,471.0469 285.9844,472.0781 L285.9844,473.1719 Q285.9844,474.4063 286.875,475.2344 Q287.7656,476.0469 289.3594,476.0469 Q290.2969,476.0469 290.9531,475.7969 Q291.3438,475.6406 291.7656,475.2031 Q292.0313,474.9375 292.1719,474.8594 Q292.3281,474.7813 292.5313,474.7813 Q292.8594,474.7813 293.1094,475.0469 Q293.375,475.2969 293.375,475.6406 Q293.375,475.9844 293.0313,476.3906 Q292.5313,476.9688 291.7344,477.2969 Q290.6563,477.75 289.3594,477.75 Q287.8438,477.75 286.6406,477.125 Q285.6563,476.625 284.9688,475.5625 Q284.2813,474.4844 284.2813,473.2031 L284.2813,472.0469 Q284.2813,470.7188 284.8906,469.5781 Q285.5156,468.4219 286.6094,467.8125 Q287.7031,467.1875 288.9375,467.1875 Q289.6719,467.1875 290.3125,467.3594 Q290.9688,467.5156 291.5156,467.875 Z " fill="#000000"/><text fill="#000000" font-family="sans-serif" font-size="14" lengthAdjust="spacing" textLength="105" x="309.25" y="477.7969">RoomRepository</text><line style="stroke:#181818;stroke-width:0.5;" x1="236" x2="455" y1="488" y2="488"/><rect fill="none" height="6" style="stroke:#C82930;stroke-width:1.0;" width="6" x="243" y="499.8105"/><text fill="#000000" font-family="sans-serif" font-size="14" lengthAdjust="spacing" textLength="195" x="255" y="507.1074">_DATA: Map &lt;RoomID, Room&gt;</text><line style="stroke:#181818;stroke-width:0.5;" x1="236" x2="455" y1="514.6211" y2="514.6211"/><ellipse cx="246" cy="529.4316" fill="#84BE84" rx="3" ry="3" style="stroke:#038048;stroke-width:1.0;"/><text fill="#000000" font-family="sans-serif" font-size="14" lengthAdjust="spacing" textLength="131" x="255" y="533.7285">findAll(): List&lt;Room&gt;</text></g><!--class RoomAssembler--><g id="elem_RoomAssembler"><rect codeLine="30" fill="#F1F1F1" height="66.6211" id="RoomAssembler" rx="2.5" ry="2.5" style="stroke:#181818;stroke-width:0.5;" width="364" x="719.5" y="245"/><ellipse cx="845.75" cy="261" fill="#ADD1B2" rx="11" ry="11" style="stroke:#181818;stroke-width:1.0;"/><path d="M848.5156,256.875 Q848.6719,256.6563 848.8594,256.5469 Q849.0469,256.4375 849.2656,256.4375 Q849.6406,256.4375 849.875,256.7031 Q850.1094,256.9531 850.1094,257.5625 L850.1094,259.0156 Q850.1094,259.625 849.875,259.8906 Q849.6406,260.1563 849.2656,260.1563 Q848.9219,260.1563 848.7188,259.9531 Q848.5156,259.7656 848.4063,259.25 Q848.3594,258.8906 848.1719,258.7031 Q847.8438,258.3281 847.2344,258.1094 Q846.625,257.8906 846,257.8906 Q845.2344,257.8906 844.5938,258.2188 Q843.9688,258.5469 843.4688,259.2969 Q842.9844,260.0469 842.9844,261.0781 L842.9844,262.1719 Q842.9844,263.4063 843.875,264.2344 Q844.7656,265.0469 846.3594,265.0469 Q847.2969,265.0469 847.9531,264.7969 Q848.3438,264.6406 848.7656,264.2031 Q849.0313,263.9375 849.1719,263.8594 Q849.3281,263.7813 849.5313,263.7813 Q849.8594,263.7813 850.1094,264.0469 Q850.375,264.2969 850.375,264.6406 Q850.375,264.9844 850.0313,265.3906 Q849.5313,265.9688 848.7344,266.2969 Q847.6563,266.75 846.3594,266.75 Q844.8438,266.75 843.6406,266.125 Q842.6563,265.625 841.9688,264.5625 Q841.2813,263.4844 841.2813,262.2031 L841.2813,261.0469 Q841.2813,259.7188 841.8906,258.5781 Q842.5156,257.4219 843.6094,256.8125 Q844.7031,256.1875 845.9375,256.1875 Q846.6719,256.1875 847.3125,256.3594 Q847.9688,256.5156 848.5156,256.875 Z " fill="#000000"/><text fill="#000000" font-family="sans-serif" font-size="14" lengthAdjust="spacing" textLength="103" x="866.25" y="266.7969">RoomAssembler</text><line style="stroke:#181818;stroke-width:0.5;" x1="720.5" x2="1082.5" y1="277" y2="277"/><line style="stroke:#181818;stroke-width:0.5;" x1="720.5" x2="1082.5" y1="285" y2="285"/><ellipse cx="730.5" cy="299.8105" fill="#84BE84" rx="3" ry="3" style="stroke:#038048;stroke-width:1.0;"/><text fill="#000000" font-family="sans-serif" font-size="14" lengthAdjust="spacing" textLength="338" x="739.5" y="304.1074">domainToDTO(rooms: List&lt;Room&gt;): List&lt;RoomDTO&gt;</text></g><!--class RoomDTO--><g id="elem_RoomDTO"><rect codeLine="35" fill="#F1F1F1" height="141.1055" id="RoomDTO" rx="2.5" ry="2.5" style="stroke:#181818;stroke-width:0.5;" width="587" x="608" y="428"/><ellipse cx="863.75" cy="444" fill="#ADD1B2" rx="11" ry="11" style="stroke:#181818;stroke-width:1.0;"/><path d="M866.5156,439.875 Q866.6719,439.6563 866.8594,439.5469 Q867.0469,439.4375 867.2656,439.4375 Q867.6406,439.4375 867.875,439.7031 Q868.1094,439.9531 868.1094,440.5625 L868.1094,442.0156 Q868.1094,442.625 867.875,442.8906 Q867.6406,443.1563 867.2656,443.1563 Q866.9219,443.1563 866.7188,442.9531 Q866.5156,442.7656 866.4063,442.25 Q866.3594,441.8906 866.1719,441.7031 Q865.8438,441.3281 865.2344,441.1094 Q864.625,440.8906 864,440.8906 Q863.2344,440.8906 862.5938,441.2188 Q861.9688,441.5469 861.4688,442.2969 Q860.9844,443.0469 860.9844,444.0781 L860.9844,445.1719 Q860.9844,446.4063 861.875,447.2344 Q862.7656,448.0469 864.3594,448.0469 Q865.2969,448.0469 865.9531,447.7969 Q866.3438,447.6406 866.7656,447.2031 Q867.0313,446.9375 867.1719,446.8594 Q867.3281,446.7813 867.5313,446.7813 Q867.8594,446.7813 868.1094,447.0469 Q868.375,447.2969 868.375,447.6406 Q868.375,447.9844 868.0313,448.3906 Q867.5313,448.9688 866.7344,449.2969 Q865.6563,449.75 864.3594,449.75 Q862.8438,449.75 861.6406,449.125 Q860.6563,448.625 859.9688,447.5625 Q859.2813,446.4844 859.2813,445.2031 L859.2813,444.0469 Q859.2813,442.7188 859.8906,441.5781 Q860.5156,440.4219 861.6094,439.8125 Q862.7031,439.1875 863.9375,439.1875 Q864.6719,439.1875 865.3125,439.3594 Q865.9688,439.5156 866.5156,439.875 Z " fill="#000000"/><text fill="#000000" font-family="sans-serif" font-size="14" lengthAdjust="spacing" textLength="67" x="884.25" y="449.7969">RoomDTO</text><line style="stroke:#181818;stroke-width:0.5;" x1="609" x2="1194" y1="460" y2="460"/><ellipse cx="619" cy="474.8105" fill="none" rx="3" ry="3" style="stroke:#038048;stroke-width:1.0;"/><text fill="#000000" font-family="sans-serif" font-size="14" lengthAdjust="spacing" textLength="90" x="628" y="479.1074">roomID: String</text><ellipse cx="619" cy="493.4316" fill="none" rx="3" ry="3" style="stroke:#038048;stroke-width:1.0;"/><text fill="#000000" font-family="sans-serif" font-size="14" lengthAdjust="spacing" textLength="113" x="628" y="497.7285">roomName: String</text><ellipse cx="619" cy="512.0527" fill="none" rx="3" ry="3" style="stroke:#038048;stroke-width:1.0;"/><text fill="#000000" font-family="sans-serif" font-size="14" lengthAdjust="spacing" textLength="116" x="628" y="516.3496">dimensions: String</text><ellipse cx="619" cy="530.6738" fill="none" rx="3" ry="3" style="stroke:#038048;stroke-width:1.0;"/><text fill="#000000" font-family="sans-serif" font-size="14" lengthAdjust="spacing" textLength="73" x="628" y="534.9707">floor: String</text><line style="stroke:#181818;stroke-width:0.5;" x1="609" x2="1194" y1="542.4844" y2="542.4844"/><ellipse cx="619" cy="557.2949" fill="#84BE84" rx="3" ry="3" style="stroke:#038048;stroke-width:1.0;"/><text fill="#000000" font-family="sans-serif" font-size="14" lengthAdjust="spacing" textLength="561" x="628" y="561.5918">RoomDTO(roomName: String, roomDimension : String, roomFloor: String, roomID: String)</text></g><!--link GetListOfRoomsController to RoomService--><g id="link_GetListOfRoomsController_RoomService"><path codeLine="46" d="M543.46,129.03 C510.58,153.69 477.0898,178.7998 442.9998,204.3698 " fill="none" id="GetListOfRoomsController-to-RoomService" style="stroke:#181818;stroke-width:1.0;stroke-dasharray:7.0,7.0;"/><polygon fill="#181818" points="438.2,207.97,447.7999,205.7695,442.1999,204.9698,442.9996,199.3698,438.2,207.97" style="stroke:#181818;stroke-width:1.0;"/><text fill="#000000" font-family="sans-serif" font-size="13" lengthAdjust="spacing" textLength="28" x="502.5" y="174.0283">uses</text><text fill="#000000" font-family="sans-serif" font-size="13" lengthAdjust="spacing" textLength="7" x="526.2786" y="151.5205">1</text><text fill="#000000" font-family="sans-serif" font-size="13" lengthAdjust="spacing" textLength="7" x="440.3988" y="196.8579">1</text></g><!--link RoomService to RoomRepository--><g id="link_RoomService_RoomRepository"><path codeLine="47" d="M345.5,349.08 C345.5,384.22 345.5,419.67 345.5,449.83 " fill="none" id="RoomService-to-RoomRepository" style="stroke:#181818;stroke-width:1.0;stroke-dasharray:7.0,7.0;"/><polygon fill="#181818" points="345.5,455.83,349.5,446.83,345.5,450.83,341.5,446.83,345.5,455.83" style="stroke:#181818;stroke-width:1.0;"/><text fill="#000000" font-family="sans-serif" font-size="13" lengthAdjust="spacing" textLength="28" x="346.5" y="394.0283">uses</text><text fill="#000000" font-family="sans-serif" font-size="13" lengthAdjust="spacing" textLength="7" x="338.1391" y="371.273">1</text><text fill="#000000" font-family="sans-serif" font-size="13" lengthAdjust="spacing" textLength="7" x="337.9422" y="444.707">1</text></g><!--link GetListOfRoomsController to RoomAssembler--><g id="link_GetListOfRoomsController_RoomAssembler"><path codeLine="48" d="M703.54,129.03 C753.74,166.68 811.7499,210.1902 852.9799,241.1102 " fill="none" id="GetListOfRoomsController-to-RoomAssembler" style="stroke:#181818;stroke-width:1.0;stroke-dasharray:7.0,7.0;"/><polygon fill="#181818" points="857.78,244.71,852.9797,236.1102,853.7799,241.7102,848.1799,242.5104,857.78,244.71" style="stroke:#181818;stroke-width:1.0;"/><text fill="#000000" font-family="sans-serif" font-size="13" lengthAdjust="spacing" textLength="28" x="763.5" y="174.0283">uses</text><text fill="#000000" font-family="sans-serif" font-size="13" lengthAdjust="spacing" textLength="7" x="705.8683" y="151.5205">1</text><text fill="#000000" font-family="sans-serif" font-size="13" lengthAdjust="spacing" textLength="7" x="841.7787" y="233.7406">1</text></g><!--link RoomAssembler to RoomDTO--><g id="link_RoomAssembler_RoomDTO"><path codeLine="49" d="M901.5,312.14 C901.5,342.54 901.5,382.88 901.5,421.62 " fill="none" id="RoomAssembler-to-RoomDTO" style="stroke:#181818;stroke-width:1.0;stroke-dasharray:7.0,7.0;"/><polygon fill="#181818" points="901.5,427.62,905.5,418.62,901.5,422.62,897.5,418.62,901.5,427.62" style="stroke:#181818;stroke-width:1.0;"/><text fill="#000000" font-family="sans-serif" font-size="13" lengthAdjust="spacing" textLength="43" x="902.5" y="394.0283">creates</text><text fill="#000000" font-family="sans-serif" font-size="13" lengthAdjust="spacing" textLength="7" x="893.8766" y="333.7342">1</text><text fill="#000000" font-family="sans-serif" font-size="13" lengthAdjust="spacing" textLength="20" x="880.5156" y="416.8435">1..*</text></g><!--SRC=[ZLFHQiCW57ttAwGlITSsPQzX5C92jy6wGjRtOHFJ2Xg3si4e-_TfhD4sozXBuZtNUyuzNesEIhKoNIvRYXfrOZGfELkM54cvg0Ww2CG0w4BuXDKhaMfR5vmp-SWR9JYbM9n1b2aboFwai8p00du8lU4TYqzIuXGMFd2vJ4hCzhhKPliGH1kiZhpIBBCnjLXQBWEdyDq7StX53M-ufs1smAeZYwSfDDmF9iftsnNuTXw3PeUsQbGgBhwiilckBU1i5RZbDc5MahZSaPyajibdjxna0yE1T3ocP3t-fZE7uofZrZlVWN5VCVIUPxiiXHlKmgxq9Pz3In4ug4bJPPGEDRn4FuvpM5XnXaYputeMiJ4eGuA_XwMHcsPdekjFtmsDDGSRlo66FL8HXXj9U2CzLbFEHH_U3iPr5lBOOUIE2rxZwv3FGhwfgJ4nTiFXv7u2asJL_OlmAUcfIX0WWvr-WfVD_zO8dcIluj-ItvqaTnDty2ai1KRwqC4F]--></g></svg>