<?xml version="1.0" encoding="us-ascii" standalone="no"?><svg xmlns="http://www.w3.org/2000/svg" xmlns:xlink="http://www.w3.org/1999/xlink" contentStyleType="text/css" height="870px" preserveAspectRatio="none" style="width:1412px;height:870px;background:#FFFFFF;" version="1.1" viewBox="0 0 1412 870" width="1412px" zoomAndPan="magnify"><defs/><g><!--class SensorType--><g id="elem_SensorType"><rect codeLine="3" fill="#F1F1F1" height="206.8906" id="SensorType" rx="2.5" ry="2.5" style="stroke:#181818;stroke-width:0.5;" width="245" x="297.5" y="657"/><ellipse cx="377.25" cy="687.2715" fill="#ADD1B2" rx="11" ry="11" style="stroke:#181818;stroke-width:1.0;"/><path d="M380.0156,683.1465 Q380.1719,682.9277 380.3594,682.8184 Q380.5469,682.709 380.7656,682.709 Q381.1406,682.709 381.375,682.9746 Q381.6094,683.2246 381.6094,683.834 L381.6094,685.2871 Q381.6094,685.8965 381.375,686.1621 Q381.1406,686.4277 380.7656,686.4277 Q380.4219,686.4277 380.2188,686.2246 Q380.0156,686.0371 379.9063,685.5215 Q379.8594,685.1621 379.6719,684.9746 Q379.3438,684.5996 378.7344,684.3809 Q378.125,684.1621 377.5,684.1621 Q376.7344,684.1621 376.0938,684.4902 Q375.4688,684.8184 374.9688,685.5684 Q374.4844,686.3184 374.4844,687.3496 L374.4844,688.4434 Q374.4844,689.6777 375.375,690.5059 Q376.2656,691.3184 377.8594,691.3184 Q378.7969,691.3184 379.4531,691.0684 Q379.8438,690.9121 380.2656,690.4746 Q380.5313,690.209 380.6719,690.1309 Q380.8281,690.0527 381.0313,690.0527 Q381.3594,690.0527 381.6094,690.3184 Q381.875,690.5684 381.875,690.9121 Q381.875,691.2559 381.5313,691.6621 Q381.0313,692.2402 380.2344,692.5684 Q379.1563,693.0215 377.8594,693.0215 Q376.3438,693.0215 375.1406,692.3965 Q374.1563,691.8965 373.4688,690.834 Q372.7813,689.7559 372.7813,688.4746 L372.7813,687.3184 Q372.7813,685.9902 373.3906,684.8496 Q374.0156,683.6934 375.1094,683.084 Q376.2031,682.459 377.4375,682.459 Q378.1719,682.459 378.8125,682.6309 Q379.4688,682.7871 380.0156,683.1465 Z " fill="#000000"/><text fill="#000000" font-family="sans-serif" font-size="12" font-style="italic" lengthAdjust="spacing" textLength="43" x="414.75" y="674.9492">&#171;entity&#187;</text><text fill="#000000" font-family="sans-serif" font-size="12" font-style="italic" lengthAdjust="spacing" textLength="35" x="418.75" y="690.9102">&#171;root&#187;</text><text fill="#000000" font-family="sans-serif" font-size="14" lengthAdjust="spacing" textLength="77" x="397.75" y="709.0293">SensorType</text><line style="stroke:#181818;stroke-width:0.5;" x1="298.5" x2="541.5" y1="717.543" y2="717.543"/><rect fill="none" height="6" style="stroke:#C82930;stroke-width:1.0;" width="6" x="305.5" y="729.3535"/><text fill="#000000" font-family="sans-serif" font-size="14" lengthAdjust="spacing" textLength="83" x="317.5" y="736.6504">_id: sensorID</text><rect fill="none" height="6" style="stroke:#C82930;stroke-width:1.0;" width="6" x="305.5" y="747.9746"/><text fill="#000000" font-family="sans-serif" font-size="14" lengthAdjust="spacing" textLength="156" x="317.5" y="755.2715">_description: Description</text><rect fill="none" height="6" style="stroke:#C82930;stroke-width:1.0;" width="6" x="305.5" y="766.5957"/><text fill="#000000" font-family="sans-serif" font-size="14" lengthAdjust="spacing" textLength="89" x="317.5" y="773.8926">_unitID: UnitID</text><line style="stroke:#181818;stroke-width:0.5;" x1="298.5" x2="541.5" y1="781.4063" y2="781.4063"/><ellipse cx="308.5" cy="796.2168" fill="#84BE84" rx="3" ry="3" style="stroke:#038048;stroke-width:1.0;"/><text fill="#000000" font-family="sans-serif" font-size="14" lengthAdjust="spacing" textLength="219" x="317.5" y="800.5137">SensorType(id, description, unitID)</text><ellipse cx="308.5" cy="814.8379" fill="#84BE84" rx="3" ry="3" style="stroke:#038048;stroke-width:1.0;"/><text fill="#000000" font-family="sans-serif" font-size="14" lengthAdjust="spacing" textLength="84" x="317.5" y="819.1348">getId(): string</text><ellipse cx="308.5" cy="833.459" fill="#84BE84" rx="3" ry="3" style="stroke:#038048;stroke-width:1.0;"/><text fill="#000000" font-family="sans-serif" font-size="14" lengthAdjust="spacing" textLength="180" x="317.5" y="837.7559">getDescription(): Description</text><ellipse cx="308.5" cy="852.0801" fill="#84BE84" rx="3" ry="3" style="stroke:#038048;stroke-width:1.0;"/><text fill="#000000" font-family="sans-serif" font-size="14" lengthAdjust="spacing" textLength="86" x="317.5" y="856.377">getUnit(): Unit</text></g><!--class SensorTypeFactory--><g id="elem_SensorTypeFactory"><rect codeLine="13" fill="#F1F1F1" height="79.2031" id="SensorTypeFactory" rx="2.5" ry="2.5" style="stroke:#181818;stroke-width:0.5;" width="501" x="428.5" y="513.5"/><ellipse cx="612.25" cy="535.791" fill="#ADD1B2" rx="11" ry="11" style="stroke:#181818;stroke-width:1.0;"/><path d="M615.0156,531.666 Q615.1719,531.4473 615.3594,531.3379 Q615.5469,531.2285 615.7656,531.2285 Q616.1406,531.2285 616.375,531.4941 Q616.6094,531.7441 616.6094,532.3535 L616.6094,533.8066 Q616.6094,534.416 616.375,534.6816 Q616.1406,534.9473 615.7656,534.9473 Q615.4219,534.9473 615.2188,534.7441 Q615.0156,534.5566 614.9063,534.041 Q614.8594,533.6816 614.6719,533.4941 Q614.3438,533.1191 613.7344,532.9004 Q613.125,532.6816 612.5,532.6816 Q611.7344,532.6816 611.0938,533.0098 Q610.4688,533.3379 609.9688,534.0879 Q609.4844,534.8379 609.4844,535.8691 L609.4844,536.9629 Q609.4844,538.1973 610.375,539.0254 Q611.2656,539.8379 612.8594,539.8379 Q613.7969,539.8379 614.4531,539.5879 Q614.8438,539.4316 615.2656,538.9941 Q615.5313,538.7285 615.6719,538.6504 Q615.8281,538.5723 616.0313,538.5723 Q616.3594,538.5723 616.6094,538.8379 Q616.875,539.0879 616.875,539.4316 Q616.875,539.7754 616.5313,540.1816 Q616.0313,540.7598 615.2344,541.0879 Q614.1563,541.541 612.8594,541.541 Q611.3438,541.541 610.1406,540.916 Q609.1563,540.416 608.4688,539.3535 Q607.7813,538.2754 607.7813,536.9941 L607.7813,535.8379 Q607.7813,534.5098 608.3906,533.3691 Q609.0156,532.2129 610.1094,531.6035 Q611.2031,530.9785 612.4375,530.9785 Q613.1719,530.9785 613.8125,531.1504 Q614.4688,531.3066 615.0156,531.666 Z " fill="#000000"/><text fill="#000000" font-family="sans-serif" font-size="12" font-style="italic" lengthAdjust="spacing" textLength="54" x="668.25" y="531.4492">&#171;Factory&#187;</text><text fill="#000000" font-family="sans-serif" font-size="14" lengthAdjust="spacing" textLength="125" x="632.75" y="549.5684">SensorTypeFactory</text><line style="stroke:#181818;stroke-width:0.5;" x1="429.5" x2="928.5" y1="558.082" y2="558.082"/><line style="stroke:#181818;stroke-width:0.5;" x1="429.5" x2="928.5" y1="566.082" y2="566.082"/><ellipse cx="439.5" cy="580.8926" fill="#84BE84" rx="3" ry="3" style="stroke:#038048;stroke-width:1.0;"/><text fill="#000000" font-family="sans-serif" font-size="14" lengthAdjust="spacing" textLength="475" x="448.5" y="585.1895">createNewSensorType(description: Description, unitID: UnitID): SensorType</text></g><!--class SensorTypeRepository--><g id="elem_SensorTypeRepository"><rect codeLine="17" fill="#F1F1F1" height="97.8242" id="SensorTypeRepository" rx="2.5" ry="2.5" style="stroke:#181818;stroke-width:0.5;" width="311" x="99.5" y="504"/><ellipse cx="178.25" cy="526.291" fill="#ADD1B2" rx="11" ry="11" style="stroke:#181818;stroke-width:1.0;"/><path d="M181.0156,522.166 Q181.1719,521.9473 181.3594,521.8379 Q181.5469,521.7285 181.7656,521.7285 Q182.1406,521.7285 182.375,521.9941 Q182.6094,522.2441 182.6094,522.8535 L182.6094,524.3066 Q182.6094,524.916 182.375,525.1816 Q182.1406,525.4473 181.7656,525.4473 Q181.4219,525.4473 181.2188,525.2441 Q181.0156,525.0566 180.9063,524.541 Q180.8594,524.1816 180.6719,523.9941 Q180.3438,523.6191 179.7344,523.4004 Q179.125,523.1816 178.5,523.1816 Q177.7344,523.1816 177.0938,523.5098 Q176.4688,523.8379 175.9688,524.5879 Q175.4844,525.3379 175.4844,526.3691 L175.4844,527.4629 Q175.4844,528.6973 176.375,529.5254 Q177.2656,530.3379 178.8594,530.3379 Q179.7969,530.3379 180.4531,530.0879 Q180.8438,529.9316 181.2656,529.4941 Q181.5313,529.2285 181.6719,529.1504 Q181.8281,529.0723 182.0313,529.0723 Q182.3594,529.0723 182.6094,529.3379 Q182.875,529.5879 182.875,529.9316 Q182.875,530.2754 182.5313,530.6816 Q182.0313,531.2598 181.2344,531.5879 Q180.1563,532.041 178.8594,532.041 Q177.3438,532.041 176.1406,531.416 Q175.1563,530.916 174.4688,529.8535 Q173.7813,528.7754 173.7813,527.4941 L173.7813,526.3379 Q173.7813,525.0098 174.3906,523.8691 Q175.0156,522.7129 176.1094,522.1035 Q177.2031,521.4785 178.4375,521.4785 Q179.1719,521.4785 179.8125,521.6504 Q180.4688,521.8066 181.0156,522.166 Z " fill="#000000"/><text fill="#000000" font-family="sans-serif" font-size="12" font-style="italic" lengthAdjust="spacing" textLength="73" x="234.75" y="521.9492">&#171;Repository&#187;</text><text fill="#000000" font-family="sans-serif" font-size="14" lengthAdjust="spacing" textLength="145" x="198.75" y="540.0684">SensorTypeRepository</text><line style="stroke:#181818;stroke-width:0.5;" x1="100.5" x2="409.5" y1="548.582" y2="548.582"/><rect fill="none" height="6" style="stroke:#C82930;stroke-width:1.0;" width="6" x="107.5" y="560.3926"/><text fill="#000000" font-family="sans-serif" font-size="14" lengthAdjust="spacing" textLength="235" x="119.5" y="567.6895">_map&lt;ID, SensorType&gt; sensorTypes</text><line style="stroke:#181818;stroke-width:0.5;" x1="100.5" x2="409.5" y1="575.2031" y2="575.2031"/><ellipse cx="110.5" cy="590.0137" fill="#84BE84" rx="3" ry="3" style="stroke:#038048;stroke-width:1.0;"/><text fill="#000000" font-family="sans-serif" font-size="14" lengthAdjust="spacing" textLength="285" x="119.5" y="594.3105">save(sensorType: SensorType): SensorType</text></g><!--class SensorTypeService--><g id="elem_SensorTypeService"><rect codeLine="21" fill="#F1F1F1" height="190.9297" id="SensorTypeService" rx="2.5" ry="2.5" style="stroke:#181818;stroke-width:0.5;" width="533" x="412.5" y="258"/><ellipse cx="612.75" cy="280.291" fill="#ADD1B2" rx="11" ry="11" style="stroke:#181818;stroke-width:1.0;"/><path d="M615.5156,276.166 Q615.6719,275.9473 615.8594,275.8379 Q616.0469,275.7285 616.2656,275.7285 Q616.6406,275.7285 616.875,275.9941 Q617.1094,276.2441 617.1094,276.8535 L617.1094,278.3066 Q617.1094,278.916 616.875,279.1816 Q616.6406,279.4473 616.2656,279.4473 Q615.9219,279.4473 615.7188,279.2441 Q615.5156,279.0566 615.4063,278.541 Q615.3594,278.1816 615.1719,277.9941 Q614.8438,277.6191 614.2344,277.4004 Q613.625,277.1816 613,277.1816 Q612.2344,277.1816 611.5938,277.5098 Q610.9688,277.8379 610.4688,278.5879 Q609.9844,279.3379 609.9844,280.3691 L609.9844,281.4629 Q609.9844,282.6973 610.875,283.5254 Q611.7656,284.3379 613.3594,284.3379 Q614.2969,284.3379 614.9531,284.0879 Q615.3438,283.9316 615.7656,283.4941 Q616.0313,283.2285 616.1719,283.1504 Q616.3281,283.0723 616.5313,283.0723 Q616.8594,283.0723 617.1094,283.3379 Q617.375,283.5879 617.375,283.9316 Q617.375,284.2754 617.0313,284.6816 Q616.5313,285.2598 615.7344,285.5879 Q614.6563,286.041 613.3594,286.041 Q611.8438,286.041 610.6406,285.416 Q609.6563,284.916 608.9688,283.8535 Q608.2813,282.7754 608.2813,281.4941 L608.2813,280.3379 Q608.2813,279.0098 608.8906,277.8691 Q609.5156,276.7129 610.6094,276.1035 Q611.7031,275.4785 612.9375,275.4785 Q613.6719,275.4785 614.3125,275.6504 Q614.9688,275.8066 615.5156,276.166 Z " fill="#000000"/><text fill="#000000" font-family="sans-serif" font-size="12" font-style="italic" lengthAdjust="spacing" textLength="55" x="667.75" y="275.9492">&#171;Service&#187;</text><text fill="#000000" font-family="sans-serif" font-size="14" lengthAdjust="spacing" textLength="124" x="633.25" y="294.0684">SensorTypeService</text><line style="stroke:#181818;stroke-width:0.5;" x1="413.5" x2="944.5" y1="302.582" y2="302.582"/><rect fill="none" height="6" style="stroke:#C82930;stroke-width:1.0;" width="6" x="420.5" y="314.3926"/><text fill="#000000" font-family="sans-serif" font-size="14" lengthAdjust="spacing" textLength="304" x="432.5" y="321.6895">_sensorTypeRepository: SensorTypeRepository</text><rect fill="none" height="6" style="stroke:#C82930;stroke-width:1.0;" width="6" x="420.5" y="333.0137"/><text fill="#000000" font-family="sans-serif" font-size="14" lengthAdjust="spacing" textLength="264" x="432.5" y="340.3105">_sensorTypeFactory: SensorTypeFactory</text><rect fill="none" height="6" style="stroke:#C82930;stroke-width:1.0;" width="6" x="420.5" y="351.6348"/><text fill="#000000" font-family="sans-serif" font-size="14" lengthAdjust="spacing" textLength="199" x="432.5" y="358.9316">_unitRepository: UnitRepository</text><line style="stroke:#181818;stroke-width:0.5;" x1="413.5" x2="944.5" y1="366.4453" y2="366.4453"/><ellipse cx="423.5" cy="381.2559" fill="#84BE84" rx="3" ry="3" style="stroke:#038048;stroke-width:1.0;"/><text fill="#000000" font-family="sans-serif" font-size="14" lengthAdjust="spacing" textLength="507" x="432.5" y="385.5527">SensorTypeService(sensorTypeRepository, sensorTypeFactory, unitRepository)</text><ellipse cx="423.5" cy="399.877" fill="#84BE84" rx="3" ry="3" style="stroke:#038048;stroke-width:1.0;"/><text fill="#000000" font-family="sans-serif" font-size="14" lengthAdjust="spacing" textLength="449" x="432.5" y="404.1738">createSensorType(description: Description, unitID: UnitID): SensorType</text><ellipse cx="423.5" cy="418.498" fill="#84BE84" rx="3" ry="3" style="stroke:#038048;stroke-width:1.0;"/><text fill="#000000" font-family="sans-serif" font-size="14" lengthAdjust="spacing" textLength="212" x="432.5" y="422.7949">getAllSupportedUnits(): List&lt;Unit&gt;</text><ellipse cx="423.5" cy="437.1191" fill="#84BE84" rx="3" ry="3" style="stroke:#038048;stroke-width:1.0;"/><text fill="#000000" font-family="sans-serif" font-size="14" lengthAdjust="spacing" textLength="362" x="432.5" y="441.416">saveSensorType(sensorType: SensorType): SensorType</text></g><!--class UnitRepository--><g id="elem_UnitRepository"><rect codeLine="30" fill="#F1F1F1" height="97.8242" id="UnitRepository" rx="2.5" ry="2.5" style="stroke:#181818;stroke-width:0.5;" width="156" x="948" y="504"/><ellipse cx="977.4" cy="526.291" fill="#ADD1B2" rx="11" ry="11" style="stroke:#181818;stroke-width:1.0;"/><path d="M980.1656,522.166 Q980.3219,521.9473 980.5094,521.8379 Q980.6969,521.7285 980.9156,521.7285 Q981.2906,521.7285 981.525,521.9941 Q981.7594,522.2441 981.7594,522.8535 L981.7594,524.3066 Q981.7594,524.916 981.525,525.1816 Q981.2906,525.4473 980.9156,525.4473 Q980.5719,525.4473 980.3688,525.2441 Q980.1656,525.0566 980.0563,524.541 Q980.0094,524.1816 979.8219,523.9941 Q979.4938,523.6191 978.8844,523.4004 Q978.275,523.1816 977.65,523.1816 Q976.8844,523.1816 976.2438,523.5098 Q975.6188,523.8379 975.1188,524.5879 Q974.6344,525.3379 974.6344,526.3691 L974.6344,527.4629 Q974.6344,528.6973 975.525,529.5254 Q976.4156,530.3379 978.0094,530.3379 Q978.9469,530.3379 979.6031,530.0879 Q979.9938,529.9316 980.4156,529.4941 Q980.6813,529.2285 980.8219,529.1504 Q980.9781,529.0723 981.1813,529.0723 Q981.5094,529.0723 981.7594,529.3379 Q982.025,529.5879 982.025,529.9316 Q982.025,530.2754 981.6813,530.6816 Q981.1813,531.2598 980.3844,531.5879 Q979.3063,532.041 978.0094,532.041 Q976.4938,532.041 975.2906,531.416 Q974.3063,530.916 973.6188,529.8535 Q972.9313,528.7754 972.9313,527.4941 L972.9313,526.3379 Q972.9313,525.0098 973.5406,523.8691 Q974.1656,522.7129 975.2594,522.1035 Q976.3531,521.4785 977.5875,521.4785 Q978.3219,521.4785 978.9625,521.6504 Q979.6188,521.8066 980.1656,522.166 Z " fill="#000000"/><text fill="#000000" font-family="sans-serif" font-size="12" font-style="italic" lengthAdjust="spacing" textLength="73" x="1004.1" y="521.9492">&#171;Repository&#187;</text><text fill="#000000" font-family="sans-serif" font-size="14" lengthAdjust="spacing" textLength="92" x="994.6" y="540.0684">UnitRepository</text><line style="stroke:#181818;stroke-width:0.5;" x1="949" x2="1103" y1="548.582" y2="548.582"/><rect fill="none" height="6" style="stroke:#C82930;stroke-width:1.0;" width="6" x="956" y="560.3926"/><text fill="#000000" font-family="sans-serif" font-size="14" lengthAdjust="spacing" textLength="130" x="968" y="567.6895">_map&lt;ID, Unit&gt; units</text><ellipse cx="959" cy="582.0137" fill="none" rx="3" ry="3" style="stroke:#038048;stroke-width:1.0;"/><text fill="#000000" font-family="sans-serif" font-size="14" lengthAdjust="spacing" textLength="70" x="968" y="586.3105">findAll: Unit</text><line style="stroke:#181818;stroke-width:0.5;" x1="949" x2="1103" y1="593.8242" y2="593.8242"/></g><!--class Unit--><g id="elem_Unit"><rect codeLine="34" fill="#F1F1F1" height="135.0664" id="Unit" rx="2.5" ry="2.5" style="stroke:#181818;stroke-width:0.5;" width="182" x="935" y="693"/><ellipse cx="1002.25" cy="715.291" fill="#ADD1B2" rx="11" ry="11" style="stroke:#181818;stroke-width:1.0;"/><path d="M1005.0156,711.166 Q1005.1719,710.9473 1005.3594,710.8379 Q1005.5469,710.7285 1005.7656,710.7285 Q1006.1406,710.7285 1006.375,710.9941 Q1006.6094,711.2441 1006.6094,711.8535 L1006.6094,713.3066 Q1006.6094,713.916 1006.375,714.1816 Q1006.1406,714.4473 1005.7656,714.4473 Q1005.4219,714.4473 1005.2188,714.2441 Q1005.0156,714.0566 1004.9063,713.541 Q1004.8594,713.1816 1004.6719,712.9941 Q1004.3438,712.6191 1003.7344,712.4004 Q1003.125,712.1816 1002.5,712.1816 Q1001.7344,712.1816 1001.0938,712.5098 Q1000.4688,712.8379 999.9688,713.5879 Q999.4844,714.3379 999.4844,715.3691 L999.4844,716.4629 Q999.4844,717.6973 1000.375,718.5254 Q1001.2656,719.3379 1002.8594,719.3379 Q1003.7969,719.3379 1004.4531,719.0879 Q1004.8438,718.9316 1005.2656,718.4941 Q1005.5313,718.2285 1005.6719,718.1504 Q1005.8281,718.0723 1006.0313,718.0723 Q1006.3594,718.0723 1006.6094,718.3379 Q1006.875,718.5879 1006.875,718.9316 Q1006.875,719.2754 1006.5313,719.6816 Q1006.0313,720.2598 1005.2344,720.5879 Q1004.1563,721.041 1002.8594,721.041 Q1001.3438,721.041 1000.1406,720.416 Q999.1563,719.916 998.4688,718.8535 Q997.7813,717.7754 997.7813,716.4941 L997.7813,715.3379 Q997.7813,714.0098 998.3906,712.8691 Q999.0156,711.7129 1000.1094,711.1035 Q1001.2031,710.4785 1002.4375,710.4785 Q1003.1719,710.4785 1003.8125,710.6504 Q1004.4688,710.8066 1005.0156,711.166 Z " fill="#000000"/><text fill="#000000" font-family="sans-serif" font-size="12" font-style="italic" lengthAdjust="spacing" textLength="43" x="1020.75" y="710.9492">&#171;entity&#187;</text><text fill="#000000" font-family="sans-serif" font-size="14" lengthAdjust="spacing" textLength="24" x="1030.25" y="729.0684">Unit</text><line style="stroke:#181818;stroke-width:0.5;" x1="936" x2="1116" y1="737.582" y2="737.582"/><rect fill="none" height="6" style="stroke:#C82930;stroke-width:1.0;" width="6" x="943" y="749.3926"/><text fill="#000000" font-family="sans-serif" font-size="14" lengthAdjust="spacing" textLength="64" x="955" y="756.6895">_id: UnitID</text><rect fill="none" height="6" style="stroke:#C82930;stroke-width:1.0;" width="6" x="943" y="768.0137"/><text fill="#000000" font-family="sans-serif" font-size="14" lengthAdjust="spacing" textLength="156" x="955" y="775.3105">_description: Description</text><rect fill="none" height="6" style="stroke:#C82930;stroke-width:1.0;" width="6" x="943" y="786.6348"/><text fill="#000000" font-family="sans-serif" font-size="14" lengthAdjust="spacing" textLength="63" x="955" y="793.9316">_unit: Unit</text><line style="stroke:#181818;stroke-width:0.5;" x1="936" x2="1116" y1="801.4453" y2="801.4453"/><ellipse cx="946" cy="816.2559" fill="#84BE84" rx="3" ry="3" style="stroke:#038048;stroke-width:1.0;"/><text fill="#000000" font-family="sans-serif" font-size="14" lengthAdjust="spacing" textLength="153" x="955" y="820.5527">Unit(id, description, unit)</text></g><!--class AddSensorTypeController--><g id="elem_AddSensorTypeController"><rect codeLine="40" fill="#F1F1F1" height="190.9297" id="AddSensorTypeController" rx="2.5" ry="2.5" style="stroke:#181818;stroke-width:0.5;" width="646" x="356" y="12"/><ellipse cx="592.75" cy="34.291" fill="#ADD1B2" rx="11" ry="11" style="stroke:#181818;stroke-width:1.0;"/><path d="M595.5156,30.166 Q595.6719,29.9473 595.8594,29.8379 Q596.0469,29.7285 596.2656,29.7285 Q596.6406,29.7285 596.875,29.9941 Q597.1094,30.2441 597.1094,30.8535 L597.1094,32.3066 Q597.1094,32.916 596.875,33.1816 Q596.6406,33.4473 596.2656,33.4473 Q595.9219,33.4473 595.7188,33.2441 Q595.5156,33.0566 595.4063,32.541 Q595.3594,32.1816 595.1719,31.9941 Q594.8438,31.6191 594.2344,31.4004 Q593.625,31.1816 593,31.1816 Q592.2344,31.1816 591.5938,31.5098 Q590.9688,31.8379 590.4688,32.5879 Q589.9844,33.3379 589.9844,34.3691 L589.9844,35.4629 Q589.9844,36.6973 590.875,37.5254 Q591.7656,38.3379 593.3594,38.3379 Q594.2969,38.3379 594.9531,38.0879 Q595.3438,37.9316 595.7656,37.4941 Q596.0313,37.2285 596.1719,37.1504 Q596.3281,37.0723 596.5313,37.0723 Q596.8594,37.0723 597.1094,37.3379 Q597.375,37.5879 597.375,37.9316 Q597.375,38.2754 597.0313,38.6816 Q596.5313,39.2598 595.7344,39.5879 Q594.6563,40.041 593.3594,40.041 Q591.8438,40.041 590.6406,39.416 Q589.6563,38.916 588.9688,37.8535 Q588.2813,36.7754 588.2813,35.4941 L588.2813,34.3379 Q588.2813,33.0098 588.8906,31.8691 Q589.5156,30.7129 590.6094,30.1035 Q591.7031,29.4785 592.9375,29.4785 Q593.6719,29.4785 594.3125,29.6504 Q594.9688,29.8066 595.5156,30.166 Z " fill="#000000"/><text fill="#000000" font-family="sans-serif" font-size="12" font-style="italic" lengthAdjust="spacing" textLength="68" x="661.25" y="29.9492">&#171;Controller&#187;</text><text fill="#000000" font-family="sans-serif" font-size="14" lengthAdjust="spacing" textLength="164" x="613.25" y="48.0684">AddSensorTypeController</text><line style="stroke:#181818;stroke-width:0.5;" x1="357" x2="1001" y1="56.582" y2="56.582"/><rect fill="none" height="6" style="stroke:#C82930;stroke-width:1.0;" width="6" x="364" y="68.3926"/><text fill="#000000" font-family="sans-serif" font-size="14" lengthAdjust="spacing" textLength="262" x="376" y="75.6895">_sensorTypeService: SensorTypeService</text><rect fill="none" height="6" style="stroke:#C82930;stroke-width:1.0;" width="6" x="364" y="87.0137"/><text fill="#000000" font-family="sans-serif" font-size="14" lengthAdjust="spacing" textLength="300" x="376" y="94.3105">_sensorTypeAssembler: SensorTypeAssembler</text><rect fill="none" height="6" style="stroke:#C82930;stroke-width:1.0;" width="6" x="364" y="105.6348"/><text fill="#000000" font-family="sans-serif" font-size="14" lengthAdjust="spacing" textLength="195" x="376" y="112.9316">_unitAssembler: UnitAssembler</text><rect fill="none" height="6" style="stroke:#C82930;stroke-width:1.0;" width="6" x="364" y="124.2559"/><text fill="#000000" font-family="sans-serif" font-size="14" lengthAdjust="spacing" textLength="157" x="376" y="131.5527">_unitService: UnitService</text><line style="stroke:#181818;stroke-width:0.5;" x1="357" x2="1001" y1="139.0664" y2="139.0664"/><ellipse cx="367" cy="153.877" fill="#84BE84" rx="3" ry="3" style="stroke:#038048;stroke-width:1.0;"/><text fill="#000000" font-family="sans-serif" font-size="14" lengthAdjust="spacing" textLength="620" x="376" y="158.1738">AddSensorTypeController(sensorTypeServiceImpl, sensorTypeAssembler, unitAssembler, unitServiceImpl)</text><ellipse cx="367" cy="172.498" fill="#84BE84" rx="3" ry="3" style="stroke:#038048;stroke-width:1.0;"/><text fill="#000000" font-family="sans-serif" font-size="14" lengthAdjust="spacing" textLength="227" x="376" y="176.7949">getSupportedUnits(): List&lt;UnitDTO&gt;</text><ellipse cx="367" cy="191.1191" fill="#84BE84" rx="3" ry="3" style="stroke:#038048;stroke-width:1.0;"/><text fill="#000000" font-family="sans-serif" font-size="14" lengthAdjust="spacing" textLength="345" x="376" y="195.416">addAndSave(SensorTypeDTO data): SensorTypeDTO</text></g><!--class SensorTypeDTO--><g id="elem_SensorTypeDTO"><rect codeLine="49" fill="#F1F1F1" height="135.0664" id="SensorTypeDTO" rx="2.5" ry="2.5" style="stroke:#181818;stroke-width:0.5;" width="385" x="1020.5" y="40"/><ellipse cx="1155.25" cy="62.291" fill="#ADD1B2" rx="11" ry="11" style="stroke:#181818;stroke-width:1.0;"/><path d="M1158.0156,58.166 Q1158.1719,57.9473 1158.3594,57.8379 Q1158.5469,57.7285 1158.7656,57.7285 Q1159.1406,57.7285 1159.375,57.9941 Q1159.6094,58.2441 1159.6094,58.8535 L1159.6094,60.3066 Q1159.6094,60.916 1159.375,61.1816 Q1159.1406,61.4473 1158.7656,61.4473 Q1158.4219,61.4473 1158.2188,61.2441 Q1158.0156,61.0566 1157.9063,60.541 Q1157.8594,60.1816 1157.6719,59.9941 Q1157.3438,59.6191 1156.7344,59.4004 Q1156.125,59.1816 1155.5,59.1816 Q1154.7344,59.1816 1154.0938,59.5098 Q1153.4688,59.8379 1152.9688,60.5879 Q1152.4844,61.3379 1152.4844,62.3691 L1152.4844,63.4629 Q1152.4844,64.6973 1153.375,65.5254 Q1154.2656,66.3379 1155.8594,66.3379 Q1156.7969,66.3379 1157.4531,66.0879 Q1157.8438,65.9316 1158.2656,65.4941 Q1158.5313,65.2285 1158.6719,65.1504 Q1158.8281,65.0723 1159.0313,65.0723 Q1159.3594,65.0723 1159.6094,65.3379 Q1159.875,65.5879 1159.875,65.9316 Q1159.875,66.2754 1159.5313,66.6816 Q1159.0313,67.2598 1158.2344,67.5879 Q1157.1563,68.041 1155.8594,68.041 Q1154.3438,68.041 1153.1406,67.416 Q1152.1563,66.916 1151.4688,65.8535 Q1150.7813,64.7754 1150.7813,63.4941 L1150.7813,62.3379 Q1150.7813,61.0098 1151.3906,59.8691 Q1152.0156,58.7129 1153.1094,58.1035 Q1154.2031,57.4785 1155.4375,57.4785 Q1156.1719,57.4785 1156.8125,57.6504 Q1157.4688,57.8066 1158.0156,58.166 Z " fill="#000000"/><text fill="#000000" font-family="sans-serif" font-size="12" font-style="italic" lengthAdjust="spacing" textLength="39" x="1209.75" y="57.9492">&#171;DTO&#187;</text><text fill="#000000" font-family="sans-serif" font-size="14" lengthAdjust="spacing" textLength="107" x="1175.75" y="76.0684">SensorTypeDTO</text><line style="stroke:#181818;stroke-width:0.5;" x1="1021.5" x2="1404.5" y1="84.582" y2="84.582"/><ellipse cx="1031.5" cy="99.3926" fill="none" rx="3" ry="3" style="stroke:#038048;stroke-width:1.0;"/><text fill="#000000" font-family="sans-serif" font-size="14" lengthAdjust="spacing" textLength="54" x="1040.5" y="103.6895">id: string</text><ellipse cx="1031.5" cy="118.0137" fill="none" rx="3" ry="3" style="stroke:#038048;stroke-width:1.0;"/><text fill="#000000" font-family="sans-serif" font-size="14" lengthAdjust="spacing" textLength="112" x="1040.5" y="122.3105">description: string</text><ellipse cx="1031.5" cy="136.6348" fill="none" rx="3" ry="3" style="stroke:#038048;stroke-width:1.0;"/><text fill="#000000" font-family="sans-serif" font-size="14" lengthAdjust="spacing" textLength="66" x="1040.5" y="140.9316">unit: string</text><line style="stroke:#181818;stroke-width:0.5;" x1="1021.5" x2="1404.5" y1="148.4453" y2="148.4453"/><ellipse cx="1031.5" cy="163.2559" fill="#84BE84" rx="3" ry="3" style="stroke:#038048;stroke-width:1.0;"/><text fill="#000000" font-family="sans-serif" font-size="14" lengthAdjust="spacing" textLength="359" x="1040.5" y="167.5527">SensorTypeDTO(String id, String description, String unit)</text></g><!--class SensorTypeAssembler--><g id="elem_SensorTypeAssembler"><rect codeLine="55" fill="#F1F1F1" height="79.2031" id="SensorTypeAssembler" rx="2.5" ry="2.5" style="stroke:#181818;stroke-width:0.5;" width="404" x="987" y="314"/><ellipse cx="1113.25" cy="336.291" fill="#ADD1B2" rx="11" ry="11" style="stroke:#181818;stroke-width:1.0;"/><path d="M1116.0156,332.166 Q1116.1719,331.9473 1116.3594,331.8379 Q1116.5469,331.7285 1116.7656,331.7285 Q1117.1406,331.7285 1117.375,331.9941 Q1117.6094,332.2441 1117.6094,332.8535 L1117.6094,334.3066 Q1117.6094,334.916 1117.375,335.1816 Q1117.1406,335.4473 1116.7656,335.4473 Q1116.4219,335.4473 1116.2188,335.2441 Q1116.0156,335.0566 1115.9063,334.541 Q1115.8594,334.1816 1115.6719,333.9941 Q1115.3438,333.6191 1114.7344,333.4004 Q1114.125,333.1816 1113.5,333.1816 Q1112.7344,333.1816 1112.0938,333.5098 Q1111.4688,333.8379 1110.9688,334.5879 Q1110.4844,335.3379 1110.4844,336.3691 L1110.4844,337.4629 Q1110.4844,338.6973 1111.375,339.5254 Q1112.2656,340.3379 1113.8594,340.3379 Q1114.7969,340.3379 1115.4531,340.0879 Q1115.8438,339.9316 1116.2656,339.4941 Q1116.5313,339.2285 1116.6719,339.1504 Q1116.8281,339.0723 1117.0313,339.0723 Q1117.3594,339.0723 1117.6094,339.3379 Q1117.875,339.5879 1117.875,339.9316 Q1117.875,340.2754 1117.5313,340.6816 Q1117.0313,341.2598 1116.2344,341.5879 Q1115.1563,342.041 1113.8594,342.041 Q1112.3438,342.041 1111.1406,341.416 Q1110.1563,340.916 1109.4688,339.8535 Q1108.7813,338.7754 1108.7813,337.4941 L1108.7813,336.3379 Q1108.7813,335.0098 1109.3906,333.8691 Q1110.0156,332.7129 1111.1094,332.1035 Q1112.2031,331.4785 1113.4375,331.4785 Q1114.1719,331.4785 1114.8125,331.6504 Q1115.4688,331.8066 1116.0156,332.166 Z " fill="#000000"/><text fill="#000000" font-family="sans-serif" font-size="12" font-style="italic" lengthAdjust="spacing" textLength="74" x="1168.25" y="331.9492">&#171;Assembler&#187;</text><text fill="#000000" font-family="sans-serif" font-size="14" lengthAdjust="spacing" textLength="143" x="1133.75" y="350.0684">SensorTypeAssembler</text><line style="stroke:#181818;stroke-width:0.5;" x1="988" x2="1390" y1="358.582" y2="358.582"/><line style="stroke:#181818;stroke-width:0.5;" x1="988" x2="1390" y1="366.582" y2="366.582"/><ellipse cx="998" cy="381.3926" fill="#84BE84" rx="3" ry="3" style="stroke:#038048;stroke-width:1.0;"/><text fill="#000000" font-family="sans-serif" font-size="14" lengthAdjust="spacing" textLength="378" x="1007" y="385.6895">domainToDTO(sensorType: SensorType): SensorTypeDTO</text></g><!--class UnitAssembler--><g id="elem_UnitAssembler"><rect codeLine="58" fill="#F1F1F1" height="79.2031" id="UnitAssembler" rx="2.5" ry="2.5" style="stroke:#181818;stroke-width:0.5;" width="246" x="99" y="314"/><ellipse cx="172.75" cy="336.291" fill="#ADD1B2" rx="11" ry="11" style="stroke:#181818;stroke-width:1.0;"/><path d="M175.5156,332.166 Q175.6719,331.9473 175.8594,331.8379 Q176.0469,331.7285 176.2656,331.7285 Q176.6406,331.7285 176.875,331.9941 Q177.1094,332.2441 177.1094,332.8535 L177.1094,334.3066 Q177.1094,334.916 176.875,335.1816 Q176.6406,335.4473 176.2656,335.4473 Q175.9219,335.4473 175.7188,335.2441 Q175.5156,335.0566 175.4063,334.541 Q175.3594,334.1816 175.1719,333.9941 Q174.8438,333.6191 174.2344,333.4004 Q173.625,333.1816 173,333.1816 Q172.2344,333.1816 171.5938,333.5098 Q170.9688,333.8379 170.4688,334.5879 Q169.9844,335.3379 169.9844,336.3691 L169.9844,337.4629 Q169.9844,338.6973 170.875,339.5254 Q171.7656,340.3379 173.3594,340.3379 Q174.2969,340.3379 174.9531,340.0879 Q175.3438,339.9316 175.7656,339.4941 Q176.0313,339.2285 176.1719,339.1504 Q176.3281,339.0723 176.5313,339.0723 Q176.8594,339.0723 177.1094,339.3379 Q177.375,339.5879 177.375,339.9316 Q177.375,340.2754 177.0313,340.6816 Q176.5313,341.2598 175.7344,341.5879 Q174.6563,342.041 173.3594,342.041 Q171.8438,342.041 170.6406,341.416 Q169.6563,340.916 168.9688,339.8535 Q168.2813,338.7754 168.2813,337.4941 L168.2813,336.3379 Q168.2813,335.0098 168.8906,333.8691 Q169.5156,332.7129 170.6094,332.1035 Q171.7031,331.4785 172.9375,331.4785 Q173.6719,331.4785 174.3125,331.6504 Q174.9688,331.8066 175.5156,332.166 Z " fill="#000000"/><text fill="#000000" font-family="sans-serif" font-size="12" font-style="italic" lengthAdjust="spacing" textLength="74" x="201.25" y="331.9492">&#171;Assembler&#187;</text><text fill="#000000" font-family="sans-serif" font-size="14" lengthAdjust="spacing" textLength="90" x="193.25" y="350.0684">UnitAssembler</text><line style="stroke:#181818;stroke-width:0.5;" x1="100" x2="344" y1="358.582" y2="358.582"/><line style="stroke:#181818;stroke-width:0.5;" x1="100" x2="344" y1="366.582" y2="366.582"/><ellipse cx="110" cy="381.3926" fill="#84BE84" rx="3" ry="3" style="stroke:#038048;stroke-width:1.0;"/><text fill="#000000" font-family="sans-serif" font-size="14" lengthAdjust="spacing" textLength="220" x="119" y="385.6895">domainToDTO(unit: Unit): UnitDTO</text></g><!--class UnitDTO--><g id="elem_UnitDTO"><rect codeLine="61" fill="#F1F1F1" height="135.0664" id="UnitDTO" rx="2.5" ry="2.5" style="stroke:#181818;stroke-width:0.5;" width="332" x="6" y="40"/><ellipse cx="140.75" cy="62.291" fill="#ADD1B2" rx="11" ry="11" style="stroke:#181818;stroke-width:1.0;"/><path d="M143.5156,58.166 Q143.6719,57.9473 143.8594,57.8379 Q144.0469,57.7285 144.2656,57.7285 Q144.6406,57.7285 144.875,57.9941 Q145.1094,58.2441 145.1094,58.8535 L145.1094,60.3066 Q145.1094,60.916 144.875,61.1816 Q144.6406,61.4473 144.2656,61.4473 Q143.9219,61.4473 143.7188,61.2441 Q143.5156,61.0566 143.4063,60.541 Q143.3594,60.1816 143.1719,59.9941 Q142.8438,59.6191 142.2344,59.4004 Q141.625,59.1816 141,59.1816 Q140.2344,59.1816 139.5938,59.5098 Q138.9688,59.8379 138.4688,60.5879 Q137.9844,61.3379 137.9844,62.3691 L137.9844,63.4629 Q137.9844,64.6973 138.875,65.5254 Q139.7656,66.3379 141.3594,66.3379 Q142.2969,66.3379 142.9531,66.0879 Q143.3438,65.9316 143.7656,65.4941 Q144.0313,65.2285 144.1719,65.1504 Q144.3281,65.0723 144.5313,65.0723 Q144.8594,65.0723 145.1094,65.3379 Q145.375,65.5879 145.375,65.9316 Q145.375,66.2754 145.0313,66.6816 Q144.5313,67.2598 143.7344,67.5879 Q142.6563,68.041 141.3594,68.041 Q139.8438,68.041 138.6406,67.416 Q137.6563,66.916 136.9688,65.8535 Q136.2813,64.7754 136.2813,63.4941 L136.2813,62.3379 Q136.2813,61.0098 136.8906,59.8691 Q137.5156,58.7129 138.6094,58.1035 Q139.7031,57.4785 140.9375,57.4785 Q141.6719,57.4785 142.3125,57.6504 Q142.9688,57.8066 143.5156,58.166 Z " fill="#000000"/><text fill="#000000" font-family="sans-serif" font-size="12" font-style="italic" lengthAdjust="spacing" textLength="39" x="168.75" y="57.9492">&#171;DTO&#187;</text><text fill="#000000" font-family="sans-serif" font-size="14" lengthAdjust="spacing" textLength="54" x="161.25" y="76.0684">UnitDTO</text><line style="stroke:#181818;stroke-width:0.5;" x1="7" x2="337" y1="84.582" y2="84.582"/><ellipse cx="17" cy="99.3926" fill="none" rx="3" ry="3" style="stroke:#038048;stroke-width:1.0;"/><text fill="#000000" font-family="sans-serif" font-size="14" lengthAdjust="spacing" textLength="54" x="26" y="103.6895">id: string</text><ellipse cx="17" cy="118.0137" fill="none" rx="3" ry="3" style="stroke:#038048;stroke-width:1.0;"/><text fill="#000000" font-family="sans-serif" font-size="14" lengthAdjust="spacing" textLength="112" x="26" y="122.3105">description: string</text><ellipse cx="17" cy="136.6348" fill="none" rx="3" ry="3" style="stroke:#038048;stroke-width:1.0;"/><text fill="#000000" font-family="sans-serif" font-size="14" lengthAdjust="spacing" textLength="87" x="26" y="140.9316">symbol: string</text><line style="stroke:#181818;stroke-width:0.5;" x1="7" x2="337" y1="148.4453" y2="148.4453"/><ellipse cx="17" cy="163.2559" fill="#84BE84" rx="3" ry="3" style="stroke:#038048;stroke-width:1.0;"/><text fill="#000000" font-family="sans-serif" font-size="14" lengthAdjust="spacing" textLength="306" x="26" y="167.5527">UnitDTO(String id, String description, String unit)</text></g><polygon fill="#181818" points="337.6407,656.9252,335.125,647.4031,334.5103,653.0264,328.8869,652.4117,337.6407,656.9252" style="stroke:#181818;stroke-width:1.0;"/><path d="M293.6852,602.1806 C306.9252,618.6705 318.5297,633.1233 333.8842,652.2467 " fill="none" style="stroke:#181818;stroke-width:1.0;"/><text fill="#000000" font-family="sans-serif" font-size="13" lengthAdjust="spacing" textLength="21" x="324" y="635.0283">has</text><text fill="#000000" font-family="sans-serif" font-size="13" lengthAdjust="spacing" textLength="5" x="331.6407" y="652.9535">*</text><text fill="#000000" font-family="sans-serif" font-size="13" lengthAdjust="spacing" textLength="7" x="285.6852" y="617.2089">1</text><polygon fill="#181818" points="679,513.0356,683,504.0356,679,508.0356,675,504.0356,679,513.0356" style="stroke:#181818;stroke-width:1.0;"/><path d="M679,449.2007 C679,471.7723 679,488.6265 679,507.0356 " fill="none" style="stroke:#181818;stroke-width:1.0;stroke-dasharray:7.0,7.0;"/><text fill="#000000" font-family="sans-serif" font-size="13" lengthAdjust="spacing" textLength="28" x="680" y="482.0283">uses</text><text fill="#000000" font-family="sans-serif" font-size="13" lengthAdjust="spacing" textLength="7" x="671" y="509.0639">1</text><text fill="#000000" font-family="sans-serif" font-size="13" lengthAdjust="spacing" textLength="7" x="671" y="464.229">1</text><polygon fill="#181818" points="358.2137,503.9228,368.0611,503.7486,362.7462,501.8116,364.6831,496.4967,358.2137,503.9228" style="stroke:#181818;stroke-width:1.0;"/><path d="M476.0035,449.0562 C435.1605,468.0809 399.3101,484.7801 363.6526,501.3894 " fill="none" style="stroke:#181818;stroke-width:1.0;stroke-dasharray:7.0,7.0;"/><text fill="#000000" font-family="sans-serif" font-size="13" lengthAdjust="spacing" textLength="28" x="431" y="482.0283">uses</text><text fill="#000000" font-family="sans-serif" font-size="13" lengthAdjust="spacing" textLength="7" x="350.2137" y="499.9512">1</text><text fill="#000000" font-family="sans-serif" font-size="13" lengthAdjust="spacing" textLength="7" x="468.0035" y="464.0845">1</text><polygon fill="#181818" points="947.8383,507.5132,941.9952,499.5849,943.4929,505.0399,938.0379,506.5376,947.8383,507.5132" style="stroke:#181818;stroke-width:1.0;"/><path d="M845.1316,449.0562 C880.9946,469.4681 912.0636,487.1515 942.6238,504.5453 " fill="none" style="stroke:#181818;stroke-width:1.0;stroke-dasharray:7.0,7.0;"/><text fill="#000000" font-family="sans-serif" font-size="13" lengthAdjust="spacing" textLength="28" x="904" y="482.0283">uses</text><text fill="#000000" font-family="sans-serif" font-size="13" lengthAdjust="spacing" textLength="7" x="939.8383" y="503.5415">1</text><text fill="#000000" font-family="sans-serif" font-size="13" lengthAdjust="spacing" textLength="7" x="837.1316" y="464.0845">1</text><polygon fill="#181818" points="1026,692.953,1030,683.953,1026,687.953,1022,683.953,1026,692.953" style="stroke:#181818;stroke-width:1.0;"/><path d="M1026,602.1806 C1026,629.2287 1026,657.3841 1026,686.953 " fill="none" style="stroke:#181818;stroke-width:1.0;"/><text fill="#000000" font-family="sans-serif" font-size="13" lengthAdjust="spacing" textLength="21" x="1027" y="635.0283">has</text><text fill="#000000" font-family="sans-serif" font-size="13" lengthAdjust="spacing" textLength="7" x="1018" y="688.9813">1</text><text fill="#000000" font-family="sans-serif" font-size="13" lengthAdjust="spacing" textLength="7" x="1018" y="617.2089">1</text><polygon fill="#181818" points="542.5124,662.2942,552.0489,659.8337,546.4292,659.1865,547.0765,653.5668,542.5124,662.2942" style="stroke:#181818;stroke-width:1.0;"/><path d="M630.2841,592.653 C605.2998,612.4764 578.3364,633.8701 547.2126,658.5649 " fill="none" style="stroke:#181818;stroke-width:1.0;stroke-dasharray:7.0,7.0;"/><text fill="#000000" font-family="sans-serif" font-size="13" lengthAdjust="spacing" textLength="43" x="597" y="635.0283">creates</text><text fill="#000000" font-family="sans-serif" font-size="13" lengthAdjust="spacing" textLength="20" x="543.5124" y="658.3226">1..*</text><text fill="#000000" font-family="sans-serif" font-size="13" lengthAdjust="spacing" textLength="7" x="622.2841" y="607.6813">1</text><polygon fill="#181818" points="679,257.8672,683,248.8672,679,252.8672,675,248.8672,679,257.8672" style="stroke:#181818;stroke-width:1.0;"/><path d="M679,203.186 C679,221.1364 679,233.9184 679,251.8672 " fill="none" style="stroke:#181818;stroke-width:1.0;stroke-dasharray:7.0,7.0;"/><text fill="#000000" font-family="sans-serif" font-size="13" lengthAdjust="spacing" textLength="28" x="680" y="236.0283">uses</text><text fill="#000000" font-family="sans-serif" font-size="13" lengthAdjust="spacing" textLength="7" x="671" y="253.8955">1</text><text fill="#000000" font-family="sans-serif" font-size="13" lengthAdjust="spacing" textLength="7" x="671" y="218.2143">1</text><polygon fill="#181818" points="1108.2418,313.8627,1101.8494,306.3702,1103.7314,311.7048,1098.3968,313.5868,1108.2418,313.8627" style="stroke:#181818;stroke-width:1.0;"/><path d="M876.5442,203.0114 C957.2269,241.6125 1040.5921,281.497 1102.8293,311.2732 " fill="none" style="stroke:#181818;stroke-width:1.0;stroke-dasharray:7.0,7.0;"/><text fill="#000000" font-family="sans-serif" font-size="13" lengthAdjust="spacing" textLength="28" x="950" y="236.0283">uses</text><text fill="#000000" font-family="sans-serif" font-size="13" lengthAdjust="spacing" textLength="7" x="1100.2418" y="309.8911">1</text><text fill="#000000" font-family="sans-serif" font-size="13" lengthAdjust="spacing" textLength="7" x="868.5442" y="218.0397">1</text><polygon fill="#181818" points="1206.4419,175.1741,1201.5801,183.7393,1205.9525,180.1501,1209.5417,184.5224,1206.4419,175.1741" style="stroke:#181818;stroke-width:1.0;"/><path d="M1205.8546,181.1453 C1201.4827,225.5922 1196.4756,276.4976 1192.8178,313.6858 " fill="none" style="stroke:#181818;stroke-width:1.0;stroke-dasharray:7.0,7.0;"/><text fill="#000000" font-family="sans-serif" font-size="13" lengthAdjust="spacing" textLength="43" x="1202" y="236.0283">creates</text><text fill="#000000" font-family="sans-serif" font-size="13" lengthAdjust="spacing" textLength="7" x="1184.8178" y="309.7141">1</text><text fill="#000000" font-family="sans-serif" font-size="13" lengthAdjust="spacing" textLength="7" x="1198.4419" y="190.2024">1</text><polygon fill="#181818" points="294.3657,313.8627,304.1889,313.1524,298.7764,311.5078,300.421,306.0953,294.3657,313.8627" style="stroke:#181818;stroke-width:1.0;"/><path d="M501.9849,203.0114 C429.6869,241.6125 355.428,281.2605 299.6585,311.0368 " fill="none" style="stroke:#181818;stroke-width:1.0;stroke-dasharray:7.0,7.0;"/><text fill="#000000" font-family="sans-serif" font-size="13" lengthAdjust="spacing" textLength="28" x="466" y="236.0283">uses</text><text fill="#000000" font-family="sans-serif" font-size="13" lengthAdjust="spacing" textLength="7" x="286.3657" y="309.8911">1</text><text fill="#000000" font-family="sans-serif" font-size="13" lengthAdjust="spacing" textLength="7" x="502.9849" y="218.0397">1</text><polygon fill="#181818" points="185.6627,175.1741,183.5509,184.7938,186.6665,180.0723,191.388,183.1879,185.6627,175.1741" style="stroke:#181818;stroke-width:1.0;"/><path d="M186.8672,181.0519 C195.9752,225.4989 206.4257,276.4976 214.0463,313.6858 " fill="none" style="stroke:#181818;stroke-width:1.0;stroke-dasharray:7.0,7.0;"/><text fill="#000000" font-family="sans-serif" font-size="13" lengthAdjust="spacing" textLength="43" x="200" y="236.0283">creates</text><text fill="#000000" font-family="sans-serif" font-size="13" lengthAdjust="spacing" textLength="7" x="206.0463" y="309.7141">1</text><text fill="#000000" font-family="sans-serif" font-size="13" lengthAdjust="spacing" textLength="7" x="177.6627" y="190.2024">1</text><!--SRC=[hLLBYzim4BxdLqnpSkeai5SZ0g5X8L1QgEDpqKPgLc1Rnb9s2QN_lNf53zlf9j1S8etcyStCD-DFNOzF3OOQN_XPWcYen2sUpOur5W9AsWhU7ouTHOYsaidBPWC8zPnBTVWz0rZ1JqOA44PnlxCIGiMnPvral2rW5oxszTmokTyLK9b_9SkZE1aZIuZibs3L5qRlHEMUP0iLJ_QiFLrbKGZzc4Oq6ZgMVjB_IlPddE0pFahUNn1o1vTV3iUUOac_qVS8vAq4hsYloQc8mMewxW_QSS5iw70ErMrmX_QxPMInSTNMPs4W2ln6io2CWuuH306Kj7zZHzLWTt2XJN0n0REO13-sS7KinZM-wkfQnNwhv3uWXaENJK5QmYYixKHGMKIz_0-DDAJQrdLvxZhUIqgqcj0C-yg4HFgsyQs9ujtR903RfhGa4mn9E6B26kJ2FENmYxL4mVJ43mJGWcYeerdsStdN97lNkJbCp-yYOjwMa93i5zxAdjSrxH4Avu173FjVZ2anrDmAGPiNvIRMzSA0FDAhuclGy36hS36PtiWX6y6DcUa3s9eChix0xxb_C6jt-6x9XGdPjgJKqn_Wg5SWMEA4L4euEVnAZf3sfokUWrdbThNcaFJUIstF_JLnbPL639e3xfXGmSai8yPWV4KGyaU_XWblC6iFN8UvOuhIX9F-VkGziDfzCCQ-ah9f-wXmnjr4wSmsk3Gll4v4pjr3fJCV4lMRMiJpfpci27zlLnkOVvwNKQbUiPYDfaVhhxN-Mka_pSln_ZuB-eXTlD4_C5qPqshm6J16gJ19obeCqt5mKrZhTLe1k__5xCRytip9BmA3xL7hQD4C2k9VZEsv6regOZmAkaetco_cT2Z7lX14_Vu2]--></g></svg>