<?xml version="1.0" encoding="us-ascii" standalone="no"?>
<svg xmlns="http://www.w3.org/2000/svg" contentStyleType="text/css"
     height="692px" preserveAspectRatio="none" style="width:1652px;height:692px;background:#FFFFFF;" version="1.1"
     viewBox="0 0 1652 692" width="1652px" zoomAndPan="magnify">
    <defs/>
    <g>
        <rect fill="#FFFFFF" height="562.9766" style="stroke:#181818;stroke-width:1.0;" width="10" x="498" y="81.9121"/>
        <rect fill="#FFFFFF" height="93.873" style="stroke:#181818;stroke-width:1.0;" width="10" x="714" y="115.5332"/>
        <rect fill="#FFFFFF" height="90.582" style="stroke:#181818;stroke-width:1.0;" width="10" x="714" y="554.3066"/>
        <rect fill="#FFFFFF" height="31.291" style="stroke:#181818;stroke-width:1.0;" width="10" x="998" y="146.8242"/>
        <rect fill="#FFFFFF" height="33.6211" style="stroke:#181818;stroke-width:1.0;" width="10" x="1126.5"
              y="276.9883"/>
        <rect fill="#FFFFFF" height="33.6211" style="stroke:#181818;stroke-width:1.0;" width="10" x="1237"
              y="351.9004"/>
        <rect fill="#FFFFFF" height="106.2031" style="stroke:#181818;stroke-width:1.0;" width="10" x="1332"
              y="416.8125"/>
        <rect fill="#FFFFFF" height="33.6211" style="stroke:#181818;stroke-width:1.0;" width="10" x="1610"
              y="458.1035"/>
        <rect fill="none" height="413.4824" style="stroke:#000000;stroke-width:1.5;" width="1228" x="418" y="224.4063"/>
        <line style="stroke:#181818;stroke-width:0.5;stroke-dasharray:5.0,5.0;" x1="14" x2="14" y1="38.6211"
              y2="654.8887"/>
        <line style="stroke:#181818;stroke-width:0.5;stroke-dasharray:5.0,5.0;" x1="503" x2="503" y1="80.4316"
              y2="654.8887"/>
        <line style="stroke:#181818;stroke-width:0.5;stroke-dasharray:5.0,5.0;" x1="719" x2="719" y1="38.6211"
              y2="654.8887"/>
        <line style="stroke:#181818;stroke-width:0.5;stroke-dasharray:5.0,5.0;" x1="1003" x2="1003" y1="38.6211"
              y2="654.8887"/>
        <line style="stroke:#181818;stroke-width:0.5;stroke-dasharray:5.0,5.0;" x1="1131" x2="1131" y1="275.5078"
              y2="654.8887"/>
        <line style="stroke:#181818;stroke-width:0.5;stroke-dasharray:5.0,5.0;" x1="1242" x2="1242" y1="350.4199"
              y2="654.8887"/>
        <line style="stroke:#181818;stroke-width:0.5;stroke-dasharray:5.0,5.0;" x1="1337" x2="1337" y1="38.6211"
              y2="654.8887"/>
        <line style="stroke:#181818;stroke-width:0.5;stroke-dasharray:5.0,5.0;" x1="1615" x2="1615" y1="456.623"
              y2="654.8887"/>
        <rect fill="#E2E2F0" height="32.6211" rx="2.5" ry="2.5" style="stroke:#181818;stroke-width:0.5;" width="18"
              x="5" y="5"/>
        <text fill="#000000" font-family="sans-serif" font-size="14" lengthAdjust="spacing" textLength="4" x="12"
              y="27.1074">&#160;
        </text>
        <rect fill="#E2E2F0" height="32.6211" rx="2.5" ry="2.5" style="stroke:#181818;stroke-width:0.5;" width="18"
              x="5" y="653.8887"/>
        <text fill="#000000" font-family="sans-serif" font-size="14" lengthAdjust="spacing" textLength="4" x="12"
              y="675.9961">&#160;
        </text>
        <rect fill="#E2E2F0" height="32.6211" rx="2.5" ry="2.5" style="stroke:#181818;stroke-width:0.5;" width="150"
              x="428" y="653.8887"/>
        <text fill="#000000" font-family="sans-serif" font-size="14" lengthAdjust="spacing" textLength="136" x="435"
              y="675.9961">:ConfigurationService
        </text>
        <rect fill="#E2E2F0" height="32.6211" rx="2.5" ry="2.5" style="stroke:#181818;stroke-width:0.5;" width="110"
              x="664" y="5"/>
        <text fill="#000000" font-family="sans-serif" font-size="14" lengthAdjust="spacing" textLength="96" x="671"
              y="27.1074">:UnitRepository
        </text>
        <rect fill="#E2E2F0" height="32.6211" rx="2.5" ry="2.5" style="stroke:#181818;stroke-width:0.5;" width="110"
              x="664" y="653.8887"/>
        <text fill="#000000" font-family="sans-serif" font-size="14" lengthAdjust="spacing" textLength="96" x="671"
              y="675.9961">:UnitRepository
        </text>
        <rect fill="#E2E2F0" height="32.6211" rx="2.5" ry="2.5" style="stroke:#181818;stroke-width:0.5;" width="124"
              x="941" y="5"/>
        <text fill="#000000" font-family="sans-serif" font-size="14" lengthAdjust="spacing" textLength="110" x="948"
              y="27.1074">Config.Properties
        </text>
        <rect fill="#E2E2F0" height="32.6211" rx="2.5" ry="2.5" style="stroke:#181818;stroke-width:0.5;" width="124"
              x="941" y="653.8887"/>
        <text fill="#000000" font-family="sans-serif" font-size="14" lengthAdjust="spacing" textLength="110" x="948"
              y="675.9961">Config.Properties
        </text>
        <rect fill="#E2E2F0" height="32.6211" rx="2.5" ry="2.5" style="stroke:#181818;stroke-width:0.5;" width="113"
              x="1075" y="653.8887"/>
        <text fill="#000000" font-family="sans-serif" font-size="14" lengthAdjust="spacing" textLength="99" x="1082"
              y="675.9961">:UnitDescription
        </text>
        <rect fill="#E2E2F0" height="32.6211" rx="2.5" ry="2.5" style="stroke:#181818;stroke-width:0.5;" width="88"
              x="1198" y="653.8887"/>
        <text fill="#000000" font-family="sans-serif" font-size="14" lengthAdjust="spacing" textLength="74" x="1205"
              y="675.9961">:UnitSymbol
        </text>
        <rect fill="#E2E2F0" height="32.6211" rx="2.5" ry="2.5" style="stroke:#181818;stroke-width:0.5;" width="82"
              x="1296" y="5"/>
        <text fill="#000000" font-family="sans-serif" font-size="14" lengthAdjust="spacing" textLength="68" x="1303"
              y="27.1074">:UnitFabric
        </text>
        <rect fill="#E2E2F0" height="32.6211" rx="2.5" ry="2.5" style="stroke:#181818;stroke-width:0.5;" width="82"
              x="1296" y="653.8887"/>
        <text fill="#000000" font-family="sans-serif" font-size="14" lengthAdjust="spacing" textLength="68" x="1303"
              y="675.9961">:UnitFabric
        </text>
        <rect fill="#E2E2F0" height="32.6211" rx="2.5" ry="2.5" style="stroke:#181818;stroke-width:0.5;" width="42"
              x="1594" y="653.8887"/>
        <text fill="#000000" font-family="sans-serif" font-size="14" lengthAdjust="spacing" textLength="28" x="1601"
              y="675.9961">:Unit
        </text>
        <rect fill="#FFFFFF" height="562.9766" style="stroke:#181818;stroke-width:1.0;" width="10" x="498" y="81.9121"/>
        <rect fill="#FFFFFF" height="93.873" style="stroke:#181818;stroke-width:1.0;" width="10" x="714" y="115.5332"/>
        <rect fill="#FFFFFF" height="90.582" style="stroke:#181818;stroke-width:1.0;" width="10" x="714" y="554.3066"/>
        <rect fill="#FFFFFF" height="31.291" style="stroke:#181818;stroke-width:1.0;" width="10" x="998" y="146.8242"/>
        <rect fill="#FFFFFF" height="33.6211" style="stroke:#181818;stroke-width:1.0;" width="10" x="1126.5"
              y="276.9883"/>
        <rect fill="#FFFFFF" height="33.6211" style="stroke:#181818;stroke-width:1.0;" width="10" x="1237"
              y="351.9004"/>
        <rect fill="#FFFFFF" height="106.2031" style="stroke:#181818;stroke-width:1.0;" width="10" x="1332"
              y="416.8125"/>
        <rect fill="#FFFFFF" height="33.6211" style="stroke:#181818;stroke-width:1.0;" width="10" x="1610"
              y="458.1035"/>
        <ellipse cx="13.5" cy="71.1621" fill="none" rx="4" ry="4" style="stroke:#181818;stroke-width:1.5;"/>
        <polygon fill="#181818" points="416,67.9121,426,71.9121,416,75.9121,420,71.9121"
                 style="stroke:#181818;stroke-width:1.0;"/>
        <line style="stroke:#181818;stroke-width:1.0;" x1="18" x2="422" y1="71.9121" y2="71.9121"/>
        <text fill="#000000" font-family="sans-serif" font-size="13" lengthAdjust="spacing" textLength="390" x="21"
              y="66.6494">create (UnitRepository, UnitFabric, ModelRepository, ModelService)
        </text>
        <rect fill="#E2E2F0" height="32.6211" rx="2.5" ry="2.5" style="stroke:#181818;stroke-width:0.5;" width="150"
              x="428" y="48.6211"/>
        <text fill="#000000" font-family="sans-serif" font-size="14" lengthAdjust="spacing" textLength="136" x="435"
              y="70.7285">:ConfigurationService
        </text>
        <polygon fill="#181818" points="702,111.5332,712,115.5332,702,119.5332,706,115.5332"
                 style="stroke:#181818;stroke-width:1.0;"/>
        <line style="stroke:#181818;stroke-width:1.0;" x1="508" x2="708" y1="115.5332" y2="115.5332"/>
        <text fill="#000000" font-family="sans-serif" font-size="13" lengthAdjust="spacing" textLength="187" x="515"
              y="110.2705">1.1: getListunitTypes()
        </text>
        <polygon fill="#181818" points="986,142.8242,996,146.8242,986,150.8242,990,146.8242"
                 style="stroke:#181818;stroke-width:1.0;"/>
        <line style="stroke:#181818;stroke-width:1.0;" x1="724" x2="992" y1="146.8242" y2="146.8242"/>
        <text fill="#000000" font-family="sans-serif" font-size="13" lengthAdjust="spacing" textLength="255" x="731"
              y="141.5615">1.1.1: config.getStringArray("unit")
        </text>
        <polygon fill="#181818" points="735,174.1152,725,178.1152,735,182.1152,731,178.1152"
                 style="stroke:#181818;stroke-width:1.0;"/>
        <line style="stroke:#181818;stroke-width:1.0;" x1="729" x2="1002" y1="178.1152" y2="178.1152"/>
        <text fill="#000000" font-family="sans-serif" font-size="13" lengthAdjust="spacing" textLength="165" x="741"
              y="172.8525">listStringunitTypes
        </text>
        <polygon fill="#181818" points="519,205.4063,509,209.4063,519,213.4063,515,209.4063"
                 style="stroke:#181818;stroke-width:1.0;"/>
        <line style="stroke:#181818;stroke-width:1.0;" x1="513" x2="718" y1="209.4063" y2="209.4063"/>
        <text fill="#000000" font-family="sans-serif" font-size="13" lengthAdjust="spacing" textLength="165" x="525"
              y="204.1436">listStringunitTypes
        </text>
        <path d="M418,224.4063 L491,224.4063 L491,233.6973 L481,243.6973 L418,243.6973 L418,224.4063 " fill="#EEEEEE"
              style="stroke:#000000;stroke-width:1.5;"/>
        <rect fill="none" height="413.4824" style="stroke:#000000;stroke-width:1.5;" width="1228" x="418" y="224.4063"/>
        <text fill="#000000" font-family="sans-serif" font-size="13" font-weight="bold" lengthAdjust="spacing"
              textLength="28" x="433" y="239.4346">loop
        </text>
        <text fill="#000000" font-family="sans-serif" font-size="11" font-weight="bold" lengthAdjust="spacing"
              textLength="355" x="506" y="238.2764">[for each strunitType in listStringunitTypes]
        </text>
        <polygon fill="#181818" points="1063,262.9883,1073,266.9883,1063,270.9883,1067,266.9883"
                 style="stroke:#181818;stroke-width:1.0;"/>
        <line style="stroke:#181818;stroke-width:1.0;" x1="508" x2="1069" y1="266.9883" y2="266.9883"/>
        <text fill="#000000" font-family="sans-serif" font-size="13" lengthAdjust="spacing" textLength="238" x="515"
              y="261.7256">1.2: createUnitDescription(strDescription)
        </text>
        <rect fill="#E2E2F0" height="32.6211" rx="2.5" ry="2.5" style="stroke:#181818;stroke-width:0.5;" width="113"
              x="1075" y="243.6973"/>
        <text fill="#000000" font-family="sans-serif" font-size="14" lengthAdjust="spacing" textLength="99" x="1082"
              y="265.8047">:UnitDescription
        </text>
        <polygon fill="#181818" points="519,306.6094,509,310.6094,519,314.6094,515,310.6094"
                 style="stroke:#181818;stroke-width:1.0;"/>
        <line style="stroke:#181818;stroke-width:1.0;stroke-dasharray:2.0,2.0;" x1="513" x2="1130.5" y1="310.6094"
              y2="310.6094"/>
        <text fill="#000000" font-family="sans-serif" font-size="13" lengthAdjust="spacing" textLength="51" x="525"
              y="305.3467">unitDesc
        </text>
        <polygon fill="#181818" points="1186,337.9004,1196,341.9004,1186,345.9004,1190,341.9004"
                 style="stroke:#181818;stroke-width:1.0;"/>
        <line style="stroke:#181818;stroke-width:1.0;" x1="508" x2="1192" y1="341.9004" y2="341.9004"/>
        <text fill="#000000" font-family="sans-serif" font-size="13" lengthAdjust="spacing" textLength="196" x="515"
              y="336.6377">1.3: createUnitSymbol(strSymbol)
        </text>
        <rect fill="#E2E2F0" height="32.6211" rx="2.5" ry="2.5" style="stroke:#181818;stroke-width:0.5;" width="88"
              x="1198" y="318.6094"/>
        <text fill="#000000" font-family="sans-serif" font-size="14" lengthAdjust="spacing" textLength="74" x="1205"
              y="340.7168">:UnitSymbol
        </text>
        <polygon fill="#181818" points="519,381.5215,509,385.5215,519,389.5215,515,385.5215"
                 style="stroke:#181818;stroke-width:1.0;"/>
        <line style="stroke:#181818;stroke-width:1.0;stroke-dasharray:2.0,2.0;" x1="513" x2="1241" y1="385.5215"
              y2="385.5215"/>
        <text fill="#000000" font-family="sans-serif" font-size="13" lengthAdjust="spacing" textLength="65" x="525"
              y="380.2588">unitSymbol
        </text>
        <polygon fill="#181818" points="1320,412.8125,1330,416.8125,1320,420.8125,1324,416.8125"
                 style="stroke:#181818;stroke-width:1.0;"/>
        <line style="stroke:#181818;stroke-width:1.0;" x1="508" x2="1326" y1="416.8125" y2="416.8125"/>
        <text fill="#000000" font-family="sans-serif" font-size="13" lengthAdjust="spacing" textLength="217" x="515"
              y="411.5498">1.4: createUnit(unitDesc, unitSymbol)
        </text>
        <polygon fill="#181818" points="1582,444.1035,1592,448.1035,1582,452.1035,1586,448.1035"
                 style="stroke:#181818;stroke-width:1.0;"/>
        <line style="stroke:#181818;stroke-width:1.0;" x1="1342" x2="1588" y1="448.1035" y2="448.1035"/>
        <text fill="#000000" font-family="sans-serif" font-size="13" lengthAdjust="spacing" textLength="228" x="1349"
              y="442.8408">1.4.1: createUnit(unitDesc, unitSymbol)
        </text>
        <rect fill="#E2E2F0" height="32.6211" rx="2.5" ry="2.5" style="stroke:#181818;stroke-width:0.5;" width="42"
              x="1594" y="424.8125"/>
        <text fill="#000000" font-family="sans-serif" font-size="14" lengthAdjust="spacing" textLength="28" x="1601"
              y="446.9199">:Unit
        </text>
        <polygon fill="#181818" points="1353,487.7246,1343,491.7246,1353,495.7246,1349,491.7246"
                 style="stroke:#181818;stroke-width:1.0;"/>
        <line style="stroke:#181818;stroke-width:1.0;stroke-dasharray:2.0,2.0;" x1="1347" x2="1614" y1="491.7246"
              y2="491.7246"/>
        <text fill="#000000" font-family="sans-serif" font-size="13" lengthAdjust="spacing" textLength="21" x="1359"
              y="486.4619">unit
        </text>
        <polygon fill="#181818" points="519,519.0156,509,523.0156,519,527.0156,515,523.0156"
                 style="stroke:#181818;stroke-width:1.0;"/>
        <line style="stroke:#181818;stroke-width:1.0;stroke-dasharray:2.0,2.0;" x1="513" x2="1336" y1="523.0156"
              y2="523.0156"/>
        <text fill="#000000" font-family="sans-serif" font-size="13" lengthAdjust="spacing" textLength="21" x="525"
              y="517.7529">unit
        </text>
        <polygon fill="#181818" points="702,550.3066,712,554.3066,702,558.3066,706,554.3066"
                 style="stroke:#181818;stroke-width:1.0;"/>
        <line style="stroke:#181818;stroke-width:1.0;" x1="508" x2="708" y1="554.3066" y2="554.3066"/>
        <text fill="#000000" font-family="sans-serif" font-size="13" lengthAdjust="spacing" textLength="99" x="515"
              y="549.0439">1.5: addUnit(unit)
        </text>
        <line style="stroke:#181818;stroke-width:1.0;" x1="724" x2="766" y1="585.5977" y2="585.5977"/>
        <line style="stroke:#181818;stroke-width:1.0;" x1="766" x2="766" y1="585.5977" y2="598.5977"/>
        <line style="stroke:#181818;stroke-width:1.0;" x1="725" x2="766" y1="598.5977" y2="598.5977"/>
        <polygon fill="#181818" points="735,594.5977,725,598.5977,735,602.5977,731,598.5977"
                 style="stroke:#181818;stroke-width:1.0;"/>
        <text fill="#000000" font-family="sans-serif" font-size="13" lengthAdjust="spacing" textLength="110" x="731"
              y="580.335">1.5.1: addUnit(unit)
        </text>
        <polygon fill="#181818" points="519,625.8887,509,629.8887,519,633.8887,515,629.8887"
                 style="stroke:#181818;stroke-width:1.0;"/>
        <line style="stroke:#181818;stroke-width:1.0;" x1="513" x2="713" y1="629.8887" y2="629.8887"/>
        <text fill="#000000" font-family="sans-serif" font-size="13" lengthAdjust="spacing" textLength="59" x="525"
              y="624.626">"success"
        </text><!--SRC=[bPFBRiCW44Nt_WhabIibaTB7nejALQkk6gbgsWyWU9eYEO00H_BV5mCcW54VoYOUBcVk33C2Iqq95PXfL9iVLaXf4uEk4l5H-yZP9pqE4clAsHxacHAmSc8FClK7e_eD15TKSpbQtU13gT9XDw-I2p1XK15p2ge2-0aKaLHCHW9vYXMa-_5qu7rGkS-2xXaV92L1vpuBkg2eAY81QvZBzqr3V7tlGwX5NjAatLYXIyOLsl4E-lZG1do3hofCD3r7UJpRP9dxQV9iDziM7K6_KALtWDKWuGHCluy2L1CnmXE4ky6jxRL3JJ0Nt1ZcNalAZWzIuh6fJnTulV3cdYl6fIvxuyxHSezL1qNMqkQVCQ5K_mPXHdhE1Vha4XdjbvbrcL4GPJ-bIFi_4MtJhkV7pkQpCGcYp-mjhA70MSTLXkEi9XkBQl8JdTfoGMli9ZRcufCdzo-puraHOM79Ip9JHHDkmAs9szX4CvUnYkvcJlp-HNLM4T8dS6WxhV-2MvGjBR5fZxB2agnvBtBnRBgyeNSjmbqNFFwsbUdTgSZqTd4rQZKG0ahL5R2kk0sBHVi6]-->
    </g>
</svg>