<?xml version="1.0" encoding="us-ascii" standalone="no"?><svg xmlns="http://www.w3.org/2000/svg" xmlns:xlink="http://www.w3.org/1999/xlink" contentStyleType="text/css" height="888px" preserveAspectRatio="none" style="width:966px;height:888px;background:#FFFFFF;" version="1.1" viewBox="0 0 966 888" width="966px" zoomAndPan="magnify"><defs/><g><!--class AddSensorTypeController--><g id="elem_AddSensorTypeController"><rect codeLine="5" fill="#F1F1F1" height="122.4844" id="AddSensorTypeController" rx="2.5" ry="2.5" style="stroke:#181818;stroke-width:0.5;" width="407" x="378.5" y="12"/><ellipse cx="495.75" cy="28" fill="#ADD1B2" rx="11" ry="11" style="stroke:#181818;stroke-width:1.0;"/><path d="M498.5156,23.875 Q498.6719,23.6563 498.8594,23.5469 Q499.0469,23.4375 499.2656,23.4375 Q499.6406,23.4375 499.875,23.7031 Q500.1094,23.9531 500.1094,24.5625 L500.1094,26.0156 Q500.1094,26.625 499.875,26.8906 Q499.6406,27.1563 499.2656,27.1563 Q498.9219,27.1563 498.7188,26.9531 Q498.5156,26.7656 498.4063,26.25 Q498.3594,25.8906 498.1719,25.7031 Q497.8438,25.3281 497.2344,25.1094 Q496.625,24.8906 496,24.8906 Q495.2344,24.8906 494.5938,25.2188 Q493.9688,25.5469 493.4688,26.2969 Q492.9844,27.0469 492.9844,28.0781 L492.9844,29.1719 Q492.9844,30.4063 493.875,31.2344 Q494.7656,32.0469 496.3594,32.0469 Q497.2969,32.0469 497.9531,31.7969 Q498.3438,31.6406 498.7656,31.2031 Q499.0313,30.9375 499.1719,30.8594 Q499.3281,30.7813 499.5313,30.7813 Q499.8594,30.7813 500.1094,31.0469 Q500.375,31.2969 500.375,31.6406 Q500.375,31.9844 500.0313,32.3906 Q499.5313,32.9688 498.7344,33.2969 Q497.6563,33.75 496.3594,33.75 Q494.8438,33.75 493.6406,33.125 Q492.6563,32.625 491.9688,31.5625 Q491.2813,30.4844 491.2813,29.2031 L491.2813,28.0469 Q491.2813,26.7188 491.8906,25.5781 Q492.5156,24.4219 493.6094,23.8125 Q494.7031,23.1875 495.9375,23.1875 Q496.6719,23.1875 497.3125,23.3594 Q497.9688,23.5156 498.5156,23.875 Z " fill="#000000"/><text fill="#000000" font-family="sans-serif" font-size="14" lengthAdjust="spacing" textLength="164" x="516.25" y="33.7969">AddSensorTypeController</text><line style="stroke:#181818;stroke-width:0.5;" x1="379.5" x2="784.5" y1="44" y2="44"/><rect fill="none" height="6" style="stroke:#C82930;stroke-width:1.0;" width="6" x="386.5" y="55.8105"/><text fill="#000000" font-family="sans-serif" font-size="14" lengthAdjust="spacing" textLength="176" x="398.5" y="63.1074">CatalogueSensor catalogue</text><line style="stroke:#181818;stroke-width:0.5;" x1="379.5" x2="784.5" y1="70.6211" y2="70.6211"/><ellipse cx="389.5" cy="85.4316" fill="#84BE84" rx="3" ry="3" style="stroke:#038048;stroke-width:1.0;"/><text fill="#000000" font-family="sans-serif" font-size="14" lengthAdjust="spacing" textLength="305" x="398.5" y="89.7285">AddSensorTypeController(Catalogue catalogue)</text><ellipse cx="389.5" cy="104.0527" fill="#84BE84" rx="3" ry="3" style="stroke:#038048;stroke-width:1.0;"/><text fill="#000000" font-family="sans-serif" font-size="14" lengthAdjust="spacing" textLength="225" x="398.5" y="108.3496">getAllSupportedUnits(): List&lt;String&gt;</text><ellipse cx="389.5" cy="122.6738" fill="#84BE84" rx="3" ry="3" style="stroke:#038048;stroke-width:1.0;"/><text fill="#000000" font-family="sans-serif" font-size="14" lengthAdjust="spacing" textLength="381" x="398.5" y="126.9707">addSensorType(String name, String units): SensorTypeDTO</text></g><!--class CatalogueSensor--><g id="elem_CatalogueSensor"><rect codeLine="11" fill="#F1F1F1" height="103.8633" id="CatalogueSensor" rx="2.5" ry="2.5" style="stroke:#181818;stroke-width:0.5;" width="364" x="148" y="189"/><ellipse cx="270.75" cy="205" fill="#ADD1B2" rx="11" ry="11" style="stroke:#181818;stroke-width:1.0;"/><path d="M273.5156,200.875 Q273.6719,200.6563 273.8594,200.5469 Q274.0469,200.4375 274.2656,200.4375 Q274.6406,200.4375 274.875,200.7031 Q275.1094,200.9531 275.1094,201.5625 L275.1094,203.0156 Q275.1094,203.625 274.875,203.8906 Q274.6406,204.1563 274.2656,204.1563 Q273.9219,204.1563 273.7188,203.9531 Q273.5156,203.7656 273.4063,203.25 Q273.3594,202.8906 273.1719,202.7031 Q272.8438,202.3281 272.2344,202.1094 Q271.625,201.8906 271,201.8906 Q270.2344,201.8906 269.5938,202.2188 Q268.9688,202.5469 268.4688,203.2969 Q267.9844,204.0469 267.9844,205.0781 L267.9844,206.1719 Q267.9844,207.4063 268.875,208.2344 Q269.7656,209.0469 271.3594,209.0469 Q272.2969,209.0469 272.9531,208.7969 Q273.3438,208.6406 273.7656,208.2031 Q274.0313,207.9375 274.1719,207.8594 Q274.3281,207.7813 274.5313,207.7813 Q274.8594,207.7813 275.1094,208.0469 Q275.375,208.2969 275.375,208.6406 Q275.375,208.9844 275.0313,209.3906 Q274.5313,209.9688 273.7344,210.2969 Q272.6563,210.75 271.3594,210.75 Q269.8438,210.75 268.6406,210.125 Q267.6563,209.625 266.9688,208.5625 Q266.2813,207.4844 266.2813,206.2031 L266.2813,205.0469 Q266.2813,203.7188 266.8906,202.5781 Q267.5156,201.4219 268.6094,200.8125 Q269.7031,200.1875 270.9375,200.1875 Q271.6719,200.1875 272.3125,200.3594 Q272.9688,200.5156 273.5156,200.875 Z " fill="#000000"/><text fill="#000000" font-family="sans-serif" font-size="14" lengthAdjust="spacing" textLength="110" x="291.25" y="210.7969">CatalogueSensor</text><line style="stroke:#181818;stroke-width:0.5;" x1="149" x2="511" y1="221" y2="221"/><rect fill="none" height="6" style="stroke:#C82930;stroke-width:1.0;" width="6" x="156" y="232.8105"/><text fill="#000000" font-family="sans-serif" font-size="14" lengthAdjust="spacing" textLength="201" x="168" y="240.1074">List&lt;SensorType&gt; sensorTypes</text><line style="stroke:#181818;stroke-width:0.5;" x1="149" x2="511" y1="247.6211" y2="247.6211"/><ellipse cx="159" cy="262.4316" fill="#84BE84" rx="3" ry="3" style="stroke:#038048;stroke-width:1.0;"/><text fill="#000000" font-family="sans-serif" font-size="14" lengthAdjust="spacing" textLength="120" x="168" y="266.7285">CatalogueSensor()</text><ellipse cx="159" cy="281.0527" fill="#84BE84" rx="3" ry="3" style="stroke:#038048;stroke-width:1.0;"/><text fill="#000000" font-family="sans-serif" font-size="14" lengthAdjust="spacing" textLength="338" x="168" y="285.3496">addSensorType(String name, Unit units): SensorType</text></g><!--class SensorTypeFactory--><g id="elem_SensorTypeFactory"><rect codeLine="16" fill="#F1F1F1" height="66.6211" id="SensorTypeFactory" rx="2.5" ry="2.5" style="stroke:#181818;stroke-width:0.5;" width="380" x="6" y="385"/><ellipse cx="129.25" cy="401" fill="#ADD1B2" rx="11" ry="11" style="stroke:#181818;stroke-width:1.0;"/><path d="M132.0156,396.875 Q132.1719,396.6563 132.3594,396.5469 Q132.5469,396.4375 132.7656,396.4375 Q133.1406,396.4375 133.375,396.7031 Q133.6094,396.9531 133.6094,397.5625 L133.6094,399.0156 Q133.6094,399.625 133.375,399.8906 Q133.1406,400.1563 132.7656,400.1563 Q132.4219,400.1563 132.2188,399.9531 Q132.0156,399.7656 131.9063,399.25 Q131.8594,398.8906 131.6719,398.7031 Q131.3438,398.3281 130.7344,398.1094 Q130.125,397.8906 129.5,397.8906 Q128.7344,397.8906 128.0938,398.2188 Q127.4688,398.5469 126.9688,399.2969 Q126.4844,400.0469 126.4844,401.0781 L126.4844,402.1719 Q126.4844,403.4063 127.375,404.2344 Q128.2656,405.0469 129.8594,405.0469 Q130.7969,405.0469 131.4531,404.7969 Q131.8438,404.6406 132.2656,404.2031 Q132.5313,403.9375 132.6719,403.8594 Q132.8281,403.7813 133.0313,403.7813 Q133.3594,403.7813 133.6094,404.0469 Q133.875,404.2969 133.875,404.6406 Q133.875,404.9844 133.5313,405.3906 Q133.0313,405.9688 132.2344,406.2969 Q131.1563,406.75 129.8594,406.75 Q128.3438,406.75 127.1406,406.125 Q126.1563,405.625 125.4688,404.5625 Q124.7813,403.4844 124.7813,402.2031 L124.7813,401.0469 Q124.7813,399.7188 125.3906,398.5781 Q126.0156,397.4219 127.1094,396.8125 Q128.2031,396.1875 129.4375,396.1875 Q130.1719,396.1875 130.8125,396.3594 Q131.4688,396.5156 132.0156,396.875 Z " fill="#000000"/><text fill="#000000" font-family="sans-serif" font-size="14" lengthAdjust="spacing" textLength="125" x="149.75" y="406.7969">SensorTypeFactory</text><line style="stroke:#181818;stroke-width:0.5;" x1="7" x2="385" y1="417" y2="417"/><line style="stroke:#181818;stroke-width:0.5;" x1="7" x2="385" y1="425" y2="425"/><ellipse cx="17" cy="439.8105" fill="#84BE84" rx="3" ry="3" style="stroke:#038048;stroke-width:1.0;"/><text fill="#000000" font-family="sans-serif" font-size="14" lengthAdjust="spacing" textLength="354" x="26" y="444.1074">createSensorType(String dscrp, Unit units): SensorType</text></g><!--class SensorType--><g id="elem_SensorType"><rect codeLine="20" fill="#F1F1F1" height="141.1055" id="SensorType" rx="2.5" ry="2.5" style="stroke:#181818;stroke-width:0.5;" width="268" x="216" y="544"/><ellipse cx="307.25" cy="560" fill="#ADD1B2" rx="11" ry="11" style="stroke:#181818;stroke-width:1.0;"/><path d="M310.0156,555.875 Q310.1719,555.6563 310.3594,555.5469 Q310.5469,555.4375 310.7656,555.4375 Q311.1406,555.4375 311.375,555.7031 Q311.6094,555.9531 311.6094,556.5625 L311.6094,558.0156 Q311.6094,558.625 311.375,558.8906 Q311.1406,559.1563 310.7656,559.1563 Q310.4219,559.1563 310.2188,558.9531 Q310.0156,558.7656 309.9063,558.25 Q309.8594,557.8906 309.6719,557.7031 Q309.3438,557.3281 308.7344,557.1094 Q308.125,556.8906 307.5,556.8906 Q306.7344,556.8906 306.0938,557.2188 Q305.4688,557.5469 304.9688,558.2969 Q304.4844,559.0469 304.4844,560.0781 L304.4844,561.1719 Q304.4844,562.4063 305.375,563.2344 Q306.2656,564.0469 307.8594,564.0469 Q308.7969,564.0469 309.4531,563.7969 Q309.8438,563.6406 310.2656,563.2031 Q310.5313,562.9375 310.6719,562.8594 Q310.8281,562.7813 311.0313,562.7813 Q311.3594,562.7813 311.6094,563.0469 Q311.875,563.2969 311.875,563.6406 Q311.875,563.9844 311.5313,564.3906 Q311.0313,564.9688 310.2344,565.2969 Q309.1563,565.75 307.8594,565.75 Q306.3438,565.75 305.1406,565.125 Q304.1563,564.625 303.4688,563.5625 Q302.7813,562.4844 302.7813,561.2031 L302.7813,560.0469 Q302.7813,558.7188 303.3906,557.5781 Q304.0156,556.4219 305.1094,555.8125 Q306.2031,555.1875 307.4375,555.1875 Q308.1719,555.1875 308.8125,555.3594 Q309.4688,555.5156 310.0156,555.875 Z " fill="#000000"/><text fill="#000000" font-family="sans-serif" font-size="14" lengthAdjust="spacing" textLength="77" x="327.75" y="565.7969">SensorType</text><line style="stroke:#181818;stroke-width:0.5;" x1="217" x2="483" y1="576" y2="576"/><rect fill="none" height="6" style="stroke:#C82930;stroke-width:1.0;" width="6" x="224" y="587.8105"/><text fill="#000000" font-family="sans-serif" font-size="14" lengthAdjust="spacing" textLength="76" x="236" y="595.1074">String name</text><rect fill="none" height="6" style="stroke:#C82930;stroke-width:1.0;" width="6" x="224" y="606.4316"/><text fill="#000000" font-family="sans-serif" font-size="14" lengthAdjust="spacing" textLength="51" x="236" y="613.7285">Unit unit</text><line style="stroke:#181818;stroke-width:0.5;" x1="217" x2="483" y1="621.2422" y2="621.2422"/><ellipse cx="227" cy="636.0527" fill="#84BE84" rx="3" ry="3" style="stroke:#038048;stroke-width:1.0;"/><text fill="#000000" font-family="sans-serif" font-size="14" lengthAdjust="spacing" textLength="242" x="236" y="640.3496">SensorType(String name, String units)</text><ellipse cx="227" cy="654.6738" fill="#84BE84" rx="3" ry="3" style="stroke:#038048;stroke-width:1.0;"/><text fill="#000000" font-family="sans-serif" font-size="14" lengthAdjust="spacing" textLength="111" x="236" y="658.9707">getName(): String</text><ellipse cx="227" cy="673.2949" fill="#84BE84" rx="3" ry="3" style="stroke:#038048;stroke-width:1.0;"/><text fill="#000000" font-family="sans-serif" font-size="14" lengthAdjust="spacing" textLength="106" x="236" y="677.5918">getUnits(): String</text></g><!--class Unit--><g id="elem_Unit"><rect codeLine="27" fill="#F1F1F1" height="141.1055" id="Unit" rx="2.5" ry="2.5" style="stroke:#181818;stroke-width:0.5;" width="251" x="224.5" y="740"/><ellipse cx="333.75" cy="756" fill="#EB937F" rx="11" ry="11" style="stroke:#181818;stroke-width:1.0;"/><path d="M332.6094,756.7969 L332.6094,759.2969 L336.9375,759.2969 L336.9375,758.375 Q336.9375,757.7656 337.1719,757.5 Q337.4219,757.2344 337.7969,757.2344 Q338.1719,757.2344 338.4063,757.5 Q338.6406,757.7656 338.6406,758.375 L338.6406,761 L330.6406,761 Q330.0156,761 329.75,760.7656 Q329.5,760.5313 329.5,760.1406 Q329.5,759.7656 329.7656,759.5313 Q330.0313,759.2969 330.6406,759.2969 L330.9063,759.2969 L330.9063,752.6406 L330.6406,752.6406 Q330.0156,752.6406 329.75,752.4063 Q329.5,752.1719 329.5,751.7813 Q329.5,751.4063 329.75,751.1719 Q330.0156,750.9375 330.6406,750.9375 L338.2656,750.9375 L338.2656,753.5313 Q338.2656,754.1406 338.0313,754.4063 Q337.8125,754.6563 337.4219,754.6563 Q337.0469,754.6563 336.8125,754.4063 Q336.5781,754.1406 336.5781,753.5313 L336.5781,752.6406 L332.6094,752.6406 L332.6094,755.0938 L334.0938,755.0938 Q334.0938,754.4375 334.2188,754.25 Q334.4844,753.8438 334.9531,753.8438 Q335.3281,753.8438 335.5625,754.1094 Q335.7969,754.3594 335.7969,754.9688 L335.7969,756.9375 Q335.7969,757.4844 335.6719,757.6719 Q335.4063,758.0625 334.9531,758.0625 Q334.4844,758.0625 334.2188,757.6563 Q334.0938,757.4688 334.0938,756.7969 L332.6094,756.7969 Z " fill="#000000"/><text fill="#000000" font-family="sans-serif" font-size="14" lengthAdjust="spacing" textLength="24" x="354.25" y="761.7969">Unit</text><line style="stroke:#181818;stroke-width:0.5;" x1="225.5" x2="474.5" y1="772" y2="772"/><ellipse cx="235.5" cy="786.8105" fill="none" rx="3" ry="3" style="stroke:#038048;stroke-width:1.0;"/><text fill="#000000" font-family="sans-serif" font-size="14" lengthAdjust="spacing" textLength="103" x="244.5" y="791.1074">TEMPERATURE</text><ellipse cx="235.5" cy="805.4316" fill="none" rx="3" ry="3" style="stroke:#038048;stroke-width:1.0;"/><text fill="#000000" font-family="sans-serif" font-size="14" lengthAdjust="spacing" textLength="63" x="244.5" y="809.7285">HUMIDITY</text><line style="stroke:#181818;stroke-width:0.5;" x1="225.5" x2="474.5" y1="817.2422" y2="817.2422"/><ellipse cx="235.5" cy="832.0527" fill="#84BE84" rx="3" ry="3" style="stroke:#038048;stroke-width:1.0;"/><text fill="#000000" font-family="sans-serif" font-size="14" lengthAdjust="spacing" textLength="111" x="244.5" y="836.3496">getName(): String</text><ellipse cx="235.5" cy="850.6738" fill="#84BE84" rx="3" ry="3" style="stroke:#038048;stroke-width:1.0;"/><text fill="#000000" font-family="sans-serif" font-size="14" lengthAdjust="spacing" textLength="134" x="244.5" y="854.9707">getUnit():String name</text><ellipse cx="235.5" cy="869.2949" fill="#84BE84" rx="3" ry="3" style="stroke:#038048;stroke-width:1.0;"/><text fill="#000000" font-family="sans-serif" font-size="14" lengthAdjust="spacing" textLength="225" x="244.5" y="873.5918">getAllSupportedUnits(): List&lt;String&gt;</text></g><!--class SensorTypeAssembler--><g id="elem_SensorTypeAssembler"><rect codeLine="34" fill="#F1F1F1" height="66.6211" id="SensorTypeAssembler" rx="2.5" ry="2.5" style="stroke:#181818;stroke-width:0.5;" width="429" x="530.5" y="207.5"/><ellipse cx="669.25" cy="223.5" fill="#ADD1B2" rx="11" ry="11" style="stroke:#181818;stroke-width:1.0;"/><path d="M672.0156,219.375 Q672.1719,219.1563 672.3594,219.0469 Q672.5469,218.9375 672.7656,218.9375 Q673.1406,218.9375 673.375,219.2031 Q673.6094,219.4531 673.6094,220.0625 L673.6094,221.5156 Q673.6094,222.125 673.375,222.3906 Q673.1406,222.6563 672.7656,222.6563 Q672.4219,222.6563 672.2188,222.4531 Q672.0156,222.2656 671.9063,221.75 Q671.8594,221.3906 671.6719,221.2031 Q671.3438,220.8281 670.7344,220.6094 Q670.125,220.3906 669.5,220.3906 Q668.7344,220.3906 668.0938,220.7188 Q667.4688,221.0469 666.9688,221.7969 Q666.4844,222.5469 666.4844,223.5781 L666.4844,224.6719 Q666.4844,225.9063 667.375,226.7344 Q668.2656,227.5469 669.8594,227.5469 Q670.7969,227.5469 671.4531,227.2969 Q671.8438,227.1406 672.2656,226.7031 Q672.5313,226.4375 672.6719,226.3594 Q672.8281,226.2813 673.0313,226.2813 Q673.3594,226.2813 673.6094,226.5469 Q673.875,226.7969 673.875,227.1406 Q673.875,227.4844 673.5313,227.8906 Q673.0313,228.4688 672.2344,228.7969 Q671.1563,229.25 669.8594,229.25 Q668.3438,229.25 667.1406,228.625 Q666.1563,228.125 665.4688,227.0625 Q664.7813,225.9844 664.7813,224.7031 L664.7813,223.5469 Q664.7813,222.2188 665.3906,221.0781 Q666.0156,219.9219 667.1094,219.3125 Q668.2031,218.6875 669.4375,218.6875 Q670.1719,218.6875 670.8125,218.8594 Q671.4688,219.0156 672.0156,219.375 Z " fill="#000000"/><text fill="#000000" font-family="sans-serif" font-size="14" lengthAdjust="spacing" textLength="143" x="689.75" y="229.2969">SensorTypeAssembler</text><line style="stroke:#181818;stroke-width:0.5;" x1="531.5" x2="958.5" y1="239.5" y2="239.5"/><line style="stroke:#181818;stroke-width:0.5;" x1="531.5" x2="958.5" y1="247.5" y2="247.5"/><ellipse cx="541.5" cy="262.3105" fill="#84BE84" rx="3" ry="3" style="stroke:#038048;stroke-width:1.0;"/><text fill="#000000" font-family="sans-serif" font-size="14" lengthAdjust="spacing" textLength="403" x="550.5" y="266.6074">sensorTypeToDTO(SensorType sensorType): SensorTypeDTO</text></g><!--class SensorTypeDTO--><g id="elem_SensorTypeDTO"><rect codeLine="39" fill="#F1F1F1" height="141.1055" id="SensorTypeDTO" rx="2.5" ry="2.5" style="stroke:#181818;stroke-width:0.5;" width="298" x="596" y="348"/><ellipse cx="687.25" cy="364" fill="#ADD1B2" rx="11" ry="11" style="stroke:#181818;stroke-width:1.0;"/><path d="M690.0156,359.875 Q690.1719,359.6563 690.3594,359.5469 Q690.5469,359.4375 690.7656,359.4375 Q691.1406,359.4375 691.375,359.7031 Q691.6094,359.9531 691.6094,360.5625 L691.6094,362.0156 Q691.6094,362.625 691.375,362.8906 Q691.1406,363.1563 690.7656,363.1563 Q690.4219,363.1563 690.2188,362.9531 Q690.0156,362.7656 689.9063,362.25 Q689.8594,361.8906 689.6719,361.7031 Q689.3438,361.3281 688.7344,361.1094 Q688.125,360.8906 687.5,360.8906 Q686.7344,360.8906 686.0938,361.2188 Q685.4688,361.5469 684.9688,362.2969 Q684.4844,363.0469 684.4844,364.0781 L684.4844,365.1719 Q684.4844,366.4063 685.375,367.2344 Q686.2656,368.0469 687.8594,368.0469 Q688.7969,368.0469 689.4531,367.7969 Q689.8438,367.6406 690.2656,367.2031 Q690.5313,366.9375 690.6719,366.8594 Q690.8281,366.7813 691.0313,366.7813 Q691.3594,366.7813 691.6094,367.0469 Q691.875,367.2969 691.875,367.6406 Q691.875,367.9844 691.5313,368.3906 Q691.0313,368.9688 690.2344,369.2969 Q689.1563,369.75 687.8594,369.75 Q686.3438,369.75 685.1406,369.125 Q684.1563,368.625 683.4688,367.5625 Q682.7813,366.4844 682.7813,365.2031 L682.7813,364.0469 Q682.7813,362.7188 683.3906,361.5781 Q684.0156,360.4219 685.1094,359.8125 Q686.2031,359.1875 687.4375,359.1875 Q688.1719,359.1875 688.8125,359.3594 Q689.4688,359.5156 690.0156,359.875 Z " fill="#000000"/><text fill="#000000" font-family="sans-serif" font-size="14" lengthAdjust="spacing" textLength="107" x="707.75" y="369.7969">SensorTypeDTO</text><line style="stroke:#181818;stroke-width:0.5;" x1="597" x2="893" y1="380" y2="380"/><rect fill="none" height="6" style="stroke:#C82930;stroke-width:1.0;" width="6" x="604" y="391.8105"/><text fill="#000000" font-family="sans-serif" font-size="14" lengthAdjust="spacing" textLength="76" x="616" y="399.1074">String name</text><rect fill="none" height="6" style="stroke:#C82930;stroke-width:1.0;" width="6" x="604" y="410.4316"/><text fill="#000000" font-family="sans-serif" font-size="14" lengthAdjust="spacing" textLength="71" x="616" y="417.7285">String units</text><line style="stroke:#181818;stroke-width:0.5;" x1="597" x2="893" y1="425.2422" y2="425.2422"/><ellipse cx="607" cy="440.0527" fill="#84BE84" rx="3" ry="3" style="stroke:#038048;stroke-width:1.0;"/><text fill="#000000" font-family="sans-serif" font-size="14" lengthAdjust="spacing" textLength="272" x="616" y="444.3496">SensorTypeDTO(String name, String units)</text><ellipse cx="607" cy="458.6738" fill="#84BE84" rx="3" ry="3" style="stroke:#038048;stroke-width:1.0;"/><text fill="#000000" font-family="sans-serif" font-size="14" lengthAdjust="spacing" textLength="111" x="616" y="462.9707">getName(): String</text><ellipse cx="607" cy="477.2949" fill="#84BE84" rx="3" ry="3" style="stroke:#038048;stroke-width:1.0;"/><text fill="#000000" font-family="sans-serif" font-size="14" lengthAdjust="spacing" textLength="106" x="616" y="481.5918">getUnits(): String</text></g><polygon fill="#181818" points="407.7297,188.7971,417.446,187.1866,411.9052,186.0466,413.0452,180.5058,407.7297,188.7971" style="stroke:#181818;stroke-width:1.0;"/><path d="M490.6659,134.1645 C463.4808,152.0722 438.9717,168.2171 412.7403,185.4965 " fill="none" style="stroke:#181818;stroke-width:1.0;"/><text fill="#000000" font-family="sans-serif" font-size="13" lengthAdjust="spacing" textLength="30" x="465" y="167.0283">Uses</text><text fill="#000000" font-family="sans-serif" font-size="13" lengthAdjust="spacing" textLength="7" x="399.7297" y="184.8254">1</text><text fill="#000000" font-family="sans-serif" font-size="13" lengthAdjust="spacing" textLength="7" x="491.6659" y="149.1928">1</text><polygon fill="none" points="379.9484,543.8841,385.7212,539.5626,383.9524,532.5718,378.1797,536.8933,379.9484,543.8841" style="stroke:#181818;stroke-width:1.0;"/><path d="M369.2087,293.2369 C379.6946,309.8205 389.6063,328.8862 395,348 C412.0192,408.3113 405.8131,427.2733 395,489 C391.8076,507.2239 390.1773,514.9851 383.9524,532.5718 " fill="none" style="stroke:#181818;stroke-width:1.0;"/><text fill="#000000" font-family="sans-serif" font-size="13" lengthAdjust="spacing" textLength="62" x="407" y="424.0283">Composed</text><text fill="#000000" font-family="sans-serif" font-size="13" lengthAdjust="spacing" textLength="20" x="350.9484" y="539.9124">0..*</text><text fill="#000000" font-family="sans-serif" font-size="13" lengthAdjust="spacing" textLength="7" x="361.2087" y="308.2652">1</text><polygon fill="#181818" points="221.0055,384.7503,229.6465,380.0245,224.0398,380.7762,223.288,375.1696,221.0055,384.7503" style="stroke:#181818;stroke-width:1.0;"/><path d="M290.8814,293.2336 C268.3245,322.7765 244.2769,354.2716 224.6467,379.9814 " fill="none" style="stroke:#181818;stroke-width:1.0;"/><text fill="#000000" font-family="sans-serif" font-size="13" lengthAdjust="spacing" textLength="30" x="277" y="326.0283">Uses</text><text fill="#000000" font-family="sans-serif" font-size="13" lengthAdjust="spacing" textLength="7" x="213.0055" y="380.7786">1</text><text fill="#000000" font-family="sans-serif" font-size="13" lengthAdjust="spacing" textLength="7" x="282.8814" y="308.262">1</text><polygon fill="#181818" points="294.6387,543.7592,292.176,534.2232,291.53,539.843,285.9102,539.1971,294.6387,543.7592" style="stroke:#181818;stroke-width:1.0;"/><path d="M222.124,452.4095 C241.9471,477.3814 266.1825,507.9117 290.9083,539.0598 " fill="none" style="stroke:#181818;stroke-width:1.0;stroke-dasharray:7.0,7.0;"/><text fill="#000000" font-family="sans-serif" font-size="13" lengthAdjust="spacing" textLength="45" x="279" y="522.0283">Creates</text><text fill="#000000" font-family="sans-serif" font-size="13" lengthAdjust="spacing" textLength="7" x="286.6387" y="539.7875">1</text><text fill="#000000" font-family="sans-serif" font-size="13" lengthAdjust="spacing" textLength="7" x="214.124" y="467.4378">1</text><polygon fill="none" points="350,739.703,354,733.703,350,727.703,346,733.703,350,739.703" style="stroke:#181818;stroke-width:1.0;"/><path d="M350,685.2644 C350,702.9708 350,709.9949 350,727.703 " fill="none" style="stroke:#181818;stroke-width:1.0;"/><text fill="#000000" font-family="sans-serif" font-size="13" lengthAdjust="spacing" textLength="23" x="351" y="718.0283">Has</text><text fill="#000000" font-family="sans-serif" font-size="13" lengthAdjust="spacing" textLength="7" x="342" y="735.7313">1</text><text fill="#000000" font-family="sans-serif" font-size="13" lengthAdjust="spacing" textLength="5" x="344" y="700.2927">*</text><polygon fill="#181818" points="712.959,207.3693,709.5075,198.1451,709.4559,203.8017,703.7993,203.7501,712.959,207.3693" style="stroke:#181818;stroke-width:1.0;"/><path d="M641.3078,134.3994 C665.521,159.0582 688.3592,182.3167 708.7553,203.0882 " fill="none" style="stroke:#181818;stroke-width:1.0;"/><text fill="#000000" font-family="sans-serif" font-size="13" lengthAdjust="spacing" textLength="30" x="675" y="167.0283">Uses</text><text fill="#000000" font-family="sans-serif" font-size="13" lengthAdjust="spacing" textLength="7" x="684.959" y="203.3977">1</text><text fill="#000000" font-family="sans-serif" font-size="13" lengthAdjust="spacing" textLength="7" x="633.3078" y="149.4277">1</text><polygon fill="#181818" points="745,347.996,749,338.996,745,342.996,741,338.996,745,347.996" style="stroke:#181818;stroke-width:1.0;"/><path d="M745,274.5989 C745,295.2174 745,316.6677 745,341.996 " fill="none" style="stroke:#181818;stroke-width:1.0;stroke-dasharray:7.0,7.0;"/><text fill="#000000" font-family="sans-serif" font-size="13" lengthAdjust="spacing" textLength="45" x="746" y="326.0283">Creates</text><text fill="#000000" font-family="sans-serif" font-size="13" lengthAdjust="spacing" textLength="5" x="739" y="344.0243">*</text><text fill="#000000" font-family="sans-serif" font-size="13" lengthAdjust="spacing" textLength="7" x="737" y="289.6272">1</text><!--SRC=[hLDDJuD04BtFhnWvKTSsUcrCawRMQ6BLM7hmk8LD9S8EsHqEJUD_Tu4A26tLH0vypCwRUVFcSPOPkKab9d9BEQDD5KijWIb39bmJCwKOnKQ579C6-nxhJ1gPOX9hnTjC8Hb-8u0maTRYD8gMIbioWJkQaMP3IQ8Cxc0uaomJskIgIi3mwnl44PHVGvha0OYDuccIBFCiSwrLjD8nMtymneVOylMIJQmt4n2oNTElmgXbgYvm_v4NG8Thqcw29_ZOJzAbwoQe6jJP4xJrkmNH0VY3anmArWSOrEsRqAqCcSpM4G0H6YLPzMj6DZJPNueMuxJumB26WlYLREKQ7bsyKBuwAKFrDlQn3r0wJojcEn31VF4yVva6gvSvYBlLulxcFdWzLSk5sZn_j_p-l5DhLRgkd0YYsLj0RkT-IvVcgEUC0sLTkATaMwQsc6MZVz0JZlrZtfKt74xSlUlTCQwiSsZNqMK-eNSv6fqZUgsnnZYZD2EheiEWIV7eMtJVfszTbpqQTK6kIUdcDW2zyugJoomc7-ETj3yEZCNb7TfsZr7ZWugJw_TzdGqh-0G0]--></g></svg>