<?xml version="1.0" encoding="us-ascii" standalone="no"?><svg xmlns="http://www.w3.org/2000/svg" xmlns:xlink="http://www.w3.org/1999/xlink" contentStyleType="text/css" height="665px" preserveAspectRatio="none" style="width:1977px;height:665px;background:#FFFFFF;" version="1.1" viewBox="0 0 1977 665" width="1977px" zoomAndPan="magnify"><defs/><g><rect fill="#FFFFFF" height="547.3164" style="stroke:#181818;stroke-width:1.0;" width="10" x="312" y="71.9121"/><rect fill="#FFFFFF" height="31.291" style="stroke:#181818;stroke-width:1.0;" width="10" x="497" y="103.2031"/><rect fill="#FFFFFF" height="213.0762" style="stroke:#181818;stroke-width:1.0;" width="10" x="624" y="228.3672"/><rect fill="#FFFFFF" height="137.4941" style="stroke:#181818;stroke-width:1.0;" width="10" x="937" y="228.3672"/><rect fill="#FFFFFF" height="33.6211" style="stroke:#181818;stroke-width:1.0;" width="10" x="1342.5" y="300.9492"/><rect fill="#FFFFFF" height="106.2031" style="stroke:#181818;stroke-width:1.0;" width="10" x="1513.5" y="472.7344"/><rect fill="#FFFFFF" height="33.6211" style="stroke:#181818;stroke-width:1.0;" width="10" x="1851.5" y="514.0254"/><line style="stroke:#181818;stroke-width:0.5;stroke-dasharray:5.0,5.0;" x1="16" x2="16" y1="38.6211" y2="628.2285"/><line style="stroke:#181818;stroke-width:0.5;stroke-dasharray:5.0,5.0;" x1="317" x2="317" y1="38.6211" y2="628.2285"/><line style="stroke:#181818;stroke-width:0.5;stroke-dasharray:5.0,5.0;" x1="502" x2="502" y1="38.6211" y2="628.2285"/><line style="stroke:#181818;stroke-width:0.5;stroke-dasharray:5.0,5.0;" x1="628.5" x2="628.5" y1="38.6211" y2="628.2285"/><line style="stroke:#181818;stroke-width:0.5;stroke-dasharray:5.0,5.0;" x1="941.5" x2="941.5" y1="38.6211" y2="628.2285"/><line style="stroke:#181818;stroke-width:0.5;stroke-dasharray:5.0,5.0;" x1="1347" x2="1347" y1="299.4688" y2="628.2285"/><line style="stroke:#181818;stroke-width:0.5;stroke-dasharray:5.0,5.0;" x1="1518" x2="1518" y1="38.6211" y2="628.2285"/><line style="stroke:#181818;stroke-width:0.5;stroke-dasharray:5.0,5.0;" x1="1856.5" x2="1856.5" y1="512.5449" y2="628.2285"/><rect fill="#E2E2F0" height="32.6211" rx="2.5" ry="2.5" style="stroke:#181818;stroke-width:0.5;" width="22" x="5" y="5"/><text fill="#000000" font-family="sans-serif" font-size="14" lengthAdjust="spacing" textLength="8" x="12" y="27.1074">&#160;&#160;</text><rect fill="#E2E2F0" height="32.6211" rx="2.5" ry="2.5" style="stroke:#181818;stroke-width:0.5;" width="22" x="5" y="627.2285"/><text fill="#000000" font-family="sans-serif" font-size="14" lengthAdjust="spacing" textLength="8" x="12" y="649.3359">&#160;&#160;</text><rect fill="#E2E2F0" height="32.6211" rx="2.5" ry="2.5" style="stroke:#181818;stroke-width:0.5;" width="182" x="226" y="5"/><text fill="#000000" font-family="sans-serif" font-size="14" lengthAdjust="spacing" textLength="168" x="233" y="27.1074">:AddSensorTypeController</text><rect fill="#E2E2F0" height="32.6211" rx="2.5" ry="2.5" style="stroke:#181818;stroke-width:0.5;" width="182" x="226" y="627.2285"/><text fill="#000000" font-family="sans-serif" font-size="14" lengthAdjust="spacing" textLength="168" x="233" y="649.3359">:AddSensorTypeController</text><rect fill="#E2E2F0" height="32.6211" rx="2.5" ry="2.5" style="stroke:#181818;stroke-width:0.5;" width="38" x="483" y="5"/><text fill="#000000" font-family="sans-serif" font-size="14" lengthAdjust="spacing" textLength="24" x="490" y="27.1074">Unit</text><rect fill="#E2E2F0" height="32.6211" rx="2.5" ry="2.5" style="stroke:#181818;stroke-width:0.5;" width="38" x="483" y="627.2285"/><text fill="#000000" font-family="sans-serif" font-size="14" lengthAdjust="spacing" textLength="24" x="490" y="649.3359">Unit</text><rect fill="#E2E2F0" height="32.6211" rx="2.5" ry="2.5" style="stroke:#181818;stroke-width:0.5;" width="83" x="587.5" y="5"/><text fill="#000000" font-family="sans-serif" font-size="14" lengthAdjust="spacing" textLength="69" x="594.5" y="27.1074">:Catalogue</text><rect fill="#E2E2F0" height="32.6211" rx="2.5" ry="2.5" style="stroke:#181818;stroke-width:0.5;" width="83" x="587.5" y="627.2285"/><text fill="#000000" font-family="sans-serif" font-size="14" lengthAdjust="spacing" textLength="69" x="594.5" y="649.3359">:Catalogue</text><rect fill="#E2E2F0" height="32.6211" rx="2.5" ry="2.5" style="stroke:#181818;stroke-width:0.5;" width="143" x="870.5" y="5"/><text fill="#000000" font-family="sans-serif" font-size="14" lengthAdjust="spacing" textLength="129" x="877.5" y="27.1074">:SensorTypeFactory</text><rect fill="#E2E2F0" height="32.6211" rx="2.5" ry="2.5" style="stroke:#181818;stroke-width:0.5;" width="143" x="870.5" y="627.2285"/><text fill="#000000" font-family="sans-serif" font-size="14" lengthAdjust="spacing" textLength="129" x="877.5" y="649.3359">:SensorTypeFactory</text><rect fill="#E2E2F0" height="32.6211" rx="2.5" ry="2.5" style="stroke:#181818;stroke-width:0.5;" width="165" x="1265" y="627.2285"/><text fill="#000000" font-family="sans-serif" font-size="14" lengthAdjust="spacing" textLength="151" x="1272" y="649.3359">sensortype:SensorType</text><rect fill="#E2E2F0" height="32.6211" rx="2.5" ry="2.5" style="stroke:#181818;stroke-width:0.5;" width="157" x="1440" y="5"/><text fill="#000000" font-family="sans-serif" font-size="14" lengthAdjust="spacing" textLength="143" x="1447" y="27.1074">SensorTypeAssembler</text><rect fill="#E2E2F0" height="32.6211" rx="2.5" ry="2.5" style="stroke:#181818;stroke-width:0.5;" width="157" x="1440" y="627.2285"/><text fill="#000000" font-family="sans-serif" font-size="14" lengthAdjust="spacing" textLength="143" x="1447" y="649.3359">SensorTypeAssembler</text><rect fill="#E2E2F0" height="32.6211" rx="2.5" ry="2.5" style="stroke:#181818;stroke-width:0.5;" width="230" x="1741.5" y="627.2285"/><text fill="#000000" font-family="sans-serif" font-size="14" lengthAdjust="spacing" textLength="216" x="1748.5" y="649.3359">sensorTypeDTO:SensorTypeDTO</text><rect fill="#FFFFFF" height="547.3164" style="stroke:#181818;stroke-width:1.0;" width="10" x="312" y="71.9121"/><rect fill="#FFFFFF" height="31.291" style="stroke:#181818;stroke-width:1.0;" width="10" x="497" y="103.2031"/><rect fill="#FFFFFF" height="213.0762" style="stroke:#181818;stroke-width:1.0;" width="10" x="624" y="228.3672"/><rect fill="#FFFFFF" height="137.4941" style="stroke:#181818;stroke-width:1.0;" width="10" x="937" y="228.3672"/><rect fill="#FFFFFF" height="33.6211" style="stroke:#181818;stroke-width:1.0;" width="10" x="1342.5" y="300.9492"/><rect fill="#FFFFFF" height="106.2031" style="stroke:#181818;stroke-width:1.0;" width="10" x="1513.5" y="472.7344"/><rect fill="#FFFFFF" height="33.6211" style="stroke:#181818;stroke-width:1.0;" width="10" x="1851.5" y="514.0254"/><ellipse cx="15.5" cy="71.1621" fill="none" rx="4" ry="4" style="stroke:#181818;stroke-width:1.5;"/><polygon fill="#181818" points="300,67.9121,310,71.9121,300,75.9121,304,71.9121" style="stroke:#181818;stroke-width:1.0;"/><line style="stroke:#181818;stroke-width:1.0;" x1="20" x2="306" y1="71.9121" y2="71.9121"/><text fill="#000000" font-family="sans-serif" font-size="13" lengthAdjust="spacing" textLength="128" x="23" y="66.6494">1: createSensorType()</text><polygon fill="#181818" points="485,99.2031,495,103.2031,485,107.2031,489,103.2031" style="stroke:#181818;stroke-width:1.0;"/><line style="stroke:#181818;stroke-width:1.0;" x1="322" x2="491" y1="103.2031" y2="103.2031"/><text fill="#000000" font-family="sans-serif" font-size="13" lengthAdjust="spacing" textLength="156" x="329" y="97.9404">1.1: getAllSupportedUnits()</text><polygon fill="#181818" points="333,130.4941,323,134.4941,333,138.4941,329,134.4941" style="stroke:#181818;stroke-width:1.0;"/><line style="stroke:#181818;stroke-width:1.0;stroke-dasharray:2.0,2.0;" x1="327" x2="501" y1="134.4941" y2="134.4941"/><text fill="#000000" font-family="sans-serif" font-size="13" lengthAdjust="spacing" textLength="54" x="339" y="129.2314">1.2: units</text><polygon fill="#181818" points="27,161.7852,17,165.7852,27,169.7852,23,165.7852" style="stroke:#181818;stroke-width:1.0;"/><line style="stroke:#181818;stroke-width:1.0;stroke-dasharray:2.0,2.0;" x1="21" x2="311" y1="165.7852" y2="165.7852"/><text fill="#000000" font-family="sans-serif" font-size="13" lengthAdjust="spacing" textLength="54" x="33" y="160.5225">1.3: units</text><polygon fill="#181818" points="300,193.0762,310,197.0762,300,201.0762,304,197.0762" style="stroke:#181818;stroke-width:1.0;"/><line style="stroke:#181818;stroke-width:1.0;" x1="16" x2="306" y1="197.0762" y2="197.0762"/><text fill="#000000" font-family="sans-serif" font-size="13" lengthAdjust="spacing" textLength="272" x="23" y="191.8135">2: createSensorType(String name, String units)</text><polygon fill="#181818" points="612,224.3672,622,228.3672,612,232.3672,616,228.3672" style="stroke:#181818;stroke-width:1.0;"/><line style="stroke:#181818;stroke-width:1.0;" x1="322" x2="618" y1="228.3672" y2="228.3672"/><text fill="#000000" font-family="sans-serif" font-size="13" lengthAdjust="spacing" textLength="283" x="329" y="223.1045">2.1: createSensorType(String name, String units)</text><polygon fill="#181818" points="925,255.6582,935,259.6582,925,263.6582,929,259.6582" style="stroke:#181818;stroke-width:1.0;"/><line style="stroke:#181818;stroke-width:1.0;" x1="634" x2="931" y1="259.6582" y2="259.6582"/><text fill="#000000" font-family="sans-serif" font-size="13" lengthAdjust="spacing" textLength="279" x="641" y="254.3955">2.1.1: addSensorType(String name, String units)</text><polygon fill="#181818" points="1253,286.9492,1263,290.9492,1253,294.9492,1257,290.9492" style="stroke:#181818;stroke-width:1.0;"/><line style="stroke:#181818;stroke-width:1.0;" x1="947" x2="1259" y1="290.9492" y2="290.9492"/><text fill="#000000" font-family="sans-serif" font-size="13" lengthAdjust="spacing" textLength="294" x="954" y="285.6865">2.1.2: createSensorType(String name, String units)</text><rect fill="#E2E2F0" height="32.6211" rx="2.5" ry="2.5" style="stroke:#181818;stroke-width:0.5;" width="165" x="1265" y="267.6582"/><text fill="#000000" font-family="sans-serif" font-size="14" lengthAdjust="spacing" textLength="151" x="1272" y="289.7656">sensortype:SensorType</text><polygon fill="#181818" points="958,330.5703,948,334.5703,958,338.5703,954,334.5703" style="stroke:#181818;stroke-width:1.0;"/><line style="stroke:#181818;stroke-width:1.0;stroke-dasharray:2.0,2.0;" x1="952" x2="1346.5" y1="334.5703" y2="334.5703"/><text fill="#000000" font-family="sans-serif" font-size="13" lengthAdjust="spacing" textLength="104" x="964" y="329.3076">2.1.3: sensorType</text><polygon fill="#181818" points="645,361.8613,635,365.8613,645,369.8613,641,365.8613" style="stroke:#181818;stroke-width:1.0;"/><line style="stroke:#181818;stroke-width:1.0;stroke-dasharray:2.0,2.0;" x1="639" x2="941" y1="365.8613" y2="365.8613"/><text fill="#000000" font-family="sans-serif" font-size="13" lengthAdjust="spacing" textLength="104" x="651" y="360.5986">2.1.4: sensorType</text><line style="stroke:#181818;stroke-width:1.0;" x1="634" x2="676" y1="397.1523" y2="397.1523"/><line style="stroke:#181818;stroke-width:1.0;" x1="676" x2="676" y1="397.1523" y2="410.1523"/><line style="stroke:#181818;stroke-width:1.0;" x1="635" x2="676" y1="410.1523" y2="410.1523"/><polygon fill="#181818" points="645,406.1523,635,410.1523,645,414.1523,641,410.1523" style="stroke:#181818;stroke-width:1.0;"/><text fill="#000000" font-family="sans-serif" font-size="13" lengthAdjust="spacing" textLength="260" x="641" y="391.8896">2.1.5: addSensorTypeToCatalog(sensorType)</text><polygon fill="#181818" points="333,437.4434,323,441.4434,333,445.4434,329,441.4434" style="stroke:#181818;stroke-width:1.0;"/><line style="stroke:#181818;stroke-width:1.0;stroke-dasharray:2.0,2.0;" x1="327" x2="628" y1="441.4434" y2="441.4434"/><text fill="#000000" font-family="sans-serif" font-size="13" lengthAdjust="spacing" textLength="104" x="339" y="436.1807">2.1.6: sensorType</text><polygon fill="#181818" points="1501.5,468.7344,1511.5,472.7344,1501.5,476.7344,1505.5,472.7344" style="stroke:#181818;stroke-width:1.0;"/><line style="stroke:#181818;stroke-width:1.0;" x1="322" x2="1507.5" y1="472.7344" y2="472.7344"/><text fill="#000000" font-family="sans-serif" font-size="13" lengthAdjust="spacing" textLength="256" x="329" y="467.4717">2.2: domainToDTO(SensorType sensorType)</text><polygon fill="#181818" points="1729.5,500.0254,1739.5,504.0254,1729.5,508.0254,1733.5,504.0254" style="stroke:#181818;stroke-width:1.0;"/><line style="stroke:#181818;stroke-width:1.0;" x1="1523.5" x2="1735.5" y1="504.0254" y2="504.0254"/><text fill="#000000" font-family="sans-serif" font-size="13" lengthAdjust="spacing" textLength="194" x="1530.5" y="498.7627">2.2.1: domainToDTO(sensorType)</text><rect fill="#E2E2F0" height="32.6211" rx="2.5" ry="2.5" style="stroke:#181818;stroke-width:0.5;" width="230" x="1741.5" y="480.7344"/><text fill="#000000" font-family="sans-serif" font-size="14" lengthAdjust="spacing" textLength="216" x="1748.5" y="502.8418">sensorTypeDTO:SensorTypeDTO</text><polygon fill="#181818" points="1534.5,543.6465,1524.5,547.6465,1534.5,551.6465,1530.5,547.6465" style="stroke:#181818;stroke-width:1.0;"/><line style="stroke:#181818;stroke-width:1.0;stroke-dasharray:2.0,2.0;" x1="1528.5" x2="1855.5" y1="547.6465" y2="547.6465"/><text fill="#000000" font-family="sans-serif" font-size="13" lengthAdjust="spacing" textLength="130" x="1540.5" y="542.3838">2.2.2: sensorTypeDTO</text><polygon fill="#181818" points="333,574.9375,323,578.9375,333,582.9375,329,578.9375" style="stroke:#181818;stroke-width:1.0;"/><line style="stroke:#181818;stroke-width:1.0;stroke-dasharray:2.0,2.0;" x1="327" x2="1517.5" y1="578.9375" y2="578.9375"/><text fill="#000000" font-family="sans-serif" font-size="13" lengthAdjust="spacing" textLength="130" x="339" y="573.6748">2.2.3: sensorTypeDTO</text><polygon fill="#181818" points="27,606.2285,17,610.2285,27,614.2285,23,610.2285" style="stroke:#181818;stroke-width:1.0;"/><line style="stroke:#181818;stroke-width:1.0;stroke-dasharray:2.0,2.0;" x1="21" x2="311" y1="610.2285" y2="610.2285"/><text fill="#000000" font-family="sans-serif" font-size="13" lengthAdjust="spacing" textLength="130" x="33" y="604.9658">2.2.4: sensorTypeDTO</text><!--SRC=[dLJBQiCm4BpxAqHF2JI6k6aFFXH2IgyznFa0DHR1O4j6KWhv- -xAYRMIvOGMGl2kPcVs9VLSs-ROz5nQziJWnmqx6A6pdXwKsxhU2scKhYwzs2bfjMfReHtScs7GGJPsu8EFY6_7BM_LwIm6XfiLeRpa9pzQfIyEFV66KSOTMpWcyL5W6E7zMsD4ztqhBE5FII7We_eYQc151E39CkmhKwjtqh6IhKjsr89RuS6BPGQ5DJ_WfCtrdmmuiAaGdKFyITXjs-xFVGzrYnfF3ELm_SS_jeh5yw9aPyHdjGZnL0tbp81_kU5TCH5TaQXbRtKZJqpoJZopg-4Obb51un80Jxx-6vDlrxX9eskwBYC8PIV7JXuJu7JdxwaFcTBrcf26IeD4ySyQapfkI3ErmCpyfj91tyzuCfDyyvWesUE8vZNgRQMkW8LdNrA6UCs0usqk5Ry1uNebBZComH1grV56LWhkw88qbEQIADG_2PFnusLF0CCiyCL0VTmqci43sP0Rh6ZmON5ONl18fOSsc_2ayKMuJBEClZl9TmI9DZ7HBm00]--></g></svg>