<?xml version="1.0" encoding="us-ascii" standalone="no"?><svg xmlns="http://www.w3.org/2000/svg" xmlns:xlink="http://www.w3.org/1999/xlink" contentStyleType="text/css" height="519px" preserveAspectRatio="none" style="width:1974px;height:519px;background:#FFFFFF;" version="1.1" viewBox="0 0 1974 519" width="1974px" zoomAndPan="magnify"><defs/><g><rect fill="#FFFFFF" height="344.2012" style="stroke:#181818;stroke-width:1.0;" width="10" x="661" y="120.1641"/><rect fill="#FFFFFF" height="93.873" style="stroke:#181818;stroke-width:1.0;" width="10" x="1245" y="151.4551"/><rect fill="#FFFFFF" height="93.873" style="stroke:#181818;stroke-width:1.0;" width="10" x="1245" y="276.6191"/><rect fill="#FFFFFF" height="31.291" style="stroke:#181818;stroke-width:1.0;" width="10" x="1245" y="401.7832"/><rect fill="#FFFFFF" height="31.291" style="stroke:#181818;stroke-width:1.0;" width="10" x="1861" y="182.7461"/><rect fill="#FFFFFF" height="31.291" style="stroke:#181818;stroke-width:1.0;" width="10" x="1861" y="307.9102"/><line style="stroke:#181818;stroke-width:0.5;stroke-dasharray:5.0,5.0;" x1="14" x2="14" y1="38.6211" y2="482.3652"/><line style="stroke:#181818;stroke-width:0.5;stroke-dasharray:5.0,5.0;" x1="666" x2="666" y1="38.6211" y2="482.3652"/><line style="stroke:#181818;stroke-width:0.5;stroke-dasharray:5.0,5.0;" x1="1249.5" x2="1249.5" y1="38.6211" y2="482.3652"/><line style="stroke:#181818;stroke-width:0.5;stroke-dasharray:5.0,5.0;" x1="1865.5" x2="1865.5" y1="38.6211" y2="482.3652"/><rect fill="#E2E2F0" height="32.6211" rx="2.5" ry="2.5" style="stroke:#181818;stroke-width:0.5;" width="18" x="5" y="5"/><text fill="#000000" font-family="sans-serif" font-size="14" lengthAdjust="spacing" textLength="4" x="12" y="27.1074">&#160;</text><rect fill="#E2E2F0" height="32.6211" rx="2.5" ry="2.5" style="stroke:#181818;stroke-width:0.5;" width="18" x="5" y="481.3652"/><text fill="#000000" font-family="sans-serif" font-size="14" lengthAdjust="spacing" textLength="4" x="12" y="503.4727">&#160;</text><rect fill="#E2E2F0" height="32.6211" rx="2.5" ry="2.5" style="stroke:#181818;stroke-width:0.5;" width="410" x="461" y="5"/><text fill="#000000" font-family="sans-serif" font-size="14" lengthAdjust="spacing" textLength="396" x="468" y="27.1074">:GetMaxInstantaneousTempDifBetweenRoomAndOutsideCTRL</text><rect fill="#E2E2F0" height="32.6211" rx="2.5" ry="2.5" style="stroke:#181818;stroke-width:0.5;" width="410" x="461" y="481.3652"/><text fill="#000000" font-family="sans-serif" font-size="14" lengthAdjust="spacing" textLength="396" x="468" y="503.4727">:GetMaxInstantaneousTempDifBetweenRoomAndOutsideCTRL</text><rect fill="#E2E2F0" height="32.6211" rx="2.5" ry="2.5" style="stroke:#181818;stroke-width:0.5;" width="163" x="1168.5" y="5"/><text fill="#000000" font-family="sans-serif" font-size="14" lengthAdjust="spacing" textLength="149" x="1175.5" y="27.1074">logService : LogService</text><rect fill="#E2E2F0" height="32.6211" rx="2.5" ry="2.5" style="stroke:#181818;stroke-width:0.5;" width="163" x="1168.5" y="481.3652"/><text fill="#000000" font-family="sans-serif" font-size="14" lengthAdjust="spacing" textLength="149" x="1175.5" y="503.4727">logService : LogService</text><rect fill="#E2E2F0" height="32.6211" rx="2.5" ry="2.5" style="stroke:#181818;stroke-width:0.5;" width="205" x="1763.5" y="5"/><text fill="#000000" font-family="sans-serif" font-size="14" lengthAdjust="spacing" textLength="191" x="1770.5" y="27.1074">logRepository : LogRepository</text><rect fill="#E2E2F0" height="32.6211" rx="2.5" ry="2.5" style="stroke:#181818;stroke-width:0.5;" width="205" x="1763.5" y="481.3652"/><text fill="#000000" font-family="sans-serif" font-size="14" lengthAdjust="spacing" textLength="191" x="1770.5" y="503.4727">logRepository : LogRepository</text><rect fill="#FFFFFF" height="344.2012" style="stroke:#181818;stroke-width:1.0;" width="10" x="661" y="120.1641"/><rect fill="#FFFFFF" height="93.873" style="stroke:#181818;stroke-width:1.0;" width="10" x="1245" y="151.4551"/><rect fill="#FFFFFF" height="93.873" style="stroke:#181818;stroke-width:1.0;" width="10" x="1245" y="276.6191"/><rect fill="#FFFFFF" height="31.291" style="stroke:#181818;stroke-width:1.0;" width="10" x="1245" y="401.7832"/><rect fill="#FFFFFF" height="31.291" style="stroke:#181818;stroke-width:1.0;" width="10" x="1861" y="182.7461"/><rect fill="#FFFFFF" height="31.291" style="stroke:#181818;stroke-width:1.0;" width="10" x="1861" y="307.9102"/><rect fill="none" height="43.252" style="stroke:#000000;stroke-width:1.5;" width="872" x="2" y="48.6211"/><path d="M2,48.6211 L64,48.6211 L64,57.6211 L54,67.6211 L2,67.6211 L2,48.6211 " fill="#EEEEEE" style="stroke:#000000;stroke-width:2.0;"/><text fill="#000000" font-family="sans-serif" font-size="13" font-weight="bold" lengthAdjust="spacing" textLength="17" x="15" y="64.6494">ref</text><text fill="#000000" font-family="sans-serif" font-size="12" lengthAdjust="spacing" textLength="268" x="304" y="84.5703">getDevicesByRoomAndTemperatureFunctionality</text><polygon fill="#181818" points="649,116.1641,659,120.1641,649,124.1641,653,120.1641" style="stroke:#181818;stroke-width:1.0;"/><line style="stroke:#181818;stroke-width:1.0;" x1="14" x2="655" y1="120.1641" y2="120.1641"/><text fill="#000000" font-family="sans-serif" font-size="13" font-weight="bold" lengthAdjust="spacing" textLength="7" x="21" y="114.9014">1</text><text fill="#000000" font-family="sans-serif" font-size="13" lengthAdjust="spacing" textLength="617" x="32" y="114.9014">getMaxInstTempDiffBetweenDeviceAndOutside (outsideDeviceDTO, insideDeviceDTO, initialTime, endTime)</text><polygon fill="#181818" points="1233,147.4551,1243,151.4551,1233,155.4551,1237,151.4551" style="stroke:#181818;stroke-width:1.0;"/><line style="stroke:#181818;stroke-width:1.0;" x1="671" x2="1239" y1="151.4551" y2="151.4551"/><text fill="#000000" font-family="sans-serif" font-size="13" font-weight="bold" lengthAdjust="spacing" textLength="7" x="678" y="146.1924">2</text><text fill="#000000" font-family="sans-serif" font-size="13" lengthAdjust="spacing" textLength="544" x="689" y="146.1924">getDeviceReadingsBySensorTypeAndTimePeriod (outsideDeviceID, sensorTypeID, datePeriod)</text><polygon fill="#181818" points="1849,178.7461,1859,182.7461,1849,186.7461,1853,182.7461" style="stroke:#181818;stroke-width:1.0;"/><line style="stroke:#181818;stroke-width:1.0;" x1="1255" x2="1855" y1="182.7461" y2="182.7461"/><text fill="#000000" font-family="sans-serif" font-size="13" font-weight="bold" lengthAdjust="spacing" textLength="7" x="1262" y="177.4834">3</text><text fill="#000000" font-family="sans-serif" font-size="13" lengthAdjust="spacing" textLength="576" x="1273" y="177.4834">findByDeviceIDAndSensorTypeAndDatePeriodBetween (outsideDeviceID, sensorTypeID, datePeriod)</text><polygon fill="#181818" points="1266,210.0371,1256,214.0371,1266,218.0371,1262,214.0371" style="stroke:#181818;stroke-width:1.0;"/><line style="stroke:#181818;stroke-width:1.0;stroke-dasharray:2.0,2.0;" x1="1260" x2="1865" y1="214.0371" y2="214.0371"/><text fill="#000000" font-family="sans-serif" font-size="13" font-weight="bold" lengthAdjust="spacing" textLength="7" x="1272" y="208.7744">4</text><text fill="#000000" font-family="sans-serif" font-size="13" lengthAdjust="spacing" textLength="168" x="1283" y="208.7744">outsideTemperatureReadings</text><polygon fill="#181818" points="682,241.3281,672,245.3281,682,249.3281,678,245.3281" style="stroke:#181818;stroke-width:1.0;"/><line style="stroke:#181818;stroke-width:1.0;stroke-dasharray:2.0,2.0;" x1="676" x2="1249" y1="245.3281" y2="245.3281"/><text fill="#000000" font-family="sans-serif" font-size="13" font-weight="bold" lengthAdjust="spacing" textLength="7" x="688" y="240.0654">5</text><text fill="#000000" font-family="sans-serif" font-size="13" lengthAdjust="spacing" textLength="168" x="699" y="240.0654">outsideTemperatureReadings</text><polygon fill="#181818" points="1233,272.6191,1243,276.6191,1233,280.6191,1237,276.6191" style="stroke:#181818;stroke-width:1.0;"/><line style="stroke:#181818;stroke-width:1.0;" x1="671" x2="1239" y1="276.6191" y2="276.6191"/><text fill="#000000" font-family="sans-serif" font-size="13" font-weight="bold" lengthAdjust="spacing" textLength="7" x="678" y="271.3564">6</text><text fill="#000000" font-family="sans-serif" font-size="13" lengthAdjust="spacing" textLength="536" x="689" y="271.3564">getDeviceReadingsBySensorTypeAndTimePeriod (insideDeviceID, sensorTypeID, datePeriod)</text><polygon fill="#181818" points="1849,303.9102,1859,307.9102,1849,311.9102,1853,307.9102" style="stroke:#181818;stroke-width:1.0;"/><line style="stroke:#181818;stroke-width:1.0;" x1="1255" x2="1855" y1="307.9102" y2="307.9102"/><text fill="#000000" font-family="sans-serif" font-size="13" font-weight="bold" lengthAdjust="spacing" textLength="7" x="1262" y="302.6475">7</text><text fill="#000000" font-family="sans-serif" font-size="13" lengthAdjust="spacing" textLength="568" x="1273" y="302.6475">findByDeviceIDAndSensorTypeAndDatePeriodBetween (insideDeviceID, sensorTypeID, datePeriod)</text><polygon fill="#181818" points="1266,335.2012,1256,339.2012,1266,343.2012,1262,339.2012" style="stroke:#181818;stroke-width:1.0;"/><line style="stroke:#181818;stroke-width:1.0;stroke-dasharray:2.0,2.0;" x1="1260" x2="1865" y1="339.2012" y2="339.2012"/><text fill="#000000" font-family="sans-serif" font-size="13" font-weight="bold" lengthAdjust="spacing" textLength="7" x="1272" y="333.9385">8</text><text fill="#000000" font-family="sans-serif" font-size="13" lengthAdjust="spacing" textLength="162" x="1283" y="333.9385">deviceTemperatureReadings</text><polygon fill="#181818" points="682,366.4922,672,370.4922,682,374.4922,678,370.4922" style="stroke:#181818;stroke-width:1.0;"/><line style="stroke:#181818;stroke-width:1.0;stroke-dasharray:2.0,2.0;" x1="676" x2="1249" y1="370.4922" y2="370.4922"/><text fill="#000000" font-family="sans-serif" font-size="13" font-weight="bold" lengthAdjust="spacing" textLength="7" x="688" y="365.2295">9</text><text fill="#000000" font-family="sans-serif" font-size="13" lengthAdjust="spacing" textLength="162" x="699" y="365.2295">deviceTemperatureReadings</text><polygon fill="#181818" points="1233,397.7832,1243,401.7832,1233,405.7832,1237,401.7832" style="stroke:#181818;stroke-width:1.0;"/><line style="stroke:#181818;stroke-width:1.0;" x1="671" x2="1239" y1="401.7832" y2="401.7832"/><text fill="#000000" font-family="sans-serif" font-size="13" font-weight="bold" lengthAdjust="spacing" textLength="14" x="678" y="396.5205">10</text><text fill="#000000" font-family="sans-serif" font-size="13" lengthAdjust="spacing" textLength="529" x="696" y="396.5205">getDifferenceBetweenReadings (outsideTemperatureReadings, deviceTemperatureReadings)</text><polygon fill="#181818" points="682,429.0742,672,433.0742,682,437.0742,678,433.0742" style="stroke:#181818;stroke-width:1.0;"/><line style="stroke:#181818;stroke-width:1.0;stroke-dasharray:2.0,2.0;" x1="676" x2="1249" y1="433.0742" y2="433.0742"/><text fill="#000000" font-family="sans-serif" font-size="13" font-weight="bold" lengthAdjust="spacing" textLength="14" x="688" y="427.8115">11</text><text fill="#000000" font-family="sans-serif" font-size="13" lengthAdjust="spacing" textLength="133" x="706" y="427.8115">temperatureDifferences</text><polygon fill="#181818" points="25,460.3652,15,464.3652,25,468.3652,21,464.3652" style="stroke:#181818;stroke-width:1.0;"/><line style="stroke:#181818;stroke-width:1.0;stroke-dasharray:2.0,2.0;" x1="19" x2="665" y1="464.3652" y2="464.3652"/><text fill="#000000" font-family="sans-serif" font-size="13" font-weight="bold" lengthAdjust="spacing" textLength="14" x="31" y="459.1025">12</text><text fill="#000000" font-family="sans-serif" font-size="13" lengthAdjust="spacing" textLength="156" x="49" y="459.1025">maxInstantaneousTempDiff</text><!--SRC=[nLJTQeCm5BxFKsIzsi2-W1U3jR9HwEYmxW4oFKf04qcEtNpx9VKdqMv3Ic7eHKvYllFznDpLYXKLeoLhPODKLu1CC49gff2dl6O2wSeyJDDt3MeolvK2bInBK7Pv5Ru0lhAldT06mhmW6vr0LKSytm1-0eXOokf9P8S6DSzWcyJxrQnJAOiZg1DFWOPqFnRd_gwys1D3BJL7gTfkcwk7dMw64DQW54trOUGG1JcL9wF0gWiyII4j02EmxVIcxPbREQ0ODWgU6v4YbuAL70sctKxNZtE0te_UXi673jOvGUzbD-WMekGGK2uk9ZXoLYQyWe22uM863qQCON5Y25vdGhna32Tdd2Sg1fPnKHXjHn1QggIjBIEB-WQAosn6QXS5L8zVsYepNRjFVHfUIiIDUnekXP3cN6IRTW0thISyeX6yz-nwEdxqavAkP-Rq7RoK1vS8oU0Fp57bx0Gi1nmzkqrq_kdv_-IkPBCykEmCVRlS5kCjZCty-g10f31SX3tSUAX_Q1Nypc99QZD5w50ScsLo39AztK9Q_NovvnCK_nhw1W00]--></g></svg>