<?xml version="1.0" encoding="us-ascii" standalone="no"?><svg xmlns="http://www.w3.org/2000/svg" xmlns:xlink="http://www.w3.org/1999/xlink" contentStyleType="text/css" height="475px" preserveAspectRatio="none" style="width:948px;height:475px;background:#FFFFFF;" version="1.1" viewBox="0 0 948 475" width="948px" zoomAndPan="magnify"><defs/><g><rect fill="#FFFFFF" height="285.1055" style="stroke:#181818;stroke-width:1.0;" width="10" x="60" y="91.4883"/><rect fill="#FFFFFF" height="29.3105" style="stroke:#181818;stroke-width:1.0;" width="10" x="906" y="112.7988"/><rect fill="#FFFFFF" height="29.3105" style="stroke:#181818;stroke-width:1.0;" width="10" x="906" y="171.4199"/><rect fill="#FFFFFF" height="29.3105" style="stroke:#181818;stroke-width:1.0;" width="10" x="906" y="230.041"/><rect fill="#FFFFFF" height="29.3105" style="stroke:#181818;stroke-width:1.0;" width="10" x="906" y="288.6621"/><rect fill="#FFFFFF" height="29.3105" style="stroke:#181818;stroke-width:1.0;" width="10" x="906" y="347.2832"/><line style="stroke:#181818;stroke-width:0.5;stroke-dasharray:5.0,5.0;" x1="65" x2="65" y1="81.4883" y2="394.5938"/><line style="stroke:#181818;stroke-width:0.5;stroke-dasharray:5.0,5.0;" x1="911" x2="911" y1="81.4883" y2="394.5938"/><text fill="#000000" font-family="sans-serif" font-size="14" lengthAdjust="spacing" textLength="114" x="5" y="78.5352">RO, PU or Admin</text><ellipse cx="65" cy="13.5" fill="#E2E2F0" rx="8" ry="8" style="stroke:#181818;stroke-width:0.5;"/><path d="M65,21.5 L65,48.5 M52,29.5 L78,29.5 M65,48.5 L52,63.5 M65,48.5 L78,63.5 " fill="none" style="stroke:#181818;stroke-width:0.5;"/><text fill="#000000" font-family="sans-serif" font-size="14" lengthAdjust="spacing" textLength="114" x="5" y="407.1289">RO, PU or Admin</text><ellipse cx="65" cy="418.582" fill="#E2E2F0" rx="8" ry="8" style="stroke:#181818;stroke-width:0.5;"/><path d="M65,426.582 L65,453.582 M52,434.582 L78,434.582 M65,453.582 L52,468.582 M65,453.582 L78,468.582 " fill="none" style="stroke:#181818;stroke-width:0.5;"/><rect fill="#E2E2F0" height="30.4883" rx="2.5" ry="2.5" style="stroke:#181818;stroke-width:0.5;" width="62" x="880" y="50"/><text fill="#000000" font-family="sans-serif" font-size="14" lengthAdjust="spacing" textLength="48" x="887" y="70.5352">System</text><rect fill="#E2E2F0" height="30.4883" rx="2.5" ry="2.5" style="stroke:#181818;stroke-width:0.5;" width="62" x="880" y="393.5938"/><text fill="#000000" font-family="sans-serif" font-size="14" lengthAdjust="spacing" textLength="48" x="887" y="414.1289">System</text><rect fill="#FFFFFF" height="285.1055" style="stroke:#181818;stroke-width:1.0;" width="10" x="60" y="91.4883"/><rect fill="#FFFFFF" height="29.3105" style="stroke:#181818;stroke-width:1.0;" width="10" x="906" y="112.7988"/><rect fill="#FFFFFF" height="29.3105" style="stroke:#181818;stroke-width:1.0;" width="10" x="906" y="171.4199"/><rect fill="#FFFFFF" height="29.3105" style="stroke:#181818;stroke-width:1.0;" width="10" x="906" y="230.041"/><rect fill="#FFFFFF" height="29.3105" style="stroke:#181818;stroke-width:1.0;" width="10" x="906" y="288.6621"/><rect fill="#FFFFFF" height="29.3105" style="stroke:#181818;stroke-width:1.0;" width="10" x="906" y="347.2832"/><polygon fill="#181818" points="894,108.7988,904,112.7988,894,116.7988,898,112.7988" style="stroke:#181818;stroke-width:1.0;"/><line style="stroke:#181818;stroke-width:1.0;" x1="70" x2="900" y1="112.7988" y2="112.7988"/><text fill="#000000" font-family="sans-serif" font-size="13" lengthAdjust="spacing" textLength="817" x="77" y="108.0566">I want to get the maximum instantaneous temperature difference between a device in the room and the outside, in a given period.</text><polygon fill="#181818" points="81,138.1094,71,142.1094,81,146.1094,77,142.1094" style="stroke:#181818;stroke-width:1.0;"/><line style="stroke:#181818;stroke-width:1.0;stroke-dasharray:2.0,2.0;" x1="75" x2="910" y1="142.1094" y2="142.1094"/><text fill="#000000" font-family="sans-serif" font-size="13" lengthAdjust="spacing" textLength="95" x="87" y="137.3672">In which room?</text><polygon fill="#181818" points="894,167.4199,904,171.4199,894,175.4199,898,171.4199" style="stroke:#181818;stroke-width:1.0;"/><line style="stroke:#181818;stroke-width:1.0;" x1="70" x2="900" y1="171.4199" y2="171.4199"/><text fill="#000000" font-family="sans-serif" font-size="13" lengthAdjust="spacing" textLength="40" x="77" y="166.6777">Room!</text><polygon fill="#181818" points="81,196.7305,71,200.7305,81,204.7305,77,200.7305" style="stroke:#181818;stroke-width:1.0;"/><line style="stroke:#181818;stroke-width:1.0;stroke-dasharray:2.0,2.0;" x1="75" x2="910" y1="200.7305" y2="200.7305"/><text fill="#000000" font-family="sans-serif" font-size="13" lengthAdjust="spacing" textLength="333" x="87" y="195.9883">Which device with temperature reading functionality?</text><polygon fill="#181818" points="894,226.041,904,230.041,894,234.041,898,230.041" style="stroke:#181818;stroke-width:1.0;"/><line style="stroke:#181818;stroke-width:1.0;" x1="70" x2="900" y1="230.041" y2="230.041"/><text fill="#000000" font-family="sans-serif" font-size="13" lengthAdjust="spacing" textLength="46" x="77" y="225.2988">Device!</text><polygon fill="#181818" points="81,255.3516,71,259.3516,81,263.3516,77,259.3516" style="stroke:#181818;stroke-width:1.0;"/><line style="stroke:#181818;stroke-width:1.0;stroke-dasharray:2.0,2.0;" x1="75" x2="910" y1="259.3516" y2="259.3516"/><text fill="#000000" font-family="sans-serif" font-size="13" lengthAdjust="spacing" textLength="228" x="87" y="254.6094">Time at the beginning of the period?</text><polygon fill="#181818" points="894,284.6621,904,288.6621,894,292.6621,898,288.6621" style="stroke:#181818;stroke-width:1.0;"/><line style="stroke:#181818;stroke-width:1.0;" x1="70" x2="900" y1="288.6621" y2="288.6621"/><text fill="#000000" font-family="sans-serif" font-size="13" lengthAdjust="spacing" textLength="227" x="77" y="283.9199">Time at the beginning of the period!</text><polygon fill="#181818" points="81,313.9727,71,317.9727,81,321.9727,77,317.9727" style="stroke:#181818;stroke-width:1.0;"/><line style="stroke:#181818;stroke-width:1.0;stroke-dasharray:2.0,2.0;" x1="75" x2="910" y1="317.9727" y2="317.9727"/><text fill="#000000" font-family="sans-serif" font-size="13" lengthAdjust="spacing" textLength="188" x="87" y="313.2305">Time at the end of the period?</text><polygon fill="#181818" points="894,343.2832,904,347.2832,894,351.2832,898,347.2832" style="stroke:#181818;stroke-width:1.0;"/><line style="stroke:#181818;stroke-width:1.0;" x1="70" x2="900" y1="347.2832" y2="347.2832"/><text fill="#000000" font-family="sans-serif" font-size="13" lengthAdjust="spacing" textLength="187" x="77" y="342.541">Time at the end of the period!</text><polygon fill="#181818" points="76,372.5938,66,376.5938,76,380.5938,72,376.5938" style="stroke:#181818;stroke-width:1.0;"/><line style="stroke:#181818;stroke-width:1.0;stroke-dasharray:2.0,2.0;" x1="70" x2="910" y1="376.5938" y2="376.5938"/><text fill="#000000" font-family="sans-serif" font-size="13" lengthAdjust="spacing" textLength="705" x="82" y="371.8516">Maximum instantaneous temperature difference between a device in the room and the outside in a given period.</text><!--SRC=[jPDDJiCm48NtESLhroq7w0A4n8O5eYfKhAVn91cf7aUsqz3RupYLW1QfGGWfYfFnpFVU-6VMUgejOKz7rqK4ov6K2YgZyvXldXTORv4-xuqLdOC2je5zqPAFKafB6l5o395jCTJ8WIAF6SCBozlJx0gFw8Vaw51p6Xg6fNUndOLeI9hfOTS5fEIMFSNECunK5NlMah7Zs3Ch28OFaWAY6UATio0r-ITr4CJmOfWar7981GacpjnykZlP7GSiayN1QZAew1ifcuoyAmoVLvntj4bvi-lSjmmzkUubDjzQz4n6j4RLQG8vfRt4unJrXmoygeyLNiKoQ5pp7TUYEWYwAWV6vPaYE07pMpUSzkrFFYu04_RZwR-EtK-dxhATBv5yJpu0]--></g></svg>