<?xml version="1.0" encoding="us-ascii" standalone="no"?><svg xmlns="http://www.w3.org/2000/svg" xmlns:xlink="http://www.w3.org/1999/xlink" contentStyleType="text/css" height="519px" preserveAspectRatio="none" style="width:2117px;height:519px;background:#FFFFFF;" version="1.1" viewBox="0 0 2117 519" width="2117px" zoomAndPan="magnify"><defs/><g><rect fill="#FFFFFF" height="344.2012" style="stroke:#181818;stroke-width:1.0;" width="10" x="724" y="120.1641"/><rect fill="#FFFFFF" height="93.873" style="stroke:#181818;stroke-width:1.0;" width="10" x="1388" y="151.4551"/><rect fill="#FFFFFF" height="93.873" style="stroke:#181818;stroke-width:1.0;" width="10" x="1388" y="276.6191"/><rect fill="#FFFFFF" height="31.291" style="stroke:#181818;stroke-width:1.0;" width="10" x="1388" y="401.7832"/><rect fill="#FFFFFF" height="31.291" style="stroke:#181818;stroke-width:1.0;" width="10" x="2004" y="182.7461"/><rect fill="#FFFFFF" height="31.291" style="stroke:#181818;stroke-width:1.0;" width="10" x="2004" y="307.9102"/><line style="stroke:#181818;stroke-width:0.5;stroke-dasharray:5.0,5.0;" x1="14" x2="14" y1="38.6211" y2="482.3652"/><line style="stroke:#181818;stroke-width:0.5;stroke-dasharray:5.0,5.0;" x1="729" x2="729" y1="38.6211" y2="482.3652"/><line style="stroke:#181818;stroke-width:0.5;stroke-dasharray:5.0,5.0;" x1="1392.5" x2="1392.5" y1="38.6211" y2="482.3652"/><line style="stroke:#181818;stroke-width:0.5;stroke-dasharray:5.0,5.0;" x1="2008.5" x2="2008.5" y1="38.6211" y2="482.3652"/><rect fill="#E2E2F0" height="32.6211" rx="2.5" ry="2.5" style="stroke:#181818;stroke-width:0.5;" width="18" x="5" y="5"/><text fill="#000000" font-family="sans-serif" font-size="14" lengthAdjust="spacing" textLength="4" x="12" y="27.1074">&#160;</text><rect fill="#E2E2F0" height="32.6211" rx="2.5" ry="2.5" style="stroke:#181818;stroke-width:0.5;" width="18" x="5" y="481.3652"/><text fill="#000000" font-family="sans-serif" font-size="14" lengthAdjust="spacing" textLength="4" x="12" y="503.4727">&#160;</text><rect fill="#E2E2F0" height="32.6211" rx="2.5" ry="2.5" style="stroke:#181818;stroke-width:0.5;" width="410" x="524" y="5"/><text fill="#000000" font-family="sans-serif" font-size="14" lengthAdjust="spacing" textLength="396" x="531" y="27.1074">:GetMaxInstantaneousTempDifBetweenRoomAndOutsideCTRL</text><rect fill="#E2E2F0" height="32.6211" rx="2.5" ry="2.5" style="stroke:#181818;stroke-width:0.5;" width="410" x="524" y="481.3652"/><text fill="#000000" font-family="sans-serif" font-size="14" lengthAdjust="spacing" textLength="396" x="531" y="503.4727">:GetMaxInstantaneousTempDifBetweenRoomAndOutsideCTRL</text><rect fill="#E2E2F0" height="32.6211" rx="2.5" ry="2.5" style="stroke:#181818;stroke-width:0.5;" width="163" x="1311.5" y="5"/><text fill="#000000" font-family="sans-serif" font-size="14" lengthAdjust="spacing" textLength="149" x="1318.5" y="27.1074">logService : LogService</text><rect fill="#E2E2F0" height="32.6211" rx="2.5" ry="2.5" style="stroke:#181818;stroke-width:0.5;" width="163" x="1311.5" y="481.3652"/><text fill="#000000" font-family="sans-serif" font-size="14" lengthAdjust="spacing" textLength="149" x="1318.5" y="503.4727">logService : LogService</text><rect fill="#E2E2F0" height="32.6211" rx="2.5" ry="2.5" style="stroke:#181818;stroke-width:0.5;" width="205" x="1906.5" y="5"/><text fill="#000000" font-family="sans-serif" font-size="14" lengthAdjust="spacing" textLength="191" x="1913.5" y="27.1074">logRepository : LogRepository</text><rect fill="#E2E2F0" height="32.6211" rx="2.5" ry="2.5" style="stroke:#181818;stroke-width:0.5;" width="205" x="1906.5" y="481.3652"/><text fill="#000000" font-family="sans-serif" font-size="14" lengthAdjust="spacing" textLength="191" x="1913.5" y="503.4727">logRepository : LogRepository</text><rect fill="#FFFFFF" height="344.2012" style="stroke:#181818;stroke-width:1.0;" width="10" x="724" y="120.1641"/><rect fill="#FFFFFF" height="93.873" style="stroke:#181818;stroke-width:1.0;" width="10" x="1388" y="151.4551"/><rect fill="#FFFFFF" height="93.873" style="stroke:#181818;stroke-width:1.0;" width="10" x="1388" y="276.6191"/><rect fill="#FFFFFF" height="31.291" style="stroke:#181818;stroke-width:1.0;" width="10" x="1388" y="401.7832"/><rect fill="#FFFFFF" height="31.291" style="stroke:#181818;stroke-width:1.0;" width="10" x="2004" y="182.7461"/><rect fill="#FFFFFF" height="31.291" style="stroke:#181818;stroke-width:1.0;" width="10" x="2004" y="307.9102"/><rect fill="none" height="43.252" style="stroke:#000000;stroke-width:1.5;" width="935" x="2" y="48.6211"/><path d="M2,48.6211 L64,48.6211 L64,57.6211 L54,67.6211 L2,67.6211 L2,48.6211 " fill="#EEEEEE" style="stroke:#000000;stroke-width:2.0;"/><text fill="#000000" font-family="sans-serif" font-size="13" font-weight="bold" lengthAdjust="spacing" textLength="17" x="15" y="64.6494">ref</text><text fill="#000000" font-family="sans-serif" font-size="12" lengthAdjust="spacing" textLength="268" x="335.5" y="84.5703">getDevicesByRoomAndTemperatureFunctionality</text><polygon fill="#181818" points="712,116.1641,722,120.1641,712,124.1641,716,120.1641" style="stroke:#181818;stroke-width:1.0;"/><line style="stroke:#181818;stroke-width:1.0;" x1="14" x2="718" y1="120.1641" y2="120.1641"/><text fill="#000000" font-family="sans-serif" font-size="13" font-weight="bold" lengthAdjust="spacing" textLength="7" x="21" y="114.9014">1</text><text fill="#000000" font-family="sans-serif" font-size="13" lengthAdjust="spacing" textLength="680" x="32" y="114.9014">getMaxInstTempDiffBetweenDeviceAndOutside (outsideDeviceDTO, insideDeviceDTO, initialTime, endTime, timeDelta)</text><polygon fill="#181818" points="1376,147.4551,1386,151.4551,1376,155.4551,1380,151.4551" style="stroke:#181818;stroke-width:1.0;"/><line style="stroke:#181818;stroke-width:1.0;" x1="734" x2="1382" y1="151.4551" y2="151.4551"/><text fill="#000000" font-family="sans-serif" font-size="13" font-weight="bold" lengthAdjust="spacing" textLength="7" x="741" y="146.1924">2</text><text fill="#000000" font-family="sans-serif" font-size="13" lengthAdjust="spacing" textLength="544" x="752" y="146.1924">getDeviceReadingsBySensorTypeAndTimePeriod (outsideDeviceID, sensorTypeID, datePeriod)</text><polygon fill="#181818" points="1992,178.7461,2002,182.7461,1992,186.7461,1996,182.7461" style="stroke:#181818;stroke-width:1.0;"/><line style="stroke:#181818;stroke-width:1.0;" x1="1398" x2="1998" y1="182.7461" y2="182.7461"/><text fill="#000000" font-family="sans-serif" font-size="13" font-weight="bold" lengthAdjust="spacing" textLength="7" x="1405" y="177.4834">3</text><text fill="#000000" font-family="sans-serif" font-size="13" lengthAdjust="spacing" textLength="576" x="1416" y="177.4834">findByDeviceIDAndSensorTypeAndDatePeriodBetween (outsideDeviceID, sensorTypeID, datePeriod)</text><polygon fill="#181818" points="1409,210.0371,1399,214.0371,1409,218.0371,1405,214.0371" style="stroke:#181818;stroke-width:1.0;"/><line style="stroke:#181818;stroke-width:1.0;stroke-dasharray:2.0,2.0;" x1="1403" x2="2008" y1="214.0371" y2="214.0371"/><text fill="#000000" font-family="sans-serif" font-size="13" font-weight="bold" lengthAdjust="spacing" textLength="7" x="1415" y="208.7744">4</text><text fill="#000000" font-family="sans-serif" font-size="13" lengthAdjust="spacing" textLength="168" x="1426" y="208.7744">outsideTemperatureReadings</text><polygon fill="#181818" points="745,241.3281,735,245.3281,745,249.3281,741,245.3281" style="stroke:#181818;stroke-width:1.0;"/><line style="stroke:#181818;stroke-width:1.0;stroke-dasharray:2.0,2.0;" x1="739" x2="1392" y1="245.3281" y2="245.3281"/><text fill="#000000" font-family="sans-serif" font-size="13" font-weight="bold" lengthAdjust="spacing" textLength="7" x="751" y="240.0654">5</text><text fill="#000000" font-family="sans-serif" font-size="13" lengthAdjust="spacing" textLength="168" x="762" y="240.0654">outsideTemperatureReadings</text><polygon fill="#181818" points="1376,272.6191,1386,276.6191,1376,280.6191,1380,276.6191" style="stroke:#181818;stroke-width:1.0;"/><line style="stroke:#181818;stroke-width:1.0;" x1="734" x2="1382" y1="276.6191" y2="276.6191"/><text fill="#000000" font-family="sans-serif" font-size="13" font-weight="bold" lengthAdjust="spacing" textLength="7" x="741" y="271.3564">6</text><text fill="#000000" font-family="sans-serif" font-size="13" lengthAdjust="spacing" textLength="536" x="752" y="271.3564">getDeviceReadingsBySensorTypeAndTimePeriod (insideDeviceID, sensorTypeID, datePeriod)</text><polygon fill="#181818" points="1992,303.9102,2002,307.9102,1992,311.9102,1996,307.9102" style="stroke:#181818;stroke-width:1.0;"/><line style="stroke:#181818;stroke-width:1.0;" x1="1398" x2="1998" y1="307.9102" y2="307.9102"/><text fill="#000000" font-family="sans-serif" font-size="13" font-weight="bold" lengthAdjust="spacing" textLength="7" x="1405" y="302.6475">7</text><text fill="#000000" font-family="sans-serif" font-size="13" lengthAdjust="spacing" textLength="568" x="1416" y="302.6475">findByDeviceIDAndSensorTypeAndDatePeriodBetween (insideDeviceID, sensorTypeID, datePeriod)</text><polygon fill="#181818" points="1409,335.2012,1399,339.2012,1409,343.2012,1405,339.2012" style="stroke:#181818;stroke-width:1.0;"/><line style="stroke:#181818;stroke-width:1.0;stroke-dasharray:2.0,2.0;" x1="1403" x2="2008" y1="339.2012" y2="339.2012"/><text fill="#000000" font-family="sans-serif" font-size="13" font-weight="bold" lengthAdjust="spacing" textLength="7" x="1415" y="333.9385">8</text><text fill="#000000" font-family="sans-serif" font-size="13" lengthAdjust="spacing" textLength="162" x="1426" y="333.9385">deviceTemperatureReadings</text><polygon fill="#181818" points="745,366.4922,735,370.4922,745,374.4922,741,370.4922" style="stroke:#181818;stroke-width:1.0;"/><line style="stroke:#181818;stroke-width:1.0;stroke-dasharray:2.0,2.0;" x1="739" x2="1392" y1="370.4922" y2="370.4922"/><text fill="#000000" font-family="sans-serif" font-size="13" font-weight="bold" lengthAdjust="spacing" textLength="7" x="751" y="365.2295">9</text><text fill="#000000" font-family="sans-serif" font-size="13" lengthAdjust="spacing" textLength="162" x="762" y="365.2295">deviceTemperatureReadings</text><polygon fill="#181818" points="1376,397.7832,1386,401.7832,1376,405.7832,1380,401.7832" style="stroke:#181818;stroke-width:1.0;"/><line style="stroke:#181818;stroke-width:1.0;" x1="734" x2="1382" y1="401.7832" y2="401.7832"/><text fill="#000000" font-family="sans-serif" font-size="13" font-weight="bold" lengthAdjust="spacing" textLength="14" x="741" y="396.5205">10</text><text fill="#000000" font-family="sans-serif" font-size="13" lengthAdjust="spacing" textLength="617" x="759" y="396.5205">getMaxDifferenceBetweenReadings (outsideTemperatureReadings, deviceTemperatureReadings, timeDelta)</text><polygon fill="#181818" points="745,429.0742,735,433.0742,745,437.0742,741,433.0742" style="stroke:#181818;stroke-width:1.0;"/><line style="stroke:#181818;stroke-width:1.0;stroke-dasharray:2.0,2.0;" x1="739" x2="1392" y1="433.0742" y2="433.0742"/><text fill="#000000" font-family="sans-serif" font-size="13" font-weight="bold" lengthAdjust="spacing" textLength="14" x="751" y="427.8115">11</text><text fill="#000000" font-family="sans-serif" font-size="13" lengthAdjust="spacing" textLength="154" x="769" y="427.8115">maxTemperatureDifference</text><polygon fill="#181818" points="25,460.3652,15,464.3652,25,468.3652,21,464.3652" style="stroke:#181818;stroke-width:1.0;"/><line style="stroke:#181818;stroke-width:1.0;stroke-dasharray:2.0,2.0;" x1="19" x2="728" y1="464.3652" y2="464.3652"/><text fill="#000000" font-family="sans-serif" font-size="13" font-weight="bold" lengthAdjust="spacing" textLength="14" x="31" y="459.1025">12</text><text fill="#000000" font-family="sans-serif" font-size="13" lengthAdjust="spacing" textLength="154" x="49" y="459.1025">maxTemperatureDifference</text><!--SRC=[nLJTQi8m5BxFKsHURL1Ve1U3QTaG78xQFS2PFPP0cvJarDctNsB_OfsZY30iafCst_b-mdaeDMG5y1ngLH4t1H98OAm4JM8dIf34P_O7XdyQr6VxIoL9gpn7xLxFmZUaTpYkfB4Gza5LcGIBCXBx1T8teeoLAbvakgd8Y1INIRoUZJhbAjkYFeWTyf2l- -BKVoWlpiHOAYD8wRevDjJToM67CQX8oQhuidAOnZrN1wl0gGiyII7Fa29qxSoYRfaxEQY1AeslbToHK19oGHRJ7UVpvp50wqThG-T30piumHzLisXUHCacu49UR0WIa2UYm82ZvN9QaFsFC2TuiheieGCGUYGOyqAoz0OFFNqnGYfaPcLkKHgbaxfqv5o33zH2fID-goZWfl_ILQdjsdpgq_02OyEwfJ444lAzaEcYxi1jwpCUKG_UsdSx7VyMd9LyFZAdxU05thd4M8f_OFOgHvTXEc3lsNsYyo_I_oTt8vlfmQKdwFlbDXblMcns8BX1W1hb3hkns2Bsz_gNRi5r8bU6mBKCH_eAE7gO0xT9yYoM6tmJKVonz0C0]--></g></svg>