<?xml version="1.0" encoding="us-ascii" standalone="no"?><svg xmlns="http://www.w3.org/2000/svg" xmlns:xlink="http://www.w3.org/1999/xlink" contentStyleType="text/css" height="538px" preserveAspectRatio="none" style="width:914px;height:538px;background:#FFFFFF;" version="1.1" viewBox="0 0 914 538" width="914px" zoomAndPan="magnify"><defs/><g><text fill="#000000" font-family="sans-serif" font-size="14" font-weight="bold" lengthAdjust="spacing" textLength="75" x="421.25" y="30.1074">get Rooms</text><rect fill="#FFFFFF" height="371.5313" style="stroke:#181818;stroke-width:1.0;" width="10" x="141" y="111.5332"/><rect fill="#FFFFFF" height="93.873" style="stroke:#181818;stroke-width:1.0;" width="10" x="315" y="142.8242"/><rect fill="#FFFFFF" height="31.291" style="stroke:#181818;stroke-width:1.0;" width="10" x="437.5" y="174.1152"/><rect fill="#FFFFFF" height="183.7852" style="stroke:#181818;stroke-width:1.0;" width="10" x="569.5" y="267.9883"/><rect fill="#FFFFFF" height="33.6211" style="stroke:#181818;stroke-width:1.0;" width="10" x="820" y="335.5703"/><rect fill="none" height="138.4941" style="stroke:#000000;stroke-width:1.5;" width="404.5" x="504" y="282.9883"/><line style="stroke:#181818;stroke-width:0.5;stroke-dasharray:5.0,5.0;" x1="14" x2="14" y1="78.2422" y2="501.0645"/><line style="stroke:#181818;stroke-width:0.5;stroke-dasharray:5.0,5.0;" x1="146" x2="146" y1="78.2422" y2="501.0645"/><line style="stroke:#181818;stroke-width:0.5;stroke-dasharray:5.0,5.0;" x1="320" x2="320" y1="78.2422" y2="501.0645"/><line style="stroke:#181818;stroke-width:0.5;stroke-dasharray:5.0,5.0;" x1="442" x2="442" y1="78.2422" y2="501.0645"/><line style="stroke:#181818;stroke-width:0.5;stroke-dasharray:5.0,5.0;" x1="574" x2="574" y1="78.2422" y2="501.0645"/><line style="stroke:#181818;stroke-width:0.5;stroke-dasharray:5.0,5.0;" x1="824.5" x2="824.5" y1="334.0898" y2="501.0645"/><rect fill="#E2E2F0" height="32.6211" rx="2.5" ry="2.5" style="stroke:#181818;stroke-width:0.5;" width="18" x="5" y="44.6211"/><text fill="#000000" font-family="sans-serif" font-size="14" lengthAdjust="spacing" textLength="4" x="12" y="66.7285">&#160;</text><rect fill="#E2E2F0" height="32.6211" rx="2.5" ry="2.5" style="stroke:#181818;stroke-width:0.5;" width="18" x="5" y="500.0645"/><text fill="#000000" font-family="sans-serif" font-size="14" lengthAdjust="spacing" textLength="4" x="12" y="522.1719">&#160;</text><rect fill="#E2E2F0" height="32.6211" rx="2.5" ry="2.5" style="stroke:#181818;stroke-width:0.5;" width="226" x="33" y="44.6211"/><text fill="#000000" font-family="sans-serif" font-size="14" lengthAdjust="spacing" textLength="212" x="40" y="66.7285">:AddActuatorToDevice_Controller</text><rect fill="#E2E2F0" height="32.6211" rx="2.5" ry="2.5" style="stroke:#181818;stroke-width:0.5;" width="226" x="33" y="500.0645"/><text fill="#000000" font-family="sans-serif" font-size="14" lengthAdjust="spacing" textLength="212" x="40" y="522.1719">:AddActuatorToDevice_Controller</text><rect fill="#E2E2F0" height="32.6211" rx="2.5" ry="2.5" style="stroke:#181818;stroke-width:0.5;" width="102" x="269" y="44.6211"/><text fill="#000000" font-family="sans-serif" font-size="14" lengthAdjust="spacing" textLength="88" x="276" y="66.7285">:RoomService</text><rect fill="#E2E2F0" height="32.6211" rx="2.5" ry="2.5" style="stroke:#181818;stroke-width:0.5;" width="102" x="269" y="500.0645"/><text fill="#000000" font-family="sans-serif" font-size="14" lengthAdjust="spacing" textLength="88" x="276" y="522.1719">:RoomService</text><rect fill="#E2E2F0" height="32.6211" rx="2.5" ry="2.5" style="stroke:#181818;stroke-width:0.5;" width="123" x="381" y="44.6211"/><text fill="#000000" font-family="sans-serif" font-size="14" lengthAdjust="spacing" textLength="109" x="388" y="66.7285">:RoomRepository</text><rect fill="#E2E2F0" height="32.6211" rx="2.5" ry="2.5" style="stroke:#181818;stroke-width:0.5;" width="123" x="381" y="500.0645"/><text fill="#000000" font-family="sans-serif" font-size="14" lengthAdjust="spacing" textLength="109" x="388" y="522.1719">:RoomRepository</text><rect fill="#E2E2F0" height="32.6211" rx="2.5" ry="2.5" style="stroke:#181818;stroke-width:0.5;" width="121" x="514" y="44.6211"/><text fill="#000000" font-family="sans-serif" font-size="14" lengthAdjust="spacing" textLength="107" x="521" y="66.7285">:RoomAssembler</text><rect fill="#E2E2F0" height="32.6211" rx="2.5" ry="2.5" style="stroke:#181818;stroke-width:0.5;" width="121" x="514" y="500.0645"/><text fill="#000000" font-family="sans-serif" font-size="14" lengthAdjust="spacing" textLength="107" x="521" y="522.1719">:RoomAssembler</text><rect fill="#E2E2F0" height="32.6211" rx="2.5" ry="2.5" style="stroke:#181818;stroke-width:0.5;" width="147" x="751.5" y="500.0645"/><text fill="#000000" font-family="sans-serif" font-size="14" lengthAdjust="spacing" textLength="133" x="758.5" y="522.1719">roomDTO:RoomDTO</text><rect fill="#FFFFFF" height="371.5313" style="stroke:#181818;stroke-width:1.0;" width="10" x="141" y="111.5332"/><rect fill="#FFFFFF" height="93.873" style="stroke:#181818;stroke-width:1.0;" width="10" x="315" y="142.8242"/><rect fill="#FFFFFF" height="31.291" style="stroke:#181818;stroke-width:1.0;" width="10" x="437.5" y="174.1152"/><rect fill="#FFFFFF" height="183.7852" style="stroke:#181818;stroke-width:1.0;" width="10" x="569.5" y="267.9883"/><rect fill="#FFFFFF" height="33.6211" style="stroke:#181818;stroke-width:1.0;" width="10" x="820" y="335.5703"/><ellipse cx="13.5" cy="110.7832" fill="none" rx="4" ry="4" style="stroke:#181818;stroke-width:1.5;"/><polygon fill="#181818" points="129,107.5332,139,111.5332,129,115.5332,133,111.5332" style="stroke:#181818;stroke-width:1.0;"/><line style="stroke:#181818;stroke-width:1.0;" x1="18" x2="135" y1="111.5332" y2="111.5332"/><text fill="#000000" font-family="sans-serif" font-size="13" font-weight="bold" lengthAdjust="spacing" textLength="7" x="21" y="106.2705">1</text><text fill="#000000" font-family="sans-serif" font-size="13" lengthAdjust="spacing" textLength="67" x="32" y="106.2705">getRooms()</text><polygon fill="#181818" points="303,138.8242,313,142.8242,303,146.8242,307,142.8242" style="stroke:#181818;stroke-width:1.0;"/><line style="stroke:#181818;stroke-width:1.0;" x1="151" x2="309" y1="142.8242" y2="142.8242"/><text fill="#000000" font-family="sans-serif" font-size="13" font-weight="bold" lengthAdjust="spacing" textLength="7" x="158" y="137.5615">2</text><text fill="#000000" font-family="sans-serif" font-size="13" lengthAdjust="spacing" textLength="67" x="169" y="137.5615">getRooms()</text><polygon fill="#181818" points="425.5,170.1152,435.5,174.1152,425.5,178.1152,429.5,174.1152" style="stroke:#181818;stroke-width:1.0;"/><line style="stroke:#181818;stroke-width:1.0;" x1="325" x2="431.5" y1="174.1152" y2="174.1152"/><text fill="#000000" font-family="sans-serif" font-size="13" font-weight="bold" lengthAdjust="spacing" textLength="7" x="332" y="168.8525">3</text><text fill="#000000" font-family="sans-serif" font-size="13" lengthAdjust="spacing" textLength="43" x="343" y="168.8525">findAll()</text><polygon fill="#181818" points="336,201.4063,326,205.4063,336,209.4063,332,205.4063" style="stroke:#181818;stroke-width:1.0;"/><line style="stroke:#181818;stroke-width:1.0;stroke-dasharray:2.0,2.0;" x1="330" x2="441.5" y1="205.4063" y2="205.4063"/><text fill="#000000" font-family="sans-serif" font-size="13" font-weight="bold" lengthAdjust="spacing" textLength="7" x="342" y="200.1436">4</text><text fill="#000000" font-family="sans-serif" font-size="13" lengthAdjust="spacing" textLength="67" x="353" y="200.1436">lisOfRooms</text><polygon fill="#181818" points="162,232.6973,152,236.6973,162,240.6973,158,236.6973" style="stroke:#181818;stroke-width:1.0;"/><line style="stroke:#181818;stroke-width:1.0;stroke-dasharray:2.0,2.0;" x1="156" x2="319" y1="236.6973" y2="236.6973"/><text fill="#000000" font-family="sans-serif" font-size="13" font-weight="bold" lengthAdjust="spacing" textLength="7" x="168" y="231.4346">5</text><text fill="#000000" font-family="sans-serif" font-size="13" lengthAdjust="spacing" textLength="67" x="179" y="231.4346">lisOfRooms</text><polygon fill="#181818" points="557.5,263.9883,567.5,267.9883,557.5,271.9883,561.5,267.9883" style="stroke:#181818;stroke-width:1.0;"/><line style="stroke:#181818;stroke-width:1.0;" x1="151" x2="563.5" y1="267.9883" y2="267.9883"/><text fill="#000000" font-family="sans-serif" font-size="13" font-weight="bold" lengthAdjust="spacing" textLength="7" x="158" y="262.7256">6</text><text fill="#000000" font-family="sans-serif" font-size="13" lengthAdjust="spacing" textLength="131" x="169" y="262.7256">domainToDTO(Rooms)</text><path d="M504,282.9883 L577,282.9883 L577,292.2793 L567,302.2793 L504,302.2793 L504,282.9883 " fill="#EEEEEE" style="stroke:#000000;stroke-width:1.5;"/><rect fill="none" height="138.4941" style="stroke:#000000;stroke-width:1.5;" width="404.5" x="504" y="282.9883"/><text fill="#000000" font-family="sans-serif" font-size="13" font-weight="bold" lengthAdjust="spacing" textLength="28" x="519" y="298.0166">loop</text><text fill="#000000" font-family="sans-serif" font-size="11" font-weight="bold" lengthAdjust="spacing" textLength="86" x="592" y="296.8584">[for each room]</text><polygon fill="#181818" points="739.5,321.5703,749.5,325.5703,739.5,329.5703,743.5,325.5703" style="stroke:#181818;stroke-width:1.0;"/><line style="stroke:#181818;stroke-width:1.0;" x1="579.5" x2="745.5" y1="325.5703" y2="325.5703"/><text fill="#000000" font-family="sans-serif" font-size="13" font-weight="bold" lengthAdjust="spacing" textLength="7" x="586.5" y="320.3076">7</text><text fill="#000000" font-family="sans-serif" font-size="13" lengthAdjust="spacing" textLength="137" x="597.5" y="320.3076">createRoomDTO (room)</text><rect fill="#E2E2F0" height="32.6211" rx="2.5" ry="2.5" style="stroke:#181818;stroke-width:0.5;" width="147" x="751.5" y="302.2793"/><text fill="#000000" font-family="sans-serif" font-size="14" lengthAdjust="spacing" textLength="133" x="758.5" y="324.3867">roomDTO:RoomDTO</text><polygon fill="#181818" points="590.5,365.1914,580.5,369.1914,590.5,373.1914,586.5,369.1914" style="stroke:#181818;stroke-width:1.0;"/><line style="stroke:#181818;stroke-width:1.0;stroke-dasharray:2.0,2.0;" x1="584.5" x2="824" y1="369.1914" y2="369.1914"/><text fill="#000000" font-family="sans-serif" font-size="13" font-weight="bold" lengthAdjust="spacing" textLength="7" x="596.5" y="363.9287">8</text><text fill="#000000" font-family="sans-serif" font-size="13" lengthAdjust="spacing" textLength="55" x="607.5" y="363.9287">roomDTO</text><line style="stroke:#181818;stroke-width:1.0;" x1="579.5" x2="621.5" y1="400.4824" y2="400.4824"/><line style="stroke:#181818;stroke-width:1.0;" x1="621.5" x2="621.5" y1="400.4824" y2="413.4824"/><line style="stroke:#181818;stroke-width:1.0;" x1="580.5" x2="621.5" y1="413.4824" y2="413.4824"/><polygon fill="#181818" points="590.5,409.4824,580.5,413.4824,590.5,417.4824,586.5,413.4824" style="stroke:#181818;stroke-width:1.0;"/><text fill="#000000" font-family="sans-serif" font-size="13" font-weight="bold" lengthAdjust="spacing" textLength="7" x="586.5" y="395.2197">9</text><text fill="#000000" font-family="sans-serif" font-size="13" lengthAdjust="spacing" textLength="179" x="597.5" y="395.2197">addRoomDTOToList(roomDTO)</text><polygon fill="#181818" points="162,447.7734,152,451.7734,162,455.7734,158,451.7734" style="stroke:#181818;stroke-width:1.0;"/><line style="stroke:#181818;stroke-width:1.0;stroke-dasharray:2.0,2.0;" x1="156" x2="573.5" y1="451.7734" y2="451.7734"/><text fill="#000000" font-family="sans-serif" font-size="13" font-weight="bold" lengthAdjust="spacing" textLength="14" x="168" y="446.5107">10</text><text fill="#000000" font-family="sans-serif" font-size="13" lengthAdjust="spacing" textLength="84" x="186" y="446.5107">listRoomsDTO</text><polygon fill="#181818" points="25,479.0645,15,483.0645,25,487.0645,21,483.0645" style="stroke:#181818;stroke-width:1.0;"/><line style="stroke:#181818;stroke-width:1.0;stroke-dasharray:2.0,2.0;" x1="19" x2="145" y1="483.0645" y2="483.0645"/><text fill="#000000" font-family="sans-serif" font-size="13" font-weight="bold" lengthAdjust="spacing" textLength="14" x="31" y="477.8018">11</text><text fill="#000000" font-family="sans-serif" font-size="13" lengthAdjust="spacing" textLength="84" x="49" y="477.8018">listRoomsDTO</text><!--SRC=[ZLF1ReCm3BtdAxoTwA4_m64IMe-JAdNiFAN4xI85Z19JgN-_9ALhmcWf7C3EUy_EY_FIMtbi9HXvfe71jSYoau8r6uGZCko8MYVamDGDxHwj4Bsqh1lTouxXrR_ImPVp2rc-h9Ig6XuaawrfWoVTuFSxTMp96BIHzHWoqGjzVA8De4YsjtW6kSEUdFR2vmZEKpFuoZbizzV6iaoE3cKtzJQI_FSFxl-523O0hTyMTbO6OwElnKh8XlL9CYwv8HwlWw-QM39V8lLC944WvnQLSD2Tgen9wHCNHHx3Ujg2qMvxkCoFmhigMHzFU3UlccrjsQhiX4jGr4hTUMozBQBqPDUtOH26g8S3MV2rVs9P0VvfB5x1OHH2AYDUYuRP6S5Z24KGMKLALZJL2RZr_xvj0fjO_B2BH48gDS9h-j2EYr5p9R1JbpDEwC-TpsNoGWUJfX8Vbyx8LmhNwRxUmdtv1G00]--></g></svg>