<?xml version="1.0" encoding="us-ascii" standalone="no"?><svg xmlns="http://www.w3.org/2000/svg" xmlns:xlink="http://www.w3.org/1999/xlink" contentStyleType="text/css" height="676px" preserveAspectRatio="none" style="width:1225px;height:676px;background:#FFFFFF;" version="1.1" viewBox="0 0 1225 676" width="1225px" zoomAndPan="magnify"><defs/><g><text fill="#000000" font-family="sans-serif" font-size="14" font-weight="bold" lengthAdjust="spacing" textLength="84" x="572.25" y="30.1074">get Devices</text><rect fill="#FFFFFF" height="509.0254" style="stroke:#181818;stroke-width:1.0;" width="10" x="170" y="111.5332"/><rect fill="#FFFFFF" height="106.2031" style="stroke:#181818;stroke-width:1.0;" width="10" x="362" y="142.8242"/><rect fill="#FFFFFF" height="183.7852" style="stroke:#181818;stroke-width:1.0;" width="10" x="362" y="405.4824"/><rect fill="#FFFFFF" height="33.6211" style="stroke:#181818;stroke-width:1.0;" width="10" x="633.5" y="184.1152"/><rect fill="#FFFFFF" height="93.873" style="stroke:#181818;stroke-width:1.0;" width="10" x="754" y="280.3184"/><rect fill="#FFFFFF" height="31.291" style="stroke:#181818;stroke-width:1.0;" width="10" x="968" y="311.6094"/><rect fill="#FFFFFF" height="33.6211" style="stroke:#181818;stroke-width:1.0;" width="10" x="1123.5" y="473.0645"/><rect fill="none" height="138.4941" style="stroke:#000000;stroke-width:1.5;" width="926" x="293.5" y="420.4824"/><line style="stroke:#181818;stroke-width:0.5;stroke-dasharray:5.0,5.0;" x1="14" x2="14" y1="78.2422" y2="638.5586"/><line style="stroke:#181818;stroke-width:0.5;stroke-dasharray:5.0,5.0;" x1="175" x2="175" y1="78.2422" y2="638.5586"/><line style="stroke:#181818;stroke-width:0.5;stroke-dasharray:5.0,5.0;" x1="366.5" x2="366.5" y1="78.2422" y2="638.5586"/><line style="stroke:#181818;stroke-width:0.5;stroke-dasharray:5.0,5.0;" x1="638" x2="638" y1="182.6348" y2="638.5586"/><line style="stroke:#181818;stroke-width:0.5;stroke-dasharray:5.0,5.0;" x1="759" x2="759" y1="78.2422" y2="638.5586"/><line style="stroke:#181818;stroke-width:0.5;stroke-dasharray:5.0,5.0;" x1="972.5" x2="972.5" y1="78.2422" y2="638.5586"/><line style="stroke:#181818;stroke-width:0.5;stroke-dasharray:5.0,5.0;" x1="1128.5" x2="1128.5" y1="471.584" y2="638.5586"/><rect fill="#E2E2F0" height="32.6211" rx="2.5" ry="2.5" style="stroke:#181818;stroke-width:0.5;" width="18" x="5" y="44.6211"/><text fill="#000000" font-family="sans-serif" font-size="14" lengthAdjust="spacing" textLength="4" x="12" y="66.7285">&#160;</text><rect fill="#E2E2F0" height="32.6211" rx="2.5" ry="2.5" style="stroke:#181818;stroke-width:0.5;" width="18" x="5" y="637.5586"/><text fill="#000000" font-family="sans-serif" font-size="14" lengthAdjust="spacing" textLength="4" x="12" y="659.666">&#160;</text><rect fill="#E2E2F0" height="32.6211" rx="2.5" ry="2.5" style="stroke:#181818;stroke-width:0.5;" width="226" x="62" y="44.6211"/><text fill="#000000" font-family="sans-serif" font-size="14" lengthAdjust="spacing" textLength="212" x="69" y="66.7285">:AddActuatorToDevice_Controller</text><rect fill="#E2E2F0" height="32.6211" rx="2.5" ry="2.5" style="stroke:#181818;stroke-width:0.5;" width="226" x="62" y="637.5586"/><text fill="#000000" font-family="sans-serif" font-size="14" lengthAdjust="spacing" textLength="212" x="69" y="659.666">:AddActuatorToDevice_Controller</text><rect fill="#E2E2F0" height="32.6211" rx="2.5" ry="2.5" style="stroke:#181818;stroke-width:0.5;" width="127" x="303.5" y="44.6211"/><text fill="#000000" font-family="sans-serif" font-size="14" lengthAdjust="spacing" textLength="113" x="310.5" y="66.7285">:DeviceAssembler</text><rect fill="#E2E2F0" height="32.6211" rx="2.5" ry="2.5" style="stroke:#181818;stroke-width:0.5;" width="127" x="303.5" y="637.5586"/><text fill="#000000" font-family="sans-serif" font-size="14" lengthAdjust="spacing" textLength="113" x="310.5" y="659.666">:DeviceAssembler</text><rect fill="#E2E2F0" height="32.6211" rx="2.5" ry="2.5" style="stroke:#181818;stroke-width:0.5;" width="113" x="582" y="637.5586"/><text fill="#000000" font-family="sans-serif" font-size="14" lengthAdjust="spacing" textLength="99" x="589" y="659.666">roomID:RoomID</text><rect fill="#E2E2F0" height="32.6211" rx="2.5" ry="2.5" style="stroke:#181818;stroke-width:0.5;" width="108" x="705" y="44.6211"/><text fill="#000000" font-family="sans-serif" font-size="14" lengthAdjust="spacing" textLength="94" x="712" y="66.7285">:DeviceService</text><rect fill="#E2E2F0" height="32.6211" rx="2.5" ry="2.5" style="stroke:#181818;stroke-width:0.5;" width="108" x="705" y="637.5586"/><text fill="#000000" font-family="sans-serif" font-size="14" lengthAdjust="spacing" textLength="94" x="712" y="659.666">:DeviceService</text><rect fill="#E2E2F0" height="32.6211" rx="2.5" ry="2.5" style="stroke:#181818;stroke-width:0.5;" width="129" x="908.5" y="44.6211"/><text fill="#000000" font-family="sans-serif" font-size="14" lengthAdjust="spacing" textLength="115" x="915.5" y="66.7285">:DeviceRepository</text><rect fill="#E2E2F0" height="32.6211" rx="2.5" ry="2.5" style="stroke:#181818;stroke-width:0.5;" width="129" x="908.5" y="637.5586"/><text fill="#000000" font-family="sans-serif" font-size="14" lengthAdjust="spacing" textLength="115" x="915.5" y="659.666">:DeviceRepository</text><rect fill="#E2E2F0" height="32.6211" rx="2.5" ry="2.5" style="stroke:#181818;stroke-width:0.5;" width="162" x="1047.5" y="637.5586"/><text fill="#000000" font-family="sans-serif" font-size="14" lengthAdjust="spacing" textLength="148" x="1054.5" y="659.666">deviceDTO:DeviceDTO</text><rect fill="#FFFFFF" height="509.0254" style="stroke:#181818;stroke-width:1.0;" width="10" x="170" y="111.5332"/><rect fill="#FFFFFF" height="106.2031" style="stroke:#181818;stroke-width:1.0;" width="10" x="362" y="142.8242"/><rect fill="#FFFFFF" height="183.7852" style="stroke:#181818;stroke-width:1.0;" width="10" x="362" y="405.4824"/><rect fill="#FFFFFF" height="33.6211" style="stroke:#181818;stroke-width:1.0;" width="10" x="633.5" y="184.1152"/><rect fill="#FFFFFF" height="93.873" style="stroke:#181818;stroke-width:1.0;" width="10" x="754" y="280.3184"/><rect fill="#FFFFFF" height="31.291" style="stroke:#181818;stroke-width:1.0;" width="10" x="968" y="311.6094"/><rect fill="#FFFFFF" height="33.6211" style="stroke:#181818;stroke-width:1.0;" width="10" x="1123.5" y="473.0645"/><ellipse cx="13.5" cy="110.7832" fill="none" rx="4" ry="4" style="stroke:#181818;stroke-width:1.5;"/><polygon fill="#181818" points="158,107.5332,168,111.5332,158,115.5332,162,111.5332" style="stroke:#181818;stroke-width:1.0;"/><line style="stroke:#181818;stroke-width:1.0;" x1="18" x2="164" y1="111.5332" y2="111.5332"/><text fill="#000000" font-family="sans-serif" font-size="13" font-weight="bold" lengthAdjust="spacing" textLength="7" x="21" y="106.2705">1</text><text fill="#000000" font-family="sans-serif" font-size="13" lengthAdjust="spacing" textLength="126" x="32" y="106.2705">getDevices(roomDTO)</text><polygon fill="#181818" points="350,138.8242,360,142.8242,350,146.8242,354,142.8242" style="stroke:#181818;stroke-width:1.0;"/><line style="stroke:#181818;stroke-width:1.0;" x1="180" x2="356" y1="142.8242" y2="142.8242"/><text fill="#000000" font-family="sans-serif" font-size="13" font-weight="bold" lengthAdjust="spacing" textLength="7" x="187" y="137.5615">2</text><text fill="#000000" font-family="sans-serif" font-size="13" lengthAdjust="spacing" textLength="139" x="198" y="137.5615">dtoToDomain(roomDTO)</text><polygon fill="#181818" points="570,170.1152,580,174.1152,570,178.1152,574,174.1152" style="stroke:#181818;stroke-width:1.0;"/><line style="stroke:#181818;stroke-width:1.0;" x1="372" x2="576" y1="174.1152" y2="174.1152"/><text fill="#000000" font-family="sans-serif" font-size="13" font-weight="bold" lengthAdjust="spacing" textLength="7" x="379" y="168.8525">3</text><text fill="#000000" font-family="sans-serif" font-size="13" lengthAdjust="spacing" textLength="175" x="390" y="168.8525">createRoomID(strRoomIdDTO)</text><rect fill="#E2E2F0" height="32.6211" rx="2.5" ry="2.5" style="stroke:#181818;stroke-width:0.5;" width="113" x="582" y="150.8242"/><text fill="#000000" font-family="sans-serif" font-size="14" lengthAdjust="spacing" textLength="99" x="589" y="172.9316">roomID:RoomID</text><polygon fill="#181818" points="383,213.7363,373,217.7363,383,221.7363,379,217.7363" style="stroke:#181818;stroke-width:1.0;"/><line style="stroke:#181818;stroke-width:1.0;stroke-dasharray:2.0,2.0;" x1="377" x2="637.5" y1="217.7363" y2="217.7363"/><text fill="#000000" font-family="sans-serif" font-size="13" font-weight="bold" lengthAdjust="spacing" textLength="7" x="389" y="212.4736">4</text><text fill="#000000" font-family="sans-serif" font-size="13" lengthAdjust="spacing" textLength="39" x="400" y="212.4736">roomId</text><polygon fill="#181818" points="191,245.0273,181,249.0273,191,253.0273,187,249.0273" style="stroke:#181818;stroke-width:1.0;"/><line style="stroke:#181818;stroke-width:1.0;stroke-dasharray:2.0,2.0;" x1="185" x2="366" y1="249.0273" y2="249.0273"/><text fill="#000000" font-family="sans-serif" font-size="13" font-weight="bold" lengthAdjust="spacing" textLength="7" x="197" y="243.7646">5</text><text fill="#000000" font-family="sans-serif" font-size="13" lengthAdjust="spacing" textLength="39" x="208" y="243.7646">roomId</text><polygon fill="#181818" points="742,276.3184,752,280.3184,742,284.3184,746,280.3184" style="stroke:#181818;stroke-width:1.0;"/><line style="stroke:#181818;stroke-width:1.0;" x1="180" x2="748" y1="280.3184" y2="280.3184"/><text fill="#000000" font-family="sans-serif" font-size="13" font-weight="bold" lengthAdjust="spacing" textLength="7" x="187" y="275.0557">6</text><text fill="#000000" font-family="sans-serif" font-size="13" lengthAdjust="spacing" textLength="110" x="198" y="275.0557">getDevices(roomId)</text><polygon fill="#181818" points="956,307.6094,966,311.6094,956,315.6094,960,311.6094" style="stroke:#181818;stroke-width:1.0;"/><line style="stroke:#181818;stroke-width:1.0;" x1="764" x2="962" y1="311.6094" y2="311.6094"/><text fill="#000000" font-family="sans-serif" font-size="13" font-weight="bold" lengthAdjust="spacing" textLength="7" x="771" y="306.3467">7</text><text fill="#000000" font-family="sans-serif" font-size="13" lengthAdjust="spacing" textLength="174" x="782" y="306.3467">getDevicesByRoomId (roomId)</text><polygon fill="#181818" points="775,338.9004,765,342.9004,775,346.9004,771,342.9004" style="stroke:#181818;stroke-width:1.0;"/><line style="stroke:#181818;stroke-width:1.0;stroke-dasharray:2.0,2.0;" x1="769" x2="972" y1="342.9004" y2="342.9004"/><text fill="#000000" font-family="sans-serif" font-size="13" font-weight="bold" lengthAdjust="spacing" textLength="7" x="781" y="337.6377">8</text><text fill="#000000" font-family="sans-serif" font-size="13" lengthAdjust="spacing" textLength="62" x="792" y="337.6377">listDevices</text><polygon fill="#181818" points="191,370.1914,181,374.1914,191,378.1914,187,374.1914" style="stroke:#181818;stroke-width:1.0;"/><line style="stroke:#181818;stroke-width:1.0;stroke-dasharray:2.0,2.0;" x1="185" x2="758" y1="374.1914" y2="374.1914"/><text fill="#000000" font-family="sans-serif" font-size="13" font-weight="bold" lengthAdjust="spacing" textLength="7" x="197" y="368.9287">9</text><text fill="#000000" font-family="sans-serif" font-size="13" lengthAdjust="spacing" textLength="62" x="208" y="368.9287">listDevices</text><polygon fill="#181818" points="350,401.4824,360,405.4824,350,409.4824,354,405.4824" style="stroke:#181818;stroke-width:1.0;"/><line style="stroke:#181818;stroke-width:1.0;" x1="180" x2="356" y1="405.4824" y2="405.4824"/><text fill="#000000" font-family="sans-serif" font-size="13" font-weight="bold" lengthAdjust="spacing" textLength="14" x="187" y="400.2197">10</text><text fill="#000000" font-family="sans-serif" font-size="13" lengthAdjust="spacing" textLength="145" x="205" y="400.2197">deviceToDTO (deviceList)</text><path d="M293.5,420.4824 L366.5,420.4824 L366.5,429.7734 L356.5,439.7734 L293.5,439.7734 L293.5,420.4824 " fill="#EEEEEE" style="stroke:#000000;stroke-width:1.5;"/><rect fill="none" height="138.4941" style="stroke:#000000;stroke-width:1.5;" width="926" x="293.5" y="420.4824"/><text fill="#000000" font-family="sans-serif" font-size="13" font-weight="bold" lengthAdjust="spacing" textLength="28" x="308.5" y="435.5107">loop</text><text fill="#000000" font-family="sans-serif" font-size="11" font-weight="bold" lengthAdjust="spacing" textLength="125" x="381.5" y="434.3525">[for each device in list]</text><polygon fill="#181818" points="1035.5,459.0645,1045.5,463.0645,1035.5,467.0645,1039.5,463.0645" style="stroke:#181818;stroke-width:1.0;"/><line style="stroke:#181818;stroke-width:1.0;" x1="372" x2="1041.5" y1="463.0645" y2="463.0645"/><text fill="#000000" font-family="sans-serif" font-size="13" font-weight="bold" lengthAdjust="spacing" textLength="14" x="379" y="457.8018">11</text><text fill="#000000" font-family="sans-serif" font-size="13" lengthAdjust="spacing" textLength="162" x="397" y="457.8018">createDeviceToDTO (device)</text><rect fill="#E2E2F0" height="32.6211" rx="2.5" ry="2.5" style="stroke:#181818;stroke-width:0.5;" width="162" x="1047.5" y="439.7734"/><text fill="#000000" font-family="sans-serif" font-size="14" lengthAdjust="spacing" textLength="148" x="1054.5" y="461.8809">deviceDTO:DeviceDTO</text><polygon fill="#181818" points="383,502.6855,373,506.6855,383,510.6855,379,506.6855" style="stroke:#181818;stroke-width:1.0;"/><line style="stroke:#181818;stroke-width:1.0;stroke-dasharray:2.0,2.0;" x1="377" x2="1127.5" y1="506.6855" y2="506.6855"/><text fill="#000000" font-family="sans-serif" font-size="13" font-weight="bold" lengthAdjust="spacing" textLength="14" x="389" y="501.4229">12</text><text fill="#000000" font-family="sans-serif" font-size="13" lengthAdjust="spacing" textLength="62" x="407" y="501.4229">deviceDTO</text><line style="stroke:#181818;stroke-width:1.0;" x1="372" x2="414" y1="537.9766" y2="537.9766"/><line style="stroke:#181818;stroke-width:1.0;" x1="414" x2="414" y1="537.9766" y2="550.9766"/><line style="stroke:#181818;stroke-width:1.0;" x1="373" x2="414" y1="550.9766" y2="550.9766"/><polygon fill="#181818" points="383,546.9766,373,550.9766,383,554.9766,379,550.9766" style="stroke:#181818;stroke-width:1.0;"/><text fill="#000000" font-family="sans-serif" font-size="13" font-weight="bold" lengthAdjust="spacing" textLength="14" x="379" y="532.7139">13</text><text fill="#000000" font-family="sans-serif" font-size="13" lengthAdjust="spacing" textLength="190" x="397" y="532.7139">addDeviceDTOToList(deviceDTO)</text><polygon fill="#181818" points="191,585.2676,181,589.2676,191,593.2676,187,589.2676" style="stroke:#181818;stroke-width:1.0;"/><line style="stroke:#181818;stroke-width:1.0;stroke-dasharray:2.0,2.0;" x1="185" x2="366" y1="589.2676" y2="589.2676"/><text fill="#000000" font-family="sans-serif" font-size="13" font-weight="bold" lengthAdjust="spacing" textLength="14" x="197" y="584.0049">14</text><text fill="#000000" font-family="sans-serif" font-size="13" lengthAdjust="spacing" textLength="81" x="215" y="584.0049">listDeviceDTO</text><polygon fill="#181818" points="25,616.5586,15,620.5586,25,624.5586,21,620.5586" style="stroke:#181818;stroke-width:1.0;"/><line style="stroke:#181818;stroke-width:1.0;stroke-dasharray:2.0,2.0;" x1="19" x2="174" y1="620.5586" y2="620.5586"/><text fill="#000000" font-family="sans-serif" font-size="13" font-weight="bold" lengthAdjust="spacing" textLength="14" x="31" y="615.2959">15</text><text fill="#000000" font-family="sans-serif" font-size="13" lengthAdjust="spacing" textLength="81" x="49" y="615.2959">listDeviceDTO</text><!--SRC=[dLJBRiCW4BplLsnxSWxv0HygfSqbKgL8gNkkYA4facqim97oz-NX9pXs5Fi0BBEpo-o2vhfWU64Qz-pASwQ0D5fKJNbc4bvgIIubmOBSHADHbKoJYW3KH6gUyvfK6b_DJnH-AuEVsDCTfRjSDqGBcGdF_lCXAYr5KJ3fl9OX0P_Vtod5odD74DYc7bA8yh1FJsvmS3-TvVrYqWuZrjOoYpwnMYXkqhwD70RZr8UwtNrsR9tDREHbLW1WzKEnVLkH9BMbQYkLsFCPxmsGNFChqMnDJu1b09huWQAO8jN2O4L9U3KJCgn0Bfarjqf3I6SY-AqKFTAl4gMbcz4fUqVZHzp62QReoao1iiWh2lw0lZ5RUCA7HMmRAAhPWKRwTRq6a-L0DRJMcEtzvZN3UxIZZeJGCXApJxJWgkEE5OZ9-ZGVq7MHkZ_-YhGuLtz_lGmyEsBY5vycs4AFGY54ZRz2eadahoL0Nhaa0StNTl5mGwrnffTxGDVE-pYPZNCEafboMlJs_jawSAJRQcOZAa9fxvG9gr3Iis-0LVIfwpAKrRrZ2zVcwQBRDDpp64ORCQuyVFy0]--></g></svg>