<?xml version="1.0" encoding="us-ascii" standalone="no"?><svg xmlns="http://www.w3.org/2000/svg" xmlns:xlink="http://www.w3.org/1999/xlink" contentStyleType="text/css" height="1083px" preserveAspectRatio="none" style="width:5280px;height:1083px;background:#FFFFFF;" version="1.1" viewBox="0 0 5280 1083" width="5280px" zoomAndPan="magnify"><defs/><g><!--class AddActuatorToDeviceController--><g id="elem_AddActuatorToDeviceController"><rect codeLine="7" fill="#F1F1F1" height="308.6953" id="AddActuatorToDeviceController" rx="2.5" ry="2.5" style="stroke:#181818;stroke-width:0.5;" width="1491" x="2410.5" y="12"/><ellipse cx="3051.75" cy="28" fill="#ADD1B2" rx="11" ry="11" style="stroke:#181818;stroke-width:1.0;"/><path d="M3054.5156,23.875 Q3054.6719,23.6563 3054.8594,23.5469 Q3055.0469,23.4375 3055.2656,23.4375 Q3055.6406,23.4375 3055.875,23.7031 Q3056.1094,23.9531 3056.1094,24.5625 L3056.1094,26.0156 Q3056.1094,26.625 3055.875,26.8906 Q3055.6406,27.1563 3055.2656,27.1563 Q3054.9219,27.1563 3054.7188,26.9531 Q3054.5156,26.7656 3054.4063,26.25 Q3054.3594,25.8906 3054.1719,25.7031 Q3053.8438,25.3281 3053.2344,25.1094 Q3052.625,24.8906 3052,24.8906 Q3051.2344,24.8906 3050.5938,25.2188 Q3049.9688,25.5469 3049.4688,26.2969 Q3048.9844,27.0469 3048.9844,28.0781 L3048.9844,29.1719 Q3048.9844,30.4063 3049.875,31.2344 Q3050.7656,32.0469 3052.3594,32.0469 Q3053.2969,32.0469 3053.9531,31.7969 Q3054.3438,31.6406 3054.7656,31.2031 Q3055.0313,30.9375 3055.1719,30.8594 Q3055.3281,30.7813 3055.5313,30.7813 Q3055.8594,30.7813 3056.1094,31.0469 Q3056.375,31.2969 3056.375,31.6406 Q3056.375,31.9844 3056.0313,32.3906 Q3055.5313,32.9688 3054.7344,33.2969 Q3053.6563,33.75 3052.3594,33.75 Q3050.8438,33.75 3049.6406,33.125 Q3048.6563,32.625 3047.9688,31.5625 Q3047.2813,30.4844 3047.2813,29.2031 L3047.2813,28.0469 Q3047.2813,26.7188 3047.8906,25.5781 Q3048.5156,24.4219 3049.6094,23.8125 Q3050.7031,23.1875 3051.9375,23.1875 Q3052.6719,23.1875 3053.3125,23.3594 Q3053.9688,23.5156 3054.5156,23.875 Z " fill="#000000"/><text fill="#000000" font-family="sans-serif" font-size="14" lengthAdjust="spacing" textLength="200" x="3072.25" y="33.7969">AddActuatorToDeviceController</text><line style="stroke:#181818;stroke-width:0.5;" x1="2411.5" x2="3900.5" y1="44" y2="44"/><rect fill="none" height="6" style="stroke:#C82930;stroke-width:1.0;" width="6" x="2418.5" y="55.8105"/><text fill="#000000" font-family="sans-serif" font-size="14" lengthAdjust="spacing" textLength="190" x="2430.5" y="63.1074">DeviceService _deviceService</text><rect fill="none" height="6" style="stroke:#C82930;stroke-width:1.0;" width="6" x="2418.5" y="74.4316"/><text fill="#000000" font-family="sans-serif" font-size="14" lengthAdjust="spacing" textLength="228" x="2430.5" y="81.7285">DeviceAssembler _deviceAssembler</text><rect fill="none" height="6" style="stroke:#C82930;stroke-width:1.0;" width="6" x="2418.5" y="93.0527"/><text fill="#000000" font-family="sans-serif" font-size="14" lengthAdjust="spacing" textLength="288" x="2430.5" y="100.3496">ActuatorModelService _ActuatorModelService</text><rect fill="none" height="6" style="stroke:#C82930;stroke-width:1.0;" width="6" x="2418.5" y="111.6738"/><text fill="#000000" font-family="sans-serif" font-size="14" lengthAdjust="spacing" textLength="326" x="2430.5" y="118.9707">ActuatorModelAssembler _ActuatorModelAssembler</text><rect fill="none" height="6" style="stroke:#C82930;stroke-width:1.0;" width="6" x="2418.5" y="130.2949"/><text fill="#000000" font-family="sans-serif" font-size="14" lengthAdjust="spacing" textLength="276" x="2430.5" y="137.5918">ActuatorTypeService _ActuatorTypeService</text><rect fill="none" height="6" style="stroke:#C82930;stroke-width:1.0;" width="6" x="2418.5" y="148.916"/><text fill="#000000" font-family="sans-serif" font-size="14" lengthAdjust="spacing" textLength="314" x="2430.5" y="156.2129">ActuatorTypeAssembler _ActuatorTypeAssembler</text><rect fill="none" height="6" style="stroke:#C82930;stroke-width:1.0;" width="6" x="2418.5" y="167.5371"/><text fill="#000000" font-family="sans-serif" font-size="14" lengthAdjust="spacing" textLength="250" x="2430.5" y="174.834">ActuatorAssembler _ActuatorAssembler</text><rect fill="none" height="6" style="stroke:#C82930;stroke-width:1.0;" width="6" x="2418.5" y="186.1582"/><text fill="#000000" font-family="sans-serif" font-size="14" lengthAdjust="spacing" textLength="212" x="2430.5" y="193.4551">ActuatorService _ActuatorService</text><line style="stroke:#181818;stroke-width:0.5;" x1="2411.5" x2="3900.5" y1="200.9688" y2="200.9688"/><ellipse cx="2421.5" cy="215.7793" fill="#84BE84" rx="3" ry="3" style="stroke:#038048;stroke-width:1.0;"/><text fill="#000000" font-family="sans-serif" font-size="14" lengthAdjust="spacing" textLength="1465" x="2430.5" y="220.0762">AddActuatorToDeviceController(RoomService, RoomAssembler, DeviceService, DeviceAssembler, ActuatorModelService, ActuatorModelAssembler, ActuatorTypeService, ActuatorTypeAssembler, ActuatorAssembler, ActuatorService)</text><ellipse cx="2421.5" cy="234.4004" fill="#84BE84" rx="3" ry="3" style="stroke:#038048;stroke-width:1.0;"/><text fill="#000000" font-family="sans-serif" font-size="14" lengthAdjust="spacing" textLength="187" x="2430.5" y="238.6973">getRooms(): List&lt;RoomDTO&gt;</text><ellipse cx="2421.5" cy="253.0215" fill="#84BE84" rx="3" ry="3" style="stroke:#038048;stroke-width:1.0;"/><text fill="#000000" font-family="sans-serif" font-size="14" lengthAdjust="spacing" textLength="336" x="2430.5" y="257.3184">getDevicesFromRoom(RoomDTO): List&lt;DeviceDTO&gt;</text><ellipse cx="2421.5" cy="271.6426" fill="#84BE84" rx="3" ry="3" style="stroke:#038048;stroke-width:1.0;"/><text fill="#000000" font-family="sans-serif" font-size="14" lengthAdjust="spacing" textLength="283" x="2430.5" y="275.9395">getActuatorTypes(): List&lt;ActuatorTypeDTO&gt;</text><ellipse cx="2421.5" cy="290.2637" fill="#84BE84" rx="3" ry="3" style="stroke:#038048;stroke-width:1.0;"/><text fill="#000000" font-family="sans-serif" font-size="14" lengthAdjust="spacing" textLength="410" x="2430.5" y="294.5605">getActuatorModels(ActuatorTypeDTO): List&lt;ActuatorModelDTO&gt;</text><ellipse cx="2421.5" cy="308.8848" fill="#84BE84" rx="3" ry="3" style="stroke:#038048;stroke-width:1.0;"/><text fill="#000000" font-family="sans-serif" font-size="14" lengthAdjust="spacing" textLength="351" x="2430.5" y="313.1816">addActuatorToDevice(ActuatorDataDTO): ActuatorDTO</text></g><!--class ActuatorModelService--><g id="elem_ActuatorModelService"><rect codeLine="25" fill="#F1F1F1" height="178.3477" id="ActuatorModelService" rx="2.5" ry="2.5" style="stroke:#181818;stroke-width:0.5;" width="574" x="588" y="385.5"/><ellipse cx="801.75" cy="401.5" fill="#ADD1B2" rx="11" ry="11" style="stroke:#181818;stroke-width:1.0;"/><path d="M804.5156,397.375 Q804.6719,397.1563 804.8594,397.0469 Q805.0469,396.9375 805.2656,396.9375 Q805.6406,396.9375 805.875,397.2031 Q806.1094,397.4531 806.1094,398.0625 L806.1094,399.5156 Q806.1094,400.125 805.875,400.3906 Q805.6406,400.6563 805.2656,400.6563 Q804.9219,400.6563 804.7188,400.4531 Q804.5156,400.2656 804.4063,399.75 Q804.3594,399.3906 804.1719,399.2031 Q803.8438,398.8281 803.2344,398.6094 Q802.625,398.3906 802,398.3906 Q801.2344,398.3906 800.5938,398.7188 Q799.9688,399.0469 799.4688,399.7969 Q798.9844,400.5469 798.9844,401.5781 L798.9844,402.6719 Q798.9844,403.9063 799.875,404.7344 Q800.7656,405.5469 802.3594,405.5469 Q803.2969,405.5469 803.9531,405.2969 Q804.3438,405.1406 804.7656,404.7031 Q805.0313,404.4375 805.1719,404.3594 Q805.3281,404.2813 805.5313,404.2813 Q805.8594,404.2813 806.1094,404.5469 Q806.375,404.7969 806.375,405.1406 Q806.375,405.4844 806.0313,405.8906 Q805.5313,406.4688 804.7344,406.7969 Q803.6563,407.25 802.3594,407.25 Q800.8438,407.25 799.6406,406.625 Q798.6563,406.125 797.9688,405.0625 Q797.2813,403.9844 797.2813,402.7031 L797.2813,401.5469 Q797.2813,400.2188 797.8906,399.0781 Q798.5156,397.9219 799.6094,397.3125 Q800.7031,396.6875 801.9375,396.6875 Q802.6719,396.6875 803.3125,396.8594 Q803.9688,397.0156 804.5156,397.375 Z " fill="#000000"/><text fill="#000000" font-family="sans-serif" font-size="14" lengthAdjust="spacing" textLength="138" x="822.25" y="407.2969">ActuatorModelService</text><line style="stroke:#181818;stroke-width:0.5;" x1="589" x2="1161" y1="417.5" y2="417.5"/><rect fill="none" height="6" style="stroke:#C82930;stroke-width:1.0;" width="6" x="596" y="429.3105"/><text fill="#000000" font-family="sans-serif" font-size="14" lengthAdjust="spacing" textLength="296" x="608" y="436.6074">ActuatorModelRepo _ActuatorModelRepository</text><rect fill="none" height="6" style="stroke:#C82930;stroke-width:1.0;" width="6" x="596" y="447.9316"/><text fill="#000000" font-family="sans-serif" font-size="14" lengthAdjust="spacing" textLength="285" x="608" y="455.2285">ActuatorModelFactory _factoryActuatorModel</text><line style="stroke:#181818;stroke-width:0.5;" x1="589" x2="1161" y1="462.7422" y2="462.7422"/><ellipse cx="599" cy="477.5527" fill="#84BE84" rx="3" ry="3" style="stroke:#038048;stroke-width:1.0;"/><text fill="#000000" font-family="sans-serif" font-size="14" lengthAdjust="spacing" textLength="420" x="608" y="481.8496">ActuatorModelService(ActuatorModelRepo, ActuatorModelFactory)</text><ellipse cx="599" cy="496.1738" fill="#84BE84" rx="3" ry="3" style="stroke:#038048;stroke-width:1.0;"/><text fill="#000000" font-family="sans-serif" font-size="14" lengthAdjust="spacing" textLength="548" x="608" y="500.4707">createActuatorModel(ActuatorModelName, ModelPath, ActuatorTypeID): ActuatorModel</text><ellipse cx="599" cy="514.7949" fill="#84BE84" rx="3" ry="3" style="stroke:#038048;stroke-width:1.0;"/><text fill="#000000" font-family="sans-serif" font-size="14" lengthAdjust="spacing" textLength="280" x="608" y="519.0918">getAllActuatorModels(): List&lt;ActuatorModel&gt;</text><ellipse cx="599" cy="533.416" fill="#84BE84" rx="3" ry="3" style="stroke:#038048;stroke-width:1.0;"/><text fill="#000000" font-family="sans-serif" font-size="14" lengthAdjust="spacing" textLength="356" x="608" y="537.7129">getActuatorModel(ModelPath): Optional&lt;ActuatorModel&gt;</text><ellipse cx="599" cy="552.0371" fill="#84BE84" rx="3" ry="3" style="stroke:#038048;stroke-width:1.0;"/><text fill="#000000" font-family="sans-serif" font-size="14" lengthAdjust="spacing" textLength="475" x="608" y="556.334">getActuatorModelsByActuatorTypeId(ActuatorTypeID): List&lt;ActuatorModel&gt;</text></g><!--class ActuatorModelAssembler--><g id="elem_ActuatorModelAssembler"><rect codeLine="37" fill="#F1F1F1" height="85.2422" id="ActuatorModelAssembler" rx="2.5" ry="2.5" style="stroke:#181818;stroke-width:0.5;" width="425" x="1657.5" y="432"/><ellipse cx="1787.25" cy="448" fill="#ADD1B2" rx="11" ry="11" style="stroke:#181818;stroke-width:1.0;"/><path d="M1790.0156,443.875 Q1790.1719,443.6563 1790.3594,443.5469 Q1790.5469,443.4375 1790.7656,443.4375 Q1791.1406,443.4375 1791.375,443.7031 Q1791.6094,443.9531 1791.6094,444.5625 L1791.6094,446.0156 Q1791.6094,446.625 1791.375,446.8906 Q1791.1406,447.1563 1790.7656,447.1563 Q1790.4219,447.1563 1790.2188,446.9531 Q1790.0156,446.7656 1789.9063,446.25 Q1789.8594,445.8906 1789.6719,445.7031 Q1789.3438,445.3281 1788.7344,445.1094 Q1788.125,444.8906 1787.5,444.8906 Q1786.7344,444.8906 1786.0938,445.2188 Q1785.4688,445.5469 1784.9688,446.2969 Q1784.4844,447.0469 1784.4844,448.0781 L1784.4844,449.1719 Q1784.4844,450.4063 1785.375,451.2344 Q1786.2656,452.0469 1787.8594,452.0469 Q1788.7969,452.0469 1789.4531,451.7969 Q1789.8438,451.6406 1790.2656,451.2031 Q1790.5313,450.9375 1790.6719,450.8594 Q1790.8281,450.7813 1791.0313,450.7813 Q1791.3594,450.7813 1791.6094,451.0469 Q1791.875,451.2969 1791.875,451.6406 Q1791.875,451.9844 1791.5313,452.3906 Q1791.0313,452.9688 1790.2344,453.2969 Q1789.1563,453.75 1787.8594,453.75 Q1786.3438,453.75 1785.1406,453.125 Q1784.1563,452.625 1783.4688,451.5625 Q1782.7813,450.4844 1782.7813,449.2031 L1782.7813,448.0469 Q1782.7813,446.7188 1783.3906,445.5781 Q1784.0156,444.4219 1785.1094,443.8125 Q1786.2031,443.1875 1787.4375,443.1875 Q1788.1719,443.1875 1788.8125,443.3594 Q1789.4688,443.5156 1790.0156,443.875 Z " fill="#000000"/><text fill="#000000" font-family="sans-serif" font-size="14" lengthAdjust="spacing" textLength="157" x="1807.75" y="453.7969">ActuatorModelAssembler</text><line style="stroke:#181818;stroke-width:0.5;" x1="1658.5" x2="2081.5" y1="464" y2="464"/><line style="stroke:#181818;stroke-width:0.5;" x1="1658.5" x2="2081.5" y1="472" y2="472"/><ellipse cx="1668.5" cy="486.8105" fill="#84BE84" rx="3" ry="3" style="stroke:#038048;stroke-width:1.0;"/><text fill="#000000" font-family="sans-serif" font-size="14" lengthAdjust="spacing" textLength="323" x="1677.5" y="491.1074">domainToDTO(ActuatorModel): ActuatorModelDTO</text><ellipse cx="1668.5" cy="505.4316" fill="#84BE84" rx="3" ry="3" style="stroke:#038048;stroke-width:1.0;"/><text fill="#000000" font-family="sans-serif" font-size="14" lengthAdjust="spacing" textLength="399" x="1677.5" y="509.7285">domainToDTO(List&lt;ActuatorModel&gt;): List&lt;ActuatorModelDTO&gt;</text></g><!--class ActuatorTypeService--><g id="elem_ActuatorTypeService"><rect codeLine="42" fill="#F1F1F1" height="196.9688" id="ActuatorTypeService" rx="2.5" ry="2.5" style="stroke:#181818;stroke-width:0.5;" width="562" x="2329" y="376"/><ellipse cx="2539.75" cy="392" fill="#ADD1B2" rx="11" ry="11" style="stroke:#181818;stroke-width:1.0;"/><path d="M2542.5156,387.875 Q2542.6719,387.6563 2542.8594,387.5469 Q2543.0469,387.4375 2543.2656,387.4375 Q2543.6406,387.4375 2543.875,387.7031 Q2544.1094,387.9531 2544.1094,388.5625 L2544.1094,390.0156 Q2544.1094,390.625 2543.875,390.8906 Q2543.6406,391.1563 2543.2656,391.1563 Q2542.9219,391.1563 2542.7188,390.9531 Q2542.5156,390.7656 2542.4063,390.25 Q2542.3594,389.8906 2542.1719,389.7031 Q2541.8438,389.3281 2541.2344,389.1094 Q2540.625,388.8906 2540,388.8906 Q2539.2344,388.8906 2538.5938,389.2188 Q2537.9688,389.5469 2537.4688,390.2969 Q2536.9844,391.0469 2536.9844,392.0781 L2536.9844,393.1719 Q2536.9844,394.4063 2537.875,395.2344 Q2538.7656,396.0469 2540.3594,396.0469 Q2541.2969,396.0469 2541.9531,395.7969 Q2542.3438,395.6406 2542.7656,395.2031 Q2543.0313,394.9375 2543.1719,394.8594 Q2543.3281,394.7813 2543.5313,394.7813 Q2543.8594,394.7813 2544.1094,395.0469 Q2544.375,395.2969 2544.375,395.6406 Q2544.375,395.9844 2544.0313,396.3906 Q2543.5313,396.9688 2542.7344,397.2969 Q2541.6563,397.75 2540.3594,397.75 Q2538.8438,397.75 2537.6406,397.125 Q2536.6563,396.625 2535.9688,395.5625 Q2535.2813,394.4844 2535.2813,393.2031 L2535.2813,392.0469 Q2535.2813,390.7188 2535.8906,389.5781 Q2536.5156,388.4219 2537.6094,387.8125 Q2538.7031,387.1875 2539.9375,387.1875 Q2540.6719,387.1875 2541.3125,387.3594 Q2541.9688,387.5156 2542.5156,387.875 Z " fill="#000000"/><text fill="#000000" font-family="sans-serif" font-size="14" lengthAdjust="spacing" textLength="132" x="2560.25" y="397.7969">ActuatorTypeService</text><line style="stroke:#181818;stroke-width:0.5;" x1="2330" x2="2890" y1="408" y2="408"/><rect fill="none" height="6" style="stroke:#C82930;stroke-width:1.0;" width="6" x="2337" y="419.8105"/><text fill="#000000" font-family="sans-serif" font-size="14" lengthAdjust="spacing" textLength="318" x="2349" y="427.1074">ActuatorTypeRepository _ActuatorTypeRepository</text><rect fill="none" height="6" style="stroke:#C82930;stroke-width:1.0;" width="6" x="2337" y="438.4316"/><text fill="#000000" font-family="sans-serif" font-size="14" lengthAdjust="spacing" textLength="278" x="2349" y="445.7285">ActuatorTypeFactory _ActuatorTypeFactory</text><rect fill="none" height="6" style="stroke:#C82930;stroke-width:1.0;" width="6" x="2337" y="457.0527"/><text fill="#000000" font-family="sans-serif" font-size="14" lengthAdjust="spacing" textLength="195" x="2349" y="464.3496">UnitRepository _unitRepository</text><line style="stroke:#181818;stroke-width:0.5;" x1="2330" x2="2890" y1="471.8633" y2="471.8633"/><ellipse cx="2340" cy="486.6738" fill="#84BE84" rx="3" ry="3" style="stroke:#038048;stroke-width:1.0;"/><text fill="#000000" font-family="sans-serif" font-size="14" lengthAdjust="spacing" textLength="536" x="2349" y="490.9707">ActuatorTypeService(ActuatorTypeRepository, ActuatorTypeFactory, UnitRepository)</text><ellipse cx="2340" cy="505.2949" fill="#84BE84" rx="3" ry="3" style="stroke:#038048;stroke-width:1.0;"/><text fill="#000000" font-family="sans-serif" font-size="14" lengthAdjust="spacing" textLength="376" x="2349" y="509.5918">createActuatorType(TypeDescription, UnitID): ActuatorType</text><ellipse cx="2340" cy="523.916" fill="#84BE84" rx="3" ry="3" style="stroke:#038048;stroke-width:1.0;"/><text fill="#000000" font-family="sans-serif" font-size="14" lengthAdjust="spacing" textLength="303" x="2349" y="528.2129">saveActuatorType(ActuatorType): ActuatorType</text><ellipse cx="2340" cy="542.5371" fill="#84BE84" rx="3" ry="3" style="stroke:#038048;stroke-width:1.0;"/><text fill="#000000" font-family="sans-serif" font-size="14" lengthAdjust="spacing" textLength="407" x="2349" y="546.834">findActuatorTypeByID(ActuatorTypeID): Optional&lt;ActuatorType&gt;</text><ellipse cx="2340" cy="561.1582" fill="#84BE84" rx="3" ry="3" style="stroke:#038048;stroke-width:1.0;"/><text fill="#000000" font-family="sans-serif" font-size="14" lengthAdjust="spacing" textLength="271" x="2349" y="565.4551">findAllActuatorTypes(): List&lt;ActuatorType&gt;</text></g><!--class ActuatorTypeAssembler--><g id="elem_ActuatorTypeAssembler"><rect codeLine="54" fill="#F1F1F1" height="85.2422" id="ActuatorTypeAssembler" rx="2.5" ry="2.5" style="stroke:#181818;stroke-width:0.5;" width="413" x="2949.5" y="432"/><ellipse cx="3076.25" cy="448" fill="#ADD1B2" rx="11" ry="11" style="stroke:#181818;stroke-width:1.0;"/><path d="M3079.0156,443.875 Q3079.1719,443.6563 3079.3594,443.5469 Q3079.5469,443.4375 3079.7656,443.4375 Q3080.1406,443.4375 3080.375,443.7031 Q3080.6094,443.9531 3080.6094,444.5625 L3080.6094,446.0156 Q3080.6094,446.625 3080.375,446.8906 Q3080.1406,447.1563 3079.7656,447.1563 Q3079.4219,447.1563 3079.2188,446.9531 Q3079.0156,446.7656 3078.9063,446.25 Q3078.8594,445.8906 3078.6719,445.7031 Q3078.3438,445.3281 3077.7344,445.1094 Q3077.125,444.8906 3076.5,444.8906 Q3075.7344,444.8906 3075.0938,445.2188 Q3074.4688,445.5469 3073.9688,446.2969 Q3073.4844,447.0469 3073.4844,448.0781 L3073.4844,449.1719 Q3073.4844,450.4063 3074.375,451.2344 Q3075.2656,452.0469 3076.8594,452.0469 Q3077.7969,452.0469 3078.4531,451.7969 Q3078.8438,451.6406 3079.2656,451.2031 Q3079.5313,450.9375 3079.6719,450.8594 Q3079.8281,450.7813 3080.0313,450.7813 Q3080.3594,450.7813 3080.6094,451.0469 Q3080.875,451.2969 3080.875,451.6406 Q3080.875,451.9844 3080.5313,452.3906 Q3080.0313,452.9688 3079.2344,453.2969 Q3078.1563,453.75 3076.8594,453.75 Q3075.3438,453.75 3074.1406,453.125 Q3073.1563,452.625 3072.4688,451.5625 Q3071.7813,450.4844 3071.7813,449.2031 L3071.7813,448.0469 Q3071.7813,446.7188 3072.3906,445.5781 Q3073.0156,444.4219 3074.1094,443.8125 Q3075.2031,443.1875 3076.4375,443.1875 Q3077.1719,443.1875 3077.8125,443.3594 Q3078.4688,443.5156 3079.0156,443.875 Z " fill="#000000"/><text fill="#000000" font-family="sans-serif" font-size="14" lengthAdjust="spacing" textLength="151" x="3096.75" y="453.7969">ActuatorTypeAssembler</text><line style="stroke:#181818;stroke-width:0.5;" x1="2950.5" x2="3361.5" y1="464" y2="464"/><line style="stroke:#181818;stroke-width:0.5;" x1="2950.5" x2="3361.5" y1="472" y2="472"/><ellipse cx="2960.5" cy="486.8105" fill="#84BE84" rx="3" ry="3" style="stroke:#038048;stroke-width:1.0;"/><text fill="#000000" font-family="sans-serif" font-size="14" lengthAdjust="spacing" textLength="311" x="2969.5" y="491.1074">domainToDTO(ActuatorType): ActuatorTypeDTO</text><ellipse cx="2960.5" cy="505.4316" fill="#84BE84" rx="3" ry="3" style="stroke:#038048;stroke-width:1.0;"/><text fill="#000000" font-family="sans-serif" font-size="14" lengthAdjust="spacing" textLength="387" x="2969.5" y="509.7285">domainToDTO(List&lt;ActuatorType&gt;): List&lt;ActuatorTypeDTO&gt;</text></g><!--class ActuatorAssembler--><g id="elem_ActuatorAssembler"><rect codeLine="59" fill="#F1F1F1" height="85.2422" id="ActuatorAssembler" rx="2.5" ry="2.5" style="stroke:#181818;stroke-width:0.5;" width="349" x="3522.5" y="432"/><ellipse cx="3633.25" cy="448" fill="#ADD1B2" rx="11" ry="11" style="stroke:#181818;stroke-width:1.0;"/><path d="M3636.0156,443.875 Q3636.1719,443.6563 3636.3594,443.5469 Q3636.5469,443.4375 3636.7656,443.4375 Q3637.1406,443.4375 3637.375,443.7031 Q3637.6094,443.9531 3637.6094,444.5625 L3637.6094,446.0156 Q3637.6094,446.625 3637.375,446.8906 Q3637.1406,447.1563 3636.7656,447.1563 Q3636.4219,447.1563 3636.2188,446.9531 Q3636.0156,446.7656 3635.9063,446.25 Q3635.8594,445.8906 3635.6719,445.7031 Q3635.3438,445.3281 3634.7344,445.1094 Q3634.125,444.8906 3633.5,444.8906 Q3632.7344,444.8906 3632.0938,445.2188 Q3631.4688,445.5469 3630.9688,446.2969 Q3630.4844,447.0469 3630.4844,448.0781 L3630.4844,449.1719 Q3630.4844,450.4063 3631.375,451.2344 Q3632.2656,452.0469 3633.8594,452.0469 Q3634.7969,452.0469 3635.4531,451.7969 Q3635.8438,451.6406 3636.2656,451.2031 Q3636.5313,450.9375 3636.6719,450.8594 Q3636.8281,450.7813 3637.0313,450.7813 Q3637.3594,450.7813 3637.6094,451.0469 Q3637.875,451.2969 3637.875,451.6406 Q3637.875,451.9844 3637.5313,452.3906 Q3637.0313,452.9688 3636.2344,453.2969 Q3635.1563,453.75 3633.8594,453.75 Q3632.3438,453.75 3631.1406,453.125 Q3630.1563,452.625 3629.4688,451.5625 Q3628.7813,450.4844 3628.7813,449.2031 L3628.7813,448.0469 Q3628.7813,446.7188 3629.3906,445.5781 Q3630.0156,444.4219 3631.1094,443.8125 Q3632.2031,443.1875 3633.4375,443.1875 Q3634.1719,443.1875 3634.8125,443.3594 Q3635.4688,443.5156 3636.0156,443.875 Z " fill="#000000"/><text fill="#000000" font-family="sans-serif" font-size="14" lengthAdjust="spacing" textLength="119" x="3653.75" y="453.7969">ActuatorAssembler</text><line style="stroke:#181818;stroke-width:0.5;" x1="3523.5" x2="3870.5" y1="464" y2="464"/><line style="stroke:#181818;stroke-width:0.5;" x1="3523.5" x2="3870.5" y1="472" y2="472"/><ellipse cx="3533.5" cy="486.8105" fill="#84BE84" rx="3" ry="3" style="stroke:#038048;stroke-width:1.0;"/><text fill="#000000" font-family="sans-serif" font-size="14" lengthAdjust="spacing" textLength="247" x="3542.5" y="491.1074">domainToDTO(Actuator): ActuatorDTO</text><ellipse cx="3533.5" cy="505.4316" fill="#84BE84" rx="3" ry="3" style="stroke:#038048;stroke-width:1.0;"/><text fill="#000000" font-family="sans-serif" font-size="14" lengthAdjust="spacing" textLength="323" x="3542.5" y="509.7285">domainToDTO(List&lt;Actuator&gt;): List&lt;ActuatorDTO&gt;</text></g><!--class ActuatorService--><g id="elem_ActuatorService"><rect codeLine="64" fill="#F1F1F1" height="141.1055" id="ActuatorService" rx="2.5" ry="2.5" style="stroke:#181818;stroke-width:0.5;" width="541" x="3999.5" y="404"/><ellipse cx="4215.75" cy="420" fill="#ADD1B2" rx="11" ry="11" style="stroke:#181818;stroke-width:1.0;"/><path d="M4218.5156,415.875 Q4218.6719,415.6563 4218.8594,415.5469 Q4219.0469,415.4375 4219.2656,415.4375 Q4219.6406,415.4375 4219.875,415.7031 Q4220.1094,415.9531 4220.1094,416.5625 L4220.1094,418.0156 Q4220.1094,418.625 4219.875,418.8906 Q4219.6406,419.1563 4219.2656,419.1563 Q4218.9219,419.1563 4218.7188,418.9531 Q4218.5156,418.7656 4218.4063,418.25 Q4218.3594,417.8906 4218.1719,417.7031 Q4217.8438,417.3281 4217.2344,417.1094 Q4216.625,416.8906 4216,416.8906 Q4215.2344,416.8906 4214.5938,417.2188 Q4213.9688,417.5469 4213.4688,418.2969 Q4212.9844,419.0469 4212.9844,420.0781 L4212.9844,421.1719 Q4212.9844,422.4063 4213.875,423.2344 Q4214.7656,424.0469 4216.3594,424.0469 Q4217.2969,424.0469 4217.9531,423.7969 Q4218.3438,423.6406 4218.7656,423.2031 Q4219.0313,422.9375 4219.1719,422.8594 Q4219.3281,422.7813 4219.5313,422.7813 Q4219.8594,422.7813 4220.1094,423.0469 Q4220.375,423.2969 4220.375,423.6406 Q4220.375,423.9844 4220.0313,424.3906 Q4219.5313,424.9688 4218.7344,425.2969 Q4217.6563,425.75 4216.3594,425.75 Q4214.8438,425.75 4213.6406,425.125 Q4212.6563,424.625 4211.9688,423.5625 Q4211.2813,422.4844 4211.2813,421.2031 L4211.2813,420.0469 Q4211.2813,418.7188 4211.8906,417.5781 Q4212.5156,416.4219 4213.6094,415.8125 Q4214.7031,415.1875 4215.9375,415.1875 Q4216.6719,415.1875 4217.3125,415.3594 Q4217.9688,415.5156 4218.5156,415.875 Z " fill="#000000"/><text fill="#000000" font-family="sans-serif" font-size="14" lengthAdjust="spacing" textLength="100" x="4236.25" y="425.7969">ActuatorService</text><line style="stroke:#181818;stroke-width:0.5;" x1="4000.5" x2="4539.5" y1="436" y2="436"/><rect fill="none" height="6" style="stroke:#C82930;stroke-width:1.0;" width="6" x="4007.5" y="447.8105"/><text fill="#000000" font-family="sans-serif" font-size="14" lengthAdjust="spacing" textLength="344" x="4019.5" y="455.1074">Repository&lt;ActuatorID, Actuator&gt; _ActuatorRepository</text><rect fill="none" height="6" style="stroke:#C82930;stroke-width:1.0;" width="6" x="4007.5" y="466.4316"/><text fill="#000000" font-family="sans-serif" font-size="14" lengthAdjust="spacing" textLength="214" x="4019.5" y="473.7285">ActuatorFactory _ActuatorFactory</text><rect fill="none" height="6" style="stroke:#C82930;stroke-width:1.0;" width="6" x="4007.5" y="485.0527"/><text fill="#000000" font-family="sans-serif" font-size="14" lengthAdjust="spacing" textLength="198" x="4019.5" y="492.3496">DeviceRepo _deviceRepository</text><line style="stroke:#181818;stroke-width:0.5;" x1="4000.5" x2="4539.5" y1="499.8633" y2="499.8633"/><ellipse cx="4010.5" cy="514.6738" fill="#84BE84" rx="3" ry="3" style="stroke:#038048;stroke-width:1.0;"/><text fill="#000000" font-family="sans-serif" font-size="14" lengthAdjust="spacing" textLength="515" x="4019.5" y="518.9707">ActuatorService(Repository&lt;ActuatorID, Actuator&gt;, ActuatorFactory, DeviceRepo)</text><ellipse cx="4010.5" cy="533.2949" fill="#84BE84" rx="3" ry="3" style="stroke:#038048;stroke-width:1.0;"/><text fill="#000000" font-family="sans-serif" font-size="14" lengthAdjust="spacing" textLength="482" x="4019.5" y="537.5918">addActuator(DeviceID, ModelPath, ActuatorTypeID, ActuatorName): Actuator</text></g><!--class ActuatorModelRepository--><g id="elem_ActuatorModelRepository"><rect codeLine="73" fill="#F1F1F1" height="178.3477" id="ActuatorModelRepository" rx="2.5" ry="2.5" style="stroke:#181818;stroke-width:0.5;" width="406" x="6" y="628"/><ellipse cx="125.25" cy="644" fill="#ADD1B2" rx="11" ry="11" style="stroke:#181818;stroke-width:1.0;"/><path d="M128.0156,639.875 Q128.1719,639.6563 128.3594,639.5469 Q128.5469,639.4375 128.7656,639.4375 Q129.1406,639.4375 129.375,639.7031 Q129.6094,639.9531 129.6094,640.5625 L129.6094,642.0156 Q129.6094,642.625 129.375,642.8906 Q129.1406,643.1563 128.7656,643.1563 Q128.4219,643.1563 128.2188,642.9531 Q128.0156,642.7656 127.9063,642.25 Q127.8594,641.8906 127.6719,641.7031 Q127.3438,641.3281 126.7344,641.1094 Q126.125,640.8906 125.5,640.8906 Q124.7344,640.8906 124.0938,641.2188 Q123.4688,641.5469 122.9688,642.2969 Q122.4844,643.0469 122.4844,644.0781 L122.4844,645.1719 Q122.4844,646.4063 123.375,647.2344 Q124.2656,648.0469 125.8594,648.0469 Q126.7969,648.0469 127.4531,647.7969 Q127.8438,647.6406 128.2656,647.2031 Q128.5313,646.9375 128.6719,646.8594 Q128.8281,646.7813 129.0313,646.7813 Q129.3594,646.7813 129.6094,647.0469 Q129.875,647.2969 129.875,647.6406 Q129.875,647.9844 129.5313,648.3906 Q129.0313,648.9688 128.2344,649.2969 Q127.1563,649.75 125.8594,649.75 Q124.3438,649.75 123.1406,649.125 Q122.1563,648.625 121.4688,647.5625 Q120.7813,646.4844 120.7813,645.2031 L120.7813,644.0469 Q120.7813,642.7188 121.3906,641.5781 Q122.0156,640.4219 123.1094,639.8125 Q124.2031,639.1875 125.4375,639.1875 Q126.1719,639.1875 126.8125,639.3594 Q127.4688,639.5156 128.0156,639.875 Z " fill="#000000"/><text fill="#000000" font-family="sans-serif" font-size="14" lengthAdjust="spacing" textLength="159" x="145.75" y="649.7969">ActuatorModelRepository</text><line style="stroke:#181818;stroke-width:0.5;" x1="7" x2="411" y1="660" y2="660"/><rect fill="none" height="6" style="stroke:#C82930;stroke-width:1.0;" width="6" x="14" y="671.8105"/><text fill="#000000" font-family="sans-serif" font-size="14" lengthAdjust="spacing" textLength="254" x="26" y="679.1074">DATA: Map&lt;ModelPath, ActuatorModel&gt;</text><line style="stroke:#181818;stroke-width:0.5;" x1="7" x2="411" y1="686.6211" y2="686.6211"/><ellipse cx="17" cy="701.4316" fill="#84BE84" rx="3" ry="3" style="stroke:#038048;stroke-width:1.0;"/><text fill="#000000" font-family="sans-serif" font-size="14" lengthAdjust="spacing" textLength="169" x="26" y="705.7285">ActuatorModelRepository()</text><ellipse cx="17" cy="720.0527" fill="#84BE84" rx="3" ry="3" style="stroke:#038048;stroke-width:1.0;"/><text fill="#000000" font-family="sans-serif" font-size="14" lengthAdjust="spacing" textLength="230" x="26" y="724.3496">save(ActuatorModel): ActuatorModel</text><ellipse cx="17" cy="738.6738" fill="#84BE84" rx="3" ry="3" style="stroke:#038048;stroke-width:1.0;"/><text fill="#000000" font-family="sans-serif" font-size="14" lengthAdjust="spacing" textLength="185" x="26" y="742.9707">findAll(): List&lt;ActuatorModel&gt;</text><ellipse cx="17" cy="757.2949" fill="#84BE84" rx="3" ry="3" style="stroke:#038048;stroke-width:1.0;"/><text fill="#000000" font-family="sans-serif" font-size="14" lengthAdjust="spacing" textLength="302" x="26" y="761.5918">ofIdentity(ModelPath): Optional&lt;ActuatorModel&gt;</text><ellipse cx="17" cy="775.916" fill="#84BE84" rx="3" ry="3" style="stroke:#038048;stroke-width:1.0;"/><text fill="#000000" font-family="sans-serif" font-size="14" lengthAdjust="spacing" textLength="249" x="26" y="780.2129">containsOfIdentity(ModelPath): boolean</text><ellipse cx="17" cy="794.5371" fill="#84BE84" rx="3" ry="3" style="stroke:#038048;stroke-width:1.0;"/><text fill="#000000" font-family="sans-serif" font-size="14" lengthAdjust="spacing" textLength="380" x="26" y="798.834">findByActuatorTypeId(ActuatorTypeID): List&lt;ActuatorModel&gt;</text></g><!--class ActuatorTypeRepository--><g id="elem_ActuatorTypeRepository"><rect codeLine="83" fill="#F1F1F1" height="159.7266" id="ActuatorTypeRepository" rx="2.5" ry="2.5" style="stroke:#181818;stroke-width:0.5;" width="391" x="1962.5" y="637"/><ellipse cx="2077.25" cy="653" fill="#ADD1B2" rx="11" ry="11" style="stroke:#181818;stroke-width:1.0;"/><path d="M2080.0156,648.875 Q2080.1719,648.6563 2080.3594,648.5469 Q2080.5469,648.4375 2080.7656,648.4375 Q2081.1406,648.4375 2081.375,648.7031 Q2081.6094,648.9531 2081.6094,649.5625 L2081.6094,651.0156 Q2081.6094,651.625 2081.375,651.8906 Q2081.1406,652.1563 2080.7656,652.1563 Q2080.4219,652.1563 2080.2188,651.9531 Q2080.0156,651.7656 2079.9063,651.25 Q2079.8594,650.8906 2079.6719,650.7031 Q2079.3438,650.3281 2078.7344,650.1094 Q2078.125,649.8906 2077.5,649.8906 Q2076.7344,649.8906 2076.0938,650.2188 Q2075.4688,650.5469 2074.9688,651.2969 Q2074.4844,652.0469 2074.4844,653.0781 L2074.4844,654.1719 Q2074.4844,655.4063 2075.375,656.2344 Q2076.2656,657.0469 2077.8594,657.0469 Q2078.7969,657.0469 2079.4531,656.7969 Q2079.8438,656.6406 2080.2656,656.2031 Q2080.5313,655.9375 2080.6719,655.8594 Q2080.8281,655.7813 2081.0313,655.7813 Q2081.3594,655.7813 2081.6094,656.0469 Q2081.875,656.2969 2081.875,656.6406 Q2081.875,656.9844 2081.5313,657.3906 Q2081.0313,657.9688 2080.2344,658.2969 Q2079.1563,658.75 2077.8594,658.75 Q2076.3438,658.75 2075.1406,658.125 Q2074.1563,657.625 2073.4688,656.5625 Q2072.7813,655.4844 2072.7813,654.2031 L2072.7813,653.0469 Q2072.7813,651.7188 2073.3906,650.5781 Q2074.0156,649.4219 2075.1094,648.8125 Q2076.2031,648.1875 2077.4375,648.1875 Q2078.1719,648.1875 2078.8125,648.3594 Q2079.4688,648.5156 2080.0156,648.875 Z " fill="#000000"/><text fill="#000000" font-family="sans-serif" font-size="14" lengthAdjust="spacing" textLength="153" x="2097.75" y="658.7969">ActuatorTypeRepository</text><line style="stroke:#181818;stroke-width:0.5;" x1="1963.5" x2="2352.5" y1="669" y2="669"/><rect fill="none" height="6" style="stroke:#C82930;stroke-width:1.0;" width="6" x="1970.5" y="680.8105"/><text fill="#000000" font-family="sans-serif" font-size="14" lengthAdjust="spacing" textLength="365" x="1982.5" y="688.1074">_ActuatorTypeData: Map&lt;ActuatorTypeID, ActuatorType&gt;</text><line style="stroke:#181818;stroke-width:0.5;" x1="1963.5" x2="2352.5" y1="695.6211" y2="695.6211"/><ellipse cx="1973.5" cy="710.4316" fill="#84BE84" rx="3" ry="3" style="stroke:#038048;stroke-width:1.0;"/><text fill="#000000" font-family="sans-serif" font-size="14" lengthAdjust="spacing" textLength="163" x="1982.5" y="714.7285">ActuatorTypeRepository()</text><ellipse cx="1973.5" cy="729.0527" fill="#84BE84" rx="3" ry="3" style="stroke:#038048;stroke-width:1.0;"/><text fill="#000000" font-family="sans-serif" font-size="14" lengthAdjust="spacing" textLength="218" x="1982.5" y="733.3496">save(ActuatorType): ActuatorType</text><ellipse cx="1973.5" cy="747.6738" fill="#84BE84" rx="3" ry="3" style="stroke:#038048;stroke-width:1.0;"/><text fill="#000000" font-family="sans-serif" font-size="14" lengthAdjust="spacing" textLength="179" x="1982.5" y="751.9707">findAll(): List&lt;ActuatorType&gt;</text><ellipse cx="1973.5" cy="766.2949" fill="#84BE84" rx="3" ry="3" style="stroke:#038048;stroke-width:1.0;"/><text fill="#000000" font-family="sans-serif" font-size="14" lengthAdjust="spacing" textLength="327" x="1982.5" y="770.5918">ofIdentity(ActuatorTypeID): Optional&lt;ActuatorType&gt;</text><ellipse cx="1973.5" cy="784.916" fill="#84BE84" rx="3" ry="3" style="stroke:#038048;stroke-width:1.0;"/><text fill="#000000" font-family="sans-serif" font-size="14" lengthAdjust="spacing" textLength="280" x="1982.5" y="789.2129">containsOfIdentity(ActuatorTypeID): boolean</text></g><!--class ActuatorRepository--><g id="elem_ActuatorRepository"><rect codeLine="92" fill="#F1F1F1" height="178.3477" id="ActuatorRepository" rx="2.5" ry="2.5" style="stroke:#181818;stroke-width:0.5;" width="295" x="4232.5" y="628"/><ellipse cx="4315.25" cy="644" fill="#ADD1B2" rx="11" ry="11" style="stroke:#181818;stroke-width:1.0;"/><path d="M4318.0156,639.875 Q4318.1719,639.6563 4318.3594,639.5469 Q4318.5469,639.4375 4318.7656,639.4375 Q4319.1406,639.4375 4319.375,639.7031 Q4319.6094,639.9531 4319.6094,640.5625 L4319.6094,642.0156 Q4319.6094,642.625 4319.375,642.8906 Q4319.1406,643.1563 4318.7656,643.1563 Q4318.4219,643.1563 4318.2188,642.9531 Q4318.0156,642.7656 4317.9063,642.25 Q4317.8594,641.8906 4317.6719,641.7031 Q4317.3438,641.3281 4316.7344,641.1094 Q4316.125,640.8906 4315.5,640.8906 Q4314.7344,640.8906 4314.0938,641.2188 Q4313.4688,641.5469 4312.9688,642.2969 Q4312.4844,643.0469 4312.4844,644.0781 L4312.4844,645.1719 Q4312.4844,646.4063 4313.375,647.2344 Q4314.2656,648.0469 4315.8594,648.0469 Q4316.7969,648.0469 4317.4531,647.7969 Q4317.8438,647.6406 4318.2656,647.2031 Q4318.5313,646.9375 4318.6719,646.8594 Q4318.8281,646.7813 4319.0313,646.7813 Q4319.3594,646.7813 4319.6094,647.0469 Q4319.875,647.2969 4319.875,647.6406 Q4319.875,647.9844 4319.5313,648.3906 Q4319.0313,648.9688 4318.2344,649.2969 Q4317.1563,649.75 4315.8594,649.75 Q4314.3438,649.75 4313.1406,649.125 Q4312.1563,648.625 4311.4688,647.5625 Q4310.7813,646.4844 4310.7813,645.2031 L4310.7813,644.0469 Q4310.7813,642.7188 4311.3906,641.5781 Q4312.0156,640.4219 4313.1094,639.8125 Q4314.2031,639.1875 4315.4375,639.1875 Q4316.1719,639.1875 4316.8125,639.3594 Q4317.4688,639.5156 4318.0156,639.875 Z " fill="#000000"/><text fill="#000000" font-family="sans-serif" font-size="14" lengthAdjust="spacing" textLength="121" x="4335.75" y="649.7969">ActuatorRepository</text><line style="stroke:#181818;stroke-width:0.5;" x1="4233.5" x2="4526.5" y1="660" y2="660"/><rect fill="none" height="6" style="stroke:#C82930;stroke-width:1.0;" width="6" x="4240.5" y="671.8105"/><text fill="#000000" font-family="sans-serif" font-size="14" lengthAdjust="spacing" textLength="269" x="4252.5" y="679.1074">_ActuatorData: Map&lt;ActuatorID, Actuator&gt;</text><line style="stroke:#181818;stroke-width:0.5;" x1="4233.5" x2="4526.5" y1="686.6211" y2="686.6211"/><ellipse cx="4243.5" cy="701.4316" fill="#84BE84" rx="3" ry="3" style="stroke:#038048;stroke-width:1.0;"/><text fill="#000000" font-family="sans-serif" font-size="14" lengthAdjust="spacing" textLength="131" x="4252.5" y="705.7285">ActuatorRepository()</text><ellipse cx="4243.5" cy="720.0527" fill="#84BE84" rx="3" ry="3" style="stroke:#038048;stroke-width:1.0;"/><text fill="#000000" font-family="sans-serif" font-size="14" lengthAdjust="spacing" textLength="154" x="4252.5" y="724.3496">save(Actuator): Actuator</text><ellipse cx="4243.5" cy="738.6738" fill="#84BE84" rx="3" ry="3" style="stroke:#038048;stroke-width:1.0;"/><text fill="#000000" font-family="sans-serif" font-size="14" lengthAdjust="spacing" textLength="147" x="4252.5" y="742.9707">findAll(): List&lt;Actuator&gt;</text><ellipse cx="4243.5" cy="757.2949" fill="#84BE84" rx="3" ry="3" style="stroke:#038048;stroke-width:1.0;"/><text fill="#000000" font-family="sans-serif" font-size="14" lengthAdjust="spacing" textLength="263" x="4252.5" y="761.5918">ofIdentity(ActuatorID): Optional&lt;Actuator&gt;</text><ellipse cx="4243.5" cy="775.916" fill="#84BE84" rx="3" ry="3" style="stroke:#038048;stroke-width:1.0;"/><text fill="#000000" font-family="sans-serif" font-size="14" lengthAdjust="spacing" textLength="248" x="4252.5" y="780.2129">containsOfIdentity(ActuatorID): boolean</text><ellipse cx="4243.5" cy="794.5371" fill="#84BE84" rx="3" ry="3" style="stroke:#038048;stroke-width:1.0;"/><text fill="#000000" font-family="sans-serif" font-size="14" lengthAdjust="spacing" textLength="258" x="4252.5" y="798.834">findByDeviceId(DeviceID): List&lt;Actuator&gt;</text></g><!--class ActuatorTypeDTO--><g id="elem_ActuatorTypeDTO"><rect codeLine="102" fill="#F1F1F1" height="122.4844" id="ActuatorTypeDTO" rx="2.5" ry="2.5" style="stroke:#181818;stroke-width:0.5;" width="579" x="2866.5" y="656"/><ellipse cx="3094.25" cy="672" fill="#ADD1B2" rx="11" ry="11" style="stroke:#181818;stroke-width:1.0;"/><path d="M3097.0156,667.875 Q3097.1719,667.6563 3097.3594,667.5469 Q3097.5469,667.4375 3097.7656,667.4375 Q3098.1406,667.4375 3098.375,667.7031 Q3098.6094,667.9531 3098.6094,668.5625 L3098.6094,670.0156 Q3098.6094,670.625 3098.375,670.8906 Q3098.1406,671.1563 3097.7656,671.1563 Q3097.4219,671.1563 3097.2188,670.9531 Q3097.0156,670.7656 3096.9063,670.25 Q3096.8594,669.8906 3096.6719,669.7031 Q3096.3438,669.3281 3095.7344,669.1094 Q3095.125,668.8906 3094.5,668.8906 Q3093.7344,668.8906 3093.0938,669.2188 Q3092.4688,669.5469 3091.9688,670.2969 Q3091.4844,671.0469 3091.4844,672.0781 L3091.4844,673.1719 Q3091.4844,674.4063 3092.375,675.2344 Q3093.2656,676.0469 3094.8594,676.0469 Q3095.7969,676.0469 3096.4531,675.7969 Q3096.8438,675.6406 3097.2656,675.2031 Q3097.5313,674.9375 3097.6719,674.8594 Q3097.8281,674.7813 3098.0313,674.7813 Q3098.3594,674.7813 3098.6094,675.0469 Q3098.875,675.2969 3098.875,675.6406 Q3098.875,675.9844 3098.5313,676.3906 Q3098.0313,676.9688 3097.2344,677.2969 Q3096.1563,677.75 3094.8594,677.75 Q3093.3438,677.75 3092.1406,677.125 Q3091.1563,676.625 3090.4688,675.5625 Q3089.7813,674.4844 3089.7813,673.2031 L3089.7813,672.0469 Q3089.7813,670.7188 3090.3906,669.5781 Q3091.0156,668.4219 3092.1094,667.8125 Q3093.2031,667.1875 3094.4375,667.1875 Q3095.1719,667.1875 3095.8125,667.3594 Q3096.4688,667.5156 3097.0156,667.875 Z " fill="#000000"/><text fill="#000000" font-family="sans-serif" font-size="14" lengthAdjust="spacing" textLength="115" x="3114.75" y="677.7969">ActuatorTypeDTO</text><line style="stroke:#181818;stroke-width:0.5;" x1="2867.5" x2="3444.5" y1="688" y2="688"/><rect fill="none" height="6" style="stroke:#C82930;stroke-width:1.0;" width="6" x="2874.5" y="699.8105"/><text fill="#000000" font-family="sans-serif" font-size="14" lengthAdjust="spacing" textLength="143" x="2886.5" y="707.1074">ActuatorTypeID: String</text><rect fill="none" height="6" style="stroke:#C82930;stroke-width:1.0;" width="6" x="2874.5" y="718.4316"/><text fill="#000000" font-family="sans-serif" font-size="14" lengthAdjust="spacing" textLength="201" x="2886.5" y="725.7285">ActuatorTypeDescription: String</text><rect fill="none" height="6" style="stroke:#C82930;stroke-width:1.0;" width="6" x="2874.5" y="737.0527"/><text fill="#000000" font-family="sans-serif" font-size="14" lengthAdjust="spacing" textLength="68" x="2886.5" y="744.3496">unit: String</text><line style="stroke:#181818;stroke-width:0.5;" x1="2867.5" x2="3444.5" y1="751.8633" y2="751.8633"/><ellipse cx="2877.5" cy="766.6738" fill="#84BE84" rx="3" ry="3" style="stroke:#038048;stroke-width:1.0;"/><text fill="#000000" font-family="sans-serif" font-size="14" lengthAdjust="spacing" textLength="553" x="2886.5" y="770.9707">ActuatorTypeDTO(ActuatorTypeID: String, ActuatorTypeDescription: String, unit: String)</text></g><!--class ActuatorModelDTO--><g id="elem_ActuatorModelDTO"><rect codeLine="109" fill="#F1F1F1" height="122.4844" id="ActuatorModelDTO" rx="2.5" ry="2.5" style="stroke:#181818;stroke-width:0.5;" width="606" x="1338" y="656"/><ellipse cx="1576.25" cy="672" fill="#ADD1B2" rx="11" ry="11" style="stroke:#181818;stroke-width:1.0;"/><path d="M1579.0156,667.875 Q1579.1719,667.6563 1579.3594,667.5469 Q1579.5469,667.4375 1579.7656,667.4375 Q1580.1406,667.4375 1580.375,667.7031 Q1580.6094,667.9531 1580.6094,668.5625 L1580.6094,670.0156 Q1580.6094,670.625 1580.375,670.8906 Q1580.1406,671.1563 1579.7656,671.1563 Q1579.4219,671.1563 1579.2188,670.9531 Q1579.0156,670.7656 1578.9063,670.25 Q1578.8594,669.8906 1578.6719,669.7031 Q1578.3438,669.3281 1577.7344,669.1094 Q1577.125,668.8906 1576.5,668.8906 Q1575.7344,668.8906 1575.0938,669.2188 Q1574.4688,669.5469 1573.9688,670.2969 Q1573.4844,671.0469 1573.4844,672.0781 L1573.4844,673.1719 Q1573.4844,674.4063 1574.375,675.2344 Q1575.2656,676.0469 1576.8594,676.0469 Q1577.7969,676.0469 1578.4531,675.7969 Q1578.8438,675.6406 1579.2656,675.2031 Q1579.5313,674.9375 1579.6719,674.8594 Q1579.8281,674.7813 1580.0313,674.7813 Q1580.3594,674.7813 1580.6094,675.0469 Q1580.875,675.2969 1580.875,675.6406 Q1580.875,675.9844 1580.5313,676.3906 Q1580.0313,676.9688 1579.2344,677.2969 Q1578.1563,677.75 1576.8594,677.75 Q1575.3438,677.75 1574.1406,677.125 Q1573.1563,676.625 1572.4688,675.5625 Q1571.7813,674.4844 1571.7813,673.2031 L1571.7813,672.0469 Q1571.7813,670.7188 1572.3906,669.5781 Q1573.0156,668.4219 1574.1094,667.8125 Q1575.2031,667.1875 1576.4375,667.1875 Q1577.1719,667.1875 1577.8125,667.3594 Q1578.4688,667.5156 1579.0156,667.875 Z " fill="#000000"/><text fill="#000000" font-family="sans-serif" font-size="14" lengthAdjust="spacing" textLength="121" x="1596.75" y="677.7969">ActuatorModelDTO</text><line style="stroke:#181818;stroke-width:0.5;" x1="1339" x2="1943" y1="688" y2="688"/><rect fill="none" height="6" style="stroke:#C82930;stroke-width:1.0;" width="6" x="1346" y="699.8105"/><text fill="#000000" font-family="sans-serif" font-size="14" lengthAdjust="spacing" textLength="149" x="1358" y="707.1074">ActuatorModelID: String</text><rect fill="none" height="6" style="stroke:#C82930;stroke-width:1.0;" width="6" x="1346" y="718.4316"/><text fill="#000000" font-family="sans-serif" font-size="14" lengthAdjust="spacing" textLength="172" x="1358" y="725.7285">ActuatorModelName: String</text><rect fill="none" height="6" style="stroke:#C82930;stroke-width:1.0;" width="6" x="1346" y="737.0527"/><text fill="#000000" font-family="sans-serif" font-size="14" lengthAdjust="spacing" textLength="120" x="1358" y="744.3496">_modelPath: String</text><line style="stroke:#181818;stroke-width:0.5;" x1="1339" x2="1943" y1="751.8633" y2="751.8633"/><ellipse cx="1349" cy="766.6738" fill="#84BE84" rx="3" ry="3" style="stroke:#038048;stroke-width:1.0;"/><text fill="#000000" font-family="sans-serif" font-size="14" lengthAdjust="spacing" textLength="580" x="1358" y="770.9707">ActuatorModelDTO(ActuatorModelID: String, ActuatorModelName: String, modelPath: String)</text></g><!--class ActuatorDataDTO--><g id="elem_ActuatorDataDTO"><rect codeLine="116" fill="#F1F1F1" height="141.1055" id="ActuatorDataDTO" rx="2.5" ry="2.5" style="stroke:#181818;stroke-width:0.5;" width="714" x="4559" y="404"/><ellipse cx="4855.25" cy="420" fill="#ADD1B2" rx="11" ry="11" style="stroke:#181818;stroke-width:1.0;"/><path d="M4858.0156,415.875 Q4858.1719,415.6563 4858.3594,415.5469 Q4858.5469,415.4375 4858.7656,415.4375 Q4859.1406,415.4375 4859.375,415.7031 Q4859.6094,415.9531 4859.6094,416.5625 L4859.6094,418.0156 Q4859.6094,418.625 4859.375,418.8906 Q4859.1406,419.1563 4858.7656,419.1563 Q4858.4219,419.1563 4858.2188,418.9531 Q4858.0156,418.7656 4857.9063,418.25 Q4857.8594,417.8906 4857.6719,417.7031 Q4857.3438,417.3281 4856.7344,417.1094 Q4856.125,416.8906 4855.5,416.8906 Q4854.7344,416.8906 4854.0938,417.2188 Q4853.4688,417.5469 4852.9688,418.2969 Q4852.4844,419.0469 4852.4844,420.0781 L4852.4844,421.1719 Q4852.4844,422.4063 4853.375,423.2344 Q4854.2656,424.0469 4855.8594,424.0469 Q4856.7969,424.0469 4857.4531,423.7969 Q4857.8438,423.6406 4858.2656,423.2031 Q4858.5313,422.9375 4858.6719,422.8594 Q4858.8281,422.7813 4859.0313,422.7813 Q4859.3594,422.7813 4859.6094,423.0469 Q4859.875,423.2969 4859.875,423.6406 Q4859.875,423.9844 4859.5313,424.3906 Q4859.0313,424.9688 4858.2344,425.2969 Q4857.1563,425.75 4855.8594,425.75 Q4854.3438,425.75 4853.1406,425.125 Q4852.1563,424.625 4851.4688,423.5625 Q4850.7813,422.4844 4850.7813,421.2031 L4850.7813,420.0469 Q4850.7813,418.7188 4851.3906,417.5781 Q4852.0156,416.4219 4853.1094,415.8125 Q4854.2031,415.1875 4855.4375,415.1875 Q4856.1719,415.1875 4856.8125,415.3594 Q4857.4688,415.5156 4858.0156,415.875 Z " fill="#000000"/><text fill="#000000" font-family="sans-serif" font-size="14" lengthAdjust="spacing" textLength="113" x="4875.75" y="425.7969">ActuatorDataDTO</text><line style="stroke:#181818;stroke-width:0.5;" x1="4560" x2="5272" y1="436" y2="436"/><rect fill="none" height="6" style="stroke:#C82930;stroke-width:1.0;" width="6" x="4567" y="447.8105"/><text fill="#000000" font-family="sans-serif" font-size="14" lengthAdjust="spacing" textLength="99" x="4579" y="455.1074">deviceID: String</text><rect fill="none" height="6" style="stroke:#C82930;stroke-width:1.0;" width="6" x="4567" y="466.4316"/><text fill="#000000" font-family="sans-serif" font-size="14" lengthAdjust="spacing" textLength="165" x="4579" y="473.7285">ActuatorModelPath: String</text><rect fill="none" height="6" style="stroke:#C82930;stroke-width:1.0;" width="6" x="4567" y="485.0527"/><text fill="#000000" font-family="sans-serif" font-size="14" lengthAdjust="spacing" textLength="134" x="4579" y="492.3496">ActuatorName: String</text><rect fill="none" height="6" style="stroke:#C82930;stroke-width:1.0;" width="6" x="4567" y="503.6738"/><text fill="#000000" font-family="sans-serif" font-size="14" lengthAdjust="spacing" textLength="143" x="4579" y="510.9707">ActuatorTypeID: String</text><line style="stroke:#181818;stroke-width:0.5;" x1="4560" x2="5272" y1="518.4844" y2="518.4844"/><ellipse cx="4570" cy="533.2949" fill="#84BE84" rx="3" ry="3" style="stroke:#038048;stroke-width:1.0;"/><text fill="#000000" font-family="sans-serif" font-size="14" lengthAdjust="spacing" textLength="688" x="4579" y="537.5918">ActuatorDataDTO(deviceID: String, ActuatorModelPath: String, ActuatorName: String, ActuatorTypeID: String)</text></g><!--class ActuatorDTO--><g id="elem_ActuatorDTO"><rect codeLine="124" fill="#F1F1F1" height="159.7266" id="ActuatorDTO" rx="2.5" ry="2.5" style="stroke:#181818;stroke-width:0.5;" width="750" x="3464" y="637"/><ellipse cx="3793.25" cy="653" fill="#ADD1B2" rx="11" ry="11" style="stroke:#181818;stroke-width:1.0;"/><path d="M3796.0156,648.875 Q3796.1719,648.6563 3796.3594,648.5469 Q3796.5469,648.4375 3796.7656,648.4375 Q3797.1406,648.4375 3797.375,648.7031 Q3797.6094,648.9531 3797.6094,649.5625 L3797.6094,651.0156 Q3797.6094,651.625 3797.375,651.8906 Q3797.1406,652.1563 3796.7656,652.1563 Q3796.4219,652.1563 3796.2188,651.9531 Q3796.0156,651.7656 3795.9063,651.25 Q3795.8594,650.8906 3795.6719,650.7031 Q3795.3438,650.3281 3794.7344,650.1094 Q3794.125,649.8906 3793.5,649.8906 Q3792.7344,649.8906 3792.0938,650.2188 Q3791.4688,650.5469 3790.9688,651.2969 Q3790.4844,652.0469 3790.4844,653.0781 L3790.4844,654.1719 Q3790.4844,655.4063 3791.375,656.2344 Q3792.2656,657.0469 3793.8594,657.0469 Q3794.7969,657.0469 3795.4531,656.7969 Q3795.8438,656.6406 3796.2656,656.2031 Q3796.5313,655.9375 3796.6719,655.8594 Q3796.8281,655.7813 3797.0313,655.7813 Q3797.3594,655.7813 3797.6094,656.0469 Q3797.875,656.2969 3797.875,656.6406 Q3797.875,656.9844 3797.5313,657.3906 Q3797.0313,657.9688 3796.2344,658.2969 Q3795.1563,658.75 3793.8594,658.75 Q3792.3438,658.75 3791.1406,658.125 Q3790.1563,657.625 3789.4688,656.5625 Q3788.7813,655.4844 3788.7813,654.2031 L3788.7813,653.0469 Q3788.7813,651.7188 3789.3906,650.5781 Q3790.0156,649.4219 3791.1094,648.8125 Q3792.2031,648.1875 3793.4375,648.1875 Q3794.1719,648.1875 3794.8125,648.3594 Q3795.4688,648.5156 3796.0156,648.875 Z " fill="#000000"/><text fill="#000000" font-family="sans-serif" font-size="14" lengthAdjust="spacing" textLength="83" x="3813.75" y="658.7969">ActuatorDTO</text><line style="stroke:#181818;stroke-width:0.5;" x1="3465" x2="4213" y1="669" y2="669"/><rect fill="none" height="6" style="stroke:#C82930;stroke-width:1.0;" width="6" x="3472" y="680.8105"/><text fill="#000000" font-family="sans-serif" font-size="14" lengthAdjust="spacing" textLength="99" x="3484" y="688.1074">deviceID: String</text><rect fill="none" height="6" style="stroke:#C82930;stroke-width:1.0;" width="6" x="3472" y="699.4316"/><text fill="#000000" font-family="sans-serif" font-size="14" lengthAdjust="spacing" textLength="112" x="3484" y="706.7285">modelPath: String</text><rect fill="none" height="6" style="stroke:#C82930;stroke-width:1.0;" width="6" x="3472" y="718.0527"/><text fill="#000000" font-family="sans-serif" font-size="14" lengthAdjust="spacing" textLength="143" x="3484" y="725.3496">ActuatorTypeID: String</text><rect fill="none" height="6" style="stroke:#C82930;stroke-width:1.0;" width="6" x="3472" y="736.6738"/><text fill="#000000" font-family="sans-serif" font-size="14" lengthAdjust="spacing" textLength="111" x="3484" y="743.9707">ActuatorID: String</text><rect fill="none" height="6" style="stroke:#C82930;stroke-width:1.0;" width="6" x="3472" y="755.2949"/><text fill="#000000" font-family="sans-serif" font-size="14" lengthAdjust="spacing" textLength="134" x="3484" y="762.5918">ActuatorName: String</text><line style="stroke:#181818;stroke-width:0.5;" x1="3465" x2="4213" y1="770.1055" y2="770.1055"/><ellipse cx="3475" cy="784.916" fill="#84BE84" rx="3" ry="3" style="stroke:#038048;stroke-width:1.0;"/><text fill="#000000" font-family="sans-serif" font-size="14" lengthAdjust="spacing" textLength="724" x="3484" y="789.2129">ActuatorDTO(deviceID: String, modelPath: String, ActuatorTypeID: String, ActuatorID: String, ActuatorName: String)</text></g><!--class ImpActuatorModelFactory--><g id="elem_ImpActuatorModelFactory"><rect codeLine="133" fill="#F1F1F1" height="66.6211" id="ImpActuatorModelFactory" rx="2.5" ry="2.5" style="stroke:#181818;stroke-width:0.5;" width="890" x="430" y="683.5"/><ellipse cx="790.25" cy="699.5" fill="#ADD1B2" rx="11" ry="11" style="stroke:#181818;stroke-width:1.0;"/><path d="M793.0156,695.375 Q793.1719,695.1563 793.3594,695.0469 Q793.5469,694.9375 793.7656,694.9375 Q794.1406,694.9375 794.375,695.2031 Q794.6094,695.4531 794.6094,696.0625 L794.6094,697.5156 Q794.6094,698.125 794.375,698.3906 Q794.1406,698.6563 793.7656,698.6563 Q793.4219,698.6563 793.2188,698.4531 Q793.0156,698.2656 792.9063,697.75 Q792.8594,697.3906 792.6719,697.2031 Q792.3438,696.8281 791.7344,696.6094 Q791.125,696.3906 790.5,696.3906 Q789.7344,696.3906 789.0938,696.7188 Q788.4688,697.0469 787.9688,697.7969 Q787.4844,698.5469 787.4844,699.5781 L787.4844,700.6719 Q787.4844,701.9063 788.375,702.7344 Q789.2656,703.5469 790.8594,703.5469 Q791.7969,703.5469 792.4531,703.2969 Q792.8438,703.1406 793.2656,702.7031 Q793.5313,702.4375 793.6719,702.3594 Q793.8281,702.2813 794.0313,702.2813 Q794.3594,702.2813 794.6094,702.5469 Q794.875,702.7969 794.875,703.1406 Q794.875,703.4844 794.5313,703.8906 Q794.0313,704.4688 793.2344,704.7969 Q792.1563,705.25 790.8594,705.25 Q789.3438,705.25 788.1406,704.625 Q787.1563,704.125 786.4688,703.0625 Q785.7813,701.9844 785.7813,700.7031 L785.7813,699.5469 Q785.7813,698.2188 786.3906,697.0781 Q787.0156,695.9219 788.1094,695.3125 Q789.2031,694.6875 790.4375,694.6875 Q791.1719,694.6875 791.8125,694.8594 Q792.4688,695.0156 793.0156,695.375 Z " fill="#000000"/><text fill="#000000" font-family="sans-serif" font-size="14" lengthAdjust="spacing" textLength="161" x="810.75" y="705.2969">ImpActuatorModelFactory</text><line style="stroke:#181818;stroke-width:0.5;" x1="431" x2="1319" y1="715.5" y2="715.5"/><line style="stroke:#181818;stroke-width:0.5;" x1="431" x2="1319" y1="723.5" y2="723.5"/><ellipse cx="441" cy="738.3105" fill="#84BE84" rx="3" ry="3" style="stroke:#038048;stroke-width:1.0;"/><text fill="#000000" font-family="sans-serif" font-size="14" lengthAdjust="spacing" textLength="864" x="450" y="742.6074">createActuatorModel(ActuatorModelName: ActuatorModelName, modelPath: ModelPath, ActuatorTypeID: ActuatorTypeID): ActuatorModel</text></g><!--class ImpActuatorTypeFactory--><g id="elem_ImpActuatorTypeFactory"><rect codeLine="138" fill="#F1F1F1" height="66.6211" id="ImpActuatorTypeFactory" rx="2.5" ry="2.5" style="stroke:#181818;stroke-width:0.5;" width="476" x="2372" y="683.5"/><ellipse cx="2528.25" cy="699.5" fill="#ADD1B2" rx="11" ry="11" style="stroke:#181818;stroke-width:1.0;"/><path d="M2531.0156,695.375 Q2531.1719,695.1563 2531.3594,695.0469 Q2531.5469,694.9375 2531.7656,694.9375 Q2532.1406,694.9375 2532.375,695.2031 Q2532.6094,695.4531 2532.6094,696.0625 L2532.6094,697.5156 Q2532.6094,698.125 2532.375,698.3906 Q2532.1406,698.6563 2531.7656,698.6563 Q2531.4219,698.6563 2531.2188,698.4531 Q2531.0156,698.2656 2530.9063,697.75 Q2530.8594,697.3906 2530.6719,697.2031 Q2530.3438,696.8281 2529.7344,696.6094 Q2529.125,696.3906 2528.5,696.3906 Q2527.7344,696.3906 2527.0938,696.7188 Q2526.4688,697.0469 2525.9688,697.7969 Q2525.4844,698.5469 2525.4844,699.5781 L2525.4844,700.6719 Q2525.4844,701.9063 2526.375,702.7344 Q2527.2656,703.5469 2528.8594,703.5469 Q2529.7969,703.5469 2530.4531,703.2969 Q2530.8438,703.1406 2531.2656,702.7031 Q2531.5313,702.4375 2531.6719,702.3594 Q2531.8281,702.2813 2532.0313,702.2813 Q2532.3594,702.2813 2532.6094,702.5469 Q2532.875,702.7969 2532.875,703.1406 Q2532.875,703.4844 2532.5313,703.8906 Q2532.0313,704.4688 2531.2344,704.7969 Q2530.1563,705.25 2528.8594,705.25 Q2527.3438,705.25 2526.1406,704.625 Q2525.1563,704.125 2524.4688,703.0625 Q2523.7813,701.9844 2523.7813,700.7031 L2523.7813,699.5469 Q2523.7813,698.2188 2524.3906,697.0781 Q2525.0156,695.9219 2526.1094,695.3125 Q2527.2031,694.6875 2528.4375,694.6875 Q2529.1719,694.6875 2529.8125,694.8594 Q2530.4688,695.0156 2531.0156,695.375 Z " fill="#000000"/><text fill="#000000" font-family="sans-serif" font-size="14" lengthAdjust="spacing" textLength="155" x="2548.75" y="705.2969">ImpActuatorTypeFactory</text><line style="stroke:#181818;stroke-width:0.5;" x1="2373" x2="2847" y1="715.5" y2="715.5"/><line style="stroke:#181818;stroke-width:0.5;" x1="2373" x2="2847" y1="723.5" y2="723.5"/><ellipse cx="2383" cy="738.3105" fill="#84BE84" rx="3" ry="3" style="stroke:#038048;stroke-width:1.0;"/><text fill="#000000" font-family="sans-serif" font-size="14" lengthAdjust="spacing" textLength="450" x="2392" y="742.6074">createActuatorType(name: TypeDescription, unit: UnitID): ActuatorType</text></g><!--class ImpActuatorFactory--><g id="elem_ImpActuatorFactory"><rect codeLine="141" fill="#F1F1F1" height="66.6211" id="ImpActuatorFactory" rx="2.5" ry="2.5" style="stroke:#181818;stroke-width:0.5;" width="270" x="4546" y="683.5"/><ellipse cx="4615.25" cy="699.5" fill="#ADD1B2" rx="11" ry="11" style="stroke:#181818;stroke-width:1.0;"/><path d="M4618.0156,695.375 Q4618.1719,695.1563 4618.3594,695.0469 Q4618.5469,694.9375 4618.7656,694.9375 Q4619.1406,694.9375 4619.375,695.2031 Q4619.6094,695.4531 4619.6094,696.0625 L4619.6094,697.5156 Q4619.6094,698.125 4619.375,698.3906 Q4619.1406,698.6563 4618.7656,698.6563 Q4618.4219,698.6563 4618.2188,698.4531 Q4618.0156,698.2656 4617.9063,697.75 Q4617.8594,697.3906 4617.6719,697.2031 Q4617.3438,696.8281 4616.7344,696.6094 Q4616.125,696.3906 4615.5,696.3906 Q4614.7344,696.3906 4614.0938,696.7188 Q4613.4688,697.0469 4612.9688,697.7969 Q4612.4844,698.5469 4612.4844,699.5781 L4612.4844,700.6719 Q4612.4844,701.9063 4613.375,702.7344 Q4614.2656,703.5469 4615.8594,703.5469 Q4616.7969,703.5469 4617.4531,703.2969 Q4617.8438,703.1406 4618.2656,702.7031 Q4618.5313,702.4375 4618.6719,702.3594 Q4618.8281,702.2813 4619.0313,702.2813 Q4619.3594,702.2813 4619.6094,702.5469 Q4619.875,702.7969 4619.875,703.1406 Q4619.875,703.4844 4619.5313,703.8906 Q4619.0313,704.4688 4618.2344,704.7969 Q4617.1563,705.25 4615.8594,705.25 Q4614.3438,705.25 4613.1406,704.625 Q4612.1563,704.125 4611.4688,703.0625 Q4610.7813,701.9844 4610.7813,700.7031 L4610.7813,699.5469 Q4610.7813,698.2188 4611.3906,697.0781 Q4612.0156,695.9219 4613.1094,695.3125 Q4614.2031,694.6875 4615.4375,694.6875 Q4616.1719,694.6875 4616.8125,694.8594 Q4617.4688,695.0156 4618.0156,695.375 Z " fill="#000000"/><text fill="#000000" font-family="sans-serif" font-size="14" lengthAdjust="spacing" textLength="123" x="4635.75" y="705.2969">ImpActuatorFactory</text><line style="stroke:#181818;stroke-width:0.5;" x1="4547" x2="4815" y1="715.5" y2="715.5"/><line style="stroke:#181818;stroke-width:0.5;" x1="4547" x2="4815" y1="723.5" y2="723.5"/><ellipse cx="4557" cy="738.3105" fill="#84BE84" rx="3" ry="3" style="stroke:#038048;stroke-width:1.0;"/><text fill="#000000" font-family="sans-serif" font-size="14" lengthAdjust="spacing" textLength="244" x="4566" y="742.6074">create(parameters: Object...): Actuator</text></g><!--class ActuatorModel--><g id="elem_ActuatorModel"><rect codeLine="145" fill="#F1F1F1" height="196.9688" id="ActuatorModel" rx="2.5" ry="2.5" style="stroke:#181818;stroke-width:0.5;" width="751" x="89.5" y="870.5"/><ellipse cx="415.25" cy="886.5" fill="#ADD1B2" rx="11" ry="11" style="stroke:#181818;stroke-width:1.0;"/><path d="M418.0156,882.375 Q418.1719,882.1563 418.3594,882.0469 Q418.5469,881.9375 418.7656,881.9375 Q419.1406,881.9375 419.375,882.2031 Q419.6094,882.4531 419.6094,883.0625 L419.6094,884.5156 Q419.6094,885.125 419.375,885.3906 Q419.1406,885.6563 418.7656,885.6563 Q418.4219,885.6563 418.2188,885.4531 Q418.0156,885.2656 417.9063,884.75 Q417.8594,884.3906 417.6719,884.2031 Q417.3438,883.8281 416.7344,883.6094 Q416.125,883.3906 415.5,883.3906 Q414.7344,883.3906 414.0938,883.7188 Q413.4688,884.0469 412.9688,884.7969 Q412.4844,885.5469 412.4844,886.5781 L412.4844,887.6719 Q412.4844,888.9063 413.375,889.7344 Q414.2656,890.5469 415.8594,890.5469 Q416.7969,890.5469 417.4531,890.2969 Q417.8438,890.1406 418.2656,889.7031 Q418.5313,889.4375 418.6719,889.3594 Q418.8281,889.2813 419.0313,889.2813 Q419.3594,889.2813 419.6094,889.5469 Q419.875,889.7969 419.875,890.1406 Q419.875,890.4844 419.5313,890.8906 Q419.0313,891.4688 418.2344,891.7969 Q417.1563,892.25 415.8594,892.25 Q414.3438,892.25 413.1406,891.625 Q412.1563,891.125 411.4688,890.0625 Q410.7813,888.9844 410.7813,887.7031 L410.7813,886.5469 Q410.7813,885.2188 411.3906,884.0781 Q412.0156,882.9219 413.1094,882.3125 Q414.2031,881.6875 415.4375,881.6875 Q416.1719,881.6875 416.8125,881.8594 Q417.4688,882.0156 418.0156,882.375 Z " fill="#000000"/><text fill="#000000" font-family="sans-serif" font-size="14" lengthAdjust="spacing" textLength="91" x="435.75" y="892.2969">ActuatorModel</text><line style="stroke:#181818;stroke-width:0.5;" x1="90.5" x2="839.5" y1="902.5" y2="902.5"/><rect fill="none" height="6" style="stroke:#C82930;stroke-width:1.0;" width="6" x="97.5" y="914.3105"/><text fill="#000000" font-family="sans-serif" font-size="14" lengthAdjust="spacing" textLength="270" x="109.5" y="921.6074">_ActuatorModelName: ActuatorModelName</text><rect fill="none" height="6" style="stroke:#C82930;stroke-width:1.0;" width="6" x="97.5" y="932.9316"/><text fill="#000000" font-family="sans-serif" font-size="14" lengthAdjust="spacing" textLength="150" x="109.5" y="940.2285">_modelPath: ModelPath</text><rect fill="none" height="6" style="stroke:#C82930;stroke-width:1.0;" width="6" x="97.5" y="951.5527"/><text fill="#000000" font-family="sans-serif" font-size="14" lengthAdjust="spacing" textLength="212" x="109.5" y="958.8496">_ActuatorTypeID: ActuatorTypeID</text><line style="stroke:#181818;stroke-width:0.5;" x1="90.5" x2="839.5" y1="966.3633" y2="966.3633"/><ellipse cx="100.5" cy="981.1738" fill="#84BE84" rx="3" ry="3" style="stroke:#038048;stroke-width:1.0;"/><text fill="#000000" font-family="sans-serif" font-size="14" lengthAdjust="spacing" textLength="725" x="109.5" y="985.4707">ActuatorModel(ActuatorModelName: ActuatorModelName, modelPath: ModelPath, ActuatorTypeID: ActuatorTypeID)</text><ellipse cx="100.5" cy="999.7949" fill="#84BE84" rx="3" ry="3" style="stroke:#038048;stroke-width:1.0;"/><text fill="#000000" font-family="sans-serif" font-size="14" lengthAdjust="spacing" textLength="234" x="109.5" y="1004.0918">getActuatorTypeID(): ActuatorTypeID</text><ellipse cx="100.5" cy="1018.416" fill="#84BE84" rx="3" ry="3" style="stroke:#038048;stroke-width:1.0;"/><text fill="#000000" font-family="sans-serif" font-size="14" lengthAdjust="spacing" textLength="292" x="109.5" y="1022.7129">getActuatorModelName(): ActuatorModelName</text><ellipse cx="100.5" cy="1037.0371" fill="#84BE84" rx="3" ry="3" style="stroke:#038048;stroke-width:1.0;"/><text fill="#000000" font-family="sans-serif" font-size="14" lengthAdjust="spacing" textLength="172" x="109.5" y="1041.334">getModelPath(): ModelPath</text><ellipse cx="100.5" cy="1055.6582" fill="#84BE84" rx="3" ry="3" style="stroke:#038048;stroke-width:1.0;"/><text fill="#000000" font-family="sans-serif" font-size="14" lengthAdjust="spacing" textLength="118" x="109.5" y="1059.9551">getID(): ModelPath</text></g><!--class ActuatorType--><g id="elem_ActuatorType"><rect codeLine="156" fill="#F1F1F1" height="215.5898" id="ActuatorType" rx="2.5" ry="2.5" style="stroke:#181818;stroke-width:0.5;" width="343" x="2099.5" y="861"/><ellipse cx="2224.25" cy="877" fill="#ADD1B2" rx="11" ry="11" style="stroke:#181818;stroke-width:1.0;"/><path d="M2227.0156,872.875 Q2227.1719,872.6563 2227.3594,872.5469 Q2227.5469,872.4375 2227.7656,872.4375 Q2228.1406,872.4375 2228.375,872.7031 Q2228.6094,872.9531 2228.6094,873.5625 L2228.6094,875.0156 Q2228.6094,875.625 2228.375,875.8906 Q2228.1406,876.1563 2227.7656,876.1563 Q2227.4219,876.1563 2227.2188,875.9531 Q2227.0156,875.7656 2226.9063,875.25 Q2226.8594,874.8906 2226.6719,874.7031 Q2226.3438,874.3281 2225.7344,874.1094 Q2225.125,873.8906 2224.5,873.8906 Q2223.7344,873.8906 2223.0938,874.2188 Q2222.4688,874.5469 2221.9688,875.2969 Q2221.4844,876.0469 2221.4844,877.0781 L2221.4844,878.1719 Q2221.4844,879.4063 2222.375,880.2344 Q2223.2656,881.0469 2224.8594,881.0469 Q2225.7969,881.0469 2226.4531,880.7969 Q2226.8438,880.6406 2227.2656,880.2031 Q2227.5313,879.9375 2227.6719,879.8594 Q2227.8281,879.7813 2228.0313,879.7813 Q2228.3594,879.7813 2228.6094,880.0469 Q2228.875,880.2969 2228.875,880.6406 Q2228.875,880.9844 2228.5313,881.3906 Q2228.0313,881.9688 2227.2344,882.2969 Q2226.1563,882.75 2224.8594,882.75 Q2223.3438,882.75 2222.1406,882.125 Q2221.1563,881.625 2220.4688,880.5625 Q2219.7813,879.4844 2219.7813,878.2031 L2219.7813,877.0469 Q2219.7813,875.7188 2220.3906,874.5781 Q2221.0156,873.4219 2222.1094,872.8125 Q2223.2031,872.1875 2224.4375,872.1875 Q2225.1719,872.1875 2225.8125,872.3594 Q2226.4688,872.5156 2227.0156,872.875 Z " fill="#000000"/><text fill="#000000" font-family="sans-serif" font-size="14" lengthAdjust="spacing" textLength="85" x="2244.75" y="882.7969">ActuatorType</text><line style="stroke:#181818;stroke-width:0.5;" x1="2100.5" x2="2441.5" y1="893" y2="893"/><rect fill="none" height="6" style="stroke:#C82930;stroke-width:1.0;" width="6" x="2107.5" y="904.8105"/><text fill="#000000" font-family="sans-serif" font-size="14" lengthAdjust="spacing" textLength="125" x="2119.5" y="912.1074">_id: ActuatorTypeID</text><rect fill="none" height="6" style="stroke:#C82930;stroke-width:1.0;" width="6" x="2107.5" y="923.4316"/><text fill="#000000" font-family="sans-serif" font-size="14" lengthAdjust="spacing" textLength="154" x="2119.5" y="930.7285">_name: TypeDescription</text><rect fill="none" height="6" style="stroke:#C82930;stroke-width:1.0;" width="6" x="2107.5" y="942.0527"/><text fill="#000000" font-family="sans-serif" font-size="14" lengthAdjust="spacing" textLength="76" x="2119.5" y="949.3496">_unit: UnitID</text><line style="stroke:#181818;stroke-width:0.5;" x1="2100.5" x2="2441.5" y1="956.8633" y2="956.8633"/><ellipse cx="2110.5" cy="971.6738" fill="#84BE84" rx="3" ry="3" style="stroke:#038048;stroke-width:1.0;"/><text fill="#000000" font-family="sans-serif" font-size="14" lengthAdjust="spacing" textLength="317" x="2119.5" y="975.9707">ActuatorType(name: TypeDescription, unit: UnitID)</text><ellipse cx="2110.5" cy="990.2949" fill="#84BE84" rx="3" ry="3" style="stroke:#038048;stroke-width:1.0;"/><text fill="#000000" font-family="sans-serif" font-size="14" lengthAdjust="spacing" textLength="149" x="2119.5" y="994.5918">getID(): ActuatorTypeID</text><ellipse cx="2110.5" cy="1008.916" fill="#84BE84" rx="3" ry="3" style="stroke:#038048;stroke-width:1.0;"/><text fill="#000000" font-family="sans-serif" font-size="14" lengthAdjust="spacing" textLength="177" x="2119.5" y="1013.2129">getName(): TypeDescription</text><ellipse cx="2110.5" cy="1027.5371" fill="#84BE84" rx="3" ry="3" style="stroke:#038048;stroke-width:1.0;"/><text fill="#000000" font-family="sans-serif" font-size="14" lengthAdjust="spacing" textLength="99" x="2119.5" y="1031.834">getUnit(): UnitID</text><ellipse cx="2110.5" cy="1046.1582" fill="#84BE84" rx="3" ry="3" style="stroke:#038048;stroke-width:1.0;"/><text fill="#000000" font-family="sans-serif" font-size="14" lengthAdjust="spacing" textLength="198" x="2119.5" y="1050.4551">equals(object: Object): boolean</text><ellipse cx="2110.5" cy="1064.7793" fill="#84BE84" rx="3" ry="3" style="stroke:#038048;stroke-width:1.0;"/><text fill="#000000" font-family="sans-serif" font-size="14" lengthAdjust="spacing" textLength="104" x="2119.5" y="1069.0762">toString(): String</text></g><!--class Actuator--><g id="elem_Actuator"><rect codeLine="168" fill="#F1F1F1" height="178.3477" id="Actuator" rx="2.5" ry="2.5" style="stroke:#181818;stroke-width:0.5;" width="260" x="4400" y="880"/><ellipse cx="4499.25" cy="896" fill="#B4A7E5" rx="11" ry="11" style="stroke:#181818;stroke-width:1.0;"/><path d="M4500.2031,892.6406 L4500.2031,899.2969 L4501.9219,899.2969 Q4502.5313,899.2969 4502.7969,899.5313 Q4503.0625,899.7656 4503.0625,900.1563 Q4503.0625,900.5313 4502.7969,900.7656 Q4502.5313,901 4501.9219,901 L4496.7813,901 Q4496.1719,901 4495.9063,900.7656 Q4495.6406,900.5313 4495.6406,900.1406 Q4495.6406,899.7656 4495.9063,899.5313 Q4496.1719,899.2969 4496.7813,899.2969 L4498.5,899.2969 L4498.5,892.6406 L4496.7813,892.6406 Q4496.1719,892.6406 4495.9063,892.4063 Q4495.6406,892.1719 4495.6406,891.7813 Q4495.6406,891.4063 4495.9063,891.1719 Q4496.1719,890.9375 4496.7813,890.9375 L4501.9219,890.9375 Q4502.5313,890.9375 4502.7969,891.1719 Q4503.0625,891.4063 4503.0625,891.7813 Q4503.0625,892.1719 4502.7969,892.4063 Q4502.5313,892.6406 4501.9219,892.6406 L4500.2031,892.6406 Z " fill="#000000"/><text fill="#000000" font-family="sans-serif" font-size="14" font-style="italic" lengthAdjust="spacing" textLength="53" x="4519.75" y="901.7969">Actuator</text><line style="stroke:#181818;stroke-width:0.5;" x1="4401" x2="4659" y1="912" y2="912"/><line style="stroke:#181818;stroke-width:0.5;" x1="4401" x2="4659" y1="920" y2="920"/><ellipse cx="4411" cy="934.8105" fill="#84BE84" rx="3" ry="3" style="stroke:#038048;stroke-width:1.0;"/><text fill="#000000" font-family="sans-serif" font-size="14" lengthAdjust="spacing" textLength="117" x="4420" y="939.1074">getID(): ActuatorID</text><ellipse cx="4411" cy="953.4316" fill="#84BE84" rx="3" ry="3" style="stroke:#038048;stroke-width:1.0;"/><text fill="#000000" font-family="sans-serif" font-size="14" lengthAdjust="spacing" textLength="163" x="4420" y="957.7285">getName(): ActuatorName</text><ellipse cx="4411" cy="972.0527" fill="#84BE84" rx="3" ry="3" style="stroke:#038048;stroke-width:1.0;"/><text fill="#000000" font-family="sans-serif" font-size="14" lengthAdjust="spacing" textLength="172" x="4420" y="976.3496">getModelPath(): ModelPath</text><ellipse cx="4411" cy="990.6738" fill="#84BE84" rx="3" ry="3" style="stroke:#038048;stroke-width:1.0;"/><text fill="#000000" font-family="sans-serif" font-size="14" lengthAdjust="spacing" textLength="234" x="4420" y="994.9707">getActuatorTypeID(): ActuatorTypeID</text><ellipse cx="4411" cy="1009.2949" fill="#84BE84" rx="3" ry="3" style="stroke:#038048;stroke-width:1.0;"/><text fill="#000000" font-family="sans-serif" font-size="14" lengthAdjust="spacing" textLength="104" x="4420" y="1013.5918">toString(): String</text><ellipse cx="4411" cy="1027.916" fill="#84BE84" rx="3" ry="3" style="stroke:#038048;stroke-width:1.0;"/><text fill="#000000" font-family="sans-serif" font-size="14" lengthAdjust="spacing" textLength="151" x="4420" y="1032.2129">getValue(): ValueObject</text><ellipse cx="4411" cy="1046.5371" fill="#84BE84" rx="3" ry="3" style="stroke:#038048;stroke-width:1.0;"/><text fill="#000000" font-family="sans-serif" font-size="14" lengthAdjust="spacing" textLength="150" x="4420" y="1050.834">getDeviceID(): DeviceID</text></g><polygon fill="#181818" points="1162.1799,434.9743,1171.6318,437.7422,1167.1355,434.3095,1170.5681,429.8132,1162.1799,434.9743" style="stroke:#181818;stroke-width:1.0;"/><path d="M2410.2992,267.537 C1984.0348,324.7211 1479.781,392.3676 1168.1266,434.1766 " fill="none" style="stroke:#181818;stroke-width:1.0;stroke-dasharray:7.0,7.0;"/><text fill="#000000" font-family="sans-serif" font-size="13" lengthAdjust="spacing" textLength="28" x="1813" y="354.0283">uses</text><text fill="#000000" font-family="sans-serif" font-size="13" lengthAdjust="spacing" textLength="7" x="1163.1799" y="431.0027">1</text><text fill="#000000" font-family="sans-serif" font-size="13" lengthAdjust="spacing" textLength="7" x="2402.2992" y="263.5653">1</text><polygon fill="#181818" points="2044.6671,431.9385,2054.3485,433.7465,2049.5312,430.7811,2052.4967,425.9638,2044.6671,431.9385" style="stroke:#181818;stroke-width:1.0;"/><path d="M2510.6453,321.0603 C2338.7004,361.9741 2172.8171,401.4455 2050.5041,430.5496 " fill="none" style="stroke:#181818;stroke-width:1.0;stroke-dasharray:7.0,7.0;"/><text fill="#000000" font-family="sans-serif" font-size="13" lengthAdjust="spacing" textLength="28" x="2399" y="354.0283">uses</text><text fill="#000000" font-family="sans-serif" font-size="13" lengthAdjust="spacing" textLength="7" x="2036.6671" y="427.9668">1</text><text fill="#000000" font-family="sans-serif" font-size="13" lengthAdjust="spacing" textLength="7" x="2502.6453" y="336.0886">1</text><polygon fill="#181818" points="2784.1585,375.8947,2793.9651,374.984,2788.5202,373.4502,2790.054,368.0053,2784.1585,375.8947" style="stroke:#181818;stroke-width:1.0;"/><path d="M2881.8003,321.1724 C2848.573,339.7942 2820.6035,355.4695 2789.3925,372.9613 " fill="none" style="stroke:#181818;stroke-width:1.0;stroke-dasharray:7.0,7.0;"/><text fill="#000000" font-family="sans-serif" font-size="13" lengthAdjust="spacing" textLength="28" x="2836" y="354.0283">uses</text><text fill="#000000" font-family="sans-serif" font-size="13" lengthAdjust="spacing" textLength="7" x="2776.1585" y="371.923">1</text><text fill="#000000" font-family="sans-serif" font-size="13" lengthAdjust="spacing" textLength="7" x="2873.8003" y="336.2007">1</text><polygon fill="#181818" points="3156,431.8906,3160,422.8906,3156,426.8906,3152,422.8906,3156,431.8906" style="stroke:#181818;stroke-width:1.0;"/><path d="M3156,321.3965 C3156,362.1754 3156,396.8694 3156,425.8906 " fill="none" style="stroke:#181818;stroke-width:1.0;stroke-dasharray:7.0,7.0;"/><text fill="#000000" font-family="sans-serif" font-size="13" lengthAdjust="spacing" textLength="28" x="3157" y="354.0283">uses</text><text fill="#000000" font-family="sans-serif" font-size="13" lengthAdjust="spacing" textLength="7" x="3148" y="427.9189">1</text><text fill="#000000" font-family="sans-serif" font-size="13" lengthAdjust="spacing" textLength="7" x="3148" y="336.4248">1</text><polygon fill="#181818" points="3623.5857,431.9754,3617.7212,424.0629,3619.2336,429.5138,3613.7827,431.0262,3623.5857,431.9754" style="stroke:#181818;stroke-width:1.0;"/><path d="M3427.6887,321.1724 C3499.9876,362.066 3566.9508,399.9417 3618.3632,429.0215 " fill="none" style="stroke:#181818;stroke-width:1.0;stroke-dasharray:7.0,7.0;"/><text fill="#000000" font-family="sans-serif" font-size="13" lengthAdjust="spacing" textLength="28" x="3492" y="354.0283">uses</text><text fill="#000000" font-family="sans-serif" font-size="13" lengthAdjust="spacing" textLength="7" x="3615.5857" y="428.0038">1</text><text fill="#000000" font-family="sans-serif" font-size="13" lengthAdjust="spacing" textLength="7" x="3419.6887" y="336.2007">1</text><polygon fill="#181818" points="4016.9012,403.9774,4009.2822,397.7364,4012.0798,402.653,4007.1632,405.4506,4016.9012,403.9774" style="stroke:#181818;stroke-width:1.0;"/><path d="M3715.0398,321.0603 C3820.8495,350.1247 3920.7754,377.573 4011.1155,402.3881 " fill="none" style="stroke:#181818;stroke-width:1.0;stroke-dasharray:7.0,7.0;"/><text fill="#000000" font-family="sans-serif" font-size="13" lengthAdjust="spacing" textLength="28" x="3847" y="354.0283">uses</text><text fill="#000000" font-family="sans-serif" font-size="13" lengthAdjust="spacing" textLength="7" x="4008.9012" y="400.0057">1</text><text fill="#000000" font-family="sans-serif" font-size="13" lengthAdjust="spacing" textLength="7" x="3707.0398" y="336.0886">1</text><polygon fill="#181818" points="4669.137,403.9079,4661.3926,397.8231,4664.2897,402.6818,4659.4309,405.5789,4669.137,403.9079" style="stroke:#181818;stroke-width:1.0;"/><path d="M3901.5219,263.4744 C4111.7507,294.7635 4340.0733,332.7512 4549,376 C4588.0569,384.085 4623.3337,392.3227 4663.3202,402.4366 " fill="none" style="stroke:#181818;stroke-width:1.0;stroke-dasharray:7.0,7.0;"/><text fill="#000000" font-family="sans-serif" font-size="13" lengthAdjust="spacing" textLength="28" x="4439" y="354.0283">uses</text><text fill="#000000" font-family="sans-serif" font-size="13" lengthAdjust="spacing" textLength="7" x="4661.137" y="399.9362">1</text><text fill="#000000" font-family="sans-serif" font-size="13" lengthAdjust="spacing" textLength="7" x="3902.5219" y="259.5027">1</text><polygon fill="#181818" points="412.2708,631.2962,422.1048,631.8371,416.9445,629.5195,419.2621,624.3592,412.2708,631.2962" style="stroke:#181818;stroke-width:1.0;"/><path d="M602.6357,563.5659 C542.5346,583.9494 479.3902,606.1046 421,628 C418.1082,629.0844 420.8056,628.0517 417.8793,629.1642 " fill="none" style="stroke:#181818;stroke-width:1.0;stroke-dasharray:7.0,7.0;"/><text fill="#000000" font-family="sans-serif" font-size="13" lengthAdjust="spacing" textLength="28" x="521" y="606.0283">uses</text><text fill="#000000" font-family="sans-serif" font-size="13" lengthAdjust="spacing" textLength="7" x="413.2708" y="627.3245">1</text><text fill="#000000" font-family="sans-serif" font-size="13" lengthAdjust="spacing" textLength="7" x="594.6357" y="578.5942">1</text><polygon fill="#181818" points="875,683.2854,879,674.2854,875,678.2854,871,674.2854,875,683.2854" style="stroke:#181818;stroke-width:1.0;"/><path d="M875,563.6877 C875,605.3803 875,646.6202 875,677.2854 " fill="none" style="stroke:#181818;stroke-width:1.0;stroke-dasharray:7.0,7.0;"/><text fill="#000000" font-family="sans-serif" font-size="13" lengthAdjust="spacing" textLength="28" x="876" y="606.0283">uses</text><text fill="#000000" font-family="sans-serif" font-size="13" lengthAdjust="spacing" textLength="7" x="867" y="679.3137">1</text><text fill="#000000" font-family="sans-serif" font-size="13" lengthAdjust="spacing" textLength="7" x="867" y="578.716">1</text><polygon fill="#181818" points="4339.6281,627.7324,4339.5222,617.8841,4337.5484,623.1854,4332.2471,621.2116,4339.6281,627.7324" style="stroke:#181818;stroke-width:1.0;"/><path d="M4301.8166,545.0626 C4313.6185,570.866 4324.6681,595.0244 4337.1325,622.276 " fill="none" style="stroke:#181818;stroke-width:1.0;stroke-dasharray:7.0,7.0;"/><text fill="#000000" font-family="sans-serif" font-size="13" lengthAdjust="spacing" textLength="28" x="4330" y="606.0283">uses</text><text fill="#000000" font-family="sans-serif" font-size="13" lengthAdjust="spacing" textLength="7" x="4331.6281" y="623.7607">1</text><text fill="#000000" font-family="sans-serif" font-size="13" lengthAdjust="spacing" textLength="7" x="4293.8166" y="560.0909">1</text><polygon fill="#181818" points="4628.1609,683.499,4622.5669,675.393,4623.8944,680.8918,4618.3955,682.2193,4628.1609,683.499" style="stroke:#181818;stroke-width:1.0;"/><path d="M4392.8643,545.0914 C4438.0158,570.8885 4489.4651,600.5454 4536,628 C4566.688,646.1053 4595.64,663.6264 4623.0411,680.3704 " fill="none" style="stroke:#181818;stroke-width:1.0;stroke-dasharray:7.0,7.0;"/><text fill="#000000" font-family="sans-serif" font-size="13" lengthAdjust="spacing" textLength="28" x="4502" y="606.0283">uses</text><text fill="#000000" font-family="sans-serif" font-size="13" lengthAdjust="spacing" textLength="7" x="4620.1609" y="679.5273">1</text><text fill="#000000" font-family="sans-serif" font-size="13" lengthAdjust="spacing" textLength="7" x="4384.8643" y="560.1197">1</text><polygon fill="#181818" points="2306.6063,636.9296,2316.4306,636.2333,2311.0204,634.581,2312.6727,629.1708,2306.6063,636.9296" style="stroke:#181818;stroke-width:1.0;"/><path d="M2426.4801,573.1472 C2386.6164,594.3579 2350.2204,613.7235 2311.9032,634.1112 " fill="none" style="stroke:#181818;stroke-width:1.0;stroke-dasharray:7.0,7.0;"/><text fill="#000000" font-family="sans-serif" font-size="13" lengthAdjust="spacing" textLength="28" x="2385" y="606.0283">uses</text><text fill="#000000" font-family="sans-serif" font-size="13" lengthAdjust="spacing" textLength="7" x="2298.6063" y="632.9579">1</text><text fill="#000000" font-family="sans-serif" font-size="13" lengthAdjust="spacing" textLength="7" x="2418.4801" y="588.1755">1</text><polygon fill="#181818" points="2610,683.2208,2614,674.2208,2610,678.2208,2606,674.2208,2610,683.2208" style="stroke:#181818;stroke-width:1.0;"/><path d="M2610,573.3206 C2610,612.4645 2610,648.896 2610,677.2208 " fill="none" style="stroke:#181818;stroke-width:1.0;stroke-dasharray:7.0,7.0;"/><text fill="#000000" font-family="sans-serif" font-size="13" lengthAdjust="spacing" textLength="28" x="2611" y="606.0283">uses</text><text fill="#000000" font-family="sans-serif" font-size="13" lengthAdjust="spacing" textLength="7" x="2602" y="679.2491">1</text><text fill="#000000" font-family="sans-serif" font-size="13" lengthAdjust="spacing" textLength="7" x="2602" y="588.3489">1</text><polygon fill="#181818" points="365.1016,870.4429,361.4573,861.2931,361.5243,866.9496,355.8679,867.0166,365.1016,870.4429" style="stroke:#181818;stroke-width:1.0;"/><path d="M299.256,806.1406 C320.5611,826.9464 339.1056,845.0562 360.8089,866.2509 " fill="none" style="stroke:#181818;stroke-width:1.0;"/><text fill="#000000" font-family="sans-serif" font-size="13" lengthAdjust="spacing" textLength="21" x="338" y="839.0283">has</text><text fill="#000000" font-family="sans-serif" font-size="13" lengthAdjust="spacing" textLength="7" x="357.1016" y="866.4712">1</text><text fill="#000000" font-family="sans-serif" font-size="13" lengthAdjust="spacing" textLength="7" x="291.256" y="821.169">1</text><polygon fill="#181818" points="2222.4631,860.6174,2222.4011,850.7687,2220.4037,856.0612,2215.1112,854.0637,2222.4631,860.6174" style="stroke:#181818;stroke-width:1.0;"/><path d="M2193.7539,797.1016 C2202.8708,817.2718 2210.3534,833.8261 2219.9918,855.1499 " fill="none" style="stroke:#181818;stroke-width:1.0;"/><text fill="#000000" font-family="sans-serif" font-size="13" lengthAdjust="spacing" textLength="21" x="2216" y="839.0283">has</text><text fill="#000000" font-family="sans-serif" font-size="13" lengthAdjust="spacing" textLength="7" x="2214.4631" y="856.6457">1</text><text fill="#000000" font-family="sans-serif" font-size="13" lengthAdjust="spacing" textLength="7" x="2185.7539" y="812.1299">1</text><polygon fill="#181818" points="4477.0876,879.8126,4475.8871,870.0372,4474.5151,875.5252,4469.0272,874.1532,4477.0876,879.8126" style="stroke:#181818;stroke-width:1.0;"/><path d="M4432.8844,806.1406 C4447.2235,830.0391 4459.66,850.7667 4474.0006,874.6677 " fill="none" style="stroke:#181818;stroke-width:1.0;"/><text fill="#000000" font-family="sans-serif" font-size="13" lengthAdjust="spacing" textLength="21" x="4456" y="839.0283">has</text><text fill="#000000" font-family="sans-serif" font-size="13" lengthAdjust="spacing" textLength="7" x="4469.0876" y="875.841">1</text><text fill="#000000" font-family="sans-serif" font-size="13" lengthAdjust="spacing" textLength="7" x="4424.8844" y="821.169">1</text><polygon fill="#181818" points="4583.2204,879.8868,4591.2974,874.2511,4585.8054,875.6069,4584.4495,870.115,4583.2204,879.8868" style="stroke:#181818;stroke-width:1.0;"/><path d="M4661.2594,750.6831 C4641.5137,783.3747 4613.3735,829.9645 4586.3224,874.751 " fill="none" style="stroke:#181818;stroke-width:1.0;stroke-dasharray:7.0,7.0;"/><text fill="#000000" font-family="sans-serif" font-size="13" lengthAdjust="spacing" textLength="43" x="4616" y="839.0283">creates</text><text fill="#000000" font-family="sans-serif" font-size="13" lengthAdjust="spacing" textLength="20" x="4562.2204" y="875.9151">1..*</text><text fill="#000000" font-family="sans-serif" font-size="13" lengthAdjust="spacing" textLength="7" x="4653.2594" y="765.7115">1</text><polygon fill="#181818" points="625.2736,870.2722,635.0402,869.0019,629.5426,867.6691,630.8754,862.1715,625.2736,870.2722" style="stroke:#181818;stroke-width:1.0;"/><path d="M821.3997,750.6831 C771.5841,781.0585 699.942,824.7427 630.3964,867.1485 " fill="none" style="stroke:#181818;stroke-width:1.0;stroke-dasharray:7.0,7.0;"/><text fill="#000000" font-family="sans-serif" font-size="13" lengthAdjust="spacing" textLength="43" x="696" y="839.0283">creates</text><text fill="#000000" font-family="sans-serif" font-size="13" lengthAdjust="spacing" textLength="20" x="604.2736" y="866.3005">1..*</text><text fill="#000000" font-family="sans-serif" font-size="13" lengthAdjust="spacing" textLength="7" x="813.3997" y="765.7115">1</text><polygon fill="#181818" points="2416.384,860.7847,2426.0015,858.6622,2420.4081,857.817,2421.2533,852.2237,2416.384,860.7847" style="stroke:#181818;stroke-width:1.0;"/><path d="M2565.6817,750.6831 C2527.5437,778.8085 2475.1311,817.4609 2421.2129,857.2235 " fill="none" style="stroke:#181818;stroke-width:1.0;stroke-dasharray:7.0,7.0;"/><text fill="#000000" font-family="sans-serif" font-size="13" lengthAdjust="spacing" textLength="43" x="2462" y="839.0283">creates</text><text fill="#000000" font-family="sans-serif" font-size="13" lengthAdjust="spacing" textLength="20" x="2395.384" y="856.813">1..*</text><text fill="#000000" font-family="sans-serif" font-size="13" lengthAdjust="spacing" textLength="7" x="2557.6817" y="765.7115">1</text><polygon fill="#181818" points="3792.0811,636.5353,3790.9497,626.7516,3789.539,632.2297,3784.0608,630.819,3792.0811,636.5353" style="stroke:#181818;stroke-width:1.0;"/><path d="M3721.5724,517.1173 C3740.941,549.9212 3765.4675,591.4608 3789.0305,631.3686 " fill="none" style="stroke:#181818;stroke-width:1.0;stroke-dasharray:7.0,7.0;"/><text fill="#000000" font-family="sans-serif" font-size="13" lengthAdjust="spacing" textLength="43" x="3774" y="606.0283">creates</text><text fill="#000000" font-family="sans-serif" font-size="13" lengthAdjust="spacing" textLength="20" x="3771.0811" y="632.5636">1..*</text><text fill="#000000" font-family="sans-serif" font-size="13" lengthAdjust="spacing" textLength="7" x="3713.5724" y="532.1457">1</text><polygon fill="#181818" points="1698.1513,655.9787,1707.2544,652.2191,1701.5992,652.3576,1701.4607,646.7024,1698.1513,655.9787" style="stroke:#181818;stroke-width:1.0;"/><path d="M1830.3727,517.1173 C1793.8889,555.4333 1743.4824,608.3711 1702.2888,651.6334 " fill="none" style="stroke:#181818;stroke-width:1.0;stroke-dasharray:7.0,7.0;"/><text fill="#000000" font-family="sans-serif" font-size="13" lengthAdjust="spacing" textLength="43" x="1757" y="606.0283">creates</text><text fill="#000000" font-family="sans-serif" font-size="13" lengthAdjust="spacing" textLength="20" x="1677.1513" y="652.007">1..*</text><text fill="#000000" font-family="sans-serif" font-size="13" lengthAdjust="spacing" textLength="7" x="1822.3727" y="532.1457">1</text><polygon fill="#181818" points="3156,655.9787,3160,646.9787,3156,650.9787,3152,646.9787,3156,655.9787" style="stroke:#181818;stroke-width:1.0;"/><path d="M3156,517.1173 C3156,555.4333 3156,606.7163 3156,649.9787 " fill="none" style="stroke:#181818;stroke-width:1.0;stroke-dasharray:7.0,7.0;"/><text fill="#000000" font-family="sans-serif" font-size="13" lengthAdjust="spacing" textLength="43" x="3157" y="606.0283">creates</text><text fill="#000000" font-family="sans-serif" font-size="13" lengthAdjust="spacing" textLength="20" x="3135" y="652.007">1..*</text><text fill="#000000" font-family="sans-serif" font-size="13" lengthAdjust="spacing" textLength="7" x="3148" y="532.1457">1</text><!--SRC=[lLXDZzis4BthLx2vLAvfRt8rWWMS6W4CD7MGkBaQN8cxgq8VhaYdC8pyzugaAF5ZHdQIHVUo5ZapR-RnSKZfrsSfZs9rTtSiMIrFLRdCckekAvaGYxnWJoshakINOykUAaPATcvEaeYAIrQpOLXahEJapUlNvDyYby_3-4dmBxoLHJUzVVpO254yb3n9T72oplDr9azCDks-sV2lHSP_RshPDcN9Mt9925aGC_oPj-eVEUJkesEm5e9N3ygjDna6j965-T3al1o2GQEnkHCQ7lTSzkSZZm2SmSWO2EyDUmw0CMmOfM3XEwlvDF7ffwQfUdDArCC0GVtbe27v52IQ8dnIY3GAaqDZ2cXOx4pNziIbobcainNven3ohNhQx7VtTjRaBDwtJQMcqdxUcfjfry5DQ0phZaBMkbQH1cQXjxOQt5cyBaE03PFC11X6zhlasx2N82rVOZL_uiSc4B8Q4aNtT8xDtxDCJP33e_dXJVPY0f3J2822SSsIPIrdadlpVe0_MTK9G__yoEIphv7jnk74v6MNeYo3rG3fXvSk7U0wfzrH5atDobiSnRkpbrwUHjb2ES0hEMxuYmRBcueLTIUE_SwdAEH0YIDq061nFKRvk9tj4hMnKKH-7qF4fQO6RG63slYlkf1kt9FtxAlFoIw5yIa4JWCGI93AFDNxbukiBRGKZ9ydFMMXlGNxwlkw3v33Or7dxk2xytOJYoRIe9gv7mECOiSR5RAijwWCIFwgnZGasZ2ZL6v98-X_a_0HD0phYthKmk2stOpQkH_bYaWxahKhQTFKJHFEXz-GeAsOh-L3Gs3gWCp2OoKrSoe2sax7PzLt7SAH7kLiqVxEjjwlL-G3Exu5C9pEYKH9PyCsckvnhlQdMdlpkCrvBGjvlhcfPzrrg1ELsC6k3qrJSbOF2RnGomyQgM7JQu_g5c2enTPix0fmL8ZToSO4S3jYEDH-JyC2w8tSBSSHIpX3CJlULl5OcMR4LVqK4oWBC0DNg_Sg7zNLxzfysBvn7g2OkeO7dDNRpOfybcrHFqLJpX7dsQYZrncOXoWf79zU2qwzo3EamyHbw66aZk7AwCqUAhj_mJeiJeeWK3my9L5ee93-_jxNaVVhY1SGPBhmcZAwVbx4UGYUXh0KnwGW84NGe8AdYwqcYvoGAJ8Sq39tym3ghl1wCGb3Oowgmy6sEeAlKPVRttTM17W5Sh96Z-_LjRUZBiiuJVT2Vi4kmRNEAxeAcoqCNuY_nL0kZFcR6wpqoDeEGV9MTBtpuM-UoULowRTYGk0MuKHR76uXqp67M0MYmVIEHVnl2pf21bydkjU66PvV-AAgCaXdKzGebo4jPHhJeqmCh3y77aVU8XKvckhY02hDcNSb5w_0pM85ofXWpnA6fQLiL61b4wR6_pcnKgIDLhLLjtVMzuQoCTr41HcwcUQpgBkTySYwDnMRusKYVoHtjt5zxphVBZMa21le2ojFEXlzmt3X6TXhZhAnloqDqr-DNxrvHPRBU_qV_EgxKj-anOz66LzHVpYE-ntbfuAyG2ul4EAdIx4Nepv00guQkY3Eou3Du9e_TZW7_bFGEEeLG0JBrGIst3WcveqSxo3HJdJbkbW0N7UUpyo7lUAccxxlTSMZjqu0piRIbilVF0zpVH09jhA8foqAS7VvGhpxsgnp4kyfnD68tVeXxMKgPJY0tn8calRS_mC0]--></g></svg>