<?xml version="1.0" encoding="us-ascii" standalone="no"?><svg xmlns="http://www.w3.org/2000/svg" xmlns:xlink="http://www.w3.org/1999/xlink" contentStyleType="text/css" height="475px" preserveAspectRatio="none" style="width:502px;height:475px;background:#FFFFFF;" version="1.1" viewBox="0 0 502 475" width="502px" zoomAndPan="magnify"><defs/><g><rect fill="#FFFFFF" height="285.1055" style="stroke:#181818;stroke-width:1.0;" width="10" x="75.5" y="91.4883"/><rect fill="#FFFFFF" height="29.3105" style="stroke:#181818;stroke-width:1.0;" width="10" x="460.5" y="112.7988"/><rect fill="#FFFFFF" height="29.3105" style="stroke:#181818;stroke-width:1.0;" width="10" x="460.5" y="171.4199"/><rect fill="#FFFFFF" height="29.3105" style="stroke:#181818;stroke-width:1.0;" width="10" x="460.5" y="230.041"/><rect fill="#FFFFFF" height="29.3105" style="stroke:#181818;stroke-width:1.0;" width="10" x="460.5" y="288.6621"/><rect fill="#FFFFFF" height="29.3105" style="stroke:#181818;stroke-width:1.0;" width="10" x="460.5" y="347.2832"/><line style="stroke:#181818;stroke-width:0.5;stroke-dasharray:5.0,5.0;" x1="80" x2="80" y1="81.4883" y2="394.5938"/><line style="stroke:#181818;stroke-width:0.5;stroke-dasharray:5.0,5.0;" x1="465.5" x2="465.5" y1="81.4883" y2="394.5938"/><text fill="#000000" font-family="sans-serif" font-size="14" lengthAdjust="spacing" textLength="145" x="5" y="78.5352">Power User or Admin</text><ellipse cx="80.5" cy="13.5" fill="#E2E2F0" rx="8" ry="8" style="stroke:#181818;stroke-width:0.5;"/><path d="M80.5,21.5 L80.5,48.5 M67.5,29.5 L93.5,29.5 M80.5,48.5 L67.5,63.5 M80.5,48.5 L93.5,63.5 " fill="none" style="stroke:#181818;stroke-width:0.5;"/><text fill="#000000" font-family="sans-serif" font-size="14" lengthAdjust="spacing" textLength="145" x="5" y="407.1289">Power User or Admin</text><ellipse cx="80.5" cy="418.582" fill="#E2E2F0" rx="8" ry="8" style="stroke:#181818;stroke-width:0.5;"/><path d="M80.5,426.582 L80.5,453.582 M67.5,434.582 L93.5,434.582 M80.5,453.582 L67.5,468.582 M80.5,453.582 L93.5,468.582 " fill="none" style="stroke:#181818;stroke-width:0.5;"/><rect fill="#E2E2F0" height="30.4883" rx="2.5" ry="2.5" style="stroke:#181818;stroke-width:0.5;" width="62" x="434.5" y="50"/><text fill="#000000" font-family="sans-serif" font-size="14" lengthAdjust="spacing" textLength="48" x="441.5" y="70.5352">System</text><rect fill="#E2E2F0" height="30.4883" rx="2.5" ry="2.5" style="stroke:#181818;stroke-width:0.5;" width="62" x="434.5" y="393.5938"/><text fill="#000000" font-family="sans-serif" font-size="14" lengthAdjust="spacing" textLength="48" x="441.5" y="414.1289">System</text><rect fill="#FFFFFF" height="285.1055" style="stroke:#181818;stroke-width:1.0;" width="10" x="75.5" y="91.4883"/><rect fill="#FFFFFF" height="29.3105" style="stroke:#181818;stroke-width:1.0;" width="10" x="460.5" y="112.7988"/><rect fill="#FFFFFF" height="29.3105" style="stroke:#181818;stroke-width:1.0;" width="10" x="460.5" y="171.4199"/><rect fill="#FFFFFF" height="29.3105" style="stroke:#181818;stroke-width:1.0;" width="10" x="460.5" y="230.041"/><rect fill="#FFFFFF" height="29.3105" style="stroke:#181818;stroke-width:1.0;" width="10" x="460.5" y="288.6621"/><rect fill="#FFFFFF" height="29.3105" style="stroke:#181818;stroke-width:1.0;" width="10" x="460.5" y="347.2832"/><polygon fill="#181818" points="448.5,108.7988,458.5,112.7988,448.5,116.7988,452.5,112.7988" style="stroke:#181818;stroke-width:1.0;"/><line style="stroke:#181818;stroke-width:1.0;" x1="85.5" x2="454.5" y1="112.7988" y2="112.7988"/><text fill="#000000" font-family="sans-serif" font-size="13" lengthAdjust="spacing" textLength="356" x="92.5" y="108.0566">I want to add an actuator to an existing device in a room</text><polygon fill="#181818" points="96.5,138.1094,86.5,142.1094,96.5,146.1094,92.5,142.1094" style="stroke:#181818;stroke-width:1.0;"/><line style="stroke:#181818;stroke-width:1.0;stroke-dasharray:2.0,2.0;" x1="90.5" x2="464.5" y1="142.1094" y2="142.1094"/><text fill="#000000" font-family="sans-serif" font-size="13" lengthAdjust="spacing" textLength="95" x="102.5" y="137.3672">In which room?</text><polygon fill="#181818" points="448.5,167.4199,458.5,171.4199,448.5,175.4199,452.5,171.4199" style="stroke:#181818;stroke-width:1.0;"/><line style="stroke:#181818;stroke-width:1.0;" x1="85.5" x2="454.5" y1="171.4199" y2="171.4199"/><text fill="#000000" font-family="sans-serif" font-size="13" lengthAdjust="spacing" textLength="40" x="92.5" y="166.6777">Room!</text><polygon fill="#181818" points="96.5,196.7305,86.5,200.7305,96.5,204.7305,92.5,200.7305" style="stroke:#181818;stroke-width:1.0;"/><line style="stroke:#181818;stroke-width:1.0;stroke-dasharray:2.0,2.0;" x1="90.5" x2="464.5" y1="200.7305" y2="200.7305"/><text fill="#000000" font-family="sans-serif" font-size="13" lengthAdjust="spacing" textLength="102" x="102.5" y="195.9883">In which device?</text><polygon fill="#181818" points="448.5,226.041,458.5,230.041,448.5,234.041,452.5,230.041" style="stroke:#181818;stroke-width:1.0;"/><line style="stroke:#181818;stroke-width:1.0;" x1="85.5" x2="454.5" y1="230.041" y2="230.041"/><text fill="#000000" font-family="sans-serif" font-size="13" lengthAdjust="spacing" textLength="46" x="92.5" y="225.2988">Device!</text><polygon fill="#181818" points="96.5,255.3516,86.5,259.3516,96.5,263.3516,92.5,259.3516" style="stroke:#181818;stroke-width:1.0;"/><line style="stroke:#181818;stroke-width:1.0;stroke-dasharray:2.0,2.0;" x1="90.5" x2="464.5" y1="259.3516" y2="259.3516"/><text fill="#000000" font-family="sans-serif" font-size="13" lengthAdjust="spacing" textLength="135" x="102.5" y="254.6094">Which Actuator Type?</text><polygon fill="#181818" points="448.5,284.6621,458.5,288.6621,448.5,292.6621,452.5,288.6621" style="stroke:#181818;stroke-width:1.0;"/><line style="stroke:#181818;stroke-width:1.0;" x1="85.5" x2="454.5" y1="288.6621" y2="288.6621"/><text fill="#000000" font-family="sans-serif" font-size="13" lengthAdjust="spacing" textLength="34" x="92.5" y="283.9199">Type!</text><polygon fill="#181818" points="96.5,313.9727,86.5,317.9727,96.5,321.9727,92.5,317.9727" style="stroke:#181818;stroke-width:1.0;"/><line style="stroke:#181818;stroke-width:1.0;stroke-dasharray:2.0,2.0;" x1="90.5" x2="464.5" y1="317.9727" y2="317.9727"/><text fill="#000000" font-family="sans-serif" font-size="13" lengthAdjust="spacing" textLength="143" x="102.5" y="313.2305">Which Actuator Model?</text><polygon fill="#181818" points="448.5,343.2832,458.5,347.2832,448.5,351.2832,452.5,347.2832" style="stroke:#181818;stroke-width:1.0;"/><line style="stroke:#181818;stroke-width:1.0;" x1="85.5" x2="454.5" y1="347.2832" y2="347.2832"/><text fill="#000000" font-family="sans-serif" font-size="13" lengthAdjust="spacing" textLength="42" x="92.5" y="342.541">Model!</text><polygon fill="#181818" points="91.5,372.5938,81.5,376.5938,91.5,380.5938,87.5,376.5938" style="stroke:#181818;stroke-width:1.0;"/><line style="stroke:#181818;stroke-width:1.0;stroke-dasharray:2.0,2.0;" x1="85.5" x2="464.5" y1="376.5938" y2="376.5938"/><text fill="#000000" font-family="sans-serif" font-size="13" lengthAdjust="spacing" textLength="221" x="97.5" y="371.8516">The actuator is added to the device</text><!--SRC=[bP8nJyCm48Lt_uhNBbre9HWPG95O690GRSM068xOD9PgEx8l3Vdts4wgb8WXNMphxjrtppwlzjlREwnH111UNQiyzY4k7ywZa4PR7TWJE_zvWsUqP1diG5A2BAZa9kLoo4BzHB6s1x6IwgHB1HqbyCwP3NQL6kMc2Oml1VSTyyP9TSp7aG3kwZuzb6p4elPqC8GZTQvX1AEOB8aeYC3bXVEpyIKev8YeoRCkTPtCRxl0oeXKfq_4gbVamlN3aBsVVLDCBpfoXqRzXdM4foOHRT5Mkgoo_558DQsOUdcBkiKLtDxI7F9JLivWlsTmSNw3NHpE77xINKz_IVzX3ZuBP_3_V3qTqaYLJ8FacEXVwvzk5v64-GK0]--></g></svg>