<?xml version="1.0" encoding="us-ascii" standalone="no"?><svg xmlns="http://www.w3.org/2000/svg" xmlns:xlink="http://www.w3.org/1999/xlink" contentStyleType="text/css" height="933px" preserveAspectRatio="none" style="width:1809px;height:933px;background:#FFFFFF;" version="1.1" viewBox="0 0 1809 933" width="1809px" zoomAndPan="magnify"><defs/><g><rect fill="#FFFFFF" height="612.5586" style="stroke:#181818;stroke-width:1.0;" width="10" x="276" y="264.9199"/><rect fill="#FFFFFF" height="33.6211" style="stroke:#181818;stroke-width:1.0;" width="10" x="527" y="306.2109"/><rect fill="#FFFFFF" height="33.6211" style="stroke:#181818;stroke-width:1.0;" width="10" x="677" y="381.123"/><rect fill="#FFFFFF" height="33.6211" style="stroke:#181818;stroke-width:1.0;" width="10" x="870" y="456.0352"/><rect fill="#FFFFFF" height="33.6211" style="stroke:#181818;stroke-width:1.0;" width="10" x="1085" y="530.9473"/><rect fill="#FFFFFF" height="79.543" style="stroke:#181818;stroke-width:1.0;" width="10" x="1252" y="595.8594"/><rect fill="#FFFFFF" height="139.4941" style="stroke:#181818;stroke-width:1.0;" width="10" x="1389.5" y="706.6934"/><rect fill="#FFFFFF" height="33.6211" style="stroke:#181818;stroke-width:1.0;" width="10" x="1696.5" y="774.2754"/><rect fill="none" height="94.2031" style="stroke:#000000;stroke-width:1.5;" width="487.5" x="1316" y="721.6934"/><line style="stroke:#181818;stroke-width:0.5;stroke-dasharray:5.0,5.0;" x1="14" x2="14" y1="38.6211" y2="895.4785"/><line style="stroke:#181818;stroke-width:0.5;stroke-dasharray:5.0,5.0;" x1="281" x2="281" y1="38.6211" y2="895.4785"/><line style="stroke:#181818;stroke-width:0.5;stroke-dasharray:5.0,5.0;" x1="532" x2="532" y1="304.7305" y2="895.4785"/><line style="stroke:#181818;stroke-width:0.5;stroke-dasharray:5.0,5.0;" x1="682" x2="682" y1="379.6426" y2="895.4785"/><line style="stroke:#181818;stroke-width:0.5;stroke-dasharray:5.0,5.0;" x1="875" x2="875" y1="454.5547" y2="895.4785"/><line style="stroke:#181818;stroke-width:0.5;stroke-dasharray:5.0,5.0;" x1="1090" x2="1090" y1="529.4668" y2="895.4785"/><line style="stroke:#181818;stroke-width:0.5;stroke-dasharray:5.0,5.0;" x1="1257" x2="1257" y1="38.6211" y2="895.4785"/><line style="stroke:#181818;stroke-width:0.5;stroke-dasharray:5.0,5.0;" x1="1394" x2="1394" y1="38.6211" y2="895.4785"/><line style="stroke:#181818;stroke-width:0.5;stroke-dasharray:5.0,5.0;" x1="1701.5" x2="1701.5" y1="772.7949" y2="895.4785"/><rect fill="#E2E2F0" height="32.6211" rx="2.5" ry="2.5" style="stroke:#181818;stroke-width:0.5;" width="18" x="5" y="5"/><text fill="#000000" font-family="sans-serif" font-size="14" lengthAdjust="spacing" textLength="4" x="12" y="27.1074">&#160;</text><rect fill="#E2E2F0" height="32.6211" rx="2.5" ry="2.5" style="stroke:#181818;stroke-width:0.5;" width="18" x="5" y="894.4785"/><text fill="#000000" font-family="sans-serif" font-size="14" lengthAdjust="spacing" textLength="4" x="12" y="916.5859">&#160;</text><rect fill="#E2E2F0" height="32.6211" rx="2.5" ry="2.5" style="stroke:#181818;stroke-width:0.5;" width="226" x="168" y="5"/><text fill="#000000" font-family="sans-serif" font-size="14" lengthAdjust="spacing" textLength="212" x="175" y="27.1074">:AddActuatorToDevice_Controller</text><rect fill="#E2E2F0" height="32.6211" rx="2.5" ry="2.5" style="stroke:#181818;stroke-width:0.5;" width="226" x="168" y="894.4785"/><text fill="#000000" font-family="sans-serif" font-size="14" lengthAdjust="spacing" textLength="212" x="175" y="916.5859">:AddActuatorToDevice_Controller</text><rect fill="#E2E2F0" height="32.6211" rx="2.5" ry="2.5" style="stroke:#181818;stroke-width:0.5;" width="128" x="468" y="894.4785"/><text fill="#000000" font-family="sans-serif" font-size="14" lengthAdjust="spacing" textLength="114" x="475" y="916.5859">deviceID:DeviceID</text><rect fill="#E2E2F0" height="32.6211" rx="2.5" ry="2.5" style="stroke:#181818;stroke-width:0.5;" width="152" x="606" y="894.4785"/><text fill="#000000" font-family="sans-serif" font-size="14" lengthAdjust="spacing" textLength="138" x="613" y="916.5859">modelPath:ModelPath</text><rect fill="#E2E2F0" height="32.6211" rx="2.5" ry="2.5" style="stroke:#181818;stroke-width:0.5;" width="214" x="768" y="894.4785"/><text fill="#000000" font-family="sans-serif" font-size="14" lengthAdjust="spacing" textLength="200" x="775" y="916.5859">ActuatorTypeID:ActuatorTypeID</text><rect fill="#E2E2F0" height="32.6211" rx="2.5" ry="2.5" style="stroke:#181818;stroke-width:0.5;" width="196" x="992" y="894.4785"/><text fill="#000000" font-family="sans-serif" font-size="14" lengthAdjust="spacing" textLength="182" x="999" y="916.5859">ActuatorName:ActuatorName</text><rect fill="#E2E2F0" height="32.6211" rx="2.5" ry="2.5" style="stroke:#181818;stroke-width:0.5;" width="118" x="1198" y="5"/><text fill="#000000" font-family="sans-serif" font-size="14" lengthAdjust="spacing" textLength="104" x="1205" y="27.1074">:ActuatorService</text><rect fill="#E2E2F0" height="32.6211" rx="2.5" ry="2.5" style="stroke:#181818;stroke-width:0.5;" width="118" x="1198" y="894.4785"/><text fill="#000000" font-family="sans-serif" font-size="14" lengthAdjust="spacing" textLength="104" x="1205" y="916.5859">:ActuatorService</text><rect fill="#E2E2F0" height="32.6211" rx="2.5" ry="2.5" style="stroke:#181818;stroke-width:0.5;" width="137" x="1326" y="5"/><text fill="#000000" font-family="sans-serif" font-size="14" lengthAdjust="spacing" textLength="123" x="1333" y="27.1074">:ActuatorAssembler</text><rect fill="#E2E2F0" height="32.6211" rx="2.5" ry="2.5" style="stroke:#181818;stroke-width:0.5;" width="137" x="1326" y="894.4785"/><text fill="#000000" font-family="sans-serif" font-size="14" lengthAdjust="spacing" textLength="123" x="1333" y="916.5859">:ActuatorAssembler</text><rect fill="#E2E2F0" height="32.6211" rx="2.5" ry="2.5" style="stroke:#181818;stroke-width:0.5;" width="184" x="1609.5" y="894.4785"/><text fill="#000000" font-family="sans-serif" font-size="14" lengthAdjust="spacing" textLength="170" x="1616.5" y="916.5859">ActuatorDTO:ActuatorDTO</text><rect fill="#FFFFFF" height="612.5586" style="stroke:#181818;stroke-width:1.0;" width="10" x="276" y="264.9199"/><rect fill="#FFFFFF" height="33.6211" style="stroke:#181818;stroke-width:1.0;" width="10" x="527" y="306.2109"/><rect fill="#FFFFFF" height="33.6211" style="stroke:#181818;stroke-width:1.0;" width="10" x="677" y="381.123"/><rect fill="#FFFFFF" height="33.6211" style="stroke:#181818;stroke-width:1.0;" width="10" x="870" y="456.0352"/><rect fill="#FFFFFF" height="33.6211" style="stroke:#181818;stroke-width:1.0;" width="10" x="1085" y="530.9473"/><rect fill="#FFFFFF" height="79.543" style="stroke:#181818;stroke-width:1.0;" width="10" x="1252" y="595.8594"/><rect fill="#FFFFFF" height="139.4941" style="stroke:#181818;stroke-width:1.0;" width="10" x="1389.5" y="706.6934"/><rect fill="#FFFFFF" height="33.6211" style="stroke:#181818;stroke-width:1.0;" width="10" x="1696.5" y="774.2754"/><rect fill="none" height="43.252" style="stroke:#000000;stroke-width:1.5;" width="395" x="2" y="48.6211"/><path d="M2,48.6211 L64,48.6211 L64,57.6211 L54,67.6211 L2,67.6211 L2,48.6211 " fill="#EEEEEE" style="stroke:#000000;stroke-width:2.0;"/><text fill="#000000" font-family="sans-serif" font-size="13" font-weight="bold" lengthAdjust="spacing" textLength="17" x="15" y="64.6494">ref</text><text fill="#000000" font-family="sans-serif" font-size="12" lengthAdjust="spacing" textLength="61" x="169" y="84.5703">get Rooms</text><rect fill="none" height="43.252" style="stroke:#000000;stroke-width:1.5;" width="395" x="2" y="96.873"/><path d="M2,96.873 L64,96.873 L64,105.873 L54,115.873 L2,115.873 L2,96.873 " fill="#EEEEEE" style="stroke:#000000;stroke-width:2.0;"/><text fill="#000000" font-family="sans-serif" font-size="13" font-weight="bold" lengthAdjust="spacing" textLength="17" x="15" y="112.9014">ref</text><text fill="#000000" font-family="sans-serif" font-size="12" lengthAdjust="spacing" textLength="64" x="167.5" y="132.8223">get Devices</text><rect fill="none" height="43.252" style="stroke:#000000;stroke-width:1.5;" width="395" x="2" y="145.125"/><path d="M2,145.125 L64,145.125 L64,154.125 L54,164.125 L2,164.125 L2,145.125 " fill="#EEEEEE" style="stroke:#000000;stroke-width:2.0;"/><text fill="#000000" font-family="sans-serif" font-size="13" font-weight="bold" lengthAdjust="spacing" textLength="17" x="15" y="161.1533">ref</text><text fill="#000000" font-family="sans-serif" font-size="12" lengthAdjust="spacing" textLength="100" x="149.5" y="181.0742">get Actuator Types</text><rect fill="none" height="43.252" style="stroke:#000000;stroke-width:1.5;" width="395" x="2" y="193.377"/><path d="M2,193.377 L64,193.377 L64,202.377 L54,212.377 L2,212.377 L2,193.377 " fill="#EEEEEE" style="stroke:#000000;stroke-width:2.0;"/><text fill="#000000" font-family="sans-serif" font-size="13" font-weight="bold" lengthAdjust="spacing" textLength="17" x="15" y="209.4053">ref</text><text fill="#000000" font-family="sans-serif" font-size="12" lengthAdjust="spacing" textLength="107" x="146" y="229.3262">get Actuator Models</text><ellipse cx="13.5" cy="264.1699" fill="none" rx="4" ry="4" style="stroke:#181818;stroke-width:1.5;"/><polygon fill="#181818" points="264,260.9199,274,264.9199,264,268.9199,268,264.9199" style="stroke:#181818;stroke-width:1.0;"/><line style="stroke:#181818;stroke-width:1.0;" x1="18" x2="270" y1="264.9199" y2="264.9199"/><text fill="#000000" font-family="sans-serif" font-size="13" font-weight="bold" lengthAdjust="spacing" textLength="7" x="21" y="259.6572">1</text><text fill="#000000" font-family="sans-serif" font-size="13" lengthAdjust="spacing" textLength="232" x="32" y="259.6572">addActuatorToDevice(ActuatorDataDTO)</text><polygon fill="#181818" points="456,292.2109,466,296.2109,456,300.2109,460,296.2109" style="stroke:#181818;stroke-width:1.0;"/><line style="stroke:#181818;stroke-width:1.0;" x1="286" x2="462" y1="296.2109" y2="296.2109"/><text fill="#000000" font-family="sans-serif" font-size="13" font-weight="bold" lengthAdjust="spacing" textLength="7" x="293" y="290.9482">2</text><text fill="#000000" font-family="sans-serif" font-size="13" lengthAdjust="spacing" textLength="147" x="304" y="290.9482">createDeviceID(DataDTO)</text><rect fill="#E2E2F0" height="32.6211" rx="2.5" ry="2.5" style="stroke:#181818;stroke-width:0.5;" width="128" x="468" y="272.9199"/><text fill="#000000" font-family="sans-serif" font-size="14" lengthAdjust="spacing" textLength="114" x="475" y="295.0273">deviceID:DeviceID</text><polygon fill="#181818" points="297,335.832,287,339.832,297,343.832,293,339.832" style="stroke:#181818;stroke-width:1.0;"/><line style="stroke:#181818;stroke-width:1.0;stroke-dasharray:2.0,2.0;" x1="291" x2="531" y1="339.832" y2="339.832"/><text fill="#000000" font-family="sans-serif" font-size="13" font-weight="bold" lengthAdjust="spacing" textLength="7" x="303" y="334.5693">3</text><text fill="#000000" font-family="sans-serif" font-size="13" lengthAdjust="spacing" textLength="48" x="314" y="334.5693">deviceID</text><polygon fill="#181818" points="594,367.123,604,371.123,594,375.123,598,371.123" style="stroke:#181818;stroke-width:1.0;"/><line style="stroke:#181818;stroke-width:1.0;" x1="286" x2="600" y1="371.123" y2="371.123"/><text fill="#000000" font-family="sans-serif" font-size="13" font-weight="bold" lengthAdjust="spacing" textLength="7" x="293" y="365.8604">4</text><text fill="#000000" font-family="sans-serif" font-size="13" lengthAdjust="spacing" textLength="159" x="304" y="365.8604">createModelPath(DataDTO)</text><rect fill="#E2E2F0" height="32.6211" rx="2.5" ry="2.5" style="stroke:#181818;stroke-width:0.5;" width="152" x="606" y="347.832"/><text fill="#000000" font-family="sans-serif" font-size="14" lengthAdjust="spacing" textLength="138" x="613" y="369.9395">modelPath:ModelPath</text><polygon fill="#181818" points="297,410.7441,287,414.7441,297,418.7441,293,414.7441" style="stroke:#181818;stroke-width:1.0;"/><line style="stroke:#181818;stroke-width:1.0;stroke-dasharray:2.0,2.0;" x1="291" x2="681" y1="414.7441" y2="414.7441"/><text fill="#000000" font-family="sans-serif" font-size="13" font-weight="bold" lengthAdjust="spacing" textLength="7" x="303" y="409.4814">5</text><text fill="#000000" font-family="sans-serif" font-size="13" lengthAdjust="spacing" textLength="62" x="314" y="409.4814">modelPath</text><polygon fill="#181818" points="756,442.0352,766,446.0352,756,450.0352,760,446.0352" style="stroke:#181818;stroke-width:1.0;"/><line style="stroke:#181818;stroke-width:1.0;" x1="286" x2="762" y1="446.0352" y2="446.0352"/><text fill="#000000" font-family="sans-serif" font-size="13" font-weight="bold" lengthAdjust="spacing" textLength="7" x="293" y="440.7725">6</text><text fill="#000000" font-family="sans-serif" font-size="13" lengthAdjust="spacing" textLength="186" x="304" y="440.7725">createActuatorTypeID(DataDTO)</text><rect fill="#E2E2F0" height="32.6211" rx="2.5" ry="2.5" style="stroke:#181818;stroke-width:0.5;" width="214" x="768" y="422.7441"/><text fill="#000000" font-family="sans-serif" font-size="14" lengthAdjust="spacing" textLength="200" x="775" y="444.8516">ActuatorTypeID:ActuatorTypeID</text><polygon fill="#181818" points="297,485.6563,287,489.6563,297,493.6563,293,489.6563" style="stroke:#181818;stroke-width:1.0;"/><line style="stroke:#181818;stroke-width:1.0;stroke-dasharray:2.0,2.0;" x1="291" x2="874" y1="489.6563" y2="489.6563"/><text fill="#000000" font-family="sans-serif" font-size="13" font-weight="bold" lengthAdjust="spacing" textLength="7" x="303" y="484.3936">7</text><text fill="#000000" font-family="sans-serif" font-size="13" lengthAdjust="spacing" textLength="89" x="314" y="484.3936">ActuatorTypeID</text><polygon fill="#181818" points="980,516.9473,990,520.9473,980,524.9473,984,520.9473" style="stroke:#181818;stroke-width:1.0;"/><line style="stroke:#181818;stroke-width:1.0;" x1="286" x2="986" y1="520.9473" y2="520.9473"/><text fill="#000000" font-family="sans-serif" font-size="13" font-weight="bold" lengthAdjust="spacing" textLength="7" x="293" y="515.6846">8</text><text fill="#000000" font-family="sans-serif" font-size="13" lengthAdjust="spacing" textLength="180" x="304" y="515.6846">createActuatorName(DataDTO)</text><rect fill="#E2E2F0" height="32.6211" rx="2.5" ry="2.5" style="stroke:#181818;stroke-width:0.5;" width="196" x="992" y="497.6563"/><text fill="#000000" font-family="sans-serif" font-size="14" lengthAdjust="spacing" textLength="182" x="999" y="519.7637">ActuatorName:ActuatorName</text><polygon fill="#181818" points="297,560.5684,287,564.5684,297,568.5684,293,564.5684" style="stroke:#181818;stroke-width:1.0;"/><line style="stroke:#181818;stroke-width:1.0;stroke-dasharray:2.0,2.0;" x1="291" x2="1089" y1="564.5684" y2="564.5684"/><text fill="#000000" font-family="sans-serif" font-size="13" font-weight="bold" lengthAdjust="spacing" textLength="7" x="303" y="559.3057">9</text><text fill="#000000" font-family="sans-serif" font-size="13" lengthAdjust="spacing" textLength="83" x="314" y="559.3057">ActuatorName</text><polygon fill="#181818" points="1240,591.8594,1250,595.8594,1240,599.8594,1244,595.8594" style="stroke:#181818;stroke-width:1.0;"/><line style="stroke:#181818;stroke-width:1.0;" x1="286" x2="1246" y1="595.8594" y2="595.8594"/><text fill="#000000" font-family="sans-serif" font-size="13" font-weight="bold" lengthAdjust="spacing" textLength="14" x="293" y="590.5967">10</text><text fill="#000000" font-family="sans-serif" font-size="13" lengthAdjust="spacing" textLength="470" x="311" y="590.5967">addActuatorToDevice(ActuatorModelID, deviceID, ActuatorTypeID, ActuatorName)</text><rect fill="none" height="43.252" style="stroke:#000000;stroke-width:1.5;" width="129" x="1195" y="603.8594"/><path d="M1195,603.8594 L1257,603.8594 L1257,612.8594 L1247,622.8594 L1195,622.8594 L1195,603.8594 " fill="#EEEEEE" style="stroke:#000000;stroke-width:2.0;"/><text fill="#000000" font-family="sans-serif" font-size="13" font-weight="bold" lengthAdjust="spacing" textLength="17" x="1208" y="619.8877">ref</text><text fill="#000000" font-family="sans-serif" font-size="12" lengthAdjust="spacing" textLength="121" x="1199" y="639.8086">add Actuator to Device</text><polygon fill="#181818" points="297,671.4023,287,675.4023,297,679.4023,293,675.4023" style="stroke:#181818;stroke-width:1.0;"/><line style="stroke:#181818;stroke-width:1.0;stroke-dasharray:2.0,2.0;" x1="291" x2="1256" y1="675.4023" y2="675.4023"/><text fill="#000000" font-family="sans-serif" font-size="13" font-weight="bold" lengthAdjust="spacing" textLength="14" x="303" y="670.1396">11</text><text fill="#000000" font-family="sans-serif" font-size="13" lengthAdjust="spacing" textLength="49" x="321" y="670.1396">Actuator</text><polygon fill="#181818" points="1377.5,702.6934,1387.5,706.6934,1377.5,710.6934,1381.5,706.6934" style="stroke:#181818;stroke-width:1.0;"/><line style="stroke:#181818;stroke-width:1.0;" x1="286" x2="1383.5" y1="706.6934" y2="706.6934"/><text fill="#000000" font-family="sans-serif" font-size="13" font-weight="bold" lengthAdjust="spacing" textLength="14" x="293" y="701.4307">12</text><text fill="#000000" font-family="sans-serif" font-size="13" lengthAdjust="spacing" textLength="139" x="311" y="701.4307">domainToDTO(Actuator)</text><path d="M1316,721.6934 L1389,721.6934 L1389,730.9844 L1379,740.9844 L1316,740.9844 L1316,721.6934 " fill="#EEEEEE" style="stroke:#000000;stroke-width:1.5;"/><rect fill="none" height="94.2031" style="stroke:#000000;stroke-width:1.5;" width="487.5" x="1316" y="721.6934"/><text fill="#000000" font-family="sans-serif" font-size="13" font-weight="bold" lengthAdjust="spacing" textLength="28" x="1331" y="736.7217">loop</text><text fill="#000000" font-family="sans-serif" font-size="11" font-weight="bold" lengthAdjust="spacing" textLength="103" x="1404" y="735.5635">[for each Actuator]</text><polygon fill="#181818" points="1597.5,760.2754,1607.5,764.2754,1597.5,768.2754,1601.5,764.2754" style="stroke:#181818;stroke-width:1.0;"/><line style="stroke:#181818;stroke-width:1.0;" x1="1399.5" x2="1603.5" y1="764.2754" y2="764.2754"/><text fill="#000000" font-family="sans-serif" font-size="13" font-weight="bold" lengthAdjust="spacing" textLength="14" x="1406.5" y="759.0127">13</text><text fill="#000000" font-family="sans-serif" font-size="13" lengthAdjust="spacing" textLength="168" x="1424.5" y="759.0127">createActuatorDTO(Actuator)</text><rect fill="#E2E2F0" height="32.6211" rx="2.5" ry="2.5" style="stroke:#181818;stroke-width:0.5;" width="184" x="1609.5" y="740.9844"/><text fill="#000000" font-family="sans-serif" font-size="14" lengthAdjust="spacing" textLength="170" x="1616.5" y="763.0918">ActuatorDTO:ActuatorDTO</text><polygon fill="#181818" points="1410.5,803.8965,1400.5,807.8965,1410.5,811.8965,1406.5,807.8965" style="stroke:#181818;stroke-width:1.0;"/><line style="stroke:#181818;stroke-width:1.0;stroke-dasharray:2.0,2.0;" x1="1404.5" x2="1700.5" y1="807.8965" y2="807.8965"/><text fill="#000000" font-family="sans-serif" font-size="13" font-weight="bold" lengthAdjust="spacing" textLength="14" x="1416.5" y="802.6338">14</text><text fill="#000000" font-family="sans-serif" font-size="13" lengthAdjust="spacing" textLength="75" x="1434.5" y="802.6338">ActuatorDTO</text><polygon fill="#181818" points="297,842.1875,287,846.1875,297,850.1875,293,846.1875" style="stroke:#181818;stroke-width:1.0;"/><line style="stroke:#181818;stroke-width:1.0;stroke-dasharray:2.0,2.0;" x1="291" x2="1393.5" y1="846.1875" y2="846.1875"/><text fill="#000000" font-family="sans-serif" font-size="13" font-weight="bold" lengthAdjust="spacing" textLength="14" x="303" y="840.9248">15</text><text fill="#000000" font-family="sans-serif" font-size="13" lengthAdjust="spacing" textLength="75" x="321" y="840.9248">ActuatorDTO</text><polygon fill="#181818" points="25,873.4785,15,877.4785,25,881.4785,21,877.4785" style="stroke:#181818;stroke-width:1.0;"/><line style="stroke:#181818;stroke-width:1.0;stroke-dasharray:2.0,2.0;" x1="19" x2="280" y1="877.4785" y2="877.4785"/><text fill="#000000" font-family="sans-serif" font-size="13" font-weight="bold" lengthAdjust="spacing" textLength="14" x="31" y="872.2158">16</text><text fill="#000000" font-family="sans-serif" font-size="13" lengthAdjust="spacing" textLength="75" x="49" y="872.2158">ActuatorDTO</text><!--SRC=[hLN9RiCW4Btp5RINjfBp0pvKYkfB3btKfkTgQfF4acqiJ2Brxmi4C63g9QbzOOPPtfk1uQPbiAy1L_13ZnntDU7G088Zfysn_YOCeHOOB_EoXORZM_53XpyxiU7fqtLHh7D-14xPbcRaLERawuasdD6g8anvZPluyGgrlSdIJ2zK12FujZKjIFK6_90-cvMojdhVt6BuQMK2Npm3zLHnxnUeIUeAdgTKX0NIMn-4IHAUkTRzuR7kEb9_sog6sZY-RFkQEclFLSW8tQqk-EuG8pjCJuIfCv1CzNHFE7wdjEuGQGeiVD450SxQgqAOVInR-Z-Hr5bpGbrOJoGpOxfwd4YUOXZktzkE0WVHrGS4EIzFmCaKbPmHQMKl51gtnmAViKtnsTd8zyFaVLYpmgiP3CsbHmKPXjA8-qiz0t8_6JHcEo0Ye9t8TZaBTk_euEwL6dWmL6QW3mQLfk1h8pm6YJnv5gCWX4Chs0cugR6tW9aQeW4lgHjXfLCuqY96oZt2PoboFR77RwKwRPiiiGSx2UgNUFaZRCt3SEsm3k8bWmI2HZ_QEDNNpawt2_C7MHPrAjObWtP1e-mpASOBhQ5iXFtsrROeKlF-OKKLfItUYOe8A8SUMN3gvNCwS7OnoBSuEEKJ6DoGOdqkt92HQnufbrIB3g8OkibEuCdmJg6c-Y6ooNVkxv3ZhzKl]--></g></svg>