<?xml version="1.0" encoding="us-ascii" standalone="no"?><svg xmlns="http://www.w3.org/2000/svg" xmlns:xlink="http://www.w3.org/1999/xlink" contentStyleType="text/css" height="613px" preserveAspectRatio="none" style="width:1577px;height:613px;background:#FFFFFF;" version="1.1" viewBox="0 0 1577 613" width="1577px" zoomAndPan="magnify"><defs/><g><text fill="#000000" font-family="sans-serif" font-size="14" font-weight="bold" lengthAdjust="spacing" textLength="142" x="719.25" y="30.1074">get Actuator Models</text><rect fill="#FFFFFF" height="446.4434" style="stroke:#181818;stroke-width:1.0;" width="10" x="264" y="111.5332"/><rect fill="#FFFFFF" height="33.6211" style="stroke:#181818;stroke-width:1.0;" width="10" x="596.5" y="152.8242"/><rect fill="#FFFFFF" height="93.873" style="stroke:#181818;stroke-width:1.0;" width="10" x="789" y="217.7363"/><rect fill="#FFFFFF" height="31.291" style="stroke:#181818;stroke-width:1.0;" width="10" x="961.5" y="249.0273"/><rect fill="#FFFFFF" height="183.7852" style="stroke:#181818;stroke-width:1.0;" width="10" x="1143.5" y="342.9004"/><rect fill="#FFFFFF" height="33.6211" style="stroke:#181818;stroke-width:1.0;" width="10" x="1489" y="410.4824"/><rect fill="none" height="138.4941" style="stroke:#000000;stroke-width:1.5;" width="518.5" x="1053" y="357.9004"/><line style="stroke:#181818;stroke-width:0.5;stroke-dasharray:5.0,5.0;" x1="14" x2="14" y1="78.2422" y2="575.9766"/><line style="stroke:#181818;stroke-width:0.5;stroke-dasharray:5.0,5.0;" x1="269" x2="269" y1="78.2422" y2="575.9766"/><line style="stroke:#181818;stroke-width:0.5;stroke-dasharray:5.0,5.0;" x1="601" x2="601" y1="151.3438" y2="575.9766"/><line style="stroke:#181818;stroke-width:0.5;stroke-dasharray:5.0,5.0;" x1="794" x2="794" y1="78.2422" y2="575.9766"/><line style="stroke:#181818;stroke-width:0.5;stroke-dasharray:5.0,5.0;" x1="966" x2="966" y1="78.2422" y2="575.9766"/><line style="stroke:#181818;stroke-width:0.5;stroke-dasharray:5.0,5.0;" x1="1148" x2="1148" y1="78.2422" y2="575.9766"/><line style="stroke:#181818;stroke-width:0.5;stroke-dasharray:5.0,5.0;" x1="1493.5" x2="1493.5" y1="409.002" y2="575.9766"/><rect fill="#E2E2F0" height="32.6211" rx="2.5" ry="2.5" style="stroke:#181818;stroke-width:0.5;" width="18" x="5" y="44.6211"/><text fill="#000000" font-family="sans-serif" font-size="14" lengthAdjust="spacing" textLength="4" x="12" y="66.7285">&#160;</text><rect fill="#E2E2F0" height="32.6211" rx="2.5" ry="2.5" style="stroke:#181818;stroke-width:0.5;" width="18" x="5" y="574.9766"/><text fill="#000000" font-family="sans-serif" font-size="14" lengthAdjust="spacing" textLength="4" x="12" y="597.084">&#160;</text><rect fill="#E2E2F0" height="32.6211" rx="2.5" ry="2.5" style="stroke:#181818;stroke-width:0.5;" width="226" x="156" y="44.6211"/><text fill="#000000" font-family="sans-serif" font-size="14" lengthAdjust="spacing" textLength="212" x="163" y="66.7285">:AddActuatorToDevice_Controller</text><rect fill="#E2E2F0" height="32.6211" rx="2.5" ry="2.5" style="stroke:#181818;stroke-width:0.5;" width="226" x="156" y="574.9766"/><text fill="#000000" font-family="sans-serif" font-size="14" lengthAdjust="spacing" textLength="212" x="163" y="597.084">:AddActuatorToDevice_Controller</text><rect fill="#E2E2F0" height="32.6211" rx="2.5" ry="2.5" style="stroke:#181818;stroke-width:0.5;" width="213" x="495" y="574.9766"/><text fill="#000000" font-family="sans-serif" font-size="14" lengthAdjust="spacing" textLength="199" x="502" y="597.084">actuatorTypeID:ActuatorTypeID</text><rect fill="#E2E2F0" height="32.6211" rx="2.5" ry="2.5" style="stroke:#181818;stroke-width:0.5;" width="152" x="718" y="44.6211"/><text fill="#000000" font-family="sans-serif" font-size="14" lengthAdjust="spacing" textLength="138" x="725" y="66.7285">ActuatorModelService</text><rect fill="#E2E2F0" height="32.6211" rx="2.5" ry="2.5" style="stroke:#181818;stroke-width:0.5;" width="152" x="718" y="574.9766"/><text fill="#000000" font-family="sans-serif" font-size="14" lengthAdjust="spacing" textLength="138" x="725" y="597.084">ActuatorModelService</text><rect fill="#E2E2F0" height="32.6211" rx="2.5" ry="2.5" style="stroke:#181818;stroke-width:0.5;" width="173" x="880" y="44.6211"/><text fill="#000000" font-family="sans-serif" font-size="14" lengthAdjust="spacing" textLength="159" x="887" y="66.7285">ActuatorModelRepository</text><rect fill="#E2E2F0" height="32.6211" rx="2.5" ry="2.5" style="stroke:#181818;stroke-width:0.5;" width="173" x="880" y="574.9766"/><text fill="#000000" font-family="sans-serif" font-size="14" lengthAdjust="spacing" textLength="159" x="887" y="597.084">ActuatorModelRepository</text><rect fill="#E2E2F0" height="32.6211" rx="2.5" ry="2.5" style="stroke:#181818;stroke-width:0.5;" width="171" x="1063" y="44.6211"/><text fill="#000000" font-family="sans-serif" font-size="14" lengthAdjust="spacing" textLength="157" x="1070" y="66.7285">ActuatorModelAssembler</text><rect fill="#E2E2F0" height="32.6211" rx="2.5" ry="2.5" style="stroke:#181818;stroke-width:0.5;" width="171" x="1063" y="574.9766"/><text fill="#000000" font-family="sans-serif" font-size="14" lengthAdjust="spacing" textLength="157" x="1070" y="597.084">ActuatorModelAssembler</text><rect fill="#E2E2F0" height="32.6211" rx="2.5" ry="2.5" style="stroke:#181818;stroke-width:0.5;" width="135" x="1426.5" y="574.9766"/><text fill="#000000" font-family="sans-serif" font-size="14" lengthAdjust="spacing" textLength="121" x="1433.5" y="597.084">ActuatorModelDTO</text><rect fill="#FFFFFF" height="446.4434" style="stroke:#181818;stroke-width:1.0;" width="10" x="264" y="111.5332"/><rect fill="#FFFFFF" height="33.6211" style="stroke:#181818;stroke-width:1.0;" width="10" x="596.5" y="152.8242"/><rect fill="#FFFFFF" height="93.873" style="stroke:#181818;stroke-width:1.0;" width="10" x="789" y="217.7363"/><rect fill="#FFFFFF" height="31.291" style="stroke:#181818;stroke-width:1.0;" width="10" x="961.5" y="249.0273"/><rect fill="#FFFFFF" height="183.7852" style="stroke:#181818;stroke-width:1.0;" width="10" x="1143.5" y="342.9004"/><rect fill="#FFFFFF" height="33.6211" style="stroke:#181818;stroke-width:1.0;" width="10" x="1489" y="410.4824"/><ellipse cx="13.5" cy="110.7832" fill="none" rx="4" ry="4" style="stroke:#181818;stroke-width:1.5;"/><polygon fill="#181818" points="252,107.5332,262,111.5332,252,115.5332,256,111.5332" style="stroke:#181818;stroke-width:1.0;"/><line style="stroke:#181818;stroke-width:1.0;" x1="18" x2="258" y1="111.5332" y2="111.5332"/><text fill="#000000" font-family="sans-serif" font-size="13" font-weight="bold" lengthAdjust="spacing" textLength="7" x="21" y="106.2705">1</text><text fill="#000000" font-family="sans-serif" font-size="13" lengthAdjust="spacing" textLength="220" x="32" y="106.2705">getActuatorModels(ActuatorTypeDTO)</text><polygon fill="#181818" points="483,138.8242,493,142.8242,483,146.8242,487,142.8242" style="stroke:#181818;stroke-width:1.0;"/><line style="stroke:#181818;stroke-width:1.0;" x1="274" x2="489" y1="142.8242" y2="142.8242"/><text fill="#000000" font-family="sans-serif" font-size="13" font-weight="bold" lengthAdjust="spacing" textLength="7" x="281" y="137.5615">2</text><text fill="#000000" font-family="sans-serif" font-size="13" lengthAdjust="spacing" textLength="186" x="292" y="137.5615">createActuatorTypeID(DataDTO)</text><rect fill="#E2E2F0" height="32.6211" rx="2.5" ry="2.5" style="stroke:#181818;stroke-width:0.5;" width="213" x="495" y="119.5332"/><text fill="#000000" font-family="sans-serif" font-size="14" lengthAdjust="spacing" textLength="199" x="502" y="141.6406">actuatorTypeID:ActuatorTypeID</text><polygon fill="#181818" points="285,182.4453,275,186.4453,285,190.4453,281,186.4453" style="stroke:#181818;stroke-width:1.0;"/><line style="stroke:#181818;stroke-width:1.0;stroke-dasharray:2.0,2.0;" x1="279" x2="600.5" y1="186.4453" y2="186.4453"/><text fill="#000000" font-family="sans-serif" font-size="13" font-weight="bold" lengthAdjust="spacing" textLength="7" x="291" y="181.1826">3</text><text fill="#000000" font-family="sans-serif" font-size="13" lengthAdjust="spacing" textLength="89" x="302" y="181.1826">ActuatorTypeID</text><polygon fill="#181818" points="777,213.7363,787,217.7363,777,221.7363,781,217.7363" style="stroke:#181818;stroke-width:1.0;"/><line style="stroke:#181818;stroke-width:1.0;" x1="274" x2="783" y1="217.7363" y2="217.7363"/><text fill="#000000" font-family="sans-serif" font-size="13" font-weight="bold" lengthAdjust="spacing" textLength="7" x="281" y="212.4736">4</text><text fill="#000000" font-family="sans-serif" font-size="13" lengthAdjust="spacing" textLength="309" x="292" y="212.4736">getActuatorModelsByActuatorTypeId(ActuatorTypeID)</text><polygon fill="#181818" points="949.5,245.0273,959.5,249.0273,949.5,253.0273,953.5,249.0273" style="stroke:#181818;stroke-width:1.0;"/><line style="stroke:#181818;stroke-width:1.0;" x1="799" x2="955.5" y1="249.0273" y2="249.0273"/><text fill="#000000" font-family="sans-serif" font-size="13" font-weight="bold" lengthAdjust="spacing" textLength="7" x="806" y="243.7646">5</text><text fill="#000000" font-family="sans-serif" font-size="13" lengthAdjust="spacing" textLength="131" x="817" y="243.7646">findByActuatorTypeId()</text><polygon fill="#181818" points="810,276.3184,800,280.3184,810,284.3184,806,280.3184" style="stroke:#181818;stroke-width:1.0;"/><line style="stroke:#181818;stroke-width:1.0;stroke-dasharray:2.0,2.0;" x1="804" x2="965.5" y1="280.3184" y2="280.3184"/><text fill="#000000" font-family="sans-serif" font-size="13" font-weight="bold" lengthAdjust="spacing" textLength="7" x="816" y="275.0557">6</text><text fill="#000000" font-family="sans-serif" font-size="13" lengthAdjust="spacing" textLength="108" x="827" y="275.0557">listActuatorModels</text><polygon fill="#181818" points="285,307.6094,275,311.6094,285,315.6094,281,311.6094" style="stroke:#181818;stroke-width:1.0;"/><line style="stroke:#181818;stroke-width:1.0;stroke-dasharray:2.0,2.0;" x1="279" x2="793" y1="311.6094" y2="311.6094"/><text fill="#000000" font-family="sans-serif" font-size="13" font-weight="bold" lengthAdjust="spacing" textLength="7" x="291" y="306.3467">7</text><text fill="#000000" font-family="sans-serif" font-size="13" lengthAdjust="spacing" textLength="108" x="302" y="306.3467">listActuatorModels</text><polygon fill="#181818" points="1131.5,338.9004,1141.5,342.9004,1131.5,346.9004,1135.5,342.9004" style="stroke:#181818;stroke-width:1.0;"/><line style="stroke:#181818;stroke-width:1.0;" x1="274" x2="1137.5" y1="342.9004" y2="342.9004"/><text fill="#000000" font-family="sans-serif" font-size="13" font-weight="bold" lengthAdjust="spacing" textLength="7" x="281" y="337.6377">8</text><text fill="#000000" font-family="sans-serif" font-size="13" lengthAdjust="spacing" textLength="211" x="292" y="337.6377">domainToDTO(listOfActuatorModels)</text><path d="M1053,357.9004 L1126,357.9004 L1126,367.1914 L1116,377.1914 L1053,377.1914 L1053,357.9004 " fill="#EEEEEE" style="stroke:#000000;stroke-width:1.5;"/><rect fill="none" height="138.4941" style="stroke:#000000;stroke-width:1.5;" width="518.5" x="1053" y="357.9004"/><text fill="#000000" font-family="sans-serif" font-size="13" font-weight="bold" lengthAdjust="spacing" textLength="28" x="1068" y="372.9287">loop</text><text fill="#000000" font-family="sans-serif" font-size="11" font-weight="bold" lengthAdjust="spacing" textLength="279" x="1141" y="371.7705">[for each ActuatorModel in copyOfActuatorModels]</text><polygon fill="#181818" points="1414.5,396.4824,1424.5,400.4824,1414.5,404.4824,1418.5,400.4824" style="stroke:#181818;stroke-width:1.0;"/><line style="stroke:#181818;stroke-width:1.0;" x1="1153.5" x2="1420.5" y1="400.4824" y2="400.4824"/><text fill="#000000" font-family="sans-serif" font-size="13" font-weight="bold" lengthAdjust="spacing" textLength="7" x="1160.5" y="395.2197">9</text><text fill="#000000" font-family="sans-serif" font-size="13" lengthAdjust="spacing" textLength="238" x="1171.5" y="395.2197">createActuatorModelDTO(ActuatorModel)</text><rect fill="#E2E2F0" height="32.6211" rx="2.5" ry="2.5" style="stroke:#181818;stroke-width:0.5;" width="135" x="1426.5" y="377.1914"/><text fill="#000000" font-family="sans-serif" font-size="14" lengthAdjust="spacing" textLength="121" x="1433.5" y="399.2988">ActuatorModelDTO</text><polygon fill="#181818" points="1164.5,440.1035,1154.5,444.1035,1164.5,448.1035,1160.5,444.1035" style="stroke:#181818;stroke-width:1.0;"/><line style="stroke:#181818;stroke-width:1.0;stroke-dasharray:2.0,2.0;" x1="1158.5" x2="1493" y1="444.1035" y2="444.1035"/><text fill="#000000" font-family="sans-serif" font-size="13" font-weight="bold" lengthAdjust="spacing" textLength="14" x="1170.5" y="438.8408">10</text><text fill="#000000" font-family="sans-serif" font-size="13" lengthAdjust="spacing" textLength="110" x="1188.5" y="438.8408">ActuatorModelDTO</text><line style="stroke:#181818;stroke-width:1.0;" x1="1153.5" x2="1195.5" y1="475.3945" y2="475.3945"/><line style="stroke:#181818;stroke-width:1.0;" x1="1195.5" x2="1195.5" y1="475.3945" y2="488.3945"/><line style="stroke:#181818;stroke-width:1.0;" x1="1154.5" x2="1195.5" y1="488.3945" y2="488.3945"/><polygon fill="#181818" points="1164.5,484.3945,1154.5,488.3945,1164.5,492.3945,1160.5,488.3945" style="stroke:#181818;stroke-width:1.0;"/><text fill="#000000" font-family="sans-serif" font-size="13" font-weight="bold" lengthAdjust="spacing" textLength="14" x="1160.5" y="470.1318">11</text><text fill="#000000" font-family="sans-serif" font-size="13" lengthAdjust="spacing" textLength="174" x="1178.5" y="470.1318">addToList(ActuatorModelDTO)</text><polygon fill="#181818" points="285,522.6855,275,526.6855,285,530.6855,281,526.6855" style="stroke:#181818;stroke-width:1.0;"/><line style="stroke:#181818;stroke-width:1.0;stroke-dasharray:2.0,2.0;" x1="279" x2="1147.5" y1="526.6855" y2="526.6855"/><text fill="#000000" font-family="sans-serif" font-size="13" font-weight="bold" lengthAdjust="spacing" textLength="14" x="291" y="521.4229">12</text><text fill="#000000" font-family="sans-serif" font-size="13" lengthAdjust="spacing" textLength="127" x="309" y="521.4229">listActuatorTypesDTO</text><polygon fill="#181818" points="25,553.9766,15,557.9766,25,561.9766,21,557.9766" style="stroke:#181818;stroke-width:1.0;"/><line style="stroke:#181818;stroke-width:1.0;" x1="19" x2="268" y1="557.9766" y2="557.9766"/><text fill="#000000" font-family="sans-serif" font-size="13" font-weight="bold" lengthAdjust="spacing" textLength="14" x="31" y="552.7139">13</text><text fill="#000000" font-family="sans-serif" font-size="13" lengthAdjust="spacing" textLength="127" x="49" y="552.7139">listActuatorTypesDTO</text><!--SRC=[bLJ9ReCm4BtxAzoUo24_mA4IBPTAhIArz5nDy2IrP6nacqZyVGs8WCqI42SFCs_pOhaLIAzeQPBR2gpIz5Cn58P0PPMiYZDgybHgk1P01TIgijGKQ4428ILeotDUWhJqsNrWw8zn_LuzJXZhiJELuetd-FkcfDLA2DJjr7gBZmTzOrtYUnedth93yqg4D9geEhuye8cR6Fh_NGZH62hDJWVYsFaDB3wId6jikm8fwrEqqUZRensGNurIi1382OcyDJrkS1z0C5m6t-oYZV4RTTCoa-zhxK6po6UQyJS675oEgnFwBooLuMvLn_J29PkGBj4CWm7JyACBTjQiu2PmEnVfEj7TqeRjsy4tvBTl8nDZi3YtR4mLmAKRoavHmtow-DnBcTuX215AbVJY7Xodyi_lebpIN9LrY1fUgxRg991vZea1rnhUgBuUUOKb-HCkLvYUWL5Ea-cbFTdXOWGFZ6Ngm-KVXM07WfAHHSYT1wgvAMPD_cXV7n-gva7UWB_-mlu3]--></g></svg>