<?xml version="1.0" encoding="us-ascii" standalone="no"?><svg xmlns="http://www.w3.org/2000/svg" xmlns:xlink="http://www.w3.org/1999/xlink" contentStyleType="text/css" height="1714px" preserveAspectRatio="none" style="width:2401px;height:1714px;background:#FFFFFF;" version="1.1" viewBox="0 0 2401 1714" width="2401px" zoomAndPan="magnify"><defs/><g><!--class AddActuatorToDeviceController--><g id="elem_AddActuatorToDeviceController"><rect codeLine="3" fill="#F1F1F1" height="215.5898" id="AddActuatorToDeviceController" rx="2.5" ry="2.5" style="stroke:#181818;stroke-width:0.5;" width="561" x="1168.5" y="7"/><ellipse cx="1344.75" cy="23" fill="#ADD1B2" rx="11" ry="11" style="stroke:#181818;stroke-width:1.0;"/><path d="M1347.5156,18.875 Q1347.6719,18.6563 1347.8594,18.5469 Q1348.0469,18.4375 1348.2656,18.4375 Q1348.6406,18.4375 1348.875,18.7031 Q1349.1094,18.9531 1349.1094,19.5625 L1349.1094,21.0156 Q1349.1094,21.625 1348.875,21.8906 Q1348.6406,22.1563 1348.2656,22.1563 Q1347.9219,22.1563 1347.7188,21.9531 Q1347.5156,21.7656 1347.4063,21.25 Q1347.3594,20.8906 1347.1719,20.7031 Q1346.8438,20.3281 1346.2344,20.1094 Q1345.625,19.8906 1345,19.8906 Q1344.2344,19.8906 1343.5938,20.2188 Q1342.9688,20.5469 1342.4688,21.2969 Q1341.9844,22.0469 1341.9844,23.0781 L1341.9844,24.1719 Q1341.9844,25.4063 1342.875,26.2344 Q1343.7656,27.0469 1345.3594,27.0469 Q1346.2969,27.0469 1346.9531,26.7969 Q1347.3438,26.6406 1347.7656,26.2031 Q1348.0313,25.9375 1348.1719,25.8594 Q1348.3281,25.7813 1348.5313,25.7813 Q1348.8594,25.7813 1349.1094,26.0469 Q1349.375,26.2969 1349.375,26.6406 Q1349.375,26.9844 1349.0313,27.3906 Q1348.5313,27.9688 1347.7344,28.2969 Q1346.6563,28.75 1345.3594,28.75 Q1343.8438,28.75 1342.6406,28.125 Q1341.6563,27.625 1340.9688,26.5625 Q1340.2813,25.4844 1340.2813,24.2031 L1340.2813,23.0469 Q1340.2813,21.7188 1340.8906,20.5781 Q1341.5156,19.4219 1342.6094,18.8125 Q1343.7031,18.1875 1344.9375,18.1875 Q1345.6719,18.1875 1346.3125,18.3594 Q1346.9688,18.5156 1347.5156,18.875 Z " fill="#000000"/><text fill="#000000" font-family="sans-serif" font-size="14" lengthAdjust="spacing" textLength="200" x="1365.25" y="28.7969">AddActuatorToDeviceController</text><line style="stroke:#181818;stroke-width:0.5;" x1="1169.5" x2="1728.5" y1="39" y2="39"/><rect fill="none" height="6" style="stroke:#C82930;stroke-width:1.0;" width="6" x="1176.5" y="50.8105"/><text fill="#000000" font-family="sans-serif" font-size="14" lengthAdjust="spacing" textLength="87" x="1188.5" y="58.1074">house: House</text><rect fill="none" height="6" style="stroke:#C82930;stroke-width:1.0;" width="6" x="1176.5" y="69.4316"/><text fill="#000000" font-family="sans-serif" font-size="14" lengthAdjust="spacing" textLength="188" x="1188.5" y="76.7285">catalogue: CatalogueActuator</text><rect fill="none" height="6" style="stroke:#C82930;stroke-width:1.0;" width="6" x="1176.5" y="88.0527"/><text fill="#000000" font-family="sans-serif" font-size="14" lengthAdjust="spacing" textLength="301" x="1188.5" y="95.3496">roomsDTOAndRooms: Map&lt;RoomDTO, Room&gt;</text><rect fill="none" height="6" style="stroke:#C82930;stroke-width:1.0;" width="6" x="1176.5" y="106.6738"/><text fill="#000000" font-family="sans-serif" font-size="14" lengthAdjust="spacing" textLength="328" x="1188.5" y="113.9707">devicesDTOAndDevices: Map&lt;DeviceDTO, Device&gt;</text><line style="stroke:#181818;stroke-width:0.5;" x1="1169.5" x2="1728.5" y1="121.4844" y2="121.4844"/><ellipse cx="1179.5" cy="136.2949" fill="#84BE84" rx="3" ry="3" style="stroke:#038048;stroke-width:1.0;"/><text fill="#000000" font-family="sans-serif" font-size="14" lengthAdjust="spacing" textLength="493" x="1188.5" y="140.5918">AddActuatorToDeviceController(house: House, catalogue: CatalogueActuator)</text><rect fill="#F24D5C" height="6" style="stroke:#C82930;stroke-width:1.0;" width="6" x="1176.5" y="151.916"/><text fill="#000000" font-family="sans-serif" font-size="14" lengthAdjust="spacing" textLength="535" x="1188.5" y="159.2129">isValidConstructorArguments(house: House, catalogue: CatalogueActuator): boolean</text><ellipse cx="1179.5" cy="173.5371" fill="#84BE84" rx="3" ry="3" style="stroke:#038048;stroke-width:1.0;"/><text fill="#000000" font-family="sans-serif" font-size="14" lengthAdjust="spacing" textLength="187" x="1188.5" y="177.834">getRooms(): List&lt;RoomDTO&gt;</text><ellipse cx="1179.5" cy="192.1582" fill="#84BE84" rx="3" ry="3" style="stroke:#038048;stroke-width:1.0;"/><text fill="#000000" font-family="sans-serif" font-size="14" lengthAdjust="spacing" textLength="336" x="1188.5" y="196.4551">getDevices(roomDTO: RoomDTO): List&lt;DeviceDTO&gt;</text><ellipse cx="1179.5" cy="210.7793" fill="#84BE84" rx="3" ry="3" style="stroke:#038048;stroke-width:1.0;"/><text fill="#000000" font-family="sans-serif" font-size="14" lengthAdjust="spacing" textLength="481" x="1188.5" y="215.0762">addActuatorToDevice(deviceDTO: DeviceDTO, model: String): ActuatorDTO</text></g><!--class RoomAssembler--><g id="elem_RoomAssembler"><rect codeLine="16" fill="#F1F1F1" height="85.2422" id="RoomAssembler" rx="2.5" ry="2.5" style="stroke:#181818;stroke-width:0.5;" width="408" x="7" y="339.5"/><ellipse cx="155.25" cy="355.5" fill="#ADD1B2" rx="11" ry="11" style="stroke:#181818;stroke-width:1.0;"/><path d="M158.0156,351.375 Q158.1719,351.1563 158.3594,351.0469 Q158.5469,350.9375 158.7656,350.9375 Q159.1406,350.9375 159.375,351.2031 Q159.6094,351.4531 159.6094,352.0625 L159.6094,353.5156 Q159.6094,354.125 159.375,354.3906 Q159.1406,354.6563 158.7656,354.6563 Q158.4219,354.6563 158.2188,354.4531 Q158.0156,354.2656 157.9063,353.75 Q157.8594,353.3906 157.6719,353.2031 Q157.3438,352.8281 156.7344,352.6094 Q156.125,352.3906 155.5,352.3906 Q154.7344,352.3906 154.0938,352.7188 Q153.4688,353.0469 152.9688,353.7969 Q152.4844,354.5469 152.4844,355.5781 L152.4844,356.6719 Q152.4844,357.9063 153.375,358.7344 Q154.2656,359.5469 155.8594,359.5469 Q156.7969,359.5469 157.4531,359.2969 Q157.8438,359.1406 158.2656,358.7031 Q158.5313,358.4375 158.6719,358.3594 Q158.8281,358.2813 159.0313,358.2813 Q159.3594,358.2813 159.6094,358.5469 Q159.875,358.7969 159.875,359.1406 Q159.875,359.4844 159.5313,359.8906 Q159.0313,360.4688 158.2344,360.7969 Q157.1563,361.25 155.8594,361.25 Q154.3438,361.25 153.1406,360.625 Q152.1563,360.125 151.4688,359.0625 Q150.7813,357.9844 150.7813,356.7031 L150.7813,355.5469 Q150.7813,354.2188 151.3906,353.0781 Q152.0156,351.9219 153.1094,351.3125 Q154.2031,350.6875 155.4375,350.6875 Q156.1719,350.6875 156.8125,350.8594 Q157.4688,351.0156 158.0156,351.375 Z " fill="#000000"/><text fill="#000000" font-family="sans-serif" font-size="14" lengthAdjust="spacing" textLength="103" x="175.75" y="361.2969">RoomAssembler</text><line style="stroke:#181818;stroke-width:0.5;" x1="8" x2="414" y1="371.5" y2="371.5"/><line style="stroke:#181818;stroke-width:0.5;" x1="8" x2="414" y1="379.5" y2="379.5"/><ellipse cx="18" cy="394.3105" fill="#84BE84" rx="3" ry="3" style="stroke:#038048;stroke-width:1.0;"/><text fill="#000000" font-family="sans-serif" font-size="14" lengthAdjust="spacing" textLength="382" x="27" y="398.6074">&#171;static&#187; domain2DTO(rooms: List&lt;Room&gt;): List&lt;RoomDTO&gt;</text><ellipse cx="18" cy="412.9316" fill="#84BE84" rx="3" ry="3" style="stroke:#038048;stroke-width:1.0;"/><text fill="#000000" font-family="sans-serif" font-size="14" lengthAdjust="spacing" textLength="321" x="27" y="417.2285">&#171;static&#187; dto2Domain(roomDTO: RoomDTO): Room</text></g><!--class DeviceAssembler--><g id="elem_DeviceAssembler"><rect codeLine="21" fill="#F1F1F1" height="85.2422" id="DeviceAssembler" rx="2.5" ry="2.5" style="stroke:#181818;stroke-width:0.5;" width="429" x="450.5" y="339.5"/><ellipse cx="606.25" cy="355.5" fill="#ADD1B2" rx="11" ry="11" style="stroke:#181818;stroke-width:1.0;"/><path d="M609.0156,351.375 Q609.1719,351.1563 609.3594,351.0469 Q609.5469,350.9375 609.7656,350.9375 Q610.1406,350.9375 610.375,351.2031 Q610.6094,351.4531 610.6094,352.0625 L610.6094,353.5156 Q610.6094,354.125 610.375,354.3906 Q610.1406,354.6563 609.7656,354.6563 Q609.4219,354.6563 609.2188,354.4531 Q609.0156,354.2656 608.9063,353.75 Q608.8594,353.3906 608.6719,353.2031 Q608.3438,352.8281 607.7344,352.6094 Q607.125,352.3906 606.5,352.3906 Q605.7344,352.3906 605.0938,352.7188 Q604.4688,353.0469 603.9688,353.7969 Q603.4844,354.5469 603.4844,355.5781 L603.4844,356.6719 Q603.4844,357.9063 604.375,358.7344 Q605.2656,359.5469 606.8594,359.5469 Q607.7969,359.5469 608.4531,359.2969 Q608.8438,359.1406 609.2656,358.7031 Q609.5313,358.4375 609.6719,358.3594 Q609.8281,358.2813 610.0313,358.2813 Q610.3594,358.2813 610.6094,358.5469 Q610.875,358.7969 610.875,359.1406 Q610.875,359.4844 610.5313,359.8906 Q610.0313,360.4688 609.2344,360.7969 Q608.1563,361.25 606.8594,361.25 Q605.3438,361.25 604.1406,360.625 Q603.1563,360.125 602.4688,359.0625 Q601.7813,357.9844 601.7813,356.7031 L601.7813,355.5469 Q601.7813,354.2188 602.3906,353.0781 Q603.0156,351.9219 604.1094,351.3125 Q605.2031,350.6875 606.4375,350.6875 Q607.1719,350.6875 607.8125,350.8594 Q608.4688,351.0156 609.0156,351.375 Z " fill="#000000"/><text fill="#000000" font-family="sans-serif" font-size="14" lengthAdjust="spacing" textLength="109" x="626.75" y="361.2969">DeviceAssembler</text><line style="stroke:#181818;stroke-width:0.5;" x1="451.5" x2="878.5" y1="371.5" y2="371.5"/><line style="stroke:#181818;stroke-width:0.5;" x1="451.5" x2="878.5" y1="379.5" y2="379.5"/><ellipse cx="461.5" cy="394.3105" fill="#84BE84" rx="3" ry="3" style="stroke:#038048;stroke-width:1.0;"/><text fill="#000000" font-family="sans-serif" font-size="14" lengthAdjust="spacing" textLength="403" x="470.5" y="398.6074">&#171;static&#187; domain2DTO(devices: List&lt;Device&gt;): List&lt;DeviceDTO&gt;</text><ellipse cx="461.5" cy="412.9316" fill="#84BE84" rx="3" ry="3" style="stroke:#038048;stroke-width:1.0;"/><text fill="#000000" font-family="sans-serif" font-size="14" lengthAdjust="spacing" textLength="342" x="470.5" y="417.2285">&#171;static&#187; dto2Domain(deviceDTO: DeviceDTO): Device</text></g><!--class ActuatorAssembler--><g id="elem_ActuatorAssembler"><rect codeLine="26" fill="#F1F1F1" height="66.6211" id="ActuatorAssembler" rx="2.5" ry="2.5" style="stroke:#181818;stroke-width:0.5;" width="377" x="914.5" y="348.5"/><ellipse cx="1039.25" cy="364.5" fill="#ADD1B2" rx="11" ry="11" style="stroke:#181818;stroke-width:1.0;"/><path d="M1042.0156,360.375 Q1042.1719,360.1563 1042.3594,360.0469 Q1042.5469,359.9375 1042.7656,359.9375 Q1043.1406,359.9375 1043.375,360.2031 Q1043.6094,360.4531 1043.6094,361.0625 L1043.6094,362.5156 Q1043.6094,363.125 1043.375,363.3906 Q1043.1406,363.6563 1042.7656,363.6563 Q1042.4219,363.6563 1042.2188,363.4531 Q1042.0156,363.2656 1041.9063,362.75 Q1041.8594,362.3906 1041.6719,362.2031 Q1041.3438,361.8281 1040.7344,361.6094 Q1040.125,361.3906 1039.5,361.3906 Q1038.7344,361.3906 1038.0938,361.7188 Q1037.4688,362.0469 1036.9688,362.7969 Q1036.4844,363.5469 1036.4844,364.5781 L1036.4844,365.6719 Q1036.4844,366.9063 1037.375,367.7344 Q1038.2656,368.5469 1039.8594,368.5469 Q1040.7969,368.5469 1041.4531,368.2969 Q1041.8438,368.1406 1042.2656,367.7031 Q1042.5313,367.4375 1042.6719,367.3594 Q1042.8281,367.2813 1043.0313,367.2813 Q1043.3594,367.2813 1043.6094,367.5469 Q1043.875,367.7969 1043.875,368.1406 Q1043.875,368.4844 1043.5313,368.8906 Q1043.0313,369.4688 1042.2344,369.7969 Q1041.1563,370.25 1039.8594,370.25 Q1038.3438,370.25 1037.1406,369.625 Q1036.1563,369.125 1035.4688,368.0625 Q1034.7813,366.9844 1034.7813,365.7031 L1034.7813,364.5469 Q1034.7813,363.2188 1035.3906,362.0781 Q1036.0156,360.9219 1037.1094,360.3125 Q1038.2031,359.6875 1039.4375,359.6875 Q1040.1719,359.6875 1040.8125,359.8594 Q1041.4688,360.0156 1042.0156,360.375 Z " fill="#000000"/><text fill="#000000" font-family="sans-serif" font-size="14" lengthAdjust="spacing" textLength="119" x="1059.75" y="370.2969">ActuatorAssembler</text><line style="stroke:#181818;stroke-width:0.5;" x1="915.5" x2="1290.5" y1="380.5" y2="380.5"/><line style="stroke:#181818;stroke-width:0.5;" x1="915.5" x2="1290.5" y1="388.5" y2="388.5"/><ellipse cx="925.5" cy="403.3105" fill="#84BE84" rx="3" ry="3" style="stroke:#038048;stroke-width:1.0;"/><text fill="#000000" font-family="sans-serif" font-size="14" lengthAdjust="spacing" textLength="351" x="934.5" y="407.6074">&#171;static&#187; domain2DTO(actuator: Actuator): ActuatorDTO</text></g><!--class House--><g id="elem_House"><rect codeLine="30" fill="#F1F1F1" height="159.7266" id="House" rx="2.5" ry="2.5" style="stroke:#181818;stroke-width:0.5;" width="660" x="1327" y="302"/><ellipse cx="1632.75" cy="318" fill="#ADD1B2" rx="11" ry="11" style="stroke:#181818;stroke-width:1.0;"/><path d="M1635.5156,313.875 Q1635.6719,313.6563 1635.8594,313.5469 Q1636.0469,313.4375 1636.2656,313.4375 Q1636.6406,313.4375 1636.875,313.7031 Q1637.1094,313.9531 1637.1094,314.5625 L1637.1094,316.0156 Q1637.1094,316.625 1636.875,316.8906 Q1636.6406,317.1563 1636.2656,317.1563 Q1635.9219,317.1563 1635.7188,316.9531 Q1635.5156,316.7656 1635.4063,316.25 Q1635.3594,315.8906 1635.1719,315.7031 Q1634.8438,315.3281 1634.2344,315.1094 Q1633.625,314.8906 1633,314.8906 Q1632.2344,314.8906 1631.5938,315.2188 Q1630.9688,315.5469 1630.4688,316.2969 Q1629.9844,317.0469 1629.9844,318.0781 L1629.9844,319.1719 Q1629.9844,320.4063 1630.875,321.2344 Q1631.7656,322.0469 1633.3594,322.0469 Q1634.2969,322.0469 1634.9531,321.7969 Q1635.3438,321.6406 1635.7656,321.2031 Q1636.0313,320.9375 1636.1719,320.8594 Q1636.3281,320.7813 1636.5313,320.7813 Q1636.8594,320.7813 1637.1094,321.0469 Q1637.375,321.2969 1637.375,321.6406 Q1637.375,321.9844 1637.0313,322.3906 Q1636.5313,322.9688 1635.7344,323.2969 Q1634.6563,323.75 1633.3594,323.75 Q1631.8438,323.75 1630.6406,323.125 Q1629.6563,322.625 1628.9688,321.5625 Q1628.2813,320.4844 1628.2813,319.2031 L1628.2813,318.0469 Q1628.2813,316.7188 1628.8906,315.5781 Q1629.5156,314.4219 1630.6094,313.8125 Q1631.7031,313.1875 1632.9375,313.1875 Q1633.6719,313.1875 1634.3125,313.3594 Q1634.9688,313.5156 1635.5156,313.875 Z " fill="#000000"/><text fill="#000000" font-family="sans-serif" font-size="14" lengthAdjust="spacing" textLength="40" x="1653.25" y="323.7969">House</text><line style="stroke:#181818;stroke-width:0.5;" x1="1328" x2="1986" y1="334" y2="334"/><rect fill="none" height="6" style="stroke:#C82930;stroke-width:1.0;" width="6" x="1335" y="345.8105"/><text fill="#000000" font-family="sans-serif" font-size="14" lengthAdjust="spacing" textLength="207" x="1347" y="353.1074">locationFactory: LocationFactory</text><rect fill="none" height="6" style="stroke:#C82930;stroke-width:1.0;" width="6" x="1335" y="364.4316"/><text fill="#000000" font-family="sans-serif" font-size="14" lengthAdjust="spacing" textLength="173" x="1347" y="371.7285">roomFactory: RoomFactory</text><rect fill="none" height="6" style="stroke:#C82930;stroke-width:1.0;" width="6" x="1335" y="383.0527"/><text fill="#000000" font-family="sans-serif" font-size="14" lengthAdjust="spacing" textLength="111" x="1347" y="390.3496">location: Location</text><rect fill="none" height="6" style="stroke:#C82930;stroke-width:1.0;" width="6" x="1335" y="401.6738"/><text fill="#000000" font-family="sans-serif" font-size="14" lengthAdjust="spacing" textLength="122" x="1347" y="408.9707">rooms: List&lt;Room&gt;</text><line style="stroke:#181818;stroke-width:0.5;" x1="1328" x2="1986" y1="416.4844" y2="416.4844"/><ellipse cx="1338" cy="431.2949" fill="#84BE84" rx="3" ry="3" style="stroke:#038048;stroke-width:1.0;"/><text fill="#000000" font-family="sans-serif" font-size="14" lengthAdjust="spacing" textLength="634" x="1347" y="435.5918">House(locationFactory: LocationFactory, roomFactory: RoomFactory, deviceFactory: DeviceFactory)</text><ellipse cx="1338" cy="449.916" fill="#84BE84" rx="3" ry="3" style="stroke:#038048;stroke-width:1.0;"/><text fill="#000000" font-family="sans-serif" font-size="14" lengthAdjust="spacing" textLength="157" x="1347" y="454.2129">getRooms(): List&lt;Room&gt;</text></g><!--class Room--><g id="elem_Room"><rect codeLine="40" fill="#F1F1F1" height="196.9688" id="Room" rx="2.5" ry="2.5" style="stroke:#181818;stroke-width:0.5;" width="274" x="1827" y="541"/><ellipse cx="1941.25" cy="557" fill="#ADD1B2" rx="11" ry="11" style="stroke:#181818;stroke-width:1.0;"/><path d="M1944.0156,552.875 Q1944.1719,552.6563 1944.3594,552.5469 Q1944.5469,552.4375 1944.7656,552.4375 Q1945.1406,552.4375 1945.375,552.7031 Q1945.6094,552.9531 1945.6094,553.5625 L1945.6094,555.0156 Q1945.6094,555.625 1945.375,555.8906 Q1945.1406,556.1563 1944.7656,556.1563 Q1944.4219,556.1563 1944.2188,555.9531 Q1944.0156,555.7656 1943.9063,555.25 Q1943.8594,554.8906 1943.6719,554.7031 Q1943.3438,554.3281 1942.7344,554.1094 Q1942.125,553.8906 1941.5,553.8906 Q1940.7344,553.8906 1940.0938,554.2188 Q1939.4688,554.5469 1938.9688,555.2969 Q1938.4844,556.0469 1938.4844,557.0781 L1938.4844,558.1719 Q1938.4844,559.4063 1939.375,560.2344 Q1940.2656,561.0469 1941.8594,561.0469 Q1942.7969,561.0469 1943.4531,560.7969 Q1943.8438,560.6406 1944.2656,560.2031 Q1944.5313,559.9375 1944.6719,559.8594 Q1944.8281,559.7813 1945.0313,559.7813 Q1945.3594,559.7813 1945.6094,560.0469 Q1945.875,560.2969 1945.875,560.6406 Q1945.875,560.9844 1945.5313,561.3906 Q1945.0313,561.9688 1944.2344,562.2969 Q1943.1563,562.75 1941.8594,562.75 Q1940.3438,562.75 1939.1406,562.125 Q1938.1563,561.625 1937.4688,560.5625 Q1936.7813,559.4844 1936.7813,558.2031 L1936.7813,557.0469 Q1936.7813,555.7188 1937.3906,554.5781 Q1938.0156,553.4219 1939.1094,552.8125 Q1940.2031,552.1875 1941.4375,552.1875 Q1942.1719,552.1875 1942.8125,552.3594 Q1943.4688,552.5156 1944.0156,552.875 Z " fill="#000000"/><text fill="#000000" font-family="sans-serif" font-size="14" lengthAdjust="spacing" textLength="37" x="1961.75" y="562.7969">Room</text><line style="stroke:#181818;stroke-width:0.5;" x1="1828" x2="2100" y1="573" y2="573"/><rect fill="none" height="6" style="stroke:#C82930;stroke-width:1.0;" width="6" x="1835" y="584.8105"/><text fill="#000000" font-family="sans-serif" font-size="14" lengthAdjust="spacing" textLength="80" x="1847" y="592.1074">name: String</text><rect fill="none" height="6" style="stroke:#C82930;stroke-width:1.0;" width="6" x="1835" y="603.4316"/><text fill="#000000" font-family="sans-serif" font-size="14" lengthAdjust="spacing" textLength="51" x="1847" y="610.7285">floor: int</text><rect fill="none" height="6" style="stroke:#C82930;stroke-width:1.0;" width="6" x="1835" y="622.0527"/><text fill="#000000" font-family="sans-serif" font-size="14" lengthAdjust="spacing" textLength="248" x="1847" y="629.3496">dimensionsFactory: DimensionsFactory</text><rect fill="none" height="6" style="stroke:#C82930;stroke-width:1.0;" width="6" x="1835" y="640.6738"/><text fill="#000000" font-family="sans-serif" font-size="14" lengthAdjust="spacing" textLength="152" x="1847" y="647.9707">dimensions: Dimensions</text><rect fill="none" height="6" style="stroke:#C82930;stroke-width:1.0;" width="6" x="1835" y="659.2949"/><text fill="#000000" font-family="sans-serif" font-size="14" lengthAdjust="spacing" textLength="82" x="1847" y="666.5918">roomId: UUID</text><rect fill="none" height="6" style="stroke:#C82930;stroke-width:1.0;" width="6" x="1835" y="677.916"/><text fill="#000000" font-family="sans-serif" font-size="14" lengthAdjust="spacing" textLength="137" x="1847" y="685.2129">devices: List&lt;Device&gt;</text><line style="stroke:#181818;stroke-width:0.5;" x1="1828" x2="2100" y1="692.7266" y2="692.7266"/><polygon fill="#FFFF44" points="1838,702.5371,1842,706.5371,1838,710.5371,1834,706.5371" style="stroke:#B38D22;stroke-width:1.0;"/><text fill="#000000" font-family="sans-serif" font-size="14" lengthAdjust="spacing" textLength="158" x="1847" y="711.834">Room(location: Location)</text><ellipse cx="1838" cy="726.1582" fill="#84BE84" rx="3" ry="3" style="stroke:#038048;stroke-width:1.0;"/><text fill="#000000" font-family="sans-serif" font-size="14" lengthAdjust="spacing" textLength="169" x="1847" y="730.4551">getDevices(): List&lt;Device&gt;</text></g><!--class Device--><g id="elem_Device"><rect codeLine="52" fill="#F1F1F1" height="196.9688" id="Device" rx="2.5" ry="2.5" style="stroke:#181818;stroke-width:0.5;" width="670" x="1724" y="817"/><ellipse cx="2033.25" cy="833" fill="#ADD1B2" rx="11" ry="11" style="stroke:#181818;stroke-width:1.0;"/><path d="M2036.0156,828.875 Q2036.1719,828.6563 2036.3594,828.5469 Q2036.5469,828.4375 2036.7656,828.4375 Q2037.1406,828.4375 2037.375,828.7031 Q2037.6094,828.9531 2037.6094,829.5625 L2037.6094,831.0156 Q2037.6094,831.625 2037.375,831.8906 Q2037.1406,832.1563 2036.7656,832.1563 Q2036.4219,832.1563 2036.2188,831.9531 Q2036.0156,831.7656 2035.9063,831.25 Q2035.8594,830.8906 2035.6719,830.7031 Q2035.3438,830.3281 2034.7344,830.1094 Q2034.125,829.8906 2033.5,829.8906 Q2032.7344,829.8906 2032.0938,830.2188 Q2031.4688,830.5469 2030.9688,831.2969 Q2030.4844,832.0469 2030.4844,833.0781 L2030.4844,834.1719 Q2030.4844,835.4063 2031.375,836.2344 Q2032.2656,837.0469 2033.8594,837.0469 Q2034.7969,837.0469 2035.4531,836.7969 Q2035.8438,836.6406 2036.2656,836.2031 Q2036.5313,835.9375 2036.6719,835.8594 Q2036.8281,835.7813 2037.0313,835.7813 Q2037.3594,835.7813 2037.6094,836.0469 Q2037.875,836.2969 2037.875,836.6406 Q2037.875,836.9844 2037.5313,837.3906 Q2037.0313,837.9688 2036.2344,838.2969 Q2035.1563,838.75 2033.8594,838.75 Q2032.3438,838.75 2031.1406,838.125 Q2030.1563,837.625 2029.4688,836.5625 Q2028.7813,835.4844 2028.7813,834.2031 L2028.7813,833.0469 Q2028.7813,831.7188 2029.3906,830.5781 Q2030.0156,829.4219 2031.1094,828.8125 Q2032.2031,828.1875 2033.4375,828.1875 Q2034.1719,828.1875 2034.8125,828.3594 Q2035.4688,828.5156 2036.0156,828.875 Z " fill="#000000"/><text fill="#000000" font-family="sans-serif" font-size="14" lengthAdjust="spacing" textLength="43" x="2053.75" y="838.7969">Device</text><line style="stroke:#181818;stroke-width:0.5;" x1="1725" x2="2393" y1="849" y2="849"/><rect fill="none" height="6" style="stroke:#C82930;stroke-width:1.0;" width="6" x="1732" y="860.8105"/><text fill="#000000" font-family="sans-serif" font-size="14" lengthAdjust="spacing" textLength="76" x="1744" y="868.1074">name:String</text><rect fill="none" height="6" style="stroke:#C82930;stroke-width:1.0;" width="6" x="1732" y="879.4316"/><text fill="#000000" font-family="sans-serif" font-size="14" lengthAdjust="spacing" textLength="97" x="1744" y="886.7285">status: boolean</text><rect fill="none" height="6" style="stroke:#C82930;stroke-width:1.0;" width="6" x="1732" y="898.0527"/><text fill="#000000" font-family="sans-serif" font-size="14" lengthAdjust="spacing" textLength="141" x="1744" y="905.3496">sensors: List&lt;Sensor&gt;</text><rect fill="none" height="6" style="stroke:#C82930;stroke-width:1.0;" width="6" x="1732" y="916.6738"/><text fill="#000000" font-family="sans-serif" font-size="14" lengthAdjust="spacing" textLength="91" x="1744" y="923.9707">deviceId: UUID</text><line style="stroke:#181818;stroke-width:0.5;" x1="1725" x2="2393" y1="931.4844" y2="931.4844"/><ellipse cx="1735" cy="946.2949" fill="#84BE84" rx="3" ry="3" style="stroke:#038048;stroke-width:1.0;"/><text fill="#000000" font-family="sans-serif" font-size="14" lengthAdjust="spacing" textLength="133" x="1744" y="950.5918">Device(name: String)</text><rect fill="#F24D5C" height="6" style="stroke:#C82930;stroke-width:1.0;" width="6" x="1732" y="961.916"/><text fill="#000000" font-family="sans-serif" font-size="14" lengthAdjust="spacing" textLength="179" x="1744" y="969.2129">setName(name: String): void</text><ellipse cx="1735" cy="983.5371" fill="#84BE84" rx="3" ry="3" style="stroke:#038048;stroke-width:1.0;"/><text fill="#000000" font-family="sans-serif" font-size="14" lengthAdjust="spacing" textLength="644" x="1744" y="987.834">addActuator(model: String, catalogue: CatalogueActuator, actuatorFactory: ActuatorFactory): Actuator</text><ellipse cx="1735" cy="1002.1582" fill="#84BE84" rx="3" ry="3" style="stroke:#038048;stroke-width:1.0;"/><text fill="#000000" font-family="sans-serif" font-size="14" lengthAdjust="spacing" textLength="321" x="1744" y="1006.4551">addActuatorToDevice(actuator: Actuator): Actuator</text></g><!--class CatalogueActuator--><g id="elem_CatalogueActuator"><rect codeLine="64" fill="#F1F1F1" height="122.4844" id="CatalogueActuator" rx="2.5" ry="2.5" style="stroke:#181818;stroke-width:0.5;" width="470" x="1680" y="1093"/><ellipse cx="1851.75" cy="1109" fill="#ADD1B2" rx="11" ry="11" style="stroke:#181818;stroke-width:1.0;"/><path d="M1854.5156,1104.875 Q1854.6719,1104.6563 1854.8594,1104.5469 Q1855.0469,1104.4375 1855.2656,1104.4375 Q1855.6406,1104.4375 1855.875,1104.7031 Q1856.1094,1104.9531 1856.1094,1105.5625 L1856.1094,1107.0156 Q1856.1094,1107.625 1855.875,1107.8906 Q1855.6406,1108.1563 1855.2656,1108.1563 Q1854.9219,1108.1563 1854.7188,1107.9531 Q1854.5156,1107.7656 1854.4063,1107.25 Q1854.3594,1106.8906 1854.1719,1106.7031 Q1853.8438,1106.3281 1853.2344,1106.1094 Q1852.625,1105.8906 1852,1105.8906 Q1851.2344,1105.8906 1850.5938,1106.2188 Q1849.9688,1106.5469 1849.4688,1107.2969 Q1848.9844,1108.0469 1848.9844,1109.0781 L1848.9844,1110.1719 Q1848.9844,1111.4063 1849.875,1112.2344 Q1850.7656,1113.0469 1852.3594,1113.0469 Q1853.2969,1113.0469 1853.9531,1112.7969 Q1854.3438,1112.6406 1854.7656,1112.2031 Q1855.0313,1111.9375 1855.1719,1111.8594 Q1855.3281,1111.7813 1855.5313,1111.7813 Q1855.8594,1111.7813 1856.1094,1112.0469 Q1856.375,1112.2969 1856.375,1112.6406 Q1856.375,1112.9844 1856.0313,1113.3906 Q1855.5313,1113.9688 1854.7344,1114.2969 Q1853.6563,1114.75 1852.3594,1114.75 Q1850.8438,1114.75 1849.6406,1114.125 Q1848.6563,1113.625 1847.9688,1112.5625 Q1847.2813,1111.4844 1847.2813,1110.2031 L1847.2813,1109.0469 Q1847.2813,1107.7188 1847.8906,1106.5781 Q1848.5156,1105.4219 1849.6094,1104.8125 Q1850.7031,1104.1875 1851.9375,1104.1875 Q1852.6719,1104.1875 1853.3125,1104.3594 Q1853.9688,1104.5156 1854.5156,1104.875 Z " fill="#000000"/><text fill="#000000" font-family="sans-serif" font-size="14" lengthAdjust="spacing" textLength="118" x="1872.25" y="1114.7969">CatalogueActuator</text><line style="stroke:#181818;stroke-width:0.5;" x1="1681" x2="2149" y1="1125" y2="1125"/><rect fill="none" height="6" style="stroke:#C82930;stroke-width:1.0;" width="6" x="1688" y="1136.8105"/><text fill="#000000" font-family="sans-serif" font-size="14" lengthAdjust="spacing" textLength="240" x="1700" y="1144.1074">listActuatorTypes: List&lt;ActuatorType&gt;</text><line style="stroke:#181818;stroke-width:0.5;" x1="1681" x2="2149" y1="1151.6211" y2="1151.6211"/><ellipse cx="1691" cy="1166.4316" fill="#84BE84" rx="3" ry="3" style="stroke:#038048;stroke-width:1.0;"/><text fill="#000000" font-family="sans-serif" font-size="14" lengthAdjust="spacing" textLength="255" x="1700" y="1170.7285">CatalogueActuator(filePathname: String)</text><rect fill="#F24D5C" height="6" style="stroke:#C82930;stroke-width:1.0;" width="6" x="1688" y="1182.0527"/><text fill="#000000" font-family="sans-serif" font-size="14" lengthAdjust="spacing" textLength="397" x="1700" y="1189.3496">validateConstructorParameters(strDescription: String): boolean</text><ellipse cx="1691" cy="1203.6738" fill="#84BE84" rx="3" ry="3" style="stroke:#038048;stroke-width:1.0;"/><text fill="#000000" font-family="sans-serif" font-size="14" lengthAdjust="spacing" textLength="444" x="1700" y="1207.9707">getActuator(model: String, actuatorFactory: ActuatorFactory): Actuator</text></g><!--class ActuatorFactory--><g id="elem_ActuatorFactory"><rect codeLine="72" fill="#F1F1F1" height="85.2422" id="ActuatorFactory" rx="2.5" ry="2.5" style="stroke:#181818;stroke-width:0.5;" width="469" x="1680.5" y="1294"/><ellipse cx="1860.25" cy="1310" fill="#ADD1B2" rx="11" ry="11" style="stroke:#181818;stroke-width:1.0;"/><path d="M1863.0156,1305.875 Q1863.1719,1305.6563 1863.3594,1305.5469 Q1863.5469,1305.4375 1863.7656,1305.4375 Q1864.1406,1305.4375 1864.375,1305.7031 Q1864.6094,1305.9531 1864.6094,1306.5625 L1864.6094,1308.0156 Q1864.6094,1308.625 1864.375,1308.8906 Q1864.1406,1309.1563 1863.7656,1309.1563 Q1863.4219,1309.1563 1863.2188,1308.9531 Q1863.0156,1308.7656 1862.9063,1308.25 Q1862.8594,1307.8906 1862.6719,1307.7031 Q1862.3438,1307.3281 1861.7344,1307.1094 Q1861.125,1306.8906 1860.5,1306.8906 Q1859.7344,1306.8906 1859.0938,1307.2188 Q1858.4688,1307.5469 1857.9688,1308.2969 Q1857.4844,1309.0469 1857.4844,1310.0781 L1857.4844,1311.1719 Q1857.4844,1312.4063 1858.375,1313.2344 Q1859.2656,1314.0469 1860.8594,1314.0469 Q1861.7969,1314.0469 1862.4531,1313.7969 Q1862.8438,1313.6406 1863.2656,1313.2031 Q1863.5313,1312.9375 1863.6719,1312.8594 Q1863.8281,1312.7813 1864.0313,1312.7813 Q1864.3594,1312.7813 1864.6094,1313.0469 Q1864.875,1313.2969 1864.875,1313.6406 Q1864.875,1313.9844 1864.5313,1314.3906 Q1864.0313,1314.9688 1863.2344,1315.2969 Q1862.1563,1315.75 1860.8594,1315.75 Q1859.3438,1315.75 1858.1406,1315.125 Q1857.1563,1314.625 1856.4688,1313.5625 Q1855.7813,1312.4844 1855.7813,1311.2031 L1855.7813,1310.0469 Q1855.7813,1308.7188 1856.3906,1307.5781 Q1857.0156,1306.4219 1858.1094,1305.8125 Q1859.2031,1305.1875 1860.4375,1305.1875 Q1861.1719,1305.1875 1861.8125,1305.3594 Q1862.4688,1305.5156 1863.0156,1305.875 Z " fill="#000000"/><text fill="#000000" font-family="sans-serif" font-size="14" lengthAdjust="spacing" textLength="101" x="1880.75" y="1315.7969">ActuatorFactory</text><line style="stroke:#181818;stroke-width:0.5;" x1="1681.5" x2="2148.5" y1="1326" y2="1326"/><line style="stroke:#181818;stroke-width:0.5;" x1="1681.5" x2="2148.5" y1="1334" y2="1334"/><ellipse cx="1691.5" cy="1348.8105" fill="#84BE84" rx="3" ry="3" style="stroke:#038048;stroke-width:1.0;"/><text fill="#000000" font-family="sans-serif" font-size="14" lengthAdjust="spacing" textLength="111" x="1700.5" y="1353.1074">ActuatorFactory()</text><ellipse cx="1691.5" cy="1367.4316" fill="#84BE84" rx="3" ry="3" style="stroke:#038048;stroke-width:1.0;"/><text fill="#000000" font-family="sans-serif" font-size="14" lengthAdjust="spacing" textLength="443" x="1700.5" y="1371.7285">createActuator(model: String, catalogue: CatalogueActuator): Actuator</text></g><!--class GenericActuator--><g id="elem_GenericActuator"><rect codeLine="77" fill="#F1F1F1" height="103.8633" id="GenericActuator" rx="2.5" ry="2.5" style="stroke:#181818;stroke-width:0.5;" width="277" x="1920.5" y="1458"/><ellipse cx="2003.25" cy="1474" fill="#ADD1B2" rx="11" ry="11" style="stroke:#181818;stroke-width:1.0;"/><path d="M2006.0156,1469.875 Q2006.1719,1469.6563 2006.3594,1469.5469 Q2006.5469,1469.4375 2006.7656,1469.4375 Q2007.1406,1469.4375 2007.375,1469.7031 Q2007.6094,1469.9531 2007.6094,1470.5625 L2007.6094,1472.0156 Q2007.6094,1472.625 2007.375,1472.8906 Q2007.1406,1473.1563 2006.7656,1473.1563 Q2006.4219,1473.1563 2006.2188,1472.9531 Q2006.0156,1472.7656 2005.9063,1472.25 Q2005.8594,1471.8906 2005.6719,1471.7031 Q2005.3438,1471.3281 2004.7344,1471.1094 Q2004.125,1470.8906 2003.5,1470.8906 Q2002.7344,1470.8906 2002.0938,1471.2188 Q2001.4688,1471.5469 2000.9688,1472.2969 Q2000.4844,1473.0469 2000.4844,1474.0781 L2000.4844,1475.1719 Q2000.4844,1476.4063 2001.375,1477.2344 Q2002.2656,1478.0469 2003.8594,1478.0469 Q2004.7969,1478.0469 2005.4531,1477.7969 Q2005.8438,1477.6406 2006.2656,1477.2031 Q2006.5313,1476.9375 2006.6719,1476.8594 Q2006.8281,1476.7813 2007.0313,1476.7813 Q2007.3594,1476.7813 2007.6094,1477.0469 Q2007.875,1477.2969 2007.875,1477.6406 Q2007.875,1477.9844 2007.5313,1478.3906 Q2007.0313,1478.9688 2006.2344,1479.2969 Q2005.1563,1479.75 2003.8594,1479.75 Q2002.3438,1479.75 2001.1406,1479.125 Q2000.1563,1478.625 1999.4688,1477.5625 Q1998.7813,1476.4844 1998.7813,1475.2031 L1998.7813,1474.0469 Q1998.7813,1472.7188 1999.3906,1471.5781 Q2000.0156,1470.4219 2001.1094,1469.8125 Q2002.2031,1469.1875 2003.4375,1469.1875 Q2004.1719,1469.1875 2004.8125,1469.3594 Q2005.4688,1469.5156 2006.0156,1469.875 Z " fill="#000000"/><text fill="#000000" font-family="sans-serif" font-size="14" lengthAdjust="spacing" textLength="103" x="2023.75" y="1479.7969">GenericActuator</text><line style="stroke:#181818;stroke-width:0.5;" x1="1921.5" x2="2196.5" y1="1490" y2="1490"/><rect fill="none" height="6" style="stroke:#C82930;stroke-width:1.0;" width="6" x="1928.5" y="1501.8105"/><text fill="#000000" font-family="sans-serif" font-size="14" lengthAdjust="spacing" textLength="177" x="1940.5" y="1509.1074">actuatorType: ActuatorType</text><rect fill="none" height="6" style="stroke:#C82930;stroke-width:1.0;" width="6" x="1928.5" y="1520.4316"/><text fill="#000000" font-family="sans-serif" font-size="14" lengthAdjust="spacing" textLength="78" x="1940.5" y="1527.7285">value: Value</text><line style="stroke:#181818;stroke-width:0.5;" x1="1921.5" x2="2196.5" y1="1535.2422" y2="1535.2422"/><ellipse cx="1931.5" cy="1550.0527" fill="#84BE84" rx="3" ry="3" style="stroke:#038048;stroke-width:1.0;"/><text fill="#000000" font-family="sans-serif" font-size="14" lengthAdjust="spacing" textLength="251" x="1940.5" y="1554.3496">Actuator(catalogue: CatalogueActuator)</text></g><!--class Actuator--><g id="elem_Actuator"><rect codeLine="84" fill="#F1F1F1" height="66.6211" id="Actuator" rx="2.5" ry="2.5" style="stroke:#181818;stroke-width:0.5;" width="263" x="1927.5" y="1641"/><ellipse cx="2028.25" cy="1657" fill="#B4A7E5" rx="11" ry="11" style="stroke:#181818;stroke-width:1.0;"/><path d="M2029.2031,1653.6406 L2029.2031,1660.2969 L2030.9219,1660.2969 Q2031.5313,1660.2969 2031.7969,1660.5313 Q2032.0625,1660.7656 2032.0625,1661.1563 Q2032.0625,1661.5313 2031.7969,1661.7656 Q2031.5313,1662 2030.9219,1662 L2025.7813,1662 Q2025.1719,1662 2024.9063,1661.7656 Q2024.6406,1661.5313 2024.6406,1661.1406 Q2024.6406,1660.7656 2024.9063,1660.5313 Q2025.1719,1660.2969 2025.7813,1660.2969 L2027.5,1660.2969 L2027.5,1653.6406 L2025.7813,1653.6406 Q2025.1719,1653.6406 2024.9063,1653.4063 Q2024.6406,1653.1719 2024.6406,1652.7813 Q2024.6406,1652.4063 2024.9063,1652.1719 Q2025.1719,1651.9375 2025.7813,1651.9375 L2030.9219,1651.9375 Q2031.5313,1651.9375 2031.7969,1652.1719 Q2032.0625,1652.4063 2032.0625,1652.7813 Q2032.0625,1653.1719 2031.7969,1653.4063 Q2031.5313,1653.6406 2030.9219,1653.6406 L2029.2031,1653.6406 Z " fill="#000000"/><text fill="#000000" font-family="sans-serif" font-size="14" font-style="italic" lengthAdjust="spacing" textLength="53" x="2048.75" y="1662.7969">Actuator</text><line style="stroke:#181818;stroke-width:0.5;" x1="1928.5" x2="2189.5" y1="1673" y2="1673"/><line style="stroke:#181818;stroke-width:0.5;" x1="1928.5" x2="2189.5" y1="1681" y2="1681"/><text fill="#000000" font-family="sans-serif" font-size="14" lengthAdjust="spacing" textLength="251" x="1933.5" y="1700.1074">Actuator(catalogue: CatalogueActuator)</text></g><!--class RoomDTO--><g id="elem_RoomDTO"><rect codeLine="88" fill="#F1F1F1" height="141.1055" id="RoomDTO" rx="2.5" ry="2.5" style="stroke:#181818;stroke-width:0.5;" width="180" x="121" y="569"/><ellipse cx="173.25" cy="585" fill="#ADD1B2" rx="11" ry="11" style="stroke:#181818;stroke-width:1.0;"/><path d="M176.0156,580.875 Q176.1719,580.6563 176.3594,580.5469 Q176.5469,580.4375 176.7656,580.4375 Q177.1406,580.4375 177.375,580.7031 Q177.6094,580.9531 177.6094,581.5625 L177.6094,583.0156 Q177.6094,583.625 177.375,583.8906 Q177.1406,584.1563 176.7656,584.1563 Q176.4219,584.1563 176.2188,583.9531 Q176.0156,583.7656 175.9063,583.25 Q175.8594,582.8906 175.6719,582.7031 Q175.3438,582.3281 174.7344,582.1094 Q174.125,581.8906 173.5,581.8906 Q172.7344,581.8906 172.0938,582.2188 Q171.4688,582.5469 170.9688,583.2969 Q170.4844,584.0469 170.4844,585.0781 L170.4844,586.1719 Q170.4844,587.4063 171.375,588.2344 Q172.2656,589.0469 173.8594,589.0469 Q174.7969,589.0469 175.4531,588.7969 Q175.8438,588.6406 176.2656,588.2031 Q176.5313,587.9375 176.6719,587.8594 Q176.8281,587.7813 177.0313,587.7813 Q177.3594,587.7813 177.6094,588.0469 Q177.875,588.2969 177.875,588.6406 Q177.875,588.9844 177.5313,589.3906 Q177.0313,589.9688 176.2344,590.2969 Q175.1563,590.75 173.8594,590.75 Q172.3438,590.75 171.1406,590.125 Q170.1563,589.625 169.4688,588.5625 Q168.7813,587.4844 168.7813,586.2031 L168.7813,585.0469 Q168.7813,583.7188 169.3906,582.5781 Q170.0156,581.4219 171.1094,580.8125 Q172.2031,580.1875 173.4375,580.1875 Q174.1719,580.1875 174.8125,580.3594 Q175.4688,580.5156 176.0156,580.875 Z " fill="#000000"/><text fill="#000000" font-family="sans-serif" font-size="14" lengthAdjust="spacing" textLength="67" x="193.75" y="590.7969">RoomDTO</text><line style="stroke:#181818;stroke-width:0.5;" x1="122" x2="300" y1="601" y2="601"/><rect fill="none" height="6" style="stroke:#C82930;stroke-width:1.0;" width="6" x="129" y="612.8105"/><text fill="#000000" font-family="sans-serif" font-size="14" lengthAdjust="spacing" textLength="80" x="141" y="620.1074">name: String</text><rect fill="none" height="6" style="stroke:#C82930;stroke-width:1.0;" width="6" x="129" y="631.4316"/><text fill="#000000" font-family="sans-serif" font-size="14" lengthAdjust="spacing" textLength="152" x="141" y="638.7285">dimensions: Dimensions</text><rect fill="none" height="6" style="stroke:#C82930;stroke-width:1.0;" width="6" x="129" y="650.0527"/><text fill="#000000" font-family="sans-serif" font-size="14" lengthAdjust="spacing" textLength="51" x="141" y="657.3496">floor: int</text><rect fill="none" height="6" style="stroke:#C82930;stroke-width:1.0;" width="6" x="129" y="668.6738"/><text fill="#000000" font-family="sans-serif" font-size="14" lengthAdjust="spacing" textLength="82" x="141" y="675.9707">roomId: UUID</text><line style="stroke:#181818;stroke-width:0.5;" x1="122" x2="300" y1="683.4844" y2="683.4844"/><ellipse cx="132" cy="698.2949" fill="#84BE84" rx="3" ry="3" style="stroke:#038048;stroke-width:1.0;"/><text fill="#000000" font-family="sans-serif" font-size="14" lengthAdjust="spacing" textLength="154" x="141" y="702.5918">RoomDTO(room: Room)</text></g><!--class DeviceDTO--><g id="elem_DeviceDTO"><rect codeLine="97" fill="#F1F1F1" height="178.3477" id="DeviceDTO" rx="2.5" ry="2.5" style="stroke:#181818;stroke-width:0.5;" width="201" x="564.5" y="550.5"/><ellipse cx="624.25" cy="566.5" fill="#ADD1B2" rx="11" ry="11" style="stroke:#181818;stroke-width:1.0;"/><path d="M627.0156,562.375 Q627.1719,562.1563 627.3594,562.0469 Q627.5469,561.9375 627.7656,561.9375 Q628.1406,561.9375 628.375,562.2031 Q628.6094,562.4531 628.6094,563.0625 L628.6094,564.5156 Q628.6094,565.125 628.375,565.3906 Q628.1406,565.6563 627.7656,565.6563 Q627.4219,565.6563 627.2188,565.4531 Q627.0156,565.2656 626.9063,564.75 Q626.8594,564.3906 626.6719,564.2031 Q626.3438,563.8281 625.7344,563.6094 Q625.125,563.3906 624.5,563.3906 Q623.7344,563.3906 623.0938,563.7188 Q622.4688,564.0469 621.9688,564.7969 Q621.4844,565.5469 621.4844,566.5781 L621.4844,567.6719 Q621.4844,568.9063 622.375,569.7344 Q623.2656,570.5469 624.8594,570.5469 Q625.7969,570.5469 626.4531,570.2969 Q626.8438,570.1406 627.2656,569.7031 Q627.5313,569.4375 627.6719,569.3594 Q627.8281,569.2813 628.0313,569.2813 Q628.3594,569.2813 628.6094,569.5469 Q628.875,569.7969 628.875,570.1406 Q628.875,570.4844 628.5313,570.8906 Q628.0313,571.4688 627.2344,571.7969 Q626.1563,572.25 624.8594,572.25 Q623.3438,572.25 622.1406,571.625 Q621.1563,571.125 620.4688,570.0625 Q619.7813,568.9844 619.7813,567.7031 L619.7813,566.5469 Q619.7813,565.2188 620.3906,564.0781 Q621.0156,562.9219 622.1094,562.3125 Q623.2031,561.6875 624.4375,561.6875 Q625.1719,561.6875 625.8125,561.8594 Q626.4688,562.0156 627.0156,562.375 Z " fill="#000000"/><text fill="#000000" font-family="sans-serif" font-size="14" lengthAdjust="spacing" textLength="73" x="644.75" y="572.2969">DeviceDTO</text><line style="stroke:#181818;stroke-width:0.5;" x1="565.5" x2="764.5" y1="582.5" y2="582.5"/><rect fill="none" height="6" style="stroke:#C82930;stroke-width:1.0;" width="6" x="572.5" y="594.3105"/><text fill="#000000" font-family="sans-serif" font-size="14" lengthAdjust="spacing" textLength="80" x="584.5" y="601.6074">name: String</text><rect fill="none" height="6" style="stroke:#C82930;stroke-width:1.0;" width="6" x="572.5" y="612.9316"/><text fill="#000000" font-family="sans-serif" font-size="14" lengthAdjust="spacing" textLength="97" x="584.5" y="620.2285">status: boolean</text><rect fill="none" height="6" style="stroke:#C82930;stroke-width:1.0;" width="6" x="572.5" y="631.5527"/><text fill="#000000" font-family="sans-serif" font-size="14" lengthAdjust="spacing" textLength="91" x="584.5" y="638.8496">deviceId: UUID</text><rect fill="none" height="6" style="stroke:#C82930;stroke-width:1.0;" width="6" x="572.5" y="650.1738"/><text fill="#000000" font-family="sans-serif" font-size="14" lengthAdjust="spacing" textLength="137" x="584.5" y="657.4707">roomDTO: RoomDTO</text><rect fill="none" height="6" style="stroke:#C82930;stroke-width:1.0;" width="6" x="572.5" y="668.7949"/><text fill="#000000" font-family="sans-serif" font-size="14" lengthAdjust="spacing" textLength="142" x="584.5" y="676.0918">actuators: List&lt;String&gt;</text><rect fill="none" height="6" style="stroke:#C82930;stroke-width:1.0;" width="6" x="572.5" y="687.416"/><text fill="#000000" font-family="sans-serif" font-size="14" lengthAdjust="spacing" textLength="133" x="584.5" y="694.7129">sensors: List&lt;String&gt;</text><line style="stroke:#181818;stroke-width:0.5;" x1="565.5" x2="764.5" y1="702.2266" y2="702.2266"/><ellipse cx="575.5" cy="717.0371" fill="#84BE84" rx="3" ry="3" style="stroke:#038048;stroke-width:1.0;"/><text fill="#000000" font-family="sans-serif" font-size="14" lengthAdjust="spacing" textLength="175" x="584.5" y="721.334">DeviceDTO(device: Device)</text></g><!--class ActuatorDTO--><g id="elem_ActuatorDTO"><rect codeLine="108" fill="#F1F1F1" height="103.8633" id="ActuatorDTO" rx="2.5" ry="2.5" style="stroke:#181818;stroke-width:0.5;" width="232" x="987" y="587.5"/><ellipse cx="1057.25" cy="603.5" fill="#ADD1B2" rx="11" ry="11" style="stroke:#181818;stroke-width:1.0;"/><path d="M1060.0156,599.375 Q1060.1719,599.1563 1060.3594,599.0469 Q1060.5469,598.9375 1060.7656,598.9375 Q1061.1406,598.9375 1061.375,599.2031 Q1061.6094,599.4531 1061.6094,600.0625 L1061.6094,601.5156 Q1061.6094,602.125 1061.375,602.3906 Q1061.1406,602.6563 1060.7656,602.6563 Q1060.4219,602.6563 1060.2188,602.4531 Q1060.0156,602.2656 1059.9063,601.75 Q1059.8594,601.3906 1059.6719,601.2031 Q1059.3438,600.8281 1058.7344,600.6094 Q1058.125,600.3906 1057.5,600.3906 Q1056.7344,600.3906 1056.0938,600.7188 Q1055.4688,601.0469 1054.9688,601.7969 Q1054.4844,602.5469 1054.4844,603.5781 L1054.4844,604.6719 Q1054.4844,605.9063 1055.375,606.7344 Q1056.2656,607.5469 1057.8594,607.5469 Q1058.7969,607.5469 1059.4531,607.2969 Q1059.8438,607.1406 1060.2656,606.7031 Q1060.5313,606.4375 1060.6719,606.3594 Q1060.8281,606.2813 1061.0313,606.2813 Q1061.3594,606.2813 1061.6094,606.5469 Q1061.875,606.7969 1061.875,607.1406 Q1061.875,607.4844 1061.5313,607.8906 Q1061.0313,608.4688 1060.2344,608.7969 Q1059.1563,609.25 1057.8594,609.25 Q1056.3438,609.25 1055.1406,608.625 Q1054.1563,608.125 1053.4688,607.0625 Q1052.7813,605.9844 1052.7813,604.7031 L1052.7813,603.5469 Q1052.7813,602.2188 1053.3906,601.0781 Q1054.0156,599.9219 1055.1094,599.3125 Q1056.2031,598.6875 1057.4375,598.6875 Q1058.1719,598.6875 1058.8125,598.8594 Q1059.4688,599.0156 1060.0156,599.375 Z " fill="#000000"/><text fill="#000000" font-family="sans-serif" font-size="14" lengthAdjust="spacing" textLength="83" x="1077.75" y="609.2969">ActuatorDTO</text><line style="stroke:#181818;stroke-width:0.5;" x1="988" x2="1218" y1="619.5" y2="619.5"/><rect fill="none" height="6" style="stroke:#C82930;stroke-width:1.0;" width="6" x="995" y="631.3105"/><text fill="#000000" font-family="sans-serif" font-size="14" lengthAdjust="spacing" textLength="177" x="1007" y="638.6074">actuatorType: ActuatorType</text><rect fill="none" height="6" style="stroke:#C82930;stroke-width:1.0;" width="6" x="995" y="649.9316"/><text fill="#000000" font-family="sans-serif" font-size="14" lengthAdjust="spacing" textLength="78" x="1007" y="657.2285">value: Value</text><line style="stroke:#181818;stroke-width:0.5;" x1="988" x2="1218" y1="664.7422" y2="664.7422"/><ellipse cx="998" cy="679.5527" fill="#84BE84" rx="3" ry="3" style="stroke:#038048;stroke-width:1.0;"/><text fill="#000000" font-family="sans-serif" font-size="14" lengthAdjust="spacing" textLength="206" x="1007" y="683.8496">ActuatorDTO(actuator: Actuator)</text></g><!--link AddActuatorToDeviceController to House--><g id="link_AddActuatorToDeviceController_House"><path codeLine="115" d="M1533,223.02 C1553.64,249.31 1571.6548,272.2707 1591.0548,296.9807 " fill="none" id="AddActuatorToDeviceController-to-House" style="stroke:#181818;stroke-width:1.0;stroke-dasharray:7.0,7.0;"/><polygon fill="#181818" points="1594.76,301.7,1592.3485,292.1509,1591.6724,297.7672,1586.0561,297.0912,1594.76,301.7" style="stroke:#181818;stroke-width:1.0;"/><text fill="#000000" font-family="sans-serif" font-size="13" lengthAdjust="spacing" textLength="42" x="1567" y="268.0283">&#171;uses&#187;</text><text fill="#000000" font-family="sans-serif" font-size="13" lengthAdjust="spacing" textLength="7" x="1531.157" y="244.5353">1</text><text fill="#000000" font-family="sans-serif" font-size="13" lengthAdjust="spacing" textLength="7" x="1581.905" y="290.8447">1</text></g><!--link AddActuatorToDeviceController to Room--><g id="link_AddActuatorToDeviceController_Room"><path codeLine="116" d="M1729.64,141.98 C1833.12,166.76 1940.49,213.74 2004,302 C2053.39,370.65 2036.7186,462.6498 2010.8386,535.0898 " fill="none" id="AddActuatorToDeviceController-to-Room" style="stroke:#181818;stroke-width:1.0;stroke-dasharray:7.0,7.0;"/><polygon fill="#181818" points="2008.82,540.74,2015.6147,533.6104,2010.5022,536.0315,2008.0811,530.9189,2008.82,540.74" style="stroke:#181818;stroke-width:1.0;"/><text fill="#000000" font-family="sans-serif" font-size="13" lengthAdjust="spacing" textLength="42" x="2036" y="387.5283">&#171;uses&#187;</text><text fill="#000000" font-family="sans-serif" font-size="13" lengthAdjust="spacing" textLength="7" x="1737.1875" y="139.5085">1</text><text fill="#000000" font-family="sans-serif" font-size="13" lengthAdjust="spacing" textLength="7" x="2004.8544" y="529.9032">1</text></g><!--link AddActuatorToDeviceController to Device--><g id="link_AddActuatorToDeviceController_Device"><path codeLine="117" d="M1729.63,161.92 C1880.63,193.22 2044.49,240.22 2087,302 C2192.97,456.01 2142.2651,681.2905 2098.7851,811.1405 " fill="none" id="AddActuatorToDeviceController-to-Device" style="stroke:#181818;stroke-width:1.0;stroke-dasharray:7.0,7.0;"/><polygon fill="#181818" points="2096.88,816.83,2103.5307,809.5658,2098.4676,812.0887,2095.9447,807.0257,2096.88,816.83" style="stroke:#181818;stroke-width:1.0;"/><text fill="#000000" font-family="sans-serif" font-size="13" lengthAdjust="spacing" textLength="42" x="2149" y="507.0283">&#171;uses&#187;</text><text fill="#000000" font-family="sans-serif" font-size="13" lengthAdjust="spacing" textLength="7" x="1737.1772" y="159.9782">1</text><text fill="#000000" font-family="sans-serif" font-size="13" lengthAdjust="spacing" textLength="7" x="2092.5122" y="805.6655">1</text></g><!--link AddActuatorToDeviceController to RoomAssembler--><g id="link_AddActuatorToDeviceController_RoomAssembler"><path codeLine="118" d="M1168.44,154.94 C962.92,186.46 678.22,236.38 433,302 C394.57,312.28 358.9388,324.1095 322.5288,337.3495 " fill="none" id="AddActuatorToDeviceController-to-RoomAssembler" style="stroke:#181818;stroke-width:1.0;stroke-dasharray:7.0,7.0;"/><polygon fill="#181818" points="316.89,339.4,326.7151,340.0835,321.589,337.6913,323.9812,332.5651,316.89,339.4" style="stroke:#181818;stroke-width:1.0;"/><text fill="#000000" font-family="sans-serif" font-size="13" lengthAdjust="spacing" textLength="42" x="626" y="268.0283">&#171;uses&#187;</text><text fill="#000000" font-family="sans-serif" font-size="13" lengthAdjust="spacing" textLength="7" x="1153.8947" y="152.8128">1</text><text fill="#000000" font-family="sans-serif" font-size="13" lengthAdjust="spacing" textLength="7" x="326.2084" y="328.2881">1</text></g><!--link AddActuatorToDeviceController to DeviceAssembler--><g id="link_AddActuatorToDeviceController_DeviceAssembler"><path codeLine="119" d="M1168.48,210.33 C1081.45,239.65 985.24,272.11 897,302 C861.23,314.12 828.0595,325.3852 792.5695,337.4752 " fill="none" id="AddActuatorToDeviceController-to-DeviceAssembler" style="stroke:#181818;stroke-width:1.0;stroke-dasharray:7.0,7.0;"/><polygon fill="#181818" points="786.89,339.41,796.6991,340.2942,791.6229,337.7977,794.1194,332.7215,786.89,339.41" style="stroke:#181818;stroke-width:1.0;"/><text fill="#000000" font-family="sans-serif" font-size="13" lengthAdjust="spacing" textLength="42" x="1035" y="268.0283">&#171;uses&#187;</text><text fill="#000000" font-family="sans-serif" font-size="13" lengthAdjust="spacing" textLength="7" x="1153.9357" y="209.6741">1</text><text fill="#000000" font-family="sans-serif" font-size="13" lengthAdjust="spacing" textLength="7" x="798.7584" y="328.2997">1</text></g><!--link AddActuatorToDeviceController to ActuatorAssembler--><g id="link_AddActuatorToDeviceController_ActuatorAssembler"><path codeLine="120" d="M1309.27,223.02 C1250.56,267.98 1191.3137,313.3621 1150.4137,344.6821 " fill="none" id="AddActuatorToDeviceController-to-ActuatorAssembler" style="stroke:#181818;stroke-width:1.0;stroke-dasharray:7.0,7.0;"/><polygon fill="#181818" points="1145.65,348.33,1155.2275,346.034,1149.6197,345.2901,1150.3636,339.6824,1145.65,348.33" style="stroke:#181818;stroke-width:1.0;"/><text fill="#000000" font-family="sans-serif" font-size="13" lengthAdjust="spacing" textLength="42" x="1267" y="268.0283">&#171;uses&#187;</text><text fill="#000000" font-family="sans-serif" font-size="13" lengthAdjust="spacing" textLength="7" x="1293.0943" y="244.5353">1</text><text fill="#000000" font-family="sans-serif" font-size="13" lengthAdjust="spacing" textLength="7" x="1146.3577" y="337.122">1</text></g><!--link RoomAssembler to RoomDTO--><g id="link_RoomAssembler_RoomDTO"><path codeLine="122" d="M211,424.62 C211,463.65 211,516.75 211,562.94 " fill="none" id="RoomAssembler-to-RoomDTO" style="stroke:#181818;stroke-width:1.0;stroke-dasharray:7.0,7.0;"/><polygon fill="#181818" points="211,568.94,215,559.94,211,563.94,207,559.94,211,568.94" style="stroke:#181818;stroke-width:1.0;"/><text fill="#000000" font-family="sans-serif" font-size="13" lengthAdjust="spacing" textLength="57" x="212" y="507.0283">&#171;creates&#187;</text><text fill="#000000" font-family="sans-serif" font-size="13" lengthAdjust="spacing" textLength="7" x="203.4422" y="446.7995">1</text><text fill="#000000" font-family="sans-serif" font-size="13" lengthAdjust="spacing" textLength="5" x="205.7422" y="557.8248">*</text></g><!--link DeviceAssembler to DeviceDTO--><g id="link_DeviceAssembler_DeviceDTO"><path codeLine="124" d="M665,424.62 C665,458.56 665,501.67 665,544.28 " fill="none" id="DeviceAssembler-to-DeviceDTO" style="stroke:#181818;stroke-width:1.0;stroke-dasharray:7.0,7.0;"/><polygon fill="#181818" points="665,550.28,669,541.28,665,545.28,661,541.28,665,550.28" style="stroke:#181818;stroke-width:1.0;"/><text fill="#000000" font-family="sans-serif" font-size="13" lengthAdjust="spacing" textLength="57" x="666" y="507.0283">&#171;creates&#187;</text><text fill="#000000" font-family="sans-serif" font-size="13" lengthAdjust="spacing" textLength="7" x="657.4422" y="446.7995">1</text><text fill="#000000" font-family="sans-serif" font-size="13" lengthAdjust="spacing" textLength="5" x="659.793" y="539.2135">*</text></g><!--link ActuatorAssembler to ActuatorDTO--><g id="link_ActuatorAssembler_ActuatorDTO"><path codeLine="126" d="M1103,415.62 C1103,458.94 1103,529.92 1103,581.1 " fill="none" id="ActuatorAssembler-to-ActuatorDTO" style="stroke:#181818;stroke-width:1.0;stroke-dasharray:7.0,7.0;"/><polygon fill="#181818" points="1103,587.1,1107,578.1,1103,582.1,1099,578.1,1103,587.1" style="stroke:#181818;stroke-width:1.0;"/><text fill="#000000" font-family="sans-serif" font-size="13" lengthAdjust="spacing" textLength="57" x="1104" y="507.0283">&#171;creates&#187;</text><text fill="#000000" font-family="sans-serif" font-size="13" lengthAdjust="spacing" textLength="7" x="1095.3766" y="437.2106">1</text><text fill="#000000" font-family="sans-serif" font-size="13" lengthAdjust="spacing" textLength="7" x="1095.5516" y="576.3529">1</text></g><!--link ActuatorFactory to GenericActuator--><g id="link_ActuatorFactory_GenericActuator"><path codeLine="128" d="M1949.86,1379.02 C1969.75,1402.71 1990.9915,1428.0052 2012.1115,1453.1552 " fill="none" id="ActuatorFactory-to-GenericActuator" style="stroke:#181818;stroke-width:1.0;stroke-dasharray:7.0,7.0;"/><polygon fill="#181818" points="2015.97,1457.75,2013.2454,1448.2855,2012.7546,1453.921,2007.1191,1453.4302,2015.97,1457.75" style="stroke:#181818;stroke-width:1.0;"/><text fill="#000000" font-family="sans-serif" font-size="13" lengthAdjust="spacing" textLength="57" x="1988" y="1424.0283">&#171;creates&#187;</text><text fill="#000000" font-family="sans-serif" font-size="13" lengthAdjust="spacing" textLength="7" x="1947.858" y="1401.1835">1</text><text fill="#000000" font-family="sans-serif" font-size="13" lengthAdjust="spacing" textLength="7" x="2002.7175" y="1446.6438">1</text></g><!--link House to Room--><g id="link_House_Room"><path codeLine="130" d="M1752.03,462.09 C1781.97,487.01 1810.7889,510.9811 1842.0789,537.0311 " fill="none" id="House-to-Room" style="stroke:#181818;stroke-width:1.0;"/><polygon fill="#181818" points="1846.69,540.87,1842.3326,532.0375,1842.8474,537.6709,1837.214,538.1857,1846.69,540.87" style="stroke:#181818;stroke-width:1.0;"/><text fill="#000000" font-family="sans-serif" font-size="13" lengthAdjust="spacing" textLength="35" x="1812" y="507.0283">&#171;has&#187;</text><text fill="#000000" font-family="sans-serif" font-size="13" lengthAdjust="spacing" textLength="7" x="1752.8959" y="483.7558">1</text><text fill="#000000" font-family="sans-serif" font-size="13" lengthAdjust="spacing" textLength="5" x="1832.517" y="529.7085">*</text></g><!--link Room to Device--><g id="link_Room_Device"><path codeLine="132" d="M1997.89,738.26 C2006.74,763.77 2014.3034,785.6014 2023.1534,811.1114 " fill="none" id="Room-to-Device" style="stroke:#181818;stroke-width:1.0;"/><polygon fill="#181818" points="2025.12,816.78,2025.9492,806.9661,2023.4812,812.0562,2018.3911,809.5882,2025.12,816.78" style="stroke:#181818;stroke-width:1.0;"/><text fill="#000000" font-family="sans-serif" font-size="13" lengthAdjust="spacing" textLength="35" x="2016" y="783.0283">&#171;has&#187;</text><text fill="#000000" font-family="sans-serif" font-size="13" lengthAdjust="spacing" textLength="7" x="1993.0268" y="759.8414">1</text><text fill="#000000" font-family="sans-serif" font-size="13" lengthAdjust="spacing" textLength="5" x="2017.3347" y="805.6116">*</text></g><!--link Device to GenericActuator--><g id="link_Device_GenericActuator"><path codeLine="134" d="M2132.4,1014.17 C2147.04,1038.69 2160.28,1065.8 2168,1093 C2173.74,1113.21 2173.05,1362.41 2167,1379 C2156.29,1408.36 2139.8758,1431.3776 2119.5858,1453.3976 " fill="none" id="Device-to-GenericActuator" style="stroke:#181818;stroke-width:1.0;"/><polygon fill="#181818" points="2115.52,1457.81,2124.5603,1453.9019,2118.9081,1454.133,2118.677,1448.4808,2115.52,1457.81" style="stroke:#181818;stroke-width:1.0;"/><text fill="#000000" font-family="sans-serif" font-size="13" lengthAdjust="spacing" textLength="35" x="2172" y="1260.0283">&#171;has&#187;</text><text fill="#000000" font-family="sans-serif" font-size="13" lengthAdjust="spacing" textLength="7" x="2130.5333" y="1036.0805">1</text><text fill="#000000" font-family="sans-serif" font-size="13" lengthAdjust="spacing" textLength="5" x="2117.7789" y="1446.7118">*</text></g><!--link Device to CatalogueActuator--><g id="link_Device_CatalogueActuator"><path codeLine="135" d="M1999.6,1014.06 C1983.33,1040.78 1969.2884,1063.824 1954.7184,1087.774 " fill="none" id="Device-to-CatalogueActuator" style="stroke:#181818;stroke-width:1.0;stroke-dasharray:7.0,7.0;"/><polygon fill="#181818" points="1951.6,1092.9,1959.6949,1087.29,1954.1987,1088.6284,1952.8603,1083.1321,1951.6,1092.9" style="stroke:#181818;stroke-width:1.0;"/><text fill="#000000" font-family="sans-serif" font-size="13" lengthAdjust="spacing" textLength="42" x="1980" y="1059.0283">&#171;uses&#187;</text><text fill="#000000" font-family="sans-serif" font-size="13" lengthAdjust="spacing" textLength="7" x="1987.9808" y="1035.9624">1</text><text fill="#000000" font-family="sans-serif" font-size="13" lengthAdjust="spacing" textLength="7" x="1948.4272" y="1081.8696">1</text></g><!--link GenericActuator to Actuator--><g id="link_GenericActuator_Actuator"><path codeLine="137" d="M2059,1562.42 C2059,1588.08 2059,1600.35 2059,1622.81 " fill="none" id="GenericActuator-to-Actuator" style="stroke:#181818;stroke-width:1.0;stroke-dasharray:7.0,7.0;"/><polygon fill="none" points="2059,1640.81,2065,1622.81,2053,1622.81,2059,1640.81" style="stroke:#181818;stroke-width:1.0;"/><text fill="#000000" font-family="sans-serif" font-size="13" lengthAdjust="spacing" textLength="81" x="2060" y="1607.0283">&#171;implements&#187;</text><text fill="#000000" font-family="sans-serif" font-size="13" lengthAdjust="spacing" textLength="7" x="2051.5734" y="1583.899">1</text><text fill="#000000" font-family="sans-serif" font-size="13" lengthAdjust="spacing" textLength="7" x="2051.3328" y="1629.8597">1</text></g><!--link CatalogueActuator to ActuatorFactory--><g id="link_CatalogueActuator_ActuatorFactory"><path codeLine="139" d="M1915,1215.1 C1915,1240.95 1915,1264.52 1915,1287.88 " fill="none" id="CatalogueActuator-to-ActuatorFactory" style="stroke:#181818;stroke-width:1.0;stroke-dasharray:7.0,7.0;"/><polygon fill="#181818" points="1915,1293.88,1919,1284.88,1915,1288.88,1911,1284.88,1915,1293.88" style="stroke:#181818;stroke-width:1.0;"/><text fill="#000000" font-family="sans-serif" font-size="13" lengthAdjust="spacing" textLength="42" x="1916" y="1260.0283">&#171;uses&#187;</text><text fill="#000000" font-family="sans-serif" font-size="13" lengthAdjust="spacing" textLength="7" x="1907.5734" y="1237.599">1</text><text fill="#000000" font-family="sans-serif" font-size="13" lengthAdjust="spacing" textLength="5" x="1909.6016" y="1282.765">*</text></g><!--SRC=[fLV9Rjim5BphAuZqK2cn4pH7mH1WH6WJe4kGxSv8Z4r04WsH2X2q_VTotxGqYo-YoBVC6puEvSzxnWuqFpixDB1ZGzkSLgGzgnf8wRh6SDV3DadaAzZMzRPY0sIaloCbUiOLkY0TwqdJeFvt0lXllIS3HJcu50yrKq466x8R-Eo56Pemog8dfANbtQzjLz-8OGv-mCD63Fda2eX1eInhcLJRAWJQMhr8UpKi4kboiWWwzU6km1BKJ270z04skEOXAEk7YYzi-ztGeexHjmJBmICX3OAT0hb3J5QUyeNlc39JV66NTR5fhnPoe2sCWwrVky1nsMbjR7BWqTMI6ZKvk6KzxdOyd77ZYmduQ_PUfDjIYjf7kzSdcmrbaE6gA41DMeYxS-uZ4LAlZ6Aw9j-PaVDI1fWgJumIYqC1VnsIsZI8nr0nHzWqdYdACZDsg0ndhyC5jRNZEgBTnfMjf4zMGtX7OT9zXQBhNdWPuOGxIzRYnhs4CPopTmBzFTE7H-PF_vTv1UQohe0YqAwL_cksqFn54hIUvg23BJAjgcQU6YA8n1tJ2e7vMQGS6tKvuwdOqZTnV5pLERY_loe3vGbxIR7qIG1CnzHceyERHUvHL_j5-ZMA7XfeA1bhoW6JtW2wbM-1Ibhy2eRM09_1p4HYF_bik9I3PuBhaPQaWLeiYzmAc4QtMx4D9xosdrUjnTFYA1obDyU6qsDZlXpi5lfpfjr7CT8dtA1hoFOJj3sBUm0ov5q5rv3VbeYXdgPygaIqwl51DOMbDTRzEMRVmjr8XxIDLg5eDjMDMVM8mt_Fpaxc_eOwrECgeXzwD3ilyMPP52aUn2C9uQRBrp5FVDLnhfzWXK2OzVKHdC9mtPqLcIMfY0Kea0vLa0ulBpSbZrbyz9UoJnx_w8pRrFxb6Uw0bGePkfXK4RtaAuQxI8rwP-D-S_0_iDypLwF8jlWH1uw-787Jqq8-BzKts6R37xGetk1v8tVd7OwbPkUTEUqtmmUIVop6wEl5Yv8449tRyP7fCc6if4JQHu02Zz9zJGK-8m2JyERzjB05Nf4SHPwoJQJTUksg4KPxQCiErjqkQmir4TXCv5J6dgt1Dz8Zd_Gea7Ry4_8X771xQ93yzo7SHZ43zhVnZUBoyTy_]--></g></svg>