<?xml version="1.0" encoding="us-ascii" standalone="no"?><svg xmlns="http://www.w3.org/2000/svg" xmlns:xlink="http://www.w3.org/1999/xlink" contentStyleType="text/css" height="1347px" preserveAspectRatio="none" style="width:2412px;height:1347px;background:#FFFFFF;" version="1.1" viewBox="0 0 2412 1347" width="2412px" zoomAndPan="magnify"><defs/><g><rect fill="#808080" height="1335.6211" style="stroke:#181818;stroke-width:0.5;" width="670.5" x="174" y="6"/><text fill="#000000" font-family="sans-serif" font-size="13" font-weight="bold" lengthAdjust="spacing" textLength="106" x="456.25" y="20.0283">Pure Fabrication</text><rect fill="#DDDDDD" height="1335.6211" style="stroke:#181818;stroke-width:0.5;" width="1038" x="846.5" y="6"/><text fill="#000000" font-family="sans-serif" font-size="13" font-weight="bold" lengthAdjust="spacing" textLength="49" x="1341" y="20.0283">Domain</text><rect fill="#808080" height="1335.6211" style="stroke:#181818;stroke-width:0.5;" width="520" x="1886.5" y="6"/><text fill="#000000" font-family="sans-serif" font-size="13" font-weight="bold" lengthAdjust="spacing" textLength="130" x="2081.5" y="20.0283">Data Transfer Object</text><rect fill="#FFFFFF" height="264.6582" style="stroke:#181818;stroke-width:1.0;" width="10" x="286" y="94.2031"/><rect fill="#FFFFFF" height="327.2402" style="stroke:#181818;stroke-width:1.0;" width="10" x="286" y="390.1523"/><rect fill="#FFFFFF" height="538.3164" style="stroke:#181818;stroke-width:1.0;" width="10" x="286" y="748.6836"/><rect fill="#FFFFFF" height="139.4941" style="stroke:#181818;stroke-width:1.0;" width="10" x="491" y="188.0762"/><rect fill="#FFFFFF" height="31.291" style="stroke:#181818;stroke-width:1.0;" width="10" x="491" y="421.4434"/><rect fill="#FFFFFF" height="139.4941" style="stroke:#181818;stroke-width:1.0;" width="10" x="625" y="546.6074"/><rect fill="#FFFFFF" height="31.291" style="stroke:#181818;stroke-width:1.0;" width="10" x="625" y="779.9746"/><rect fill="#FFFFFF" height="106.2031" style="stroke:#181818;stroke-width:1.0;" width="10" x="767" y="1149.5059"/><rect fill="#FFFFFF" height="31.291" style="stroke:#181818;stroke-width:1.0;" width="10" x="874.5" y="125.4941"/><rect fill="#FFFFFF" height="31.291" style="stroke:#181818;stroke-width:1.0;" width="10" x="957" y="484.0254"/><rect fill="#FFFFFF" height="275.6582" style="stroke:#181818;stroke-width:1.0;" width="10" x="1061.5" y="842.5566"/><rect fill="#FFFFFF" height="168.7852" style="stroke:#181818;stroke-width:1.0;" width="10" x="1317.5" y="873.8477"/><rect fill="#FFFFFF" height="106.2031" style="stroke:#181818;stroke-width:1.0;" width="10" x="1556.5" y="905.1387"/><rect fill="#FFFFFF" height="33.6211" style="stroke:#181818;stroke-width:1.0;" width="10" x="1814" y="946.4297"/><rect fill="#FFFFFF" height="33.6211" style="stroke:#181818;stroke-width:1.0;" width="10" x="1959" y="255.6582"/><rect fill="#FFFFFF" height="33.6211" style="stroke:#181818;stroke-width:1.0;" width="10" x="2123.5" y="614.1895"/><rect fill="#FFFFFF" height="33.6211" style="stroke:#181818;stroke-width:1.0;" width="10" x="2306" y="1190.7969"/><rect fill="none" height="94.2031" style="stroke:#000000;stroke-width:1.5;" width="1622" x="425.5" y="203.0762"/><rect fill="none" height="94.2031" style="stroke:#000000;stroke-width:1.5;" width="1663" x="556.5" y="561.6074"/><line style="stroke:#181818;stroke-width:0.5;stroke-dasharray:5.0,5.0;" x1="14" x2="14" y1="60.9121" y2="1305"/><line style="stroke:#181818;stroke-width:0.5;stroke-dasharray:5.0,5.0;" x1="291" x2="291" y1="60.9121" y2="1305"/><line style="stroke:#181818;stroke-width:0.5;stroke-dasharray:5.0,5.0;" x1="495.5" x2="495.5" y1="60.9121" y2="1305"/><line style="stroke:#181818;stroke-width:0.5;stroke-dasharray:5.0,5.0;" x1="629.5" x2="629.5" y1="60.9121" y2="1305"/><line style="stroke:#181818;stroke-width:0.5;stroke-dasharray:5.0,5.0;" x1="771.5" x2="771.5" y1="60.9121" y2="1305"/><line style="stroke:#181818;stroke-width:0.5;stroke-dasharray:5.0,5.0;" x1="879.5" x2="879.5" y1="60.9121" y2="1305"/><line style="stroke:#181818;stroke-width:0.5;stroke-dasharray:5.0,5.0;" x1="961.5" x2="961.5" y1="60.9121" y2="1305"/><line style="stroke:#181818;stroke-width:0.5;stroke-dasharray:5.0,5.0;" x1="1066.5" x2="1066.5" y1="60.9121" y2="1305"/><line style="stroke:#181818;stroke-width:0.5;stroke-dasharray:5.0,5.0;" x1="1322.5" x2="1322.5" y1="60.9121" y2="1305"/><line style="stroke:#181818;stroke-width:0.5;stroke-dasharray:5.0,5.0;" x1="1561" x2="1561" y1="60.9121" y2="1305"/><line style="stroke:#181818;stroke-width:0.5;stroke-dasharray:5.0,5.0;" x1="1818.5" x2="1818.5" y1="944.9492" y2="1305"/><line style="stroke:#181818;stroke-width:0.5;stroke-dasharray:5.0,5.0;" x1="1963.5" x2="1963.5" y1="254.1777" y2="1305"/><line style="stroke:#181818;stroke-width:0.5;stroke-dasharray:5.0,5.0;" x1="2128.5" x2="2128.5" y1="612.709" y2="1305"/><line style="stroke:#181818;stroke-width:0.5;stroke-dasharray:5.0,5.0;" x1="2310.5" x2="2310.5" y1="1189.3164" y2="1305"/><rect fill="#E2E2F0" height="32.6211" rx="2.5" ry="2.5" style="stroke:#181818;stroke-width:0.5;" width="18" x="5" y="27.291"/><text fill="#000000" font-family="sans-serif" font-size="14" lengthAdjust="spacing" textLength="4" x="12" y="49.3984">&#160;</text><rect fill="#E2E2F0" height="32.6211" rx="2.5" ry="2.5" style="stroke:#181818;stroke-width:0.5;" width="18" x="5" y="1304"/><text fill="#000000" font-family="sans-serif" font-size="14" lengthAdjust="spacing" textLength="4" x="12" y="1326.1074">&#160;</text><rect fill="#E2E2F0" height="32.6211" rx="2.5" ry="2.5" style="stroke:#181818;stroke-width:0.5;" width="226" x="178" y="27.291"/><text fill="#000000" font-family="sans-serif" font-size="14" lengthAdjust="spacing" textLength="212" x="185" y="49.3984">:AddActuatorToDevice_Controller</text><rect fill="#E2E2F0" height="32.6211" rx="2.5" ry="2.5" style="stroke:#181818;stroke-width:0.5;" width="226" x="178" y="1304"/><text fill="#000000" font-family="sans-serif" font-size="14" lengthAdjust="spacing" textLength="212" x="185" y="1326.1074">:AddActuatorToDevice_Controller</text><rect fill="#E2E2F0" height="32.6211" rx="2.5" ry="2.5" style="stroke:#181818;stroke-width:0.5;" width="121" x="435.5" y="27.291"/><text fill="#000000" font-family="sans-serif" font-size="14" lengthAdjust="spacing" textLength="107" x="442.5" y="49.3984">:RoomAssembler</text><rect fill="#E2E2F0" height="32.6211" rx="2.5" ry="2.5" style="stroke:#181818;stroke-width:0.5;" width="121" x="435.5" y="1304"/><text fill="#000000" font-family="sans-serif" font-size="14" lengthAdjust="spacing" textLength="107" x="442.5" y="1326.1074">:RoomAssembler</text><rect fill="#E2E2F0" height="32.6211" rx="2.5" ry="2.5" style="stroke:#181818;stroke-width:0.5;" width="127" x="566.5" y="27.291"/><text fill="#000000" font-family="sans-serif" font-size="14" lengthAdjust="spacing" textLength="113" x="573.5" y="49.3984">:DeviceAssembler</text><rect fill="#E2E2F0" height="32.6211" rx="2.5" ry="2.5" style="stroke:#181818;stroke-width:0.5;" width="127" x="566.5" y="1304"/><text fill="#000000" font-family="sans-serif" font-size="14" lengthAdjust="spacing" textLength="113" x="573.5" y="1326.1074">:DeviceAssembler</text><rect fill="#E2E2F0" height="32.6211" rx="2.5" ry="2.5" style="stroke:#181818;stroke-width:0.5;" width="137" x="703.5" y="27.291"/><text fill="#000000" font-family="sans-serif" font-size="14" lengthAdjust="spacing" textLength="123" x="710.5" y="49.3984">:ActuatorAssembler</text><rect fill="#E2E2F0" height="32.6211" rx="2.5" ry="2.5" style="stroke:#181818;stroke-width:0.5;" width="137" x="703.5" y="1304"/><text fill="#000000" font-family="sans-serif" font-size="14" lengthAdjust="spacing" textLength="123" x="710.5" y="1326.1074">:ActuatorAssembler</text><rect fill="#E2E2F0" height="32.6211" rx="2.5" ry="2.5" style="stroke:#181818;stroke-width:0.5;" width="58" x="850.5" y="27.291"/><text fill="#000000" font-family="sans-serif" font-size="14" lengthAdjust="spacing" textLength="44" x="857.5" y="49.3984">:House</text><rect fill="#E2E2F0" height="32.6211" rx="2.5" ry="2.5" style="stroke:#181818;stroke-width:0.5;" width="58" x="850.5" y="1304"/><text fill="#000000" font-family="sans-serif" font-size="14" lengthAdjust="spacing" textLength="44" x="857.5" y="1326.1074">:House</text><rect fill="#E2E2F0" height="32.6211" rx="2.5" ry="2.5" style="stroke:#181818;stroke-width:0.5;" width="87" x="918.5" y="27.291"/><text fill="#000000" font-family="sans-serif" font-size="14" lengthAdjust="spacing" textLength="73" x="925.5" y="49.3984">room:Room</text><rect fill="#E2E2F0" height="32.6211" rx="2.5" ry="2.5" style="stroke:#181818;stroke-width:0.5;" width="87" x="918.5" y="1304"/><text fill="#000000" font-family="sans-serif" font-size="14" lengthAdjust="spacing" textLength="73" x="925.5" y="1326.1074">room:Room</text><rect fill="#E2E2F0" height="32.6211" rx="2.5" ry="2.5" style="stroke:#181818;stroke-width:0.5;" width="102" x="1015.5" y="27.291"/><text fill="#000000" font-family="sans-serif" font-size="14" lengthAdjust="spacing" textLength="88" x="1022.5" y="49.3984">device:Device</text><rect fill="#E2E2F0" height="32.6211" rx="2.5" ry="2.5" style="stroke:#181818;stroke-width:0.5;" width="102" x="1015.5" y="1304"/><text fill="#000000" font-family="sans-serif" font-size="14" lengthAdjust="spacing" textLength="88" x="1022.5" y="1326.1074">device:Device</text><rect fill="#E2E2F0" height="32.6211" rx="2.5" ry="2.5" style="stroke:#181818;stroke-width:0.5;" width="198" x="1223.5" y="27.291"/><text fill="#000000" font-family="sans-serif" font-size="14" lengthAdjust="spacing" textLength="184" x="1230.5" y="49.3984">catalogue:ActuatorCatalogue</text><rect fill="#E2E2F0" height="32.6211" rx="2.5" ry="2.5" style="stroke:#181818;stroke-width:0.5;" width="198" x="1223.5" y="1304"/><text fill="#000000" font-family="sans-serif" font-size="14" lengthAdjust="spacing" textLength="184" x="1230.5" y="1326.1074">catalogue:ActuatorCatalogue</text><rect fill="#E2E2F0" height="32.6211" rx="2.5" ry="2.5" style="stroke:#181818;stroke-width:0.5;" width="219" x="1452" y="27.291"/><text fill="#000000" font-family="sans-serif" font-size="14" lengthAdjust="spacing" textLength="205" x="1459" y="49.3984">actuatorFactory:ActuatorFactory</text><rect fill="#E2E2F0" height="32.6211" rx="2.5" ry="2.5" style="stroke:#181818;stroke-width:0.5;" width="219" x="1452" y="1304"/><text fill="#000000" font-family="sans-serif" font-size="14" lengthAdjust="spacing" textLength="205" x="1459" y="1326.1074">actuatorFactory:ActuatorFactory</text><rect fill="#E2E2F0" height="32.6211" rx="2.5" ry="2.5" style="stroke:#181818;stroke-width:0.5;" width="123" x="1757.5" y="1304"/><text fill="#000000" font-family="sans-serif" font-size="14" lengthAdjust="spacing" textLength="109" x="1764.5" y="1326.1074">actuator:Actuator</text><rect fill="#E2E2F0" height="32.6211" rx="2.5" ry="2.5" style="stroke:#181818;stroke-width:0.5;" width="147" x="1890.5" y="1304"/><text fill="#000000" font-family="sans-serif" font-size="14" lengthAdjust="spacing" textLength="133" x="1897.5" y="1326.1074">roomDTO:RoomDTO</text><rect fill="#E2E2F0" height="32.6211" rx="2.5" ry="2.5" style="stroke:#181818;stroke-width:0.5;" width="162" x="2047.5" y="1304"/><text fill="#000000" font-family="sans-serif" font-size="14" lengthAdjust="spacing" textLength="148" x="2054.5" y="1326.1074">deviceDTO:DeviceDTO</text><rect fill="#E2E2F0" height="32.6211" rx="2.5" ry="2.5" style="stroke:#181818;stroke-width:0.5;" width="183" x="2219.5" y="1304"/><text fill="#000000" font-family="sans-serif" font-size="14" lengthAdjust="spacing" textLength="169" x="2226.5" y="1326.1074">actuatorDTO:ActuatorDTO</text><rect fill="#FFFFFF" height="264.6582" style="stroke:#181818;stroke-width:1.0;" width="10" x="286" y="94.2031"/><rect fill="#FFFFFF" height="327.2402" style="stroke:#181818;stroke-width:1.0;" width="10" x="286" y="390.1523"/><rect fill="#FFFFFF" height="538.3164" style="stroke:#181818;stroke-width:1.0;" width="10" x="286" y="748.6836"/><rect fill="#FFFFFF" height="139.4941" style="stroke:#181818;stroke-width:1.0;" width="10" x="491" y="188.0762"/><rect fill="#FFFFFF" height="31.291" style="stroke:#181818;stroke-width:1.0;" width="10" x="491" y="421.4434"/><rect fill="#FFFFFF" height="139.4941" style="stroke:#181818;stroke-width:1.0;" width="10" x="625" y="546.6074"/><rect fill="#FFFFFF" height="31.291" style="stroke:#181818;stroke-width:1.0;" width="10" x="625" y="779.9746"/><rect fill="#FFFFFF" height="106.2031" style="stroke:#181818;stroke-width:1.0;" width="10" x="767" y="1149.5059"/><rect fill="#FFFFFF" height="31.291" style="stroke:#181818;stroke-width:1.0;" width="10" x="874.5" y="125.4941"/><rect fill="#FFFFFF" height="31.291" style="stroke:#181818;stroke-width:1.0;" width="10" x="957" y="484.0254"/><rect fill="#FFFFFF" height="275.6582" style="stroke:#181818;stroke-width:1.0;" width="10" x="1061.5" y="842.5566"/><rect fill="#FFFFFF" height="168.7852" style="stroke:#181818;stroke-width:1.0;" width="10" x="1317.5" y="873.8477"/><rect fill="#FFFFFF" height="106.2031" style="stroke:#181818;stroke-width:1.0;" width="10" x="1556.5" y="905.1387"/><rect fill="#FFFFFF" height="33.6211" style="stroke:#181818;stroke-width:1.0;" width="10" x="1814" y="946.4297"/><rect fill="#FFFFFF" height="33.6211" style="stroke:#181818;stroke-width:1.0;" width="10" x="1959" y="255.6582"/><rect fill="#FFFFFF" height="33.6211" style="stroke:#181818;stroke-width:1.0;" width="10" x="2123.5" y="614.1895"/><rect fill="#FFFFFF" height="33.6211" style="stroke:#181818;stroke-width:1.0;" width="10" x="2306" y="1190.7969"/><ellipse cx="13.5" cy="93.4531" fill="none" rx="4" ry="4" style="stroke:#181818;stroke-width:1.5;"/><polygon fill="#181818" points="274,90.2031,284,94.2031,274,98.2031,278,94.2031" style="stroke:#181818;stroke-width:1.0;"/><line style="stroke:#181818;stroke-width:1.0;" x1="18" x2="280" y1="94.2031" y2="94.2031"/><text fill="#000000" font-family="sans-serif" font-size="13" font-weight="bold" lengthAdjust="spacing" textLength="7" x="21" y="88.9404">1</text><text fill="#000000" font-family="sans-serif" font-size="13" lengthAdjust="spacing" textLength="67" x="32" y="88.9404">getRooms()</text><polygon fill="#181818" points="862.5,121.4941,872.5,125.4941,862.5,129.4941,866.5,125.4941" style="stroke:#181818;stroke-width:1.0;"/><line style="stroke:#181818;stroke-width:1.0;" x1="296" x2="868.5" y1="125.4941" y2="125.4941"/><text fill="#000000" font-family="sans-serif" font-size="13" font-weight="bold" lengthAdjust="spacing" textLength="7" x="303" y="120.2314">2</text><text fill="#000000" font-family="sans-serif" font-size="13" lengthAdjust="spacing" textLength="67" x="314" y="120.2314">getRooms()</text><polygon fill="#181818" points="307,152.7852,297,156.7852,307,160.7852,303,156.7852" style="stroke:#181818;stroke-width:1.0;"/><line style="stroke:#181818;stroke-width:1.0;stroke-dasharray:2.0,2.0;" x1="301" x2="878.5" y1="156.7852" y2="156.7852"/><text fill="#000000" font-family="sans-serif" font-size="13" font-weight="bold" lengthAdjust="spacing" textLength="7" x="313" y="151.5225">3</text><text fill="#000000" font-family="sans-serif" font-size="13" lengthAdjust="spacing" textLength="82" x="324" y="151.5225">copyOfRooms</text><polygon fill="#181818" points="479,184.0762,489,188.0762,479,192.0762,483,188.0762" style="stroke:#181818;stroke-width:1.0;"/><line style="stroke:#181818;stroke-width:1.0;" x1="296" x2="485" y1="188.0762" y2="188.0762"/><text fill="#000000" font-family="sans-serif" font-size="13" font-weight="bold" lengthAdjust="spacing" textLength="7" x="303" y="182.8135">4</text><text fill="#000000" font-family="sans-serif" font-size="13" lengthAdjust="spacing" textLength="165" x="314" y="182.8135">domain2DTO(copyOfRooms)</text><path d="M425.5,203.0762 L498.5,203.0762 L498.5,212.3672 L488.5,222.3672 L425.5,222.3672 L425.5,203.0762 " fill="#EEEEEE" style="stroke:#000000;stroke-width:1.5;"/><rect fill="none" height="94.2031" style="stroke:#000000;stroke-width:1.5;" width="1622" x="425.5" y="203.0762"/><text fill="#000000" font-family="sans-serif" font-size="13" font-weight="bold" lengthAdjust="spacing" textLength="28" x="440.5" y="218.1045">loop</text><text fill="#000000" font-family="sans-serif" font-size="11" font-weight="bold" lengthAdjust="spacing" textLength="179" x="513.5" y="216.9463">[for each room in copyOfRooms]</text><polygon fill="#181818" points="1878.5,241.6582,1888.5,245.6582,1878.5,249.6582,1882.5,245.6582" style="stroke:#181818;stroke-width:1.0;"/><line style="stroke:#181818;stroke-width:1.0;" x1="501" x2="1884.5" y1="245.6582" y2="245.6582"/><text fill="#000000" font-family="sans-serif" font-size="13" font-weight="bold" lengthAdjust="spacing" textLength="7" x="508" y="240.3955">5</text><text fill="#000000" font-family="sans-serif" font-size="13" lengthAdjust="spacing" textLength="133" x="519" y="240.3955">createRoomDTO(room)</text><rect fill="#E2E2F0" height="32.6211" rx="2.5" ry="2.5" style="stroke:#181818;stroke-width:0.5;" width="147" x="1890.5" y="222.3672"/><text fill="#000000" font-family="sans-serif" font-size="14" lengthAdjust="spacing" textLength="133" x="1897.5" y="244.4746">roomDTO:RoomDTO</text><polygon fill="#181818" points="512,285.2793,502,289.2793,512,293.2793,508,289.2793" style="stroke:#181818;stroke-width:1.0;"/><line style="stroke:#181818;stroke-width:1.0;stroke-dasharray:2.0,2.0;" x1="506" x2="1963" y1="289.2793" y2="289.2793"/><text fill="#000000" font-family="sans-serif" font-size="13" font-weight="bold" lengthAdjust="spacing" textLength="7" x="518" y="284.0166">6</text><text fill="#000000" font-family="sans-serif" font-size="13" lengthAdjust="spacing" textLength="55" x="529" y="284.0166">roomDTO</text><polygon fill="#181818" points="307,323.5703,297,327.5703,307,331.5703,303,327.5703" style="stroke:#181818;stroke-width:1.0;"/><line style="stroke:#181818;stroke-width:1.0;stroke-dasharray:2.0,2.0;" x1="301" x2="495" y1="327.5703" y2="327.5703"/><text fill="#000000" font-family="sans-serif" font-size="13" font-weight="bold" lengthAdjust="spacing" textLength="7" x="313" y="322.3076">7</text><text fill="#000000" font-family="sans-serif" font-size="13" lengthAdjust="spacing" textLength="62" x="324" y="322.3076">roomsDTO</text><polygon fill="#181818" points="25,354.8613,15,358.8613,25,362.8613,21,358.8613" style="stroke:#181818;stroke-width:1.0;"/><line style="stroke:#181818;stroke-width:1.0;stroke-dasharray:2.0,2.0;" x1="19" x2="290" y1="358.8613" y2="358.8613"/><text fill="#000000" font-family="sans-serif" font-size="13" font-weight="bold" lengthAdjust="spacing" textLength="7" x="31" y="353.5986">8</text><text fill="#000000" font-family="sans-serif" font-size="13" lengthAdjust="spacing" textLength="62" x="42" y="353.5986">roomsDTO</text><ellipse cx="13.5" cy="389.4023" fill="none" rx="4" ry="4" style="stroke:#181818;stroke-width:1.5;"/><polygon fill="#181818" points="274,386.1523,284,390.1523,274,394.1523,278,390.1523" style="stroke:#181818;stroke-width:1.0;"/><line style="stroke:#181818;stroke-width:1.0;" x1="18" x2="280" y1="390.1523" y2="390.1523"/><text fill="#000000" font-family="sans-serif" font-size="13" font-weight="bold" lengthAdjust="spacing" textLength="7" x="21" y="384.8896">9</text><text fill="#000000" font-family="sans-serif" font-size="13" lengthAdjust="spacing" textLength="126" x="32" y="384.8896">getDevices(roomDTO)</text><polygon fill="#181818" points="479,417.4434,489,421.4434,479,425.4434,483,421.4434" style="stroke:#181818;stroke-width:1.0;"/><line style="stroke:#181818;stroke-width:1.0;" x1="296" x2="485" y1="421.4434" y2="421.4434"/><text fill="#000000" font-family="sans-serif" font-size="13" font-weight="bold" lengthAdjust="spacing" textLength="14" x="303" y="416.1807">10</text><text fill="#000000" font-family="sans-serif" font-size="13" lengthAdjust="spacing" textLength="132" x="321" y="416.1807">dto2Domain(roomDTO)</text><polygon fill="#181818" points="307,448.7344,297,452.7344,307,456.7344,303,452.7344" style="stroke:#181818;stroke-width:1.0;"/><line style="stroke:#181818;stroke-width:1.0;stroke-dasharray:2.0,2.0;" x1="301" x2="495" y1="452.7344" y2="452.7344"/><text fill="#000000" font-family="sans-serif" font-size="13" font-weight="bold" lengthAdjust="spacing" textLength="14" x="313" y="447.4717">11</text><text fill="#000000" font-family="sans-serif" font-size="13" lengthAdjust="spacing" textLength="29" x="331" y="447.4717">room</text><polygon fill="#181818" points="945,480.0254,955,484.0254,945,488.0254,949,484.0254" style="stroke:#181818;stroke-width:1.0;"/><line style="stroke:#181818;stroke-width:1.0;" x1="296" x2="951" y1="484.0254" y2="484.0254"/><text fill="#000000" font-family="sans-serif" font-size="13" font-weight="bold" lengthAdjust="spacing" textLength="14" x="303" y="478.7627">12</text><text fill="#000000" font-family="sans-serif" font-size="13" lengthAdjust="spacing" textLength="71" x="321" y="478.7627">getDevices()</text><polygon fill="#181818" points="307,511.3164,297,515.3164,307,519.3164,303,515.3164" style="stroke:#181818;stroke-width:1.0;"/><line style="stroke:#181818;stroke-width:1.0;stroke-dasharray:2.0,2.0;" x1="301" x2="961" y1="515.3164" y2="515.3164"/><text fill="#000000" font-family="sans-serif" font-size="13" font-weight="bold" lengthAdjust="spacing" textLength="14" x="313" y="510.0537">13</text><text fill="#000000" font-family="sans-serif" font-size="13" lengthAdjust="spacing" textLength="86" x="331" y="510.0537">copyOfDevices</text><polygon fill="#181818" points="613,542.6074,623,546.6074,613,550.6074,617,546.6074" style="stroke:#181818;stroke-width:1.0;"/><line style="stroke:#181818;stroke-width:1.0;" x1="296" x2="619" y1="546.6074" y2="546.6074"/><text fill="#000000" font-family="sans-serif" font-size="13" font-weight="bold" lengthAdjust="spacing" textLength="14" x="303" y="541.3447">14</text><text fill="#000000" font-family="sans-serif" font-size="13" lengthAdjust="spacing" textLength="169" x="321" y="541.3447">domain2DTO(copyOfDevices)</text><path d="M556.5,561.6074 L629.5,561.6074 L629.5,570.8984 L619.5,580.8984 L556.5,580.8984 L556.5,561.6074 " fill="#EEEEEE" style="stroke:#000000;stroke-width:1.5;"/><rect fill="none" height="94.2031" style="stroke:#000000;stroke-width:1.5;" width="1663" x="556.5" y="561.6074"/><text fill="#000000" font-family="sans-serif" font-size="13" font-weight="bold" lengthAdjust="spacing" textLength="28" x="571.5" y="576.6357">loop</text><text fill="#000000" font-family="sans-serif" font-size="11" font-weight="bold" lengthAdjust="spacing" textLength="189" x="644.5" y="575.4775">[for each device in copyOfDevices]</text><polygon fill="#181818" points="2035.5,600.1895,2045.5,604.1895,2035.5,608.1895,2039.5,604.1895" style="stroke:#181818;stroke-width:1.0;"/><line style="stroke:#181818;stroke-width:1.0;" x1="635" x2="2041.5" y1="604.1895" y2="604.1895"/><text fill="#000000" font-family="sans-serif" font-size="13" font-weight="bold" lengthAdjust="spacing" textLength="14" x="642" y="598.9268">15</text><text fill="#000000" font-family="sans-serif" font-size="13" lengthAdjust="spacing" textLength="144" x="660" y="598.9268">createDeviceDTO(device)</text><rect fill="#E2E2F0" height="32.6211" rx="2.5" ry="2.5" style="stroke:#181818;stroke-width:0.5;" width="162" x="2047.5" y="580.8984"/><text fill="#000000" font-family="sans-serif" font-size="14" lengthAdjust="spacing" textLength="148" x="2054.5" y="603.0059">deviceDTO:DeviceDTO</text><polygon fill="#181818" points="646,643.8105,636,647.8105,646,651.8105,642,647.8105" style="stroke:#181818;stroke-width:1.0;"/><line style="stroke:#181818;stroke-width:1.0;stroke-dasharray:2.0,2.0;" x1="640" x2="2127.5" y1="647.8105" y2="647.8105"/><text fill="#000000" font-family="sans-serif" font-size="13" font-weight="bold" lengthAdjust="spacing" textLength="14" x="652" y="642.5479">16</text><text fill="#000000" font-family="sans-serif" font-size="13" lengthAdjust="spacing" textLength="62" x="670" y="642.5479">deviceDTO</text><polygon fill="#181818" points="307,682.1016,297,686.1016,307,690.1016,303,686.1016" style="stroke:#181818;stroke-width:1.0;"/><line style="stroke:#181818;stroke-width:1.0;stroke-dasharray:2.0,2.0;" x1="301" x2="629" y1="686.1016" y2="686.1016"/><text fill="#000000" font-family="sans-serif" font-size="13" font-weight="bold" lengthAdjust="spacing" textLength="14" x="313" y="680.8389">17</text><text fill="#000000" font-family="sans-serif" font-size="13" lengthAdjust="spacing" textLength="69" x="331" y="680.8389">devicesDTO</text><polygon fill="#181818" points="25,713.3926,15,717.3926,25,721.3926,21,717.3926" style="stroke:#181818;stroke-width:1.0;"/><line style="stroke:#181818;stroke-width:1.0;stroke-dasharray:2.0,2.0;" x1="19" x2="290" y1="717.3926" y2="717.3926"/><text fill="#000000" font-family="sans-serif" font-size="13" font-weight="bold" lengthAdjust="spacing" textLength="14" x="31" y="712.1299">18</text><text fill="#000000" font-family="sans-serif" font-size="13" lengthAdjust="spacing" textLength="69" x="49" y="712.1299">devicesDTO</text><ellipse cx="13.5" cy="747.9336" fill="none" rx="4" ry="4" style="stroke:#181818;stroke-width:1.5;"/><polygon fill="#181818" points="274,744.6836,284,748.6836,274,752.6836,278,748.6836" style="stroke:#181818;stroke-width:1.0;"/><line style="stroke:#181818;stroke-width:1.0;" x1="18" x2="280" y1="748.6836" y2="748.6836"/><text fill="#000000" font-family="sans-serif" font-size="13" font-weight="bold" lengthAdjust="spacing" textLength="14" x="21" y="743.4209">19</text><text fill="#000000" font-family="sans-serif" font-size="13" lengthAdjust="spacing" textLength="235" x="39" y="743.4209">addActuatorToDevice(deviceDTO, model)</text><polygon fill="#181818" points="613,775.9746,623,779.9746,613,783.9746,617,779.9746" style="stroke:#181818;stroke-width:1.0;"/><line style="stroke:#181818;stroke-width:1.0;" x1="296" x2="619" y1="779.9746" y2="779.9746"/><text fill="#000000" font-family="sans-serif" font-size="13" font-weight="bold" lengthAdjust="spacing" textLength="14" x="303" y="774.7119">20</text><text fill="#000000" font-family="sans-serif" font-size="13" lengthAdjust="spacing" textLength="139" x="321" y="774.7119">dto2Domain(deviceDTO)</text><polygon fill="#181818" points="307,807.2656,297,811.2656,307,815.2656,303,811.2656" style="stroke:#181818;stroke-width:1.0;"/><line style="stroke:#181818;stroke-width:1.0;stroke-dasharray:2.0,2.0;" x1="301" x2="629" y1="811.2656" y2="811.2656"/><text fill="#000000" font-family="sans-serif" font-size="13" font-weight="bold" lengthAdjust="spacing" textLength="14" x="313" y="806.0029">21</text><text fill="#000000" font-family="sans-serif" font-size="13" lengthAdjust="spacing" textLength="36" x="331" y="806.0029">device</text><polygon fill="#181818" points="1049.5,838.5566,1059.5,842.5566,1049.5,846.5566,1053.5,842.5566" style="stroke:#181818;stroke-width:1.0;"/><line style="stroke:#181818;stroke-width:1.0;" x1="296" x2="1055.5" y1="842.5566" y2="842.5566"/><text fill="#000000" font-family="sans-serif" font-size="13" font-weight="bold" lengthAdjust="spacing" textLength="14" x="303" y="837.2939">22</text><text fill="#000000" font-family="sans-serif" font-size="13" lengthAdjust="spacing" textLength="276" x="321" y="837.2939">addActuator(model, catalogue, actuatorFactory)</text><polygon fill="#181818" points="1305.5,869.8477,1315.5,873.8477,1305.5,877.8477,1309.5,873.8477" style="stroke:#181818;stroke-width:1.0;"/><line style="stroke:#181818;stroke-width:1.0;stroke-dasharray:2.0,2.0;" x1="1071.5" x2="1311.5" y1="873.8477" y2="873.8477"/><text fill="#000000" font-family="sans-serif" font-size="13" font-weight="bold" lengthAdjust="spacing" textLength="14" x="1078.5" y="868.585">23</text><text fill="#000000" font-family="sans-serif" font-size="13" lengthAdjust="spacing" textLength="209" x="1096.5" y="868.585">getActuator(model, actuatorFactory)</text><polygon fill="#181818" points="1544.5,901.1387,1554.5,905.1387,1544.5,909.1387,1548.5,905.1387" style="stroke:#181818;stroke-width:1.0;"/><line style="stroke:#181818;stroke-width:1.0;stroke-dasharray:2.0,2.0;" x1="1327.5" x2="1550.5" y1="905.1387" y2="905.1387"/><text fill="#000000" font-family="sans-serif" font-size="13" font-weight="bold" lengthAdjust="spacing" textLength="14" x="1334.5" y="899.876">24</text><text fill="#000000" font-family="sans-serif" font-size="13" lengthAdjust="spacing" textLength="192" x="1352.5" y="899.876">createActuator(model, catalogue)</text><polygon fill="#181818" points="1745.5,932.4297,1755.5,936.4297,1745.5,940.4297,1749.5,936.4297" style="stroke:#181818;stroke-width:1.0;"/><line style="stroke:#181818;stroke-width:1.0;" x1="1566.5" x2="1751.5" y1="936.4297" y2="936.4297"/><text fill="#000000" font-family="sans-serif" font-size="13" font-weight="bold" lengthAdjust="spacing" textLength="14" x="1573.5" y="931.167">25</text><text fill="#000000" font-family="sans-serif" font-size="13" lengthAdjust="spacing" textLength="149" x="1591.5" y="931.167">createActuator(catalogue)</text><rect fill="#E2E2F0" height="32.6211" rx="2.5" ry="2.5" style="stroke:#181818;stroke-width:0.5;" width="123" x="1757.5" y="913.1387"/><text fill="#000000" font-family="sans-serif" font-size="14" lengthAdjust="spacing" textLength="109" x="1764.5" y="935.2461">actuator:Actuator</text><polygon fill="#181818" points="1577.5,976.0508,1567.5,980.0508,1577.5,984.0508,1573.5,980.0508" style="stroke:#181818;stroke-width:1.0;"/><line style="stroke:#181818;stroke-width:1.0;stroke-dasharray:2.0,2.0;" x1="1571.5" x2="1818" y1="980.0508" y2="980.0508"/><text fill="#000000" font-family="sans-serif" font-size="13" font-weight="bold" lengthAdjust="spacing" textLength="14" x="1583.5" y="974.7881">26</text><text fill="#000000" font-family="sans-serif" font-size="13" lengthAdjust="spacing" textLength="47" x="1601.5" y="974.7881">actuator</text><polygon fill="#181818" points="1338.5,1007.3418,1328.5,1011.3418,1338.5,1015.3418,1334.5,1011.3418" style="stroke:#181818;stroke-width:1.0;"/><line style="stroke:#181818;stroke-width:1.0;stroke-dasharray:2.0,2.0;" x1="1332.5" x2="1560.5" y1="1011.3418" y2="1011.3418"/><text fill="#000000" font-family="sans-serif" font-size="13" font-weight="bold" lengthAdjust="spacing" textLength="14" x="1344.5" y="1006.0791">27</text><text fill="#000000" font-family="sans-serif" font-size="13" lengthAdjust="spacing" textLength="47" x="1362.5" y="1006.0791">actuator</text><polygon fill="#181818" points="1082.5,1038.6328,1072.5,1042.6328,1082.5,1046.6328,1078.5,1042.6328" style="stroke:#181818;stroke-width:1.0;"/><line style="stroke:#181818;stroke-width:1.0;stroke-dasharray:2.0,2.0;" x1="1076.5" x2="1321.5" y1="1042.6328" y2="1042.6328"/><text fill="#000000" font-family="sans-serif" font-size="13" font-weight="bold" lengthAdjust="spacing" textLength="14" x="1088.5" y="1037.3701">28</text><text fill="#000000" font-family="sans-serif" font-size="13" lengthAdjust="spacing" textLength="47" x="1106.5" y="1037.3701">actuator</text><line style="stroke:#181818;stroke-width:1.0;" x1="1071.5" x2="1113.5" y1="1073.9238" y2="1073.9238"/><line style="stroke:#181818;stroke-width:1.0;" x1="1113.5" x2="1113.5" y1="1073.9238" y2="1086.9238"/><line style="stroke:#181818;stroke-width:1.0;" x1="1072.5" x2="1113.5" y1="1086.9238" y2="1086.9238"/><polygon fill="#181818" points="1082.5,1082.9238,1072.5,1086.9238,1082.5,1090.9238,1078.5,1086.9238" style="stroke:#181818;stroke-width:1.0;"/><text fill="#000000" font-family="sans-serif" font-size="13" font-weight="bold" lengthAdjust="spacing" textLength="14" x="1078.5" y="1068.6611">29</text><text fill="#000000" font-family="sans-serif" font-size="13" lengthAdjust="spacing" textLength="177" x="1096.5" y="1068.6611">addActuatorToDevice(actuator)</text><polygon fill="#181818" points="307,1114.2148,297,1118.2148,307,1122.2148,303,1118.2148" style="stroke:#181818;stroke-width:1.0;"/><line style="stroke:#181818;stroke-width:1.0;stroke-dasharray:2.0,2.0;" x1="301" x2="1065.5" y1="1118.2148" y2="1118.2148"/><text fill="#000000" font-family="sans-serif" font-size="13" font-weight="bold" lengthAdjust="spacing" textLength="14" x="313" y="1112.9521">30</text><text fill="#000000" font-family="sans-serif" font-size="13" lengthAdjust="spacing" textLength="47" x="331" y="1112.9521">actuator</text><polygon fill="#181818" points="755,1145.5059,765,1149.5059,755,1153.5059,759,1149.5059" style="stroke:#181818;stroke-width:1.0;"/><line style="stroke:#181818;stroke-width:1.0;" x1="296" x2="761" y1="1149.5059" y2="1149.5059"/><text fill="#000000" font-family="sans-serif" font-size="13" font-weight="bold" lengthAdjust="spacing" textLength="14" x="303" y="1144.2432">31</text><text fill="#000000" font-family="sans-serif" font-size="13" lengthAdjust="spacing" textLength="130" x="321" y="1144.2432">domain2DTO(actuator)</text><polygon fill="#181818" points="2207.5,1176.7969,2217.5,1180.7969,2207.5,1184.7969,2211.5,1180.7969" style="stroke:#181818;stroke-width:1.0;"/><line style="stroke:#181818;stroke-width:1.0;" x1="777" x2="2213.5" y1="1180.7969" y2="1180.7969"/><text fill="#000000" font-family="sans-serif" font-size="13" font-weight="bold" lengthAdjust="spacing" textLength="14" x="784" y="1175.5342">32</text><text fill="#000000" font-family="sans-serif" font-size="13" lengthAdjust="spacing" textLength="166" x="802" y="1175.5342">createActuatorDTO(actuator)</text><rect fill="#E2E2F0" height="32.6211" rx="2.5" ry="2.5" style="stroke:#181818;stroke-width:0.5;" width="183" x="2219.5" y="1157.5059"/><text fill="#000000" font-family="sans-serif" font-size="14" lengthAdjust="spacing" textLength="169" x="2226.5" y="1179.6133">actuatorDTO:ActuatorDTO</text><polygon fill="#181818" points="788,1220.418,778,1224.418,788,1228.418,784,1224.418" style="stroke:#181818;stroke-width:1.0;"/><line style="stroke:#181818;stroke-width:1.0;stroke-dasharray:2.0,2.0;" x1="782" x2="2310" y1="1224.418" y2="1224.418"/><text fill="#000000" font-family="sans-serif" font-size="13" font-weight="bold" lengthAdjust="spacing" textLength="14" x="794" y="1219.1553">33</text><text fill="#000000" font-family="sans-serif" font-size="13" lengthAdjust="spacing" textLength="73" x="812" y="1219.1553">actuatorDTO</text><polygon fill="#181818" points="307,1251.709,297,1255.709,307,1259.709,303,1255.709" style="stroke:#181818;stroke-width:1.0;"/><line style="stroke:#181818;stroke-width:1.0;stroke-dasharray:2.0,2.0;" x1="301" x2="771" y1="1255.709" y2="1255.709"/><text fill="#000000" font-family="sans-serif" font-size="13" font-weight="bold" lengthAdjust="spacing" textLength="14" x="313" y="1250.4463">34</text><text fill="#000000" font-family="sans-serif" font-size="13" lengthAdjust="spacing" textLength="73" x="331" y="1250.4463">actuatorDTO</text><polygon fill="#181818" points="25,1283,15,1287,25,1291,21,1287" style="stroke:#181818;stroke-width:1.0;"/><line style="stroke:#181818;stroke-width:1.0;stroke-dasharray:2.0,2.0;" x1="19" x2="290" y1="1287" y2="1287"/><text fill="#000000" font-family="sans-serif" font-size="13" font-weight="bold" lengthAdjust="spacing" textLength="14" x="31" y="1281.7373">35</text><text fill="#000000" font-family="sans-serif" font-size="13" lengthAdjust="spacing" textLength="73" x="49" y="1281.7373">actuatorDTO</text><!--SRC=[nLV1Zfim4Btp5LPw296IHjfZ3fMYZLQzfQhIS-M0Dqi5c1gpQlw-jh6DFJQGpQxQx274pBnvVZFFiCiNpfjsjzqs9QvvLvMVCrfjM_Ax8tL6Ddc1BmnNIT9WnekiQ4GGMeW_tA8VBM79cVv1YsyT8-W9drcHOLxGUe4-NHYvWgpTFi_t6Uymf-n43-IroCZFHrfpHikIC8Kv7G81lrDQxTkML6UJxwt0y1xFJm1h0MLDnayALfE4r3aIMYIz80TQuQ9UGBIlj6k9Gb1Nu3OJtDMMx4v0GAwuwcqux46Ow04kwQKZblsZML59zfUv3VAnNduI5vHTBOh-xIcWrqOGRAgN4uWb-A0JmtNxJ1Wwdd-HZCSdI2fqE1sLIEBRwYIkerB9s8EvSWGBumrZcR4VhZtUAijInnsdTLUTPVENcpi-ooIH3a9qysLcx7VeGhZSPvkkHE6C5w-OarclJDz7egoQmX5qFQ7g2srku9ZHvdfyLa19aXC8DC_6y-uEvSf33qBrr85sAGApbvGsw9ao96g_83ahgAXzMXaZ9b5s4ucF1s9eo350VR3-cKgybShmwhimubef1JR2d3175vCj9Yf908iRv9QehHf9WEaeCgUvA2D7S0HiRhx-nTJtgssgDVpOyOS3n-b3Vt37oW5fxslOUvhLy_LKWVnwMczmgmOAQDt21Zmv8uRLw2xBu77hcxO_jWVRMdxQkCFnBSq4m0PIZdtjGjfZ0ml708sDmmrwmOva0ueoSy3hXdxqs8470xrkjlG8u7ytDGxlfrRODQfeJigFjNdOny7ejlBaaDxVqFSrqt3tL4kLH6jaN_FM2BonXNinMr3CW_S_TQP0-0dCo0jaiDHh1DuajIT7T-Br7RvXwYDWg0aYa5Cmg3HPOe2AiyOspZNIE8-unfCeTfTn8UqOn30YxJ3TZWwGjPr1MtdZCMlW60SpPlCJ7Vplv3qu74g1Hevnm2oeGou8SwivJmHdQRAS1sgU2H7ss8sFj7QCt1ka7eE-vxamYZbpplu5]--></g></svg>