<?xml version="1.0" encoding="us-ascii" standalone="no"?><svg xmlns="http://www.w3.org/2000/svg" xmlns:xlink="http://www.w3.org/1999/xlink" contentStyleType="text/css" height="538px" preserveAspectRatio="none" style="width:1277px;height:538px;background:#FFFFFF;" version="1.1" viewBox="0 0 1277 538" width="1277px" zoomAndPan="magnify"><defs/><g><text fill="#000000" font-family="sans-serif" font-size="14" font-weight="bold" lengthAdjust="spacing" textLength="190" x="545.25" y="30.1074">get Actuator ActuatorTypes</text><rect fill="#FFFFFF" height="371.5313" style="stroke:#181818;stroke-width:1.0;" width="10" x="190" y="111.5332"/><rect fill="#FFFFFF" height="93.873" style="stroke:#181818;stroke-width:1.0;" width="10" x="388" y="142.8242"/><rect fill="#FFFFFF" height="31.291" style="stroke:#181818;stroke-width:1.0;" width="10" x="558.5" y="174.1152"/><rect fill="#FFFFFF" height="183.7852" style="stroke:#181818;stroke-width:1.0;" width="10" x="738.5" y="267.9883"/><rect fill="#FFFFFF" height="33.6211" style="stroke:#181818;stroke-width:1.0;" width="10" x="1133" y="335.5703"/><rect fill="none" height="138.4941" style="stroke:#000000;stroke-width:1.5;" width="622.5" x="649" y="282.9883"/><line style="stroke:#181818;stroke-width:0.5;stroke-dasharray:5.0,5.0;" x1="14" x2="14" y1="78.2422" y2="501.0645"/><line style="stroke:#181818;stroke-width:0.5;stroke-dasharray:5.0,5.0;" x1="195" x2="195" y1="78.2422" y2="501.0645"/><line style="stroke:#181818;stroke-width:0.5;stroke-dasharray:5.0,5.0;" x1="393" x2="393" y1="78.2422" y2="501.0645"/><line style="stroke:#181818;stroke-width:0.5;stroke-dasharray:5.0,5.0;" x1="563" x2="563" y1="78.2422" y2="501.0645"/><line style="stroke:#181818;stroke-width:0.5;stroke-dasharray:5.0,5.0;" x1="743" x2="743" y1="78.2422" y2="501.0645"/><line style="stroke:#181818;stroke-width:0.5;stroke-dasharray:5.0,5.0;" x1="1137.5" x2="1137.5" y1="334.0898" y2="501.0645"/><rect fill="#E2E2F0" height="32.6211" rx="2.5" ry="2.5" style="stroke:#181818;stroke-width:0.5;" width="18" x="5" y="44.6211"/><text fill="#000000" font-family="sans-serif" font-size="14" lengthAdjust="spacing" textLength="4" x="12" y="66.7285">&#160;</text><rect fill="#E2E2F0" height="32.6211" rx="2.5" ry="2.5" style="stroke:#181818;stroke-width:0.5;" width="18" x="5" y="500.0645"/><text fill="#000000" font-family="sans-serif" font-size="14" lengthAdjust="spacing" textLength="4" x="12" y="522.1719">&#160;</text><rect fill="#E2E2F0" height="32.6211" rx="2.5" ry="2.5" style="stroke:#181818;stroke-width:0.5;" width="226" x="82" y="44.6211"/><text fill="#000000" font-family="sans-serif" font-size="14" lengthAdjust="spacing" textLength="212" x="89" y="66.7285">:AddActuatorToDevice_Controller</text><rect fill="#E2E2F0" height="32.6211" rx="2.5" ry="2.5" style="stroke:#181818;stroke-width:0.5;" width="226" x="82" y="500.0645"/><text fill="#000000" font-family="sans-serif" font-size="14" lengthAdjust="spacing" textLength="212" x="89" y="522.1719">:AddActuatorToDevice_Controller</text><rect fill="#E2E2F0" height="32.6211" rx="2.5" ry="2.5" style="stroke:#181818;stroke-width:0.5;" width="150" x="318" y="44.6211"/><text fill="#000000" font-family="sans-serif" font-size="14" lengthAdjust="spacing" textLength="136" x="325" y="66.7285">:ActuatorTypeService</text><rect fill="#E2E2F0" height="32.6211" rx="2.5" ry="2.5" style="stroke:#181818;stroke-width:0.5;" width="150" x="318" y="500.0645"/><text fill="#000000" font-family="sans-serif" font-size="14" lengthAdjust="spacing" textLength="136" x="325" y="522.1719">:ActuatorTypeService</text><rect fill="#E2E2F0" height="32.6211" rx="2.5" ry="2.5" style="stroke:#181818;stroke-width:0.5;" width="171" x="478" y="44.6211"/><text fill="#000000" font-family="sans-serif" font-size="14" lengthAdjust="spacing" textLength="157" x="485" y="66.7285">:ActuatorTypeRepository</text><rect fill="#E2E2F0" height="32.6211" rx="2.5" ry="2.5" style="stroke:#181818;stroke-width:0.5;" width="171" x="478" y="500.0645"/><text fill="#000000" font-family="sans-serif" font-size="14" lengthAdjust="spacing" textLength="157" x="485" y="522.1719">:ActuatorTypeRepository</text><rect fill="#E2E2F0" height="32.6211" rx="2.5" ry="2.5" style="stroke:#181818;stroke-width:0.5;" width="169" x="659" y="44.6211"/><text fill="#000000" font-family="sans-serif" font-size="14" lengthAdjust="spacing" textLength="155" x="666" y="66.7285">:ActuatorTypeAssembler</text><rect fill="#E2E2F0" height="32.6211" rx="2.5" ry="2.5" style="stroke:#181818;stroke-width:0.5;" width="169" x="659" y="500.0645"/><text fill="#000000" font-family="sans-serif" font-size="14" lengthAdjust="spacing" textLength="155" x="666" y="522.1719">:ActuatorTypeAssembler</text><rect fill="#E2E2F0" height="32.6211" rx="2.5" ry="2.5" style="stroke:#181818;stroke-width:0.5;" width="247" x="1014.5" y="500.0645"/><text fill="#000000" font-family="sans-serif" font-size="14" lengthAdjust="spacing" textLength="233" x="1021.5" y="522.1719">actuatorTypeDTO:ActuatorTypeDTO</text><rect fill="#FFFFFF" height="371.5313" style="stroke:#181818;stroke-width:1.0;" width="10" x="190" y="111.5332"/><rect fill="#FFFFFF" height="93.873" style="stroke:#181818;stroke-width:1.0;" width="10" x="388" y="142.8242"/><rect fill="#FFFFFF" height="31.291" style="stroke:#181818;stroke-width:1.0;" width="10" x="558.5" y="174.1152"/><rect fill="#FFFFFF" height="183.7852" style="stroke:#181818;stroke-width:1.0;" width="10" x="738.5" y="267.9883"/><rect fill="#FFFFFF" height="33.6211" style="stroke:#181818;stroke-width:1.0;" width="10" x="1133" y="335.5703"/><ellipse cx="13.5" cy="110.7832" fill="none" rx="4" ry="4" style="stroke:#181818;stroke-width:1.5;"/><polygon fill="#181818" points="178,107.5332,188,111.5332,178,115.5332,182,111.5332" style="stroke:#181818;stroke-width:1.0;"/><line style="stroke:#181818;stroke-width:1.0;" x1="18" x2="184" y1="111.5332" y2="111.5332"/><text fill="#000000" font-family="sans-serif" font-size="13" font-weight="bold" lengthAdjust="spacing" textLength="7" x="21" y="106.2705">1</text><text fill="#000000" font-family="sans-serif" font-size="13" lengthAdjust="spacing" textLength="110" x="32" y="106.2705">getActuatorTypes()</text><polygon fill="#181818" points="376,138.8242,386,142.8242,376,146.8242,380,142.8242" style="stroke:#181818;stroke-width:1.0;"/><line style="stroke:#181818;stroke-width:1.0;" x1="200" x2="382" y1="142.8242" y2="142.8242"/><text fill="#000000" font-family="sans-serif" font-size="13" font-weight="bold" lengthAdjust="spacing" textLength="7" x="207" y="137.5615">2</text><text fill="#000000" font-family="sans-serif" font-size="13" lengthAdjust="spacing" textLength="110" x="218" y="137.5615">getActuatorTypes()</text><polygon fill="#181818" points="546.5,170.1152,556.5,174.1152,546.5,178.1152,550.5,174.1152" style="stroke:#181818;stroke-width:1.0;"/><line style="stroke:#181818;stroke-width:1.0;" x1="398" x2="552.5" y1="174.1152" y2="174.1152"/><text fill="#000000" font-family="sans-serif" font-size="13" font-weight="bold" lengthAdjust="spacing" textLength="7" x="405" y="168.8525">3</text><text fill="#000000" font-family="sans-serif" font-size="13" lengthAdjust="spacing" textLength="43" x="416" y="168.8525">findAll()</text><polygon fill="#181818" points="409,201.4063,399,205.4063,409,209.4063,405,205.4063" style="stroke:#181818;stroke-width:1.0;"/><line style="stroke:#181818;stroke-width:1.0;stroke-dasharray:2.0,2.0;" x1="403" x2="562.5" y1="205.4063" y2="205.4063"/><text fill="#000000" font-family="sans-serif" font-size="13" font-weight="bold" lengthAdjust="spacing" textLength="7" x="415" y="200.1436">4</text><text fill="#000000" font-family="sans-serif" font-size="13" lengthAdjust="spacing" textLength="101" x="426" y="200.1436">listActuatorTypes</text><polygon fill="#181818" points="211,232.6973,201,236.6973,211,240.6973,207,236.6973" style="stroke:#181818;stroke-width:1.0;"/><line style="stroke:#181818;stroke-width:1.0;stroke-dasharray:2.0,2.0;" x1="205" x2="392" y1="236.6973" y2="236.6973"/><text fill="#000000" font-family="sans-serif" font-size="13" font-weight="bold" lengthAdjust="spacing" textLength="7" x="217" y="231.4346">5</text><text fill="#000000" font-family="sans-serif" font-size="13" lengthAdjust="spacing" textLength="101" x="228" y="231.4346">listActuatorTypes</text><polygon fill="#181818" points="726.5,263.9883,736.5,267.9883,726.5,271.9883,730.5,267.9883" style="stroke:#181818;stroke-width:1.0;"/><line style="stroke:#181818;stroke-width:1.0;" x1="200" x2="732.5" y1="267.9883" y2="267.9883"/><text fill="#000000" font-family="sans-serif" font-size="13" font-weight="bold" lengthAdjust="spacing" textLength="7" x="207" y="262.7256">6</text><text fill="#000000" font-family="sans-serif" font-size="13" lengthAdjust="spacing" textLength="211" x="218" y="262.7256">domainToDTO(listOfActuatorModels)</text><path d="M649,282.9883 L722,282.9883 L722,292.2793 L712,302.2793 L649,302.2793 L649,282.9883 " fill="#EEEEEE" style="stroke:#000000;stroke-width:1.5;"/><rect fill="none" height="138.4941" style="stroke:#000000;stroke-width:1.5;" width="622.5" x="649" y="282.9883"/><text fill="#000000" font-family="sans-serif" font-size="13" font-weight="bold" lengthAdjust="spacing" textLength="28" x="664" y="298.0166">loop</text><text fill="#000000" font-family="sans-serif" font-size="11" font-weight="bold" lengthAdjust="spacing" textLength="279" x="737" y="296.8584">[for each ActuatorModel in copyOfActuatorModels]</text><polygon fill="#181818" points="1002.5,321.5703,1012.5,325.5703,1002.5,329.5703,1006.5,325.5703" style="stroke:#181818;stroke-width:1.0;"/><line style="stroke:#181818;stroke-width:1.0;" x1="748.5" x2="1008.5" y1="325.5703" y2="325.5703"/><text fill="#000000" font-family="sans-serif" font-size="13" font-weight="bold" lengthAdjust="spacing" textLength="7" x="755.5" y="320.3076">7</text><text fill="#000000" font-family="sans-serif" font-size="13" lengthAdjust="spacing" textLength="231" x="766.5" y="320.3076">createActuatorTypeDTO(ActuatorModel)</text><rect fill="#E2E2F0" height="32.6211" rx="2.5" ry="2.5" style="stroke:#181818;stroke-width:0.5;" width="247" x="1014.5" y="302.2793"/><text fill="#000000" font-family="sans-serif" font-size="14" lengthAdjust="spacing" textLength="233" x="1021.5" y="324.3867">actuatorTypeDTO:ActuatorTypeDTO</text><polygon fill="#181818" points="759.5,365.1914,749.5,369.1914,759.5,373.1914,755.5,369.1914" style="stroke:#181818;stroke-width:1.0;"/><line style="stroke:#181818;stroke-width:1.0;stroke-dasharray:2.0,2.0;" x1="753.5" x2="1137" y1="369.1914" y2="369.1914"/><text fill="#000000" font-family="sans-serif" font-size="13" font-weight="bold" lengthAdjust="spacing" textLength="7" x="765.5" y="363.9287">8</text><text fill="#000000" font-family="sans-serif" font-size="13" lengthAdjust="spacing" textLength="103" x="776.5" y="363.9287">ActuatorTypeDTO</text><line style="stroke:#181818;stroke-width:1.0;" x1="748.5" x2="790.5" y1="400.4824" y2="400.4824"/><line style="stroke:#181818;stroke-width:1.0;" x1="790.5" x2="790.5" y1="400.4824" y2="413.4824"/><line style="stroke:#181818;stroke-width:1.0;" x1="749.5" x2="790.5" y1="413.4824" y2="413.4824"/><polygon fill="#181818" points="759.5,409.4824,749.5,413.4824,759.5,417.4824,755.5,413.4824" style="stroke:#181818;stroke-width:1.0;"/><text fill="#000000" font-family="sans-serif" font-size="13" font-weight="bold" lengthAdjust="spacing" textLength="7" x="755.5" y="395.2197">9</text><text fill="#000000" font-family="sans-serif" font-size="13" lengthAdjust="spacing" textLength="174" x="766.5" y="395.2197">addToList(ActuatorModelDTO)</text><polygon fill="#181818" points="211,447.7734,201,451.7734,211,455.7734,207,451.7734" style="stroke:#181818;stroke-width:1.0;"/><line style="stroke:#181818;stroke-width:1.0;stroke-dasharray:2.0,2.0;" x1="205" x2="742.5" y1="451.7734" y2="451.7734"/><text fill="#000000" font-family="sans-serif" font-size="13" font-weight="bold" lengthAdjust="spacing" textLength="14" x="217" y="446.5107">10</text><text fill="#000000" font-family="sans-serif" font-size="13" lengthAdjust="spacing" textLength="134" x="235" y="446.5107">listActuatorModelsDTO</text><polygon fill="#181818" points="25,479.0645,15,483.0645,25,487.0645,21,483.0645" style="stroke:#181818;stroke-width:1.0;"/><line style="stroke:#181818;stroke-width:1.0;" x1="19" x2="194" y1="483.0645" y2="483.0645"/><text fill="#000000" font-family="sans-serif" font-size="13" font-weight="bold" lengthAdjust="spacing" textLength="14" x="31" y="477.8018">11</text><text fill="#000000" font-family="sans-serif" font-size="13" lengthAdjust="spacing" textLength="134" x="49" y="477.8018">listActuatorModelsDTO</text><!--SRC=[bLJBRiCW4BplLsnxIWxv0HygMSsnLQJMFLV4R58a31RWIFxxGgFQ1Z-ZNCAoEpEPsU24auHNSfYNhc5Ec-vBqTPaWJLEgwOwau6dsh1hnL2oLZSERKMEAGPGC-D4AMgc73xx3xFuPNr_LCzopZjaVQIRAEdxLIjdj9Ha_gQMMrAyWSnFCg7v3ZAkBqn-KAsjy8TsDDnVBSpdrb9rxdx0r4qypGOjn-8KWVdp2CRN08ATg0ylAmvb8SWeljqUFA6uCKThxiBoFGRsiRKhb1DPm4Gn1U-jp_0Y5C-bd8CTf0JJTJpCIPV2njg1qqCadVmDqMmcwurwA91ktpBakc92-PdYj0kqfyj_uxlc9EsCbVt6WjIwnej_3Bp47uocKIWiTTsce50QIX73yauofEB3Fm7l04bv5x7CA4zv_7cK-i2VT7GcYCtg1z2CyqA_USzZtHvg3wGup04-k41tonUq3x9SNwFml6p1Ntv0VW40]--></g></svg>