<?xml version="1.0" encoding="us-ascii" standalone="no"?><svg xmlns="http://www.w3.org/2000/svg" xmlns:xlink="http://www.w3.org/1999/xlink" contentStyleType="text/css" height="636px" preserveAspectRatio="none" style="width:1144px;height:636px;background:#FFFFFF;" version="1.1" viewBox="0 0 1144 636" width="1144px" zoomAndPan="magnify"><defs/><g><!--class GetLogFromDeviceController--><g id="elem_GetLogFromDeviceController"><rect codeLine="3" fill="#F1F1F1" height="122.4844" id="GetLogFromDeviceController" rx="2.5" ry="2.5" style="stroke:#181818;stroke-width:0.5;" width="431" x="40" y="12"/><ellipse cx="158.75" cy="28" fill="#ADD1B2" rx="11" ry="11" style="stroke:#181818;stroke-width:1.0;"/><path d="M161.5156,23.875 Q161.6719,23.6563 161.8594,23.5469 Q162.0469,23.4375 162.2656,23.4375 Q162.6406,23.4375 162.875,23.7031 Q163.1094,23.9531 163.1094,24.5625 L163.1094,26.0156 Q163.1094,26.625 162.875,26.8906 Q162.6406,27.1563 162.2656,27.1563 Q161.9219,27.1563 161.7188,26.9531 Q161.5156,26.7656 161.4063,26.25 Q161.3594,25.8906 161.1719,25.7031 Q160.8438,25.3281 160.2344,25.1094 Q159.625,24.8906 159,24.8906 Q158.2344,24.8906 157.5938,25.2188 Q156.9688,25.5469 156.4688,26.2969 Q155.9844,27.0469 155.9844,28.0781 L155.9844,29.1719 Q155.9844,30.4063 156.875,31.2344 Q157.7656,32.0469 159.3594,32.0469 Q160.2969,32.0469 160.9531,31.7969 Q161.3438,31.6406 161.7656,31.2031 Q162.0313,30.9375 162.1719,30.8594 Q162.3281,30.7813 162.5313,30.7813 Q162.8594,30.7813 163.1094,31.0469 Q163.375,31.2969 163.375,31.6406 Q163.375,31.9844 163.0313,32.3906 Q162.5313,32.9688 161.7344,33.2969 Q160.6563,33.75 159.3594,33.75 Q157.8438,33.75 156.6406,33.125 Q155.6563,32.625 154.9688,31.5625 Q154.2813,30.4844 154.2813,29.2031 L154.2813,28.0469 Q154.2813,26.7188 154.8906,25.5781 Q155.5156,24.4219 156.6094,23.8125 Q157.7031,23.1875 158.9375,23.1875 Q159.6719,23.1875 160.3125,23.3594 Q160.9688,23.5156 161.5156,23.875 Z " fill="#000000"/><text fill="#000000" font-family="sans-serif" font-size="14" lengthAdjust="spacing" textLength="185" x="179.25" y="33.7969">GetLogFromDeviceController</text><line style="stroke:#181818;stroke-width:0.5;" x1="41" x2="470" y1="44" y2="44"/><rect fill="none" height="6" style="stroke:#C82930;stroke-width:1.0;" width="6" x="48" y="55.8105"/><text fill="#000000" font-family="sans-serif" font-size="14" lengthAdjust="spacing" textLength="148" x="60" y="63.1074">logService: ILogService</text><rect fill="none" height="6" style="stroke:#C82930;stroke-width:1.0;" width="6" x="48" y="74.4316"/><text fill="#000000" font-family="sans-serif" font-size="14" lengthAdjust="spacing" textLength="189" x="60" y="81.7285">deviceService: IDeviceService</text><rect fill="none" height="6" style="stroke:#C82930;stroke-width:1.0;" width="6" x="48" y="93.0527"/><text fill="#000000" font-family="sans-serif" font-size="14" lengthAdjust="spacing" textLength="268" x="60" y="100.3496">logAssembler: IAssembler &lt;Log, LogDTO&gt;</text><line style="stroke:#181818;stroke-width:0.5;" x1="41" x2="470" y1="107.8633" y2="107.8633"/><ellipse cx="51" cy="122.6738" fill="#84BE84" rx="3" ry="3" style="stroke:#038048;stroke-width:1.0;"/><text fill="#000000" font-family="sans-serif" font-size="14" lengthAdjust="spacing" textLength="405" x="60" y="126.9707">getLogsFromDevice(logEntryDto : logEntryDTO): List&lt;LogDTO&gt;</text></g><g id="elem_GMN3"><path d="M489,59.5 L489,69 L471.0234,73 L489,77 L489,86.791 A0,0 0 0 0 489,86.791 L806,86.791 A0,0 0 0 0 806,86.791 L806,69.5 L796,59.5 L489,59.5 A0,0 0 0 0 489,59.5 " fill="#FEFFDD" style="stroke:#181818;stroke-width:0.5;"/><path d="M796,59.5 L796,69.5 L806,69.5 L796,59.5 " fill="#FEFFDD" style="stroke:#181818;stroke-width:0.5;"/><text fill="#000000" font-family="sans-serif" font-size="13" lengthAdjust="spacing" textLength="296" x="495" y="78.5283">Ref UC06:  I want to get a list all devices in a room.</text></g><!--class DatePeriod--><g id="elem_DatePeriod"><rect codeLine="15" fill="#F1F1F1" height="85.2422" id="DatePeriod" rx="2.5" ry="2.5" style="stroke:#181818;stroke-width:0.5;" width="187" x="6" y="189"/><ellipse cx="59.75" cy="205" fill="#ADD1B2" rx="11" ry="11" style="stroke:#181818;stroke-width:1.0;"/><path d="M62.5156,200.875 Q62.6719,200.6563 62.8594,200.5469 Q63.0469,200.4375 63.2656,200.4375 Q63.6406,200.4375 63.875,200.7031 Q64.1094,200.9531 64.1094,201.5625 L64.1094,203.0156 Q64.1094,203.625 63.875,203.8906 Q63.6406,204.1563 63.2656,204.1563 Q62.9219,204.1563 62.7188,203.9531 Q62.5156,203.7656 62.4063,203.25 Q62.3594,202.8906 62.1719,202.7031 Q61.8438,202.3281 61.2344,202.1094 Q60.625,201.8906 60,201.8906 Q59.2344,201.8906 58.5938,202.2188 Q57.9688,202.5469 57.4688,203.2969 Q56.9844,204.0469 56.9844,205.0781 L56.9844,206.1719 Q56.9844,207.4063 57.875,208.2344 Q58.7656,209.0469 60.3594,209.0469 Q61.2969,209.0469 61.9531,208.7969 Q62.3438,208.6406 62.7656,208.2031 Q63.0313,207.9375 63.1719,207.8594 Q63.3281,207.7813 63.5313,207.7813 Q63.8594,207.7813 64.1094,208.0469 Q64.375,208.2969 64.375,208.6406 Q64.375,208.9844 64.0313,209.3906 Q63.5313,209.9688 62.7344,210.2969 Q61.6563,210.75 60.3594,210.75 Q58.8438,210.75 57.6406,210.125 Q56.6563,209.625 55.9688,208.5625 Q55.2813,207.4844 55.2813,206.2031 L55.2813,205.0469 Q55.2813,203.7188 55.8906,202.5781 Q56.5156,201.4219 57.6094,200.8125 Q58.7031,200.1875 59.9375,200.1875 Q60.6719,200.1875 61.3125,200.3594 Q61.9688,200.5156 62.5156,200.875 Z " fill="#000000"/><text fill="#000000" font-family="sans-serif" font-size="14" lengthAdjust="spacing" textLength="71" x="80.25" y="210.7969">DatePeriod</text><line style="stroke:#181818;stroke-width:0.5;" x1="7" x2="192" y1="221" y2="221"/><rect fill="none" height="6" style="stroke:#C82930;stroke-width:1.0;" width="6" x="14" y="232.8105"/><text fill="#000000" font-family="sans-serif" font-size="14" lengthAdjust="spacing" textLength="161" x="26" y="240.1074">startDate: LocalDateTime</text><rect fill="none" height="6" style="stroke:#C82930;stroke-width:1.0;" width="6" x="14" y="251.4316"/><text fill="#000000" font-family="sans-serif" font-size="14" lengthAdjust="spacing" textLength="157" x="26" y="258.7285">endDate: LocalDateTime</text><line style="stroke:#181818;stroke-width:0.5;" x1="7" x2="192" y1="266.2422" y2="266.2422"/></g><!--class DeviceID--><g id="elem_DeviceID"><rect codeLine="20" fill="#F1F1F1" height="66.6211" id="DeviceID" rx="2.5" ry="2.5" style="stroke:#181818;stroke-width:0.5;" width="88" x="211.5" y="198"/><ellipse cx="226.5" cy="214" fill="#ADD1B2" rx="11" ry="11" style="stroke:#181818;stroke-width:1.0;"/><path d="M229.2656,209.875 Q229.4219,209.6563 229.6094,209.5469 Q229.7969,209.4375 230.0156,209.4375 Q230.3906,209.4375 230.625,209.7031 Q230.8594,209.9531 230.8594,210.5625 L230.8594,212.0156 Q230.8594,212.625 230.625,212.8906 Q230.3906,213.1563 230.0156,213.1563 Q229.6719,213.1563 229.4688,212.9531 Q229.2656,212.7656 229.1563,212.25 Q229.1094,211.8906 228.9219,211.7031 Q228.5938,211.3281 227.9844,211.1094 Q227.375,210.8906 226.75,210.8906 Q225.9844,210.8906 225.3438,211.2188 Q224.7188,211.5469 224.2188,212.2969 Q223.7344,213.0469 223.7344,214.0781 L223.7344,215.1719 Q223.7344,216.4063 224.625,217.2344 Q225.5156,218.0469 227.1094,218.0469 Q228.0469,218.0469 228.7031,217.7969 Q229.0938,217.6406 229.5156,217.2031 Q229.7813,216.9375 229.9219,216.8594 Q230.0781,216.7813 230.2813,216.7813 Q230.6094,216.7813 230.8594,217.0469 Q231.125,217.2969 231.125,217.6406 Q231.125,217.9844 230.7813,218.3906 Q230.2813,218.9688 229.4844,219.2969 Q228.4063,219.75 227.1094,219.75 Q225.5938,219.75 224.3906,219.125 Q223.4063,218.625 222.7188,217.5625 Q222.0313,216.4844 222.0313,215.2031 L222.0313,214.0469 Q222.0313,212.7188 222.6406,211.5781 Q223.2656,210.4219 224.3594,209.8125 Q225.4531,209.1875 226.6875,209.1875 Q227.4219,209.1875 228.0625,209.3594 Q228.7188,209.5156 229.2656,209.875 Z " fill="#000000"/><text fill="#000000" font-family="sans-serif" font-size="14" lengthAdjust="spacing" textLength="56" x="240.5" y="219.7969">DeviceID</text><line style="stroke:#181818;stroke-width:0.5;" x1="212.5" x2="298.5" y1="230" y2="230"/><rect fill="none" height="6" style="stroke:#C82930;stroke-width:1.0;" width="6" x="219.5" y="241.8105"/><text fill="#000000" font-family="sans-serif" font-size="14" lengthAdjust="spacing" textLength="56" x="231.5" y="249.1074">id: String</text><line style="stroke:#181818;stroke-width:0.5;" x1="212.5" x2="298.5" y1="256.6211" y2="256.6211"/></g><!--class LogServiceImpl--><g id="elem_LogServiceImpl"><rect codeLine="24" fill="#F1F1F1" height="85.2422" id="LogServiceImpl" rx="2.5" ry="2.5" style="stroke:#181818;stroke-width:0.5;" width="589" x="318" y="189"/><ellipse cx="560.25" cy="205" fill="#ADD1B2" rx="11" ry="11" style="stroke:#181818;stroke-width:1.0;"/><path d="M563.0156,200.875 Q563.1719,200.6563 563.3594,200.5469 Q563.5469,200.4375 563.7656,200.4375 Q564.1406,200.4375 564.375,200.7031 Q564.6094,200.9531 564.6094,201.5625 L564.6094,203.0156 Q564.6094,203.625 564.375,203.8906 Q564.1406,204.1563 563.7656,204.1563 Q563.4219,204.1563 563.2188,203.9531 Q563.0156,203.7656 562.9063,203.25 Q562.8594,202.8906 562.6719,202.7031 Q562.3438,202.3281 561.7344,202.1094 Q561.125,201.8906 560.5,201.8906 Q559.7344,201.8906 559.0938,202.2188 Q558.4688,202.5469 557.9688,203.2969 Q557.4844,204.0469 557.4844,205.0781 L557.4844,206.1719 Q557.4844,207.4063 558.375,208.2344 Q559.2656,209.0469 560.8594,209.0469 Q561.7969,209.0469 562.4531,208.7969 Q562.8438,208.6406 563.2656,208.2031 Q563.5313,207.9375 563.6719,207.8594 Q563.8281,207.7813 564.0313,207.7813 Q564.3594,207.7813 564.6094,208.0469 Q564.875,208.2969 564.875,208.6406 Q564.875,208.9844 564.5313,209.3906 Q564.0313,209.9688 563.2344,210.2969 Q562.1563,210.75 560.8594,210.75 Q559.3438,210.75 558.1406,210.125 Q557.1563,209.625 556.4688,208.5625 Q555.7813,207.4844 555.7813,206.2031 L555.7813,205.0469 Q555.7813,203.7188 556.3906,202.5781 Q557.0156,201.4219 558.1094,200.8125 Q559.2031,200.1875 560.4375,200.1875 Q561.1719,200.1875 561.8125,200.3594 Q562.4688,200.5156 563.0156,200.875 Z " fill="#000000"/><text fill="#000000" font-family="sans-serif" font-size="14" lengthAdjust="spacing" textLength="96" x="580.75" y="210.7969">LogServiceImpl</text><line style="stroke:#181818;stroke-width:0.5;" x1="319" x2="906" y1="221" y2="221"/><rect fill="none" height="6" style="stroke:#C82930;stroke-width:1.0;" width="6" x="326" y="232.8105"/><text fill="#000000" font-family="sans-serif" font-size="14" lengthAdjust="spacing" textLength="190" x="338" y="240.1074">logRepository: ILogRepository</text><line style="stroke:#181818;stroke-width:0.5;" x1="319" x2="906" y1="247.6211" y2="247.6211"/><ellipse cx="329" cy="262.4316" fill="#84BE84" rx="3" ry="3" style="stroke:#038048;stroke-width:1.0;"/><text fill="#000000" font-family="sans-serif" font-size="14" lengthAdjust="spacing" textLength="563" x="338" y="266.7285">getDeviceReadingsByTimePeriod(deviceId: DeviceID, datePeriod: DatePeriod): List&lt;Log&gt;</text></g><!--class LogRepository--><g id="elem_LogRepository"><rect codeLine="30" fill="#F1F1F1" height="66.6211" id="LogRepository" rx="2.5" ry="2.5" style="stroke:#181818;stroke-width:0.5;" width="623" x="164" y="329"/><ellipse cx="425.25" cy="345" fill="#ADD1B2" rx="11" ry="11" style="stroke:#181818;stroke-width:1.0;"/><path d="M428.0156,340.875 Q428.1719,340.6563 428.3594,340.5469 Q428.5469,340.4375 428.7656,340.4375 Q429.1406,340.4375 429.375,340.7031 Q429.6094,340.9531 429.6094,341.5625 L429.6094,343.0156 Q429.6094,343.625 429.375,343.8906 Q429.1406,344.1563 428.7656,344.1563 Q428.4219,344.1563 428.2188,343.9531 Q428.0156,343.7656 427.9063,343.25 Q427.8594,342.8906 427.6719,342.7031 Q427.3438,342.3281 426.7344,342.1094 Q426.125,341.8906 425.5,341.8906 Q424.7344,341.8906 424.0938,342.2188 Q423.4688,342.5469 422.9688,343.2969 Q422.4844,344.0469 422.4844,345.0781 L422.4844,346.1719 Q422.4844,347.4063 423.375,348.2344 Q424.2656,349.0469 425.8594,349.0469 Q426.7969,349.0469 427.4531,348.7969 Q427.8438,348.6406 428.2656,348.2031 Q428.5313,347.9375 428.6719,347.8594 Q428.8281,347.7813 429.0313,347.7813 Q429.3594,347.7813 429.6094,348.0469 Q429.875,348.2969 429.875,348.6406 Q429.875,348.9844 429.5313,349.3906 Q429.0313,349.9688 428.2344,350.2969 Q427.1563,350.75 425.8594,350.75 Q424.3438,350.75 423.1406,350.125 Q422.1563,349.625 421.4688,348.5625 Q420.7813,347.4844 420.7813,346.2031 L420.7813,345.0469 Q420.7813,343.7188 421.3906,342.5781 Q422.0156,341.4219 423.1094,340.8125 Q424.2031,340.1875 425.4375,340.1875 Q426.1719,340.1875 426.8125,340.3594 Q427.4688,340.5156 428.0156,340.875 Z " fill="#000000"/><text fill="#000000" font-family="sans-serif" font-size="14" lengthAdjust="spacing" textLength="92" x="445.75" y="350.7969">LogRepository</text><line style="stroke:#181818;stroke-width:0.5;" x1="165" x2="786" y1="361" y2="361"/><line style="stroke:#181818;stroke-width:0.5;" x1="165" x2="786" y1="369" y2="369"/><ellipse cx="175" cy="383.8105" fill="#84BE84" rx="3" ry="3" style="stroke:#038048;stroke-width:1.0;"/><text fill="#000000" font-family="sans-serif" font-size="14" lengthAdjust="spacing" textLength="597" x="184" y="388.1074">findByDeviceIDAndDatePeriodBetween(deviceId: DeviceID, datePeriod: DatePeriod): List&lt;Log&gt;</text></g><!--class LogAssembler--><g id="elem_LogAssembler"><rect codeLine="35" fill="#F1F1F1" height="66.6211" id="LogAssembler" rx="2.5" ry="2.5" style="stroke:#181818;stroke-width:0.5;" width="332" x="805.5" y="329"/><ellipse cx="922.25" cy="345" fill="#ADD1B2" rx="11" ry="11" style="stroke:#181818;stroke-width:1.0;"/><path d="M925.0156,340.875 Q925.1719,340.6563 925.3594,340.5469 Q925.5469,340.4375 925.7656,340.4375 Q926.1406,340.4375 926.375,340.7031 Q926.6094,340.9531 926.6094,341.5625 L926.6094,343.0156 Q926.6094,343.625 926.375,343.8906 Q926.1406,344.1563 925.7656,344.1563 Q925.4219,344.1563 925.2188,343.9531 Q925.0156,343.7656 924.9063,343.25 Q924.8594,342.8906 924.6719,342.7031 Q924.3438,342.3281 923.7344,342.1094 Q923.125,341.8906 922.5,341.8906 Q921.7344,341.8906 921.0938,342.2188 Q920.4688,342.5469 919.9688,343.2969 Q919.4844,344.0469 919.4844,345.0781 L919.4844,346.1719 Q919.4844,347.4063 920.375,348.2344 Q921.2656,349.0469 922.8594,349.0469 Q923.7969,349.0469 924.4531,348.7969 Q924.8438,348.6406 925.2656,348.2031 Q925.5313,347.9375 925.6719,347.8594 Q925.8281,347.7813 926.0313,347.7813 Q926.3594,347.7813 926.6094,348.0469 Q926.875,348.2969 926.875,348.6406 Q926.875,348.9844 926.5313,349.3906 Q926.0313,349.9688 925.2344,350.2969 Q924.1563,350.75 922.8594,350.75 Q921.3438,350.75 920.1406,350.125 Q919.1563,349.625 918.4688,348.5625 Q917.7813,347.4844 917.7813,346.2031 L917.7813,345.0469 Q917.7813,343.7188 918.3906,342.5781 Q919.0156,341.4219 920.1094,340.8125 Q921.2031,340.1875 922.4375,340.1875 Q923.1719,340.1875 923.8125,340.3594 Q924.4688,340.5156 925.0156,340.875 Z " fill="#000000"/><text fill="#000000" font-family="sans-serif" font-size="14" lengthAdjust="spacing" textLength="90" x="942.75" y="350.7969">LogAssembler</text><line style="stroke:#181818;stroke-width:0.5;" x1="806.5" x2="1136.5" y1="361" y2="361"/><line style="stroke:#181818;stroke-width:0.5;" x1="806.5" x2="1136.5" y1="369" y2="369"/><ellipse cx="816.5" cy="383.8105" fill="#84BE84" rx="3" ry="3" style="stroke:#038048;stroke-width:1.0;"/><text fill="#000000" font-family="sans-serif" font-size="14" lengthAdjust="spacing" textLength="306" x="825.5" y="388.1074">domainToDto(logList: List&lt;Log&gt;): List&lt;LogDTO&gt;</text></g><!--class LogDTO--><g id="elem_LogDTO"><rect codeLine="39" fill="#F1F1F1" height="178.3477" id="LogDTO" rx="2.5" ry="2.5" style="stroke:#181818;stroke-width:0.5;" width="159" x="892" y="451"/><ellipse cx="940.25" cy="467" fill="#ADD1B2" rx="11" ry="11" style="stroke:#181818;stroke-width:1.0;"/><path d="M943.0156,462.875 Q943.1719,462.6563 943.3594,462.5469 Q943.5469,462.4375 943.7656,462.4375 Q944.1406,462.4375 944.375,462.7031 Q944.6094,462.9531 944.6094,463.5625 L944.6094,465.0156 Q944.6094,465.625 944.375,465.8906 Q944.1406,466.1563 943.7656,466.1563 Q943.4219,466.1563 943.2188,465.9531 Q943.0156,465.7656 942.9063,465.25 Q942.8594,464.8906 942.6719,464.7031 Q942.3438,464.3281 941.7344,464.1094 Q941.125,463.8906 940.5,463.8906 Q939.7344,463.8906 939.0938,464.2188 Q938.4688,464.5469 937.9688,465.2969 Q937.4844,466.0469 937.4844,467.0781 L937.4844,468.1719 Q937.4844,469.4063 938.375,470.2344 Q939.2656,471.0469 940.8594,471.0469 Q941.7969,471.0469 942.4531,470.7969 Q942.8438,470.6406 943.2656,470.2031 Q943.5313,469.9375 943.6719,469.8594 Q943.8281,469.7813 944.0313,469.7813 Q944.3594,469.7813 944.6094,470.0469 Q944.875,470.2969 944.875,470.6406 Q944.875,470.9844 944.5313,471.3906 Q944.0313,471.9688 943.2344,472.2969 Q942.1563,472.75 940.8594,472.75 Q939.3438,472.75 938.1406,472.125 Q937.1563,471.625 936.4688,470.5625 Q935.7813,469.4844 935.7813,468.2031 L935.7813,467.0469 Q935.7813,465.7188 936.3906,464.5781 Q937.0156,463.4219 938.1094,462.8125 Q939.2031,462.1875 940.4375,462.1875 Q941.1719,462.1875 941.8125,462.3594 Q942.4688,462.5156 943.0156,462.875 Z " fill="#000000"/><text fill="#000000" font-family="sans-serif" font-size="14" lengthAdjust="spacing" textLength="54" x="960.75" y="472.7969">LogDTO</text><line style="stroke:#181818;stroke-width:0.5;" x1="893" x2="1050" y1="483" y2="483"/><ellipse cx="903" cy="497.8105" fill="none" rx="3" ry="3" style="stroke:#038048;stroke-width:1.0;"/><text fill="#000000" font-family="sans-serif" font-size="14" lengthAdjust="spacing" textLength="77" x="912" y="502.1074">logID: String</text><ellipse cx="903" cy="516.4316" fill="none" rx="3" ry="3" style="stroke:#038048;stroke-width:1.0;"/><text fill="#000000" font-family="sans-serif" font-size="14" lengthAdjust="spacing" textLength="99" x="912" y="520.7285">deviceID: String</text><ellipse cx="903" cy="535.0527" fill="none" rx="3" ry="3" style="stroke:#038048;stroke-width:1.0;"/><text fill="#000000" font-family="sans-serif" font-size="14" lengthAdjust="spacing" textLength="101" x="912" y="539.3496">sensorID: String</text><ellipse cx="903" cy="553.6738" fill="none" rx="3" ry="3" style="stroke:#038048;stroke-width:1.0;"/><text fill="#000000" font-family="sans-serif" font-size="14" lengthAdjust="spacing" textLength="133" x="912" y="557.9707">sensorTypeID: String</text><ellipse cx="903" cy="572.2949" fill="none" rx="3" ry="3" style="stroke:#038048;stroke-width:1.0;"/><text fill="#000000" font-family="sans-serif" font-size="14" lengthAdjust="spacing" textLength="93" x="912" y="576.5918">reading: String</text><ellipse cx="903" cy="590.916" fill="none" rx="3" ry="3" style="stroke:#038048;stroke-width:1.0;"/><text fill="#000000" font-family="sans-serif" font-size="14" lengthAdjust="spacing" textLength="109" x="912" y="595.2129">timestamp: String</text><ellipse cx="903" cy="609.5371" fill="none" rx="3" ry="3" style="stroke:#038048;stroke-width:1.0;"/><text fill="#000000" font-family="sans-serif" font-size="14" lengthAdjust="spacing" textLength="81" x="912" y="613.834">unitID: String</text><line style="stroke:#181818;stroke-width:0.5;" x1="893" x2="1050" y1="621.3477" y2="621.3477"/></g><polygon fill="#181818" points="517.6289,188.9108,510.9921,181.634,513.0496,186.9034,507.7801,188.9609,517.6289,188.9108" style="stroke:#181818;stroke-width:1.0;"/><path d="M392.5045,134.0594 C434.289,152.3767 473.7897,169.6928 512.1337,186.5019 " fill="none" style="stroke:#181818;stroke-width:1.0;"/><text fill="#000000" font-family="sans-serif" font-size="13" lengthAdjust="spacing" textLength="28" x="476.5" y="167.0283">uses</text><text fill="#000000" font-family="sans-serif" font-size="13" lengthAdjust="spacing" textLength="7" x="509.6289" y="184.9392">1</text><text fill="#000000" font-family="sans-serif" font-size="13" lengthAdjust="spacing" textLength="7" x="384.5045" y="149.0877">1</text><polygon fill="#181818" points="141.0746,188.7921,150.2613,185.2419,144.6045,185.2509,144.5954,179.5941,141.0746,188.7921" style="stroke:#181818;stroke-width:1.0;"/><path d="M195.6325,134.0594 C177.4167,152.3336 162.04,167.7595 145.3105,184.5427 " fill="none" style="stroke:#181818;stroke-width:1.0;"/><text fill="#000000" font-family="sans-serif" font-size="13" lengthAdjust="spacing" textLength="43" x="178.5" y="167.0283">creates</text><text fill="#000000" font-family="sans-serif" font-size="13" lengthAdjust="spacing" textLength="7" x="133.0746" y="184.8205">1</text><text fill="#000000" font-family="sans-serif" font-size="13" lengthAdjust="spacing" textLength="7" x="187.6325" y="149.0877">1</text><polygon fill="#181818" points="255.5,197.9543,259.5,188.9543,255.5,192.9543,251.5,188.9543,255.5,197.9543" style="stroke:#181818;stroke-width:1.0;"/><path d="M255.5,134.0594 C255.5,155.7815 255.5,173.4835 255.5,191.9543 " fill="none" style="stroke:#181818;stroke-width:1.0;"/><text fill="#000000" font-family="sans-serif" font-size="13" lengthAdjust="spacing" textLength="43" x="256.5" y="167.0283">creates</text><text fill="#000000" font-family="sans-serif" font-size="13" lengthAdjust="spacing" textLength="7" x="247.5" y="193.9826">1</text><text fill="#000000" font-family="sans-serif" font-size="13" lengthAdjust="spacing" textLength="7" x="247.5" y="149.0877">1</text><polygon fill="#181818" points="510.4032,328.635,519.6977,325.3774,514.0434,325.2073,514.2134,319.553,510.4032,328.635" style="stroke:#181818;stroke-width:1.0;"/><path d="M568.3982,274.0265 C549.625,291.7034 532.4078,307.9153 514.7714,324.5218 " fill="none" style="stroke:#181818;stroke-width:1.0;"/><text fill="#000000" font-family="sans-serif" font-size="13" lengthAdjust="spacing" textLength="28" x="548.5" y="307.0283">uses</text><text fill="#000000" font-family="sans-serif" font-size="13" lengthAdjust="spacing" textLength="7" x="502.4032" y="324.6633">1</text><text fill="#000000" font-family="sans-serif" font-size="13" lengthAdjust="spacing" textLength="7" x="560.3982" y="289.0548">1</text><polygon fill="#181818" points="880.9037,328.9459,873.7866,322.1381,876.1983,327.2551,871.0813,329.6668,880.9037,328.9459" style="stroke:#181818;stroke-width:1.0;"/><path d="M728.066,274.0265 C777.5674,291.8139 828.8843,310.2537 875.2572,326.9169 " fill="none" style="stroke:#181818;stroke-width:1.0;"/><text fill="#000000" font-family="sans-serif" font-size="13" lengthAdjust="spacing" textLength="28" x="824.5" y="307.0283">uses</text><text fill="#000000" font-family="sans-serif" font-size="13" lengthAdjust="spacing" textLength="7" x="872.9037" y="324.9742">1</text><text fill="#000000" font-family="sans-serif" font-size="13" lengthAdjust="spacing" textLength="7" x="720.066" y="289.0548">1</text><polygon fill="#181818" points="971.5,450.9869,975.5,441.9869,971.5,445.9869,967.5,441.9869,971.5,450.9869" style="stroke:#181818;stroke-width:1.0;"/><path d="M971.5,396.0989 C971.5,411.7611 971.5,425.3652 971.5,444.9869 " fill="none" style="stroke:#181818;stroke-width:1.0;"/><text fill="#000000" font-family="sans-serif" font-size="13" lengthAdjust="spacing" textLength="43" x="972.5" y="429.0283">creates</text><text fill="#000000" font-family="sans-serif" font-size="13" lengthAdjust="spacing" textLength="5" x="965.5" y="447.0152">*</text><text fill="#000000" font-family="sans-serif" font-size="13" lengthAdjust="spacing" textLength="7" x="963.5" y="411.1272">1</text><!--SRC=[hLJ1Rjim3BthAxXSbYpEi5rsC8e0JRqD1W9qIDqFq6B64s1BXgGiC8h- -oZBjkmYILjW5ySYzHuVoUTyg3KlAWubRzJHWgdGSiaPsvVS6FY9TgkA7rfL2VuLUxnJqcfLbgZXYJ5OGQcA1zGk5KEw7GukbRU8a4t6vmvxQmnMlucEyiCxt11H1FH8ilirbVcul29aVa52T5r0zCRo4MYbga2o2oUVki3XxaNWdfx5YxbmsIkBmFywm8B14egsQHEwThr-fyQRn2g8OJXbzuiOjiBOctvepun9PH6qAFvOK8Sh0unXXmTulFloBGP8uSIb1QAdua2s85BWPTdfDo0aHLtVdtkF9DpYBzH2vUG9MgknN5iN94bgpqltcecgNJdA_5pcUU1ggwI9Pn9v30zM2rc46s71QLMNTA_rqGvhPOHLkl4U26T6vfbYvbVlBrWxTozaXpodwcRJE9c-oRcVH4hQUhMqtM46yMWUewMi9ns4SkupMi91o7pJz7ItVaYUOuFsX2Z_HzLWk2UgcQkA2vafifARY8ECW6VyDF1Ge6KWL9eC6rfs5fc434gZz9bGrjJJczgFUXInD7BoKbMFOaSfx0X6gjYLlwZPrnciSdMIgtNx_i8xCHmDcbS9El38vZ7iIQvz1xQtTK2-q796wiWadTBNCM750H9Y4y2dMR_B8EeV]--></g></svg>