<?xml version="1.0" encoding="us-ascii" standalone="no"?><svg xmlns="http://www.w3.org/2000/svg" xmlns:xlink="http://www.w3.org/1999/xlink" contentStyleType="text/css" height="660px" preserveAspectRatio="none" style="width:1459px;height:660px;background:#FFFFFF;" version="1.1" viewBox="0 0 1459 660" width="1459px" zoomAndPan="magnify"><defs/><g><rect fill="#FFFFFF" height="443.7734" style="stroke:#181818;stroke-width:1.0;" width="10" x="233" y="161.0762"/><rect fill="#FFFFFF" height="33.6211" style="stroke:#181818;stroke-width:1.0;" width="10" x="468.5" y="202.3672"/><rect fill="#FFFFFF" height="33.6211" style="stroke:#181818;stroke-width:1.0;" width="10" x="607" y="277.2793"/><rect fill="#FFFFFF" height="93.873" style="stroke:#181818;stroke-width:1.0;" width="10" x="725.5" y="342.1914"/><rect fill="#FFFFFF" height="31.291" style="stroke:#181818;stroke-width:1.0;" width="10" x="1085.5" y="373.4824"/><rect fill="#FFFFFF" height="106.2031" style="stroke:#181818;stroke-width:1.0;" width="10" x="1204.5" y="467.3555"/><rect fill="#FFFFFF" height="33.6211" style="stroke:#181818;stroke-width:1.0;" width="10" x="1388" y="508.6465"/><line style="stroke:#181818;stroke-width:0.5;stroke-dasharray:5.0,5.0;" x1="14" x2="14" y1="38.6211" y2="622.8496"/><line style="stroke:#181818;stroke-width:0.5;stroke-dasharray:5.0,5.0;" x1="237.5" x2="237.5" y1="38.6211" y2="622.8496"/><line style="stroke:#181818;stroke-width:0.5;stroke-dasharray:5.0,5.0;" x1="473" x2="473" y1="200.8867" y2="622.8496"/><line style="stroke:#181818;stroke-width:0.5;stroke-dasharray:5.0,5.0;" x1="612" x2="612" y1="275.7988" y2="622.8496"/><line style="stroke:#181818;stroke-width:0.5;stroke-dasharray:5.0,5.0;" x1="730" x2="730" y1="38.6211" y2="622.8496"/><line style="stroke:#181818;stroke-width:0.5;stroke-dasharray:5.0,5.0;" x1="1090.5" x2="1090.5" y1="38.6211" y2="622.8496"/><line style="stroke:#181818;stroke-width:0.5;stroke-dasharray:5.0,5.0;" x1="1209.5" x2="1209.5" y1="38.6211" y2="622.8496"/><line style="stroke:#181818;stroke-width:0.5;stroke-dasharray:5.0,5.0;" x1="1392.5" x2="1392.5" y1="507.166" y2="622.8496"/><rect fill="#E2E2F0" height="32.6211" rx="2.5" ry="2.5" style="stroke:#181818;stroke-width:0.5;" width="18" x="5" y="5"/><text fill="#000000" font-family="sans-serif" font-size="14" lengthAdjust="spacing" textLength="4" x="12" y="27.1074">&#160;</text><rect fill="#E2E2F0" height="32.6211" rx="2.5" ry="2.5" style="stroke:#181818;stroke-width:0.5;" width="18" x="5" y="621.8496"/><text fill="#000000" font-family="sans-serif" font-size="14" lengthAdjust="spacing" textLength="4" x="12" y="643.957">&#160;</text><rect fill="#E2E2F0" height="32.6211" rx="2.5" ry="2.5" style="stroke:#181818;stroke-width:0.5;" width="203" x="136.5" y="5"/><text fill="#000000" font-family="sans-serif" font-size="14" lengthAdjust="spacing" textLength="189" x="143.5" y="27.1074">:GetLogFromDeviceController</text><rect fill="#E2E2F0" height="32.6211" rx="2.5" ry="2.5" style="stroke:#181818;stroke-width:0.5;" width="203" x="136.5" y="621.8496"/><text fill="#000000" font-family="sans-serif" font-size="14" lengthAdjust="spacing" textLength="189" x="143.5" y="643.957">:GetLogFromDeviceController</text><rect fill="#E2E2F0" height="32.6211" rx="2.5" ry="2.5" style="stroke:#181818;stroke-width:0.5;" width="129" x="409" y="621.8496"/><text fill="#000000" font-family="sans-serif" font-size="14" lengthAdjust="spacing" textLength="115" x="416" y="643.957">period:DatePeriod</text><rect fill="#E2E2F0" height="32.6211" rx="2.5" ry="2.5" style="stroke:#181818;stroke-width:0.5;" width="128" x="548" y="621.8496"/><text fill="#000000" font-family="sans-serif" font-size="14" lengthAdjust="spacing" textLength="114" x="555" y="643.957">deviceID:DeviceID</text><rect fill="#E2E2F0" height="32.6211" rx="2.5" ry="2.5" style="stroke:#181818;stroke-width:0.5;" width="89" x="686" y="5"/><text fill="#000000" font-family="sans-serif" font-size="14" lengthAdjust="spacing" textLength="75" x="693" y="27.1074">:LogService</text><rect fill="#E2E2F0" height="32.6211" rx="2.5" ry="2.5" style="stroke:#181818;stroke-width:0.5;" width="89" x="686" y="621.8496"/><text fill="#000000" font-family="sans-serif" font-size="14" lengthAdjust="spacing" textLength="75" x="693" y="643.957">:LogService</text><rect fill="#E2E2F0" height="32.6211" rx="2.5" ry="2.5" style="stroke:#181818;stroke-width:0.5;" width="110" x="1035.5" y="5"/><text fill="#000000" font-family="sans-serif" font-size="14" lengthAdjust="spacing" textLength="96" x="1042.5" y="27.1074">:LogRepository</text><rect fill="#E2E2F0" height="32.6211" rx="2.5" ry="2.5" style="stroke:#181818;stroke-width:0.5;" width="110" x="1035.5" y="621.8496"/><text fill="#000000" font-family="sans-serif" font-size="14" lengthAdjust="spacing" textLength="96" x="1042.5" y="643.957">:LogRepository</text><rect fill="#E2E2F0" height="32.6211" rx="2.5" ry="2.5" style="stroke:#181818;stroke-width:0.5;" width="108" x="1155.5" y="5"/><text fill="#000000" font-family="sans-serif" font-size="14" lengthAdjust="spacing" textLength="94" x="1162.5" y="27.1074">:LogAssembler</text><rect fill="#E2E2F0" height="32.6211" rx="2.5" ry="2.5" style="stroke:#181818;stroke-width:0.5;" width="108" x="1155.5" y="621.8496"/><text fill="#000000" font-family="sans-serif" font-size="14" lengthAdjust="spacing" textLength="94" x="1162.5" y="643.957">:LogAssembler</text><rect fill="#E2E2F0" height="32.6211" rx="2.5" ry="2.5" style="stroke:#181818;stroke-width:0.5;" width="121" x="1332.5" y="621.8496"/><text fill="#000000" font-family="sans-serif" font-size="14" lengthAdjust="spacing" textLength="107" x="1339.5" y="643.957">logDTO:LogDTO</text><rect fill="#FFFFFF" height="443.7734" style="stroke:#181818;stroke-width:1.0;" width="10" x="233" y="161.0762"/><rect fill="#FFFFFF" height="33.6211" style="stroke:#181818;stroke-width:1.0;" width="10" x="468.5" y="202.3672"/><rect fill="#FFFFFF" height="33.6211" style="stroke:#181818;stroke-width:1.0;" width="10" x="607" y="277.2793"/><rect fill="#FFFFFF" height="93.873" style="stroke:#181818;stroke-width:1.0;" width="10" x="725.5" y="342.1914"/><rect fill="#FFFFFF" height="31.291" style="stroke:#181818;stroke-width:1.0;" width="10" x="1085.5" y="373.4824"/><rect fill="#FFFFFF" height="106.2031" style="stroke:#181818;stroke-width:1.0;" width="10" x="1204.5" y="467.3555"/><rect fill="#FFFFFF" height="33.6211" style="stroke:#181818;stroke-width:1.0;" width="10" x="1388" y="508.6465"/><path d="M19,53.6211 L19,132.6211 L178,132.6211 L178,63.6211 L168,53.6211 L19,53.6211 " fill="#FEFFDD" style="stroke:#181818;stroke-width:0.5;"/><path d="M168,53.6211 L168,63.6211 L178,63.6211 L168,53.6211 " fill="#FEFFDD" style="stroke:#181818;stroke-width:0.5;"/><text fill="#000000" font-family="sans-serif" font-size="13" lengthAdjust="spacing" textLength="4" x="25" y="72.6494">&#160;</text><text fill="#000000" font-family="sans-serif" font-size="13" lengthAdjust="spacing" textLength="59" x="25" y="89.9404">Ref UC06:</text><text fill="#000000" font-family="sans-serif" font-size="13" lengthAdjust="spacing" textLength="134" x="29" y="107.2314">I want to get a list of all</text><text fill="#000000" font-family="sans-serif" font-size="13" lengthAdjust="spacing" textLength="105" x="29" y="124.5225">devices in a room.</text><ellipse cx="13.5" cy="160.3262" fill="none" rx="4" ry="4" style="stroke:#181818;stroke-width:1.5;"/><polygon fill="#181818" points="221,157.0762,231,161.0762,221,165.0762,225,161.0762" style="stroke:#181818;stroke-width:1.0;"/><line style="stroke:#181818;stroke-width:1.0;" x1="18" x2="227" y1="161.0762" y2="161.0762"/><text fill="#000000" font-family="sans-serif" font-size="13" font-weight="bold" lengthAdjust="spacing" textLength="7" x="21" y="155.8135">1</text><text fill="#000000" font-family="sans-serif" font-size="13" lengthAdjust="spacing" textLength="189" x="32" y="155.8135">getLogFromDevice(logEntryDTO)</text><polygon fill="#181818" points="397,188.3672,407,192.3672,397,196.3672,401,192.3672" style="stroke:#181818;stroke-width:1.0;"/><line style="stroke:#181818;stroke-width:1.0;" x1="243" x2="403" y1="192.3672" y2="192.3672"/><text fill="#000000" font-family="sans-serif" font-size="13" font-weight="bold" lengthAdjust="spacing" textLength="7" x="250" y="187.1045">2</text><text fill="#000000" font-family="sans-serif" font-size="13" lengthAdjust="spacing" textLength="131" x="261" y="187.1045">DatePeriod (start, end)</text><rect fill="#E2E2F0" height="32.6211" rx="2.5" ry="2.5" style="stroke:#181818;stroke-width:0.5;" width="129" x="409" y="169.0762"/><text fill="#000000" font-family="sans-serif" font-size="14" lengthAdjust="spacing" textLength="115" x="416" y="191.1836">period:DatePeriod</text><polygon fill="#181818" points="254,231.9883,244,235.9883,254,239.9883,250,235.9883" style="stroke:#181818;stroke-width:1.0;"/><line style="stroke:#181818;stroke-width:1.0;stroke-dasharray:2.0,2.0;" x1="248" x2="472.5" y1="235.9883" y2="235.9883"/><text fill="#000000" font-family="sans-serif" font-size="13" font-weight="bold" lengthAdjust="spacing" textLength="7" x="260" y="230.7256">3</text><text fill="#000000" font-family="sans-serif" font-size="13" lengthAdjust="spacing" textLength="35" x="271" y="230.7256">period</text><polygon fill="#181818" points="536,263.2793,546,267.2793,536,271.2793,540,267.2793" style="stroke:#181818;stroke-width:1.0;"/><line style="stroke:#181818;stroke-width:1.0;" x1="243" x2="542" y1="267.2793" y2="267.2793"/><text fill="#000000" font-family="sans-serif" font-size="13" font-weight="bold" lengthAdjust="spacing" textLength="7" x="250" y="262.0166">4</text><text fill="#000000" font-family="sans-serif" font-size="13" lengthAdjust="spacing" textLength="110" x="261" y="262.0166">DeviceID (deviceID)</text><rect fill="#E2E2F0" height="32.6211" rx="2.5" ry="2.5" style="stroke:#181818;stroke-width:0.5;" width="128" x="548" y="243.9883"/><text fill="#000000" font-family="sans-serif" font-size="14" lengthAdjust="spacing" textLength="114" x="555" y="266.0957">deviceID:DeviceID</text><polygon fill="#181818" points="254,306.9004,244,310.9004,254,314.9004,250,310.9004" style="stroke:#181818;stroke-width:1.0;"/><line style="stroke:#181818;stroke-width:1.0;stroke-dasharray:2.0,2.0;" x1="248" x2="611" y1="310.9004" y2="310.9004"/><text fill="#000000" font-family="sans-serif" font-size="13" font-weight="bold" lengthAdjust="spacing" textLength="7" x="260" y="305.6377">5</text><text fill="#000000" font-family="sans-serif" font-size="13" lengthAdjust="spacing" textLength="48" x="271" y="305.6377">deviceID</text><polygon fill="#181818" points="713.5,338.1914,723.5,342.1914,713.5,346.1914,717.5,342.1914" style="stroke:#181818;stroke-width:1.0;"/><line style="stroke:#181818;stroke-width:1.0;" x1="243" x2="719.5" y1="342.1914" y2="342.1914"/><text fill="#000000" font-family="sans-serif" font-size="13" font-weight="bold" lengthAdjust="spacing" textLength="7" x="250" y="336.9287">6</text><text fill="#000000" font-family="sans-serif" font-size="13" lengthAdjust="spacing" textLength="294" x="261" y="336.9287">getDeviceReadingsByTimePeriod (deviceID, period)</text><polygon fill="#181818" points="1073.5,369.4824,1083.5,373.4824,1073.5,377.4824,1077.5,373.4824" style="stroke:#181818;stroke-width:1.0;"/><line style="stroke:#181818;stroke-width:1.0;" x1="735.5" x2="1079.5" y1="373.4824" y2="373.4824"/><text fill="#000000" font-family="sans-serif" font-size="13" font-weight="bold" lengthAdjust="spacing" textLength="7" x="742.5" y="368.2197">7</text><text fill="#000000" font-family="sans-serif" font-size="13" lengthAdjust="spacing" textLength="320" x="753.5" y="368.2197">findByDeviceIdAndDatePeriodBetween(deviceID, period)</text><polygon fill="#181818" points="746.5,400.7734,736.5,404.7734,746.5,408.7734,742.5,404.7734" style="stroke:#181818;stroke-width:1.0;"/><line style="stroke:#181818;stroke-width:1.0;stroke-dasharray:2.0,2.0;" x1="740.5" x2="1089.5" y1="404.7734" y2="404.7734"/><text fill="#000000" font-family="sans-serif" font-size="13" font-weight="bold" lengthAdjust="spacing" textLength="7" x="752.5" y="399.5107">8</text><text fill="#000000" font-family="sans-serif" font-size="13" lengthAdjust="spacing" textLength="38" x="763.5" y="399.5107">logList</text><polygon fill="#181818" points="254,432.0645,244,436.0645,254,440.0645,250,436.0645" style="stroke:#181818;stroke-width:1.0;"/><line style="stroke:#181818;stroke-width:1.0;stroke-dasharray:2.0,2.0;" x1="248" x2="729.5" y1="436.0645" y2="436.0645"/><text fill="#000000" font-family="sans-serif" font-size="13" font-weight="bold" lengthAdjust="spacing" textLength="7" x="260" y="430.8018">9</text><text fill="#000000" font-family="sans-serif" font-size="13" lengthAdjust="spacing" textLength="38" x="271" y="430.8018">logList</text><polygon fill="#181818" points="1192.5,463.3555,1202.5,467.3555,1192.5,471.3555,1196.5,467.3555" style="stroke:#181818;stroke-width:1.0;"/><line style="stroke:#181818;stroke-width:1.0;" x1="243" x2="1198.5" y1="467.3555" y2="467.3555"/><text fill="#000000" font-family="sans-serif" font-size="13" font-weight="bold" lengthAdjust="spacing" textLength="14" x="250" y="462.0928">10</text><text fill="#000000" font-family="sans-serif" font-size="13" lengthAdjust="spacing" textLength="128" x="268" y="462.0928">domainToDTO(logList)</text><polygon fill="#181818" points="1320.5,494.6465,1330.5,498.6465,1320.5,502.6465,1324.5,498.6465" style="stroke:#181818;stroke-width:1.0;"/><line style="stroke:#181818;stroke-width:1.0;" x1="1214.5" x2="1326.5" y1="498.6465" y2="498.6465"/><text fill="#000000" font-family="sans-serif" font-size="13" font-weight="bold" lengthAdjust="spacing" textLength="14" x="1221.5" y="493.3838">11</text><text fill="#000000" font-family="sans-serif" font-size="13" lengthAdjust="spacing" textLength="76" x="1239.5" y="493.3838">LogDTO (log)</text><rect fill="#E2E2F0" height="32.6211" rx="2.5" ry="2.5" style="stroke:#181818;stroke-width:0.5;" width="121" x="1332.5" y="475.3555"/><text fill="#000000" font-family="sans-serif" font-size="14" lengthAdjust="spacing" textLength="107" x="1339.5" y="497.4629">logDTO:LogDTO</text><polygon fill="#181818" points="1225.5,538.2676,1215.5,542.2676,1225.5,546.2676,1221.5,542.2676" style="stroke:#181818;stroke-width:1.0;"/><line style="stroke:#181818;stroke-width:1.0;stroke-dasharray:2.0,2.0;" x1="1219.5" x2="1392" y1="542.2676" y2="542.2676"/><text fill="#000000" font-family="sans-serif" font-size="13" font-weight="bold" lengthAdjust="spacing" textLength="14" x="1231.5" y="537.0049">12</text><text fill="#000000" font-family="sans-serif" font-size="13" lengthAdjust="spacing" textLength="43" x="1249.5" y="537.0049">logDTO</text><polygon fill="#181818" points="254,569.5586,244,573.5586,254,577.5586,250,573.5586" style="stroke:#181818;stroke-width:1.0;"/><line style="stroke:#181818;stroke-width:1.0;stroke-dasharray:2.0,2.0;" x1="248" x2="1208.5" y1="573.5586" y2="573.5586"/><text fill="#000000" font-family="sans-serif" font-size="13" font-weight="bold" lengthAdjust="spacing" textLength="14" x="260" y="568.2959">13</text><text fill="#000000" font-family="sans-serif" font-size="13" lengthAdjust="spacing" textLength="64" x="278" y="568.2959">logListDTO</text><polygon fill="#181818" points="25,600.8496,15,604.8496,25,608.8496,21,604.8496" style="stroke:#181818;stroke-width:1.0;"/><line style="stroke:#181818;stroke-width:1.0;stroke-dasharray:2.0,2.0;" x1="19" x2="237" y1="604.8496" y2="604.8496"/><text fill="#000000" font-family="sans-serif" font-size="13" font-weight="bold" lengthAdjust="spacing" textLength="14" x="31" y="599.5869">14</text><text fill="#000000" font-family="sans-serif" font-size="13" lengthAdjust="spacing" textLength="64" x="49" y="599.5869">logListDTO</text><!--SRC=[RLJDRjim3BxhARXTaW39iDCEFXH8cgueK213cps0QZEkC5ao92L5tdwKP5coa-HWKYG_VVmHl_M6jnq7oQ_wxC1swBZYZFNSE56BdYi7t-dFBVorQARdrJEwLzt-DhhRuqNK-AYLCrfAD24YgpF07etGJRNd3ly4CRXdTUhT1EoNVRKVXEWzA3DAnESTZJS5hwpU-hrXhwrmsbo3QrPlNRVMOlUHyXgrgQFKxVvuyExqYHoF1yRusMbrxZvy5PHs24QqdmxqALQK0TrCykFFNnN9y09V7irfQD41TKROuCobzEPO30j2aSretVrWg1hmm8n-7XBqvg6eVUM19crQ4jCdCb-9tue8ravSgFPblnQv6S09FrKRk46e3PArOV5RzYqZ0778XggGOMaTbMqDn7kLBozG2j_DB9KuEQp1Ut4ZeJGQCpffZd8sopHR9P4KFNhDIQIW2OrqnjY2whsLygo4iuVJO53Fue8gPVNWU_Bko-3fhxtsf1elppZd-GrjZ61lo1kXMhkx7aKtLZMnMWz5MaKcuoqUJkgQIw_um639UHTFXIrEGZMxwy2zsQfc2EZw7RelH1NHzBymY5A2pnPCUa82BSjutZU_hWfkm7CF1_HxoOn4YuUQnT2aibequw_qT5ZPf2AoP3ThxnXPXXRLcNPeN0Oq5xhZGXqrFQlb05BopciZpIcjX_4mJ2Yj3uZx0pn2EPNawuytqolZpfamdQ7UJsuUbBcLsL6iNoYJg2AetE__0G00]--></g></svg>