<?xml version="1.0" encoding="us-ascii" standalone="no"?><svg xmlns="http://www.w3.org/2000/svg" xmlns:xlink="http://www.w3.org/1999/xlink" contentStyleType="text/css" height="974px" preserveAspectRatio="none" style="width:1557px;height:974px;background:#FFFFFF;" version="1.1" viewBox="0 0 1557 974" width="1557px" zoomAndPan="magnify"><defs/><g><rect fill="#DDDDDD" height="962.3418" style="stroke:#181818;stroke-width:0.5;" width="1346" x="181" y="6"/><text fill="#000000" font-family="sans-serif" font-size="13" font-weight="bold" lengthAdjust="spacing" textLength="128" x="790" y="20.0283">Power Consumption</text><rect fill="#FFFFFF" height="782.2754" style="stroke:#181818;stroke-width:1.0;" width="10" x="230" y="112.8242"/><rect fill="#FFFFFF" height="156.4551" style="stroke:#181818;stroke-width:1.0;" width="10" x="810" y="457.0254"/><rect fill="#FFFFFF" height="156.4551" style="stroke:#181818;stroke-width:1.0;" width="10" x="810" y="644.7715"/><rect fill="#FFFFFF" height="31.291" style="stroke:#181818;stroke-width:1.0;" width="10" x="810" y="832.5176"/><rect fill="#FFFFFF" height="93.873" style="stroke:#181818;stroke-width:1.0;" width="10" x="1358" y="488.3164"/><rect fill="#FFFFFF" height="93.873" style="stroke:#181818;stroke-width:1.0;" width="10" x="1358" y="676.0625"/><rect fill="#FFFFFF" height="31.291" style="stroke:#181818;stroke-width:1.0;" width="10" x="1468" y="144.1152"/><rect fill="#FFFFFF" height="31.291" style="stroke:#181818;stroke-width:1.0;" width="10" x="1468" y="206.6973"/><rect fill="#FFFFFF" height="31.291" style="stroke:#181818;stroke-width:1.0;" width="10" x="1468" y="269.2793"/><rect fill="#FFFFFF" height="31.291" style="stroke:#181818;stroke-width:1.0;" width="10" x="1468" y="331.8613"/><rect fill="#FFFFFF" height="31.291" style="stroke:#181818;stroke-width:1.0;" width="10" x="1468" y="394.4434"/><line style="stroke:#181818;stroke-width:0.5;stroke-dasharray:5.0,5.0;" x1="14" x2="14" y1="79.5332" y2="913.0996"/><line style="stroke:#181818;stroke-width:0.5;stroke-dasharray:5.0,5.0;" x1="235" x2="235" y1="79.5332" y2="913.0996"/><line style="stroke:#181818;stroke-width:0.5;stroke-dasharray:5.0,5.0;" x1="815" x2="815" y1="79.5332" y2="913.0996"/><line style="stroke:#181818;stroke-width:0.5;stroke-dasharray:5.0,5.0;" x1="1363" x2="1363" y1="79.5332" y2="913.0996"/><line style="stroke:#181818;stroke-width:0.5;stroke-dasharray:5.0,5.0;" x1="1473" x2="1473" y1="79.5332" y2="913.0996"/><line style="stroke:#181818;stroke-width:0.5;stroke-dasharray:5.0,5.0;" x1="1542" x2="1542" y1="79.5332" y2="913.0996"/><rect fill="#E2E2F0" height="32.6211" rx="2.5" ry="2.5" style="stroke:#181818;stroke-width:0.5;" width="18" x="5" y="45.9121"/><text fill="#000000" font-family="sans-serif" font-size="14" lengthAdjust="spacing" textLength="4" x="12" y="68.0195">&#160;</text><rect fill="#E2E2F0" height="32.6211" rx="2.5" ry="2.5" style="stroke:#181818;stroke-width:0.5;" width="18" x="5" y="912.0996"/><text fill="#000000" font-family="sans-serif" font-size="14" lengthAdjust="spacing" textLength="4" x="12" y="934.207">&#160;</text><rect fill="#E2E2F0" height="51.2422" rx="2.5" ry="2.5" style="stroke:#181818;stroke-width:0.5;" width="100" x="185" y="27.291"/><text fill="#000000" font-family="sans-serif" font-size="14" font-style="italic" lengthAdjust="spacing" textLength="86" x="192" y="49.3984">&#171;component&#187;</text><text fill="#000000" font-family="sans-serif" font-size="14" lengthAdjust="spacing" textLength="62" x="204" y="68.0195">Controller</text><rect fill="#E2E2F0" height="51.2422" rx="2.5" ry="2.5" style="stroke:#181818;stroke-width:0.5;" width="100" x="185" y="912.0996"/><text fill="#000000" font-family="sans-serif" font-size="14" font-style="italic" lengthAdjust="spacing" textLength="86" x="192" y="934.207">&#171;component&#187;</text><text fill="#000000" font-family="sans-serif" font-size="14" lengthAdjust="spacing" textLength="62" x="204" y="952.8281">Controller</text><rect fill="#E2E2F0" height="51.2422" rx="2.5" ry="2.5" style="stroke:#181818;stroke-width:0.5;" width="100" x="765" y="27.291"/><text fill="#000000" font-family="sans-serif" font-size="14" font-style="italic" lengthAdjust="spacing" textLength="86" x="772" y="49.3984">&#171;component&#187;</text><text fill="#000000" font-family="sans-serif" font-size="14" lengthAdjust="spacing" textLength="47" x="791.5" y="68.0195">Service</text><rect fill="#E2E2F0" height="51.2422" rx="2.5" ry="2.5" style="stroke:#181818;stroke-width:0.5;" width="100" x="765" y="912.0996"/><text fill="#000000" font-family="sans-serif" font-size="14" font-style="italic" lengthAdjust="spacing" textLength="86" x="772" y="934.207">&#171;component&#187;</text><text fill="#000000" font-family="sans-serif" font-size="14" lengthAdjust="spacing" textLength="47" x="791.5" y="952.8281">Service</text><rect fill="#E2E2F0" height="51.2422" rx="2.5" ry="2.5" style="stroke:#181818;stroke-width:0.5;" width="100" x="1313" y="27.291"/><text fill="#000000" font-family="sans-serif" font-size="14" font-style="italic" lengthAdjust="spacing" textLength="86" x="1320" y="49.3984">&#171;component&#187;</text><text fill="#000000" font-family="sans-serif" font-size="14" lengthAdjust="spacing" textLength="68" x="1329" y="68.0195">Repository</text><rect fill="#E2E2F0" height="51.2422" rx="2.5" ry="2.5" style="stroke:#181818;stroke-width:0.5;" width="100" x="1313" y="912.0996"/><text fill="#000000" font-family="sans-serif" font-size="14" font-style="italic" lengthAdjust="spacing" textLength="86" x="1320" y="934.207">&#171;component&#187;</text><text fill="#000000" font-family="sans-serif" font-size="14" lengthAdjust="spacing" textLength="68" x="1329" y="952.8281">Repository</text><rect fill="#E2E2F0" height="51.2422" rx="2.5" ry="2.5" style="stroke:#181818;stroke-width:0.5;" width="100" x="1423" y="27.291"/><text fill="#000000" font-family="sans-serif" font-size="14" font-style="italic" lengthAdjust="spacing" textLength="86" x="1430" y="49.3984">&#171;component&#187;</text><text fill="#000000" font-family="sans-serif" font-size="14" lengthAdjust="spacing" textLength="48" x="1449" y="68.0195">Domain</text><rect fill="#E2E2F0" height="51.2422" rx="2.5" ry="2.5" style="stroke:#181818;stroke-width:0.5;" width="100" x="1423" y="912.0996"/><text fill="#000000" font-family="sans-serif" font-size="14" font-style="italic" lengthAdjust="spacing" textLength="86" x="1430" y="934.207">&#171;component&#187;</text><text fill="#000000" font-family="sans-serif" font-size="14" lengthAdjust="spacing" textLength="48" x="1449" y="952.8281">Domain</text><rect fill="#E2E2F0" height="32.6211" rx="2.5" ry="2.5" style="stroke:#181818;stroke-width:0.5;" width="18" x="1533" y="45.9121"/><text fill="#000000" font-family="sans-serif" font-size="14" lengthAdjust="spacing" textLength="4" x="1540" y="68.0195">&#160;</text><rect fill="#E2E2F0" height="32.6211" rx="2.5" ry="2.5" style="stroke:#181818;stroke-width:0.5;" width="18" x="1533" y="912.0996"/><text fill="#000000" font-family="sans-serif" font-size="14" lengthAdjust="spacing" textLength="4" x="1540" y="934.207">&#160;</text><rect fill="#FFFFFF" height="782.2754" style="stroke:#181818;stroke-width:1.0;" width="10" x="230" y="112.8242"/><rect fill="#FFFFFF" height="156.4551" style="stroke:#181818;stroke-width:1.0;" width="10" x="810" y="457.0254"/><rect fill="#FFFFFF" height="156.4551" style="stroke:#181818;stroke-width:1.0;" width="10" x="810" y="644.7715"/><rect fill="#FFFFFF" height="31.291" style="stroke:#181818;stroke-width:1.0;" width="10" x="810" y="832.5176"/><rect fill="#FFFFFF" height="93.873" style="stroke:#181818;stroke-width:1.0;" width="10" x="1358" y="488.3164"/><rect fill="#FFFFFF" height="93.873" style="stroke:#181818;stroke-width:1.0;" width="10" x="1358" y="676.0625"/><rect fill="#FFFFFF" height="31.291" style="stroke:#181818;stroke-width:1.0;" width="10" x="1468" y="144.1152"/><rect fill="#FFFFFF" height="31.291" style="stroke:#181818;stroke-width:1.0;" width="10" x="1468" y="206.6973"/><rect fill="#FFFFFF" height="31.291" style="stroke:#181818;stroke-width:1.0;" width="10" x="1468" y="269.2793"/><rect fill="#FFFFFF" height="31.291" style="stroke:#181818;stroke-width:1.0;" width="10" x="1468" y="331.8613"/><rect fill="#FFFFFF" height="31.291" style="stroke:#181818;stroke-width:1.0;" width="10" x="1468" y="394.4434"/><ellipse cx="13.5" cy="112.0742" fill="none" rx="4" ry="4" style="stroke:#181818;stroke-width:1.5;"/><polygon fill="#181818" points="218,108.8242,228,112.8242,218,116.8242,222,112.8242" style="stroke:#181818;stroke-width:1.0;"/><line style="stroke:#181818;stroke-width:1.0;" x1="18" x2="224" y1="112.8242" y2="112.8242"/><text fill="#000000" font-family="sans-serif" font-size="13" font-weight="bold" lengthAdjust="spacing" textLength="7" x="21" y="107.5615">1</text><text fill="#000000" font-family="sans-serif" font-size="13" lengthAdjust="spacing" textLength="186" x="32" y="107.5615">GET/logs/temperature-difference</text><polygon fill="#181818" points="1456,140.1152,1466,144.1152,1456,148.1152,1460,144.1152" style="stroke:#181818;stroke-width:1.0;"/><line style="stroke:#181818;stroke-width:1.0;" x1="240" x2="1462" y1="144.1152" y2="144.1152"/><text fill="#000000" font-family="sans-serif" font-size="13" font-weight="bold" lengthAdjust="spacing" textLength="7" x="247" y="138.8525">2</text><text fill="#000000" font-family="sans-serif" font-size="13" lengthAdjust="spacing" textLength="167" x="258" y="138.8525">DeviceID(outsideDeviceIDStr)</text><polygon fill="#181818" points="251,171.4063,241,175.4063,251,179.4063,247,175.4063" style="stroke:#181818;stroke-width:1.0;"/><line style="stroke:#181818;stroke-width:1.0;stroke-dasharray:2.0,2.0;" x1="245" x2="1472" y1="175.4063" y2="175.4063"/><text fill="#000000" font-family="sans-serif" font-size="13" font-weight="bold" lengthAdjust="spacing" textLength="7" x="257" y="170.1436">3</text><text fill="#000000" font-family="sans-serif" font-size="13" lengthAdjust="spacing" textLength="48" x="268" y="170.1436">deviceID</text><polygon fill="#181818" points="1456,202.6973,1466,206.6973,1456,210.6973,1460,206.6973" style="stroke:#181818;stroke-width:1.0;"/><line style="stroke:#181818;stroke-width:1.0;" x1="240" x2="1462" y1="206.6973" y2="206.6973"/><text fill="#000000" font-family="sans-serif" font-size="13" font-weight="bold" lengthAdjust="spacing" textLength="7" x="247" y="201.4346">4</text><text fill="#000000" font-family="sans-serif" font-size="13" lengthAdjust="spacing" textLength="159" x="258" y="201.4346">DeviceID(insideDeviceIDStr)</text><polygon fill="#181818" points="251,233.9883,241,237.9883,251,241.9883,247,237.9883" style="stroke:#181818;stroke-width:1.0;"/><line style="stroke:#181818;stroke-width:1.0;stroke-dasharray:2.0,2.0;" x1="245" x2="1472" y1="237.9883" y2="237.9883"/><text fill="#000000" font-family="sans-serif" font-size="13" font-weight="bold" lengthAdjust="spacing" textLength="7" x="257" y="232.7256">5</text><text fill="#000000" font-family="sans-serif" font-size="13" lengthAdjust="spacing" textLength="48" x="268" y="232.7256">deviceID</text><polygon fill="#181818" points="1456,265.2793,1466,269.2793,1456,273.2793,1460,269.2793" style="stroke:#181818;stroke-width:1.0;"/><line style="stroke:#181818;stroke-width:1.0;" x1="240" x2="1462" y1="269.2793" y2="269.2793"/><text fill="#000000" font-family="sans-serif" font-size="13" font-weight="bold" lengthAdjust="spacing" textLength="7" x="247" y="264.0166">6</text><text fill="#000000" font-family="sans-serif" font-size="13" lengthAdjust="spacing" textLength="164" x="258" y="264.0166">SensorType(strTemperature)</text><polygon fill="#181818" points="251,296.5703,241,300.5703,251,304.5703,247,300.5703" style="stroke:#181818;stroke-width:1.0;"/><line style="stroke:#181818;stroke-width:1.0;stroke-dasharray:2.0,2.0;" x1="245" x2="1472" y1="300.5703" y2="300.5703"/><text fill="#000000" font-family="sans-serif" font-size="13" font-weight="bold" lengthAdjust="spacing" textLength="7" x="257" y="295.3076">7</text><text fill="#000000" font-family="sans-serif" font-size="13" lengthAdjust="spacing" textLength="67" x="268" y="295.3076">sensorType</text><polygon fill="#181818" points="1456,327.8613,1466,331.8613,1456,335.8613,1460,331.8613" style="stroke:#181818;stroke-width:1.0;"/><line style="stroke:#181818;stroke-width:1.0;" x1="240" x2="1462" y1="331.8613" y2="331.8613"/><text fill="#000000" font-family="sans-serif" font-size="13" font-weight="bold" lengthAdjust="spacing" textLength="7" x="247" y="326.5986">8</text><text fill="#000000" font-family="sans-serif" font-size="13" lengthAdjust="spacing" textLength="187" x="258" y="326.5986">DatePeriod(initialTime, endTime)</text><polygon fill="#181818" points="251,359.1523,241,363.1523,251,367.1523,247,363.1523" style="stroke:#181818;stroke-width:1.0;"/><line style="stroke:#181818;stroke-width:1.0;stroke-dasharray:2.0,2.0;" x1="245" x2="1472" y1="363.1523" y2="363.1523"/><text fill="#000000" font-family="sans-serif" font-size="13" font-weight="bold" lengthAdjust="spacing" textLength="7" x="257" y="357.8896">9</text><text fill="#000000" font-family="sans-serif" font-size="13" lengthAdjust="spacing" textLength="62" x="268" y="357.8896">datePeriod</text><polygon fill="#181818" points="1456,390.4434,1466,394.4434,1456,398.4434,1460,394.4434" style="stroke:#181818;stroke-width:1.0;"/><line style="stroke:#181818;stroke-width:1.0;" x1="240" x2="1462" y1="394.4434" y2="394.4434"/><text fill="#000000" font-family="sans-serif" font-size="13" font-weight="bold" lengthAdjust="spacing" textLength="14" x="247" y="389.1807">10</text><text fill="#000000" font-family="sans-serif" font-size="13" lengthAdjust="spacing" textLength="138" x="265" y="389.1807">TimeDelta(intTimeDelta)</text><polygon fill="#181818" points="251,421.7344,241,425.7344,251,429.7344,247,425.7344" style="stroke:#181818;stroke-width:1.0;"/><line style="stroke:#181818;stroke-width:1.0;stroke-dasharray:2.0,2.0;" x1="245" x2="1472" y1="425.7344" y2="425.7344"/><text fill="#000000" font-family="sans-serif" font-size="13" font-weight="bold" lengthAdjust="spacing" textLength="14" x="257" y="420.4717">11</text><text fill="#000000" font-family="sans-serif" font-size="13" lengthAdjust="spacing" textLength="55" x="275" y="420.4717">timeDelta</text><polygon fill="#181818" points="798,453.0254,808,457.0254,798,461.0254,802,457.0254" style="stroke:#181818;stroke-width:1.0;"/><line style="stroke:#181818;stroke-width:1.0;" x1="240" x2="804" y1="457.0254" y2="457.0254"/><text fill="#000000" font-family="sans-serif" font-size="13" font-weight="bold" lengthAdjust="spacing" textLength="14" x="247" y="451.7627">12</text><text fill="#000000" font-family="sans-serif" font-size="13" lengthAdjust="spacing" textLength="500" x="265" y="451.7627">getMaxInstTempDiffBetweenDeviceAndOutside(insideDeviceID, sensorType, timeDelta)</text><polygon fill="#181818" points="1346,484.3164,1356,488.3164,1346,492.3164,1350,488.3164" style="stroke:#181818;stroke-width:1.0;"/><line style="stroke:#181818;stroke-width:1.0;" x1="820" x2="1352" y1="488.3164" y2="488.3164"/><text fill="#000000" font-family="sans-serif" font-size="13" font-weight="bold" lengthAdjust="spacing" textLength="14" x="827" y="483.0537">13</text><text fill="#000000" font-family="sans-serif" font-size="13" lengthAdjust="spacing" textLength="501" x="845" y="483.0537">findByDeviceIDAndSensorTypeAndDatePeriodBetween(deviceID, sensorTypeID, period)</text><ellipse cx="1541.5" cy="518.8574" fill="none" rx="4" ry="4" style="stroke:#181818;stroke-width:1.5;"/><polygon fill="#181818" points="1524.5,515.6074,1534.5,519.6074,1524.5,523.6074,1528.5,519.6074" style="stroke:#181818;stroke-width:1.0;"/><line style="stroke:#181818;stroke-width:1.0;" x1="1368" x2="1530.5" y1="519.6074" y2="519.6074"/><text fill="#000000" font-family="sans-serif" font-size="13" font-weight="bold" lengthAdjust="spacing" textLength="14" x="1375" y="514.3447">14</text><text fill="#000000" font-family="sans-serif" font-size="13" lengthAdjust="spacing" textLength="20" x="1393" y="514.3447">find</text><polygon fill="#181818" points="1379,546.8984,1369,550.8984,1379,554.8984,1375,550.8984" style="stroke:#181818;stroke-width:1.0;"/><ellipse cx="1541.5" cy="550.1484" fill="none" rx="4" ry="4" style="stroke:#181818;stroke-width:1.5;"/><line style="stroke:#181818;stroke-width:1.0;stroke-dasharray:2.0,2.0;" x1="1373" x2="1537" y1="550.8984" y2="550.8984"/><text fill="#000000" font-family="sans-serif" font-size="13" font-weight="bold" lengthAdjust="spacing" textLength="14" x="1385" y="545.6357">15</text><text fill="#000000" font-family="sans-serif" font-size="13" lengthAdjust="spacing" textLength="38" x="1403" y="545.6357">logList</text><polygon fill="#181818" points="831,578.1895,821,582.1895,831,586.1895,827,582.1895" style="stroke:#181818;stroke-width:1.0;"/><line style="stroke:#181818;stroke-width:1.0;stroke-dasharray:2.0,2.0;" x1="825" x2="1362" y1="582.1895" y2="582.1895"/><text fill="#000000" font-family="sans-serif" font-size="13" font-weight="bold" lengthAdjust="spacing" textLength="14" x="837" y="576.9268">16</text><text fill="#000000" font-family="sans-serif" font-size="13" lengthAdjust="spacing" textLength="126" x="855" y="576.9268">logInsideReadingsList</text><polygon fill="#181818" points="251,609.4805,241,613.4805,251,617.4805,247,613.4805" style="stroke:#181818;stroke-width:1.0;"/><line style="stroke:#181818;stroke-width:1.0;stroke-dasharray:2.0,2.0;" x1="245" x2="814" y1="613.4805" y2="613.4805"/><text fill="#000000" font-family="sans-serif" font-size="13" font-weight="bold" lengthAdjust="spacing" textLength="14" x="257" y="608.2178">17</text><text fill="#000000" font-family="sans-serif" font-size="13" lengthAdjust="spacing" textLength="126" x="275" y="608.2178">logInsideReadingsList</text><polygon fill="#181818" points="798,640.7715,808,644.7715,798,648.7715,802,644.7715" style="stroke:#181818;stroke-width:1.0;"/><line style="stroke:#181818;stroke-width:1.0;" x1="240" x2="804" y1="644.7715" y2="644.7715"/><text fill="#000000" font-family="sans-serif" font-size="13" font-weight="bold" lengthAdjust="spacing" textLength="14" x="247" y="639.5088">18</text><text fill="#000000" font-family="sans-serif" font-size="13" lengthAdjust="spacing" textLength="508" x="265" y="639.5088">getMaxInstTempDiffBetweenDeviceAndOutside(outsideDeviceID, sensorType, timeDelta)</text><polygon fill="#181818" points="1346,672.0625,1356,676.0625,1346,680.0625,1350,676.0625" style="stroke:#181818;stroke-width:1.0;"/><line style="stroke:#181818;stroke-width:1.0;" x1="820" x2="1352" y1="676.0625" y2="676.0625"/><text fill="#000000" font-family="sans-serif" font-size="13" font-weight="bold" lengthAdjust="spacing" textLength="14" x="827" y="670.7998">19</text><text fill="#000000" font-family="sans-serif" font-size="13" lengthAdjust="spacing" textLength="501" x="845" y="670.7998">findByDeviceIDAndSensorTypeAndDatePeriodBetween(deviceID, sensorTypeID, period)</text><ellipse cx="1541.5" cy="706.6035" fill="none" rx="4" ry="4" style="stroke:#181818;stroke-width:1.5;"/><polygon fill="#181818" points="1524.5,703.3535,1534.5,707.3535,1524.5,711.3535,1528.5,707.3535" style="stroke:#181818;stroke-width:1.0;"/><line style="stroke:#181818;stroke-width:1.0;" x1="1368" x2="1530.5" y1="707.3535" y2="707.3535"/><text fill="#000000" font-family="sans-serif" font-size="13" font-weight="bold" lengthAdjust="spacing" textLength="14" x="1375" y="702.0908">20</text><text fill="#000000" font-family="sans-serif" font-size="13" lengthAdjust="spacing" textLength="20" x="1393" y="702.0908">find</text><polygon fill="#181818" points="1379,734.6445,1369,738.6445,1379,742.6445,1375,738.6445" style="stroke:#181818;stroke-width:1.0;"/><ellipse cx="1541.5" cy="737.8945" fill="none" rx="4" ry="4" style="stroke:#181818;stroke-width:1.5;"/><line style="stroke:#181818;stroke-width:1.0;stroke-dasharray:2.0,2.0;" x1="1373" x2="1537" y1="738.6445" y2="738.6445"/><text fill="#000000" font-family="sans-serif" font-size="13" font-weight="bold" lengthAdjust="spacing" textLength="14" x="1385" y="733.3818">21</text><text fill="#000000" font-family="sans-serif" font-size="13" lengthAdjust="spacing" textLength="34" x="1403" y="733.3818">loglist</text><polygon fill="#181818" points="831,765.9355,821,769.9355,831,773.9355,827,769.9355" style="stroke:#181818;stroke-width:1.0;"/><line style="stroke:#181818;stroke-width:1.0;stroke-dasharray:2.0,2.0;" x1="825" x2="1362" y1="769.9355" y2="769.9355"/><text fill="#000000" font-family="sans-serif" font-size="13" font-weight="bold" lengthAdjust="spacing" textLength="14" x="837" y="764.6729">22</text><text fill="#000000" font-family="sans-serif" font-size="13" lengthAdjust="spacing" textLength="144" x="855" y="764.6729">listLogsOutsideReadings</text><polygon fill="#181818" points="251,797.2266,241,801.2266,251,805.2266,247,801.2266" style="stroke:#181818;stroke-width:1.0;"/><line style="stroke:#181818;stroke-width:1.0;stroke-dasharray:2.0,2.0;" x1="245" x2="814" y1="801.2266" y2="801.2266"/><text fill="#000000" font-family="sans-serif" font-size="13" font-weight="bold" lengthAdjust="spacing" textLength="14" x="257" y="795.9639">23</text><text fill="#000000" font-family="sans-serif" font-size="13" lengthAdjust="spacing" textLength="144" x="275" y="795.9639">listLogsOutsideReadings</text><polygon fill="#181818" points="798,828.5176,808,832.5176,798,836.5176,802,832.5176" style="stroke:#181818;stroke-width:1.0;"/><line style="stroke:#181818;stroke-width:1.0;" x1="240" x2="804" y1="832.5176" y2="832.5176"/><text fill="#000000" font-family="sans-serif" font-size="13" font-weight="bold" lengthAdjust="spacing" textLength="14" x="247" y="827.2549">24</text><text fill="#000000" font-family="sans-serif" font-size="13" lengthAdjust="spacing" textLength="533" x="265" y="827.2549">getMaxInstTempDiffBetweenDeviceAndOutside(insideReadings, outsideReadings, timeDelta)</text><polygon fill="#181818" points="251,859.8086,241,863.8086,251,867.8086,247,863.8086" style="stroke:#181818;stroke-width:1.0;"/><line style="stroke:#181818;stroke-width:1.0;stroke-dasharray:2.0,2.0;" x1="245" x2="814" y1="863.8086" y2="863.8086"/><text fill="#000000" font-family="sans-serif" font-size="13" font-weight="bold" lengthAdjust="spacing" textLength="14" x="257" y="858.5459">25</text><text fill="#000000" font-family="sans-serif" font-size="13" lengthAdjust="spacing" textLength="96" x="275" y="858.5459">maxInstTempDiff</text><ellipse cx="13.5" cy="894.3496" fill="none" rx="4" ry="4" style="stroke:#181818;stroke-width:1.5;"/><polygon fill="#181818" points="30.5,891.0996,20.5,895.0996,30.5,899.0996,26.5,895.0996" style="stroke:#181818;stroke-width:1.0;"/><line style="stroke:#181818;stroke-width:1.0;stroke-dasharray:2.0,2.0;" x1="28.5" x2="234" y1="895.0996" y2="895.0996"/><text fill="#000000" font-family="sans-serif" font-size="13" font-weight="bold" lengthAdjust="spacing" textLength="14" x="31" y="889.8369">26</text><text fill="#000000" font-family="sans-serif" font-size="13" lengthAdjust="spacing" textLength="87" x="49" y="889.8369">temperatureDiff</text><!--SRC=[tLLDRzim3BthLmY-B0NY-MuK0PPv609qMD5aFq2rc4o0BNaItJR_VlIdPBT8QcpOOVP5X4a-yZsH_l0JiN9fabI5q5YNnSVSb8c3NpNe76AfnCcAah5AM5IvgiY9H_GAntyuiEpHlF3etZo3vP-DTdLPeJ8wclZJ1xIcACY7mY9lHhUtX5OP3HetcqdC7koJog4DwCyNl1-WCawXiUSsm9iNOZ9J2gLR_-uuymKjENKtRJqJABR2TNNnY35Hez5r-KXKi8OGRk9Dq73Altuv98KvkGIXhC0Ah6r3w_48jc6OCkIedWH24CLOG1dbwqjDCsXus6KhKwDJ4WPxZ_R6v-cy6UkZuab1FEMoZs8INiMyXPlo4LVfVmcx1-sCFPmhM3cq1y_V0bGtvbZGBhdSWrL6KiCAbIWEgeGrfnlH79RqF6PwFte3aK61Wi1nD1Q0uX1p7REVh9IV0B-9bvrssD2SqVNS0Zu3w4xhJrf-xwxSx0gi0uBN7ZcejeTWR9XeWlNpcVAZqd9x7l8Ha5UT32z5NyzAle7SM5NhTHFCaqTXB5WGySQCOzp1C-9oc6iJp-gZsRrJ3gSfGkh8OTToyW12AdrohNj0VLZ7IC9iIrnDCjBunmBETiT_ek150OjMm0iIqlSxsj4zHOC6YqMydkRloQWcrsNDpHJqlLBEMYYdu5TBRwHeVdkqTVnwdaU6FxRs-Gq0]--></g></svg>