<?xml version="1.0" encoding="us-ascii" standalone="no"?><svg xmlns="http://www.w3.org/2000/svg" xmlns:xlink="http://www.w3.org/1999/xlink" contentStyleType="text/css" height="669px" preserveAspectRatio="none" style="width:2943px;height:669px;background:#FFFFFF;" version="1.1" viewBox="0 0 2943 669" width="2943px" zoomAndPan="magnify"><defs/><g><!--class GetListOfDevicesFromRoomController--><g id="elem_GetListOfDevicesFromRoomController"><rect codeLine="3" fill="#F1F1F1" height="178.3477" id="GetListOfDevicesFromRoomController" rx="2.5" ry="2.5" style="stroke:#181818;stroke-width:0.5;" width="1115" x="907.5" y="7"/><ellipse cx="1339.75" cy="23" fill="#ADD1B2" rx="11" ry="11" style="stroke:#181818;stroke-width:1.0;"/><path d="M1342.5156,18.875 Q1342.6719,18.6563 1342.8594,18.5469 Q1343.0469,18.4375 1343.2656,18.4375 Q1343.6406,18.4375 1343.875,18.7031 Q1344.1094,18.9531 1344.1094,19.5625 L1344.1094,21.0156 Q1344.1094,21.625 1343.875,21.8906 Q1343.6406,22.1563 1343.2656,22.1563 Q1342.9219,22.1563 1342.7188,21.9531 Q1342.5156,21.7656 1342.4063,21.25 Q1342.3594,20.8906 1342.1719,20.7031 Q1341.8438,20.3281 1341.2344,20.1094 Q1340.625,19.8906 1340,19.8906 Q1339.2344,19.8906 1338.5938,20.2188 Q1337.9688,20.5469 1337.4688,21.2969 Q1336.9844,22.0469 1336.9844,23.0781 L1336.9844,24.1719 Q1336.9844,25.4063 1337.875,26.2344 Q1338.7656,27.0469 1340.3594,27.0469 Q1341.2969,27.0469 1341.9531,26.7969 Q1342.3438,26.6406 1342.7656,26.2031 Q1343.0313,25.9375 1343.1719,25.8594 Q1343.3281,25.7813 1343.5313,25.7813 Q1343.8594,25.7813 1344.1094,26.0469 Q1344.375,26.2969 1344.375,26.6406 Q1344.375,26.9844 1344.0313,27.3906 Q1343.5313,27.9688 1342.7344,28.2969 Q1341.6563,28.75 1340.3594,28.75 Q1338.8438,28.75 1337.6406,28.125 Q1336.6563,27.625 1335.9688,26.5625 Q1335.2813,25.4844 1335.2813,24.2031 L1335.2813,23.0469 Q1335.2813,21.7188 1335.8906,20.5781 Q1336.5156,19.4219 1337.6094,18.8125 Q1338.7031,18.1875 1339.9375,18.1875 Q1340.6719,18.1875 1341.3125,18.3594 Q1341.9688,18.5156 1342.5156,18.875 Z " fill="#000000"/><text fill="#000000" font-family="sans-serif" font-size="14" lengthAdjust="spacing" textLength="242" x="1360.25" y="28.7969">GetListOfDevicesFromRoomController</text><line style="stroke:#181818;stroke-width:0.5;" x1="908.5" x2="2021.5" y1="39" y2="39"/><rect fill="none" height="6" style="stroke:#C82930;stroke-width:1.0;" width="6" x="915.5" y="50.8105"/><text fill="#000000" font-family="sans-serif" font-size="14" lengthAdjust="spacing" textLength="179" x="927.5" y="58.1074">_roomService: RoomService</text><rect fill="none" height="6" style="stroke:#C82930;stroke-width:1.0;" width="6" x="915.5" y="69.4316"/><text fill="#000000" font-family="sans-serif" font-size="14" lengthAdjust="spacing" textLength="198" x="927.5" y="76.7285">_deviceService : DeviceService</text><rect fill="none" height="6" style="stroke:#C82930;stroke-width:1.0;" width="6" x="915.5" y="88.0527"/><text fill="#000000" font-family="sans-serif" font-size="14" lengthAdjust="spacing" textLength="221" x="927.5" y="95.3496">_roomAssembler : RoomAssembler</text><rect fill="none" height="6" style="stroke:#C82930;stroke-width:1.0;" width="6" x="915.5" y="106.6738"/><text fill="#000000" font-family="sans-serif" font-size="14" lengthAdjust="spacing" textLength="236" x="927.5" y="113.9707">_deviceAssembler : DeviceAssembler</text><line style="stroke:#181818;stroke-width:0.5;" x1="908.5" x2="2021.5" y1="121.4844" y2="121.4844"/><ellipse cx="918.5" cy="136.2949" fill="#84BE84" rx="3" ry="3" style="stroke:#038048;stroke-width:1.0;"/><text fill="#000000" font-family="sans-serif" font-size="14" lengthAdjust="spacing" textLength="1089" x="927.5" y="140.5918">GetListOfDevicesFromRoomController (serviceRoom : RoomService, serviceDevice : DeviceService, roomAssembler : RoomAssembler ,deviceAssembler : DeviceAssembler)</text><ellipse cx="918.5" cy="154.916" fill="#84BE84" rx="3" ry="3" style="stroke:#038048;stroke-width:1.0;"/><text fill="#000000" font-family="sans-serif" font-size="14" lengthAdjust="spacing" textLength="187" x="927.5" y="159.2129">getRooms(): List&lt;RoomDTO&gt;</text><ellipse cx="918.5" cy="173.5371" fill="#84BE84" rx="3" ry="3" style="stroke:#038048;stroke-width:1.0;"/><text fill="#000000" font-family="sans-serif" font-size="14" lengthAdjust="spacing" textLength="336" x="927.5" y="177.834">getDevices(roomDTO: RoomDTO): List&lt;DeviceDTO&gt;</text></g><!--class RoomService--><g id="elem_RoomService"><rect codeLine="15" fill="#F1F1F1" height="178.3477" id="RoomService" rx="2.5" ry="2.5" style="stroke:#181818;stroke-width:0.5;" width="936" x="7" y="264"/><ellipse cx="428.75" cy="280" fill="#ADD1B2" rx="11" ry="11" style="stroke:#181818;stroke-width:1.0;"/><path d="M431.5156,275.875 Q431.6719,275.6563 431.8594,275.5469 Q432.0469,275.4375 432.2656,275.4375 Q432.6406,275.4375 432.875,275.7031 Q433.1094,275.9531 433.1094,276.5625 L433.1094,278.0156 Q433.1094,278.625 432.875,278.8906 Q432.6406,279.1563 432.2656,279.1563 Q431.9219,279.1563 431.7188,278.9531 Q431.5156,278.7656 431.4063,278.25 Q431.3594,277.8906 431.1719,277.7031 Q430.8438,277.3281 430.2344,277.1094 Q429.625,276.8906 429,276.8906 Q428.2344,276.8906 427.5938,277.2188 Q426.9688,277.5469 426.4688,278.2969 Q425.9844,279.0469 425.9844,280.0781 L425.9844,281.1719 Q425.9844,282.4063 426.875,283.2344 Q427.7656,284.0469 429.3594,284.0469 Q430.2969,284.0469 430.9531,283.7969 Q431.3438,283.6406 431.7656,283.2031 Q432.0313,282.9375 432.1719,282.8594 Q432.3281,282.7813 432.5313,282.7813 Q432.8594,282.7813 433.1094,283.0469 Q433.375,283.2969 433.375,283.6406 Q433.375,283.9844 433.0313,284.3906 Q432.5313,284.9688 431.7344,285.2969 Q430.6563,285.75 429.3594,285.75 Q427.8438,285.75 426.6406,285.125 Q425.6563,284.625 424.9688,283.5625 Q424.2813,282.4844 424.2813,281.2031 L424.2813,280.0469 Q424.2813,278.7188 424.8906,277.5781 Q425.5156,276.4219 426.6094,275.8125 Q427.7031,275.1875 428.9375,275.1875 Q429.6719,275.1875 430.3125,275.3594 Q430.9688,275.5156 431.5156,275.875 Z " fill="#000000"/><text fill="#000000" font-family="sans-serif" font-size="14" lengthAdjust="spacing" textLength="84" x="449.25" y="285.7969">RoomService</text><line style="stroke:#181818;stroke-width:0.5;" x1="8" x2="942" y1="296" y2="296"/><rect fill="none" height="6" style="stroke:#C82930;stroke-width:1.0;" width="6" x="15" y="307.8105"/><text fill="#000000" font-family="sans-serif" font-size="14" lengthAdjust="spacing" textLength="295" x="27" y="315.1074">_roomRepository: Repository&lt;RoomID, Room&gt;</text><rect fill="none" height="6" style="stroke:#C82930;stroke-width:1.0;" width="6" x="15" y="326.4316"/><text fill="#000000" font-family="sans-serif" font-size="14" lengthAdjust="spacing" textLength="185" x="27" y="333.7285">_roomFactory : RoomFactory</text><rect fill="none" height="6" style="stroke:#C82930;stroke-width:1.0;" width="6" x="15" y="345.0527"/><text fill="#000000" font-family="sans-serif" font-size="14" lengthAdjust="spacing" textLength="221" x="27" y="352.3496">_roomAssembler : RoomAssembler</text><rect fill="none" height="6" style="stroke:#C82930;stroke-width:1.0;" width="6" x="15" y="363.6738"/><text fill="#000000" font-family="sans-serif" font-size="14" lengthAdjust="spacing" textLength="235" x="27" y="370.9707">_houseRepository : HouseRepository</text><line style="stroke:#181818;stroke-width:0.5;" x1="8" x2="942" y1="378.4844" y2="378.4844"/><ellipse cx="18" cy="393.2949" fill="#84BE84" rx="3" ry="3" style="stroke:#038048;stroke-width:1.0;"/><text fill="#000000" font-family="sans-serif" font-size="14" lengthAdjust="spacing" textLength="910" x="27" y="397.5918">RoomService(roomRepository: RoomRepository, roomFactory: RoomFactory, roomAssembler : RoomAssembler, houseRepo : HouseRepository)</text><ellipse cx="18" cy="411.916" fill="#84BE84" rx="3" ry="3" style="stroke:#038048;stroke-width:1.0;"/><text fill="#000000" font-family="sans-serif" font-size="14" lengthAdjust="spacing" textLength="157" x="27" y="416.2129">getRooms(): List&lt;Room&gt;</text><ellipse cx="18" cy="430.5371" fill="#84BE84" rx="3" ry="3" style="stroke:#038048;stroke-width:1.0;"/><text fill="#000000" font-family="sans-serif" font-size="14" lengthAdjust="spacing" textLength="319" x="27" y="434.834">getRoomById (roomID : RoomID): Optional&lt;Room&gt;</text></g><!--class RoomRepository--><g id="elem_RoomRepository"><rect codeLine="28" fill="#F1F1F1" height="103.8633" id="RoomRepository" rx="2.5" ry="2.5" style="stroke:#181818;stroke-width:0.5;" width="288" x="331" y="539.5"/><ellipse cx="418.25" cy="555.5" fill="#ADD1B2" rx="11" ry="11" style="stroke:#181818;stroke-width:1.0;"/><path d="M421.0156,551.375 Q421.1719,551.1563 421.3594,551.0469 Q421.5469,550.9375 421.7656,550.9375 Q422.1406,550.9375 422.375,551.2031 Q422.6094,551.4531 422.6094,552.0625 L422.6094,553.5156 Q422.6094,554.125 422.375,554.3906 Q422.1406,554.6563 421.7656,554.6563 Q421.4219,554.6563 421.2188,554.4531 Q421.0156,554.2656 420.9063,553.75 Q420.8594,553.3906 420.6719,553.2031 Q420.3438,552.8281 419.7344,552.6094 Q419.125,552.3906 418.5,552.3906 Q417.7344,552.3906 417.0938,552.7188 Q416.4688,553.0469 415.9688,553.7969 Q415.4844,554.5469 415.4844,555.5781 L415.4844,556.6719 Q415.4844,557.9063 416.375,558.7344 Q417.2656,559.5469 418.8594,559.5469 Q419.7969,559.5469 420.4531,559.2969 Q420.8438,559.1406 421.2656,558.7031 Q421.5313,558.4375 421.6719,558.3594 Q421.8281,558.2813 422.0313,558.2813 Q422.3594,558.2813 422.6094,558.5469 Q422.875,558.7969 422.875,559.1406 Q422.875,559.4844 422.5313,559.8906 Q422.0313,560.4688 421.2344,560.7969 Q420.1563,561.25 418.8594,561.25 Q417.3438,561.25 416.1406,560.625 Q415.1563,560.125 414.4688,559.0625 Q413.7813,557.9844 413.7813,556.7031 L413.7813,555.5469 Q413.7813,554.2188 414.3906,553.0781 Q415.0156,551.9219 416.1094,551.3125 Q417.2031,550.6875 418.4375,550.6875 Q419.1719,550.6875 419.8125,550.8594 Q420.4688,551.0156 421.0156,551.375 Z " fill="#000000"/><text fill="#000000" font-family="sans-serif" font-size="14" lengthAdjust="spacing" textLength="105" x="438.75" y="561.2969">RoomRepository</text><line style="stroke:#181818;stroke-width:0.5;" x1="332" x2="618" y1="571.5" y2="571.5"/><rect fill="none" height="6" style="stroke:#C82930;stroke-width:1.0;" width="6" x="339" y="583.3105"/><text fill="#000000" font-family="sans-serif" font-size="14" lengthAdjust="spacing" textLength="187" x="351" y="590.6074">DATA: Map &lt;RoomID, Room&gt;</text><line style="stroke:#181818;stroke-width:0.5;" x1="332" x2="618" y1="598.1211" y2="598.1211"/><ellipse cx="342" cy="612.9316" fill="#84BE84" rx="3" ry="3" style="stroke:#038048;stroke-width:1.0;"/><text fill="#000000" font-family="sans-serif" font-size="14" lengthAdjust="spacing" textLength="131" x="351" y="617.2285">findAll(): List&lt;Room&gt;</text><ellipse cx="342" cy="631.5527" fill="#84BE84" rx="3" ry="3" style="stroke:#038048;stroke-width:1.0;"/><text fill="#000000" font-family="sans-serif" font-size="14" lengthAdjust="spacing" textLength="262" x="351" y="635.8496">ofIdentity (id : RoomID): Optional &lt;Room&gt;</text></g><!--class RoomAssembler--><g id="elem_RoomAssembler"><rect codeLine="36" fill="#F1F1F1" height="66.6211" id="RoomAssembler" rx="2.5" ry="2.5" style="stroke:#181818;stroke-width:0.5;" width="364" x="978" y="319.5"/><ellipse cx="1104.25" cy="335.5" fill="#ADD1B2" rx="11" ry="11" style="stroke:#181818;stroke-width:1.0;"/><path d="M1107.0156,331.375 Q1107.1719,331.1563 1107.3594,331.0469 Q1107.5469,330.9375 1107.7656,330.9375 Q1108.1406,330.9375 1108.375,331.2031 Q1108.6094,331.4531 1108.6094,332.0625 L1108.6094,333.5156 Q1108.6094,334.125 1108.375,334.3906 Q1108.1406,334.6563 1107.7656,334.6563 Q1107.4219,334.6563 1107.2188,334.4531 Q1107.0156,334.2656 1106.9063,333.75 Q1106.8594,333.3906 1106.6719,333.2031 Q1106.3438,332.8281 1105.7344,332.6094 Q1105.125,332.3906 1104.5,332.3906 Q1103.7344,332.3906 1103.0938,332.7188 Q1102.4688,333.0469 1101.9688,333.7969 Q1101.4844,334.5469 1101.4844,335.5781 L1101.4844,336.6719 Q1101.4844,337.9063 1102.375,338.7344 Q1103.2656,339.5469 1104.8594,339.5469 Q1105.7969,339.5469 1106.4531,339.2969 Q1106.8438,339.1406 1107.2656,338.7031 Q1107.5313,338.4375 1107.6719,338.3594 Q1107.8281,338.2813 1108.0313,338.2813 Q1108.3594,338.2813 1108.6094,338.5469 Q1108.875,338.7969 1108.875,339.1406 Q1108.875,339.4844 1108.5313,339.8906 Q1108.0313,340.4688 1107.2344,340.7969 Q1106.1563,341.25 1104.8594,341.25 Q1103.3438,341.25 1102.1406,340.625 Q1101.1563,340.125 1100.4688,339.0625 Q1099.7813,337.9844 1099.7813,336.7031 L1099.7813,335.5469 Q1099.7813,334.2188 1100.3906,333.0781 Q1101.0156,331.9219 1102.1094,331.3125 Q1103.2031,330.6875 1104.4375,330.6875 Q1105.1719,330.6875 1105.8125,330.8594 Q1106.4688,331.0156 1107.0156,331.375 Z " fill="#000000"/><text fill="#000000" font-family="sans-serif" font-size="14" lengthAdjust="spacing" textLength="103" x="1124.75" y="341.2969">RoomAssembler</text><line style="stroke:#181818;stroke-width:0.5;" x1="979" x2="1341" y1="351.5" y2="351.5"/><line style="stroke:#181818;stroke-width:0.5;" x1="979" x2="1341" y1="359.5" y2="359.5"/><ellipse cx="989" cy="374.3105" fill="#84BE84" rx="3" ry="3" style="stroke:#038048;stroke-width:1.0;"/><text fill="#000000" font-family="sans-serif" font-size="14" lengthAdjust="spacing" textLength="338" x="998" y="378.6074">domainToDTO(rooms: List&lt;Room&gt;): List&lt;RoomDTO&gt;</text></g><!--class RoomDTO--><g id="elem_RoomDTO"><rect codeLine="41" fill="#F1F1F1" height="141.1055" id="RoomDTO" rx="2.5" ry="2.5" style="stroke:#181818;stroke-width:0.5;" width="562" x="879" y="521"/><ellipse cx="1122.25" cy="537" fill="#ADD1B2" rx="11" ry="11" style="stroke:#181818;stroke-width:1.0;"/><path d="M1125.0156,532.875 Q1125.1719,532.6563 1125.3594,532.5469 Q1125.5469,532.4375 1125.7656,532.4375 Q1126.1406,532.4375 1126.375,532.7031 Q1126.6094,532.9531 1126.6094,533.5625 L1126.6094,535.0156 Q1126.6094,535.625 1126.375,535.8906 Q1126.1406,536.1563 1125.7656,536.1563 Q1125.4219,536.1563 1125.2188,535.9531 Q1125.0156,535.7656 1124.9063,535.25 Q1124.8594,534.8906 1124.6719,534.7031 Q1124.3438,534.3281 1123.7344,534.1094 Q1123.125,533.8906 1122.5,533.8906 Q1121.7344,533.8906 1121.0938,534.2188 Q1120.4688,534.5469 1119.9688,535.2969 Q1119.4844,536.0469 1119.4844,537.0781 L1119.4844,538.1719 Q1119.4844,539.4063 1120.375,540.2344 Q1121.2656,541.0469 1122.8594,541.0469 Q1123.7969,541.0469 1124.4531,540.7969 Q1124.8438,540.6406 1125.2656,540.2031 Q1125.5313,539.9375 1125.6719,539.8594 Q1125.8281,539.7813 1126.0313,539.7813 Q1126.3594,539.7813 1126.6094,540.0469 Q1126.875,540.2969 1126.875,540.6406 Q1126.875,540.9844 1126.5313,541.3906 Q1126.0313,541.9688 1125.2344,542.2969 Q1124.1563,542.75 1122.8594,542.75 Q1121.3438,542.75 1120.1406,542.125 Q1119.1563,541.625 1118.4688,540.5625 Q1117.7813,539.4844 1117.7813,538.2031 L1117.7813,537.0469 Q1117.7813,535.7188 1118.3906,534.5781 Q1119.0156,533.4219 1120.1094,532.8125 Q1121.2031,532.1875 1122.4375,532.1875 Q1123.1719,532.1875 1123.8125,532.3594 Q1124.4688,532.5156 1125.0156,532.875 Z " fill="#000000"/><text fill="#000000" font-family="sans-serif" font-size="14" lengthAdjust="spacing" textLength="67" x="1142.75" y="542.7969">RoomDTO</text><line style="stroke:#181818;stroke-width:0.5;" x1="880" x2="1440" y1="553" y2="553"/><ellipse cx="890" cy="567.8105" fill="none" rx="3" ry="3" style="stroke:#038048;stroke-width:1.0;"/><text fill="#000000" font-family="sans-serif" font-size="14" lengthAdjust="spacing" textLength="90" x="899" y="572.1074">roomID: String</text><ellipse cx="890" cy="586.4316" fill="none" rx="3" ry="3" style="stroke:#038048;stroke-width:1.0;"/><text fill="#000000" font-family="sans-serif" font-size="14" lengthAdjust="spacing" textLength="113" x="899" y="590.7285">roomName: String</text><ellipse cx="890" cy="605.0527" fill="none" rx="3" ry="3" style="stroke:#038048;stroke-width:1.0;"/><text fill="#000000" font-family="sans-serif" font-size="14" lengthAdjust="spacing" textLength="120" x="899" y="609.3496">dimensions : String</text><ellipse cx="890" cy="623.6738" fill="none" rx="3" ry="3" style="stroke:#038048;stroke-width:1.0;"/><text fill="#000000" font-family="sans-serif" font-size="14" lengthAdjust="spacing" textLength="77" x="899" y="627.9707">floor : String</text><line style="stroke:#181818;stroke-width:0.5;" x1="880" x2="1440" y1="635.4844" y2="635.4844"/><ellipse cx="890" cy="650.2949" fill="#84BE84" rx="3" ry="3" style="stroke:#038048;stroke-width:1.0;"/><text fill="#000000" font-family="sans-serif" font-size="14" lengthAdjust="spacing" textLength="536" x="899" y="654.5918">RoomDTO(roomName : String, roomDimension : String, floor : String, roomID : String)</text></g><!--class RoomID--><g id="elem_RoomID"><rect codeLine="51" fill="#F1F1F1" height="85.2422" id="RoomID" rx="2.5" ry="2.5" style="stroke:#181818;stroke-width:0.5;" width="176" x="1377" y="310.5"/><ellipse cx="1435.75" cy="326.5" fill="#ADD1B2" rx="11" ry="11" style="stroke:#181818;stroke-width:1.0;"/><path d="M1438.5156,322.375 Q1438.6719,322.1563 1438.8594,322.0469 Q1439.0469,321.9375 1439.2656,321.9375 Q1439.6406,321.9375 1439.875,322.2031 Q1440.1094,322.4531 1440.1094,323.0625 L1440.1094,324.5156 Q1440.1094,325.125 1439.875,325.3906 Q1439.6406,325.6563 1439.2656,325.6563 Q1438.9219,325.6563 1438.7188,325.4531 Q1438.5156,325.2656 1438.4063,324.75 Q1438.3594,324.3906 1438.1719,324.2031 Q1437.8438,323.8281 1437.2344,323.6094 Q1436.625,323.3906 1436,323.3906 Q1435.2344,323.3906 1434.5938,323.7188 Q1433.9688,324.0469 1433.4688,324.7969 Q1432.9844,325.5469 1432.9844,326.5781 L1432.9844,327.6719 Q1432.9844,328.9063 1433.875,329.7344 Q1434.7656,330.5469 1436.3594,330.5469 Q1437.2969,330.5469 1437.9531,330.2969 Q1438.3438,330.1406 1438.7656,329.7031 Q1439.0313,329.4375 1439.1719,329.3594 Q1439.3281,329.2813 1439.5313,329.2813 Q1439.8594,329.2813 1440.1094,329.5469 Q1440.375,329.7969 1440.375,330.1406 Q1440.375,330.4844 1440.0313,330.8906 Q1439.5313,331.4688 1438.7344,331.7969 Q1437.6563,332.25 1436.3594,332.25 Q1434.8438,332.25 1433.6406,331.625 Q1432.6563,331.125 1431.9688,330.0625 Q1431.2813,328.9844 1431.2813,327.7031 L1431.2813,326.5469 Q1431.2813,325.2188 1431.8906,324.0781 Q1432.5156,322.9219 1433.6094,322.3125 Q1434.7031,321.6875 1435.9375,321.6875 Q1436.6719,321.6875 1437.3125,321.8594 Q1437.9688,322.0156 1438.5156,322.375 Z " fill="#000000"/><text fill="#000000" font-family="sans-serif" font-size="14" lengthAdjust="spacing" textLength="50" x="1456.25" y="332.2969">RoomID</text><line style="stroke:#181818;stroke-width:0.5;" x1="1378" x2="1552" y1="342.5" y2="342.5"/><rect fill="none" height="6" style="stroke:#C82930;stroke-width:1.0;" width="6" x="1385" y="354.3105"/><text fill="#000000" font-family="sans-serif" font-size="14" lengthAdjust="spacing" textLength="98" x="1397" y="361.6074">_roomID: String</text><line style="stroke:#181818;stroke-width:0.5;" x1="1378" x2="1552" y1="369.1211" y2="369.1211"/><ellipse cx="1388" cy="383.9316" fill="#84BE84" rx="3" ry="3" style="stroke:#038048;stroke-width:1.0;"/><text fill="#000000" font-family="sans-serif" font-size="14" lengthAdjust="spacing" textLength="150" x="1397" y="388.2285">RoomID(roomID: String)</text></g><!--class DeviceService--><g id="elem_DeviceService"><rect codeLine="59" fill="#F1F1F1" height="141.1055" id="DeviceService" rx="2.5" ry="2.5" style="stroke:#181818;stroke-width:0.5;" width="827" x="1588.5" y="282.5"/><ellipse cx="1952.75" cy="298.5" fill="#ADD1B2" rx="11" ry="11" style="stroke:#181818;stroke-width:1.0;"/><path d="M1955.5156,294.375 Q1955.6719,294.1563 1955.8594,294.0469 Q1956.0469,293.9375 1956.2656,293.9375 Q1956.6406,293.9375 1956.875,294.2031 Q1957.1094,294.4531 1957.1094,295.0625 L1957.1094,296.5156 Q1957.1094,297.125 1956.875,297.3906 Q1956.6406,297.6563 1956.2656,297.6563 Q1955.9219,297.6563 1955.7188,297.4531 Q1955.5156,297.2656 1955.4063,296.75 Q1955.3594,296.3906 1955.1719,296.2031 Q1954.8438,295.8281 1954.2344,295.6094 Q1953.625,295.3906 1953,295.3906 Q1952.2344,295.3906 1951.5938,295.7188 Q1950.9688,296.0469 1950.4688,296.7969 Q1949.9844,297.5469 1949.9844,298.5781 L1949.9844,299.6719 Q1949.9844,300.9063 1950.875,301.7344 Q1951.7656,302.5469 1953.3594,302.5469 Q1954.2969,302.5469 1954.9531,302.2969 Q1955.3438,302.1406 1955.7656,301.7031 Q1956.0313,301.4375 1956.1719,301.3594 Q1956.3281,301.2813 1956.5313,301.2813 Q1956.8594,301.2813 1957.1094,301.5469 Q1957.375,301.7969 1957.375,302.1406 Q1957.375,302.4844 1957.0313,302.8906 Q1956.5313,303.4688 1955.7344,303.7969 Q1954.6563,304.25 1953.3594,304.25 Q1951.8438,304.25 1950.6406,303.625 Q1949.6563,303.125 1948.9688,302.0625 Q1948.2813,300.9844 1948.2813,299.7031 L1948.2813,298.5469 Q1948.2813,297.2188 1948.8906,296.0781 Q1949.5156,294.9219 1950.6094,294.3125 Q1951.7031,293.6875 1952.9375,293.6875 Q1953.6719,293.6875 1954.3125,293.8594 Q1954.9688,294.0156 1955.5156,294.375 Z " fill="#000000"/><text fill="#000000" font-family="sans-serif" font-size="14" lengthAdjust="spacing" textLength="90" x="1973.25" y="304.2969">DeviceService</text><line style="stroke:#181818;stroke-width:0.5;" x1="1589.5" x2="2414.5" y1="314.5" y2="314.5"/><rect fill="none" height="6" style="stroke:#C82930;stroke-width:1.0;" width="6" x="1596.5" y="326.3105"/><text fill="#000000" font-family="sans-serif" font-size="14" lengthAdjust="spacing" textLength="202" x="1608.5" y="333.6074">_deviceRepository: DeviceRepo</text><rect fill="none" height="6" style="stroke:#C82930;stroke-width:1.0;" width="6" x="1596.5" y="344.9316"/><text fill="#000000" font-family="sans-serif" font-size="14" lengthAdjust="spacing" textLength="200" x="1608.5" y="352.2285">_deviceFactory : DeviceFactory</text><rect fill="none" height="6" style="stroke:#C82930;stroke-width:1.0;" width="6" x="1596.5" y="363.5527"/><text fill="#000000" font-family="sans-serif" font-size="14" lengthAdjust="spacing" textLength="299" x="1608.5" y="370.8496">_roomRepository : Repository&lt;RoomID, Room&gt;</text><line style="stroke:#181818;stroke-width:0.5;" x1="1589.5" x2="2414.5" y1="378.3633" y2="378.3633"/><ellipse cx="1599.5" cy="393.1738" fill="#84BE84" rx="3" ry="3" style="stroke:#038048;stroke-width:1.0;"/><text fill="#000000" font-family="sans-serif" font-size="14" lengthAdjust="spacing" textLength="801" x="1608.5" y="397.4707">DeviceService (deviceRepository : DeviceRepo, deviceFactory : DeviceFactory, roomRepository : Repository&lt;RoomID, Room&gt;)</text><ellipse cx="1599.5" cy="411.7949" fill="#84BE84" rx="3" ry="3" style="stroke:#038048;stroke-width:1.0;"/><text fill="#000000" font-family="sans-serif" font-size="14" lengthAdjust="spacing" textLength="340" x="1608.5" y="416.0918">getDevicesByRoomId(roomID : RoomID): List&lt;Device&gt;</text></g><!--class DeviceRepo--><g id="elem_DeviceRepo"><rect codeLine="70" fill="#F1F1F1" height="85.2422" id="DeviceRepo" rx="2.5" ry="2.5" style="stroke:#181818;stroke-width:0.5;" width="371" x="1816.5" y="549"/><ellipse cx="1959.25" cy="565" fill="#ADD1B2" rx="11" ry="11" style="stroke:#181818;stroke-width:1.0;"/><path d="M1962.0156,560.875 Q1962.1719,560.6563 1962.3594,560.5469 Q1962.5469,560.4375 1962.7656,560.4375 Q1963.1406,560.4375 1963.375,560.7031 Q1963.6094,560.9531 1963.6094,561.5625 L1963.6094,563.0156 Q1963.6094,563.625 1963.375,563.8906 Q1963.1406,564.1563 1962.7656,564.1563 Q1962.4219,564.1563 1962.2188,563.9531 Q1962.0156,563.7656 1961.9063,563.25 Q1961.8594,562.8906 1961.6719,562.7031 Q1961.3438,562.3281 1960.7344,562.1094 Q1960.125,561.8906 1959.5,561.8906 Q1958.7344,561.8906 1958.0938,562.2188 Q1957.4688,562.5469 1956.9688,563.2969 Q1956.4844,564.0469 1956.4844,565.0781 L1956.4844,566.1719 Q1956.4844,567.4063 1957.375,568.2344 Q1958.2656,569.0469 1959.8594,569.0469 Q1960.7969,569.0469 1961.4531,568.7969 Q1961.8438,568.6406 1962.2656,568.2031 Q1962.5313,567.9375 1962.6719,567.8594 Q1962.8281,567.7813 1963.0313,567.7813 Q1963.3594,567.7813 1963.6094,568.0469 Q1963.875,568.2969 1963.875,568.6406 Q1963.875,568.9844 1963.5313,569.3906 Q1963.0313,569.9688 1962.2344,570.2969 Q1961.1563,570.75 1959.8594,570.75 Q1958.3438,570.75 1957.1406,570.125 Q1956.1563,569.625 1955.4688,568.5625 Q1954.7813,567.4844 1954.7813,566.2031 L1954.7813,565.0469 Q1954.7813,563.7188 1955.3906,562.5781 Q1956.0156,561.4219 1957.1094,560.8125 Q1958.2031,560.1875 1959.4375,560.1875 Q1960.1719,560.1875 1960.8125,560.3594 Q1961.4688,560.5156 1962.0156,560.875 Z " fill="#000000"/><text fill="#000000" font-family="sans-serif" font-size="14" lengthAdjust="spacing" textLength="77" x="1979.75" y="570.7969">DeviceRepo</text><line style="stroke:#181818;stroke-width:0.5;" x1="1817.5" x2="2186.5" y1="581" y2="581"/><rect fill="none" height="6" style="stroke:#C82930;stroke-width:1.0;" width="6" x="1824.5" y="592.8105"/><text fill="#000000" font-family="sans-serif" font-size="14" lengthAdjust="spacing" textLength="236" x="1836.5" y="600.1074">-deviceData: Map &lt;DeviceId, Device&gt;</text><line style="stroke:#181818;stroke-width:0.5;" x1="1817.5" x2="2186.5" y1="607.6211" y2="607.6211"/><ellipse cx="1827.5" cy="622.4316" fill="#84BE84" rx="3" ry="3" style="stroke:#038048;stroke-width:1.0;"/><text fill="#000000" font-family="sans-serif" font-size="14" lengthAdjust="spacing" textLength="345" x="1836.5" y="626.7285">getDevicesByRoomId(roomId : RoomID): List&lt;Devices&gt;</text></g><!--class DeviceAssembler--><g id="elem_DeviceAssembler"><rect codeLine="77" fill="#F1F1F1" height="66.6211" id="DeviceAssembler" rx="2.5" ry="2.5" style="stroke:#181818;stroke-width:0.5;" width="385" x="2450.5" y="319.5"/><ellipse cx="2584.25" cy="335.5" fill="#ADD1B2" rx="11" ry="11" style="stroke:#181818;stroke-width:1.0;"/><path d="M2587.0156,331.375 Q2587.1719,331.1563 2587.3594,331.0469 Q2587.5469,330.9375 2587.7656,330.9375 Q2588.1406,330.9375 2588.375,331.2031 Q2588.6094,331.4531 2588.6094,332.0625 L2588.6094,333.5156 Q2588.6094,334.125 2588.375,334.3906 Q2588.1406,334.6563 2587.7656,334.6563 Q2587.4219,334.6563 2587.2188,334.4531 Q2587.0156,334.2656 2586.9063,333.75 Q2586.8594,333.3906 2586.6719,333.2031 Q2586.3438,332.8281 2585.7344,332.6094 Q2585.125,332.3906 2584.5,332.3906 Q2583.7344,332.3906 2583.0938,332.7188 Q2582.4688,333.0469 2581.9688,333.7969 Q2581.4844,334.5469 2581.4844,335.5781 L2581.4844,336.6719 Q2581.4844,337.9063 2582.375,338.7344 Q2583.2656,339.5469 2584.8594,339.5469 Q2585.7969,339.5469 2586.4531,339.2969 Q2586.8438,339.1406 2587.2656,338.7031 Q2587.5313,338.4375 2587.6719,338.3594 Q2587.8281,338.2813 2588.0313,338.2813 Q2588.3594,338.2813 2588.6094,338.5469 Q2588.875,338.7969 2588.875,339.1406 Q2588.875,339.4844 2588.5313,339.8906 Q2588.0313,340.4688 2587.2344,340.7969 Q2586.1563,341.25 2584.8594,341.25 Q2583.3438,341.25 2582.1406,340.625 Q2581.1563,340.125 2580.4688,339.0625 Q2579.7813,337.9844 2579.7813,336.7031 L2579.7813,335.5469 Q2579.7813,334.2188 2580.3906,333.0781 Q2581.0156,331.9219 2582.1094,331.3125 Q2583.2031,330.6875 2584.4375,330.6875 Q2585.1719,330.6875 2585.8125,330.8594 Q2586.4688,331.0156 2587.0156,331.375 Z " fill="#000000"/><text fill="#000000" font-family="sans-serif" font-size="14" lengthAdjust="spacing" textLength="109" x="2604.75" y="341.2969">DeviceAssembler</text><line style="stroke:#181818;stroke-width:0.5;" x1="2451.5" x2="2834.5" y1="351.5" y2="351.5"/><line style="stroke:#181818;stroke-width:0.5;" x1="2451.5" x2="2834.5" y1="359.5" y2="359.5"/><ellipse cx="2461.5" cy="374.3105" fill="#84BE84" rx="3" ry="3" style="stroke:#038048;stroke-width:1.0;"/><text fill="#000000" font-family="sans-serif" font-size="14" lengthAdjust="spacing" textLength="359" x="2470.5" y="378.6074">domainToDTO(devices: List&lt;Device&gt;): List&lt;DeviceDTO&gt;</text></g><!--class DeviceDTO--><g id="elem_DeviceDTO"><rect codeLine="82" fill="#F1F1F1" height="141.1055" id="DeviceDTO" rx="2.5" ry="2.5" style="stroke:#181818;stroke-width:0.5;" width="586" x="2350" y="521"/><ellipse cx="2602.25" cy="537" fill="#ADD1B2" rx="11" ry="11" style="stroke:#181818;stroke-width:1.0;"/><path d="M2605.0156,532.875 Q2605.1719,532.6563 2605.3594,532.5469 Q2605.5469,532.4375 2605.7656,532.4375 Q2606.1406,532.4375 2606.375,532.7031 Q2606.6094,532.9531 2606.6094,533.5625 L2606.6094,535.0156 Q2606.6094,535.625 2606.375,535.8906 Q2606.1406,536.1563 2605.7656,536.1563 Q2605.4219,536.1563 2605.2188,535.9531 Q2605.0156,535.7656 2604.9063,535.25 Q2604.8594,534.8906 2604.6719,534.7031 Q2604.3438,534.3281 2603.7344,534.1094 Q2603.125,533.8906 2602.5,533.8906 Q2601.7344,533.8906 2601.0938,534.2188 Q2600.4688,534.5469 2599.9688,535.2969 Q2599.4844,536.0469 2599.4844,537.0781 L2599.4844,538.1719 Q2599.4844,539.4063 2600.375,540.2344 Q2601.2656,541.0469 2602.8594,541.0469 Q2603.7969,541.0469 2604.4531,540.7969 Q2604.8438,540.6406 2605.2656,540.2031 Q2605.5313,539.9375 2605.6719,539.8594 Q2605.8281,539.7813 2606.0313,539.7813 Q2606.3594,539.7813 2606.6094,540.0469 Q2606.875,540.2969 2606.875,540.6406 Q2606.875,540.9844 2606.5313,541.3906 Q2606.0313,541.9688 2605.2344,542.2969 Q2604.1563,542.75 2602.8594,542.75 Q2601.3438,542.75 2600.1406,542.125 Q2599.1563,541.625 2598.4688,540.5625 Q2597.7813,539.4844 2597.7813,538.2031 L2597.7813,537.0469 Q2597.7813,535.7188 2598.3906,534.5781 Q2599.0156,533.4219 2600.1094,532.8125 Q2601.2031,532.1875 2602.4375,532.1875 Q2603.1719,532.1875 2603.8125,532.3594 Q2604.4688,532.5156 2605.0156,532.875 Z " fill="#000000"/><text fill="#000000" font-family="sans-serif" font-size="14" lengthAdjust="spacing" textLength="73" x="2622.75" y="542.7969">DeviceDTO</text><line style="stroke:#181818;stroke-width:0.5;" x1="2351" x2="2935" y1="553" y2="553"/><ellipse cx="2361" cy="567.8105" fill="none" rx="3" ry="3" style="stroke:#038048;stroke-width:1.0;"/><text fill="#000000" font-family="sans-serif" font-size="14" lengthAdjust="spacing" textLength="103" x="2370" y="572.1074">deviceID : String</text><ellipse cx="2361" cy="586.4316" fill="none" rx="3" ry="3" style="stroke:#038048;stroke-width:1.0;"/><text fill="#000000" font-family="sans-serif" font-size="14" lengthAdjust="spacing" textLength="94" x="2370" y="590.7285">roomID : String</text><ellipse cx="2361" cy="605.0527" fill="none" rx="3" ry="3" style="stroke:#038048;stroke-width:1.0;"/><text fill="#000000" font-family="sans-serif" font-size="14" lengthAdjust="spacing" textLength="122" x="2370" y="609.3496">deviceName: String</text><ellipse cx="2361" cy="623.6738" fill="none" rx="3" ry="3" style="stroke:#038048;stroke-width:1.0;"/><text fill="#000000" font-family="sans-serif" font-size="14" lengthAdjust="spacing" textLength="130" x="2370" y="627.9707">deviceStatus : String</text><line style="stroke:#181818;stroke-width:0.5;" x1="2351" x2="2935" y1="635.4844" y2="635.4844"/><ellipse cx="2361" cy="650.2949" fill="#84BE84" rx="3" ry="3" style="stroke:#038048;stroke-width:1.0;"/><text fill="#000000" font-family="sans-serif" font-size="14" lengthAdjust="spacing" textLength="560" x="2370" y="654.5918">DeviceDTO(deviceID : String, deviceName : String, roomID : String, deviceStatus : String)</text></g><!--link GetListOfDevicesFromRoomController to RoomService--><g id="link_GetListOfDevicesFromRoomController_RoomService"><path codeLine="94" d="M1123.26,185.02 C1024.18,210.55 921.8104,236.9136 822.7204,262.4336 " fill="none" id="GetListOfDevicesFromRoomController-to-RoomService" style="stroke:#181818;stroke-width:1.0;stroke-dasharray:7.0,7.0;"/><polygon fill="#181818" points="816.91,263.93,826.6232,265.559,821.752,262.683,824.628,257.8118,816.91,263.93" style="stroke:#181818;stroke-width:1.0;"/><text fill="#000000" font-family="sans-serif" font-size="13" lengthAdjust="spacing" textLength="28" x="1001" y="230.0283">uses</text><text fill="#000000" font-family="sans-serif" font-size="13" lengthAdjust="spacing" textLength="7" x="1086.5909" y="207.4265">1</text><text fill="#000000" font-family="sans-serif" font-size="13" lengthAdjust="spacing" textLength="7" x="837.9346" y="252.876">1</text></g><!--link RoomService to RoomRepository--><g id="link_RoomService_RoomRepository"><path codeLine="95" d="M475,442.06 C475,474.9 475,505.06 475,533.47 " fill="none" id="RoomService-to-RoomRepository" style="stroke:#181818;stroke-width:1.0;stroke-dasharray:7.0,7.0;"/><polygon fill="#181818" points="475,539.47,479,530.47,475,534.47,471,530.47,475,539.47" style="stroke:#181818;stroke-width:1.0;"/><text fill="#000000" font-family="sans-serif" font-size="13" lengthAdjust="spacing" textLength="28" x="476" y="487.0283">uses</text><text fill="#000000" font-family="sans-serif" font-size="13" lengthAdjust="spacing" textLength="7" x="467.6992" y="464.4699">1</text><text fill="#000000" font-family="sans-serif" font-size="13" lengthAdjust="spacing" textLength="7" x="467.5297" y="528.3933">1</text></g><!--link GetListOfDevicesFromRoomController to RoomAssembler--><g id="link_GetListOfDevicesFromRoomController_RoomAssembler"><path codeLine="96" d="M1359.61,185.11 C1304.17,231.47 1244.1129,281.6712 1203.7629,315.4112 " fill="none" id="GetListOfDevicesFromRoomController-to-RoomAssembler" style="stroke:#181818;stroke-width:1.0;stroke-dasharray:7.0,7.0;"/><polygon fill="#181818" points="1199.16,319.26,1208.6302,316.5553,1202.9957,316.0526,1203.4984,310.4182,1199.16,319.26" style="stroke:#181818;stroke-width:1.0;"/><text fill="#000000" font-family="sans-serif" font-size="13" lengthAdjust="spacing" textLength="28" x="1323" y="230.0283">uses</text><text fill="#000000" font-family="sans-serif" font-size="13" lengthAdjust="spacing" textLength="7" x="1343.2523" y="207.5242">1</text><text fill="#000000" font-family="sans-serif" font-size="13" lengthAdjust="spacing" textLength="7" x="1198.9577" y="308.3002">1</text></g><!--link RoomAssembler to RoomDTO--><g id="link_RoomAssembler_RoomDTO"><path codeLine="97" d="M1160,386.88 C1160,421.41 1160,470.72 1160,514.98 " fill="none" id="RoomAssembler-to-RoomDTO" style="stroke:#181818;stroke-width:1.0;stroke-dasharray:7.0,7.0;"/><polygon fill="#181818" points="1160,520.98,1164,511.98,1160,515.98,1156,511.98,1160,520.98" style="stroke:#181818;stroke-width:1.0;"/><text fill="#000000" font-family="sans-serif" font-size="13" lengthAdjust="spacing" textLength="43" x="1161" y="487.0283">creates</text><text fill="#000000" font-family="sans-serif" font-size="13" lengthAdjust="spacing" textLength="7" x="1152.3984" y="408.25">1</text><text fill="#000000" font-family="sans-serif" font-size="13" lengthAdjust="spacing" textLength="5" x="1154.7422" y="509.869">*</text></g><!--link GetListOfDevicesFromRoomController to DeviceService--><g id="link_GetListOfDevicesFromRoomController_DeviceService"><path codeLine="99" d="M1650.56,185.11 C1717.56,216.93 1786.77,249.7964 1849.97,279.8064 " fill="none" id="GetListOfDevicesFromRoomController-to-DeviceService" style="stroke:#181818;stroke-width:1.0;stroke-dasharray:7.0,7.0;"/><polygon fill="#181818" points="1855.39,282.38,1848.9758,274.9062,1850.8733,280.2353,1845.5442,282.1329,1855.39,282.38" style="stroke:#181818;stroke-width:1.0;"/><text fill="#000000" font-family="sans-serif" font-size="13" lengthAdjust="spacing" textLength="28" x="1751" y="230.0283">uses</text><text fill="#000000" font-family="sans-serif" font-size="13" lengthAdjust="spacing" textLength="7" x="1659.2058" y="207.5242">1</text><text fill="#000000" font-family="sans-serif" font-size="13" lengthAdjust="spacing" textLength="7" x="1832.9099" y="271.2586">1</text></g><!--link DeviceService to DeviceRepo--><g id="link_DeviceService_DeviceRepo"><path codeLine="100" d="M2002,423.68 C2002,464.28 2002,508.13 2002,542.71 " fill="none" id="DeviceService-to-DeviceRepo" style="stroke:#181818;stroke-width:1.0;stroke-dasharray:7.0,7.0;"/><polygon fill="#181818" points="2002,548.71,2006,539.71,2002,543.71,1998,539.71,2002,548.71" style="stroke:#181818;stroke-width:1.0;"/><text fill="#000000" font-family="sans-serif" font-size="13" lengthAdjust="spacing" textLength="28" x="2003" y="487.0283">uses</text><text fill="#000000" font-family="sans-serif" font-size="13" lengthAdjust="spacing" textLength="7" x="1994.6555" y="445.5117">1</text><text fill="#000000" font-family="sans-serif" font-size="13" lengthAdjust="spacing" textLength="7" x="1994.4641" y="537.8883">1</text></g><!--link GetListOfDevicesFromRoomController to DeviceAssembler--><g id="link_GetListOfDevicesFromRoomController_DeviceAssembler"><path codeLine="101" d="M2022.77,171.09 C2158.38,195.16 2302.03,225.79 2433,264 C2482.33,278.39 2530.2669,298.3572 2570.8569,316.9872 " fill="none" id="GetListOfDevicesFromRoomController-to-DeviceAssembler" style="stroke:#181818;stroke-width:1.0;stroke-dasharray:7.0,7.0;"/><polygon fill="#181818" points="2576.31,319.49,2569.799,312.1004,2571.7658,317.4043,2566.4619,319.3711,2576.31,319.49" style="stroke:#181818;stroke-width:1.0;"/><text fill="#000000" font-family="sans-serif" font-size="13" lengthAdjust="spacing" textLength="28" x="2306" y="230.0283">uses</text><text fill="#000000" font-family="sans-serif" font-size="13" lengthAdjust="spacing" textLength="7" x="2030.6629" y="169.0543">1</text><text fill="#000000" font-family="sans-serif" font-size="13" lengthAdjust="spacing" textLength="7" x="2555.4913" y="308.3135">1</text></g><!--link DeviceAssembler to DeviceDTO--><g id="link_DeviceAssembler_DeviceDTO"><path codeLine="102" d="M2643,386.88 C2643,421.41 2643,470.72 2643,514.98 " fill="none" id="DeviceAssembler-to-DeviceDTO" style="stroke:#181818;stroke-width:1.0;stroke-dasharray:7.0,7.0;"/><polygon fill="#181818" points="2643,520.98,2647,511.98,2643,515.98,2639,511.98,2643,520.98" style="stroke:#181818;stroke-width:1.0;"/><text fill="#000000" font-family="sans-serif" font-size="13" lengthAdjust="spacing" textLength="43" x="2644" y="487.0283">creates</text><text fill="#000000" font-family="sans-serif" font-size="13" lengthAdjust="spacing" textLength="7" x="2635.3984" y="408.25">1</text><text fill="#000000" font-family="sans-serif" font-size="13" lengthAdjust="spacing" textLength="5" x="2637.7422" y="509.869">*</text></g><!--link GetListOfDevicesFromRoomController to RoomID--><g id="link_GetListOfDevicesFromRoomController_RoomID"><path codeLine="104" d="M1465,185.11 C1465,227.58 1465,270.51 1465,304.36 " fill="none" id="GetListOfDevicesFromRoomController-to-RoomID" style="stroke:#181818;stroke-width:1.0;stroke-dasharray:7.0,7.0;"/><polygon fill="#181818" points="1465,310.36,1469,301.36,1465,305.36,1461,301.36,1465,310.36" style="stroke:#181818;stroke-width:1.0;"/><text fill="#000000" font-family="sans-serif" font-size="13" lengthAdjust="spacing" textLength="43" x="1466" y="230.0283">creates</text><text fill="#000000" font-family="sans-serif" font-size="13" lengthAdjust="spacing" textLength="7" x="1457.6992" y="207.5242">1</text><text fill="#000000" font-family="sans-serif" font-size="13" lengthAdjust="spacing" textLength="7" x="1457.4422" y="299.2418">1</text></g><!--SRC=[dLPBZzem4BxdLuou44e0zHfLI6ojRIDrYyJkVUN51Y8bCOfD9RJgVwzZ9_4u2OzoWfdvFFFD4yO7fOuoNYoE6ItKAS_cMv4ljXcLSiPIkYzf7WH6X1zS_KgbMky8_vDkkNmkHRuH8lyk2bMABEFbPp1UALMc7oV5vJYOmNkfxQ-yhF0nR9nGsPXnKoiW1eBbvl5AIfv_QDzWtxUoyu0XnDS4unUk3e9fCjFRz26KDdYb1ezl1BN9FkwoZU0gLuXkCfq4qprNrIiPJcAec7wh9FAsNXfJpJeihT96q5yQiBKR-D-cOoY1uTPi-578L8dohFsrtqtWX4Jc_JAO6UWptLQsEhLQkgjB1t6It7dNa9- -1dS9KGvx33tPrhmcuh6wqOq8MaPzBfVwi6prJ-U4WU6MaDfrGZHqVLIfA6XMmtKJK1TSW5uZoEfj5SCBFKAdxgWgkxHWgophCXAxXF52fUeCOSg6o81ZuyYqbVZ4CPZ8QLgy2Jr29Zk9O_L6qdEeDPsqfhO-CRngNR6tyc-QSwTXQSuBgLbASCfT9aJfvCvWDDGgHot8Tfiqtf3UTsPnfcTMCV6JICZmZg0ikdmI4le8vDAx3ttFzY3WwIQjnjdTqX4izzSNhkmlPksnWh3B0Z2D2AwIiFMyYy84Nx2dix6nWHL2XspPhMJbkrV6cML8gABr2bbmmY9e_A3iBv5W5qZ87WjtL2xkZgKa_MokNUbMrzqXwmbDRBDMI64ndSsoJLPKdUJWBhKHmrw8fka3ApQ0wiGmuny4T_pIZhwEO3vVciyD_e-WZx4CaAQ7n2jZm0z4Qxk8uhdEjkWle-QwnR0jETLT-U_al8Mhm_bBs4TNAJwMN6T8lNZ32RQZy7YAc_e4rk__0G00]--></g></svg>