<?xml version="1.0" encoding="us-ascii" standalone="no"?><svg xmlns="http://www.w3.org/2000/svg" xmlns:xlink="http://www.w3.org/1999/xlink" contentStyleType="text/css" height="976px" preserveAspectRatio="none" style="width:2111px;height:976px;background:#FFFFFF;" version="1.1" viewBox="0 0 2111 976" width="2111px" zoomAndPan="magnify"><defs/><g><rect fill="#FFFFFF" height="371.5313" style="stroke:#181818;stroke-width:1.0;" width="10" x="241" y="71.9121"/><rect fill="#FFFFFF" height="446.4434" style="stroke:#181818;stroke-width:1.0;" width="10" x="241" y="474.7344"/><rect fill="#FFFFFF" height="93.873" style="stroke:#181818;stroke-width:1.0;" width="10" x="477" y="103.2031"/><rect fill="#FFFFFF" height="93.873" style="stroke:#181818;stroke-width:1.0;" width="10" x="677" y="580.9375"/><rect fill="#FFFFFF" height="31.291" style="stroke:#181818;stroke-width:1.0;" width="10" x="862.5" y="134.4941"/><rect fill="#FFFFFF" height="183.7852" style="stroke:#181818;stroke-width:1.0;" width="10" x="1010.5" y="228.3672"/><rect fill="#FFFFFF" height="33.6211" style="stroke:#181818;stroke-width:1.0;" width="10" x="1261" y="295.9492"/><rect fill="#FFFFFF" height="33.6211" style="stroke:#181818;stroke-width:1.0;" width="10" x="1405" y="516.0254"/><rect fill="#FFFFFF" height="31.291" style="stroke:#181818;stroke-width:1.0;" width="10" x="1560.5" y="612.2285"/><rect fill="#FFFFFF" height="183.7852" style="stroke:#181818;stroke-width:1.0;" width="10" x="1719" y="706.1016"/><rect fill="#FFFFFF" height="33.6211" style="stroke:#181818;stroke-width:1.0;" width="10" x="2009" y="773.6836"/><rect fill="none" height="138.4941" style="stroke:#000000;stroke-width:1.5;" width="404.5" x="945" y="243.3672"/><rect fill="none" height="138.4941" style="stroke:#000000;stroke-width:1.5;" width="454.5" x="1650.5" y="721.1016"/><line style="stroke:#181818;stroke-width:0.5;stroke-dasharray:5.0,5.0;" x1="14" x2="14" y1="38.6211" y2="939.1777"/><line style="stroke:#181818;stroke-width:0.5;stroke-dasharray:5.0,5.0;" x1="246" x2="246" y1="38.6211" y2="939.1777"/><line style="stroke:#181818;stroke-width:0.5;stroke-dasharray:5.0,5.0;" x1="482" x2="482" y1="38.6211" y2="939.1777"/><line style="stroke:#181818;stroke-width:0.5;stroke-dasharray:5.0,5.0;" x1="682" x2="682" y1="38.6211" y2="939.1777"/><line style="stroke:#181818;stroke-width:0.5;stroke-dasharray:5.0,5.0;" x1="867" x2="867" y1="38.6211" y2="939.1777"/><line style="stroke:#181818;stroke-width:0.5;stroke-dasharray:5.0,5.0;" x1="1015" x2="1015" y1="38.6211" y2="939.1777"/><line style="stroke:#181818;stroke-width:0.5;stroke-dasharray:5.0,5.0;" x1="1265.5" x2="1265.5" y1="294.4688" y2="939.1777"/><line style="stroke:#181818;stroke-width:0.5;stroke-dasharray:5.0,5.0;" x1="1409.5" x2="1409.5" y1="514.5449" y2="939.1777"/><line style="stroke:#181818;stroke-width:0.5;stroke-dasharray:5.0,5.0;" x1="1565.5" x2="1565.5" y1="38.6211" y2="939.1777"/><line style="stroke:#181818;stroke-width:0.5;stroke-dasharray:5.0,5.0;" x1="1723.5" x2="1723.5" y1="38.6211" y2="939.1777"/><line style="stroke:#181818;stroke-width:0.5;stroke-dasharray:5.0,5.0;" x1="2014" x2="2014" y1="772.2031" y2="939.1777"/><rect fill="#E2E2F0" height="32.6211" rx="2.5" ry="2.5" style="stroke:#181818;stroke-width:0.5;" width="18" x="5" y="5"/><text fill="#000000" font-family="sans-serif" font-size="14" lengthAdjust="spacing" textLength="4" x="12" y="27.1074">&#160;</text><rect fill="#E2E2F0" height="32.6211" rx="2.5" ry="2.5" style="stroke:#181818;stroke-width:0.5;" width="18" x="5" y="938.1777"/><text fill="#000000" font-family="sans-serif" font-size="14" lengthAdjust="spacing" textLength="4" x="12" y="960.2852">&#160;</text><rect fill="#E2E2F0" height="32.6211" rx="2.5" ry="2.5" style="stroke:#181818;stroke-width:0.5;" width="268" x="112" y="5"/><text fill="#000000" font-family="sans-serif" font-size="14" lengthAdjust="spacing" textLength="254" x="119" y="27.1074">:GetListOfDevicesFromRoom_Controller</text><rect fill="#E2E2F0" height="32.6211" rx="2.5" ry="2.5" style="stroke:#181818;stroke-width:0.5;" width="268" x="112" y="938.1777"/><text fill="#000000" font-family="sans-serif" font-size="14" lengthAdjust="spacing" textLength="254" x="119" y="960.2852">:GetListOfDevicesFromRoom_Controller</text><rect fill="#E2E2F0" height="32.6211" rx="2.5" ry="2.5" style="stroke:#181818;stroke-width:0.5;" width="184" x="390" y="5"/><text fill="#000000" font-family="sans-serif" font-size="14" lengthAdjust="spacing" textLength="170" x="397" y="27.1074">serviceRoom:ServiceRoom</text><rect fill="#E2E2F0" height="32.6211" rx="2.5" ry="2.5" style="stroke:#181818;stroke-width:0.5;" width="184" x="390" y="938.1777"/><text fill="#000000" font-family="sans-serif" font-size="14" lengthAdjust="spacing" textLength="170" x="397" y="960.2852">serviceRoom:ServiceRoom</text><rect fill="#E2E2F0" height="32.6211" rx="2.5" ry="2.5" style="stroke:#181818;stroke-width:0.5;" width="196" x="584" y="5"/><text fill="#000000" font-family="sans-serif" font-size="14" lengthAdjust="spacing" textLength="182" x="591" y="27.1074">serviceDevice:ServiceDevice</text><rect fill="#E2E2F0" height="32.6211" rx="2.5" ry="2.5" style="stroke:#181818;stroke-width:0.5;" width="196" x="584" y="938.1777"/><text fill="#000000" font-family="sans-serif" font-size="14" lengthAdjust="spacing" textLength="182" x="591" y="960.2852">serviceDevice:ServiceDevice</text><rect fill="#E2E2F0" height="32.6211" rx="2.5" ry="2.5" style="stroke:#181818;stroke-width:0.5;" width="155" x="790" y="5"/><text fill="#000000" font-family="sans-serif" font-size="14" lengthAdjust="spacing" textLength="141" x="797" y="27.1074">roomRepo:RoomRepo</text><rect fill="#E2E2F0" height="32.6211" rx="2.5" ry="2.5" style="stroke:#181818;stroke-width:0.5;" width="155" x="790" y="938.1777"/><text fill="#000000" font-family="sans-serif" font-size="14" lengthAdjust="spacing" textLength="141" x="797" y="960.2852">roomRepo:RoomRepo</text><rect fill="#E2E2F0" height="32.6211" rx="2.5" ry="2.5" style="stroke:#181818;stroke-width:0.5;" width="121" x="955" y="5"/><text fill="#000000" font-family="sans-serif" font-size="14" lengthAdjust="spacing" textLength="107" x="962" y="27.1074">:RoomAssembler</text><rect fill="#E2E2F0" height="32.6211" rx="2.5" ry="2.5" style="stroke:#181818;stroke-width:0.5;" width="121" x="955" y="938.1777"/><text fill="#000000" font-family="sans-serif" font-size="14" lengthAdjust="spacing" textLength="107" x="962" y="960.2852">:RoomAssembler</text><rect fill="#E2E2F0" height="32.6211" rx="2.5" ry="2.5" style="stroke:#181818;stroke-width:0.5;" width="147" x="1192.5" y="938.1777"/><text fill="#000000" font-family="sans-serif" font-size="14" lengthAdjust="spacing" textLength="133" x="1199.5" y="960.2852">roomDTO:RoomDTO</text><rect fill="#E2E2F0" height="32.6211" rx="2.5" ry="2.5" style="stroke:#181818;stroke-width:0.5;" width="121" x="1349.5" y="938.1777"/><text fill="#000000" font-family="sans-serif" font-size="14" lengthAdjust="spacing" textLength="107" x="1356.5" y="960.2852">roomID : RoomID</text><rect fill="#E2E2F0" height="32.6211" rx="2.5" ry="2.5" style="stroke:#181818;stroke-width:0.5;" width="170" x="1480.5" y="5"/><text fill="#000000" font-family="sans-serif" font-size="14" lengthAdjust="spacing" textLength="156" x="1487.5" y="27.1074">deviceRepo:DeviceRepo</text><rect fill="#E2E2F0" height="32.6211" rx="2.5" ry="2.5" style="stroke:#181818;stroke-width:0.5;" width="170" x="1480.5" y="938.1777"/><text fill="#000000" font-family="sans-serif" font-size="14" lengthAdjust="spacing" textLength="156" x="1487.5" y="960.2852">deviceRepo:DeviceRepo</text><rect fill="#E2E2F0" height="32.6211" rx="2.5" ry="2.5" style="stroke:#181818;stroke-width:0.5;" width="127" x="1660.5" y="5"/><text fill="#000000" font-family="sans-serif" font-size="14" lengthAdjust="spacing" textLength="113" x="1667.5" y="27.1074">:DeviceAssembler</text><rect fill="#E2E2F0" height="32.6211" rx="2.5" ry="2.5" style="stroke:#181818;stroke-width:0.5;" width="127" x="1660.5" y="938.1777"/><text fill="#000000" font-family="sans-serif" font-size="14" lengthAdjust="spacing" textLength="113" x="1667.5" y="960.2852">:DeviceAssembler</text><rect fill="#E2E2F0" height="32.6211" rx="2.5" ry="2.5" style="stroke:#181818;stroke-width:0.5;" width="162" x="1933" y="938.1777"/><text fill="#000000" font-family="sans-serif" font-size="14" lengthAdjust="spacing" textLength="148" x="1940" y="960.2852">deviceDTO:DeviceDTO</text><rect fill="#FFFFFF" height="371.5313" style="stroke:#181818;stroke-width:1.0;" width="10" x="241" y="71.9121"/><rect fill="#FFFFFF" height="446.4434" style="stroke:#181818;stroke-width:1.0;" width="10" x="241" y="474.7344"/><rect fill="#FFFFFF" height="93.873" style="stroke:#181818;stroke-width:1.0;" width="10" x="477" y="103.2031"/><rect fill="#FFFFFF" height="93.873" style="stroke:#181818;stroke-width:1.0;" width="10" x="677" y="580.9375"/><rect fill="#FFFFFF" height="31.291" style="stroke:#181818;stroke-width:1.0;" width="10" x="862.5" y="134.4941"/><rect fill="#FFFFFF" height="183.7852" style="stroke:#181818;stroke-width:1.0;" width="10" x="1010.5" y="228.3672"/><rect fill="#FFFFFF" height="33.6211" style="stroke:#181818;stroke-width:1.0;" width="10" x="1261" y="295.9492"/><rect fill="#FFFFFF" height="33.6211" style="stroke:#181818;stroke-width:1.0;" width="10" x="1405" y="516.0254"/><rect fill="#FFFFFF" height="31.291" style="stroke:#181818;stroke-width:1.0;" width="10" x="1560.5" y="612.2285"/><rect fill="#FFFFFF" height="183.7852" style="stroke:#181818;stroke-width:1.0;" width="10" x="1719" y="706.1016"/><rect fill="#FFFFFF" height="33.6211" style="stroke:#181818;stroke-width:1.0;" width="10" x="2009" y="773.6836"/><ellipse cx="13.5" cy="71.1621" fill="none" rx="4" ry="4" style="stroke:#181818;stroke-width:1.5;"/><polygon fill="#181818" points="229,67.9121,239,71.9121,229,75.9121,233,71.9121" style="stroke:#181818;stroke-width:1.0;"/><line style="stroke:#181818;stroke-width:1.0;" x1="18" x2="235" y1="71.9121" y2="71.9121"/><text fill="#000000" font-family="sans-serif" font-size="13" font-weight="bold" lengthAdjust="spacing" textLength="7" x="21" y="66.6494">1</text><text fill="#000000" font-family="sans-serif" font-size="13" lengthAdjust="spacing" textLength="67" x="32" y="66.6494">getRooms()</text><polygon fill="#181818" points="465,99.2031,475,103.2031,465,107.2031,469,103.2031" style="stroke:#181818;stroke-width:1.0;"/><line style="stroke:#181818;stroke-width:1.0;" x1="251" x2="471" y1="103.2031" y2="103.2031"/><text fill="#000000" font-family="sans-serif" font-size="13" font-weight="bold" lengthAdjust="spacing" textLength="7" x="258" y="97.9404">2</text><text fill="#000000" font-family="sans-serif" font-size="13" lengthAdjust="spacing" textLength="67" x="269" y="97.9404">getRooms()</text><polygon fill="#181818" points="850.5,130.4941,860.5,134.4941,850.5,138.4941,854.5,134.4941" style="stroke:#181818;stroke-width:1.0;"/><line style="stroke:#181818;stroke-width:1.0;" x1="487" x2="856.5" y1="134.4941" y2="134.4941"/><text fill="#000000" font-family="sans-serif" font-size="13" font-weight="bold" lengthAdjust="spacing" textLength="7" x="494" y="129.2314">3</text><text fill="#000000" font-family="sans-serif" font-size="13" lengthAdjust="spacing" textLength="43" x="505" y="129.2314">findAll()</text><polygon fill="#181818" points="498,161.7852,488,165.7852,498,169.7852,494,165.7852" style="stroke:#181818;stroke-width:1.0;"/><line style="stroke:#181818;stroke-width:1.0;stroke-dasharray:2.0,2.0;" x1="492" x2="866.5" y1="165.7852" y2="165.7852"/><text fill="#000000" font-family="sans-serif" font-size="13" font-weight="bold" lengthAdjust="spacing" textLength="7" x="504" y="160.5225">4</text><text fill="#000000" font-family="sans-serif" font-size="13" lengthAdjust="spacing" textLength="71" x="515" y="160.5225">listOfRooms</text><polygon fill="#181818" points="262,193.0762,252,197.0762,262,201.0762,258,197.0762" style="stroke:#181818;stroke-width:1.0;"/><line style="stroke:#181818;stroke-width:1.0;stroke-dasharray:2.0,2.0;" x1="256" x2="481" y1="197.0762" y2="197.0762"/><text fill="#000000" font-family="sans-serif" font-size="13" font-weight="bold" lengthAdjust="spacing" textLength="7" x="268" y="191.8135">5</text><text fill="#000000" font-family="sans-serif" font-size="13" lengthAdjust="spacing" textLength="71" x="279" y="191.8135">listOfRooms</text><polygon fill="#181818" points="998.5,224.3672,1008.5,228.3672,998.5,232.3672,1002.5,228.3672" style="stroke:#181818;stroke-width:1.0;"/><line style="stroke:#181818;stroke-width:1.0;" x1="251" x2="1004.5" y1="228.3672" y2="228.3672"/><text fill="#000000" font-family="sans-serif" font-size="13" font-weight="bold" lengthAdjust="spacing" textLength="7" x="258" y="223.1045">6</text><text fill="#000000" font-family="sans-serif" font-size="13" lengthAdjust="spacing" textLength="161" x="269" y="223.1045">domainToDTO(listOfRooms)</text><path d="M945,243.3672 L1018,243.3672 L1018,252.6582 L1008,262.6582 L945,262.6582 L945,243.3672 " fill="#EEEEEE" style="stroke:#000000;stroke-width:1.5;"/><rect fill="none" height="138.4941" style="stroke:#000000;stroke-width:1.5;" width="404.5" x="945" y="243.3672"/><text fill="#000000" font-family="sans-serif" font-size="13" font-weight="bold" lengthAdjust="spacing" textLength="28" x="960" y="258.3955">loop</text><text fill="#000000" font-family="sans-serif" font-size="11" font-weight="bold" lengthAdjust="spacing" textLength="86" x="1033" y="257.2373">[for each room]</text><polygon fill="#181818" points="1180.5,281.9492,1190.5,285.9492,1180.5,289.9492,1184.5,285.9492" style="stroke:#181818;stroke-width:1.0;"/><line style="stroke:#181818;stroke-width:1.0;" x1="1020.5" x2="1186.5" y1="285.9492" y2="285.9492"/><text fill="#000000" font-family="sans-serif" font-size="13" font-weight="bold" lengthAdjust="spacing" textLength="7" x="1027.5" y="280.6865">7</text><text fill="#000000" font-family="sans-serif" font-size="13" lengthAdjust="spacing" textLength="137" x="1038.5" y="280.6865">createRoomDTO (room)</text><rect fill="#E2E2F0" height="32.6211" rx="2.5" ry="2.5" style="stroke:#181818;stroke-width:0.5;" width="147" x="1192.5" y="262.6582"/><text fill="#000000" font-family="sans-serif" font-size="14" lengthAdjust="spacing" textLength="133" x="1199.5" y="284.7656">roomDTO:RoomDTO</text><polygon fill="#181818" points="1031.5,325.5703,1021.5,329.5703,1031.5,333.5703,1027.5,329.5703" style="stroke:#181818;stroke-width:1.0;"/><line style="stroke:#181818;stroke-width:1.0;stroke-dasharray:2.0,2.0;" x1="1025.5" x2="1265" y1="329.5703" y2="329.5703"/><text fill="#000000" font-family="sans-serif" font-size="13" font-weight="bold" lengthAdjust="spacing" textLength="7" x="1037.5" y="324.3076">8</text><text fill="#000000" font-family="sans-serif" font-size="13" lengthAdjust="spacing" textLength="55" x="1048.5" y="324.3076">roomDTO</text><line style="stroke:#181818;stroke-width:1.0;" x1="1020.5" x2="1062.5" y1="360.8613" y2="360.8613"/><line style="stroke:#181818;stroke-width:1.0;" x1="1062.5" x2="1062.5" y1="360.8613" y2="373.8613"/><line style="stroke:#181818;stroke-width:1.0;" x1="1021.5" x2="1062.5" y1="373.8613" y2="373.8613"/><polygon fill="#181818" points="1031.5,369.8613,1021.5,373.8613,1031.5,377.8613,1027.5,373.8613" style="stroke:#181818;stroke-width:1.0;"/><text fill="#000000" font-family="sans-serif" font-size="13" font-weight="bold" lengthAdjust="spacing" textLength="7" x="1027.5" y="355.5986">9</text><text fill="#000000" font-family="sans-serif" font-size="13" lengthAdjust="spacing" textLength="179" x="1038.5" y="355.5986">addRoomDTOToList(roomDTO)</text><polygon fill="#181818" points="262,408.1523,252,412.1523,262,416.1523,258,412.1523" style="stroke:#181818;stroke-width:1.0;"/><line style="stroke:#181818;stroke-width:1.0;stroke-dasharray:2.0,2.0;" x1="256" x2="1014.5" y1="412.1523" y2="412.1523"/><text fill="#000000" font-family="sans-serif" font-size="13" font-weight="bold" lengthAdjust="spacing" textLength="14" x="268" y="406.8896">10</text><text fill="#000000" font-family="sans-serif" font-size="13" lengthAdjust="spacing" textLength="76" x="286" y="406.8896">roomDTOList</text><polygon fill="#181818" points="25,439.4434,15,443.4434,25,447.4434,21,443.4434" style="stroke:#181818;stroke-width:1.0;"/><line style="stroke:#181818;stroke-width:1.0;stroke-dasharray:2.0,2.0;" x1="19" x2="245" y1="443.4434" y2="443.4434"/><text fill="#000000" font-family="sans-serif" font-size="13" font-weight="bold" lengthAdjust="spacing" textLength="14" x="31" y="438.1807">11</text><text fill="#000000" font-family="sans-serif" font-size="13" lengthAdjust="spacing" textLength="76" x="49" y="438.1807">roomDTOList</text><ellipse cx="13.5" cy="473.9844" fill="none" rx="4" ry="4" style="stroke:#181818;stroke-width:1.5;"/><polygon fill="#181818" points="229,470.7344,239,474.7344,229,478.7344,233,474.7344" style="stroke:#181818;stroke-width:1.0;"/><line style="stroke:#181818;stroke-width:1.0;" x1="18" x2="235" y1="474.7344" y2="474.7344"/><text fill="#000000" font-family="sans-serif" font-size="13" font-weight="bold" lengthAdjust="spacing" textLength="14" x="21" y="469.4717">12</text><text fill="#000000" font-family="sans-serif" font-size="13" lengthAdjust="spacing" textLength="190" x="39" y="469.4717">getDevicesFromRoom(roomDTO)</text><polygon fill="#181818" points="1337.5,502.0254,1347.5,506.0254,1337.5,510.0254,1341.5,506.0254" style="stroke:#181818;stroke-width:1.0;"/><line style="stroke:#181818;stroke-width:1.0;" x1="251" x2="1343.5" y1="506.0254" y2="506.0254"/><text fill="#000000" font-family="sans-serif" font-size="13" font-weight="bold" lengthAdjust="spacing" textLength="14" x="258" y="500.7627">13</text><text fill="#000000" font-family="sans-serif" font-size="13" lengthAdjust="spacing" textLength="139" x="276" y="500.7627">dtoToDomain(roomDTO)</text><rect fill="#E2E2F0" height="32.6211" rx="2.5" ry="2.5" style="stroke:#181818;stroke-width:0.5;" width="121" x="1349.5" y="482.7344"/><text fill="#000000" font-family="sans-serif" font-size="14" lengthAdjust="spacing" textLength="107" x="1356.5" y="504.8418">roomID : RoomID</text><polygon fill="#181818" points="262,545.6465,252,549.6465,262,553.6465,258,549.6465" style="stroke:#181818;stroke-width:1.0;"/><line style="stroke:#181818;stroke-width:1.0;stroke-dasharray:2.0,2.0;" x1="256" x2="1409" y1="549.6465" y2="549.6465"/><text fill="#000000" font-family="sans-serif" font-size="13" font-weight="bold" lengthAdjust="spacing" textLength="14" x="268" y="544.3838">14</text><text fill="#000000" font-family="sans-serif" font-size="13" lengthAdjust="spacing" textLength="39" x="286" y="544.3838">roomId</text><polygon fill="#181818" points="665,576.9375,675,580.9375,665,584.9375,669,580.9375" style="stroke:#181818;stroke-width:1.0;"/><line style="stroke:#181818;stroke-width:1.0;" x1="251" x2="671" y1="580.9375" y2="580.9375"/><text fill="#000000" font-family="sans-serif" font-size="13" font-weight="bold" lengthAdjust="spacing" textLength="14" x="258" y="575.6748">15</text><text fill="#000000" font-family="sans-serif" font-size="13" lengthAdjust="spacing" textLength="174" x="276" y="575.6748">getDevicesByRoomID(roomID)</text><polygon fill="#181818" points="1548.5,608.2285,1558.5,612.2285,1548.5,616.2285,1552.5,612.2285" style="stroke:#181818;stroke-width:1.0;"/><line style="stroke:#181818;stroke-width:1.0;" x1="687" x2="1554.5" y1="612.2285" y2="612.2285"/><text fill="#000000" font-family="sans-serif" font-size="13" font-weight="bold" lengthAdjust="spacing" textLength="14" x="694" y="606.9658">16</text><text fill="#000000" font-family="sans-serif" font-size="13" lengthAdjust="spacing" textLength="176" x="712" y="606.9658">getDevicesByRoomID (roomId)</text><polygon fill="#181818" points="698,639.5195,688,643.5195,698,647.5195,694,643.5195" style="stroke:#181818;stroke-width:1.0;"/><line style="stroke:#181818;stroke-width:1.0;stroke-dasharray:2.0,2.0;" x1="692" x2="1564.5" y1="643.5195" y2="643.5195"/><text fill="#000000" font-family="sans-serif" font-size="13" font-weight="bold" lengthAdjust="spacing" textLength="14" x="704" y="638.2568">17</text><text fill="#000000" font-family="sans-serif" font-size="13" lengthAdjust="spacing" textLength="62" x="722" y="638.2568">listDevices</text><polygon fill="#181818" points="262,670.8105,252,674.8105,262,678.8105,258,674.8105" style="stroke:#181818;stroke-width:1.0;"/><line style="stroke:#181818;stroke-width:1.0;stroke-dasharray:2.0,2.0;" x1="256" x2="681" y1="674.8105" y2="674.8105"/><text fill="#000000" font-family="sans-serif" font-size="13" font-weight="bold" lengthAdjust="spacing" textLength="14" x="268" y="669.5479">18</text><text fill="#000000" font-family="sans-serif" font-size="13" lengthAdjust="spacing" textLength="62" x="286" y="669.5479">listDevices</text><polygon fill="#181818" points="1707,702.1016,1717,706.1016,1707,710.1016,1711,706.1016" style="stroke:#181818;stroke-width:1.0;"/><line style="stroke:#181818;stroke-width:1.0;" x1="251" x2="1713" y1="706.1016" y2="706.1016"/><text fill="#000000" font-family="sans-serif" font-size="13" font-weight="bold" lengthAdjust="spacing" textLength="14" x="258" y="700.8389">19</text><text fill="#000000" font-family="sans-serif" font-size="13" lengthAdjust="spacing" textLength="145" x="276" y="700.8389">deviceToDTO (deviceList)</text><path d="M1650.5,721.1016 L1723.5,721.1016 L1723.5,730.3926 L1713.5,740.3926 L1650.5,740.3926 L1650.5,721.1016 " fill="#EEEEEE" style="stroke:#000000;stroke-width:1.5;"/><rect fill="none" height="138.4941" style="stroke:#000000;stroke-width:1.5;" width="454.5" x="1650.5" y="721.1016"/><text fill="#000000" font-family="sans-serif" font-size="13" font-weight="bold" lengthAdjust="spacing" textLength="28" x="1665.5" y="736.1299">loop</text><text fill="#000000" font-family="sans-serif" font-size="11" font-weight="bold" lengthAdjust="spacing" textLength="125" x="1738.5" y="734.9717">[for each device in list]</text><polygon fill="#181818" points="1921,759.6836,1931,763.6836,1921,767.6836,1925,763.6836" style="stroke:#181818;stroke-width:1.0;"/><line style="stroke:#181818;stroke-width:1.0;" x1="1729" x2="1927" y1="763.6836" y2="763.6836"/><text fill="#000000" font-family="sans-serif" font-size="13" font-weight="bold" lengthAdjust="spacing" textLength="14" x="1736" y="758.4209">20</text><text fill="#000000" font-family="sans-serif" font-size="13" lengthAdjust="spacing" textLength="162" x="1754" y="758.4209">createDeviceToDTO (device)</text><rect fill="#E2E2F0" height="32.6211" rx="2.5" ry="2.5" style="stroke:#181818;stroke-width:0.5;" width="162" x="1933" y="740.3926"/><text fill="#000000" font-family="sans-serif" font-size="14" lengthAdjust="spacing" textLength="148" x="1940" y="762.5">deviceDTO:DeviceDTO</text><polygon fill="#181818" points="1740,803.3047,1730,807.3047,1740,811.3047,1736,807.3047" style="stroke:#181818;stroke-width:1.0;"/><line style="stroke:#181818;stroke-width:1.0;stroke-dasharray:2.0,2.0;" x1="1734" x2="2013" y1="807.3047" y2="807.3047"/><text fill="#000000" font-family="sans-serif" font-size="13" font-weight="bold" lengthAdjust="spacing" textLength="14" x="1746" y="802.042">21</text><text fill="#000000" font-family="sans-serif" font-size="13" lengthAdjust="spacing" textLength="62" x="1764" y="802.042">deviceDTO</text><line style="stroke:#181818;stroke-width:1.0;" x1="1729" x2="1771" y1="838.5957" y2="838.5957"/><line style="stroke:#181818;stroke-width:1.0;" x1="1771" x2="1771" y1="838.5957" y2="851.5957"/><line style="stroke:#181818;stroke-width:1.0;" x1="1730" x2="1771" y1="851.5957" y2="851.5957"/><polygon fill="#181818" points="1740,847.5957,1730,851.5957,1740,855.5957,1736,851.5957" style="stroke:#181818;stroke-width:1.0;"/><text fill="#000000" font-family="sans-serif" font-size="13" font-weight="bold" lengthAdjust="spacing" textLength="14" x="1736" y="833.333">22</text><text fill="#000000" font-family="sans-serif" font-size="13" lengthAdjust="spacing" textLength="190" x="1754" y="833.333">addDeviceDTOToList(deviceDTO)</text><polygon fill="#181818" points="262,885.8867,252,889.8867,262,893.8867,258,889.8867" style="stroke:#181818;stroke-width:1.0;"/><line style="stroke:#181818;stroke-width:1.0;stroke-dasharray:2.0,2.0;" x1="256" x2="1723" y1="889.8867" y2="889.8867"/><text fill="#000000" font-family="sans-serif" font-size="13" font-weight="bold" lengthAdjust="spacing" textLength="14" x="268" y="884.624">23</text><text fill="#000000" font-family="sans-serif" font-size="13" lengthAdjust="spacing" textLength="81" x="286" y="884.624">listDeviceDTO</text><polygon fill="#181818" points="25,917.1777,15,921.1777,25,925.1777,21,921.1777" style="stroke:#181818;stroke-width:1.0;"/><line style="stroke:#181818;stroke-width:1.0;stroke-dasharray:2.0,2.0;" x1="19" x2="245" y1="921.1777" y2="921.1777"/><text fill="#000000" font-family="sans-serif" font-size="13" font-weight="bold" lengthAdjust="spacing" textLength="14" x="31" y="915.915">24</text><text fill="#000000" font-family="sans-serif" font-size="13" lengthAdjust="spacing" textLength="81" x="49" y="915.915">listDeviceDTO</text><!--SRC=[fLN1Zfmm3Btp5L4lPG_JkNEej2rgXLHffUdqNB4aiui4X8RCIltxnau2JW0rQ6SF6mVx-TbnNZw-QZrEnVayTlMWxtttgP7zUH9_xc9en8ctzOkg-soibMwRTZG-x8FvgoVsQn8gt2- -2_sZdVJJhHHlRIEcRqhs5odxtr_be9NiEg4mDC4l2w5DBl04f-BdiaOqOcy6sIG-p5eqqEv42PL1kuXH5XUtm0XlH7N3zkCqYVxPLnZiR42NroUCClzdVxFUyAnALk3dgfmzgp9ov5W2yYtd9RelPiJPVWXPHtjREO1uwLSa2CdNTos7U_yC9SDuC7dwd7BO1NiH6lQc_C6WDBfzgxL86vC49sPOa27PoKR7A2C6HFjpBzYj7VXZrmMHyrHaViLESSeEEMBMBEDY8pP8cTgtFTYWcCGM1JDhXexBlcw7gpH7cvCySULap3ifHtQJYXaYhqnXScP-ZHBU6-S4zi9iBZrCb_Ds9ii1vi76i23n3EKjR5k0Mp0LEBAeyo74YWx1gJbt0LS9pSmTi64c1fv5uQd7vq30SJKLfAz91sXouftRHqswJuVlRVIPDEPOOZ8aHjyEp2mg9DVIJ2fEx1O3hvhE_z01LNnrDW1rJ7ZS8qGQzkMlHSgjocz8aN-O0XCm5r7V0hHNfk8KaJm3sRAcCkK9martW47P524YT4Iijg2ZSbCQktI1t57xGg5WiTmQ0BJkmwvasI3M3iYLQXTvvM0tmbde40KhrtISZaLq8bIlP3lrpTwhm_a_kr3GvYWdQJE-4xKLpF63HaehegJ_xni38dhxEPFK1tx_0000]--></g></svg>