<?xml version="1.0" encoding="us-ascii" standalone="no"?><svg xmlns="http://www.w3.org/2000/svg" xmlns:xlink="http://www.w3.org/1999/xlink" contentStyleType="text/css" height="786px" preserveAspectRatio="none" style="width:1668px;height:786px;background:#FFFFFF;" version="1.1" viewBox="0 0 1668 786" width="1668px" zoomAndPan="magnify"><defs/><g><!--class GetDevicesFromRoomController--><g id="elem_GetDevicesFromRoomController"><rect codeLine="6" fill="#F1F1F1" height="159.7266" id="GetDevicesFromRoomController" rx="2.5" ry="2.5" style="stroke:#181818;stroke-width:0.5;" width="444" x="704.5" y="12"/><ellipse cx="819.75" cy="28" fill="#ADD1B2" rx="11" ry="11" style="stroke:#181818;stroke-width:1.0;"/><path d="M822.5156,23.875 Q822.6719,23.6563 822.8594,23.5469 Q823.0469,23.4375 823.2656,23.4375 Q823.6406,23.4375 823.875,23.7031 Q824.1094,23.9531 824.1094,24.5625 L824.1094,26.0156 Q824.1094,26.625 823.875,26.8906 Q823.6406,27.1563 823.2656,27.1563 Q822.9219,27.1563 822.7188,26.9531 Q822.5156,26.7656 822.4063,26.25 Q822.3594,25.8906 822.1719,25.7031 Q821.8438,25.3281 821.2344,25.1094 Q820.625,24.8906 820,24.8906 Q819.2344,24.8906 818.5938,25.2188 Q817.9688,25.5469 817.4688,26.2969 Q816.9844,27.0469 816.9844,28.0781 L816.9844,29.1719 Q816.9844,30.4063 817.875,31.2344 Q818.7656,32.0469 820.3594,32.0469 Q821.2969,32.0469 821.9531,31.7969 Q822.3438,31.6406 822.7656,31.2031 Q823.0313,30.9375 823.1719,30.8594 Q823.3281,30.7813 823.5313,30.7813 Q823.8594,30.7813 824.1094,31.0469 Q824.375,31.2969 824.375,31.6406 Q824.375,31.9844 824.0313,32.3906 Q823.5313,32.9688 822.7344,33.2969 Q821.6563,33.75 820.3594,33.75 Q818.8438,33.75 817.6406,33.125 Q816.6563,32.625 815.9688,31.5625 Q815.2813,30.4844 815.2813,29.2031 L815.2813,28.0469 Q815.2813,26.7188 815.8906,25.5781 Q816.5156,24.4219 817.6094,23.8125 Q818.7031,23.1875 819.9375,23.1875 Q820.6719,23.1875 821.3125,23.3594 Q821.9688,23.5156 822.5156,23.875 Z " fill="#000000"/><text fill="#000000" font-family="sans-serif" font-size="14" lengthAdjust="spacing" textLength="205" x="840.25" y="33.7969">GetDevicesFromRoomController</text><line style="stroke:#181818;stroke-width:0.5;" x1="705.5" x2="1147.5" y1="44" y2="44"/><rect fill="none" height="6" style="stroke:#C82930;stroke-width:1.0;" width="6" x="712.5" y="55.8105"/><text fill="#000000" font-family="sans-serif" font-size="14" lengthAdjust="spacing" textLength="99" x="724.5" y="63.1074">_house : House</text><rect fill="none" height="6" style="stroke:#C82930;stroke-width:1.0;" width="6" x="712.5" y="74.4316"/><text fill="#000000" font-family="sans-serif" font-size="14" lengthAdjust="spacing" textLength="345" x="724.5" y="81.7285">_roomsDTOAndRooms : HashMap&lt;RoomDTO, Room&gt;</text><line style="stroke:#181818;stroke-width:0.5;" x1="705.5" x2="1147.5" y1="89.2422" y2="89.2422"/><ellipse cx="715.5" cy="104.0527" fill="#84BE84" rx="3" ry="3" style="stroke:#038048;stroke-width:1.0;"/><text fill="#000000" font-family="sans-serif" font-size="14" lengthAdjust="spacing" textLength="306" x="724.5" y="108.3496">GetDevicesFromRoomController(house : House)</text><rect fill="#F24D5C" height="6" style="stroke:#C82930;stroke-width:1.0;" width="6" x="712.5" y="119.6738"/><text fill="#000000" font-family="sans-serif" font-size="14" lengthAdjust="spacing" textLength="347" x="724.5" y="126.9707">isValidConstructorArguments(house : House) : boolean</text><ellipse cx="715.5" cy="141.2949" fill="#84BE84" rx="3" ry="3" style="stroke:#038048;stroke-width:1.0;"/><text fill="#000000" font-family="sans-serif" font-size="14" lengthAdjust="spacing" textLength="191" x="724.5" y="145.5918">getRooms() : List&lt;RoomDTO&gt;</text><ellipse cx="715.5" cy="159.916" fill="#84BE84" rx="3" ry="3" style="stroke:#038048;stroke-width:1.0;"/><text fill="#000000" font-family="sans-serif" font-size="14" lengthAdjust="spacing" textLength="418" x="724.5" y="164.2129">getDevicesFromRoom (roomDTO : RoomDTO) : List&lt;DeviceDTO&gt;</text></g><!--class RoomAssembler--><g id="elem_RoomAssembler"><rect codeLine="16" fill="#F1F1F1" height="66.6211" id="RoomAssembler" rx="2.5" ry="2.5" style="stroke:#181818;stroke-width:0.5;" width="497" x="6" y="273.5"/><ellipse cx="198.75" cy="289.5" fill="#ADD1B2" rx="11" ry="11" style="stroke:#181818;stroke-width:1.0;"/><path d="M201.5156,285.375 Q201.6719,285.1563 201.8594,285.0469 Q202.0469,284.9375 202.2656,284.9375 Q202.6406,284.9375 202.875,285.2031 Q203.1094,285.4531 203.1094,286.0625 L203.1094,287.5156 Q203.1094,288.125 202.875,288.3906 Q202.6406,288.6563 202.2656,288.6563 Q201.9219,288.6563 201.7188,288.4531 Q201.5156,288.2656 201.4063,287.75 Q201.3594,287.3906 201.1719,287.2031 Q200.8438,286.8281 200.2344,286.6094 Q199.625,286.3906 199,286.3906 Q198.2344,286.3906 197.5938,286.7188 Q196.9688,287.0469 196.4688,287.7969 Q195.9844,288.5469 195.9844,289.5781 L195.9844,290.6719 Q195.9844,291.9063 196.875,292.7344 Q197.7656,293.5469 199.3594,293.5469 Q200.2969,293.5469 200.9531,293.2969 Q201.3438,293.1406 201.7656,292.7031 Q202.0313,292.4375 202.1719,292.3594 Q202.3281,292.2813 202.5313,292.2813 Q202.8594,292.2813 203.1094,292.5469 Q203.375,292.7969 203.375,293.1406 Q203.375,293.4844 203.0313,293.8906 Q202.5313,294.4688 201.7344,294.7969 Q200.6563,295.25 199.3594,295.25 Q197.8438,295.25 196.6406,294.625 Q195.6563,294.125 194.9688,293.0625 Q194.2813,291.9844 194.2813,290.7031 L194.2813,289.5469 Q194.2813,288.2188 194.8906,287.0781 Q195.5156,285.9219 196.6094,285.3125 Q197.7031,284.6875 198.9375,284.6875 Q199.6719,284.6875 200.3125,284.8594 Q200.9688,285.0156 201.5156,285.375 Z " fill="#000000"/><text fill="#000000" font-family="sans-serif" font-size="14" lengthAdjust="spacing" textLength="103" x="219.25" y="295.2969">RoomAssembler</text><line style="stroke:#181818;stroke-width:0.5;" x1="7" x2="502" y1="305.5" y2="305.5"/><line style="stroke:#181818;stroke-width:0.5;" x1="7" x2="502" y1="313.5" y2="313.5"/><ellipse cx="17" cy="328.3105" fill="#84BE84" rx="3" ry="3" style="stroke:#038048;stroke-width:1.0;"/><text fill="#000000" font-family="sans-serif" font-size="14" lengthAdjust="spacing" textLength="471" x="26" y="332.6074">&#171;static&#187; domain2DTOMap (rooms : List&lt;Room&gt;) : Map&lt;RoomDTO, Room&gt;</text></g><!--class RoomDTO--><g id="elem_RoomDTO"><rect codeLine="22" fill="#F1F1F1" height="141.1055" id="RoomDTO" rx="2.5" ry="2.5" style="stroke:#181818;stroke-width:0.5;" width="190" x="159.5" y="470"/><ellipse cx="216.75" cy="486" fill="#ADD1B2" rx="11" ry="11" style="stroke:#181818;stroke-width:1.0;"/><path d="M219.5156,481.875 Q219.6719,481.6563 219.8594,481.5469 Q220.0469,481.4375 220.2656,481.4375 Q220.6406,481.4375 220.875,481.7031 Q221.1094,481.9531 221.1094,482.5625 L221.1094,484.0156 Q221.1094,484.625 220.875,484.8906 Q220.6406,485.1563 220.2656,485.1563 Q219.9219,485.1563 219.7188,484.9531 Q219.5156,484.7656 219.4063,484.25 Q219.3594,483.8906 219.1719,483.7031 Q218.8438,483.3281 218.2344,483.1094 Q217.625,482.8906 217,482.8906 Q216.2344,482.8906 215.5938,483.2188 Q214.9688,483.5469 214.4688,484.2969 Q213.9844,485.0469 213.9844,486.0781 L213.9844,487.1719 Q213.9844,488.4063 214.875,489.2344 Q215.7656,490.0469 217.3594,490.0469 Q218.2969,490.0469 218.9531,489.7969 Q219.3438,489.6406 219.7656,489.2031 Q220.0313,488.9375 220.1719,488.8594 Q220.3281,488.7813 220.5313,488.7813 Q220.8594,488.7813 221.1094,489.0469 Q221.375,489.2969 221.375,489.6406 Q221.375,489.9844 221.0313,490.3906 Q220.5313,490.9688 219.7344,491.2969 Q218.6563,491.75 217.3594,491.75 Q215.8438,491.75 214.6406,491.125 Q213.6563,490.625 212.9688,489.5625 Q212.2813,488.4844 212.2813,487.2031 L212.2813,486.0469 Q212.2813,484.7188 212.8906,483.5781 Q213.5156,482.4219 214.6094,481.8125 Q215.7031,481.1875 216.9375,481.1875 Q217.6719,481.1875 218.3125,481.3594 Q218.9688,481.5156 219.5156,481.875 Z " fill="#000000"/><text fill="#000000" font-family="sans-serif" font-size="14" lengthAdjust="spacing" textLength="67" x="237.25" y="491.7969">RoomDTO</text><line style="stroke:#181818;stroke-width:0.5;" x1="160.5" x2="348.5" y1="502" y2="502"/><ellipse cx="170.5" cy="516.8105" fill="none" rx="3" ry="3" style="stroke:#038048;stroke-width:1.0;"/><text fill="#000000" font-family="sans-serif" font-size="14" lengthAdjust="spacing" textLength="92" x="179.5" y="521.1074">_name : String</text><ellipse cx="170.5" cy="535.4316" fill="none" rx="3" ry="3" style="stroke:#038048;stroke-width:1.0;"/><text fill="#000000" font-family="sans-serif" font-size="14" lengthAdjust="spacing" textLength="164" x="179.5" y="539.7285">_dimensions : Dimensions</text><ellipse cx="170.5" cy="554.0527" fill="none" rx="3" ry="3" style="stroke:#038048;stroke-width:1.0;"/><text fill="#000000" font-family="sans-serif" font-size="14" lengthAdjust="spacing" textLength="63" x="179.5" y="558.3496">_floor : int</text><rect fill="none" height="6" style="stroke:#C82930;stroke-width:1.0;" width="6" x="167.5" y="569.6738"/><text fill="#000000" font-family="sans-serif" font-size="14" lengthAdjust="spacing" textLength="94" x="179.5" y="576.9707">_roomId : UUID</text><line style="stroke:#181818;stroke-width:0.5;" x1="160.5" x2="348.5" y1="584.4844" y2="584.4844"/><ellipse cx="170.5" cy="599.2949" fill="#84BE84" rx="3" ry="3" style="stroke:#038048;stroke-width:1.0;"/><text fill="#000000" font-family="sans-serif" font-size="14" lengthAdjust="spacing" textLength="158" x="179.5" y="603.5918">RoomDTO(room : Room)</text></g><!--class DeviceAssembler--><g id="elem_DeviceAssembler"><rect codeLine="31" fill="#F1F1F1" height="66.6211" id="DeviceAssembler" rx="2.5" ry="2.5" style="stroke:#181818;stroke-width:0.5;" width="441" x="521" y="273.5"/><ellipse cx="682.75" cy="289.5" fill="#ADD1B2" rx="11" ry="11" style="stroke:#181818;stroke-width:1.0;"/><path d="M685.5156,285.375 Q685.6719,285.1563 685.8594,285.0469 Q686.0469,284.9375 686.2656,284.9375 Q686.6406,284.9375 686.875,285.2031 Q687.1094,285.4531 687.1094,286.0625 L687.1094,287.5156 Q687.1094,288.125 686.875,288.3906 Q686.6406,288.6563 686.2656,288.6563 Q685.9219,288.6563 685.7188,288.4531 Q685.5156,288.2656 685.4063,287.75 Q685.3594,287.3906 685.1719,287.2031 Q684.8438,286.8281 684.2344,286.6094 Q683.625,286.3906 683,286.3906 Q682.2344,286.3906 681.5938,286.7188 Q680.9688,287.0469 680.4688,287.7969 Q679.9844,288.5469 679.9844,289.5781 L679.9844,290.6719 Q679.9844,291.9063 680.875,292.7344 Q681.7656,293.5469 683.3594,293.5469 Q684.2969,293.5469 684.9531,293.2969 Q685.3438,293.1406 685.7656,292.7031 Q686.0313,292.4375 686.1719,292.3594 Q686.3281,292.2813 686.5313,292.2813 Q686.8594,292.2813 687.1094,292.5469 Q687.375,292.7969 687.375,293.1406 Q687.375,293.4844 687.0313,293.8906 Q686.5313,294.4688 685.7344,294.7969 Q684.6563,295.25 683.3594,295.25 Q681.8438,295.25 680.6406,294.625 Q679.6563,294.125 678.9688,293.0625 Q678.2813,291.9844 678.2813,290.7031 L678.2813,289.5469 Q678.2813,288.2188 678.8906,287.0781 Q679.5156,285.9219 680.6094,285.3125 Q681.7031,284.6875 682.9375,284.6875 Q683.6719,284.6875 684.3125,284.8594 Q684.9688,285.0156 685.5156,285.375 Z " fill="#000000"/><text fill="#000000" font-family="sans-serif" font-size="14" lengthAdjust="spacing" textLength="109" x="703.25" y="295.2969">DeviceAssembler</text><line style="stroke:#181818;stroke-width:0.5;" x1="522" x2="961" y1="305.5" y2="305.5"/><line style="stroke:#181818;stroke-width:0.5;" x1="522" x2="961" y1="313.5" y2="313.5"/><ellipse cx="532" cy="328.3105" fill="#84BE84" rx="3" ry="3" style="stroke:#038048;stroke-width:1.0;"/><text fill="#000000" font-family="sans-serif" font-size="14" lengthAdjust="spacing" textLength="415" x="541" y="332.6074">&#171;static&#187; domain2DTO (devices : List&lt;Device&gt;) : List&lt;DeviceDTO&gt;</text></g><!--class DeviceDTO--><g id="elem_DeviceDTO"><rect codeLine="37" fill="#F1F1F1" height="122.4844" id="DeviceDTO" rx="2.5" ry="2.5" style="stroke:#181818;stroke-width:0.5;" width="205" x="639" y="479.5"/><ellipse cx="700.75" cy="495.5" fill="#ADD1B2" rx="11" ry="11" style="stroke:#181818;stroke-width:1.0;"/><path d="M703.5156,491.375 Q703.6719,491.1563 703.8594,491.0469 Q704.0469,490.9375 704.2656,490.9375 Q704.6406,490.9375 704.875,491.2031 Q705.1094,491.4531 705.1094,492.0625 L705.1094,493.5156 Q705.1094,494.125 704.875,494.3906 Q704.6406,494.6563 704.2656,494.6563 Q703.9219,494.6563 703.7188,494.4531 Q703.5156,494.2656 703.4063,493.75 Q703.3594,493.3906 703.1719,493.2031 Q702.8438,492.8281 702.2344,492.6094 Q701.625,492.3906 701,492.3906 Q700.2344,492.3906 699.5938,492.7188 Q698.9688,493.0469 698.4688,493.7969 Q697.9844,494.5469 697.9844,495.5781 L697.9844,496.6719 Q697.9844,497.9063 698.875,498.7344 Q699.7656,499.5469 701.3594,499.5469 Q702.2969,499.5469 702.9531,499.2969 Q703.3438,499.1406 703.7656,498.7031 Q704.0313,498.4375 704.1719,498.3594 Q704.3281,498.2813 704.5313,498.2813 Q704.8594,498.2813 705.1094,498.5469 Q705.375,498.7969 705.375,499.1406 Q705.375,499.4844 705.0313,499.8906 Q704.5313,500.4688 703.7344,500.7969 Q702.6563,501.25 701.3594,501.25 Q699.8438,501.25 698.6406,500.625 Q697.6563,500.125 696.9688,499.0625 Q696.2813,497.9844 696.2813,496.7031 L696.2813,495.5469 Q696.2813,494.2188 696.8906,493.0781 Q697.5156,491.9219 698.6094,491.3125 Q699.7031,490.6875 700.9375,490.6875 Q701.6719,490.6875 702.3125,490.8594 Q702.9688,491.0156 703.5156,491.375 Z " fill="#000000"/><text fill="#000000" font-family="sans-serif" font-size="14" lengthAdjust="spacing" textLength="73" x="721.25" y="501.2969">DeviceDTO</text><line style="stroke:#181818;stroke-width:0.5;" x1="640" x2="843" y1="511.5" y2="511.5"/><rect fill="none" height="6" style="stroke:#C82930;stroke-width:1.0;" width="6" x="647" y="523.3105"/><text fill="#000000" font-family="sans-serif" font-size="14" lengthAdjust="spacing" textLength="92" x="659" y="530.6074">_name : String</text><rect fill="none" height="6" style="stroke:#C82930;stroke-width:1.0;" width="6" x="647" y="541.9316"/><text fill="#000000" font-family="sans-serif" font-size="14" lengthAdjust="spacing" textLength="105" x="659" y="549.2285">_deviceID : UUID</text><rect fill="none" height="6" style="stroke:#C82930;stroke-width:1.0;" width="6" x="647" y="560.5527"/><text fill="#000000" font-family="sans-serif" font-size="14" lengthAdjust="spacing" textLength="141" x="659" y="567.8496">roomDTO : RoomDTO</text><line style="stroke:#181818;stroke-width:0.5;" x1="640" x2="843" y1="575.3633" y2="575.3633"/><ellipse cx="650" cy="590.1738" fill="#84BE84" rx="3" ry="3" style="stroke:#038048;stroke-width:1.0;"/><text fill="#000000" font-family="sans-serif" font-size="14" lengthAdjust="spacing" textLength="179" x="659" y="594.4707">DeviceDTO(device : Device)</text></g><!--class House--><g id="elem_House"><rect codeLine="45" fill="#F1F1F1" height="159.7266" id="House" rx="2.5" ry="2.5" style="stroke:#181818;stroke-width:0.5;" width="476" x="980.5" y="227"/><ellipse cx="1194.25" cy="243" fill="#ADD1B2" rx="11" ry="11" style="stroke:#181818;stroke-width:1.0;"/><path d="M1197.0156,238.875 Q1197.1719,238.6563 1197.3594,238.5469 Q1197.5469,238.4375 1197.7656,238.4375 Q1198.1406,238.4375 1198.375,238.7031 Q1198.6094,238.9531 1198.6094,239.5625 L1198.6094,241.0156 Q1198.6094,241.625 1198.375,241.8906 Q1198.1406,242.1563 1197.7656,242.1563 Q1197.4219,242.1563 1197.2188,241.9531 Q1197.0156,241.7656 1196.9063,241.25 Q1196.8594,240.8906 1196.6719,240.7031 Q1196.3438,240.3281 1195.7344,240.1094 Q1195.125,239.8906 1194.5,239.8906 Q1193.7344,239.8906 1193.0938,240.2188 Q1192.4688,240.5469 1191.9688,241.2969 Q1191.4844,242.0469 1191.4844,243.0781 L1191.4844,244.1719 Q1191.4844,245.4063 1192.375,246.2344 Q1193.2656,247.0469 1194.8594,247.0469 Q1195.7969,247.0469 1196.4531,246.7969 Q1196.8438,246.6406 1197.2656,246.2031 Q1197.5313,245.9375 1197.6719,245.8594 Q1197.8281,245.7813 1198.0313,245.7813 Q1198.3594,245.7813 1198.6094,246.0469 Q1198.875,246.2969 1198.875,246.6406 Q1198.875,246.9844 1198.5313,247.3906 Q1198.0313,247.9688 1197.2344,248.2969 Q1196.1563,248.75 1194.8594,248.75 Q1193.3438,248.75 1192.1406,248.125 Q1191.1563,247.625 1190.4688,246.5625 Q1189.7813,245.4844 1189.7813,244.2031 L1189.7813,243.0469 Q1189.7813,241.7188 1190.3906,240.5781 Q1191.0156,239.4219 1192.1094,238.8125 Q1193.2031,238.1875 1194.4375,238.1875 Q1195.1719,238.1875 1195.8125,238.3594 Q1196.4688,238.5156 1197.0156,238.875 Z " fill="#000000"/><text fill="#000000" font-family="sans-serif" font-size="14" lengthAdjust="spacing" textLength="40" x="1214.75" y="248.7969">House</text><line style="stroke:#181818;stroke-width:0.5;" x1="981.5" x2="1455.5" y1="259" y2="259"/><rect fill="none" height="6" style="stroke:#C82930;stroke-width:1.0;" width="6" x="988.5" y="270.8105"/><text fill="#000000" font-family="sans-serif" font-size="14" lengthAdjust="spacing" textLength="134" x="1000.5" y="278.1074">_rooms : List&lt;Room&gt;</text><rect fill="none" height="6" style="stroke:#C82930;stroke-width:1.0;" width="6" x="988.5" y="289.4316"/><text fill="#000000" font-family="sans-serif" font-size="14" lengthAdjust="spacing" textLength="123" x="1000.5" y="296.7285">_location : Location</text><rect fill="none" height="6" style="stroke:#C82930;stroke-width:1.0;" width="6" x="988.5" y="308.0527"/><text fill="#000000" font-family="sans-serif" font-size="14" lengthAdjust="spacing" textLength="219" x="1000.5" y="315.3496">_locationFactory : LocationFactory</text><rect fill="none" height="6" style="stroke:#C82930;stroke-width:1.0;" width="6" x="988.5" y="326.6738"/><text fill="#000000" font-family="sans-serif" font-size="14" lengthAdjust="spacing" textLength="185" x="1000.5" y="333.9707">_roomFactory : RoomFactory</text><line style="stroke:#181818;stroke-width:0.5;" x1="981.5" x2="1455.5" y1="341.4844" y2="341.4844"/><ellipse cx="991.5" cy="356.2949" fill="#84BE84" rx="3" ry="3" style="stroke:#038048;stroke-width:1.0;"/><text fill="#000000" font-family="sans-serif" font-size="14" lengthAdjust="spacing" textLength="450" x="1000.5" y="360.5918">House (locationFactory : LocationFactory, roomFactory : RoomFactory)</text><ellipse cx="991.5" cy="374.916" fill="#84BE84" rx="3" ry="3" style="stroke:#038048;stroke-width:1.0;"/><text fill="#000000" font-family="sans-serif" font-size="14" lengthAdjust="spacing" textLength="157" x="1000.5" y="379.2129">geRooms() : List&lt;Room&gt;</text></g><!--class Room--><g id="elem_Room"><rect codeLine="55" fill="#F1F1F1" height="196.9688" id="Room" rx="2.5" ry="2.5" style="stroke:#181818;stroke-width:0.5;" width="779" x="882" y="442"/><ellipse cx="1248.75" cy="458" fill="#ADD1B2" rx="11" ry="11" style="stroke:#181818;stroke-width:1.0;"/><path d="M1251.5156,453.875 Q1251.6719,453.6563 1251.8594,453.5469 Q1252.0469,453.4375 1252.2656,453.4375 Q1252.6406,453.4375 1252.875,453.7031 Q1253.1094,453.9531 1253.1094,454.5625 L1253.1094,456.0156 Q1253.1094,456.625 1252.875,456.8906 Q1252.6406,457.1563 1252.2656,457.1563 Q1251.9219,457.1563 1251.7188,456.9531 Q1251.5156,456.7656 1251.4063,456.25 Q1251.3594,455.8906 1251.1719,455.7031 Q1250.8438,455.3281 1250.2344,455.1094 Q1249.625,454.8906 1249,454.8906 Q1248.2344,454.8906 1247.5938,455.2188 Q1246.9688,455.5469 1246.4688,456.2969 Q1245.9844,457.0469 1245.9844,458.0781 L1245.9844,459.1719 Q1245.9844,460.4063 1246.875,461.2344 Q1247.7656,462.0469 1249.3594,462.0469 Q1250.2969,462.0469 1250.9531,461.7969 Q1251.3438,461.6406 1251.7656,461.2031 Q1252.0313,460.9375 1252.1719,460.8594 Q1252.3281,460.7813 1252.5313,460.7813 Q1252.8594,460.7813 1253.1094,461.0469 Q1253.375,461.2969 1253.375,461.6406 Q1253.375,461.9844 1253.0313,462.3906 Q1252.5313,462.9688 1251.7344,463.2969 Q1250.6563,463.75 1249.3594,463.75 Q1247.8438,463.75 1246.6406,463.125 Q1245.6563,462.625 1244.9688,461.5625 Q1244.2813,460.4844 1244.2813,459.2031 L1244.2813,458.0469 Q1244.2813,456.7188 1244.8906,455.5781 Q1245.5156,454.4219 1246.6094,453.8125 Q1247.7031,453.1875 1248.9375,453.1875 Q1249.6719,453.1875 1250.3125,453.3594 Q1250.9688,453.5156 1251.5156,453.875 Z " fill="#000000"/><text fill="#000000" font-family="sans-serif" font-size="14" lengthAdjust="spacing" textLength="37" x="1269.25" y="463.7969">Room</text><line style="stroke:#181818;stroke-width:0.5;" x1="883" x2="1660" y1="474" y2="474"/><rect fill="none" height="6" style="stroke:#C82930;stroke-width:1.0;" width="6" x="890" y="485.8105"/><text fill="#000000" font-family="sans-serif" font-size="14" lengthAdjust="spacing" textLength="92" x="902" y="493.1074">_name : String</text><rect fill="none" height="6" style="stroke:#C82930;stroke-width:1.0;" width="6" x="890" y="504.4316"/><text fill="#000000" font-family="sans-serif" font-size="14" lengthAdjust="spacing" textLength="63" x="902" y="511.7285">_floor : int</text><rect fill="none" height="6" style="stroke:#C82930;stroke-width:1.0;" width="6" x="890" y="523.0527"/><text fill="#000000" font-family="sans-serif" font-size="14" lengthAdjust="spacing" textLength="164" x="902" y="530.3496">_dimensions : Dimensions</text><rect fill="none" height="6" style="stroke:#C82930;stroke-width:1.0;" width="6" x="890" y="541.6738"/><text fill="#000000" font-family="sans-serif" font-size="14" lengthAdjust="spacing" textLength="94" x="902" y="548.9707">_roomId : UUID</text><text fill="#000000" font-family="sans-serif" font-size="14" lengthAdjust="spacing" textLength="168" x="902" y="567.5918">_ deviceList : List&lt;Device&gt;</text><rect fill="none" height="6" style="stroke:#C82930;stroke-width:1.0;" width="6" x="890" y="578.916"/><text fill="#000000" font-family="sans-serif" font-size="14" lengthAdjust="spacing" textLength="260" x="902" y="586.2129">_dimensionsFactory : DimensionsFactory</text><line style="stroke:#181818;stroke-width:0.5;" x1="883" x2="1660" y1="593.7266" y2="593.7266"/><ellipse cx="893" cy="608.5371" fill="#84BE84" rx="3" ry="3" style="stroke:#038048;stroke-width:1.0;"/><text fill="#000000" font-family="sans-serif" font-size="14" lengthAdjust="spacing" textLength="753" x="902" y="612.834">Room(name : String, floor : int, length : double, width : double, height : double, dimensionsFactory : DimensionsFactory)</text><ellipse cx="893" cy="627.1582" fill="#84BE84" rx="3" ry="3" style="stroke:#038048;stroke-width:1.0;"/><text fill="#000000" font-family="sans-serif" font-size="14" lengthAdjust="spacing" textLength="173" x="902" y="631.4551">getDevices() : List&lt;Device&gt;</text></g><!--class Device--><g id="elem_Device"><rect codeLine="68" fill="#F1F1F1" height="85.2422" id="Device" rx="2.5" ry="2.5" style="stroke:#181818;stroke-width:0.5;" width="163" x="1189" y="694"/><ellipse cx="1244.75" cy="710" fill="#ADD1B2" rx="11" ry="11" style="stroke:#181818;stroke-width:1.0;"/><path d="M1247.5156,705.875 Q1247.6719,705.6563 1247.8594,705.5469 Q1248.0469,705.4375 1248.2656,705.4375 Q1248.6406,705.4375 1248.875,705.7031 Q1249.1094,705.9531 1249.1094,706.5625 L1249.1094,708.0156 Q1249.1094,708.625 1248.875,708.8906 Q1248.6406,709.1563 1248.2656,709.1563 Q1247.9219,709.1563 1247.7188,708.9531 Q1247.5156,708.7656 1247.4063,708.25 Q1247.3594,707.8906 1247.1719,707.7031 Q1246.8438,707.3281 1246.2344,707.1094 Q1245.625,706.8906 1245,706.8906 Q1244.2344,706.8906 1243.5938,707.2188 Q1242.9688,707.5469 1242.4688,708.2969 Q1241.9844,709.0469 1241.9844,710.0781 L1241.9844,711.1719 Q1241.9844,712.4063 1242.875,713.2344 Q1243.7656,714.0469 1245.3594,714.0469 Q1246.2969,714.0469 1246.9531,713.7969 Q1247.3438,713.6406 1247.7656,713.2031 Q1248.0313,712.9375 1248.1719,712.8594 Q1248.3281,712.7813 1248.5313,712.7813 Q1248.8594,712.7813 1249.1094,713.0469 Q1249.375,713.2969 1249.375,713.6406 Q1249.375,713.9844 1249.0313,714.3906 Q1248.5313,714.9688 1247.7344,715.2969 Q1246.6563,715.75 1245.3594,715.75 Q1243.8438,715.75 1242.6406,715.125 Q1241.6563,714.625 1240.9688,713.5625 Q1240.2813,712.4844 1240.2813,711.2031 L1240.2813,710.0469 Q1240.2813,708.7188 1240.8906,707.5781 Q1241.5156,706.4219 1242.6094,705.8125 Q1243.7031,705.1875 1244.9375,705.1875 Q1245.6719,705.1875 1246.3125,705.3594 Q1246.9688,705.5156 1247.5156,705.875 Z " fill="#000000"/><text fill="#000000" font-family="sans-serif" font-size="14" lengthAdjust="spacing" textLength="43" x="1265.25" y="715.7969">Device</text><line style="stroke:#181818;stroke-width:0.5;" x1="1190" x2="1351" y1="726" y2="726"/><rect fill="none" height="6" style="stroke:#C82930;stroke-width:1.0;" width="6" x="1197" y="737.8105"/><text fill="#000000" font-family="sans-serif" font-size="14" lengthAdjust="spacing" textLength="92" x="1209" y="745.1074">_name : String</text><line style="stroke:#181818;stroke-width:0.5;" x1="1190" x2="1351" y1="752.6211" y2="752.6211"/><ellipse cx="1200" cy="767.4316" fill="#84BE84" rx="3" ry="3" style="stroke:#038048;stroke-width:1.0;"/><text fill="#000000" font-family="sans-serif" font-size="14" lengthAdjust="spacing" textLength="137" x="1209" y="771.7285">Device(name : String)</text></g><polygon fill="#181818" points="1109.8729,226.7618,1104.9591,218.2263,1105.8334,223.8151,1100.2446,224.6894,1109.8729,226.7618" style="stroke:#181818;stroke-width:1.0;"/><path d="M1034.8151,172.0106 C1059.3231,189.8881 1080.5046,205.339 1105.0255,223.2258 " fill="none" style="stroke:#181818;stroke-width:1.0;stroke-dasharray:7.0,7.0;"/><text fill="#000000" font-family="sans-serif" font-size="13" lengthAdjust="spacing" textLength="28" x="1082.5" y="205.0283">uses</text><text fill="#000000" font-family="sans-serif" font-size="13" lengthAdjust="spacing" textLength="7" x="1110.8729" y="222.7901">1</text><text fill="#000000" font-family="sans-serif" font-size="13" lengthAdjust="spacing" textLength="7" x="1026.8151" y="187.039">1</text><polygon fill="#181818" points="1425.7354,441.9602,1434.8827,438.3096,1429.2263,438.3806,1429.1553,432.7242,1425.7354,441.9602" style="stroke:#181818;stroke-width:1.0;"/><path d="M1148.8625,120.4381 C1279.0776,141.5838 1425.5968,175.9619 1465.5,227 C1509.2994,283.0215 1496.5781,323.0395 1465.5,387 C1455.6704,407.2298 1445.9025,421.2804 1429.9244,437.6647 " fill="none" style="stroke:#181818;stroke-width:1.0;stroke-dasharray:7.0,7.0;"/><text fill="#000000" font-family="sans-serif" font-size="13" lengthAdjust="spacing" textLength="28" x="1494.5" y="312.5283">uses</text><text fill="#000000" font-family="sans-serif" font-size="13" lengthAdjust="spacing" textLength="7" x="1417.7354" y="437.9885">1</text><text fill="#000000" font-family="sans-serif" font-size="13" lengthAdjust="spacing" textLength="7" x="1149.8625" y="116.4665">1</text><polygon fill="#181818" points="357.0454,273.4968,366.8333,274.5905,361.8117,271.986,364.4161,266.9644,357.0454,273.4968" style="stroke:#181818;stroke-width:1.0;"/><path d="M704.1335,163.4822 C586.9954,200.6108 454.691,242.5466 362.7649,271.6839 " fill="none" style="stroke:#181818;stroke-width:1.0;stroke-dasharray:7.0,7.0;"/><text fill="#000000" font-family="sans-serif" font-size="13" lengthAdjust="spacing" textLength="28" x="612.5" y="205.0283">uses</text><text fill="#000000" font-family="sans-serif" font-size="13" lengthAdjust="spacing" textLength="7" x="349.0454" y="269.5251">1</text><text fill="#000000" font-family="sans-serif" font-size="13" lengthAdjust="spacing" textLength="7" x="696.1335" y="159.5106">1</text><polygon fill="#181818" points="769.9093,273.291,778.8309,269.119,773.188,269.516,772.791,263.8731,769.9093,273.291" style="stroke:#181818;stroke-width:1.0;"/><path d="M857.8757,172.0106 C827.438,207.0552 797.2322,241.8326 773.8437,268.761 " fill="none" style="stroke:#181818;stroke-width:1.0;stroke-dasharray:7.0,7.0;"/><text fill="#000000" font-family="sans-serif" font-size="13" lengthAdjust="spacing" textLength="28" x="841.5" y="205.0283">uses</text><text fill="#000000" font-family="sans-serif" font-size="13" lengthAdjust="spacing" textLength="7" x="761.9093" y="269.3193">1</text><text fill="#000000" font-family="sans-serif" font-size="13" lengthAdjust="spacing" textLength="7" x="849.8757" y="187.039">1</text><polygon fill="#181818" points="254.5,469.8315,258.5,460.8315,254.5,464.8315,250.5,460.8315,254.5,469.8315" style="stroke:#181818;stroke-width:1.0;"/><path d="M254.5,340.6773 C254.5,374.0795 254.5,420.9886 254.5,463.8315 " fill="none" style="stroke:#181818;stroke-width:1.0;stroke-dasharray:7.0,7.0;"/><text fill="#000000" font-family="sans-serif" font-size="13" lengthAdjust="spacing" textLength="43" x="255.5" y="420.0283">creates</text><text fill="#000000" font-family="sans-serif" font-size="13" lengthAdjust="spacing" textLength="5" x="248.5" y="465.8598">*</text><text fill="#000000" font-family="sans-serif" font-size="13" lengthAdjust="spacing" textLength="7" x="246.5" y="355.7056">1</text><polygon fill="#181818" points="741.5,479.2427,745.5,470.2427,741.5,474.2427,737.5,470.2427,741.5,479.2427" style="stroke:#181818;stroke-width:1.0;"/><path d="M741.5,340.6773 C741.5,376.5722 741.5,428.9941 741.5,473.2427 " fill="none" style="stroke:#181818;stroke-width:1.0;stroke-dasharray:7.0,7.0;"/><text fill="#000000" font-family="sans-serif" font-size="13" lengthAdjust="spacing" textLength="43" x="742.5" y="420.0283">creates</text><text fill="#000000" font-family="sans-serif" font-size="13" lengthAdjust="spacing" textLength="5" x="735.5" y="475.271">*</text><text fill="#000000" font-family="sans-serif" font-size="13" lengthAdjust="spacing" textLength="7" x="733.5" y="355.7056">1</text><polygon fill="#181818" points="1224.2666,441.8306,1225.4084,432.0481,1222.7793,437.0569,1217.7705,434.4278,1224.2666,441.8306" style="stroke:#181818;stroke-width:1.0;"/><path d="M1214.8102,387.1138 C1215.4825,399.5539 1216.9122,412.1966 1219.5,424 C1220.7951,429.9071 1220.6272,430.1495 1222.4819,436.1022 " fill="none" style="stroke:#181818;stroke-width:1.0;stroke-dasharray:7.0,7.0;"/><text fill="#000000" font-family="sans-serif" font-size="13" lengthAdjust="spacing" textLength="28" x="1220.5" y="420.0283">uses</text><text fill="#000000" font-family="sans-serif" font-size="13" lengthAdjust="spacing" textLength="5" x="1218.2666" y="437.8589">*</text><text fill="#000000" font-family="sans-serif" font-size="13" lengthAdjust="spacing" textLength="7" x="1206.8102" y="402.1421">1</text><polygon fill="#181818" points="1250.6007,693.9041,1251.3467,684.0836,1248.9219,689.1944,1243.8111,686.7696,1250.6007,693.9041" style="stroke:#181818;stroke-width:1.0;"/><path d="M1243.5743,639.2389 C1242.6938,651.619 1243.1035,664.1098 1245.5,676 C1246.6954,681.9312 1246.4844,682.356 1248.5862,688.2524 " fill="none" style="stroke:#181818;stroke-width:1.0;stroke-dasharray:7.0,7.0;"/><text fill="#000000" font-family="sans-serif" font-size="13" lengthAdjust="spacing" textLength="28" x="1246.5" y="672.0283">uses</text><text fill="#000000" font-family="sans-serif" font-size="13" lengthAdjust="spacing" textLength="5" x="1244.6007" y="689.9324">*</text><text fill="#000000" font-family="sans-serif" font-size="13" lengthAdjust="spacing" textLength="7" x="1235.5743" y="654.2672">1</text><polygon fill="#181818" points="1244.8376,387.1355,1242.5994,393.9905,1248.0662,398.693,1250.3044,391.838,1244.8376,387.1355" style="stroke:#181818;stroke-width:1.0;"/><path d="M1248.0662,398.693 C1249.747,404.7095 1248.0961,399.1553 1249.5,405 C1252.3459,416.8484 1254.9372,429.3729 1257.261,441.822 " fill="none" style="stroke:#181818;stroke-width:1.0;"/><text fill="#000000" font-family="sans-serif" font-size="13" lengthAdjust="spacing" textLength="21" x="1255.5" y="420.0283">has</text><text fill="#000000" font-family="sans-serif" font-size="13" lengthAdjust="spacing" textLength="16" x="1258.261" y="437.8503">0.*</text><text fill="#000000" font-family="sans-serif" font-size="13" lengthAdjust="spacing" textLength="7" x="1245.8376" y="402.1638">1</text><polygon fill="#181818" points="1276.0475,639.2131,1272.0928,645.243,1276.138,651.2127,1280.0926,645.1827,1276.0475,639.2131" style="stroke:#181818;stroke-width:1.0;"/><path d="M1276.138,651.2127 C1276.2314,663.5972 1275.9993,664.0963 1275.5,676 C1275.2567,681.8 1274.8806,687.9097 1274.4415,693.916 " fill="none" style="stroke:#181818;stroke-width:1.0;"/><text fill="#000000" font-family="sans-serif" font-size="13" lengthAdjust="spacing" textLength="21" x="1277.5" y="672.0283">has</text><text fill="#000000" font-family="sans-serif" font-size="13" lengthAdjust="spacing" textLength="16" x="1275.4415" y="689.9443">0.*</text><text fill="#000000" font-family="sans-serif" font-size="13" lengthAdjust="spacing" textLength="7" x="1268.0475" y="654.2414">1</text><!--SRC=[bLHDZzCm4BtxLmozaEucBN2igaWLqK8b4DB2SgsyYKai9NQn7T2gsl_EEBRpjUsoUsdjcJVFRvx7UNDKj6merFH1jWPqmmmLb92tbJ57lLclZpKLfctgLIwRjMQ_MoPobXISbeesX92yfbh39sOozeVdJDyesTnAsNoKmYXPrqoTI0A7IhQQmGO-styRK8ZHsOzlEr5OkBOvggklzBYrUyp4O1Sf8TVFqaSJwYLoS_sJrhn0Y3QgpOrKErMs3HD6py2uk9UoPbJW8IKpdPB8XhzmROAGr2Ld2Y1IBere3-mB7RGhVGmMMSnEQzRSTvuWvtQh3JKyJrCeP4Ev-80LQ81ZrcCLgQK-uyqZ6TDZueIy1q4Rs-DtexWeRQ3WsBtcQ0Y6itvZKxzgAHL6kJ3XMlO5xk_kzXcAzBIT8j_eSkZ9zJdfwcnJ41NElAb1wGN39knTKycyAGmuodqMn2Rmv49GJq_Y9LW3kiMeZMuOuDIFvSHv6wrbZZr9OHD-EGxVK3ja3wEiZmJ60N0xx52SEpZwBqyC5rcMvBfaP-PsDdddBPnT_gKnUJ8N1t1csjDcLphb6IHdyvWVhcWYAeQHf1Xg9afJuQwGBGvO37zvCTbNZ9UL6GLUT7JdMNZFqNBUmNm2ptWNvcgglXifGfxxMi7Y_MArIl7NJTq6y4U_jCGcNb_Hly_NbSuUjoyc4yO0lrg49xU1N35g43chjr3msFvH3cZYte87GM3qftOVt77ECGHDG-rLai3YtSfNuyrKT5GzPBFmCR1vGlu1]--></g></svg>