<?xml version="1.0" encoding="us-ascii" standalone="no"?><svg xmlns="http://www.w3.org/2000/svg" xmlns:xlink="http://www.w3.org/1999/xlink" contentStyleType="text/css" height="851.3097px" preserveAspectRatio="none" style="width:618px;height:851px;background:#FFFFFF;" version="1.1" viewBox="0 0 618 851" width="618.1818px" zoomAndPan="magnify"><defs/><g><!--class House--><g id="elem_House"><rect fill="#F1F1F1" height="62.8659" id="House" rx="3.2743" ry="3.2743" style="stroke:#181818;stroke-width:0.6548536209553159;" width="94.2989" x="18.3359" y="175.5008"/><ellipse cx="37.9815" cy="196.4561" fill="#ADD1B2" rx="14.4068" ry="14.4068" style="stroke:#181818;stroke-width:1.3097072419106317;"/><path d="M41.6037,191.0535 Q41.8083,190.767 42.0539,190.6238 Q42.2995,190.4805 42.5859,190.4805 Q43.0771,190.4805 43.3841,190.8284 Q43.691,191.1559 43.691,191.954 L43.691,193.8571 Q43.691,194.6552 43.3841,195.0031 Q43.0771,195.351 42.5859,195.351 Q42.1357,195.351 41.8697,195.085 Q41.6037,194.8394 41.4604,194.1641 Q41.399,193.6934 41.1535,193.4479 Q40.7237,192.9567 39.9256,192.6702 Q39.1275,192.3837 38.3089,192.3837 Q37.3062,192.3837 36.4672,192.8135 Q35.6486,193.2432 34.9937,194.2255 Q34.3594,195.2078 34.3594,196.5584 L34.3594,197.9909 Q34.3594,199.6076 35.5258,200.6922 Q36.6923,201.7563 38.7796,201.7563 Q40.0075,201.7563 40.867,201.4289 Q41.3786,201.2242 41.9311,200.6512 Q42.279,200.3034 42.4632,200.201 Q42.6678,200.0987 42.9338,200.0987 Q43.3636,200.0987 43.691,200.4466 Q44.0389,200.774 44.0389,201.2242 Q44.0389,201.6745 43.5887,202.2065 Q42.9338,202.9637 41.8902,203.3934 Q40.4781,203.9869 38.7796,203.9869 Q36.7946,203.9869 35.2188,203.1683 Q33.9296,202.5135 33.0292,201.1219 Q32.1288,199.7099 32.1288,198.0318 L32.1288,196.5175 Q32.1288,194.778 32.9269,193.2841 Q33.7454,191.7698 35.1779,190.9717 Q36.6104,190.1531 38.2271,190.1531 Q39.1889,190.1531 40.0279,190.3782 Q40.8874,190.5829 41.6037,191.0535 Z " fill="#000000"/><text fill="#000000" font-family="sans-serif" font-size="18.3359" lengthAdjust="spacing" textLength="52.3883" x="56.3174" y="204.0483">House</text><line style="stroke:#181818;stroke-width:0.6548536209553159;" x1="19.6456" x2="111.3251" y1="217.4114" y2="217.4114"/><line style="stroke:#181818;stroke-width:0.6548536209553159;" x1="19.6456" x2="111.3251" y1="227.8891" y2="227.8891"/></g><!--class Room--><g id="elem_Room"><rect fill="#F1F1F1" height="62.8659" id="Room" rx="3.2743" ry="3.2743" style="stroke:#181818;stroke-width:0.6548536209553159;" width="90.3698" x="191.8721" y="341.8336"/><ellipse cx="211.5177" cy="362.7889" fill="#ADD1B2" rx="14.4068" ry="14.4068" style="stroke:#181818;stroke-width:1.3097072419106317;"/><path d="M215.1399,357.3864 Q215.3445,357.0999 215.5901,356.9566 Q215.8357,356.8134 216.1222,356.8134 Q216.6133,356.8134 216.9203,357.1613 Q217.2272,357.4887 217.2272,358.2868 L217.2272,360.19 Q217.2272,360.9881 216.9203,361.3359 Q216.6133,361.6838 216.1222,361.6838 Q215.6719,361.6838 215.4059,361.4178 Q215.1399,361.1722 214.9966,360.4969 Q214.9352,360.0262 214.6897,359.7807 Q214.2599,359.2895 213.4618,359.003 Q212.6637,358.7165 211.8451,358.7165 Q210.8424,358.7165 210.0034,359.1463 Q209.1848,359.576 208.5299,360.5583 Q207.8956,361.5406 207.8956,362.8912 L207.8956,364.3237 Q207.8956,365.9404 209.062,367.025 Q210.2285,368.0891 212.3158,368.0891 Q213.5437,368.0891 214.4032,367.7617 Q214.9148,367.5571 215.4673,366.9841 Q215.8152,366.6362 215.9994,366.5339 Q216.204,366.4315 216.4701,366.4315 Q216.8998,366.4315 217.2272,366.7794 Q217.5751,367.1068 217.5751,367.5571 Q217.5751,368.0073 217.1249,368.5393 Q216.4701,369.2965 215.4264,369.7263 Q214.0143,370.3197 212.3158,370.3197 Q210.3308,370.3197 208.7551,369.5012 Q207.4658,368.8463 206.5654,367.4547 Q205.665,366.0427 205.665,364.3646 L205.665,362.8503 Q205.665,361.1108 206.4631,359.617 Q207.2816,358.1026 208.7141,357.3045 Q210.1466,356.4859 211.7633,356.4859 Q212.7251,356.4859 213.5641,356.711 Q214.4236,356.9157 215.1399,357.3864 Z " fill="#000000"/><text fill="#000000" font-family="sans-serif" font-size="18.3359" lengthAdjust="spacing" textLength="48.4592" x="229.8536" y="370.3811">Room</text><line style="stroke:#181818;stroke-width:0.6548536209553159;" x1="193.1818" x2="280.9322" y1="383.7442" y2="383.7442"/><line style="stroke:#181818;stroke-width:0.6548536209553159;" x1="193.1818" x2="280.9322" y1="394.2219" y2="394.2219"/></g><!--class Location--><g id="elem_Location"><rect fill="#F1F1F1" height="62.8659" id="Location" rx="3.2743" ry="3.2743" style="stroke:#181818;stroke-width:0.6548536209553159;" width="112.6348" x="9.168" y="341.8336"/><ellipse cx="28.8136" cy="362.7889" fill="#ADD1B2" rx="14.4068" ry="14.4068" style="stroke:#181818;stroke-width:1.3097072419106317;"/><path d="M32.4357,357.3864 Q32.6404,357.0999 32.8859,356.9566 Q33.1315,356.8134 33.418,356.8134 Q33.9091,356.8134 34.2161,357.1613 Q34.5231,357.4887 34.5231,358.2868 L34.5231,360.19 Q34.5231,360.9881 34.2161,361.3359 Q33.9091,361.6838 33.418,361.6838 Q32.9678,361.6838 32.7018,361.4178 Q32.4357,361.1722 32.2925,360.4969 Q32.2311,360.0262 31.9855,359.7807 Q31.5558,359.2895 30.7577,359.003 Q29.9596,358.7165 29.141,358.7165 Q28.1382,358.7165 27.2992,359.1463 Q26.4806,359.576 25.8258,360.5583 Q25.1914,361.5406 25.1914,362.8912 L25.1914,364.3237 Q25.1914,365.9404 26.3579,367.025 Q27.5243,368.0891 29.6117,368.0891 Q30.8395,368.0891 31.699,367.7617 Q32.2106,367.5571 32.7631,366.9841 Q33.111,366.6362 33.2952,366.5339 Q33.4999,366.4315 33.7659,366.4315 Q34.1956,366.4315 34.5231,366.7794 Q34.871,367.1068 34.871,367.5571 Q34.871,368.0073 34.4207,368.5393 Q33.7659,369.2965 32.7222,369.7263 Q31.3102,370.3197 29.6117,370.3197 Q27.6266,370.3197 26.0509,369.5012 Q24.7617,368.8463 23.8612,367.4547 Q22.9608,366.0427 22.9608,364.3646 L22.9608,362.8503 Q22.9608,361.1108 23.7589,359.617 Q24.5775,358.1026 26.01,357.3045 Q27.4425,356.4859 29.0591,356.4859 Q30.0209,356.4859 30.86,356.711 Q31.7195,356.9157 32.4357,357.3864 Z " fill="#000000"/><text fill="#000000" font-family="sans-serif" font-size="18.3359" lengthAdjust="spacing" textLength="70.7242" x="47.1495" y="370.3811">Location</text><line style="stroke:#181818;stroke-width:0.6548536209553159;" x1="10.4777" x2="120.4931" y1="383.7442" y2="383.7442"/><line style="stroke:#181818;stroke-width:0.6548536209553159;" x1="10.4777" x2="120.4931" y1="394.2219" y2="394.2219"/></g><!--class User--><g id="elem_User"><rect fill="#F1F1F1" height="62.8659" id="User" rx="3.2743" ry="3.2743" style="stroke:#181818;stroke-width:0.6548536209553159;" width="79.8921" x="271.7643" y="9.168"/><ellipse cx="291.4099" cy="30.1233" fill="#ADD1B2" rx="14.4068" ry="14.4068" style="stroke:#181818;stroke-width:1.3097072419106317;"/><path d="M295.032,24.7207 Q295.2367,24.4342 295.4822,24.291 Q295.7278,24.1477 296.0143,24.1477 Q296.5054,24.1477 296.8124,24.4956 Q297.1194,24.823 297.1194,25.6211 L297.1194,27.5243 Q297.1194,28.3224 296.8124,28.6703 Q296.5054,29.0182 296.0143,29.0182 Q295.5641,29.0182 295.2981,28.7522 Q295.032,28.5066 294.8888,27.8313 Q294.8274,27.3606 294.5818,27.115 Q294.1521,26.6239 293.354,26.3374 Q292.5559,26.0509 291.7373,26.0509 Q290.7345,26.0509 289.8955,26.4806 Q289.0769,26.9104 288.4221,27.8927 Q287.7877,28.875 287.7877,30.2256 L287.7877,31.6581 Q287.7877,33.2747 288.9542,34.3594 Q290.1206,35.4235 292.208,35.4235 Q293.4358,35.4235 294.2953,35.0961 Q294.8069,34.8914 295.3594,34.3184 Q295.7073,33.9705 295.8915,33.8682 Q296.0962,33.7659 296.3622,33.7659 Q296.7919,33.7659 297.1194,34.1138 Q297.4673,34.4412 297.4673,34.8914 Q297.4673,35.3416 297.017,35.8737 Q296.3622,36.6309 295.3185,37.0606 Q293.9065,37.6541 292.208,37.6541 Q290.2229,37.6541 288.6472,36.8355 Q287.358,36.1807 286.4575,34.7891 Q285.5571,33.3771 285.5571,31.699 L285.5571,30.1847 Q285.5571,28.4452 286.3552,26.9513 Q287.1738,25.437 288.6063,24.6389 Q290.0388,23.8203 291.6554,23.8203 Q292.6172,23.8203 293.4563,24.0454 Q294.3158,24.25 295.032,24.7207 Z " fill="#000000"/><text fill="#000000" font-family="sans-serif" font-size="18.3359" lengthAdjust="spacing" textLength="37.9815" x="309.7458" y="37.7155">User</text><line style="stroke:#181818;stroke-width:0.6548536209553159;" x1="273.074" x2="350.3467" y1="51.0786" y2="51.0786"/><line style="stroke:#181818;stroke-width:0.6548536209553159;" x1="273.074" x2="350.3467" y1="61.5562" y2="61.5562"/></g><!--class Sensor--><g id="elem_Sensor"><rect fill="#F1F1F1" height="62.8659" id="Sensor" rx="3.2743" ry="3.2743" style="stroke:#181818;stroke-width:0.6548536209553159;" width="100.8475" x="445.9553" y="779.2758"/><ellipse cx="465.6009" cy="800.2311" fill="#ADD1B2" rx="14.4068" ry="14.4068" style="stroke:#181818;stroke-width:1.3097072419106317;"/><path d="M469.2231,794.8286 Q469.4277,794.5421 469.6733,794.3988 Q469.9189,794.2556 470.2054,794.2556 Q470.6965,794.2556 471.0035,794.6035 Q471.3104,794.9309 471.3104,795.729 L471.3104,797.6322 Q471.3104,798.4303 471.0035,798.7782 Q470.6965,799.1261 470.2054,799.1261 Q469.7552,799.1261 469.4891,798.86 Q469.2231,798.6145 469.0798,797.9391 Q469.0184,797.4685 468.7729,797.2229 Q468.3431,796.7318 467.545,796.4453 Q466.7469,796.1588 465.9284,796.1588 Q464.9256,796.1588 464.0866,796.5885 Q463.268,797.0182 462.6132,798.0005 Q461.9788,798.9828 461.9788,800.3334 L461.9788,801.7659 Q461.9788,803.3826 463.1452,804.4672 Q464.3117,805.5313 466.399,805.5313 Q467.6269,805.5313 468.4864,805.2039 Q468.998,804.9993 469.5505,804.4263 Q469.8984,804.0784 470.0826,803.9761 Q470.2872,803.8737 470.5533,803.8737 Q470.983,803.8737 471.3104,804.2216 Q471.6583,804.5491 471.6583,804.9993 Q471.6583,805.4495 471.2081,805.9816 Q470.5533,806.7387 469.5096,807.1685 Q468.0976,807.7619 466.399,807.7619 Q464.414,807.7619 462.8383,806.9434 Q461.549,806.2885 460.6486,804.897 Q459.7482,803.4849 459.7482,801.8069 L459.7482,800.2925 Q459.7482,798.5531 460.5463,797.0592 Q461.3648,795.5448 462.7973,794.7467 Q464.2298,793.9282 465.8465,793.9282 Q466.8083,793.9282 467.6473,794.1533 Q468.5068,794.3579 469.2231,794.8286 Z " fill="#000000"/><text fill="#000000" font-family="sans-serif" font-size="18.3359" lengthAdjust="spacing" textLength="58.9368" x="483.9368" y="807.8233">Sensor</text><line style="stroke:#181818;stroke-width:0.6548536209553159;" x1="447.265" x2="545.4931" y1="821.1864" y2="821.1864"/><line style="stroke:#181818;stroke-width:0.6548536209553159;" x1="447.265" x2="545.4931" y1="831.6641" y2="831.6641"/></g><!--class Device--><g id="elem_Device"><rect fill="#F1F1F1" height="62.8659" id="Device" rx="3.2743" ry="3.2743" style="stroke:#181818;stroke-width:0.6548536209553159;" width="98.228" x="311.0555" y="612.943"/><ellipse cx="330.7011" cy="633.8983" fill="#ADD1B2" rx="14.4068" ry="14.4068" style="stroke:#181818;stroke-width:1.3097072419106317;"/><path d="M334.3232,628.4958 Q334.5279,628.2093 334.7734,628.066 Q335.019,627.9228 335.3055,627.9228 Q335.7967,627.9228 336.1036,628.2707 Q336.4106,628.5981 336.4106,629.3962 L336.4106,631.2994 Q336.4106,632.0975 336.1036,632.4453 Q335.7967,632.7932 335.3055,632.7932 Q334.8553,632.7932 334.5893,632.5272 Q334.3232,632.2816 334.18,631.6063 Q334.1186,631.1356 333.873,630.8901 Q333.4433,630.3989 332.6452,630.1124 Q331.8471,629.8259 331.0285,629.8259 Q330.0258,629.8259 329.1867,630.2557 Q328.3682,630.6854 327.7133,631.6677 Q327.0789,632.65 327.0789,634.0006 L327.0789,635.4331 Q327.0789,637.0498 328.2454,638.1344 Q329.4118,639.1985 331.4992,639.1985 Q332.727,639.1985 333.5865,638.8711 Q334.0981,638.6665 334.6507,638.0935 Q334.9986,637.7456 335.1827,637.6432 Q335.3874,637.5409 335.6534,637.5409 Q336.0832,637.5409 336.4106,637.8888 Q336.7585,638.2162 336.7585,638.6665 Q336.7585,639.1167 336.3083,639.6487 Q335.6534,640.4059 334.6097,640.8357 Q333.1977,641.4291 331.4992,641.4291 Q329.5142,641.4291 327.9384,640.6106 Q326.6492,639.9557 325.7487,638.5641 Q324.8483,637.1521 324.8483,635.474 L324.8483,633.9597 Q324.8483,632.2202 325.6464,630.7264 Q326.465,629.212 327.8975,628.4139 Q329.33,627.5953 330.9466,627.5953 Q331.9085,627.5953 332.7475,627.8204 Q333.607,628.0251 334.3232,628.4958 Z " fill="#000000"/><text fill="#000000" font-family="sans-serif" font-size="18.3359" lengthAdjust="spacing" textLength="56.3174" x="349.037" y="641.4905">Device</text><line style="stroke:#181818;stroke-width:0.6548536209553159;" x1="312.3652" x2="407.9738" y1="654.8536" y2="654.8536"/><line style="stroke:#181818;stroke-width:0.6548536209553159;" x1="312.3652" x2="407.9738" y1="665.3313" y2="665.3313"/></g><!--class Actuator--><g id="elem_Actuator"><rect fill="#F1F1F1" height="62.8659" id="Actuator" rx="3.2743" ry="3.2743" style="stroke:#181818;stroke-width:0.6548536209553159;" width="111.3251" x="288.7904" y="779.2758"/><ellipse cx="308.4361" cy="800.2311" fill="#ADD1B2" rx="14.4068" ry="14.4068" style="stroke:#181818;stroke-width:1.3097072419106317;"/><path d="M312.0582,794.8286 Q312.2629,794.5421 312.5084,794.3988 Q312.754,794.2556 313.0405,794.2556 Q313.5316,794.2556 313.8386,794.6035 Q314.1456,794.9309 314.1456,795.729 L314.1456,797.6322 Q314.1456,798.4303 313.8386,798.7782 Q313.5316,799.1261 313.0405,799.1261 Q312.5903,799.1261 312.3242,798.86 Q312.0582,798.6145 311.915,797.9391 Q311.8536,797.4685 311.608,797.2229 Q311.1783,796.7318 310.3802,796.4453 Q309.582,796.1588 308.7635,796.1588 Q307.7607,796.1588 306.9217,796.5885 Q306.1031,797.0182 305.4483,798.0005 Q304.8139,798.9828 304.8139,800.3334 L304.8139,801.7659 Q304.8139,803.3826 305.9804,804.4672 Q307.1468,805.5313 309.2342,805.5313 Q310.462,805.5313 311.3215,805.2039 Q311.8331,804.9993 312.3856,804.4263 Q312.7335,804.0784 312.9177,803.9761 Q313.1224,803.8737 313.3884,803.8737 Q313.8181,803.8737 314.1456,804.2216 Q314.4935,804.5491 314.4935,804.9993 Q314.4935,805.4495 314.0432,805.9816 Q313.3884,806.7387 312.3447,807.1685 Q310.9327,807.7619 309.2342,807.7619 Q307.2491,807.7619 305.6734,806.9434 Q304.3841,806.2885 303.4837,804.897 Q302.5833,803.4849 302.5833,801.8069 L302.5833,800.2925 Q302.5833,798.5531 303.3814,797.0592 Q304.2,795.5448 305.6325,794.7467 Q307.065,793.9282 308.6816,793.9282 Q309.6434,793.9282 310.4825,794.1533 Q311.342,794.3579 312.0582,794.8286 Z " fill="#000000"/><text fill="#000000" font-family="sans-serif" font-size="18.3359" lengthAdjust="spacing" textLength="69.4145" x="326.772" y="807.8233">Actuator</text><line style="stroke:#181818;stroke-width:0.6548536209553159;" x1="290.1002" x2="398.8059" y1="821.1864" y2="821.1864"/><line style="stroke:#181818;stroke-width:0.6548536209553159;" x1="290.1002" x2="398.8059" y1="831.6641" y2="831.6641"/></g><!--link House to Room--><g id="link_House_Room"><path codeLine="4" d="M97.3505,238.6549 C128.168,268.0578 168.9113,306.9408 199.6763,336.2913 " fill="none" id="House-to-Room" style="stroke:#181818;stroke-width:1.3097072419106317;"/><polygon fill="#181818" points="205.3621,341.7157,200.4497,329.7886,200.6239,337.1954,193.2172,337.3697,205.3621,341.7157" style="stroke:#181818;stroke-width:1.3097072419106317;"/><text fill="#000000" font-family="sans-serif" font-size="17.0262" lengthAdjust="spacing" textLength="27.5039" x="163.7134" y="297.3406">has</text><text fill="#000000" font-family="sans-serif" font-size="17.0262" lengthAdjust="spacing" textLength="9.168" x="94.4914" y="266.9818">1</text><text fill="#000000" font-family="sans-serif" font-size="17.0262" lengthAdjust="spacing" textLength="6.5485" x="189.8527" y="326.9349">*</text></g><!--link House to Location--><g id="link_House_Location"><path codeLine="5" d="M65.4854,238.6549 C65.4854,268.0578 65.4854,304.5069 65.4854,333.8575 " fill="none" id="House-to-Location" style="stroke:#181818;stroke-width:1.3097072419106317;"/><polygon fill="#181818" points="65.4854,341.7157,70.7242,329.9284,65.4854,335.1672,60.2465,329.9284,65.4854,341.7157" style="stroke:#181818;stroke-width:1.3097072419106317;"/><text fill="#000000" font-family="sans-serif" font-size="17.0262" lengthAdjust="spacing" textLength="27.5039" x="66.7951" y="297.3406">has</text></g><!--link User to House--><g id="link_User_House"><path codeLine="8" d="M271.6726,46.1017 C202.7951,54.2481 66.5069,74.6664 37.9815,111.3251 C23.6402,129.7658 28.6285,148.6483 39.9837,168.569 " fill="none" id="User-to-House" style="stroke:#181818;stroke-width:1.3097072419106317;stroke-dasharray:7.0,7.0;"/><polygon fill="#181818" points="43.8752,175.396,42.5892,162.5611,40.6323,169.7068,33.4866,167.7498,43.8752,175.396" style="stroke:#181818;stroke-width:1.3097072419106317;"/><text fill="#000000" font-family="sans-serif" font-size="17.0262" lengthAdjust="spacing" textLength="162.4037" x="39.2912" y="131.0078">configures (as admin)</text><text fill="#000000" font-family="sans-serif" font-size="17.0262" lengthAdjust="spacing" textLength="6.5485" x="254.5667" y="40.8834">*</text><text fill="#000000" font-family="sans-serif" font-size="17.0262" lengthAdjust="spacing" textLength="9.168" x="27.995" y="160.6185">1</text></g><!--link User to Room--><g id="link_User_Room"><path codeLine="10" d="M301.7042,72.4399 C293.1387,99.3544 280.8667,139.7458 272.4191,175.5008 C258.6279,233.8482 248.5044,295.2839 242.6238,334.0251 " fill="none" id="User-to-Room" style="stroke:#181818;stroke-width:1.3097072419106317;stroke-dasharray:7.0,7.0;"/><polygon fill="#181818" points="241.4445,341.7943,248.393,330.9266,242.4273,335.3199,238.034,329.3542,241.4445,341.7943" style="stroke:#181818;stroke-width:1.3097072419106317;"/><text fill="#000000" font-family="sans-serif" font-size="17.0262" lengthAdjust="spacing" textLength="78.5824" x="273.7288" y="214.1742">adds/edits</text><text fill="#000000" font-family="sans-serif" font-size="17.0262" lengthAdjust="spacing" textLength="6.5485" x="292.0845" y="100.7941">*</text><text fill="#000000" font-family="sans-serif" font-size="17.0262" lengthAdjust="spacing" textLength="6.5485" x="235.1813" y="327.0336">*</text></g><!--link User to Sensor--><g id="link_User_Sensor"><path codeLine="11" d="M351.7743,56.6186 C406.0878,79.4468 496.379,128.9276 496.379,205.624 C496.379,205.624 496.379,205.624 496.379,645.6857 C496.379,692.2982 496.379,738.5177 496.379,771.3652 " fill="none" id="User-to-Sensor" style="stroke:#181818;stroke-width:1.3097072419106317;stroke-dasharray:7.0,7.0;"/><polygon fill="#181818" points="496.379,779.2234,501.6179,767.4361,496.379,772.6749,491.1402,767.4361,496.379,779.2234" style="stroke:#181818;stroke-width:1.3097072419106317;"/><text fill="#000000" font-family="sans-serif" font-size="17.0262" lengthAdjust="spacing" textLength="110.0154" x="497.6888" y="463.6735">defines type of</text><text fill="#000000" font-family="sans-serif" font-size="17.0262" lengthAdjust="spacing" textLength="6.5485" x="362.338" y="53.9638">*</text><text fill="#000000" font-family="sans-serif" font-size="17.0262" lengthAdjust="spacing" textLength="6.5485" x="488.9915" y="764.4594">*</text></g><!--link User to Device--><g id="link_User_Device"><path codeLine="12" d="M335.7435,72.5578 C357.9954,104.0693 387.6733,155.4884 387.6733,205.624 C387.6733,205.624 387.6733,205.624 387.6733,521.9183 C387.6733,553.4037 381.1035,580.8954 373.4155,605.1381 " fill="none" id="User-to-Device" style="stroke:#181818;stroke-width:1.3097072419106317;stroke-dasharray:7.0,7.0;"/><polygon fill="#181818" points="371.0401,612.6287,379.597,602.9764,373.0196,606.3865,369.6095,599.8091,371.0401,612.6287" style="stroke:#181818;stroke-width:1.3097072419106317;"/><text fill="#000000" font-family="sans-serif" font-size="17.0262" lengthAdjust="spacing" textLength="36.6718" x="388.9831" y="380.507">adds</text><text fill="#000000" font-family="sans-serif" font-size="17.0262" lengthAdjust="spacing" textLength="6.5485" x="333.9954" y="100.9393">*</text><text fill="#000000" font-family="sans-serif" font-size="17.0262" lengthAdjust="spacing" textLength="6.5485" x="366.3431" y="598.3311">*</text></g><!--link Room to Device--><g id="link_Room_Device"><path codeLine="13" d="M250.9399,404.8567 C274.6456,456.5508 319.3834,554.1322 343.0629,605.7609 " fill="none" id="Room-to-Device" style="stroke:#181818;stroke-width:1.3097072419106317;"/><polygon fill="#181818" points="346.339,612.9037,346.1868,600.0055,343.6089,606.9514,336.6631,604.3735,346.339,612.9037" style="stroke:#181818;stroke-width:1.3097072419106317;"/><text fill="#000000" font-family="sans-serif" font-size="17.0262" lengthAdjust="spacing" textLength="27.5039" x="309.0909" y="527.8491">has</text><text fill="#000000" font-family="sans-serif" font-size="17.0262" lengthAdjust="spacing" textLength="9.168" x="244.0386" y="433.6898">1</text><text fill="#000000" font-family="sans-serif" font-size="17.0262" lengthAdjust="spacing" textLength="6.5485" x="335.4073" y="598.143">*</text></g><!--link Device to Sensor--><g id="link_Device_Sensor"><path codeLine="14" d="M382.1726,675.9792 C396.0948,694.7473 414.7057,719.1733 432.2034,739.9846 C443.2966,753.1733 450.701,761.4971 461.9383,773.4679 " fill="none" id="Device-to-Sensor" style="stroke:#181818;stroke-width:1.3097072419106317;"/><polygon fill="#181818" points="467.3166,779.1972,463.0687,767.0176,462.8347,774.4228,455.4296,774.1887,467.3166,779.1972" style="stroke:#181818;stroke-width:1.3097072419106317;"/><text fill="#000000" font-family="sans-serif" font-size="17.0262" lengthAdjust="spacing" textLength="27.5039" x="433.5131" y="734.7829">has</text><text fill="#000000" font-family="sans-serif" font-size="17.0262" lengthAdjust="spacing" textLength="9.168" x="377.2505" y="704.8155">1</text><text fill="#000000" font-family="sans-serif" font-size="17.0262" lengthAdjust="spacing" textLength="6.5485" x="452.4818" y="764.4265">*</text></g><!--link Device to Actuator--><g id="link_Device_Actuator"><path codeLine="15" d="M352.5863,675.9006 C349.9014,688.0023 347.1903,702.1341 345.7627,715.1002 C343.4183,736.4222 343.0081,752.7552 343.2963,771.3006 " fill="none" id="Device-to-Actuator" style="stroke:#181818;stroke-width:1.3097072419106317;"/><polygon fill="#181818" points="343.4183,779.1579,348.4734,767.2906,343.3166,772.6102,337.997,767.4534,343.4183,779.1579" style="stroke:#181818;stroke-width:1.3097072419106317;"/><text fill="#000000" font-family="sans-serif" font-size="17.0262" lengthAdjust="spacing" textLength="27.5039" x="347.0724" y="734.7829">has</text><text fill="#000000" font-family="sans-serif" font-size="17.0262" lengthAdjust="spacing" textLength="9.168" x="340.4526" y="704.7177">1</text><text fill="#000000" font-family="sans-serif" font-size="17.0262" lengthAdjust="spacing" textLength="6.5485" x="335.7656" y="764.3771">*</text></g><!--SRC=[TP3BQiD034NtynN2cpnW_5W4YXU1G1TTTDMI3r1dv6J0CpBMk2L_ttXid92cAo7ErRsILkSOEwcBecinnC6tkM5Vc1P5j7Luwj4hCTWIL5LPmXPUTgLIRpm8GLPbeFKUicq67ymUQZYZp704xsmmEWupM1s5-gI-JLsDxw7Ma6eDJi3qX94iV5q0hNT1BVDvla_fKrGDXaFZJaDF0ckKIRrvcfUsv9yW3sOtYDPAGTR59v9F2iBZTfOQ5wvfyT8HSFDN-KhVpj1ifvBrz2xzmCVRv-R-dqlIF_nWue1nKQXV]--></g></svg>