<?xml version="1.0" encoding="us-ascii" standalone="no"?><svg xmlns="http://www.w3.org/2000/svg" xmlns:xlink="http://www.w3.org/1999/xlink" contentStyleType="text/css" height="739px" preserveAspectRatio="none" style="width:754px;height:739px;background:#FFFFFF;" version="1.1" viewBox="0 0 754 739" width="754px" zoomAndPan="magnify"><defs/><g><!--class House--><g id="elem_House"><rect codeLine="7" fill="#F1F1F1" height="85.2422" id="House" rx="2.5" ry="2.5" style="stroke:#181818;stroke-width:0.5;" width="163" x="257" y="12"/><ellipse cx="314.25" cy="28" fill="#ADD1B2" rx="11" ry="11" style="stroke:#181818;stroke-width:1.0;"/><path d="M317.0156,23.875 Q317.1719,23.6563 317.3594,23.5469 Q317.5469,23.4375 317.7656,23.4375 Q318.1406,23.4375 318.375,23.7031 Q318.6094,23.9531 318.6094,24.5625 L318.6094,26.0156 Q318.6094,26.625 318.375,26.8906 Q318.1406,27.1563 317.7656,27.1563 Q317.4219,27.1563 317.2188,26.9531 Q317.0156,26.7656 316.9063,26.25 Q316.8594,25.8906 316.6719,25.7031 Q316.3438,25.3281 315.7344,25.1094 Q315.125,24.8906 314.5,24.8906 Q313.7344,24.8906 313.0938,25.2188 Q312.4688,25.5469 311.9688,26.2969 Q311.4844,27.0469 311.4844,28.0781 L311.4844,29.1719 Q311.4844,30.4063 312.375,31.2344 Q313.2656,32.0469 314.8594,32.0469 Q315.7969,32.0469 316.4531,31.7969 Q316.8438,31.6406 317.2656,31.2031 Q317.5313,30.9375 317.6719,30.8594 Q317.8281,30.7813 318.0313,30.7813 Q318.3594,30.7813 318.6094,31.0469 Q318.875,31.2969 318.875,31.6406 Q318.875,31.9844 318.5313,32.3906 Q318.0313,32.9688 317.2344,33.2969 Q316.1563,33.75 314.8594,33.75 Q313.3438,33.75 312.1406,33.125 Q311.1563,32.625 310.4688,31.5625 Q309.7813,30.4844 309.7813,29.2031 L309.7813,28.0469 Q309.7813,26.7188 310.3906,25.5781 Q311.0156,24.4219 312.1094,23.8125 Q313.2031,23.1875 314.4375,23.1875 Q315.1719,23.1875 315.8125,23.3594 Q316.4688,23.5156 317.0156,23.875 Z " fill="#000000"/><text fill="#000000" font-family="sans-serif" font-size="14" lengthAdjust="spacing" textLength="40" x="334.75" y="33.7969">House</text><line style="stroke:#181818;stroke-width:0.5;" x1="258" x2="419" y1="44" y2="44"/><rect fill="none" height="6" style="stroke:#C82930;stroke-width:1.0;" width="6" x="265" y="55.8105"/><text fill="#000000" font-family="sans-serif" font-size="14" lengthAdjust="spacing" textLength="119" x="277" y="63.1074">_location: Location</text><rect fill="none" height="6" style="stroke:#C82930;stroke-width:1.0;" width="6" x="265" y="74.4316"/><text fill="#000000" font-family="sans-serif" font-size="14" lengthAdjust="spacing" textLength="137" x="277" y="81.7285">roomList: List&lt;Room&gt;</text><line style="stroke:#181818;stroke-width:0.5;" x1="258" x2="419" y1="89.2422" y2="89.2422"/></g><!--class HouseLocation--><g id="elem_HouseLocation"><rect codeLine="11" fill="#F1F1F1" height="85.2422" id="HouseLocation" rx="2.5" ry="2.5" style="stroke:#181818;stroke-width:0.5;" width="148" x="152.5" y="180"/><ellipse cx="177.4" cy="196" fill="#ADD1B2" rx="11" ry="11" style="stroke:#181818;stroke-width:1.0;"/><path d="M180.1656,191.875 Q180.3219,191.6563 180.5094,191.5469 Q180.6969,191.4375 180.9156,191.4375 Q181.2906,191.4375 181.525,191.7031 Q181.7594,191.9531 181.7594,192.5625 L181.7594,194.0156 Q181.7594,194.625 181.525,194.8906 Q181.2906,195.1563 180.9156,195.1563 Q180.5719,195.1563 180.3688,194.9531 Q180.1656,194.7656 180.0563,194.25 Q180.0094,193.8906 179.8219,193.7031 Q179.4938,193.3281 178.8844,193.1094 Q178.275,192.8906 177.65,192.8906 Q176.8844,192.8906 176.2438,193.2188 Q175.6188,193.5469 175.1188,194.2969 Q174.6344,195.0469 174.6344,196.0781 L174.6344,197.1719 Q174.6344,198.4063 175.525,199.2344 Q176.4156,200.0469 178.0094,200.0469 Q178.9469,200.0469 179.6031,199.7969 Q179.9938,199.6406 180.4156,199.2031 Q180.6813,198.9375 180.8219,198.8594 Q180.9781,198.7813 181.1813,198.7813 Q181.5094,198.7813 181.7594,199.0469 Q182.025,199.2969 182.025,199.6406 Q182.025,199.9844 181.6813,200.3906 Q181.1813,200.9688 180.3844,201.2969 Q179.3063,201.75 178.0094,201.75 Q176.4938,201.75 175.2906,201.125 Q174.3063,200.625 173.6188,199.5625 Q172.9313,198.4844 172.9313,197.2031 L172.9313,196.0469 Q172.9313,194.7188 173.5406,193.5781 Q174.1656,192.4219 175.2594,191.8125 Q176.3531,191.1875 177.5875,191.1875 Q178.3219,191.1875 178.9625,191.3594 Q179.6188,191.5156 180.1656,191.875 Z " fill="#000000"/><text fill="#000000" font-family="sans-serif" font-size="14" lengthAdjust="spacing" textLength="94" x="193.6" y="201.7969">HouseLocation</text><line style="stroke:#181818;stroke-width:0.5;" x1="153.5" x2="299.5" y1="212" y2="212"/><rect fill="none" height="6" style="stroke:#C82930;stroke-width:1.0;" width="6" x="160.5" y="223.8105"/><text fill="#000000" font-family="sans-serif" font-size="14" lengthAdjust="spacing" textLength="119" x="172.5" y="231.1074">_address: Address</text><rect fill="none" height="6" style="stroke:#C82930;stroke-width:1.0;" width="6" x="160.5" y="242.4316"/><text fill="#000000" font-family="sans-serif" font-size="14" lengthAdjust="spacing" textLength="122" x="172.5" y="249.7285">_gpsLocation: GPS</text><line style="stroke:#181818;stroke-width:0.5;" x1="153.5" x2="299.5" y1="257.2422" y2="257.2422"/></g><!--class GPS--><g id="elem_GPS"><rect codeLine="15" fill="#F1F1F1" height="85.2422" id="GPS" rx="2.5" ry="2.5" style="stroke:#181818;stroke-width:0.5;" width="143" x="6" y="376"/><ellipse cx="58.75" cy="392" fill="#ADD1B2" rx="11" ry="11" style="stroke:#181818;stroke-width:1.0;"/><path d="M61.5156,387.875 Q61.6719,387.6563 61.8594,387.5469 Q62.0469,387.4375 62.2656,387.4375 Q62.6406,387.4375 62.875,387.7031 Q63.1094,387.9531 63.1094,388.5625 L63.1094,390.0156 Q63.1094,390.625 62.875,390.8906 Q62.6406,391.1563 62.2656,391.1563 Q61.9219,391.1563 61.7188,390.9531 Q61.5156,390.7656 61.4063,390.25 Q61.3594,389.8906 61.1719,389.7031 Q60.8438,389.3281 60.2344,389.1094 Q59.625,388.8906 59,388.8906 Q58.2344,388.8906 57.5938,389.2188 Q56.9688,389.5469 56.4688,390.2969 Q55.9844,391.0469 55.9844,392.0781 L55.9844,393.1719 Q55.9844,394.4063 56.875,395.2344 Q57.7656,396.0469 59.3594,396.0469 Q60.2969,396.0469 60.9531,395.7969 Q61.3438,395.6406 61.7656,395.2031 Q62.0313,394.9375 62.1719,394.8594 Q62.3281,394.7813 62.5313,394.7813 Q62.8594,394.7813 63.1094,395.0469 Q63.375,395.2969 63.375,395.6406 Q63.375,395.9844 63.0313,396.3906 Q62.5313,396.9688 61.7344,397.2969 Q60.6563,397.75 59.3594,397.75 Q57.8438,397.75 56.6406,397.125 Q55.6563,396.625 54.9688,395.5625 Q54.2813,394.4844 54.2813,393.2031 L54.2813,392.0469 Q54.2813,390.7188 54.8906,389.5781 Q55.5156,388.4219 56.6094,387.8125 Q57.7031,387.1875 58.9375,387.1875 Q59.6719,387.1875 60.3125,387.3594 Q60.9688,387.5156 61.5156,387.875 Z " fill="#000000"/><text fill="#000000" font-family="sans-serif" font-size="14" lengthAdjust="spacing" textLength="29" x="79.25" y="397.7969">GPS</text><line style="stroke:#181818;stroke-width:0.5;" x1="7" x2="148" y1="408" y2="408"/><rect fill="none" height="6" style="stroke:#C82930;stroke-width:1.0;" width="6" x="14" y="419.8105"/><text fill="#000000" font-family="sans-serif" font-size="14" lengthAdjust="spacing" textLength="105" x="26" y="427.1074">_latitude: double</text><rect fill="none" height="6" style="stroke:#C82930;stroke-width:1.0;" width="6" x="14" y="438.4316"/><text fill="#000000" font-family="sans-serif" font-size="14" lengthAdjust="spacing" textLength="117" x="26" y="445.7285">_longitude: double</text><line style="stroke:#181818;stroke-width:0.5;" x1="7" x2="148" y1="453.2422" y2="453.2422"/></g><!--class Address--><g id="elem_Address"><rect codeLine="19" fill="#F1F1F1" height="103.8633" id="Address" rx="2.5" ry="2.5" style="stroke:#181818;stroke-width:0.5;" width="139" x="167" y="366.5"/><ellipse cx="206.75" cy="382.5" fill="#ADD1B2" rx="11" ry="11" style="stroke:#181818;stroke-width:1.0;"/><path d="M209.5156,378.375 Q209.6719,378.1563 209.8594,378.0469 Q210.0469,377.9375 210.2656,377.9375 Q210.6406,377.9375 210.875,378.2031 Q211.1094,378.4531 211.1094,379.0625 L211.1094,380.5156 Q211.1094,381.125 210.875,381.3906 Q210.6406,381.6563 210.2656,381.6563 Q209.9219,381.6563 209.7188,381.4531 Q209.5156,381.2656 209.4063,380.75 Q209.3594,380.3906 209.1719,380.2031 Q208.8438,379.8281 208.2344,379.6094 Q207.625,379.3906 207,379.3906 Q206.2344,379.3906 205.5938,379.7188 Q204.9688,380.0469 204.4688,380.7969 Q203.9844,381.5469 203.9844,382.5781 L203.9844,383.6719 Q203.9844,384.9063 204.875,385.7344 Q205.7656,386.5469 207.3594,386.5469 Q208.2969,386.5469 208.9531,386.2969 Q209.3438,386.1406 209.7656,385.7031 Q210.0313,385.4375 210.1719,385.3594 Q210.3281,385.2813 210.5313,385.2813 Q210.8594,385.2813 211.1094,385.5469 Q211.375,385.7969 211.375,386.1406 Q211.375,386.4844 211.0313,386.8906 Q210.5313,387.4688 209.7344,387.7969 Q208.6563,388.25 207.3594,388.25 Q205.8438,388.25 204.6406,387.625 Q203.6563,387.125 202.9688,386.0625 Q202.2813,384.9844 202.2813,383.7031 L202.2813,382.5469 Q202.2813,381.2188 202.8906,380.0781 Q203.5156,378.9219 204.6094,378.3125 Q205.7031,377.6875 206.9375,377.6875 Q207.6719,377.6875 208.3125,377.8594 Q208.9688,378.0156 209.5156,378.375 Z " fill="#000000"/><text fill="#000000" font-family="sans-serif" font-size="14" lengthAdjust="spacing" textLength="52" x="226.25" y="388.2969">Address</text><line style="stroke:#181818;stroke-width:0.5;" x1="168" x2="305" y1="398.5" y2="398.5"/><rect fill="none" height="6" style="stroke:#C82930;stroke-width:1.0;" width="6" x="175" y="410.3105"/><text fill="#000000" font-family="sans-serif" font-size="14" lengthAdjust="spacing" textLength="89" x="187" y="417.6074">_street: String</text><rect fill="none" height="6" style="stroke:#C82930;stroke-width:1.0;" width="6" x="175" y="428.9316"/><text fill="#000000" font-family="sans-serif" font-size="14" lengthAdjust="spacing" textLength="104" x="187" y="436.2285">_zipCode: String</text><rect fill="none" height="6" style="stroke:#C82930;stroke-width:1.0;" width="6" x="175" y="447.5527"/><text fill="#000000" font-family="sans-serif" font-size="14" lengthAdjust="spacing" textLength="113" x="187" y="454.8496">_doorNumber : int</text><line style="stroke:#181818;stroke-width:0.5;" x1="168" x2="305" y1="462.3633" y2="462.3633"/></g><!--class Room--><g id="elem_Room"><rect codeLine="24" fill="#F1F1F1" height="141.1055" id="Room" rx="2.5" ry="2.5" style="stroke:#181818;stroke-width:0.5;" width="193" x="319" y="152"/><ellipse cx="392.75" cy="168" fill="#ADD1B2" rx="11" ry="11" style="stroke:#181818;stroke-width:1.0;"/><path d="M395.5156,163.875 Q395.6719,163.6563 395.8594,163.5469 Q396.0469,163.4375 396.2656,163.4375 Q396.6406,163.4375 396.875,163.7031 Q397.1094,163.9531 397.1094,164.5625 L397.1094,166.0156 Q397.1094,166.625 396.875,166.8906 Q396.6406,167.1563 396.2656,167.1563 Q395.9219,167.1563 395.7188,166.9531 Q395.5156,166.7656 395.4063,166.25 Q395.3594,165.8906 395.1719,165.7031 Q394.8438,165.3281 394.2344,165.1094 Q393.625,164.8906 393,164.8906 Q392.2344,164.8906 391.5938,165.2188 Q390.9688,165.5469 390.4688,166.2969 Q389.9844,167.0469 389.9844,168.0781 L389.9844,169.1719 Q389.9844,170.4063 390.875,171.2344 Q391.7656,172.0469 393.3594,172.0469 Q394.2969,172.0469 394.9531,171.7969 Q395.3438,171.6406 395.7656,171.2031 Q396.0313,170.9375 396.1719,170.8594 Q396.3281,170.7813 396.5313,170.7813 Q396.8594,170.7813 397.1094,171.0469 Q397.375,171.2969 397.375,171.6406 Q397.375,171.9844 397.0313,172.3906 Q396.5313,172.9688 395.7344,173.2969 Q394.6563,173.75 393.3594,173.75 Q391.8438,173.75 390.6406,173.125 Q389.6563,172.625 388.9688,171.5625 Q388.2813,170.4844 388.2813,169.2031 L388.2813,168.0469 Q388.2813,166.7188 388.8906,165.5781 Q389.5156,164.4219 390.6094,163.8125 Q391.7031,163.1875 392.9375,163.1875 Q393.6719,163.1875 394.3125,163.3594 Q394.9688,163.5156 395.5156,163.875 Z " fill="#000000"/><text fill="#000000" font-family="sans-serif" font-size="14" lengthAdjust="spacing" textLength="37" x="413.25" y="173.7969">Room</text><line style="stroke:#181818;stroke-width:0.5;" x1="320" x2="511" y1="184" y2="184"/><rect fill="none" height="6" style="stroke:#C82930;stroke-width:1.0;" width="6" x="327" y="195.8105"/><text fill="#000000" font-family="sans-serif" font-size="14" lengthAdjust="spacing" textLength="146" x="339" y="203.1074">_dimension: Dimension</text><rect fill="none" height="6" style="stroke:#C82930;stroke-width:1.0;" width="6" x="327" y="214.4316"/><text fill="#000000" font-family="sans-serif" font-size="14" lengthAdjust="spacing" textLength="59" x="339" y="221.7285">_floor: int</text><rect fill="none" height="6" style="stroke:#C82930;stroke-width:1.0;" width="6" x="327" y="233.0527"/><text fill="#000000" font-family="sans-serif" font-size="14" lengthAdjust="spacing" textLength="90" x="339" y="240.3496">_roomId: UUID</text><rect fill="none" height="6" style="stroke:#C82930;stroke-width:1.0;" width="6" x="327" y="251.6738"/><text fill="#000000" font-family="sans-serif" font-size="14" lengthAdjust="spacing" textLength="88" x="339" y="258.9707">_name: String</text><rect fill="none" height="6" style="stroke:#C82930;stroke-width:1.0;" width="6" x="327" y="270.2949"/><text fill="#000000" font-family="sans-serif" font-size="14" lengthAdjust="spacing" textLength="167" x="339" y="277.5918">_devicesList: List&lt;Device&gt;</text><line style="stroke:#181818;stroke-width:0.5;" x1="320" x2="511" y1="285.1055" y2="285.1055"/></g><!--class Dimensions--><g id="elem_Dimensions"><rect codeLine="32" fill="#F1F1F1" height="103.8633" id="Dimensions" rx="2.5" ry="2.5" style="stroke:#181818;stroke-width:0.5;" width="124" x="343.5" y="366.5"/><ellipse cx="367.05" cy="382.5" fill="#ADD1B2" rx="11" ry="11" style="stroke:#181818;stroke-width:1.0;"/><path d="M369.8156,378.375 Q369.9719,378.1563 370.1594,378.0469 Q370.3469,377.9375 370.5656,377.9375 Q370.9406,377.9375 371.175,378.2031 Q371.4094,378.4531 371.4094,379.0625 L371.4094,380.5156 Q371.4094,381.125 371.175,381.3906 Q370.9406,381.6563 370.5656,381.6563 Q370.2219,381.6563 370.0188,381.4531 Q369.8156,381.2656 369.7063,380.75 Q369.6594,380.3906 369.4719,380.2031 Q369.1438,379.8281 368.5344,379.6094 Q367.925,379.3906 367.3,379.3906 Q366.5344,379.3906 365.8938,379.7188 Q365.2688,380.0469 364.7688,380.7969 Q364.2844,381.5469 364.2844,382.5781 L364.2844,383.6719 Q364.2844,384.9063 365.175,385.7344 Q366.0656,386.5469 367.6594,386.5469 Q368.5969,386.5469 369.2531,386.2969 Q369.6438,386.1406 370.0656,385.7031 Q370.3313,385.4375 370.4719,385.3594 Q370.6281,385.2813 370.8313,385.2813 Q371.1594,385.2813 371.4094,385.5469 Q371.675,385.7969 371.675,386.1406 Q371.675,386.4844 371.3313,386.8906 Q370.8313,387.4688 370.0344,387.7969 Q368.9563,388.25 367.6594,388.25 Q366.1438,388.25 364.9406,387.625 Q363.9563,387.125 363.2688,386.0625 Q362.5813,384.9844 362.5813,383.7031 L362.5813,382.5469 Q362.5813,381.2188 363.1906,380.0781 Q363.8156,378.9219 364.9094,378.3125 Q366.0031,377.6875 367.2375,377.6875 Q367.9719,377.6875 368.6125,377.8594 Q369.2688,378.0156 369.8156,378.375 Z " fill="#000000"/><text fill="#000000" font-family="sans-serif" font-size="14" lengthAdjust="spacing" textLength="73" x="382.95" y="388.2969">Dimensions</text><line style="stroke:#181818;stroke-width:0.5;" x1="344.5" x2="466.5" y1="398.5" y2="398.5"/><rect fill="none" height="6" style="stroke:#C82930;stroke-width:1.0;" width="6" x="351.5" y="410.3105"/><text fill="#000000" font-family="sans-serif" font-size="14" lengthAdjust="spacing" textLength="91" x="363.5" y="417.6074">_width: double</text><rect fill="none" height="6" style="stroke:#C82930;stroke-width:1.0;" width="6" x="351.5" y="428.9316"/><text fill="#000000" font-family="sans-serif" font-size="14" lengthAdjust="spacing" textLength="98" x="363.5" y="436.2285">_length: double</text><rect fill="none" height="6" style="stroke:#C82930;stroke-width:1.0;" width="6" x="351.5" y="447.5527"/><text fill="#000000" font-family="sans-serif" font-size="14" lengthAdjust="spacing" textLength="98" x="363.5" y="454.8496">_height: double</text><line style="stroke:#181818;stroke-width:0.5;" x1="344.5" x2="466.5" y1="462.3633" y2="462.3633"/></g><!--class Device--><g id="elem_Device"><rect codeLine="38" fill="#F1F1F1" height="141.1055" id="Device" rx="2.5" ry="2.5" style="stroke:#181818;stroke-width:0.5;" width="192" x="485.5" y="348"/><ellipse cx="555.75" cy="364" fill="#ADD1B2" rx="11" ry="11" style="stroke:#181818;stroke-width:1.0;"/><path d="M558.5156,359.875 Q558.6719,359.6563 558.8594,359.5469 Q559.0469,359.4375 559.2656,359.4375 Q559.6406,359.4375 559.875,359.7031 Q560.1094,359.9531 560.1094,360.5625 L560.1094,362.0156 Q560.1094,362.625 559.875,362.8906 Q559.6406,363.1563 559.2656,363.1563 Q558.9219,363.1563 558.7188,362.9531 Q558.5156,362.7656 558.4063,362.25 Q558.3594,361.8906 558.1719,361.7031 Q557.8438,361.3281 557.2344,361.1094 Q556.625,360.8906 556,360.8906 Q555.2344,360.8906 554.5938,361.2188 Q553.9688,361.5469 553.4688,362.2969 Q552.9844,363.0469 552.9844,364.0781 L552.9844,365.1719 Q552.9844,366.4063 553.875,367.2344 Q554.7656,368.0469 556.3594,368.0469 Q557.2969,368.0469 557.9531,367.7969 Q558.3438,367.6406 558.7656,367.2031 Q559.0313,366.9375 559.1719,366.8594 Q559.3281,366.7813 559.5313,366.7813 Q559.8594,366.7813 560.1094,367.0469 Q560.375,367.2969 560.375,367.6406 Q560.375,367.9844 560.0313,368.3906 Q559.5313,368.9688 558.7344,369.2969 Q557.6563,369.75 556.3594,369.75 Q554.8438,369.75 553.6406,369.125 Q552.6563,368.625 551.9688,367.5625 Q551.2813,366.4844 551.2813,365.2031 L551.2813,364.0469 Q551.2813,362.7188 551.8906,361.5781 Q552.5156,360.4219 553.6094,359.8125 Q554.7031,359.1875 555.9375,359.1875 Q556.6719,359.1875 557.3125,359.3594 Q557.9688,359.5156 558.5156,359.875 Z " fill="#000000"/><text fill="#000000" font-family="sans-serif" font-size="14" lengthAdjust="spacing" textLength="43" x="576.25" y="369.7969">Device</text><line style="stroke:#181818;stroke-width:0.5;" x1="486.5" x2="676.5" y1="380" y2="380"/><rect fill="none" height="6" style="stroke:#C82930;stroke-width:1.0;" width="6" x="493.5" y="391.8105"/><text fill="#000000" font-family="sans-serif" font-size="14" lengthAdjust="spacing" textLength="99" x="505.5" y="399.1074">_deviceId: UUID</text><rect fill="none" height="6" style="stroke:#C82930;stroke-width:1.0;" width="6" x="493.5" y="410.4316"/><text fill="#000000" font-family="sans-serif" font-size="14" lengthAdjust="spacing" textLength="88" x="505.5" y="417.7285">_name: String</text><rect fill="none" height="6" style="stroke:#C82930;stroke-width:1.0;" width="6" x="493.5" y="429.0527"/><text fill="#000000" font-family="sans-serif" font-size="14" lengthAdjust="spacing" textLength="105" x="505.5" y="436.3496">_status: boolean</text><rect fill="none" height="6" style="stroke:#C82930;stroke-width:1.0;" width="6" x="493.5" y="447.6738"/><text fill="#000000" font-family="sans-serif" font-size="14" lengthAdjust="spacing" textLength="149" x="505.5" y="454.9707">_sensors: List&lt;Sensor&gt;</text><rect fill="none" height="6" style="stroke:#C82930;stroke-width:1.0;" width="6" x="493.5" y="466.2949"/><text fill="#000000" font-family="sans-serif" font-size="14" lengthAdjust="spacing" textLength="166" x="505.5" y="473.5918">_actuators: List&lt;Actuator&gt;</text><line style="stroke:#181818;stroke-width:0.5;" x1="486.5" x2="676.5" y1="481.1055" y2="481.1055"/></g><!--class Sensor--><g id="elem_Sensor"><rect codeLine="46" fill="#F1F1F1" height="48" id="Sensor" rx="2.5" ry="2.5" style="stroke:#181818;stroke-width:0.5;" width="77" x="464" y="544"/><ellipse cx="479" cy="560" fill="#ADD1B2" rx="11" ry="11" style="stroke:#181818;stroke-width:1.0;"/><path d="M481.7656,555.875 Q481.9219,555.6563 482.1094,555.5469 Q482.2969,555.4375 482.5156,555.4375 Q482.8906,555.4375 483.125,555.7031 Q483.3594,555.9531 483.3594,556.5625 L483.3594,558.0156 Q483.3594,558.625 483.125,558.8906 Q482.8906,559.1563 482.5156,559.1563 Q482.1719,559.1563 481.9688,558.9531 Q481.7656,558.7656 481.6563,558.25 Q481.6094,557.8906 481.4219,557.7031 Q481.0938,557.3281 480.4844,557.1094 Q479.875,556.8906 479.25,556.8906 Q478.4844,556.8906 477.8438,557.2188 Q477.2188,557.5469 476.7188,558.2969 Q476.2344,559.0469 476.2344,560.0781 L476.2344,561.1719 Q476.2344,562.4063 477.125,563.2344 Q478.0156,564.0469 479.6094,564.0469 Q480.5469,564.0469 481.2031,563.7969 Q481.5938,563.6406 482.0156,563.2031 Q482.2813,562.9375 482.4219,562.8594 Q482.5781,562.7813 482.7813,562.7813 Q483.1094,562.7813 483.3594,563.0469 Q483.625,563.2969 483.625,563.6406 Q483.625,563.9844 483.2813,564.3906 Q482.7813,564.9688 481.9844,565.2969 Q480.9063,565.75 479.6094,565.75 Q478.0938,565.75 476.8906,565.125 Q475.9063,564.625 475.2188,563.5625 Q474.5313,562.4844 474.5313,561.2031 L474.5313,560.0469 Q474.5313,558.7188 475.1406,557.5781 Q475.7656,556.4219 476.8594,555.8125 Q477.9531,555.1875 479.1875,555.1875 Q479.9219,555.1875 480.5625,555.3594 Q481.2188,555.5156 481.7656,555.875 Z " fill="#000000"/><text fill="#000000" font-family="sans-serif" font-size="14" lengthAdjust="spacing" textLength="45" x="493" y="565.7969">Sensor</text><line style="stroke:#181818;stroke-width:0.5;" x1="465" x2="540" y1="576" y2="576"/><line style="stroke:#181818;stroke-width:0.5;" x1="465" x2="540" y1="584" y2="584"/></g><!--class SensorType--><g id="elem_SensorType"><rect codeLine="50" fill="#F1F1F1" height="85.2422" id="SensorType" rx="2.5" ry="2.5" style="stroke:#181818;stroke-width:0.5;" width="166" x="397.5" y="647"/><ellipse cx="438.15" cy="663" fill="#ADD1B2" rx="11" ry="11" style="stroke:#181818;stroke-width:1.0;"/><path d="M440.9156,658.875 Q441.0719,658.6563 441.2594,658.5469 Q441.4469,658.4375 441.6656,658.4375 Q442.0406,658.4375 442.275,658.7031 Q442.5094,658.9531 442.5094,659.5625 L442.5094,661.0156 Q442.5094,661.625 442.275,661.8906 Q442.0406,662.1563 441.6656,662.1563 Q441.3219,662.1563 441.1188,661.9531 Q440.9156,661.7656 440.8063,661.25 Q440.7594,660.8906 440.5719,660.7031 Q440.2438,660.3281 439.6344,660.1094 Q439.025,659.8906 438.4,659.8906 Q437.6344,659.8906 436.9938,660.2188 Q436.3688,660.5469 435.8688,661.2969 Q435.3844,662.0469 435.3844,663.0781 L435.3844,664.1719 Q435.3844,665.4063 436.275,666.2344 Q437.1656,667.0469 438.7594,667.0469 Q439.6969,667.0469 440.3531,666.7969 Q440.7438,666.6406 441.1656,666.2031 Q441.4313,665.9375 441.5719,665.8594 Q441.7281,665.7813 441.9313,665.7813 Q442.2594,665.7813 442.5094,666.0469 Q442.775,666.2969 442.775,666.6406 Q442.775,666.9844 442.4313,667.3906 Q441.9313,667.9688 441.1344,668.2969 Q440.0563,668.75 438.7594,668.75 Q437.2438,668.75 436.0406,668.125 Q435.0563,667.625 434.3688,666.5625 Q433.6813,665.4844 433.6813,664.2031 L433.6813,663.0469 Q433.6813,661.7188 434.2906,660.5781 Q434.9156,659.4219 436.0094,658.8125 Q437.1031,658.1875 438.3375,658.1875 Q439.0719,658.1875 439.7125,658.3594 Q440.3688,658.5156 440.9156,658.875 Z " fill="#000000"/><text fill="#000000" font-family="sans-serif" font-size="14" lengthAdjust="spacing" textLength="77" x="457.85" y="668.7969">SensorType</text><line style="stroke:#181818;stroke-width:0.5;" x1="398.5" x2="562.5" y1="679" y2="679"/><rect fill="none" height="6" style="stroke:#C82930;stroke-width:1.0;" width="6" x="405.5" y="690.8105"/><text fill="#000000" font-family="sans-serif" font-size="14" lengthAdjust="spacing" textLength="140" x="417.5" y="698.1074">_strDescription: String</text><rect fill="none" height="6" style="stroke:#C82930;stroke-width:1.0;" width="6" x="405.5" y="709.4316"/><text fill="#000000" font-family="sans-serif" font-size="14" lengthAdjust="spacing" textLength="70" x="417.5" y="716.7285">_units: Unit</text><line style="stroke:#181818;stroke-width:0.5;" x1="398.5" x2="562.5" y1="724.2422" y2="724.2422"/></g><!--class Actuator--><g id="elem_Actuator"><rect codeLine="54" fill="#F1F1F1" height="48" id="Actuator" rx="2.5" ry="2.5" style="stroke:#181818;stroke-width:0.5;" width="85" x="601" y="544"/><ellipse cx="616" cy="560" fill="#ADD1B2" rx="11" ry="11" style="stroke:#181818;stroke-width:1.0;"/><path d="M618.7656,555.875 Q618.9219,555.6563 619.1094,555.5469 Q619.2969,555.4375 619.5156,555.4375 Q619.8906,555.4375 620.125,555.7031 Q620.3594,555.9531 620.3594,556.5625 L620.3594,558.0156 Q620.3594,558.625 620.125,558.8906 Q619.8906,559.1563 619.5156,559.1563 Q619.1719,559.1563 618.9688,558.9531 Q618.7656,558.7656 618.6563,558.25 Q618.6094,557.8906 618.4219,557.7031 Q618.0938,557.3281 617.4844,557.1094 Q616.875,556.8906 616.25,556.8906 Q615.4844,556.8906 614.8438,557.2188 Q614.2188,557.5469 613.7188,558.2969 Q613.2344,559.0469 613.2344,560.0781 L613.2344,561.1719 Q613.2344,562.4063 614.125,563.2344 Q615.0156,564.0469 616.6094,564.0469 Q617.5469,564.0469 618.2031,563.7969 Q618.5938,563.6406 619.0156,563.2031 Q619.2813,562.9375 619.4219,562.8594 Q619.5781,562.7813 619.7813,562.7813 Q620.1094,562.7813 620.3594,563.0469 Q620.625,563.2969 620.625,563.6406 Q620.625,563.9844 620.2813,564.3906 Q619.7813,564.9688 618.9844,565.2969 Q617.9063,565.75 616.6094,565.75 Q615.0938,565.75 613.8906,565.125 Q612.9063,564.625 612.2188,563.5625 Q611.5313,562.4844 611.5313,561.2031 L611.5313,560.0469 Q611.5313,558.7188 612.1406,557.5781 Q612.7656,556.4219 613.8594,555.8125 Q614.9531,555.1875 616.1875,555.1875 Q616.9219,555.1875 617.5625,555.3594 Q618.2188,555.5156 618.7656,555.875 Z " fill="#000000"/><text fill="#000000" font-family="sans-serif" font-size="14" lengthAdjust="spacing" textLength="53" x="630" y="565.7969">Actuator</text><line style="stroke:#181818;stroke-width:0.5;" x1="602" x2="685" y1="576" y2="576"/><line style="stroke:#181818;stroke-width:0.5;" x1="602" x2="685" y1="584" y2="584"/></g><!--class ActuatorType--><g id="elem_ActuatorType"><rect codeLine="58" fill="#F1F1F1" height="66.6211" id="ActuatorType" rx="2.5" ry="2.5" style="stroke:#181818;stroke-width:0.5;" width="166" x="581.5" y="656"/><ellipse cx="618.55" cy="672" fill="#ADD1B2" rx="11" ry="11" style="stroke:#181818;stroke-width:1.0;"/><path d="M621.3156,667.875 Q621.4719,667.6563 621.6594,667.5469 Q621.8469,667.4375 622.0656,667.4375 Q622.4406,667.4375 622.675,667.7031 Q622.9094,667.9531 622.9094,668.5625 L622.9094,670.0156 Q622.9094,670.625 622.675,670.8906 Q622.4406,671.1563 622.0656,671.1563 Q621.7219,671.1563 621.5188,670.9531 Q621.3156,670.7656 621.2063,670.25 Q621.1594,669.8906 620.9719,669.7031 Q620.6438,669.3281 620.0344,669.1094 Q619.425,668.8906 618.8,668.8906 Q618.0344,668.8906 617.3938,669.2188 Q616.7688,669.5469 616.2688,670.2969 Q615.7844,671.0469 615.7844,672.0781 L615.7844,673.1719 Q615.7844,674.4063 616.675,675.2344 Q617.5656,676.0469 619.1594,676.0469 Q620.0969,676.0469 620.7531,675.7969 Q621.1438,675.6406 621.5656,675.2031 Q621.8313,674.9375 621.9719,674.8594 Q622.1281,674.7813 622.3313,674.7813 Q622.6594,674.7813 622.9094,675.0469 Q623.175,675.2969 623.175,675.6406 Q623.175,675.9844 622.8313,676.3906 Q622.3313,676.9688 621.5344,677.2969 Q620.4563,677.75 619.1594,677.75 Q617.6438,677.75 616.4406,677.125 Q615.4563,676.625 614.7688,675.5625 Q614.0813,674.4844 614.0813,673.2031 L614.0813,672.0469 Q614.0813,670.7188 614.6906,669.5781 Q615.3156,668.4219 616.4094,667.8125 Q617.5031,667.1875 618.7375,667.1875 Q619.4719,667.1875 620.1125,667.3594 Q620.7688,667.5156 621.3156,667.875 Z " fill="#000000"/><text fill="#000000" font-family="sans-serif" font-size="14" lengthAdjust="spacing" textLength="85" x="637.45" y="677.7969">ActuatorType</text><line style="stroke:#181818;stroke-width:0.5;" x1="582.5" x2="746.5" y1="688" y2="688"/><rect fill="none" height="6" style="stroke:#C82930;stroke-width:1.0;" width="6" x="589.5" y="699.8105"/><text fill="#000000" font-family="sans-serif" font-size="14" lengthAdjust="spacing" textLength="140" x="601.5" y="707.1074">_strDescription: String</text><line style="stroke:#181818;stroke-width:0.5;" x1="582.5" x2="746.5" y1="714.6211" y2="714.6211"/></g><path d="M310.2377,97.3888 C293.1945,122.6492 271.5656,154.7063 254.5591,179.9124 " fill="none" style="stroke:#595959;stroke-width:1.0;"/><text fill="#000000" font-family="sans-serif" font-size="13" lengthAdjust="spacing" textLength="21" x="297.5" y="130.0283">has</text><text fill="#000000" font-family="sans-serif" font-size="13" lengthAdjust="spacing" textLength="7" x="246.5591" y="175.9407">1</text><text fill="#000000" font-family="sans-serif" font-size="13" lengthAdjust="spacing" textLength="7" x="302.2377" y="112.4171">1</text><path d="M194.5358,265.1179 C169.3958,297.8504 134.5377,343.2362 109.4114,375.951 " fill="none" style="stroke:#595959;stroke-width:1.0;"/><text fill="#000000" font-family="sans-serif" font-size="13" lengthAdjust="spacing" textLength="21" x="157.5" y="326.0283">has</text><text fill="#000000" font-family="sans-serif" font-size="13" lengthAdjust="spacing" textLength="7" x="101.4114" y="371.9793">1</text><text fill="#000000" font-family="sans-serif" font-size="13" lengthAdjust="spacing" textLength="7" x="186.5358" y="280.1462">1</text><path d="M228.6453,265.1179 C230.1718,294.733 232.2323,334.706 233.8598,366.281 " fill="none" style="stroke:#595959;stroke-width:1.0;"/><text fill="#000000" font-family="sans-serif" font-size="13" lengthAdjust="spacing" textLength="21" x="233.5" y="326.0283">has</text><text fill="#000000" font-family="sans-serif" font-size="13" lengthAdjust="spacing" textLength="7" x="225.8598" y="362.3093">1</text><text fill="#000000" font-family="sans-serif" font-size="13" lengthAdjust="spacing" textLength="7" x="220.6453" y="280.1462">1</text><path d="M357.9304,97.3888 C365.5933,113.9089 374.6047,133.336 383.1937,151.8526 " fill="none" style="stroke:#595959;stroke-width:1.0;"/><text fill="#000000" font-family="sans-serif" font-size="13" lengthAdjust="spacing" textLength="49" x="375.5" y="130.0283">contains</text><text fill="#000000" font-family="sans-serif" font-size="13" lengthAdjust="spacing" textLength="20" x="362.1937" y="147.8809">1..*</text><text fill="#000000" font-family="sans-serif" font-size="13" lengthAdjust="spacing" textLength="7" x="345.9304" y="112.4171">1</text><path d="M475.1953,293.2644 C490.3462,310.9708 506.6245,329.9949 521.7768,347.703 " fill="none" style="stroke:#595959;stroke-width:1.0;"/><text fill="#000000" font-family="sans-serif" font-size="13" lengthAdjust="spacing" textLength="49" x="503.5" y="326.0283">contains</text><text fill="#000000" font-family="sans-serif" font-size="13" lengthAdjust="spacing" textLength="20" x="500.7768" y="343.7313">0..*</text><text fill="#000000" font-family="sans-serif" font-size="13" lengthAdjust="spacing" textLength="7" x="467.1953" y="308.2927">1</text><path d="M411.9039,293.2644 C410.6608,317.3799 409.2918,343.9395 408.1397,366.2899 " fill="none" style="stroke:#595959;stroke-width:1.0;"/><text fill="#000000" font-family="sans-serif" font-size="13" lengthAdjust="spacing" textLength="21" x="411.5" y="326.0283">has</text><text fill="#000000" font-family="sans-serif" font-size="13" lengthAdjust="spacing" textLength="7" x="400.1397" y="362.3182">1</text><text fill="#000000" font-family="sans-serif" font-size="13" lengthAdjust="spacing" textLength="5" x="405.9039" y="308.2927">*</text><path d="M544.0821,489.3624 C533.5536,509.0202 522.8272,529.0474 514.9062,543.8365 " fill="none" style="stroke:#595959;stroke-width:1.0;"/><text fill="#000000" font-family="sans-serif" font-size="13" lengthAdjust="spacing" textLength="49" x="533.5" y="522.0283">contains</text><text fill="#000000" font-family="sans-serif" font-size="13" lengthAdjust="spacing" textLength="20" x="493.9062" y="539.8649">0..*</text><text fill="#000000" font-family="sans-serif" font-size="13" lengthAdjust="spacing" textLength="7" x="536.0821" y="504.3908">1</text><path d="M610.8659,489.3624 C619.1288,509.0202 627.547,529.0474 633.7635,543.8365 " fill="none" style="stroke:#595959;stroke-width:1.0;"/><text fill="#000000" font-family="sans-serif" font-size="13" lengthAdjust="spacing" textLength="21" x="625.5" y="522.0283">has</text><text fill="#000000" font-family="sans-serif" font-size="13" lengthAdjust="spacing" textLength="20" x="612.7635" y="539.8649">0..*</text><text fill="#000000" font-family="sans-serif" font-size="13" lengthAdjust="spacing" textLength="7" x="602.8659" y="504.3908">1</text><path d="M498.2582,592.0408 C495.4113,607.5044 491.5784,628.3239 488.2023,646.6627 " fill="none" style="stroke:#595959;stroke-width:1.0;"/><text fill="#000000" font-family="sans-serif" font-size="13" lengthAdjust="spacing" textLength="21" x="495.5" y="625.0283">has</text><text fill="#000000" font-family="sans-serif" font-size="13" lengthAdjust="spacing" textLength="7" x="480.2023" y="642.6911">1</text><text fill="#000000" font-family="sans-serif" font-size="13" lengthAdjust="spacing" textLength="5" x="492.2582" y="607.0691">*</text><path d="M647.549,592.0408 C650.7194,610.0817 655.1708,635.4125 658.7165,655.5891 " fill="none" style="stroke:#595959;stroke-width:1.0;"/><text fill="#000000" font-family="sans-serif" font-size="13" lengthAdjust="spacing" textLength="21" x="654.5" y="625.0283">has</text><text fill="#000000" font-family="sans-serif" font-size="13" lengthAdjust="spacing" textLength="7" x="650.7165" y="651.6175">1</text><text fill="#000000" font-family="sans-serif" font-size="13" lengthAdjust="spacing" textLength="5" x="641.549" y="607.0691">*</text><!--SRC=[bLFHRjCm57ttLrowjubEyC034QeqKMbCgYP4wHD2anjxYKNY6_dUW0RYtt4Isust1KOZfVQvFUSUNv- -w9oiMWcDlCUUWLhDqaeX63jWX2CoOmlAE5soGIlecx6TTBA5nbZDzvq6T5oZ4A9i915ym9uq_1BWF-lR1aivy0hOXTLKS8ZjpX1xtB_VVVBRZVWzbuY_ZqfIAQU92hYS5W6kEjgb7bSVzqd4hvC9N-PUwG8KziT69s-sol783IqYdzXfxQtksHbR1V2dwTxZmCrGXUXk-lQe7HHWB2V9uOHfAigqsj9eUHkNeNJNU8M9EW73fAvL0OV3zJP0LhQF-khlfjGq6-bsH8QX1WUf4oKVFupY-k5KjAqUWRKsLSspEKNDiSdfNEFstsw99VV-Ae-8ZPRnwEJjeQFWVp_kDl7sI-ubdwgNOJyxtqJmNXv2duUGpkvogwbqffiYa_dghM7VuU2_Jba8dJBX23v7sfEc_yJgzGhMwozdRzuEpykkaSP-7T4iy3uujIJOY1nTPlka_pSd93pd-GeyJRYuE5zD4IwWHCiU7bWZij3arSW90Nc2TRvaRPRJw2we_BLJkFwiqtDuwNvZio2qR72MgiX98ikiB3AHzmS0]--></g></svg>