<?xml version="1.0" encoding="us-ascii" standalone="no"?><svg xmlns="http://www.w3.org/2000/svg" xmlns:xlink="http://www.w3.org/1999/xlink" contentStyleType="text/css" height="186px" preserveAspectRatio="none" style="width:857px;height:186px;background:#FFFFFF;" version="1.1" viewBox="0 0 857 186" width="857px" zoomAndPan="magnify"><defs/><g><!--class House--><g id="elem_House"><rect fill="#F1F1F1" height="48" id="House" rx="2.5" ry="2.5" style="stroke:#181818;stroke-width:0.5;" width="72" x="7" y="49"/><ellipse cx="22" cy="65" fill="#ADD1B2" rx="11" ry="11" style="stroke:#181818;stroke-width:1.0;"/><path d="M24.7656,60.875 Q24.9219,60.6563 25.1094,60.5469 Q25.2969,60.4375 25.5156,60.4375 Q25.8906,60.4375 26.125,60.7031 Q26.3594,60.9531 26.3594,61.5625 L26.3594,63.0156 Q26.3594,63.625 26.125,63.8906 Q25.8906,64.1563 25.5156,64.1563 Q25.1719,64.1563 24.9688,63.9531 Q24.7656,63.7656 24.6563,63.25 Q24.6094,62.8906 24.4219,62.7031 Q24.0938,62.3281 23.4844,62.1094 Q22.875,61.8906 22.25,61.8906 Q21.4844,61.8906 20.8438,62.2188 Q20.2188,62.5469 19.7188,63.2969 Q19.2344,64.0469 19.2344,65.0781 L19.2344,66.1719 Q19.2344,67.4063 20.125,68.2344 Q21.0156,69.0469 22.6094,69.0469 Q23.5469,69.0469 24.2031,68.7969 Q24.5938,68.6406 25.0156,68.2031 Q25.2813,67.9375 25.4219,67.8594 Q25.5781,67.7813 25.7813,67.7813 Q26.1094,67.7813 26.3594,68.0469 Q26.625,68.2969 26.625,68.6406 Q26.625,68.9844 26.2813,69.3906 Q25.7813,69.9688 24.9844,70.2969 Q23.9063,70.75 22.6094,70.75 Q21.0938,70.75 19.8906,70.125 Q18.9063,69.625 18.2188,68.5625 Q17.5313,67.4844 17.5313,66.2031 L17.5313,65.0469 Q17.5313,63.7188 18.1406,62.5781 Q18.7656,61.4219 19.8594,60.8125 Q20.9531,60.1875 22.1875,60.1875 Q22.9219,60.1875 23.5625,60.3594 Q24.2188,60.5156 24.7656,60.875 Z " fill="#000000"/><text fill="#000000" font-family="sans-serif" font-size="14" lengthAdjust="spacing" textLength="40" x="36" y="70.7969">House</text><line style="stroke:#181818;stroke-width:0.5;" x1="8" x2="78" y1="81" y2="81"/><line style="stroke:#181818;stroke-width:0.5;" x1="8" x2="78" y1="89" y2="89"/></g><!--class Location--><g id="elem_Location"><rect fill="#F1F1F1" height="48" id="Location" rx="2.5" ry="2.5" style="stroke:#181818;stroke-width:0.5;" width="86" x="162" y="7"/><ellipse cx="177" cy="23" fill="#ADD1B2" rx="11" ry="11" style="stroke:#181818;stroke-width:1.0;"/><path d="M179.7656,18.875 Q179.9219,18.6563 180.1094,18.5469 Q180.2969,18.4375 180.5156,18.4375 Q180.8906,18.4375 181.125,18.7031 Q181.3594,18.9531 181.3594,19.5625 L181.3594,21.0156 Q181.3594,21.625 181.125,21.8906 Q180.8906,22.1563 180.5156,22.1563 Q180.1719,22.1563 179.9688,21.9531 Q179.7656,21.7656 179.6563,21.25 Q179.6094,20.8906 179.4219,20.7031 Q179.0938,20.3281 178.4844,20.1094 Q177.875,19.8906 177.25,19.8906 Q176.4844,19.8906 175.8438,20.2188 Q175.2188,20.5469 174.7188,21.2969 Q174.2344,22.0469 174.2344,23.0781 L174.2344,24.1719 Q174.2344,25.4063 175.125,26.2344 Q176.0156,27.0469 177.6094,27.0469 Q178.5469,27.0469 179.2031,26.7969 Q179.5938,26.6406 180.0156,26.2031 Q180.2813,25.9375 180.4219,25.8594 Q180.5781,25.7813 180.7813,25.7813 Q181.1094,25.7813 181.3594,26.0469 Q181.625,26.2969 181.625,26.6406 Q181.625,26.9844 181.2813,27.3906 Q180.7813,27.9688 179.9844,28.2969 Q178.9063,28.75 177.6094,28.75 Q176.0938,28.75 174.8906,28.125 Q173.9063,27.625 173.2188,26.5625 Q172.5313,25.4844 172.5313,24.2031 L172.5313,23.0469 Q172.5313,21.7188 173.1406,20.5781 Q173.7656,19.4219 174.8594,18.8125 Q175.9531,18.1875 177.1875,18.1875 Q177.9219,18.1875 178.5625,18.3594 Q179.2188,18.5156 179.7656,18.875 Z " fill="#000000"/><text fill="#000000" font-family="sans-serif" font-size="14" lengthAdjust="spacing" textLength="54" x="191" y="28.7969">Location</text><line style="stroke:#181818;stroke-width:0.5;" x1="163" x2="247" y1="39" y2="39"/><line style="stroke:#181818;stroke-width:0.5;" x1="163" x2="247" y1="47" y2="47"/></g><!--class Room--><g id="elem_Room"><rect fill="#F1F1F1" height="48" id="Room" rx="2.5" ry="2.5" style="stroke:#181818;stroke-width:0.5;" width="69" x="170.5" y="90"/><ellipse cx="185.5" cy="106" fill="#ADD1B2" rx="11" ry="11" style="stroke:#181818;stroke-width:1.0;"/><path d="M188.2656,101.875 Q188.4219,101.6563 188.6094,101.5469 Q188.7969,101.4375 189.0156,101.4375 Q189.3906,101.4375 189.625,101.7031 Q189.8594,101.9531 189.8594,102.5625 L189.8594,104.0156 Q189.8594,104.625 189.625,104.8906 Q189.3906,105.1563 189.0156,105.1563 Q188.6719,105.1563 188.4688,104.9531 Q188.2656,104.7656 188.1563,104.25 Q188.1094,103.8906 187.9219,103.7031 Q187.5938,103.3281 186.9844,103.1094 Q186.375,102.8906 185.75,102.8906 Q184.9844,102.8906 184.3438,103.2188 Q183.7188,103.5469 183.2188,104.2969 Q182.7344,105.0469 182.7344,106.0781 L182.7344,107.1719 Q182.7344,108.4063 183.625,109.2344 Q184.5156,110.0469 186.1094,110.0469 Q187.0469,110.0469 187.7031,109.7969 Q188.0938,109.6406 188.5156,109.2031 Q188.7813,108.9375 188.9219,108.8594 Q189.0781,108.7813 189.2813,108.7813 Q189.6094,108.7813 189.8594,109.0469 Q190.125,109.2969 190.125,109.6406 Q190.125,109.9844 189.7813,110.3906 Q189.2813,110.9688 188.4844,111.2969 Q187.4063,111.75 186.1094,111.75 Q184.5938,111.75 183.3906,111.125 Q182.4063,110.625 181.7188,109.5625 Q181.0313,108.4844 181.0313,107.2031 L181.0313,106.0469 Q181.0313,104.7188 181.6406,103.5781 Q182.2656,102.4219 183.3594,101.8125 Q184.4531,101.1875 185.6875,101.1875 Q186.4219,101.1875 187.0625,101.3594 Q187.7188,101.5156 188.2656,101.875 Z " fill="#000000"/><text fill="#000000" font-family="sans-serif" font-size="14" lengthAdjust="spacing" textLength="37" x="199.5" y="111.7969">Room</text><line style="stroke:#181818;stroke-width:0.5;" x1="171.5" x2="238.5" y1="122" y2="122"/><line style="stroke:#181818;stroke-width:0.5;" x1="171.5" x2="238.5" y1="130" y2="130"/></g><!--class Device--><g id="elem_Device"><rect fill="#F1F1F1" height="48" id="Device" rx="2.5" ry="2.5" style="stroke:#181818;stroke-width:0.5;" width="75" x="393" y="90"/><ellipse cx="408" cy="106" fill="#ADD1B2" rx="11" ry="11" style="stroke:#181818;stroke-width:1.0;"/><path d="M410.7656,101.875 Q410.9219,101.6563 411.1094,101.5469 Q411.2969,101.4375 411.5156,101.4375 Q411.8906,101.4375 412.125,101.7031 Q412.3594,101.9531 412.3594,102.5625 L412.3594,104.0156 Q412.3594,104.625 412.125,104.8906 Q411.8906,105.1563 411.5156,105.1563 Q411.1719,105.1563 410.9688,104.9531 Q410.7656,104.7656 410.6563,104.25 Q410.6094,103.8906 410.4219,103.7031 Q410.0938,103.3281 409.4844,103.1094 Q408.875,102.8906 408.25,102.8906 Q407.4844,102.8906 406.8438,103.2188 Q406.2188,103.5469 405.7188,104.2969 Q405.2344,105.0469 405.2344,106.0781 L405.2344,107.1719 Q405.2344,108.4063 406.125,109.2344 Q407.0156,110.0469 408.6094,110.0469 Q409.5469,110.0469 410.2031,109.7969 Q410.5938,109.6406 411.0156,109.2031 Q411.2813,108.9375 411.4219,108.8594 Q411.5781,108.7813 411.7813,108.7813 Q412.1094,108.7813 412.3594,109.0469 Q412.625,109.2969 412.625,109.6406 Q412.625,109.9844 412.2813,110.3906 Q411.7813,110.9688 410.9844,111.2969 Q409.9063,111.75 408.6094,111.75 Q407.0938,111.75 405.8906,111.125 Q404.9063,110.625 404.2188,109.5625 Q403.5313,108.4844 403.5313,107.2031 L403.5313,106.0469 Q403.5313,104.7188 404.1406,103.5781 Q404.7656,102.4219 405.8594,101.8125 Q406.9531,101.1875 408.1875,101.1875 Q408.9219,101.1875 409.5625,101.3594 Q410.2188,101.5156 410.7656,101.875 Z " fill="#000000"/><text fill="#000000" font-family="sans-serif" font-size="14" lengthAdjust="spacing" textLength="43" x="422" y="111.7969">Device</text><line style="stroke:#181818;stroke-width:0.5;" x1="394" x2="467" y1="122" y2="122"/><line style="stroke:#181818;stroke-width:0.5;" x1="394" x2="467" y1="130" y2="130"/></g><!--class Actuator--><g id="elem_Actuator"><rect fill="#F1F1F1" height="48" id="Actuator" rx="2.5" ry="2.5" style="stroke:#181818;stroke-width:0.5;" width="85" x="573" y="48"/><ellipse cx="588" cy="64" fill="#ADD1B2" rx="11" ry="11" style="stroke:#181818;stroke-width:1.0;"/><path d="M590.7656,59.875 Q590.9219,59.6563 591.1094,59.5469 Q591.2969,59.4375 591.5156,59.4375 Q591.8906,59.4375 592.125,59.7031 Q592.3594,59.9531 592.3594,60.5625 L592.3594,62.0156 Q592.3594,62.625 592.125,62.8906 Q591.8906,63.1563 591.5156,63.1563 Q591.1719,63.1563 590.9688,62.9531 Q590.7656,62.7656 590.6563,62.25 Q590.6094,61.8906 590.4219,61.7031 Q590.0938,61.3281 589.4844,61.1094 Q588.875,60.8906 588.25,60.8906 Q587.4844,60.8906 586.8438,61.2188 Q586.2188,61.5469 585.7188,62.2969 Q585.2344,63.0469 585.2344,64.0781 L585.2344,65.1719 Q585.2344,66.4063 586.125,67.2344 Q587.0156,68.0469 588.6094,68.0469 Q589.5469,68.0469 590.2031,67.7969 Q590.5938,67.6406 591.0156,67.2031 Q591.2813,66.9375 591.4219,66.8594 Q591.5781,66.7813 591.7813,66.7813 Q592.1094,66.7813 592.3594,67.0469 Q592.625,67.2969 592.625,67.6406 Q592.625,67.9844 592.2813,68.3906 Q591.7813,68.9688 590.9844,69.2969 Q589.9063,69.75 588.6094,69.75 Q587.0938,69.75 585.8906,69.125 Q584.9063,68.625 584.2188,67.5625 Q583.5313,66.4844 583.5313,65.2031 L583.5313,64.0469 Q583.5313,62.7188 584.1406,61.5781 Q584.7656,60.4219 585.8594,59.8125 Q586.9531,59.1875 588.1875,59.1875 Q588.9219,59.1875 589.5625,59.3594 Q590.2188,59.5156 590.7656,59.875 Z " fill="#000000"/><text fill="#000000" font-family="sans-serif" font-size="14" lengthAdjust="spacing" textLength="53" x="602" y="69.7969">Actuator</text><line style="stroke:#181818;stroke-width:0.5;" x1="574" x2="657" y1="80" y2="80"/><line style="stroke:#181818;stroke-width:0.5;" x1="574" x2="657" y1="88" y2="88"/></g><!--class Sensor--><g id="elem_Sensor"><rect fill="#F1F1F1" height="48" id="Sensor" rx="2.5" ry="2.5" style="stroke:#181818;stroke-width:0.5;" width="77" x="577" y="131"/><ellipse cx="592" cy="147" fill="#ADD1B2" rx="11" ry="11" style="stroke:#181818;stroke-width:1.0;"/><path d="M594.7656,142.875 Q594.9219,142.6563 595.1094,142.5469 Q595.2969,142.4375 595.5156,142.4375 Q595.8906,142.4375 596.125,142.7031 Q596.3594,142.9531 596.3594,143.5625 L596.3594,145.0156 Q596.3594,145.625 596.125,145.8906 Q595.8906,146.1563 595.5156,146.1563 Q595.1719,146.1563 594.9688,145.9531 Q594.7656,145.7656 594.6563,145.25 Q594.6094,144.8906 594.4219,144.7031 Q594.0938,144.3281 593.4844,144.1094 Q592.875,143.8906 592.25,143.8906 Q591.4844,143.8906 590.8438,144.2188 Q590.2188,144.5469 589.7188,145.2969 Q589.2344,146.0469 589.2344,147.0781 L589.2344,148.1719 Q589.2344,149.4063 590.125,150.2344 Q591.0156,151.0469 592.6094,151.0469 Q593.5469,151.0469 594.2031,150.7969 Q594.5938,150.6406 595.0156,150.2031 Q595.2813,149.9375 595.4219,149.8594 Q595.5781,149.7813 595.7813,149.7813 Q596.1094,149.7813 596.3594,150.0469 Q596.625,150.2969 596.625,150.6406 Q596.625,150.9844 596.2813,151.3906 Q595.7813,151.9688 594.9844,152.2969 Q593.9063,152.75 592.6094,152.75 Q591.0938,152.75 589.8906,152.125 Q588.9063,151.625 588.2188,150.5625 Q587.5313,149.4844 587.5313,148.2031 L587.5313,147.0469 Q587.5313,145.7188 588.1406,144.5781 Q588.7656,143.4219 589.8594,142.8125 Q590.9531,142.1875 592.1875,142.1875 Q592.9219,142.1875 593.5625,142.3594 Q594.2188,142.5156 594.7656,142.875 Z " fill="#000000"/><text fill="#000000" font-family="sans-serif" font-size="14" lengthAdjust="spacing" textLength="45" x="606" y="152.7969">Sensor</text><line style="stroke:#181818;stroke-width:0.5;" x1="578" x2="653" y1="163" y2="163"/><line style="stroke:#181818;stroke-width:0.5;" x1="578" x2="653" y1="171" y2="171"/></g><!--class SensorType--><g id="elem_SensorType"><rect fill="#F1F1F1" height="48" id="SensorType" rx="2.5" ry="2.5" style="stroke:#181818;stroke-width:0.5;" width="109" x="741" y="131"/><ellipse cx="756" cy="147" fill="#ADD1B2" rx="11" ry="11" style="stroke:#181818;stroke-width:1.0;"/><path d="M758.7656,142.875 Q758.9219,142.6563 759.1094,142.5469 Q759.2969,142.4375 759.5156,142.4375 Q759.8906,142.4375 760.125,142.7031 Q760.3594,142.9531 760.3594,143.5625 L760.3594,145.0156 Q760.3594,145.625 760.125,145.8906 Q759.8906,146.1563 759.5156,146.1563 Q759.1719,146.1563 758.9688,145.9531 Q758.7656,145.7656 758.6563,145.25 Q758.6094,144.8906 758.4219,144.7031 Q758.0938,144.3281 757.4844,144.1094 Q756.875,143.8906 756.25,143.8906 Q755.4844,143.8906 754.8438,144.2188 Q754.2188,144.5469 753.7188,145.2969 Q753.2344,146.0469 753.2344,147.0781 L753.2344,148.1719 Q753.2344,149.4063 754.125,150.2344 Q755.0156,151.0469 756.6094,151.0469 Q757.5469,151.0469 758.2031,150.7969 Q758.5938,150.6406 759.0156,150.2031 Q759.2813,149.9375 759.4219,149.8594 Q759.5781,149.7813 759.7813,149.7813 Q760.1094,149.7813 760.3594,150.0469 Q760.625,150.2969 760.625,150.6406 Q760.625,150.9844 760.2813,151.3906 Q759.7813,151.9688 758.9844,152.2969 Q757.9063,152.75 756.6094,152.75 Q755.0938,152.75 753.8906,152.125 Q752.9063,151.625 752.2188,150.5625 Q751.5313,149.4844 751.5313,148.2031 L751.5313,147.0469 Q751.5313,145.7188 752.1406,144.5781 Q752.7656,143.4219 753.8594,142.8125 Q754.9531,142.1875 756.1875,142.1875 Q756.9219,142.1875 757.5625,142.3594 Q758.2188,142.5156 758.7656,142.875 Z " fill="#000000"/><text fill="#000000" font-family="sans-serif" font-size="14" lengthAdjust="spacing" textLength="77" x="770" y="152.7969">SensorType</text><line style="stroke:#181818;stroke-width:0.5;" x1="742" x2="849" y1="163" y2="163"/><line style="stroke:#181818;stroke-width:0.5;" x1="742" x2="849" y1="171" y2="171"/></g><!--link House to Location--><g id="link_House_Location"><path codeLine="5" d="M79.11,63.78 C103.49,57.38 130.2868,50.354 156.0668,43.584 " fill="none" id="House-to-Location" style="stroke:#181818;stroke-width:1.0;"/><polygon fill="#181818" points="161.87,42.06,152.1492,40.4771,157.034,43.33,154.1811,48.2148,161.87,42.06" style="stroke:#181818;stroke-width:1.0;"/><text fill="#000000" font-family="sans-serif" font-size="13" lengthAdjust="spacing" textLength="21" x="110" y="47.0283">has</text><text fill="#000000" font-family="sans-serif" font-size="13" lengthAdjust="spacing" textLength="7" x="86.9082" y="77.6952">1</text><text fill="#000000" font-family="sans-serif" font-size="13" lengthAdjust="spacing" textLength="7" x="146.8555" y="59.4752">1</text></g><!--link House to Room--><g id="link_House_Room"><path codeLine="6" d="M79.27,84.42 C88.87,87.37 99.3,90.44 109,93 C129.25,98.34 146.2978,102.2083 164.5578,106.0383 " fill="none" id="House-to-Room" style="stroke:#181818;stroke-width:1.0;"/><polygon fill="#181818" points="170.43,107.27,162.4428,101.5077,165.5365,106.2436,160.8005,109.3373,170.43,107.27" style="stroke:#181818;stroke-width:1.0;"/><text fill="#000000" font-family="sans-serif" font-size="13" lengthAdjust="spacing" textLength="21" x="110" y="89.0283">has</text><text fill="#000000" font-family="sans-serif" font-size="13" lengthAdjust="spacing" textLength="7" x="87.0997" y="102.3987">1</text><text fill="#000000" font-family="sans-serif" font-size="13" lengthAdjust="spacing" textLength="5" x="157.3209" y="121.7173">*</text></g><!--link Room to Device--><g id="link_Room_Device"><path codeLine="7" d="M239.94,114 C281.1,114 344.2,114 386.63,114 " fill="none" id="Room-to-Device" style="stroke:#181818;stroke-width:1.0;"/><polygon fill="#181818" points="392.63,114,383.63,110,387.63,114,383.63,118,392.63,114" style="stroke:#181818;stroke-width:1.0;"/><text fill="#000000" font-family="sans-serif" font-size="13" lengthAdjust="spacing" textLength="21" x="310" y="110.0283">has</text><text fill="#000000" font-family="sans-serif" font-size="13" lengthAdjust="spacing" textLength="7" x="247.5079" y="129.7304">1</text><text fill="#000000" font-family="sans-serif" font-size="13" lengthAdjust="spacing" textLength="5" x="379.9345" y="129.6764">*</text></g><!--link Device to Actuator--><g id="link_Device_Actuator"><path codeLine="8" d="M468.09,105.6 C498.34,98.66 535.4419,90.1416 567.0019,82.9016 " fill="none" id="Device-to-Actuator" style="stroke:#181818;stroke-width:1.0;"/><polygon fill="#181818" points="572.85,81.56,563.1835,79.6736,567.9766,82.678,564.9722,87.4711,572.85,81.56" style="stroke:#181818;stroke-width:1.0;"/><text fill="#000000" font-family="sans-serif" font-size="13" lengthAdjust="spacing" textLength="43" x="499" y="86.0283">acts as</text><text fill="#000000" font-family="sans-serif" font-size="13" lengthAdjust="spacing" textLength="7" x="475.9228" y="119.6751">1</text><text fill="#000000" font-family="sans-serif" font-size="13" lengthAdjust="spacing" textLength="5" x="560.0898" y="98.7174">*</text></g><!--link Device to Sensor--><g id="link_Device_Sensor"><path codeLine="9" d="M468.23,125.86 C477.86,128.75 488.27,131.67 498,134 C524.08,140.25 547.9276,144.6283 570.8376,148.3483 " fill="none" id="Device-to-Sensor" style="stroke:#181818;stroke-width:1.0;"/><polygon fill="#181818" points="576.76,149.31,568.5175,143.9192,571.8246,148.5086,567.2352,151.8158,576.76,149.31" style="stroke:#181818;stroke-width:1.0;"/><text fill="#000000" font-family="sans-serif" font-size="13" lengthAdjust="spacing" textLength="43" x="499" y="130.0283">acts as</text><text fill="#000000" font-family="sans-serif" font-size="13" lengthAdjust="spacing" textLength="7" x="476.0895" y="143.7972">1</text><text fill="#000000" font-family="sans-serif" font-size="13" lengthAdjust="spacing" textLength="5" x="563.8986" y="163.9017">*</text></g><!--link Sensor to SensorType--><g id="link_Sensor_SensorType"><path codeLine="10" d="M654.25,155 C679.46,155 706.98,155 734.94,155 " fill="none" id="Sensor-to-SensorType" style="stroke:#181818;stroke-width:1.0;"/><polygon fill="#181818" points="740.94,155,731.94,151,735.94,155,731.94,159,740.94,155" style="stroke:#181818;stroke-width:1.0;"/><text fill="#000000" font-family="sans-serif" font-size="13" lengthAdjust="spacing" textLength="21" x="689" y="151.0283">has</text><text fill="#000000" font-family="sans-serif" font-size="13" lengthAdjust="spacing" textLength="7" x="662.0398" y="170.6223">1</text><text fill="#000000" font-family="sans-serif" font-size="13" lengthAdjust="spacing" textLength="7" x="726.1382" y="170.1901">1</text></g><!--SRC=[ROr12i8m44NtESMGZI3KqcqNWk32XIlh1OOqji4a4vAfqDlRrbHKtFq_xtrcqpE7L9TbiEXvS7Qdo9NAOaf5Qx2Bw8JLDmOcYARh6LeJjM93NgIxyG4d0mAgEtQwuT5gcB4G9ngI1bb9A8ezBE5C2kSXrD1Z-Z7aLiA5o6Mun1VByAWVHkcCS_aS7nGFo1Gd0nKd-6yrsgSl9n_UJhKwrp6ityGJ]--></g></svg>