<?xml version="1.0" encoding="us-ascii" standalone="no"?><svg xmlns="http://www.w3.org/2000/svg" xmlns:xlink="http://www.w3.org/1999/xlink" contentStyleType="text/css" height="1155px" preserveAspectRatio="none" style="width:1835px;height:1155px;background:#FFFFFF;" version="1.1" viewBox="0 0 1835 1155" width="1835px" zoomAndPan="magnify"><defs/><g><!--cluster domain--><g id="cluster_domain"><path d="M16.5,4 L68.5,4 A3.75,3.75 0 0 1 71,6.5 L78,28.6211 L1825.5,28.6211 A2.5,2.5 0 0 1 1828,31.1211 L1828,1145.5 A2.5,2.5 0 0 1 1825.5,1148 L16.5,1148 A2.5,2.5 0 0 1 14,1145.5 L14,6.5 A2.5,2.5 0 0 1 16.5,4 " fill="none" style="stroke:#000000;stroke-width:1.5;"/><line style="stroke:#000000;stroke-width:1.5;" x1="14" x2="78" y1="28.6211" y2="28.6211"/><text fill="#000000" font-family="sans-serif" font-size="14" font-weight="bold" lengthAdjust="spacing" textLength="51" x="18" y="21.1074">domain</text></g><!--cluster Sensor--><g id="cluster_Sensor"><path d="M24.5,33 L75.5,33 A3.75,3.75 0 0 1 78,35.5 L85,57.6211 L1817.5,57.6211 A2.5,2.5 0 0 1 1820,60.1211 L1820,778.5 A2.5,2.5 0 0 1 1817.5,781 L24.5,781 A2.5,2.5 0 0 1 22,778.5 L22,35.5 A2.5,2.5 0 0 1 24.5,33 " fill="none" style="stroke:#000000;stroke-width:1.5;"/><line style="stroke:#000000;stroke-width:1.5;" x1="22" x2="85" y1="57.6211" y2="57.6211"/><text fill="#000000" font-family="sans-serif" font-size="14" font-weight="bold" lengthAdjust="spacing" textLength="50" x="26" y="50.1074">Sensor</text></g><!--cluster SwitchSensor--><g id="cluster_SwitchSensor"><path d="M298.5,174 L395.5,174 A3.75,3.75 0 0 1 398,176.5 L405,198.6211 L1555.5,198.6211 A2.5,2.5 0 0 1 1558,201.1211 L1558,747.5 A2.5,2.5 0 0 1 1555.5,750 L298.5,750 A2.5,2.5 0 0 1 296,747.5 L296,176.5 A2.5,2.5 0 0 1 298.5,174 " fill="none" style="stroke:#000000;stroke-width:1.5;"/><line style="stroke:#000000;stroke-width:1.5;" x1="296" x2="405" y1="198.6211" y2="198.6211"/><text fill="#000000" font-family="sans-serif" font-size="14" font-weight="bold" lengthAdjust="spacing" textLength="96" x="300" y="191.1074">SwitchSensor</text></g><!--cluster ddd--><g id="cluster_ddd"><path d="M1102.5,800 L1130.5,800 A3.75,3.75 0 0 1 1133,802.5 L1140,824.6211 L1241.5,824.6211 A2.5,2.5 0 0 1 1244,827.1211 L1244,1137.5 A2.5,2.5 0 0 1 1241.5,1140 L1102.5,1140 A2.5,2.5 0 0 1 1100,1137.5 L1100,802.5 A2.5,2.5 0 0 1 1102.5,800 " fill="none" style="stroke:#000000;stroke-width:1.5;"/><line style="stroke:#000000;stroke-width:1.5;" x1="1100" x2="1140" y1="824.6211" y2="824.6211"/><text fill="#000000" font-family="sans-serif" font-size="14" font-weight="bold" lengthAdjust="spacing" textLength="27" x="1104" y="817.1074">ddd</text></g><!--class FactorySensor--><g id="elem_FactorySensor"><rect codeLine="4" fill="#F1F1F1" height="66.6211" id="FactorySensor" rx="2.5" ry="2.5" style="stroke:#181818;stroke-width:0.5;" width="258" x="30" y="338"/><ellipse cx="108.25" cy="354" fill="#B4A7E5" rx="11" ry="11" style="stroke:#181818;stroke-width:1.0;"/><path d="M109.2031,350.6406 L109.2031,357.2969 L110.9219,357.2969 Q111.5313,357.2969 111.7969,357.5313 Q112.0625,357.7656 112.0625,358.1563 Q112.0625,358.5313 111.7969,358.7656 Q111.5313,359 110.9219,359 L105.7813,359 Q105.1719,359 104.9063,358.7656 Q104.6406,358.5313 104.6406,358.1406 Q104.6406,357.7656 104.9063,357.5313 Q105.1719,357.2969 105.7813,357.2969 L107.5,357.2969 L107.5,350.6406 L105.7813,350.6406 Q105.1719,350.6406 104.9063,350.4063 Q104.6406,350.1719 104.6406,349.7813 Q104.6406,349.4063 104.9063,349.1719 Q105.1719,348.9375 105.7813,348.9375 L110.9219,348.9375 Q111.5313,348.9375 111.7969,349.1719 Q112.0625,349.4063 112.0625,349.7813 Q112.0625,350.1719 111.7969,350.4063 Q111.5313,350.6406 110.9219,350.6406 L109.2031,350.6406 Z " fill="#000000"/><text fill="#000000" font-family="sans-serif" font-size="14" font-style="italic" lengthAdjust="spacing" textLength="93" x="128.75" y="359.7969">FactorySensor</text><line style="stroke:#181818;stroke-width:0.5;" x1="31" x2="287" y1="370" y2="370"/><line style="stroke:#181818;stroke-width:0.5;" x1="31" x2="287" y1="378" y2="378"/><ellipse cx="41" cy="392.8105" fill="#84BE84" rx="3" ry="3" style="stroke:#038048;stroke-width:1.0;"/><text fill="#000000" font-family="sans-serif" font-size="14" lengthAdjust="spacing" textLength="232" x="50" y="397.1074">create(Object... parameters): Sensor</text></g><!--class ImplFactorySensor--><g id="elem_ImplFactorySensor"><rect codeLine="8" fill="#F1F1F1" height="66.6211" id="ImplFactorySensor" rx="2.5" ry="2.5" style="stroke:#181818;stroke-width:0.5;" width="258" x="430" y="62"/><ellipse cx="495.75" cy="78" fill="#ADD1B2" rx="11" ry="11" style="stroke:#181818;stroke-width:1.0;"/><path d="M498.5156,73.875 Q498.6719,73.6563 498.8594,73.5469 Q499.0469,73.4375 499.2656,73.4375 Q499.6406,73.4375 499.875,73.7031 Q500.1094,73.9531 500.1094,74.5625 L500.1094,76.0156 Q500.1094,76.625 499.875,76.8906 Q499.6406,77.1563 499.2656,77.1563 Q498.9219,77.1563 498.7188,76.9531 Q498.5156,76.7656 498.4063,76.25 Q498.3594,75.8906 498.1719,75.7031 Q497.8438,75.3281 497.2344,75.1094 Q496.625,74.8906 496,74.8906 Q495.2344,74.8906 494.5938,75.2188 Q493.9688,75.5469 493.4688,76.2969 Q492.9844,77.0469 492.9844,78.0781 L492.9844,79.1719 Q492.9844,80.4063 493.875,81.2344 Q494.7656,82.0469 496.3594,82.0469 Q497.2969,82.0469 497.9531,81.7969 Q498.3438,81.6406 498.7656,81.2031 Q499.0313,80.9375 499.1719,80.8594 Q499.3281,80.7813 499.5313,80.7813 Q499.8594,80.7813 500.1094,81.0469 Q500.375,81.2969 500.375,81.6406 Q500.375,81.9844 500.0313,82.3906 Q499.5313,82.9688 498.7344,83.2969 Q497.6563,83.75 496.3594,83.75 Q494.8438,83.75 493.6406,83.125 Q492.6563,82.625 491.9688,81.5625 Q491.2813,80.4844 491.2813,79.2031 L491.2813,78.0469 Q491.2813,76.7188 491.8906,75.5781 Q492.5156,74.4219 493.6094,73.8125 Q494.7031,73.1875 495.9375,73.1875 Q496.6719,73.1875 497.3125,73.3594 Q497.9688,73.5156 498.5156,73.875 Z " fill="#000000"/><text fill="#000000" font-family="sans-serif" font-size="14" lengthAdjust="spacing" textLength="118" x="516.25" y="83.7969">ImplFactorySensor</text><line style="stroke:#181818;stroke-width:0.5;" x1="431" x2="687" y1="94" y2="94"/><line style="stroke:#181818;stroke-width:0.5;" x1="431" x2="687" y1="102" y2="102"/><ellipse cx="441" cy="116.8105" fill="#84BE84" rx="3" ry="3" style="stroke:#038048;stroke-width:1.0;"/><text fill="#000000" font-family="sans-serif" font-size="14" lengthAdjust="spacing" textLength="232" x="450" y="121.1074">create(Object... parameters): Sensor</text></g><!--class Sensor--><g id="elem_Sensor"><rect codeLine="12" fill="#F1F1F1" height="178.3477" id="Sensor" rx="2.5" ry="2.5" style="stroke:#181818;stroke-width:0.5;" width="244" x="1568" y="595"/><ellipse cx="1663.25" cy="611" fill="#B4A7E5" rx="11" ry="11" style="stroke:#181818;stroke-width:1.0;"/><path d="M1664.2031,607.6406 L1664.2031,614.2969 L1665.9219,614.2969 Q1666.5313,614.2969 1666.7969,614.5313 Q1667.0625,614.7656 1667.0625,615.1563 Q1667.0625,615.5313 1666.7969,615.7656 Q1666.5313,616 1665.9219,616 L1660.7813,616 Q1660.1719,616 1659.9063,615.7656 Q1659.6406,615.5313 1659.6406,615.1406 Q1659.6406,614.7656 1659.9063,614.5313 Q1660.1719,614.2969 1660.7813,614.2969 L1662.5,614.2969 L1662.5,607.6406 L1660.7813,607.6406 Q1660.1719,607.6406 1659.9063,607.4063 Q1659.6406,607.1719 1659.6406,606.7813 Q1659.6406,606.4063 1659.9063,606.1719 Q1660.1719,605.9375 1660.7813,605.9375 L1665.9219,605.9375 Q1666.5313,605.9375 1666.7969,606.1719 Q1667.0625,606.4063 1667.0625,606.7813 Q1667.0625,607.1719 1666.7969,607.4063 Q1666.5313,607.6406 1665.9219,607.6406 L1664.2031,607.6406 Z " fill="#000000"/><text fill="#000000" font-family="sans-serif" font-size="14" font-style="italic" lengthAdjust="spacing" textLength="45" x="1683.75" y="616.7969">Sensor</text><line style="stroke:#181818;stroke-width:0.5;" x1="1569" x2="1811" y1="627" y2="627"/><line style="stroke:#181818;stroke-width:0.5;" x1="1569" x2="1811" y1="635" y2="635"/><ellipse cx="1579" cy="649.8105" fill="#84BE84" rx="3" ry="3" style="stroke:#038048;stroke-width:1.0;"/><text fill="#000000" font-family="sans-serif" font-size="14" lengthAdjust="spacing" textLength="109" x="1588" y="654.1074">getID(): SensorID</text><ellipse cx="1579" cy="668.4316" fill="#84BE84" rx="3" ry="3" style="stroke:#038048;stroke-width:1.0;"/><text fill="#000000" font-family="sans-serif" font-size="14" lengthAdjust="spacing" textLength="155" x="1588" y="672.7285">getName(): SensorName</text><ellipse cx="1579" cy="687.0527" fill="#84BE84" rx="3" ry="3" style="stroke:#038048;stroke-width:1.0;"/><text fill="#000000" font-family="sans-serif" font-size="14" lengthAdjust="spacing" textLength="172" x="1588" y="691.3496">getModelPath(): ModelPath</text><ellipse cx="1579" cy="705.6738" fill="#84BE84" rx="3" ry="3" style="stroke:#038048;stroke-width:1.0;"/><text fill="#000000" font-family="sans-serif" font-size="14" lengthAdjust="spacing" textLength="218" x="1588" y="709.9707">getSensorTypeID(): SensorTypeID</text><ellipse cx="1579" cy="724.2949" fill="#84BE84" rx="3" ry="3" style="stroke:#038048;stroke-width:1.0;"/><text fill="#000000" font-family="sans-serif" font-size="14" lengthAdjust="spacing" textLength="150" x="1588" y="728.5918">getDeviceID(): DeviceID</text><ellipse cx="1579" cy="742.916" fill="#84BE84" rx="3" ry="3" style="stroke:#038048;stroke-width:1.0;"/><text fill="#000000" font-family="sans-serif" font-size="14" lengthAdjust="spacing" textLength="151" x="1588" y="747.2129">getValue(): ValueObject</text><ellipse cx="1579" cy="761.5371" fill="#84BE84" rx="3" ry="3" style="stroke:#038048;stroke-width:1.0;"/><text fill="#000000" font-family="sans-serif" font-size="14" lengthAdjust="spacing" textLength="104" x="1588" y="765.834">toString(): String</text></g><!--class SwitchSensor--><g id="elem_SwitchSensor"><rect codeLine="25" fill="#F1F1F1" height="337.2383" id="SwitchSensor" rx="2.5" ry="2.5" style="stroke:#181818;stroke-width:0.5;" width="759" x="580.5" y="203"/><ellipse cx="913.25" cy="233.2715" fill="#ADD1B2" rx="11" ry="11" style="stroke:#181818;stroke-width:1.0;"/><path d="M916.0156,229.1465 Q916.1719,228.9277 916.3594,228.8184 Q916.5469,228.709 916.7656,228.709 Q917.1406,228.709 917.375,228.9746 Q917.6094,229.2246 917.6094,229.834 L917.6094,231.2871 Q917.6094,231.8965 917.375,232.1621 Q917.1406,232.4277 916.7656,232.4277 Q916.4219,232.4277 916.2188,232.2246 Q916.0156,232.0371 915.9063,231.5215 Q915.8594,231.1621 915.6719,230.9746 Q915.3438,230.5996 914.7344,230.3809 Q914.125,230.1621 913.5,230.1621 Q912.7344,230.1621 912.0938,230.4902 Q911.4688,230.8184 910.9688,231.5684 Q910.4844,232.3184 910.4844,233.3496 L910.4844,234.4434 Q910.4844,235.6777 911.375,236.5059 Q912.2656,237.3184 913.8594,237.3184 Q914.7969,237.3184 915.4531,237.0684 Q915.8438,236.9121 916.2656,236.4746 Q916.5313,236.209 916.6719,236.1309 Q916.8281,236.0527 917.0313,236.0527 Q917.3594,236.0527 917.6094,236.3184 Q917.875,236.5684 917.875,236.9121 Q917.875,237.2559 917.5313,237.6621 Q917.0313,238.2402 916.2344,238.5684 Q915.1563,239.0215 913.8594,239.0215 Q912.3438,239.0215 911.1406,238.3965 Q910.1563,237.8965 909.4688,236.834 Q908.7813,235.7559 908.7813,234.4746 L908.7813,233.3184 Q908.7813,231.9902 909.3906,230.8496 Q910.0156,229.6934 911.1094,229.084 Q912.2031,228.459 913.4375,228.459 Q914.1719,228.459 914.8125,228.6309 Q915.4688,228.7871 916.0156,229.1465 Z " fill="#000000"/><text fill="#000000" font-family="sans-serif" font-size="12" font-style="italic" lengthAdjust="spacing" textLength="43" x="954.75" y="220.9492">&#171;entity&#187;</text><text fill="#000000" font-family="sans-serif" font-size="12" font-style="italic" lengthAdjust="spacing" textLength="40" x="956.25" y="236.9102">&#171;Root&#187;</text><text fill="#000000" font-family="sans-serif" font-size="14" lengthAdjust="spacing" textLength="85" x="933.75" y="255.0293">SwitchSensor</text><line style="stroke:#181818;stroke-width:0.5;" x1="581.5" x2="1338.5" y1="263.543" y2="263.543"/><rect fill="none" height="6" style="stroke:#C82930;stroke-width:1.0;" width="6" x="588.5" y="275.3535"/><text fill="#000000" font-family="sans-serif" font-size="14" lengthAdjust="spacing" textLength="130" x="600.5" y="282.6504">_sensorID: SensorID</text><rect fill="none" height="6" style="stroke:#C82930;stroke-width:1.0;" width="6" x="588.5" y="293.9746"/><text fill="#000000" font-family="sans-serif" font-size="14" lengthAdjust="spacing" textLength="176" x="600.5" y="301.2715">_sensorName: SensorName</text><rect fill="none" height="6" style="stroke:#C82930;stroke-width:1.0;" width="6" x="588.5" y="312.5957"/><text fill="#000000" font-family="sans-serif" font-size="14" lengthAdjust="spacing" textLength="194" x="600.5" y="319.8926">_sensorTypeID: SensorTypeID</text><rect fill="none" height="6" style="stroke:#C82930;stroke-width:1.0;" width="6" x="588.5" y="331.2168"/><text fill="#000000" font-family="sans-serif" font-size="14" lengthAdjust="spacing" textLength="150" x="600.5" y="338.5137">_modelPath: ModelPath</text><rect fill="none" height="6" style="stroke:#C82930;stroke-width:1.0;" width="6" x="588.5" y="349.8379"/><text fill="#000000" font-family="sans-serif" font-size="14" lengthAdjust="spacing" textLength="126" x="600.5" y="357.1348">_deviceID: DeviceID</text><rect fill="none" height="6" style="stroke:#C82930;stroke-width:1.0;" width="6" x="588.5" y="368.459"/><text fill="#000000" font-family="sans-serif" font-size="14" lengthAdjust="spacing" textLength="171" x="600.5" y="375.7559">_value: SwitchSensorValue</text><line style="stroke:#181818;stroke-width:0.5;" x1="581.5" x2="1338.5" y1="383.2695" y2="383.2695"/><ellipse cx="591.5" cy="398.0801" fill="#84BE84" rx="3" ry="3" style="stroke:#038048;stroke-width:1.0;"/><text fill="#000000" font-family="sans-serif" font-size="14" lengthAdjust="spacing" textLength="733" x="600.5" y="402.377">SwitchSensor(sensorTypeID: SensorTypeID, modelPath: ModelPath, deviceID: DeviceID, sensorName: SensorName)</text><ellipse cx="591.5" cy="416.7012" fill="#84BE84" rx="3" ry="3" style="stroke:#038048;stroke-width:1.0;"/><text fill="#000000" font-family="sans-serif" font-size="14" lengthAdjust="spacing" textLength="189" x="600.5" y="420.998">getSensorTypeString(): String</text><ellipse cx="591.5" cy="435.3223" fill="#84BE84" rx="3" ry="3" style="stroke:#038048;stroke-width:1.0;"/><text fill="#000000" font-family="sans-serif" font-size="14" lengthAdjust="spacing" textLength="109" x="600.5" y="439.6191">getID(): SensorID</text><ellipse cx="591.5" cy="453.9434" fill="#84BE84" rx="3" ry="3" style="stroke:#038048;stroke-width:1.0;"/><text fill="#000000" font-family="sans-serif" font-size="14" lengthAdjust="spacing" textLength="155" x="600.5" y="458.2402">getName(): SensorName</text><ellipse cx="591.5" cy="472.5645" fill="#84BE84" rx="3" ry="3" style="stroke:#038048;stroke-width:1.0;"/><text fill="#000000" font-family="sans-serif" font-size="14" lengthAdjust="spacing" textLength="172" x="600.5" y="476.8613">getModelPath(): ModelPath</text><ellipse cx="591.5" cy="491.1855" fill="#84BE84" rx="3" ry="3" style="stroke:#038048;stroke-width:1.0;"/><text fill="#000000" font-family="sans-serif" font-size="14" lengthAdjust="spacing" textLength="218" x="600.5" y="495.4824">getSensorTypeID(): SensorTypeID</text><ellipse cx="591.5" cy="509.8066" fill="#84BE84" rx="3" ry="3" style="stroke:#038048;stroke-width:1.0;"/><text fill="#000000" font-family="sans-serif" font-size="14" lengthAdjust="spacing" textLength="150" x="600.5" y="514.1035">getDeviceID(): DeviceID</text><ellipse cx="591.5" cy="528.4277" fill="#84BE84" rx="3" ry="3" style="stroke:#038048;stroke-width:1.0;"/><text fill="#000000" font-family="sans-serif" font-size="14" lengthAdjust="spacing" textLength="151" x="600.5" y="532.7246">getValue(): ValueObject</text></g><!--class SensorName--><g id="elem_SensorName"><rect codeLine="42" fill="#F1F1F1" height="116.4453" id="SensorName" rx="2.5" ry="2.5" style="stroke:#181818;stroke-width:0.5;" width="193" x="304.5" y="626"/><ellipse cx="356.25" cy="648.291" fill="#ADD1B2" rx="11" ry="11" style="stroke:#181818;stroke-width:1.0;"/><path d="M359.0156,644.166 Q359.1719,643.9473 359.3594,643.8379 Q359.5469,643.7285 359.7656,643.7285 Q360.1406,643.7285 360.375,643.9941 Q360.6094,644.2441 360.6094,644.8535 L360.6094,646.3066 Q360.6094,646.916 360.375,647.1816 Q360.1406,647.4473 359.7656,647.4473 Q359.4219,647.4473 359.2188,647.2441 Q359.0156,647.0566 358.9063,646.541 Q358.8594,646.1816 358.6719,645.9941 Q358.3438,645.6191 357.7344,645.4004 Q357.125,645.1816 356.5,645.1816 Q355.7344,645.1816 355.0938,645.5098 Q354.4688,645.8379 353.9688,646.5879 Q353.4844,647.3379 353.4844,648.3691 L353.4844,649.4629 Q353.4844,650.6973 354.375,651.5254 Q355.2656,652.3379 356.8594,652.3379 Q357.7969,652.3379 358.4531,652.0879 Q358.8438,651.9316 359.2656,651.4941 Q359.5313,651.2285 359.6719,651.1504 Q359.8281,651.0723 360.0313,651.0723 Q360.3594,651.0723 360.6094,651.3379 Q360.875,651.5879 360.875,651.9316 Q360.875,652.2754 360.5313,652.6816 Q360.0313,653.2598 359.2344,653.5879 Q358.1563,654.041 356.8594,654.041 Q355.3438,654.041 354.1406,653.416 Q353.1563,652.916 352.4688,651.8535 Q351.7813,650.7754 351.7813,649.4941 L351.7813,648.3379 Q351.7813,647.0098 352.3906,645.8691 Q353.0156,644.7129 354.1094,644.1035 Q355.2031,643.4785 356.4375,643.4785 Q357.1719,643.4785 357.8125,643.6504 Q358.4688,643.8066 359.0156,644.166 Z " fill="#000000"/><text fill="#000000" font-family="sans-serif" font-size="12" font-style="italic" lengthAdjust="spacing" textLength="82" x="376.25" y="643.9492">&#171;ValueObject&#187;</text><text fill="#000000" font-family="sans-serif" font-size="14" lengthAdjust="spacing" textLength="81" x="376.75" y="662.0684">SensorName</text><line style="stroke:#181818;stroke-width:0.5;" x1="305.5" x2="496.5" y1="670.582" y2="670.582"/><rect fill="none" height="6" style="stroke:#C82930;stroke-width:1.0;" width="6" x="312.5" y="682.3926"/><text fill="#000000" font-family="sans-serif" font-size="14" lengthAdjust="spacing" textLength="88" x="324.5" y="689.6895">_name: String</text><line style="stroke:#181818;stroke-width:0.5;" x1="305.5" x2="496.5" y1="697.2031" y2="697.2031"/><ellipse cx="315.5" cy="712.0137" fill="#84BE84" rx="3" ry="3" style="stroke:#038048;stroke-width:1.0;"/><text fill="#000000" font-family="sans-serif" font-size="14" lengthAdjust="spacing" textLength="167" x="324.5" y="716.3105">SensorName(String name)</text><ellipse cx="315.5" cy="730.6348" fill="#84BE84" rx="3" ry="3" style="stroke:#038048;stroke-width:1.0;"/><text fill="#000000" font-family="sans-serif" font-size="14" lengthAdjust="spacing" textLength="115" x="324.5" y="734.9316">getName() : String</text></g><!--class SensorID--><g id="elem_SensorID"><rect codeLine="48" fill="#F1F1F1" height="116.4453" id="SensorID" rx="2.5" ry="2.5" style="stroke:#181818;stroke-width:0.5;" width="146" x="1404" y="626"/><ellipse cx="1440.15" cy="648.291" fill="#ADD1B2" rx="11" ry="11" style="stroke:#181818;stroke-width:1.0;"/><path d="M1442.9156,644.166 Q1443.0719,643.9473 1443.2594,643.8379 Q1443.4469,643.7285 1443.6656,643.7285 Q1444.0406,643.7285 1444.275,643.9941 Q1444.5094,644.2441 1444.5094,644.8535 L1444.5094,646.3066 Q1444.5094,646.916 1444.275,647.1816 Q1444.0406,647.4473 1443.6656,647.4473 Q1443.3219,647.4473 1443.1188,647.2441 Q1442.9156,647.0566 1442.8063,646.541 Q1442.7594,646.1816 1442.5719,645.9941 Q1442.2438,645.6191 1441.6344,645.4004 Q1441.025,645.1816 1440.4,645.1816 Q1439.6344,645.1816 1438.9938,645.5098 Q1438.3688,645.8379 1437.8688,646.5879 Q1437.3844,647.3379 1437.3844,648.3691 L1437.3844,649.4629 Q1437.3844,650.6973 1438.275,651.5254 Q1439.1656,652.3379 1440.7594,652.3379 Q1441.6969,652.3379 1442.3531,652.0879 Q1442.7438,651.9316 1443.1656,651.4941 Q1443.4313,651.2285 1443.5719,651.1504 Q1443.7281,651.0723 1443.9313,651.0723 Q1444.2594,651.0723 1444.5094,651.3379 Q1444.775,651.5879 1444.775,651.9316 Q1444.775,652.2754 1444.4313,652.6816 Q1443.9313,653.2598 1443.1344,653.5879 Q1442.0563,654.041 1440.7594,654.041 Q1439.2438,654.041 1438.0406,653.416 Q1437.0563,652.916 1436.3688,651.8535 Q1435.6813,650.7754 1435.6813,649.4941 L1435.6813,648.3379 Q1435.6813,647.0098 1436.2906,645.8691 Q1436.9156,644.7129 1438.0094,644.1035 Q1439.1031,643.4785 1440.3375,643.4785 Q1441.0719,643.4785 1441.7125,643.6504 Q1442.3688,643.8066 1442.9156,644.166 Z " fill="#000000"/><text fill="#000000" font-family="sans-serif" font-size="12" font-style="italic" lengthAdjust="spacing" textLength="71" x="1456.85" y="643.9492">&#171;DomainID&#187;</text><text fill="#000000" font-family="sans-serif" font-size="14" lengthAdjust="spacing" textLength="58" x="1463.35" y="662.0684">SensorID</text><line style="stroke:#181818;stroke-width:0.5;" x1="1405" x2="1549" y1="670.582" y2="670.582"/><rect fill="none" height="6" style="stroke:#C82930;stroke-width:1.0;" width="6" x="1412" y="682.3926"/><text fill="#000000" font-family="sans-serif" font-size="14" lengthAdjust="spacing" textLength="64" x="1424" y="689.6895">_id: String</text><line style="stroke:#181818;stroke-width:0.5;" x1="1405" x2="1549" y1="697.2031" y2="697.2031"/><ellipse cx="1415" cy="712.0137" fill="#84BE84" rx="3" ry="3" style="stroke:#038048;stroke-width:1.0;"/><text fill="#000000" font-family="sans-serif" font-size="14" lengthAdjust="spacing" textLength="120" x="1424" y="716.3105">SensorID(String id)</text><ellipse cx="1415" cy="730.6348" fill="#84BE84" rx="3" ry="3" style="stroke:#038048;stroke-width:1.0;"/><text fill="#000000" font-family="sans-serif" font-size="14" lengthAdjust="spacing" textLength="92" x="1424" y="734.9316">getID() : String</text></g><!--class SwitchSensorValue--><g id="elem_SwitchSensorValue"><rect codeLine="54" fill="#F1F1F1" height="116.4453" id="SwitchSensorValue" rx="2.5" ry="2.5" style="stroke:#181818;stroke-width:0.5;" width="246" x="516" y="626"/><ellipse cx="574.25" cy="648.291" fill="#ADD1B2" rx="11" ry="11" style="stroke:#181818;stroke-width:1.0;"/><path d="M577.0156,644.166 Q577.1719,643.9473 577.3594,643.8379 Q577.5469,643.7285 577.7656,643.7285 Q578.1406,643.7285 578.375,643.9941 Q578.6094,644.2441 578.6094,644.8535 L578.6094,646.3066 Q578.6094,646.916 578.375,647.1816 Q578.1406,647.4473 577.7656,647.4473 Q577.4219,647.4473 577.2188,647.2441 Q577.0156,647.0566 576.9063,646.541 Q576.8594,646.1816 576.6719,645.9941 Q576.3438,645.6191 575.7344,645.4004 Q575.125,645.1816 574.5,645.1816 Q573.7344,645.1816 573.0938,645.5098 Q572.4688,645.8379 571.9688,646.5879 Q571.4844,647.3379 571.4844,648.3691 L571.4844,649.4629 Q571.4844,650.6973 572.375,651.5254 Q573.2656,652.3379 574.8594,652.3379 Q575.7969,652.3379 576.4531,652.0879 Q576.8438,651.9316 577.2656,651.4941 Q577.5313,651.2285 577.6719,651.1504 Q577.8281,651.0723 578.0313,651.0723 Q578.3594,651.0723 578.6094,651.3379 Q578.875,651.5879 578.875,651.9316 Q578.875,652.2754 578.5313,652.6816 Q578.0313,653.2598 577.2344,653.5879 Q576.1563,654.041 574.8594,654.041 Q573.3438,654.041 572.1406,653.416 Q571.1563,652.916 570.4688,651.8535 Q569.7813,650.7754 569.7813,649.4941 L569.7813,648.3379 Q569.7813,647.0098 570.3906,645.8691 Q571.0156,644.7129 572.1094,644.1035 Q573.2031,643.4785 574.4375,643.4785 Q575.1719,643.4785 575.8125,643.6504 Q576.4688,643.8066 577.0156,644.166 Z " fill="#000000"/><text fill="#000000" font-family="sans-serif" font-size="12" font-style="italic" lengthAdjust="spacing" textLength="82" x="614.25" y="643.9492">&#171;ValueObject&#187;</text><text fill="#000000" font-family="sans-serif" font-size="14" lengthAdjust="spacing" textLength="121" x="594.75" y="662.0684">SwitchSensorValue</text><line style="stroke:#181818;stroke-width:0.5;" x1="517" x2="761" y1="670.582" y2="670.582"/><rect fill="none" height="6" style="stroke:#C82930;stroke-width:1.0;" width="6" x="524" y="682.3926"/><text fill="#000000" font-family="sans-serif" font-size="14" lengthAdjust="spacing" textLength="69" x="536" y="689.6895">_value : int</text><line style="stroke:#181818;stroke-width:0.5;" x1="517" x2="761" y1="697.2031" y2="697.2031"/><ellipse cx="527" cy="712.0137" fill="#84BE84" rx="3" ry="3" style="stroke:#038048;stroke-width:1.0;"/><text fill="#000000" font-family="sans-serif" font-size="14" lengthAdjust="spacing" textLength="220" x="536" y="716.3105">SwitchSensorValue(boolean value)</text><ellipse cx="527" cy="730.6348" fill="#84BE84" rx="3" ry="3" style="stroke:#038048;stroke-width:1.0;"/><text fill="#000000" font-family="sans-serif" font-size="14" lengthAdjust="spacing" textLength="108" x="536" y="734.9316">toString() : String</text></g><!--class SensorTypeID--><g id="elem_SensorTypeID"><rect codeLine="60" fill="#F1F1F1" height="116.4453" id="SensorTypeID" rx="2.5" ry="2.5" style="stroke:#181818;stroke-width:0.5;" width="254" x="942" y="626"/><ellipse cx="1019.75" cy="648.291" fill="#ADD1B2" rx="11" ry="11" style="stroke:#181818;stroke-width:1.0;"/><path d="M1022.5156,644.166 Q1022.6719,643.9473 1022.8594,643.8379 Q1023.0469,643.7285 1023.2656,643.7285 Q1023.6406,643.7285 1023.875,643.9941 Q1024.1094,644.2441 1024.1094,644.8535 L1024.1094,646.3066 Q1024.1094,646.916 1023.875,647.1816 Q1023.6406,647.4473 1023.2656,647.4473 Q1022.9219,647.4473 1022.7188,647.2441 Q1022.5156,647.0566 1022.4063,646.541 Q1022.3594,646.1816 1022.1719,645.9941 Q1021.8438,645.6191 1021.2344,645.4004 Q1020.625,645.1816 1020,645.1816 Q1019.2344,645.1816 1018.5938,645.5098 Q1017.9688,645.8379 1017.4688,646.5879 Q1016.9844,647.3379 1016.9844,648.3691 L1016.9844,649.4629 Q1016.9844,650.6973 1017.875,651.5254 Q1018.7656,652.3379 1020.3594,652.3379 Q1021.2969,652.3379 1021.9531,652.0879 Q1022.3438,651.9316 1022.7656,651.4941 Q1023.0313,651.2285 1023.1719,651.1504 Q1023.3281,651.0723 1023.5313,651.0723 Q1023.8594,651.0723 1024.1094,651.3379 Q1024.375,651.5879 1024.375,651.9316 Q1024.375,652.2754 1024.0313,652.6816 Q1023.5313,653.2598 1022.7344,653.5879 Q1021.6563,654.041 1020.3594,654.041 Q1018.8438,654.041 1017.6406,653.416 Q1016.6563,652.916 1015.9688,651.8535 Q1015.2813,650.7754 1015.2813,649.4941 L1015.2813,648.3379 Q1015.2813,647.0098 1015.8906,645.8691 Q1016.5156,644.7129 1017.6094,644.1035 Q1018.7031,643.4785 1019.9375,643.4785 Q1020.6719,643.4785 1021.3125,643.6504 Q1021.9688,643.8066 1022.5156,644.166 Z " fill="#000000"/><text fill="#000000" font-family="sans-serif" font-size="12" font-style="italic" lengthAdjust="spacing" textLength="71" x="1049.75" y="643.9492">&#171;DomainID&#187;</text><text fill="#000000" font-family="sans-serif" font-size="14" lengthAdjust="spacing" textLength="90" x="1040.25" y="662.0684">SensorTypeID</text><line style="stroke:#181818;stroke-width:0.5;" x1="943" x2="1195" y1="670.582" y2="670.582"/><rect fill="none" height="6" style="stroke:#C82930;stroke-width:1.0;" width="6" x="950" y="682.3926"/><text fill="#000000" font-family="sans-serif" font-size="14" lengthAdjust="spacing" textLength="122" x="962" y="689.6895">_description: String</text><line style="stroke:#181818;stroke-width:0.5;" x1="943" x2="1195" y1="697.2031" y2="697.2031"/><ellipse cx="953" cy="712.0137" fill="#84BE84" rx="3" ry="3" style="stroke:#038048;stroke-width:1.0;"/><text fill="#000000" font-family="sans-serif" font-size="14" lengthAdjust="spacing" textLength="228" x="962" y="716.3105">SensorTypeID(String strDescription)</text><ellipse cx="953" cy="730.6348" fill="#84BE84" rx="3" ry="3" style="stroke:#038048;stroke-width:1.0;"/><text fill="#000000" font-family="sans-serif" font-size="14" lengthAdjust="spacing" textLength="124" x="962" y="734.9316">getTypeID() : String</text></g><!--class ModelPath--><g id="elem_ModelPath"><rect codeLine="66" fill="#F1F1F1" height="116.4453" id="ModelPath" rx="2.5" ry="2.5" style="stroke:#181818;stroke-width:0.5;" width="172" x="1214" y="626"/><ellipse cx="1262.25" cy="648.291" fill="#ADD1B2" rx="11" ry="11" style="stroke:#181818;stroke-width:1.0;"/><path d="M1265.0156,644.166 Q1265.1719,643.9473 1265.3594,643.8379 Q1265.5469,643.7285 1265.7656,643.7285 Q1266.1406,643.7285 1266.375,643.9941 Q1266.6094,644.2441 1266.6094,644.8535 L1266.6094,646.3066 Q1266.6094,646.916 1266.375,647.1816 Q1266.1406,647.4473 1265.7656,647.4473 Q1265.4219,647.4473 1265.2188,647.2441 Q1265.0156,647.0566 1264.9063,646.541 Q1264.8594,646.1816 1264.6719,645.9941 Q1264.3438,645.6191 1263.7344,645.4004 Q1263.125,645.1816 1262.5,645.1816 Q1261.7344,645.1816 1261.0938,645.5098 Q1260.4688,645.8379 1259.9688,646.5879 Q1259.4844,647.3379 1259.4844,648.3691 L1259.4844,649.4629 Q1259.4844,650.6973 1260.375,651.5254 Q1261.2656,652.3379 1262.8594,652.3379 Q1263.7969,652.3379 1264.4531,652.0879 Q1264.8438,651.9316 1265.2656,651.4941 Q1265.5313,651.2285 1265.6719,651.1504 Q1265.8281,651.0723 1266.0313,651.0723 Q1266.3594,651.0723 1266.6094,651.3379 Q1266.875,651.5879 1266.875,651.9316 Q1266.875,652.2754 1266.5313,652.6816 Q1266.0313,653.2598 1265.2344,653.5879 Q1264.1563,654.041 1262.8594,654.041 Q1261.3438,654.041 1260.1406,653.416 Q1259.1563,652.916 1258.4688,651.8535 Q1257.7813,650.7754 1257.7813,649.4941 L1257.7813,648.3379 Q1257.7813,647.0098 1258.3906,645.8691 Q1259.0156,644.7129 1260.1094,644.1035 Q1261.2031,643.4785 1262.4375,643.4785 Q1263.1719,643.4785 1263.8125,643.6504 Q1264.4688,643.8066 1265.0156,644.166 Z " fill="#000000"/><text fill="#000000" font-family="sans-serif" font-size="12" font-style="italic" lengthAdjust="spacing" textLength="71" x="1280.75" y="643.9492">&#171;DomainID&#187;</text><text fill="#000000" font-family="sans-serif" font-size="14" lengthAdjust="spacing" textLength="67" x="1282.75" y="662.0684">ModelPath</text><line style="stroke:#181818;stroke-width:0.5;" x1="1215" x2="1385" y1="670.582" y2="670.582"/><rect fill="none" height="6" style="stroke:#C82930;stroke-width:1.0;" width="6" x="1222" y="682.3926"/><text fill="#000000" font-family="sans-serif" font-size="14" lengthAdjust="spacing" textLength="81" x="1234" y="689.6895">_path: String</text><line style="stroke:#181818;stroke-width:0.5;" x1="1215" x2="1385" y1="697.2031" y2="697.2031"/><ellipse cx="1225" cy="712.0137" fill="#84BE84" rx="3" ry="3" style="stroke:#038048;stroke-width:1.0;"/><text fill="#000000" font-family="sans-serif" font-size="14" lengthAdjust="spacing" textLength="146" x="1234" y="716.3105">ModelPath(String path)</text><ellipse cx="1225" cy="730.6348" fill="#84BE84" rx="3" ry="3" style="stroke:#038048;stroke-width:1.0;"/><text fill="#000000" font-family="sans-serif" font-size="14" lengthAdjust="spacing" textLength="108" x="1234" y="734.9316">getPath() : String</text></g><!--class DeviceID--><g id="elem_DeviceID"><rect codeLine="72" fill="#F1F1F1" height="116.4453" id="DeviceID" rx="2.5" ry="2.5" style="stroke:#181818;stroke-width:0.5;" width="144" x="780" y="626"/><ellipse cx="815.25" cy="648.291" fill="#ADD1B2" rx="11" ry="11" style="stroke:#181818;stroke-width:1.0;"/><path d="M818.0156,644.166 Q818.1719,643.9473 818.3594,643.8379 Q818.5469,643.7285 818.7656,643.7285 Q819.1406,643.7285 819.375,643.9941 Q819.6094,644.2441 819.6094,644.8535 L819.6094,646.3066 Q819.6094,646.916 819.375,647.1816 Q819.1406,647.4473 818.7656,647.4473 Q818.4219,647.4473 818.2188,647.2441 Q818.0156,647.0566 817.9063,646.541 Q817.8594,646.1816 817.6719,645.9941 Q817.3438,645.6191 816.7344,645.4004 Q816.125,645.1816 815.5,645.1816 Q814.7344,645.1816 814.0938,645.5098 Q813.4688,645.8379 812.9688,646.5879 Q812.4844,647.3379 812.4844,648.3691 L812.4844,649.4629 Q812.4844,650.6973 813.375,651.5254 Q814.2656,652.3379 815.8594,652.3379 Q816.7969,652.3379 817.4531,652.0879 Q817.8438,651.9316 818.2656,651.4941 Q818.5313,651.2285 818.6719,651.1504 Q818.8281,651.0723 819.0313,651.0723 Q819.3594,651.0723 819.6094,651.3379 Q819.875,651.5879 819.875,651.9316 Q819.875,652.2754 819.5313,652.6816 Q819.0313,653.2598 818.2344,653.5879 Q817.1563,654.041 815.8594,654.041 Q814.3438,654.041 813.1406,653.416 Q812.1563,652.916 811.4688,651.8535 Q810.7813,650.7754 810.7813,649.4941 L810.7813,648.3379 Q810.7813,647.0098 811.3906,645.8691 Q812.0156,644.7129 813.1094,644.1035 Q814.2031,643.4785 815.4375,643.4785 Q816.1719,643.4785 816.8125,643.6504 Q817.4688,643.8066 818.0156,644.166 Z " fill="#000000"/><text fill="#000000" font-family="sans-serif" font-size="12" font-style="italic" lengthAdjust="spacing" textLength="71" x="831.75" y="643.9492">&#171;DomainID&#187;</text><text fill="#000000" font-family="sans-serif" font-size="14" lengthAdjust="spacing" textLength="56" x="839.25" y="662.0684">DeviceID</text><line style="stroke:#181818;stroke-width:0.5;" x1="781" x2="923" y1="670.582" y2="670.582"/><rect fill="none" height="6" style="stroke:#C82930;stroke-width:1.0;" width="6" x="788" y="682.3926"/><text fill="#000000" font-family="sans-serif" font-size="14" lengthAdjust="spacing" textLength="64" x="800" y="689.6895">_id: String</text><line style="stroke:#181818;stroke-width:0.5;" x1="781" x2="923" y1="697.2031" y2="697.2031"/><ellipse cx="791" cy="712.0137" fill="#84BE84" rx="3" ry="3" style="stroke:#038048;stroke-width:1.0;"/><text fill="#000000" font-family="sans-serif" font-size="14" lengthAdjust="spacing" textLength="118" x="800" y="716.3105">DeviceID(String id)</text><ellipse cx="791" cy="730.6348" fill="#84BE84" rx="3" ry="3" style="stroke:#038048;stroke-width:1.0;"/><text fill="#000000" font-family="sans-serif" font-size="14" lengthAdjust="spacing" textLength="92" x="800" y="734.9316">getID() : String</text></g><!--class DomainEntity--><g id="elem_DomainEntity"><rect codeLine="82" fill="#F1F1F1" height="48" id="DomainEntity" rx="2.5" ry="2.5" style="stroke:#181818;stroke-width:0.5;" width="115" x="1110.5" y="914"/><ellipse cx="1125.5" cy="930" fill="#B4A7E5" rx="11" ry="11" style="stroke:#181818;stroke-width:1.0;"/><path d="M1126.4531,926.6406 L1126.4531,933.2969 L1128.1719,933.2969 Q1128.7813,933.2969 1129.0469,933.5313 Q1129.3125,933.7656 1129.3125,934.1563 Q1129.3125,934.5313 1129.0469,934.7656 Q1128.7813,935 1128.1719,935 L1123.0313,935 Q1122.4219,935 1122.1563,934.7656 Q1121.8906,934.5313 1121.8906,934.1406 Q1121.8906,933.7656 1122.1563,933.5313 Q1122.4219,933.2969 1123.0313,933.2969 L1124.75,933.2969 L1124.75,926.6406 L1123.0313,926.6406 Q1122.4219,926.6406 1122.1563,926.4063 Q1121.8906,926.1719 1121.8906,925.7813 Q1121.8906,925.4063 1122.1563,925.1719 Q1122.4219,924.9375 1123.0313,924.9375 L1128.1719,924.9375 Q1128.7813,924.9375 1129.0469,925.1719 Q1129.3125,925.4063 1129.3125,925.7813 Q1129.3125,926.1719 1129.0469,926.4063 Q1128.7813,926.6406 1128.1719,926.6406 L1126.4531,926.6406 Z " fill="#000000"/><text fill="#000000" font-family="sans-serif" font-size="14" font-style="italic" lengthAdjust="spacing" textLength="83" x="1139.5" y="935.7969">DomainEntity</text><line style="stroke:#181818;stroke-width:0.5;" x1="1111.5" x2="1224.5" y1="946" y2="946"/><line style="stroke:#181818;stroke-width:0.5;" x1="1111.5" x2="1224.5" y1="954" y2="954"/></g><!--class DomainID--><g id="elem_DomainID"><rect codeLine="85" fill="#F1F1F1" height="48" id="DomainID" rx="2.5" ry="2.5" style="stroke:#181818;stroke-width:0.5;" width="94" x="1112" y="999"/><ellipse cx="1127" cy="1015" fill="#B4A7E5" rx="11" ry="11" style="stroke:#181818;stroke-width:1.0;"/><path d="M1127.9531,1011.6406 L1127.9531,1018.2969 L1129.6719,1018.2969 Q1130.2813,1018.2969 1130.5469,1018.5313 Q1130.8125,1018.7656 1130.8125,1019.1563 Q1130.8125,1019.5313 1130.5469,1019.7656 Q1130.2813,1020 1129.6719,1020 L1124.5313,1020 Q1123.9219,1020 1123.6563,1019.7656 Q1123.3906,1019.5313 1123.3906,1019.1406 Q1123.3906,1018.7656 1123.6563,1018.5313 Q1123.9219,1018.2969 1124.5313,1018.2969 L1126.25,1018.2969 L1126.25,1011.6406 L1124.5313,1011.6406 Q1123.9219,1011.6406 1123.6563,1011.4063 Q1123.3906,1011.1719 1123.3906,1010.7813 Q1123.3906,1010.4063 1123.6563,1010.1719 Q1123.9219,1009.9375 1124.5313,1009.9375 L1129.6719,1009.9375 Q1130.2813,1009.9375 1130.5469,1010.1719 Q1130.8125,1010.4063 1130.8125,1010.7813 Q1130.8125,1011.1719 1130.5469,1011.4063 Q1130.2813,1011.6406 1129.6719,1011.6406 L1127.9531,1011.6406 Z " fill="#000000"/><text fill="#000000" font-family="sans-serif" font-size="14" font-style="italic" lengthAdjust="spacing" textLength="62" x="1141" y="1020.7969">DomainID</text><line style="stroke:#181818;stroke-width:0.5;" x1="1113" x2="1205" y1="1031" y2="1031"/><line style="stroke:#181818;stroke-width:0.5;" x1="1113" x2="1205" y1="1039" y2="1039"/></g><!--class AggregateRoot--><g id="elem_AggregateRoot"><rect codeLine="88" fill="#F1F1F1" height="48" id="AggregateRoot" rx="2.5" ry="2.5" style="stroke:#181818;stroke-width:0.5;" width="128" x="1108" y="829"/><ellipse cx="1123" cy="845" fill="#B4A7E5" rx="11" ry="11" style="stroke:#181818;stroke-width:1.0;"/><path d="M1123.9531,841.6406 L1123.9531,848.2969 L1125.6719,848.2969 Q1126.2813,848.2969 1126.5469,848.5313 Q1126.8125,848.7656 1126.8125,849.1563 Q1126.8125,849.5313 1126.5469,849.7656 Q1126.2813,850 1125.6719,850 L1120.5313,850 Q1119.9219,850 1119.6563,849.7656 Q1119.3906,849.5313 1119.3906,849.1406 Q1119.3906,848.7656 1119.6563,848.5313 Q1119.9219,848.2969 1120.5313,848.2969 L1122.25,848.2969 L1122.25,841.6406 L1120.5313,841.6406 Q1119.9219,841.6406 1119.6563,841.4063 Q1119.3906,841.1719 1119.3906,840.7813 Q1119.3906,840.4063 1119.6563,840.1719 Q1119.9219,839.9375 1120.5313,839.9375 L1125.6719,839.9375 Q1126.2813,839.9375 1126.5469,840.1719 Q1126.8125,840.4063 1126.8125,840.7813 Q1126.8125,841.1719 1126.5469,841.4063 Q1126.2813,841.6406 1125.6719,841.6406 L1123.9531,841.6406 Z " fill="#000000"/><text fill="#000000" font-family="sans-serif" font-size="14" font-style="italic" lengthAdjust="spacing" textLength="96" x="1137" y="850.7969">AggregateRoot</text><line style="stroke:#181818;stroke-width:0.5;" x1="1109" x2="1235" y1="861" y2="861"/><line style="stroke:#181818;stroke-width:0.5;" x1="1109" x2="1235" y1="869" y2="869"/></g><!--class ValueObject--><g id="elem_ValueObject"><rect codeLine="91" fill="#F1F1F1" height="48" id="ValueObject" rx="2.5" ry="2.5" style="stroke:#181818;stroke-width:0.5;" width="109" x="1108.5" y="1084"/><ellipse cx="1123.5" cy="1100" fill="#B4A7E5" rx="11" ry="11" style="stroke:#181818;stroke-width:1.0;"/><path d="M1124.4531,1096.6406 L1124.4531,1103.2969 L1126.1719,1103.2969 Q1126.7813,1103.2969 1127.0469,1103.5313 Q1127.3125,1103.7656 1127.3125,1104.1563 Q1127.3125,1104.5313 1127.0469,1104.7656 Q1126.7813,1105 1126.1719,1105 L1121.0313,1105 Q1120.4219,1105 1120.1563,1104.7656 Q1119.8906,1104.5313 1119.8906,1104.1406 Q1119.8906,1103.7656 1120.1563,1103.5313 Q1120.4219,1103.2969 1121.0313,1103.2969 L1122.75,1103.2969 L1122.75,1096.6406 L1121.0313,1096.6406 Q1120.4219,1096.6406 1120.1563,1096.4063 Q1119.8906,1096.1719 1119.8906,1095.7813 Q1119.8906,1095.4063 1120.1563,1095.1719 Q1120.4219,1094.9375 1121.0313,1094.9375 L1126.1719,1094.9375 Q1126.7813,1094.9375 1127.0469,1095.1719 Q1127.3125,1095.4063 1127.3125,1095.7813 Q1127.3125,1096.1719 1127.0469,1096.4063 Q1126.7813,1096.6406 1126.1719,1096.6406 L1124.4531,1096.6406 Z " fill="#000000"/><text fill="#000000" font-family="sans-serif" font-size="14" font-style="italic" lengthAdjust="spacing" textLength="77" x="1137.5" y="1105.7969">ValueObject</text><line style="stroke:#181818;stroke-width:0.5;" x1="1109.5" x2="1216.5" y1="1116" y2="1116"/><line style="stroke:#181818;stroke-width:0.5;" x1="1109.5" x2="1216.5" y1="1124" y2="1124"/></g><polygon fill="none" points="172.5048,337.7974,185.3745,323.8557,174.4355,318.9222,172.5048,337.7974" style="stroke:#181818;stroke-width:1.0;"/><path d="M429.9598,115.1091 C383.2696,126.4854 332.1966,144.745 292,174 C233.2132,216.7849 199.6671,277.5704 179.905,321.3889 " fill="none" style="stroke:#181818;stroke-width:1.0;stroke-dasharray:7.0,7.0;"/><polygon fill="#181818" points="714.6873,202.8798,709.513,194.4997,710.559,200.059,704.9997,201.105,714.6873,202.8798" style="stroke:#181818;stroke-width:1.0;"/><path d="M606.5747,129.0074 C634.997,148.4281 668.5596,171.3611 709.7333,199.4948 " fill="none" style="stroke:#181818;stroke-width:1.0;stroke-dasharray:7.0,7.0;"/><text fill="#000000" font-family="sans-serif" font-size="13" lengthAdjust="spacing" textLength="43" x="656" y="162.0283">creates</text><text fill="#000000" font-family="sans-serif" font-size="13" lengthAdjust="spacing" textLength="7" x="706.6873" y="198.9081">1</text><text fill="#000000" font-family="sans-serif" font-size="13" lengthAdjust="spacing" textLength="7" x="598.5747" y="144.0357">1</text><polygon fill="none" points="1567.7599,598.0473,1554.768,584.2195,1549.0697,594.7802,1567.7599,598.0473" style="stroke:#181818;stroke-width:1.0;"/><path d="M1339.5235,496.4259 C1414.7245,525.5071 1492.0091,558.7256 1562,595 C1563.9154,595.9927 1549.995,588.4618 1551.9188,589.4999 " fill="none" style="stroke:#181818;stroke-width:1.0;stroke-dasharray:7.0,7.0;"/><polygon fill="#181818" points="698.0224,625.9083,707.2723,622.526,701.6162,622.432,701.7102,616.7759,698.0224,625.9083" style="stroke:#181818;stroke-width:1.0;"/><path d="M786.816,540.0191 C754.835,570.954 727.8425,597.0635 702.335,621.7367 " fill="none" style="stroke:#181818;stroke-width:1.0;"/><text fill="#000000" font-family="sans-serif" font-size="13" lengthAdjust="spacing" textLength="21" x="762" y="573.0283">has</text><text fill="#000000" font-family="sans-serif" font-size="13" lengthAdjust="spacing" textLength="7" x="690.0224" y="621.9366">1</text><text fill="#000000" font-family="sans-serif" font-size="13" lengthAdjust="spacing" textLength="7" x="787.816" y="555.0475">1</text><polygon fill="#181818" points="1048.9581,625.9083,1049.7513,616.0914,1047.302,621.1905,1042.2029,618.7412,1048.9581,625.9083" style="stroke:#181818;stroke-width:1.0;"/><path d="M1018.807,540.0191 C1029.6666,570.954 1038.3093,595.5738 1046.9708,620.247 " fill="none" style="stroke:#181818;stroke-width:1.0;"/><text fill="#000000" font-family="sans-serif" font-size="13" lengthAdjust="spacing" textLength="21" x="1031" y="573.0283">has</text><text fill="#000000" font-family="sans-serif" font-size="13" lengthAdjust="spacing" textLength="7" x="1040.9581" y="621.9366">1</text><text fill="#000000" font-family="sans-serif" font-size="13" lengthAdjust="spacing" textLength="7" x="1010.807" y="555.0475">1</text><polygon fill="#181818" points="1238.5028,625.8698,1234.611,616.8225,1234.8319,622.475,1229.1794,622.6959,1238.5028,625.8698" style="stroke:#181818;stroke-width:1.0;"/><path d="M1145.1219,540.2667 C1165.3548,558.7082 1185.6277,577.2318 1205,595 C1215.8521,604.9536 1222.965,611.5008 1234.0977,621.7961 " fill="none" style="stroke:#181818;stroke-width:1.0;"/><text fill="#000000" font-family="sans-serif" font-size="13" lengthAdjust="spacing" textLength="21" x="1186" y="573.0283">has</text><text fill="#000000" font-family="sans-serif" font-size="13" lengthAdjust="spacing" textLength="7" x="1230.5028" y="621.8981">1</text><text fill="#000000" font-family="sans-serif" font-size="13" lengthAdjust="spacing" textLength="7" x="1137.1219" y="555.295">1</text><polygon fill="#181818" points="465.0168,625.7844,474.5343,623.2511,468.9098,622.6468,469.5141,617.0223,465.0168,625.7844" style="stroke:#181818;stroke-width:1.0;"/><path d="M598.9536,540.0428 C567.3106,557.649 536.2336,576.0669 507,595 C492.8468,604.1663 483.1214,611.1927 469.6884,622.0193 " fill="none" style="stroke:#181818;stroke-width:1.0;"/><text fill="#000000" font-family="sans-serif" font-size="13" lengthAdjust="spacing" textLength="21" x="567" y="573.0283">has</text><text fill="#000000" font-family="sans-serif" font-size="13" lengthAdjust="spacing" textLength="7" x="457.0168" y="621.8127">1</text><text fill="#000000" font-family="sans-serif" font-size="13" lengthAdjust="spacing" textLength="7" x="590.9536" y="555.0711">1</text><polygon fill="#181818" points="1428.9613,625.5494,1425.5614,616.306,1425.4782,621.9623,1419.8219,621.879,1428.9613,625.5494" style="stroke:#181818;stroke-width:1.0;"/><path d="M1313.9711,540.0109 C1342.1492,557.3826 1369.5293,575.7678 1395,595 C1406.8324,603.9343 1414.2291,610.3771 1424.7816,621.2448 " fill="none" style="stroke:#181818;stroke-width:1.0;"/><text fill="#000000" font-family="sans-serif" font-size="13" lengthAdjust="spacing" textLength="21" x="1363" y="573.0283">has</text><text fill="#000000" font-family="sans-serif" font-size="13" lengthAdjust="spacing" textLength="7" x="1420.9613" y="621.5778">1</text><text fill="#000000" font-family="sans-serif" font-size="13" lengthAdjust="spacing" textLength="7" x="1305.9711" y="555.0392">1</text><polygon fill="#181818" points="871.858,625.9083,878.5927,618.7219,873.5006,621.1858,871.0367,616.0937,871.858,625.9083" style="stroke:#181818;stroke-width:1.0;"/><path d="M901.7325,540.0191 C890.9725,570.954 882.4111,595.5681 873.8291,620.2413 " fill="none" style="stroke:#181818;stroke-width:1.0;"/><text fill="#000000" font-family="sans-serif" font-size="13" lengthAdjust="spacing" textLength="21" x="894" y="573.0283">has</text><text fill="#000000" font-family="sans-serif" font-size="13" lengthAdjust="spacing" textLength="7" x="863.858" y="621.9366">1</text><text fill="#000000" font-family="sans-serif" font-size="13" lengthAdjust="spacing" textLength="7" x="893.7325" y="555.0475">1</text><polygon fill="none" points="1108.1801,1107.6375,1090.1874,1101.6155,1090.1727,1113.6155,1108.1801,1107.6375" style="stroke:#181818;stroke-width:1.0;"/><path d="M692.5878,742.163 C715.4668,772.4446 737,811.6602 737,852 C737,852 737,852 737,1024 C737,1098.7839 975.1243,1107.4744 1090.1801,1107.6155 " fill="none" style="stroke:#181818;stroke-width:1.0;stroke-dasharray:7.0,7.0;"/><polygon fill="none" points="1108.3337,1105.1863,1090.5748,1098.5065,1090.1187,1110.4978,1108.3337,1105.1863" style="stroke:#181818;stroke-width:1.0;"/><path d="M462.5393,742.0673 C506.9031,784.4449 559,837.332 559,852 C559,852 559,852 559,1024 C559,1079.1725 941.6667,1098.8467 1090.3468,1104.5021 " fill="none" style="stroke:#181818;stroke-width:1.0;stroke-dasharray:7.0,7.0;"/><polygon fill="none" points="1161.5248,998.716,1169.4302,981.4677,1157.5002,980.1741,1161.5248,998.716" style="stroke:#181818;stroke-width:1.0;"/><path d="M1165.493,962.1201 C1164.2551,973.5362 1164.7055,969.3827 1163.4652,980.8209 " fill="none" style="stroke:#181818;stroke-width:1.0;"/><polygon fill="none" points="1169.1221,913.716,1175.9816,896.0257,1163.9955,895.448,1169.1221,913.716" style="stroke:#181818;stroke-width:1.0;"/><path d="M1170.8858,877.1201 C1170.3356,888.5362 1170.5398,884.2986 1169.9886,895.7369 " fill="none" style="stroke:#181818;stroke-width:1.0;"/><polygon fill="none" points="1161.8779,1083.716,1167.0045,1065.448,1155.0184,1066.0257,1161.8779,1083.716" style="stroke:#181818;stroke-width:1.0;"/><path d="M1160.1142,1047.1201 C1160.6644,1058.5362 1160.4602,1054.2986 1161.0114,1065.7369 " fill="none" style="stroke:#181818;stroke-width:1.0;"/><polygon fill="none" points="1236.0693,849.3409,1254.428,854.1325,1253.6312,842.159,1236.0693,849.3409" style="stroke:#181818;stroke-width:1.0;"/><path d="M1578.3337,773.0652 C1572.9295,775.9436 1567.473,778.6096 1562,781 C1453.8381,828.2409 1333.5264,842.8557 1254.0296,848.1458 " fill="none" style="stroke:#181818;stroke-width:1.0;"/><polygon fill="none" points="1111.9008,1005.6433,1099.056,991.6786,1093.2462,1002.1784,1111.9008,1005.6433" style="stroke:#181818;stroke-width:1.0;"/><path d="M1056.4197,742.2063 C1045.762,805.6749 1038.5872,908.6577 1084,981 C1090.6274,991.5573 1085.2308,990.8859 1096.1511,996.9285 " fill="none" style="stroke:#181818;stroke-width:1.0;stroke-dasharray:7.0,7.0;"/><polygon fill="none" points="1190.7307,998.97,1208.6858,992.8369,1201.4149,983.2905,1190.7307,998.97" style="stroke:#181818;stroke-width:1.0;"/><path d="M1432.397,742.2093 C1385.9141,800.2885 1309.5754,891.4601 1235,962 C1221.1995,975.0537 1219.0941,977.3675 1205.0504,988.0637 " fill="none" style="stroke:#181818;stroke-width:1.0;stroke-dasharray:7.0,7.0;"/><polygon fill="none" points="1129.2974,998.8049,1120.3612,982.0674,1112.1059,990.7766,1129.2974,998.8049" style="stroke:#181818;stroke-width:1.0;"/><path d="M1254.8007,742.1121 C1240.3895,756.8912 1223.3678,771.344 1205,781 C1162.6354,803.2712 1129.7132,763.2921 1099,800 C1093.9313,806.058 1101.6083,961.0672 1102,962 C1107.896,976.0423 1105.6181,976.3598 1116.2336,986.422 " fill="none" style="stroke:#181818;stroke-width:1.0;stroke-dasharray:7.0,7.0;"/><polygon fill="none" points="1111.8597,1002.051,1098.4908,988.5873,1093.0863,999.3013,1111.8597,1002.051" style="stroke:#181818;stroke-width:1.0;"/><path d="M885.5008,742.0109 C921.9717,801.1681 984.339,894.3284 1053,962 C1069.7929,978.5509 1075.9948,983.9597 1095.7886,993.9443 " fill="none" style="stroke:#181818;stroke-width:1.0;stroke-dasharray:7.0,7.0;"/><!--SRC=[hLPDZvim4BtxLxXxIjI0rEigGgf4A-NG3pNLNYilU0ajmSXujuhQ_Uyrjl47je4epIMWUHu_ltdZuKr7KNL6i44NyinWVyOCjGY03XM_K8LXISweRjCZRdj2uHy0-Qzk6QPFgC3m8oeOeHSdElpUme9YnF3co-DFNB0qJM67AEB9CUstzr0k4F1N8FwA1lKzF9oxvl_bD3ozP39XXTaXt-YrXzoFV-OR6CJmvcC-aH8tNn4x3K3zukDaZk-N3jkxodSVdUENkb38yTb7FQ3cMH0K3rAQ2OgH8wDrMuajnPCIQT0fMEVq-BjcnKchPbKeZdCNxVUuPJMxPDb-_uqGbcL6_0J-w9NW0UbrT10xABn6IEaYGdBKUQn5g2myNYfP0mBpwCkWA4zk7Kk8R3dIZctYd7Omn6G7_VrtC7psBOWuALZQ9NSlENkDgzSxUjdDyqvsRWZ3bblCGjh-KlLhfOQkBAfkEij6nc7hY3mH2KuQn-Dpo3cRNBJ68GzGgSjP8bmMHQCkj-4xQex2rA2BoWXdyupyWfpocURQF1BIODH2iMORlLg2_1oDf2jcT78QiozetR6Qj47XfW8g1oeHUqPpas0RMSc57OqBlKt60-Wpw0POTu1EjFeiSzDVYlQmPeQiRCKLLCVsMiSqOaspjUxSY4KNh2efSfBJKLEMfHmjPanBkX_4u133-ZKKvoSBnDvN5SKL_puOfaq8OBM42dE0_y6Hfdypzxic0BfxTyU1cVXVEn7lrVTB3y3Q9OBB12mfhSqm44oIguW-gClXXFghjn4FJhlVaCUqtCranBouESjjnz5jANE0gyfXEu4tJchFoBb4vlHp6O3JU4d2aMEh0RUlh9X40zsJ8kHa3JbNmYmUJdu07FDCEMjIkXvHX35F5A8B4aNy0m00]--></g></svg>