<?xml version="1.0" encoding="us-ascii" standalone="no"?><svg xmlns="http://www.w3.org/2000/svg" xmlns:xlink="http://www.w3.org/1999/xlink" contentStyleType="text/css" height="411px" preserveAspectRatio="none" style="width:1437px;height:411px;background:#FFFFFF;" version="1.1" viewBox="0 0 1437 411" width="1437px" zoomAndPan="magnify"><defs/><g><!--cluster SmartHome--><g id="cluster_SmartHome"><path d="M16.5,4 L101.5,4 A3.75,3.75 0 0 1 104,6.5 L111,26.4883 L1427.5,26.4883 A2.5,2.5 0 0 1 1430,28.9883 L1430,401.5 A2.5,2.5 0 0 1 1427.5,404 L16.5,404 A2.5,2.5 0 0 1 14,401.5 L14,6.5 A2.5,2.5 0 0 1 16.5,4 " fill="none" style="stroke:#000000;stroke-width:1.5;"/><line style="stroke:#000000;stroke-width:1.5;" x1="14" x2="111" y1="26.4883" y2="26.4883"/><text fill="#000000" font-family="sans-serif" font-size="14" font-weight="bold" lengthAdjust="spacing" textLength="84" x="18" y="19.5352">SmartHome</text></g><!--cluster sensors--><g id="cluster_sensors"><path d="M24.5,31 L81.5,31 A3.75,3.75 0 0 1 84,33.5 L91,53.4883 L359.5,53.4883 A2.5,2.5 0 0 1 362,55.9883 L362,377 A2.5,2.5 0 0 1 359.5,379.5 L24.5,379.5 A2.5,2.5 0 0 1 22,377 L22,33.5 A2.5,2.5 0 0 1 24.5,31 " fill="none" style="stroke:#000000;stroke-width:1.5;"/><line style="stroke:#000000;stroke-width:1.5;" x1="22" x2="91" y1="53.4883" y2="53.4883"/><text fill="#000000" font-family="sans-serif" font-size="14" font-weight="bold" lengthAdjust="spacing" textLength="56" x="26" y="46.5352">sensors</text></g><!--cluster domain--><g id="cluster_domain"><path d="M372.5,231 L427.5,231 A3.75,3.75 0 0 1 430,233.5 L437,253.4883 L1419.5,253.4883 A2.5,2.5 0 0 1 1422,255.9883 L1422,393.5 A2.5,2.5 0 0 1 1419.5,396 L372.5,396 A2.5,2.5 0 0 1 370,393.5 L370,233.5 A2.5,2.5 0 0 1 372.5,231 " fill="none" style="stroke:#000000;stroke-width:1.5;"/><line style="stroke:#000000;stroke-width:1.5;" x1="370" x2="437" y1="253.4883" y2="253.4883"/><text fill="#000000" font-family="sans-serif" font-size="14" font-weight="bold" lengthAdjust="spacing" textLength="54" x="374" y="246.5352">domain</text></g><!--class SwitchSensor--><g id="elem_SwitchSensor"><rect codeLine="5" fill="#F1F1F1" height="130.4414" id="SwitchSensor" rx="2.5" ry="2.5" style="stroke:#181818;stroke-width:0.5;" width="323" x="30.5" y="58"/><ellipse cx="142.25" cy="74" fill="#ADD1B2" rx="11" ry="11" style="stroke:#181818;stroke-width:1.0;"/><path d="M145.2231,79.6431 Q144.6421,79.9419 144.0029,80.0913 Q143.3638,80.2407 142.6582,80.2407 Q140.1514,80.2407 138.8315,78.5889 Q137.5117,76.937 137.5117,73.8159 Q137.5117,70.6865 138.8315,69.0347 Q140.1514,67.3828 142.6582,67.3828 Q143.3638,67.3828 144.0112,67.5322 Q144.6587,67.6816 145.2231,67.9805 L145.2231,70.7031 Q144.5923,70.1221 143.9988,69.8523 Q143.4053,69.5825 142.7744,69.5825 Q141.4297,69.5825 140.7449,70.6492 Q140.0601,71.7158 140.0601,73.8159 Q140.0601,75.9077 140.7449,76.9744 Q141.4297,78.041 142.7744,78.041 Q143.4053,78.041 143.9988,77.7712 Q144.5923,77.5015 145.2231,76.9204 Z " fill="#000000"/><text fill="#000000" font-family="sans-serif" font-size="14" lengthAdjust="spacing" textLength="91" x="162.75" y="79.291">SwitchSensor</text><line style="stroke:#181818;stroke-width:0.5;" x1="31.5" x2="352.5" y1="90" y2="90"/><rect fill="none" height="6" style="stroke:#C82930;stroke-width:1.0;" width="6" x="38.5" y="100.7441"/><text fill="#000000" font-family="sans-serif" font-size="14" lengthAdjust="spacing" textLength="212" x="50.5" y="107.5352">final _sensorType : SensorType</text><rect fill="none" height="6" style="stroke:#C82930;stroke-width:1.0;" width="6" x="38.5" y="117.2324"/><text fill="#000000" font-family="sans-serif" font-size="14" lengthAdjust="spacing" textLength="184" x="50.5" y="124.0234">_value : SwitchSensorValue</text><line style="stroke:#181818;stroke-width:0.5;" x1="31.5" x2="352.5" y1="130.9766" y2="130.9766"/><ellipse cx="41.5" cy="144.7207" fill="#84BE84" rx="3" ry="3" style="stroke:#038048;stroke-width:1.0;"/><text fill="#000000" font-family="sans-serif" font-size="14" lengthAdjust="spacing" textLength="297" x="50.5" y="148.5117">SwitchSensor(catalogue : CatalogueSensor)</text><ellipse cx="41.5" cy="161.209" fill="#84BE84" rx="3" ry="3" style="stroke:#038048;stroke-width:1.0;"/><text fill="#000000" font-family="sans-serif" font-size="14" lengthAdjust="spacing" textLength="204" x="50.5" y="165">getSensorType() : SensorType</text><ellipse cx="41.5" cy="177.6973" fill="#84BE84" rx="3" ry="3" style="stroke:#038048;stroke-width:1.0;"/><text fill="#000000" font-family="sans-serif" font-size="14" lengthAdjust="spacing" textLength="120" x="50.5" y="181.4883">getValue() : Value</text></g><!--class SwitchSensorValue--><g id="elem_SwitchSensorValue"><rect codeLine="13" fill="#F1F1F1" height="97.4648" id="SwitchSensorValue" rx="2.5" ry="2.5" style="stroke:#181818;stroke-width:0.5;" width="280" x="59" y="274.5"/><ellipse cx="130.25" cy="290.5" fill="#ADD1B2" rx="11" ry="11" style="stroke:#181818;stroke-width:1.0;"/><path d="M133.2231,296.1431 Q132.6421,296.4419 132.0029,296.5913 Q131.3638,296.7407 130.6582,296.7407 Q128.1514,296.7407 126.8315,295.0889 Q125.5117,293.437 125.5117,290.3159 Q125.5117,287.1865 126.8315,285.5347 Q128.1514,283.8828 130.6582,283.8828 Q131.3638,283.8828 132.0112,284.0322 Q132.6587,284.1816 133.2231,284.4805 L133.2231,287.2031 Q132.5923,286.6221 131.9988,286.3523 Q131.4053,286.0825 130.7744,286.0825 Q129.4297,286.0825 128.7449,287.1492 Q128.0601,288.2158 128.0601,290.3159 Q128.0601,292.4077 128.7449,293.4744 Q129.4297,294.541 130.7744,294.541 Q131.4053,294.541 131.9988,294.2712 Q132.5923,294.0015 133.2231,293.4204 Z " fill="#000000"/><text fill="#000000" font-family="sans-serif" font-size="14" lengthAdjust="spacing" textLength="129" x="150.75" y="295.791">SwitchSensorValue</text><line style="stroke:#181818;stroke-width:0.5;" x1="60" x2="338" y1="306.5" y2="306.5"/><rect fill="none" height="6" style="stroke:#C82930;stroke-width:1.0;" width="6" x="67" y="317.2441"/><text fill="#000000" font-family="sans-serif" font-size="14" lengthAdjust="spacing" textLength="122" x="79" y="324.0352">_bValue : boolean</text><line style="stroke:#181818;stroke-width:0.5;" x1="60" x2="338" y1="330.9883" y2="330.9883"/><ellipse cx="70" cy="344.7324" fill="#84BE84" rx="3" ry="3" style="stroke:#038048;stroke-width:1.0;"/><text fill="#000000" font-family="sans-serif" font-size="14" lengthAdjust="spacing" textLength="254" x="79" y="348.5234">SwitchSensorValue(bValue : boolean)</text><ellipse cx="70" cy="361.2207" fill="#84BE84" rx="3" ry="3" style="stroke:#038048;stroke-width:1.0;"/><text fill="#000000" font-family="sans-serif" font-size="14" lengthAdjust="spacing" textLength="118" x="79" y="365.0117">toString() : String</text></g><!--class Value--><g id="elem_Value"><rect codeLine="36" fill="#F1F1F1" height="48" id="Value" rx="2.5" ry="2.5" style="stroke:#181818;stroke-width:0.5;" width="70" x="378" y="299"/><ellipse cx="393" cy="315" fill="#B4A7E5" rx="11" ry="11" style="stroke:#181818;stroke-width:1.0;"/><path d="M388.9277,310.7651 L388.9277,308.6069 L396.3071,308.6069 L396.3071,310.7651 L393.8418,310.7651 L393.8418,318.8418 L396.3071,318.8418 L396.3071,321 L388.9277,321 L388.9277,318.8418 L391.3931,318.8418 L391.3931,310.7651 Z " fill="#000000"/><text fill="#000000" font-family="sans-serif" font-size="14" font-style="italic" lengthAdjust="spacing" textLength="38" x="407" y="320.291">Value</text><line style="stroke:#181818;stroke-width:0.5;" x1="379" x2="447" y1="331" y2="331"/><line style="stroke:#181818;stroke-width:0.5;" x1="379" x2="447" y1="339" y2="339"/></g><!--class Sensor--><g id="elem_Sensor"><rect codeLine="23" fill="#F1F1F1" height="80.9766" id="Sensor" rx="2.5" ry="2.5" style="stroke:#181818;stroke-width:0.5;" width="230" x="466" y="282.5"/><ellipse cx="553.25" cy="298.5" fill="#B4A7E5" rx="11" ry="11" style="stroke:#181818;stroke-width:1.0;"/><path d="M549.1777,294.2651 L549.1777,292.1069 L556.5571,292.1069 L556.5571,294.2651 L554.0918,294.2651 L554.0918,302.3418 L556.5571,302.3418 L556.5571,304.5 L549.1777,304.5 L549.1777,302.3418 L551.6431,302.3418 L551.6431,294.2651 Z " fill="#000000"/><text fill="#000000" font-family="sans-serif" font-size="14" font-style="italic" lengthAdjust="spacing" textLength="47" x="573.75" y="303.791">Sensor</text><line style="stroke:#181818;stroke-width:0.5;" x1="467" x2="695" y1="314.5" y2="314.5"/><line style="stroke:#181818;stroke-width:0.5;" x1="467" x2="695" y1="322.5" y2="322.5"/><ellipse cx="477" cy="336.2441" fill="#84BE84" rx="3" ry="3" style="stroke:#038048;stroke-width:1.0;"/><text fill="#000000" font-family="sans-serif" font-size="14" lengthAdjust="spacing" textLength="204" x="486" y="340.0352">getSensorType() : SensorType</text><ellipse cx="477" cy="352.7324" fill="#84BE84" rx="3" ry="3" style="stroke:#038048;stroke-width:1.0;"/><text fill="#000000" font-family="sans-serif" font-size="14" lengthAdjust="spacing" textLength="120" x="486" y="356.5234">getValue() : Value</text></g><!--class SensorType--><g id="elem_SensorType"><rect codeLine="28" fill="#F1F1F1" height="130.4414" id="SensorType" rx="2.5" ry="2.5" style="stroke:#181818;stroke-width:0.5;" width="321" x="714.5" y="258"/><ellipse cx="830.75" cy="274" fill="#ADD1B2" rx="11" ry="11" style="stroke:#181818;stroke-width:1.0;"/><path d="M833.7231,279.6431 Q833.1421,279.9419 832.5029,280.0913 Q831.8638,280.2407 831.1582,280.2407 Q828.6514,280.2407 827.3315,278.5889 Q826.0117,276.937 826.0117,273.8159 Q826.0117,270.6865 827.3315,269.0347 Q828.6514,267.3828 831.1582,267.3828 Q831.8638,267.3828 832.5112,267.5322 Q833.1587,267.6816 833.7231,267.9805 L833.7231,270.7031 Q833.0923,270.1221 832.4988,269.8523 Q831.9053,269.5825 831.2744,269.5825 Q829.9297,269.5825 829.2449,270.6492 Q828.5601,271.7158 828.5601,273.8159 Q828.5601,275.9077 829.2449,276.9744 Q829.9297,278.041 831.2744,278.041 Q831.9053,278.041 832.4988,277.7712 Q833.0923,277.5015 833.7231,276.9204 Z " fill="#000000"/><text fill="#000000" font-family="sans-serif" font-size="14" lengthAdjust="spacing" textLength="80" x="851.25" y="279.291">SensorType</text><line style="stroke:#181818;stroke-width:0.5;" x1="715.5" x2="1034.5" y1="290" y2="290"/><rect fill="none" height="6" style="stroke:#C82930;stroke-width:1.0;" width="6" x="722.5" y="300.7441"/><text fill="#000000" font-family="sans-serif" font-size="14" lengthAdjust="spacing" textLength="137" x="734.5" y="307.5352">_description : String</text><rect fill="none" height="6" style="stroke:#C82930;stroke-width:1.0;" width="6" x="722.5" y="317.2324"/><text fill="#000000" font-family="sans-serif" font-size="14" lengthAdjust="spacing" textLength="74" x="734.5" y="324.0234">_unit : Unit</text><line style="stroke:#181818;stroke-width:0.5;" x1="715.5" x2="1034.5" y1="330.9766" y2="330.9766"/><polygon fill="#FFFF44" points="725.5,339.7207,729.5,343.7207,725.5,347.7207,721.5,343.7207" style="stroke:#B38D22;stroke-width:1.0;"/><text fill="#000000" font-family="sans-serif" font-size="14" lengthAdjust="spacing" textLength="295" x="734.5" y="348.5117">SensorType(description : String, unit : Unit)</text><ellipse cx="725.5" cy="361.209" fill="#84BE84" rx="3" ry="3" style="stroke:#038048;stroke-width:1.0;"/><text fill="#000000" font-family="sans-serif" font-size="14" lengthAdjust="spacing" textLength="163" x="734.5" y="365">getDescription() : String</text><ellipse cx="725.5" cy="377.6973" fill="#84BE84" rx="3" ry="3" style="stroke:#038048;stroke-width:1.0;"/><text fill="#000000" font-family="sans-serif" font-size="14" lengthAdjust="spacing" textLength="100" x="734.5" y="381.4883">getUnit() : Unit</text></g><!--class CatalogueSensor--><g id="elem_CatalogueSensor"><rect codeLine="39" fill="#F1F1F1" height="64.4883" id="CatalogueSensor" rx="2.5" ry="2.5" style="stroke:#181818;stroke-width:0.5;" width="360" x="1054" y="291"/><ellipse cx="1171.25" cy="307" fill="#ADD1B2" rx="11" ry="11" style="stroke:#181818;stroke-width:1.0;"/><path d="M1174.2231,312.6431 Q1173.6421,312.9419 1173.0029,313.0913 Q1172.3638,313.2407 1171.6582,313.2407 Q1169.1514,313.2407 1167.8315,311.5889 Q1166.5117,309.937 1166.5117,306.8159 Q1166.5117,303.6865 1167.8315,302.0347 Q1169.1514,300.3828 1171.6582,300.3828 Q1172.3638,300.3828 1173.0112,300.5322 Q1173.6587,300.6816 1174.2231,300.9805 L1174.2231,303.7031 Q1173.5923,303.1221 1172.9988,302.8523 Q1172.4053,302.5825 1171.7744,302.5825 Q1170.4297,302.5825 1169.7449,303.6492 Q1169.0601,304.7158 1169.0601,306.8159 Q1169.0601,308.9077 1169.7449,309.9744 Q1170.4297,311.041 1171.7744,311.041 Q1172.4053,311.041 1172.9988,310.7712 Q1173.5923,310.5015 1174.2231,309.9204 Z " fill="#000000"/><text fill="#000000" font-family="sans-serif" font-size="14" lengthAdjust="spacing" textLength="117" x="1191.75" y="312.291">CatalogueSensor</text><line style="stroke:#181818;stroke-width:0.5;" x1="1055" x2="1413" y1="323" y2="323"/><line style="stroke:#181818;stroke-width:0.5;" x1="1055" x2="1413" y1="331" y2="331"/><ellipse cx="1065" cy="344.7441" fill="#84BE84" rx="3" ry="3" style="stroke:#038048;stroke-width:1.0;"/><text fill="#000000" font-family="sans-serif" font-size="14" lengthAdjust="spacing" textLength="334" x="1074" y="348.5352">getSensorType(description : String) : SensorType</text></g><polygon fill="none" points="377.7437,323,359.7437,317,359.7437,329,377.7437,323" style="stroke:#181818;stroke-width:1.0;"/><path d="M359.7437,323 C346.8356,323 351.9276,323 339.0195,323 " fill="none" style="stroke:#181818;stroke-width:1.0;stroke-dasharray:7.0,7.0;"/><polygon fill="none" points="532.8242,282.2886,522.2407,266.5409,514.9088,276.0405,532.8242,282.2886" style="stroke:#181818;stroke-width:1.0;"/><path d="M353.6943,181.8085 C388.5322,196.3118 424.6034,212.9455 457,231 C483.3575,245.6889 496.3569,254.1428 518.5748,271.2907 " fill="none" style="stroke:#181818;stroke-width:1.0;stroke-dasharray:7.0,7.0;"/><polygon fill="#181818" points="766.0047,257.7992,759.7632,250.1806,761.5383,255.5517,756.1672,257.3268,766.0047,257.7992" style="stroke:#181818;stroke-width:1.0;"/><path d="M353.5622,145.5582 C456.2432,162.2016 590.8464,189.5174 705,231 C725.2938,238.3746 740.7935,245.1129 760.645,255.1022 " fill="none" style="stroke:#181818;stroke-width:1.0;"/><text fill="#000000" font-family="sans-serif" font-size="13" lengthAdjust="spacing" textLength="33" x="679" y="219.5684">has a</text><text fill="#000000" font-family="sans-serif" font-size="13" lengthAdjust="spacing" textLength="8" x="757.0047" y="254.3675">1</text><text fill="#000000" font-family="sans-serif" font-size="13" lengthAdjust="spacing" textLength="8" x="354.5622" y="142.1265">1</text><polygon fill="#181818" points="197.3107,274.2157,200.9902,265.08,197.134,269.2188,192.9952,265.3626,197.3107,274.2157" style="stroke:#181818;stroke-width:1.0;"/><path d="M194.263,188.0115 C195.2537,216.0319 196.184,242.3475 197.0987,268.2194 " fill="none" style="stroke:#181818;stroke-width:1.0;"/><text fill="#000000" font-family="sans-serif" font-size="13" lengthAdjust="spacing" textLength="54" x="196" y="219.5684">contains</text><text fill="#000000" font-family="sans-serif" font-size="13" lengthAdjust="spacing" textLength="8" x="188.3107" y="270.784">1</text><text fill="#000000" font-family="sans-serif" font-size="13" lengthAdjust="spacing" textLength="8" x="185.263" y="201.5798">1</text><polygon fill="#181818" points="1181.2767,290.8815,1175.3232,283.0357,1176.8971,288.4692,1171.4636,290.0431,1181.2767,290.8815" style="stroke:#181818;stroke-width:1.0;"/><path d="M353.5443,128.7604 C527.4816,137.439 810.7603,161.9267 1045,231 C1093.2044,245.2147 1139.1041,267.653 1176.0212,287.9867 " fill="none" style="stroke:#181818;stroke-width:1.0;stroke-dasharray:7.0,7.0;"/><text fill="#000000" font-family="sans-serif" font-size="13" lengthAdjust="spacing" textLength="29" x="1001" y="219.5684">uses</text><text fill="#000000" font-family="sans-serif" font-size="13" lengthAdjust="spacing" textLength="8" x="1172.2767" y="287.4498">1</text><text fill="#000000" font-family="sans-serif" font-size="13" lengthAdjust="spacing" textLength="8" x="354.5443" y="125.3287">1</text><polygon fill="none" points="377.7437,323,359.7437,317,359.7437,329,377.7437,323" style="stroke:#181818;stroke-width:1.0;"/><path d="M339.0195,323 C351.9276,323 346.8356,323 359.7437,323 " fill="none" style="stroke:#181818;stroke-width:1.0;stroke-dasharray:7.0,7.0;"/><!--SRC=[hLF9JiCm4BtdAuPoQGMrnBM7Nk30FT1hDNNTrC9B53kW2lBlf7OM9tKeGlZYvRtPtenlyW8pYI3mf4iBHZAB2fCaH_g66ODKOc6VjMJ4C6LqOU0pIQ1ULA0na7vmIu-fWse4chM40rSeOEkDNauvWnMatIKWRjzHb0uDN6tERntfRe3DALeKEdD6Z-tPOul09cEs3pXVnECxcelc67tSQgfAHm4kSy4aKzO42ksrHAw8PuHYR7URfiYTreAXcYZD9p8cXqLPdTg2gypNuuvjkbMiQJwbjcTSMLOSa3AuwDZ_wjLtVI33dXbQyDnohORfDtYfkAs1rthhdcy3R_EOWti8p4O3yDJpnufrdBEP0xkmrLYjiAE3GaVZzuEUiSmZ6bVdDbxyEJBuPeHyhI-dpeFNR6SFCrWkrswVSD5yrYCQmB-vYr7RcQPQsJgM-OrdGYOI7Sk-WjAmQovz1d7n7FOD]--></g></svg>