<?xml version="1.0" encoding="us-ascii" standalone="no"?><svg xmlns="http://www.w3.org/2000/svg" xmlns:xlink="http://www.w3.org/1999/xlink" contentStyleType="text/css" height="380px" preserveAspectRatio="none" style="width:902px;height:380px;background:#FFFFFF;" version="1.1" viewBox="0 0 902 380" width="902px" zoomAndPan="magnify"><defs/><g><rect fill="#FFFFFF" height="156.4551" style="stroke:#181818;stroke-width:1.0;" width="10" x="422" y="168.416"/><rect fill="#FFFFFF" height="31.291" style="stroke:#181818;stroke-width:1.0;" width="10" x="837" y="199.707"/><rect fill="#FFFFFF" height="31.291" style="stroke:#181818;stroke-width:1.0;" width="10" x="837" y="262.2891"/><line style="stroke:#181818;stroke-width:0.5;stroke-dasharray:5.0,5.0;" x1="14" x2="14" y1="38.6211" y2="342.8711"/><line style="stroke:#181818;stroke-width:0.5;stroke-dasharray:5.0,5.0;" x1="427" x2="427" y1="38.6211" y2="342.8711"/><line style="stroke:#181818;stroke-width:0.5;stroke-dasharray:5.0,5.0;" x1="842" x2="842" y1="38.6211" y2="342.8711"/><rect fill="#E2E2F0" height="32.6211" rx="2.5" ry="2.5" style="stroke:#181818;stroke-width:0.5;" width="18" x="5" y="5"/><text fill="#000000" font-family="sans-serif" font-size="14" lengthAdjust="spacing" textLength="4" x="12" y="27.1074">&#160;</text><rect fill="#E2E2F0" height="32.6211" rx="2.5" ry="2.5" style="stroke:#181818;stroke-width:0.5;" width="18" x="5" y="341.8711"/><text fill="#000000" font-family="sans-serif" font-size="14" lengthAdjust="spacing" textLength="4" x="12" y="363.9785">&#160;</text><rect fill="#E2E2F0" height="32.6211" rx="2.5" ry="2.5" style="stroke:#181818;stroke-width:0.5;" width="368" x="243" y="5"/><text fill="#000000" font-family="sans-serif" font-size="14" lengthAdjust="spacing" textLength="354" x="250" y="27.1074">:GetDevicesByRoomAndTemperatureFunctionalityCTRL</text><rect fill="#E2E2F0" height="32.6211" rx="2.5" ry="2.5" style="stroke:#181818;stroke-width:0.5;" width="368" x="243" y="341.8711"/><text fill="#000000" font-family="sans-serif" font-size="14" lengthAdjust="spacing" textLength="354" x="250" y="363.9785">:GetDevicesByRoomAndTemperatureFunctionalityCTRL</text><rect fill="#E2E2F0" height="32.6211" rx="2.5" ry="2.5" style="stroke:#181818;stroke-width:0.5;" width="108" x="788" y="5"/><text fill="#000000" font-family="sans-serif" font-size="14" lengthAdjust="spacing" textLength="94" x="795" y="27.1074">:DeviceService</text><rect fill="#E2E2F0" height="32.6211" rx="2.5" ry="2.5" style="stroke:#181818;stroke-width:0.5;" width="108" x="788" y="341.8711"/><text fill="#000000" font-family="sans-serif" font-size="14" lengthAdjust="spacing" textLength="94" x="795" y="363.9785">:DeviceService</text><rect fill="#FFFFFF" height="156.4551" style="stroke:#181818;stroke-width:1.0;" width="10" x="422" y="168.416"/><rect fill="#FFFFFF" height="31.291" style="stroke:#181818;stroke-width:1.0;" width="10" x="837" y="199.707"/><rect fill="#FFFFFF" height="31.291" style="stroke:#181818;stroke-width:1.0;" width="10" x="837" y="262.2891"/><rect fill="none" height="43.252" style="stroke:#000000;stroke-width:1.5;" width="612" x="2" y="48.6211"/><path d="M2,48.6211 L64,48.6211 L64,57.6211 L54,67.6211 L2,67.6211 L2,48.6211 " fill="#EEEEEE" style="stroke:#000000;stroke-width:2.0;"/><text fill="#000000" font-family="sans-serif" font-size="13" font-weight="bold" lengthAdjust="spacing" textLength="17" x="15" y="64.6494">ref</text><text fill="#000000" font-family="sans-serif" font-size="12" lengthAdjust="spacing" textLength="58" x="279" y="84.5703">getRooms</text><rect fill="none" height="43.252" style="stroke:#000000;stroke-width:1.5;" width="612" x="2" y="96.873"/><path d="M2,96.873 L64,96.873 L64,105.873 L54,115.873 L2,115.873 L2,96.873 " fill="#EEEEEE" style="stroke:#000000;stroke-width:2.0;"/><text fill="#000000" font-family="sans-serif" font-size="13" font-weight="bold" lengthAdjust="spacing" textLength="17" x="15" y="112.9014">ref</text><text fill="#000000" font-family="sans-serif" font-size="12" lengthAdjust="spacing" textLength="203" x="206.5" y="132.8223">getAllDevicesGroupedByFunctionality</text><ellipse cx="13.5" cy="167.666" fill="none" rx="4" ry="4" style="stroke:#181818;stroke-width:1.5;"/><polygon fill="#181818" points="410,164.416,420,168.416,410,172.416,414,168.416" style="stroke:#181818;stroke-width:1.0;"/><line style="stroke:#181818;stroke-width:1.0;" x1="18" x2="416" y1="168.416" y2="168.416"/><text fill="#000000" font-family="sans-serif" font-size="13" font-weight="bold" lengthAdjust="spacing" textLength="7" x="21" y="163.1533">1</text><text fill="#000000" font-family="sans-serif" font-size="13" lengthAdjust="spacing" textLength="378" x="32" y="163.1533">getDevicesByRoomAndTemperatureFunctionality(map, roomDTO)</text><polygon fill="#181818" points="825,195.707,835,199.707,825,203.707,829,199.707" style="stroke:#181818;stroke-width:1.0;"/><line style="stroke:#181818;stroke-width:1.0;" x1="432" x2="831" y1="199.707" y2="199.707"/><text fill="#000000" font-family="sans-serif" font-size="13" font-weight="bold" lengthAdjust="spacing" textLength="7" x="439" y="194.4443">2</text><text fill="#000000" font-family="sans-serif" font-size="13" lengthAdjust="spacing" textLength="334" x="450" y="194.4443">getDevicesByDescriptionFromMap (map, typeDescription)</text><polygon fill="#181818" points="443,226.998,433,230.998,443,234.998,439,230.998" style="stroke:#181818;stroke-width:1.0;"/><line style="stroke:#181818;stroke-width:1.0;stroke-dasharray:2.0,2.0;" x1="437" x2="841" y1="230.998" y2="230.998"/><text fill="#000000" font-family="sans-serif" font-size="13" font-weight="bold" lengthAdjust="spacing" textLength="7" x="449" y="225.7354">3</text><text fill="#000000" font-family="sans-serif" font-size="13" lengthAdjust="spacing" textLength="140" x="460" y="225.7354">temperatureDevicesDTO</text><polygon fill="#181818" points="825,258.2891,835,262.2891,825,266.2891,829,262.2891" style="stroke:#181818;stroke-width:1.0;"/><line style="stroke:#181818;stroke-width:1.0;" x1="432" x2="831" y1="262.2891" y2="262.2891"/><text fill="#000000" font-family="sans-serif" font-size="13" font-weight="bold" lengthAdjust="spacing" textLength="7" x="439" y="257.0264">4</text><text fill="#000000" font-family="sans-serif" font-size="13" lengthAdjust="spacing" textLength="375" x="450" y="257.0264">getDevicesFromListByRoomId (temperatureDevicesDTO, roomID)</text><polygon fill="#181818" points="443,289.5801,433,293.5801,443,297.5801,439,293.5801" style="stroke:#181818;stroke-width:1.0;"/><line style="stroke:#181818;stroke-width:1.0;stroke-dasharray:2.0,2.0;" x1="437" x2="841" y1="293.5801" y2="293.5801"/><text fill="#000000" font-family="sans-serif" font-size="13" font-weight="bold" lengthAdjust="spacing" textLength="7" x="449" y="288.3174">5</text><text fill="#000000" font-family="sans-serif" font-size="13" lengthAdjust="spacing" textLength="184" x="460" y="288.3174">temperatureDevicesDTOInRoom</text><polygon fill="#181818" points="25,320.8711,15,324.8711,25,328.8711,21,324.8711" style="stroke:#181818;stroke-width:1.0;"/><line style="stroke:#181818;stroke-width:1.0;stroke-dasharray:2.0,2.0;" x1="19" x2="426" y1="324.8711" y2="324.8711"/><text fill="#000000" font-family="sans-serif" font-size="13" font-weight="bold" lengthAdjust="spacing" textLength="7" x="31" y="319.6084">6</text><text fill="#000000" font-family="sans-serif" font-size="13" lengthAdjust="spacing" textLength="184" x="42" y="319.6084">temperatureDevicesDTOInRoom</text><!--SRC=[fP7FQiCm38VlUWgJopfebtiEWxQXfT0nwBe7y1AjC_ZVPBcGjvzDCfPqWnQ6RxRq_Jx9Tn_CFbHbwRMq78r-Q9mf0tv6j0qkMYLF90s0byIgKJuLYI8T6SHhG9hShvrbSbeZvUUYsYBNU5ODXbLtSCuiRNj4uv4aHy9Dj0qhPwLMtAsFXtqnWRqWvTQUr6E6gm90HdOschSa08JlmfrJPlQPZoGgSKBEkU5QqLBhGNHBBdfiLzt43Y2t2RTulEoyTRwPaNukA1NLn-VxD41wEal64GzWjB-KD4mxZQanDAHyvcx8cIVfHO_cpkFeSHmnW02-Lxguc8D_f8UW90dGuc_4LSLijLU1-utiMZ7xazxlObV_ttDdSz1rsyJAdtWxPVGpNm00]--></g></svg>