<?xml version="1.0" encoding="us-ascii" standalone="no"?><svg xmlns="http://www.w3.org/2000/svg" xmlns:xlink="http://www.w3.org/1999/xlink" contentStyleType="text/css" height="244px" preserveAspectRatio="none" style="width:910px;height:244px;background:#FFFFFF;" version="1.1" viewBox="0 0 910 244" width="910px" zoomAndPan="magnify"><defs/><g><!--class GetDevicesByRoomAndTemperatureFunctionalityCTRL--><g id="elem_GetDevicesByRoomAndTemperatureFunctionalityCTRL"><rect codeLine="4" fill="#F1F1F1" height="85.2422" id="GetDevicesByRoomAndTemperatureFunctionalityCTRL" rx="2.5" ry="2.5" style="stroke:#181818;stroke-width:0.5;" width="814" x="47.5" y="12"/><ellipse cx="275.25" cy="28" fill="#ADD1B2" rx="11" ry="11" style="stroke:#181818;stroke-width:1.0;"/><path d="M278.0156,23.875 Q278.1719,23.6563 278.3594,23.5469 Q278.5469,23.4375 278.7656,23.4375 Q279.1406,23.4375 279.375,23.7031 Q279.6094,23.9531 279.6094,24.5625 L279.6094,26.0156 Q279.6094,26.625 279.375,26.8906 Q279.1406,27.1563 278.7656,27.1563 Q278.4219,27.1563 278.2188,26.9531 Q278.0156,26.7656 277.9063,26.25 Q277.8594,25.8906 277.6719,25.7031 Q277.3438,25.3281 276.7344,25.1094 Q276.125,24.8906 275.5,24.8906 Q274.7344,24.8906 274.0938,25.2188 Q273.4688,25.5469 272.9688,26.2969 Q272.4844,27.0469 272.4844,28.0781 L272.4844,29.1719 Q272.4844,30.4063 273.375,31.2344 Q274.2656,32.0469 275.8594,32.0469 Q276.7969,32.0469 277.4531,31.7969 Q277.8438,31.6406 278.2656,31.2031 Q278.5313,30.9375 278.6719,30.8594 Q278.8281,30.7813 279.0313,30.7813 Q279.3594,30.7813 279.6094,31.0469 Q279.875,31.2969 279.875,31.6406 Q279.875,31.9844 279.5313,32.3906 Q279.0313,32.9688 278.2344,33.2969 Q277.1563,33.75 275.8594,33.75 Q274.3438,33.75 273.1406,33.125 Q272.1563,32.625 271.4688,31.5625 Q270.7813,30.4844 270.7813,29.2031 L270.7813,28.0469 Q270.7813,26.7188 271.3906,25.5781 Q272.0156,24.4219 273.1094,23.8125 Q274.2031,23.1875 275.4375,23.1875 Q276.1719,23.1875 276.8125,23.3594 Q277.4688,23.5156 278.0156,23.875 Z " fill="#000000"/><text fill="#000000" font-family="sans-serif" font-size="14" lengthAdjust="spacing" textLength="350" x="295.75" y="33.7969">GetDevicesByRoomAndTemperatureFunctionalityCTRL</text><line style="stroke:#181818;stroke-width:0.5;" x1="48.5" x2="860.5" y1="44" y2="44"/><rect fill="none" height="6" style="stroke:#C82930;stroke-width:1.0;" width="6" x="55.5" y="55.8105"/><text fill="#000000" font-family="sans-serif" font-size="14" lengthAdjust="spacing" textLength="189" x="67.5" y="63.1074">deviceService: IDeviceService</text><line style="stroke:#181818;stroke-width:0.5;" x1="48.5" x2="860.5" y1="70.6211" y2="70.6211"/><ellipse cx="58.5" cy="85.4316" fill="#84BE84" rx="3" ry="3" style="stroke:#038048;stroke-width:1.0;"/><text fill="#000000" font-family="sans-serif" font-size="14" lengthAdjust="spacing" textLength="788" x="67.5" y="89.7285">getDevicesByRoomAndTemperature(map : Map &lt;DeviceType, List&lt;DeviceDTO&gt;&gt;, roomDTO : RoomDTO): List&lt;DeviceDTO&gt;</text></g><!--class DeviceServiceImpl--><g id="elem_DeviceServiceImpl"><rect codeLine="12" fill="#F1F1F1" height="85.2422" id="DeviceServiceImpl" rx="2.5" ry="2.5" style="stroke:#181818;stroke-width:0.5;" width="897" x="6" y="152"/><ellipse cx="392.75" cy="168" fill="#ADD1B2" rx="11" ry="11" style="stroke:#181818;stroke-width:1.0;"/><path d="M395.5156,163.875 Q395.6719,163.6563 395.8594,163.5469 Q396.0469,163.4375 396.2656,163.4375 Q396.6406,163.4375 396.875,163.7031 Q397.1094,163.9531 397.1094,164.5625 L397.1094,166.0156 Q397.1094,166.625 396.875,166.8906 Q396.6406,167.1563 396.2656,167.1563 Q395.9219,167.1563 395.7188,166.9531 Q395.5156,166.7656 395.4063,166.25 Q395.3594,165.8906 395.1719,165.7031 Q394.8438,165.3281 394.2344,165.1094 Q393.625,164.8906 393,164.8906 Q392.2344,164.8906 391.5938,165.2188 Q390.9688,165.5469 390.4688,166.2969 Q389.9844,167.0469 389.9844,168.0781 L389.9844,169.1719 Q389.9844,170.4063 390.875,171.2344 Q391.7656,172.0469 393.3594,172.0469 Q394.2969,172.0469 394.9531,171.7969 Q395.3438,171.6406 395.7656,171.2031 Q396.0313,170.9375 396.1719,170.8594 Q396.3281,170.7813 396.5313,170.7813 Q396.8594,170.7813 397.1094,171.0469 Q397.375,171.2969 397.375,171.6406 Q397.375,171.9844 397.0313,172.3906 Q396.5313,172.9688 395.7344,173.2969 Q394.6563,173.75 393.3594,173.75 Q391.8438,173.75 390.6406,173.125 Q389.6563,172.625 388.9688,171.5625 Q388.2813,170.4844 388.2813,169.2031 L388.2813,168.0469 Q388.2813,166.7188 388.8906,165.5781 Q389.5156,164.4219 390.6094,163.8125 Q391.7031,163.1875 392.9375,163.1875 Q393.6719,163.1875 394.3125,163.3594 Q394.9688,163.5156 395.5156,163.875 Z " fill="#000000"/><text fill="#000000" font-family="sans-serif" font-size="14" lengthAdjust="spacing" textLength="115" x="413.25" y="173.7969">DeviceServiceImpl</text><line style="stroke:#181818;stroke-width:0.5;" x1="7" x2="902" y1="184" y2="184"/><line style="stroke:#181818;stroke-width:0.5;" x1="7" x2="902" y1="192" y2="192"/><ellipse cx="17" cy="206.8105" fill="#84BE84" rx="3" ry="3" style="stroke:#038048;stroke-width:1.0;"/><text fill="#000000" font-family="sans-serif" font-size="14" lengthAdjust="spacing" textLength="851" x="26" y="211.1074">getDevicesByTypeDescriptonFromMap(deviceMap : Map &lt;DeviceType, List&lt;DeviceDTO&gt;&gt;, typeDescription : String): List&lt;DeviceDTO&gt;</text><ellipse cx="17" cy="225.4316" fill="#84BE84" rx="3" ry="3" style="stroke:#038048;stroke-width:1.0;"/><text fill="#000000" font-family="sans-serif" font-size="14" lengthAdjust="spacing" textLength="871" x="26" y="229.7285">getDevicesFromListByRoomId(devicesDTO : List&lt;DeviceDTO&gt;, roomId : RoomID): List&lt;DeviceDTO&gt;, roomID : RoomID): List&lt;DeviceDTO&gt;</text></g><polygon fill="#181818" points="454.5,151.863,458.5,142.863,454.5,146.863,450.5,142.863,454.5,151.863" style="stroke:#181818;stroke-width:1.0;"/><path d="M454.5,97.279 C454.5,114.573 454.5,128.5839 454.5,145.863 " fill="none" style="stroke:#181818;stroke-width:1.0;stroke-dasharray:7.0,7.0;"/><text fill="#000000" font-family="sans-serif" font-size="13" lengthAdjust="spacing" textLength="28" x="455.5" y="130.0283">uses</text><text fill="#000000" font-family="sans-serif" font-size="13" lengthAdjust="spacing" textLength="7" x="446.5" y="147.8913">1</text><text fill="#000000" font-family="sans-serif" font-size="13" lengthAdjust="spacing" textLength="7" x="446.5" y="112.3074">1</text><!--SRC=[bL9TIyCm57tFhxZkfHlEWQz52jCmAMm8NVz0R2yrq7oGt0f5_E-cIuLQtPWlkJV9EJdd7d9ZdMYKW5RqfYFm2abemHYhMk4zF2DnV9SL-iU-C4PjTLsYikW4TGvtdQv86YrQIVrJMUpXWoLR8YTVEqAVi3keJ-mZkg6aaFFfdh7aWFHcwW2zXUQYrb892oaSmleGOMLlSGrxwMayuELBbgt11Mve0xY8tIgTezZdzu0__EJAjlCHpbeSv3dwoabBHk-SKS7RCivxkDOhJHu9GGRICKZhvW_BK_L1RRYFGUNrAElZs3DcJ2Ilnq1olZe7uHSWGsJ__GsB-mLiDjcf_WewXSwZ_m80]--></g></svg>