<?xml version="1.0" encoding="us-ascii" standalone="no"?><svg xmlns="http://www.w3.org/2000/svg" xmlns:xlink="http://www.w3.org/1999/xlink" contentStyleType="text/css" height="680px" preserveAspectRatio="none" style="width:1757px;height:680px;background:#FFFFFF;" version="1.1" viewBox="0 0 1757 680" width="1757px" zoomAndPan="magnify"><defs/><g><!--class DeactivateDeviceController--><g id="elem_DeactivateDeviceController"><rect codeLine="7" fill="#F1F1F1" height="153.6875" id="DeactivateDeviceController" rx="2.5" ry="2.5" style="stroke:#181818;stroke-width:0.5;" width="626" x="880.5" y="12"/><ellipse cx="1103.25" cy="34.291" fill="#ADD1B2" rx="11" ry="11" style="stroke:#181818;stroke-width:1.0;"/><path d="M1106.0156,30.166 Q1106.1719,29.9473 1106.3594,29.8379 Q1106.5469,29.7285 1106.7656,29.7285 Q1107.1406,29.7285 1107.375,29.9941 Q1107.6094,30.2441 1107.6094,30.8535 L1107.6094,32.3066 Q1107.6094,32.916 1107.375,33.1816 Q1107.1406,33.4473 1106.7656,33.4473 Q1106.4219,33.4473 1106.2188,33.2441 Q1106.0156,33.0566 1105.9063,32.541 Q1105.8594,32.1816 1105.6719,31.9941 Q1105.3438,31.6191 1104.7344,31.4004 Q1104.125,31.1816 1103.5,31.1816 Q1102.7344,31.1816 1102.0938,31.5098 Q1101.4688,31.8379 1100.9688,32.5879 Q1100.4844,33.3379 1100.4844,34.3691 L1100.4844,35.4629 Q1100.4844,36.6973 1101.375,37.5254 Q1102.2656,38.3379 1103.8594,38.3379 Q1104.7969,38.3379 1105.4531,38.0879 Q1105.8438,37.9316 1106.2656,37.4941 Q1106.5313,37.2285 1106.6719,37.1504 Q1106.8281,37.0723 1107.0313,37.0723 Q1107.3594,37.0723 1107.6094,37.3379 Q1107.875,37.5879 1107.875,37.9316 Q1107.875,38.2754 1107.5313,38.6816 Q1107.0313,39.2598 1106.2344,39.5879 Q1105.1563,40.041 1103.8594,40.041 Q1102.3438,40.041 1101.1406,39.416 Q1100.1563,38.916 1099.4688,37.8535 Q1098.7813,36.7754 1098.7813,35.4941 L1098.7813,34.3379 Q1098.7813,33.0098 1099.3906,31.8691 Q1100.0156,30.7129 1101.1094,30.1035 Q1102.2031,29.4785 1103.4375,29.4785 Q1104.1719,29.4785 1104.8125,29.6504 Q1105.4688,29.8066 1106.0156,30.166 Z " fill="#000000"/><text fill="#000000" font-family="sans-serif" font-size="12" font-style="italic" lengthAdjust="spacing" textLength="68" x="1175.75" y="29.9492">&#171;Controller&#187;</text><text fill="#000000" font-family="sans-serif" font-size="14" lengthAdjust="spacing" textLength="172" x="1123.75" y="48.0684">DeactivateDeviceController</text><line style="stroke:#181818;stroke-width:0.5;" x1="881.5" x2="1505.5" y1="56.582" y2="56.582"/><rect fill="none" height="6" style="stroke:#C82930;stroke-width:1.0;" width="6" x="888.5" y="68.3926"/><text fill="#000000" font-family="sans-serif" font-size="14" lengthAdjust="spacing" textLength="186" x="900.5" y="75.6895">deviceServiceImpl: DeviceService</text><rect fill="none" height="6" style="stroke:#C82930;stroke-width:1.0;" width="6" x="888.5" y="87.0137"/><text fill="#000000" font-family="sans-serif" font-size="14" lengthAdjust="spacing" textLength="224" x="900.5" y="94.3105">deviceAssembler: DeviceAssembler</text><line style="stroke:#181818;stroke-width:0.5;" x1="881.5" x2="1505.5" y1="101.8242" y2="101.8242"/><ellipse cx="891.5" cy="116.6348" fill="#84BE84" rx="3" ry="3" style="stroke:#038048;stroke-width:1.0;"/><text fill="#000000" font-family="sans-serif" font-size="14" lengthAdjust="spacing" textLength="600" x="900.5" y="120.9316">DeactivateDeviceController(deviceServiceImpl: DeviceService, deviceAssembler: DeviceAssembler)</text><ellipse cx="891.5" cy="135.2559" fill="#84BE84" rx="3" ry="3" style="stroke:#038048;stroke-width:1.0;"/><text fill="#000000" font-family="sans-serif" font-size="14" lengthAdjust="spacing" textLength="242" x="900.5" y="139.5527">requestAllDevices(): List&lt;DeviceDTO&gt;</text><ellipse cx="891.5" cy="153.877" fill="#84BE84" rx="3" ry="3" style="stroke:#038048;stroke-width:1.0;"/><text fill="#000000" font-family="sans-serif" font-size="14" lengthAdjust="spacing" textLength="406" x="900.5" y="158.1738">requestDeactivateDevice((deviceDTO: DeviceDTO): DeviceDTO</text></g><!--class DeviceService--><g id="elem_DeviceService"><rect codeLine="17" fill="#F1F1F1" height="190.9297" id="DeviceService" rx="2.5" ry="2.5" style="stroke:#181818;stroke-width:0.5;" width="771" x="373" y="221"/><ellipse cx="709.25" cy="243.291" fill="#ADD1B2" rx="11" ry="11" style="stroke:#181818;stroke-width:1.0;"/><path d="M712.0156,239.166 Q712.1719,238.9473 712.3594,238.8379 Q712.5469,238.7285 712.7656,238.7285 Q713.1406,238.7285 713.375,238.9941 Q713.6094,239.2441 713.6094,239.8535 L713.6094,241.3066 Q713.6094,241.916 713.375,242.1816 Q713.1406,242.4473 712.7656,242.4473 Q712.4219,242.4473 712.2188,242.2441 Q712.0156,242.0566 711.9063,241.541 Q711.8594,241.1816 711.6719,240.9941 Q711.3438,240.6191 710.7344,240.4004 Q710.125,240.1816 709.5,240.1816 Q708.7344,240.1816 708.0938,240.5098 Q707.4688,240.8379 706.9688,241.5879 Q706.4844,242.3379 706.4844,243.3691 L706.4844,244.4629 Q706.4844,245.6973 707.375,246.5254 Q708.2656,247.3379 709.8594,247.3379 Q710.7969,247.3379 711.4531,247.0879 Q711.8438,246.9316 712.2656,246.4941 Q712.5313,246.2285 712.6719,246.1504 Q712.8281,246.0723 713.0313,246.0723 Q713.3594,246.0723 713.6094,246.3379 Q713.875,246.5879 713.875,246.9316 Q713.875,247.2754 713.5313,247.6816 Q713.0313,248.2598 712.2344,248.5879 Q711.1563,249.041 709.8594,249.041 Q708.3438,249.041 707.1406,248.416 Q706.1563,247.916 705.4688,246.8535 Q704.7813,245.7754 704.7813,244.4941 L704.7813,243.3379 Q704.7813,242.0098 705.3906,240.8691 Q706.0156,239.7129 707.1094,239.1035 Q708.2031,238.4785 709.4375,238.4785 Q710.1719,238.4785 710.8125,238.6504 Q711.4688,238.8066 712.0156,239.166 Z " fill="#000000"/><text fill="#000000" font-family="sans-serif" font-size="12" font-style="italic" lengthAdjust="spacing" textLength="55" x="747.25" y="238.9492">&#171;Service&#187;</text><text fill="#000000" font-family="sans-serif" font-size="14" lengthAdjust="spacing" textLength="90" x="729.75" y="257.0684">DeviceService</text><line style="stroke:#181818;stroke-width:0.5;" x1="374" x2="1143" y1="265.582" y2="265.582"/><rect fill="none" height="6" style="stroke:#C82930;stroke-width:1.0;" width="6" x="381" y="277.3926"/><text fill="#000000" font-family="sans-serif" font-size="14" lengthAdjust="spacing" textLength="228" x="393" y="284.6895">deviceRepository: DeviceRepository</text><rect fill="none" height="6" style="stroke:#C82930;stroke-width:1.0;" width="6" x="381" y="296.0137"/><text fill="#000000" font-family="sans-serif" font-size="14" lengthAdjust="spacing" textLength="188" x="393" y="303.3105">deviceFactory: DeviceFactory</text><rect fill="none" height="6" style="stroke:#C82930;stroke-width:1.0;" width="6" x="381" y="314.6348"/><text fill="#000000" font-family="sans-serif" font-size="14" lengthAdjust="spacing" textLength="213" x="393" y="321.9316">roomRepository: RoomRepository</text><line style="stroke:#181818;stroke-width:0.5;" x1="374" x2="1143" y1="329.4453" y2="329.4453"/><ellipse cx="384" cy="344.2559" fill="#84BE84" rx="3" ry="3" style="stroke:#038048;stroke-width:1.0;"/><text fill="#000000" font-family="sans-serif" font-size="14" lengthAdjust="spacing" textLength="745" x="393" y="348.5527">DeviceService(deviceRepository: DeviceRepository, deviceFactory: DeviceFactory, roomRepository: RoomRepository)</text><ellipse cx="384" cy="362.877" fill="#84BE84" rx="3" ry="3" style="stroke:#038048;stroke-width:1.0;"/><text fill="#000000" font-family="sans-serif" font-size="14" lengthAdjust="spacing" textLength="314" x="393" y="367.1738">deactivateDeviceById(deviceID, DeviceID): Device</text><ellipse cx="384" cy="381.498" fill="#84BE84" rx="3" ry="3" style="stroke:#038048;stroke-width:1.0;"/><text fill="#000000" font-family="sans-serif" font-size="14" lengthAdjust="spacing" textLength="184" x="393" y="385.7949">getAllDevices(): List&lt;Device&gt;</text><ellipse cx="384" cy="400.1191" fill="#84BE84" rx="3" ry="3" style="stroke:#038048;stroke-width:1.0;"/><text fill="#000000" font-family="sans-serif" font-size="14" lengthAdjust="spacing" textLength="338" x="393" y="404.416">getDeviceById(deviceID: DeviceID): Optional&lt;Device&gt;</text></g><!--class DeviceRepository--><g id="elem_DeviceRepository"><rect codeLine="29" fill="#F1F1F1" height="116.4453" id="DeviceRepository" rx="2.5" ry="2.5" style="stroke:#181818;stroke-width:0.5;" width="331" x="6" y="512.5"/><ellipse cx="111.75" cy="534.791" fill="#ADD1B2" rx="11" ry="11" style="stroke:#181818;stroke-width:1.0;"/><path d="M114.5156,530.666 Q114.6719,530.4473 114.8594,530.3379 Q115.0469,530.2285 115.2656,530.2285 Q115.6406,530.2285 115.875,530.4941 Q116.1094,530.7441 116.1094,531.3535 L116.1094,532.8066 Q116.1094,533.416 115.875,533.6816 Q115.6406,533.9473 115.2656,533.9473 Q114.9219,533.9473 114.7188,533.7441 Q114.5156,533.5566 114.4063,533.041 Q114.3594,532.6816 114.1719,532.4941 Q113.8438,532.1191 113.2344,531.9004 Q112.625,531.6816 112,531.6816 Q111.2344,531.6816 110.5938,532.0098 Q109.9688,532.3379 109.4688,533.0879 Q108.9844,533.8379 108.9844,534.8691 L108.9844,535.9629 Q108.9844,537.1973 109.875,538.0254 Q110.7656,538.8379 112.3594,538.8379 Q113.2969,538.8379 113.9531,538.5879 Q114.3438,538.4316 114.7656,537.9941 Q115.0313,537.7285 115.1719,537.6504 Q115.3281,537.5723 115.5313,537.5723 Q115.8594,537.5723 116.1094,537.8379 Q116.375,538.0879 116.375,538.4316 Q116.375,538.7754 116.0313,539.1816 Q115.5313,539.7598 114.7344,540.0879 Q113.6563,540.541 112.3594,540.541 Q110.8438,540.541 109.6406,539.916 Q108.6563,539.416 107.9688,538.3535 Q107.2813,537.2754 107.2813,535.9941 L107.2813,534.8379 Q107.2813,533.5098 107.8906,532.3691 Q108.5156,531.2129 109.6094,530.6035 Q110.7031,529.9785 111.9375,529.9785 Q112.6719,529.9785 113.3125,530.1504 Q113.9688,530.3066 114.5156,530.666 Z " fill="#000000"/><text fill="#000000" font-family="sans-serif" font-size="12" font-style="italic" lengthAdjust="spacing" textLength="73" x="151.25" y="530.4492">&#171;Repository&#187;</text><text fill="#000000" font-family="sans-serif" font-size="14" lengthAdjust="spacing" textLength="111" x="132.25" y="548.5684">DeviceRepository</text><line style="stroke:#181818;stroke-width:0.5;" x1="7" x2="336" y1="557.082" y2="557.082"/><rect fill="none" height="6" style="stroke:#C82930;stroke-width:1.0;" width="6" x="14" y="568.8926"/><text fill="#000000" font-family="sans-serif" font-size="14" lengthAdjust="spacing" textLength="193" x="26" y="576.1895">DATA: Map&lt;deviceID, Device&gt;</text><line style="stroke:#181818;stroke-width:0.5;" x1="7" x2="336" y1="583.7031" y2="583.7031"/><ellipse cx="17" cy="598.5137" fill="#84BE84" rx="3" ry="3" style="stroke:#038048;stroke-width:1.0;"/><text fill="#000000" font-family="sans-serif" font-size="14" lengthAdjust="spacing" textLength="137" x="26" y="602.8105">findAll(): List&lt;Device&gt;</text><ellipse cx="17" cy="617.1348" fill="#84BE84" rx="3" ry="3" style="stroke:#038048;stroke-width:1.0;"/><text fill="#000000" font-family="sans-serif" font-size="14" lengthAdjust="spacing" textLength="305" x="26" y="621.4316">ofIdentity(deviceID: DeviceID): Optional&lt;Device&gt;</text></g><!--class DeviceAssembler--><g id="elem_DeviceAssembler"><rect codeLine="37" fill="#F1F1F1" height="97.8242" id="DeviceAssembler" rx="2.5" ry="2.5" style="stroke:#181818;stroke-width:0.5;" width="400" x="1214.5" y="267.5"/><ellipse cx="1355.75" cy="289.791" fill="#ADD1B2" rx="11" ry="11" style="stroke:#181818;stroke-width:1.0;"/><path d="M1358.5156,285.666 Q1358.6719,285.4473 1358.8594,285.3379 Q1359.0469,285.2285 1359.2656,285.2285 Q1359.6406,285.2285 1359.875,285.4941 Q1360.1094,285.7441 1360.1094,286.3535 L1360.1094,287.8066 Q1360.1094,288.416 1359.875,288.6816 Q1359.6406,288.9473 1359.2656,288.9473 Q1358.9219,288.9473 1358.7188,288.7441 Q1358.5156,288.5566 1358.4063,288.041 Q1358.3594,287.6816 1358.1719,287.4941 Q1357.8438,287.1191 1357.2344,286.9004 Q1356.625,286.6816 1356,286.6816 Q1355.2344,286.6816 1354.5938,287.0098 Q1353.9688,287.3379 1353.4688,288.0879 Q1352.9844,288.8379 1352.9844,289.8691 L1352.9844,290.9629 Q1352.9844,292.1973 1353.875,293.0254 Q1354.7656,293.8379 1356.3594,293.8379 Q1357.2969,293.8379 1357.9531,293.5879 Q1358.3438,293.4316 1358.7656,292.9941 Q1359.0313,292.7285 1359.1719,292.6504 Q1359.3281,292.5723 1359.5313,292.5723 Q1359.8594,292.5723 1360.1094,292.8379 Q1360.375,293.0879 1360.375,293.4316 Q1360.375,293.7754 1360.0313,294.1816 Q1359.5313,294.7598 1358.7344,295.0879 Q1357.6563,295.541 1356.3594,295.541 Q1354.8438,295.541 1353.6406,294.916 Q1352.6563,294.416 1351.9688,293.3535 Q1351.2813,292.2754 1351.2813,290.9941 L1351.2813,289.8379 Q1351.2813,288.5098 1351.8906,287.3691 Q1352.5156,286.2129 1353.6094,285.6035 Q1354.7031,284.9785 1355.9375,284.9785 Q1356.6719,284.9785 1357.3125,285.1504 Q1357.9688,285.3066 1358.5156,285.666 Z " fill="#000000"/><text fill="#000000" font-family="sans-serif" font-size="12" font-style="italic" lengthAdjust="spacing" textLength="74" x="1393.75" y="285.4492">&#171;Assembler&#187;</text><text fill="#000000" font-family="sans-serif" font-size="14" lengthAdjust="spacing" textLength="109" x="1376.25" y="303.5684">DeviceAssembler</text><line style="stroke:#181818;stroke-width:0.5;" x1="1215.5" x2="1613.5" y1="312.082" y2="312.082"/><line style="stroke:#181818;stroke-width:0.5;" x1="1215.5" x2="1613.5" y1="320.082" y2="320.082"/><ellipse cx="1225.5" cy="334.8926" fill="#84BE84" rx="3" ry="3" style="stroke:#038048;stroke-width:1.0;"/><text fill="#000000" font-family="sans-serif" font-size="14" lengthAdjust="spacing" textLength="276" x="1234.5" y="339.1895">domainToDTO(device: Device): DeviceDTO</text><ellipse cx="1225.5" cy="353.5137" fill="#84BE84" rx="3" ry="3" style="stroke:#038048;stroke-width:1.0;"/><text fill="#000000" font-family="sans-serif" font-size="14" lengthAdjust="spacing" textLength="374" x="1234.5" y="357.8105">domainToDTO(deviceList: List&lt;Device&gt;): List&lt;DeviceDTO&gt;</text></g><!--class DeviceDTO--><g id="elem_DeviceDTO"><rect codeLine="44" fill="#F1F1F1" height="153.6875" id="DeviceDTO" rx="2.5" ry="2.5" style="stroke:#181818;stroke-width:0.5;" width="570" x="1180.5" y="493.5"/><ellipse cx="1424.75" cy="515.791" fill="#ADD1B2" rx="11" ry="11" style="stroke:#181818;stroke-width:1.0;"/><path d="M1427.5156,511.666 Q1427.6719,511.4473 1427.8594,511.3379 Q1428.0469,511.2285 1428.2656,511.2285 Q1428.6406,511.2285 1428.875,511.4941 Q1429.1094,511.7441 1429.1094,512.3535 L1429.1094,513.8066 Q1429.1094,514.416 1428.875,514.6816 Q1428.6406,514.9473 1428.2656,514.9473 Q1427.9219,514.9473 1427.7188,514.7441 Q1427.5156,514.5566 1427.4063,514.041 Q1427.3594,513.6816 1427.1719,513.4941 Q1426.8438,513.1191 1426.2344,512.9004 Q1425.625,512.6816 1425,512.6816 Q1424.2344,512.6816 1423.5938,513.0098 Q1422.9688,513.3379 1422.4688,514.0879 Q1421.9844,514.8379 1421.9844,515.8691 L1421.9844,516.9629 Q1421.9844,518.1973 1422.875,519.0254 Q1423.7656,519.8379 1425.3594,519.8379 Q1426.2969,519.8379 1426.9531,519.5879 Q1427.3438,519.4316 1427.7656,518.9941 Q1428.0313,518.7285 1428.1719,518.6504 Q1428.3281,518.5723 1428.5313,518.5723 Q1428.8594,518.5723 1429.1094,518.8379 Q1429.375,519.0879 1429.375,519.4316 Q1429.375,519.7754 1429.0313,520.1816 Q1428.5313,520.7598 1427.7344,521.0879 Q1426.6563,521.541 1425.3594,521.541 Q1423.8438,521.541 1422.6406,520.916 Q1421.6563,520.416 1420.9688,519.3535 Q1420.2813,518.2754 1420.2813,516.9941 L1420.2813,515.8379 Q1420.2813,514.5098 1420.8906,513.3691 Q1421.5156,512.2129 1422.6094,511.6035 Q1423.7031,510.9785 1424.9375,510.9785 Q1425.6719,510.9785 1426.3125,511.1504 Q1426.9688,511.3066 1427.5156,511.666 Z " fill="#000000"/><text fill="#000000" font-family="sans-serif" font-size="12" font-style="italic" lengthAdjust="spacing" textLength="39" x="1462.25" y="511.4492">&#171;DTO&#187;</text><text fill="#000000" font-family="sans-serif" font-size="14" lengthAdjust="spacing" textLength="73" x="1445.25" y="529.5684">DeviceDTO</text><line style="stroke:#181818;stroke-width:0.5;" x1="1181.5" x2="1749.5" y1="538.082" y2="538.082"/><ellipse cx="1191.5" cy="552.8926" fill="none" rx="3" ry="3" style="stroke:#038048;stroke-width:1.0;"/><text fill="#000000" font-family="sans-serif" font-size="14" lengthAdjust="spacing" textLength="99" x="1200.5" y="557.1895">deviceID: String</text><ellipse cx="1191.5" cy="571.5137" fill="none" rx="3" ry="3" style="stroke:#038048;stroke-width:1.0;"/><text fill="#000000" font-family="sans-serif" font-size="14" lengthAdjust="spacing" textLength="90" x="1200.5" y="575.8105">roomID: String</text><ellipse cx="1191.5" cy="590.1348" fill="none" rx="3" ry="3" style="stroke:#038048;stroke-width:1.0;"/><text fill="#000000" font-family="sans-serif" font-size="14" lengthAdjust="spacing" textLength="122" x="1200.5" y="594.4316">deviceName: String</text><ellipse cx="1191.5" cy="608.7559" fill="none" rx="3" ry="3" style="stroke:#038048;stroke-width:1.0;"/><text fill="#000000" font-family="sans-serif" font-size="14" lengthAdjust="spacing" textLength="126" x="1200.5" y="613.0527">deviceStatus: String</text><line style="stroke:#181818;stroke-width:0.5;" x1="1181.5" x2="1749.5" y1="620.5664" y2="620.5664"/><ellipse cx="1191.5" cy="635.377" fill="#84BE84" rx="3" ry="3" style="stroke:#038048;stroke-width:1.0;"/><text fill="#000000" font-family="sans-serif" font-size="14" lengthAdjust="spacing" textLength="544" x="1200.5" y="639.6738">DeviceDTO(deviceID: String, roomID: String, deviceName: String, deviceStatus: String)</text></g><!--class Device--><g id="elem_Device"><rect codeLine="54" fill="#F1F1F1" height="206.8906" id="Device" rx="2.5" ry="2.5" style="stroke:#181818;stroke-width:0.5;" width="807" x="355" y="467"/><ellipse cx="732.75" cy="497.2715" fill="#ADD1B2" rx="11" ry="11" style="stroke:#181818;stroke-width:1.0;"/><path d="M735.5156,493.1465 Q735.6719,492.9277 735.8594,492.8184 Q736.0469,492.709 736.2656,492.709 Q736.6406,492.709 736.875,492.9746 Q737.1094,493.2246 737.1094,493.834 L737.1094,495.2871 Q737.1094,495.8965 736.875,496.1621 Q736.6406,496.4277 736.2656,496.4277 Q735.9219,496.4277 735.7188,496.2246 Q735.5156,496.0371 735.4063,495.5215 Q735.3594,495.1621 735.1719,494.9746 Q734.8438,494.5996 734.2344,494.3809 Q733.625,494.1621 733,494.1621 Q732.2344,494.1621 731.5938,494.4902 Q730.9688,494.8184 730.4688,495.5684 Q729.9844,496.3184 729.9844,497.3496 L729.9844,498.4434 Q729.9844,499.6777 730.875,500.5059 Q731.7656,501.3184 733.3594,501.3184 Q734.2969,501.3184 734.9531,501.0684 Q735.3438,500.9121 735.7656,500.4746 Q736.0313,500.209 736.1719,500.1309 Q736.3281,500.0527 736.5313,500.0527 Q736.8594,500.0527 737.1094,500.3184 Q737.375,500.5684 737.375,500.9121 Q737.375,501.2559 737.0313,501.6621 Q736.5313,502.2402 735.7344,502.5684 Q734.6563,503.0215 733.3594,503.0215 Q731.8438,503.0215 730.6406,502.3965 Q729.6563,501.8965 728.9688,500.834 Q728.2813,499.7559 728.2813,498.4746 L728.2813,497.3184 Q728.2813,495.9902 728.8906,494.8496 Q729.5156,493.6934 730.6094,493.084 Q731.7031,492.459 732.9375,492.459 Q733.6719,492.459 734.3125,492.6309 Q734.9688,492.7871 735.5156,493.1465 Z " fill="#000000"/><text fill="#000000" font-family="sans-serif" font-size="12" font-style="italic" lengthAdjust="spacing" textLength="43" x="753.25" y="484.9492">&#171;entity&#187;</text><text fill="#000000" font-family="sans-serif" font-size="12" font-style="italic" lengthAdjust="spacing" textLength="35" x="757.25" y="500.9102">&#171;root&#187;</text><text fill="#000000" font-family="sans-serif" font-size="14" lengthAdjust="spacing" textLength="43" x="753.25" y="519.0293">Device</text><line style="stroke:#181818;stroke-width:0.5;" x1="356" x2="1161" y1="527.543" y2="527.543"/><rect fill="none" height="6" style="stroke:#C82930;stroke-width:1.0;" width="6" x="363" y="539.3535"/><text fill="#000000" font-family="sans-serif" font-size="14" lengthAdjust="spacing" textLength="103" x="375" y="546.6504">roomID: RoomID</text><rect fill="none" height="6" style="stroke:#C82930;stroke-width:1.0;" width="6" x="363" y="557.9746"/><text fill="#000000" font-family="sans-serif" font-size="14" lengthAdjust="spacing" textLength="118" x="375" y="565.2715">deviceID: DeviceID</text><rect fill="none" height="6" style="stroke:#C82930;stroke-width:1.0;" width="6" x="363" y="576.5957"/><text fill="#000000" font-family="sans-serif" font-size="14" lengthAdjust="spacing" textLength="164" x="375" y="583.8926">deviceName: DeviceName</text><rect fill="none" height="6" style="stroke:#C82930;stroke-width:1.0;" width="6" x="363" y="595.2168"/><text fill="#000000" font-family="sans-serif" font-size="14" lengthAdjust="spacing" textLength="129" x="375" y="602.5137">status: DeviceStatus</text><rect fill="none" height="6" style="stroke:#C82930;stroke-width:1.0;" width="6" x="363" y="613.8379"/><text fill="#000000" font-family="sans-serif" font-size="14" lengthAdjust="spacing" textLength="182" x="375" y="621.1348">deviceTypeID: DeviceTypeID</text><line style="stroke:#181818;stroke-width:0.5;" x1="356" x2="1161" y1="628.6484" y2="628.6484"/><polygon fill="#FFFF44" points="366,638.459,370,642.459,366,646.459,362,642.459" style="stroke:#B38D22;stroke-width:1.0;"/><text fill="#000000" font-family="sans-serif" font-size="14" lengthAdjust="spacing" textLength="781" x="375" y="647.7559">Device(roomID: RoomID, deviceID: DeviceID, deviceName: DeviceName, status: DeviceStatus, deviceTypeID: DeviceTypeID)</text><ellipse cx="366" cy="662.0801" fill="#84BE84" rx="3" ry="3" style="stroke:#038048;stroke-width:1.0;"/><text fill="#000000" font-family="sans-serif" font-size="14" lengthAdjust="spacing" textLength="209" x="375" y="666.377">deactivateDevice(): DeviceStatus</text></g><polygon fill="#181818" points="940.8006,220.9971,950.6317,220.4062,945.2396,218.6959,946.9499,213.3038,940.8006,220.9971" style="stroke:#181818;stroke-width:1.0;"/><path d="M1046.8353,166.0296 C1012.7975,183.6745 981.4883,199.9049 946.1274,218.2357 " fill="none" style="stroke:#181818;stroke-width:1.0;stroke-dasharray:7.0,7.0;"/><text fill="#000000" font-family="sans-serif" font-size="13" lengthAdjust="spacing" textLength="28" x="1003.5" y="199.0283">uses</text><text fill="#000000" font-family="sans-serif" font-size="13" lengthAdjust="spacing" textLength="7" x="932.8006" y="217.0254">1</text><text fill="#000000" font-family="sans-serif" font-size="13" lengthAdjust="spacing" textLength="7" x="1038.8353" y="181.058">1</text><polygon fill="#181818" points="1367.3134,267.3526,1363.8707,258.125,1363.8137,263.7816,1358.1571,263.7246,1367.3134,267.3526" style="stroke:#181818;stroke-width:1.0;"/><path d="M1268.0124,166.0296 C1300.8436,199.5293 1334.2331,233.5987 1363.1137,263.0674 " fill="none" style="stroke:#181818;stroke-width:1.0;stroke-dasharray:7.0,7.0;"/><text fill="#000000" font-family="sans-serif" font-size="13" lengthAdjust="spacing" textLength="28" x="1305.5" y="199.0283">uses</text><text fill="#000000" font-family="sans-serif" font-size="13" lengthAdjust="spacing" textLength="7" x="1359.3134" y="263.3809">1</text><text fill="#000000" font-family="sans-serif" font-size="13" lengthAdjust="spacing" textLength="7" x="1260.0124" y="181.058">1</text><polygon fill="#181818" points="261.436,512.2475,271.2182,511.1038,265.7383,509.7,267.1422,504.2201,261.436,512.2475" style="stroke:#181818;stroke-width:1.0;"/><path d="M475.4503,412.0609 C431.3914,429.0349 386.8118,447.5597 345.5,467 C317.425,480.2114 293.1292,493.4812 266.5988,509.1905 " fill="none" style="stroke:#181818;stroke-width:1.0;stroke-dasharray:7.0,7.0;"/><text fill="#000000" font-family="sans-serif" font-size="13" lengthAdjust="spacing" textLength="28" x="423.5" y="445.0283">uses</text><text fill="#000000" font-family="sans-serif" font-size="13" lengthAdjust="spacing" textLength="7" x="253.436" y="508.2758">1</text><text fill="#000000" font-family="sans-serif" font-size="13" lengthAdjust="spacing" textLength="7" x="467.4503" y="427.0892">1</text><polygon fill="#181818" points="1450.0421,493.1196,1452.1773,483.505,1449.0503,488.2189,1444.3363,485.0918,1450.0421,493.1196" style="stroke:#181818;stroke-width:1.0;"/><path d="M1424.273,365.79 C1431.5616,401.8045 1440.4725,445.8349 1448.8519,487.2388 " fill="none" style="stroke:#181818;stroke-width:1.0;stroke-dasharray:7.0,7.0;"/><text fill="#000000" font-family="sans-serif" font-size="13" lengthAdjust="spacing" textLength="43" x="1441.5" y="445.0283">creates</text><text fill="#000000" font-family="sans-serif" font-size="13" lengthAdjust="spacing" textLength="5" x="1444.0421" y="489.1479">*</text><text fill="#000000" font-family="sans-serif" font-size="13" lengthAdjust="spacing" textLength="7" x="1416.273" y="380.8183">1</text><polygon fill="#181818" points="758.5,466.8202,762.5,457.8202,758.5,461.8202,754.5,457.8202,758.5,466.8202" style="stroke:#181818;stroke-width:1.0;"/><path d="M758.5,412.0525 C758.5,429.929 758.5,442.7077 758.5,460.8202 " fill="none" style="stroke:#181818;stroke-width:1.0;stroke-dasharray:7.0,7.0;"/><text fill="#000000" font-family="sans-serif" font-size="13" lengthAdjust="spacing" textLength="65" x="759.5" y="445.0283">deactivates</text><text fill="#000000" font-family="sans-serif" font-size="13" lengthAdjust="spacing" textLength="7" x="750.5" y="462.8486">1</text><text fill="#000000" font-family="sans-serif" font-size="13" lengthAdjust="spacing" textLength="7" x="750.5" y="427.0808">1</text><!--SRC=[dLLBZzem4BxdLxZqiAJBmkurYYBHHfMGkjqAKE_Un80b9qxjoLQewd-lmOuV8O6skSGpdldccuVjkmD08vF5ec6uXhPYyu9NYu9XAHzAYlS2Lr7qhX5uNs74y96tW6H50DVOgcM16K5FZu_e9otXOFMj9D-90AgsLxjlN4hwoaWKdS5HJd01z0q3oSaRBSWdNeFWZ161qjG9MOP-HKXzTqi0GLzR8F8iFvHdjmqHfr-2Sb_qBPPIaae55fsDLMZSPm87NchG-t5MqslnPkXMh5ZZ2_AZ9HAMZEbzEOqJz8LAIBMSRr-omB9FQ6fuACCkXbh6tZhwxKhiKLHLDQjR9LsJXaiAN1mxLAVnxJuhPfwH4RM5uBpoSTQ1F5XuZ-lqDf6kuiCaPkWw0TEDibVSZyTLQMAlyfc1NEMskjfhJyRxbrcJ0SJ4HtnfWF8QC-lOQviZgphdX2mRwLs-t2uJz8oRj9z0Db3k7QrBbSGmUxvRbQG62iV_esw7NZ6tQqiyu57o2jDwozNScbXTf62aHsnFrCC41awJ8XUmKqh5wxGrKifxb_H6RTHxSo3L1FLrsl8hhiYGVWCOMXdi30szoyV1wm7svSjGdIuC4_UxaQQwbrcMfWeKnez_5t9z_lj7tHy0Nw_fv7QjzwGXb7lqVA_jiV4GjNHPdVVcmWjPTKdxZCBYE3OpDCIainvYCN8lJEDUCgh4LzwloTC4pUVP-P-7huPw4kM_kNfFYd7sB_LBU__IynpScRGk7oRkH2Ie40J3N-0do5L7_W40]--></g></svg>