<?xml version="1.0" encoding="us-ascii" standalone="no"?><svg xmlns="http://www.w3.org/2000/svg" xmlns:xlink="http://www.w3.org/1999/xlink" contentStyleType="text/css" height="804px" preserveAspectRatio="none" style="width:1189px;height:804px;background:#FFFFFF;" version="1.1" viewBox="0 0 1189 804" width="1189px" zoomAndPan="magnify"><defs/><g><!--class DeactivateDevice_Controller--><g id="elem_DeactivateDevice_Controller"><rect codeLine="4" fill="#F1F1F1" height="178.3477" id="DeactivateDevice_Controller" rx="2.5" ry="2.5" style="stroke:#181818;stroke-width:0.5;" width="604" x="417" y="12"/><ellipse cx="624.75" cy="28" fill="#ADD1B2" rx="11" ry="11" style="stroke:#181818;stroke-width:1.0;"/><path d="M627.5156,23.875 Q627.6719,23.6563 627.8594,23.5469 Q628.0469,23.4375 628.2656,23.4375 Q628.6406,23.4375 628.875,23.7031 Q629.1094,23.9531 629.1094,24.5625 L629.1094,26.0156 Q629.1094,26.625 628.875,26.8906 Q628.6406,27.1563 628.2656,27.1563 Q627.9219,27.1563 627.7188,26.9531 Q627.5156,26.7656 627.4063,26.25 Q627.3594,25.8906 627.1719,25.7031 Q626.8438,25.3281 626.2344,25.1094 Q625.625,24.8906 625,24.8906 Q624.2344,24.8906 623.5938,25.2188 Q622.9688,25.5469 622.4688,26.2969 Q621.9844,27.0469 621.9844,28.0781 L621.9844,29.1719 Q621.9844,30.4063 622.875,31.2344 Q623.7656,32.0469 625.3594,32.0469 Q626.2969,32.0469 626.9531,31.7969 Q627.3438,31.6406 627.7656,31.2031 Q628.0313,30.9375 628.1719,30.8594 Q628.3281,30.7813 628.5313,30.7813 Q628.8594,30.7813 629.1094,31.0469 Q629.375,31.2969 629.375,31.6406 Q629.375,31.9844 629.0313,32.3906 Q628.5313,32.9688 627.7344,33.2969 Q626.6563,33.75 625.3594,33.75 Q623.8438,33.75 622.6406,33.125 Q621.6563,32.625 620.9688,31.5625 Q620.2813,30.4844 620.2813,29.2031 L620.2813,28.0469 Q620.2813,26.7188 620.8906,25.5781 Q621.5156,24.4219 622.6094,23.8125 Q623.7031,23.1875 624.9375,23.1875 Q625.6719,23.1875 626.3125,23.3594 Q626.9688,23.5156 627.5156,23.875 Z " fill="#000000"/><text fill="#000000" font-family="sans-serif" font-size="14" lengthAdjust="spacing" textLength="180" x="645.25" y="33.7969">DeactivateDevice_Controller</text><line style="stroke:#181818;stroke-width:0.5;" x1="418" x2="1020" y1="44" y2="44"/><rect fill="none" height="6" style="stroke:#C82930;stroke-width:1.0;" width="6" x="425" y="55.8105"/><text fill="#000000" font-family="sans-serif" font-size="14" lengthAdjust="spacing" textLength="95" x="437" y="63.1074">_house: House</text><rect fill="none" height="6" style="stroke:#C82930;stroke-width:1.0;" width="6" x="425" y="74.4316"/><text fill="#000000" font-family="sans-serif" font-size="14" lengthAdjust="spacing" textLength="336" x="437" y="81.7285">_devicesDTOAndDevices: Map&lt;DeviceDTO, Device&gt;</text><text fill="#000000" font-family="sans-serif" font-size="14" lengthAdjust="spacing" textLength="4" x="437" y="100.3496">&#160;</text><rect fill="none" height="6" style="stroke:#C82930;stroke-width:1.0;" width="6" x="425" y="111.6738"/><text fill="#000000" font-family="sans-serif" font-size="14" lengthAdjust="spacing" textLength="242" x="437" y="118.9707">isValidConstructorArguments: boolean</text><line style="stroke:#181818;stroke-width:0.5;" x1="418" x2="1020" y1="126.4844" y2="126.4844"/><ellipse cx="428" cy="141.2949" fill="#84BE84" rx="3" ry="3" style="stroke:#038048;stroke-width:1.0;"/><text fill="#000000" font-family="sans-serif" font-size="14" lengthAdjust="spacing" textLength="269" x="437" y="145.5918">DeactivateDeviceController(house: House)</text><ellipse cx="428" cy="159.916" fill="#84BE84" rx="3" ry="3" style="stroke:#038048;stroke-width:1.0;"/><text fill="#000000" font-family="sans-serif" font-size="14" lengthAdjust="spacing" textLength="214" x="437" y="164.2129">getDeviceList(): List&lt;DeviceDTO&gt;</text><ellipse cx="428" cy="178.5371" fill="#84BE84" rx="3" ry="3" style="stroke:#038048;stroke-width:1.0;"/><text fill="#000000" font-family="sans-serif" font-size="14" lengthAdjust="spacing" textLength="578" x="437" y="182.834">deactivateDevice(deviceDTO: Optional&lt;DeviceDTO&gt;): (deviceDTO: Optional&lt;DeviceDTO&gt;)</text></g><!--class DeviceAssembler--><g id="elem_DeviceAssembler"><rect codeLine="16" fill="#F1F1F1" height="66.6211" id="DeviceAssembler" rx="2.5" ry="2.5" style="stroke:#181818;stroke-width:0.5;" width="694" x="6" y="291.5"/><ellipse cx="294.25" cy="307.5" fill="#ADD1B2" rx="11" ry="11" style="stroke:#181818;stroke-width:1.0;"/><path d="M297.0156,303.375 Q297.1719,303.1563 297.3594,303.0469 Q297.5469,302.9375 297.7656,302.9375 Q298.1406,302.9375 298.375,303.2031 Q298.6094,303.4531 298.6094,304.0625 L298.6094,305.5156 Q298.6094,306.125 298.375,306.3906 Q298.1406,306.6563 297.7656,306.6563 Q297.4219,306.6563 297.2188,306.4531 Q297.0156,306.2656 296.9063,305.75 Q296.8594,305.3906 296.6719,305.2031 Q296.3438,304.8281 295.7344,304.6094 Q295.125,304.3906 294.5,304.3906 Q293.7344,304.3906 293.0938,304.7188 Q292.4688,305.0469 291.9688,305.7969 Q291.4844,306.5469 291.4844,307.5781 L291.4844,308.6719 Q291.4844,309.9063 292.375,310.7344 Q293.2656,311.5469 294.8594,311.5469 Q295.7969,311.5469 296.4531,311.2969 Q296.8438,311.1406 297.2656,310.7031 Q297.5313,310.4375 297.6719,310.3594 Q297.8281,310.2813 298.0313,310.2813 Q298.3594,310.2813 298.6094,310.5469 Q298.875,310.7969 298.875,311.1406 Q298.875,311.4844 298.5313,311.8906 Q298.0313,312.4688 297.2344,312.7969 Q296.1563,313.25 294.8594,313.25 Q293.3438,313.25 292.1406,312.625 Q291.1563,312.125 290.4688,311.0625 Q289.7813,309.9844 289.7813,308.7031 L289.7813,307.5469 Q289.7813,306.2188 290.3906,305.0781 Q291.0156,303.9219 292.1094,303.3125 Q293.2031,302.6875 294.4375,302.6875 Q295.1719,302.6875 295.8125,302.8594 Q296.4688,303.0156 297.0156,303.375 Z " fill="#000000"/><text fill="#000000" font-family="sans-serif" font-size="14" lengthAdjust="spacing" textLength="109" x="314.75" y="313.2969">DeviceAssembler</text><line style="stroke:#181818;stroke-width:0.5;" x1="7" x2="699" y1="323.5" y2="323.5"/><line style="stroke:#181818;stroke-width:0.5;" x1="7" x2="699" y1="331.5" y2="331.5"/><ellipse cx="17" cy="346.3105" fill="#84BE84" rx="3" ry="3" style="stroke:#038048;stroke-width:1.0;"/><text fill="#000000" font-family="sans-serif" font-size="14" lengthAdjust="spacing" textLength="668" x="26" y="350.6074">&#171;static&#187; domain2DTOMapper(devices: List&lt;Device&gt;): devicesDTOAndDevices: Map&lt;DeviceDTO, Device&gt;</text></g><!--class DeviceDTO--><g id="elem_DeviceDTO"><rect codeLine="21" fill="#F1F1F1" height="141.1055" id="DeviceDTO" rx="2.5" ry="2.5" style="stroke:#181818;stroke-width:0.5;" width="209" x="248.5" y="460"/><ellipse cx="312.25" cy="476" fill="#ADD1B2" rx="11" ry="11" style="stroke:#181818;stroke-width:1.0;"/><path d="M315.0156,471.875 Q315.1719,471.6563 315.3594,471.5469 Q315.5469,471.4375 315.7656,471.4375 Q316.1406,471.4375 316.375,471.7031 Q316.6094,471.9531 316.6094,472.5625 L316.6094,474.0156 Q316.6094,474.625 316.375,474.8906 Q316.1406,475.1563 315.7656,475.1563 Q315.4219,475.1563 315.2188,474.9531 Q315.0156,474.7656 314.9063,474.25 Q314.8594,473.8906 314.6719,473.7031 Q314.3438,473.3281 313.7344,473.1094 Q313.125,472.8906 312.5,472.8906 Q311.7344,472.8906 311.0938,473.2188 Q310.4688,473.5469 309.9688,474.2969 Q309.4844,475.0469 309.4844,476.0781 L309.4844,477.1719 Q309.4844,478.4063 310.375,479.2344 Q311.2656,480.0469 312.8594,480.0469 Q313.7969,480.0469 314.4531,479.7969 Q314.8438,479.6406 315.2656,479.2031 Q315.5313,478.9375 315.6719,478.8594 Q315.8281,478.7813 316.0313,478.7813 Q316.3594,478.7813 316.6094,479.0469 Q316.875,479.2969 316.875,479.6406 Q316.875,479.9844 316.5313,480.3906 Q316.0313,480.9688 315.2344,481.2969 Q314.1563,481.75 312.8594,481.75 Q311.3438,481.75 310.1406,481.125 Q309.1563,480.625 308.4688,479.5625 Q307.7813,478.4844 307.7813,477.2031 L307.7813,476.0469 Q307.7813,474.7188 308.3906,473.5781 Q309.0156,472.4219 310.1094,471.8125 Q311.2031,471.1875 312.4375,471.1875 Q313.1719,471.1875 313.8125,471.3594 Q314.4688,471.5156 315.0156,471.875 Z " fill="#000000"/><text fill="#000000" font-family="sans-serif" font-size="14" lengthAdjust="spacing" textLength="73" x="332.75" y="481.7969">DeviceDTO</text><line style="stroke:#181818;stroke-width:0.5;" x1="249.5" x2="456.5" y1="492" y2="492"/><rect fill="none" height="6" style="stroke:#C82930;stroke-width:1.0;" width="6" x="256.5" y="503.8105"/><text fill="#000000" font-family="sans-serif" font-size="14" lengthAdjust="spacing" textLength="93" x="268.5" y="511.1074">deviceID: UUID</text><rect fill="none" height="6" style="stroke:#C82930;stroke-width:1.0;" width="6" x="256.5" y="522.4316"/><text fill="#000000" font-family="sans-serif" font-size="14" lengthAdjust="spacing" textLength="80" x="268.5" y="529.7285">name: String</text><rect fill="none" height="6" style="stroke:#C82930;stroke-width:1.0;" width="6" x="256.5" y="541.0527"/><text fill="#000000" font-family="sans-serif" font-size="14" lengthAdjust="spacing" textLength="97" x="268.5" y="548.3496">status: boolean</text><line style="stroke:#181818;stroke-width:0.5;" x1="249.5" x2="456.5" y1="555.8633" y2="555.8633"/><ellipse cx="259.5" cy="570.6738" fill="#84BE84" rx="3" ry="3" style="stroke:#038048;stroke-width:1.0;"/><text fill="#000000" font-family="sans-serif" font-size="14" lengthAdjust="spacing" textLength="183" x="268.5" y="574.9707">DeviceDTO(name, id, status)</text><ellipse cx="259.5" cy="589.2949" fill="#84BE84" rx="3" ry="3" style="stroke:#038048;stroke-width:1.0;"/><text fill="#000000" font-family="sans-serif" font-size="14" lengthAdjust="spacing" textLength="86" x="268.5" y="593.5918">domain2Dto()</text></g><!--class House--><g id="elem_House"><rect codeLine="32" fill="#F1F1F1" height="159.7266" id="House" rx="2.5" ry="2.5" style="stroke:#181818;stroke-width:0.5;" width="464" x="718" y="245"/><ellipse cx="925.75" cy="261" fill="#ADD1B2" rx="11" ry="11" style="stroke:#181818;stroke-width:1.0;"/><path d="M928.5156,256.875 Q928.6719,256.6563 928.8594,256.5469 Q929.0469,256.4375 929.2656,256.4375 Q929.6406,256.4375 929.875,256.7031 Q930.1094,256.9531 930.1094,257.5625 L930.1094,259.0156 Q930.1094,259.625 929.875,259.8906 Q929.6406,260.1563 929.2656,260.1563 Q928.9219,260.1563 928.7188,259.9531 Q928.5156,259.7656 928.4063,259.25 Q928.3594,258.8906 928.1719,258.7031 Q927.8438,258.3281 927.2344,258.1094 Q926.625,257.8906 926,257.8906 Q925.2344,257.8906 924.5938,258.2188 Q923.9688,258.5469 923.4688,259.2969 Q922.9844,260.0469 922.9844,261.0781 L922.9844,262.1719 Q922.9844,263.4063 923.875,264.2344 Q924.7656,265.0469 926.3594,265.0469 Q927.2969,265.0469 927.9531,264.7969 Q928.3438,264.6406 928.7656,264.2031 Q929.0313,263.9375 929.1719,263.8594 Q929.3281,263.7813 929.5313,263.7813 Q929.8594,263.7813 930.1094,264.0469 Q930.375,264.2969 930.375,264.6406 Q930.375,264.9844 930.0313,265.3906 Q929.5313,265.9688 928.7344,266.2969 Q927.6563,266.75 926.3594,266.75 Q924.8438,266.75 923.6406,266.125 Q922.6563,265.625 921.9688,264.5625 Q921.2813,263.4844 921.2813,262.2031 L921.2813,261.0469 Q921.2813,259.7188 921.8906,258.5781 Q922.5156,257.4219 923.6094,256.8125 Q924.7031,256.1875 925.9375,256.1875 Q926.6719,256.1875 927.3125,256.3594 Q927.9688,256.5156 928.5156,256.875 Z " fill="#000000"/><text fill="#000000" font-family="sans-serif" font-size="14" lengthAdjust="spacing" textLength="40" x="946.25" y="266.7969">House</text><line style="stroke:#181818;stroke-width:0.5;" x1="719" x2="1181" y1="277" y2="277"/><rect fill="none" height="6" style="stroke:#C82930;stroke-width:1.0;" width="6" x="726" y="288.8105"/><text fill="#000000" font-family="sans-serif" font-size="14" lengthAdjust="spacing" textLength="173" x="738" y="296.1074">roomFactory: RoomFactory</text><rect fill="none" height="6" style="stroke:#C82930;stroke-width:1.0;" width="6" x="726" y="307.4316"/><text fill="#000000" font-family="sans-serif" font-size="14" lengthAdjust="spacing" textLength="207" x="738" y="314.7285">locationFactory: LocationFactory</text><rect fill="none" height="6" style="stroke:#C82930;stroke-width:1.0;" width="6" x="726" y="326.0527"/><text fill="#000000" font-family="sans-serif" font-size="14" lengthAdjust="spacing" textLength="122" x="738" y="333.3496">rooms: List&lt;Room&gt;</text><line style="stroke:#181818;stroke-width:0.5;" x1="719" x2="1181" y1="340.8633" y2="340.8633"/><ellipse cx="729" cy="355.6738" fill="#84BE84" rx="3" ry="3" style="stroke:#038048;stroke-width:1.0;"/><text fill="#000000" font-family="sans-serif" font-size="14" lengthAdjust="spacing" textLength="438" x="738" y="359.9707">House(roomFactory: RoomFactory, locationFactory: LocationFactory)</text><ellipse cx="729" cy="374.2949" fill="#84BE84" rx="3" ry="3" style="stroke:#038048;stroke-width:1.0;"/><text fill="#000000" font-family="sans-serif" font-size="14" lengthAdjust="spacing" textLength="157" x="738" y="378.5918">getRooms(): List&lt;Room&gt;</text><ellipse cx="729" cy="392.916" fill="#84BE84" rx="3" ry="3" style="stroke:#038048;stroke-width:1.0;"/><text fill="#000000" font-family="sans-serif" font-size="14" lengthAdjust="spacing" textLength="184" x="738" y="397.2129">getAllDevices(): List&lt;Device&gt;</text></g><!--class Room--><g id="elem_Room"><rect codeLine="44" fill="#F1F1F1" height="141.1055" id="Room" rx="2.5" ry="2.5" style="stroke:#181818;stroke-width:0.5;" width="195" x="851.5" y="460"/><ellipse cx="926.25" cy="476" fill="#ADD1B2" rx="11" ry="11" style="stroke:#181818;stroke-width:1.0;"/><path d="M929.0156,471.875 Q929.1719,471.6563 929.3594,471.5469 Q929.5469,471.4375 929.7656,471.4375 Q930.1406,471.4375 930.375,471.7031 Q930.6094,471.9531 930.6094,472.5625 L930.6094,474.0156 Q930.6094,474.625 930.375,474.8906 Q930.1406,475.1563 929.7656,475.1563 Q929.4219,475.1563 929.2188,474.9531 Q929.0156,474.7656 928.9063,474.25 Q928.8594,473.8906 928.6719,473.7031 Q928.3438,473.3281 927.7344,473.1094 Q927.125,472.8906 926.5,472.8906 Q925.7344,472.8906 925.0938,473.2188 Q924.4688,473.5469 923.9688,474.2969 Q923.4844,475.0469 923.4844,476.0781 L923.4844,477.1719 Q923.4844,478.4063 924.375,479.2344 Q925.2656,480.0469 926.8594,480.0469 Q927.7969,480.0469 928.4531,479.7969 Q928.8438,479.6406 929.2656,479.2031 Q929.5313,478.9375 929.6719,478.8594 Q929.8281,478.7813 930.0313,478.7813 Q930.3594,478.7813 930.6094,479.0469 Q930.875,479.2969 930.875,479.6406 Q930.875,479.9844 930.5313,480.3906 Q930.0313,480.9688 929.2344,481.2969 Q928.1563,481.75 926.8594,481.75 Q925.3438,481.75 924.1406,481.125 Q923.1563,480.625 922.4688,479.5625 Q921.7813,478.4844 921.7813,477.2031 L921.7813,476.0469 Q921.7813,474.7188 922.3906,473.5781 Q923.0156,472.4219 924.1094,471.8125 Q925.2031,471.1875 926.4375,471.1875 Q927.1719,471.1875 927.8125,471.3594 Q928.4688,471.5156 929.0156,471.875 Z " fill="#000000"/><text fill="#000000" font-family="sans-serif" font-size="14" lengthAdjust="spacing" textLength="37" x="946.75" y="481.7969">Room</text><line style="stroke:#181818;stroke-width:0.5;" x1="852.5" x2="1045.5" y1="492" y2="492"/><rect fill="none" height="6" style="stroke:#C82930;stroke-width:1.0;" width="6" x="859.5" y="503.8105"/><text fill="#000000" font-family="sans-serif" font-size="14" lengthAdjust="spacing" textLength="50" x="871.5" y="511.1074">id: UUID</text><rect fill="none" height="6" style="stroke:#C82930;stroke-width:1.0;" width="6" x="859.5" y="522.4316"/><text fill="#000000" font-family="sans-serif" font-size="14" lengthAdjust="spacing" textLength="80" x="871.5" y="529.7285">name: String</text><rect fill="none" height="6" style="stroke:#C82930;stroke-width:1.0;" width="6" x="859.5" y="541.0527"/><text fill="#000000" font-family="sans-serif" font-size="14" lengthAdjust="spacing" textLength="137" x="871.5" y="548.3496">devices: List&lt;Device&gt;</text><line style="stroke:#181818;stroke-width:0.5;" x1="852.5" x2="1045.5" y1="555.8633" y2="555.8633"/><ellipse cx="862.5" cy="570.6738" fill="#84BE84" rx="3" ry="3" style="stroke:#038048;stroke-width:1.0;"/><text fill="#000000" font-family="sans-serif" font-size="14" lengthAdjust="spacing" textLength="127" x="871.5" y="574.9707">Room(name: String)</text><ellipse cx="862.5" cy="589.2949" fill="#84BE84" rx="3" ry="3" style="stroke:#038048;stroke-width:1.0;"/><text fill="#000000" font-family="sans-serif" font-size="14" lengthAdjust="spacing" textLength="169" x="871.5" y="593.5918">getDevices(): List&lt;Device&gt;</text></g><!--class Device--><g id="elem_Device"><rect codeLine="55" fill="#F1F1F1" height="141.1055" id="Device" rx="2.5" ry="2.5" style="stroke:#181818;stroke-width:0.5;" width="203" x="846.5" y="656"/><ellipse cx="922.25" cy="672" fill="#ADD1B2" rx="11" ry="11" style="stroke:#181818;stroke-width:1.0;"/><path d="M925.0156,667.875 Q925.1719,667.6563 925.3594,667.5469 Q925.5469,667.4375 925.7656,667.4375 Q926.1406,667.4375 926.375,667.7031 Q926.6094,667.9531 926.6094,668.5625 L926.6094,670.0156 Q926.6094,670.625 926.375,670.8906 Q926.1406,671.1563 925.7656,671.1563 Q925.4219,671.1563 925.2188,670.9531 Q925.0156,670.7656 924.9063,670.25 Q924.8594,669.8906 924.6719,669.7031 Q924.3438,669.3281 923.7344,669.1094 Q923.125,668.8906 922.5,668.8906 Q921.7344,668.8906 921.0938,669.2188 Q920.4688,669.5469 919.9688,670.2969 Q919.4844,671.0469 919.4844,672.0781 L919.4844,673.1719 Q919.4844,674.4063 920.375,675.2344 Q921.2656,676.0469 922.8594,676.0469 Q923.7969,676.0469 924.4531,675.7969 Q924.8438,675.6406 925.2656,675.2031 Q925.5313,674.9375 925.6719,674.8594 Q925.8281,674.7813 926.0313,674.7813 Q926.3594,674.7813 926.6094,675.0469 Q926.875,675.2969 926.875,675.6406 Q926.875,675.9844 926.5313,676.3906 Q926.0313,676.9688 925.2344,677.2969 Q924.1563,677.75 922.8594,677.75 Q921.3438,677.75 920.1406,677.125 Q919.1563,676.625 918.4688,675.5625 Q917.7813,674.4844 917.7813,673.2031 L917.7813,672.0469 Q917.7813,670.7188 918.3906,669.5781 Q919.0156,668.4219 920.1094,667.8125 Q921.2031,667.1875 922.4375,667.1875 Q923.1719,667.1875 923.8125,667.3594 Q924.4688,667.5156 925.0156,667.875 Z " fill="#000000"/><text fill="#000000" font-family="sans-serif" font-size="14" lengthAdjust="spacing" textLength="43" x="942.75" y="677.7969">Device</text><line style="stroke:#181818;stroke-width:0.5;" x1="847.5" x2="1048.5" y1="688" y2="688"/><rect fill="none" height="6" style="stroke:#C82930;stroke-width:1.0;" width="6" x="854.5" y="699.8105"/><text fill="#000000" font-family="sans-serif" font-size="14" lengthAdjust="spacing" textLength="50" x="866.5" y="707.1074">id: UUID</text><rect fill="none" height="6" style="stroke:#C82930;stroke-width:1.0;" width="6" x="854.5" y="718.4316"/><text fill="#000000" font-family="sans-serif" font-size="14" lengthAdjust="spacing" textLength="80" x="866.5" y="725.7285">name: String</text><rect fill="none" height="6" style="stroke:#C82930;stroke-width:1.0;" width="6" x="854.5" y="737.0527"/><text fill="#000000" font-family="sans-serif" font-size="14" lengthAdjust="spacing" textLength="83" x="866.5" y="744.3496">status: String</text><line style="stroke:#181818;stroke-width:0.5;" x1="847.5" x2="1048.5" y1="751.8633" y2="751.8633"/><ellipse cx="857.5" cy="766.6738" fill="#84BE84" rx="3" ry="3" style="stroke:#038048;stroke-width:1.0;"/><text fill="#000000" font-family="sans-serif" font-size="14" lengthAdjust="spacing" textLength="133" x="866.5" y="770.9707">Device(name: String)</text><ellipse cx="857.5" cy="785.2949" fill="#84BE84" rx="3" ry="3" style="stroke:#038048;stroke-width:1.0;"/><text fill="#000000" font-family="sans-serif" font-size="14" lengthAdjust="spacing" textLength="177" x="866.5" y="789.5918">deactivateDevice(): boolean</text></g><polygon fill="#181818" points="867.4719,244.6873,863.7545,235.567,863.8669,241.2227,858.2111,241.3351,867.4719,244.6873" style="stroke:#181818;stroke-width:1.0;"/><path d="M810.6291,190.0591 C829.3978,208.0966 844.7198,222.8216 863.1459,240.5298 " fill="none" style="stroke:#181818;stroke-width:1.0;stroke-dasharray:7.0,7.0;"/><text fill="#000000" font-family="sans-serif" font-size="13" lengthAdjust="spacing" textLength="28" x="850" y="223.0283">uses</text><text fill="#000000" font-family="sans-serif" font-size="13" lengthAdjust="spacing" textLength="7" x="859.4719" y="240.7156">1</text><text fill="#000000" font-family="sans-serif" font-size="13" lengthAdjust="spacing" textLength="7" x="802.6291" y="205.0875">1</text><polygon fill="#181818" points="406.6475,291.4597,416.4171,290.2122,410.9226,288.8666,412.2682,283.3721,406.6475,291.4597" style="stroke:#181818;stroke-width:1.0;"/><path d="M573.8214,190.0591 C514.9453,225.7709 455.7378,261.6836 411.7776,288.348 " fill="none" style="stroke:#181818;stroke-width:1.0;stroke-dasharray:7.0,7.0;"/><text fill="#000000" font-family="sans-serif" font-size="13" lengthAdjust="spacing" textLength="28" x="537" y="223.0283">uses</text><text fill="#000000" font-family="sans-serif" font-size="13" lengthAdjust="spacing" textLength="7" x="398.6475" y="287.488">1</text><text fill="#000000" font-family="sans-serif" font-size="13" lengthAdjust="spacing" textLength="7" x="574.8214" y="205.0875">1</text><polygon fill="#181818" points="353,459.7827,357,450.7827,353,454.7827,349,450.7827,353,459.7827" style="stroke:#181818;stroke-width:1.0;"/><path d="M353,358.6958 C353,385.8852 353,419.5305 353,453.7827 " fill="none" style="stroke:#181818;stroke-width:1.0;stroke-dasharray:7.0,7.0;"/><text fill="#000000" font-family="sans-serif" font-size="13" lengthAdjust="spacing" textLength="43" x="354" y="438.0283">creates</text><polygon fill="#181818" points="927.1958,459.6649,929.1977,450.0216,926.1362,454.7784,921.3794,451.717,927.1958,459.6649" style="stroke:#181818;stroke-width:1.0;"/><path d="M924.4625,405.2464 C922.7738,417.4935 922.3254,430.0431 924,442 C924.8108,447.7891 924.6379,447.8688 925.9243,453.8012 " fill="none" style="stroke:#181818;stroke-width:1.0;stroke-dasharray:7.0,7.0;"/><text fill="#000000" font-family="sans-serif" font-size="13" lengthAdjust="spacing" textLength="28" x="925" y="438.0283">uses</text><text fill="#000000" font-family="sans-serif" font-size="13" lengthAdjust="spacing" textLength="5" x="921.1958" y="455.6932">*</text><text fill="#000000" font-family="sans-serif" font-size="13" lengthAdjust="spacing" textLength="7" x="916.4625" y="420.2747">1</text><polygon fill="#181818" points="923.9543,655.9386,926.4386,646.4083,923.1418,651.0051,918.545,647.7083,923.9543,655.9386" style="stroke:#181818;stroke-width:1.0;"/><path d="M926.325,601.3056 C924.9869,607.2445 923.8439,613.1975 923,619 C921.2507,631.0285 920.9636,637.7787 922.9793,650.0184 " fill="none" style="stroke:#181818;stroke-width:1.0;stroke-dasharray:7.0,7.0;"/><text fill="#000000" font-family="sans-serif" font-size="13" lengthAdjust="spacing" textLength="28" x="924" y="634.0283">uses</text><text fill="#000000" font-family="sans-serif" font-size="13" lengthAdjust="spacing" textLength="5" x="917.9543" y="651.967">*</text><text fill="#000000" font-family="sans-serif" font-size="13" lengthAdjust="spacing" textLength="7" x="918.325" y="616.3339">1</text><polygon fill="#181818" points="954.0633,405.2431,950.1842,411.322,954.3035,417.2407,958.1826,411.1618,954.0633,405.2431" style="stroke:#181818;stroke-width:1.0;"/><path d="M954.3035,417.2407 C954.55,429.5457 954.3393,430.1158 954,442 C953.835,447.7796 953.6088,453.7714 953.3433,459.7849 " fill="none" style="stroke:#181818;stroke-width:1.0;"/><text fill="#000000" font-family="sans-serif" font-size="13" lengthAdjust="spacing" textLength="21" x="956" y="438.0283">has</text><text fill="#000000" font-family="sans-serif" font-size="13" lengthAdjust="spacing" textLength="16" x="954.3433" y="455.8133">0.*</text><text fill="#000000" font-family="sans-serif" font-size="13" lengthAdjust="spacing" textLength="7" x="946.0633" y="420.2714">1</text><polygon fill="#181818" points="952.9379,601.0987,949.0942,607.2001,953.2479,613.0947,957.0916,606.9934,952.9379,601.0987" style="stroke:#181818;stroke-width:1.0;"/><path d="M953.2479,613.0947 C953.5656,625.3879 953.3406,626.0707 953,638 C952.835,643.7796 952.6088,649.7714 952.3433,655.7849 " fill="none" style="stroke:#181818;stroke-width:1.0;"/><text fill="#000000" font-family="sans-serif" font-size="13" lengthAdjust="spacing" textLength="21" x="955" y="634.0283">has</text><text fill="#000000" font-family="sans-serif" font-size="13" lengthAdjust="spacing" textLength="16" x="953.3433" y="651.8133">0.*</text><text fill="#000000" font-family="sans-serif" font-size="13" lengthAdjust="spacing" textLength="7" x="953.9379" y="616.127">1</text><!--SRC=[fLJVQzim47xtNt7BI-qk2TiUJJ2OcR52Is5RzrekbaW4iXMaSw6K_U-JB3bMFRlPc1-i-7vyzzrzfxmxQJmq21AVLKTW6axOOf8ajKHZeE9OatX2uXL_4ZL__AnQqafAhk4b0VjSbKHQx3lYvgetRE3ng3h3S_ZgZi76-dnJ_RWlM-R1J0vtUDhv3-jOW_zP91xvZjDHiG3xVafbP9B6zJ9VK9YVA0MpGOPqLvFIfJvq3M_9Ljqh9Jcs7lV0oGFU2aDfbeCxHrA5ZsAJwYaR0dAuFv5GBSeeoS9SYaX-ZKDsnj8OtknjEozptUzsXf14NHJ0L8EY_MH1xFHEjdqsJ3DYxXZyqyWdRAnlKL-FUrFbyF1mKmLZYusLuBkDRG_1v1XtqRZdLGtLKWUm1i7M8IyBWm_TaagZaVLIBs-WLghvWaxrvno-ZH_1BLMDJf1poErhGuGoJDM1pEzbJoLTghY-M2mxhw5BC-SDz1K7NobbK72oef5oBcDv9e9TqcjsZsPxTfNI626RtAKtM7h3__0SzYeObzTgZk8V5paR5zHoVEiFR_Ln1TjjqPz-0NEmR_FNIPEBFgQ_DhlmyHhQg5fpYsqIN_ICUBtg9GyelVgnpoC4RvHxlTd0wiCsP5lu8qRPepS8rVj_0m00]--></g></svg>