<?xml version="1.0" encoding="us-ascii" standalone="no"?><svg xmlns="http://www.w3.org/2000/svg" xmlns:xlink="http://www.w3.org/1999/xlink" contentStyleType="text/css" height="705px" preserveAspectRatio="none" style="width:982px;height:705px;background:#FFFFFF;" version="1.1" viewBox="0 0 982 705" width="982px" zoomAndPan="magnify"><defs/><g><rect fill="#FFFFFF" height="586.5684" style="stroke:#181818;stroke-width:1.0;" width="10" x="283" y="71.9121"/><rect fill="#FFFFFF" height="139.4941" style="stroke:#181818;stroke-width:1.0;" width="10" x="514" y="165.7852"/><rect fill="#FFFFFF" height="31.291" style="stroke:#181818;stroke-width:1.0;" width="10" x="514" y="399.1523"/><rect fill="#FFFFFF" height="93.873" style="stroke:#181818;stroke-width:1.0;" width="10" x="514" y="524.3164"/><rect fill="#FFFFFF" height="33.6211" style="stroke:#181818;stroke-width:1.0;" width="10" x="747" y="233.3672"/><rect fill="#FFFFFF" height="31.291" style="stroke:#181818;stroke-width:1.0;" width="10" x="747" y="555.6074"/><rect fill="#FFFFFF" height="31.291" style="stroke:#181818;stroke-width:1.0;" width="10" x="871" y="103.2031"/><rect fill="#FFFFFF" height="31.291" style="stroke:#181818;stroke-width:1.0;" width="10" x="940.5" y="461.7344"/><rect fill="none" height="94.2031" style="stroke:#000000;stroke-width:1.5;" width="399.5" x="447.5" y="180.7852"/><line style="stroke:#181818;stroke-width:0.5;stroke-dasharray:5.0,5.0;" x1="14" x2="14" y1="38.6211" y2="667.4805"/><line style="stroke:#181818;stroke-width:0.5;stroke-dasharray:5.0,5.0;" x1="288" x2="288" y1="38.6211" y2="667.4805"/><line style="stroke:#181818;stroke-width:0.5;stroke-dasharray:5.0,5.0;" x1="518.5" x2="518.5" y1="38.6211" y2="667.4805"/><line style="stroke:#181818;stroke-width:0.5;stroke-dasharray:5.0,5.0;" x1="752" x2="752" y1="231.8867" y2="667.4805"/><line style="stroke:#181818;stroke-width:0.5;stroke-dasharray:5.0,5.0;" x1="876" x2="876" y1="38.6211" y2="667.4805"/><line style="stroke:#181818;stroke-width:0.5;stroke-dasharray:5.0,5.0;" x1="945" x2="945" y1="38.6211" y2="667.4805"/><rect fill="#E2E2F0" height="32.6211" rx="2.5" ry="2.5" style="stroke:#181818;stroke-width:0.5;" width="18" x="5" y="5"/><text fill="#000000" font-family="sans-serif" font-size="14" lengthAdjust="spacing" textLength="4" x="12" y="27.1074">&#160;</text><rect fill="#E2E2F0" height="32.6211" rx="2.5" ry="2.5" style="stroke:#181818;stroke-width:0.5;" width="18" x="5" y="666.4805"/><text fill="#000000" font-family="sans-serif" font-size="14" lengthAdjust="spacing" textLength="4" x="12" y="688.5879">&#160;</text><rect fill="#E2E2F0" height="32.6211" rx="2.5" ry="2.5" style="stroke:#181818;stroke-width:0.5;" width="198" x="189" y="5"/><text fill="#000000" font-family="sans-serif" font-size="14" lengthAdjust="spacing" textLength="184" x="196" y="27.1074">:DeactivateDevice_Controller</text><rect fill="#E2E2F0" height="32.6211" rx="2.5" ry="2.5" style="stroke:#181818;stroke-width:0.5;" width="198" x="189" y="666.4805"/><text fill="#000000" font-family="sans-serif" font-size="14" lengthAdjust="spacing" textLength="184" x="196" y="688.5879">:DeactivateDevice_Controller</text><rect fill="#E2E2F0" height="32.6211" rx="2.5" ry="2.5" style="stroke:#181818;stroke-width:0.5;" width="123" x="457.5" y="5"/><text fill="#000000" font-family="sans-serif" font-size="14" lengthAdjust="spacing" textLength="109" x="464.5" y="27.1074">DeviceAssembler</text><rect fill="#E2E2F0" height="32.6211" rx="2.5" ry="2.5" style="stroke:#181818;stroke-width:0.5;" width="123" x="457.5" y="666.4805"/><text fill="#000000" font-family="sans-serif" font-size="14" lengthAdjust="spacing" textLength="109" x="464.5" y="688.5879">DeviceAssembler</text><rect fill="#E2E2F0" height="32.6211" rx="2.5" ry="2.5" style="stroke:#181818;stroke-width:0.5;" width="170" x="667" y="666.4805"/><text fill="#000000" font-family="sans-serif" font-size="14" lengthAdjust="spacing" textLength="156" x="674" y="688.5879">:deviceDTO: DeviceDTO</text><rect fill="#E2E2F0" height="32.6211" rx="2.5" ry="2.5" style="stroke:#181818;stroke-width:0.5;" width="58" x="847" y="5"/><text fill="#000000" font-family="sans-serif" font-size="14" lengthAdjust="spacing" textLength="44" x="854" y="27.1074">:House</text><rect fill="#E2E2F0" height="32.6211" rx="2.5" ry="2.5" style="stroke:#181818;stroke-width:0.5;" width="58" x="847" y="666.4805"/><text fill="#000000" font-family="sans-serif" font-size="14" lengthAdjust="spacing" textLength="44" x="854" y="688.5879">:House</text><rect fill="#E2E2F0" height="32.6211" rx="2.5" ry="2.5" style="stroke:#181818;stroke-width:0.5;" width="61" x="915" y="5"/><text fill="#000000" font-family="sans-serif" font-size="14" lengthAdjust="spacing" textLength="47" x="922" y="27.1074">:Device</text><rect fill="#E2E2F0" height="32.6211" rx="2.5" ry="2.5" style="stroke:#181818;stroke-width:0.5;" width="61" x="915" y="666.4805"/><text fill="#000000" font-family="sans-serif" font-size="14" lengthAdjust="spacing" textLength="47" x="922" y="688.5879">:Device</text><rect fill="#FFFFFF" height="586.5684" style="stroke:#181818;stroke-width:1.0;" width="10" x="283" y="71.9121"/><rect fill="#FFFFFF" height="139.4941" style="stroke:#181818;stroke-width:1.0;" width="10" x="514" y="165.7852"/><rect fill="#FFFFFF" height="31.291" style="stroke:#181818;stroke-width:1.0;" width="10" x="514" y="399.1523"/><rect fill="#FFFFFF" height="93.873" style="stroke:#181818;stroke-width:1.0;" width="10" x="514" y="524.3164"/><rect fill="#FFFFFF" height="33.6211" style="stroke:#181818;stroke-width:1.0;" width="10" x="747" y="233.3672"/><rect fill="#FFFFFF" height="31.291" style="stroke:#181818;stroke-width:1.0;" width="10" x="747" y="555.6074"/><rect fill="#FFFFFF" height="31.291" style="stroke:#181818;stroke-width:1.0;" width="10" x="871" y="103.2031"/><rect fill="#FFFFFF" height="31.291" style="stroke:#181818;stroke-width:1.0;" width="10" x="940.5" y="461.7344"/><ellipse cx="13.5" cy="71.1621" fill="none" rx="4" ry="4" style="stroke:#181818;stroke-width:1.5;"/><polygon fill="#181818" points="271,67.9121,281,71.9121,271,75.9121,275,71.9121" style="stroke:#181818;stroke-width:1.0;"/><line style="stroke:#181818;stroke-width:1.0;" x1="18" x2="277" y1="71.9121" y2="71.9121"/><text fill="#000000" font-family="sans-serif" font-size="13" font-weight="bold" lengthAdjust="spacing" textLength="7" x="21" y="66.6494">1</text><text fill="#000000" font-family="sans-serif" font-size="13" lengthAdjust="spacing" textLength="85" x="32" y="66.6494">getDeviceList()</text><polygon fill="#181818" points="859,99.2031,869,103.2031,859,107.2031,863,103.2031" style="stroke:#181818;stroke-width:1.0;"/><line style="stroke:#181818;stroke-width:1.0;" x1="293" x2="865" y1="103.2031" y2="103.2031"/><text fill="#000000" font-family="sans-serif" font-size="13" font-weight="bold" lengthAdjust="spacing" textLength="7" x="300" y="97.9404">2</text><text fill="#000000" font-family="sans-serif" font-size="13" lengthAdjust="spacing" textLength="86" x="311" y="97.9404">getAllDevices()</text><polygon fill="#181818" points="304,130.4941,294,134.4941,304,138.4941,300,134.4941" style="stroke:#181818;stroke-width:1.0;"/><line style="stroke:#181818;stroke-width:1.0;stroke-dasharray:2.0,2.0;" x1="298" x2="875" y1="134.4941" y2="134.4941"/><text fill="#000000" font-family="sans-serif" font-size="13" font-weight="bold" lengthAdjust="spacing" textLength="7" x="310" y="129.2314">3</text><text fill="#000000" font-family="sans-serif" font-size="13" lengthAdjust="spacing" textLength="57" x="321" y="129.2314">deviceList</text><polygon fill="#181818" points="502,161.7852,512,165.7852,502,169.7852,506,165.7852" style="stroke:#181818;stroke-width:1.0;"/><line style="stroke:#181818;stroke-width:1.0;" x1="293" x2="508" y1="165.7852" y2="165.7852"/><text fill="#000000" font-family="sans-serif" font-size="13" font-weight="bold" lengthAdjust="spacing" textLength="7" x="300" y="160.5225">4</text><text fill="#000000" font-family="sans-serif" font-size="13" lengthAdjust="spacing" textLength="184" x="311" y="160.5225">domain2DTOMapper(allDevices)</text><path d="M447.5,180.7852 L520.5,180.7852 L520.5,190.0762 L510.5,200.0762 L447.5,200.0762 L447.5,180.7852 " fill="#EEEEEE" style="stroke:#000000;stroke-width:1.5;"/><rect fill="none" height="94.2031" style="stroke:#000000;stroke-width:1.5;" width="399.5" x="447.5" y="180.7852"/><text fill="#000000" font-family="sans-serif" font-size="13" font-weight="bold" lengthAdjust="spacing" textLength="28" x="462.5" y="195.8135">loop</text><text fill="#000000" font-family="sans-serif" font-size="11" font-weight="bold" lengthAdjust="spacing" textLength="134" x="535.5" y="194.6553">[for device in allDevices]</text><polygon fill="#181818" points="655,219.3672,665,223.3672,655,227.3672,659,223.3672" style="stroke:#181818;stroke-width:1.0;"/><line style="stroke:#181818;stroke-width:1.0;" x1="524" x2="661" y1="223.3672" y2="223.3672"/><text fill="#000000" font-family="sans-serif" font-size="13" font-weight="bold" lengthAdjust="spacing" textLength="7" x="531" y="218.1045">5</text><text fill="#000000" font-family="sans-serif" font-size="13" lengthAdjust="spacing" textLength="108" x="542" y="218.1045">DeviceDTO(device)</text><rect fill="#E2E2F0" height="32.6211" rx="2.5" ry="2.5" style="stroke:#181818;stroke-width:0.5;" width="170" x="667" y="200.0762"/><text fill="#000000" font-family="sans-serif" font-size="14" lengthAdjust="spacing" textLength="156" x="674" y="222.1836">:deviceDTO: DeviceDTO</text><polygon fill="#181818" points="535,262.9883,525,266.9883,535,270.9883,531,266.9883" style="stroke:#181818;stroke-width:1.0;"/><line style="stroke:#181818;stroke-width:1.0;stroke-dasharray:2.0,2.0;" x1="529" x2="751" y1="266.9883" y2="266.9883"/><text fill="#000000" font-family="sans-serif" font-size="13" font-weight="bold" lengthAdjust="spacing" textLength="7" x="541" y="261.7256">6</text><text fill="#000000" font-family="sans-serif" font-size="13" lengthAdjust="spacing" textLength="62" x="552" y="261.7256">deviceDTO</text><polygon fill="#181818" points="304,301.2793,294,305.2793,304,309.2793,300,305.2793" style="stroke:#181818;stroke-width:1.0;"/><line style="stroke:#181818;stroke-width:1.0;stroke-dasharray:2.0,2.0;" x1="298" x2="518" y1="305.2793" y2="305.2793"/><text fill="#000000" font-family="sans-serif" font-size="13" font-weight="bold" lengthAdjust="spacing" textLength="7" x="310" y="300.0166">7</text><text fill="#000000" font-family="sans-serif" font-size="13" lengthAdjust="spacing" textLength="86" x="321" y="300.0166">listDTOdevices</text><polygon fill="#181818" points="25,332.5703,15,336.5703,25,340.5703,21,336.5703" style="stroke:#181818;stroke-width:1.0;"/><line style="stroke:#181818;stroke-width:1.0;stroke-dasharray:2.0,2.0;" x1="19" x2="282" y1="336.5703" y2="336.5703"/><text fill="#000000" font-family="sans-serif" font-size="13" font-weight="bold" lengthAdjust="spacing" textLength="7" x="31" y="331.3076">8</text><text fill="#000000" font-family="sans-serif" font-size="13" lengthAdjust="spacing" textLength="118" x="42" y="331.3076">copyListDTOdevices</text><ellipse cx="13.5" cy="367.1113" fill="none" rx="4" ry="4" style="stroke:#181818;stroke-width:1.5;"/><polygon fill="#181818" points="271,363.8613,281,367.8613,271,371.8613,275,367.8613" style="stroke:#181818;stroke-width:1.0;"/><line style="stroke:#181818;stroke-width:1.0;" x1="18" x2="277" y1="367.8613" y2="367.8613"/><text fill="#000000" font-family="sans-serif" font-size="13" font-weight="bold" lengthAdjust="spacing" textLength="7" x="21" y="362.5986">9</text><text fill="#000000" font-family="sans-serif" font-size="13" lengthAdjust="spacing" textLength="234" x="32" y="362.5986">deactivateDevice(DeviceDTO deviceDTO)</text><polygon fill="#181818" points="502,395.1523,512,399.1523,502,403.1523,506,399.1523" style="stroke:#181818;stroke-width:1.0;"/><line style="stroke:#181818;stroke-width:1.0;" x1="293" x2="508" y1="399.1523" y2="399.1523"/><text fill="#000000" font-family="sans-serif" font-size="13" font-weight="bold" lengthAdjust="spacing" textLength="14" x="300" y="393.8896">10</text><text fill="#000000" font-family="sans-serif" font-size="13" lengthAdjust="spacing" textLength="184" x="318" y="393.8896">domain2DTOMapper(allDevices)</text><polygon fill="#181818" points="304,426.4434,294,430.4434,304,434.4434,300,430.4434" style="stroke:#181818;stroke-width:1.0;"/><line style="stroke:#181818;stroke-width:1.0;" x1="298" x2="518" y1="430.4434" y2="430.4434"/><text fill="#000000" font-family="sans-serif" font-size="13" font-weight="bold" lengthAdjust="spacing" textLength="14" x="310" y="425.1807">11</text><text fill="#000000" font-family="sans-serif" font-size="13" lengthAdjust="spacing" textLength="36" x="328" y="425.1807">device</text><polygon fill="#181818" points="928.5,457.7344,938.5,461.7344,928.5,465.7344,932.5,461.7344" style="stroke:#181818;stroke-width:1.0;"/><line style="stroke:#181818;stroke-width:1.0;" x1="293" x2="934.5" y1="461.7344" y2="461.7344"/><text fill="#000000" font-family="sans-serif" font-size="13" font-weight="bold" lengthAdjust="spacing" textLength="14" x="300" y="456.4717">12</text><text fill="#000000" font-family="sans-serif" font-size="13" lengthAdjust="spacing" textLength="140" x="318" y="456.4717">deactivateDevice(device)</text><polygon fill="#181818" points="304,489.0254,294,493.0254,304,497.0254,300,493.0254" style="stroke:#181818;stroke-width:1.0;"/><line style="stroke:#181818;stroke-width:1.0;stroke-dasharray:2.0,2.0;" x1="298" x2="944.5" y1="493.0254" y2="493.0254"/><text fill="#000000" font-family="sans-serif" font-size="13" font-weight="bold" lengthAdjust="spacing" textLength="14" x="310" y="487.7627">13</text><text fill="#000000" font-family="sans-serif" font-size="13" lengthAdjust="spacing" textLength="22" x="328" y="487.7627">true</text><polygon fill="#181818" points="502,520.3164,512,524.3164,502,528.3164,506,524.3164" style="stroke:#181818;stroke-width:1.0;"/><line style="stroke:#181818;stroke-width:1.0;" x1="293" x2="508" y1="524.3164" y2="524.3164"/><text fill="#000000" font-family="sans-serif" font-size="13" font-weight="bold" lengthAdjust="spacing" textLength="14" x="300" y="519.0537">14</text><text fill="#000000" font-family="sans-serif" font-size="13" lengthAdjust="spacing" textLength="119" x="318" y="519.0537">domain2DTO(device)</text><polygon fill="#181818" points="735,551.6074,745,555.6074,735,559.6074,739,555.6074" style="stroke:#181818;stroke-width:1.0;"/><line style="stroke:#181818;stroke-width:1.0;" x1="524" x2="741" y1="555.6074" y2="555.6074"/><text fill="#000000" font-family="sans-serif" font-size="13" font-weight="bold" lengthAdjust="spacing" textLength="14" x="531" y="550.3447">15</text><text fill="#000000" font-family="sans-serif" font-size="13" lengthAdjust="spacing" textLength="108" x="549" y="550.3447">DeviceDTO(device)</text><polygon fill="#181818" points="535,582.8984,525,586.8984,535,590.8984,531,586.8984" style="stroke:#181818;stroke-width:1.0;"/><line style="stroke:#181818;stroke-width:1.0;stroke-dasharray:2.0,2.0;" x1="529" x2="751" y1="586.8984" y2="586.8984"/><text fill="#000000" font-family="sans-serif" font-size="13" font-weight="bold" lengthAdjust="spacing" textLength="14" x="541" y="581.6357">16</text><text fill="#000000" font-family="sans-serif" font-size="13" lengthAdjust="spacing" textLength="62" x="559" y="581.6357">deviceDTO</text><polygon fill="#181818" points="304,614.1895,294,618.1895,304,622.1895,300,618.1895" style="stroke:#181818;stroke-width:1.0;"/><line style="stroke:#181818;stroke-width:1.0;stroke-dasharray:2.0,2.0;" x1="298" x2="518" y1="618.1895" y2="618.1895"/><text fill="#000000" font-family="sans-serif" font-size="13" font-weight="bold" lengthAdjust="spacing" textLength="14" x="310" y="612.9268">17</text><text fill="#000000" font-family="sans-serif" font-size="13" lengthAdjust="spacing" textLength="62" x="328" y="612.9268">deviceDTO</text><polygon fill="#181818" points="25,645.4805,15,649.4805,25,653.4805,21,649.4805" style="stroke:#181818;stroke-width:1.0;"/><line style="stroke:#181818;stroke-width:1.0;stroke-dasharray:2.0,2.0;" x1="19" x2="282" y1="649.4805" y2="649.4805"/><text fill="#000000" font-family="sans-serif" font-size="13" font-weight="bold" lengthAdjust="spacing" textLength="14" x="31" y="644.2178">18</text><text fill="#000000" font-family="sans-serif" font-size="13" lengthAdjust="spacing" textLength="128" x="49" y="644.2178">Optional&lt;DeviceDTO&gt;</text><!--SRC=[nLGzJyCm4DtzAomMag5KOenGfOeE34LTO4QkVO0bnpQsKub_Z-Ea-N0R9uY1HgeItzsxT-zTSllfdBR5Ugq5aQugnHrLvTh2LmMImefnyc58YP0cnd7AjK_2D_uY5hzQC56Ws06XZf-8WnsSE8MtHoMTKKA02JM9U0JLnBVMGddigqTdSNCMmhkNGz5c-jj1dN-AAvvKPI6aXBlBQUgw0GH2f79ALkMnxbuBWDLgavggm1_WcjCzjoxBFKIRcnOZ4SI-PU0RmBT2D1dMWtVOpJpX7w_cABAE7s8GGI24_M-6JMICHrGbuVBUI_vCj0QJaOvb7W2fWKQ2ipFruK2PiT52AOtVbMcPOYvn3zWI75NqfCRha3K0-RLsPnRTKojSFDeeUQ1NZmAIeGj2SoO8BxylPeEXBi1xHPA6-5RrRXQOAlsz7-Ckt5eM1RDUbKw0V7PBVxyNamDFcZoxrtDIBXlYYYI9NHhGdNVUcMg2v5y4Jj5R8Ej_lJjN2IqpUX9tgTVTUtFGZYj9n4F7Q-C_XEW7]--></g></svg>