<?xml version="1.0" encoding="us-ascii" standalone="no"?><svg xmlns="http://www.w3.org/2000/svg" xmlns:xlink="http://www.w3.org/1999/xlink" contentStyleType="text/css" height="1109px" preserveAspectRatio="none" style="width:1993px;height:1109px;background:#FFFFFF;" version="1.1" viewBox="0 0 1993 1109" width="1993px" zoomAndPan="magnify"><defs/><g><!--cluster domain--><g id="cluster_domain"><path d="M16.5,4 L68.5,4 A3.75,3.75 0 0 1 71,6.5 L78,28.6211 L1983.5,28.6211 A2.5,2.5 0 0 1 1986,31.1211 L1986,1099.5 A2.5,2.5 0 0 1 1983.5,1102 L16.5,1102 A2.5,2.5 0 0 1 14,1099.5 L14,6.5 A2.5,2.5 0 0 1 16.5,4 " fill="none" style="stroke:#000000;stroke-width:1.5;"/><line style="stroke:#000000;stroke-width:1.5;" x1="14" x2="78" y1="28.6211" y2="28.6211"/><text fill="#000000" font-family="sans-serif" font-size="14" font-weight="bold" lengthAdjust="spacing" textLength="51" x="18" y="21.1074">domain</text></g><!--cluster Actuator--><g id="cluster_Actuator"><path d="M24.5,33 L84.5,33 A3.75,3.75 0 0 1 87,35.5 L94,57.6211 L1975.5,57.6211 A2.5,2.5 0 0 1 1978,60.1211 L1978,732.5 A2.5,2.5 0 0 1 1975.5,735 L24.5,735 A2.5,2.5 0 0 1 22,732.5 L22,35.5 A2.5,2.5 0 0 1 24.5,33 " fill="none" style="stroke:#000000;stroke-width:1.5;"/><line style="stroke:#000000;stroke-width:1.5;" x1="22" x2="94" y1="57.6211" y2="57.6211"/><text fill="#000000" font-family="sans-serif" font-size="14" font-weight="bold" lengthAdjust="spacing" textLength="59" x="26" y="50.1074">Actuator</text></g><!--cluster SetIntegerActuator--><g id="cluster_SetIntegerActuator"><path d="M360.5,174 L494.5,174 A3.75,3.75 0 0 1 497,176.5 L504,198.6211 L1967.5,198.6211 A2.5,2.5 0 0 1 1970,201.1211 L1970,723 A2.5,2.5 0 0 1 1967.5,725.5 L360.5,725.5 A2.5,2.5 0 0 1 358,723 L358,176.5 A2.5,2.5 0 0 1 360.5,174 " fill="none" style="stroke:#000000;stroke-width:1.5;"/><line style="stroke:#000000;stroke-width:1.5;" x1="358" x2="504" y1="198.6211" y2="198.6211"/><text fill="#000000" font-family="sans-serif" font-size="14" font-weight="bold" lengthAdjust="spacing" textLength="133" x="362" y="191.1074">SetIntegerActuator</text></g><!--cluster ddd--><g id="cluster_ddd"><path d="M775.5,754 L803.5,754 A3.75,3.75 0 0 1 806,756.5 L813,778.6211 L914.5,778.6211 A2.5,2.5 0 0 1 917,781.1211 L917,1091.5 A2.5,2.5 0 0 1 914.5,1094 L775.5,1094 A2.5,2.5 0 0 1 773,1091.5 L773,756.5 A2.5,2.5 0 0 1 775.5,754 " fill="none" style="stroke:#000000;stroke-width:1.5;"/><line style="stroke:#000000;stroke-width:1.5;" x1="773" x2="813" y1="778.6211" y2="778.6211"/><text fill="#000000" font-family="sans-serif" font-size="14" font-weight="bold" lengthAdjust="spacing" textLength="27" x="777" y="771.1074">ddd</text></g><!--class Actuator--><g id="elem_Actuator"><rect codeLine="4" fill="#F1F1F1" height="159.7266" id="Actuator" rx="2.5" ry="2.5" style="stroke:#181818;stroke-width:0.5;" width="291" x="56.5" y="567"/><ellipse cx="171.25" cy="583" fill="#B4A7E5" rx="11" ry="11" style="stroke:#181818;stroke-width:1.0;"/><path d="M172.2031,579.6406 L172.2031,586.2969 L173.9219,586.2969 Q174.5313,586.2969 174.7969,586.5313 Q175.0625,586.7656 175.0625,587.1563 Q175.0625,587.5313 174.7969,587.7656 Q174.5313,588 173.9219,588 L168.7813,588 Q168.1719,588 167.9063,587.7656 Q167.6406,587.5313 167.6406,587.1406 Q167.6406,586.7656 167.9063,586.5313 Q168.1719,586.2969 168.7813,586.2969 L170.5,586.2969 L170.5,579.6406 L168.7813,579.6406 Q168.1719,579.6406 167.9063,579.4063 Q167.6406,579.1719 167.6406,578.7813 Q167.6406,578.4063 167.9063,578.1719 Q168.1719,577.9375 168.7813,577.9375 L173.9219,577.9375 Q174.5313,577.9375 174.7969,578.1719 Q175.0625,578.4063 175.0625,578.7813 Q175.0625,579.1719 174.7969,579.4063 Q174.5313,579.6406 173.9219,579.6406 L172.2031,579.6406 Z " fill="#000000"/><text fill="#000000" font-family="sans-serif" font-size="14" font-style="italic" lengthAdjust="spacing" textLength="53" x="191.75" y="588.7969">Actuator</text><line style="stroke:#181818;stroke-width:0.5;" x1="57.5" x2="346.5" y1="599" y2="599"/><line style="stroke:#181818;stroke-width:0.5;" x1="57.5" x2="346.5" y1="607" y2="607"/><ellipse cx="67.5" cy="621.8105" fill="#84BE84" rx="3" ry="3" style="stroke:#038048;stroke-width:1.0;"/><text fill="#000000" font-family="sans-serif" font-size="14" lengthAdjust="spacing" textLength="234" x="76.5" y="626.1074">getActuatorTypeID(): ActuatorTypeID</text><ellipse cx="67.5" cy="640.4316" fill="#84BE84" rx="3" ry="3" style="stroke:#038048;stroke-width:1.0;"/><text fill="#000000" font-family="sans-serif" font-size="14" lengthAdjust="spacing" textLength="117" x="76.5" y="644.7285">getID(): ActuatorID</text><ellipse cx="67.5" cy="659.0527" fill="#84BE84" rx="3" ry="3" style="stroke:#038048;stroke-width:1.0;"/><text fill="#000000" font-family="sans-serif" font-size="14" lengthAdjust="spacing" textLength="167" x="76.5" y="663.3496">getName() : ActuatorName</text><ellipse cx="67.5" cy="677.6738" fill="#84BE84" rx="3" ry="3" style="stroke:#038048;stroke-width:1.0;"/><text fill="#000000" font-family="sans-serif" font-size="14" lengthAdjust="spacing" textLength="176" x="76.5" y="681.9707">getModelPath() : ModelPath</text><ellipse cx="67.5" cy="696.2949" fill="#84BE84" rx="3" ry="3" style="stroke:#038048;stroke-width:1.0;"/><text fill="#000000" font-family="sans-serif" font-size="14" lengthAdjust="spacing" textLength="154" x="76.5" y="700.5918">getDeviceID() : DeviceID</text><ellipse cx="67.5" cy="714.916" fill="#84BE84" rx="3" ry="3" style="stroke:#038048;stroke-width:1.0;"/><text fill="#000000" font-family="sans-serif" font-size="14" lengthAdjust="spacing" textLength="265" x="76.5" y="719.2129">setValue(ValueObject value): ValueObject</text></g><!--class ActuatorFactory--><g id="elem_ActuatorFactory"><rect codeLine="12" fill="#F1F1F1" height="66.6211" id="ActuatorFactory" rx="2.5" ry="2.5" style="stroke:#181818;stroke-width:0.5;" width="319" x="30.5" y="324"/><ellipse cx="135.25" cy="340" fill="#B4A7E5" rx="11" ry="11" style="stroke:#181818;stroke-width:1.0;"/><path d="M136.2031,336.6406 L136.2031,343.2969 L137.9219,343.2969 Q138.5313,343.2969 138.7969,343.5313 Q139.0625,343.7656 139.0625,344.1563 Q139.0625,344.5313 138.7969,344.7656 Q138.5313,345 137.9219,345 L132.7813,345 Q132.1719,345 131.9063,344.7656 Q131.6406,344.5313 131.6406,344.1406 Q131.6406,343.7656 131.9063,343.5313 Q132.1719,343.2969 132.7813,343.2969 L134.5,343.2969 L134.5,336.6406 L132.7813,336.6406 Q132.1719,336.6406 131.9063,336.4063 Q131.6406,336.1719 131.6406,335.7813 Q131.6406,335.4063 131.9063,335.1719 Q132.1719,334.9375 132.7813,334.9375 L137.9219,334.9375 Q138.5313,334.9375 138.7969,335.1719 Q139.0625,335.4063 139.0625,335.7813 Q139.0625,336.1719 138.7969,336.4063 Q138.5313,336.6406 137.9219,336.6406 L136.2031,336.6406 Z " fill="#000000"/><text fill="#000000" font-family="sans-serif" font-size="14" font-style="italic" lengthAdjust="spacing" textLength="101" x="155.75" y="345.7969">ActuatorFactory</text><line style="stroke:#181818;stroke-width:0.5;" x1="31.5" x2="348.5" y1="356" y2="356"/><line style="stroke:#181818;stroke-width:0.5;" x1="31.5" x2="348.5" y1="364" y2="364"/><ellipse cx="41.5" cy="378.8105" fill="#84BE84" rx="3" ry="3" style="stroke:#038048;stroke-width:1.0;"/><text fill="#000000" font-family="sans-serif" font-size="14" lengthAdjust="spacing" textLength="293" x="50.5" y="383.1074">createActuator(Object... parameters): Actuator</text></g><!--class ImplActuatorFactory--><g id="elem_ImplActuatorFactory"><rect codeLine="15" fill="#F1F1F1" height="66.6211" id="ImplActuatorFactory" rx="2.5" ry="2.5" style="stroke:#181818;stroke-width:0.5;" width="319" x="380.5" y="62"/><ellipse cx="472.75" cy="78" fill="#ADD1B2" rx="11" ry="11" style="stroke:#181818;stroke-width:1.0;"/><path d="M475.5156,73.875 Q475.6719,73.6563 475.8594,73.5469 Q476.0469,73.4375 476.2656,73.4375 Q476.6406,73.4375 476.875,73.7031 Q477.1094,73.9531 477.1094,74.5625 L477.1094,76.0156 Q477.1094,76.625 476.875,76.8906 Q476.6406,77.1563 476.2656,77.1563 Q475.9219,77.1563 475.7188,76.9531 Q475.5156,76.7656 475.4063,76.25 Q475.3594,75.8906 475.1719,75.7031 Q474.8438,75.3281 474.2344,75.1094 Q473.625,74.8906 473,74.8906 Q472.2344,74.8906 471.5938,75.2188 Q470.9688,75.5469 470.4688,76.2969 Q469.9844,77.0469 469.9844,78.0781 L469.9844,79.1719 Q469.9844,80.4063 470.875,81.2344 Q471.7656,82.0469 473.3594,82.0469 Q474.2969,82.0469 474.9531,81.7969 Q475.3438,81.6406 475.7656,81.2031 Q476.0313,80.9375 476.1719,80.8594 Q476.3281,80.7813 476.5313,80.7813 Q476.8594,80.7813 477.1094,81.0469 Q477.375,81.2969 477.375,81.6406 Q477.375,81.9844 477.0313,82.3906 Q476.5313,82.9688 475.7344,83.2969 Q474.6563,83.75 473.3594,83.75 Q471.8438,83.75 470.6406,83.125 Q469.6563,82.625 468.9688,81.5625 Q468.2813,80.4844 468.2813,79.2031 L468.2813,78.0469 Q468.2813,76.7188 468.8906,75.5781 Q469.5156,74.4219 470.6094,73.8125 Q471.7031,73.1875 472.9375,73.1875 Q473.6719,73.1875 474.3125,73.3594 Q474.9688,73.5156 475.5156,73.875 Z " fill="#000000"/><text fill="#000000" font-family="sans-serif" font-size="14" lengthAdjust="spacing" textLength="126" x="493.25" y="83.7969">ImplActuatorFactory</text><line style="stroke:#181818;stroke-width:0.5;" x1="381.5" x2="698.5" y1="94" y2="94"/><line style="stroke:#181818;stroke-width:0.5;" x1="381.5" x2="698.5" y1="102" y2="102"/><ellipse cx="391.5" cy="116.8105" fill="#84BE84" rx="3" ry="3" style="stroke:#038048;stroke-width:1.0;"/><text fill="#000000" font-family="sans-serif" font-size="14" lengthAdjust="spacing" textLength="293" x="400.5" y="121.1074">createActuator(Object... parameters): Actuator</text></g><!--class SetIntegerActuator--><g id="elem_SetIntegerActuator"><rect codeLine="20" fill="#F1F1F1" height="308.6953" id="SetIntegerActuator" rx="2.5" ry="2.5" style="stroke:#181818;stroke-width:0.5;" width="1016" x="382" y="203"/><ellipse cx="826.75" cy="219" fill="#ADD1B2" rx="11" ry="11" style="stroke:#181818;stroke-width:1.0;"/><path d="M829.5156,214.875 Q829.6719,214.6563 829.8594,214.5469 Q830.0469,214.4375 830.2656,214.4375 Q830.6406,214.4375 830.875,214.7031 Q831.1094,214.9531 831.1094,215.5625 L831.1094,217.0156 Q831.1094,217.625 830.875,217.8906 Q830.6406,218.1563 830.2656,218.1563 Q829.9219,218.1563 829.7188,217.9531 Q829.5156,217.7656 829.4063,217.25 Q829.3594,216.8906 829.1719,216.7031 Q828.8438,216.3281 828.2344,216.1094 Q827.625,215.8906 827,215.8906 Q826.2344,215.8906 825.5938,216.2188 Q824.9688,216.5469 824.4688,217.2969 Q823.9844,218.0469 823.9844,219.0781 L823.9844,220.1719 Q823.9844,221.4063 824.875,222.2344 Q825.7656,223.0469 827.3594,223.0469 Q828.2969,223.0469 828.9531,222.7969 Q829.3438,222.6406 829.7656,222.2031 Q830.0313,221.9375 830.1719,221.8594 Q830.3281,221.7813 830.5313,221.7813 Q830.8594,221.7813 831.1094,222.0469 Q831.375,222.2969 831.375,222.6406 Q831.375,222.9844 831.0313,223.3906 Q830.5313,223.9688 829.7344,224.2969 Q828.6563,224.75 827.3594,224.75 Q825.8438,224.75 824.6406,224.125 Q823.6563,223.625 822.9688,222.5625 Q822.2813,221.4844 822.2813,220.2031 L822.2813,219.0469 Q822.2813,217.7188 822.8906,216.5781 Q823.5156,215.4219 824.6094,214.8125 Q825.7031,214.1875 826.9375,214.1875 Q827.6719,214.1875 828.3125,214.3594 Q828.9688,214.5156 829.5156,214.875 Z " fill="#000000"/><text fill="#000000" font-family="sans-serif" font-size="14" lengthAdjust="spacing" textLength="118" x="847.25" y="224.7969">SetIntegerActuator</text><line style="stroke:#181818;stroke-width:0.5;" x1="383" x2="1397" y1="235" y2="235"/><rect fill="none" height="6" style="stroke:#C82930;stroke-width:1.0;" width="6" x="390" y="246.8105"/><text fill="#000000" font-family="sans-serif" font-size="14" lengthAdjust="spacing" textLength="147" x="402" y="254.1074">_actuatorID: ActuatorID</text><rect fill="none" height="6" style="stroke:#C82930;stroke-width:1.0;" width="6" x="390" y="265.4316"/><text fill="#000000" font-family="sans-serif" font-size="14" lengthAdjust="spacing" textLength="193" x="402" y="272.7285">_actuatorName: ActuatorName</text><rect fill="none" height="6" style="stroke:#C82930;stroke-width:1.0;" width="6" x="390" y="284.0527"/><text fill="#000000" font-family="sans-serif" font-size="14" lengthAdjust="spacing" textLength="211" x="402" y="291.3496">_actuatorTypeID: ActuatorTypeID</text><rect fill="none" height="6" style="stroke:#C82930;stroke-width:1.0;" width="6" x="390" y="302.6738"/><text fill="#000000" font-family="sans-serif" font-size="14" lengthAdjust="spacing" textLength="150" x="402" y="309.9707">_modelPath: ModelPath</text><rect fill="none" height="6" style="stroke:#C82930;stroke-width:1.0;" width="6" x="390" y="321.2949"/><text fill="#000000" font-family="sans-serif" font-size="14" lengthAdjust="spacing" textLength="126" x="402" y="328.5918">_deviceID: DeviceID</text><rect fill="none" height="6" style="stroke:#C82930;stroke-width:1.0;" width="6" x="390" y="339.916"/><text fill="#000000" font-family="sans-serif" font-size="14" lengthAdjust="spacing" textLength="151" x="402" y="347.2129">_value: SetIntegerValue</text><rect fill="none" height="6" style="stroke:#C82930;stroke-width:1.0;" width="6" x="390" y="358.5371"/><text fill="#000000" font-family="sans-serif" font-size="14" lengthAdjust="spacing" textLength="201" x="402" y="365.834">_limits: SetIntegerActuatorLimits</text><line style="stroke:#181818;stroke-width:0.5;" x1="383" x2="1397" y1="373.3477" y2="373.3477"/><ellipse cx="393" cy="388.1582" fill="#84BE84" rx="3" ry="3" style="stroke:#038048;stroke-width:1.0;"/><text fill="#000000" font-family="sans-serif" font-size="14" lengthAdjust="spacing" textLength="990" x="402" y="392.4551">SetIntegerActuator(ActuatorName: actuatorName, actuatorTypeID: ActuatorTypeID, modelPath: ModelPath, deviceID: DeviceID, lowerLimit: int, upperLimit: int)</text><ellipse cx="393" cy="406.7793" fill="#84BE84" rx="3" ry="3" style="stroke:#038048;stroke-width:1.0;"/><text fill="#000000" font-family="sans-serif" font-size="14" lengthAdjust="spacing" textLength="234" x="402" y="411.0762">getActuatorTypeID(): ActuatorTypeID</text><ellipse cx="393" cy="425.4004" fill="#84BE84" rx="3" ry="3" style="stroke:#038048;stroke-width:1.0;"/><text fill="#000000" font-family="sans-serif" font-size="14" lengthAdjust="spacing" textLength="117" x="402" y="429.6973">getID(): ActuatorID</text><ellipse cx="393" cy="444.0215" fill="#84BE84" rx="3" ry="3" style="stroke:#038048;stroke-width:1.0;"/><text fill="#000000" font-family="sans-serif" font-size="14" lengthAdjust="spacing" textLength="167" x="402" y="448.3184">getName() : ActuatorName</text><ellipse cx="393" cy="462.6426" fill="#84BE84" rx="3" ry="3" style="stroke:#038048;stroke-width:1.0;"/><text fill="#000000" font-family="sans-serif" font-size="14" lengthAdjust="spacing" textLength="176" x="402" y="466.9395">getModelPath() : ModelPath</text><ellipse cx="393" cy="481.2637" fill="#84BE84" rx="3" ry="3" style="stroke:#038048;stroke-width:1.0;"/><text fill="#000000" font-family="sans-serif" font-size="14" lengthAdjust="spacing" textLength="154" x="402" y="485.5605">getDeviceID() : DeviceID</text><ellipse cx="393" cy="499.8848" fill="#84BE84" rx="3" ry="3" style="stroke:#038048;stroke-width:1.0;"/><text fill="#000000" font-family="sans-serif" font-size="14" lengthAdjust="spacing" textLength="265" x="402" y="504.1816">setValue(ValueObject value): ValueObject</text></g><!--class ActuatorTypeID--><g id="elem_ActuatorTypeID"><rect codeLine="37" fill="#F1F1F1" height="103.8633" id="ActuatorTypeID" rx="2.5" ry="2.5" style="stroke:#181818;stroke-width:0.5;" width="262" x="366" y="595"/><ellipse cx="443.75" cy="611" fill="#ADD1B2" rx="11" ry="11" style="stroke:#181818;stroke-width:1.0;"/><path d="M446.5156,606.875 Q446.6719,606.6563 446.8594,606.5469 Q447.0469,606.4375 447.2656,606.4375 Q447.6406,606.4375 447.875,606.7031 Q448.1094,606.9531 448.1094,607.5625 L448.1094,609.0156 Q448.1094,609.625 447.875,609.8906 Q447.6406,610.1563 447.2656,610.1563 Q446.9219,610.1563 446.7188,609.9531 Q446.5156,609.7656 446.4063,609.25 Q446.3594,608.8906 446.1719,608.7031 Q445.8438,608.3281 445.2344,608.1094 Q444.625,607.8906 444,607.8906 Q443.2344,607.8906 442.5938,608.2188 Q441.9688,608.5469 441.4688,609.2969 Q440.9844,610.0469 440.9844,611.0781 L440.9844,612.1719 Q440.9844,613.4063 441.875,614.2344 Q442.7656,615.0469 444.3594,615.0469 Q445.2969,615.0469 445.9531,614.7969 Q446.3438,614.6406 446.7656,614.2031 Q447.0313,613.9375 447.1719,613.8594 Q447.3281,613.7813 447.5313,613.7813 Q447.8594,613.7813 448.1094,614.0469 Q448.375,614.2969 448.375,614.6406 Q448.375,614.9844 448.0313,615.3906 Q447.5313,615.9688 446.7344,616.2969 Q445.6563,616.75 444.3594,616.75 Q442.8438,616.75 441.6406,616.125 Q440.6563,615.625 439.9688,614.5625 Q439.2813,613.4844 439.2813,612.2031 L439.2813,611.0469 Q439.2813,609.7188 439.8906,608.5781 Q440.5156,607.4219 441.6094,606.8125 Q442.7031,606.1875 443.9375,606.1875 Q444.6719,606.1875 445.3125,606.3594 Q445.9688,606.5156 446.5156,606.875 Z " fill="#000000"/><text fill="#000000" font-family="sans-serif" font-size="14" lengthAdjust="spacing" textLength="98" x="464.25" y="616.7969">ActuatorTypeID</text><line style="stroke:#181818;stroke-width:0.5;" x1="367" x2="627" y1="627" y2="627"/><rect fill="none" height="6" style="stroke:#C82930;stroke-width:1.0;" width="6" x="374" y="638.8105"/><text fill="#000000" font-family="sans-serif" font-size="14" lengthAdjust="spacing" textLength="122" x="386" y="646.1074">_description: String</text><line style="stroke:#181818;stroke-width:0.5;" x1="367" x2="627" y1="653.6211" y2="653.6211"/><ellipse cx="377" cy="668.4316" fill="#84BE84" rx="3" ry="3" style="stroke:#038048;stroke-width:1.0;"/><text fill="#000000" font-family="sans-serif" font-size="14" lengthAdjust="spacing" textLength="236" x="386" y="672.7285">ActuatorTypeID(String strDescription)</text><ellipse cx="377" cy="687.0527" fill="#84BE84" rx="3" ry="3" style="stroke:#038048;stroke-width:1.0;"/><text fill="#000000" font-family="sans-serif" font-size="14" lengthAdjust="spacing" textLength="111" x="386" y="691.3496">getType() : String</text></g><!--class ModelPath--><g id="elem_ModelPath"><rect codeLine="43" fill="#F1F1F1" height="103.8633" id="ModelPath" rx="2.5" ry="2.5" style="stroke:#181818;stroke-width:0.5;" width="172" x="980" y="595"/><ellipse cx="1028.25" cy="611" fill="#ADD1B2" rx="11" ry="11" style="stroke:#181818;stroke-width:1.0;"/><path d="M1031.0156,606.875 Q1031.1719,606.6563 1031.3594,606.5469 Q1031.5469,606.4375 1031.7656,606.4375 Q1032.1406,606.4375 1032.375,606.7031 Q1032.6094,606.9531 1032.6094,607.5625 L1032.6094,609.0156 Q1032.6094,609.625 1032.375,609.8906 Q1032.1406,610.1563 1031.7656,610.1563 Q1031.4219,610.1563 1031.2188,609.9531 Q1031.0156,609.7656 1030.9063,609.25 Q1030.8594,608.8906 1030.6719,608.7031 Q1030.3438,608.3281 1029.7344,608.1094 Q1029.125,607.8906 1028.5,607.8906 Q1027.7344,607.8906 1027.0938,608.2188 Q1026.4688,608.5469 1025.9688,609.2969 Q1025.4844,610.0469 1025.4844,611.0781 L1025.4844,612.1719 Q1025.4844,613.4063 1026.375,614.2344 Q1027.2656,615.0469 1028.8594,615.0469 Q1029.7969,615.0469 1030.4531,614.7969 Q1030.8438,614.6406 1031.2656,614.2031 Q1031.5313,613.9375 1031.6719,613.8594 Q1031.8281,613.7813 1032.0313,613.7813 Q1032.3594,613.7813 1032.6094,614.0469 Q1032.875,614.2969 1032.875,614.6406 Q1032.875,614.9844 1032.5313,615.3906 Q1032.0313,615.9688 1031.2344,616.2969 Q1030.1563,616.75 1028.8594,616.75 Q1027.3438,616.75 1026.1406,616.125 Q1025.1563,615.625 1024.4688,614.5625 Q1023.7813,613.4844 1023.7813,612.2031 L1023.7813,611.0469 Q1023.7813,609.7188 1024.3906,608.5781 Q1025.0156,607.4219 1026.1094,606.8125 Q1027.2031,606.1875 1028.4375,606.1875 Q1029.1719,606.1875 1029.8125,606.3594 Q1030.4688,606.5156 1031.0156,606.875 Z " fill="#000000"/><text fill="#000000" font-family="sans-serif" font-size="14" lengthAdjust="spacing" textLength="67" x="1048.75" y="616.7969">ModelPath</text><line style="stroke:#181818;stroke-width:0.5;" x1="981" x2="1151" y1="627" y2="627"/><rect fill="none" height="6" style="stroke:#C82930;stroke-width:1.0;" width="6" x="988" y="638.8105"/><text fill="#000000" font-family="sans-serif" font-size="14" lengthAdjust="spacing" textLength="81" x="1000" y="646.1074">_path: String</text><line style="stroke:#181818;stroke-width:0.5;" x1="981" x2="1151" y1="653.6211" y2="653.6211"/><ellipse cx="991" cy="668.4316" fill="#84BE84" rx="3" ry="3" style="stroke:#038048;stroke-width:1.0;"/><text fill="#000000" font-family="sans-serif" font-size="14" lengthAdjust="spacing" textLength="146" x="1000" y="672.7285">ModelPath(String path)</text><ellipse cx="991" cy="687.0527" fill="#84BE84" rx="3" ry="3" style="stroke:#038048;stroke-width:1.0;"/><text fill="#000000" font-family="sans-serif" font-size="14" lengthAdjust="spacing" textLength="108" x="1000" y="691.3496">getPath() : String</text></g><!--class ActuatorName--><g id="elem_ActuatorName"><rect codeLine="49" fill="#F1F1F1" height="103.8633" id="ActuatorName" rx="2.5" ry="2.5" style="stroke:#181818;stroke-width:0.5;" width="201" x="1170.5" y="595"/><ellipse cx="1222.25" cy="611" fill="#ADD1B2" rx="11" ry="11" style="stroke:#181818;stroke-width:1.0;"/><path d="M1225.0156,606.875 Q1225.1719,606.6563 1225.3594,606.5469 Q1225.5469,606.4375 1225.7656,606.4375 Q1226.1406,606.4375 1226.375,606.7031 Q1226.6094,606.9531 1226.6094,607.5625 L1226.6094,609.0156 Q1226.6094,609.625 1226.375,609.8906 Q1226.1406,610.1563 1225.7656,610.1563 Q1225.4219,610.1563 1225.2188,609.9531 Q1225.0156,609.7656 1224.9063,609.25 Q1224.8594,608.8906 1224.6719,608.7031 Q1224.3438,608.3281 1223.7344,608.1094 Q1223.125,607.8906 1222.5,607.8906 Q1221.7344,607.8906 1221.0938,608.2188 Q1220.4688,608.5469 1219.9688,609.2969 Q1219.4844,610.0469 1219.4844,611.0781 L1219.4844,612.1719 Q1219.4844,613.4063 1220.375,614.2344 Q1221.2656,615.0469 1222.8594,615.0469 Q1223.7969,615.0469 1224.4531,614.7969 Q1224.8438,614.6406 1225.2656,614.2031 Q1225.5313,613.9375 1225.6719,613.8594 Q1225.8281,613.7813 1226.0313,613.7813 Q1226.3594,613.7813 1226.6094,614.0469 Q1226.875,614.2969 1226.875,614.6406 Q1226.875,614.9844 1226.5313,615.3906 Q1226.0313,615.9688 1225.2344,616.2969 Q1224.1563,616.75 1222.8594,616.75 Q1221.3438,616.75 1220.1406,616.125 Q1219.1563,615.625 1218.4688,614.5625 Q1217.7813,613.4844 1217.7813,612.2031 L1217.7813,611.0469 Q1217.7813,609.7188 1218.3906,608.5781 Q1219.0156,607.4219 1220.1094,606.8125 Q1221.2031,606.1875 1222.4375,606.1875 Q1223.1719,606.1875 1223.8125,606.3594 Q1224.4688,606.5156 1225.0156,606.875 Z " fill="#000000"/><text fill="#000000" font-family="sans-serif" font-size="14" lengthAdjust="spacing" textLength="89" x="1242.75" y="616.7969">ActuatorName</text><line style="stroke:#181818;stroke-width:0.5;" x1="1171.5" x2="1370.5" y1="627" y2="627"/><rect fill="none" height="6" style="stroke:#C82930;stroke-width:1.0;" width="6" x="1178.5" y="638.8105"/><text fill="#000000" font-family="sans-serif" font-size="14" lengthAdjust="spacing" textLength="88" x="1190.5" y="646.1074">_name: String</text><line style="stroke:#181818;stroke-width:0.5;" x1="1171.5" x2="1370.5" y1="653.6211" y2="653.6211"/><ellipse cx="1181.5" cy="668.4316" fill="#84BE84" rx="3" ry="3" style="stroke:#038048;stroke-width:1.0;"/><text fill="#000000" font-family="sans-serif" font-size="14" lengthAdjust="spacing" textLength="175" x="1190.5" y="672.7285">ActuatorName(String name)</text><ellipse cx="1181.5" cy="687.0527" fill="#84BE84" rx="3" ry="3" style="stroke:#038048;stroke-width:1.0;"/><text fill="#000000" font-family="sans-serif" font-size="14" lengthAdjust="spacing" textLength="115" x="1190.5" y="691.3496">getName() : String</text></g><!--class SetIntegerActuatorLimits--><g id="elem_SetIntegerActuatorLimits"><rect codeLine="55" fill="#F1F1F1" height="141.1055" id="SetIntegerActuatorLimits" rx="2.5" ry="2.5" style="stroke:#181818;stroke-width:0.5;" width="364" x="1390" y="576.5"/><ellipse cx="1490.75" cy="592.5" fill="#ADD1B2" rx="11" ry="11" style="stroke:#181818;stroke-width:1.0;"/><path d="M1493.5156,588.375 Q1493.6719,588.1563 1493.8594,588.0469 Q1494.0469,587.9375 1494.2656,587.9375 Q1494.6406,587.9375 1494.875,588.2031 Q1495.1094,588.4531 1495.1094,589.0625 L1495.1094,590.5156 Q1495.1094,591.125 1494.875,591.3906 Q1494.6406,591.6563 1494.2656,591.6563 Q1493.9219,591.6563 1493.7188,591.4531 Q1493.5156,591.2656 1493.4063,590.75 Q1493.3594,590.3906 1493.1719,590.2031 Q1492.8438,589.8281 1492.2344,589.6094 Q1491.625,589.3906 1491,589.3906 Q1490.2344,589.3906 1489.5938,589.7188 Q1488.9688,590.0469 1488.4688,590.7969 Q1487.9844,591.5469 1487.9844,592.5781 L1487.9844,593.6719 Q1487.9844,594.9063 1488.875,595.7344 Q1489.7656,596.5469 1491.3594,596.5469 Q1492.2969,596.5469 1492.9531,596.2969 Q1493.3438,596.1406 1493.7656,595.7031 Q1494.0313,595.4375 1494.1719,595.3594 Q1494.3281,595.2813 1494.5313,595.2813 Q1494.8594,595.2813 1495.1094,595.5469 Q1495.375,595.7969 1495.375,596.1406 Q1495.375,596.4844 1495.0313,596.8906 Q1494.5313,597.4688 1493.7344,597.7969 Q1492.6563,598.25 1491.3594,598.25 Q1489.8438,598.25 1488.6406,597.625 Q1487.6563,597.125 1486.9688,596.0625 Q1486.2813,594.9844 1486.2813,593.7031 L1486.2813,592.5469 Q1486.2813,591.2188 1486.8906,590.0781 Q1487.5156,588.9219 1488.6094,588.3125 Q1489.7031,587.6875 1490.9375,587.6875 Q1491.6719,587.6875 1492.3125,587.8594 Q1492.9688,588.0156 1493.5156,588.375 Z " fill="#000000"/><text fill="#000000" font-family="sans-serif" font-size="14" lengthAdjust="spacing" textLength="154" x="1511.25" y="598.2969">SetIntegerActuatorLimits</text><line style="stroke:#181818;stroke-width:0.5;" x1="1391" x2="1753" y1="608.5" y2="608.5"/><rect fill="none" height="6" style="stroke:#C82930;stroke-width:1.0;" width="6" x="1398" y="620.3105"/><text fill="#000000" font-family="sans-serif" font-size="14" lengthAdjust="spacing" textLength="93" x="1410" y="627.6074">_lowerLimit: int</text><rect fill="none" height="6" style="stroke:#C82930;stroke-width:1.0;" width="6" x="1398" y="638.9316"/><text fill="#000000" font-family="sans-serif" font-size="14" lengthAdjust="spacing" textLength="97" x="1410" y="646.2285">_upperLimit: int</text><line style="stroke:#181818;stroke-width:0.5;" x1="1391" x2="1753" y1="653.7422" y2="653.7422"/><ellipse cx="1401" cy="668.5527" fill="#84BE84" rx="3" ry="3" style="stroke:#038048;stroke-width:1.0;"/><text fill="#000000" font-family="sans-serif" font-size="14" lengthAdjust="spacing" textLength="338" x="1410" y="672.8496">SetIntegerActuatorLimits(int lowerLimit, int upperLimit)</text><ellipse cx="1401" cy="687.1738" fill="#84BE84" rx="3" ry="3" style="stroke:#038048;stroke-width:1.0;"/><text fill="#000000" font-family="sans-serif" font-size="14" lengthAdjust="spacing" textLength="124" x="1410" y="691.4707">getLowerLimit() : int</text><ellipse cx="1401" cy="705.7949" fill="#84BE84" rx="3" ry="3" style="stroke:#038048;stroke-width:1.0;"/><text fill="#000000" font-family="sans-serif" font-size="14" lengthAdjust="spacing" textLength="124" x="1410" y="710.0918">getUpperLimit() : int</text></g><!--class ActuatorID--><g id="elem_ActuatorID"><rect codeLine="63" fill="#F1F1F1" height="103.8633" id="ActuatorID" rx="2.5" ry="2.5" style="stroke:#181818;stroke-width:0.5;" width="154" x="646" y="595"/><ellipse cx="686.2" cy="611" fill="#ADD1B2" rx="11" ry="11" style="stroke:#181818;stroke-width:1.0;"/><path d="M688.9656,606.875 Q689.1219,606.6563 689.3094,606.5469 Q689.4969,606.4375 689.7156,606.4375 Q690.0906,606.4375 690.325,606.7031 Q690.5594,606.9531 690.5594,607.5625 L690.5594,609.0156 Q690.5594,609.625 690.325,609.8906 Q690.0906,610.1563 689.7156,610.1563 Q689.3719,610.1563 689.1688,609.9531 Q688.9656,609.7656 688.8563,609.25 Q688.8094,608.8906 688.6219,608.7031 Q688.2938,608.3281 687.6844,608.1094 Q687.075,607.8906 686.45,607.8906 Q685.6844,607.8906 685.0438,608.2188 Q684.4188,608.5469 683.9188,609.2969 Q683.4344,610.0469 683.4344,611.0781 L683.4344,612.1719 Q683.4344,613.4063 684.325,614.2344 Q685.2156,615.0469 686.8094,615.0469 Q687.7469,615.0469 688.4031,614.7969 Q688.7938,614.6406 689.2156,614.2031 Q689.4813,613.9375 689.6219,613.8594 Q689.7781,613.7813 689.9813,613.7813 Q690.3094,613.7813 690.5594,614.0469 Q690.825,614.2969 690.825,614.6406 Q690.825,614.9844 690.4813,615.3906 Q689.9813,615.9688 689.1844,616.2969 Q688.1063,616.75 686.8094,616.75 Q685.2938,616.75 684.0906,616.125 Q683.1063,615.625 682.4188,614.5625 Q681.7313,613.4844 681.7313,612.2031 L681.7313,611.0469 Q681.7313,609.7188 682.3406,608.5781 Q682.9656,607.4219 684.0594,606.8125 Q685.1531,606.1875 686.3875,606.1875 Q687.1219,606.1875 687.7625,606.3594 Q688.4188,606.5156 688.9656,606.875 Z " fill="#000000"/><text fill="#000000" font-family="sans-serif" font-size="14" lengthAdjust="spacing" textLength="66" x="705.8" y="616.7969">ActuatorID</text><line style="stroke:#181818;stroke-width:0.5;" x1="647" x2="799" y1="627" y2="627"/><rect fill="none" height="6" style="stroke:#C82930;stroke-width:1.0;" width="6" x="654" y="638.8105"/><text fill="#000000" font-family="sans-serif" font-size="14" lengthAdjust="spacing" textLength="64" x="666" y="646.1074">_id: String</text><line style="stroke:#181818;stroke-width:0.5;" x1="647" x2="799" y1="653.6211" y2="653.6211"/><ellipse cx="657" cy="668.4316" fill="#84BE84" rx="3" ry="3" style="stroke:#038048;stroke-width:1.0;"/><text fill="#000000" font-family="sans-serif" font-size="14" lengthAdjust="spacing" textLength="128" x="666" y="672.7285">ActuatorID(String id)</text><ellipse cx="657" cy="687.0527" fill="#84BE84" rx="3" ry="3" style="stroke:#038048;stroke-width:1.0;"/><text fill="#000000" font-family="sans-serif" font-size="14" lengthAdjust="spacing" textLength="92" x="666" y="691.3496">getID() : String</text></g><!--class DeviceID--><g id="elem_DeviceID"><rect codeLine="69" fill="#F1F1F1" height="103.8633" id="DeviceID" rx="2.5" ry="2.5" style="stroke:#181818;stroke-width:0.5;" width="144" x="818" y="595"/><ellipse cx="858.2" cy="611" fill="#ADD1B2" rx="11" ry="11" style="stroke:#181818;stroke-width:1.0;"/><path d="M860.9656,606.875 Q861.1219,606.6563 861.3094,606.5469 Q861.4969,606.4375 861.7156,606.4375 Q862.0906,606.4375 862.325,606.7031 Q862.5594,606.9531 862.5594,607.5625 L862.5594,609.0156 Q862.5594,609.625 862.325,609.8906 Q862.0906,610.1563 861.7156,610.1563 Q861.3719,610.1563 861.1688,609.9531 Q860.9656,609.7656 860.8563,609.25 Q860.8094,608.8906 860.6219,608.7031 Q860.2938,608.3281 859.6844,608.1094 Q859.075,607.8906 858.45,607.8906 Q857.6844,607.8906 857.0438,608.2188 Q856.4188,608.5469 855.9188,609.2969 Q855.4344,610.0469 855.4344,611.0781 L855.4344,612.1719 Q855.4344,613.4063 856.325,614.2344 Q857.2156,615.0469 858.8094,615.0469 Q859.7469,615.0469 860.4031,614.7969 Q860.7938,614.6406 861.2156,614.2031 Q861.4813,613.9375 861.6219,613.8594 Q861.7781,613.7813 861.9813,613.7813 Q862.3094,613.7813 862.5594,614.0469 Q862.825,614.2969 862.825,614.6406 Q862.825,614.9844 862.4813,615.3906 Q861.9813,615.9688 861.1844,616.2969 Q860.1063,616.75 858.8094,616.75 Q857.2938,616.75 856.0906,616.125 Q855.1063,615.625 854.4188,614.5625 Q853.7313,613.4844 853.7313,612.2031 L853.7313,611.0469 Q853.7313,609.7188 854.3406,608.5781 Q854.9656,607.4219 856.0594,606.8125 Q857.1531,606.1875 858.3875,606.1875 Q859.1219,606.1875 859.7625,606.3594 Q860.4188,606.5156 860.9656,606.875 Z " fill="#000000"/><text fill="#000000" font-family="sans-serif" font-size="14" lengthAdjust="spacing" textLength="56" x="877.8" y="616.7969">DeviceID</text><line style="stroke:#181818;stroke-width:0.5;" x1="819" x2="961" y1="627" y2="627"/><rect fill="none" height="6" style="stroke:#C82930;stroke-width:1.0;" width="6" x="826" y="638.8105"/><text fill="#000000" font-family="sans-serif" font-size="14" lengthAdjust="spacing" textLength="64" x="838" y="646.1074">_id: String</text><line style="stroke:#181818;stroke-width:0.5;" x1="819" x2="961" y1="653.6211" y2="653.6211"/><ellipse cx="829" cy="668.4316" fill="#84BE84" rx="3" ry="3" style="stroke:#038048;stroke-width:1.0;"/><text fill="#000000" font-family="sans-serif" font-size="14" lengthAdjust="spacing" textLength="118" x="838" y="672.7285">DeviceID(String id)</text><ellipse cx="829" cy="687.0527" fill="#84BE84" rx="3" ry="3" style="stroke:#038048;stroke-width:1.0;"/><text fill="#000000" font-family="sans-serif" font-size="14" lengthAdjust="spacing" textLength="92" x="838" y="691.3496">getID() : String</text></g><!--class SetIntegerValue--><g id="elem_SetIntegerValue"><rect codeLine="75" fill="#F1F1F1" height="103.8633" id="SetIntegerValue" rx="2.5" ry="2.5" style="stroke:#181818;stroke-width:0.5;" width="190" x="1772" y="595"/><ellipse cx="1812.65" cy="611" fill="#ADD1B2" rx="11" ry="11" style="stroke:#181818;stroke-width:1.0;"/><path d="M1815.4156,606.875 Q1815.5719,606.6563 1815.7594,606.5469 Q1815.9469,606.4375 1816.1656,606.4375 Q1816.5406,606.4375 1816.775,606.7031 Q1817.0094,606.9531 1817.0094,607.5625 L1817.0094,609.0156 Q1817.0094,609.625 1816.775,609.8906 Q1816.5406,610.1563 1816.1656,610.1563 Q1815.8219,610.1563 1815.6188,609.9531 Q1815.4156,609.7656 1815.3063,609.25 Q1815.2594,608.8906 1815.0719,608.7031 Q1814.7438,608.3281 1814.1344,608.1094 Q1813.525,607.8906 1812.9,607.8906 Q1812.1344,607.8906 1811.4938,608.2188 Q1810.8688,608.5469 1810.3688,609.2969 Q1809.8844,610.0469 1809.8844,611.0781 L1809.8844,612.1719 Q1809.8844,613.4063 1810.775,614.2344 Q1811.6656,615.0469 1813.2594,615.0469 Q1814.1969,615.0469 1814.8531,614.7969 Q1815.2438,614.6406 1815.6656,614.2031 Q1815.9313,613.9375 1816.0719,613.8594 Q1816.2281,613.7813 1816.4313,613.7813 Q1816.7594,613.7813 1817.0094,614.0469 Q1817.275,614.2969 1817.275,614.6406 Q1817.275,614.9844 1816.9313,615.3906 Q1816.4313,615.9688 1815.6344,616.2969 Q1814.5563,616.75 1813.2594,616.75 Q1811.7438,616.75 1810.5406,616.125 Q1809.5563,615.625 1808.8688,614.5625 Q1808.1813,613.4844 1808.1813,612.2031 L1808.1813,611.0469 Q1808.1813,609.7188 1808.7906,608.5781 Q1809.4156,607.4219 1810.5094,606.8125 Q1811.6031,606.1875 1812.8375,606.1875 Q1813.5719,606.1875 1814.2125,606.3594 Q1814.8688,606.5156 1815.4156,606.875 Z " fill="#000000"/><text fill="#000000" font-family="sans-serif" font-size="14" lengthAdjust="spacing" textLength="101" x="1832.35" y="616.7969">SetIntegerValue</text><line style="stroke:#181818;stroke-width:0.5;" x1="1773" x2="1961" y1="627" y2="627"/><rect fill="none" height="6" style="stroke:#C82930;stroke-width:1.0;" width="6" x="1780" y="638.8105"/><text fill="#000000" font-family="sans-serif" font-size="14" lengthAdjust="spacing" textLength="69" x="1792" y="646.1074">_value : int</text><line style="stroke:#181818;stroke-width:0.5;" x1="1773" x2="1961" y1="653.6211" y2="653.6211"/><ellipse cx="1783" cy="668.4316" fill="#84BE84" rx="3" ry="3" style="stroke:#038048;stroke-width:1.0;"/><text fill="#000000" font-family="sans-serif" font-size="14" lengthAdjust="spacing" textLength="164" x="1792" y="672.7285">SetIntegerValue(int value)</text><ellipse cx="1783" cy="687.0527" fill="#84BE84" rx="3" ry="3" style="stroke:#038048;stroke-width:1.0;"/><text fill="#000000" font-family="sans-serif" font-size="14" lengthAdjust="spacing" textLength="108" x="1792" y="691.3496">toString() : String</text></g><!--class DomainEntity--><g id="elem_DomainEntity"><rect codeLine="84" fill="#F1F1F1" height="48" id="DomainEntity" rx="2.5" ry="2.5" style="stroke:#181818;stroke-width:0.5;" width="115" x="790.5" y="868"/><ellipse cx="805.5" cy="884" fill="#B4A7E5" rx="11" ry="11" style="stroke:#181818;stroke-width:1.0;"/><path d="M806.4531,880.6406 L806.4531,887.2969 L808.1719,887.2969 Q808.7813,887.2969 809.0469,887.5313 Q809.3125,887.7656 809.3125,888.1563 Q809.3125,888.5313 809.0469,888.7656 Q808.7813,889 808.1719,889 L803.0313,889 Q802.4219,889 802.1563,888.7656 Q801.8906,888.5313 801.8906,888.1406 Q801.8906,887.7656 802.1563,887.5313 Q802.4219,887.2969 803.0313,887.2969 L804.75,887.2969 L804.75,880.6406 L803.0313,880.6406 Q802.4219,880.6406 802.1563,880.4063 Q801.8906,880.1719 801.8906,879.7813 Q801.8906,879.4063 802.1563,879.1719 Q802.4219,878.9375 803.0313,878.9375 L808.1719,878.9375 Q808.7813,878.9375 809.0469,879.1719 Q809.3125,879.4063 809.3125,879.7813 Q809.3125,880.1719 809.0469,880.4063 Q808.7813,880.6406 808.1719,880.6406 L806.4531,880.6406 Z " fill="#000000"/><text fill="#000000" font-family="sans-serif" font-size="14" font-style="italic" lengthAdjust="spacing" textLength="83" x="819.5" y="889.7969">DomainEntity</text><line style="stroke:#181818;stroke-width:0.5;" x1="791.5" x2="904.5" y1="900" y2="900"/><line style="stroke:#181818;stroke-width:0.5;" x1="791.5" x2="904.5" y1="908" y2="908"/></g><!--class DomainID--><g id="elem_DomainID"><rect codeLine="87" fill="#F1F1F1" height="48" id="DomainID" rx="2.5" ry="2.5" style="stroke:#181818;stroke-width:0.5;" width="94" x="815" y="953"/><ellipse cx="830" cy="969" fill="#B4A7E5" rx="11" ry="11" style="stroke:#181818;stroke-width:1.0;"/><path d="M830.9531,965.6406 L830.9531,972.2969 L832.6719,972.2969 Q833.2813,972.2969 833.5469,972.5313 Q833.8125,972.7656 833.8125,973.1563 Q833.8125,973.5313 833.5469,973.7656 Q833.2813,974 832.6719,974 L827.5313,974 Q826.9219,974 826.6563,973.7656 Q826.3906,973.5313 826.3906,973.1406 Q826.3906,972.7656 826.6563,972.5313 Q826.9219,972.2969 827.5313,972.2969 L829.25,972.2969 L829.25,965.6406 L827.5313,965.6406 Q826.9219,965.6406 826.6563,965.4063 Q826.3906,965.1719 826.3906,964.7813 Q826.3906,964.4063 826.6563,964.1719 Q826.9219,963.9375 827.5313,963.9375 L832.6719,963.9375 Q833.2813,963.9375 833.5469,964.1719 Q833.8125,964.4063 833.8125,964.7813 Q833.8125,965.1719 833.5469,965.4063 Q833.2813,965.6406 832.6719,965.6406 L830.9531,965.6406 Z " fill="#000000"/><text fill="#000000" font-family="sans-serif" font-size="14" font-style="italic" lengthAdjust="spacing" textLength="62" x="844" y="974.7969">DomainID</text><line style="stroke:#181818;stroke-width:0.5;" x1="816" x2="908" y1="985" y2="985"/><line style="stroke:#181818;stroke-width:0.5;" x1="816" x2="908" y1="993" y2="993"/></g><!--class AggregateRoot--><g id="elem_AggregateRoot"><rect codeLine="90" fill="#F1F1F1" height="48" id="AggregateRoot" rx="2.5" ry="2.5" style="stroke:#181818;stroke-width:0.5;" width="128" x="781" y="783"/><ellipse cx="796" cy="799" fill="#B4A7E5" rx="11" ry="11" style="stroke:#181818;stroke-width:1.0;"/><path d="M796.9531,795.6406 L796.9531,802.2969 L798.6719,802.2969 Q799.2813,802.2969 799.5469,802.5313 Q799.8125,802.7656 799.8125,803.1563 Q799.8125,803.5313 799.5469,803.7656 Q799.2813,804 798.6719,804 L793.5313,804 Q792.9219,804 792.6563,803.7656 Q792.3906,803.5313 792.3906,803.1406 Q792.3906,802.7656 792.6563,802.5313 Q792.9219,802.2969 793.5313,802.2969 L795.25,802.2969 L795.25,795.6406 L793.5313,795.6406 Q792.9219,795.6406 792.6563,795.4063 Q792.3906,795.1719 792.3906,794.7813 Q792.3906,794.4063 792.6563,794.1719 Q792.9219,793.9375 793.5313,793.9375 L798.6719,793.9375 Q799.2813,793.9375 799.5469,794.1719 Q799.8125,794.4063 799.8125,794.7813 Q799.8125,795.1719 799.5469,795.4063 Q799.2813,795.6406 798.6719,795.6406 L796.9531,795.6406 Z " fill="#000000"/><text fill="#000000" font-family="sans-serif" font-size="14" font-style="italic" lengthAdjust="spacing" textLength="96" x="810" y="804.7969">AggregateRoot</text><line style="stroke:#181818;stroke-width:0.5;" x1="782" x2="908" y1="815" y2="815"/><line style="stroke:#181818;stroke-width:0.5;" x1="782" x2="908" y1="823" y2="823"/></g><!--class ValueObject--><g id="elem_ValueObject"><rect codeLine="93" fill="#F1F1F1" height="48" id="ValueObject" rx="2.5" ry="2.5" style="stroke:#181818;stroke-width:0.5;" width="109" x="799.5" y="1038"/><ellipse cx="814.5" cy="1054" fill="#B4A7E5" rx="11" ry="11" style="stroke:#181818;stroke-width:1.0;"/><path d="M815.4531,1050.6406 L815.4531,1057.2969 L817.1719,1057.2969 Q817.7813,1057.2969 818.0469,1057.5313 Q818.3125,1057.7656 818.3125,1058.1563 Q818.3125,1058.5313 818.0469,1058.7656 Q817.7813,1059 817.1719,1059 L812.0313,1059 Q811.4219,1059 811.1563,1058.7656 Q810.8906,1058.5313 810.8906,1058.1406 Q810.8906,1057.7656 811.1563,1057.5313 Q811.4219,1057.2969 812.0313,1057.2969 L813.75,1057.2969 L813.75,1050.6406 L812.0313,1050.6406 Q811.4219,1050.6406 811.1563,1050.4063 Q810.8906,1050.1719 810.8906,1049.7813 Q810.8906,1049.4063 811.1563,1049.1719 Q811.4219,1048.9375 812.0313,1048.9375 L817.1719,1048.9375 Q817.7813,1048.9375 818.0469,1049.1719 Q818.3125,1049.4063 818.3125,1049.7813 Q818.3125,1050.1719 818.0469,1050.4063 Q817.7813,1050.6406 817.1719,1050.6406 L815.4531,1050.6406 Z " fill="#000000"/><text fill="#000000" font-family="sans-serif" font-size="14" font-style="italic" lengthAdjust="spacing" textLength="77" x="828.5" y="1059.7969">ValueObject</text><line style="stroke:#181818;stroke-width:0.5;" x1="800.5" x2="907.5" y1="1070" y2="1070"/><line style="stroke:#181818;stroke-width:0.5;" x1="800.5" x2="907.5" y1="1078" y2="1078"/></g><polygon fill="none" points="212.3297,323.7865,227.7046,312.6684,217.9588,305.6671,212.3297,323.7865" style="stroke:#181818;stroke-width:1.0;"/><path d="M439.2001,129.0279 C410.2972,140.8045 379.6835,155.7895 354,174 C294.4054,216.2548 251.5578,269.1811 222.8317,309.1678 " fill="none" style="stroke:#181818;stroke-width:1.0;stroke-dasharray:7.0,7.0;"/><polygon fill="#181818" points="683.166,202.8519,678.3266,194.274,679.1523,199.8703,673.556,200.696,683.166,202.8519" style="stroke:#181818;stroke-width:1.0;"/><path d="M583.9733,129.1659 C610.228,148.6694 640.8727,171.434 678.3496,199.274 " fill="none" style="stroke:#181818;stroke-width:1.0;stroke-dasharray:7.0,7.0;"/><text fill="#000000" font-family="sans-serif" font-size="13" lengthAdjust="spacing" textLength="43" x="626" y="162.0283">creates</text><text fill="#000000" font-family="sans-serif" font-size="13" lengthAdjust="spacing" textLength="7" x="675.166" y="198.8802">1</text><text fill="#000000" font-family="sans-serif" font-size="13" lengthAdjust="spacing" textLength="7" x="575.9733" y="144.1942">1</text><polygon fill="none" points="347.8723,569.8001,366.7308,567.7127,361.7068,556.8151,347.8723,569.8001" style="stroke:#181818;stroke-width:1.0;"/><path d="M481.6428,512.02 C438.2747,529.9058 395.0454,548.4163 354,567 C351.968,567.92 366.2711,561.3177 364.2188,562.2639 " fill="none" style="stroke:#181818;stroke-width:1.0;stroke-dasharray:7.0,7.0;"/><polygon fill="#181818" points="1808.4351,594.8916,1803.5611,586.3333,1804.4094,591.9262,1798.8165,592.7745,1808.4351,594.8916" style="stroke:#181818;stroke-width:1.0;"/><path d="M1398.1737,442.3886 C1521.0197,472.7473 1649.5295,513.2982 1763,567 C1778.6784,574.4201 1789.4427,580.9016 1803.6043,591.3331 " fill="none" style="stroke:#181818;stroke-width:1.0;"/><text fill="#000000" font-family="sans-serif" font-size="13" lengthAdjust="spacing" textLength="21" x="1720" y="545.0283">has</text><text fill="#000000" font-family="sans-serif" font-size="13" lengthAdjust="spacing" textLength="7" x="1800.4351" y="590.9199">1</text><text fill="#000000" font-family="sans-serif" font-size="13" lengthAdjust="spacing" textLength="7" x="1399.1737" y="438.4169">1</text><polygon fill="#181818" points="567.1406,594.6885,576.7661,592.603,571.176,591.7364,572.0427,586.1463,567.1406,594.6885" style="stroke:#181818;stroke-width:1.0;"/><path d="M679.9809,512.1399 C639.2386,541.9451 604.1175,567.638 571.9831,591.1459 " fill="none" style="stroke:#181818;stroke-width:1.0;"/><text fill="#000000" font-family="sans-serif" font-size="13" lengthAdjust="spacing" textLength="21" x="648" y="545.0283">has</text><text fill="#000000" font-family="sans-serif" font-size="13" lengthAdjust="spacing" textLength="7" x="559.1406" y="590.7168">1</text><text fill="#000000" font-family="sans-serif" font-size="13" lengthAdjust="spacing" textLength="7" x="671.9809" y="527.1682">1</text><polygon fill="#181818" points="1034.6457,594.782,1033.3582,585.0177,1032.0351,590.5176,1026.5352,589.1946,1034.6457,594.782" style="stroke:#181818;stroke-width:1.0;"/><path d="M984.183,512.35 C1002.4086,542.122 1017.1461,566.196 1031.513,589.6648 " fill="none" style="stroke:#181818;stroke-width:1.0;"/><text fill="#000000" font-family="sans-serif" font-size="13" lengthAdjust="spacing" textLength="21" x="1005" y="545.0283">has</text><text fill="#000000" font-family="sans-serif" font-size="13" lengthAdjust="spacing" textLength="7" x="1026.6457" y="590.8103">1</text><text fill="#000000" font-family="sans-serif" font-size="13" lengthAdjust="spacing" textLength="7" x="976.183" y="527.3783">1</text><polygon fill="#181818" points="1203.0011,594.6885,1198.2264,586.0745,1199.0099,591.6768,1193.4076,592.4604,1203.0011,594.6885" style="stroke:#181818;stroke-width:1.0;"/><path d="M1093.6063,512.1399 C1133.1046,541.9451 1167.0585,567.5665 1198.2117,591.0744 " fill="none" style="stroke:#181818;stroke-width:1.0;"/><text fill="#000000" font-family="sans-serif" font-size="13" lengthAdjust="spacing" textLength="21" x="1137" y="545.0283">has</text><text fill="#000000" font-family="sans-serif" font-size="13" lengthAdjust="spacing" textLength="7" x="1195.0011" y="590.7168">1</text><text fill="#000000" font-family="sans-serif" font-size="13" lengthAdjust="spacing" textLength="7" x="1085.6063" y="527.1682">1</text><polygon fill="#181818" points="1406.7233,576.3269,1399.9838,569.145,1402.1159,574.3846,1396.8762,576.5167,1406.7233,576.3269" style="stroke:#181818;stroke-width:1.0;"/><path d="M1254.4606,512.1399 C1307.7256,534.594 1354.6949,554.3941 1401.1945,573.9962 " fill="none" style="stroke:#181818;stroke-width:1.0;"/><text fill="#000000" font-family="sans-serif" font-size="13" lengthAdjust="spacing" textLength="21" x="1332" y="545.0283">has</text><text fill="#000000" font-family="sans-serif" font-size="13" lengthAdjust="spacing" textLength="7" x="1398.7233" y="572.3552">1</text><text fill="#000000" font-family="sans-serif" font-size="13" lengthAdjust="spacing" textLength="7" x="1246.4606" y="527.1682">1</text><polygon fill="#181818" points="752.751,594.782,760.7303,589.0088,755.2624,590.4585,753.8127,584.9906,752.751,594.782" style="stroke:#181818;stroke-width:1.0;"/><path d="M800.6332,512.35 C783.3396,542.122 769.3969,566.1251 755.7646,589.5938 " fill="none" style="stroke:#181818;stroke-width:1.0;"/><text fill="#000000" font-family="sans-serif" font-size="13" lengthAdjust="spacing" textLength="21" x="787" y="545.0283">has</text><text fill="#000000" font-family="sans-serif" font-size="13" lengthAdjust="spacing" textLength="7" x="744.751" y="590.8103">1</text><text fill="#000000" font-family="sans-serif" font-size="13" lengthAdjust="spacing" textLength="7" x="792.6332" y="527.3783">1</text><polygon fill="#181818" points="890,594.782,894,585.782,890,589.782,886,585.782,890,594.782" style="stroke:#181818;stroke-width:1.0;"/><path d="M890,512.35 C890,542.122 890,565.3133 890,588.782 " fill="none" style="stroke:#181818;stroke-width:1.0;"/><text fill="#000000" font-family="sans-serif" font-size="13" lengthAdjust="spacing" textLength="21" x="891" y="545.0283">has</text><text fill="#000000" font-family="sans-serif" font-size="13" lengthAdjust="spacing" textLength="7" x="882" y="590.8103">1</text><text fill="#000000" font-family="sans-serif" font-size="13" lengthAdjust="spacing" textLength="7" x="882" y="527.3783">1</text><polygon fill="none" points="858.0726,952.716,860.9951,933.9688,849.1623,935.9647,858.0726,952.716" style="stroke:#181818;stroke-width:1.0;"/><path d="M851.8998,916.1201 C853.8254,927.5362 853.1494,923.5285 855.0787,934.9667 " fill="none" style="stroke:#181818;stroke-width:1.0;"/><polygon fill="none" points="847.1584,867.716,852.5043,849.511,840.5121,849.9445,847.1584,867.716" style="stroke:#181818;stroke-width:1.0;"/><path d="M845.8357,831.1201 C846.2483,842.5362 846.0948,838.2895 846.5082,849.7277 " fill="none" style="stroke:#181818;stroke-width:1.0;"/><polygon fill="none" points="856.2442,1037.716,863.9435,1020.3747,851.9989,1019.2234,856.2442,1037.716" style="stroke:#181818;stroke-width:1.0;"/><path d="M859.7716,1001.1201 C858.6712,1012.5362 859.0737,1008.3608 857.9712,1019.799 " fill="none" style="stroke:#181818;stroke-width:1.0;"/><polygon fill="none" points="780.8218,804.345,763.0987,797.5705,762.5787,809.5592,780.8218,804.345" style="stroke:#181818;stroke-width:1.0;"/><path d="M333.6754,727.1768 C340.4479,730.0399 347.2442,732.6729 354,735 C501.1917,785.7017 667.3195,799.4214 762.8387,803.5649 " fill="none" style="stroke:#181818;stroke-width:1.0;"/><polygon fill="none" points="889.3654,952.7223,906.2525,944.0721,897.6849,935.6699,889.3654,952.7223" style="stroke:#181818;stroke-width:1.0;"/><path d="M564.5443,699.1968 C586.5404,713.27 611.8059,726.8805 637,735 C666.7849,744.5991 896.6316,731.1379 918,754 C923.2336,759.5994 915.5739,914.5607 915,916 C909.4921,929.814 911.9328,929.7109 901.9687,939.871 " fill="none" style="stroke:#181818;stroke-width:1.0;stroke-dasharray:7.0,7.0;"/><polygon fill="none" points="909.192,958.0451,927.6588,953.689,921.3519,943.4801,909.192,958.0451" style="stroke:#181818;stroke-width:1.0;"/><path d="M761.8545,699.212 C775.1988,713.1954 791.2874,726.7514 809,735 C834.0608,746.6706 914.2542,724.6815 933,745 C961.6305,776.0324 954.1095,898.4336 933,935 C927.4492,944.6153 934.003,942.717 924.5053,948.5846 " fill="none" style="stroke:#181818;stroke-width:1.0;stroke-dasharray:7.0,7.0;"/><polygon fill="none" points="909.3241,965.9837,928.2913,965.4907,924.202,954.2089,909.3241,965.9837" style="stroke:#181818;stroke-width:1.0;"/><path d="M930.9411,699.1288 C939.9792,713.2052 948.266,729.0197 953,745 C976.9857,825.9664 998.8347,864.0772 953,935 C943.1244,950.2811 942.9637,953.7904 926.2467,959.8498 " fill="none" style="stroke:#181818;stroke-width:1.0;stroke-dasharray:7.0,7.0;"/><polygon fill="none" points="909.105,963.9826,928.0718,963.4734,923.9729,952.1951,909.105,963.9826" style="stroke:#181818;stroke-width:1.0;"/><path d="M1055.7829,699.2046 C1043.0474,755.32 1017.719,846.5885 976,916 C961.4828,940.1536 950.557,948.9175 926.0224,957.8343 " fill="none" style="stroke:#181818;stroke-width:1.0;stroke-dasharray:7.0,7.0;"/><polygon fill="none" points="908.6371,1060.899,926.6721,1066.793,926.6015,1054.7932,908.6371,1060.899" style="stroke:#181818;stroke-width:1.0;"/><path d="M1810.0563,699.1707 C1795.1999,711.521 1778.8876,724.2456 1763,735 C1707.8352,772.3414 1631,739.3852 1631,806 C1631,806 1631,806 1631,978 C1631,1050.7494 1103.4985,1059.7518 926.6368,1060.7931 " fill="none" style="stroke:#181818;stroke-width:1.0;stroke-dasharray:7.0,7.0;"/><polygon fill="none" points="908.7714,1057.9596,927.1032,1062.8532,926.3729,1050.8754,908.7714,1057.9596" style="stroke:#181818;stroke-width:1.0;"/><path d="M1423.1916,717.5075 C1395.4595,740.5634 1375,769.8299 1375,806 C1375,806 1375,806 1375,978 C1375,1024.8264 1060.5028,1048.7095 926.7381,1056.8643 " fill="none" style="stroke:#181818;stroke-width:1.0;stroke-dasharray:7.0,7.0;"/><polygon fill="none" points="908.5279,1057.3438,926.9684,1061.8103,925.9601,1049.8527,908.5279,1057.3438" style="stroke:#181818;stroke-width:1.0;"/><path d="M1210.738,699.1824 C1184.2285,727.4831 1159,765.1478 1159,806 C1159,806 1159,806 1159,978 C1159,1029.31 1014.1931,1048.4345 926.4642,1055.8315 " fill="none" style="stroke:#181818;stroke-width:1.0;stroke-dasharray:7.0,7.0;"/><!--SRC=[hLR9Rjim4BtpAzYSP5GMqAiE0Gmu1G8aQT7jMh0Igx3L1ebEORJ-ztAHg255AeuZ7Rne7eTlPjuC-QRjI54HN99ZS-2uhoWdDK6e9TblKb2SDnLXTRBB-87mfiD_4HOFgpdjVfACOiSWdxUue7ny_-NOqjjzj4cn_SQWhLKsCeHw81MDDdW2oXT-w7sJq_8ZuOyAR_xvmNlwn3B5Lc37FnveJ_atKXvef3u__FX5CuwVv6z17hnJIq-1XBqdcVWyMddBEaeu7H6Hzf8a2Mv99q8KBdgG7k0-AqdVuzkgBLTtVmf98VaiwYN2AcZdY42p2PhbiyNVYQcoj-808SiRA3P0QLq5TIQGrLX-dnA4FHzAxYc-iAe2fo0iLMc8A5d5U9zw8hzJ5b2AEIJQMT72s6Ey76ECVP75U1vFZClc3zLqKYdA61_Q5hxONDZ6o-rxHjkUrQvdjEcBsnD8reuDoDK8fCywrdBMrABAl6DrWUpHuEHBOt3Fk_sqT8DcaqV2LJZ0gSNCf69EgbLbzxAPqZaGaLZFzYRZeUrXnUOCQgNOnNoesWya9Dn3miWZH2BKLdD2ZiXTioDvXqfecqX0GVl4SYde7az4TmQiuffl9J1VZGCBuys-Jv8iVoRpamfPxk4uj54evsDxlM1ZqvwlsDOPilFTLJlZvVBf8I2hf9lV0V96xpudSffTV_8y5nmGFCVtod9JSyRrANlosOVCERPTKNIq46VnfwRXFW2SNDei0BxZFKd-NRjN2Y_mwjsL05-hx-SFSj_PdWxtXnwXonmehkvISzkupASCPxlLORcYIV4ZwL_fL_rmZeNL_4v3VNMgQb2lvZKuULVdlMPwpUpI7f7LiTkj4EFOeyXkI63JQ6IQMPdW7GA51AsXq_n8h3qGSaG5cqEY9sfJPe8O4saGCKaj245k_xX867PG4KkBB74k0T5_]--></g></svg>