<?xml version="1.0" encoding="us-ascii" standalone="no"?><svg xmlns="http://www.w3.org/2000/svg" xmlns:xlink="http://www.w3.org/1999/xlink" contentStyleType="text/css" height="640.8px" preserveAspectRatio="none" style="width:1171px;height:640px;background:#FFFFFF;" version="1.1" viewBox="0 0 1171 640" width="1171.8px" zoomAndPan="magnify"><defs/><g><!--cluster SmartHome--><g id="cluster_SmartHome"><path d="M14.85,3.6 L87.75,3.6 A3.375,3.375 0 0 1 90,5.85 L96.3,25.759 L1163.25,25.759 A2.25,2.25 0 0 1 1165.5,28.009 L1165.5,632.25 A2.25,2.25 0 0 1 1163.25,634.5 L14.85,634.5 A2.25,2.25 0 0 1 12.6,632.25 L12.6,5.85 A2.25,2.25 0 0 1 14.85,3.6 " fill="none" style="stroke:#000000;stroke-width:1.35;"/><line style="stroke:#000000;stroke-width:1.35;" x1="12.6" x2="96.3" y1="25.759" y2="25.759"/><text fill="#000000" font-family="sans-serif" font-size="12.6" font-weight="bold" lengthAdjust="spacing" textLength="72" x="16.2" y="18.9967">SmartHome</text></g><!--cluster actuators--><g id="cluster_actuators"><path d="M119.25,29.7 L179.55,29.7 A3.375,3.375 0 0 1 181.8,31.95 L188.1,51.859 L528.75,51.859 A2.25,2.25 0 0 1 531,54.109 L531,380.25 A2.25,2.25 0 0 1 528.75,382.5 L119.25,382.5 A2.25,2.25 0 0 1 117,380.25 L117,31.95 A2.25,2.25 0 0 1 119.25,29.7 " fill="none" style="stroke:#000000;stroke-width:1.35;"/><line style="stroke:#000000;stroke-width:1.35;" x1="117" x2="188.1" y1="51.859" y2="51.859"/><text fill="#000000" font-family="sans-serif" font-size="12.6" font-weight="bold" lengthAdjust="spacing" textLength="59.4" x="120.6" y="45.0967">actuators</text></g><!--cluster domain--><g id="cluster_domain"><path d="M22.05,399.6 L68.85,399.6 A3.375,3.375 0 0 1 71.1,401.85 L77.4,421.759 L1156.05,421.759 A2.25,2.25 0 0 1 1158.3,424.009 L1158.3,625.05 A2.25,2.25 0 0 1 1156.05,627.3 L22.05,627.3 A2.25,2.25 0 0 1 19.8,625.05 L19.8,401.85 A2.25,2.25 0 0 1 22.05,399.6 " fill="none" style="stroke:#000000;stroke-width:1.35;"/><line style="stroke:#000000;stroke-width:1.35;" x1="19.8" x2="77.4" y1="421.759" y2="421.759"/><text fill="#000000" font-family="sans-serif" font-size="12.6" font-weight="bold" lengthAdjust="spacing" textLength="45.9" x="23.4" y="414.9967">domain</text></g><!--class SetIntegerActuator--><g id="elem_SetIntegerActuator"><rect codeLine="5" fill="#F1F1F1" height="160.5129" id="SetIntegerActuator" rx="2.25" ry="2.25" style="stroke:#181818;stroke-width:0.45;" width="399.6" x="124.2" y="55.8"/><ellipse cx="267.075" cy="70.2" fill="#ADD1B2" rx="9.9" ry="9.9" style="stroke:#181818;stroke-width:0.9;"/><path d="M269.5641,66.4875 Q269.7047,66.2906 269.8734,66.1922 Q270.0422,66.0938 270.2391,66.0938 Q270.5766,66.0938 270.7875,66.3328 Q270.9984,66.5578 270.9984,67.1063 L270.9984,68.4141 Q270.9984,68.9625 270.7875,69.2016 Q270.5766,69.4406 270.2391,69.4406 Q269.9297,69.4406 269.7469,69.2578 Q269.5641,69.0891 269.4656,68.625 Q269.4234,68.3016 269.2547,68.1328 Q268.9594,67.7953 268.4109,67.5984 Q267.8625,67.4016 267.3,67.4016 Q266.6109,67.4016 266.0344,67.6969 Q265.4719,67.9922 265.0219,68.6672 Q264.5859,69.3422 264.5859,70.2703 L264.5859,71.2547 Q264.5859,72.3656 265.3875,73.1109 Q266.1891,73.8422 267.6234,73.8422 Q268.4672,73.8422 269.0578,73.6172 Q269.4094,73.4766 269.7891,73.0828 Q270.0281,72.8438 270.1547,72.7734 Q270.2953,72.7031 270.4781,72.7031 Q270.7734,72.7031 270.9984,72.9422 Q271.2375,73.1672 271.2375,73.4766 Q271.2375,73.7859 270.9281,74.1516 Q270.4781,74.6719 269.7609,74.9672 Q268.7906,75.375 267.6234,75.375 Q266.2594,75.375 265.1766,74.8125 Q264.2906,74.3625 263.6719,73.4063 Q263.0531,72.4359 263.0531,71.2828 L263.0531,70.2422 Q263.0531,69.0469 263.6016,68.0203 Q264.1641,66.9797 265.1484,66.4313 Q266.1328,65.8688 267.2438,65.8688 Q267.9047,65.8688 268.4813,66.0234 Q269.0719,66.1641 269.5641,66.4875 Z " fill="#000000"/><text fill="#000000" font-family="sans-serif" font-size="12.6" lengthAdjust="spacing" textLength="106.2" x="285.525" y="75.4172">SetIntegerActuator</text><line style="stroke:#181818;stroke-width:0.45;" x1="125.1" x2="522.9" y1="84.6" y2="84.6"/><rect fill="none" height="5.4" style="stroke:#C82930;stroke-width:0.9;" width="5.4" x="131.4" y="95.2295"/><text fill="#000000" font-family="sans-serif" font-size="12.6" lengthAdjust="spacing" textLength="166.5" x="142.2" y="101.7967">_actuatorType: ActuatorType</text><rect fill="none" height="5.4" style="stroke:#C82930;stroke-width:0.9;" width="5.4" x="131.4" y="111.9885"/><text fill="#000000" font-family="sans-serif" font-size="12.6" lengthAdjust="spacing" textLength="135.9" x="142.2" y="118.5557">_value: SetIntegerValue</text><rect fill="none" height="5.4" style="stroke:#C82930;stroke-width:0.9;" width="5.4" x="131.4" y="128.7475"/><text fill="#000000" font-family="sans-serif" font-size="12.6" lengthAdjust="spacing" textLength="83.7" x="142.2" y="135.3146">_lowerLimit: int</text><rect fill="none" height="5.4" style="stroke:#C82930;stroke-width:0.9;" width="5.4" x="131.4" y="145.5064"/><text fill="#000000" font-family="sans-serif" font-size="12.6" lengthAdjust="spacing" textLength="87.3" x="142.2" y="152.0736">_upperLimit: int</text><line style="stroke:#181818;stroke-width:0.45;" x1="125.1" x2="522.9" y1="158.8359" y2="158.8359"/><ellipse cx="134.1" cy="172.1654" fill="#84BE84" rx="2.7" ry="2.7" style="stroke:#038048;stroke-width:0.9;"/><text fill="#000000" font-family="sans-serif" font-size="12.6" lengthAdjust="spacing" textLength="280.8" x="142.2" y="176.0326">SetIntegerActuator(CatalogueActuator catalogue)</text><ellipse cx="134.1" cy="188.9244" fill="#84BE84" rx="2.7" ry="2.7" style="stroke:#038048;stroke-width:0.9;"/><text fill="#000000" font-family="sans-serif" font-size="12.6" lengthAdjust="spacing" textLength="187.2" x="142.2" y="192.7916">getActuatorType(): ActuatorType</text><ellipse cx="134.1" cy="205.6834" fill="#84BE84" rx="2.7" ry="2.7" style="stroke:#038048;stroke-width:0.9;"/><text fill="#000000" font-family="sans-serif" font-size="12.6" lengthAdjust="spacing" textLength="376.2" x="142.2" y="209.5506">setValueInRange(int lowerLimit, int upperLimit, Value value): Value</text></g><!--class SetIntegerValue--><g id="elem_SetIntegerValue"><rect codeLine="16" fill="#F1F1F1" height="110.2359" id="SetIntegerValue" rx="2.25" ry="2.25" style="stroke:#181818;stroke-width:0.45;" width="171" x="129.6" y="265.5"/><ellipse cx="166.185" cy="279.9" fill="#ADD1B2" rx="9.9" ry="9.9" style="stroke:#181818;stroke-width:0.9;"/><path d="M168.6741,276.1875 Q168.8147,275.9906 168.9834,275.8922 Q169.1522,275.7938 169.3491,275.7938 Q169.6866,275.7938 169.8975,276.0328 Q170.1084,276.2578 170.1084,276.8063 L170.1084,278.1141 Q170.1084,278.6625 169.8975,278.9016 Q169.6866,279.1406 169.3491,279.1406 Q169.0397,279.1406 168.8569,278.9578 Q168.6741,278.7891 168.5756,278.325 Q168.5334,278.0016 168.3647,277.8328 Q168.0694,277.4953 167.5209,277.2984 Q166.9725,277.1016 166.41,277.1016 Q165.7209,277.1016 165.1444,277.3969 Q164.5819,277.6922 164.1319,278.3672 Q163.6959,279.0422 163.6959,279.9703 L163.6959,280.9547 Q163.6959,282.0656 164.4975,282.8109 Q165.2991,283.5422 166.7334,283.5422 Q167.5772,283.5422 168.1678,283.3172 Q168.5194,283.1766 168.8991,282.7828 Q169.1381,282.5438 169.2647,282.4734 Q169.4053,282.4031 169.5881,282.4031 Q169.8834,282.4031 170.1084,282.6422 Q170.3475,282.8672 170.3475,283.1766 Q170.3475,283.4859 170.0381,283.8516 Q169.5881,284.3719 168.8709,284.6672 Q167.9006,285.075 166.7334,285.075 Q165.3694,285.075 164.2866,284.5125 Q163.4006,284.0625 162.7819,283.1063 Q162.1631,282.1359 162.1631,280.9828 L162.1631,279.9422 Q162.1631,278.7469 162.7116,277.7203 Q163.2741,276.6797 164.2584,276.1313 Q165.2428,275.5688 166.3538,275.5688 Q167.0147,275.5688 167.5913,275.7234 Q168.1819,275.8641 168.6741,276.1875 Z " fill="#000000"/><text fill="#000000" font-family="sans-serif" font-size="12.6" lengthAdjust="spacing" textLength="90.9" x="183.915" y="285.1172">SetIntegerValue</text><line style="stroke:#181818;stroke-width:0.45;" x1="130.5" x2="299.7" y1="294.3" y2="294.3"/><rect fill="none" height="5.4" style="stroke:#C82930;stroke-width:0.9;" width="5.4" x="136.8" y="304.9295"/><text fill="#000000" font-family="sans-serif" font-size="12.6" lengthAdjust="spacing" textLength="62.1" x="147.6" y="311.4967">_value : int</text><line style="stroke:#181818;stroke-width:0.45;" x1="130.5" x2="299.7" y1="318.259" y2="318.259"/><ellipse cx="139.5" cy="331.5885" fill="#84BE84" rx="2.7" ry="2.7" style="stroke:#038048;stroke-width:0.9;"/><text fill="#000000" font-family="sans-serif" font-size="12.6" lengthAdjust="spacing" textLength="147.6" x="147.6" y="335.4557">SetIntegerValue(int value)</text><ellipse cx="139.5" cy="348.3475" fill="#84BE84" rx="2.7" ry="2.7" style="stroke:#038048;stroke-width:0.9;"/><text fill="#000000" font-family="sans-serif" font-size="12.6" lengthAdjust="spacing" textLength="141.3" x="147.6" y="352.2146">clone() : SetIntegerValue</text><ellipse cx="139.5" cy="365.1064" fill="#84BE84" rx="2.7" ry="2.7" style="stroke:#038048;stroke-width:0.9;"/><text fill="#000000" font-family="sans-serif" font-size="12.6" lengthAdjust="spacing" textLength="97.2" x="147.6" y="368.9736">toString() : String</text></g><!--class Actuator--><g id="elem_Actuator"><rect codeLine="27" fill="#F1F1F1" height="59.959" id="Actuator" rx="2.25" ry="2.25" style="stroke:#181818;stroke-width:0.45;" width="210.6" x="104.4" y="492.75"/><ellipse cx="182.025" cy="507.15" fill="#B4A7E5" rx="9.9" ry="9.9" style="stroke:#181818;stroke-width:0.9;"/><path d="M182.8828,504.1266 L182.8828,510.1172 L184.4297,510.1172 Q184.9781,510.1172 185.2172,510.3281 Q185.4563,510.5391 185.4563,510.8906 Q185.4563,511.2281 185.2172,511.4391 Q184.9781,511.65 184.4297,511.65 L179.8031,511.65 Q179.2547,511.65 179.0156,511.4391 Q178.7766,511.2281 178.7766,510.8766 Q178.7766,510.5391 179.0156,510.3281 Q179.2547,510.1172 179.8031,510.1172 L181.35,510.1172 L181.35,504.1266 L179.8031,504.1266 Q179.2547,504.1266 179.0156,503.9156 Q178.7766,503.7047 178.7766,503.3531 Q178.7766,503.0156 179.0156,502.8047 Q179.2547,502.5938 179.8031,502.5938 L184.4297,502.5938 Q184.9781,502.5938 185.2172,502.8047 Q185.4563,503.0156 185.4563,503.3531 Q185.4563,503.7047 185.2172,503.9156 Q184.9781,504.1266 184.4297,504.1266 L182.8828,504.1266 Z " fill="#000000"/><text fill="#000000" font-family="sans-serif" font-size="12.6" font-style="italic" lengthAdjust="spacing" textLength="47.7" x="200.475" y="512.3672">Actuator</text><line style="stroke:#181818;stroke-width:0.45;" x1="105.3" x2="314.1" y1="521.55" y2="521.55"/><line style="stroke:#181818;stroke-width:0.45;" x1="105.3" x2="314.1" y1="528.75" y2="528.75"/><ellipse cx="114.3" cy="542.0795" fill="#84BE84" rx="2.7" ry="2.7" style="stroke:#038048;stroke-width:0.9;"/><text fill="#000000" font-family="sans-serif" font-size="12.6" lengthAdjust="spacing" textLength="187.2" x="122.4" y="545.9467">getActuatorType(): ActuatorType</text></g><!--class Value--><g id="elem_Value"><rect codeLine="31" fill="#F1F1F1" height="43.2" id="Value" rx="2.25" ry="2.25" style="stroke:#181818;stroke-width:0.45;" width="61.2" x="27" y="501.3"/><ellipse cx="40.5" cy="515.7" fill="#B4A7E5" rx="9.9" ry="9.9" style="stroke:#181818;stroke-width:0.9;"/><path d="M41.3578,512.6766 L41.3578,518.6672 L42.9047,518.6672 Q43.4531,518.6672 43.6922,518.8781 Q43.9313,519.0891 43.9313,519.4406 Q43.9313,519.7781 43.6922,519.9891 Q43.4531,520.2 42.9047,520.2 L38.2781,520.2 Q37.7297,520.2 37.4906,519.9891 Q37.2516,519.7781 37.2516,519.4266 Q37.2516,519.0891 37.4906,518.8781 Q37.7297,518.6672 38.2781,518.6672 L39.825,518.6672 L39.825,512.6766 L38.2781,512.6766 Q37.7297,512.6766 37.4906,512.4656 Q37.2516,512.2547 37.2516,511.9031 Q37.2516,511.5656 37.4906,511.3547 Q37.7297,511.1438 38.2781,511.1438 L42.9047,511.1438 Q43.4531,511.1438 43.6922,511.3547 Q43.9313,511.5656 43.9313,511.9031 Q43.9313,512.2547 43.6922,512.4656 Q43.4531,512.6766 42.9047,512.6766 L41.3578,512.6766 Z " fill="#000000"/><text fill="#000000" font-family="sans-serif" font-size="12.6" font-style="italic" lengthAdjust="spacing" textLength="32.4" x="53.1" y="520.9172">Value</text><line style="stroke:#181818;stroke-width:0.45;" x1="27.9" x2="87.3" y1="530.1" y2="530.1"/><line style="stroke:#181818;stroke-width:0.45;" x1="27.9" x2="87.3" y1="537.3" y2="537.3"/></g><!--class ActuatorType--><g id="elem_ActuatorType"><rect codeLine="34" fill="#F1F1F1" height="93.477" id="ActuatorType" rx="2.25" ry="2.25" style="stroke:#181818;stroke-width:0.45;" width="224.1" x="331.65" y="476.1"/><ellipse cx="401.625" cy="490.5" fill="#ADD1B2" rx="9.9" ry="9.9" style="stroke:#181818;stroke-width:0.9;"/><path d="M404.1141,486.7875 Q404.2547,486.5906 404.4234,486.4922 Q404.5922,486.3938 404.7891,486.3938 Q405.1266,486.3938 405.3375,486.6328 Q405.5484,486.8578 405.5484,487.4063 L405.5484,488.7141 Q405.5484,489.2625 405.3375,489.5016 Q405.1266,489.7406 404.7891,489.7406 Q404.4797,489.7406 404.2969,489.5578 Q404.1141,489.3891 404.0156,488.925 Q403.9734,488.6016 403.8047,488.4328 Q403.5094,488.0953 402.9609,487.8984 Q402.4125,487.7016 401.85,487.7016 Q401.1609,487.7016 400.5844,487.9969 Q400.0219,488.2922 399.5719,488.9672 Q399.1359,489.6422 399.1359,490.5703 L399.1359,491.5547 Q399.1359,492.6656 399.9375,493.4109 Q400.7391,494.1422 402.1734,494.1422 Q403.0172,494.1422 403.6078,493.9172 Q403.9594,493.7766 404.3391,493.3828 Q404.5781,493.1438 404.7047,493.0734 Q404.8453,493.0031 405.0281,493.0031 Q405.3234,493.0031 405.5484,493.2422 Q405.7875,493.4672 405.7875,493.7766 Q405.7875,494.0859 405.4781,494.4516 Q405.0281,494.9719 404.3109,495.2672 Q403.3406,495.675 402.1734,495.675 Q400.8094,495.675 399.7266,495.1125 Q398.8406,494.6625 398.2219,493.7063 Q397.6031,492.7359 397.6031,491.5828 L397.6031,490.5422 Q397.6031,489.3469 398.1516,488.3203 Q398.7141,487.2797 399.6984,486.7313 Q400.6828,486.1688 401.7938,486.1688 Q402.4547,486.1688 403.0313,486.3234 Q403.6219,486.4641 404.1141,486.7875 Z " fill="#000000"/><text fill="#000000" font-family="sans-serif" font-size="12.6" lengthAdjust="spacing" textLength="76.5" x="420.075" y="495.7172">ActuatorType</text><line style="stroke:#181818;stroke-width:0.45;" x1="332.55" x2="554.85" y1="504.9" y2="504.9"/><rect fill="none" height="5.4" style="stroke:#C82930;stroke-width:0.9;" width="5.4" x="338.85" y="515.5295"/><text fill="#000000" font-family="sans-serif" font-size="12.6" lengthAdjust="spacing" textLength="109.8" x="349.65" y="522.0967">_description: String</text><line style="stroke:#181818;stroke-width:0.45;" x1="332.55" x2="554.85" y1="528.859" y2="528.859"/><polygon fill="#FFFF44" points="341.55,537.6885,345.15,541.2885,341.55,544.8885,337.95,541.2885" style="stroke:#B38D22;stroke-width:0.9;"/><text fill="#000000" font-family="sans-serif" font-size="12.6" lengthAdjust="spacing" textLength="200.7" x="349.65" y="546.0557">ActuatorType(String strDescription)</text><ellipse cx="341.55" cy="558.9475" fill="#84BE84" rx="2.7" ry="2.7" style="stroke:#038048;stroke-width:0.9;"/><text fill="#000000" font-family="sans-serif" font-size="12.6" lengthAdjust="spacing" textLength="135" x="349.65" y="562.8146">getDescription() : String</text></g><!--class CatalogueActuator--><g id="elem_CatalogueActuator"><rect codeLine="40" fill="#F1F1F1" height="194.0309" id="CatalogueActuator" rx="2.25" ry="2.25" style="stroke:#181818;stroke-width:0.45;" width="578.7" x="571.95" y="425.7"/><ellipse cx="804.375" cy="440.1" fill="#ADD1B2" rx="9.9" ry="9.9" style="stroke:#181818;stroke-width:0.9;"/><path d="M806.8641,436.3875 Q807.0047,436.1906 807.1734,436.0922 Q807.3422,435.9938 807.5391,435.9938 Q807.8766,435.9938 808.0875,436.2328 Q808.2984,436.4578 808.2984,437.0063 L808.2984,438.3141 Q808.2984,438.8625 808.0875,439.1016 Q807.8766,439.3406 807.5391,439.3406 Q807.2297,439.3406 807.0469,439.1578 Q806.8641,438.9891 806.7656,438.525 Q806.7234,438.2016 806.5547,438.0328 Q806.2594,437.6953 805.7109,437.4984 Q805.1625,437.3016 804.6,437.3016 Q803.9109,437.3016 803.3344,437.5969 Q802.7719,437.8922 802.3219,438.5672 Q801.8859,439.2422 801.8859,440.1703 L801.8859,441.1547 Q801.8859,442.2656 802.6875,443.0109 Q803.4891,443.7422 804.9234,443.7422 Q805.7672,443.7422 806.3578,443.5172 Q806.7094,443.3766 807.0891,442.9828 Q807.3281,442.7438 807.4547,442.6734 Q807.5953,442.6031 807.7781,442.6031 Q808.0734,442.6031 808.2984,442.8422 Q808.5375,443.0672 808.5375,443.3766 Q808.5375,443.6859 808.2281,444.0516 Q807.7781,444.5719 807.0609,444.8672 Q806.0906,445.275 804.9234,445.275 Q803.5594,445.275 802.4766,444.7125 Q801.5906,444.2625 800.9719,443.3063 Q800.3531,442.3359 800.3531,441.1828 L800.3531,440.1422 Q800.3531,438.9469 800.9016,437.9203 Q801.4641,436.8797 802.4484,436.3313 Q803.4328,435.7688 804.5438,435.7688 Q805.2047,435.7688 805.7813,435.9234 Q806.3719,436.0641 806.8641,436.3875 Z " fill="#000000"/><text fill="#000000" font-family="sans-serif" font-size="12.6" lengthAdjust="spacing" textLength="106.2" x="822.825" y="445.3172">CatalogueActuator</text><line style="stroke:#181818;stroke-width:0.45;" x1="572.85" x2="1149.75" y1="454.5" y2="454.5"/><rect fill="none" height="5.4" style="stroke:#C82930;stroke-width:0.9;" width="5.4" x="579.15" y="465.1295"/><text fill="#000000" font-family="sans-serif" font-size="12.6" lengthAdjust="spacing" textLength="223.2" x="589.95" y="471.6967">_listActuatorTypes: List&lt;ActuatorType&gt;</text><rect fill="none" height="5.4" style="stroke:#C82930;stroke-width:0.9;" width="5.4" x="579.15" y="481.8885"/><text fill="#000000" font-family="sans-serif" font-size="12.6" lengthAdjust="spacing" textLength="226.8" x="589.95" y="488.4557">_listStringClassesActuator : List&lt;String&gt;</text><line style="stroke:#181818;stroke-width:0.45;" x1="572.85" x2="1149.75" y1="495.218" y2="495.218"/><ellipse cx="581.85" cy="508.5475" fill="#84BE84" rx="2.7" ry="2.7" style="stroke:#038048;stroke-width:0.9;"/><text fill="#000000" font-family="sans-serif" font-size="12.6" lengthAdjust="spacing" textLength="225.9" x="589.95" y="512.4146">CatalogueActuator(String filePathname)</text><ellipse cx="581.85" cy="525.3064" fill="#84BE84" rx="2.7" ry="2.7" style="stroke:#038048;stroke-width:0.9;"/><text fill="#000000" font-family="sans-serif" font-size="12.6" lengthAdjust="spacing" textLength="555.3" x="589.95" y="529.1736">addActuatorType(String strDescription, ActuatorTypeFactory actuatorTypeFactory): ActuatorType</text><ellipse cx="581.85" cy="542.0654" fill="#84BE84" rx="2.7" ry="2.7" style="stroke:#038048;stroke-width:0.9;"/><text fill="#000000" font-family="sans-serif" font-size="12.6" lengthAdjust="spacing" textLength="381.6" x="589.95" y="545.9326">addActuatorTypeToList(ActuatorType actuatorType): ActuatorType</text><ellipse cx="581.85" cy="558.8244" fill="#84BE84" rx="2.7" ry="2.7" style="stroke:#038048;stroke-width:0.9;"/><text fill="#000000" font-family="sans-serif" font-size="12.6" lengthAdjust="spacing" textLength="227.7" x="589.95" y="562.6916">getActuatorTypes(): List&lt;ActuatorType&gt;</text><ellipse cx="581.85" cy="575.5834" fill="#84BE84" rx="2.7" ry="2.7" style="stroke:#038048;stroke-width:0.9;"/><text fill="#000000" font-family="sans-serif" font-size="12.6" lengthAdjust="spacing" textLength="302.4" x="589.95" y="579.4506">getActuatorType(String strDescription): ActuatorType</text><ellipse cx="581.85" cy="592.3424" fill="#84BE84" rx="2.7" ry="2.7" style="stroke:#038048;stroke-width:0.9;"/><text fill="#000000" font-family="sans-serif" font-size="12.6" lengthAdjust="spacing" textLength="189.9" x="589.95" y="596.2096">getActuatorModels(): List&lt;String&gt;</text><ellipse cx="581.85" cy="609.1014" fill="#84BE84" rx="2.7" ry="2.7" style="stroke:#038048;stroke-width:0.9;"/><text fill="#000000" font-family="sans-serif" font-size="12.6" lengthAdjust="spacing" textLength="406.8" x="589.95" y="612.9686">getActuator(String strModel, ActuatorFactory actuatorFactory): Actuator</text></g><polygon fill="none" points="237.9944,492.7101,252.8061,484.2123,244.7451,477.0248,237.9944,492.7101" style="stroke:#181818;stroke-width:0.9;"/><path d="M329.9332,216.1746 C330.9909,265.4054 327.5329,329.2076 308.7,382.5 C293.6593,425.0612 272.3593,454.1686 248.7756,480.6186 " fill="none" style="stroke:#181818;stroke-width:0.9;stroke-dasharray:7.0,7.0;"/><polygon fill="#181818" points="429.3923,475.9573,430.4265,467.1538,428.057,471.66,423.5508,469.2904,429.3923,475.9573" style="stroke:#181818;stroke-width:0.9;"/><path d="M348.6568,216.1466 C373.0209,294.5516 407.8508,406.6356 427.7899,470.8005 " fill="none" style="stroke:#181818;stroke-width:0.9;"/><text fill="#000000" font-family="sans-serif" font-size="11.7" lengthAdjust="spacing" textLength="31.5" x="400.5" y="325.3755">&#171;has&#187;</text><text fill="#000000" font-family="sans-serif" font-size="11.7" lengthAdjust="spacing" textLength="6.3" x="422.1923" y="472.3828">1</text><text fill="#000000" font-family="sans-serif" font-size="11.7" lengthAdjust="spacing" textLength="6.3" x="341.4568" y="229.6721">1</text><polygon fill="#181818" points="247.3014,265.4761,254.541,260.3616,249.6054,261.6107,248.3563,256.6752,247.3014,265.4761" style="stroke:#181818;stroke-width:0.9;"/><path d="M276.71,216.1378 C266.7797,232.7977 259.2909,245.3615 250.0662,260.8376 " fill="none" style="stroke:#181818;stroke-width:0.9;"/><text fill="#000000" font-family="sans-serif" font-size="11.7" lengthAdjust="spacing" textLength="31.5" x="266.4" y="245.7255">&#171;has&#187;</text><text fill="#000000" font-family="sans-serif" font-size="11.7" lengthAdjust="spacing" textLength="6.3" x="240.1014" y="261.9016">1</text><text fill="#000000" font-family="sans-serif" font-size="11.7" lengthAdjust="spacing" textLength="6.3" x="269.51" y="229.6633">1</text><polygon fill="none" points="59.9006,500.9915,67.5595,485.729,56.8703,484.1862,59.9006,500.9915" style="stroke:#181818;stroke-width:0.9;"/><path d="M129.4358,367.2259 C117.0739,376.6644 105.4592,387.48 96.3,399.6 C73.1884,430.1827 65.9775,458.8894 62.2149,484.9576 " fill="none" style="stroke:#181818;stroke-width:0.9;stroke-dasharray:7.0,7.0;"/><text fill="#000000" font-family="sans-serif" font-size="11.7" lengthAdjust="spacing" textLength="6.3" x="122.2358" y="363.6514">1</text><polygon fill="#181818" points="726.7331,425.5266,722.2476,417.8813,723.0758,422.9046,718.0525,423.7329,726.7331,425.5266" style="stroke:#181818;stroke-width:0.9;"/><path d="M434.6774,216.1466 C519.3884,276.8775 632.2115,357.7623 722.3444,422.3802 " fill="none" style="stroke:#181818;stroke-width:0.9;stroke-dasharray:7.0,7.0;"/><text fill="#000000" font-family="sans-serif" font-size="11.7" lengthAdjust="spacing" textLength="37.8" x="666" y="325.3755">&#171;uses&#187;</text><text fill="#000000" font-family="sans-serif" font-size="11.7" lengthAdjust="spacing" textLength="6.3" x="719.5331" y="421.9521">1</text><!--SRC=[fLHDYzim4BtdLqot5oz93Bs6O5Ysb2vieJJBNijWptf5PSb8SalOvhzNblmXHmeRQ2v9vkFDcpSp-j0gh1i4ZaVP6T0D6HIuMhLO_iAQuD2WCbzbGpcMfaCZbOQtrGgWvAWr7CWy24CrgRl1RRrWFrluEIOy7LlQmLtmRupuZRophXdakJUCNYx_a7fa3JCxOCACvgvj8_CwGIIxHuDSrXrDrChHSZjarMH2NjbjWkSQD1b7x47yG55JPgl2J6xJiu2PrGPSCBZcBA3loKATKhBvsBU58f1kp8MwuXvw22Yv59Ovf7LSWv47evYeVOZxwScSKbEkP8DC-17RKgHUi2Gu6-wrufsMA7ElWHHXogn3HRfKh3LCYe0qmCT5VEOze8twF2S4mmsiKVj3_NXB9XASwKM7UWUFrhGFRKKOxE7lUrpI4zwGvPt5G2ugE_RomZXzH_Cgi9b6Z5NrVjkRXJHVxFL9TGICRUabFwln97lIsM8w8LOQv6mbTByJ5oIBzoSzpFVgV9CLyRdGKkKWBe1tARDSvrB5Clc5wGycyHpcYJSmp_yM45rLFk5T2NFpwGQssy9zNmHpezd1Vl-AkYZ-3pgLyZmyITSLyD4zgjCWOkrVfgjblD1xVBGzlyvUdINu3m00]--></g></svg>