<?xml version="1.0" encoding="us-ascii" standalone="no"?><svg xmlns="http://www.w3.org/2000/svg" xmlns:xlink="http://www.w3.org/1999/xlink" contentStyleType="text/css" height="285px" preserveAspectRatio="none" style="width:346px;height:285px;background:#FFFFFF;" version="1.1" viewBox="0 0 346 285" width="346px" zoomAndPan="magnify"><defs/><g><rect fill="#DDDDDD" height="273.9395" style="stroke:#181818;stroke-width:0.5;" width="271" x="69.5" y="6"/><text fill="#000000" font-family="sans-serif" font-size="13" font-weight="bold" lengthAdjust="spacing" textLength="181" x="114.5" y="20.0283">"Backend" &#171;Container (C4)&#187;"</text><rect fill="#FFFFFF" height="93.873" style="stroke:#181818;stroke-width:1.0;" width="10" x="129" y="112.8242"/><rect fill="#FFFFFF" height="31.291" style="stroke:#181818;stroke-width:1.0;" width="10" x="271" y="144.1152"/><line style="stroke:#181818;stroke-width:0.5;stroke-dasharray:5.0,5.0;" x1="14" x2="14" y1="79.5332" y2="224.6973"/><line style="stroke:#181818;stroke-width:0.5;stroke-dasharray:5.0,5.0;" x1="133.5" x2="133.5" y1="79.5332" y2="224.6973"/><line style="stroke:#181818;stroke-width:0.5;stroke-dasharray:5.0,5.0;" x1="275.5" x2="275.5" y1="79.5332" y2="224.6973"/><rect fill="#E2E2F0" height="32.6211" rx="2.5" ry="2.5" style="stroke:#181818;stroke-width:0.5;" width="18" x="5" y="45.9121"/><text fill="#000000" font-family="sans-serif" font-size="14" lengthAdjust="spacing" textLength="4" x="12" y="68.0195">&#160;</text><rect fill="#E2E2F0" height="32.6211" rx="2.5" ry="2.5" style="stroke:#181818;stroke-width:0.5;" width="18" x="5" y="223.6973"/><text fill="#000000" font-family="sans-serif" font-size="14" lengthAdjust="spacing" textLength="4" x="12" y="245.8047">&#160;</text><rect fill="#E2E2F0" height="51.2422" rx="2.5" ry="2.5" style="stroke:#181818;stroke-width:0.5;" width="121" x="73.5" y="27.291"/><text fill="#000000" font-family="sans-serif" font-size="14" font-style="italic" lengthAdjust="spacing" textLength="107" x="80.5" y="49.3984">&#171;container (C4)&#187;</text><text fill="#000000" font-family="sans-serif" font-size="14" lengthAdjust="spacing" textLength="42" x="113" y="68.0195">Server</text><rect fill="#E2E2F0" height="51.2422" rx="2.5" ry="2.5" style="stroke:#181818;stroke-width:0.5;" width="121" x="73.5" y="223.6973"/><text fill="#000000" font-family="sans-serif" font-size="14" font-style="italic" lengthAdjust="spacing" textLength="107" x="80.5" y="245.8047">&#171;container (C4)&#187;</text><text fill="#000000" font-family="sans-serif" font-size="14" lengthAdjust="spacing" textLength="42" x="113" y="264.4258">Server</text><rect fill="#E2E2F0" height="51.2422" rx="2.5" ry="2.5" style="stroke:#181818;stroke-width:0.5;" width="121" x="215.5" y="27.291"/><text fill="#000000" font-family="sans-serif" font-size="14" font-style="italic" lengthAdjust="spacing" textLength="107" x="222.5" y="49.3984">&#171;container (C4)&#187;</text><text fill="#000000" font-family="sans-serif" font-size="14" lengthAdjust="spacing" textLength="61" x="245.5" y="68.0195">Database</text><rect fill="#E2E2F0" height="51.2422" rx="2.5" ry="2.5" style="stroke:#181818;stroke-width:0.5;" width="121" x="215.5" y="223.6973"/><text fill="#000000" font-family="sans-serif" font-size="14" font-style="italic" lengthAdjust="spacing" textLength="107" x="222.5" y="245.8047">&#171;container (C4)&#187;</text><text fill="#000000" font-family="sans-serif" font-size="14" lengthAdjust="spacing" textLength="61" x="245.5" y="264.4258">Database</text><rect fill="#FFFFFF" height="93.873" style="stroke:#181818;stroke-width:1.0;" width="10" x="129" y="112.8242"/><rect fill="#FFFFFF" height="31.291" style="stroke:#181818;stroke-width:1.0;" width="10" x="271" y="144.1152"/><ellipse cx="13.5" cy="112.0742" fill="none" rx="4" ry="4" style="stroke:#181818;stroke-width:1.5;"/><polygon fill="#181818" points="117,108.8242,127,112.8242,117,116.8242,121,112.8242" style="stroke:#181818;stroke-width:1.0;"/><line style="stroke:#181818;stroke-width:1.0;" x1="18" x2="123" y1="112.8242" y2="112.8242"/><text fill="#000000" font-family="sans-serif" font-size="13" font-weight="bold" lengthAdjust="spacing" textLength="7" x="21" y="107.5615">1</text><text fill="#000000" font-family="sans-serif" font-size="13" lengthAdjust="spacing" textLength="85" x="32" y="107.5615">POST /houses</text><polygon fill="#181818" points="259,140.1152,269,144.1152,259,148.1152,263,144.1152" style="stroke:#181818;stroke-width:1.0;"/><line style="stroke:#181818;stroke-width:1.0;" x1="139" x2="265" y1="144.1152" y2="144.1152"/><text fill="#000000" font-family="sans-serif" font-size="13" font-weight="bold" lengthAdjust="spacing" textLength="7" x="146" y="138.8525">2</text><text fill="#000000" font-family="sans-serif" font-size="13" lengthAdjust="spacing" textLength="26" x="157" y="138.8525">save</text><polygon fill="#181818" points="150,171.4063,140,175.4063,150,179.4063,146,175.4063" style="stroke:#181818;stroke-width:1.0;"/><line style="stroke:#181818;stroke-width:1.0;stroke-dasharray:2.0,2.0;" x1="144" x2="275" y1="175.4063" y2="175.4063"/><text fill="#000000" font-family="sans-serif" font-size="13" font-weight="bold" lengthAdjust="spacing" textLength="7" x="156" y="170.1436">3</text><text fill="#000000" font-family="sans-serif" font-size="13" lengthAdjust="spacing" textLength="97" x="167" y="170.1436">houseDataModel</text><ellipse cx="13.5" cy="205.9473" fill="none" rx="4" ry="4" style="stroke:#181818;stroke-width:1.5;"/><polygon fill="#181818" points="30.5,202.6973,20.5,206.6973,30.5,210.6973,26.5,206.6973" style="stroke:#181818;stroke-width:1.0;"/><line style="stroke:#181818;stroke-width:1.0;stroke-dasharray:2.0,2.0;" x1="28.5" x2="133" y1="206.6973" y2="206.6973"/><text fill="#000000" font-family="sans-serif" font-size="13" font-weight="bold" lengthAdjust="spacing" textLength="7" x="31" y="201.4346">4</text><text fill="#000000" font-family="sans-serif" font-size="13" lengthAdjust="spacing" textLength="59" x="42" y="201.4346">JSON 201</text><!--SRC=[RP3DJiCm48Jl-nHBBi0X112dAieX3LA51AsKlC36MRLHOplrJmHlpoO8qGBsoPxvPaTxVGXXzAii6mSo8UhXJbcTUJv5DehJhgUz8mrNewEz9XpemyQ0NdCWGm0KWpLHj-m0HdAXL_qeEPZ89O-Rfja1jFOTavBKaKsNO9wlhGdK6tPuitwwBOe4KCu5NhERs2qPzNEUgr_4Nw2YG2rvNf2g_0UHuIXD061kXJOj91fNkDlM3MO76prx81NwYGAB122ocAfIJ9uc_X6h4a2-q- -81PuRlDgE1-Zumhdaf8LTjY7kbthxXe_t3-U-UTpPysjldm00]--></g></svg>