<?xml version="1.0" encoding="us-ascii" standalone="no"?><svg xmlns="http://www.w3.org/2000/svg" xmlns:xlink="http://www.w3.org/1999/xlink" contentStyleType="text/css" height="285px" preserveAspectRatio="none" style="width:599px;height:285px;background:#FFFFFF;" version="1.1" viewBox="0 0 599 285" width="599px" zoomAndPan="magnify"><defs/><g><rect fill="#DDDDDD" height="273.9395" style="stroke:#181818;stroke-width:0.5;" width="384" x="209.5" y="6"/><text fill="#000000" font-family="sans-serif" font-size="13" font-weight="bold" lengthAdjust="spacing" textLength="181" x="311" y="20.0283">"Backend" &#171;Container (C4)&#187;"</text><rect fill="#FFFFFF" height="93.873" style="stroke:#181818;stroke-width:1.0;" width="10" x="269" y="112.8242"/><rect fill="#FFFFFF" height="31.291" style="stroke:#181818;stroke-width:1.0;" width="10" x="524" y="144.1152"/><line style="stroke:#181818;stroke-width:0.5;stroke-dasharray:5.0,5.0;" x1="14" x2="14" y1="79.5332" y2="224.6973"/><line style="stroke:#181818;stroke-width:0.5;stroke-dasharray:5.0,5.0;" x1="273.5" x2="273.5" y1="79.5332" y2="224.6973"/><line style="stroke:#181818;stroke-width:0.5;stroke-dasharray:5.0,5.0;" x1="528.5" x2="528.5" y1="79.5332" y2="224.6973"/><rect fill="#E2E2F0" height="32.6211" rx="2.5" ry="2.5" style="stroke:#181818;stroke-width:0.5;" width="18" x="5" y="45.9121"/><text fill="#000000" font-family="sans-serif" font-size="14" lengthAdjust="spacing" textLength="4" x="12" y="68.0195">&#160;</text><rect fill="#E2E2F0" height="32.6211" rx="2.5" ry="2.5" style="stroke:#181818;stroke-width:0.5;" width="18" x="5" y="223.6973"/><text fill="#000000" font-family="sans-serif" font-size="14" lengthAdjust="spacing" textLength="4" x="12" y="245.8047">&#160;</text><rect fill="#E2E2F0" height="51.2422" rx="2.5" ry="2.5" style="stroke:#181818;stroke-width:0.5;" width="121" x="213.5" y="27.291"/><text fill="#000000" font-family="sans-serif" font-size="14" font-style="italic" lengthAdjust="spacing" textLength="107" x="220.5" y="49.3984">&#171;container (C4)&#187;</text><text fill="#000000" font-family="sans-serif" font-size="14" lengthAdjust="spacing" textLength="42" x="253" y="68.0195">Server</text><rect fill="#E2E2F0" height="51.2422" rx="2.5" ry="2.5" style="stroke:#181818;stroke-width:0.5;" width="121" x="213.5" y="223.6973"/><text fill="#000000" font-family="sans-serif" font-size="14" font-style="italic" lengthAdjust="spacing" textLength="107" x="220.5" y="245.8047">&#171;container (C4)&#187;</text><text fill="#000000" font-family="sans-serif" font-size="14" lengthAdjust="spacing" textLength="42" x="253" y="264.4258">Server</text><rect fill="#E2E2F0" height="51.2422" rx="2.5" ry="2.5" style="stroke:#181818;stroke-width:0.5;" width="121" x="468.5" y="27.291"/><text fill="#000000" font-family="sans-serif" font-size="14" font-style="italic" lengthAdjust="spacing" textLength="107" x="475.5" y="49.3984">&#171;container (C4)&#187;</text><text fill="#000000" font-family="sans-serif" font-size="14" lengthAdjust="spacing" textLength="61" x="498.5" y="68.0195">Database</text><rect fill="#E2E2F0" height="51.2422" rx="2.5" ry="2.5" style="stroke:#181818;stroke-width:0.5;" width="121" x="468.5" y="223.6973"/><text fill="#000000" font-family="sans-serif" font-size="14" font-style="italic" lengthAdjust="spacing" textLength="107" x="475.5" y="245.8047">&#171;container (C4)&#187;</text><text fill="#000000" font-family="sans-serif" font-size="14" lengthAdjust="spacing" textLength="61" x="498.5" y="264.4258">Database</text><rect fill="#FFFFFF" height="93.873" style="stroke:#181818;stroke-width:1.0;" width="10" x="269" y="112.8242"/><rect fill="#FFFFFF" height="31.291" style="stroke:#181818;stroke-width:1.0;" width="10" x="524" y="144.1152"/><ellipse cx="13.5" cy="112.0742" fill="none" rx="4" ry="4" style="stroke:#181818;stroke-width:1.5;"/><polygon fill="#181818" points="257,108.8242,267,112.8242,257,116.8242,261,112.8242" style="stroke:#181818;stroke-width:1.0;"/><line style="stroke:#181818;stroke-width:1.0;" x1="18" x2="263" y1="112.8242" y2="112.8242"/><text fill="#000000" font-family="sans-serif" font-size="13" font-weight="bold" lengthAdjust="spacing" textLength="7" x="21" y="107.5615">1</text><text fill="#000000" font-family="sans-serif" font-size="13" lengthAdjust="spacing" textLength="225" x="32" y="107.5615">GET /logs by device ID and time period</text><polygon fill="#181818" points="512,140.1152,522,144.1152,512,148.1152,516,144.1152" style="stroke:#181818;stroke-width:1.0;"/><line style="stroke:#181818;stroke-width:1.0;" x1="279" x2="518" y1="144.1152" y2="144.1152"/><text fill="#000000" font-family="sans-serif" font-size="13" font-weight="bold" lengthAdjust="spacing" textLength="7" x="286" y="138.8525">2</text><text fill="#000000" font-family="sans-serif" font-size="13" lengthAdjust="spacing" textLength="215" x="297" y="138.8525">find logs by device ID and time period</text><polygon fill="#181818" points="290,171.4063,280,175.4063,290,179.4063,286,175.4063" style="stroke:#181818;stroke-width:1.0;"/><line style="stroke:#181818;stroke-width:1.0;stroke-dasharray:2.0,2.0;" x1="284" x2="528" y1="175.4063" y2="175.4063"/><text fill="#000000" font-family="sans-serif" font-size="13" font-weight="bold" lengthAdjust="spacing" textLength="7" x="296" y="170.1436">3</text><text fill="#000000" font-family="sans-serif" font-size="13" lengthAdjust="spacing" textLength="86" x="307" y="170.1436">logsDataModel</text><ellipse cx="13.5" cy="205.9473" fill="none" rx="4" ry="4" style="stroke:#181818;stroke-width:1.5;"/><polygon fill="#181818" points="30.5,202.6973,20.5,206.6973,30.5,210.6973,26.5,206.6973" style="stroke:#181818;stroke-width:1.0;"/><line style="stroke:#181818;stroke-width:1.0;stroke-dasharray:2.0,2.0;" x1="28.5" x2="273" y1="206.6973" y2="206.6973"/><text fill="#000000" font-family="sans-serif" font-size="13" font-weight="bold" lengthAdjust="spacing" textLength="7" x="31" y="201.4346">4</text><text fill="#000000" font-family="sans-serif" font-size="13" lengthAdjust="spacing" textLength="59" x="42" y="201.4346">JSON 200</text><!--SRC=[bT3BJiCm40NG_Np5a0sm2AaGgohA8at5G-8XfJymiOTW4Tl1SIBwzqo2a5he1djbwPwPAv-_nTWFwophEt9njDsLyZOR-6DafpZLXjf05ixwGAqbx6ZlnuY3vKYE06YCtessuG3GKuX6cLxcO2AN1hpRxLu06l-9IKdgdPrECCyttaKoZWDUR6ukYo81b7F4QmuJXsL6lSrpzKly1HL5QcZWXLJb2IBBKPe0mDmAVLh8Q5pZxNQ7MUVR0PizQfwCOhola2GUZMNiEHYlWLGq4qKM121GU5KAVpKI_0UlIW21wS_wcSxb7xtc3ZGV1PT5QU6NZvJmG_tyXDUhrM5kxdFm_FxoBm00]--></g></svg>