<?xml version="1.0" encoding="us-ascii" standalone="no"?><svg xmlns="http://www.w3.org/2000/svg" xmlns:xlink="http://www.w3.org/1999/xlink" contentStyleType="text/css" height="473px" preserveAspectRatio="none" style="width:859px;height:473px;background:#FFFFFF;" version="1.1" viewBox="0 0 859 473" width="859px" zoomAndPan="magnify"><defs/><g><rect fill="#DDDDDD" height="461.6855" style="stroke:#181818;stroke-width:0.5;" width="598" x="255.5" y="6"/><text fill="#000000" font-family="sans-serif" font-size="13" font-weight="bold" lengthAdjust="spacing" textLength="181" x="464" y="20.0283">"Backend" &#171;Container (C4)&#187;"</text><rect fill="#FFFFFF" height="281.6191" style="stroke:#181818;stroke-width:1.0;" width="10" x="315" y="112.8242"/><rect fill="#FFFFFF" height="31.291" style="stroke:#181818;stroke-width:1.0;" width="10" x="784" y="144.1152"/><rect fill="#FFFFFF" height="31.291" style="stroke:#181818;stroke-width:1.0;" width="10" x="784" y="206.6973"/><rect fill="#FFFFFF" height="31.291" style="stroke:#181818;stroke-width:1.0;" width="10" x="784" y="269.2793"/><rect fill="#FFFFFF" height="31.291" style="stroke:#181818;stroke-width:1.0;" width="10" x="784" y="331.8613"/><line style="stroke:#181818;stroke-width:0.5;stroke-dasharray:5.0,5.0;" x1="14" x2="14" y1="79.5332" y2="412.4434"/><line style="stroke:#181818;stroke-width:0.5;stroke-dasharray:5.0,5.0;" x1="319.5" x2="319.5" y1="79.5332" y2="412.4434"/><line style="stroke:#181818;stroke-width:0.5;stroke-dasharray:5.0,5.0;" x1="788.5" x2="788.5" y1="79.5332" y2="412.4434"/><rect fill="#E2E2F0" height="32.6211" rx="2.5" ry="2.5" style="stroke:#181818;stroke-width:0.5;" width="18" x="5" y="45.9121"/><text fill="#000000" font-family="sans-serif" font-size="14" lengthAdjust="spacing" textLength="4" x="12" y="68.0195">&#160;</text><rect fill="#E2E2F0" height="32.6211" rx="2.5" ry="2.5" style="stroke:#181818;stroke-width:0.5;" width="18" x="5" y="411.4434"/><text fill="#000000" font-family="sans-serif" font-size="14" lengthAdjust="spacing" textLength="4" x="12" y="433.5508">&#160;</text><rect fill="#E2E2F0" height="51.2422" rx="2.5" ry="2.5" style="stroke:#181818;stroke-width:0.5;" width="121" x="259.5" y="27.291"/><text fill="#000000" font-family="sans-serif" font-size="14" font-style="italic" lengthAdjust="spacing" textLength="107" x="266.5" y="49.3984">&#171;container (C4)&#187;</text><text fill="#000000" font-family="sans-serif" font-size="14" lengthAdjust="spacing" textLength="42" x="299" y="68.0195">Server</text><rect fill="#E2E2F0" height="51.2422" rx="2.5" ry="2.5" style="stroke:#181818;stroke-width:0.5;" width="121" x="259.5" y="411.4434"/><text fill="#000000" font-family="sans-serif" font-size="14" font-style="italic" lengthAdjust="spacing" textLength="107" x="266.5" y="433.5508">&#171;container (C4)&#187;</text><text fill="#000000" font-family="sans-serif" font-size="14" lengthAdjust="spacing" textLength="42" x="299" y="452.1719">Server</text><rect fill="#E2E2F0" height="51.2422" rx="2.5" ry="2.5" style="stroke:#181818;stroke-width:0.5;" width="121" x="728.5" y="27.291"/><text fill="#000000" font-family="sans-serif" font-size="14" font-style="italic" lengthAdjust="spacing" textLength="107" x="735.5" y="49.3984">&#171;container (C4)&#187;</text><text fill="#000000" font-family="sans-serif" font-size="14" lengthAdjust="spacing" textLength="61" x="758.5" y="68.0195">Database</text><rect fill="#E2E2F0" height="51.2422" rx="2.5" ry="2.5" style="stroke:#181818;stroke-width:0.5;" width="121" x="728.5" y="411.4434"/><text fill="#000000" font-family="sans-serif" font-size="14" font-style="italic" lengthAdjust="spacing" textLength="107" x="735.5" y="433.5508">&#171;container (C4)&#187;</text><text fill="#000000" font-family="sans-serif" font-size="14" lengthAdjust="spacing" textLength="61" x="758.5" y="452.1719">Database</text><rect fill="#FFFFFF" height="281.6191" style="stroke:#181818;stroke-width:1.0;" width="10" x="315" y="112.8242"/><rect fill="#FFFFFF" height="31.291" style="stroke:#181818;stroke-width:1.0;" width="10" x="784" y="144.1152"/><rect fill="#FFFFFF" height="31.291" style="stroke:#181818;stroke-width:1.0;" width="10" x="784" y="206.6973"/><rect fill="#FFFFFF" height="31.291" style="stroke:#181818;stroke-width:1.0;" width="10" x="784" y="269.2793"/><rect fill="#FFFFFF" height="31.291" style="stroke:#181818;stroke-width:1.0;" width="10" x="784" y="331.8613"/><ellipse cx="13.5" cy="112.0742" fill="none" rx="4" ry="4" style="stroke:#181818;stroke-width:1.5;"/><polygon fill="#181818" points="303,108.8242,313,112.8242,303,116.8242,307,112.8242" style="stroke:#181818;stroke-width:1.0;"/><line style="stroke:#181818;stroke-width:1.0;" x1="18" x2="309" y1="112.8242" y2="112.8242"/><text fill="#000000" font-family="sans-serif" font-size="13" font-weight="bold" lengthAdjust="spacing" textLength="7" x="21" y="107.5615">1</text><text fill="#000000" font-family="sans-serif" font-size="13" lengthAdjust="spacing" textLength="271" x="32" y="107.5615">GET /peak power consumption in a time period</text><polygon fill="#181818" points="772,140.1152,782,144.1152,772,148.1152,776,144.1152" style="stroke:#181818;stroke-width:1.0;"/><line style="stroke:#181818;stroke-width:1.0;" x1="325" x2="778" y1="144.1152" y2="144.1152"/><text fill="#000000" font-family="sans-serif" font-size="13" font-weight="bold" lengthAdjust="spacing" textLength="7" x="332" y="138.8525">2</text><text fill="#000000" font-family="sans-serif" font-size="13" lengthAdjust="spacing" textLength="136" x="343" y="138.8525">find powerMeterDevices</text><polygon fill="#181818" points="336,171.4063,326,175.4063,336,179.4063,332,175.4063" style="stroke:#181818;stroke-width:1.0;"/><line style="stroke:#181818;stroke-width:1.0;stroke-dasharray:2.0,2.0;" x1="330" x2="788" y1="175.4063" y2="175.4063"/><text fill="#000000" font-family="sans-serif" font-size="13" font-weight="bold" lengthAdjust="spacing" textLength="7" x="342" y="170.1436">3</text><text fill="#000000" font-family="sans-serif" font-size="13" lengthAdjust="spacing" textLength="174" x="353" y="170.1436">powerMeterDevicesDataModel</text><polygon fill="#181818" points="772,202.6973,782,206.6973,772,210.6973,776,206.6973" style="stroke:#181818;stroke-width:1.0;"/><line style="stroke:#181818;stroke-width:1.0;" x1="325" x2="778" y1="206.6973" y2="206.6973"/><text fill="#000000" font-family="sans-serif" font-size="13" font-weight="bold" lengthAdjust="spacing" textLength="7" x="332" y="201.4346">4</text><text fill="#000000" font-family="sans-serif" font-size="13" lengthAdjust="spacing" textLength="144" x="343" y="201.4346">find powerSourceDevices</text><polygon fill="#181818" points="336,233.9883,326,237.9883,336,241.9883,332,237.9883" style="stroke:#181818;stroke-width:1.0;"/><line style="stroke:#181818;stroke-width:1.0;stroke-dasharray:2.0,2.0;" x1="330" x2="788" y1="237.9883" y2="237.9883"/><text fill="#000000" font-family="sans-serif" font-size="13" font-weight="bold" lengthAdjust="spacing" textLength="7" x="342" y="232.7256">5</text><text fill="#000000" font-family="sans-serif" font-size="13" lengthAdjust="spacing" textLength="182" x="353" y="232.7256">powerSourceDevicesDataModel</text><polygon fill="#181818" points="772,265.2793,782,269.2793,772,273.2793,776,269.2793" style="stroke:#181818;stroke-width:1.0;"/><line style="stroke:#181818;stroke-width:1.0;" x1="325" x2="778" y1="269.2793" y2="269.2793"/><text fill="#000000" font-family="sans-serif" font-size="13" font-weight="bold" lengthAdjust="spacing" textLength="7" x="332" y="264.0166">6</text><text fill="#000000" font-family="sans-serif" font-size="13" lengthAdjust="spacing" textLength="421" x="343" y="264.0166">find powerMeterDevices readings in a given time period by sensor type ID</text><polygon fill="#181818" points="336,296.5703,326,300.5703,336,304.5703,332,300.5703" style="stroke:#181818;stroke-width:1.0;"/><line style="stroke:#181818;stroke-width:1.0;stroke-dasharray:2.0,2.0;" x1="330" x2="788" y1="300.5703" y2="300.5703"/><text fill="#000000" font-family="sans-serif" font-size="13" font-weight="bold" lengthAdjust="spacing" textLength="7" x="342" y="295.3076">7</text><text fill="#000000" font-family="sans-serif" font-size="13" lengthAdjust="spacing" textLength="228" x="353" y="295.3076">powerMeterDevicesReadingsDataModel</text><polygon fill="#181818" points="772,327.8613,782,331.8613,772,335.8613,776,331.8613" style="stroke:#181818;stroke-width:1.0;"/><line style="stroke:#181818;stroke-width:1.0;" x1="325" x2="778" y1="331.8613" y2="331.8613"/><text fill="#000000" font-family="sans-serif" font-size="13" font-weight="bold" lengthAdjust="spacing" textLength="7" x="332" y="326.5986">8</text><text fill="#000000" font-family="sans-serif" font-size="13" lengthAdjust="spacing" textLength="429" x="343" y="326.5986">find powerSourceDevices readings in a given time period by sensor type ID</text><polygon fill="#181818" points="336,359.1523,326,363.1523,336,367.1523,332,363.1523" style="stroke:#181818;stroke-width:1.0;"/><line style="stroke:#181818;stroke-width:1.0;stroke-dasharray:2.0,2.0;" x1="330" x2="788" y1="363.1523" y2="363.1523"/><text fill="#000000" font-family="sans-serif" font-size="13" font-weight="bold" lengthAdjust="spacing" textLength="7" x="342" y="357.8896">9</text><text fill="#000000" font-family="sans-serif" font-size="13" lengthAdjust="spacing" textLength="236" x="353" y="357.8896">powerSourceDevicesReadingsDataModel</text><ellipse cx="13.5" cy="393.6934" fill="none" rx="4" ry="4" style="stroke:#181818;stroke-width:1.5;"/><polygon fill="#181818" points="30.5,390.4434,20.5,394.4434,30.5,398.4434,26.5,394.4434" style="stroke:#181818;stroke-width:1.0;"/><line style="stroke:#181818;stroke-width:1.0;stroke-dasharray:2.0,2.0;" x1="28.5" x2="319" y1="394.4434" y2="394.4434"/><text fill="#000000" font-family="sans-serif" font-size="13" font-weight="bold" lengthAdjust="spacing" textLength="14" x="31" y="389.1807">10</text><text fill="#000000" font-family="sans-serif" font-size="13" lengthAdjust="spacing" textLength="59" x="49" y="389.1807">JSON 200</text><!--SRC=[hPFDJiCm48Jl-nHBBi0Xf4ASggY7D1K_KW6Hli0cMOBLn3Qs4-ZRumOG2UsX5TWdI_FDZ5VswOjpsawZIDSaNTlK5uLg8iklBSk2mr9GPQY14sseQWXhsgZMeMtOaIG0QfsIRPEp0T1ad2Y4zZuO-4qMRrQhHu1SlMEGKB5cMGOOntCb7Gd91i_cL-UpMG3ermZFs7HiUezi4SV5Bs8NICbHJfPx94ts83uSVHC0sBP25SwyDKxnUh72I3EjKQitB_UWRHljX98e918wqJ1gDaALG8KJ7JdsA837lKcQU9DduTrxVicEJSgTADZ-oDC4m0l3xz0TwRR_KfLSGyaZQcz8fbfJy64f8-rnCSE2Q9XA8IlxEPHAT2o7ey5yWvQbLGRTHZFUfaVS_kdB-mzJ-FT-8_U32eOprRzuxt2NFTpZvMGob6sVpE3u-JS-0000]--></g></svg>