<?xml version="1.0" encoding="us-ascii" standalone="no"?><svg xmlns="http://www.w3.org/2000/svg" xmlns:xlink="http://www.w3.org/1999/xlink" contentStyleType="text/css" height="1155px" preserveAspectRatio="none" style="width:2789px;height:1155px;background:#FFFFFF;" version="1.1" viewBox="0 0 2789 1155" width="2789px" zoomAndPan="magnify"><defs/><g><!--cluster domain--><g id="cluster_domain"><path d="M16.5,4 L68.5,4 A3.75,3.75 0 0 1 71,6.5 L78,28.6211 L2779.5,28.6211 A2.5,2.5 0 0 1 2782,31.1211 L2782,1145.5 A2.5,2.5 0 0 1 2779.5,1148 L16.5,1148 A2.5,2.5 0 0 1 14,1145.5 L14,6.5 A2.5,2.5 0 0 1 16.5,4 " fill="none" style="stroke:#000000;stroke-width:1.5;"/><line style="stroke:#000000;stroke-width:1.5;" x1="14" x2="78" y1="28.6211" y2="28.6211"/><text fill="#000000" font-family="sans-serif" font-size="14" font-weight="bold" lengthAdjust="spacing" textLength="51" x="18" y="21.1074">domain</text></g><!--cluster Sensor--><g id="cluster_Sensor"><path d="M24.5,33 L75.5,33 A3.75,3.75 0 0 1 78,35.5 L85,57.6211 L2771.5,57.6211 A2.5,2.5 0 0 1 2774,60.1211 L2774,778.5 A2.5,2.5 0 0 1 2771.5,781 L24.5,781 A2.5,2.5 0 0 1 22,778.5 L22,35.5 A2.5,2.5 0 0 1 24.5,33 " fill="none" style="stroke:#000000;stroke-width:1.5;"/><line style="stroke:#000000;stroke-width:1.5;" x1="22" x2="85" y1="57.6211" y2="57.6211"/><text fill="#000000" font-family="sans-serif" font-size="14" font-weight="bold" lengthAdjust="spacing" textLength="50" x="26" y="50.1074">Sensor</text></g><!--cluster SunsetTimeSensor--><g id="cluster_SunsetTimeSensor"><path d="M936.5,174 L1069.5,174 A3.75,3.75 0 0 1 1072,176.5 L1079,198.6211 L2763.5,198.6211 A2.5,2.5 0 0 1 2766,201.1211 L2766,766.5 A2.5,2.5 0 0 1 2763.5,769 L936.5,769 A2.5,2.5 0 0 1 934,766.5 L934,176.5 A2.5,2.5 0 0 1 936.5,174 " fill="none" style="stroke:#000000;stroke-width:1.5;"/><line style="stroke:#000000;stroke-width:1.5;" x1="934" x2="1079" y1="198.6211" y2="198.6211"/><text fill="#000000" font-family="sans-serif" font-size="14" font-weight="bold" lengthAdjust="spacing" textLength="132" x="938" y="191.1074">SunsetTimeSensor</text></g><!--cluster ddd--><g id="cluster_ddd"><path d="M1366.5,800 L1394.5,800 A3.75,3.75 0 0 1 1397,802.5 L1404,824.6211 L1505.5,824.6211 A2.5,2.5 0 0 1 1508,827.1211 L1508,1137.5 A2.5,2.5 0 0 1 1505.5,1140 L1366.5,1140 A2.5,2.5 0 0 1 1364,1137.5 L1364,802.5 A2.5,2.5 0 0 1 1366.5,800 " fill="none" style="stroke:#000000;stroke-width:1.5;"/><line style="stroke:#000000;stroke-width:1.5;" x1="1364" x2="1404" y1="824.6211" y2="824.6211"/><text fill="#000000" font-family="sans-serif" font-size="14" font-weight="bold" lengthAdjust="spacing" textLength="27" x="1368" y="817.1074">ddd</text></g><!--class SensorFactory--><g id="elem_SensorFactory"><rect codeLine="5" fill="#F1F1F1" height="66.6211" id="SensorFactory" rx="2.5" ry="2.5" style="stroke:#181818;stroke-width:0.5;" width="896" x="30" y="338"/><ellipse cx="427.25" cy="354" fill="#B4A7E5" rx="11" ry="11" style="stroke:#181818;stroke-width:1.0;"/><path d="M428.2031,350.6406 L428.2031,357.2969 L429.9219,357.2969 Q430.5313,357.2969 430.7969,357.5313 Q431.0625,357.7656 431.0625,358.1563 Q431.0625,358.5313 430.7969,358.7656 Q430.5313,359 429.9219,359 L424.7813,359 Q424.1719,359 423.9063,358.7656 Q423.6406,358.5313 423.6406,358.1406 Q423.6406,357.7656 423.9063,357.5313 Q424.1719,357.2969 424.7813,357.2969 L426.5,357.2969 L426.5,350.6406 L424.7813,350.6406 Q424.1719,350.6406 423.9063,350.4063 Q423.6406,350.1719 423.6406,349.7813 Q423.6406,349.4063 423.9063,349.1719 Q424.1719,348.9375 424.7813,348.9375 L429.9219,348.9375 Q430.5313,348.9375 430.7969,349.1719 Q431.0625,349.4063 431.0625,349.7813 Q431.0625,350.1719 430.7969,350.4063 Q430.5313,350.6406 429.9219,350.6406 L428.2031,350.6406 Z " fill="#000000"/><text fill="#000000" font-family="sans-serif" font-size="14" font-style="italic" lengthAdjust="spacing" textLength="93" x="447.75" y="359.7969">SensorFactory</text><line style="stroke:#181818;stroke-width:0.5;" x1="31" x2="925" y1="370" y2="370"/><line style="stroke:#181818;stroke-width:0.5;" x1="31" x2="925" y1="378" y2="378"/><ellipse cx="41" cy="392.8105" fill="#84BE84" rx="3" ry="3" style="stroke:#038048;stroke-width:1.0;"/><text fill="#000000" font-family="sans-serif" font-size="14" lengthAdjust="spacing" textLength="870" x="50" y="397.1074">createSensor(deviceID : DeviceID, modelPath : ModelPath, sensorTypeID : SensorTypeID, sensorName : SensorName, gps: GPS): Sensor</text></g><!--class SensorFactoryImpl--><g id="elem_SensorFactoryImpl"><rect codeLine="9" fill="#F1F1F1" height="66.6211" id="SensorFactoryImpl" rx="2.5" ry="2.5" style="stroke:#181818;stroke-width:0.5;" width="896" x="550" y="62"/><ellipse cx="934.75" cy="78" fill="#ADD1B2" rx="11" ry="11" style="stroke:#181818;stroke-width:1.0;"/><path d="M937.5156,73.875 Q937.6719,73.6563 937.8594,73.5469 Q938.0469,73.4375 938.2656,73.4375 Q938.6406,73.4375 938.875,73.7031 Q939.1094,73.9531 939.1094,74.5625 L939.1094,76.0156 Q939.1094,76.625 938.875,76.8906 Q938.6406,77.1563 938.2656,77.1563 Q937.9219,77.1563 937.7188,76.9531 Q937.5156,76.7656 937.4063,76.25 Q937.3594,75.8906 937.1719,75.7031 Q936.8438,75.3281 936.2344,75.1094 Q935.625,74.8906 935,74.8906 Q934.2344,74.8906 933.5938,75.2188 Q932.9688,75.5469 932.4688,76.2969 Q931.9844,77.0469 931.9844,78.0781 L931.9844,79.1719 Q931.9844,80.4063 932.875,81.2344 Q933.7656,82.0469 935.3594,82.0469 Q936.2969,82.0469 936.9531,81.7969 Q937.3438,81.6406 937.7656,81.2031 Q938.0313,80.9375 938.1719,80.8594 Q938.3281,80.7813 938.5313,80.7813 Q938.8594,80.7813 939.1094,81.0469 Q939.375,81.2969 939.375,81.6406 Q939.375,81.9844 939.0313,82.3906 Q938.5313,82.9688 937.7344,83.2969 Q936.6563,83.75 935.3594,83.75 Q933.8438,83.75 932.6406,83.125 Q931.6563,82.625 930.9688,81.5625 Q930.2813,80.4844 930.2813,79.2031 L930.2813,78.0469 Q930.2813,76.7188 930.8906,75.5781 Q931.5156,74.4219 932.6094,73.8125 Q933.7031,73.1875 934.9375,73.1875 Q935.6719,73.1875 936.3125,73.3594 Q936.9688,73.5156 937.5156,73.875 Z " fill="#000000"/><text fill="#000000" font-family="sans-serif" font-size="14" lengthAdjust="spacing" textLength="118" x="955.25" y="83.7969">SensorFactoryImpl</text><line style="stroke:#181818;stroke-width:0.5;" x1="551" x2="1445" y1="94" y2="94"/><line style="stroke:#181818;stroke-width:0.5;" x1="551" x2="1445" y1="102" y2="102"/><ellipse cx="561" cy="116.8105" fill="#84BE84" rx="3" ry="3" style="stroke:#038048;stroke-width:1.0;"/><text fill="#000000" font-family="sans-serif" font-size="14" lengthAdjust="spacing" textLength="870" x="570" y="121.1074">createSensor(deviceID : DeviceID, modelPath : ModelPath, sensorTypeID : SensorTypeID, sensorName : SensorName, gps: GPS): Sensor</text></g><!--class Sensor--><g id="elem_Sensor"><rect codeLine="13" fill="#F1F1F1" height="178.3477" id="Sensor" rx="2.5" ry="2.5" style="stroke:#181818;stroke-width:0.5;" width="244" x="680" y="595"/><ellipse cx="775.25" cy="611" fill="#B4A7E5" rx="11" ry="11" style="stroke:#181818;stroke-width:1.0;"/><path d="M776.2031,607.6406 L776.2031,614.2969 L777.9219,614.2969 Q778.5313,614.2969 778.7969,614.5313 Q779.0625,614.7656 779.0625,615.1563 Q779.0625,615.5313 778.7969,615.7656 Q778.5313,616 777.9219,616 L772.7813,616 Q772.1719,616 771.9063,615.7656 Q771.6406,615.5313 771.6406,615.1406 Q771.6406,614.7656 771.9063,614.5313 Q772.1719,614.2969 772.7813,614.2969 L774.5,614.2969 L774.5,607.6406 L772.7813,607.6406 Q772.1719,607.6406 771.9063,607.4063 Q771.6406,607.1719 771.6406,606.7813 Q771.6406,606.4063 771.9063,606.1719 Q772.1719,605.9375 772.7813,605.9375 L777.9219,605.9375 Q778.5313,605.9375 778.7969,606.1719 Q779.0625,606.4063 779.0625,606.7813 Q779.0625,607.1719 778.7969,607.4063 Q778.5313,607.6406 777.9219,607.6406 L776.2031,607.6406 Z " fill="#000000"/><text fill="#000000" font-family="sans-serif" font-size="14" font-style="italic" lengthAdjust="spacing" textLength="45" x="795.75" y="616.7969">Sensor</text><line style="stroke:#181818;stroke-width:0.5;" x1="681" x2="923" y1="627" y2="627"/><line style="stroke:#181818;stroke-width:0.5;" x1="681" x2="923" y1="635" y2="635"/><ellipse cx="691" cy="649.8105" fill="#84BE84" rx="3" ry="3" style="stroke:#038048;stroke-width:1.0;"/><text fill="#000000" font-family="sans-serif" font-size="14" lengthAdjust="spacing" textLength="109" x="700" y="654.1074">getID(): SensorID</text><ellipse cx="691" cy="668.4316" fill="#84BE84" rx="3" ry="3" style="stroke:#038048;stroke-width:1.0;"/><text fill="#000000" font-family="sans-serif" font-size="14" lengthAdjust="spacing" textLength="155" x="700" y="672.7285">getName(): SensorName</text><ellipse cx="691" cy="687.0527" fill="#84BE84" rx="3" ry="3" style="stroke:#038048;stroke-width:1.0;"/><text fill="#000000" font-family="sans-serif" font-size="14" lengthAdjust="spacing" textLength="172" x="700" y="691.3496">getModelPath(): ModelPath</text><ellipse cx="691" cy="705.6738" fill="#84BE84" rx="3" ry="3" style="stroke:#038048;stroke-width:1.0;"/><text fill="#000000" font-family="sans-serif" font-size="14" lengthAdjust="spacing" textLength="218" x="700" y="709.9707">getSensorTypeID(): SensorTypeID</text><ellipse cx="691" cy="724.2949" fill="#84BE84" rx="3" ry="3" style="stroke:#038048;stroke-width:1.0;"/><text fill="#000000" font-family="sans-serif" font-size="14" lengthAdjust="spacing" textLength="150" x="700" y="728.5918">getDeviceID(): DeviceID</text><ellipse cx="691" cy="742.916" fill="#84BE84" rx="3" ry="3" style="stroke:#038048;stroke-width:1.0;"/><text fill="#000000" font-family="sans-serif" font-size="14" lengthAdjust="spacing" textLength="151" x="700" y="747.2129">getValue(): ValueObject</text><ellipse cx="691" cy="761.5371" fill="#84BE84" rx="3" ry="3" style="stroke:#038048;stroke-width:1.0;"/><text fill="#000000" font-family="sans-serif" font-size="14" lengthAdjust="spacing" textLength="104" x="700" y="765.834">toString(): String</text></g><!--class SunsetTimeSensor--><g id="elem_SunsetTimeSensor"><rect codeLine="25" fill="#F1F1F1" height="337.2383" id="SunsetTimeSensor" rx="2.5" ry="2.5" style="stroke:#181818;stroke-width:0.5;" width="878" x="1080" y="203"/><ellipse cx="1454.75" cy="233.2715" fill="#ADD1B2" rx="11" ry="11" style="stroke:#181818;stroke-width:1.0;"/><path d="M1457.5156,229.1465 Q1457.6719,228.9277 1457.8594,228.8184 Q1458.0469,228.709 1458.2656,228.709 Q1458.6406,228.709 1458.875,228.9746 Q1459.1094,229.2246 1459.1094,229.834 L1459.1094,231.2871 Q1459.1094,231.8965 1458.875,232.1621 Q1458.6406,232.4277 1458.2656,232.4277 Q1457.9219,232.4277 1457.7188,232.2246 Q1457.5156,232.0371 1457.4063,231.5215 Q1457.3594,231.1621 1457.1719,230.9746 Q1456.8438,230.5996 1456.2344,230.3809 Q1455.625,230.1621 1455,230.1621 Q1454.2344,230.1621 1453.5938,230.4902 Q1452.9688,230.8184 1452.4688,231.5684 Q1451.9844,232.3184 1451.9844,233.3496 L1451.9844,234.4434 Q1451.9844,235.6777 1452.875,236.5059 Q1453.7656,237.3184 1455.3594,237.3184 Q1456.2969,237.3184 1456.9531,237.0684 Q1457.3438,236.9121 1457.7656,236.4746 Q1458.0313,236.209 1458.1719,236.1309 Q1458.3281,236.0527 1458.5313,236.0527 Q1458.8594,236.0527 1459.1094,236.3184 Q1459.375,236.5684 1459.375,236.9121 Q1459.375,237.2559 1459.0313,237.6621 Q1458.5313,238.2402 1457.7344,238.5684 Q1456.6563,239.0215 1455.3594,239.0215 Q1453.8438,239.0215 1452.6406,238.3965 Q1451.6563,237.8965 1450.9688,236.834 Q1450.2813,235.7559 1450.2813,234.4746 L1450.2813,233.3184 Q1450.2813,231.9902 1450.8906,230.8496 Q1451.5156,229.6934 1452.6094,229.084 Q1453.7031,228.459 1454.9375,228.459 Q1455.6719,228.459 1456.3125,228.6309 Q1456.9688,228.7871 1457.5156,229.1465 Z " fill="#000000"/><text fill="#000000" font-family="sans-serif" font-size="12" font-style="italic" lengthAdjust="spacing" textLength="43" x="1513.75" y="220.9492">&#171;entity&#187;</text><text fill="#000000" font-family="sans-serif" font-size="12" font-style="italic" lengthAdjust="spacing" textLength="40" x="1515.25" y="236.9102">&#171;Root&#187;</text><text fill="#000000" font-family="sans-serif" font-size="14" lengthAdjust="spacing" textLength="120" x="1475.25" y="255.0293">SunsetTimeSensor</text><line style="stroke:#181818;stroke-width:0.5;" x1="1081" x2="1957" y1="263.543" y2="263.543"/><rect fill="none" height="6" style="stroke:#C82930;stroke-width:1.0;" width="6" x="1088" y="275.3535"/><text fill="#000000" font-family="sans-serif" font-size="14" lengthAdjust="spacing" textLength="154" x="1100" y="282.6504">_modelPath : ModelPath</text><rect fill="none" height="6" style="stroke:#C82930;stroke-width:1.0;" width="6" x="1088" y="293.9746"/><text fill="#000000" font-family="sans-serif" font-size="14" lengthAdjust="spacing" textLength="180" x="1100" y="301.2715">_sensorName : SensorName</text><rect fill="none" height="6" style="stroke:#C82930;stroke-width:1.0;" width="6" x="1088" y="312.5957"/><text fill="#000000" font-family="sans-serif" font-size="14" lengthAdjust="spacing" textLength="134" x="1100" y="319.8926">_sensorID : SensorID</text><rect fill="none" height="6" style="stroke:#C82930;stroke-width:1.0;" width="6" x="1088" y="331.2168"/><text fill="#000000" font-family="sans-serif" font-size="14" lengthAdjust="spacing" textLength="198" x="1100" y="338.5137">_sensorTypeID : SensorTypeID</text><rect fill="none" height="6" style="stroke:#C82930;stroke-width:1.0;" width="6" x="1088" y="349.8379"/><text fill="#000000" font-family="sans-serif" font-size="14" lengthAdjust="spacing" textLength="285" x="1100" y="357.1348">_sunsetTimeValue : SunsetTimeSensorValue</text><rect fill="none" height="6" style="stroke:#C82930;stroke-width:1.0;" width="6" x="1088" y="368.459"/><text fill="#000000" font-family="sans-serif" font-size="14" lengthAdjust="spacing" textLength="130" x="1100" y="375.7559">_deviceID : DeviceID</text><rect fill="none" height="6" style="stroke:#C82930;stroke-width:1.0;" width="6" x="1088" y="387.0801"/><text fill="#000000" font-family="sans-serif" font-size="14" lengthAdjust="spacing" textLength="72" x="1100" y="394.377">_gps : GPS</text><line style="stroke:#181818;stroke-width:0.5;" x1="1081" x2="1957" y1="401.8906" y2="401.8906"/><ellipse cx="1091" cy="416.7012" fill="#84BE84" rx="3" ry="3" style="stroke:#038048;stroke-width:1.0;"/><text fill="#000000" font-family="sans-serif" font-size="14" lengthAdjust="spacing" textLength="852" x="1100" y="420.998">SunsetTimeSensor(deviceID : DeviceID, modelPath : ModelPath, sensorTypeID : SensorTypeID, sensorName : SensorName, gps: GPS)</text><ellipse cx="1091" cy="435.3223" fill="#84BE84" rx="3" ry="3" style="stroke:#038048;stroke-width:1.0;"/><text fill="#000000" font-family="sans-serif" font-size="14" lengthAdjust="spacing" textLength="117" x="1100" y="439.6191">getID () : SensorID</text><ellipse cx="1091" cy="453.9434" fill="#84BE84" rx="3" ry="3" style="stroke:#038048;stroke-width:1.0;"/><text fill="#000000" font-family="sans-serif" font-size="14" lengthAdjust="spacing" textLength="163" x="1100" y="458.2402">getName () : SensorName</text><ellipse cx="1091" cy="472.5645" fill="#84BE84" rx="3" ry="3" style="stroke:#038048;stroke-width:1.0;"/><text fill="#000000" font-family="sans-serif" font-size="14" lengthAdjust="spacing" textLength="180" x="1100" y="476.8613">getModelPath () : ModelPath</text><ellipse cx="1091" cy="491.1855" fill="#84BE84" rx="3" ry="3" style="stroke:#038048;stroke-width:1.0;"/><text fill="#000000" font-family="sans-serif" font-size="14" lengthAdjust="spacing" textLength="226" x="1100" y="495.4824">getSensorTypeID () : SensorTypeID</text><ellipse cx="1091" cy="509.8066" fill="#84BE84" rx="3" ry="3" style="stroke:#038048;stroke-width:1.0;"/><text fill="#000000" font-family="sans-serif" font-size="14" lengthAdjust="spacing" textLength="159" x="1100" y="514.1035">getValue () : ValueObject</text><ellipse cx="1091" cy="528.4277" fill="#84BE84" rx="3" ry="3" style="stroke:#038048;stroke-width:1.0;"/><text fill="#000000" font-family="sans-serif" font-size="14" lengthAdjust="spacing" textLength="158" x="1100" y="532.7246">getDeviceID () : DeviceID</text></g><!--class GPS--><g id="elem_GPS"><rect codeLine="42" fill="#F1F1F1" height="153.6875" id="GPS" rx="2.5" ry="2.5" style="stroke:#181818;stroke-width:0.5;" width="287" x="2470.5" y="607"/><ellipse cx="2570.75" cy="629.291" fill="#ADD1B2" rx="11" ry="11" style="stroke:#181818;stroke-width:1.0;"/><path d="M2573.5156,625.166 Q2573.6719,624.9473 2573.8594,624.8379 Q2574.0469,624.7285 2574.2656,624.7285 Q2574.6406,624.7285 2574.875,624.9941 Q2575.1094,625.2441 2575.1094,625.8535 L2575.1094,627.3066 Q2575.1094,627.916 2574.875,628.1816 Q2574.6406,628.4473 2574.2656,628.4473 Q2573.9219,628.4473 2573.7188,628.2441 Q2573.5156,628.0566 2573.4063,627.541 Q2573.3594,627.1816 2573.1719,626.9941 Q2572.8438,626.6191 2572.2344,626.4004 Q2571.625,626.1816 2571,626.1816 Q2570.2344,626.1816 2569.5938,626.5098 Q2568.9688,626.8379 2568.4688,627.5879 Q2567.9844,628.3379 2567.9844,629.3691 L2567.9844,630.4629 Q2567.9844,631.6973 2568.875,632.5254 Q2569.7656,633.3379 2571.3594,633.3379 Q2572.2969,633.3379 2572.9531,633.0879 Q2573.3438,632.9316 2573.7656,632.4941 Q2574.0313,632.2285 2574.1719,632.1504 Q2574.3281,632.0723 2574.5313,632.0723 Q2574.8594,632.0723 2575.1094,632.3379 Q2575.375,632.5879 2575.375,632.9316 Q2575.375,633.2754 2575.0313,633.6816 Q2574.5313,634.2598 2573.7344,634.5879 Q2572.6563,635.041 2571.3594,635.041 Q2569.8438,635.041 2568.6406,634.416 Q2567.6563,633.916 2566.9688,632.8535 Q2566.2813,631.7754 2566.2813,630.4941 L2566.2813,629.3379 Q2566.2813,628.0098 2566.8906,626.8691 Q2567.5156,625.7129 2568.6094,625.1035 Q2569.7031,624.4785 2570.9375,624.4785 Q2571.6719,624.4785 2572.3125,624.6504 Q2572.9688,624.8066 2573.5156,625.166 Z " fill="#000000"/><text fill="#000000" font-family="sans-serif" font-size="12" font-style="italic" lengthAdjust="spacing" textLength="82" x="2589.25" y="624.9492">&#171;ValueObject&#187;</text><text fill="#000000" font-family="sans-serif" font-size="14" lengthAdjust="spacing" textLength="29" x="2615.75" y="643.0684">GPS</text><line style="stroke:#181818;stroke-width:0.5;" x1="2471.5" x2="2756.5" y1="651.582" y2="651.582"/><rect fill="none" height="6" style="stroke:#C82930;stroke-width:1.0;" width="6" x="2478.5" y="663.3926"/><text fill="#000000" font-family="sans-serif" font-size="14" lengthAdjust="spacing" textLength="105" x="2490.5" y="670.6895">_latitude: double</text><rect fill="none" height="6" style="stroke:#C82930;stroke-width:1.0;" width="6" x="2478.5" y="682.0137"/><text fill="#000000" font-family="sans-serif" font-size="14" lengthAdjust="spacing" textLength="117" x="2490.5" y="689.3105">_longitude: double</text><line style="stroke:#181818;stroke-width:0.5;" x1="2471.5" x2="2756.5" y1="696.8242" y2="696.8242"/><ellipse cx="2481.5" cy="711.6348" fill="#84BE84" rx="3" ry="3" style="stroke:#038048;stroke-width:1.0;"/><text fill="#000000" font-family="sans-serif" font-size="14" lengthAdjust="spacing" textLength="261" x="2490.5" y="715.9316">GPS(latitude : double, longitude : double)</text><ellipse cx="2481.5" cy="730.2559" fill="#84BE84" rx="3" ry="3" style="stroke:#038048;stroke-width:1.0;"/><text fill="#000000" font-family="sans-serif" font-size="14" lengthAdjust="spacing" textLength="136" x="2490.5" y="734.5527">getLatitude() : double</text><ellipse cx="2481.5" cy="748.877" fill="#84BE84" rx="3" ry="3" style="stroke:#038048;stroke-width:1.0;"/><text fill="#000000" font-family="sans-serif" font-size="14" lengthAdjust="spacing" textLength="148" x="2490.5" y="753.1738">getLongitude() : double</text></g><!--class SensorName--><g id="elem_SensorName"><rect codeLine="49" fill="#F1F1F1" height="116.4453" id="SensorName" rx="2.5" ry="2.5" style="stroke:#181818;stroke-width:0.5;" width="201" x="942.5" y="626"/><ellipse cx="998.25" cy="648.291" fill="#ADD1B2" rx="11" ry="11" style="stroke:#181818;stroke-width:1.0;"/><path d="M1001.0156,644.166 Q1001.1719,643.9473 1001.3594,643.8379 Q1001.5469,643.7285 1001.7656,643.7285 Q1002.1406,643.7285 1002.375,643.9941 Q1002.6094,644.2441 1002.6094,644.8535 L1002.6094,646.3066 Q1002.6094,646.916 1002.375,647.1816 Q1002.1406,647.4473 1001.7656,647.4473 Q1001.4219,647.4473 1001.2188,647.2441 Q1001.0156,647.0566 1000.9063,646.541 Q1000.8594,646.1816 1000.6719,645.9941 Q1000.3438,645.6191 999.7344,645.4004 Q999.125,645.1816 998.5,645.1816 Q997.7344,645.1816 997.0938,645.5098 Q996.4688,645.8379 995.9688,646.5879 Q995.4844,647.3379 995.4844,648.3691 L995.4844,649.4629 Q995.4844,650.6973 996.375,651.5254 Q997.2656,652.3379 998.8594,652.3379 Q999.7969,652.3379 1000.4531,652.0879 Q1000.8438,651.9316 1001.2656,651.4941 Q1001.5313,651.2285 1001.6719,651.1504 Q1001.8281,651.0723 1002.0313,651.0723 Q1002.3594,651.0723 1002.6094,651.3379 Q1002.875,651.5879 1002.875,651.9316 Q1002.875,652.2754 1002.5313,652.6816 Q1002.0313,653.2598 1001.2344,653.5879 Q1000.1563,654.041 998.8594,654.041 Q997.3438,654.041 996.1406,653.416 Q995.1563,652.916 994.4688,651.8535 Q993.7813,650.7754 993.7813,649.4941 L993.7813,648.3379 Q993.7813,647.0098 994.3906,645.8691 Q995.0156,644.7129 996.1094,644.1035 Q997.2031,643.4785 998.4375,643.4785 Q999.1719,643.4785 999.8125,643.6504 Q1000.4688,643.8066 1001.0156,644.166 Z " fill="#000000"/><text fill="#000000" font-family="sans-serif" font-size="12" font-style="italic" lengthAdjust="spacing" textLength="82" x="1018.25" y="643.9492">&#171;ValueObject&#187;</text><text fill="#000000" font-family="sans-serif" font-size="14" lengthAdjust="spacing" textLength="81" x="1018.75" y="662.0684">SensorName</text><line style="stroke:#181818;stroke-width:0.5;" x1="943.5" x2="1142.5" y1="670.582" y2="670.582"/><rect fill="none" height="6" style="stroke:#C82930;stroke-width:1.0;" width="6" x="950.5" y="682.3926"/><text fill="#000000" font-family="sans-serif" font-size="14" lengthAdjust="spacing" textLength="88" x="962.5" y="689.6895">_name: String</text><line style="stroke:#181818;stroke-width:0.5;" x1="943.5" x2="1142.5" y1="697.2031" y2="697.2031"/><ellipse cx="953.5" cy="712.0137" fill="#84BE84" rx="3" ry="3" style="stroke:#038048;stroke-width:1.0;"/><text fill="#000000" font-family="sans-serif" font-size="14" lengthAdjust="spacing" textLength="175" x="962.5" y="716.3105">SensorName(name : String)</text><ellipse cx="953.5" cy="730.6348" fill="#84BE84" rx="3" ry="3" style="stroke:#038048;stroke-width:1.0;"/><text fill="#000000" font-family="sans-serif" font-size="14" lengthAdjust="spacing" textLength="115" x="962.5" y="734.9316">getName() : String</text></g><!--class SensorID--><g id="elem_SensorID"><rect codeLine="55" fill="#F1F1F1" height="116.4453" id="SensorID" rx="2.5" ry="2.5" style="stroke:#181818;stroke-width:0.5;" width="199" x="1613.5" y="626"/><ellipse cx="1675.25" cy="648.291" fill="#ADD1B2" rx="11" ry="11" style="stroke:#181818;stroke-width:1.0;"/><path d="M1678.0156,644.166 Q1678.1719,643.9473 1678.3594,643.8379 Q1678.5469,643.7285 1678.7656,643.7285 Q1679.1406,643.7285 1679.375,643.9941 Q1679.6094,644.2441 1679.6094,644.8535 L1679.6094,646.3066 Q1679.6094,646.916 1679.375,647.1816 Q1679.1406,647.4473 1678.7656,647.4473 Q1678.4219,647.4473 1678.2188,647.2441 Q1678.0156,647.0566 1677.9063,646.541 Q1677.8594,646.1816 1677.6719,645.9941 Q1677.3438,645.6191 1676.7344,645.4004 Q1676.125,645.1816 1675.5,645.1816 Q1674.7344,645.1816 1674.0938,645.5098 Q1673.4688,645.8379 1672.9688,646.5879 Q1672.4844,647.3379 1672.4844,648.3691 L1672.4844,649.4629 Q1672.4844,650.6973 1673.375,651.5254 Q1674.2656,652.3379 1675.8594,652.3379 Q1676.7969,652.3379 1677.4531,652.0879 Q1677.8438,651.9316 1678.2656,651.4941 Q1678.5313,651.2285 1678.6719,651.1504 Q1678.8281,651.0723 1679.0313,651.0723 Q1679.3594,651.0723 1679.6094,651.3379 Q1679.875,651.5879 1679.875,651.9316 Q1679.875,652.2754 1679.5313,652.6816 Q1679.0313,653.2598 1678.2344,653.5879 Q1677.1563,654.041 1675.8594,654.041 Q1674.3438,654.041 1673.1406,653.416 Q1672.1563,652.916 1671.4688,651.8535 Q1670.7813,650.7754 1670.7813,649.4941 L1670.7813,648.3379 Q1670.7813,647.0098 1671.3906,645.8691 Q1672.0156,644.7129 1673.1094,644.1035 Q1674.2031,643.4785 1675.4375,643.4785 Q1676.1719,643.4785 1676.8125,643.6504 Q1677.4688,643.8066 1678.0156,644.166 Z " fill="#000000"/><text fill="#000000" font-family="sans-serif" font-size="12" font-style="italic" lengthAdjust="spacing" textLength="71" x="1693.75" y="643.9492">&#171;DomainID&#187;</text><text fill="#000000" font-family="sans-serif" font-size="14" lengthAdjust="spacing" textLength="58" x="1700.25" y="662.0684">SensorID</text><line style="stroke:#181818;stroke-width:0.5;" x1="1614.5" x2="1811.5" y1="670.582" y2="670.582"/><rect fill="none" height="6" style="stroke:#C82930;stroke-width:1.0;" width="6" x="1621.5" y="682.3926"/><text fill="#000000" font-family="sans-serif" font-size="14" lengthAdjust="spacing" textLength="64" x="1633.5" y="689.6895">_id: String</text><line style="stroke:#181818;stroke-width:0.5;" x1="1614.5" x2="1811.5" y1="697.2031" y2="697.2031"/><ellipse cx="1624.5" cy="712.0137" fill="#84BE84" rx="3" ry="3" style="stroke:#038048;stroke-width:1.0;"/><text fill="#000000" font-family="sans-serif" font-size="14" lengthAdjust="spacing" textLength="173" x="1633.5" y="716.3105">SensorID(sensorID : String)</text><ellipse cx="1624.5" cy="730.6348" fill="#84BE84" rx="3" ry="3" style="stroke:#038048;stroke-width:1.0;"/><text fill="#000000" font-family="sans-serif" font-size="14" lengthAdjust="spacing" textLength="92" x="1633.5" y="734.9316">getID() : String</text></g><!--class SensorTypeID--><g id="elem_SensorTypeID"><rect codeLine="61" fill="#F1F1F1" height="116.4453" id="SensorTypeID" rx="2.5" ry="2.5" style="stroke:#181818;stroke-width:0.5;" width="263" x="1161.5" y="626"/><ellipse cx="1243.75" cy="648.291" fill="#ADD1B2" rx="11" ry="11" style="stroke:#181818;stroke-width:1.0;"/><path d="M1246.5156,644.166 Q1246.6719,643.9473 1246.8594,643.8379 Q1247.0469,643.7285 1247.2656,643.7285 Q1247.6406,643.7285 1247.875,643.9941 Q1248.1094,644.2441 1248.1094,644.8535 L1248.1094,646.3066 Q1248.1094,646.916 1247.875,647.1816 Q1247.6406,647.4473 1247.2656,647.4473 Q1246.9219,647.4473 1246.7188,647.2441 Q1246.5156,647.0566 1246.4063,646.541 Q1246.3594,646.1816 1246.1719,645.9941 Q1245.8438,645.6191 1245.2344,645.4004 Q1244.625,645.1816 1244,645.1816 Q1243.2344,645.1816 1242.5938,645.5098 Q1241.9688,645.8379 1241.4688,646.5879 Q1240.9844,647.3379 1240.9844,648.3691 L1240.9844,649.4629 Q1240.9844,650.6973 1241.875,651.5254 Q1242.7656,652.3379 1244.3594,652.3379 Q1245.2969,652.3379 1245.9531,652.0879 Q1246.3438,651.9316 1246.7656,651.4941 Q1247.0313,651.2285 1247.1719,651.1504 Q1247.3281,651.0723 1247.5313,651.0723 Q1247.8594,651.0723 1248.1094,651.3379 Q1248.375,651.5879 1248.375,651.9316 Q1248.375,652.2754 1248.0313,652.6816 Q1247.5313,653.2598 1246.7344,653.5879 Q1245.6563,654.041 1244.3594,654.041 Q1242.8438,654.041 1241.6406,653.416 Q1240.6563,652.916 1239.9688,651.8535 Q1239.2813,650.7754 1239.2813,649.4941 L1239.2813,648.3379 Q1239.2813,647.0098 1239.8906,645.8691 Q1240.5156,644.7129 1241.6094,644.1035 Q1242.7031,643.4785 1243.9375,643.4785 Q1244.6719,643.4785 1245.3125,643.6504 Q1245.9688,643.8066 1246.5156,644.166 Z " fill="#000000"/><text fill="#000000" font-family="sans-serif" font-size="12" font-style="italic" lengthAdjust="spacing" textLength="71" x="1273.75" y="643.9492">&#171;DomainID&#187;</text><text fill="#000000" font-family="sans-serif" font-size="14" lengthAdjust="spacing" textLength="90" x="1264.25" y="662.0684">SensorTypeID</text><line style="stroke:#181818;stroke-width:0.5;" x1="1162.5" x2="1423.5" y1="670.582" y2="670.582"/><rect fill="none" height="6" style="stroke:#C82930;stroke-width:1.0;" width="6" x="1169.5" y="682.3926"/><text fill="#000000" font-family="sans-serif" font-size="14" lengthAdjust="spacing" textLength="68" x="1181.5" y="689.6895">_id : String</text><line style="stroke:#181818;stroke-width:0.5;" x1="1162.5" x2="1423.5" y1="697.2031" y2="697.2031"/><ellipse cx="1172.5" cy="712.0137" fill="#84BE84" rx="3" ry="3" style="stroke:#038048;stroke-width:1.0;"/><text fill="#000000" font-family="sans-serif" font-size="14" lengthAdjust="spacing" textLength="237" x="1181.5" y="716.3105">SensorTypeID(sensorTypeID : String)</text><ellipse cx="1172.5" cy="730.6348" fill="#84BE84" rx="3" ry="3" style="stroke:#038048;stroke-width:1.0;"/><text fill="#000000" font-family="sans-serif" font-size="14" lengthAdjust="spacing" textLength="92" x="1181.5" y="734.9316">getID() : String</text></g><!--class SunsetTimeSensorValue--><g id="elem_SunsetTimeSensorValue"><rect codeLine="67" fill="#F1F1F1" height="116.4453" id="SunsetTimeSensorValue" rx="2.5" ry="2.5" style="stroke:#181818;stroke-width:0.5;" width="423" x="2029.5" y="626"/><ellipse cx="2158.75" cy="648.291" fill="#ADD1B2" rx="11" ry="11" style="stroke:#181818;stroke-width:1.0;"/><path d="M2161.5156,644.166 Q2161.6719,643.9473 2161.8594,643.8379 Q2162.0469,643.7285 2162.2656,643.7285 Q2162.6406,643.7285 2162.875,643.9941 Q2163.1094,644.2441 2163.1094,644.8535 L2163.1094,646.3066 Q2163.1094,646.916 2162.875,647.1816 Q2162.6406,647.4473 2162.2656,647.4473 Q2161.9219,647.4473 2161.7188,647.2441 Q2161.5156,647.0566 2161.4063,646.541 Q2161.3594,646.1816 2161.1719,645.9941 Q2160.8438,645.6191 2160.2344,645.4004 Q2159.625,645.1816 2159,645.1816 Q2158.2344,645.1816 2157.5938,645.5098 Q2156.9688,645.8379 2156.4688,646.5879 Q2155.9844,647.3379 2155.9844,648.3691 L2155.9844,649.4629 Q2155.9844,650.6973 2156.875,651.5254 Q2157.7656,652.3379 2159.3594,652.3379 Q2160.2969,652.3379 2160.9531,652.0879 Q2161.3438,651.9316 2161.7656,651.4941 Q2162.0313,651.2285 2162.1719,651.1504 Q2162.3281,651.0723 2162.5313,651.0723 Q2162.8594,651.0723 2163.1094,651.3379 Q2163.375,651.5879 2163.375,651.9316 Q2163.375,652.2754 2163.0313,652.6816 Q2162.5313,653.2598 2161.7344,653.5879 Q2160.6563,654.041 2159.3594,654.041 Q2157.8438,654.041 2156.6406,653.416 Q2155.6563,652.916 2154.9688,651.8535 Q2154.2813,650.7754 2154.2813,649.4941 L2154.2813,648.3379 Q2154.2813,647.0098 2154.8906,645.8691 Q2155.5156,644.7129 2156.6094,644.1035 Q2157.7031,643.4785 2158.9375,643.4785 Q2159.6719,643.4785 2160.3125,643.6504 Q2160.9688,643.8066 2161.5156,644.166 Z " fill="#000000"/><text fill="#000000" font-family="sans-serif" font-size="12" font-style="italic" lengthAdjust="spacing" textLength="82" x="2216.25" y="643.9492">&#171;ValueObject&#187;</text><text fill="#000000" font-family="sans-serif" font-size="14" lengthAdjust="spacing" textLength="156" x="2179.25" y="662.0684">SunsetTimeSensorValue</text><line style="stroke:#181818;stroke-width:0.5;" x1="2030.5" x2="2451.5" y1="670.582" y2="670.582"/><rect fill="none" height="6" style="stroke:#C82930;stroke-width:1.0;" width="6" x="2037.5" y="682.3926"/><text fill="#000000" font-family="sans-serif" font-size="14" lengthAdjust="spacing" textLength="239" x="2049.5" y="689.6895">_sunsetTimeSensorValue : LocalTime</text><line style="stroke:#181818;stroke-width:0.5;" x1="2030.5" x2="2451.5" y1="697.2031" y2="697.2031"/><ellipse cx="2040.5" cy="712.0137" fill="#84BE84" rx="3" ry="3" style="stroke:#038048;stroke-width:1.0;"/><text fill="#000000" font-family="sans-serif" font-size="14" lengthAdjust="spacing" textLength="397" x="2049.5" y="716.3105">SunsetTimeSensorValue(sunsetTimeSensorValue : LocalTime)</text><ellipse cx="2040.5" cy="730.6348" fill="#84BE84" rx="3" ry="3" style="stroke:#038048;stroke-width:1.0;"/><text fill="#000000" font-family="sans-serif" font-size="14" lengthAdjust="spacing" textLength="108" x="2049.5" y="734.9316">toString() : String</text></g><!--class ModelPath--><g id="elem_ModelPath"><rect codeLine="72" fill="#F1F1F1" height="116.4453" id="ModelPath" rx="2.5" ry="2.5" style="stroke:#181818;stroke-width:0.5;" width="180" x="1831" y="626"/><ellipse cx="1883.25" cy="648.291" fill="#ADD1B2" rx="11" ry="11" style="stroke:#181818;stroke-width:1.0;"/><path d="M1886.0156,644.166 Q1886.1719,643.9473 1886.3594,643.8379 Q1886.5469,643.7285 1886.7656,643.7285 Q1887.1406,643.7285 1887.375,643.9941 Q1887.6094,644.2441 1887.6094,644.8535 L1887.6094,646.3066 Q1887.6094,646.916 1887.375,647.1816 Q1887.1406,647.4473 1886.7656,647.4473 Q1886.4219,647.4473 1886.2188,647.2441 Q1886.0156,647.0566 1885.9063,646.541 Q1885.8594,646.1816 1885.6719,645.9941 Q1885.3438,645.6191 1884.7344,645.4004 Q1884.125,645.1816 1883.5,645.1816 Q1882.7344,645.1816 1882.0938,645.5098 Q1881.4688,645.8379 1880.9688,646.5879 Q1880.4844,647.3379 1880.4844,648.3691 L1880.4844,649.4629 Q1880.4844,650.6973 1881.375,651.5254 Q1882.2656,652.3379 1883.8594,652.3379 Q1884.7969,652.3379 1885.4531,652.0879 Q1885.8438,651.9316 1886.2656,651.4941 Q1886.5313,651.2285 1886.6719,651.1504 Q1886.8281,651.0723 1887.0313,651.0723 Q1887.3594,651.0723 1887.6094,651.3379 Q1887.875,651.5879 1887.875,651.9316 Q1887.875,652.2754 1887.5313,652.6816 Q1887.0313,653.2598 1886.2344,653.5879 Q1885.1563,654.041 1883.8594,654.041 Q1882.3438,654.041 1881.1406,653.416 Q1880.1563,652.916 1879.4688,651.8535 Q1878.7813,650.7754 1878.7813,649.4941 L1878.7813,648.3379 Q1878.7813,647.0098 1879.3906,645.8691 Q1880.0156,644.7129 1881.1094,644.1035 Q1882.2031,643.4785 1883.4375,643.4785 Q1884.1719,643.4785 1884.8125,643.6504 Q1885.4688,643.8066 1886.0156,644.166 Z " fill="#000000"/><text fill="#000000" font-family="sans-serif" font-size="12" font-style="italic" lengthAdjust="spacing" textLength="71" x="1901.75" y="643.9492">&#171;DomainID&#187;</text><text fill="#000000" font-family="sans-serif" font-size="14" lengthAdjust="spacing" textLength="67" x="1903.75" y="662.0684">ModelPath</text><line style="stroke:#181818;stroke-width:0.5;" x1="1832" x2="2010" y1="670.582" y2="670.582"/><rect fill="none" height="6" style="stroke:#C82930;stroke-width:1.0;" width="6" x="1839" y="682.3926"/><text fill="#000000" font-family="sans-serif" font-size="14" lengthAdjust="spacing" textLength="81" x="1851" y="689.6895">_path: String</text><line style="stroke:#181818;stroke-width:0.5;" x1="1832" x2="2010" y1="697.2031" y2="697.2031"/><ellipse cx="1842" cy="712.0137" fill="#84BE84" rx="3" ry="3" style="stroke:#038048;stroke-width:1.0;"/><text fill="#000000" font-family="sans-serif" font-size="14" lengthAdjust="spacing" textLength="154" x="1851" y="716.3105">ModelPath(path : String)</text><ellipse cx="1842" cy="730.6348" fill="#84BE84" rx="3" ry="3" style="stroke:#038048;stroke-width:1.0;"/><text fill="#000000" font-family="sans-serif" font-size="14" lengthAdjust="spacing" textLength="108" x="1851" y="734.9316">getPath() : String</text></g><!--class DeviceID--><g id="elem_DeviceID"><rect codeLine="78" fill="#F1F1F1" height="116.4453" id="DeviceID" rx="2.5" ry="2.5" style="stroke:#181818;stroke-width:0.5;" width="152" x="1443" y="626"/><ellipse cx="1481.85" cy="648.291" fill="#ADD1B2" rx="11" ry="11" style="stroke:#181818;stroke-width:1.0;"/><path d="M1484.6156,644.166 Q1484.7719,643.9473 1484.9594,643.8379 Q1485.1469,643.7285 1485.3656,643.7285 Q1485.7406,643.7285 1485.975,643.9941 Q1486.2094,644.2441 1486.2094,644.8535 L1486.2094,646.3066 Q1486.2094,646.916 1485.975,647.1816 Q1485.7406,647.4473 1485.3656,647.4473 Q1485.0219,647.4473 1484.8188,647.2441 Q1484.6156,647.0566 1484.5063,646.541 Q1484.4594,646.1816 1484.2719,645.9941 Q1483.9438,645.6191 1483.3344,645.4004 Q1482.725,645.1816 1482.1,645.1816 Q1481.3344,645.1816 1480.6938,645.5098 Q1480.0688,645.8379 1479.5688,646.5879 Q1479.0844,647.3379 1479.0844,648.3691 L1479.0844,649.4629 Q1479.0844,650.6973 1479.975,651.5254 Q1480.8656,652.3379 1482.4594,652.3379 Q1483.3969,652.3379 1484.0531,652.0879 Q1484.4438,651.9316 1484.8656,651.4941 Q1485.1313,651.2285 1485.2719,651.1504 Q1485.4281,651.0723 1485.6313,651.0723 Q1485.9594,651.0723 1486.2094,651.3379 Q1486.475,651.5879 1486.475,651.9316 Q1486.475,652.2754 1486.1313,652.6816 Q1485.6313,653.2598 1484.8344,653.5879 Q1483.7563,654.041 1482.4594,654.041 Q1480.9438,654.041 1479.7406,653.416 Q1478.7563,652.916 1478.0688,651.8535 Q1477.3813,650.7754 1477.3813,649.4941 L1477.3813,648.3379 Q1477.3813,647.0098 1477.9906,645.8691 Q1478.6156,644.7129 1479.7094,644.1035 Q1480.8031,643.4785 1482.0375,643.4785 Q1482.7719,643.4785 1483.4125,643.6504 Q1484.0688,643.8066 1484.6156,644.166 Z " fill="#000000"/><text fill="#000000" font-family="sans-serif" font-size="12" font-style="italic" lengthAdjust="spacing" textLength="71" x="1499.15" y="643.9492">&#171;DomainID&#187;</text><text fill="#000000" font-family="sans-serif" font-size="14" lengthAdjust="spacing" textLength="56" x="1506.65" y="662.0684">DeviceID</text><line style="stroke:#181818;stroke-width:0.5;" x1="1444" x2="1594" y1="670.582" y2="670.582"/><rect fill="none" height="6" style="stroke:#C82930;stroke-width:1.0;" width="6" x="1451" y="682.3926"/><text fill="#000000" font-family="sans-serif" font-size="14" lengthAdjust="spacing" textLength="64" x="1463" y="689.6895">_id: String</text><line style="stroke:#181818;stroke-width:0.5;" x1="1444" x2="1594" y1="697.2031" y2="697.2031"/><ellipse cx="1454" cy="712.0137" fill="#84BE84" rx="3" ry="3" style="stroke:#038048;stroke-width:1.0;"/><text fill="#000000" font-family="sans-serif" font-size="14" lengthAdjust="spacing" textLength="126" x="1463" y="716.3105">DeviceID(id : String)</text><ellipse cx="1454" cy="730.6348" fill="#84BE84" rx="3" ry="3" style="stroke:#038048;stroke-width:1.0;"/><text fill="#000000" font-family="sans-serif" font-size="14" lengthAdjust="spacing" textLength="92" x="1463" y="734.9316">getID() : String</text></g><!--class DomainEntity--><g id="elem_DomainEntity"><rect codeLine="87" fill="#F1F1F1" height="48" id="DomainEntity" rx="2.5" ry="2.5" style="stroke:#181818;stroke-width:0.5;" width="115" x="1382.5" y="914"/><ellipse cx="1397.5" cy="930" fill="#B4A7E5" rx="11" ry="11" style="stroke:#181818;stroke-width:1.0;"/><path d="M1398.4531,926.6406 L1398.4531,933.2969 L1400.1719,933.2969 Q1400.7813,933.2969 1401.0469,933.5313 Q1401.3125,933.7656 1401.3125,934.1563 Q1401.3125,934.5313 1401.0469,934.7656 Q1400.7813,935 1400.1719,935 L1395.0313,935 Q1394.4219,935 1394.1563,934.7656 Q1393.8906,934.5313 1393.8906,934.1406 Q1393.8906,933.7656 1394.1563,933.5313 Q1394.4219,933.2969 1395.0313,933.2969 L1396.75,933.2969 L1396.75,926.6406 L1395.0313,926.6406 Q1394.4219,926.6406 1394.1563,926.4063 Q1393.8906,926.1719 1393.8906,925.7813 Q1393.8906,925.4063 1394.1563,925.1719 Q1394.4219,924.9375 1395.0313,924.9375 L1400.1719,924.9375 Q1400.7813,924.9375 1401.0469,925.1719 Q1401.3125,925.4063 1401.3125,925.7813 Q1401.3125,926.1719 1401.0469,926.4063 Q1400.7813,926.6406 1400.1719,926.6406 L1398.4531,926.6406 Z " fill="#000000"/><text fill="#000000" font-family="sans-serif" font-size="14" font-style="italic" lengthAdjust="spacing" textLength="83" x="1411.5" y="935.7969">DomainEntity</text><line style="stroke:#181818;stroke-width:0.5;" x1="1383.5" x2="1496.5" y1="946" y2="946"/><line style="stroke:#181818;stroke-width:0.5;" x1="1383.5" x2="1496.5" y1="954" y2="954"/></g><!--class DomainID--><g id="elem_DomainID"><rect codeLine="90" fill="#F1F1F1" height="48" id="DomainID" rx="2.5" ry="2.5" style="stroke:#181818;stroke-width:0.5;" width="94" x="1402" y="999"/><ellipse cx="1417" cy="1015" fill="#B4A7E5" rx="11" ry="11" style="stroke:#181818;stroke-width:1.0;"/><path d="M1417.9531,1011.6406 L1417.9531,1018.2969 L1419.6719,1018.2969 Q1420.2813,1018.2969 1420.5469,1018.5313 Q1420.8125,1018.7656 1420.8125,1019.1563 Q1420.8125,1019.5313 1420.5469,1019.7656 Q1420.2813,1020 1419.6719,1020 L1414.5313,1020 Q1413.9219,1020 1413.6563,1019.7656 Q1413.3906,1019.5313 1413.3906,1019.1406 Q1413.3906,1018.7656 1413.6563,1018.5313 Q1413.9219,1018.2969 1414.5313,1018.2969 L1416.25,1018.2969 L1416.25,1011.6406 L1414.5313,1011.6406 Q1413.9219,1011.6406 1413.6563,1011.4063 Q1413.3906,1011.1719 1413.3906,1010.7813 Q1413.3906,1010.4063 1413.6563,1010.1719 Q1413.9219,1009.9375 1414.5313,1009.9375 L1419.6719,1009.9375 Q1420.2813,1009.9375 1420.5469,1010.1719 Q1420.8125,1010.4063 1420.8125,1010.7813 Q1420.8125,1011.1719 1420.5469,1011.4063 Q1420.2813,1011.6406 1419.6719,1011.6406 L1417.9531,1011.6406 Z " fill="#000000"/><text fill="#000000" font-family="sans-serif" font-size="14" font-style="italic" lengthAdjust="spacing" textLength="62" x="1431" y="1020.7969">DomainID</text><line style="stroke:#181818;stroke-width:0.5;" x1="1403" x2="1495" y1="1031" y2="1031"/><line style="stroke:#181818;stroke-width:0.5;" x1="1403" x2="1495" y1="1039" y2="1039"/></g><!--class AggregateRoot--><g id="elem_AggregateRoot"><rect codeLine="93" fill="#F1F1F1" height="48" id="AggregateRoot" rx="2.5" ry="2.5" style="stroke:#181818;stroke-width:0.5;" width="128" x="1372" y="829"/><ellipse cx="1387" cy="845" fill="#B4A7E5" rx="11" ry="11" style="stroke:#181818;stroke-width:1.0;"/><path d="M1387.9531,841.6406 L1387.9531,848.2969 L1389.6719,848.2969 Q1390.2813,848.2969 1390.5469,848.5313 Q1390.8125,848.7656 1390.8125,849.1563 Q1390.8125,849.5313 1390.5469,849.7656 Q1390.2813,850 1389.6719,850 L1384.5313,850 Q1383.9219,850 1383.6563,849.7656 Q1383.3906,849.5313 1383.3906,849.1406 Q1383.3906,848.7656 1383.6563,848.5313 Q1383.9219,848.2969 1384.5313,848.2969 L1386.25,848.2969 L1386.25,841.6406 L1384.5313,841.6406 Q1383.9219,841.6406 1383.6563,841.4063 Q1383.3906,841.1719 1383.3906,840.7813 Q1383.3906,840.4063 1383.6563,840.1719 Q1383.9219,839.9375 1384.5313,839.9375 L1389.6719,839.9375 Q1390.2813,839.9375 1390.5469,840.1719 Q1390.8125,840.4063 1390.8125,840.7813 Q1390.8125,841.1719 1390.5469,841.4063 Q1390.2813,841.6406 1389.6719,841.6406 L1387.9531,841.6406 Z " fill="#000000"/><text fill="#000000" font-family="sans-serif" font-size="14" font-style="italic" lengthAdjust="spacing" textLength="96" x="1401" y="850.7969">AggregateRoot</text><line style="stroke:#181818;stroke-width:0.5;" x1="1373" x2="1499" y1="861" y2="861"/><line style="stroke:#181818;stroke-width:0.5;" x1="1373" x2="1499" y1="869" y2="869"/></g><!--class ValueObject--><g id="elem_ValueObject"><rect codeLine="96" fill="#F1F1F1" height="48" id="ValueObject" rx="2.5" ry="2.5" style="stroke:#181818;stroke-width:0.5;" width="109" x="1390.5" y="1084"/><ellipse cx="1405.5" cy="1100" fill="#B4A7E5" rx="11" ry="11" style="stroke:#181818;stroke-width:1.0;"/><path d="M1406.4531,1096.6406 L1406.4531,1103.2969 L1408.1719,1103.2969 Q1408.7813,1103.2969 1409.0469,1103.5313 Q1409.3125,1103.7656 1409.3125,1104.1563 Q1409.3125,1104.5313 1409.0469,1104.7656 Q1408.7813,1105 1408.1719,1105 L1403.0313,1105 Q1402.4219,1105 1402.1563,1104.7656 Q1401.8906,1104.5313 1401.8906,1104.1406 Q1401.8906,1103.7656 1402.1563,1103.5313 Q1402.4219,1103.2969 1403.0313,1103.2969 L1404.75,1103.2969 L1404.75,1096.6406 L1403.0313,1096.6406 Q1402.4219,1096.6406 1402.1563,1096.4063 Q1401.8906,1096.1719 1401.8906,1095.7813 Q1401.8906,1095.4063 1402.1563,1095.1719 Q1402.4219,1094.9375 1403.0313,1094.9375 L1408.1719,1094.9375 Q1408.7813,1094.9375 1409.0469,1095.1719 Q1409.3125,1095.4063 1409.3125,1095.7813 Q1409.3125,1096.1719 1409.0469,1096.4063 Q1408.7813,1096.6406 1408.1719,1096.6406 L1406.4531,1096.6406 Z " fill="#000000"/><text fill="#000000" font-family="sans-serif" font-size="14" font-style="italic" lengthAdjust="spacing" textLength="77" x="1419.5" y="1105.7969">ValueObject</text><line style="stroke:#181818;stroke-width:0.5;" x1="1391.5" x2="1498.5" y1="1116" y2="1116"/><line style="stroke:#181818;stroke-width:0.5;" x1="1391.5" x2="1498.5" y1="1124" y2="1124"/></g><polygon fill="none" points="540.0164,337.8221,558.7379,334.7393,553.1439,324.1229,540.0164,337.8221" style="stroke:#181818;stroke-width:1.0;"/><path d="M936.3072,129.0074 C836.3631,181.6702 656.0923,276.659 555.9409,329.4311 " fill="none" style="stroke:#181818;stroke-width:1.0;stroke-dasharray:7.0,7.0;"/><polygon fill="#181818" points="1200.277,202.8798,1194.1732,195.1504,1195.8516,200.5525,1190.4495,202.2309,1200.277,202.8798" style="stroke:#181818;stroke-width:1.0;"/><path d="M1059.8115,129.0074 C1096.7393,148.4281 1141.4715,171.9534 1194.9666,200.087 " fill="none" style="stroke:#181818;stroke-width:1.0;stroke-dasharray:7.0,7.0;"/><text fill="#000000" font-family="sans-serif" font-size="13" lengthAdjust="spacing" textLength="43" x="1125" y="162.0283">creates</text><text fill="#000000" font-family="sans-serif" font-size="13" lengthAdjust="spacing" textLength="7" x="1192.277" y="198.9081">1</text><text fill="#000000" font-family="sans-serif" font-size="13" lengthAdjust="spacing" textLength="7" x="1051.8115" y="144.0357">1</text><polygon fill="none" points="924.2488,598.0642,942.9302,594.7465,937.2033,584.2012,924.2488,598.0642" style="stroke:#181818;stroke-width:1.0;"/><path d="M1079.7561,538.5824 C1078.5021,539.0557 1077.2501,539.5282 1076,540 C1011.126,564.484 991.4636,562.9014 930,595 C928.0877,595.9987 941.9878,588.4306 940.0668,589.4739 " fill="none" style="stroke:#181818;stroke-width:1.0;stroke-dasharray:7.0,7.0;"/><polygon fill="#181818" points="2108.2456,625.9083,2101.558,618.678,2103.6524,623.9329,2098.3975,626.0272,2108.2456,625.9083" style="stroke:#181818;stroke-width:1.0;"/><path d="M1908.5292,540.0191 C1980.4614,570.954 2045.3616,598.8646 2102.7337,623.5378 " fill="none" style="stroke:#181818;stroke-width:1.0;"/><text fill="#000000" font-family="sans-serif" font-size="13" lengthAdjust="spacing" textLength="21" x="1987" y="573.0283">has</text><text fill="#000000" font-family="sans-serif" font-size="13" lengthAdjust="spacing" textLength="7" x="2100.2456" y="621.9366">1</text><text fill="#000000" font-family="sans-serif" font-size="13" lengthAdjust="spacing" textLength="7" x="1900.5292" y="555.0475">1</text><polygon fill="#181818" points="1334.5547,625.9083,1343.0851,620.9856,1337.4971,621.8657,1336.617,616.2777,1334.5547,625.9083" style="stroke:#181818;stroke-width:1.0;"/><path d="M1397.0698,540.0191 C1374.5536,570.954 1356.0442,596.384 1338.0856,621.0572 " fill="none" style="stroke:#181818;stroke-width:1.0;"/><text fill="#000000" font-family="sans-serif" font-size="13" lengthAdjust="spacing" textLength="21" x="1380" y="573.0283">has</text><text fill="#000000" font-family="sans-serif" font-size="13" lengthAdjust="spacing" textLength="7" x="1326.5547" y="621.9366">1</text><text fill="#000000" font-family="sans-serif" font-size="13" lengthAdjust="spacing" textLength="7" x="1398.0698" y="555.0475">1</text><polygon fill="#181818" points="1677.3292,625.9083,1675.9526,616.1561,1674.6798,621.6679,1669.168,620.3951,1677.3292,625.9083" style="stroke:#181818;stroke-width:1.0;"/><path d="M1623.6657,540.0191 C1642.9938,570.954 1658.7341,596.1466 1674.1499,620.8198 " fill="none" style="stroke:#181818;stroke-width:1.0;"/><text fill="#000000" font-family="sans-serif" font-size="13" lengthAdjust="spacing" textLength="21" x="1645" y="573.0283">has</text><text fill="#000000" font-family="sans-serif" font-size="13" lengthAdjust="spacing" textLength="7" x="1669.3292" y="621.9366">1</text><text fill="#000000" font-family="sans-serif" font-size="13" lengthAdjust="spacing" textLength="7" x="1615.6657" y="555.0475">1</text><polygon fill="#181818" points="1519,625.9083,1523,616.9083,1519,620.9083,1515,616.9083,1519,625.9083" style="stroke:#181818;stroke-width:1.0;"/><path d="M1519,540.0191 C1519,570.954 1519,595.2351 1519,619.9083 " fill="none" style="stroke:#181818;stroke-width:1.0;"/><text fill="#000000" font-family="sans-serif" font-size="13" lengthAdjust="spacing" textLength="21" x="1520" y="573.0283">has</text><text fill="#000000" font-family="sans-serif" font-size="13" lengthAdjust="spacing" textLength="7" x="1511" y="621.9366">1</text><text fill="#000000" font-family="sans-serif" font-size="13" lengthAdjust="spacing" textLength="7" x="1511" y="555.0475">1</text><polygon fill="#181818" points="1858.3837,625.77,1854.2501,616.8306,1854.6229,622.4752,1848.9784,622.848,1858.3837,625.77" style="stroke:#181818;stroke-width:1.0;"/><path d="M1751.8807,540.0821 C1775.7992,558.3111 1799.5446,576.8406 1822,595 C1833.9802,604.6883 1841.9577,611.3792 1853.8707,621.8162 " fill="none" style="stroke:#181818;stroke-width:1.0;"/><text fill="#000000" font-family="sans-serif" font-size="13" lengthAdjust="spacing" textLength="21" x="1799" y="573.0283">has</text><text fill="#000000" font-family="sans-serif" font-size="13" lengthAdjust="spacing" textLength="7" x="1850.3837" y="621.7984">1</text><text fill="#000000" font-family="sans-serif" font-size="13" lengthAdjust="spacing" textLength="7" x="1743.8807" y="555.1105">1</text><polygon fill="#181818" points="1110.8205,625.9356,1120.3595,623.4843,1114.7404,622.8316,1115.3931,617.2126,1110.8205,625.9356" style="stroke:#181818;stroke-width:1.0;"/><path d="M1234.0439,540.0426 C1205.99,558.0877 1178.2223,576.5903 1152,595 C1138.3649,604.5727 1128.9263,611.5983 1115.5244,622.2108 " fill="none" style="stroke:#181818;stroke-width:1.0;"/><text fill="#000000" font-family="sans-serif" font-size="13" lengthAdjust="spacing" textLength="21" x="1202" y="573.0283">has</text><text fill="#000000" font-family="sans-serif" font-size="13" lengthAdjust="spacing" textLength="7" x="1102.8205" y="621.9639">1</text><text fill="#000000" font-family="sans-serif" font-size="13" lengthAdjust="spacing" textLength="7" x="1226.0439" y="555.0709">1</text><polygon fill="#181818" points="2488.9315,606.853,2482.5429,599.3572,2484.4222,604.6928,2479.0867,606.5721,2488.9315,606.853" style="stroke:#181818;stroke-width:1.0;"/><path d="M1958.1944,448.199 C2119.7929,483.2677 2302.2604,531.5212 2462,595 C2470.9261,598.5471 2474.5458,599.9615 2483.5204,604.2608 " fill="none" style="stroke:#181818;stroke-width:1.0;"/><text fill="#000000" font-family="sans-serif" font-size="13" lengthAdjust="spacing" textLength="21" x="2414" y="573.0283">has</text><text fill="#000000" font-family="sans-serif" font-size="13" lengthAdjust="spacing" textLength="7" x="2480.9315" y="602.8813">1</text><text fill="#000000" font-family="sans-serif" font-size="13" lengthAdjust="spacing" textLength="7" x="1959.1944" y="444.2273">1</text><polygon fill="none" points="1499.7141,1105.6729,1517.8798,1111.1507,1517.5334,1099.1557,1499.7141,1105.6729" style="stroke:#181818;stroke-width:1.0;"/><path d="M2151.8532,742.1417 C2119.161,770.4507 2090,808.0265 2090,852 C2090,852 2090,852 2090,1024 C2090,1083.3091 1673.447,1100.6548 1517.7066,1105.1532 " fill="none" style="stroke:#181818;stroke-width:1.0;stroke-dasharray:7.0,7.0;"/><polygon fill="none" points="1390.2839,1101.5052,1373.1256,1093.4064,1371.698,1105.3212,1390.2839,1101.5052" style="stroke:#181818;stroke-width:1.0;"/><path d="M1117.4912,742.3449 C1146.5377,771.4248 1173,809.563 1173,852 C1173,852 1173,852 1173,1024 C1173,1068.9901 1292.9833,1089.8468 1372.4118,1099.3638 " fill="none" style="stroke:#181818;stroke-width:1.0;stroke-dasharray:7.0,7.0;"/><polygon fill="none" points="1446.4752,998.716,1450.4998,980.1741,1438.5698,981.4677,1446.4752,998.716" style="stroke:#181818;stroke-width:1.0;"/><path d="M1442.507,962.1201 C1443.7449,973.5362 1443.2945,969.3827 1444.5348,980.8209 " fill="none" style="stroke:#181818;stroke-width:1.0;"/><polygon fill="none" points="1438.8779,913.716,1444.0045,895.448,1432.0184,896.0257,1438.8779,913.716" style="stroke:#181818;stroke-width:1.0;"/><path d="M1437.1142,877.1201 C1437.6644,888.5362 1437.4602,884.2986 1438.0114,895.7369 " fill="none" style="stroke:#181818;stroke-width:1.0;"/><polygon fill="none" points="1371.6971,846.9983,1354.2579,839.5234,1353.2607,851.4819,1371.6971,846.9983" style="stroke:#181818;stroke-width:1.0;"/><path d="M913.1675,773.1507 C918.7279,776.0286 924.3512,778.6684 930,781 C1008.7176,813.4911 1236.0461,835.6874 1353.7593,845.5026 " fill="none" style="stroke:#181818;stroke-width:1.0;stroke-dasharray:7.0,7.0;"/><polygon fill="none" points="1411.2851,998.8989,1400.3389,983.4011,1393.2295,993.0683,1411.2851,998.8989" style="stroke:#181818;stroke-width:1.0;"/><path d="M1299.4282,742.0646 C1308.3232,801.2658 1328.7528,894.4618 1374,962 C1383.6522,976.4074 1383.339,978.3469 1396.7842,988.2347 " fill="none" style="stroke:#181818;stroke-width:1.0;stroke-dasharray:7.0,7.0;"/><polygon fill="none" points="1480.2903,998.8738,1498.0593,992.2208,1490.5137,982.89,1480.2903,998.8738" style="stroke:#181818;stroke-width:1.0;"/><path d="M1677.266,742.0178 C1640.2606,799.5464 1579.4806,889.9295 1519,962 C1507.6819,975.487 1507.1623,977.1431 1494.2865,987.5554 " fill="none" style="stroke:#181818;stroke-width:1.0;stroke-dasharray:7.0,7.0;"/><polygon fill="none" points="1490.2586,998.9786,1508.8706,995.2918,1502.9361,984.862,1490.2586,998.9786" style="stroke:#181818;stroke-width:1.0;"/><path d="M1865.9408,742.0622 C1852.0741,755.3873 1836.8862,769.1395 1822,781 C1708.7889,871.2005 1576.6536,949.821 1505.9034,990.0769 " fill="none" style="stroke:#181818;stroke-width:1.0;stroke-dasharray:7.0,7.0;"/><polygon fill="none" points="1479.1579,998.8742,1496.4188,990.9963,1488.2399,982.2154,1479.1579,998.8742" style="stroke:#181818;stroke-width:1.0;"/><path d="M1527.9707,742.2506 C1534.4748,800.1612 1537.5028,891.0192 1507,962 C1500.9367,976.1096 1503.122,976.5532 1492.3293,986.6058 " fill="none" style="stroke:#181818;stroke-width:1.0;stroke-dasharray:7.0,7.0;"/><polygon fill="none" points="1446.1221,1083.716,1452.9816,1066.0257,1440.9955,1065.448,1446.1221,1083.716" style="stroke:#181818;stroke-width:1.0;"/><path d="M1447.8858,1047.1201 C1447.3356,1058.5362 1447.5398,1054.2986 1446.9886,1065.7369 " fill="none" style="stroke:#181818;stroke-width:1.0;"/><!--SRC=[pLRRYjim47tNLqptAI4Nw6i8WOAt9R3RBitIrwArLQzRtx2LGcZpxzN5aaUod6woeJGlaJLdHaSpPoIzgHkQ5XHoUgZs7Dg2SLfIGceQ_w0fWwGgQ5OkTwnigmP-4GBgbvMSDTzep41RtjEOLyr1003zPX0tZ7AcCPE4_SnYjerW1L4td4DH9In_eFnPpDwRyHnQvV9ug3L-XpwDyICjc3N9ZpcaTRk23m-xgPcsT8w6UPpJjdLPRuiw_- -P-nb7X6UGChwD9jPt6xaskKHlbL-ktRAN8FlXOl0- -bZwsqMQ34cK6Rk8BpJVAq9gyEdfEuivGl1gnvkiJDKoQaIwH0HLkTpjovRnnwnWhanrgKzZXyxhDIjvnW-RZHX-hYek1dsk5_0rM7SC62do4884Wb9apK4DEJ3BNILI8htTg7di4b0oDWiPWj8XGVNmW_xBTl153fCfd98vjfyGkeQzGEeuNaZiEl4A51OpQWWDSz9-H48LsnMAGr5yuULKw7AVi9NGzFufT-gQLsKQDivau8dn1MEVWtMnSrwsxpeVHNiGLG9C18pGMtBEMLMOyQrrMoW5ocbuf40RPb9sOb6mgOUpPnqC0XrxHMDgeYhhTQIEY6qqO6MvPKcGcSjF77cuhmCClVCQma6F-FXon3X2LH4S1fivpXE_4pr-8wmKcOvAw70PgQjpEc7u2kwgcEPoceIF5tqx_DLxIlpR0XF7ZTLt_NZ-Qc4E9B2_6MjziWMpfg_EGDuC0ti2d2fWO7bxbQBolg1YmvioIH9zA_RF24taLjrrYienP1US0xPtQTgmLBoFvFre0RqTAQAp2llmpRLS_jwuJx40wERjZG1krF-vT_cgUyQrX9phghXvJlfXTcuaINonk6W3HlJFjBruMJNOkRr_fNZNYHNrhubNnxf7Zv0hRR9xdRmwchpUTHXoaGgm84KxB_5p0p4z1IDEpoyM0ccwdBWjZMmQFI0zx1AvcXF5j7mdEnzhbxPY6aNqPHs5M1MD8W9pUfyZsVe3]--></g></svg>