<?xml version="1.0" encoding="us-ascii" standalone="no"?><svg xmlns="http://www.w3.org/2000/svg" xmlns:xlink="http://www.w3.org/1999/xlink" contentStyleType="text/css" height="441px" preserveAspectRatio="none" style="width:1281px;height:441px;background:#FFFFFF;" version="1.1" viewBox="0 0 1281 441" width="1281px" zoomAndPan="magnify"><defs/><g><!--cluster SmartHome--><g id="cluster_SmartHome"><path d="M16.5,4 L97.5,4 A3.75,3.75 0 0 1 100,6.5 L107,28.6211 L1271.5,28.6211 A2.5,2.5 0 0 1 1274,31.1211 L1274,431.5 A2.5,2.5 0 0 1 1271.5,434 L16.5,434 A2.5,2.5 0 0 1 14,431.5 L14,6.5 A2.5,2.5 0 0 1 16.5,4 " fill="none" style="stroke:#000000;stroke-width:1.5;"/><line style="stroke:#000000;stroke-width:1.5;" x1="14" x2="107" y1="28.6211" y2="28.6211"/><text fill="#000000" font-family="sans-serif" font-size="14" font-weight="bold" lengthAdjust="spacing" textLength="80" x="18" y="21.1074">SmartHome</text></g><!--cluster sensors--><g id="cluster_sensors"><path d="M24.5,33 L82.5,33 A3.75,3.75 0 0 1 85,35.5 L92,57.6211 L445.5,57.6211 A2.5,2.5 0 0 1 448,60.1211 L448,423.5 A2.5,2.5 0 0 1 445.5,426 L24.5,426 A2.5,2.5 0 0 1 22,423.5 L22,35.5 A2.5,2.5 0 0 1 24.5,33 " fill="none" style="stroke:#000000;stroke-width:1.5;"/><line style="stroke:#000000;stroke-width:1.5;" x1="22" x2="92" y1="57.6211" y2="57.6211"/><text fill="#000000" font-family="sans-serif" font-size="14" font-weight="bold" lengthAdjust="spacing" textLength="57" x="26" y="50.1074">sensors</text></g><!--cluster domain--><g id="cluster_domain"><path d="M458.5,276 L510.5,276 A3.75,3.75 0 0 1 513,278.5 L520,300.6211 L1263.5,300.6211 A2.5,2.5 0 0 1 1266,303.1211 L1266,395.5 A2.5,2.5 0 0 1 1263.5,398 L458.5,398 A2.5,2.5 0 0 1 456,395.5 L456,278.5 A2.5,2.5 0 0 1 458.5,276 " fill="none" style="stroke:#000000;stroke-width:1.5;"/><line style="stroke:#000000;stroke-width:1.5;" x1="456" x2="520" y1="300.6211" y2="300.6211"/><text fill="#000000" font-family="sans-serif" font-size="14" font-weight="bold" lengthAdjust="spacing" textLength="51" x="460" y="293.1074">domain</text></g><!--class WindSensor--><g id="elem_WindSensor"><rect codeLine="6" fill="#F1F1F1" height="159.7266" id="WindSensor" rx="2.5" ry="2.5" style="stroke:#181818;stroke-width:0.5;" width="410" x="30" y="62"/><ellipse cx="192.25" cy="78" fill="#ADD1B2" rx="11" ry="11" style="stroke:#181818;stroke-width:1.0;"/><path d="M195.0156,73.875 Q195.1719,73.6563 195.3594,73.5469 Q195.5469,73.4375 195.7656,73.4375 Q196.1406,73.4375 196.375,73.7031 Q196.6094,73.9531 196.6094,74.5625 L196.6094,76.0156 Q196.6094,76.625 196.375,76.8906 Q196.1406,77.1563 195.7656,77.1563 Q195.4219,77.1563 195.2188,76.9531 Q195.0156,76.7656 194.9063,76.25 Q194.8594,75.8906 194.6719,75.7031 Q194.3438,75.3281 193.7344,75.1094 Q193.125,74.8906 192.5,74.8906 Q191.7344,74.8906 191.0938,75.2188 Q190.4688,75.5469 189.9688,76.2969 Q189.4844,77.0469 189.4844,78.0781 L189.4844,79.1719 Q189.4844,80.4063 190.375,81.2344 Q191.2656,82.0469 192.8594,82.0469 Q193.7969,82.0469 194.4531,81.7969 Q194.8438,81.6406 195.2656,81.2031 Q195.5313,80.9375 195.6719,80.8594 Q195.8281,80.7813 196.0313,80.7813 Q196.3594,80.7813 196.6094,81.0469 Q196.875,81.2969 196.875,81.6406 Q196.875,81.9844 196.5313,82.3906 Q196.0313,82.9688 195.2344,83.2969 Q194.1563,83.75 192.8594,83.75 Q191.3438,83.75 190.1406,83.125 Q189.1563,82.625 188.4688,81.5625 Q187.7813,80.4844 187.7813,79.2031 L187.7813,78.0469 Q187.7813,76.7188 188.3906,75.5781 Q189.0156,74.4219 190.1094,73.8125 Q191.2031,73.1875 192.4375,73.1875 Q193.1719,73.1875 193.8125,73.3594 Q194.4688,73.5156 195.0156,73.875 Z " fill="#000000"/><text fill="#000000" font-family="sans-serif" font-size="14" lengthAdjust="spacing" textLength="77" x="212.75" y="83.7969">WindSensor</text><line style="stroke:#181818;stroke-width:0.5;" x1="31" x2="439" y1="94" y2="94"/><rect fill="none" height="6" style="stroke:#C82930;stroke-width:1.0;" width="6" x="38" y="105.8105"/><text fill="#000000" font-family="sans-serif" font-size="14" lengthAdjust="spacing" textLength="202" x="50" y="113.1074">final _sensorType : SensorType</text><rect fill="none" height="6" style="stroke:#C82930;stroke-width:1.0;" width="6" x="38" y="124.4316"/><text fill="#000000" font-family="sans-serif" font-size="14" lengthAdjust="spacing" textLength="167" x="50" y="131.7285">_value : WindSensorValue</text><line style="stroke:#181818;stroke-width:0.5;" x1="31" x2="439" y1="139.2422" y2="139.2422"/><ellipse cx="41" cy="154.0527" fill="#84BE84" rx="3" ry="3" style="stroke:#038048;stroke-width:1.0;"/><text fill="#000000" font-family="sans-serif" font-size="14" lengthAdjust="spacing" textLength="271" x="50" y="158.3496">WindSensor(catalogue : CatalogueSensor)</text><ellipse cx="41" cy="172.6738" fill="#84BE84" rx="3" ry="3" style="stroke:#038048;stroke-width:1.0;"/><text fill="#000000" font-family="sans-serif" font-size="14" lengthAdjust="spacing" textLength="384" x="50" y="176.9707">setSensorType(catalogue : CatalogueSensor) : SensorType)</text><ellipse cx="41" cy="191.2949" fill="#84BE84" rx="3" ry="3" style="stroke:#038048;stroke-width:1.0;"/><text fill="#000000" font-family="sans-serif" font-size="14" lengthAdjust="spacing" textLength="196" x="50" y="195.5918">getSensorType() : SensorType</text><ellipse cx="41" cy="209.916" fill="#84BE84" rx="3" ry="3" style="stroke:#038048;stroke-width:1.0;"/><text fill="#000000" font-family="sans-serif" font-size="14" lengthAdjust="spacing" textLength="114" x="50" y="214.2129">getValue() : Value</text></g><!--class WindSensorValue--><g id="elem_WindSensorValue"><rect codeLine="15" fill="#F1F1F1" height="141.1055" id="WindSensorValue" rx="2.5" ry="2.5" style="stroke:#181818;stroke-width:0.5;" width="360" x="64" y="277"/><ellipse cx="183.25" cy="293" fill="#ADD1B2" rx="11" ry="11" style="stroke:#181818;stroke-width:1.0;"/><path d="M186.0156,288.875 Q186.1719,288.6563 186.3594,288.5469 Q186.5469,288.4375 186.7656,288.4375 Q187.1406,288.4375 187.375,288.7031 Q187.6094,288.9531 187.6094,289.5625 L187.6094,291.0156 Q187.6094,291.625 187.375,291.8906 Q187.1406,292.1563 186.7656,292.1563 Q186.4219,292.1563 186.2188,291.9531 Q186.0156,291.7656 185.9063,291.25 Q185.8594,290.8906 185.6719,290.7031 Q185.3438,290.3281 184.7344,290.1094 Q184.125,289.8906 183.5,289.8906 Q182.7344,289.8906 182.0938,290.2188 Q181.4688,290.5469 180.9688,291.2969 Q180.4844,292.0469 180.4844,293.0781 L180.4844,294.1719 Q180.4844,295.4063 181.375,296.2344 Q182.2656,297.0469 183.8594,297.0469 Q184.7969,297.0469 185.4531,296.7969 Q185.8438,296.6406 186.2656,296.2031 Q186.5313,295.9375 186.6719,295.8594 Q186.8281,295.7813 187.0313,295.7813 Q187.3594,295.7813 187.6094,296.0469 Q187.875,296.2969 187.875,296.6406 Q187.875,296.9844 187.5313,297.3906 Q187.0313,297.9688 186.2344,298.2969 Q185.1563,298.75 183.8594,298.75 Q182.3438,298.75 181.1406,298.125 Q180.1563,297.625 179.4688,296.5625 Q178.7813,295.4844 178.7813,294.2031 L178.7813,293.0469 Q178.7813,291.7188 179.3906,290.5781 Q180.0156,289.4219 181.1094,288.8125 Q182.2031,288.1875 183.4375,288.1875 Q184.1719,288.1875 184.8125,288.3594 Q185.4688,288.5156 186.0156,288.875 Z " fill="#000000"/><text fill="#000000" font-family="sans-serif" font-size="14" lengthAdjust="spacing" textLength="113" x="203.75" y="298.7969">WindSensorValue</text><line style="stroke:#181818;stroke-width:0.5;" x1="65" x2="423" y1="309" y2="309"/><rect fill="none" height="6" style="stroke:#C82930;stroke-width:1.0;" width="6" x="72" y="320.8105"/><text fill="#000000" font-family="sans-serif" font-size="14" lengthAdjust="spacing" textLength="102" x="84" y="328.1074">_speed : double</text><rect fill="none" height="6" style="stroke:#C82930;stroke-width:1.0;" width="6" x="72" y="339.4316"/><text fill="#000000" font-family="sans-serif" font-size="14" lengthAdjust="spacing" textLength="117" x="84" y="346.7285">_direction : double</text><line style="stroke:#181818;stroke-width:0.5;" x1="65" x2="423" y1="354.2422" y2="354.2422"/><ellipse cx="75" cy="369.0527" fill="#84BE84" rx="3" ry="3" style="stroke:#038048;stroke-width:1.0;"/><text fill="#000000" font-family="sans-serif" font-size="14" lengthAdjust="spacing" textLength="334" x="84" y="373.3496">WindSensorValue(speed : double, direction : double)</text><ellipse cx="75" cy="387.6738" fill="#84BE84" rx="3" ry="3" style="stroke:#038048;stroke-width:1.0;"/><text fill="#000000" font-family="sans-serif" font-size="14" lengthAdjust="spacing" textLength="126" x="84" y="391.9707">getSpeed() : double</text><ellipse cx="75" cy="406.2949" fill="#84BE84" rx="3" ry="3" style="stroke:#038048;stroke-width:1.0;"/><text fill="#000000" font-family="sans-serif" font-size="14" lengthAdjust="spacing" textLength="141" x="84" y="410.5918">getDirection() : double</text></g><!--class Value--><g id="elem_Value"><rect codeLine="35" fill="#F1F1F1" height="48" id="Value" rx="2.5" ry="2.5" style="stroke:#181818;stroke-width:0.5;" width="68" x="464" y="323.5"/><ellipse cx="479" cy="339.5" fill="#B4A7E5" rx="11" ry="11" style="stroke:#181818;stroke-width:1.0;"/><path d="M479.9531,336.1406 L479.9531,342.7969 L481.6719,342.7969 Q482.2813,342.7969 482.5469,343.0313 Q482.8125,343.2656 482.8125,343.6563 Q482.8125,344.0313 482.5469,344.2656 Q482.2813,344.5 481.6719,344.5 L476.5313,344.5 Q475.9219,344.5 475.6563,344.2656 Q475.3906,344.0313 475.3906,343.6406 Q475.3906,343.2656 475.6563,343.0313 Q475.9219,342.7969 476.5313,342.7969 L478.25,342.7969 L478.25,336.1406 L476.5313,336.1406 Q475.9219,336.1406 475.6563,335.9063 Q475.3906,335.6719 475.3906,335.2813 Q475.3906,334.9063 475.6563,334.6719 Q475.9219,334.4375 476.5313,334.4375 L481.6719,334.4375 Q482.2813,334.4375 482.5469,334.6719 Q482.8125,334.9063 482.8125,335.2813 Q482.8125,335.6719 482.5469,335.9063 Q482.2813,336.1406 481.6719,336.1406 L479.9531,336.1406 Z " fill="#000000"/><text fill="#000000" font-family="sans-serif" font-size="14" font-style="italic" lengthAdjust="spacing" textLength="36" x="493" y="345.2969">Value</text><line style="stroke:#181818;stroke-width:0.5;" x1="465" x2="531" y1="355.5" y2="355.5"/><line style="stroke:#181818;stroke-width:0.5;" x1="465" x2="531" y1="363.5" y2="363.5"/></g><!--class Sensor--><g id="elem_Sensor"><rect codeLine="27" fill="#F1F1F1" height="85.2422" id="Sensor" rx="2.5" ry="2.5" style="stroke:#181818;stroke-width:0.5;" width="222" x="550" y="305"/><ellipse cx="634.25" cy="321" fill="#B4A7E5" rx="11" ry="11" style="stroke:#181818;stroke-width:1.0;"/><path d="M635.2031,317.6406 L635.2031,324.2969 L636.9219,324.2969 Q637.5313,324.2969 637.7969,324.5313 Q638.0625,324.7656 638.0625,325.1563 Q638.0625,325.5313 637.7969,325.7656 Q637.5313,326 636.9219,326 L631.7813,326 Q631.1719,326 630.9063,325.7656 Q630.6406,325.5313 630.6406,325.1406 Q630.6406,324.7656 630.9063,324.5313 Q631.1719,324.2969 631.7813,324.2969 L633.5,324.2969 L633.5,317.6406 L631.7813,317.6406 Q631.1719,317.6406 630.9063,317.4063 Q630.6406,317.1719 630.6406,316.7813 Q630.6406,316.4063 630.9063,316.1719 Q631.1719,315.9375 631.7813,315.9375 L636.9219,315.9375 Q637.5313,315.9375 637.7969,316.1719 Q638.0625,316.4063 638.0625,316.7813 Q638.0625,317.1719 637.7969,317.4063 Q637.5313,317.6406 636.9219,317.6406 L635.2031,317.6406 Z " fill="#000000"/><text fill="#000000" font-family="sans-serif" font-size="14" font-style="italic" lengthAdjust="spacing" textLength="45" x="654.75" y="326.7969">Sensor</text><line style="stroke:#181818;stroke-width:0.5;" x1="551" x2="771" y1="337" y2="337"/><line style="stroke:#181818;stroke-width:0.5;" x1="551" x2="771" y1="345" y2="345"/><ellipse cx="561" cy="359.8105" fill="#84BE84" rx="3" ry="3" style="stroke:#038048;stroke-width:1.0;"/><text fill="#000000" font-family="sans-serif" font-size="14" lengthAdjust="spacing" textLength="196" x="570" y="364.1074">getSensorType() : SensorType</text><ellipse cx="561" cy="378.4316" fill="#84BE84" rx="3" ry="3" style="stroke:#038048;stroke-width:1.0;"/><text fill="#000000" font-family="sans-serif" font-size="14" lengthAdjust="spacing" textLength="114" x="570" y="382.7285">getValue() : Value</text></g><!--class SensorType--><g id="elem_SensorType"><rect codeLine="32" fill="#F1F1F1" height="48" id="SensorType" rx="2.5" ry="2.5" style="stroke:#181818;stroke-width:0.5;" width="109" x="790.5" y="323.5"/><ellipse cx="805.5" cy="339.5" fill="#ADD1B2" rx="11" ry="11" style="stroke:#181818;stroke-width:1.0;"/><path d="M808.2656,335.375 Q808.4219,335.1563 808.6094,335.0469 Q808.7969,334.9375 809.0156,334.9375 Q809.3906,334.9375 809.625,335.2031 Q809.8594,335.4531 809.8594,336.0625 L809.8594,337.5156 Q809.8594,338.125 809.625,338.3906 Q809.3906,338.6563 809.0156,338.6563 Q808.6719,338.6563 808.4688,338.4531 Q808.2656,338.2656 808.1563,337.75 Q808.1094,337.3906 807.9219,337.2031 Q807.5938,336.8281 806.9844,336.6094 Q806.375,336.3906 805.75,336.3906 Q804.9844,336.3906 804.3438,336.7188 Q803.7188,337.0469 803.2188,337.7969 Q802.7344,338.5469 802.7344,339.5781 L802.7344,340.6719 Q802.7344,341.9063 803.625,342.7344 Q804.5156,343.5469 806.1094,343.5469 Q807.0469,343.5469 807.7031,343.2969 Q808.0938,343.1406 808.5156,342.7031 Q808.7813,342.4375 808.9219,342.3594 Q809.0781,342.2813 809.2813,342.2813 Q809.6094,342.2813 809.8594,342.5469 Q810.125,342.7969 810.125,343.1406 Q810.125,343.4844 809.7813,343.8906 Q809.2813,344.4688 808.4844,344.7969 Q807.4063,345.25 806.1094,345.25 Q804.5938,345.25 803.3906,344.625 Q802.4063,344.125 801.7188,343.0625 Q801.0313,341.9844 801.0313,340.7031 L801.0313,339.5469 Q801.0313,338.2188 801.6406,337.0781 Q802.2656,335.9219 803.3594,335.3125 Q804.4531,334.6875 805.6875,334.6875 Q806.4219,334.6875 807.0625,334.8594 Q807.7188,335.0156 808.2656,335.375 Z " fill="#000000"/><text fill="#000000" font-family="sans-serif" font-size="14" lengthAdjust="spacing" textLength="77" x="819.5" y="345.2969">SensorType</text><line style="stroke:#181818;stroke-width:0.5;" x1="791.5" x2="898.5" y1="355.5" y2="355.5"/><line style="stroke:#181818;stroke-width:0.5;" x1="791.5" x2="898.5" y1="363.5" y2="363.5"/></g><!--class CatalogueSensor--><g id="elem_CatalogueSensor"><rect codeLine="38" fill="#F1F1F1" height="66.6211" id="CatalogueSensor" rx="2.5" ry="2.5" style="stroke:#181818;stroke-width:0.5;" width="340" x="918" y="314"/><ellipse cx="1028.75" cy="330" fill="#ADD1B2" rx="11" ry="11" style="stroke:#181818;stroke-width:1.0;"/><path d="M1031.5156,325.875 Q1031.6719,325.6563 1031.8594,325.5469 Q1032.0469,325.4375 1032.2656,325.4375 Q1032.6406,325.4375 1032.875,325.7031 Q1033.1094,325.9531 1033.1094,326.5625 L1033.1094,328.0156 Q1033.1094,328.625 1032.875,328.8906 Q1032.6406,329.1563 1032.2656,329.1563 Q1031.9219,329.1563 1031.7188,328.9531 Q1031.5156,328.7656 1031.4063,328.25 Q1031.3594,327.8906 1031.1719,327.7031 Q1030.8438,327.3281 1030.2344,327.1094 Q1029.625,326.8906 1029,326.8906 Q1028.2344,326.8906 1027.5938,327.2188 Q1026.9688,327.5469 1026.4688,328.2969 Q1025.9844,329.0469 1025.9844,330.0781 L1025.9844,331.1719 Q1025.9844,332.4063 1026.875,333.2344 Q1027.7656,334.0469 1029.3594,334.0469 Q1030.2969,334.0469 1030.9531,333.7969 Q1031.3438,333.6406 1031.7656,333.2031 Q1032.0313,332.9375 1032.1719,332.8594 Q1032.3281,332.7813 1032.5313,332.7813 Q1032.8594,332.7813 1033.1094,333.0469 Q1033.375,333.2969 1033.375,333.6406 Q1033.375,333.9844 1033.0313,334.3906 Q1032.5313,334.9688 1031.7344,335.2969 Q1030.6563,335.75 1029.3594,335.75 Q1027.8438,335.75 1026.6406,335.125 Q1025.6563,334.625 1024.9688,333.5625 Q1024.2813,332.4844 1024.2813,331.2031 L1024.2813,330.0469 Q1024.2813,328.7188 1024.8906,327.5781 Q1025.5156,326.4219 1026.6094,325.8125 Q1027.7031,325.1875 1028.9375,325.1875 Q1029.6719,325.1875 1030.3125,325.3594 Q1030.9688,325.5156 1031.5156,325.875 Z " fill="#000000"/><text fill="#000000" font-family="sans-serif" font-size="14" lengthAdjust="spacing" textLength="110" x="1049.25" y="335.7969">CatalogueSensor</text><line style="stroke:#181818;stroke-width:0.5;" x1="919" x2="1257" y1="346" y2="346"/><line style="stroke:#181818;stroke-width:0.5;" x1="919" x2="1257" y1="354" y2="354"/><ellipse cx="929" cy="368.8105" fill="#84BE84" rx="3" ry="3" style="stroke:#038048;stroke-width:1.0;"/><text fill="#000000" font-family="sans-serif" font-size="14" lengthAdjust="spacing" textLength="314" x="938" y="373.1074">getSensorType(description : String) : SensorType</text></g><polygon fill="none" points="463.9284,347.5,445.9284,341.5,445.9284,353.5,463.9284,347.5" style="stroke:#181818;stroke-width:1.0;"/><path d="M445.9284,347.5 C432.6463,347.5 437.3642,347.5 424.082,347.5 " fill="none" style="stroke:#181818;stroke-width:1.0;stroke-dasharray:7.0,7.0;"/><polygon fill="none" points="593.578,304.9637,581.0642,290.7017,575.0098,301.0624,593.578,304.9637" style="stroke:#181818;stroke-width:1.0;"/><path d="M426.8264,222.1287 C465.0432,239.0788 504.6012,257.4835 541,276 C558.3366,284.8193 561.0948,285.9816 578.037,295.882 " fill="none" style="stroke:#181818;stroke-width:1.0;stroke-dasharray:7.0,7.0;"/><polygon fill="#181818" points="829.7407,323.4765,827.6137,313.8601,826.7711,319.4539,821.1774,318.6113,829.7407,323.4765" style="stroke:#181818;stroke-width:1.0;"/><path d="M440.1328,163.6887 C547.5074,181.5166 677.7407,214.6198 781,276 C800.8937,287.8254 814.6058,302.9741 826.1772,318.6493 " fill="none" style="stroke:#181818;stroke-width:1.0;"/><text fill="#000000" font-family="sans-serif" font-size="13" lengthAdjust="spacing" textLength="35" x="742" y="255.0283">&#171;has&#187;</text><text fill="#000000" font-family="sans-serif" font-size="13" lengthAdjust="spacing" textLength="7" x="821.7407" y="319.5049">1</text><text fill="#000000" font-family="sans-serif" font-size="13" lengthAdjust="spacing" textLength="7" x="441.1328" y="159.7171">1</text><polygon fill="#181818" points="240.914,276.7226,244.5125,267.5547,240.6931,271.7275,236.5203,267.9082,240.914,276.7226" style="stroke:#181818;stroke-width:1.0;"/><path d="M238.5054,222.2611 C239.3,240.2288 239.8731,253.1872 240.6489,270.7285 " fill="none" style="stroke:#181818;stroke-width:1.0;"/><text fill="#000000" font-family="sans-serif" font-size="13" lengthAdjust="spacing" textLength="63" x="241" y="255.0283">&#171;contains&#187;</text><text fill="#000000" font-family="sans-serif" font-size="13" lengthAdjust="spacing" textLength="7" x="232.914" y="272.751">1</text><text fill="#000000" font-family="sans-serif" font-size="13" lengthAdjust="spacing" textLength="7" x="230.5054" y="237.2894">1</text><polygon fill="#181818" points="1010.2007,313.9196,1003.3446,306.8489,1005.5621,312.053,1000.3581,314.2705,1010.2007,313.9196" style="stroke:#181818;stroke-width:1.0;"/><path d="M440.2674,169.2322 C575.7006,189.9939 755.7443,224.24 909,276 C942.5425,287.3285 973.4305,299.1227 1004.6344,311.6797 " fill="none" style="stroke:#181818;stroke-width:1.0;"/><text fill="#000000" font-family="sans-serif" font-size="13" lengthAdjust="spacing" textLength="42" x="838" y="255.0283">&#171;uses&#187;</text><polygon fill="none" points="463.9284,347.5,445.9284,341.5,445.9284,353.5,463.9284,347.5" style="stroke:#181818;stroke-width:1.0;"/><path d="M424.082,347.5 C437.3642,347.5 432.6463,347.5 445.9284,347.5 " fill="none" style="stroke:#181818;stroke-width:1.0;stroke-dasharray:7.0,7.0;"/><!--SRC=[hLF1ReCm3Btp5LvFhJgGTfqGb-smErDthBpWicYGe2HCgZR-VH1e2OIsqhHS8F5xp_QJVLSfp4k40e-oDg1BCYWm22fadvWJf2Kgyo9BYZG9BPM6xo20zh02jOOtBhBK1jft64u81owmW7rFUJrM18-GdYyESF-5HTr5Hw5TztA6R9t8cg71GkQMy7JwxsCRXw79ZCckaYPbkHBvH6ApNBw5sN8jOYoyMRR80e2NLK4b2QCTSpDP8XTHZt2TtEkAA6lLCrc_5nFhCgw86Iw57ztEiwwdClVWa-VjTmJRbwVTHfzFz3cYRRrPcfw-mTFmS6587P0HUCFphzwFn253Cy_lEZwXpaRbIeKPQQPuDPYP6iL5lb1rqnaJUFiKEIiKHJ-9FnHzy3fpzR22C4pizuB0i8Pn_84wIVuYvmDtm_R6CPF2jBbkAdUgNe5phpl1MjCjiJwxDUt2AWM_]--></g></svg>