<?xml version="1.0" encoding="us-ascii" standalone="no"?><svg xmlns="http://www.w3.org/2000/svg" xmlns:xlink="http://www.w3.org/1999/xlink" contentStyleType="text/css" height="257px" preserveAspectRatio="none" style="width:169px;height:257px;background:#FFFFFF;" version="1.1" viewBox="0 0 169 257" width="169px" zoomAndPan="magnify"><defs/><g><!--cluster SmartHome--><g id="cluster_SmartHome"><rect fill="none" height="140" rx="2.5" ry="2.5" style="stroke:#181818;stroke-width:1.0;" width="139" x="24" y="111"/><rect fill="none" height="10" style="stroke:#181818;stroke-width:1.0;" width="15" x="143" y="116"/><rect fill="none" height="2" style="stroke:#181818;stroke-width:1.0;" width="4" x="141" y="118"/><rect fill="none" height="2" style="stroke:#181818;stroke-width:1.0;" width="4" x="141" y="122"/><text fill="#000000" font-family="sans-serif" font-size="14" font-style="italic" lengthAdjust="spacing" textLength="92" x="47.5" y="139.1074">&#171;system (C4)&#187;</text><text fill="#000000" font-family="sans-serif" font-size="14" font-style="italic" lengthAdjust="spacing" textLength="86" x="50.5" y="157.7285">&#171;component&#187;</text><text fill="#000000" font-family="sans-serif" font-size="14" font-weight="bold" lengthAdjust="spacing" textLength="80" x="53.5" y="176.3496">SmartHome</text></g><text fill="#000000" font-family="sans-serif" font-size="14" lengthAdjust="spacing" textLength="16" x="34" y="89.4863">p1</text><rect fill="#F1F1F1" height="12" style="stroke:#181818;stroke-width:1.5;" width="12" x="36" y="105"/><text fill="#000000" font-family="sans-serif" font-size="14" lengthAdjust="spacing" textLength="16" x="85" y="89.4863">p2</text><rect fill="#F1F1F1" height="12" style="stroke:#181818;stroke-width:1.5;" width="12" x="87" y="105"/><!--entity UI--><g id="elem_UI"><ellipse cx="14" cy="14" fill="#F1F1F1" rx="8" ry="8" style="stroke:#181818;stroke-width:0.5;"/><text fill="#000000" font-family="sans-serif" font-size="14" lengthAdjust="spacing" textLength="12" x="8" y="46.1074">UI</text></g><!--entity SunTimeAPI--><g id="elem_SunTimeAPI"><ellipse cx="122" cy="14" fill="#F1F1F1" rx="8" ry="8" style="stroke:#181818;stroke-width:0.5;"/><text fill="#000000" font-family="sans-serif" font-size="14" lengthAdjust="spacing" textLength="77" x="83.5" y="46.1074">SunTimeAPI</text></g><!--link UI to p1--><g id="link_UI_p1"><path d="M16.39,23.1 C21.99,42.12 35.88,89.23 40.49,104.87 " fill="none" id="UI-p1" style="stroke:#181818;stroke-width:1.0;"/></g><!--reverse link SunTimeAPI to p2--><g id="link_SunTimeAPI_p2"><path d="M116.6086,32.6637 C110.7986,51.6837 99.34,89.23 94.57,104.87 " fill="none" id="SunTimeAPI-backto-p2" style="stroke:#181818;stroke-width:1.0;"/><path d="M110.5424,23.5732 A9,9 0 0 0 126.719 28.5146" fill="none" style="stroke:#181818;stroke-width:1.5;"/></g><!--SRC=[KyyeAIaejjBNByX9p2ifpStHIyxFrGVYWloyrBmItPJCnFIYn5mkBhYGGd1kOb69HtvkgeADJN5bSKbgheA6iuccdHsG3rS5v5Lp5UGNbIWK649f8wvQBgvGJmNTbFpoF5sGU71fNaXcRgfZWAU29apKY0i0]--></g></svg>