<?xml version="1.0" encoding="us-ascii" standalone="no"?>
<svg xmlns="http://www.w3.org/2000/svg" contentStyleType="text/css" height="324px" preserveAspectRatio="none"
     style="width:863px;height:324px;background:#FFFFFF;" version="1.1" viewBox="0 0 863 324" width="863px"
     zoomAndPan="magnify"><defs/><g><rect fill="#DDDDDD" height="312.2793" style="stroke:#181818;stroke-width:0.5;" width="354.5" x="349" y="6"/><text fill="#000000" font-family="sans-serif" font-size="13" font-weight="bold" lengthAdjust="spacing" textLength="75" x="488.75" y="20.0283">SmartHome</text><rect fill="#FFFFFF" height="169.4551" style="stroke:#181818;stroke-width:1.0;" width="10" x="384" y="94.2031"/><rect fill="#FFFFFF" height="106.873" style="stroke:#181818;stroke-width:1.0;" width="10" x="637" y="125.4941"/><line style="stroke:#181818;stroke-width:0.5;stroke-dasharray:5.0,5.0;" x1="389" x2="389" y1="60.9121" y2="281.6582"/><line style="stroke:#181818;stroke-width:0.5;stroke-dasharray:5.0,5.0;" x1="641.5" x2="641.5" y1="60.9121" y2="281.6582"/><rect fill="#E2E2F0" height="32.6211" rx="2.5" ry="2.5" style="stroke:#181818;stroke-width:0.5;" width="72" x="353" y="27.291"/><text fill="#000000" font-family="sans-serif" font-size="14" lengthAdjust="spacing" textLength="58" x="360" y="49.3984">Frontend</text><rect fill="#E2E2F0" height="32.6211" rx="2.5" ry="2.5" style="stroke:#181818;stroke-width:0.5;" width="72" x="353" y="280.6582"/><text fill="#000000" font-family="sans-serif" font-size="14" lengthAdjust="spacing" textLength="58" x="360" y="302.7656">Frontend</text><rect fill="#E2E2F0" height="32.6211" rx="2.5" ry="2.5" style="stroke:#181818;stroke-width:0.5;" width="115" x="584.5" y="27.291"/><text fill="#000000" font-family="sans-serif" font-size="14" lengthAdjust="spacing" textLength="101" x="591.5" y="49.3984">WeatherService</text><rect fill="#E2E2F0" height="32.6211" rx="2.5" ry="2.5" style="stroke:#181818;stroke-width:0.5;" width="115" x="584.5" y="280.6582"/><text fill="#000000" font-family="sans-serif" font-size="14" lengthAdjust="spacing" textLength="101" x="591.5" y="302.7656">WeatherService</text><rect fill="#FFFFFF" height="169.4551" style="stroke:#181818;stroke-width:1.0;" width="10" x="384" y="94.2031"/><rect fill="#FFFFFF" height="106.873" style="stroke:#181818;stroke-width:1.0;" width="10" x="637" y="125.4941"/><ellipse cx="7.5" cy="93.4531" fill="none" rx="4" ry="4" style="stroke:#181818;stroke-width:1.5;"/><polygon fill="#181818" points="372,90.2031,382,94.2031,372,98.2031,376,94.2031" style="stroke:#181818;stroke-width:1.0;"/><line style="stroke:#181818;stroke-width:1.0;" x1="12" x2="378" y1="94.2031" y2="94.2031"/><text fill="#000000" font-family="sans-serif" font-size="13" font-weight="bold" lengthAdjust="spacing" textLength="7" x="15" y="88.9404">1</text><text fill="#000000" font-family="sans-serif" font-size="13" lengthAdjust="spacing" textLength="346" x="26" y="88.9404">I want to have current outside temperature on the main page</text><polygon fill="#181818" points="625,121.4941,635,125.4941,625,129.4941,629,125.4941" style="stroke:#181818;stroke-width:1.0;"/><line style="stroke:#181818;stroke-width:1.0;" x1="394" x2="631" y1="125.4941" y2="125.4941"/><text fill="#000000" font-family="sans-serif" font-size="13" font-weight="bold" lengthAdjust="spacing" textLength="7" x="401" y="120.2314">2</text><text fill="#000000" font-family="sans-serif" font-size="13" lengthAdjust="spacing" textLength="213" x="412" y="120.2314">POST / WeatherServiceConfiguration</text><polygon fill="#181818" points="405,152.7852,395,156.7852,405,160.7852,401,156.7852" style="stroke:#181818;stroke-width:1.0;"/><line style="stroke:#181818;stroke-width:1.0;stroke-dasharray:2.0,2.0;" x1="399" x2="636" y1="156.7852" y2="156.7852"/><text fill="#000000" font-family="sans-serif" font-size="13" font-weight="bold" lengthAdjust="spacing" textLength="7" x="411" y="151.5225">3</text><text fill="#000000" font-family="sans-serif" font-size="13" lengthAdjust="spacing" textLength="58" x="422" y="151.5225">Response</text><line style="stroke:#181818;stroke-width:1.0;" x1="647" x2="689" y1="188.0762" y2="188.0762"/><line style="stroke:#181818;stroke-width:1.0;" x1="689" x2="689" y1="188.0762" y2="201.0762"/><line style="stroke:#181818;stroke-width:1.0;" x1="648" x2="689" y1="201.0762" y2="201.0762"/><polygon fill="#181818" points="658,197.0762,648,201.0762,658,205.0762,654,201.0762" style="stroke:#181818;stroke-width:1.0;"/><text fill="#000000" font-family="sans-serif" font-size="13" font-weight="bold" lengthAdjust="spacing" textLength="7" x="654" y="182.8135">4</text><text fill="#000000" font-family="sans-serif" font-size="13" lengthAdjust="spacing" textLength="191" x="665" y="182.8135">GET / InstantaneousTemperature</text><polygon fill="#181818" points="405,228.3672,395,232.3672,405,236.3672,401,232.3672" style="stroke:#181818;stroke-width:1.0;"/><line style="stroke:#181818;stroke-width:1.0;stroke-dasharray:2.0,2.0;" x1="399" x2="641" y1="232.3672" y2="232.3672"/><text fill="#000000" font-family="sans-serif" font-size="13" font-weight="bold" lengthAdjust="spacing" textLength="7" x="411" y="227.1045">5</text><text fill="#000000" font-family="sans-serif" font-size="13" lengthAdjust="spacing" textLength="114" x="422" y="227.1045">outsideTemperature</text><ellipse cx="7.5" cy="262.9082" fill="none" rx="4" ry="4" style="stroke:#181818;stroke-width:1.5;"/><polygon fill="#181818" points="24.5,259.6582,14.5,263.6582,24.5,267.6582,20.5,263.6582" style="stroke:#181818;stroke-width:1.0;"/><line style="stroke:#181818;stroke-width:1.0;stroke-dasharray:2.0,2.0;" x1="22.5" x2="388" y1="263.6582" y2="263.6582"/><text fill="#000000" font-family="sans-serif" font-size="13" font-weight="bold" lengthAdjust="spacing" textLength="7" x="25" y="258.3955">6</text><text fill="#000000" font-family="sans-serif" font-size="13" lengthAdjust="spacing" textLength="114" x="36" y="258.3955">outsideTemperature</text><!--SRC=[ZP0zJmCn38Rt_0epCHstLuW5jT09n5MwWSdDcRj8bpWapW7_7gSKbSA2bSKVx-FNkPn4ObwrRPmnIF7pbMNVPdej52mrWyCneJSNCU7e4MRyu2AGFGa6D0QBS2X-JybeWCQUtw7pcEIUFHqgKHDdNLG-R187eJ00PjYi_xHxGfaeTPGMPwaEzTrXg4gKN9SyStEZMbZ15jwgI1WcN0XiIOaqLuFP3GH2Fb92AOc00oWOFBgW2qSoQCKjA5HT6AKfi- -K-VZGxQ3zPUIMmuiRYx8SXvDKlHaLDTz-dYX73fdCL_b8l5jNu3Pa_J5zn2NlJixE2KVhF_i3dUtJyw-RvZ_JzJ1ZFW40]--></g></svg>