<?xml version="1.0" encoding="us-ascii" standalone="no"?><svg xmlns="http://www.w3.org/2000/svg" xmlns:xlink="http://www.w3.org/1999/xlink" contentStyleType="text/css" height="1201px" preserveAspectRatio="none" style="width:2108px;height:1201px;background:#FFFFFF;" version="1.1" viewBox="0 0 2108 1201" width="2108px" zoomAndPan="magnify"><defs/><g><!--class ConfigureHouseLocationController--><g id="elem_ConfigureHouseLocationController"><rect codeLine="3" fill="#F1F1F1" height="122.4844" id="ConfigureHouseLocationController" rx="2.5" ry="2.5" style="stroke:#181818;stroke-width:0.5;" width="797" x="618.5" y="7"/><ellipse cx="903.75" cy="23" fill="#ADD1B2" rx="11" ry="11" style="stroke:#181818;stroke-width:1.0;"/><path d="M906.5156,18.875 Q906.6719,18.6563 906.8594,18.5469 Q907.0469,18.4375 907.2656,18.4375 Q907.6406,18.4375 907.875,18.7031 Q908.1094,18.9531 908.1094,19.5625 L908.1094,21.0156 Q908.1094,21.625 907.875,21.8906 Q907.6406,22.1563 907.2656,22.1563 Q906.9219,22.1563 906.7188,21.9531 Q906.5156,21.7656 906.4063,21.25 Q906.3594,20.8906 906.1719,20.7031 Q905.8438,20.3281 905.2344,20.1094 Q904.625,19.8906 904,19.8906 Q903.2344,19.8906 902.5938,20.2188 Q901.9688,20.5469 901.4688,21.2969 Q900.9844,22.0469 900.9844,23.0781 L900.9844,24.1719 Q900.9844,25.4063 901.875,26.2344 Q902.7656,27.0469 904.3594,27.0469 Q905.2969,27.0469 905.9531,26.7969 Q906.3438,26.6406 906.7656,26.2031 Q907.0313,25.9375 907.1719,25.8594 Q907.3281,25.7813 907.5313,25.7813 Q907.8594,25.7813 908.1094,26.0469 Q908.375,26.2969 908.375,26.6406 Q908.375,26.9844 908.0313,27.3906 Q907.5313,27.9688 906.7344,28.2969 Q905.6563,28.75 904.3594,28.75 Q902.8438,28.75 901.6406,28.125 Q900.6563,27.625 899.9688,26.5625 Q899.2813,25.4844 899.2813,24.2031 L899.2813,23.0469 Q899.2813,21.7188 899.8906,20.5781 Q900.5156,19.4219 901.6094,18.8125 Q902.7031,18.1875 903.9375,18.1875 Q904.6719,18.1875 905.3125,18.3594 Q905.9688,18.5156 906.5156,18.875 Z " fill="#000000"/><text fill="#000000" font-family="sans-serif" font-size="14" lengthAdjust="spacing" textLength="218" x="924.25" y="28.7969">ConfigureHouseLocationController</text><line style="stroke:#181818;stroke-width:0.5;" x1="619.5" x2="1414.5" y1="39" y2="39"/><rect fill="none" height="6" style="stroke:#C82930;stroke-width:1.0;" width="6" x="626.5" y="50.8105"/><text fill="#000000" font-family="sans-serif" font-size="14" lengthAdjust="spacing" textLength="95" x="638.5" y="58.1074">_house: House</text><line style="stroke:#181818;stroke-width:0.5;" x1="619.5" x2="1414.5" y1="65.6211" y2="65.6211"/><ellipse cx="629.5" cy="80.4316" fill="#84BE84" rx="3" ry="3" style="stroke:#038048;stroke-width:1.0;"/><text fill="#000000" font-family="sans-serif" font-size="14" lengthAdjust="spacing" textLength="315" x="638.5" y="84.7285">ConfigureHouseLocationController(house: House)</text><rect fill="#F24D5C" height="6" style="stroke:#C82930;stroke-width:1.0;" width="6" x="626.5" y="96.0527"/><text fill="#000000" font-family="sans-serif" font-size="14" lengthAdjust="spacing" textLength="339" x="638.5" y="103.3496">isValidConstructorArguments(house: House): boolean</text><ellipse cx="629.5" cy="117.6738" fill="#84BE84" rx="3" ry="3" style="stroke:#038048;stroke-width:1.0;"/><text fill="#000000" font-family="sans-serif" font-size="14" lengthAdjust="spacing" textLength="771" x="638.5" y="121.9707">configureHouseLocation(street: String, zipCode: String, doorNumber: int, latitude: double, longitude: double): LocationDTO</text></g><!--class House--><g id="elem_House"><rect codeLine="13" fill="#F1F1F1" height="141.1055" id="House" rx="2.5" ry="2.5" style="stroke:#181818;stroke-width:0.5;" width="707" x="374.5" y="208"/><ellipse cx="703.75" cy="224" fill="#ADD1B2" rx="11" ry="11" style="stroke:#181818;stroke-width:1.0;"/><path d="M706.5156,219.875 Q706.6719,219.6563 706.8594,219.5469 Q707.0469,219.4375 707.2656,219.4375 Q707.6406,219.4375 707.875,219.7031 Q708.1094,219.9531 708.1094,220.5625 L708.1094,222.0156 Q708.1094,222.625 707.875,222.8906 Q707.6406,223.1563 707.2656,223.1563 Q706.9219,223.1563 706.7188,222.9531 Q706.5156,222.7656 706.4063,222.25 Q706.3594,221.8906 706.1719,221.7031 Q705.8438,221.3281 705.2344,221.1094 Q704.625,220.8906 704,220.8906 Q703.2344,220.8906 702.5938,221.2188 Q701.9688,221.5469 701.4688,222.2969 Q700.9844,223.0469 700.9844,224.0781 L700.9844,225.1719 Q700.9844,226.4063 701.875,227.2344 Q702.7656,228.0469 704.3594,228.0469 Q705.2969,228.0469 705.9531,227.7969 Q706.3438,227.6406 706.7656,227.2031 Q707.0313,226.9375 707.1719,226.8594 Q707.3281,226.7813 707.5313,226.7813 Q707.8594,226.7813 708.1094,227.0469 Q708.375,227.2969 708.375,227.6406 Q708.375,227.9844 708.0313,228.3906 Q707.5313,228.9688 706.7344,229.2969 Q705.6563,229.75 704.3594,229.75 Q702.8438,229.75 701.6406,229.125 Q700.6563,228.625 699.9688,227.5625 Q699.2813,226.4844 699.2813,225.2031 L699.2813,224.0469 Q699.2813,222.7188 699.8906,221.5781 Q700.5156,220.4219 701.6094,219.8125 Q702.7031,219.1875 703.9375,219.1875 Q704.6719,219.1875 705.3125,219.3594 Q705.9688,219.5156 706.5156,219.875 Z " fill="#000000"/><text fill="#000000" font-family="sans-serif" font-size="14" lengthAdjust="spacing" textLength="40" x="724.25" y="229.7969">House</text><line style="stroke:#181818;stroke-width:0.5;" x1="375.5" x2="1080.5" y1="240" y2="240"/><rect fill="none" height="6" style="stroke:#C82930;stroke-width:1.0;" width="6" x="382.5" y="251.8105"/><text fill="#000000" font-family="sans-serif" font-size="14" lengthAdjust="spacing" textLength="219" x="394.5" y="259.1074">_locationFactory : LocationFactory</text><rect fill="none" height="6" style="stroke:#C82930;stroke-width:1.0;" width="6" x="382.5" y="270.4316"/><text fill="#000000" font-family="sans-serif" font-size="14" lengthAdjust="spacing" textLength="185" x="394.5" y="277.7285">_roomFactory : RoomFactory</text><rect fill="none" height="6" style="stroke:#C82930;stroke-width:1.0;" width="6" x="382.5" y="289.0527"/><text fill="#000000" font-family="sans-serif" font-size="14" lengthAdjust="spacing" textLength="123" x="394.5" y="296.3496">_location : Location</text><line style="stroke:#181818;stroke-width:0.5;" x1="375.5" x2="1080.5" y1="303.8633" y2="303.8633"/><ellipse cx="385.5" cy="318.6738" fill="#84BE84" rx="3" ry="3" style="stroke:#038048;stroke-width:1.0;"/><text fill="#000000" font-family="sans-serif" font-size="14" lengthAdjust="spacing" textLength="438" x="394.5" y="322.9707">House(locationFactory: LocationFactory, roomFactory: RoomFactory)</text><ellipse cx="385.5" cy="337.2949" fill="#84BE84" rx="3" ry="3" style="stroke:#038048;stroke-width:1.0;"/><text fill="#000000" font-family="sans-serif" font-size="14" lengthAdjust="spacing" textLength="681" x="394.5" y="341.5918">defineLocation(street: String, zipCode: String, doorNumber: int, latitude: double, longitude: double): Location</text></g><!--class Location--><g id="elem_Location"><rect codeLine="25" fill="#F1F1F1" height="234.2109" id="Location" rx="2.5" ry="2.5" style="stroke:#181818;stroke-width:0.5;" width="1200" x="901" y="629"/><ellipse cx="1469.75" cy="645" fill="#ADD1B2" rx="11" ry="11" style="stroke:#181818;stroke-width:1.0;"/><path d="M1472.5156,640.875 Q1472.6719,640.6563 1472.8594,640.5469 Q1473.0469,640.4375 1473.2656,640.4375 Q1473.6406,640.4375 1473.875,640.7031 Q1474.1094,640.9531 1474.1094,641.5625 L1474.1094,643.0156 Q1474.1094,643.625 1473.875,643.8906 Q1473.6406,644.1563 1473.2656,644.1563 Q1472.9219,644.1563 1472.7188,643.9531 Q1472.5156,643.7656 1472.4063,643.25 Q1472.3594,642.8906 1472.1719,642.7031 Q1471.8438,642.3281 1471.2344,642.1094 Q1470.625,641.8906 1470,641.8906 Q1469.2344,641.8906 1468.5938,642.2188 Q1467.9688,642.5469 1467.4688,643.2969 Q1466.9844,644.0469 1466.9844,645.0781 L1466.9844,646.1719 Q1466.9844,647.4063 1467.875,648.2344 Q1468.7656,649.0469 1470.3594,649.0469 Q1471.2969,649.0469 1471.9531,648.7969 Q1472.3438,648.6406 1472.7656,648.2031 Q1473.0313,647.9375 1473.1719,647.8594 Q1473.3281,647.7813 1473.5313,647.7813 Q1473.8594,647.7813 1474.1094,648.0469 Q1474.375,648.2969 1474.375,648.6406 Q1474.375,648.9844 1474.0313,649.3906 Q1473.5313,649.9688 1472.7344,650.2969 Q1471.6563,650.75 1470.3594,650.75 Q1468.8438,650.75 1467.6406,650.125 Q1466.6563,649.625 1465.9688,648.5625 Q1465.2813,647.4844 1465.2813,646.2031 L1465.2813,645.0469 Q1465.2813,643.7188 1465.8906,642.5781 Q1466.5156,641.4219 1467.6094,640.8125 Q1468.7031,640.1875 1469.9375,640.1875 Q1470.6719,640.1875 1471.3125,640.3594 Q1471.9688,640.5156 1472.5156,640.875 Z " fill="#000000"/><text fill="#000000" font-family="sans-serif" font-size="14" lengthAdjust="spacing" textLength="54" x="1490.25" y="650.7969">Location</text><line style="stroke:#181818;stroke-width:0.5;" x1="902" x2="2100" y1="661" y2="661"/><rect fill="none" height="6" style="stroke:#C82930;stroke-width:1.0;" width="6" x="909" y="672.8105"/><text fill="#000000" font-family="sans-serif" font-size="14" lengthAdjust="spacing" textLength="219" x="921" y="680.1074">_addressFactory : AddressFactory</text><rect fill="none" height="6" style="stroke:#C82930;stroke-width:1.0;" width="6" x="909" y="691.4316"/><text fill="#000000" font-family="sans-serif" font-size="14" lengthAdjust="spacing" textLength="168" x="921" y="698.7285">_gpsFactory : GPSFactory</text><rect fill="none" height="6" style="stroke:#C82930;stroke-width:1.0;" width="6" x="909" y="710.0527"/><text fill="#000000" font-family="sans-serif" font-size="14" lengthAdjust="spacing" textLength="107" x="921" y="717.3496">_adress : Adress</text><rect fill="none" height="6" style="stroke:#C82930;stroke-width:1.0;" width="6" x="909" y="728.6738"/><text fill="#000000" font-family="sans-serif" font-size="14" lengthAdjust="spacing" textLength="72" x="921" y="735.9707">_gps : GPS</text><line style="stroke:#181818;stroke-width:0.5;" x1="902" x2="2100" y1="743.4844" y2="743.4844"/><polygon fill="#FFFF44" points="912,753.2949,916,757.2949,912,761.2949,908,757.2949" style="stroke:#B38D22;stroke-width:1.0;"/><text fill="#000000" font-family="sans-serif" font-size="14" lengthAdjust="spacing" textLength="1174" x="921" y="762.5918">Location(street: String, zipCode: String, doorNumber: int, latitude: double, longitude: double, addressFactory: AddressFactory, gpsFactory: GpsFactory): throws IllegalArgumentException |</text><ellipse cx="912" cy="776.916" fill="#84BE84" rx="3" ry="3" style="stroke:#038048;stroke-width:1.0;"/><text fill="#000000" font-family="sans-serif" font-size="14" lengthAdjust="spacing" textLength="142" x="921" y="781.2129">getAddress(): Address</text><ellipse cx="912" cy="795.5371" fill="#84BE84" rx="3" ry="3" style="stroke:#038048;stroke-width:1.0;"/><text fill="#000000" font-family="sans-serif" font-size="14" lengthAdjust="spacing" textLength="144" x="921" y="799.834">getGpsLocation(): Gps</text><ellipse cx="912" cy="814.1582" fill="#84BE84" rx="3" ry="3" style="stroke:#038048;stroke-width:1.0;"/><text fill="#000000" font-family="sans-serif" font-size="14" lengthAdjust="spacing" textLength="104" x="921" y="818.4551">toString(): String</text><rect fill="#F24D5C" height="6" style="stroke:#C82930;stroke-width:1.0;" width="6" x="909" y="829.7793"/><text fill="#000000" font-family="sans-serif" font-size="14" lengthAdjust="spacing" textLength="252" x="921" y="837.0762">setAddress(address: Address): Address</text><rect fill="#F24D5C" height="6" style="stroke:#C82930;stroke-width:1.0;" width="6" x="909" y="848.4004"/><text fill="#000000" font-family="sans-serif" font-size="14" lengthAdjust="spacing" textLength="146" x="921" y="855.6973">setGps(gps: Gps): Gps</text></g><!--class LocationFactory--><g id="elem_LocationFactory"><rect codeLine="42" fill="#F1F1F1" height="66.6211" id="LocationFactory" rx="2.5" ry="2.5" style="stroke:#181818;stroke-width:0.5;" width="708" x="341" y="455.5"/><ellipse cx="639.75" cy="471.5" fill="#ADD1B2" rx="11" ry="11" style="stroke:#181818;stroke-width:1.0;"/><path d="M642.5156,467.375 Q642.6719,467.1563 642.8594,467.0469 Q643.0469,466.9375 643.2656,466.9375 Q643.6406,466.9375 643.875,467.2031 Q644.1094,467.4531 644.1094,468.0625 L644.1094,469.5156 Q644.1094,470.125 643.875,470.3906 Q643.6406,470.6563 643.2656,470.6563 Q642.9219,470.6563 642.7188,470.4531 Q642.5156,470.2656 642.4063,469.75 Q642.3594,469.3906 642.1719,469.2031 Q641.8438,468.8281 641.2344,468.6094 Q640.625,468.3906 640,468.3906 Q639.2344,468.3906 638.5938,468.7188 Q637.9688,469.0469 637.4688,469.7969 Q636.9844,470.5469 636.9844,471.5781 L636.9844,472.6719 Q636.9844,473.9063 637.875,474.7344 Q638.7656,475.5469 640.3594,475.5469 Q641.2969,475.5469 641.9531,475.2969 Q642.3438,475.1406 642.7656,474.7031 Q643.0313,474.4375 643.1719,474.3594 Q643.3281,474.2813 643.5313,474.2813 Q643.8594,474.2813 644.1094,474.5469 Q644.375,474.7969 644.375,475.1406 Q644.375,475.4844 644.0313,475.8906 Q643.5313,476.4688 642.7344,476.7969 Q641.6563,477.25 640.3594,477.25 Q638.8438,477.25 637.6406,476.625 Q636.6563,476.125 635.9688,475.0625 Q635.2813,473.9844 635.2813,472.7031 L635.2813,471.5469 Q635.2813,470.2188 635.8906,469.0781 Q636.5156,467.9219 637.6094,467.3125 Q638.7031,466.6875 639.9375,466.6875 Q640.6719,466.6875 641.3125,466.8594 Q641.9688,467.0156 642.5156,467.375 Z " fill="#000000"/><text fill="#000000" font-family="sans-serif" font-size="14" lengthAdjust="spacing" textLength="102" x="660.25" y="477.2969">LocationFactory</text><line style="stroke:#181818;stroke-width:0.5;" x1="342" x2="1048" y1="487.5" y2="487.5"/><line style="stroke:#181818;stroke-width:0.5;" x1="342" x2="1048" y1="495.5" y2="495.5"/><ellipse cx="352" cy="510.3105" fill="#84BE84" rx="3" ry="3" style="stroke:#038048;stroke-width:1.0;"/><text fill="#000000" font-family="sans-serif" font-size="14" lengthAdjust="spacing" textLength="682" x="361" y="514.6074">createLocation(street: String, zipCode: String, doorNumber: int, latitude: double, longitude: double): Location</text></g><!--class LocationAssembler--><g id="elem_LocationAssembler"><rect codeLine="47" fill="#F1F1F1" height="66.6211" id="LocationAssembler" rx="2.5" ry="2.5" style="stroke:#181818;stroke-width:0.5;" width="380" x="1123" y="245"/><ellipse cx="1248.75" cy="261" fill="#ADD1B2" rx="11" ry="11" style="stroke:#181818;stroke-width:1.0;"/><path d="M1251.5156,256.875 Q1251.6719,256.6563 1251.8594,256.5469 Q1252.0469,256.4375 1252.2656,256.4375 Q1252.6406,256.4375 1252.875,256.7031 Q1253.1094,256.9531 1253.1094,257.5625 L1253.1094,259.0156 Q1253.1094,259.625 1252.875,259.8906 Q1252.6406,260.1563 1252.2656,260.1563 Q1251.9219,260.1563 1251.7188,259.9531 Q1251.5156,259.7656 1251.4063,259.25 Q1251.3594,258.8906 1251.1719,258.7031 Q1250.8438,258.3281 1250.2344,258.1094 Q1249.625,257.8906 1249,257.8906 Q1248.2344,257.8906 1247.5938,258.2188 Q1246.9688,258.5469 1246.4688,259.2969 Q1245.9844,260.0469 1245.9844,261.0781 L1245.9844,262.1719 Q1245.9844,263.4063 1246.875,264.2344 Q1247.7656,265.0469 1249.3594,265.0469 Q1250.2969,265.0469 1250.9531,264.7969 Q1251.3438,264.6406 1251.7656,264.2031 Q1252.0313,263.9375 1252.1719,263.8594 Q1252.3281,263.7813 1252.5313,263.7813 Q1252.8594,263.7813 1253.1094,264.0469 Q1253.375,264.2969 1253.375,264.6406 Q1253.375,264.9844 1253.0313,265.3906 Q1252.5313,265.9688 1251.7344,266.2969 Q1250.6563,266.75 1249.3594,266.75 Q1247.8438,266.75 1246.6406,266.125 Q1245.6563,265.625 1244.9688,264.5625 Q1244.2813,263.4844 1244.2813,262.2031 L1244.2813,261.0469 Q1244.2813,259.7188 1244.8906,258.5781 Q1245.5156,257.4219 1246.6094,256.8125 Q1247.7031,256.1875 1248.9375,256.1875 Q1249.6719,256.1875 1250.3125,256.3594 Q1250.9688,256.5156 1251.5156,256.875 Z " fill="#000000"/><text fill="#000000" font-family="sans-serif" font-size="14" lengthAdjust="spacing" textLength="120" x="1269.25" y="266.7969">LocationAssembler</text><line style="stroke:#181818;stroke-width:0.5;" x1="1124" x2="1502" y1="277" y2="277"/><line style="stroke:#181818;stroke-width:0.5;" x1="1124" x2="1502" y1="285" y2="285"/><ellipse cx="1134" cy="299.8105" fill="#84BE84" rx="3" ry="3" style="stroke:#038048;stroke-width:1.0;"/><text fill="#000000" font-family="sans-serif" font-size="14" lengthAdjust="spacing" textLength="354" x="1143" y="304.1074">&#171;static&#187; domain2DTO(location: Location) : LocationDTO</text></g><!--class LocationDTO--><g id="elem_LocationDTO"><rect codeLine="52" fill="#F1F1F1" height="122.4844" id="LocationDTO" rx="2.5" ry="2.5" style="stroke:#181818;stroke-width:0.5;" width="231" x="1197.5" y="428"/><ellipse cx="1266.75" cy="444" fill="#ADD1B2" rx="11" ry="11" style="stroke:#181818;stroke-width:1.0;"/><path d="M1269.5156,439.875 Q1269.6719,439.6563 1269.8594,439.5469 Q1270.0469,439.4375 1270.2656,439.4375 Q1270.6406,439.4375 1270.875,439.7031 Q1271.1094,439.9531 1271.1094,440.5625 L1271.1094,442.0156 Q1271.1094,442.625 1270.875,442.8906 Q1270.6406,443.1563 1270.2656,443.1563 Q1269.9219,443.1563 1269.7188,442.9531 Q1269.5156,442.7656 1269.4063,442.25 Q1269.3594,441.8906 1269.1719,441.7031 Q1268.8438,441.3281 1268.2344,441.1094 Q1267.625,440.8906 1267,440.8906 Q1266.2344,440.8906 1265.5938,441.2188 Q1264.9688,441.5469 1264.4688,442.2969 Q1263.9844,443.0469 1263.9844,444.0781 L1263.9844,445.1719 Q1263.9844,446.4063 1264.875,447.2344 Q1265.7656,448.0469 1267.3594,448.0469 Q1268.2969,448.0469 1268.9531,447.7969 Q1269.3438,447.6406 1269.7656,447.2031 Q1270.0313,446.9375 1270.1719,446.8594 Q1270.3281,446.7813 1270.5313,446.7813 Q1270.8594,446.7813 1271.1094,447.0469 Q1271.375,447.2969 1271.375,447.6406 Q1271.375,447.9844 1271.0313,448.3906 Q1270.5313,448.9688 1269.7344,449.2969 Q1268.6563,449.75 1267.3594,449.75 Q1265.8438,449.75 1264.6406,449.125 Q1263.6563,448.625 1262.9688,447.5625 Q1262.2813,446.4844 1262.2813,445.2031 L1262.2813,444.0469 Q1262.2813,442.7188 1262.8906,441.5781 Q1263.5156,440.4219 1264.6094,439.8125 Q1265.7031,439.1875 1266.9375,439.1875 Q1267.6719,439.1875 1268.3125,439.3594 Q1268.9688,439.5156 1269.5156,439.875 Z " fill="#000000"/><text fill="#000000" font-family="sans-serif" font-size="14" lengthAdjust="spacing" textLength="84" x="1287.25" y="449.7969">LocationDTO</text><line style="stroke:#181818;stroke-width:0.5;" x1="1198.5" x2="1427.5" y1="460" y2="460"/><rect fill="none" height="6" style="stroke:#C82930;stroke-width:1.0;" width="6" x="1205.5" y="471.8105"/><text fill="#000000" font-family="sans-serif" font-size="14" lengthAdjust="spacing" textLength="96" x="1217.5" y="479.1074">_adress: String</text><rect fill="none" height="6" style="stroke:#C82930;stroke-width:1.0;" width="6" x="1205.5" y="490.4316"/><text fill="#000000" font-family="sans-serif" font-size="14" lengthAdjust="spacing" textLength="76" x="1217.5" y="497.7285">_gps: String</text><line style="stroke:#181818;stroke-width:0.5;" x1="1198.5" x2="1427.5" y1="505.2422" y2="505.2422"/><ellipse cx="1208.5" cy="520.0527" fill="#84BE84" rx="3" ry="3" style="stroke:#038048;stroke-width:1.0;"/><text fill="#000000" font-family="sans-serif" font-size="14" lengthAdjust="spacing" textLength="205" x="1217.5" y="524.3496">LocationDTO(location: Location)</text><ellipse cx="1208.5" cy="538.6738" fill="#84BE84" rx="3" ry="3" style="stroke:#038048;stroke-width:1.0;"/><text fill="#000000" font-family="sans-serif" font-size="14" lengthAdjust="spacing" textLength="104" x="1217.5" y="542.9707">toString(): String</text></g><!--class Address--><g id="elem_Address"><rect codeLine="63" fill="#F1F1F1" height="252.832" id="Address" rx="2.5" ry="2.5" style="stroke:#181818;stroke-width:0.5;" width="438" x="25" y="942"/><ellipse cx="213.75" cy="958" fill="#ADD1B2" rx="11" ry="11" style="stroke:#181818;stroke-width:1.0;"/><path d="M216.5156,953.875 Q216.6719,953.6563 216.8594,953.5469 Q217.0469,953.4375 217.2656,953.4375 Q217.6406,953.4375 217.875,953.7031 Q218.1094,953.9531 218.1094,954.5625 L218.1094,956.0156 Q218.1094,956.625 217.875,956.8906 Q217.6406,957.1563 217.2656,957.1563 Q216.9219,957.1563 216.7188,956.9531 Q216.5156,956.7656 216.4063,956.25 Q216.3594,955.8906 216.1719,955.7031 Q215.8438,955.3281 215.2344,955.1094 Q214.625,954.8906 214,954.8906 Q213.2344,954.8906 212.5938,955.2188 Q211.9688,955.5469 211.4688,956.2969 Q210.9844,957.0469 210.9844,958.0781 L210.9844,959.1719 Q210.9844,960.4063 211.875,961.2344 Q212.7656,962.0469 214.3594,962.0469 Q215.2969,962.0469 215.9531,961.7969 Q216.3438,961.6406 216.7656,961.2031 Q217.0313,960.9375 217.1719,960.8594 Q217.3281,960.7813 217.5313,960.7813 Q217.8594,960.7813 218.1094,961.0469 Q218.375,961.2969 218.375,961.6406 Q218.375,961.9844 218.0313,962.3906 Q217.5313,962.9688 216.7344,963.2969 Q215.6563,963.75 214.3594,963.75 Q212.8438,963.75 211.6406,963.125 Q210.6563,962.625 209.9688,961.5625 Q209.2813,960.4844 209.2813,959.2031 L209.2813,958.0469 Q209.2813,956.7188 209.8906,955.5781 Q210.5156,954.4219 211.6094,953.8125 Q212.7031,953.1875 213.9375,953.1875 Q214.6719,953.1875 215.3125,953.3594 Q215.9688,953.5156 216.5156,953.875 Z " fill="#000000"/><text fill="#000000" font-family="sans-serif" font-size="14" lengthAdjust="spacing" textLength="52" x="234.25" y="963.7969">Address</text><line style="stroke:#181818;stroke-width:0.5;" x1="26" x2="462" y1="974" y2="974"/><rect fill="none" height="6" style="stroke:#C82930;stroke-width:1.0;" width="6" x="33" y="985.8105"/><text fill="#000000" font-family="sans-serif" font-size="14" lengthAdjust="spacing" textLength="89" x="45" y="993.1074">_street: String</text><rect fill="none" height="6" style="stroke:#C82930;stroke-width:1.0;" width="6" x="33" y="1004.4316"/><text fill="#000000" font-family="sans-serif" font-size="14" lengthAdjust="spacing" textLength="104" x="45" y="1011.7285">_zipCode: String</text><rect fill="none" height="6" style="stroke:#C82930;stroke-width:1.0;" width="6" x="33" y="1023.0527"/><text fill="#000000" font-family="sans-serif" font-size="14" lengthAdjust="spacing" textLength="109" x="45" y="1030.3496">_doorNumber: int</text><line style="stroke:#181818;stroke-width:0.5;" x1="26" x2="462" y1="1037.8633" y2="1037.8633"/><polygon fill="#FFFF44" points="36,1047.6738,40,1051.6738,36,1055.6738,32,1051.6738" style="stroke:#B38D22;stroke-width:1.0;"/><text fill="#000000" font-family="sans-serif" font-size="14" lengthAdjust="spacing" textLength="412" x="45" y="1056.9707">Address(street: String, zipCode: String, doorNumber: int) : Adress</text><rect fill="#F24D5C" height="6" style="stroke:#C82930;stroke-width:1.0;" width="6" x="33" y="1068.2949"/><text fill="#000000" font-family="sans-serif" font-size="14" lengthAdjust="spacing" textLength="182" x="45" y="1075.5918">setStreet(street: String): void</text><rect fill="#F24D5C" height="6" style="stroke:#C82930;stroke-width:1.0;" width="6" x="33" y="1086.916"/><text fill="#000000" font-family="sans-serif" font-size="14" lengthAdjust="spacing" textLength="212" x="45" y="1094.2129">setZipCode(zipCode: String): void</text><rect fill="#F24D5C" height="6" style="stroke:#C82930;stroke-width:1.0;" width="6" x="33" y="1105.5371"/><text fill="#000000" font-family="sans-serif" font-size="14" lengthAdjust="spacing" textLength="244" x="45" y="1112.834">setDoorNumber(doorNumber: int): void</text><ellipse cx="36" cy="1127.1582" fill="#84BE84" rx="3" ry="3" style="stroke:#038048;stroke-width:1.0;"/><text fill="#000000" font-family="sans-serif" font-size="14" lengthAdjust="spacing" textLength="113" x="45" y="1131.4551">getStreet(): String</text><ellipse cx="36" cy="1145.7793" fill="#84BE84" rx="3" ry="3" style="stroke:#038048;stroke-width:1.0;"/><text fill="#000000" font-family="sans-serif" font-size="14" lengthAdjust="spacing" textLength="128" x="45" y="1150.0762">getZipCode(): String</text><ellipse cx="36" cy="1164.4004" fill="#84BE84" rx="3" ry="3" style="stroke:#038048;stroke-width:1.0;"/><text fill="#000000" font-family="sans-serif" font-size="14" lengthAdjust="spacing" textLength="133" x="45" y="1168.6973">getDoorNumber(): int</text><ellipse cx="36" cy="1183.0215" fill="#84BE84" rx="3" ry="3" style="stroke:#038048;stroke-width:1.0;"/><text fill="#000000" font-family="sans-serif" font-size="14" lengthAdjust="spacing" textLength="104" x="45" y="1187.3184">toString(): String</text></g><!--class AddressFactory--><g id="elem_AddressFactory"><rect codeLine="80" fill="#F1F1F1" height="66.6211" id="AddressFactory" rx="2.5" ry="2.5" style="stroke:#181818;stroke-width:0.5;" width="474" x="7" y="712.5"/><ellipse cx="189.75" cy="728.5" fill="#ADD1B2" rx="11" ry="11" style="stroke:#181818;stroke-width:1.0;"/><path d="M192.5156,724.375 Q192.6719,724.1563 192.8594,724.0469 Q193.0469,723.9375 193.2656,723.9375 Q193.6406,723.9375 193.875,724.2031 Q194.1094,724.4531 194.1094,725.0625 L194.1094,726.5156 Q194.1094,727.125 193.875,727.3906 Q193.6406,727.6563 193.2656,727.6563 Q192.9219,727.6563 192.7188,727.4531 Q192.5156,727.2656 192.4063,726.75 Q192.3594,726.3906 192.1719,726.2031 Q191.8438,725.8281 191.2344,725.6094 Q190.625,725.3906 190,725.3906 Q189.2344,725.3906 188.5938,725.7188 Q187.9688,726.0469 187.4688,726.7969 Q186.9844,727.5469 186.9844,728.5781 L186.9844,729.6719 Q186.9844,730.9063 187.875,731.7344 Q188.7656,732.5469 190.3594,732.5469 Q191.2969,732.5469 191.9531,732.2969 Q192.3438,732.1406 192.7656,731.7031 Q193.0313,731.4375 193.1719,731.3594 Q193.3281,731.2813 193.5313,731.2813 Q193.8594,731.2813 194.1094,731.5469 Q194.375,731.7969 194.375,732.1406 Q194.375,732.4844 194.0313,732.8906 Q193.5313,733.4688 192.7344,733.7969 Q191.6563,734.25 190.3594,734.25 Q188.8438,734.25 187.6406,733.625 Q186.6563,733.125 185.9688,732.0625 Q185.2813,730.9844 185.2813,729.7031 L185.2813,728.5469 Q185.2813,727.2188 185.8906,726.0781 Q186.5156,724.9219 187.6094,724.3125 Q188.7031,723.6875 189.9375,723.6875 Q190.6719,723.6875 191.3125,723.8594 Q191.9688,724.0156 192.5156,724.375 Z " fill="#000000"/><text fill="#000000" font-family="sans-serif" font-size="14" lengthAdjust="spacing" textLength="100" x="210.25" y="734.2969">AddressFactory</text><line style="stroke:#181818;stroke-width:0.5;" x1="8" x2="480" y1="744.5" y2="744.5"/><line style="stroke:#181818;stroke-width:0.5;" x1="8" x2="480" y1="752.5" y2="752.5"/><ellipse cx="18" cy="767.3105" fill="#84BE84" rx="3" ry="3" style="stroke:#038048;stroke-width:1.0;"/><text fill="#000000" font-family="sans-serif" font-size="14" lengthAdjust="spacing" textLength="448" x="27" y="771.6074">createAddress(street: String, zipCode: String, doorNumber: int): Adress</text></g><!--class Gps--><g id="elem_Gps"><rect codeLine="85" fill="#F1F1F1" height="196.9688" id="Gps" rx="2.5" ry="2.5" style="stroke:#181818;stroke-width:0.5;" width="278" x="552" y="970"/><ellipse cx="673.75" cy="986" fill="#ADD1B2" rx="11" ry="11" style="stroke:#181818;stroke-width:1.0;"/><path d="M676.5156,981.875 Q676.6719,981.6563 676.8594,981.5469 Q677.0469,981.4375 677.2656,981.4375 Q677.6406,981.4375 677.875,981.7031 Q678.1094,981.9531 678.1094,982.5625 L678.1094,984.0156 Q678.1094,984.625 677.875,984.8906 Q677.6406,985.1563 677.2656,985.1563 Q676.9219,985.1563 676.7188,984.9531 Q676.5156,984.7656 676.4063,984.25 Q676.3594,983.8906 676.1719,983.7031 Q675.8438,983.3281 675.2344,983.1094 Q674.625,982.8906 674,982.8906 Q673.2344,982.8906 672.5938,983.2188 Q671.9688,983.5469 671.4688,984.2969 Q670.9844,985.0469 670.9844,986.0781 L670.9844,987.1719 Q670.9844,988.4063 671.875,989.2344 Q672.7656,990.0469 674.3594,990.0469 Q675.2969,990.0469 675.9531,989.7969 Q676.3438,989.6406 676.7656,989.2031 Q677.0313,988.9375 677.1719,988.8594 Q677.3281,988.7813 677.5313,988.7813 Q677.8594,988.7813 678.1094,989.0469 Q678.375,989.2969 678.375,989.6406 Q678.375,989.9844 678.0313,990.3906 Q677.5313,990.9688 676.7344,991.2969 Q675.6563,991.75 674.3594,991.75 Q672.8438,991.75 671.6406,991.125 Q670.6563,990.625 669.9688,989.5625 Q669.2813,988.4844 669.2813,987.2031 L669.2813,986.0469 Q669.2813,984.7188 669.8906,983.5781 Q670.5156,982.4219 671.6094,981.8125 Q672.7031,981.1875 673.9375,981.1875 Q674.6719,981.1875 675.3125,981.3594 Q675.9688,981.5156 676.5156,981.875 Z " fill="#000000"/><text fill="#000000" font-family="sans-serif" font-size="14" lengthAdjust="spacing" textLength="26" x="694.25" y="991.7969">Gps</text><line style="stroke:#181818;stroke-width:0.5;" x1="553" x2="829" y1="1002" y2="1002"/><rect fill="none" height="6" style="stroke:#C82930;stroke-width:1.0;" width="6" x="560" y="1013.8105"/><text fill="#000000" font-family="sans-serif" font-size="14" lengthAdjust="spacing" textLength="105" x="572" y="1021.1074">_latitude: double</text><rect fill="none" height="6" style="stroke:#C82930;stroke-width:1.0;" width="6" x="560" y="1032.4316"/><text fill="#000000" font-family="sans-serif" font-size="14" lengthAdjust="spacing" textLength="117" x="572" y="1039.7285">_longitude: double</text><line style="stroke:#181818;stroke-width:0.5;" x1="553" x2="829" y1="1047.2422" y2="1047.2422"/><polygon fill="#FFFF44" points="563,1057.0527,567,1061.0527,563,1065.0527,559,1061.0527" style="stroke:#B38D22;stroke-width:1.0;"/><text fill="#000000" font-family="sans-serif" font-size="14" lengthAdjust="spacing" textLength="250" x="572" y="1066.3496">Gps(latitude: double, longitude: double)</text><rect fill="#F24D5C" height="6" style="stroke:#C82930;stroke-width:1.0;" width="6" x="560" y="1077.6738"/><text fill="#000000" font-family="sans-serif" font-size="14" lengthAdjust="spacing" textLength="228" x="572" y="1084.9707">setLatitude(latitude: double): double</text><rect fill="#F24D5C" height="6" style="stroke:#C82930;stroke-width:1.0;" width="6" x="560" y="1096.2949"/><text fill="#000000" font-family="sans-serif" font-size="14" lengthAdjust="spacing" textLength="252" x="572" y="1103.5918">setLongitude(longitude: double): double</text><ellipse cx="563" cy="1117.916" fill="#84BE84" rx="3" ry="3" style="stroke:#038048;stroke-width:1.0;"/><text fill="#000000" font-family="sans-serif" font-size="14" lengthAdjust="spacing" textLength="132" x="572" y="1122.2129">getLatitude(): double</text><ellipse cx="563" cy="1136.5371" fill="#84BE84" rx="3" ry="3" style="stroke:#038048;stroke-width:1.0;"/><text fill="#000000" font-family="sans-serif" font-size="14" lengthAdjust="spacing" textLength="144" x="572" y="1140.834">getLongitude(): double</text><ellipse cx="563" cy="1155.1582" fill="#84BE84" rx="3" ry="3" style="stroke:#038048;stroke-width:1.0;"/><text fill="#000000" font-family="sans-serif" font-size="14" lengthAdjust="spacing" textLength="104" x="572" y="1159.4551">toString(): String</text></g><!--class GpsFactory--><g id="elem_GpsFactory"><rect codeLine="99" fill="#F1F1F1" height="66.6211" id="GpsFactory" rx="2.5" ry="2.5" style="stroke:#181818;stroke-width:0.5;" width="350" x="516" y="712.5"/><ellipse cx="649.75" cy="728.5" fill="#ADD1B2" rx="11" ry="11" style="stroke:#181818;stroke-width:1.0;"/><path d="M652.5156,724.375 Q652.6719,724.1563 652.8594,724.0469 Q653.0469,723.9375 653.2656,723.9375 Q653.6406,723.9375 653.875,724.2031 Q654.1094,724.4531 654.1094,725.0625 L654.1094,726.5156 Q654.1094,727.125 653.875,727.3906 Q653.6406,727.6563 653.2656,727.6563 Q652.9219,727.6563 652.7188,727.4531 Q652.5156,727.2656 652.4063,726.75 Q652.3594,726.3906 652.1719,726.2031 Q651.8438,725.8281 651.2344,725.6094 Q650.625,725.3906 650,725.3906 Q649.2344,725.3906 648.5938,725.7188 Q647.9688,726.0469 647.4688,726.7969 Q646.9844,727.5469 646.9844,728.5781 L646.9844,729.6719 Q646.9844,730.9063 647.875,731.7344 Q648.7656,732.5469 650.3594,732.5469 Q651.2969,732.5469 651.9531,732.2969 Q652.3438,732.1406 652.7656,731.7031 Q653.0313,731.4375 653.1719,731.3594 Q653.3281,731.2813 653.5313,731.2813 Q653.8594,731.2813 654.1094,731.5469 Q654.375,731.7969 654.375,732.1406 Q654.375,732.4844 654.0313,732.8906 Q653.5313,733.4688 652.7344,733.7969 Q651.6563,734.25 650.3594,734.25 Q648.8438,734.25 647.6406,733.625 Q646.6563,733.125 645.9688,732.0625 Q645.2813,730.9844 645.2813,729.7031 L645.2813,728.5469 Q645.2813,727.2188 645.8906,726.0781 Q646.5156,724.9219 647.6094,724.3125 Q648.7031,723.6875 649.9375,723.6875 Q650.6719,723.6875 651.3125,723.8594 Q651.9688,724.0156 652.5156,724.375 Z " fill="#000000"/><text fill="#000000" font-family="sans-serif" font-size="14" lengthAdjust="spacing" textLength="74" x="670.25" y="734.2969">GpsFactory</text><line style="stroke:#181818;stroke-width:0.5;" x1="517" x2="865" y1="744.5" y2="744.5"/><line style="stroke:#181818;stroke-width:0.5;" x1="517" x2="865" y1="752.5" y2="752.5"/><ellipse cx="527" cy="767.3105" fill="#84BE84" rx="3" ry="3" style="stroke:#038048;stroke-width:1.0;"/><text fill="#000000" font-family="sans-serif" font-size="14" lengthAdjust="spacing" textLength="324" x="536" y="771.6074">createGps(latitude: double, longitude: double): Gps</text></g><!--link ConfigureHouseLocationController to House--><g id="link_ConfigureHouseLocationController_House"><path codeLine="104" d="M933.8,129.03 C899.61,153.69 864.6757,178.8894 829.2357,204.4594 " fill="none" id="ConfigureHouseLocationController-to-House" style="stroke:#181818;stroke-width:1.0;stroke-dasharray:7.0,7.0;"/><polygon fill="#181818" points="824.37,207.97,834.009,205.9479,828.4248,205.0445,829.3282,199.4602,824.37,207.97" style="stroke:#181818;stroke-width:1.0;"/><text fill="#000000" font-family="sans-serif" font-size="13" lengthAdjust="spacing" textLength="42" x="890" y="174.0283">&#171;uses&#187;</text><text fill="#000000" font-family="sans-serif" font-size="13" lengthAdjust="spacing" textLength="7" x="916.2334" y="151.5205">1</text><text fill="#000000" font-family="sans-serif" font-size="13" lengthAdjust="spacing" textLength="7" x="826.9472" y="196.8579">1</text></g><!--link ConfigureHouseLocationController to LocationAssembler--><g id="link_ConfigureHouseLocationController_LocationAssembler"><path codeLine="105" d="M1102.22,129.03 C1155.68,166.68 1217.6446,210.335 1261.5446,241.255 " fill="none" id="ConfigureHouseLocationController-to-LocationAssembler" style="stroke:#181818;stroke-width:1.0;stroke-dasharray:7.0,7.0;"/><polygon fill="#181818" points="1266.45,244.71,1261.3952,236.2572,1262.3622,241.8308,1256.7886,242.7978,1266.45,244.71" style="stroke:#181818;stroke-width:1.0;"/><text fill="#000000" font-family="sans-serif" font-size="13" lengthAdjust="spacing" textLength="42" x="1166" y="174.0283">&#171;uses&#187;</text><text fill="#000000" font-family="sans-serif" font-size="13" lengthAdjust="spacing" textLength="7" x="1105.1796" y="151.5205">1</text><text fill="#000000" font-family="sans-serif" font-size="13" lengthAdjust="spacing" textLength="7" x="1249.9092" y="233.7406">1</text></g><!--link House to LocationFactory--><g id="link_House_LocationFactory"><path codeLine="106" d="M716.97,349.22 C711.29,385.09 705.5795,421.184 701.0895,449.504 " fill="none" id="House-to-LocationFactory" style="stroke:#181818;stroke-width:1.0;stroke-dasharray:7.0,7.0;"/><polygon fill="#181818" points="700.15,455.43,705.51,447.1674,700.9329,450.4917,697.6086,445.9147,700.15,455.43" style="stroke:#181818;stroke-width:1.0;"/><text fill="#000000" font-family="sans-serif" font-size="13" lengthAdjust="spacing" textLength="42" x="712" y="394.0283">&#171;uses&#187;</text><text fill="#000000" font-family="sans-serif" font-size="13" lengthAdjust="spacing" textLength="7" x="708.5397" y="371.0557">1</text><text fill="#000000" font-family="sans-serif" font-size="13" lengthAdjust="spacing" textLength="7" x="693.4748" y="444.2417">1</text></g><!--link AddressFactory to Address--><g id="link_AddressFactory_Address"><path codeLine="107" d="M244,779.79 C244,817.92 244,877.15 244,935.86 " fill="none" id="AddressFactory-to-Address" style="stroke:#181818;stroke-width:1.0;stroke-dasharray:7.0,7.0;"/><polygon fill="#181818" points="244,941.86,248,932.86,244,936.86,240,932.86,244,941.86" style="stroke:#181818;stroke-width:1.0;"/><text fill="#000000" font-family="sans-serif" font-size="13" lengthAdjust="spacing" textLength="50" x="245" y="908.0283">&#171;create&#187;</text><text fill="#000000" font-family="sans-serif" font-size="13" lengthAdjust="spacing" textLength="7" x="236.3984" y="801.1445">1</text><text fill="#000000" font-family="sans-serif" font-size="13" lengthAdjust="spacing" textLength="7" x="236.7867" y="930.6672">1</text></g><!--link GpsFactory to Gps--><g id="link_GpsFactory_Gps"><path codeLine="108" d="M691,779.79 C691,824.15 691,899.15 691,963.94 " fill="none" id="GpsFactory-to-Gps" style="stroke:#181818;stroke-width:1.0;stroke-dasharray:7.0,7.0;"/><polygon fill="#181818" points="691,969.94,695,960.94,691,964.94,687,960.94,691,969.94" style="stroke:#181818;stroke-width:1.0;"/><text fill="#000000" font-family="sans-serif" font-size="13" lengthAdjust="spacing" textLength="50" x="692" y="908.0283">&#171;create&#187;</text><text fill="#000000" font-family="sans-serif" font-size="13" lengthAdjust="spacing" textLength="7" x="683.3984" y="801.1445">1</text><text fill="#000000" font-family="sans-serif" font-size="13" lengthAdjust="spacing" textLength="7" x="683.732" y="958.7839">1</text></g><!--link LocationFactory to AddressFactory--><g id="link_LocationFactory_AddressFactory"><path codeLine="109" d="M637.42,522.55 C550.87,571.5 393.3829,660.5368 306.8129,709.4868 " fill="none" id="LocationFactory-to-AddressFactory" style="stroke:#181818;stroke-width:1.0;stroke-dasharray:7.0,7.0;"/><polygon fill="#181818" points="301.59,712.44,311.3931,711.4921,305.9424,709.979,307.4555,704.5283,301.59,712.44" style="stroke:#181818;stroke-width:1.0;"/><text fill="#000000" font-family="sans-serif" font-size="13" lengthAdjust="spacing" textLength="42" x="525" y="595.0283">&#171;uses&#187;</text><text fill="#000000" font-family="sans-serif" font-size="13" lengthAdjust="spacing" textLength="7" x="619.5401" y="544.1281">1</text><text fill="#000000" font-family="sans-serif" font-size="13" lengthAdjust="spacing" textLength="7" x="305.239" y="701.2537">1</text></g><!--link LocationFactory to GpsFactory--><g id="link_LocationFactory_GpsFactory"><path codeLine="110" d="M694.49,522.55 C693.72,571.43 692.3743,657.2407 691.6043,706.2407 " fill="none" id="LocationFactory-to-GpsFactory" style="stroke:#181818;stroke-width:1.0;stroke-dasharray:7.0,7.0;"/><polygon fill="#181818" points="691.51,712.24,695.6509,703.304,691.5886,707.2406,687.6519,703.1783,691.51,712.24" style="stroke:#181818;stroke-width:1.0;"/><text fill="#000000" font-family="sans-serif" font-size="13" lengthAdjust="spacing" textLength="42" x="694" y="595.0283">&#171;uses&#187;</text><text fill="#000000" font-family="sans-serif" font-size="13" lengthAdjust="spacing" textLength="7" x="686.7757" y="544.1281">1</text><text fill="#000000" font-family="sans-serif" font-size="13" lengthAdjust="spacing" textLength="7" x="683.94" y="701.2764">1</text></g><!--link LocationFactory to Location--><g id="link_LocationFactory_Location"><path codeLine="111" d="M797.9,522.55 C883.63,549.68 1005.4295,588.2099 1128.4295,627.1299 " fill="none" id="LocationFactory-to-Location" style="stroke:#181818;stroke-width:1.0;stroke-dasharray:7.0,7.0;"/><polygon fill="#181818" points="1134.15,628.94,1126.776,622.4112,1129.383,627.4316,1124.3626,630.0385,1134.15,628.94" style="stroke:#181818;stroke-width:1.0;"/><text fill="#000000" font-family="sans-serif" font-size="13" lengthAdjust="spacing" textLength="50" x="1026" y="595.0283">&#171;create&#187;</text></g><!--link LocationAssembler to Location--><g id="link_LocationAssembler_Location"><path codeLine="112" d="M1352.43,312.16 C1382.98,339.76 1423.75,382.06 1446,428 C1476.19,490.33 1489.4385,560.6902 1495.6985,622.8202 " fill="none" id="LocationAssembler-to-Location" style="stroke:#181818;stroke-width:1.0;stroke-dasharray:7.0,7.0;"/><polygon fill="#181818" points="1496.3,628.79,1499.3776,619.4343,1495.7988,623.8152,1491.4179,620.2363,1496.3,628.79" style="stroke:#181818;stroke-width:1.0;"/><text fill="#000000" font-family="sans-serif" font-size="13" lengthAdjust="spacing" textLength="42" x="1485" y="494.5283">&#171;uses&#187;</text></g><!--link LocationAssembler to LocationDTO--><g id="link_LocationAssembler_LocationDTO"><path codeLine="113" d="M1313,312.08 C1313,343 1313,384.23 1313,421.97 " fill="none" id="LocationAssembler-to-LocationDTO" style="stroke:#181818;stroke-width:1.0;stroke-dasharray:7.0,7.0;"/><polygon fill="#181818" points="1313,427.97,1317,418.97,1313,422.97,1309,418.97,1313,427.97" style="stroke:#181818;stroke-width:1.0;"/><text fill="#000000" font-family="sans-serif" font-size="13" lengthAdjust="spacing" textLength="68" x="1314" y="394.0283">&#171;transform&#187;</text></g><!--SRC=[nLPDZzCm4BtdLrZBeOdeje9ZL5MgTg4WBH-YY0ENbPjuqqX97DaENuN_piHs_9Lqjui4NDfa_EQzcMUFszb1Y9QdosLRuKPqTRN8QBtCAipvPLxYWk4wYkGhkgBDNLbqZBoY7IStDCEYf0r41QDLHTWnccs4OEM-4uJFeajqU-Y1APBuA9gz8U90SrXw-Y1NxAOcm5NoJxWgSq1mmRfCKBPXHLUJHd0Vcw8zfHN13QXaaoenC10YKhI3OfjYZdwKxHNDYGtabBAtNRqdB4Lb8-QeWaJHzP2STlkAG8GsXHS2uK7W-kExwDVWcfH6nsXaJgNHBt7VpNTaytMa1p5AQmluODzS1YVLTrbgnu7GI6UE71LF906EdDoLpR_ppXetHAQymtdE2EVMcOqNw255wonlt- -S9IonCgj_q6W5SmryWlvkstFazn6sCKUs2IZEF8DTui3eLuvUmwmKk1f6uSMtZBJIiv-mSmKHcYzE3BMA0vTfBP7K41TKDTD7r1Cumos9BjPGEQGI1omn52pfDEbeCtK7H- -OPenWyJ-Fs8PpKk_L5URKjLfn0UlPUWqaDIwRvp3PPfmiOO9EpBuJHCU9GwpiD5xVIlVqgrU9GpIbFxrvK8QkGs_JH0s-rtqaSBiF1Nxx8pASZiVkMkBE7voUdSmFQA2PBxJC5UApOem3PWzpRKJYK4_3vFdNOjOh6Hq4Wh33cIW3JjdjkNtFKVzZpunbHWocR69Rmu5GlnR1IFZxs4_lENEaVBxHo55AuaZsk24_dff8ZPGk6yOmRXZSXVlyjnVbbFVdzcaki8V-gg2BPnUBnHe-rKzz2lS6VFFr-X6fevl8fL6y1XjUfYxKFtjEpcQul5ShvGE0hL4ESDlwe51iH3bHnUcSRNiE7i2coSbYh4qXD62S1i8rscC5mms_ewo6XDy0]--></g></svg>