<?xml version="1.0" encoding="us-ascii" standalone="no"?><svg xmlns="http://www.w3.org/2000/svg" xmlns:xlink="http://www.w3.org/1999/xlink" contentStyleType="text/css" height="515px" preserveAspectRatio="none" style="width:678px;height:515px;background:#FFFFFF;" version="1.1" viewBox="0 0 678 515" width="678px" zoomAndPan="magnify"><defs/><g><!--class ConfigureHouseLocation--><g id="elem_ConfigureHouseLocation"><rect codeLine="6" fill="#F1F1F1" height="116.4453" id="ConfigureHouseLocation" rx="2.5" ry="2.5" style="stroke:#181818;stroke-width:0.5;" width="363" x="268.5" y="12"/><ellipse cx="367.75" cy="34.291" fill="#ADD1B2" rx="11" ry="11" style="stroke:#181818;stroke-width:1.0;"/><path d="M370.5156,30.166 Q370.6719,29.9473 370.8594,29.8379 Q371.0469,29.7285 371.2656,29.7285 Q371.6406,29.7285 371.875,29.9941 Q372.1094,30.2441 372.1094,30.8535 L372.1094,32.3066 Q372.1094,32.916 371.875,33.1816 Q371.6406,33.4473 371.2656,33.4473 Q370.9219,33.4473 370.7188,33.2441 Q370.5156,33.0566 370.4063,32.541 Q370.3594,32.1816 370.1719,31.9941 Q369.8438,31.6191 369.2344,31.4004 Q368.625,31.1816 368,31.1816 Q367.2344,31.1816 366.5938,31.5098 Q365.9688,31.8379 365.4688,32.5879 Q364.9844,33.3379 364.9844,34.3691 L364.9844,35.4629 Q364.9844,36.6973 365.875,37.5254 Q366.7656,38.3379 368.3594,38.3379 Q369.2969,38.3379 369.9531,38.0879 Q370.3438,37.9316 370.7656,37.4941 Q371.0313,37.2285 371.1719,37.1504 Q371.3281,37.0723 371.5313,37.0723 Q371.8594,37.0723 372.1094,37.3379 Q372.375,37.5879 372.375,37.9316 Q372.375,38.2754 372.0313,38.6816 Q371.5313,39.2598 370.7344,39.5879 Q369.6563,40.041 368.3594,40.041 Q366.8438,40.041 365.6406,39.416 Q364.6563,38.916 363.9688,37.8535 Q363.2813,36.7754 363.2813,35.4941 L363.2813,34.3379 Q363.2813,33.0098 363.8906,31.8691 Q364.5156,30.7129 365.6094,30.1035 Q366.7031,29.4785 367.9375,29.4785 Q368.6719,29.4785 369.3125,29.6504 Q369.9688,29.8066 370.5156,30.166 Z " fill="#000000"/><text fill="#000000" font-family="sans-serif" font-size="12" font-style="italic" lengthAdjust="spacing" textLength="68" x="432.25" y="29.9492">&#171;Controller&#187;</text><text fill="#000000" font-family="sans-serif" font-size="14" lengthAdjust="spacing" textLength="156" x="388.25" y="48.0684">ConfigureHouseLocation</text><line style="stroke:#181818;stroke-width:0.5;" x1="269.5" x2="630.5" y1="56.582" y2="56.582"/><rect fill="none" height="6" style="stroke:#C82930;stroke-width:1.0;" width="6" x="276.5" y="68.3926"/><text fill="#000000" font-family="sans-serif" font-size="14" lengthAdjust="spacing" textLength="189" x="288.5" y="75.6895">_houseService: HouseService</text><rect fill="none" height="6" style="stroke:#C82930;stroke-width:1.0;" width="6" x="276.5" y="87.0137"/><text fill="#000000" font-family="sans-serif" font-size="14" lengthAdjust="spacing" textLength="227" x="288.5" y="94.3105">_houseAssembler: HouseAssembler</text><line style="stroke:#181818;stroke-width:0.5;" x1="269.5" x2="630.5" y1="101.8242" y2="101.8242"/><ellipse cx="279.5" cy="116.6348" fill="#84BE84" rx="3" ry="3" style="stroke:#038048;stroke-width:1.0;"/><text fill="#000000" font-family="sans-serif" font-size="14" lengthAdjust="spacing" textLength="337" x="288.5" y="120.9316">configureHouseLocation(HouseDataDTO):HouseDTO</text></g><!--class HouseService--><g id="elem_HouseService"><rect codeLine="11" fill="#F1F1F1" height="116.4453" id="HouseService" rx="2.5" ry="2.5" style="stroke:#181818;stroke-width:0.5;" width="257" x="167.5" y="221"/><ellipse cx="248.25" cy="243.291" fill="#ADD1B2" rx="11" ry="11" style="stroke:#181818;stroke-width:1.0;"/><path d="M251.0156,239.166 Q251.1719,238.9473 251.3594,238.8379 Q251.5469,238.7285 251.7656,238.7285 Q252.1406,238.7285 252.375,238.9941 Q252.6094,239.2441 252.6094,239.8535 L252.6094,241.3066 Q252.6094,241.916 252.375,242.1816 Q252.1406,242.4473 251.7656,242.4473 Q251.4219,242.4473 251.2188,242.2441 Q251.0156,242.0566 250.9063,241.541 Q250.8594,241.1816 250.6719,240.9941 Q250.3438,240.6191 249.7344,240.4004 Q249.125,240.1816 248.5,240.1816 Q247.7344,240.1816 247.0938,240.5098 Q246.4688,240.8379 245.9688,241.5879 Q245.4844,242.3379 245.4844,243.3691 L245.4844,244.4629 Q245.4844,245.6973 246.375,246.5254 Q247.2656,247.3379 248.8594,247.3379 Q249.7969,247.3379 250.4531,247.0879 Q250.8438,246.9316 251.2656,246.4941 Q251.5313,246.2285 251.6719,246.1504 Q251.8281,246.0723 252.0313,246.0723 Q252.3594,246.0723 252.6094,246.3379 Q252.875,246.5879 252.875,246.9316 Q252.875,247.2754 252.5313,247.6816 Q252.0313,248.2598 251.2344,248.5879 Q250.1563,249.041 248.8594,249.041 Q247.3438,249.041 246.1406,248.416 Q245.1563,247.916 244.4688,246.8535 Q243.7813,245.7754 243.7813,244.4941 L243.7813,243.3379 Q243.7813,242.0098 244.3906,240.8691 Q245.0156,239.7129 246.1094,239.1035 Q247.2031,238.4785 248.4375,238.4785 Q249.1719,238.4785 249.8125,238.6504 Q250.4688,238.8066 251.0156,239.166 Z " fill="#000000"/><text fill="#000000" font-family="sans-serif" font-size="12" font-style="italic" lengthAdjust="spacing" textLength="55" x="284.75" y="238.9492">&#171;Service&#187;</text><text fill="#000000" font-family="sans-serif" font-size="14" lengthAdjust="spacing" textLength="87" x="268.75" y="257.0684">HouseService</text><line style="stroke:#181818;stroke-width:0.5;" x1="168.5" x2="423.5" y1="265.582" y2="265.582"/><rect fill="none" height="6" style="stroke:#C82930;stroke-width:1.0;" width="6" x="175.5" y="277.3926"/><text fill="#000000" font-family="sans-serif" font-size="14" lengthAdjust="spacing" textLength="191" x="187.5" y="284.6895">_houseFactory: HouseFactory</text><rect fill="none" height="6" style="stroke:#C82930;stroke-width:1.0;" width="6" x="175.5" y="296.0137"/><text fill="#000000" font-family="sans-serif" font-size="14" lengthAdjust="spacing" textLength="231" x="187.5" y="303.3105">_houseRepository: HouseRepository</text><line style="stroke:#181818;stroke-width:0.5;" x1="168.5" x2="423.5" y1="310.8242" y2="310.8242"/><ellipse cx="178.5" cy="325.6348" fill="#84BE84" rx="3" ry="3" style="stroke:#038048;stroke-width:1.0;"/><text fill="#000000" font-family="sans-serif" font-size="14" lengthAdjust="spacing" textLength="200" x="187.5" y="329.9316">addHouse(address, gps):House</text></g><!--class HouseFactory--><g id="elem_HouseFactory"><rect codeLine="16" fill="#F1F1F1" height="79.2031" id="HouseFactory" rx="2.5" ry="2.5" style="stroke:#181818;stroke-width:0.5;" width="242" x="6" y="410.5"/><ellipse cx="78.75" cy="432.791" fill="#ADD1B2" rx="11" ry="11" style="stroke:#181818;stroke-width:1.0;"/><path d="M81.5156,428.666 Q81.6719,428.4473 81.8594,428.3379 Q82.0469,428.2285 82.2656,428.2285 Q82.6406,428.2285 82.875,428.4941 Q83.1094,428.7441 83.1094,429.3535 L83.1094,430.8066 Q83.1094,431.416 82.875,431.6816 Q82.6406,431.9473 82.2656,431.9473 Q81.9219,431.9473 81.7188,431.7441 Q81.5156,431.5566 81.4063,431.041 Q81.3594,430.6816 81.1719,430.4941 Q80.8438,430.1191 80.2344,429.9004 Q79.625,429.6816 79,429.6816 Q78.2344,429.6816 77.5938,430.0098 Q76.9688,430.3379 76.4688,431.0879 Q75.9844,431.8379 75.9844,432.8691 L75.9844,433.9629 Q75.9844,435.1973 76.875,436.0254 Q77.7656,436.8379 79.3594,436.8379 Q80.2969,436.8379 80.9531,436.5879 Q81.3438,436.4316 81.7656,435.9941 Q82.0313,435.7285 82.1719,435.6504 Q82.3281,435.5723 82.5313,435.5723 Q82.8594,435.5723 83.1094,435.8379 Q83.375,436.0879 83.375,436.4316 Q83.375,436.7754 83.0313,437.1816 Q82.5313,437.7598 81.7344,438.0879 Q80.6563,438.541 79.3594,438.541 Q77.8438,438.541 76.6406,437.916 Q75.6563,437.416 74.9688,436.3535 Q74.2813,435.2754 74.2813,433.9941 L74.2813,432.8379 Q74.2813,431.5098 74.8906,430.3691 Q75.5156,429.2129 76.6094,428.6035 Q77.7031,427.9785 78.9375,427.9785 Q79.6719,427.9785 80.3125,428.1504 Q80.9688,428.3066 81.5156,428.666 Z " fill="#000000"/><text fill="#000000" font-family="sans-serif" font-size="12" font-style="italic" lengthAdjust="spacing" textLength="54" x="116.25" y="428.4492">&#171;Factory&#187;</text><text fill="#000000" font-family="sans-serif" font-size="14" lengthAdjust="spacing" textLength="88" x="99.25" y="446.5684">HouseFactory</text><line style="stroke:#181818;stroke-width:0.5;" x1="7" x2="247" y1="455.082" y2="455.082"/><line style="stroke:#181818;stroke-width:0.5;" x1="7" x2="247" y1="463.082" y2="463.082"/><ellipse cx="17" cy="477.8926" fill="#84BE84" rx="3" ry="3" style="stroke:#038048;stroke-width:1.0;"/><text fill="#000000" font-family="sans-serif" font-size="14" lengthAdjust="spacing" textLength="216" x="26" y="482.1895">createHouse(address, gps):House</text></g><!--class HouseRepository--><g id="elem_HouseRepository"><rect codeLine="19" fill="#F1F1F1" height="97.8242" id="HouseRepository" rx="2.5" ry="2.5" style="stroke:#181818;stroke-width:0.5;" width="160" x="266" y="401"/><ellipse cx="290" cy="423.291" fill="#ADD1B2" rx="11" ry="11" style="stroke:#181818;stroke-width:1.0;"/><path d="M292.7656,419.166 Q292.9219,418.9473 293.1094,418.8379 Q293.2969,418.7285 293.5156,418.7285 Q293.8906,418.7285 294.125,418.9941 Q294.3594,419.2441 294.3594,419.8535 L294.3594,421.3066 Q294.3594,421.916 294.125,422.1816 Q293.8906,422.4473 293.5156,422.4473 Q293.1719,422.4473 292.9688,422.2441 Q292.7656,422.0566 292.6563,421.541 Q292.6094,421.1816 292.4219,420.9941 Q292.0938,420.6191 291.4844,420.4004 Q290.875,420.1816 290.25,420.1816 Q289.4844,420.1816 288.8438,420.5098 Q288.2188,420.8379 287.7188,421.5879 Q287.2344,422.3379 287.2344,423.3691 L287.2344,424.4629 Q287.2344,425.6973 288.125,426.5254 Q289.0156,427.3379 290.6094,427.3379 Q291.5469,427.3379 292.2031,427.0879 Q292.5938,426.9316 293.0156,426.4941 Q293.2813,426.2285 293.4219,426.1504 Q293.5781,426.0723 293.7813,426.0723 Q294.1094,426.0723 294.3594,426.3379 Q294.625,426.5879 294.625,426.9316 Q294.625,427.2754 294.2813,427.6816 Q293.7813,428.2598 292.9844,428.5879 Q291.9063,429.041 290.6094,429.041 Q289.0938,429.041 287.8906,428.416 Q286.9063,427.916 286.2188,426.8535 Q285.5313,425.7754 285.5313,424.4941 L285.5313,423.3379 Q285.5313,422.0098 286.1406,420.8691 Q286.7656,419.7129 287.8594,419.1035 Q288.9531,418.4785 290.1875,418.4785 Q290.9219,418.4785 291.5625,418.6504 Q292.2188,418.8066 292.7656,419.166 Z " fill="#000000"/><text fill="#000000" font-family="sans-serif" font-size="12" font-style="italic" lengthAdjust="spacing" textLength="73" x="323.5" y="418.9492">&#171;Repository&#187;</text><text fill="#000000" font-family="sans-serif" font-size="14" lengthAdjust="spacing" textLength="108" x="306" y="437.0684">HouseRepository</text><line style="stroke:#181818;stroke-width:0.5;" x1="267" x2="425" y1="445.582" y2="445.582"/><line style="stroke:#181818;stroke-width:0.5;" x1="267" x2="425" y1="453.582" y2="453.582"/><ellipse cx="277" cy="468.3926" fill="#84BE84" rx="3" ry="3" style="stroke:#038048;stroke-width:1.0;"/><text fill="#000000" font-family="sans-serif" font-size="14" lengthAdjust="spacing" textLength="124" x="286" y="472.6895">saveHouse():House</text><ellipse cx="277" cy="487.0137" fill="#84BE84" rx="3" ry="3" style="stroke:#038048;stroke-width:1.0;"/><text fill="#000000" font-family="sans-serif" font-size="14" lengthAdjust="spacing" textLength="134" x="286" y="491.3105">findAll():List &lt;House&gt;</text></g><!--class HouseAssembler--><g id="elem_HouseAssembler"><rect codeLine="23" fill="#F1F1F1" height="97.8242" id="HouseAssembler" rx="2.5" ry="2.5" style="stroke:#181818;stroke-width:0.5;" width="228" x="443" y="230"/><ellipse cx="499.75" cy="252.291" fill="#ADD1B2" rx="11" ry="11" style="stroke:#181818;stroke-width:1.0;"/><path d="M502.5156,248.166 Q502.6719,247.9473 502.8594,247.8379 Q503.0469,247.7285 503.2656,247.7285 Q503.6406,247.7285 503.875,247.9941 Q504.1094,248.2441 504.1094,248.8535 L504.1094,250.3066 Q504.1094,250.916 503.875,251.1816 Q503.6406,251.4473 503.2656,251.4473 Q502.9219,251.4473 502.7188,251.2441 Q502.5156,251.0566 502.4063,250.541 Q502.3594,250.1816 502.1719,249.9941 Q501.8438,249.6191 501.2344,249.4004 Q500.625,249.1816 500,249.1816 Q499.2344,249.1816 498.5938,249.5098 Q497.9688,249.8379 497.4688,250.5879 Q496.9844,251.3379 496.9844,252.3691 L496.9844,253.4629 Q496.9844,254.6973 497.875,255.5254 Q498.7656,256.3379 500.3594,256.3379 Q501.2969,256.3379 501.9531,256.0879 Q502.3438,255.9316 502.7656,255.4941 Q503.0313,255.2285 503.1719,255.1504 Q503.3281,255.0723 503.5313,255.0723 Q503.8594,255.0723 504.1094,255.3379 Q504.375,255.5879 504.375,255.9316 Q504.375,256.2754 504.0313,256.6816 Q503.5313,257.2598 502.7344,257.5879 Q501.6563,258.041 500.3594,258.041 Q498.8438,258.041 497.6406,257.416 Q496.6563,256.916 495.9688,255.8535 Q495.2813,254.7754 495.2813,253.4941 L495.2813,252.3379 Q495.2813,251.0098 495.8906,249.8691 Q496.5156,248.7129 497.6094,248.1035 Q498.7031,247.4785 499.9375,247.4785 Q500.6719,247.4785 501.3125,247.6504 Q501.9688,247.8066 502.5156,248.166 Z " fill="#000000"/><text fill="#000000" font-family="sans-serif" font-size="12" font-style="italic" lengthAdjust="spacing" textLength="74" x="536.25" y="247.9492">&#171;Assembler&#187;</text><text fill="#000000" font-family="sans-serif" font-size="14" lengthAdjust="spacing" textLength="106" x="520.25" y="266.0684">HouseAssembler</text><line style="stroke:#181818;stroke-width:0.5;" x1="444" x2="670" y1="274.582" y2="274.582"/><line style="stroke:#181818;stroke-width:0.5;" x1="444" x2="670" y1="282.582" y2="282.582"/><ellipse cx="454" cy="297.3926" fill="#84BE84" rx="3" ry="3" style="stroke:#038048;stroke-width:1.0;"/><text fill="#000000" font-family="sans-serif" font-size="14" lengthAdjust="spacing" textLength="168" x="463" y="301.6895">domain2DTO():HouseDTO</text><ellipse cx="454" cy="316.0137" fill="#84BE84" rx="3" ry="3" style="stroke:#038048;stroke-width:1.0;"/><text fill="#000000" font-family="sans-serif" font-size="14" lengthAdjust="spacing" textLength="202" x="463" y="320.3105">dto2Domain():List &lt;HouseDTO&gt;</text></g><!--class HouseDTO--><g id="elem_HouseDTO"><rect codeLine="27" fill="#F1F1F1" height="116.4453" id="HouseDTO" rx="2.5" ry="2.5" style="stroke:#181818;stroke-width:0.5;" width="128" x="493" y="392"/><ellipse cx="519.7" cy="414.291" fill="#ADD1B2" rx="11" ry="11" style="stroke:#181818;stroke-width:1.0;"/><path d="M522.4656,410.166 Q522.6219,409.9473 522.8094,409.8379 Q522.9969,409.7285 523.2156,409.7285 Q523.5906,409.7285 523.825,409.9941 Q524.0594,410.2441 524.0594,410.8535 L524.0594,412.3066 Q524.0594,412.916 523.825,413.1816 Q523.5906,413.4473 523.2156,413.4473 Q522.8719,413.4473 522.6688,413.2441 Q522.4656,413.0566 522.3563,412.541 Q522.3094,412.1816 522.1219,411.9941 Q521.7938,411.6191 521.1844,411.4004 Q520.575,411.1816 519.95,411.1816 Q519.1844,411.1816 518.5438,411.5098 Q517.9188,411.8379 517.4188,412.5879 Q516.9344,413.3379 516.9344,414.3691 L516.9344,415.4629 Q516.9344,416.6973 517.825,417.5254 Q518.7156,418.3379 520.3094,418.3379 Q521.2469,418.3379 521.9031,418.0879 Q522.2938,417.9316 522.7156,417.4941 Q522.9813,417.2285 523.1219,417.1504 Q523.2781,417.0723 523.4813,417.0723 Q523.8094,417.0723 524.0594,417.3379 Q524.325,417.5879 524.325,417.9316 Q524.325,418.2754 523.9813,418.6816 Q523.4813,419.2598 522.6844,419.5879 Q521.6063,420.041 520.3094,420.041 Q518.7938,420.041 517.5906,419.416 Q516.6063,418.916 515.9188,417.8535 Q515.2313,416.7754 515.2313,415.4941 L515.2313,414.3379 Q515.2313,413.0098 515.8406,411.8691 Q516.4656,410.7129 517.5594,410.1035 Q518.6531,409.4785 519.8875,409.4785 Q520.6219,409.4785 521.2625,409.6504 Q521.9188,409.8066 522.4656,410.166 Z " fill="#000000"/><text fill="#000000" font-family="sans-serif" font-size="12" font-style="italic" lengthAdjust="spacing" textLength="39" x="551.8" y="409.9492">&#171;DTO&#187;</text><text fill="#000000" font-family="sans-serif" font-size="14" lengthAdjust="spacing" textLength="70" x="536.3" y="428.0684">HouseDTO</text><line style="stroke:#181818;stroke-width:0.5;" x1="494" x2="620" y1="436.582" y2="436.582"/><rect fill="none" height="6" style="stroke:#C82930;stroke-width:1.0;" width="6" x="501" y="448.3926"/><text fill="#000000" font-family="sans-serif" font-size="14" lengthAdjust="spacing" textLength="96" x="513" y="455.6895">address: String</text><rect fill="none" height="6" style="stroke:#C82930;stroke-width:1.0;" width="6" x="501" y="467.0137"/><text fill="#000000" font-family="sans-serif" font-size="14" lengthAdjust="spacing" textLength="68" x="513" y="474.3105">gps: String</text><line style="stroke:#181818;stroke-width:0.5;" x1="494" x2="620" y1="481.8242" y2="481.8242"/><ellipse cx="504" cy="496.6348" fill="#84BE84" rx="3" ry="3" style="stroke:#038048;stroke-width:1.0;"/><text fill="#000000" font-family="sans-serif" font-size="14" lengthAdjust="spacing" textLength="102" x="513" y="500.9316">tostring(): String</text></g><polygon fill="#181818" points="338.6173,220.7158,347.1986,215.8825,341.6017,216.7042,340.78,211.1073,338.6173,220.7158" style="stroke:#181818;stroke-width:1.0;"/><path d="M407.5112,128.1116 C386.0551,156.952 363.6727,187.0374 342.1986,215.9019 " fill="none" style="stroke:#181818;stroke-width:1.0;stroke-dasharray:7.0,7.0;"/><text fill="#000000" font-family="sans-serif" font-size="13" lengthAdjust="spacing" textLength="28" x="382" y="180.0283">uses</text><text fill="#000000" font-family="sans-serif" font-size="13" lengthAdjust="spacing" textLength="7" x="330.6173" y="216.7441">1</text><text fill="#000000" font-family="sans-serif" font-size="13" lengthAdjust="spacing" textLength="7" x="399.5112" y="143.1399">1</text><polygon fill="#181818" points="165.5337,410.4663,174.7261,406.9307,169.0693,406.9307,169.0693,401.2739,165.5337,410.4663" style="stroke:#181818;stroke-width:1.0;"/><path d="M238.7843,337.2157 C214.6532,361.3468 191.4392,384.5608 169.7764,406.2236 " fill="none" style="stroke:#181818;stroke-width:1.0;stroke-dasharray:7.0,7.0;"/><text fill="#000000" font-family="sans-serif" font-size="13" lengthAdjust="spacing" textLength="21" x="218" y="370.0283">has</text><text fill="#000000" font-family="sans-serif" font-size="13" lengthAdjust="spacing" textLength="7" x="157.5337" y="406.4946">1</text><text fill="#000000" font-family="sans-serif" font-size="13" lengthAdjust="spacing" textLength="7" x="239.7843" y="352.244">1</text><polygon fill="#595959" points="532.1015,229.8319,531.5222,220.0001,529.8056,225.3902,524.4155,223.6736,532.1015,229.8319" style="stroke:#595959;stroke-width:1.0;"/><path d="M479.5215,128.1116 C496.0376,160.0634 513.6427,194.1219 529.3464,224.5019 " fill="none" style="stroke:#595959;stroke-width:1.0;stroke-dasharray:7.0,7.0;"/><text fill="#000000" font-family="sans-serif" font-size="13" lengthAdjust="spacing" textLength="43" x="510" y="180.0283">creates</text><text fill="#000000" font-family="sans-serif" font-size="13" lengthAdjust="spacing" textLength="7" x="524.1015" y="225.8602">1</text><text fill="#000000" font-family="sans-serif" font-size="13" lengthAdjust="spacing" textLength="7" x="471.5215" y="143.1399">1</text><polygon fill="#595959" points="557,391.8957,561,382.8957,557,386.8957,553,382.8957,557,391.8957" style="stroke:#595959;stroke-width:1.0;"/><path d="M557,328.4286 C557,348.2287 557,365.2818 557,385.8957 " fill="none" style="stroke:#595959;stroke-width:1.0;stroke-dasharray:7.0,7.0;"/><text fill="#000000" font-family="sans-serif" font-size="13" lengthAdjust="spacing" textLength="21" x="558" y="370.0283">has</text><text fill="#000000" font-family="sans-serif" font-size="13" lengthAdjust="spacing" textLength="7" x="549" y="387.924">1</text><text fill="#000000" font-family="sans-serif" font-size="13" lengthAdjust="spacing" textLength="7" x="549" y="343.4569">1</text><polygon fill="#181818" points="331.7556,400.854,333.038,391.089,330.3371,396.0595,325.3667,393.3586,331.7556,400.854" style="stroke:#181818;stroke-width:1.0;"/><path d="M312.9277,337.2157 C319.0472,357.8995 324.1873,375.273 330.0534,395.1006 " fill="none" style="stroke:#181818;stroke-width:1.0;stroke-dasharray:7.0,7.0;"/><text fill="#000000" font-family="sans-serif" font-size="13" lengthAdjust="spacing" textLength="21" x="324" y="370.0283">has</text><text fill="#000000" font-family="sans-serif" font-size="13" lengthAdjust="spacing" textLength="7" x="323.7556" y="396.8824">1</text><text fill="#000000" font-family="sans-serif" font-size="13" lengthAdjust="spacing" textLength="7" x="304.9277" y="352.244">1</text><!--SRC=[ZL9DImCn4BtdLuprKcaL53nOmaAnI0z2mNeJaUbkkWtkPfPagXJnlvjDirz5nDtBpCkRzoQJEQiivYL2WGVQCxXICHeKWga29jWGCvMGQQjIrcI4UzUcGeib5DeeFbGAoFAEX4WBT0xkoMnrlhTgINkd7Yd5kanAZxEbeb0sIRu4-E_oRLTJrif-w5JDODdB-eIvSwhS-C98QVD0cgI_6ev3ja36nVFgOdRCdbVYExRPDmCfOtJIsWEcJFOGVMFM9pofYfpkSJhWs1ncMS37Fh3AkIdabOlj37k9wbB6e6bbabg5hFwfqlbBsSMjbiEFgDHK1tYhJJOl2Wy-QiSWmr4oL6wdBcKRjhePbQZDZH_mk3Vhun7JpI8S3-KzuSJ18rBMSFC84AyxWpLRRVA8-hiFa0cJ2vatQF1lyViUmkXw19SPVPghgoGaoy4E-jY9mMxKd04tlW_CO8SEaZ-DNivlx-f_MXL-0Ay3dNQANkdunj6vEmZUfnez2J-ijes_c-vseIdu0G00]--></g></svg>