<?xml version="1.0" encoding="us-ascii" standalone="no"?><svg xmlns="http://www.w3.org/2000/svg" xmlns:xlink="http://www.w3.org/1999/xlink" contentStyleType="text/css" height="527.4px" preserveAspectRatio="none" style="width:1686px;height:527px;background:#FFFFFF;" version="1.1" viewBox="0 0 1686 527" width="1686px" zoomAndPan="magnify"><defs/><g><!--cluster domain--><g id="cluster_domain"><path d="M9.9,2.4 L41.1,2.4 A2.25,2.25 0 0 1 42.6,3.9 L46.8,17.1727 L572.1,17.1727 A1.5,1.5 0 0 1 573.6,18.6727 L573.6,420.9 A1.5,1.5 0 0 1 572.1,422.4 L9.9,422.4 A1.5,1.5 0 0 1 8.4,420.9 L8.4,3.9 A1.5,1.5 0 0 1 9.9,2.4 " fill="none" style="stroke:#000000;stroke-width:0.8999999999999999;"/><line style="stroke:#000000;stroke-width:0.8999999999999999;" x1="8.4" x2="46.8" y1="17.1727" y2="17.1727"/><text fill="#000000" font-family="sans-serif" font-size="8.4" font-weight="bold" lengthAdjust="spacing" textLength="30.6" x="10.8" y="12.6645">domain</text></g><!--cluster Sensor--><g id="cluster_Sensor"><path d="M14.7,19.8 L45.3,19.8 A2.25,2.25 0 0 1 46.8,21.3 L51,34.5727 L567.3,34.5727 A1.5,1.5 0 0 1 568.8,36.0727 L568.8,416.1 A1.5,1.5 0 0 1 567.3,417.6 L14.7,417.6 A1.5,1.5 0 0 1 13.2,416.1 L13.2,21.3 A1.5,1.5 0 0 1 14.7,19.8 " fill="none" style="stroke:#000000;stroke-width:0.8999999999999999;"/><line style="stroke:#000000;stroke-width:0.8999999999999999;" x1="13.2" x2="51" y1="34.5727" y2="34.5727"/><text fill="#000000" font-family="sans-serif" font-size="8.4" font-weight="bold" lengthAdjust="spacing" textLength="30" x="15.6" y="30.0645">Sensor</text></g><!--cluster valueObject--><g id="cluster_valueObject"><path d="M579.9,294 L631.5,294 A2.25,2.25 0 0 1 633,295.5 L637.2,308.7727 L1548.3,308.7727 A1.5,1.5 0 0 1 1549.8,310.2727 L1549.8,410.7 A1.5,1.5 0 0 1 1548.3,412.2 L579.9,412.2 A1.5,1.5 0 0 1 578.4,410.7 L578.4,295.5 A1.5,1.5 0 0 1 579.9,294 " fill="none" style="stroke:#000000;stroke-width:0.8999999999999999;"/><line style="stroke:#000000;stroke-width:0.8999999999999999;" x1="578.4" x2="637.2" y1="308.7727" y2="308.7727"/><text fill="#000000" font-family="sans-serif" font-size="8.4" font-weight="bold" lengthAdjust="spacing" textLength="51" x="580.8" y="304.2645">valueObject</text></g><!--cluster ddd--><g id="cluster_ddd"><path d="M1556.1,120.3 L1572.9,120.3 A2.25,2.25 0 0 1 1574.4,121.8 L1578.6,135.0727 L1644.3,135.0727 A1.5,1.5 0 0 1 1645.8,136.5727 L1645.8,521.7 A1.5,1.5 0 0 1 1644.3,523.2 L1556.1,523.2 A1.5,1.5 0 0 1 1554.6,521.7 L1554.6,121.8 A1.5,1.5 0 0 1 1556.1,120.3 " fill="none" style="stroke:#000000;stroke-width:0.8999999999999999;"/><line style="stroke:#000000;stroke-width:0.8999999999999999;" x1="1554.6" x2="1578.6" y1="135.0727" y2="135.0727"/><text fill="#000000" font-family="sans-serif" font-size="8.4" font-weight="bold" lengthAdjust="spacing" textLength="16.2" x="1557" y="130.5645">ddd</text></g><!--class Sensor--><g id="elem_Sensor"><rect codeLine="8" fill="#F1F1F1" height="107.0086" id="Sensor" rx="1.5" ry="1.5" style="stroke:#181818;stroke-width:0.3;" width="146.4" x="217.8" y="306"/><ellipse cx="274.95" cy="315.6" fill="#B4A7E5" rx="6.6" ry="6.6" style="stroke:#181818;stroke-width:0.6;"/><path d="M275.5219,313.5844 L275.5219,317.5781 L276.5531,317.5781 Q276.9188,317.5781 277.0781,317.7188 Q277.2375,317.8594 277.2375,318.0938 Q277.2375,318.3187 277.0781,318.4594 Q276.9188,318.6 276.5531,318.6 L273.4688,318.6 Q273.1031,318.6 272.9437,318.4594 Q272.7844,318.3187 272.7844,318.0844 Q272.7844,317.8594 272.9437,317.7188 Q273.1031,317.5781 273.4688,317.5781 L274.5,317.5781 L274.5,313.5844 L273.4688,313.5844 Q273.1031,313.5844 272.9437,313.4437 Q272.7844,313.3031 272.7844,313.0687 Q272.7844,312.8438 272.9437,312.7031 Q273.1031,312.5625 273.4688,312.5625 L276.5531,312.5625 Q276.9188,312.5625 277.0781,312.7031 Q277.2375,312.8438 277.2375,313.0687 Q277.2375,313.3031 277.0781,313.4437 Q276.9188,313.5844 276.5531,313.5844 L275.5219,313.5844 Z " fill="#000000"/><text fill="#000000" font-family="sans-serif" font-size="8.4" font-style="italic" lengthAdjust="spacing" textLength="27" x="287.25" y="319.0781">Sensor</text><line style="stroke:#181818;stroke-width:0.3;" x1="218.4" x2="363.6" y1="325.2" y2="325.2"/><ellipse cx="224.4" cy="334.0863" fill="none" rx="1.8" ry="1.8" style="stroke:#038048;stroke-width:0.6;"/><text fill="#000000" font-family="sans-serif" font-size="8.4" lengthAdjust="spacing" textLength="87" x="229.8" y="336.6645">getName: SensorName</text><line style="stroke:#181818;stroke-width:0.3;" x1="218.4" x2="363.6" y1="341.1727" y2="341.1727"/><ellipse cx="224.4" cy="350.059" fill="#84BE84" rx="1.8" ry="1.8" style="stroke:#038048;stroke-width:0.6;"/><text fill="#000000" font-family="sans-serif" font-size="8.4" lengthAdjust="spacing" textLength="65.4" x="229.8" y="352.6371">getID(): SensorID</text><ellipse cx="224.4" cy="361.2316" fill="#84BE84" rx="1.8" ry="1.8" style="stroke:#038048;stroke-width:0.6;"/><text fill="#000000" font-family="sans-serif" font-size="8.4" lengthAdjust="spacing" textLength="103.2" x="229.8" y="363.8098">getModelPath(): ModelPath</text><ellipse cx="224.4" cy="372.4043" fill="#84BE84" rx="1.8" ry="1.8" style="stroke:#038048;stroke-width:0.6;"/><text fill="#000000" font-family="sans-serif" font-size="8.4" lengthAdjust="spacing" textLength="130.8" x="229.8" y="374.9824">getSensorTypeID(): SensorTypeID</text><ellipse cx="224.4" cy="383.577" fill="#84BE84" rx="1.8" ry="1.8" style="stroke:#038048;stroke-width:0.6;"/><text fill="#000000" font-family="sans-serif" font-size="8.4" lengthAdjust="spacing" textLength="62.4" x="229.8" y="386.1551">toString(): String</text><ellipse cx="224.4" cy="394.7496" fill="#84BE84" rx="1.8" ry="1.8" style="stroke:#038048;stroke-width:0.6;"/><text fill="#000000" font-family="sans-serif" font-size="8.4" lengthAdjust="spacing" textLength="90.6" x="229.8" y="397.3277">getValue(): ValueObject</text><ellipse cx="224.4" cy="405.9223" fill="#84BE84" rx="1.8" ry="1.8" style="stroke:#038048;stroke-width:0.6;"/><text fill="#000000" font-family="sans-serif" font-size="8.4" lengthAdjust="spacing" textLength="90" x="229.8" y="408.5004">getDeviceID(): DeviceID</text></g><!--class AveragePowerConsumptionSensor--><g id="elem_AveragePowerConsumptionSensor"><rect codeLine="18" fill="#F1F1F1" height="229.9078" id="AveragePowerConsumptionSensor" rx="1.5" ry="1.5" style="stroke:#181818;stroke-width:0.3;" width="546" x="18" y="37.2"/><ellipse cx="222.45" cy="46.8" fill="#ADD1B2" rx="6.6" ry="6.6" style="stroke:#181818;stroke-width:0.6;"/><path d="M224.1094,44.325 Q224.2031,44.1938 224.3156,44.1281 Q224.4281,44.0625 224.5594,44.0625 Q224.7844,44.0625 224.925,44.2219 Q225.0656,44.3719 225.0656,44.7375 L225.0656,45.6094 Q225.0656,45.975 224.925,46.1344 Q224.7844,46.2937 224.5594,46.2937 Q224.3531,46.2937 224.2313,46.1719 Q224.1094,46.0594 224.0438,45.75 Q224.0156,45.5344 223.9031,45.4219 Q223.7062,45.1969 223.3406,45.0656 Q222.975,44.9344 222.6,44.9344 Q222.1406,44.9344 221.7563,45.1313 Q221.3813,45.3281 221.0812,45.7781 Q220.7906,46.2281 220.7906,46.8469 L220.7906,47.5031 Q220.7906,48.2438 221.325,48.7406 Q221.8594,49.2281 222.8156,49.2281 Q223.3781,49.2281 223.7719,49.0781 Q224.0063,48.9844 224.2594,48.7219 Q224.4188,48.5625 224.5031,48.5156 Q224.5969,48.4688 224.7188,48.4688 Q224.9156,48.4688 225.0656,48.6281 Q225.225,48.7781 225.225,48.9844 Q225.225,49.1906 225.0187,49.4344 Q224.7188,49.7813 224.2406,49.9781 Q223.5938,50.25 222.8156,50.25 Q221.9063,50.25 221.1844,49.875 Q220.5938,49.575 220.1813,48.9375 Q219.7687,48.2906 219.7687,47.5219 L219.7687,46.8281 Q219.7687,46.0313 220.1344,45.3469 Q220.5094,44.6531 221.1656,44.2875 Q221.8219,43.9125 222.5625,43.9125 Q223.0031,43.9125 223.3875,44.0156 Q223.7813,44.1094 224.1094,44.325 Z " fill="#000000"/><text fill="#000000" font-family="sans-serif" font-size="8.4" lengthAdjust="spacing" textLength="132" x="234.75" y="50.2781">AveragePowerConsumptionSensor</text><line style="stroke:#181818;stroke-width:0.3;" x1="18.6" x2="563.4" y1="56.4" y2="56.4"/><rect fill="none" height="3.6" style="stroke:#C82930;stroke-width:0.6;" width="3.6" x="22.8" y="63.4863"/><text fill="#000000" font-family="sans-serif" font-size="8.4" lengthAdjust="spacing" textLength="92.4" x="30" y="67.8645">_modelPath : ModelPath</text><rect fill="none" height="3.6" style="stroke:#C82930;stroke-width:0.6;" width="3.6" x="22.8" y="74.659"/><text fill="#000000" font-family="sans-serif" font-size="8.4" lengthAdjust="spacing" textLength="108" x="30" y="79.0371">_sensorName : SensorName</text><rect fill="none" height="3.6" style="stroke:#C82930;stroke-width:0.6;" width="3.6" x="22.8" y="85.8316"/><text fill="#000000" font-family="sans-serif" font-size="8.4" lengthAdjust="spacing" textLength="80.4" x="30" y="90.2098">_sensorID : SensorID</text><rect fill="none" height="3.6" style="stroke:#C82930;stroke-width:0.6;" width="3.6" x="22.8" y="97.0043"/><text fill="#000000" font-family="sans-serif" font-size="8.4" lengthAdjust="spacing" textLength="118.8" x="30" y="101.3824">_sensorTypeID : SensorTypeID</text><rect fill="none" height="3.6" style="stroke:#C82930;stroke-width:0.6;" width="3.6" x="22.8" y="108.177"/><text fill="#000000" font-family="sans-serif" font-size="8.4" lengthAdjust="spacing" textLength="319.2" x="30" y="112.5551">_AveragePowerConsumptionSensorValue : AveragePowerConsumptionSensorValue</text><rect fill="none" height="3.6" style="stroke:#C82930;stroke-width:0.6;" width="3.6" x="22.8" y="119.3496"/><text fill="#000000" font-family="sans-serif" font-size="8.4" lengthAdjust="spacing" textLength="78" x="30" y="123.7277">_deviceID : DeviceID</text><rect fill="none" height="3.6" style="stroke:#C82930;stroke-width:0.6;" width="3.6" x="22.8" y="130.5223"/><text fill="#000000" font-family="sans-serif" font-size="8.4" lengthAdjust="spacing" textLength="64.2" x="30" y="134.9004">_dValue : double</text><rect fill="none" height="3.6" style="stroke:#C82930;stroke-width:0.6;" width="3.6" x="22.8" y="141.6949"/><text fill="#000000" font-family="sans-serif" font-size="8.4" lengthAdjust="spacing" textLength="222.6" x="30" y="146.073">_powerConsumptions : HashMap&lt;LocalDateTime, Double&gt;</text><line style="stroke:#181818;stroke-width:0.3;" x1="18.6" x2="563.4" y1="150.5812" y2="150.5812"/><ellipse cx="24.6" cy="159.4676" fill="#84BE84" rx="1.8" ry="1.8" style="stroke:#038048;stroke-width:0.6;"/><text fill="#000000" font-family="sans-serif" font-size="8.4" lengthAdjust="spacing" textLength="530.4" x="30" y="162.0457">AveragePowerConsumptionSensor(deviceID : DeviceID, modelPath : ModelPath, sensorTypeID : SensorTypeID, sensorName : SensorName)</text><polygon fill="#FFFF44" points="24.6,167.6402,27,170.0402,24.6,172.4402,22.2,170.0402" style="stroke:#B38D22;stroke-width:0.6;"/><text fill="#000000" font-family="sans-serif" font-size="8.4" lengthAdjust="spacing" textLength="243.6" x="30" y="173.2184">addReading(readTime : LocalDateTime, value : double) : double</text><ellipse cx="24.6" cy="181.8129" fill="#84BE84" rx="1.8" ry="1.8" style="stroke:#038048;stroke-width:0.6;"/><text fill="#000000" font-family="sans-serif" font-size="8.4" lengthAdjust="spacing" textLength="67.8" x="30" y="184.391">getID() : SensorID</text><ellipse cx="24.6" cy="192.9855" fill="#84BE84" rx="1.8" ry="1.8" style="stroke:#038048;stroke-width:0.6;"/><text fill="#000000" font-family="sans-serif" font-size="8.4" lengthAdjust="spacing" textLength="95.4" x="30" y="195.5637">getName() : SensorName</text><ellipse cx="24.6" cy="204.1582" fill="#84BE84" rx="1.8" ry="1.8" style="stroke:#038048;stroke-width:0.6;"/><text fill="#000000" font-family="sans-serif" font-size="8.4" lengthAdjust="spacing" textLength="105.6" x="30" y="206.7363">getModelPath() : ModelPath</text><ellipse cx="24.6" cy="215.3309" fill="#84BE84" rx="1.8" ry="1.8" style="stroke:#038048;stroke-width:0.6;"/><text fill="#000000" font-family="sans-serif" font-size="8.4" lengthAdjust="spacing" textLength="133.2" x="30" y="217.909">getSensorTypeID() : SensorTypeID</text><ellipse cx="24.6" cy="226.5035" fill="#84BE84" rx="1.8" ry="1.8" style="stroke:#038048;stroke-width:0.6;"/><text fill="#000000" font-family="sans-serif" font-size="8.4" lengthAdjust="spacing" textLength="92.4" x="30" y="229.0816">getDeviceID() : DeviceID</text><ellipse cx="24.6" cy="237.6762" fill="#84BE84" rx="1.8" ry="1.8" style="stroke:#038048;stroke-width:0.6;"/><text fill="#000000" font-family="sans-serif" font-size="8.4" lengthAdjust="spacing" textLength="64.8" x="30" y="240.2543">toString() : String</text><ellipse cx="24.6" cy="248.8488" fill="#84BE84" rx="1.8" ry="1.8" style="stroke:#038048;stroke-width:0.6;"/><text fill="#000000" font-family="sans-serif" font-size="8.4" lengthAdjust="spacing" textLength="93" x="30" y="251.427">getValue() : ValueObject</text><ellipse cx="24.6" cy="260.0215" fill="#84BE84" rx="1.8" ry="1.8" style="stroke:#038048;stroke-width:0.6;"/><text fill="#000000" font-family="sans-serif" font-size="8.4" lengthAdjust="spacing" textLength="298.2" x="30" y="262.5996">getValue(initialTime : LocalDateTime, finalTime : LocalDateTime) : ValueObject</text></g><!--class AveragePowerConsumptionSensorValue--><g id="elem_AveragePowerConsumptionSensorValue"><rect codeLine="42" fill="#F1F1F1" height="73.4906" id="AveragePowerConsumptionSensorValue" rx="1.5" ry="1.5" style="stroke:#181818;stroke-width:0.3;" width="234.6" x="583.5" y="322.8"/><ellipse cx="621.45" cy="332.4" fill="#ADD1B2" rx="6.6" ry="6.6" style="stroke:#181818;stroke-width:0.6;"/><path d="M623.1094,329.925 Q623.2031,329.7938 623.3156,329.7281 Q623.4281,329.6625 623.5594,329.6625 Q623.7844,329.6625 623.925,329.8219 Q624.0656,329.9719 624.0656,330.3375 L624.0656,331.2094 Q624.0656,331.575 623.925,331.7344 Q623.7844,331.8938 623.5594,331.8938 Q623.3531,331.8938 623.2312,331.7719 Q623.1094,331.6594 623.0437,331.35 Q623.0156,331.1344 622.9031,331.0219 Q622.7063,330.7969 622.3406,330.6656 Q621.975,330.5344 621.6,330.5344 Q621.1406,330.5344 620.7563,330.7313 Q620.3813,330.9281 620.0813,331.3781 Q619.7906,331.8281 619.7906,332.4469 L619.7906,333.1031 Q619.7906,333.8438 620.325,334.3406 Q620.8594,334.8281 621.8156,334.8281 Q622.3781,334.8281 622.7719,334.6781 Q623.0063,334.5844 623.2594,334.3219 Q623.4187,334.1625 623.5031,334.1156 Q623.5969,334.0687 623.7188,334.0687 Q623.9156,334.0687 624.0656,334.2281 Q624.225,334.3781 624.225,334.5844 Q624.225,334.7906 624.0188,335.0344 Q623.7188,335.3812 623.2406,335.5781 Q622.5938,335.85 621.8156,335.85 Q620.9063,335.85 620.1844,335.475 Q619.5938,335.175 619.1813,334.5375 Q618.7688,333.8906 618.7688,333.1219 L618.7688,332.4281 Q618.7688,331.6312 619.1344,330.9469 Q619.5094,330.2531 620.1656,329.8875 Q620.8219,329.5125 621.5625,329.5125 Q622.0031,329.5125 622.3875,329.6156 Q622.7813,329.7094 623.1094,329.925 Z " fill="#000000"/><text fill="#000000" font-family="sans-serif" font-size="8.4" lengthAdjust="spacing" textLength="153.6" x="633.75" y="335.8781">AveragePowerConsumptionSensorValue</text><line style="stroke:#181818;stroke-width:0.3;" x1="584.1" x2="817.5" y1="342" y2="342"/><rect fill="none" height="3.6" style="stroke:#C82930;stroke-width:0.6;" width="3.6" x="588.3" y="349.0863"/><text fill="#000000" font-family="sans-serif" font-size="8.4" lengthAdjust="spacing" textLength="64.2" x="595.5" y="353.4645">_dValue : double</text><line style="stroke:#181818;stroke-width:0.3;" x1="584.1" x2="817.5" y1="357.9727" y2="357.9727"/><ellipse cx="590.1" cy="366.859" fill="#84BE84" rx="1.8" ry="1.8" style="stroke:#038048;stroke-width:0.6;"/><text fill="#000000" font-family="sans-serif" font-size="8.4" lengthAdjust="spacing" textLength="219" x="595.5" y="369.4371">AveragePowerConsumptionSensorValue(dValue : double)</text><ellipse cx="590.1" cy="378.0316" fill="#84BE84" rx="1.8" ry="1.8" style="stroke:#038048;stroke-width:0.6;"/><text fill="#000000" font-family="sans-serif" font-size="8.4" lengthAdjust="spacing" textLength="72.6" x="595.5" y="380.6098">getValue() : double</text><ellipse cx="590.1" cy="389.2043" fill="#84BE84" rx="1.8" ry="1.8" style="stroke:#038048;stroke-width:0.6;"/><text fill="#000000" font-family="sans-serif" font-size="8.4" lengthAdjust="spacing" textLength="64.8" x="595.5" y="391.7824">toString() : String</text></g><!--class SensorTypeID--><g id="elem_SensorTypeID"><rect codeLine="49" fill="#F1F1F1" height="95.8359" id="SensorTypeID" rx="1.5" ry="1.5" style="stroke:#181818;stroke-width:0.3;" width="154.8" x="829.2" y="311.4"/><ellipse cx="877.05" cy="321" fill="#ADD1B2" rx="6.6" ry="6.6" style="stroke:#181818;stroke-width:0.6;"/><path d="M878.7094,318.525 Q878.8031,318.3938 878.9156,318.3281 Q879.0281,318.2625 879.1594,318.2625 Q879.3844,318.2625 879.525,318.4219 Q879.6656,318.5719 879.6656,318.9375 L879.6656,319.8094 Q879.6656,320.175 879.525,320.3344 Q879.3844,320.4938 879.1594,320.4938 Q878.9531,320.4938 878.8313,320.3719 Q878.7094,320.2594 878.6438,319.95 Q878.6156,319.7344 878.5031,319.6219 Q878.3063,319.3969 877.9406,319.2656 Q877.575,319.1344 877.2,319.1344 Q876.7406,319.1344 876.3562,319.3313 Q875.9812,319.5281 875.6813,319.9781 Q875.3906,320.4281 875.3906,321.0469 L875.3906,321.7031 Q875.3906,322.4437 875.925,322.9406 Q876.4594,323.4281 877.4156,323.4281 Q877.9781,323.4281 878.3719,323.2781 Q878.6062,323.1844 878.8594,322.9219 Q879.0188,322.7625 879.1031,322.7156 Q879.1969,322.6688 879.3188,322.6688 Q879.5156,322.6688 879.6656,322.8281 Q879.825,322.9781 879.825,323.1844 Q879.825,323.3906 879.6188,323.6344 Q879.3188,323.9813 878.8406,324.1781 Q878.1938,324.45 877.4156,324.45 Q876.5063,324.45 875.7844,324.075 Q875.1938,323.775 874.7813,323.1375 Q874.3688,322.4906 874.3688,321.7219 L874.3688,321.0281 Q874.3688,320.2313 874.7344,319.5469 Q875.1094,318.8531 875.7656,318.4875 Q876.4219,318.1125 877.1625,318.1125 Q877.6031,318.1125 877.9875,318.2156 Q878.3813,318.3094 878.7094,318.525 Z " fill="#000000"/><text fill="#000000" font-family="sans-serif" font-size="8.4" lengthAdjust="spacing" textLength="54" x="889.35" y="324.4781">SensorTypeID</text><line style="stroke:#181818;stroke-width:0.3;" x1="829.8" x2="983.4" y1="330.6" y2="330.6"/><rect fill="none" height="3.6" style="stroke:#C82930;stroke-width:0.6;" width="3.6" x="834" y="337.6863"/><text fill="#000000" font-family="sans-serif" font-size="8.4" lengthAdjust="spacing" textLength="38.4" x="841.2" y="342.0645">_id: String</text><line style="stroke:#181818;stroke-width:0.3;" x1="829.8" x2="983.4" y1="346.5727" y2="346.5727"/><ellipse cx="835.8" cy="355.459" fill="#84BE84" rx="1.8" ry="1.8" style="stroke:#038048;stroke-width:0.6;"/><text fill="#000000" font-family="sans-serif" font-size="8.4" lengthAdjust="spacing" textLength="139.2" x="841.2" y="358.0371">SensorTypeID(strDescription: String)</text><ellipse cx="835.8" cy="366.6316" fill="#84BE84" rx="1.8" ry="1.8" style="stroke:#038048;stroke-width:0.6;"/><text fill="#000000" font-family="sans-serif" font-size="8.4" lengthAdjust="spacing" textLength="54" x="841.2" y="369.2098">getId() : String</text><ellipse cx="835.8" cy="377.8043" fill="#84BE84" rx="1.8" ry="1.8" style="stroke:#038048;stroke-width:0.6;"/><text fill="#000000" font-family="sans-serif" font-size="8.4" lengthAdjust="spacing" textLength="61.2" x="841.2" y="380.3824">hashCode() : int</text><ellipse cx="835.8" cy="388.977" fill="#84BE84" rx="1.8" ry="1.8" style="stroke:#038048;stroke-width:0.6;"/><text fill="#000000" font-family="sans-serif" font-size="8.4" lengthAdjust="spacing" textLength="109.8" x="841.2" y="391.5551">equals(obj: Object) : boolean</text><ellipse cx="835.8" cy="400.1496" fill="#84BE84" rx="1.8" ry="1.8" style="stroke:#038048;stroke-width:0.6;"/><text fill="#000000" font-family="sans-serif" font-size="8.4" lengthAdjust="spacing" textLength="64.8" x="841.2" y="402.7277">toString() : String</text></g><!--class SensorModelID--><g id="elem_SensorModelID"><rect codeLine="58" fill="#F1F1F1" height="95.8359" id="SensorModelID" rx="1.5" ry="1.5" style="stroke:#181818;stroke-width:0.3;" width="160.8" x="994.8" y="311.4"/><ellipse cx="1043.85" cy="321" fill="#ADD1B2" rx="6.6" ry="6.6" style="stroke:#181818;stroke-width:0.6;"/><path d="M1045.5094,318.525 Q1045.6031,318.3938 1045.7156,318.3281 Q1045.8281,318.2625 1045.9594,318.2625 Q1046.1844,318.2625 1046.325,318.4219 Q1046.4656,318.5719 1046.4656,318.9375 L1046.4656,319.8094 Q1046.4656,320.175 1046.325,320.3344 Q1046.1844,320.4938 1045.9594,320.4938 Q1045.7531,320.4938 1045.6313,320.3719 Q1045.5094,320.2594 1045.4438,319.95 Q1045.4156,319.7344 1045.3031,319.6219 Q1045.1063,319.3969 1044.7406,319.2656 Q1044.375,319.1344 1044,319.1344 Q1043.5406,319.1344 1043.1563,319.3313 Q1042.7813,319.5281 1042.4813,319.9781 Q1042.1906,320.4281 1042.1906,321.0469 L1042.1906,321.7031 Q1042.1906,322.4437 1042.725,322.9406 Q1043.2594,323.4281 1044.2156,323.4281 Q1044.7781,323.4281 1045.1719,323.2781 Q1045.4063,323.1844 1045.6594,322.9219 Q1045.8188,322.7625 1045.9031,322.7156 Q1045.9969,322.6688 1046.1187,322.6688 Q1046.3156,322.6688 1046.4656,322.8281 Q1046.625,322.9781 1046.625,323.1844 Q1046.625,323.3906 1046.4188,323.6344 Q1046.1187,323.9813 1045.6406,324.1781 Q1044.9937,324.45 1044.2156,324.45 Q1043.3062,324.45 1042.5844,324.075 Q1041.9937,323.775 1041.5813,323.1375 Q1041.1688,322.4906 1041.1688,321.7219 L1041.1688,321.0281 Q1041.1688,320.2313 1041.5344,319.5469 Q1041.9094,318.8531 1042.5656,318.4875 Q1043.2219,318.1125 1043.9625,318.1125 Q1044.4031,318.1125 1044.7875,318.2156 Q1045.1812,318.3094 1045.5094,318.525 Z " fill="#000000"/><text fill="#000000" font-family="sans-serif" font-size="8.4" lengthAdjust="spacing" textLength="57.6" x="1056.15" y="324.4781">SensorModelID</text><line style="stroke:#181818;stroke-width:0.3;" x1="995.4" x2="1155" y1="330.6" y2="330.6"/><rect fill="none" height="3.6" style="stroke:#C82930;stroke-width:0.6;" width="3.6" x="999.6" y="337.6863"/><text fill="#000000" font-family="sans-serif" font-size="8.4" lengthAdjust="spacing" textLength="88.2" x="1006.8" y="342.0645">_sensorModelID: String</text><line style="stroke:#181818;stroke-width:0.3;" x1="995.4" x2="1155" y1="346.5727" y2="346.5727"/><ellipse cx="1001.4" cy="355.459" fill="#84BE84" rx="1.8" ry="1.8" style="stroke:#038048;stroke-width:0.6;"/><text fill="#000000" font-family="sans-serif" font-size="8.4" lengthAdjust="spacing" textLength="145.2" x="1006.8" y="358.0371">SensorModelID(strDescription : String)</text><ellipse cx="1001.4" cy="366.6316" fill="#84BE84" rx="1.8" ry="1.8" style="stroke:#038048;stroke-width:0.6;"/><text fill="#000000" font-family="sans-serif" font-size="8.4" lengthAdjust="spacing" textLength="54" x="1006.8" y="369.2098">getId() : String</text><ellipse cx="1001.4" cy="377.8043" fill="#84BE84" rx="1.8" ry="1.8" style="stroke:#038048;stroke-width:0.6;"/><text fill="#000000" font-family="sans-serif" font-size="8.4" lengthAdjust="spacing" textLength="61.2" x="1006.8" y="380.3824">hashCode() : int</text><ellipse cx="1001.4" cy="388.977" fill="#84BE84" rx="1.8" ry="1.8" style="stroke:#038048;stroke-width:0.6;"/><text fill="#000000" font-family="sans-serif" font-size="8.4" lengthAdjust="spacing" textLength="109.8" x="1006.8" y="391.5551">equals(obj: Object) : boolean</text><ellipse cx="1001.4" cy="400.1496" fill="#84BE84" rx="1.8" ry="1.8" style="stroke:#038048;stroke-width:0.6;"/><text fill="#000000" font-family="sans-serif" font-size="8.4" lengthAdjust="spacing" textLength="64.8" x="1006.8" y="402.7277">toString() : String</text></g><!--class SensorID--><g id="elem_SensorID"><rect codeLine="67" fill="#F1F1F1" height="95.8359" id="SensorID" rx="1.5" ry="1.5" style="stroke:#181818;stroke-width:0.3;" width="125.4" x="1166.7" y="311.4"/><ellipse cx="1209.45" cy="321" fill="#ADD1B2" rx="6.6" ry="6.6" style="stroke:#181818;stroke-width:0.6;"/><path d="M1211.1094,318.525 Q1211.2031,318.3938 1211.3156,318.3281 Q1211.4281,318.2625 1211.5594,318.2625 Q1211.7844,318.2625 1211.925,318.4219 Q1212.0656,318.5719 1212.0656,318.9375 L1212.0656,319.8094 Q1212.0656,320.175 1211.925,320.3344 Q1211.7844,320.4938 1211.5594,320.4938 Q1211.3531,320.4938 1211.2313,320.3719 Q1211.1094,320.2594 1211.0438,319.95 Q1211.0156,319.7344 1210.9031,319.6219 Q1210.7063,319.3969 1210.3406,319.2656 Q1209.975,319.1344 1209.6,319.1344 Q1209.1406,319.1344 1208.7563,319.3313 Q1208.3813,319.5281 1208.0813,319.9781 Q1207.7906,320.4281 1207.7906,321.0469 L1207.7906,321.7031 Q1207.7906,322.4437 1208.325,322.9406 Q1208.8594,323.4281 1209.8156,323.4281 Q1210.3781,323.4281 1210.7719,323.2781 Q1211.0063,323.1844 1211.2594,322.9219 Q1211.4188,322.7625 1211.5031,322.7156 Q1211.5969,322.6688 1211.7188,322.6688 Q1211.9156,322.6688 1212.0656,322.8281 Q1212.225,322.9781 1212.225,323.1844 Q1212.225,323.3906 1212.0188,323.6344 Q1211.7188,323.9813 1211.2406,324.1781 Q1210.5938,324.45 1209.8156,324.45 Q1208.9063,324.45 1208.1844,324.075 Q1207.5938,323.775 1207.1812,323.1375 Q1206.7688,322.4906 1206.7688,321.7219 L1206.7688,321.0281 Q1206.7688,320.2313 1207.1344,319.5469 Q1207.5094,318.8531 1208.1656,318.4875 Q1208.8219,318.1125 1209.5625,318.1125 Q1210.0031,318.1125 1210.3875,318.2156 Q1210.7813,318.3094 1211.1094,318.525 Z " fill="#000000"/><text fill="#000000" font-family="sans-serif" font-size="8.4" lengthAdjust="spacing" textLength="34.8" x="1221.75" y="324.4781">SensorID</text><line style="stroke:#181818;stroke-width:0.3;" x1="1167.3" x2="1291.5" y1="330.6" y2="330.6"/><rect fill="none" height="3.6" style="stroke:#C82930;stroke-width:0.6;" width="3.6" x="1171.5" y="337.6863"/><text fill="#000000" font-family="sans-serif" font-size="8.4" lengthAdjust="spacing" textLength="38.4" x="1178.7" y="342.0645">_id: String</text><line style="stroke:#181818;stroke-width:0.3;" x1="1167.3" x2="1291.5" y1="346.5727" y2="346.5727"/><ellipse cx="1173.3" cy="355.459" fill="#84BE84" rx="1.8" ry="1.8" style="stroke:#038048;stroke-width:0.6;"/><text fill="#000000" font-family="sans-serif" font-size="8.4" lengthAdjust="spacing" textLength="74.4" x="1178.7" y="358.0371">SensorID(id: String)</text><ellipse cx="1173.3" cy="366.6316" fill="#84BE84" rx="1.8" ry="1.8" style="stroke:#038048;stroke-width:0.6;"/><text fill="#000000" font-family="sans-serif" font-size="8.4" lengthAdjust="spacing" textLength="55.2" x="1178.7" y="369.2098">getID() : String</text><ellipse cx="1173.3" cy="377.8043" fill="#84BE84" rx="1.8" ry="1.8" style="stroke:#038048;stroke-width:0.6;"/><text fill="#000000" font-family="sans-serif" font-size="8.4" lengthAdjust="spacing" textLength="61.2" x="1178.7" y="380.3824">hashCode() : int</text><ellipse cx="1173.3" cy="388.977" fill="#84BE84" rx="1.8" ry="1.8" style="stroke:#038048;stroke-width:0.6;"/><text fill="#000000" font-family="sans-serif" font-size="8.4" lengthAdjust="spacing" textLength="109.8" x="1178.7" y="391.5551">equals(obj: Object) : boolean</text><ellipse cx="1173.3" cy="400.1496" fill="#84BE84" rx="1.8" ry="1.8" style="stroke:#038048;stroke-width:0.6;"/><text fill="#000000" font-family="sans-serif" font-size="8.4" lengthAdjust="spacing" textLength="64.8" x="1178.7" y="402.7277">toString() : String</text></g><!--class DeviceID--><g id="elem_DeviceID"><rect codeLine="76" fill="#F1F1F1" height="95.8359" id="DeviceID" rx="1.5" ry="1.5" style="stroke:#181818;stroke-width:0.3;" width="125.4" x="1302.9" y="311.4"/><ellipse cx="1346.25" cy="321" fill="#ADD1B2" rx="6.6" ry="6.6" style="stroke:#181818;stroke-width:0.6;"/><path d="M1347.9094,318.525 Q1348.0031,318.3938 1348.1156,318.3281 Q1348.2281,318.2625 1348.3594,318.2625 Q1348.5844,318.2625 1348.725,318.4219 Q1348.8656,318.5719 1348.8656,318.9375 L1348.8656,319.8094 Q1348.8656,320.175 1348.725,320.3344 Q1348.5844,320.4938 1348.3594,320.4938 Q1348.1531,320.4938 1348.0313,320.3719 Q1347.9094,320.2594 1347.8438,319.95 Q1347.8156,319.7344 1347.7031,319.6219 Q1347.5063,319.3969 1347.1406,319.2656 Q1346.775,319.1344 1346.4,319.1344 Q1345.9406,319.1344 1345.5562,319.3313 Q1345.1812,319.5281 1344.8813,319.9781 Q1344.5906,320.4281 1344.5906,321.0469 L1344.5906,321.7031 Q1344.5906,322.4437 1345.125,322.9406 Q1345.6594,323.4281 1346.6156,323.4281 Q1347.1781,323.4281 1347.5719,323.2781 Q1347.8062,323.1844 1348.0594,322.9219 Q1348.2188,322.7625 1348.3031,322.7156 Q1348.3969,322.6688 1348.5188,322.6688 Q1348.7156,322.6688 1348.8656,322.8281 Q1349.025,322.9781 1349.025,323.1844 Q1349.025,323.3906 1348.8188,323.6344 Q1348.5188,323.9813 1348.0406,324.1781 Q1347.3938,324.45 1346.6156,324.45 Q1345.7063,324.45 1344.9844,324.075 Q1344.3938,323.775 1343.9813,323.1375 Q1343.5688,322.4906 1343.5688,321.7219 L1343.5688,321.0281 Q1343.5688,320.2313 1343.9344,319.5469 Q1344.3094,318.8531 1344.9656,318.4875 Q1345.6219,318.1125 1346.3625,318.1125 Q1346.8031,318.1125 1347.1875,318.2156 Q1347.5813,318.3094 1347.9094,318.525 Z " fill="#000000"/><text fill="#000000" font-family="sans-serif" font-size="8.4" lengthAdjust="spacing" textLength="33.6" x="1358.55" y="324.4781">DeviceID</text><line style="stroke:#181818;stroke-width:0.3;" x1="1303.5" x2="1427.7" y1="330.6" y2="330.6"/><rect fill="none" height="3.6" style="stroke:#C82930;stroke-width:0.6;" width="3.6" x="1307.7" y="337.6863"/><text fill="#000000" font-family="sans-serif" font-size="8.4" lengthAdjust="spacing" textLength="38.4" x="1314.9" y="342.0645">_id: String</text><line style="stroke:#181818;stroke-width:0.3;" x1="1303.5" x2="1427.7" y1="346.5727" y2="346.5727"/><ellipse cx="1309.5" cy="355.459" fill="#84BE84" rx="1.8" ry="1.8" style="stroke:#038048;stroke-width:0.6;"/><text fill="#000000" font-family="sans-serif" font-size="8.4" lengthAdjust="spacing" textLength="70.8" x="1314.9" y="358.0371">DeviceID(String id)</text><ellipse cx="1309.5" cy="366.6316" fill="#84BE84" rx="1.8" ry="1.8" style="stroke:#038048;stroke-width:0.6;"/><text fill="#000000" font-family="sans-serif" font-size="8.4" lengthAdjust="spacing" textLength="55.2" x="1314.9" y="369.2098">getID() : String</text><ellipse cx="1309.5" cy="377.8043" fill="#84BE84" rx="1.8" ry="1.8" style="stroke:#038048;stroke-width:0.6;"/><text fill="#000000" font-family="sans-serif" font-size="8.4" lengthAdjust="spacing" textLength="61.2" x="1314.9" y="380.3824">hashCode() : int</text><ellipse cx="1309.5" cy="388.977" fill="#84BE84" rx="1.8" ry="1.8" style="stroke:#038048;stroke-width:0.6;"/><text fill="#000000" font-family="sans-serif" font-size="8.4" lengthAdjust="spacing" textLength="109.8" x="1314.9" y="391.5551">equals(obj: Object) : boolean</text><ellipse cx="1309.5" cy="400.1496" fill="#84BE84" rx="1.8" ry="1.8" style="stroke:#038048;stroke-width:0.6;"/><text fill="#000000" font-family="sans-serif" font-size="8.4" lengthAdjust="spacing" textLength="64.8" x="1314.9" y="402.7277">toString() : String</text></g><!--class ModelPath--><g id="elem_ModelPath"><rect codeLine="85" fill="#F1F1F1" height="62.318" id="ModelPath" rx="1.5" ry="1.5" style="stroke:#181818;stroke-width:0.3;" width="105.6" x="1439.4" y="328.2"/><ellipse cx="1469.55" cy="337.8" fill="#ADD1B2" rx="6.6" ry="6.6" style="stroke:#181818;stroke-width:0.6;"/><path d="M1471.2094,335.325 Q1471.3031,335.1937 1471.4156,335.1281 Q1471.5281,335.0625 1471.6594,335.0625 Q1471.8844,335.0625 1472.025,335.2219 Q1472.1656,335.3719 1472.1656,335.7375 L1472.1656,336.6094 Q1472.1656,336.975 1472.025,337.1344 Q1471.8844,337.2938 1471.6594,337.2938 Q1471.4531,337.2938 1471.3313,337.1719 Q1471.2094,337.0594 1471.1438,336.75 Q1471.1156,336.5344 1471.0031,336.4219 Q1470.8062,336.1969 1470.4406,336.0656 Q1470.075,335.9344 1469.7,335.9344 Q1469.2406,335.9344 1468.8563,336.1312 Q1468.4813,336.3281 1468.1812,336.7781 Q1467.8906,337.2281 1467.8906,337.8469 L1467.8906,338.5031 Q1467.8906,339.2438 1468.425,339.7406 Q1468.9594,340.2281 1469.9156,340.2281 Q1470.4781,340.2281 1470.8719,340.0781 Q1471.1063,339.9844 1471.3594,339.7219 Q1471.5188,339.5625 1471.6031,339.5156 Q1471.6969,339.4688 1471.8188,339.4688 Q1472.0156,339.4688 1472.1656,339.6281 Q1472.325,339.7781 1472.325,339.9844 Q1472.325,340.1906 1472.1187,340.4344 Q1471.8188,340.7813 1471.3406,340.9781 Q1470.6938,341.25 1469.9156,341.25 Q1469.0063,341.25 1468.2844,340.875 Q1467.6938,340.575 1467.2813,339.9375 Q1466.8687,339.2906 1466.8687,338.5219 L1466.8687,337.8281 Q1466.8687,337.0313 1467.2344,336.3469 Q1467.6094,335.6531 1468.2656,335.2875 Q1468.9219,334.9125 1469.6625,334.9125 Q1470.1031,334.9125 1470.4875,335.0156 Q1470.8813,335.1094 1471.2094,335.325 Z " fill="#000000"/><text fill="#000000" font-family="sans-serif" font-size="8.4" lengthAdjust="spacing" textLength="40.2" x="1481.85" y="341.2781">ModelPath</text><line style="stroke:#181818;stroke-width:0.3;" x1="1440" x2="1544.4" y1="347.4" y2="347.4"/><rect fill="none" height="3.6" style="stroke:#C82930;stroke-width:0.6;" width="3.6" x="1444.2" y="354.4863"/><text fill="#000000" font-family="sans-serif" font-size="8.4" lengthAdjust="spacing" textLength="48.6" x="1451.4" y="358.8645">_path: String</text><line style="stroke:#181818;stroke-width:0.3;" x1="1440" x2="1544.4" y1="363.3727" y2="363.3727"/><ellipse cx="1446" cy="372.259" fill="#84BE84" rx="1.8" ry="1.8" style="stroke:#038048;stroke-width:0.6;"/><text fill="#000000" font-family="sans-serif" font-size="8.4" lengthAdjust="spacing" textLength="90" x="1451.4" y="374.8371">ModelPath(path: String)</text><ellipse cx="1446" cy="383.4316" fill="#84BE84" rx="1.8" ry="1.8" style="stroke:#038048;stroke-width:0.6;"/><text fill="#000000" font-family="sans-serif" font-size="8.4" lengthAdjust="spacing" textLength="64.8" x="1451.4" y="386.0098">toString() : String</text></g><!--class DomainEntity--><g id="elem_DomainEntity"><rect codeLine="94" fill="#F1F1F1" height="28.8" id="DomainEntity" rx="1.5" ry="1.5" style="stroke:#181818;stroke-width:0.3;" width="69" x="1559.7" y="345"/><ellipse cx="1568.7" cy="354.6" fill="#B4A7E5" rx="6.6" ry="6.6" style="stroke:#181818;stroke-width:0.6;"/><path d="M1569.2719,352.5844 L1569.2719,356.5781 L1570.3031,356.5781 Q1570.6688,356.5781 1570.8281,356.7188 Q1570.9875,356.8594 1570.9875,357.0938 Q1570.9875,357.3187 1570.8281,357.4594 Q1570.6688,357.6 1570.3031,357.6 L1567.2188,357.6 Q1566.8531,357.6 1566.6938,357.4594 Q1566.5344,357.3187 1566.5344,357.0844 Q1566.5344,356.8594 1566.6938,356.7188 Q1566.8531,356.5781 1567.2188,356.5781 L1568.25,356.5781 L1568.25,352.5844 L1567.2188,352.5844 Q1566.8531,352.5844 1566.6938,352.4437 Q1566.5344,352.3031 1566.5344,352.0687 Q1566.5344,351.8438 1566.6938,351.7031 Q1566.8531,351.5625 1567.2188,351.5625 L1570.3031,351.5625 Q1570.6688,351.5625 1570.8281,351.7031 Q1570.9875,351.8438 1570.9875,352.0687 Q1570.9875,352.3031 1570.8281,352.4437 Q1570.6688,352.5844 1570.3031,352.5844 L1569.2719,352.5844 Z " fill="#000000"/><text fill="#000000" font-family="sans-serif" font-size="8.4" font-style="italic" lengthAdjust="spacing" textLength="49.8" x="1577.1" y="358.0781">DomainEntity</text><line style="stroke:#181818;stroke-width:0.3;" x1="1560.3" x2="1628.1" y1="364.2" y2="364.2"/><line style="stroke:#181818;stroke-width:0.3;" x1="1560.3" x2="1628.1" y1="369" y2="369"/></g><!--class DomainID--><g id="elem_DomainID"><rect codeLine="97" fill="#F1F1F1" height="28.8" id="DomainID" rx="1.5" ry="1.5" style="stroke:#181818;stroke-width:0.3;" width="56.4" x="1559.4" y="438.6"/><ellipse cx="1568.4" cy="448.2" fill="#B4A7E5" rx="6.6" ry="6.6" style="stroke:#181818;stroke-width:0.6;"/><path d="M1568.9719,446.1844 L1568.9719,450.1781 L1570.0031,450.1781 Q1570.3687,450.1781 1570.5281,450.3187 Q1570.6875,450.4594 1570.6875,450.6937 Q1570.6875,450.9188 1570.5281,451.0594 Q1570.3687,451.2 1570.0031,451.2 L1566.9188,451.2 Q1566.5531,451.2 1566.3938,451.0594 Q1566.2344,450.9188 1566.2344,450.6844 Q1566.2344,450.4594 1566.3938,450.3187 Q1566.5531,450.1781 1566.9188,450.1781 L1567.95,450.1781 L1567.95,446.1844 L1566.9188,446.1844 Q1566.5531,446.1844 1566.3938,446.0438 Q1566.2344,445.9031 1566.2344,445.6688 Q1566.2344,445.4437 1566.3938,445.3031 Q1566.5531,445.1625 1566.9188,445.1625 L1570.0031,445.1625 Q1570.3687,445.1625 1570.5281,445.3031 Q1570.6875,445.4437 1570.6875,445.6688 Q1570.6875,445.9031 1570.5281,446.0438 Q1570.3687,446.1844 1570.0031,446.1844 L1568.9719,446.1844 Z " fill="#000000"/><text fill="#000000" font-family="sans-serif" font-size="8.4" font-style="italic" lengthAdjust="spacing" textLength="37.2" x="1576.8" y="451.6781">DomainID</text><line style="stroke:#181818;stroke-width:0.3;" x1="1560" x2="1615.2" y1="457.8" y2="457.8"/><line style="stroke:#181818;stroke-width:0.3;" x1="1560" x2="1615.2" y1="462.6" y2="462.6"/></g><!--class AggregateRoot--><g id="elem_AggregateRoot"><rect codeLine="100" fill="#F1F1F1" height="28.8" id="AggregateRoot" rx="1.5" ry="1.5" style="stroke:#181818;stroke-width:0.3;" width="76.8" x="1561.8" y="137.7"/><ellipse cx="1570.8" cy="147.3" fill="#B4A7E5" rx="6.6" ry="6.6" style="stroke:#181818;stroke-width:0.6;"/><path d="M1571.3719,145.2844 L1571.3719,149.2781 L1572.4031,149.2781 Q1572.7688,149.2781 1572.9281,149.4188 Q1573.0875,149.5594 1573.0875,149.7938 Q1573.0875,150.0187 1572.9281,150.1594 Q1572.7688,150.3 1572.4031,150.3 L1569.3188,150.3 Q1568.9531,150.3 1568.7938,150.1594 Q1568.6344,150.0187 1568.6344,149.7844 Q1568.6344,149.5594 1568.7938,149.4188 Q1568.9531,149.2781 1569.3188,149.2781 L1570.35,149.2781 L1570.35,145.2844 L1569.3188,145.2844 Q1568.9531,145.2844 1568.7938,145.1437 Q1568.6344,145.0031 1568.6344,144.7687 Q1568.6344,144.5438 1568.7938,144.4031 Q1568.9531,144.2625 1569.3188,144.2625 L1572.4031,144.2625 Q1572.7688,144.2625 1572.9281,144.4031 Q1573.0875,144.5438 1573.0875,144.7687 Q1573.0875,145.0031 1572.9281,145.1437 Q1572.7688,145.2844 1572.4031,145.2844 L1571.3719,145.2844 Z " fill="#000000"/><text fill="#000000" font-family="sans-serif" font-size="8.4" font-style="italic" lengthAdjust="spacing" textLength="57.6" x="1579.2" y="150.7781">AggregateRoot</text><line style="stroke:#181818;stroke-width:0.3;" x1="1562.4" x2="1638" y1="156.9" y2="156.9"/><line style="stroke:#181818;stroke-width:0.3;" x1="1562.4" x2="1638" y1="161.7" y2="161.7"/></g><!--class ValueObject--><g id="elem_ValueObject"><rect codeLine="103" fill="#F1F1F1" height="28.8" id="ValueObject" rx="1.5" ry="1.5" style="stroke:#181818;stroke-width:0.3;" width="65.4" x="1559.7" y="489.6"/><ellipse cx="1568.7" cy="499.2" fill="#B4A7E5" rx="6.6" ry="6.6" style="stroke:#181818;stroke-width:0.6;"/><path d="M1569.2719,497.1844 L1569.2719,501.1781 L1570.3031,501.1781 Q1570.6688,501.1781 1570.8281,501.3187 Q1570.9875,501.4594 1570.9875,501.6937 Q1570.9875,501.9188 1570.8281,502.0594 Q1570.6688,502.2 1570.3031,502.2 L1567.2188,502.2 Q1566.8531,502.2 1566.6938,502.0594 Q1566.5344,501.9188 1566.5344,501.6844 Q1566.5344,501.4594 1566.6938,501.3187 Q1566.8531,501.1781 1567.2188,501.1781 L1568.25,501.1781 L1568.25,497.1844 L1567.2188,497.1844 Q1566.8531,497.1844 1566.6938,497.0438 Q1566.5344,496.9031 1566.5344,496.6688 Q1566.5344,496.4437 1566.6938,496.3031 Q1566.8531,496.1625 1567.2188,496.1625 L1570.3031,496.1625 Q1570.6688,496.1625 1570.8281,496.3031 Q1570.9875,496.4437 1570.9875,496.6688 Q1570.9875,496.9031 1570.8281,497.0438 Q1570.6688,497.1844 1570.3031,497.1844 L1569.2719,497.1844 Z " fill="#000000"/><text fill="#000000" font-family="sans-serif" font-size="8.4" font-style="italic" lengthAdjust="spacing" textLength="46.2" x="1577.1" y="502.6781">ValueObject</text><line style="stroke:#181818;stroke-width:0.3;" x1="1560.3" x2="1624.5" y1="508.8" y2="508.8"/><line style="stroke:#181818;stroke-width:0.3;" x1="1560.3" x2="1624.5" y1="513.6" y2="513.6"/></g><polygon fill="none" points="291,305.94,294.6,295.14,287.4,295.14,291,305.94" style="stroke:#181818;stroke-width:0.6;"/><path d="M291,267.0512 C291,280.5947 291,283.0746 291,295.14 " fill="none" style="stroke:#181818;stroke-width:0.6;stroke-dasharray:7.0,7.0;"/><polygon fill="#181818" points="629.1995,322.7901,625.4536,318.2197,626.5194,321.4422,623.2969,322.508,629.1995,322.7901" style="stroke:#181818;stroke-width:0.6;"/><path d="M518.3707,267.0512 C558.5802,287.2737 594.4052,305.2911 625.9834,321.1726 " fill="none" style="stroke:#181818;stroke-width:0.6;"/><text fill="#000000" font-family="sans-serif" font-size="7.8" lengthAdjust="spacing" textLength="12.6" x="557.4" y="286.817">has</text><text fill="#000000" font-family="sans-serif" font-size="7.8" lengthAdjust="spacing" textLength="4.2" x="624.3995" y="320.4071">1</text><text fill="#000000" font-family="sans-serif" font-size="7.8" lengthAdjust="spacing" textLength="4.2" x="513.5707" y="276.0682">1</text><polygon fill="#181818" points="851.6687,311.272,848.6412,306.1971,849.2178,309.5418,845.873,310.1184,851.6687,311.272" style="stroke:#181818;stroke-width:0.6;"/><path d="M564.0695,202.9512 C649.6621,224.495 742.7344,254.1305 823.2,294 C832.8936,298.803 839.6078,302.7579 848.7276,309.1958 " fill="none" style="stroke:#181818;stroke-width:0.6;"/><text fill="#000000" font-family="sans-serif" font-size="7.8" lengthAdjust="spacing" textLength="12.6" x="810.6" y="286.817">has</text><text fill="#000000" font-family="sans-serif" font-size="7.8" lengthAdjust="spacing" textLength="4.2" x="846.8687" y="308.8889">1</text><text fill="#000000" font-family="sans-serif" font-size="7.8" lengthAdjust="spacing" textLength="4.2" x="564.6695" y="200.5682">1</text><polygon fill="#181818" points="1019.5264,311.262,1016.4196,306.2353,1017.0487,309.5706,1013.7134,310.1996,1019.5264,311.262" style="stroke:#181818;stroke-width:0.6;"/><path d="M564.1702,179.2202 C696.8509,199.1946 856.0243,233.9194 989.4,294 C999.6969,298.6384 1006.9457,302.6738 1016.5531,309.2323 " fill="none" style="stroke:#181818;stroke-width:0.6;"/><text fill="#000000" font-family="sans-serif" font-size="7.8" lengthAdjust="spacing" textLength="12.6" x="972.6" y="286.817">has</text><text fill="#000000" font-family="sans-serif" font-size="7.8" lengthAdjust="spacing" textLength="4.2" x="1014.7264" y="308.879">1</text><text fill="#000000" font-family="sans-serif" font-size="7.8" lengthAdjust="spacing" textLength="4.2" x="564.7702" y="176.8372">1</text><polygon fill="#181818" points="1186.7516,311.3137,1184.1617,306.0021,1184.4549,309.3835,1181.0735,309.6768,1186.7516,311.3137" style="stroke:#181818;stroke-width:0.6;"/><path d="M564.2078,179.3679 C779.0066,203.5869 1058.4912,243.2513 1161,294 C1170.089,298.4997 1176.0315,302.3045 1183.9956,308.9975 " fill="none" style="stroke:#181818;stroke-width:0.6;"/><text fill="#000000" font-family="sans-serif" font-size="7.8" lengthAdjust="spacing" textLength="12.6" x="1150.8" y="286.817">has</text><text fill="#000000" font-family="sans-serif" font-size="7.8" lengthAdjust="spacing" textLength="4.2" x="1181.9516" y="308.9306">1</text><text fill="#000000" font-family="sans-serif" font-size="7.8" lengthAdjust="spacing" textLength="4.2" x="564.8078" y="188.3849">1</text><polygon fill="#181818" points="1323.2267,311.3065,1320.6334,305.9966,1320.9288,309.3779,1317.5476,309.6733,1323.2267,311.3065" style="stroke:#181818;stroke-width:0.6;"/><path d="M564.0743,172.2743 C816.6752,193.7429 1171.4538,233.4208 1297.2,294 C1306.4105,298.4372 1312.4432,302.2559 1320.4692,308.9921 " fill="none" style="stroke:#181818;stroke-width:0.6;"/><text fill="#000000" font-family="sans-serif" font-size="7.8" lengthAdjust="spacing" textLength="12.6" x="1285.2" y="286.817">has</text><text fill="#000000" font-family="sans-serif" font-size="7.8" lengthAdjust="spacing" textLength="4.2" x="1318.4267" y="308.9235">1</text><text fill="#000000" font-family="sans-serif" font-size="7.8" lengthAdjust="spacing" textLength="4.2" x="564.6743" y="169.8913">1</text><polygon fill="#181818" points="1471.9199,328.1294,1470.4481,322.4063,1470.0571,325.7778,1466.6856,325.3867,1471.9199,328.1294" style="stroke:#181818;stroke-width:0.6;"/><path d="M564.1464,164.6903 C852.9714,181.1791 1286.7393,217.9294 1433.4,294 C1448.6382,301.9038 1459.6451,312.6337 1469.6845,325.3075 " fill="none" style="stroke:#181818;stroke-width:0.6;"/><text fill="#000000" font-family="sans-serif" font-size="7.8" lengthAdjust="spacing" textLength="12.6" x="1419.6" y="286.817">has</text><text fill="#000000" font-family="sans-serif" font-size="7.8" lengthAdjust="spacing" textLength="4.2" x="1467.1199" y="325.7464">1</text><text fill="#000000" font-family="sans-serif" font-size="7.8" lengthAdjust="spacing" textLength="4.2" x="564.7464" y="162.3073">1</text><polygon fill="none" points="1588.5948,438.4722,1592.9552,427.9562,1585.7735,427.4432,1588.5948,438.4722" style="stroke:#181818;stroke-width:0.6;"/><path d="M1593.2119,373.8332 C1591.9677,391.2525 1590.6117,410.2359 1589.3643,427.6997 " fill="none" style="stroke:#181818;stroke-width:0.6;"/><polygon fill="none" points="1594.6091,344.746,1598.5219,334.0554,1591.3249,333.8458,1594.6091,344.746" style="stroke:#181818;stroke-width:0.6;"/><path d="M1599.797,166.5428 C1598.7066,203.9983 1596.021,296.2498 1594.9234,333.9506 " fill="none" style="stroke:#181818;stroke-width:0.6;"/><polygon fill="none" points="1615.8577,440.5298,1626.939,437.9213,1623.1576,431.7942,1615.8577,440.5298" style="stroke:#181818;stroke-width:0.6;"/><path d="M1607.4276,166.671 C1627.9636,208.464 1682.1778,335.0218 1634.4,422.4 C1630.2329,430.021 1632.4021,430.3194 1625.0483,434.8578 " fill="none" style="stroke:#181818;stroke-width:0.6;"/><polygon fill="none" points="1559.6924,501.5386,1549.1224,497.3107,1548.6997,504.4983,1559.6924,501.5386" style="stroke:#181818;stroke-width:0.6;"/><path d="M760.9215,396.0048 C780.3712,406.1308 802.4436,416.0911 823.8,422.4 C965.4274,464.2383 1420.9889,493.3806 1548.9111,500.9045 " fill="none" style="stroke:#181818;stroke-width:0.6;stroke-dasharray:7.0,7.0;"/><polygon fill="none" points="1559.3891,451.9569,1548.6514,448.175,1548.5298,455.3739,1559.3891,451.9569" style="stroke:#181818;stroke-width:0.6;"/><path d="M960.4971,407.5512 C969.6367,413.5122 979.4164,418.7788 989.4,422.4 C1043.2862,441.9457 1437.3428,449.895 1548.5906,451.7745 " fill="none" style="stroke:#181818;stroke-width:0.6;stroke-dasharray:7.0,7.0;"/><polygon fill="none" points="1559.2163,452.4305,1548.4262,448.8009,1548.4065,456.0009,1559.2163,452.4305" style="stroke:#181818;stroke-width:0.6;"/><path d="M1131.5303,407.5256 C1140.8993,413.4485 1150.8765,418.7103 1161,422.4 C1234.5062,449.1904 1465.3043,452.173 1548.4164,452.4009 " fill="none" style="stroke:#181818;stroke-width:0.6;stroke-dasharray:7.0,7.0;"/><polygon fill="none" points="1559.3406,451.7322,1548.6506,447.8176,1548.4398,455.0145,1559.3406,451.7322" style="stroke:#181818;stroke-width:0.6;"/><path d="M1273.1558,407.4003 C1280.6348,413.2995 1288.741,418.5875 1297.2,422.4 C1343.5817,443.3047 1485.0028,449.5553 1548.5452,451.4161 " fill="none" style="stroke:#181818;stroke-width:0.6;stroke-dasharray:7.0,7.0;"/><polygon fill="none" points="1559.2229,451.4201,1548.6833,447.1169,1548.2093,454.3013,1559.2229,451.4201" style="stroke:#181818;stroke-width:0.6;"/><path d="M1411.0846,407.4935 C1418.3024,413.1856 1426.031,418.3898 1434,422.4 C1474.4107,442.7355 1516.4534,448.5982 1548.4463,450.7091 " fill="none" style="stroke:#181818;stroke-width:0.6;stroke-dasharray:7.0,7.0;"/><polygon fill="none" points="1591.0535,489.4296,1593.6007,478.334,1586.4339,479.0248,1591.0535,489.4296" style="stroke:#181818;stroke-width:0.6;"/><path d="M1588.9371,467.4721 C1589.5973,474.3217 1589.3558,471.8165 1590.0173,478.6794 " fill="none" style="stroke:#181818;stroke-width:0.6;stroke-dasharray:7.0,7.0;"/><!--SRC=[pLPTJzim57tthxXZ3sjKMk0LJKY8J5gbiI50l4vkV4dDaZYBtIAqzR_FSJvgkqvRU1bvoSSvllOzFlV6dnPAbVByvAJCQA6MUJPDH7wIP5JA2UCqhMXEo8UoecbE8QClOgb0vgXeGVlFCg4PmjdfAJnpfXRzzwN41wmKr_3iyKP8oUSP4bBIv1TD4PZ8AI-cTrX8KS4V0lhYXSBgaIO8pkVw6aEAQXQFelCMcyKkzftcs67riujU2uRP3LMBEa3_udAQiVSl9ThpDEyMKuaxLV4YDHJpv8PveDaIQz0y_9W_OQ9SHemhdhIJTC-6iIRcPlI7onLg8V56F6Dr9Ggvp4l5HR6bJ7rDu6VU9GMX15kIxEM1e5OERHP3G6o7qeW30rgrr9s9695qWFqaFonhbGDFH9lIHMTYMPlFWqjlCgcPNwbSNDFoypUXVHjJXVSynsE8JO0BueGOxrxrAB32OmZkqp7iqBC3jxOjSbRp4IXZjqXPxSrAt-kLQxwNoSgH90gBqrVRa0FwahCeMqxoAs_GcO7os-KfhuY6362NAcpLgb-l42vOZyOBhZZDmj8-yY8C3GLVa_Mc8QusXBQw3-W3ZS4R-e3XnmT467a38nAGnuav9AtJmkmTj3gMNYXdWURfE42gAaQPLDoijMD7tW-1XRPs30jTnLVQQWRLVnKBmjzBcicHc3-TGwDspPaBaI4jo7xl118qflOpb3Oqc6oBUzd2kqxt5NkfCzkW4Gcsb_-LJDSp3aYcxpKD0fozirpwjkecK-elWLLjMh9DY0wQr6fOZ34z7R6FRR4vr7qf55SlPYdh4Dvgxc6NQLfXgZlchH0gHB0wQ8DgVFSXQJhzU-4UDDlRde57PqSmcLn0VJ_ezABt-R289kIT-wz_o-2kvRnjz1i6nfkppEi6NblddNeaSJmocUWTwbn1N0jOMCCUnkkn-_V9sC7-3nDd9ngtC3RjOxfQ3-51gDTh6x9VjjVq3m00]--></g></svg>