<?xml version="1.0" encoding="us-ascii" standalone="no"?><svg xmlns="http://www.w3.org/2000/svg" xmlns:xlink="http://www.w3.org/1999/xlink" contentStyleType="text/css" height="552px" preserveAspectRatio="none" style="width:2324px;height:552px;background:#FFFFFF;" version="1.1" viewBox="0 0 2324 552" width="2324px" zoomAndPan="magnify"><defs/><g><!--cluster domain--><g id="cluster_domain"><path d="M8.5,110.46 L60.5,110.46 A3.75,3.75 0 0 1 63,112.96 L70,135.0811 L1554.5,135.0811 A2.5,2.5 0 0 1 1557,137.5811 L1557,505.96 A2.5,2.5 0 0 1 1554.5,508.46 L8.5,508.46 A2.5,2.5 0 0 1 6,505.96 L6,112.96 A2.5,2.5 0 0 1 8.5,110.46 " fill="none" style="stroke:#000000;stroke-width:1.5;"/><line style="stroke:#000000;stroke-width:1.5;" x1="6" x2="70" y1="135.0811" y2="135.0811"/><text fill="#000000" font-family="sans-serif" font-size="14" font-weight="bold" lengthAdjust="spacing" textLength="51" x="10" y="127.5674">domain</text></g><!--cluster sensors--><g id="cluster_sensors"><path d="M1597.5,54.46 L1655.5,54.46 A3.75,3.75 0 0 1 1658,56.96 L1665,79.0811 L2314.5,79.0811 A2.5,2.5 0 0 1 2317,81.5811 L2317,542.96 A2.5,2.5 0 0 1 2314.5,545.46 L1597.5,545.46 A2.5,2.5 0 0 1 1595,542.96 L1595,56.96 A2.5,2.5 0 0 1 1597.5,54.46 " fill="none" style="stroke:#000000;stroke-width:1.5;"/><line style="stroke:#000000;stroke-width:1.5;" x1="1595" x2="1665" y1="79.0811" y2="79.0811"/><text fill="#000000" font-family="sans-serif" font-size="14" font-weight="bold" lengthAdjust="spacing" textLength="57" x="1599" y="71.5674">sensors</text></g><!--class SensorFactory--><g id="elem_SensorFactory"><rect codeLine="4" fill="#F1F1F1" height="66.6211" id="SensorFactory" rx="2.5" ry="2.5" style="stroke:#181818;stroke-width:0.5;" width="400" x="799" y="186.96"/><ellipse cx="948.25" cy="202.96" fill="#ADD1B2" rx="11" ry="11" style="stroke:#181818;stroke-width:1.0;"/><path d="M951.0156,198.835 Q951.1719,198.6163 951.3594,198.5069 Q951.5469,198.3975 951.7656,198.3975 Q952.1406,198.3975 952.375,198.6631 Q952.6094,198.9131 952.6094,199.5225 L952.6094,200.9756 Q952.6094,201.585 952.375,201.8506 Q952.1406,202.1163 951.7656,202.1163 Q951.4219,202.1163 951.2188,201.9131 Q951.0156,201.7256 950.9063,201.21 Q950.8594,200.8506 950.6719,200.6631 Q950.3438,200.2881 949.7344,200.0694 Q949.125,199.8506 948.5,199.8506 Q947.7344,199.8506 947.0938,200.1788 Q946.4688,200.5069 945.9688,201.2569 Q945.4844,202.0069 945.4844,203.0381 L945.4844,204.1319 Q945.4844,205.3663 946.375,206.1944 Q947.2656,207.0069 948.8594,207.0069 Q949.7969,207.0069 950.4531,206.7569 Q950.8438,206.6006 951.2656,206.1631 Q951.5313,205.8975 951.6719,205.8194 Q951.8281,205.7413 952.0313,205.7413 Q952.3594,205.7413 952.6094,206.0069 Q952.875,206.2569 952.875,206.6006 Q952.875,206.9444 952.5313,207.3506 Q952.0313,207.9288 951.2344,208.2569 Q950.1563,208.71 948.8594,208.71 Q947.3438,208.71 946.1406,208.085 Q945.1563,207.585 944.4688,206.5225 Q943.7813,205.4444 943.7813,204.1631 L943.7813,203.0069 Q943.7813,201.6788 944.3906,200.5381 Q945.0156,199.3819 946.1094,198.7725 Q947.2031,198.1475 948.4375,198.1475 Q949.1719,198.1475 949.8125,198.3194 Q950.4688,198.4756 951.0156,198.835 Z " fill="#000000"/><text fill="#000000" font-family="sans-serif" font-size="14" lengthAdjust="spacing" textLength="93" x="968.75" y="208.7569">SensorFactory</text><line style="stroke:#181818;stroke-width:0.5;" x1="800" x2="1198" y1="218.96" y2="218.96"/><line style="stroke:#181818;stroke-width:0.5;" x1="800" x2="1198" y1="226.96" y2="226.96"/><ellipse cx="810" cy="241.7705" fill="#84BE84" rx="3" ry="3" style="stroke:#038048;stroke-width:1.0;"/><text fill="#000000" font-family="sans-serif" font-size="14" lengthAdjust="spacing" textLength="374" x="819" y="246.0674">createSensor(model: String, catalogue: Catalogue): Sensor</text></g><!--class SensorTypeFactory--><g id="elem_SensorTypeFactory"><rect codeLine="9" fill="#F1F1F1" height="66.6211" id="SensorTypeFactory" rx="2.5" ry="2.5" style="stroke:#181818;stroke-width:0.5;" width="433" x="330.5" y="186.96"/><ellipse cx="480.25" cy="202.96" fill="#ADD1B2" rx="11" ry="11" style="stroke:#181818;stroke-width:1.0;"/><path d="M483.0156,198.835 Q483.1719,198.6163 483.3594,198.5069 Q483.5469,198.3975 483.7656,198.3975 Q484.1406,198.3975 484.375,198.6631 Q484.6094,198.9131 484.6094,199.5225 L484.6094,200.9756 Q484.6094,201.585 484.375,201.8506 Q484.1406,202.1163 483.7656,202.1163 Q483.4219,202.1163 483.2188,201.9131 Q483.0156,201.7256 482.9063,201.21 Q482.8594,200.8506 482.6719,200.6631 Q482.3438,200.2881 481.7344,200.0694 Q481.125,199.8506 480.5,199.8506 Q479.7344,199.8506 479.0938,200.1788 Q478.4688,200.5069 477.9688,201.2569 Q477.4844,202.0069 477.4844,203.0381 L477.4844,204.1319 Q477.4844,205.3663 478.375,206.1944 Q479.2656,207.0069 480.8594,207.0069 Q481.7969,207.0069 482.4531,206.7569 Q482.8438,206.6006 483.2656,206.1631 Q483.5313,205.8975 483.6719,205.8194 Q483.8281,205.7413 484.0313,205.7413 Q484.3594,205.7413 484.6094,206.0069 Q484.875,206.2569 484.875,206.6006 Q484.875,206.9444 484.5313,207.3506 Q484.0313,207.9288 483.2344,208.2569 Q482.1563,208.71 480.8594,208.71 Q479.3438,208.71 478.1406,208.085 Q477.1563,207.585 476.4688,206.5225 Q475.7813,205.4444 475.7813,204.1631 L475.7813,203.0069 Q475.7813,201.6788 476.3906,200.5381 Q477.0156,199.3819 478.1094,198.7725 Q479.2031,198.1475 480.4375,198.1475 Q481.1719,198.1475 481.8125,198.3194 Q482.4688,198.4756 483.0156,198.835 Z " fill="#000000"/><text fill="#000000" font-family="sans-serif" font-size="14" lengthAdjust="spacing" textLength="125" x="500.75" y="208.7569">SensorTypeFactory</text><line style="stroke:#181818;stroke-width:0.5;" x1="331.5" x2="762.5" y1="218.96" y2="218.96"/><line style="stroke:#181818;stroke-width:0.5;" x1="331.5" x2="762.5" y1="226.96" y2="226.96"/><ellipse cx="341.5" cy="241.7705" fill="#84BE84" rx="3" ry="3" style="stroke:#038048;stroke-width:1.0;"/><text fill="#000000" font-family="sans-serif" font-size="14" lengthAdjust="spacing" textLength="407" x="350.5" y="246.0674">createSensorType(strDescription: String, unit: Unit): SensorType</text></g><!--class CatalogueSensor--><g id="elem_CatalogueSensor"><rect codeLine="14" fill="#F1F1F1" height="103.8633" id="CatalogueSensor" rx="2.5" ry="2.5" style="stroke:#181818;stroke-width:0.5;" width="273" x="22.5" y="168.46"/><ellipse cx="99.75" cy="184.46" fill="#ADD1B2" rx="11" ry="11" style="stroke:#181818;stroke-width:1.0;"/><path d="M102.5156,180.335 Q102.6719,180.1163 102.8594,180.0069 Q103.0469,179.8975 103.2656,179.8975 Q103.6406,179.8975 103.875,180.1631 Q104.1094,180.4131 104.1094,181.0225 L104.1094,182.4756 Q104.1094,183.085 103.875,183.3506 Q103.6406,183.6163 103.2656,183.6163 Q102.9219,183.6163 102.7188,183.4131 Q102.5156,183.2256 102.4063,182.71 Q102.3594,182.3506 102.1719,182.1631 Q101.8438,181.7881 101.2344,181.5694 Q100.625,181.3506 100,181.3506 Q99.2344,181.3506 98.5938,181.6788 Q97.9688,182.0069 97.4688,182.7569 Q96.9844,183.5069 96.9844,184.5381 L96.9844,185.6319 Q96.9844,186.8663 97.875,187.6944 Q98.7656,188.5069 100.3594,188.5069 Q101.2969,188.5069 101.9531,188.2569 Q102.3438,188.1006 102.7656,187.6631 Q103.0313,187.3975 103.1719,187.3194 Q103.3281,187.2413 103.5313,187.2413 Q103.8594,187.2413 104.1094,187.5069 Q104.375,187.7569 104.375,188.1006 Q104.375,188.4444 104.0313,188.8506 Q103.5313,189.4288 102.7344,189.7569 Q101.6563,190.21 100.3594,190.21 Q98.8438,190.21 97.6406,189.585 Q96.6563,189.085 95.9688,188.0225 Q95.2813,186.9444 95.2813,185.6631 L95.2813,184.5069 Q95.2813,183.1788 95.8906,182.0381 Q96.5156,180.8819 97.6094,180.2725 Q98.7031,179.6475 99.9375,179.6475 Q100.6719,179.6475 101.3125,179.8194 Q101.9688,179.9756 102.5156,180.335 Z " fill="#000000"/><text fill="#000000" font-family="sans-serif" font-size="14" lengthAdjust="spacing" textLength="110" x="120.25" y="190.2569">CatalogueSensor</text><line style="stroke:#181818;stroke-width:0.5;" x1="23.5" x2="294.5" y1="200.46" y2="200.46"/><rect fill="none" height="6" style="stroke:#C82930;stroke-width:1.0;" width="6" x="30.5" y="212.2705"/><text fill="#000000" font-family="sans-serif" font-size="14" lengthAdjust="spacing" textLength="232" x="42.5" y="219.5674">_listSensorTypes: List&lt;SensorType&gt;</text><rect fill="none" height="6" style="stroke:#C82930;stroke-width:1.0;" width="6" x="30.5" y="230.8916"/><text fill="#000000" font-family="sans-serif" font-size="14" lengthAdjust="spacing" textLength="247" x="42.5" y="238.1885">_listStringClassesSensors: List&lt;String&gt;</text><line style="stroke:#181818;stroke-width:0.5;" x1="23.5" x2="294.5" y1="245.7022" y2="245.7022"/><ellipse cx="33.5" cy="260.5127" fill="#84BE84" rx="3" ry="3" style="stroke:#038048;stroke-width:1.0;"/><text fill="#000000" font-family="sans-serif" font-size="14" lengthAdjust="spacing" textLength="247" x="42.5" y="264.8096">CatalogueSensor(filePathname: String)</text></g><!--class SensorType--><g id="elem_SensorType"><rect codeLine="23" fill="#F1F1F1" height="48" id="SensorType" rx="2.5" ry="2.5" style="stroke:#181818;stroke-width:0.5;" width="109" x="492.5" y="444.46"/><ellipse cx="507.5" cy="460.46" fill="#ADD1B2" rx="11" ry="11" style="stroke:#181818;stroke-width:1.0;"/><path d="M510.2656,456.335 Q510.4219,456.1163 510.6094,456.0069 Q510.7969,455.8975 511.0156,455.8975 Q511.3906,455.8975 511.625,456.1631 Q511.8594,456.4131 511.8594,457.0225 L511.8594,458.4756 Q511.8594,459.085 511.625,459.3506 Q511.3906,459.6163 511.0156,459.6163 Q510.6719,459.6163 510.4688,459.4131 Q510.2656,459.2256 510.1563,458.71 Q510.1094,458.3506 509.9219,458.1631 Q509.5938,457.7881 508.9844,457.5694 Q508.375,457.3506 507.75,457.3506 Q506.9844,457.3506 506.3438,457.6788 Q505.7188,458.0069 505.2188,458.7569 Q504.7344,459.5069 504.7344,460.5381 L504.7344,461.6319 Q504.7344,462.8663 505.625,463.6944 Q506.5156,464.5069 508.1094,464.5069 Q509.0469,464.5069 509.7031,464.2569 Q510.0938,464.1006 510.5156,463.6631 Q510.7813,463.3975 510.9219,463.3194 Q511.0781,463.2413 511.2813,463.2413 Q511.6094,463.2413 511.8594,463.5069 Q512.125,463.7569 512.125,464.1006 Q512.125,464.4444 511.7813,464.8506 Q511.2813,465.4288 510.4844,465.7569 Q509.4063,466.21 508.1094,466.21 Q506.5938,466.21 505.3906,465.585 Q504.4063,465.085 503.7188,464.0225 Q503.0313,462.9444 503.0313,461.6631 L503.0313,460.5069 Q503.0313,459.1788 503.6406,458.0381 Q504.2656,456.8819 505.3594,456.2725 Q506.4531,455.6475 507.6875,455.6475 Q508.4219,455.6475 509.0625,455.8194 Q509.7188,455.9756 510.2656,456.335 Z " fill="#000000"/><text fill="#000000" font-family="sans-serif" font-size="14" lengthAdjust="spacing" textLength="77" x="521.5" y="466.2569">SensorType</text><line style="stroke:#181818;stroke-width:0.5;" x1="493.5" x2="600.5" y1="476.46" y2="476.46"/><line style="stroke:#181818;stroke-width:0.5;" x1="493.5" x2="600.5" y1="484.46" y2="484.46"/></g><!--class Sensor--><g id="elem_Sensor"><rect codeLine="27" fill="#F1F1F1" height="85.2422" id="Sensor" rx="2.5" ry="2.5" style="stroke:#181818;stroke-width:0.5;" width="204" x="1337" y="177.96"/><ellipse cx="1412.25" cy="193.96" fill="#B4A7E5" rx="11" ry="11" style="stroke:#181818;stroke-width:1.0;"/><path d="M1413.2031,190.6006 L1413.2031,197.2569 L1414.9219,197.2569 Q1415.5313,197.2569 1415.7969,197.4913 Q1416.0625,197.7256 1416.0625,198.1163 Q1416.0625,198.4913 1415.7969,198.7256 Q1415.5313,198.96 1414.9219,198.96 L1409.7813,198.96 Q1409.1719,198.96 1408.9063,198.7256 Q1408.6406,198.4913 1408.6406,198.1006 Q1408.6406,197.7256 1408.9063,197.4913 Q1409.1719,197.2569 1409.7813,197.2569 L1411.5,197.2569 L1411.5,190.6006 L1409.7813,190.6006 Q1409.1719,190.6006 1408.9063,190.3663 Q1408.6406,190.1319 1408.6406,189.7413 Q1408.6406,189.3663 1408.9063,189.1319 Q1409.1719,188.8975 1409.7813,188.8975 L1414.9219,188.8975 Q1415.5313,188.8975 1415.7969,189.1319 Q1416.0625,189.3663 1416.0625,189.7413 Q1416.0625,190.1319 1415.7969,190.3663 Q1415.5313,190.6006 1414.9219,190.6006 L1413.2031,190.6006 Z " fill="#000000"/><text fill="#000000" font-family="sans-serif" font-size="14" font-style="italic" lengthAdjust="spacing" textLength="45" x="1432.75" y="199.7569">Sensor</text><line style="stroke:#181818;stroke-width:0.5;" x1="1338" x2="1540" y1="209.96" y2="209.96"/><line style="stroke:#181818;stroke-width:0.5;" x1="1338" x2="1540" y1="217.96" y2="217.96"/><text fill="#000000" font-family="sans-serif" font-size="14" lengthAdjust="spacing" textLength="192" x="1343" y="237.0674">getSensorType(): SensorType</text><text fill="#000000" font-family="sans-serif" font-size="14" lengthAdjust="spacing" textLength="110" x="1343" y="255.6885">getValue(): Value</text></g><!--class Value--><g id="elem_Value"><rect codeLine="33" fill="#F1F1F1" height="48" id="Value" rx="2.5" ry="2.5" style="stroke:#181818;stroke-width:0.5;" width="68" x="1234" y="196.46"/><ellipse cx="1249" cy="212.46" fill="#B4A7E5" rx="11" ry="11" style="stroke:#181818;stroke-width:1.0;"/><path d="M1249.9531,209.1006 L1249.9531,215.7569 L1251.6719,215.7569 Q1252.2813,215.7569 1252.5469,215.9913 Q1252.8125,216.2256 1252.8125,216.6163 Q1252.8125,216.9913 1252.5469,217.2256 Q1252.2813,217.46 1251.6719,217.46 L1246.5313,217.46 Q1245.9219,217.46 1245.6563,217.2256 Q1245.3906,216.9913 1245.3906,216.6006 Q1245.3906,216.2256 1245.6563,215.9913 Q1245.9219,215.7569 1246.5313,215.7569 L1248.25,215.7569 L1248.25,209.1006 L1246.5313,209.1006 Q1245.9219,209.1006 1245.6563,208.8663 Q1245.3906,208.6319 1245.3906,208.2413 Q1245.3906,207.8663 1245.6563,207.6319 Q1245.9219,207.3975 1246.5313,207.3975 L1251.6719,207.3975 Q1252.2813,207.3975 1252.5469,207.6319 Q1252.8125,207.8663 1252.8125,208.2413 Q1252.8125,208.6319 1252.5469,208.8663 Q1252.2813,209.1006 1251.6719,209.1006 L1249.9531,209.1006 Z " fill="#000000"/><text fill="#000000" font-family="sans-serif" font-size="14" font-style="italic" lengthAdjust="spacing" textLength="36" x="1263" y="218.2569">Value</text><line style="stroke:#181818;stroke-width:0.5;" x1="1235" x2="1301" y1="228.46" y2="228.46"/><line style="stroke:#181818;stroke-width:0.5;" x1="1235" x2="1301" y1="236.46" y2="236.46"/></g><!--class AveragePowerConsumptionSensorValue--><g id="elem_AveragePowerConsumptionSensorValue"><rect codeLine="39" fill="#F1F1F1" height="122.4844" id="AveragePowerConsumptionSensorValue" rx="2.5" ry="2.5" style="stroke:#181818;stroke-width:0.5;" width="387" x="1686.5" y="407.46"/><ellipse cx="1747.75" cy="423.46" fill="#ADD1B2" rx="11" ry="11" style="stroke:#181818;stroke-width:1.0;"/><path d="M1750.5156,419.335 Q1750.6719,419.1163 1750.8594,419.0069 Q1751.0469,418.8975 1751.2656,418.8975 Q1751.6406,418.8975 1751.875,419.1631 Q1752.1094,419.4131 1752.1094,420.0225 L1752.1094,421.4756 Q1752.1094,422.085 1751.875,422.3506 Q1751.6406,422.6163 1751.2656,422.6163 Q1750.9219,422.6163 1750.7188,422.4131 Q1750.5156,422.2256 1750.4063,421.71 Q1750.3594,421.3506 1750.1719,421.1631 Q1749.8438,420.7881 1749.2344,420.5694 Q1748.625,420.3506 1748,420.3506 Q1747.2344,420.3506 1746.5938,420.6788 Q1745.9688,421.0069 1745.4688,421.7569 Q1744.9844,422.5069 1744.9844,423.5381 L1744.9844,424.6319 Q1744.9844,425.8663 1745.875,426.6944 Q1746.7656,427.5069 1748.3594,427.5069 Q1749.2969,427.5069 1749.9531,427.2569 Q1750.3438,427.1006 1750.7656,426.6631 Q1751.0313,426.3975 1751.1719,426.3194 Q1751.3281,426.2413 1751.5313,426.2413 Q1751.8594,426.2413 1752.1094,426.5069 Q1752.375,426.7569 1752.375,427.1006 Q1752.375,427.4444 1752.0313,427.8506 Q1751.5313,428.4288 1750.7344,428.7569 Q1749.6563,429.21 1748.3594,429.21 Q1746.8438,429.21 1745.6406,428.585 Q1744.6563,428.085 1743.9688,427.0225 Q1743.2813,425.9444 1743.2813,424.6631 L1743.2813,423.5069 Q1743.2813,422.1788 1743.8906,421.0381 Q1744.5156,419.8819 1745.6094,419.2725 Q1746.7031,418.6475 1747.9375,418.6475 Q1748.6719,418.6475 1749.3125,418.8194 Q1749.9688,418.9756 1750.5156,419.335 Z " fill="#000000"/><text fill="#000000" font-family="sans-serif" font-size="14" lengthAdjust="spacing" textLength="256" x="1768.25" y="429.2569">AveragePowerConsumptionSensorValue</text><line style="stroke:#181818;stroke-width:0.5;" x1="1687.5" x2="2072.5" y1="439.46" y2="439.46"/><rect fill="none" height="6" style="stroke:#C82930;stroke-width:1.0;" width="6" x="1694.5" y="451.2705"/><text fill="#000000" font-family="sans-serif" font-size="14" lengthAdjust="spacing" textLength="93" x="1706.5" y="458.5674">_value: double</text><line style="stroke:#181818;stroke-width:0.5;" x1="1687.5" x2="2072.5" y1="466.0811" y2="466.0811"/><ellipse cx="1697.5" cy="480.8916" fill="#84BE84" rx="3" ry="3" style="stroke:#038048;stroke-width:1.0;"/><text fill="#000000" font-family="sans-serif" font-size="14" lengthAdjust="spacing" textLength="361" x="1706.5" y="485.1885">AveragePowerConsumptionSensorValue(dValue: double)</text><ellipse cx="1697.5" cy="499.5127" fill="#84BE84" rx="3" ry="3" style="stroke:#038048;stroke-width:1.0;"/><text fill="#000000" font-family="sans-serif" font-size="14" lengthAdjust="spacing" textLength="117" x="1706.5" y="503.8096">getValue(): double</text><ellipse cx="1697.5" cy="518.1338" fill="#84BE84" rx="3" ry="3" style="stroke:#038048;stroke-width:1.0;"/><text fill="#000000" font-family="sans-serif" font-size="14" lengthAdjust="spacing" textLength="104" x="1706.5" y="522.4307">toString(): String</text></g><!--class AveragePowerConsumptionSensor--><g id="elem_AveragePowerConsumptionSensor"><rect codeLine="48" fill="#F1F1F1" height="215.5898" id="AveragePowerConsumptionSensor" rx="2.5" ry="2.5" style="stroke:#181818;stroke-width:0.5;" width="690" x="1611" y="112.46"/><ellipse cx="1841.75" cy="128.46" fill="#ADD1B2" rx="11" ry="11" style="stroke:#181818;stroke-width:1.0;"/><path d="M1844.5156,124.335 Q1844.6719,124.1163 1844.8594,124.0069 Q1845.0469,123.8975 1845.2656,123.8975 Q1845.6406,123.8975 1845.875,124.1631 Q1846.1094,124.4131 1846.1094,125.0225 L1846.1094,126.4756 Q1846.1094,127.085 1845.875,127.3506 Q1845.6406,127.6163 1845.2656,127.6163 Q1844.9219,127.6163 1844.7188,127.4131 Q1844.5156,127.2256 1844.4063,126.71 Q1844.3594,126.3506 1844.1719,126.1631 Q1843.8438,125.7881 1843.2344,125.5694 Q1842.625,125.3506 1842,125.3506 Q1841.2344,125.3506 1840.5938,125.6788 Q1839.9688,126.0069 1839.4688,126.7569 Q1838.9844,127.5069 1838.9844,128.5381 L1838.9844,129.6319 Q1838.9844,130.8663 1839.875,131.6944 Q1840.7656,132.5069 1842.3594,132.5069 Q1843.2969,132.5069 1843.9531,132.2569 Q1844.3438,132.1006 1844.7656,131.6631 Q1845.0313,131.3975 1845.1719,131.3194 Q1845.3281,131.2413 1845.5313,131.2413 Q1845.8594,131.2413 1846.1094,131.5069 Q1846.375,131.7569 1846.375,132.1006 Q1846.375,132.4444 1846.0313,132.8506 Q1845.5313,133.4288 1844.7344,133.7569 Q1843.6563,134.21 1842.3594,134.21 Q1840.8438,134.21 1839.6406,133.585 Q1838.6563,133.085 1837.9688,132.0225 Q1837.2813,130.9444 1837.2813,129.6631 L1837.2813,128.5069 Q1837.2813,127.1788 1837.8906,126.0381 Q1838.5156,124.8819 1839.6094,124.2725 Q1840.7031,123.6475 1841.9375,123.6475 Q1842.6719,123.6475 1843.3125,123.8194 Q1843.9688,123.9756 1844.5156,124.335 Z " fill="#000000"/><text fill="#000000" font-family="sans-serif" font-size="14" lengthAdjust="spacing" textLength="220" x="1862.25" y="134.2569">AveragePowerConsumptionSensor</text><line style="stroke:#181818;stroke-width:0.5;" x1="1612" x2="2300" y1="144.46" y2="144.46"/><rect fill="none" height="6" style="stroke:#C82930;stroke-width:1.0;" width="6" x="1619" y="156.2705"/><text fill="#000000" font-family="sans-serif" font-size="14" lengthAdjust="spacing" textLength="168" x="1631" y="163.5674">_sensorType: SensorType</text><rect fill="none" height="6" style="stroke:#C82930;stroke-width:1.0;" width="6" x="1619" y="174.8916"/><text fill="#000000" font-family="sans-serif" font-size="14" lengthAdjust="spacing" textLength="367" x="1631" y="182.1885">_powerConsumptions: HashMap&lt;LocalDateTime, Double&gt;</text><rect fill="none" height="6" style="stroke:#C82930;stroke-width:1.0;" width="6" x="1619" y="193.5127"/><text fill="#000000" font-family="sans-serif" font-size="14" lengthAdjust="spacing" textLength="527" x="1631" y="200.8096">_averagePowerConsumptionSensorValue: AveragePowerConsumptionSensorValue</text><rect fill="none" height="6" style="stroke:#C82930;stroke-width:1.0;" width="6" x="1619" y="212.1338"/><text fill="#000000" font-family="sans-serif" font-size="14" lengthAdjust="spacing" textLength="105" x="1631" y="219.4307">_dValue: Double</text><line style="stroke:#181818;stroke-width:0.5;" x1="1612" x2="2300" y1="226.9444" y2="226.9444"/><ellipse cx="1622" cy="241.7549" fill="#84BE84" rx="3" ry="3" style="stroke:#038048;stroke-width:1.0;"/><text fill="#000000" font-family="sans-serif" font-size="14" lengthAdjust="spacing" textLength="596" x="1631" y="246.0518">AveragePowerConsumptionSensor(catalogue: CatalogueSensor) throws InstantiationException</text><ellipse cx="1622" cy="260.376" fill="#84BE84" rx="3" ry="3" style="stroke:#038048;stroke-width:1.0;"/><text fill="#000000" font-family="sans-serif" font-size="14" lengthAdjust="spacing" textLength="472" x="1631" y="264.6729">setSensorType(catalogue: CatalogueSensor) throws InstantiationException</text><polygon fill="#FFFF44" points="1622,273.9971,1626,277.9971,1622,281.9971,1618,277.9971" style="stroke:#B38D22;stroke-width:1.0;"/><text fill="#000000" font-family="sans-serif" font-size="14" lengthAdjust="spacing" textLength="412" x="1631" y="283.294">addReading(readTime: LocalDateTime, reading: Double): Double</text><ellipse cx="1622" cy="297.6182" fill="#84BE84" rx="3" ry="3" style="stroke:#038048;stroke-width:1.0;"/><text fill="#000000" font-family="sans-serif" font-size="14" lengthAdjust="spacing" textLength="330" x="1631" y="301.9151">getValue(): AveragePowerConsumptionSensorValue</text><ellipse cx="1622" cy="316.2393" fill="#84BE84" rx="3" ry="3" style="stroke:#038048;stroke-width:1.0;"/><text fill="#000000" font-family="sans-serif" font-size="14" lengthAdjust="spacing" textLength="664" x="1631" y="320.5362">getValue(initialTime: LocalDateTime, finalTime: LocalDateTime): AveragePowerConsumptionSensorValue</text></g><!--link SensorFactory to AveragePowerConsumptionSensor--><g id="link_SensorFactory_AveragePowerConsumptionSensor"><path codeLine="62" d="M1030.99,186.7 C1070.41,147.79 1141.51,86.07 1217,61.46 C1387.16,6 1580.1473,52.5772 1728.5873,110.2472 " fill="none" id="SensorFactory-to-AveragePowerConsumptionSensor" style="stroke:#181818;stroke-width:1.0;"/><polygon fill="#181818" points="1734.18,112.42,1727.2394,105.4323,1729.5194,110.6093,1724.3423,112.8893,1734.18,112.42" style="stroke:#181818;stroke-width:1.0;"/><text fill="#000000" font-family="sans-serif" font-size="13" lengthAdjust="spacing" textLength="57" x="1376.5" y="34.4883">&#171;creates&#187;</text><text fill="#000000" font-family="sans-serif" font-size="13" lengthAdjust="spacing" textLength="7" x="1029.4209" y="175.7364">1</text><text fill="#000000" font-family="sans-serif" font-size="13" lengthAdjust="spacing" textLength="7" x="1711.3372" y="101.2788">1</text></g><!--link AveragePowerConsumptionSensor to SensorType--><g id="link_AveragePowerConsumptionSensor_SensorType"><path codeLine="63" d="M1610.87,316.86 C1592.7,320.99 1574.66,324.89 1557,328.46 C1195.7,401.47 759.8322,447.1034 607.5722,461.8034 " fill="none" id="AveragePowerConsumptionSensor-to-SensorType" style="stroke:#181818;stroke-width:1.0;"/><polygon fill="#181818" points="601.6,462.38,610.9427,465.4966,606.5769,461.8995,610.174,457.5336,601.6,462.38" style="stroke:#181818;stroke-width:1.0;"/><text fill="#000000" font-family="sans-serif" font-size="13" lengthAdjust="spacing" textLength="35" x="1394" y="373.4883">&#171;has&#187;</text><text fill="#000000" font-family="sans-serif" font-size="13" lengthAdjust="spacing" textLength="7" x="1595.699" y="315.9567">1</text><text fill="#000000" font-family="sans-serif" font-size="13" lengthAdjust="spacing" textLength="7" x="609.4072" y="457.4687">1</text></g><!--link AveragePowerConsumptionSensor to AveragePowerConsumptionSensorValue--><g id="link_AveragePowerConsumptionSensor_AveragePowerConsumptionSensorValue"><path codeLine="64" d="M1922.89,328.64 C1914.57,355.57 1907.7022,377.7977 1900.3722,401.5077 " fill="none" id="AveragePowerConsumptionSensor-to-AveragePowerConsumptionSensorValue" style="stroke:#181818;stroke-width:1.0;"/><polygon fill="#181818" points="1898.6,407.24,1905.0798,399.823,1900.0768,402.4631,1897.4367,397.4601,1898.6,407.24" style="stroke:#181818;stroke-width:1.0;"/><text fill="#000000" font-family="sans-serif" font-size="13" lengthAdjust="spacing" textLength="42" x="1914" y="373.4883">&#171;uses&#187;</text><text fill="#000000" font-family="sans-serif" font-size="13" lengthAdjust="spacing" textLength="7" x="1913.5447" y="350.1656">1</text><text fill="#000000" font-family="sans-serif" font-size="13" lengthAdjust="spacing" textLength="7" x="1893.3459" y="396.1958">1</text></g><!--link AveragePowerConsumptionSensor to Sensor--><g id="link_AveragePowerConsumptionSensor_Sensor"><path codeLine="65" d="M1610.91,220.46 C1587.68,220.46 1582.46,220.46 1559.24,220.46 " fill="none" id="AveragePowerConsumptionSensor-to-Sensor" style="stroke:#181818;stroke-width:1.0;stroke-dasharray:7.0,7.0;"/><polygon fill="none" points="1541.24,220.46,1559.24,226.46,1559.24,214.46,1541.24,220.46" style="stroke:#181818;stroke-width:1.0;"/></g><!--link CatalogueSensor to AveragePowerConsumptionSensor--><g id="link_CatalogueSensor_AveragePowerConsumptionSensor"><path codeLine="67" d="M192.38,168.18 C219.69,130.66 262.04,83.04 313,61.46 C440.27,7.55 1421.25,35.41 1557,61.46 C1613.94,72.39 1667.491,89.1834 1722.271,110.2834 " fill="none" id="CatalogueSensor-to-AveragePowerConsumptionSensor" style="stroke:#181818;stroke-width:1.0;"/><polygon fill="#181818" points="1727.87,112.44,1720.9092,105.4724,1723.2042,110.6428,1718.0337,112.9378,1727.87,112.44" style="stroke:#181818;stroke-width:1.0;"/><text fill="#000000" font-family="sans-serif" font-size="13" lengthAdjust="spacing" textLength="35" x="761.5" y="34.4883">&#171;has&#187;</text><text fill="#000000" font-family="sans-serif" font-size="13" lengthAdjust="spacing" textLength="7" x="189.3951" y="157.0697">1</text><text fill="#000000" font-family="sans-serif" font-size="13" lengthAdjust="spacing" textLength="7" x="1704.5835" y="101.3002">1</text></g><!--link CatalogueSensor to SensorType--><g id="link_CatalogueSensor_SensorType"><path codeLine="68" d="M230.36,272.61 C256.13,290.67 285.62,310.85 313,328.46 C379.37,371.15 453.5097,414.3147 500.6697,441.2447 " fill="none" id="CatalogueSensor-to-SensorType" style="stroke:#181818;stroke-width:1.0;"/><polygon fill="#181818" points="505.88,444.22,500.048,436.2835,501.538,441.7406,496.081,443.2306,505.88,444.22" style="stroke:#181818;stroke-width:1.0;"/><text fill="#000000" font-family="sans-serif" font-size="13" lengthAdjust="spacing" textLength="42" x="390" y="373.4883">&#171;uses&#187;</text><text fill="#000000" font-family="sans-serif" font-size="13" lengthAdjust="spacing" textLength="7" x="232.0546" y="294.4365">1</text><text fill="#000000" font-family="sans-serif" font-size="13" lengthAdjust="spacing" textLength="5" x="490.2476" y="433.3034">*</text></g><!--link AveragePowerConsumptionSensorValue to Value--><g id="link_AveragePowerConsumptionSensorValue_Value"><path codeLine="69" d="M1686.49,427.86 C1536.43,395.76 1349.19,352.11 1320,328.46 C1293.68,307.14 1284.4353,286.5968 1277.8153,262.0968 " fill="none" id="AveragePowerConsumptionSensorValue-to-Value" style="stroke:#181818;stroke-width:1.0;stroke-dasharray:7.0,7.0;"/><polygon fill="none" points="1273.12,244.72,1272.023,263.6619,1283.6076,260.5317,1273.12,244.72" style="stroke:#181818;stroke-width:1.0;"/></g><!--link SensorTypeFactory to SensorType--><g id="link_SensorTypeFactory_SensorType"><path codeLine="70" d="M547,254.13 C547,304.58 547,394.21 547,438.23 " fill="none" id="SensorTypeFactory-to-SensorType" style="stroke:#181818;stroke-width:1.0;"/><polygon fill="#181818" points="547,444.23,551,435.23,547,439.23,543,435.23,547,444.23" style="stroke:#181818;stroke-width:1.0;"/><text fill="#000000" font-family="sans-serif" font-size="13" lengthAdjust="spacing" textLength="57" x="548" y="373.4883">&#171;creates&#187;</text><text fill="#000000" font-family="sans-serif" font-size="13" lengthAdjust="spacing" textLength="7" x="539.3766" y="275.7295">1</text><text fill="#000000" font-family="sans-serif" font-size="13" lengthAdjust="spacing" textLength="7" x="539.1469" y="433.3159">1</text></g><!--SRC=[dLLDRzim3BtxLn3T8SxS5DZL20mKoOODQ85YxNejM9j9X3cI8SdjYcp_VVg8RJdn4dSv98f9FhttICaLvZznJL28BJA-Yo80o4jK2kw9Ao6_OAw5V8ET3G1CRablHA4c_g_v9BaarEIpuwqeg4pXNal6rvUGeyPIh6jAOT4if-aUkeNu4xNBSEk7jueEjZ_Fm1R5IiibgLooIZF1EperPpg57-Qx9M7p3ubu4YrXd-WPJAwrmNgkDUq9pE2fP4ftO2g56_DWtZt9UecEoiBkGChdj1Kkb7aEVPd90PbunKgwGxtXkAL6tpGwqj2H0D_Qrcl6DSaLvWIXl663rnJeYuUjCpcFMDOkx1P3tUqsTIcx8CTaLVjHLDuLIzYhk7uXQG9tufNaGd1LRrrVFOi6gTyPu_QB3QHciEldaWnMe2ivZnWNZs6zyJO99UvH8T72c-ziSQl8g1d1spJ4a5IjaprNJQGwg39JyXNLvXQh-Ot8iLoQaNzWMxg4fUEIsI8ygoiTuQP5QkHxy2WvNHOF7NGVceBUIF6gu1jN6hbcQCi-_yh9rHjarHkl_qVw05WKtmaBsmvp9HJM7dEs-cv9dz0ecmOImmQFS2aeOEPAOLWERhXYV30oRfFsT4Jz-_ZYqmNCPfdxFJrdASpd_ePKMHQTpWrHWxl3GcpmVUNdjJdOMesW1LTNlpDeNXlHmLoyqmilv9yO7u-KZw7e1JcQlc_7hx0JtdRjYVu2]--></g></svg>