<?xml version="1.0" encoding="us-ascii" standalone="no"?><svg xmlns="http://www.w3.org/2000/svg" xmlns:xlink="http://www.w3.org/1999/xlink" contentStyleType="text/css" height="516px" preserveAspectRatio="none" style="width:1783px;height:516px;background:#FFFFFF;" version="1.1" viewBox="0 0 1783 516" width="1783px" zoomAndPan="magnify"><defs/><g><!--cluster SmartHome--><g id="cluster_SmartHome"><path d="M16.5,4 L97.5,4 A3.75,3.75 0 0 1 100,6.5 L107,28.6211 L1773.5,28.6211 A2.5,2.5 0 0 1 1776,31.1211 L1776,506.5 A2.5,2.5 0 0 1 1773.5,509 L16.5,509 A2.5,2.5 0 0 1 14,506.5 L14,6.5 A2.5,2.5 0 0 1 16.5,4 " fill="none" style="stroke:#000000;stroke-width:1.5;"/><line style="stroke:#000000;stroke-width:1.5;" x1="14" x2="107" y1="28.6211" y2="28.6211"/><text fill="#000000" font-family="sans-serif" font-size="14" font-weight="bold" lengthAdjust="spacing" textLength="80" x="18" y="21.1074">SmartHome</text></g><!--cluster actuators--><g id="cluster_actuators"><path d="M24.5,33 L91.5,33 A3.75,3.75 0 0 1 94,35.5 L101,57.6211 L389.5,57.6211 A2.5,2.5 0 0 1 392,60.1211 L392,451.5 A2.5,2.5 0 0 1 389.5,454 L24.5,454 A2.5,2.5 0 0 1 22,451.5 L22,35.5 A2.5,2.5 0 0 1 24.5,33 " fill="none" style="stroke:#000000;stroke-width:1.5;"/><line style="stroke:#000000;stroke-width:1.5;" x1="22" x2="101" y1="57.6211" y2="57.6211"/><text fill="#000000" font-family="sans-serif" font-size="14" font-weight="bold" lengthAdjust="spacing" textLength="66" x="26" y="50.1074">actuators</text></g><!--cluster domain--><g id="cluster_domain"><path d="M402.5,248 L454.5,248 A3.75,3.75 0 0 1 457,250.5 L464,272.6211 L1765.5,272.6211 A2.5,2.5 0 0 1 1768,275.1211 L1768,498.5 A2.5,2.5 0 0 1 1765.5,501 L402.5,501 A2.5,2.5 0 0 1 400,498.5 L400,250.5 A2.5,2.5 0 0 1 402.5,248 " fill="none" style="stroke:#000000;stroke-width:1.5;"/><line style="stroke:#000000;stroke-width:1.5;" x1="400" x2="464" y1="272.6211" y2="272.6211"/><text fill="#000000" font-family="sans-serif" font-size="14" font-weight="bold" lengthAdjust="spacing" textLength="51" x="404" y="265.1074">domain</text></g><!--class BlindRollerActuator--><g id="elem_BlindRollerActuator"><rect codeLine="5" fill="#F1F1F1" height="141.1055" id="BlindRollerActuator" rx="2.5" ry="2.5" style="stroke:#181818;stroke-width:0.5;" width="353" x="30.5" y="62"/><ellipse cx="142.25" cy="78" fill="#ADD1B2" rx="11" ry="11" style="stroke:#181818;stroke-width:1.0;"/><path d="M145.0156,73.875 Q145.1719,73.6563 145.3594,73.5469 Q145.5469,73.4375 145.7656,73.4375 Q146.1406,73.4375 146.375,73.7031 Q146.6094,73.9531 146.6094,74.5625 L146.6094,76.0156 Q146.6094,76.625 146.375,76.8906 Q146.1406,77.1563 145.7656,77.1563 Q145.4219,77.1563 145.2188,76.9531 Q145.0156,76.7656 144.9063,76.25 Q144.8594,75.8906 144.6719,75.7031 Q144.3438,75.3281 143.7344,75.1094 Q143.125,74.8906 142.5,74.8906 Q141.7344,74.8906 141.0938,75.2188 Q140.4688,75.5469 139.9688,76.2969 Q139.4844,77.0469 139.4844,78.0781 L139.4844,79.1719 Q139.4844,80.4063 140.375,81.2344 Q141.2656,82.0469 142.8594,82.0469 Q143.7969,82.0469 144.4531,81.7969 Q144.8438,81.6406 145.2656,81.2031 Q145.5313,80.9375 145.6719,80.8594 Q145.8281,80.7813 146.0313,80.7813 Q146.3594,80.7813 146.6094,81.0469 Q146.875,81.2969 146.875,81.6406 Q146.875,81.9844 146.5313,82.3906 Q146.0313,82.9688 145.2344,83.2969 Q144.1563,83.75 142.8594,83.75 Q141.3438,83.75 140.1406,83.125 Q139.1563,82.625 138.4688,81.5625 Q137.7813,80.4844 137.7813,79.2031 L137.7813,78.0469 Q137.7813,76.7188 138.3906,75.5781 Q139.0156,74.4219 140.1094,73.8125 Q141.2031,73.1875 142.4375,73.1875 Q143.1719,73.1875 143.8125,73.3594 Q144.4688,73.5156 145.0156,73.875 Z " fill="#000000"/><text fill="#000000" font-family="sans-serif" font-size="14" lengthAdjust="spacing" textLength="121" x="162.75" y="83.7969">BlindRollerActuator</text><line style="stroke:#181818;stroke-width:0.5;" x1="31.5" x2="382.5" y1="94" y2="94"/><rect fill="none" height="6" style="stroke:#C82930;stroke-width:1.0;" width="6" x="38.5" y="105.8105"/><text fill="#000000" font-family="sans-serif" font-size="14" lengthAdjust="spacing" textLength="189" x="50.5" y="113.1074">_actuatorType : ActuatorType</text><rect fill="none" height="6" style="stroke:#C82930;stroke-width:1.0;" width="6" x="38.5" y="124.4316"/><text fill="#000000" font-family="sans-serif" font-size="14" lengthAdjust="spacing" textLength="158" x="50.5" y="131.7285">_value : BlindRollerValue</text><line style="stroke:#181818;stroke-width:0.5;" x1="31.5" x2="382.5" y1="139.2422" y2="139.2422"/><ellipse cx="41.5" cy="154.0527" fill="#84BE84" rx="3" ry="3" style="stroke:#038048;stroke-width:1.0;"/><text fill="#000000" font-family="sans-serif" font-size="14" lengthAdjust="spacing" textLength="327" x="50.5" y="158.3496">BlindRollerActuator (catalogue : CatalogueActuator)</text><ellipse cx="41.5" cy="172.6738" fill="#84BE84" rx="3" ry="3" style="stroke:#038048;stroke-width:1.0;"/><text fill="#000000" font-family="sans-serif" font-size="14" lengthAdjust="spacing" textLength="216" x="50.5" y="176.9707">getActuatorType () : ActuatorType</text><ellipse cx="41.5" cy="191.2949" fill="#84BE84" rx="3" ry="3" style="stroke:#038048;stroke-width:1.0;"/><text fill="#000000" font-family="sans-serif" font-size="14" lengthAdjust="spacing" textLength="199" x="50.5" y="195.5918">setValue (value : Value) : Value</text></g><!--class BlindRollerValue--><g id="elem_BlindRollerValue"><rect codeLine="16" fill="#F1F1F1" height="122.4844" id="BlindRollerValue" rx="2.5" ry="2.5" style="stroke:#181818;stroke-width:0.5;" width="201" x="154.5" y="324"/><ellipse cx="198.75" cy="340" fill="#ADD1B2" rx="11" ry="11" style="stroke:#181818;stroke-width:1.0;"/><path d="M201.5156,335.875 Q201.6719,335.6563 201.8594,335.5469 Q202.0469,335.4375 202.2656,335.4375 Q202.6406,335.4375 202.875,335.7031 Q203.1094,335.9531 203.1094,336.5625 L203.1094,338.0156 Q203.1094,338.625 202.875,338.8906 Q202.6406,339.1563 202.2656,339.1563 Q201.9219,339.1563 201.7188,338.9531 Q201.5156,338.7656 201.4063,338.25 Q201.3594,337.8906 201.1719,337.7031 Q200.8438,337.3281 200.2344,337.1094 Q199.625,336.8906 199,336.8906 Q198.2344,336.8906 197.5938,337.2188 Q196.9688,337.5469 196.4688,338.2969 Q195.9844,339.0469 195.9844,340.0781 L195.9844,341.1719 Q195.9844,342.4063 196.875,343.2344 Q197.7656,344.0469 199.3594,344.0469 Q200.2969,344.0469 200.9531,343.7969 Q201.3438,343.6406 201.7656,343.2031 Q202.0313,342.9375 202.1719,342.8594 Q202.3281,342.7813 202.5313,342.7813 Q202.8594,342.7813 203.1094,343.0469 Q203.375,343.2969 203.375,343.6406 Q203.375,343.9844 203.0313,344.3906 Q202.5313,344.9688 201.7344,345.2969 Q200.6563,345.75 199.3594,345.75 Q197.8438,345.75 196.6406,345.125 Q195.6563,344.625 194.9688,343.5625 Q194.2813,342.4844 194.2813,341.2031 L194.2813,340.0469 Q194.2813,338.7188 194.8906,337.5781 Q195.5156,336.4219 196.6094,335.8125 Q197.7031,335.1875 198.9375,335.1875 Q199.6719,335.1875 200.3125,335.3594 Q200.9688,335.5156 201.5156,335.875 Z " fill="#000000"/><text fill="#000000" font-family="sans-serif" font-size="14" lengthAdjust="spacing" textLength="104" x="219.25" y="345.7969">BlindRollerValue</text><line style="stroke:#181818;stroke-width:0.5;" x1="155.5" x2="354.5" y1="356" y2="356"/><rect fill="none" height="6" style="stroke:#C82930;stroke-width:1.0;" width="6" x="162.5" y="367.8105"/><text fill="#000000" font-family="sans-serif" font-size="14" lengthAdjust="spacing" textLength="69" x="174.5" y="375.1074">_value : int</text><line style="stroke:#181818;stroke-width:0.5;" x1="155.5" x2="354.5" y1="382.6211" y2="382.6211"/><ellipse cx="165.5" cy="397.4316" fill="#84BE84" rx="3" ry="3" style="stroke:#038048;stroke-width:1.0;"/><text fill="#000000" font-family="sans-serif" font-size="14" lengthAdjust="spacing" textLength="175" x="174.5" y="401.7285">BlindRollerValue(value : int)</text><ellipse cx="165.5" cy="416.0527" fill="#84BE84" rx="3" ry="3" style="stroke:#038048;stroke-width:1.0;"/><text fill="#000000" font-family="sans-serif" font-size="14" lengthAdjust="spacing" textLength="108" x="174.5" y="420.3496">toString() : String</text><ellipse cx="165.5" cy="434.6738" fill="#84BE84" rx="3" ry="3" style="stroke:#038048;stroke-width:1.0;"/><text fill="#000000" font-family="sans-serif" font-size="14" lengthAdjust="spacing" textLength="160" x="174.5" y="438.9707">clone() : BlindRollerValue</text></g><!--class Value--><g id="elem_Value"><rect codeLine="44" fill="#F1F1F1" height="48" id="Value" rx="2.5" ry="2.5" style="stroke:#181818;stroke-width:0.5;" width="68" x="408" y="361"/><ellipse cx="423" cy="377" fill="#B4A7E5" rx="11" ry="11" style="stroke:#181818;stroke-width:1.0;"/><path d="M423.9531,373.6406 L423.9531,380.2969 L425.6719,380.2969 Q426.2813,380.2969 426.5469,380.5313 Q426.8125,380.7656 426.8125,381.1563 Q426.8125,381.5313 426.5469,381.7656 Q426.2813,382 425.6719,382 L420.5313,382 Q419.9219,382 419.6563,381.7656 Q419.3906,381.5313 419.3906,381.1406 Q419.3906,380.7656 419.6563,380.5313 Q419.9219,380.2969 420.5313,380.2969 L422.25,380.2969 L422.25,373.6406 L420.5313,373.6406 Q419.9219,373.6406 419.6563,373.4063 Q419.3906,373.1719 419.3906,372.7813 Q419.3906,372.4063 419.6563,372.1719 Q419.9219,371.9375 420.5313,371.9375 L425.6719,371.9375 Q426.2813,371.9375 426.5469,372.1719 Q426.8125,372.4063 426.8125,372.7813 Q426.8125,373.1719 426.5469,373.4063 Q426.2813,373.6406 425.6719,373.6406 L423.9531,373.6406 Z " fill="#000000"/><text fill="#000000" font-family="sans-serif" font-size="14" font-style="italic" lengthAdjust="spacing" textLength="36" x="437" y="382.7969">Value</text><line style="stroke:#181818;stroke-width:0.5;" x1="409" x2="475" y1="393" y2="393"/><line style="stroke:#181818;stroke-width:0.5;" x1="409" x2="475" y1="401" y2="401"/></g><!--class Actuator--><g id="elem_Actuator"><rect codeLine="30" fill="#F1F1F1" height="66.6211" id="Actuator" rx="2.5" ry="2.5" style="stroke:#181818;stroke-width:0.5;" width="238" x="494" y="351.5"/><ellipse cx="582.25" cy="367.5" fill="#B4A7E5" rx="11" ry="11" style="stroke:#181818;stroke-width:1.0;"/><path d="M583.2031,364.1406 L583.2031,370.7969 L584.9219,370.7969 Q585.5313,370.7969 585.7969,371.0313 Q586.0625,371.2656 586.0625,371.6563 Q586.0625,372.0313 585.7969,372.2656 Q585.5313,372.5 584.9219,372.5 L579.7813,372.5 Q579.1719,372.5 578.9063,372.2656 Q578.6406,372.0313 578.6406,371.6406 Q578.6406,371.2656 578.9063,371.0313 Q579.1719,370.7969 579.7813,370.7969 L581.5,370.7969 L581.5,364.1406 L579.7813,364.1406 Q579.1719,364.1406 578.9063,363.9063 Q578.6406,363.6719 578.6406,363.2813 Q578.6406,362.9063 578.9063,362.6719 Q579.1719,362.4375 579.7813,362.4375 L584.9219,362.4375 Q585.5313,362.4375 585.7969,362.6719 Q586.0625,362.9063 586.0625,363.2813 Q586.0625,363.6719 585.7969,363.9063 Q585.5313,364.1406 584.9219,364.1406 L583.2031,364.1406 Z " fill="#000000"/><text fill="#000000" font-family="sans-serif" font-size="14" font-style="italic" lengthAdjust="spacing" textLength="53" x="602.75" y="373.2969">Actuator</text><line style="stroke:#181818;stroke-width:0.5;" x1="495" x2="731" y1="383.5" y2="383.5"/><line style="stroke:#181818;stroke-width:0.5;" x1="495" x2="731" y1="391.5" y2="391.5"/><ellipse cx="505" cy="406.3105" fill="#84BE84" rx="3" ry="3" style="stroke:#038048;stroke-width:1.0;"/><text fill="#000000" font-family="sans-serif" font-size="14" lengthAdjust="spacing" textLength="212" x="514" y="410.6074">getActuatorType() : ActuatorType</text></g><!--class ActuatorType--><g id="elem_ActuatorType"><rect codeLine="35" fill="#F1F1F1" height="103.8633" id="ActuatorType" rx="2.5" ry="2.5" style="stroke:#181818;stroke-width:0.5;" width="324" x="750" y="333"/><ellipse cx="865.25" cy="349" fill="#ADD1B2" rx="11" ry="11" style="stroke:#181818;stroke-width:1.0;"/><path d="M868.0156,344.875 Q868.1719,344.6563 868.3594,344.5469 Q868.5469,344.4375 868.7656,344.4375 Q869.1406,344.4375 869.375,344.7031 Q869.6094,344.9531 869.6094,345.5625 L869.6094,347.0156 Q869.6094,347.625 869.375,347.8906 Q869.1406,348.1563 868.7656,348.1563 Q868.4219,348.1563 868.2188,347.9531 Q868.0156,347.7656 867.9063,347.25 Q867.8594,346.8906 867.6719,346.7031 Q867.3438,346.3281 866.7344,346.1094 Q866.125,345.8906 865.5,345.8906 Q864.7344,345.8906 864.0938,346.2188 Q863.4688,346.5469 862.9688,347.2969 Q862.4844,348.0469 862.4844,349.0781 L862.4844,350.1719 Q862.4844,351.4063 863.375,352.2344 Q864.2656,353.0469 865.8594,353.0469 Q866.7969,353.0469 867.4531,352.7969 Q867.8438,352.6406 868.2656,352.2031 Q868.5313,351.9375 868.6719,351.8594 Q868.8281,351.7813 869.0313,351.7813 Q869.3594,351.7813 869.6094,352.0469 Q869.875,352.2969 869.875,352.6406 Q869.875,352.9844 869.5313,353.3906 Q869.0313,353.9688 868.2344,354.2969 Q867.1563,354.75 865.8594,354.75 Q864.3438,354.75 863.1406,354.125 Q862.1563,353.625 861.4688,352.5625 Q860.7813,351.4844 860.7813,350.2031 L860.7813,349.0469 Q860.7813,347.7188 861.3906,346.5781 Q862.0156,345.4219 863.1094,344.8125 Q864.2031,344.1875 865.4375,344.1875 Q866.1719,344.1875 866.8125,344.3594 Q867.4688,344.5156 868.0156,344.875 Z " fill="#000000"/><text fill="#000000" font-family="sans-serif" font-size="14" lengthAdjust="spacing" textLength="85" x="885.75" y="354.7969">ActuatorType</text><line style="stroke:#181818;stroke-width:0.5;" x1="751" x2="1073" y1="365" y2="365"/><rect fill="none" height="6" style="stroke:#C82930;stroke-width:1.0;" width="6" x="758" y="376.8105"/><text fill="#000000" font-family="sans-serif" font-size="14" lengthAdjust="spacing" textLength="144" x="770" y="384.1074">_strDescription : String</text><line style="stroke:#181818;stroke-width:0.5;" x1="751" x2="1073" y1="391.6211" y2="391.6211"/><polygon fill="#FFFF44" points="761,401.4316,765,405.4316,761,409.4316,757,405.4316" style="stroke:#B38D22;stroke-width:1.0;"/><text fill="#000000" font-family="sans-serif" font-size="14" lengthAdjust="spacing" textLength="298" x="770" y="410.7285">ActuatorType(strDescription : String, unit : Unit)</text><ellipse cx="761" cy="425.0527" fill="#84BE84" rx="3" ry="3" style="stroke:#038048;stroke-width:1.0;"/><text fill="#000000" font-family="sans-serif" font-size="14" lengthAdjust="spacing" textLength="168" x="770" y="429.3496">getStrDescription() : String</text></g><!--class CatalogueActuator--><g id="elem_CatalogueActuator"><rect codeLine="47" fill="#F1F1F1" height="215.5898" id="CatalogueActuator" rx="2.5" ry="2.5" style="stroke:#181818;stroke-width:0.5;" width="668" x="1092" y="277"/><ellipse cx="1362.75" cy="293" fill="#ADD1B2" rx="11" ry="11" style="stroke:#181818;stroke-width:1.0;"/><path d="M1365.5156,288.875 Q1365.6719,288.6563 1365.8594,288.5469 Q1366.0469,288.4375 1366.2656,288.4375 Q1366.6406,288.4375 1366.875,288.7031 Q1367.1094,288.9531 1367.1094,289.5625 L1367.1094,291.0156 Q1367.1094,291.625 1366.875,291.8906 Q1366.6406,292.1563 1366.2656,292.1563 Q1365.9219,292.1563 1365.7188,291.9531 Q1365.5156,291.7656 1365.4063,291.25 Q1365.3594,290.8906 1365.1719,290.7031 Q1364.8438,290.3281 1364.2344,290.1094 Q1363.625,289.8906 1363,289.8906 Q1362.2344,289.8906 1361.5938,290.2188 Q1360.9688,290.5469 1360.4688,291.2969 Q1359.9844,292.0469 1359.9844,293.0781 L1359.9844,294.1719 Q1359.9844,295.4063 1360.875,296.2344 Q1361.7656,297.0469 1363.3594,297.0469 Q1364.2969,297.0469 1364.9531,296.7969 Q1365.3438,296.6406 1365.7656,296.2031 Q1366.0313,295.9375 1366.1719,295.8594 Q1366.3281,295.7813 1366.5313,295.7813 Q1366.8594,295.7813 1367.1094,296.0469 Q1367.375,296.2969 1367.375,296.6406 Q1367.375,296.9844 1367.0313,297.3906 Q1366.5313,297.9688 1365.7344,298.2969 Q1364.6563,298.75 1363.3594,298.75 Q1361.8438,298.75 1360.6406,298.125 Q1359.6563,297.625 1358.9688,296.5625 Q1358.2813,295.4844 1358.2813,294.2031 L1358.2813,293.0469 Q1358.2813,291.7188 1358.8906,290.5781 Q1359.5156,289.4219 1360.6094,288.8125 Q1361.7031,288.1875 1362.9375,288.1875 Q1363.6719,288.1875 1364.3125,288.3594 Q1364.9688,288.5156 1365.5156,288.875 Z " fill="#000000"/><text fill="#000000" font-family="sans-serif" font-size="14" lengthAdjust="spacing" textLength="118" x="1383.25" y="298.7969">CatalogueActuator</text><line style="stroke:#181818;stroke-width:0.5;" x1="1093" x2="1759" y1="309" y2="309"/><rect fill="none" height="6" style="stroke:#C82930;stroke-width:1.0;" width="6" x="1100" y="320.8105"/><text fill="#000000" font-family="sans-serif" font-size="14" lengthAdjust="spacing" textLength="252" x="1112" y="328.1074">_listActuatorTypes : List&lt;ActuatorType&gt;</text><rect fill="none" height="6" style="stroke:#C82930;stroke-width:1.0;" width="6" x="1100" y="339.4316"/><text fill="#000000" font-family="sans-serif" font-size="14" lengthAdjust="spacing" textLength="252" x="1112" y="346.7285">_listStringClassesActuator : List&lt;String&gt;</text><line style="stroke:#181818;stroke-width:0.5;" x1="1093" x2="1759" y1="354.2422" y2="354.2422"/><ellipse cx="1103" cy="369.0527" fill="#84BE84" rx="3" ry="3" style="stroke:#038048;stroke-width:1.0;"/><text fill="#000000" font-family="sans-serif" font-size="14" lengthAdjust="spacing" textLength="259" x="1112" y="373.3496">CatalogueActuator(filePathname : String)</text><ellipse cx="1103" cy="387.6738" fill="#84BE84" rx="3" ry="3" style="stroke:#038048;stroke-width:1.0;"/><text fill="#000000" font-family="sans-serif" font-size="14" lengthAdjust="spacing" textLength="642" x="1112" y="391.9707">addActuatorType((strDescription : String, actuatorTypeFactory : ActuatorTypeFactory) : ActuatorType</text><polygon fill="#FFFF44" points="1103,401.2949,1107,405.2949,1103,409.2949,1099,405.2949" style="stroke:#B38D22;stroke-width:1.0;"/><text fill="#000000" font-family="sans-serif" font-size="14" lengthAdjust="spacing" textLength="436" x="1112" y="410.5918">addActuatorTypeToList(actuatorType : ActuatorType) : ActuatorType</text><ellipse cx="1103" cy="424.916" fill="#84BE84" rx="3" ry="3" style="stroke:#038048;stroke-width:1.0;"/><text fill="#000000" font-family="sans-serif" font-size="14" lengthAdjust="spacing" textLength="253" x="1112" y="429.2129">getActuatorTypes(): List&lt;ActuatorType&gt;</text><ellipse cx="1103" cy="443.5371" fill="#84BE84" rx="3" ry="3" style="stroke:#038048;stroke-width:1.0;"/><text fill="#000000" font-family="sans-serif" font-size="14" lengthAdjust="spacing" textLength="348" x="1112" y="447.834">getActuatorType(strDescription : String) : ActuatorType</text><ellipse cx="1103" cy="462.1582" fill="#84BE84" rx="3" ry="3" style="stroke:#038048;stroke-width:1.0;"/><text fill="#000000" font-family="sans-serif" font-size="14" lengthAdjust="spacing" textLength="215" x="1112" y="466.4551">getActuatorModels() : List&lt;String&gt;</text><ellipse cx="1103" cy="480.7793" fill="#84BE84" rx="3" ry="3" style="stroke:#038048;stroke-width:1.0;"/><text fill="#000000" font-family="sans-serif" font-size="14" lengthAdjust="spacing" textLength="407" x="1112" y="485.0762">getActuator(strModel : String, actuatorFactory : ActuatorFactory)</text></g><polygon fill="none" points="407.9933,385,389.9933,379,389.9933,391,407.9933,385" style="stroke:#181818;stroke-width:1.0;"/><path d="M389.9933,385 C372.5971,385 373.2009,385 355.8047,385 " fill="none" style="stroke:#181818;stroke-width:1.0;stroke-dasharray:7.0,7.0;"/><polygon fill="none" points="588.9603,351.3812,582.5838,333.5111,573.1371,340.911,588.9603,351.3812" style="stroke:#181818;stroke-width:1.0;"/><path d="M383.7981,193.043 C418.766,208.4239 454.1576,226.7546 485,248 C526.7886,276.7856 554.2207,307.0323 577.8604,337.211 " fill="none" style="stroke:#181818;stroke-width:1.0;stroke-dasharray:7.0,7.0;"/><text fill="#000000" font-family="sans-serif" font-size="13" lengthAdjust="spacing" textLength="7" x="564.9603" y="347.4095">1</text><text fill="#000000" font-family="sans-serif" font-size="13" lengthAdjust="spacing" textLength="7" x="392.7981" y="189.0713">1</text><polygon fill="#181818" points="860.9035,332.9083,856.9462,323.8894,857.2081,329.5402,851.5573,329.8021,860.9035,332.9083" style="stroke:#181818;stroke-width:1.0;"/><path d="M383.6815,150.6842 C490.9815,166.0724 628.4902,194.8192 741,248 C785.582,269.0729 824.5473,299.7728 856.469,328.8666 " fill="none" style="stroke:#181818;stroke-width:1.0;"/><text fill="#000000" font-family="sans-serif" font-size="13" lengthAdjust="spacing" textLength="35" x="715" y="236.0283">&#171;has&#187;</text><text fill="#000000" font-family="sans-serif" font-size="13" lengthAdjust="spacing" textLength="7" x="840.9035" y="328.9366">1</text><text fill="#000000" font-family="sans-serif" font-size="13" lengthAdjust="spacing" textLength="7" x="424.6815" y="146.7125">1</text><polygon fill="#181818" points="243.4923,323.9443,245.7271,314.3523,242.5513,319.0336,237.87,315.8578,243.4923,323.9443" style="stroke:#181818;stroke-width:1.0;"/><path d="M220.3707,203.2782 C227.6385,241.2073 235.4069,281.7486 242.3632,318.0515 " fill="none" style="stroke:#181818;stroke-width:1.0;"/><text fill="#000000" font-family="sans-serif" font-size="13" lengthAdjust="spacing" textLength="35" x="227" y="236.0283">&#171;has&#187;</text><text fill="#000000" font-family="sans-serif" font-size="13" lengthAdjust="spacing" textLength="7" x="227.4923" y="319.9726">1</text><text fill="#000000" font-family="sans-serif" font-size="13" lengthAdjust="spacing" textLength="7" x="208.3707" y="218.3065">1</text><polygon fill="#181818" points="1176.8984,276.99,1169.731,270.2351,1172.1805,275.3341,1167.0815,277.7837,1176.8984,276.99" style="stroke:#181818;stroke-width:1.0;"/><path d="M1171.237,275.0029 C1140.0001,264.0392 1113.8489,255.9997 1083,248 C845.2683,186.352 562.211,157.0277 383.5385,143.7098 " fill="none" style="stroke:#181818;stroke-width:1.0;stroke-dasharray:7.0,7.0;"/><text fill="#000000" font-family="sans-serif" font-size="13" lengthAdjust="spacing" textLength="42" x="1037" y="236.0283">&#171;uses&#187;</text><text fill="#000000" font-family="sans-serif" font-size="13" lengthAdjust="spacing" textLength="7" x="396.5385" y="158.7382">1</text><text fill="#000000" font-family="sans-serif" font-size="13" lengthAdjust="spacing" textLength="7" x="1168.8984" y="273.0183">1</text><polygon fill="none" points="407.9933,385,389.9933,379,389.9933,391,407.9933,385" style="stroke:#181818;stroke-width:1.0;"/><path d="M355.8047,385 C373.2009,385 372.5971,385 389.9933,385 " fill="none" style="stroke:#181818;stroke-width:1.0;stroke-dasharray:7.0,7.0;"/><text fill="#000000" font-family="sans-serif" font-size="13" lengthAdjust="spacing" textLength="7" x="399.9933" y="381.0283">1</text><text fill="#000000" font-family="sans-serif" font-size="13" lengthAdjust="spacing" textLength="7" x="356.8047" y="381.0283">1</text><!--SRC=[bLN1Zfim4Btp5LFsi4Hfa7Aj45AwLTL3LwgQxLwZANW9gh4HDfMYDlzUOqmms2nRNuBjcNbltemdx-e6Ymg1ueMt4aH5938CWXgpNrWGE5ROo2-y8Z5ciaN96m5_WW3KoYWA0HzfoVBld5BI78o5CW2pxWzIDkNFLX9nVplSmMa8zdIf2No0WxMrpNuZRRjx2-IvEmf6W4SYppoteczzZA8C9L9Uw6WFm_TmlHcT2o9jCX1jbkXj1P6Q34G3JRtT31_QyhgWLUzPLZKb5M5IM4BdlCAInRt5cfGtYKectwgAZXnPZbR-aXyL2YjqtltdU9bHpeY-SGfYShtwEgTFQ6WRXKUQ5ym8-Fh59GwpalWhCj5vKi4-kAFUxYHayuc8h2bhMN8sfXkuHEuc11OStqFBIgcsFzHFBwacVvoOpuMzpbMnwpx9ocdRnTJWH4in4KqeqA_gBB4FKzkwf_JG8H5nGp1U_MNgasRhq8fUIag-eJmphCWjMIC8vlb4osKnxH7nMMruSvaLtfnw- -5k1lJ4kqIYL-QEDyny7eXeioZat7OfjLMWHvuJAdIZJDIVstK0sjQZcglOe9PfBDLQdjaU-uPd2B0F8Ox_fX3kE-_GdLQ3yVy47POAljkPsA-4DZLBaZEAD7qxq1x6-26ik3sRgUYY63RkAmmL_oIETKRxLG3hQIL9gzxQUYezft2iGRZmRn7y0m00]--></g></svg>