<?xml version="1.0" encoding="us-ascii" standalone="no"?><svg xmlns="http://www.w3.org/2000/svg" xmlns:xlink="http://www.w3.org/1999/xlink" contentStyleType="text/css" height="1052px" preserveAspectRatio="none" style="width:1550px;height:1052px;background:#FFFFFF;" version="1.1" viewBox="0 0 1550 1052" width="1550px" zoomAndPan="magnify"><defs/><g><!--cluster domain--><g id="cluster_domain"><path d="M16.5,4 L68.5,4 A3.75,3.75 0 0 1 71,6.5 L78,28.6211 L1540.5,28.6211 A2.5,2.5 0 0 1 1543,31.1211 L1543,1042.5 A2.5,2.5 0 0 1 1540.5,1045 L16.5,1045 A2.5,2.5 0 0 1 14,1042.5 L14,6.5 A2.5,2.5 0 0 1 16.5,4 " fill="none" style="stroke:#000000;stroke-width:1.5;"/><line style="stroke:#000000;stroke-width:1.5;" x1="14" x2="78" y1="28.6211" y2="28.6211"/><text fill="#000000" font-family="sans-serif" font-size="14" font-weight="bold" lengthAdjust="spacing" textLength="51" x="18" y="21.1074">domain</text></g><!--cluster actuator--><g id="cluster_actuator"><path d="M24.5,33 L83.5,33 A3.75,3.75 0 0 1 86,35.5 L93,57.6211 L1532.5,57.6211 A2.5,2.5 0 0 1 1535,60.1211 L1535,760.5 A2.5,2.5 0 0 1 1532.5,763 L24.5,763 A2.5,2.5 0 0 1 22,760.5 L22,35.5 A2.5,2.5 0 0 1 24.5,33 " fill="none" style="stroke:#000000;stroke-width:1.5;"/><line style="stroke:#000000;stroke-width:1.5;" x1="22" x2="93" y1="57.6211" y2="57.6211"/><text fill="#000000" font-family="sans-serif" font-size="14" font-weight="bold" lengthAdjust="spacing" textLength="58" x="26" y="50.1074">actuator</text></g><!--cluster BlindRollerActuator--><g id="cluster_BlindRollerActuator"><path d="M364.5,174 L502.5,174 A3.75,3.75 0 0 1 505,176.5 L512,198.6211 L1524.5,198.6211 A2.5,2.5 0 0 1 1527,201.1211 L1527,729.5 A2.5,2.5 0 0 1 1524.5,732 L364.5,732 A2.5,2.5 0 0 1 362,729.5 L362,176.5 A2.5,2.5 0 0 1 364.5,174 " fill="none" style="stroke:#000000;stroke-width:1.5;"/><line style="stroke:#000000;stroke-width:1.5;" x1="362" x2="512" y1="198.6211" y2="198.6211"/><text fill="#000000" font-family="sans-serif" font-size="14" font-weight="bold" lengthAdjust="spacing" textLength="137" x="366" y="191.1074">BlindRollerActuator</text></g><!--cluster ddd--><g id="cluster_ddd"><path d="M634.5,782 L662.5,782 A3.75,3.75 0 0 1 665,784.5 L672,806.6211 L888.5,806.6211 A2.5,2.5 0 0 1 891,809.1211 L891,1034.5 A2.5,2.5 0 0 1 888.5,1037 L634.5,1037 A2.5,2.5 0 0 1 632,1034.5 L632,784.5 A2.5,2.5 0 0 1 634.5,782 " fill="none" style="stroke:#000000;stroke-width:1.5;"/><line style="stroke:#000000;stroke-width:1.5;" x1="632" x2="672" y1="806.6211" y2="806.6211"/><text fill="#000000" font-family="sans-serif" font-size="14" font-weight="bold" lengthAdjust="spacing" textLength="27" x="636" y="799.1074">ddd</text></g><!--class Actuator--><g id="elem_Actuator"><rect codeLine="5" fill="#F1F1F1" height="178.3477" id="Actuator" rx="2.5" ry="2.5" style="stroke:#181818;stroke-width:0.5;" width="303" x="49.5" y="577"/><ellipse cx="170.25" cy="593" fill="#B4A7E5" rx="11" ry="11" style="stroke:#181818;stroke-width:1.0;"/><path d="M171.2031,589.6406 L171.2031,596.2969 L172.9219,596.2969 Q173.5313,596.2969 173.7969,596.5313 Q174.0625,596.7656 174.0625,597.1563 Q174.0625,597.5313 173.7969,597.7656 Q173.5313,598 172.9219,598 L167.7813,598 Q167.1719,598 166.9063,597.7656 Q166.6406,597.5313 166.6406,597.1406 Q166.6406,596.7656 166.9063,596.5313 Q167.1719,596.2969 167.7813,596.2969 L169.5,596.2969 L169.5,589.6406 L167.7813,589.6406 Q167.1719,589.6406 166.9063,589.4063 Q166.6406,589.1719 166.6406,588.7813 Q166.6406,588.4063 166.9063,588.1719 Q167.1719,587.9375 167.7813,587.9375 L172.9219,587.9375 Q173.5313,587.9375 173.7969,588.1719 Q174.0625,588.4063 174.0625,588.7813 Q174.0625,589.1719 173.7969,589.4063 Q173.5313,589.6406 172.9219,589.6406 L171.2031,589.6406 Z " fill="#000000"/><text fill="#000000" font-family="sans-serif" font-size="14" font-style="italic" lengthAdjust="spacing" textLength="53" x="190.75" y="598.7969">Actuator</text><line style="stroke:#181818;stroke-width:0.5;" x1="50.5" x2="351.5" y1="609" y2="609"/><line style="stroke:#181818;stroke-width:0.5;" x1="50.5" x2="351.5" y1="617" y2="617"/><ellipse cx="60.5" cy="631.8105" fill="#84BE84" rx="3" ry="3" style="stroke:#038048;stroke-width:1.0;"/><text fill="#000000" font-family="sans-serif" font-size="14" lengthAdjust="spacing" textLength="121" x="69.5" y="636.1074">getID() : ActuatorID</text><ellipse cx="60.5" cy="650.4316" fill="#84BE84" rx="3" ry="3" style="stroke:#038048;stroke-width:1.0;"/><text fill="#000000" font-family="sans-serif" font-size="14" lengthAdjust="spacing" textLength="167" x="69.5" y="654.7285">getName() : ActuatorName</text><ellipse cx="60.5" cy="669.0527" fill="#84BE84" rx="3" ry="3" style="stroke:#038048;stroke-width:1.0;"/><text fill="#000000" font-family="sans-serif" font-size="14" lengthAdjust="spacing" textLength="176" x="69.5" y="673.3496">getModelPath() : ModelPath</text><ellipse cx="60.5" cy="687.6738" fill="#84BE84" rx="3" ry="3" style="stroke:#038048;stroke-width:1.0;"/><text fill="#000000" font-family="sans-serif" font-size="14" lengthAdjust="spacing" textLength="238" x="69.5" y="691.9707">getActuatorTypeID() : ActuatorTypeID</text><ellipse cx="60.5" cy="706.2949" fill="#84BE84" rx="3" ry="3" style="stroke:#038048;stroke-width:1.0;"/><text fill="#000000" font-family="sans-serif" font-size="14" lengthAdjust="spacing" textLength="154" x="69.5" y="710.5918">getDeviceID() : DeviceID</text><ellipse cx="60.5" cy="724.916" fill="#84BE84" rx="3" ry="3" style="stroke:#038048;stroke-width:1.0;"/><text fill="#000000" font-family="sans-serif" font-size="14" lengthAdjust="spacing" textLength="108" x="69.5" y="729.2129">toString() : String</text><ellipse cx="60.5" cy="743.5371" fill="#84BE84" rx="3" ry="3" style="stroke:#038048;stroke-width:1.0;"/><text fill="#000000" font-family="sans-serif" font-size="14" lengthAdjust="spacing" textLength="277" x="69.5" y="747.834">setValue(value : ValueObject) : ValueObject</text></g><!--class ActuatorFactory--><g id="elem_ActuatorFactory"><rect codeLine="16" fill="#F1F1F1" height="66.6211" id="ActuatorFactory" rx="2.5" ry="2.5" style="stroke:#181818;stroke-width:0.5;" width="323" x="30.5" y="329"/><ellipse cx="137.25" cy="345" fill="#B4A7E5" rx="11" ry="11" style="stroke:#181818;stroke-width:1.0;"/><path d="M138.2031,341.6406 L138.2031,348.2969 L139.9219,348.2969 Q140.5313,348.2969 140.7969,348.5313 Q141.0625,348.7656 141.0625,349.1563 Q141.0625,349.5313 140.7969,349.7656 Q140.5313,350 139.9219,350 L134.7813,350 Q134.1719,350 133.9063,349.7656 Q133.6406,349.5313 133.6406,349.1406 Q133.6406,348.7656 133.9063,348.5313 Q134.1719,348.2969 134.7813,348.2969 L136.5,348.2969 L136.5,341.6406 L134.7813,341.6406 Q134.1719,341.6406 133.9063,341.4063 Q133.6406,341.1719 133.6406,340.7813 Q133.6406,340.4063 133.9063,340.1719 Q134.1719,339.9375 134.7813,339.9375 L139.9219,339.9375 Q140.5313,339.9375 140.7969,340.1719 Q141.0625,340.4063 141.0625,340.7813 Q141.0625,341.1719 140.7969,341.4063 Q140.5313,341.6406 139.9219,341.6406 L138.2031,341.6406 Z " fill="#000000"/><text fill="#000000" font-family="sans-serif" font-size="14" font-style="italic" lengthAdjust="spacing" textLength="101" x="157.75" y="350.7969">ActuatorFactory</text><line style="stroke:#181818;stroke-width:0.5;" x1="31.5" x2="352.5" y1="361" y2="361"/><line style="stroke:#181818;stroke-width:0.5;" x1="31.5" x2="352.5" y1="369" y2="369"/><ellipse cx="41.5" cy="383.8105" fill="#84BE84" rx="3" ry="3" style="stroke:#038048;stroke-width:1.0;"/><text fill="#000000" font-family="sans-serif" font-size="14" lengthAdjust="spacing" textLength="297" x="50.5" y="388.1074">createActuator(Object... parameters) : Actuator</text></g><!--class ImplActuatorFactory--><g id="elem_ImplActuatorFactory"><rect codeLine="20" fill="#F1F1F1" height="66.6211" id="ImplActuatorFactory" rx="2.5" ry="2.5" style="stroke:#181818;stroke-width:0.5;" width="319" x="347.5" y="62"/><ellipse cx="439.75" cy="78" fill="#ADD1B2" rx="11" ry="11" style="stroke:#181818;stroke-width:1.0;"/><path d="M442.5156,73.875 Q442.6719,73.6563 442.8594,73.5469 Q443.0469,73.4375 443.2656,73.4375 Q443.6406,73.4375 443.875,73.7031 Q444.1094,73.9531 444.1094,74.5625 L444.1094,76.0156 Q444.1094,76.625 443.875,76.8906 Q443.6406,77.1563 443.2656,77.1563 Q442.9219,77.1563 442.7188,76.9531 Q442.5156,76.7656 442.4063,76.25 Q442.3594,75.8906 442.1719,75.7031 Q441.8438,75.3281 441.2344,75.1094 Q440.625,74.8906 440,74.8906 Q439.2344,74.8906 438.5938,75.2188 Q437.9688,75.5469 437.4688,76.2969 Q436.9844,77.0469 436.9844,78.0781 L436.9844,79.1719 Q436.9844,80.4063 437.875,81.2344 Q438.7656,82.0469 440.3594,82.0469 Q441.2969,82.0469 441.9531,81.7969 Q442.3438,81.6406 442.7656,81.2031 Q443.0313,80.9375 443.1719,80.8594 Q443.3281,80.7813 443.5313,80.7813 Q443.8594,80.7813 444.1094,81.0469 Q444.375,81.2969 444.375,81.6406 Q444.375,81.9844 444.0313,82.3906 Q443.5313,82.9688 442.7344,83.2969 Q441.6563,83.75 440.3594,83.75 Q438.8438,83.75 437.6406,83.125 Q436.6563,82.625 435.9688,81.5625 Q435.2813,80.4844 435.2813,79.2031 L435.2813,78.0469 Q435.2813,76.7188 435.8906,75.5781 Q436.5156,74.4219 437.6094,73.8125 Q438.7031,73.1875 439.9375,73.1875 Q440.6719,73.1875 441.3125,73.3594 Q441.9688,73.5156 442.5156,73.875 Z " fill="#000000"/><text fill="#000000" font-family="sans-serif" font-size="14" lengthAdjust="spacing" textLength="126" x="460.25" y="83.7969">ImplActuatorFactory</text><line style="stroke:#181818;stroke-width:0.5;" x1="348.5" x2="665.5" y1="94" y2="94"/><line style="stroke:#181818;stroke-width:0.5;" x1="348.5" x2="665.5" y1="102" y2="102"/><ellipse cx="358.5" cy="116.8105" fill="#84BE84" rx="3" ry="3" style="stroke:#038048;stroke-width:1.0;"/><text fill="#000000" font-family="sans-serif" font-size="14" lengthAdjust="spacing" textLength="293" x="367.5" y="121.1074">createActuator(Object... parameters): Actuator</text></g><!--class BlindRollerActuator--><g id="elem_BlindRollerActuator"><rect codeLine="27" fill="#F1F1F1" height="318.6172" id="BlindRollerActuator" rx="2.5" ry="2.5" style="stroke:#181818;stroke-width:0.5;" width="849" x="397.5" y="203"/><ellipse cx="757.25" cy="233.2715" fill="#ADD1B2" rx="11" ry="11" style="stroke:#181818;stroke-width:1.0;"/><path d="M760.0156,229.1465 Q760.1719,228.9277 760.3594,228.8184 Q760.5469,228.709 760.7656,228.709 Q761.1406,228.709 761.375,228.9746 Q761.6094,229.2246 761.6094,229.834 L761.6094,231.2871 Q761.6094,231.8965 761.375,232.1621 Q761.1406,232.4277 760.7656,232.4277 Q760.4219,232.4277 760.2188,232.2246 Q760.0156,232.0371 759.9063,231.5215 Q759.8594,231.1621 759.6719,230.9746 Q759.3438,230.5996 758.7344,230.3809 Q758.125,230.1621 757.5,230.1621 Q756.7344,230.1621 756.0938,230.4902 Q755.4688,230.8184 754.9688,231.5684 Q754.4844,232.3184 754.4844,233.3496 L754.4844,234.4434 Q754.4844,235.6777 755.375,236.5059 Q756.2656,237.3184 757.8594,237.3184 Q758.7969,237.3184 759.4531,237.0684 Q759.8438,236.9121 760.2656,236.4746 Q760.5313,236.209 760.6719,236.1309 Q760.8281,236.0527 761.0313,236.0527 Q761.3594,236.0527 761.6094,236.3184 Q761.875,236.5684 761.875,236.9121 Q761.875,237.2559 761.5313,237.6621 Q761.0313,238.2402 760.2344,238.5684 Q759.1563,239.0215 757.8594,239.0215 Q756.3438,239.0215 755.1406,238.3965 Q754.1563,237.8965 753.4688,236.834 Q752.7813,235.7559 752.7813,234.4746 L752.7813,233.3184 Q752.7813,231.9902 753.3906,230.8496 Q754.0156,229.6934 755.1094,229.084 Q756.2031,228.459 757.4375,228.459 Q758.1719,228.459 758.8125,228.6309 Q759.4688,228.7871 760.0156,229.1465 Z " fill="#000000"/><text fill="#000000" font-family="sans-serif" font-size="12" font-style="italic" lengthAdjust="spacing" textLength="43" x="816.75" y="220.9492">&#171;entity&#187;</text><text fill="#000000" font-family="sans-serif" font-size="12" font-style="italic" lengthAdjust="spacing" textLength="40" x="818.25" y="236.9102">&#171;Root&#187;</text><text fill="#000000" font-family="sans-serif" font-size="14" lengthAdjust="spacing" textLength="121" x="777.75" y="255.0293">BlindRollerActuator</text><line style="stroke:#181818;stroke-width:0.5;" x1="398.5" x2="1245.5" y1="263.543" y2="263.543"/><rect fill="none" height="6" style="stroke:#C82930;stroke-width:1.0;" width="6" x="405.5" y="275.3535"/><text fill="#000000" font-family="sans-serif" font-size="14" lengthAdjust="spacing" textLength="130" x="417.5" y="282.6504">_deviceID : DeviceID</text><rect fill="none" height="6" style="stroke:#C82930;stroke-width:1.0;" width="6" x="405.5" y="293.9746"/><text fill="#000000" font-family="sans-serif" font-size="14" lengthAdjust="spacing" textLength="193" x="417.5" y="301.2715">_actuatorName :ActuatorName</text><rect fill="none" height="6" style="stroke:#C82930;stroke-width:1.0;" width="6" x="405.5" y="312.5957"/><text fill="#000000" font-family="sans-serif" font-size="14" lengthAdjust="spacing" textLength="154" x="417.5" y="319.8926">_modelPath : ModelPath</text><rect fill="none" height="6" style="stroke:#C82930;stroke-width:1.0;" width="6" x="405.5" y="331.2168"/><text fill="#000000" font-family="sans-serif" font-size="14" lengthAdjust="spacing" textLength="215" x="417.5" y="338.5137">_actuatorTypeID : ActuatorTypeID</text><rect fill="none" height="6" style="stroke:#C82930;stroke-width:1.0;" width="6" x="405.5" y="349.8379"/><text fill="#000000" font-family="sans-serif" font-size="14" lengthAdjust="spacing" textLength="151" x="417.5" y="357.1348">_actuatorID : ActuatorID</text><rect fill="none" height="6" style="stroke:#C82930;stroke-width:1.0;" width="6" x="405.5" y="368.459"/><text fill="#000000" font-family="sans-serif" font-size="14" lengthAdjust="spacing" textLength="158" x="417.5" y="375.7559">_value : BlindRollerValue</text><line style="stroke:#181818;stroke-width:0.5;" x1="398.5" x2="1245.5" y1="383.2695" y2="383.2695"/><ellipse cx="408.5" cy="398.0801" fill="#84BE84" rx="3" ry="3" style="stroke:#038048;stroke-width:1.0;"/><text fill="#000000" font-family="sans-serif" font-size="14" lengthAdjust="spacing" textLength="823" x="417.5" y="402.377">BlindRollerActuator (deviceID : DeviceID, modelPath : ModelPath, actuatorTypeID : ActuatorTypeID, actuatorName : ActuatorName)</text><ellipse cx="408.5" cy="416.7012" fill="#84BE84" rx="3" ry="3" style="stroke:#038048;stroke-width:1.0;"/><text fill="#000000" font-family="sans-serif" font-size="14" lengthAdjust="spacing" textLength="125" x="417.5" y="420.998">getID () : ActuatorID</text><ellipse cx="408.5" cy="435.3223" fill="#84BE84" rx="3" ry="3" style="stroke:#038048;stroke-width:1.0;"/><text fill="#000000" font-family="sans-serif" font-size="14" lengthAdjust="spacing" textLength="180" x="417.5" y="439.6191">getModelPath () : ModelPath</text><ellipse cx="408.5" cy="453.9434" fill="#84BE84" rx="3" ry="3" style="stroke:#038048;stroke-width:1.0;"/><text fill="#000000" font-family="sans-serif" font-size="14" lengthAdjust="spacing" textLength="171" x="417.5" y="458.2402">getName () : ActuatorName</text><ellipse cx="408.5" cy="472.5645" fill="#84BE84" rx="3" ry="3" style="stroke:#038048;stroke-width:1.0;"/><text fill="#000000" font-family="sans-serif" font-size="14" lengthAdjust="spacing" textLength="242" x="417.5" y="476.8613">getActuatorTypeID () : ActuatorTypeID</text><ellipse cx="408.5" cy="491.1855" fill="#84BE84" rx="3" ry="3" style="stroke:#038048;stroke-width:1.0;"/><text fill="#000000" font-family="sans-serif" font-size="14" lengthAdjust="spacing" textLength="158" x="417.5" y="495.4824">getDeviceID () : DeviceID</text><ellipse cx="408.5" cy="509.8066" fill="#84BE84" rx="3" ry="3" style="stroke:#038048;stroke-width:1.0;"/><text fill="#000000" font-family="sans-serif" font-size="14" lengthAdjust="spacing" textLength="281" x="417.5" y="514.1035">setValue (value : ValueObject) : ValueObject</text></g><!--class BlindRollerValue--><g id="elem_BlindRollerValue"><rect codeLine="47" fill="#F1F1F1" height="116.4453" id="BlindRollerValue" rx="2.5" ry="2.5" style="stroke:#181818;stroke-width:0.5;" width="201" x="589.5" y="608"/><ellipse cx="633.75" cy="630.291" fill="#ADD1B2" rx="11" ry="11" style="stroke:#181818;stroke-width:1.0;"/><path d="M636.5156,626.166 Q636.6719,625.9473 636.8594,625.8379 Q637.0469,625.7285 637.2656,625.7285 Q637.6406,625.7285 637.875,625.9941 Q638.1094,626.2441 638.1094,626.8535 L638.1094,628.3066 Q638.1094,628.916 637.875,629.1816 Q637.6406,629.4473 637.2656,629.4473 Q636.9219,629.4473 636.7188,629.2441 Q636.5156,629.0566 636.4063,628.541 Q636.3594,628.1816 636.1719,627.9941 Q635.8438,627.6191 635.2344,627.4004 Q634.625,627.1816 634,627.1816 Q633.2344,627.1816 632.5938,627.5098 Q631.9688,627.8379 631.4688,628.5879 Q630.9844,629.3379 630.9844,630.3691 L630.9844,631.4629 Q630.9844,632.6973 631.875,633.5254 Q632.7656,634.3379 634.3594,634.3379 Q635.2969,634.3379 635.9531,634.0879 Q636.3438,633.9316 636.7656,633.4941 Q637.0313,633.2285 637.1719,633.1504 Q637.3281,633.0723 637.5313,633.0723 Q637.8594,633.0723 638.1094,633.3379 Q638.375,633.5879 638.375,633.9316 Q638.375,634.2754 638.0313,634.6816 Q637.5313,635.2598 636.7344,635.5879 Q635.6563,636.041 634.3594,636.041 Q632.8438,636.041 631.6406,635.416 Q630.6563,634.916 629.9688,633.8535 Q629.2813,632.7754 629.2813,631.4941 L629.2813,630.3379 Q629.2813,629.0098 629.8906,627.8691 Q630.5156,626.7129 631.6094,626.1035 Q632.7031,625.4785 633.9375,625.4785 Q634.6719,625.4785 635.3125,625.6504 Q635.9688,625.8066 636.5156,626.166 Z " fill="#000000"/><text fill="#000000" font-family="sans-serif" font-size="12" font-style="italic" lengthAdjust="spacing" textLength="82" x="665.25" y="625.9492">&#171;ValueObject&#187;</text><text fill="#000000" font-family="sans-serif" font-size="14" lengthAdjust="spacing" textLength="104" x="654.25" y="644.0684">BlindRollerValue</text><line style="stroke:#181818;stroke-width:0.5;" x1="590.5" x2="789.5" y1="652.582" y2="652.582"/><rect fill="none" height="6" style="stroke:#C82930;stroke-width:1.0;" width="6" x="597.5" y="664.3926"/><text fill="#000000" font-family="sans-serif" font-size="14" lengthAdjust="spacing" textLength="69" x="609.5" y="671.6895">_value : int</text><line style="stroke:#181818;stroke-width:0.5;" x1="590.5" x2="789.5" y1="679.2031" y2="679.2031"/><ellipse cx="600.5" cy="694.0137" fill="#84BE84" rx="3" ry="3" style="stroke:#038048;stroke-width:1.0;"/><text fill="#000000" font-family="sans-serif" font-size="14" lengthAdjust="spacing" textLength="175" x="609.5" y="698.3105">BlindRollerValue(value : int)</text><ellipse cx="600.5" cy="712.6348" fill="#84BE84" rx="3" ry="3" style="stroke:#038048;stroke-width:1.0;"/><text fill="#000000" font-family="sans-serif" font-size="14" lengthAdjust="spacing" textLength="108" x="609.5" y="716.9316">toString() : String</text></g><!--class ActuatorTypeID--><g id="elem_ActuatorTypeID"><rect codeLine="56" fill="#F1F1F1" height="116.4453" id="ActuatorTypeID" rx="2.5" ry="2.5" style="stroke:#181818;stroke-width:0.5;" width="186" x="809" y="608"/><ellipse cx="849.2" cy="630.291" fill="#ADD1B2" rx="11" ry="11" style="stroke:#181818;stroke-width:1.0;"/><path d="M851.9656,626.166 Q852.1219,625.9473 852.3094,625.8379 Q852.4969,625.7285 852.7156,625.7285 Q853.0906,625.7285 853.325,625.9941 Q853.5594,626.2441 853.5594,626.8535 L853.5594,628.3066 Q853.5594,628.916 853.325,629.1816 Q853.0906,629.4473 852.7156,629.4473 Q852.3719,629.4473 852.1688,629.2441 Q851.9656,629.0566 851.8563,628.541 Q851.8094,628.1816 851.6219,627.9941 Q851.2938,627.6191 850.6844,627.4004 Q850.075,627.1816 849.45,627.1816 Q848.6844,627.1816 848.0438,627.5098 Q847.4188,627.8379 846.9188,628.5879 Q846.4344,629.3379 846.4344,630.3691 L846.4344,631.4629 Q846.4344,632.6973 847.325,633.5254 Q848.2156,634.3379 849.8094,634.3379 Q850.7469,634.3379 851.4031,634.0879 Q851.7938,633.9316 852.2156,633.4941 Q852.4813,633.2285 852.6219,633.1504 Q852.7781,633.0723 852.9813,633.0723 Q853.3094,633.0723 853.5594,633.3379 Q853.825,633.5879 853.825,633.9316 Q853.825,634.2754 853.4813,634.6816 Q852.9813,635.2598 852.1844,635.5879 Q851.1063,636.041 849.8094,636.041 Q848.2938,636.041 847.0906,635.416 Q846.1063,634.916 845.4188,633.8535 Q844.7313,632.7754 844.7313,631.4941 L844.7313,630.3379 Q844.7313,629.0098 845.3406,627.8691 Q845.9656,626.7129 847.0594,626.1035 Q848.1531,625.4785 849.3875,625.4785 Q850.1219,625.4785 850.7625,625.6504 Q851.4188,625.8066 851.9656,626.166 Z " fill="#000000"/><text fill="#000000" font-family="sans-serif" font-size="12" font-style="italic" lengthAdjust="spacing" textLength="71" x="882.3" y="625.9492">&#171;DomainID&#187;</text><text fill="#000000" font-family="sans-serif" font-size="14" lengthAdjust="spacing" textLength="98" x="868.8" y="644.0684">ActuatorTypeID</text><line style="stroke:#181818;stroke-width:0.5;" x1="810" x2="994" y1="652.582" y2="652.582"/><rect fill="none" height="6" style="stroke:#C82930;stroke-width:1.0;" width="6" x="817" y="664.3926"/><text fill="#000000" font-family="sans-serif" font-size="14" lengthAdjust="spacing" textLength="64" x="829" y="671.6895">_id: String</text><line style="stroke:#181818;stroke-width:0.5;" x1="810" x2="994" y1="679.2031" y2="679.2031"/><ellipse cx="820" cy="694.0137" fill="#84BE84" rx="3" ry="3" style="stroke:#038048;stroke-width:1.0;"/><text fill="#000000" font-family="sans-serif" font-size="14" lengthAdjust="spacing" textLength="160" x="829" y="698.3105">ActuatorTypeID(String id)</text><ellipse cx="820" cy="712.6348" fill="#84BE84" rx="3" ry="3" style="stroke:#038048;stroke-width:1.0;"/><text fill="#000000" font-family="sans-serif" font-size="14" lengthAdjust="spacing" textLength="92" x="829" y="716.9316">getID() : String</text></g><!--class ModelPath--><g id="elem_ModelPath"><rect codeLine="63" fill="#F1F1F1" height="116.4453" id="ModelPath" rx="2.5" ry="2.5" style="stroke:#181818;stroke-width:0.5;" width="172" x="1013" y="608"/><ellipse cx="1061.25" cy="630.291" fill="#ADD1B2" rx="11" ry="11" style="stroke:#181818;stroke-width:1.0;"/><path d="M1064.0156,626.166 Q1064.1719,625.9473 1064.3594,625.8379 Q1064.5469,625.7285 1064.7656,625.7285 Q1065.1406,625.7285 1065.375,625.9941 Q1065.6094,626.2441 1065.6094,626.8535 L1065.6094,628.3066 Q1065.6094,628.916 1065.375,629.1816 Q1065.1406,629.4473 1064.7656,629.4473 Q1064.4219,629.4473 1064.2188,629.2441 Q1064.0156,629.0566 1063.9063,628.541 Q1063.8594,628.1816 1063.6719,627.9941 Q1063.3438,627.6191 1062.7344,627.4004 Q1062.125,627.1816 1061.5,627.1816 Q1060.7344,627.1816 1060.0938,627.5098 Q1059.4688,627.8379 1058.9688,628.5879 Q1058.4844,629.3379 1058.4844,630.3691 L1058.4844,631.4629 Q1058.4844,632.6973 1059.375,633.5254 Q1060.2656,634.3379 1061.8594,634.3379 Q1062.7969,634.3379 1063.4531,634.0879 Q1063.8438,633.9316 1064.2656,633.4941 Q1064.5313,633.2285 1064.6719,633.1504 Q1064.8281,633.0723 1065.0313,633.0723 Q1065.3594,633.0723 1065.6094,633.3379 Q1065.875,633.5879 1065.875,633.9316 Q1065.875,634.2754 1065.5313,634.6816 Q1065.0313,635.2598 1064.2344,635.5879 Q1063.1563,636.041 1061.8594,636.041 Q1060.3438,636.041 1059.1406,635.416 Q1058.1563,634.916 1057.4688,633.8535 Q1056.7813,632.7754 1056.7813,631.4941 L1056.7813,630.3379 Q1056.7813,629.0098 1057.3906,627.8691 Q1058.0156,626.7129 1059.1094,626.1035 Q1060.2031,625.4785 1061.4375,625.4785 Q1062.1719,625.4785 1062.8125,625.6504 Q1063.4688,625.8066 1064.0156,626.166 Z " fill="#000000"/><text fill="#000000" font-family="sans-serif" font-size="12" font-style="italic" lengthAdjust="spacing" textLength="71" x="1079.75" y="625.9492">&#171;DomainID&#187;</text><text fill="#000000" font-family="sans-serif" font-size="14" lengthAdjust="spacing" textLength="67" x="1081.75" y="644.0684">ModelPath</text><line style="stroke:#181818;stroke-width:0.5;" x1="1014" x2="1184" y1="652.582" y2="652.582"/><rect fill="none" height="6" style="stroke:#C82930;stroke-width:1.0;" width="6" x="1021" y="664.3926"/><text fill="#000000" font-family="sans-serif" font-size="14" lengthAdjust="spacing" textLength="81" x="1033" y="671.6895">_path: String</text><line style="stroke:#181818;stroke-width:0.5;" x1="1014" x2="1184" y1="679.2031" y2="679.2031"/><ellipse cx="1024" cy="694.0137" fill="#84BE84" rx="3" ry="3" style="stroke:#038048;stroke-width:1.0;"/><text fill="#000000" font-family="sans-serif" font-size="14" lengthAdjust="spacing" textLength="146" x="1033" y="698.3105">ModelPath(String path)</text><ellipse cx="1024" cy="712.6348" fill="#84BE84" rx="3" ry="3" style="stroke:#038048;stroke-width:1.0;"/><text fill="#000000" font-family="sans-serif" font-size="14" lengthAdjust="spacing" textLength="108" x="1033" y="716.9316">getPath() : String</text></g><!--class ActuatorName--><g id="elem_ActuatorName"><rect codeLine="69" fill="#F1F1F1" height="116.4453" id="ActuatorName" rx="2.5" ry="2.5" style="stroke:#181818;stroke-width:0.5;" width="201" x="370.5" y="608"/><ellipse cx="422.25" cy="630.291" fill="#ADD1B2" rx="11" ry="11" style="stroke:#181818;stroke-width:1.0;"/><path d="M425.0156,626.166 Q425.1719,625.9473 425.3594,625.8379 Q425.5469,625.7285 425.7656,625.7285 Q426.1406,625.7285 426.375,625.9941 Q426.6094,626.2441 426.6094,626.8535 L426.6094,628.3066 Q426.6094,628.916 426.375,629.1816 Q426.1406,629.4473 425.7656,629.4473 Q425.4219,629.4473 425.2188,629.2441 Q425.0156,629.0566 424.9063,628.541 Q424.8594,628.1816 424.6719,627.9941 Q424.3438,627.6191 423.7344,627.4004 Q423.125,627.1816 422.5,627.1816 Q421.7344,627.1816 421.0938,627.5098 Q420.4688,627.8379 419.9688,628.5879 Q419.4844,629.3379 419.4844,630.3691 L419.4844,631.4629 Q419.4844,632.6973 420.375,633.5254 Q421.2656,634.3379 422.8594,634.3379 Q423.7969,634.3379 424.4531,634.0879 Q424.8438,633.9316 425.2656,633.4941 Q425.5313,633.2285 425.6719,633.1504 Q425.8281,633.0723 426.0313,633.0723 Q426.3594,633.0723 426.6094,633.3379 Q426.875,633.5879 426.875,633.9316 Q426.875,634.2754 426.5313,634.6816 Q426.0313,635.2598 425.2344,635.5879 Q424.1563,636.041 422.8594,636.041 Q421.3438,636.041 420.1406,635.416 Q419.1563,634.916 418.4688,633.8535 Q417.7813,632.7754 417.7813,631.4941 L417.7813,630.3379 Q417.7813,629.0098 418.3906,627.8691 Q419.0156,626.7129 420.1094,626.1035 Q421.2031,625.4785 422.4375,625.4785 Q423.1719,625.4785 423.8125,625.6504 Q424.4688,625.8066 425.0156,626.166 Z " fill="#000000"/><text fill="#000000" font-family="sans-serif" font-size="12" font-style="italic" lengthAdjust="spacing" textLength="82" x="446.25" y="625.9492">&#171;ValueObject&#187;</text><text fill="#000000" font-family="sans-serif" font-size="14" lengthAdjust="spacing" textLength="89" x="442.75" y="644.0684">ActuatorName</text><line style="stroke:#181818;stroke-width:0.5;" x1="371.5" x2="570.5" y1="652.582" y2="652.582"/><rect fill="none" height="6" style="stroke:#C82930;stroke-width:1.0;" width="6" x="378.5" y="664.3926"/><text fill="#000000" font-family="sans-serif" font-size="14" lengthAdjust="spacing" textLength="88" x="390.5" y="671.6895">_name: String</text><line style="stroke:#181818;stroke-width:0.5;" x1="371.5" x2="570.5" y1="679.2031" y2="679.2031"/><ellipse cx="381.5" cy="694.0137" fill="#84BE84" rx="3" ry="3" style="stroke:#038048;stroke-width:1.0;"/><text fill="#000000" font-family="sans-serif" font-size="14" lengthAdjust="spacing" textLength="175" x="390.5" y="698.3105">ActuatorName(String name)</text><ellipse cx="381.5" cy="712.6348" fill="#84BE84" rx="3" ry="3" style="stroke:#038048;stroke-width:1.0;"/><text fill="#000000" font-family="sans-serif" font-size="14" lengthAdjust="spacing" textLength="115" x="390.5" y="716.9316">getName() : String</text></g><!--class ActuatorID--><g id="elem_ActuatorID"><rect codeLine="76" fill="#F1F1F1" height="116.4453" id="ActuatorID" rx="2.5" ry="2.5" style="stroke:#181818;stroke-width:0.5;" width="154" x="1203" y="608"/><ellipse cx="1242.75" cy="630.291" fill="#ADD1B2" rx="11" ry="11" style="stroke:#181818;stroke-width:1.0;"/><path d="M1245.5156,626.166 Q1245.6719,625.9473 1245.8594,625.8379 Q1246.0469,625.7285 1246.2656,625.7285 Q1246.6406,625.7285 1246.875,625.9941 Q1247.1094,626.2441 1247.1094,626.8535 L1247.1094,628.3066 Q1247.1094,628.916 1246.875,629.1816 Q1246.6406,629.4473 1246.2656,629.4473 Q1245.9219,629.4473 1245.7188,629.2441 Q1245.5156,629.0566 1245.4063,628.541 Q1245.3594,628.1816 1245.1719,627.9941 Q1244.8438,627.6191 1244.2344,627.4004 Q1243.625,627.1816 1243,627.1816 Q1242.2344,627.1816 1241.5938,627.5098 Q1240.9688,627.8379 1240.4688,628.5879 Q1239.9844,629.3379 1239.9844,630.3691 L1239.9844,631.4629 Q1239.9844,632.6973 1240.875,633.5254 Q1241.7656,634.3379 1243.3594,634.3379 Q1244.2969,634.3379 1244.9531,634.0879 Q1245.3438,633.9316 1245.7656,633.4941 Q1246.0313,633.2285 1246.1719,633.1504 Q1246.3281,633.0723 1246.5313,633.0723 Q1246.8594,633.0723 1247.1094,633.3379 Q1247.375,633.5879 1247.375,633.9316 Q1247.375,634.2754 1247.0313,634.6816 Q1246.5313,635.2598 1245.7344,635.5879 Q1244.6563,636.041 1243.3594,636.041 Q1241.8438,636.041 1240.6406,635.416 Q1239.6563,634.916 1238.9688,633.8535 Q1238.2813,632.7754 1238.2813,631.4941 L1238.2813,630.3379 Q1238.2813,629.0098 1238.8906,627.8691 Q1239.5156,626.7129 1240.6094,626.1035 Q1241.7031,625.4785 1242.9375,625.4785 Q1243.6719,625.4785 1244.3125,625.6504 Q1244.9688,625.8066 1245.5156,626.166 Z " fill="#000000"/><text fill="#000000" font-family="sans-serif" font-size="12" font-style="italic" lengthAdjust="spacing" textLength="71" x="1260.25" y="625.9492">&#171;DomainID&#187;</text><text fill="#000000" font-family="sans-serif" font-size="14" lengthAdjust="spacing" textLength="66" x="1262.75" y="644.0684">ActuatorID</text><line style="stroke:#181818;stroke-width:0.5;" x1="1204" x2="1356" y1="652.582" y2="652.582"/><rect fill="none" height="6" style="stroke:#C82930;stroke-width:1.0;" width="6" x="1211" y="664.3926"/><text fill="#000000" font-family="sans-serif" font-size="14" lengthAdjust="spacing" textLength="64" x="1223" y="671.6895">_id: String</text><line style="stroke:#181818;stroke-width:0.5;" x1="1204" x2="1356" y1="679.2031" y2="679.2031"/><ellipse cx="1214" cy="694.0137" fill="#84BE84" rx="3" ry="3" style="stroke:#038048;stroke-width:1.0;"/><text fill="#000000" font-family="sans-serif" font-size="14" lengthAdjust="spacing" textLength="128" x="1223" y="698.3105">ActuatorID(String id)</text><ellipse cx="1214" cy="712.6348" fill="#84BE84" rx="3" ry="3" style="stroke:#038048;stroke-width:1.0;"/><text fill="#000000" font-family="sans-serif" font-size="14" lengthAdjust="spacing" textLength="92" x="1223" y="716.9316">getID() : String</text></g><!--class DeviceID--><g id="elem_DeviceID"><rect codeLine="82" fill="#F1F1F1" height="116.4453" id="DeviceID" rx="2.5" ry="2.5" style="stroke:#181818;stroke-width:0.5;" width="144" x="1375" y="608"/><ellipse cx="1410.25" cy="630.291" fill="#ADD1B2" rx="11" ry="11" style="stroke:#181818;stroke-width:1.0;"/><path d="M1413.0156,626.166 Q1413.1719,625.9473 1413.3594,625.8379 Q1413.5469,625.7285 1413.7656,625.7285 Q1414.1406,625.7285 1414.375,625.9941 Q1414.6094,626.2441 1414.6094,626.8535 L1414.6094,628.3066 Q1414.6094,628.916 1414.375,629.1816 Q1414.1406,629.4473 1413.7656,629.4473 Q1413.4219,629.4473 1413.2188,629.2441 Q1413.0156,629.0566 1412.9063,628.541 Q1412.8594,628.1816 1412.6719,627.9941 Q1412.3438,627.6191 1411.7344,627.4004 Q1411.125,627.1816 1410.5,627.1816 Q1409.7344,627.1816 1409.0938,627.5098 Q1408.4688,627.8379 1407.9688,628.5879 Q1407.4844,629.3379 1407.4844,630.3691 L1407.4844,631.4629 Q1407.4844,632.6973 1408.375,633.5254 Q1409.2656,634.3379 1410.8594,634.3379 Q1411.7969,634.3379 1412.4531,634.0879 Q1412.8438,633.9316 1413.2656,633.4941 Q1413.5313,633.2285 1413.6719,633.1504 Q1413.8281,633.0723 1414.0313,633.0723 Q1414.3594,633.0723 1414.6094,633.3379 Q1414.875,633.5879 1414.875,633.9316 Q1414.875,634.2754 1414.5313,634.6816 Q1414.0313,635.2598 1413.2344,635.5879 Q1412.1563,636.041 1410.8594,636.041 Q1409.3438,636.041 1408.1406,635.416 Q1407.1563,634.916 1406.4688,633.8535 Q1405.7813,632.7754 1405.7813,631.4941 L1405.7813,630.3379 Q1405.7813,629.0098 1406.3906,627.8691 Q1407.0156,626.7129 1408.1094,626.1035 Q1409.2031,625.4785 1410.4375,625.4785 Q1411.1719,625.4785 1411.8125,625.6504 Q1412.4688,625.8066 1413.0156,626.166 Z " fill="#000000"/><text fill="#000000" font-family="sans-serif" font-size="12" font-style="italic" lengthAdjust="spacing" textLength="71" x="1426.75" y="625.9492">&#171;DomainID&#187;</text><text fill="#000000" font-family="sans-serif" font-size="14" lengthAdjust="spacing" textLength="56" x="1434.25" y="644.0684">DeviceID</text><line style="stroke:#181818;stroke-width:0.5;" x1="1376" x2="1518" y1="652.582" y2="652.582"/><rect fill="none" height="6" style="stroke:#C82930;stroke-width:1.0;" width="6" x="1383" y="664.3926"/><text fill="#000000" font-family="sans-serif" font-size="14" lengthAdjust="spacing" textLength="64" x="1395" y="671.6895">_id: String</text><line style="stroke:#181818;stroke-width:0.5;" x1="1376" x2="1518" y1="679.2031" y2="679.2031"/><ellipse cx="1386" cy="694.0137" fill="#84BE84" rx="3" ry="3" style="stroke:#038048;stroke-width:1.0;"/><text fill="#000000" font-family="sans-serif" font-size="14" lengthAdjust="spacing" textLength="118" x="1395" y="698.3105">DeviceID(String id)</text><ellipse cx="1386" cy="712.6348" fill="#84BE84" rx="3" ry="3" style="stroke:#038048;stroke-width:1.0;"/><text fill="#000000" font-family="sans-serif" font-size="14" lengthAdjust="spacing" textLength="92" x="1395" y="716.9316">getID() : String</text></g><!--class DomainEntity--><g id="elem_DomainEntity"><rect codeLine="91" fill="#F1F1F1" height="48" id="DomainEntity" rx="2.5" ry="2.5" style="stroke:#181818;stroke-width:0.5;" width="115" x="640.5" y="896"/><ellipse cx="655.5" cy="912" fill="#B4A7E5" rx="11" ry="11" style="stroke:#181818;stroke-width:1.0;"/><path d="M656.4531,908.6406 L656.4531,915.2969 L658.1719,915.2969 Q658.7813,915.2969 659.0469,915.5313 Q659.3125,915.7656 659.3125,916.1563 Q659.3125,916.5313 659.0469,916.7656 Q658.7813,917 658.1719,917 L653.0313,917 Q652.4219,917 652.1563,916.7656 Q651.8906,916.5313 651.8906,916.1406 Q651.8906,915.7656 652.1563,915.5313 Q652.4219,915.2969 653.0313,915.2969 L654.75,915.2969 L654.75,908.6406 L653.0313,908.6406 Q652.4219,908.6406 652.1563,908.4063 Q651.8906,908.1719 651.8906,907.7813 Q651.8906,907.4063 652.1563,907.1719 Q652.4219,906.9375 653.0313,906.9375 L658.1719,906.9375 Q658.7813,906.9375 659.0469,907.1719 Q659.3125,907.4063 659.3125,907.7813 Q659.3125,908.1719 659.0469,908.4063 Q658.7813,908.6406 658.1719,908.6406 L656.4531,908.6406 Z " fill="#000000"/><text fill="#000000" font-family="sans-serif" font-size="14" font-style="italic" lengthAdjust="spacing" textLength="83" x="669.5" y="917.7969">DomainEntity</text><line style="stroke:#181818;stroke-width:0.5;" x1="641.5" x2="754.5" y1="928" y2="928"/><line style="stroke:#181818;stroke-width:0.5;" x1="641.5" x2="754.5" y1="936" y2="936"/></g><!--class DomainID--><g id="elem_DomainID"><rect codeLine="94" fill="#F1F1F1" height="48" id="DomainID" rx="2.5" ry="2.5" style="stroke:#181818;stroke-width:0.5;" width="94" x="789" y="981"/><ellipse cx="804" cy="997" fill="#B4A7E5" rx="11" ry="11" style="stroke:#181818;stroke-width:1.0;"/><path d="M804.9531,993.6406 L804.9531,1000.2969 L806.6719,1000.2969 Q807.2813,1000.2969 807.5469,1000.5313 Q807.8125,1000.7656 807.8125,1001.1563 Q807.8125,1001.5313 807.5469,1001.7656 Q807.2813,1002 806.6719,1002 L801.5313,1002 Q800.9219,1002 800.6563,1001.7656 Q800.3906,1001.5313 800.3906,1001.1406 Q800.3906,1000.7656 800.6563,1000.5313 Q800.9219,1000.2969 801.5313,1000.2969 L803.25,1000.2969 L803.25,993.6406 L801.5313,993.6406 Q800.9219,993.6406 800.6563,993.4063 Q800.3906,993.1719 800.3906,992.7813 Q800.3906,992.4063 800.6563,992.1719 Q800.9219,991.9375 801.5313,991.9375 L806.6719,991.9375 Q807.2813,991.9375 807.5469,992.1719 Q807.8125,992.4063 807.8125,992.7813 Q807.8125,993.1719 807.5469,993.4063 Q807.2813,993.6406 806.6719,993.6406 L804.9531,993.6406 Z " fill="#000000"/><text fill="#000000" font-family="sans-serif" font-size="14" font-style="italic" lengthAdjust="spacing" textLength="62" x="818" y="1002.7969">DomainID</text><line style="stroke:#181818;stroke-width:0.5;" x1="790" x2="882" y1="1013" y2="1013"/><line style="stroke:#181818;stroke-width:0.5;" x1="790" x2="882" y1="1021" y2="1021"/></g><!--class ValueObject--><g id="elem_ValueObject"><rect codeLine="100" fill="#F1F1F1" height="48" id="ValueObject" rx="2.5" ry="2.5" style="stroke:#181818;stroke-width:0.5;" width="109" x="773.5" y="896"/><ellipse cx="788.5" cy="912" fill="#B4A7E5" rx="11" ry="11" style="stroke:#181818;stroke-width:1.0;"/><path d="M789.4531,908.6406 L789.4531,915.2969 L791.1719,915.2969 Q791.7813,915.2969 792.0469,915.5313 Q792.3125,915.7656 792.3125,916.1563 Q792.3125,916.5313 792.0469,916.7656 Q791.7813,917 791.1719,917 L786.0313,917 Q785.4219,917 785.1563,916.7656 Q784.8906,916.5313 784.8906,916.1406 Q784.8906,915.7656 785.1563,915.5313 Q785.4219,915.2969 786.0313,915.2969 L787.75,915.2969 L787.75,908.6406 L786.0313,908.6406 Q785.4219,908.6406 785.1563,908.4063 Q784.8906,908.1719 784.8906,907.7813 Q784.8906,907.4063 785.1563,907.1719 Q785.4219,906.9375 786.0313,906.9375 L791.1719,906.9375 Q791.7813,906.9375 792.0469,907.1719 Q792.3125,907.4063 792.3125,907.7813 Q792.3125,908.1719 792.0469,908.4063 Q791.7813,908.6406 791.1719,908.6406 L789.4531,908.6406 Z " fill="#000000"/><text fill="#000000" font-family="sans-serif" font-size="14" font-style="italic" lengthAdjust="spacing" textLength="77" x="802.5" y="917.7969">ValueObject</text><line style="stroke:#181818;stroke-width:0.5;" x1="774.5" x2="881.5" y1="928" y2="928"/><line style="stroke:#181818;stroke-width:0.5;" x1="774.5" x2="881.5" y1="936" y2="936"/></g><!--class AggregateRoot--><g id="elem_AggregateRoot"><rect codeLine="97" fill="#F1F1F1" height="48" id="AggregateRoot" rx="2.5" ry="2.5" style="stroke:#181818;stroke-width:0.5;" width="128" x="640" y="811"/><ellipse cx="655" cy="827" fill="#B4A7E5" rx="11" ry="11" style="stroke:#181818;stroke-width:1.0;"/><path d="M655.9531,823.6406 L655.9531,830.2969 L657.6719,830.2969 Q658.2813,830.2969 658.5469,830.5313 Q658.8125,830.7656 658.8125,831.1563 Q658.8125,831.5313 658.5469,831.7656 Q658.2813,832 657.6719,832 L652.5313,832 Q651.9219,832 651.6563,831.7656 Q651.3906,831.5313 651.3906,831.1406 Q651.3906,830.7656 651.6563,830.5313 Q651.9219,830.2969 652.5313,830.2969 L654.25,830.2969 L654.25,823.6406 L652.5313,823.6406 Q651.9219,823.6406 651.6563,823.4063 Q651.3906,823.1719 651.3906,822.7813 Q651.3906,822.4063 651.6563,822.1719 Q651.9219,821.9375 652.5313,821.9375 L657.6719,821.9375 Q658.2813,821.9375 658.5469,822.1719 Q658.8125,822.4063 658.8125,822.7813 Q658.8125,823.1719 658.5469,823.4063 Q658.2813,823.6406 657.6719,823.6406 L655.9531,823.6406 Z " fill="#000000"/><text fill="#000000" font-family="sans-serif" font-size="14" font-style="italic" lengthAdjust="spacing" textLength="96" x="669" y="832.7969">AggregateRoot</text><line style="stroke:#181818;stroke-width:0.5;" x1="641" x2="767" y1="843" y2="843"/><line style="stroke:#181818;stroke-width:0.5;" x1="641" x2="767" y1="851" y2="851"/></g><polygon fill="none" points="830.2284,944.1201,825.9831,962.6127,837.9277,961.4614,830.2284,944.1201" style="stroke:#181818;stroke-width:1.0;"/><path d="M831.9554,962.0371 C833.0557,973.4532 832.6533,969.2778 833.7558,980.716 " fill="none" style="stroke:#181818;stroke-width:1.0;"/><polygon fill="none" points="215.1086,328.6984,230.6041,317.7489,220.9353,310.6416,215.1086,328.6984" style="stroke:#181818;stroke-width:1.0;"/><path d="M431.3825,129.1003 C406.8085,141.4109 380.1785,156.6844 358,174 C299.2287,219.885 255.3628,273.9372 225.7697,314.1952 " fill="none" style="stroke:#181818;stroke-width:1.0;stroke-dasharray:7.0,7.0;"/><polygon fill="#181818" points="633.424,202.8567,629.112,194.0019,629.5978,199.6379,623.9619,200.1237,633.424,202.8567" style="stroke:#181818;stroke-width:1.0;"/><path d="M545.9411,129.26 C569.0683,148.7162 595.6994,171.1201 628.8326,198.9941 " fill="none" style="stroke:#181818;stroke-width:1.0;stroke-dasharray:7.0,7.0;"/><text fill="#000000" font-family="sans-serif" font-size="13" lengthAdjust="spacing" textLength="43" x="585" y="162.0283">creates</text><text fill="#000000" font-family="sans-serif" font-size="13" lengthAdjust="spacing" textLength="7" x="625.424" y="198.885">1</text><text fill="#000000" font-family="sans-serif" font-size="13" lengthAdjust="spacing" textLength="7" x="537.9411" y="144.2883">1</text><polygon fill="none" points="352.5442,579.7939,371.2942,576.8893,365.8015,566.2202,352.5442,579.7939" style="stroke:#181818;stroke-width:1.0;"/><path d="M469.6868,522.0238 C431.7824,540.1433 393.9524,558.6894 358,577 C356.1902,577.9217 370.3747,570.6142 368.5479,571.5547 " fill="none" style="stroke:#181818;stroke-width:1.0;stroke-dasharray:7.0,7.0;"/><polygon fill="#181818" points="715.0757,607.7249,722.3494,601.0846,717.081,603.1446,715.021,597.8762,715.0757,607.7249" style="stroke:#181818;stroke-width:1.0;"/><path d="M752.521,522.1964 C739.1051,552.8394 728.2879,577.547 717.482,602.2286 " fill="none" style="stroke:#181818;stroke-width:1.0;"/><text fill="#000000" font-family="sans-serif" font-size="13" lengthAdjust="spacing" textLength="21" x="745" y="555.0283">has</text><text fill="#000000" font-family="sans-serif" font-size="13" lengthAdjust="spacing" textLength="7" x="707.0757" y="603.7532">1</text><text fill="#000000" font-family="sans-serif" font-size="13" lengthAdjust="spacing" textLength="7" x="744.521" y="537.2248">1</text><polygon fill="#181818" points="886.8026,607.7249,888.3606,598,885.5203,602.8921,880.6282,600.0518,886.8026,607.7249" style="stroke:#181818;stroke-width:1.0;"/><path d="M864.1085,522.1964 C872.2393,552.8394 878.7148,577.244 885.2638,601.9256 " fill="none" style="stroke:#181818;stroke-width:1.0;"/><text fill="#000000" font-family="sans-serif" font-size="13" lengthAdjust="spacing" textLength="21" x="874" y="555.0283">has</text><text fill="#000000" font-family="sans-serif" font-size="13" lengthAdjust="spacing" textLength="7" x="878.8026" y="603.7532">1</text><text fill="#000000" font-family="sans-serif" font-size="13" lengthAdjust="spacing" textLength="7" x="856.1085" y="537.2248">1</text><polygon fill="#181818" points="1046.3791,607.7249,1043.2357,598.3911,1042.9963,604.0429,1037.3445,603.8036,1046.3791,607.7249" style="stroke:#181818;stroke-width:1.0;"/><path d="M967.8007,522.1964 C995.9536,552.8394 1019.6439,578.625 1042.3198,603.3065 " fill="none" style="stroke:#181818;stroke-width:1.0;"/><text fill="#000000" font-family="sans-serif" font-size="13" lengthAdjust="spacing" textLength="21" x="1002" y="555.0283">has</text><text fill="#000000" font-family="sans-serif" font-size="13" lengthAdjust="spacing" textLength="7" x="1038.3791" y="603.7532">1</text><text fill="#000000" font-family="sans-serif" font-size="13" lengthAdjust="spacing" textLength="7" x="959.8007" y="537.2248">1</text><polygon fill="#181818" points="537.6785,607.7249,547.112,604.8948,541.4713,604.4669,541.8993,598.8263,537.6785,607.7249" style="stroke:#181818;stroke-width:1.0;"/><path d="M637.2489,522.1964 C601.575,552.8394 570.9636,579.1338 542.2299,603.8153 " fill="none" style="stroke:#181818;stroke-width:1.0;"/><text fill="#000000" font-family="sans-serif" font-size="13" lengthAdjust="spacing" textLength="21" x="617" y="555.0283">has</text><text fill="#000000" font-family="sans-serif" font-size="13" lengthAdjust="spacing" textLength="7" x="529.6785" y="603.7532">1</text><text fill="#000000" font-family="sans-serif" font-size="13" lengthAdjust="spacing" textLength="7" x="638.2489" y="537.2248">1</text><polygon fill="#181818" points="1228.4969,607.6405,1224.9058,598.4696,1224.94,604.1264,1219.2833,604.1606,1228.4969,607.6405" style="stroke:#181818;stroke-width:1.0;"/><path d="M1116.3824,522.135 C1143.2805,539.6811 1169.5675,558.0785 1194,577 C1205.8226,586.1558 1213.3415,592.6673 1224.2287,603.4236 " fill="none" style="stroke:#181818;stroke-width:1.0;"/><text fill="#000000" font-family="sans-serif" font-size="13" lengthAdjust="spacing" textLength="21" x="1167" y="555.0283">has</text><text fill="#000000" font-family="sans-serif" font-size="13" lengthAdjust="spacing" textLength="7" x="1220.4969" y="603.6688">1</text><text fill="#000000" font-family="sans-serif" font-size="13" lengthAdjust="spacing" textLength="7" x="1108.3824" y="537.1634">1</text><polygon fill="#181818" points="1401.6159,607.9713,1398.27,598.7082,1398.1538,604.3638,1392.4981,604.2476,1401.6159,607.9713" style="stroke:#181818;stroke-width:1.0;"/><path d="M1246.826,508.008 C1288.4657,528.6612 1328.9566,551.6358 1366,577 C1378.6785,585.6811 1386.6408,592.3676 1397.4613,603.6423 " fill="none" style="stroke:#181818;stroke-width:1.0;"/><text fill="#000000" font-family="sans-serif" font-size="13" lengthAdjust="spacing" textLength="21" x="1327" y="555.0283">has</text><text fill="#000000" font-family="sans-serif" font-size="13" lengthAdjust="spacing" textLength="7" x="1393.6159" y="603.9996">1</text><text fill="#000000" font-family="sans-serif" font-size="13" lengthAdjust="spacing" textLength="7" x="1247.826" y="504.0363">1</text><polygon fill="none" points="821.6292,895.8097,822.3315,876.8491,810.8147,880.2199,821.6292,895.8097" style="stroke:#181818;stroke-width:1.0;"/><path d="M738.3998,724.1432 C752.0311,741.9483 766.0978,762.1389 777,782 C797.761,819.8214 808.3826,850.5501 816.5731,878.5345 " fill="none" style="stroke:#181818;stroke-width:1.0;stroke-dasharray:7.0,7.0;"/><polygon fill="none" points="773.4571,898.7824,758.3173,887.3462,754.4836,898.7174,773.4571,898.7824" style="stroke:#181818;stroke-width:1.0;"/><path d="M505.0395,724.3118 C533.5106,767.4418 577.9417,824.7864 631,859 C682.9249,892.4827 706.1557,877.1683 765,896 C767.7724,896.8872 753.5474,892.0699 756.4005,893.0318 " fill="none" style="stroke:#181818;stroke-width:1.0;stroke-dasharray:7.0,7.0;"/><polygon fill="none" points="797.2868,980.716,784.9543,966.297,778.7694,976.5803,797.2868,980.716" style="stroke:#181818;stroke-width:1.0;"/><path d="M736.4407,944.1201 C755.4217,955.5362 762.844,960.0004 781.8618,971.4386 " fill="none" style="stroke:#181818;stroke-width:1.0;"/><polygon fill="none" points="699.6832,895.716,706.9654,878.1954,694.9966,877.3302,699.6832,895.716" style="stroke:#181818;stroke-width:1.0;"/><path d="M702.3287,859.1201 C701.5034,870.5362 701.8079,866.3246 700.981,877.7628 " fill="none" style="stroke:#181818;stroke-width:1.0;"/><polygon fill="#181818" points="639.9255,827.5728,631.4749,822.5144,634.9622,826.9685,630.5081,830.4558,639.9255,827.5728" style="stroke:#181818;stroke-width:1.0;"/><path d="M339.6725,755.1523 C345.7832,757.9641 351.9071,760.5974 358,763 C452.269,800.1721 563.0506,818.2136 633.9695,826.8477 " fill="none" style="stroke:#181818;stroke-width:1.0;"/><polygon fill="none" points="864.8878,980.9936,882.0209,972.8416,873.7031,964.1922,864.8878,980.9936" style="stroke:#181818;stroke-width:1.0;"/><path d="M911.2271,724.104 C918.0257,781.8991 921.6143,872.6679 892,944 C886.1541,958.081 888.3862,958.3962 877.862,968.5169 " fill="none" style="stroke:#181818;stroke-width:1.0;stroke-dasharray:7.0,7.0;"/><polygon fill="none" points="877.2842,980.8433,895.8792,977.0712,889.8969,966.6686,877.2842,980.8433" style="stroke:#181818;stroke-width:1.0;"/><path d="M1233.0627,724.0351 C1220.9355,737.4317 1207.4815,751.2231 1194,763 C1088.6242,855.0522 962.081,932.0786 892.888,971.8699 " fill="none" style="stroke:#181818;stroke-width:1.0;stroke-dasharray:7.0,7.0;"/><polygon fill="none" points="866.4216,980.791,884.0908,973.8775,876.4089,964.6586,866.4216,980.791" style="stroke:#181818;stroke-width:1.0;"/><path d="M1062.2672,724.1927 C1024.6786,781.4639 963.5045,871.2949 904,944 C893.0312,957.4022 892.7621,958.8417 880.2499,969.268 " fill="none" style="stroke:#181818;stroke-width:1.0;stroke-dasharray:7.0,7.0;"/><polygon fill="none" points="883.0598,990.6086,902.0254,991.162,898.5644,979.672,883.0598,990.6086" style="stroke:#181818;stroke-width:1.0;"/><path d="M1405.6847,724.1602 C1393.9116,738.003 1380.3515,751.9715 1366,763 C1208.508,884.0249 997.7625,956.0576 900.2949,985.417 " fill="none" style="stroke:#181818;stroke-width:1.0;stroke-dasharray:7.0,7.0;"/><!--SRC=[hLPDZzem4BtdLqpt0giiaNf528bLMea3RRMjzbfvOpUapPSIiofg-Uzrd0-F7Pk550xWnCypuvatytXNLYJE2AJaM1mur1dZ92UULvBe5uaPq28ZIHwGY1y8BohuutaWFadEMVM3H0msQWVGPxPZV5_GUgQzzI5cV1lExs4v7Do6OyWdaZ4DrBmOmtO5PUaNmlSIEpoDWRsPRyUI6UxRL-CZ8NjDeXxSFnWmNdpbLPB74jCk3KJD-3D93sp-sdmBb7pw_FAJHVnUVvGdJwxqVXGLAAeZoh8FKSK8PprYtfe9WW1AKeby2HCrlYbs4AMahc6RbQdXu5hx8_Cd9tU2npJ9wLEHfgpQ67nICLrmo6fejM8vJ_XnlHRBfwBWOg4kCzjmKPwN0sU8aGluJhl2sceijWcY7oojP1Ieh2UUbOJ8JCirD_aGL8Ffa9vAA0kIHYgJu-RpRIcRMsx_0DRRFC0RTr20DbTQvzwhE6J_Wsi0-BYfmT7LVZSWm3qX_57Fmxcczr6_WxtX_RwJuOfMHgrc5akG51suWAj3sSLikBJI-kWH1r4XNBDB6n163bUhK7RdDjG25fnCw6W0-iRfURiF2KLH83tGOq11A4Au_PTYsnA14eZEUOCpt0_wyLOI9EVSPHDHv09n9WzIrRf0ShqjDD5pPa9rpDHIN5i6vNleZoiz3pfwZT-nY51AMwrGqjY6yK5EVHd8oROl8cQ_ESjfZJlK0j_4SSLY8NYDUDZieUFTjW1O91I2uE_Q56uhyExzdG2lvUzKtLjsCbrxtbGJCbxpy23hKwqsbrei9btkkPjOUrB_jtkvs9ZYTJFBEwIMDm-tazARsxrj2aBrBwAnwKqgDkQWwFK0g-ab1hMKdJFcQMDZiH38Vb1u-WX0UorwVBKX8Kqoa4FDaESPz3F3K_vLVPmOHJWdP2Y84_4F]--></g></svg>