<?xml version="1.0" encoding="us-ascii" standalone="no"?><svg xmlns="http://www.w3.org/2000/svg" xmlns:xlink="http://www.w3.org/1999/xlink" contentStyleType="text/css" height="538px" preserveAspectRatio="none" style="width:1467px;height:538px;background:#FFFFFF;" version="1.1" viewBox="0 0 1467 538" width="1467px" zoomAndPan="magnify"><defs/><g><!--class LogController--><g id="elem_LogController"><rect codeLine="1" fill="#F1F1F1" height="141.1055" id="LogController" rx="2.5" ry="2.5" style="stroke:#181818;stroke-width:0.5;" width="1283" x="177.5" y="7"/><ellipse cx="771.75" cy="23" fill="#ADD1B2" rx="11" ry="11" style="stroke:#181818;stroke-width:1.0;"/><path d="M774.5156,18.875 Q774.6719,18.6563 774.8594,18.5469 Q775.0469,18.4375 775.2656,18.4375 Q775.6406,18.4375 775.875,18.7031 Q776.1094,18.9531 776.1094,19.5625 L776.1094,21.0156 Q776.1094,21.625 775.875,21.8906 Q775.6406,22.1563 775.2656,22.1563 Q774.9219,22.1563 774.7188,21.9531 Q774.5156,21.7656 774.4063,21.25 Q774.3594,20.8906 774.1719,20.7031 Q773.8438,20.3281 773.2344,20.1094 Q772.625,19.8906 772,19.8906 Q771.2344,19.8906 770.5938,20.2188 Q769.9688,20.5469 769.4688,21.2969 Q768.9844,22.0469 768.9844,23.0781 L768.9844,24.1719 Q768.9844,25.4063 769.875,26.2344 Q770.7656,27.0469 772.3594,27.0469 Q773.2969,27.0469 773.9531,26.7969 Q774.3438,26.6406 774.7656,26.2031 Q775.0313,25.9375 775.1719,25.8594 Q775.3281,25.7813 775.5313,25.7813 Q775.8594,25.7813 776.1094,26.0469 Q776.375,26.2969 776.375,26.6406 Q776.375,26.9844 776.0313,27.3906 Q775.5313,27.9688 774.7344,28.2969 Q773.6563,28.75 772.3594,28.75 Q770.8438,28.75 769.6406,28.125 Q768.6563,27.625 767.9688,26.5625 Q767.2813,25.4844 767.2813,24.2031 L767.2813,23.0469 Q767.2813,21.7188 767.8906,20.5781 Q768.5156,19.4219 769.6094,18.8125 Q770.7031,18.1875 771.9375,18.1875 Q772.6719,18.1875 773.3125,18.3594 Q773.9688,18.5156 774.5156,18.875 Z " fill="#000000"/><text fill="#000000" font-family="sans-serif" font-size="14" lengthAdjust="spacing" textLength="86" x="792.25" y="28.7969">LogController</text><line style="stroke:#181818;stroke-width:0.5;" x1="178.5" x2="1459.5" y1="39" y2="39"/><rect fill="none" height="6" style="stroke:#C82930;stroke-width:1.0;" width="6" x="185.5" y="50.8105"/><text fill="#000000" font-family="sans-serif" font-size="14" lengthAdjust="spacing" textLength="152" x="197.5" y="58.1074">logService : ILogService</text><rect fill="none" height="6" style="stroke:#C82930;stroke-width:1.0;" width="6" x="185.5" y="69.4316"/><text fill="#000000" font-family="sans-serif" font-size="14" lengthAdjust="spacing" textLength="193" x="197.5" y="76.7285">deviceService : IDeviceService</text><line style="stroke:#181818;stroke-width:0.5;" x1="178.5" x2="1459.5" y1="84.2422" y2="84.2422"/><ellipse cx="188.5" cy="99.0527" fill="#84BE84" rx="3" ry="3" style="stroke:#038048;stroke-width:1.0;"/><text fill="#000000" font-family="sans-serif" font-size="14" lengthAdjust="spacing" textLength="764" x="197.5" y="103.3496">getDeviceReadingsByTimePeriod(deviceID : String, timeStart : String, timeEnd : String) : ResponseEntity&lt;List&lt;LogDTO&gt;&gt;</text><ellipse cx="188.5" cy="117.6738" fill="#84BE84" rx="3" ry="3" style="stroke:#038048;stroke-width:1.0;"/><text fill="#000000" font-family="sans-serif" font-size="14" lengthAdjust="spacing" textLength="1257" x="197.5" y="121.9707">getMaxInstTempDiffBetweenDeviceAndOutside(outsideDeviceIDStr : String, insideDeviceIDStr : String, initialTime : LocalDateTime, finalTime : LocalDateTime, timeDelta : int) : ResponseEntity&lt;Integer&gt;</text><ellipse cx="188.5" cy="136.2949" fill="#84BE84" rx="3" ry="3" style="stroke:#038048;stroke-width:1.0;"/><text fill="#000000" font-family="sans-serif" font-size="14" lengthAdjust="spacing" textLength="690" x="197.5" y="140.5918">getMaxPowerConsumption(initialTime : LocalDateTime, finalTime : LocalDateTime) : ResponseEntity&lt;Integer&gt;</text></g><!--class LogServiceImpl--><g id="elem_LogServiceImpl"><rect codeLine="10" fill="#F1F1F1" height="103.8633" id="LogServiceImpl" rx="2.5" ry="2.5" style="stroke:#181818;stroke-width:0.5;" width="874" x="24" y="236"/><ellipse cx="408.75" cy="252" fill="#ADD1B2" rx="11" ry="11" style="stroke:#181818;stroke-width:1.0;"/><path d="M411.5156,247.875 Q411.6719,247.6563 411.8594,247.5469 Q412.0469,247.4375 412.2656,247.4375 Q412.6406,247.4375 412.875,247.7031 Q413.1094,247.9531 413.1094,248.5625 L413.1094,250.0156 Q413.1094,250.625 412.875,250.8906 Q412.6406,251.1563 412.2656,251.1563 Q411.9219,251.1563 411.7188,250.9531 Q411.5156,250.7656 411.4063,250.25 Q411.3594,249.8906 411.1719,249.7031 Q410.8438,249.3281 410.2344,249.1094 Q409.625,248.8906 409,248.8906 Q408.2344,248.8906 407.5938,249.2188 Q406.9688,249.5469 406.4688,250.2969 Q405.9844,251.0469 405.9844,252.0781 L405.9844,253.1719 Q405.9844,254.4063 406.875,255.2344 Q407.7656,256.0469 409.3594,256.0469 Q410.2969,256.0469 410.9531,255.7969 Q411.3438,255.6406 411.7656,255.2031 Q412.0313,254.9375 412.1719,254.8594 Q412.3281,254.7813 412.5313,254.7813 Q412.8594,254.7813 413.1094,255.0469 Q413.375,255.2969 413.375,255.6406 Q413.375,255.9844 413.0313,256.3906 Q412.5313,256.9688 411.7344,257.2969 Q410.6563,257.75 409.3594,257.75 Q407.8438,257.75 406.6406,257.125 Q405.6563,256.625 404.9688,255.5625 Q404.2813,254.4844 404.2813,253.2031 L404.2813,252.0469 Q404.2813,250.7188 404.8906,249.5781 Q405.5156,248.4219 406.6094,247.8125 Q407.7031,247.1875 408.9375,247.1875 Q409.6719,247.1875 410.3125,247.3594 Q410.9688,247.5156 411.5156,247.875 Z " fill="#000000"/><text fill="#000000" font-family="sans-serif" font-size="14" lengthAdjust="spacing" textLength="96" x="429.25" y="257.7969">LogServiceImpl</text><line style="stroke:#181818;stroke-width:0.5;" x1="25" x2="897" y1="268" y2="268"/><rect fill="none" height="6" style="stroke:#C82930;stroke-width:1.0;" width="6" x="32" y="279.8105"/><text fill="#000000" font-family="sans-serif" font-size="14" lengthAdjust="spacing" textLength="194" x="44" y="287.1074">logRepository : ILogRepository</text><line style="stroke:#181818;stroke-width:0.5;" x1="25" x2="897" y1="294.6211" y2="294.6211"/><ellipse cx="35" cy="309.4316" fill="#84BE84" rx="3" ry="3" style="stroke:#038048;stroke-width:1.0;"/><text fill="#000000" font-family="sans-serif" font-size="14" lengthAdjust="spacing" textLength="848" x="44" y="313.7285">getDeviceReadingsBySensorTypeAndTimePeriod(deviceID : DeviceID, sensorTypeID : SensorTypeID, period : DatePeriod) : List&lt;Log&gt;</text><ellipse cx="35" cy="328.0527" fill="#84BE84" rx="3" ry="3" style="stroke:#038048;stroke-width:1.0;"/><text fill="#000000" font-family="sans-serif" font-size="14" lengthAdjust="spacing" textLength="628" x="44" y="332.3496">getPeakPowerConsumption(readings : List&lt;Log&gt;, readings2 : List&lt;Log&gt;, timeDelta : TimeDelta) : int</text></g><!--class DeviceServiceImpl--><g id="elem_DeviceServiceImpl"><rect codeLine="16" fill="#F1F1F1" height="122.4844" id="DeviceServiceImpl" rx="2.5" ry="2.5" style="stroke:#181818;stroke-width:0.5;" width="489" x="933.5" y="227"/><ellipse cx="1116.25" cy="243" fill="#ADD1B2" rx="11" ry="11" style="stroke:#181818;stroke-width:1.0;"/><path d="M1119.0156,238.875 Q1119.1719,238.6563 1119.3594,238.5469 Q1119.5469,238.4375 1119.7656,238.4375 Q1120.1406,238.4375 1120.375,238.7031 Q1120.6094,238.9531 1120.6094,239.5625 L1120.6094,241.0156 Q1120.6094,241.625 1120.375,241.8906 Q1120.1406,242.1563 1119.7656,242.1563 Q1119.4219,242.1563 1119.2188,241.9531 Q1119.0156,241.7656 1118.9063,241.25 Q1118.8594,240.8906 1118.6719,240.7031 Q1118.3438,240.3281 1117.7344,240.1094 Q1117.125,239.8906 1116.5,239.8906 Q1115.7344,239.8906 1115.0938,240.2188 Q1114.4688,240.5469 1113.9688,241.2969 Q1113.4844,242.0469 1113.4844,243.0781 L1113.4844,244.1719 Q1113.4844,245.4063 1114.375,246.2344 Q1115.2656,247.0469 1116.8594,247.0469 Q1117.7969,247.0469 1118.4531,246.7969 Q1118.8438,246.6406 1119.2656,246.2031 Q1119.5313,245.9375 1119.6719,245.8594 Q1119.8281,245.7813 1120.0313,245.7813 Q1120.3594,245.7813 1120.6094,246.0469 Q1120.875,246.2969 1120.875,246.6406 Q1120.875,246.9844 1120.5313,247.3906 Q1120.0313,247.9688 1119.2344,248.2969 Q1118.1563,248.75 1116.8594,248.75 Q1115.3438,248.75 1114.1406,248.125 Q1113.1563,247.625 1112.4688,246.5625 Q1111.7813,245.4844 1111.7813,244.2031 L1111.7813,243.0469 Q1111.7813,241.7188 1112.3906,240.5781 Q1113.0156,239.4219 1114.1094,238.8125 Q1115.2031,238.1875 1116.4375,238.1875 Q1117.1719,238.1875 1117.8125,238.3594 Q1118.4688,238.5156 1119.0156,238.875 Z " fill="#000000"/><text fill="#000000" font-family="sans-serif" font-size="14" lengthAdjust="spacing" textLength="115" x="1136.75" y="248.7969">DeviceServiceImpl</text><line style="stroke:#181818;stroke-width:0.5;" x1="934.5" x2="1421.5" y1="259" y2="259"/><rect fill="none" height="6" style="stroke:#C82930;stroke-width:1.0;" width="6" x="941.5" y="270.8105"/><text fill="#000000" font-family="sans-serif" font-size="14" lengthAdjust="spacing" textLength="235" x="953.5" y="278.1074">deviceRepository : IDeviceRepository</text><rect fill="none" height="6" style="stroke:#C82930;stroke-width:1.0;" width="6" x="941.5" y="289.4316"/><text fill="#000000" font-family="sans-serif" font-size="14" lengthAdjust="spacing" textLength="195" x="953.5" y="296.7285">deviceFactory : IDeviceFactory</text><rect fill="none" height="6" style="stroke:#C82930;stroke-width:1.0;" width="6" x="941.5" y="308.0527"/><text fill="#000000" font-family="sans-serif" font-size="14" lengthAdjust="spacing" textLength="294" x="953.5" y="315.3496">roomRepository : IRepository&lt;RoomID, Room&gt;</text><line style="stroke:#181818;stroke-width:0.5;" x1="934.5" x2="1421.5" y1="322.8633" y2="322.8633"/><ellipse cx="944.5" cy="337.6738" fill="#84BE84" rx="3" ry="3" style="stroke:#038048;stroke-width:1.0;"/><text fill="#000000" font-family="sans-serif" font-size="14" lengthAdjust="spacing" textLength="463" x="953.5" y="341.9707">getDevicesByDeviceTypeID(deviceTypeID : DeviceTypeID) : List&lt;Device&gt;</text></g><!--class DeviceSpringDataRepository--><g id="elem_DeviceSpringDataRepository"><rect codeLine="24" fill="#F1F1F1" height="103.8633" id="DeviceSpringDataRepository" rx="2.5" ry="2.5" style="stroke:#181818;stroke-width:0.5;" width="442" x="957" y="428"/><ellipse cx="1082.75" cy="444" fill="#ADD1B2" rx="11" ry="11" style="stroke:#181818;stroke-width:1.0;"/><path d="M1085.5156,439.875 Q1085.6719,439.6563 1085.8594,439.5469 Q1086.0469,439.4375 1086.2656,439.4375 Q1086.6406,439.4375 1086.875,439.7031 Q1087.1094,439.9531 1087.1094,440.5625 L1087.1094,442.0156 Q1087.1094,442.625 1086.875,442.8906 Q1086.6406,443.1563 1086.2656,443.1563 Q1085.9219,443.1563 1085.7188,442.9531 Q1085.5156,442.7656 1085.4063,442.25 Q1085.3594,441.8906 1085.1719,441.7031 Q1084.8438,441.3281 1084.2344,441.1094 Q1083.625,440.8906 1083,440.8906 Q1082.2344,440.8906 1081.5938,441.2188 Q1080.9688,441.5469 1080.4688,442.2969 Q1079.9844,443.0469 1079.9844,444.0781 L1079.9844,445.1719 Q1079.9844,446.4063 1080.875,447.2344 Q1081.7656,448.0469 1083.3594,448.0469 Q1084.2969,448.0469 1084.9531,447.7969 Q1085.3438,447.6406 1085.7656,447.2031 Q1086.0313,446.9375 1086.1719,446.8594 Q1086.3281,446.7813 1086.5313,446.7813 Q1086.8594,446.7813 1087.1094,447.0469 Q1087.375,447.2969 1087.375,447.6406 Q1087.375,447.9844 1087.0313,448.3906 Q1086.5313,448.9688 1085.7344,449.2969 Q1084.6563,449.75 1083.3594,449.75 Q1081.8438,449.75 1080.6406,449.125 Q1079.6563,448.625 1078.9688,447.5625 Q1078.2813,446.4844 1078.2813,445.2031 L1078.2813,444.0469 Q1078.2813,442.7188 1078.8906,441.5781 Q1079.5156,440.4219 1080.6094,439.8125 Q1081.7031,439.1875 1082.9375,439.1875 Q1083.6719,439.1875 1084.3125,439.3594 Q1084.9688,439.5156 1085.5156,439.875 Z " fill="#000000"/><text fill="#000000" font-family="sans-serif" font-size="14" lengthAdjust="spacing" textLength="182" x="1103.25" y="449.7969">DeviceSpringDataRepository</text><line style="stroke:#181818;stroke-width:0.5;" x1="958" x2="1398" y1="460" y2="460"/><rect fill="none" height="6" style="stroke:#C82930;stroke-width:1.0;" width="6" x="965" y="471.8105"/><text fill="#000000" font-family="sans-serif" font-size="14" lengthAdjust="spacing" textLength="260" x="977" y="479.1074">repository : IDeviceSpringDataRepository</text><rect fill="none" height="6" style="stroke:#C82930;stroke-width:1.0;" width="6" x="965" y="490.4316"/><text fill="#000000" font-family="sans-serif" font-size="14" lengthAdjust="spacing" textLength="392" x="977" y="497.7285">assembler : IDataModelAssembler&lt;DeviceDataModel, Device&gt;</text><line style="stroke:#181818;stroke-width:0.5;" x1="958" x2="1398" y1="505.2422" y2="505.2422"/><ellipse cx="968" cy="520.0527" fill="#84BE84" rx="3" ry="3" style="stroke:#038048;stroke-width:1.0;"/><text fill="#000000" font-family="sans-serif" font-size="14" lengthAdjust="spacing" textLength="416" x="977" y="524.3496">findByDeviceTypeID(deviceTypeID : DeviceTypeID) : List&lt;Device&gt;</text></g><!--class LogSpringDataRepository--><g id="elem_LogSpringDataRepository"><rect codeLine="30" fill="#F1F1F1" height="103.8633" id="LogSpringDataRepository" rx="2.5" ry="2.5" style="stroke:#181818;stroke-width:0.5;" width="908" x="7" y="428"/><ellipse cx="375.25" cy="444" fill="#ADD1B2" rx="11" ry="11" style="stroke:#181818;stroke-width:1.0;"/><path d="M378.0156,439.875 Q378.1719,439.6563 378.3594,439.5469 Q378.5469,439.4375 378.7656,439.4375 Q379.1406,439.4375 379.375,439.7031 Q379.6094,439.9531 379.6094,440.5625 L379.6094,442.0156 Q379.6094,442.625 379.375,442.8906 Q379.1406,443.1563 378.7656,443.1563 Q378.4219,443.1563 378.2188,442.9531 Q378.0156,442.7656 377.9063,442.25 Q377.8594,441.8906 377.6719,441.7031 Q377.3438,441.3281 376.7344,441.1094 Q376.125,440.8906 375.5,440.8906 Q374.7344,440.8906 374.0938,441.2188 Q373.4688,441.5469 372.9688,442.2969 Q372.4844,443.0469 372.4844,444.0781 L372.4844,445.1719 Q372.4844,446.4063 373.375,447.2344 Q374.2656,448.0469 375.8594,448.0469 Q376.7969,448.0469 377.4531,447.7969 Q377.8438,447.6406 378.2656,447.2031 Q378.5313,446.9375 378.6719,446.8594 Q378.8281,446.7813 379.0313,446.7813 Q379.3594,446.7813 379.6094,447.0469 Q379.875,447.2969 379.875,447.6406 Q379.875,447.9844 379.5313,448.3906 Q379.0313,448.9688 378.2344,449.2969 Q377.1563,449.75 375.8594,449.75 Q374.3438,449.75 373.1406,449.125 Q372.1563,448.625 371.4688,447.5625 Q370.7813,446.4844 370.7813,445.2031 L370.7813,444.0469 Q370.7813,442.7188 371.3906,441.5781 Q372.0156,440.4219 373.1094,439.8125 Q374.2031,439.1875 375.4375,439.1875 Q376.1719,439.1875 376.8125,439.3594 Q377.4688,439.5156 378.0156,439.875 Z " fill="#000000"/><text fill="#000000" font-family="sans-serif" font-size="14" lengthAdjust="spacing" textLength="163" x="395.75" y="449.7969">LogSpringDataRepository</text><line style="stroke:#181818;stroke-width:0.5;" x1="8" x2="914" y1="460" y2="460"/><rect fill="none" height="6" style="stroke:#C82930;stroke-width:1.0;" width="6" x="15" y="471.8105"/><text fill="#000000" font-family="sans-serif" font-size="14" lengthAdjust="spacing" textLength="241" x="27" y="479.1074">repository : ILogSpringDataRepository</text><rect fill="none" height="6" style="stroke:#C82930;stroke-width:1.0;" width="6" x="15" y="490.4316"/><text fill="#000000" font-family="sans-serif" font-size="14" lengthAdjust="spacing" textLength="354" x="27" y="497.7285">assembler : IDataModelAssembler&lt;LogDataModel, Log&gt;</text><line style="stroke:#181818;stroke-width:0.5;" x1="8" x2="914" y1="505.2422" y2="505.2422"/><ellipse cx="18" cy="520.0527" fill="#84BE84" rx="3" ry="3" style="stroke:#038048;stroke-width:1.0;"/><text fill="#000000" font-family="sans-serif" font-size="14" lengthAdjust="spacing" textLength="882" x="27" y="524.3496">findByDeviceIDAndSensorTypeAndDatePeriodBetween(deviceID : DeviceID, sensorTypeID : SensorTypeID, period : DatePeriod) : List&lt;Log&gt;</text></g><!--link LogController to DeviceServiceImpl--><g id="link_LogController_DeviceServiceImpl"><path codeLine="35" d="M939.04,148.22 C982.97,173.73 1027.0618,199.3363 1069.4118,223.9363 " fill="none" id="LogController-to-DeviceServiceImpl" style="stroke:#181818;stroke-width:1.0;stroke-dasharray:7.0,7.0;"/><polygon fill="#181818" points="1074.6,226.95,1068.8268,218.9706,1070.2765,224.4386,1064.8085,225.8883,1074.6,226.95" style="stroke:#181818;stroke-width:1.0;"/><text fill="#000000" font-family="sans-serif" font-size="13" lengthAdjust="spacing" textLength="28" x="1021" y="193.0283">uses</text></g><!--link LogController to LogServiceImpl--><g id="link_LogController_LogServiceImpl"><path codeLine="36" d="M699.29,148.22 C650,176.93 599.1347,206.5502 553.7747,232.9702 " fill="none" id="LogController-to-LogServiceImpl" style="stroke:#181818;stroke-width:1.0;stroke-dasharray:7.0,7.0;"/><polygon fill="#181818" points="548.59,235.99,558.3802,234.9167,552.9106,233.4735,554.3538,228.0038,548.59,235.99" style="stroke:#181818;stroke-width:1.0;"/><text fill="#000000" font-family="sans-serif" font-size="13" lengthAdjust="spacing" textLength="28" x="641" y="193.0283">uses</text></g><!--link DeviceServiceImpl to DeviceSpringDataRepository--><g id="link_DeviceServiceImpl_DeviceSpringDataRepository"><path codeLine="37" d="M1178,349.12 C1178,374.45 1178,397.62 1178,421.9 " fill="none" id="DeviceServiceImpl-to-DeviceSpringDataRepository" style="stroke:#181818;stroke-width:1.0;stroke-dasharray:7.0,7.0;"/><polygon fill="#181818" points="1178,427.9,1182,418.9,1178,422.9,1174,418.9,1178,427.9" style="stroke:#181818;stroke-width:1.0;"/><text fill="#000000" font-family="sans-serif" font-size="13" lengthAdjust="spacing" textLength="28" x="1179" y="394.0283">uses</text></g><!--link LogServiceImpl to LogSpringDataRepository--><g id="link_LogServiceImpl_LogSpringDataRepository"><path codeLine="38" d="M461,340.17 C461,367.31 461,394.58 461,421.74 " fill="none" id="LogServiceImpl-to-LogSpringDataRepository" style="stroke:#181818;stroke-width:1.0;stroke-dasharray:7.0,7.0;"/><polygon fill="#181818" points="461,427.74,465,418.74,461,422.74,457,418.74,461,427.74" style="stroke:#181818;stroke-width:1.0;"/><text fill="#000000" font-family="sans-serif" font-size="13" lengthAdjust="spacing" textLength="28" x="462" y="394.0283">uses</text></g><!--SRC=[jLN1RkCW4BttApYcghU7FLPHf7RfIfPIDKhy0smyiL0nM33PRbJrtnSAji4cgTJLvc9uCmFptimGGWZP2sOCMQlcXvAebH2WoTiL2RzlHAXc1_ettmEv8-Lws4KkDJWWyg8nS3Lutf06qDksm6ek6_DmgdWB6z1SrGj_Jadj4JlKrbmGjDOTCeqJx57M0t9jLrimdPB6uiZnj5npWqkRAwsULwlq_YVsfvG6AsWxoW-71y1N0EcpkfVryn4Dhs6X_9U6bEnDKGPSNh9nv4muMXPTgpqJb26uVK4EN9upELOK139huX8pf4g9q82UyzceLz2sVEROTiYLN7mjXy-kVFUL71ecrBTiEp7jc2rqod1K-XIQPWGkTyCEf56wEdMk5ldMw6KlY1cSVSz4su9q7u7EtzBpfpY2VMTCLDm0Uvd9g4DQSLX1UlHx2iVrg_hrjI_cNBvaGcOAra6LM4GwmMRkFza-zGr0vAYLQjDJnzroQurEEFTTPOVMriSllCQXA8F-iMsGseEZsZaLEZSvjamioYsMGsU4o0L58VPqQ7-vjyn5MAydLOEuxz6Grc0eo3JF6pSdzJyIdatCPQOvjcUY9Z6VqNLFuSWrQVyvsPBQsKi6SHoXy5p-ptby_rYbVqYtjwlCoDoHem5pndtoG4M-yuEYutCLIk-P1fwhQuZw2m00]--></g></svg>