<?xml version="1.0" encoding="us-ascii" standalone="no"?><svg xmlns="http://www.w3.org/2000/svg" xmlns:xlink="http://www.w3.org/1999/xlink" contentStyleType="text/css" height="570px" preserveAspectRatio="none" style="width:1360px;height:570px;background:#FFFFFF;" version="1.1" viewBox="0 0 1360 570" width="1360.5px" zoomAndPan="magnify"><defs/><g><!--cluster domain--><g id="cluster_domain"><path d="M8.25,2 L34.25,2 A1.875,1.875 0 0 1 35.5,3.25 L39,14.3105 L1355.75,14.3105 A1.25,1.25 0 0 1 1357,15.5605 L1357,565.25 A1.25,1.25 0 0 1 1355.75,566.5 L8.25,566.5 A1.25,1.25 0 0 1 7,565.25 L7,3.25 A1.25,1.25 0 0 1 8.25,2 " fill="none" style="stroke:#000000;stroke-width:0.75;"/><line style="stroke:#000000;stroke-width:0.75;" x1="7" x2="39" y1="14.3105" y2="14.3105"/><text fill="#000000" font-family="sans-serif" font-size="7" font-weight="bold" lengthAdjust="spacing" textLength="25.5" x="9" y="10.5537">domain</text></g><!--cluster Sensor--><g id="cluster_Sensor"><path d="M12.25,16.5 L37.75,16.5 A1.875,1.875 0 0 1 39,17.75 L42.5,28.8105 L1351.75,28.8105 A1.25,1.25 0 0 1 1353,30.0605 L1353,382.75 A1.25,1.25 0 0 1 1351.75,384 L12.25,384 A1.25,1.25 0 0 1 11,382.75 L11,17.75 A1.25,1.25 0 0 1 12.25,16.5 " fill="none" style="stroke:#000000;stroke-width:0.75;"/><line style="stroke:#000000;stroke-width:0.75;" x1="11" x2="42.5" y1="28.8105" y2="28.8105"/><text fill="#000000" font-family="sans-serif" font-size="7" font-weight="bold" lengthAdjust="spacing" textLength="25" x="13" y="25.0537">Sensor</text></g><!--cluster WindSensor--><g id="cluster_WindSensor"><path d="M434.25,87 L477.25,87 A1.875,1.875 0 0 1 478.5,88.25 L482,99.3105 L1220.75,99.3105 A1.25,1.25 0 0 1 1222,100.5605 L1222,378.75 A1.25,1.25 0 0 1 1220.75,380 L434.25,380 A1.25,1.25 0 0 1 433,378.75 L433,88.25 A1.25,1.25 0 0 1 434.25,87 " fill="none" style="stroke:#000000;stroke-width:0.75;"/><line style="stroke:#000000;stroke-width:0.75;" x1="433" x2="482" y1="99.3105" y2="99.3105"/><text fill="#000000" font-family="sans-serif" font-size="7" font-weight="bold" lengthAdjust="spacing" textLength="42.5" x="435" y="95.5537">WindSensor</text></g><!--cluster ddd--><g id="cluster_ddd"><path d="M931.25,392.5 L945.25,392.5 A1.875,1.875 0 0 1 946.5,393.75 L950,404.8105 L1000.75,404.8105 A1.25,1.25 0 0 1 1002,406.0605 L1002,561.25 A1.25,1.25 0 0 1 1000.75,562.5 L931.25,562.5 A1.25,1.25 0 0 1 930,561.25 L930,393.75 A1.25,1.25 0 0 1 931.25,392.5 " fill="none" style="stroke:#000000;stroke-width:0.75;"/><line style="stroke:#000000;stroke-width:0.75;" x1="930" x2="950" y1="404.8105" y2="404.8105"/><text fill="#000000" font-family="sans-serif" font-size="7" font-weight="bold" lengthAdjust="spacing" textLength="13.5" x="932" y="401.0537">ddd</text></g><!--class SensorFactory--><g id="elem_SensorFactory"><rect codeLine="5" fill="#F1F1F1" height="33.3105" id="SensorFactory" rx="1.25" ry="1.25" style="stroke:#181818;stroke-width:0.25;" width="414" x="15" y="164.5"/><ellipse cx="196.625" cy="172.5" fill="#B4A7E5" rx="5.5" ry="5.5" style="stroke:#181818;stroke-width:0.5;"/><path d="M197.1016,170.8203 L197.1016,174.1484 L197.9609,174.1484 Q198.2656,174.1484 198.3984,174.2656 Q198.5313,174.3828 198.5313,174.5781 Q198.5313,174.7656 198.3984,174.8828 Q198.2656,175 197.9609,175 L195.3906,175 Q195.0859,175 194.9531,174.8828 Q194.8203,174.7656 194.8203,174.5703 Q194.8203,174.3828 194.9531,174.2656 Q195.0859,174.1484 195.3906,174.1484 L196.25,174.1484 L196.25,170.8203 L195.3906,170.8203 Q195.0859,170.8203 194.9531,170.7031 Q194.8203,170.5859 194.8203,170.3906 Q194.8203,170.2031 194.9531,170.0859 Q195.0859,169.9688 195.3906,169.9688 L197.9609,169.9688 Q198.2656,169.9688 198.3984,170.0859 Q198.5313,170.2031 198.5313,170.3906 Q198.5313,170.5859 198.3984,170.7031 Q198.2656,170.8203 197.9609,170.8203 L197.1016,170.8203 Z " fill="#000000"/><text fill="#000000" font-family="sans-serif" font-size="7" font-style="italic" lengthAdjust="spacing" textLength="46.5" x="206.875" y="175.3984">SensorFactory</text><line style="stroke:#181818;stroke-width:0.25;" x1="15.5" x2="428.5" y1="180.5" y2="180.5"/><line style="stroke:#181818;stroke-width:0.25;" x1="15.5" x2="428.5" y1="184.5" y2="184.5"/><ellipse cx="20.5" cy="191.9053" fill="#84BE84" rx="1.5" ry="1.5" style="stroke:#038048;stroke-width:0.5;"/><text fill="#000000" font-family="sans-serif" font-size="7" lengthAdjust="spacing" textLength="401" x="25" y="194.0537">createSensor(deviceID : DeviceID, modelPath : ModelPath, sensorTypeID : SensorTypeID, sensorName : SensorName): Sensor</text></g><!--class SensorFactoryImpl--><g id="elem_SensorFactoryImpl"><rect codeLine="8" fill="#F1F1F1" height="33.3105" id="SensorFactoryImpl" rx="1.25" ry="1.25" style="stroke:#181818;stroke-width:0.25;" width="151.5" x="460.75" y="31"/><ellipse cx="504.875" cy="39" fill="#ADD1B2" rx="5.5" ry="5.5" style="stroke:#181818;stroke-width:0.5;"/><path d="M506.2578,36.9375 Q506.3359,36.8281 506.4297,36.7734 Q506.5234,36.7188 506.6328,36.7188 Q506.8203,36.7188 506.9375,36.8516 Q507.0547,36.9766 507.0547,37.2813 L507.0547,38.0078 Q507.0547,38.3125 506.9375,38.4453 Q506.8203,38.5781 506.6328,38.5781 Q506.4609,38.5781 506.3594,38.4766 Q506.2578,38.3828 506.2031,38.125 Q506.1797,37.9453 506.0859,37.8516 Q505.9219,37.6641 505.6172,37.5547 Q505.3125,37.4453 505,37.4453 Q504.6172,37.4453 504.2969,37.6094 Q503.9844,37.7734 503.7344,38.1484 Q503.4922,38.5234 503.4922,39.0391 L503.4922,39.5859 Q503.4922,40.2031 503.9375,40.6172 Q504.3828,41.0234 505.1797,41.0234 Q505.6484,41.0234 505.9766,40.8984 Q506.1719,40.8203 506.3828,40.6016 Q506.5156,40.4688 506.5859,40.4297 Q506.6641,40.3906 506.7656,40.3906 Q506.9297,40.3906 507.0547,40.5234 Q507.1875,40.6484 507.1875,40.8203 Q507.1875,40.9922 507.0156,41.1953 Q506.7656,41.4844 506.3672,41.6484 Q505.8281,41.875 505.1797,41.875 Q504.4219,41.875 503.8203,41.5625 Q503.3281,41.3125 502.9844,40.7813 Q502.6406,40.2422 502.6406,39.6016 L502.6406,39.0234 Q502.6406,38.3594 502.9453,37.7891 Q503.2578,37.2109 503.8047,36.9063 Q504.3516,36.5938 504.9688,36.5938 Q505.3359,36.5938 505.6563,36.6797 Q505.9844,36.7578 506.2578,36.9375 Z " fill="#000000"/><text fill="#000000" font-family="sans-serif" font-size="7" lengthAdjust="spacing" textLength="59" x="515.125" y="41.8984">SensorFactoryImpl</text><line style="stroke:#181818;stroke-width:0.25;" x1="461.25" x2="611.75" y1="47" y2="47"/><line style="stroke:#181818;stroke-width:0.25;" x1="461.25" x2="611.75" y1="51" y2="51"/><ellipse cx="466.25" cy="58.4053" fill="#84BE84" rx="1.5" ry="1.5" style="stroke:#038048;stroke-width:0.5;"/><text fill="#000000" font-family="sans-serif" font-size="7" lengthAdjust="spacing" textLength="138.5" x="470.75" y="60.5537">createSensor(Object... parameters): Sensor</text></g><!--class Sensor--><g id="elem_Sensor"><rect codeLine="12" fill="#F1F1F1" height="89.1738" id="Sensor" rx="1.25" ry="1.25" style="stroke:#181818;stroke-width:0.25;" width="122" x="1227" y="288.5"/><ellipse cx="1274.625" cy="296.5" fill="#B4A7E5" rx="5.5" ry="5.5" style="stroke:#181818;stroke-width:0.5;"/><path d="M1275.1016,294.8203 L1275.1016,298.1484 L1275.9609,298.1484 Q1276.2656,298.1484 1276.3984,298.2656 Q1276.5313,298.3828 1276.5313,298.5781 Q1276.5313,298.7656 1276.3984,298.8828 Q1276.2656,299 1275.9609,299 L1273.3906,299 Q1273.0859,299 1272.9531,298.8828 Q1272.8203,298.7656 1272.8203,298.5703 Q1272.8203,298.3828 1272.9531,298.2656 Q1273.0859,298.1484 1273.3906,298.1484 L1274.25,298.1484 L1274.25,294.8203 L1273.3906,294.8203 Q1273.0859,294.8203 1272.9531,294.7031 Q1272.8203,294.5859 1272.8203,294.3906 Q1272.8203,294.2031 1272.9531,294.0859 Q1273.0859,293.9688 1273.3906,293.9688 L1275.9609,293.9688 Q1276.2656,293.9688 1276.3984,294.0859 Q1276.5313,294.2031 1276.5313,294.3906 Q1276.5313,294.5859 1276.3984,294.7031 Q1276.2656,294.8203 1275.9609,294.8203 L1275.1016,294.8203 Z " fill="#000000"/><text fill="#000000" font-family="sans-serif" font-size="7" font-style="italic" lengthAdjust="spacing" textLength="22.5" x="1284.875" y="299.3984">Sensor</text><line style="stroke:#181818;stroke-width:0.25;" x1="1227.5" x2="1348.5" y1="304.5" y2="304.5"/><ellipse cx="1232.5" cy="311.9053" fill="none" rx="1.5" ry="1.5" style="stroke:#038048;stroke-width:0.5;"/><text fill="#000000" font-family="sans-serif" font-size="7" lengthAdjust="spacing" textLength="72.5" x="1237" y="314.0537">getName: SensorName</text><line style="stroke:#181818;stroke-width:0.25;" x1="1227.5" x2="1348.5" y1="317.8105" y2="317.8105"/><ellipse cx="1232.5" cy="325.2158" fill="#84BE84" rx="1.5" ry="1.5" style="stroke:#038048;stroke-width:0.5;"/><text fill="#000000" font-family="sans-serif" font-size="7" lengthAdjust="spacing" textLength="54.5" x="1237" y="327.3643">getID(): SensorID</text><ellipse cx="1232.5" cy="334.5264" fill="#84BE84" rx="1.5" ry="1.5" style="stroke:#038048;stroke-width:0.5;"/><text fill="#000000" font-family="sans-serif" font-size="7" lengthAdjust="spacing" textLength="86" x="1237" y="336.6748">getModelPath(): ModelPath</text><ellipse cx="1232.5" cy="343.8369" fill="#84BE84" rx="1.5" ry="1.5" style="stroke:#038048;stroke-width:0.5;"/><text fill="#000000" font-family="sans-serif" font-size="7" lengthAdjust="spacing" textLength="109" x="1237" y="345.9854">getSensorTypeID(): SensorTypeID</text><ellipse cx="1232.5" cy="353.1475" fill="#84BE84" rx="1.5" ry="1.5" style="stroke:#038048;stroke-width:0.5;"/><text fill="#000000" font-family="sans-serif" font-size="7" lengthAdjust="spacing" textLength="52" x="1237" y="355.2959">toString(): String</text><ellipse cx="1232.5" cy="362.458" fill="#84BE84" rx="1.5" ry="1.5" style="stroke:#038048;stroke-width:0.5;"/><text fill="#000000" font-family="sans-serif" font-size="7" lengthAdjust="spacing" textLength="75.5" x="1237" y="364.6064">getValue(): ValueObject</text><ellipse cx="1232.5" cy="371.7686" fill="#84BE84" rx="1.5" ry="1.5" style="stroke:#038048;stroke-width:0.5;"/><text fill="#000000" font-family="sans-serif" font-size="7" lengthAdjust="spacing" textLength="75" x="1237" y="373.917">getDeviceID(): DeviceID</text></g><!--class WindSensor--><g id="elem_WindSensor"><rect codeLine="25" fill="#F1F1F1" height="159.3086" id="WindSensor" rx="1.25" ry="1.25" style="stroke:#181818;stroke-width:0.25;" width="383.5" x="659.25" y="101.5"/><ellipse cx="829.625" cy="116.6357" fill="#ADD1B2" rx="5.5" ry="5.5" style="stroke:#181818;stroke-width:0.5;"/><path d="M831.0078,114.5732 Q831.0859,114.4639 831.1797,114.4092 Q831.2734,114.3545 831.3828,114.3545 Q831.5703,114.3545 831.6875,114.4873 Q831.8047,114.6123 831.8047,114.917 L831.8047,115.6436 Q831.8047,115.9482 831.6875,116.0811 Q831.5703,116.2139 831.3828,116.2139 Q831.2109,116.2139 831.1094,116.1123 Q831.0078,116.0186 830.9531,115.7607 Q830.9297,115.5811 830.8359,115.4873 Q830.6719,115.2998 830.3672,115.1904 Q830.0625,115.0811 829.75,115.0811 Q829.3672,115.0811 829.0469,115.2451 Q828.7344,115.4092 828.4844,115.7842 Q828.2422,116.1592 828.2422,116.6748 L828.2422,117.2217 Q828.2422,117.8389 828.6875,118.2529 Q829.1328,118.6592 829.9297,118.6592 Q830.3984,118.6592 830.7266,118.5342 Q830.9219,118.4561 831.1328,118.2373 Q831.2656,118.1045 831.3359,118.0654 Q831.4141,118.0264 831.5156,118.0264 Q831.6797,118.0264 831.8047,118.1592 Q831.9375,118.2842 831.9375,118.4561 Q831.9375,118.6279 831.7656,118.8311 Q831.5156,119.1201 831.1172,119.2842 Q830.5781,119.5107 829.9297,119.5107 Q829.1719,119.5107 828.5703,119.1982 Q828.0781,118.9482 827.7344,118.417 Q827.3906,117.8779 827.3906,117.2373 L827.3906,116.6592 Q827.3906,115.9951 827.6953,115.4248 Q828.0078,114.8467 828.5547,114.542 Q829.1016,114.2295 829.7188,114.2295 Q830.0859,114.2295 830.4063,114.3154 Q830.7344,114.3936 831.0078,114.5732 Z " fill="#000000"/><text fill="#000000" font-family="sans-serif" font-size="6" font-style="italic" lengthAdjust="spacing" textLength="21.5" x="848.375" y="110.4746">&#171;entity&#187;</text><text fill="#000000" font-family="sans-serif" font-size="6" font-style="italic" lengthAdjust="spacing" textLength="20" x="849.125" y="118.4551">&#171;Root&#187;</text><text fill="#000000" font-family="sans-serif" font-size="7" lengthAdjust="spacing" textLength="38.5" x="839.875" y="127.5146">WindSensor</text><line style="stroke:#181818;stroke-width:0.25;" x1="659.75" x2="1042.25" y1="131.7715" y2="131.7715"/><rect fill="none" height="3" style="stroke:#C82930;stroke-width:0.5;" width="3" x="663.25" y="137.6768"/><text fill="#000000" font-family="sans-serif" font-size="7" lengthAdjust="spacing" textLength="77" x="669.25" y="141.3252">_modelPath : ModelPath</text><rect fill="none" height="3" style="stroke:#C82930;stroke-width:0.5;" width="3" x="663.25" y="146.9873"/><text fill="#000000" font-family="sans-serif" font-size="7" lengthAdjust="spacing" textLength="90" x="669.25" y="150.6357">_sensorName : SensorName</text><rect fill="none" height="3" style="stroke:#C82930;stroke-width:0.5;" width="3" x="663.25" y="156.2979"/><text fill="#000000" font-family="sans-serif" font-size="7" lengthAdjust="spacing" textLength="67" x="669.25" y="159.9463">_sensorID : SensorID</text><rect fill="none" height="3" style="stroke:#C82930;stroke-width:0.5;" width="3" x="663.25" y="165.6084"/><text fill="#000000" font-family="sans-serif" font-size="7" lengthAdjust="spacing" textLength="99" x="669.25" y="169.2568">_sensorTypeID : SensorTypeID</text><rect fill="none" height="3" style="stroke:#C82930;stroke-width:0.5;" width="3" x="663.25" y="174.9189"/><text fill="#000000" font-family="sans-serif" font-size="7" lengthAdjust="spacing" textLength="123" x="669.25" y="178.5674">_WindSensorValue : WindSensorValue</text><rect fill="none" height="3" style="stroke:#C82930;stroke-width:0.5;" width="3" x="663.25" y="184.2295"/><text fill="#000000" font-family="sans-serif" font-size="7" lengthAdjust="spacing" textLength="65" x="669.25" y="187.8779">_deviceID : DeviceID</text><line style="stroke:#181818;stroke-width:0.25;" x1="659.75" x2="1042.25" y1="191.6348" y2="191.6348"/><ellipse cx="664.75" cy="199.04" fill="#84BE84" rx="1.5" ry="1.5" style="stroke:#038048;stroke-width:0.5;"/><text fill="#000000" font-family="sans-serif" font-size="7" lengthAdjust="spacing" textLength="370.5" x="669.25" y="201.1885">WindSensor(deviceID : DeviceID, modelPath : ModelPath, sensorTypeID : SensorTypeID, sensorName : SensorName)</text><ellipse cx="664.75" cy="208.3506" fill="#84BE84" rx="1.5" ry="1.5" style="stroke:#038048;stroke-width:0.5;"/><text fill="#000000" font-family="sans-serif" font-size="7" lengthAdjust="spacing" textLength="56.5" x="669.25" y="210.499">getID() : SensorID</text><ellipse cx="664.75" cy="217.6611" fill="#84BE84" rx="1.5" ry="1.5" style="stroke:#038048;stroke-width:0.5;"/><text fill="#000000" font-family="sans-serif" font-size="7" lengthAdjust="spacing" textLength="79.5" x="669.25" y="219.8096">getName() : SensorName</text><ellipse cx="664.75" cy="226.9717" fill="#84BE84" rx="1.5" ry="1.5" style="stroke:#038048;stroke-width:0.5;"/><text fill="#000000" font-family="sans-serif" font-size="7" lengthAdjust="spacing" textLength="88" x="669.25" y="229.1201">getModelPath() : ModelPath</text><ellipse cx="664.75" cy="236.2822" fill="#84BE84" rx="1.5" ry="1.5" style="stroke:#038048;stroke-width:0.5;"/><text fill="#000000" font-family="sans-serif" font-size="7" lengthAdjust="spacing" textLength="111" x="669.25" y="238.4307">getSensorTypeID() : SensorTypeID</text><ellipse cx="664.75" cy="245.5928" fill="#84BE84" rx="1.5" ry="1.5" style="stroke:#038048;stroke-width:0.5;"/><text fill="#000000" font-family="sans-serif" font-size="7" lengthAdjust="spacing" textLength="77" x="669.25" y="247.7412">getDeviceID() : DeviceID</text><ellipse cx="664.75" cy="254.9033" fill="#84BE84" rx="1.5" ry="1.5" style="stroke:#038048;stroke-width:0.5;"/><text fill="#000000" font-family="sans-serif" font-size="7" lengthAdjust="spacing" textLength="95.5" x="669.25" y="257.0518">getValue() : WindSensorValue</text></g><!--class SensorName--><g id="elem_SensorName"><rect codeLine="43" fill="#F1F1F1" height="58.2227" id="SensorName" rx="1.25" ry="1.25" style="stroke:#181818;stroke-width:0.25;" width="100.5" x="437.25" y="304"/><ellipse cx="465.125" cy="315.1455" fill="#ADD1B2" rx="5.5" ry="5.5" style="stroke:#181818;stroke-width:0.5;"/><path d="M466.5078,313.083 Q466.5859,312.9736 466.6797,312.9189 Q466.7734,312.8643 466.8828,312.8643 Q467.0703,312.8643 467.1875,312.9971 Q467.3047,313.1221 467.3047,313.4268 L467.3047,314.1533 Q467.3047,314.458 467.1875,314.5908 Q467.0703,314.7236 466.8828,314.7236 Q466.7109,314.7236 466.6094,314.6221 Q466.5078,314.5283 466.4531,314.2705 Q466.4297,314.0908 466.3359,313.9971 Q466.1719,313.8096 465.8672,313.7002 Q465.5625,313.5908 465.25,313.5908 Q464.8672,313.5908 464.5469,313.7549 Q464.2344,313.9189 463.9844,314.2939 Q463.7422,314.6689 463.7422,315.1846 L463.7422,315.7314 Q463.7422,316.3486 464.1875,316.7627 Q464.6328,317.1689 465.4297,317.1689 Q465.8984,317.1689 466.2266,317.0439 Q466.4219,316.9658 466.6328,316.7471 Q466.7656,316.6143 466.8359,316.5752 Q466.9141,316.5361 467.0156,316.5361 Q467.1797,316.5361 467.3047,316.6689 Q467.4375,316.7939 467.4375,316.9658 Q467.4375,317.1377 467.2656,317.3408 Q467.0156,317.6299 466.6172,317.7939 Q466.0781,318.0205 465.4297,318.0205 Q464.6719,318.0205 464.0703,317.708 Q463.5781,317.458 463.2344,316.9268 Q462.8906,316.3877 462.8906,315.7471 L462.8906,315.1689 Q462.8906,314.5049 463.1953,313.9346 Q463.5078,313.3564 464.0547,313.0518 Q464.6016,312.7393 465.2188,312.7393 Q465.5859,312.7393 465.9063,312.8252 Q466.2344,312.9033 466.5078,313.083 Z " fill="#000000"/><text fill="#000000" font-family="sans-serif" font-size="6" font-style="italic" lengthAdjust="spacing" textLength="41" x="475.125" y="312.9746">&#171;ValueObject&#187;</text><text fill="#000000" font-family="sans-serif" font-size="7" lengthAdjust="spacing" textLength="40.5" x="475.375" y="322.0342">SensorName</text><line style="stroke:#181818;stroke-width:0.25;" x1="437.75" x2="537.25" y1="326.291" y2="326.291"/><rect fill="none" height="3" style="stroke:#C82930;stroke-width:0.5;" width="3" x="441.25" y="332.1963"/><text fill="#000000" font-family="sans-serif" font-size="7" lengthAdjust="spacing" textLength="44" x="447.25" y="335.8447">_name: String</text><line style="stroke:#181818;stroke-width:0.25;" x1="437.75" x2="537.25" y1="339.6016" y2="339.6016"/><ellipse cx="442.75" cy="347.0068" fill="#84BE84" rx="1.5" ry="1.5" style="stroke:#038048;stroke-width:0.5;"/><text fill="#000000" font-family="sans-serif" font-size="7" lengthAdjust="spacing" textLength="87.5" x="447.25" y="349.1553">SensorName(name : String)</text><ellipse cx="442.75" cy="356.3174" fill="#84BE84" rx="1.5" ry="1.5" style="stroke:#038048;stroke-width:0.5;"/><text fill="#000000" font-family="sans-serif" font-size="7" lengthAdjust="spacing" textLength="57.5" x="447.25" y="358.4658">getName() : String</text></g><!--class SensorID--><g id="elem_SensorID"><rect codeLine="50" fill="#F1F1F1" height="86.1543" id="SensorID" rx="1.25" ry="1.25" style="stroke:#181818;stroke-width:0.25;" width="104.5" x="1113.25" y="290"/><ellipse cx="1146.625" cy="301.1455" fill="#ADD1B2" rx="5.5" ry="5.5" style="stroke:#181818;stroke-width:0.5;"/><path d="M1148.0078,299.083 Q1148.0859,298.9736 1148.1797,298.9189 Q1148.2734,298.8643 1148.3828,298.8643 Q1148.5703,298.8643 1148.6875,298.9971 Q1148.8047,299.1221 1148.8047,299.4268 L1148.8047,300.1533 Q1148.8047,300.458 1148.6875,300.5908 Q1148.5703,300.7236 1148.3828,300.7236 Q1148.2109,300.7236 1148.1094,300.6221 Q1148.0078,300.5283 1147.9531,300.2705 Q1147.9297,300.0908 1147.8359,299.9971 Q1147.6719,299.8096 1147.3672,299.7002 Q1147.0625,299.5908 1146.75,299.5908 Q1146.3672,299.5908 1146.0469,299.7549 Q1145.7344,299.9189 1145.4844,300.2939 Q1145.2422,300.6689 1145.2422,301.1846 L1145.2422,301.7314 Q1145.2422,302.3486 1145.6875,302.7627 Q1146.1328,303.1689 1146.9297,303.1689 Q1147.3984,303.1689 1147.7266,303.0439 Q1147.9219,302.9658 1148.1328,302.7471 Q1148.2656,302.6143 1148.3359,302.5752 Q1148.4141,302.5361 1148.5156,302.5361 Q1148.6797,302.5361 1148.8047,302.6689 Q1148.9375,302.7939 1148.9375,302.9658 Q1148.9375,303.1377 1148.7656,303.3408 Q1148.5156,303.6299 1148.1172,303.7939 Q1147.5781,304.0205 1146.9297,304.0205 Q1146.1719,304.0205 1145.5703,303.708 Q1145.0781,303.458 1144.7344,302.9268 Q1144.3906,302.3877 1144.3906,301.7471 L1144.3906,301.1689 Q1144.3906,300.5049 1144.6953,299.9346 Q1145.0078,299.3564 1145.5547,299.0518 Q1146.1016,298.7393 1146.7188,298.7393 Q1147.0859,298.7393 1147.4063,298.8252 Q1147.7344,298.9033 1148.0078,299.083 Z " fill="#000000"/><text fill="#000000" font-family="sans-serif" font-size="6" font-style="italic" lengthAdjust="spacing" textLength="35.5" x="1155.875" y="298.9746">&#171;DomainID&#187;</text><text fill="#000000" font-family="sans-serif" font-size="7" lengthAdjust="spacing" textLength="29" x="1159.125" y="308.0342">SensorID</text><line style="stroke:#181818;stroke-width:0.25;" x1="1113.75" x2="1217.25" y1="312.291" y2="312.291"/><rect fill="none" height="3" style="stroke:#C82930;stroke-width:0.5;" width="3" x="1117.25" y="318.1963"/><text fill="#000000" font-family="sans-serif" font-size="7" lengthAdjust="spacing" textLength="32" x="1123.25" y="321.8447">_id: String</text><line style="stroke:#181818;stroke-width:0.25;" x1="1113.75" x2="1217.25" y1="325.6016" y2="325.6016"/><ellipse cx="1118.75" cy="333.0068" fill="#84BE84" rx="1.5" ry="1.5" style="stroke:#038048;stroke-width:0.5;"/><text fill="#000000" font-family="sans-serif" font-size="7" lengthAdjust="spacing" textLength="62" x="1123.25" y="335.1553">SensorID(id: String)</text><ellipse cx="1118.75" cy="342.3174" fill="#84BE84" rx="1.5" ry="1.5" style="stroke:#038048;stroke-width:0.5;"/><text fill="#000000" font-family="sans-serif" font-size="7" lengthAdjust="spacing" textLength="46" x="1123.25" y="344.4658">getID() : String</text><ellipse cx="1118.75" cy="351.6279" fill="#84BE84" rx="1.5" ry="1.5" style="stroke:#038048;stroke-width:0.5;"/><text fill="#000000" font-family="sans-serif" font-size="7" lengthAdjust="spacing" textLength="51" x="1123.25" y="353.7764">hashCode() : int</text><ellipse cx="1118.75" cy="360.9385" fill="#84BE84" rx="1.5" ry="1.5" style="stroke:#038048;stroke-width:0.5;"/><text fill="#000000" font-family="sans-serif" font-size="7" lengthAdjust="spacing" textLength="91.5" x="1123.25" y="363.0869">equals(obj: Object) : boolean</text><ellipse cx="1118.75" cy="370.249" fill="#84BE84" rx="1.5" ry="1.5" style="stroke:#038048;stroke-width:0.5;"/><text fill="#000000" font-family="sans-serif" font-size="7" lengthAdjust="spacing" textLength="54" x="1123.25" y="372.3975">toString() : String</text></g><!--class WindSensorValue--><g id="elem_WindSensorValue"><rect codeLine="59" fill="#F1F1F1" height="76.8438" id="WindSensorValue" rx="1.25" ry="1.25" style="stroke:#181818;stroke-width:0.25;" width="180" x="547" y="294.5"/><ellipse cx="606.625" cy="305.6455" fill="#ADD1B2" rx="5.5" ry="5.5" style="stroke:#181818;stroke-width:0.5;"/><path d="M608.0078,303.583 Q608.0859,303.4736 608.1797,303.4189 Q608.2734,303.3643 608.3828,303.3643 Q608.5703,303.3643 608.6875,303.4971 Q608.8047,303.6221 608.8047,303.9268 L608.8047,304.6533 Q608.8047,304.958 608.6875,305.0908 Q608.5703,305.2236 608.3828,305.2236 Q608.2109,305.2236 608.1094,305.1221 Q608.0078,305.0283 607.9531,304.7705 Q607.9297,304.5908 607.8359,304.4971 Q607.6719,304.3096 607.3672,304.2002 Q607.0625,304.0908 606.75,304.0908 Q606.3672,304.0908 606.0469,304.2549 Q605.7344,304.4189 605.4844,304.7939 Q605.2422,305.1689 605.2422,305.6846 L605.2422,306.2314 Q605.2422,306.8486 605.6875,307.2627 Q606.1328,307.6689 606.9297,307.6689 Q607.3984,307.6689 607.7266,307.5439 Q607.9219,307.4658 608.1328,307.2471 Q608.2656,307.1143 608.3359,307.0752 Q608.4141,307.0361 608.5156,307.0361 Q608.6797,307.0361 608.8047,307.1689 Q608.9375,307.2939 608.9375,307.4658 Q608.9375,307.6377 608.7656,307.8408 Q608.5156,308.1299 608.1172,308.2939 Q607.5781,308.5205 606.9297,308.5205 Q606.1719,308.5205 605.5703,308.208 Q605.0781,307.958 604.7344,307.4268 Q604.3906,306.8877 604.3906,306.2471 L604.3906,305.6689 Q604.3906,305.0049 604.6953,304.4346 Q605.0078,303.8564 605.5547,303.5518 Q606.1016,303.2393 606.7188,303.2393 Q607.0859,303.2393 607.4063,303.3252 Q607.7344,303.4033 608.0078,303.583 Z " fill="#000000"/><text fill="#000000" font-family="sans-serif" font-size="6" font-style="italic" lengthAdjust="spacing" textLength="41" x="624.625" y="303.4746">&#171;ValueObject&#187;</text><text fill="#000000" font-family="sans-serif" font-size="7" lengthAdjust="spacing" textLength="56.5" x="616.875" y="312.5342">WindSensorValue</text><line style="stroke:#181818;stroke-width:0.25;" x1="547.5" x2="726.5" y1="316.791" y2="316.791"/><rect fill="none" height="3" style="stroke:#C82930;stroke-width:0.5;" width="3" x="551" y="322.6963"/><text fill="#000000" font-family="sans-serif" font-size="7" lengthAdjust="spacing" textLength="51" x="557" y="326.3447">_speed : double</text><rect fill="none" height="3" style="stroke:#C82930;stroke-width:0.5;" width="3" x="551" y="332.0068"/><text fill="#000000" font-family="sans-serif" font-size="7" lengthAdjust="spacing" textLength="58.5" x="557" y="335.6553">_direction : double</text><line style="stroke:#181818;stroke-width:0.25;" x1="547.5" x2="726.5" y1="339.4121" y2="339.4121"/><ellipse cx="552.5" cy="346.8174" fill="#84BE84" rx="1.5" ry="1.5" style="stroke:#038048;stroke-width:0.5;"/><text fill="#000000" font-family="sans-serif" font-size="7" lengthAdjust="spacing" textLength="167" x="557" y="348.9658">WindSensorValue(speed: double, _direction: double)</text><ellipse cx="552.5" cy="356.1279" fill="#84BE84" rx="1.5" ry="1.5" style="stroke:#038048;stroke-width:0.5;"/><text fill="#000000" font-family="sans-serif" font-size="7" lengthAdjust="spacing" textLength="63" x="557" y="358.2764">getSpeed() : double</text><ellipse cx="552.5" cy="365.4385" fill="#84BE84" rx="1.5" ry="1.5" style="stroke:#038048;stroke-width:0.5;"/><text fill="#000000" font-family="sans-serif" font-size="7" lengthAdjust="spacing" textLength="70.5" x="557" y="367.5869">getDirection() : double</text></g><!--class SensorTypeID--><g id="elem_SensorTypeID"><rect codeLine="67" fill="#F1F1F1" height="86.1543" id="SensorTypeID" rx="1.25" ry="1.25" style="stroke:#181818;stroke-width:0.25;" width="129" x="850" y="290"/><ellipse cx="889.875" cy="301.1455" fill="#ADD1B2" rx="5.5" ry="5.5" style="stroke:#181818;stroke-width:0.5;"/><path d="M891.2578,299.083 Q891.3359,298.9736 891.4297,298.9189 Q891.5234,298.8643 891.6328,298.8643 Q891.8203,298.8643 891.9375,298.9971 Q892.0547,299.1221 892.0547,299.4268 L892.0547,300.1533 Q892.0547,300.458 891.9375,300.5908 Q891.8203,300.7236 891.6328,300.7236 Q891.4609,300.7236 891.3594,300.6221 Q891.2578,300.5283 891.2031,300.2705 Q891.1797,300.0908 891.0859,299.9971 Q890.9219,299.8096 890.6172,299.7002 Q890.3125,299.5908 890,299.5908 Q889.6172,299.5908 889.2969,299.7549 Q888.9844,299.9189 888.7344,300.2939 Q888.4922,300.6689 888.4922,301.1846 L888.4922,301.7314 Q888.4922,302.3486 888.9375,302.7627 Q889.3828,303.1689 890.1797,303.1689 Q890.6484,303.1689 890.9766,303.0439 Q891.1719,302.9658 891.3828,302.7471 Q891.5156,302.6143 891.5859,302.5752 Q891.6641,302.5361 891.7656,302.5361 Q891.9297,302.5361 892.0547,302.6689 Q892.1875,302.7939 892.1875,302.9658 Q892.1875,303.1377 892.0156,303.3408 Q891.7656,303.6299 891.3672,303.7939 Q890.8281,304.0205 890.1797,304.0205 Q889.4219,304.0205 888.8203,303.708 Q888.3281,303.458 887.9844,302.9268 Q887.6406,302.3877 887.6406,301.7471 L887.6406,301.1689 Q887.6406,300.5049 887.9453,299.9346 Q888.2578,299.3564 888.8047,299.0518 Q889.3516,298.7393 889.9688,298.7393 Q890.3359,298.7393 890.6563,298.8252 Q890.9844,298.9033 891.2578,299.083 Z " fill="#000000"/><text fill="#000000" font-family="sans-serif" font-size="6" font-style="italic" lengthAdjust="spacing" textLength="35.5" x="904.875" y="298.9746">&#171;DomainID&#187;</text><text fill="#000000" font-family="sans-serif" font-size="7" lengthAdjust="spacing" textLength="45" x="900.125" y="308.0342">SensorTypeID</text><line style="stroke:#181818;stroke-width:0.25;" x1="850.5" x2="978.5" y1="312.291" y2="312.291"/><rect fill="none" height="3" style="stroke:#C82930;stroke-width:0.5;" width="3" x="854" y="318.1963"/><text fill="#000000" font-family="sans-serif" font-size="7" lengthAdjust="spacing" textLength="32" x="860" y="321.8447">_id: String</text><line style="stroke:#181818;stroke-width:0.25;" x1="850.5" x2="978.5" y1="325.6016" y2="325.6016"/><ellipse cx="855.5" cy="333.0068" fill="#84BE84" rx="1.5" ry="1.5" style="stroke:#038048;stroke-width:0.5;"/><text fill="#000000" font-family="sans-serif" font-size="7" lengthAdjust="spacing" textLength="116" x="860" y="335.1553">SensorTypeID(strDescription: String)</text><ellipse cx="855.5" cy="342.3174" fill="#84BE84" rx="1.5" ry="1.5" style="stroke:#038048;stroke-width:0.5;"/><text fill="#000000" font-family="sans-serif" font-size="7" lengthAdjust="spacing" textLength="45" x="860" y="344.4658">getId() : String</text><ellipse cx="855.5" cy="351.6279" fill="#84BE84" rx="1.5" ry="1.5" style="stroke:#038048;stroke-width:0.5;"/><text fill="#000000" font-family="sans-serif" font-size="7" lengthAdjust="spacing" textLength="51" x="860" y="353.7764">hashCode() : int</text><ellipse cx="855.5" cy="360.9385" fill="#84BE84" rx="1.5" ry="1.5" style="stroke:#038048;stroke-width:0.5;"/><text fill="#000000" font-family="sans-serif" font-size="7" lengthAdjust="spacing" textLength="91.5" x="860" y="363.0869">equals(obj: Object) : boolean</text><ellipse cx="855.5" cy="370.249" fill="#84BE84" rx="1.5" ry="1.5" style="stroke:#038048;stroke-width:0.5;"/><text fill="#000000" font-family="sans-serif" font-size="7" lengthAdjust="spacing" textLength="54" x="860" y="372.3975">toString() : String</text></g><!--class ModelPath--><g id="elem_ModelPath"><rect codeLine="76" fill="#F1F1F1" height="58.2227" id="ModelPath" rx="1.25" ry="1.25" style="stroke:#181818;stroke-width:0.25;" width="116" x="988" y="304"/><ellipse cx="1027.125" cy="315.1455" fill="#ADD1B2" rx="5.5" ry="5.5" style="stroke:#181818;stroke-width:0.5;"/><path d="M1028.5078,313.083 Q1028.5859,312.9736 1028.6797,312.9189 Q1028.7734,312.8643 1028.8828,312.8643 Q1029.0703,312.8643 1029.1875,312.9971 Q1029.3047,313.1221 1029.3047,313.4268 L1029.3047,314.1533 Q1029.3047,314.458 1029.1875,314.5908 Q1029.0703,314.7236 1028.8828,314.7236 Q1028.7109,314.7236 1028.6094,314.6221 Q1028.5078,314.5283 1028.4531,314.2705 Q1028.4297,314.0908 1028.3359,313.9971 Q1028.1719,313.8096 1027.8672,313.7002 Q1027.5625,313.5908 1027.25,313.5908 Q1026.8672,313.5908 1026.5469,313.7549 Q1026.2344,313.9189 1025.9844,314.2939 Q1025.7422,314.6689 1025.7422,315.1846 L1025.7422,315.7314 Q1025.7422,316.3486 1026.1875,316.7627 Q1026.6328,317.1689 1027.4297,317.1689 Q1027.8984,317.1689 1028.2266,317.0439 Q1028.4219,316.9658 1028.6328,316.7471 Q1028.7656,316.6143 1028.8359,316.5752 Q1028.9141,316.5361 1029.0156,316.5361 Q1029.1797,316.5361 1029.3047,316.6689 Q1029.4375,316.7939 1029.4375,316.9658 Q1029.4375,317.1377 1029.2656,317.3408 Q1029.0156,317.6299 1028.6172,317.7939 Q1028.0781,318.0205 1027.4297,318.0205 Q1026.6719,318.0205 1026.0703,317.708 Q1025.5781,317.458 1025.2344,316.9268 Q1024.8906,316.3877 1024.8906,315.7471 L1024.8906,315.1689 Q1024.8906,314.5049 1025.1953,313.9346 Q1025.5078,313.3564 1026.0547,313.0518 Q1026.6016,312.7393 1027.2188,312.7393 Q1027.5859,312.7393 1027.9063,312.8252 Q1028.2344,312.9033 1028.5078,313.083 Z " fill="#000000"/><text fill="#000000" font-family="sans-serif" font-size="6" font-style="italic" lengthAdjust="spacing" textLength="35.5" x="1036.375" y="312.9746">&#171;DomainID&#187;</text><text fill="#000000" font-family="sans-serif" font-size="7" lengthAdjust="spacing" textLength="33.5" x="1037.375" y="322.0342">ModelPath</text><line style="stroke:#181818;stroke-width:0.25;" x1="988.5" x2="1103.5" y1="326.291" y2="326.291"/><rect fill="none" height="3" style="stroke:#C82930;stroke-width:0.5;" width="3" x="992" y="332.1963"/><text fill="#000000" font-family="sans-serif" font-size="7" lengthAdjust="spacing" textLength="40.5" x="998" y="335.8447">_path: String</text><line style="stroke:#181818;stroke-width:0.25;" x1="988.5" x2="1103.5" y1="339.6016" y2="339.6016"/><ellipse cx="993.5" cy="347.0068" fill="#84BE84" rx="1.5" ry="1.5" style="stroke:#038048;stroke-width:0.5;"/><text fill="#000000" font-family="sans-serif" font-size="7" lengthAdjust="spacing" textLength="103" x="998" y="349.1553">ModelPath(Object... parameters)</text><ellipse cx="993.5" cy="356.3174" fill="#84BE84" rx="1.5" ry="1.5" style="stroke:#038048;stroke-width:0.5;"/><text fill="#000000" font-family="sans-serif" font-size="7" lengthAdjust="spacing" textLength="46" x="998" y="358.4658">getID() : String</text></g><!--class DeviceID--><g id="elem_DeviceID"><rect codeLine="83" fill="#F1F1F1" height="86.1543" id="DeviceID" rx="1.25" ry="1.25" style="stroke:#181818;stroke-width:0.25;" width="104.5" x="736.25" y="290"/><ellipse cx="769.625" cy="301.1455" fill="#ADD1B2" rx="5.5" ry="5.5" style="stroke:#181818;stroke-width:0.5;"/><path d="M771.0078,299.083 Q771.0859,298.9736 771.1797,298.9189 Q771.2734,298.8643 771.3828,298.8643 Q771.5703,298.8643 771.6875,298.9971 Q771.8047,299.1221 771.8047,299.4268 L771.8047,300.1533 Q771.8047,300.458 771.6875,300.5908 Q771.5703,300.7236 771.3828,300.7236 Q771.2109,300.7236 771.1094,300.6221 Q771.0078,300.5283 770.9531,300.2705 Q770.9297,300.0908 770.8359,299.9971 Q770.6719,299.8096 770.3672,299.7002 Q770.0625,299.5908 769.75,299.5908 Q769.3672,299.5908 769.0469,299.7549 Q768.7344,299.9189 768.4844,300.2939 Q768.2422,300.6689 768.2422,301.1846 L768.2422,301.7314 Q768.2422,302.3486 768.6875,302.7627 Q769.1328,303.1689 769.9297,303.1689 Q770.3984,303.1689 770.7266,303.0439 Q770.9219,302.9658 771.1328,302.7471 Q771.2656,302.6143 771.3359,302.5752 Q771.4141,302.5361 771.5156,302.5361 Q771.6797,302.5361 771.8047,302.6689 Q771.9375,302.7939 771.9375,302.9658 Q771.9375,303.1377 771.7656,303.3408 Q771.5156,303.6299 771.1172,303.7939 Q770.5781,304.0205 769.9297,304.0205 Q769.1719,304.0205 768.5703,303.708 Q768.0781,303.458 767.7344,302.9268 Q767.3906,302.3877 767.3906,301.7471 L767.3906,301.1689 Q767.3906,300.5049 767.6953,299.9346 Q768.0078,299.3564 768.5547,299.0518 Q769.1016,298.7393 769.7188,298.7393 Q770.0859,298.7393 770.4063,298.8252 Q770.7344,298.9033 771.0078,299.083 Z " fill="#000000"/><text fill="#000000" font-family="sans-serif" font-size="6" font-style="italic" lengthAdjust="spacing" textLength="35.5" x="778.875" y="298.9746">&#171;DomainID&#187;</text><text fill="#000000" font-family="sans-serif" font-size="7" lengthAdjust="spacing" textLength="28" x="782.625" y="308.0342">DeviceID</text><line style="stroke:#181818;stroke-width:0.25;" x1="736.75" x2="840.25" y1="312.291" y2="312.291"/><rect fill="none" height="3" style="stroke:#C82930;stroke-width:0.5;" width="3" x="740.25" y="318.1963"/><text fill="#000000" font-family="sans-serif" font-size="7" lengthAdjust="spacing" textLength="32" x="746.25" y="321.8447">_id: String</text><line style="stroke:#181818;stroke-width:0.25;" x1="736.75" x2="840.25" y1="325.6016" y2="325.6016"/><ellipse cx="741.75" cy="333.0068" fill="#84BE84" rx="1.5" ry="1.5" style="stroke:#038048;stroke-width:0.5;"/><text fill="#000000" font-family="sans-serif" font-size="7" lengthAdjust="spacing" textLength="59" x="746.25" y="335.1553">DeviceID(String id)</text><ellipse cx="741.75" cy="342.3174" fill="#84BE84" rx="1.5" ry="1.5" style="stroke:#038048;stroke-width:0.5;"/><text fill="#000000" font-family="sans-serif" font-size="7" lengthAdjust="spacing" textLength="46" x="746.25" y="344.4658">getID() : String</text><ellipse cx="741.75" cy="351.6279" fill="#84BE84" rx="1.5" ry="1.5" style="stroke:#038048;stroke-width:0.5;"/><text fill="#000000" font-family="sans-serif" font-size="7" lengthAdjust="spacing" textLength="51" x="746.25" y="353.7764">hashCode() : int</text><ellipse cx="741.75" cy="360.9385" fill="#84BE84" rx="1.5" ry="1.5" style="stroke:#038048;stroke-width:0.5;"/><text fill="#000000" font-family="sans-serif" font-size="7" lengthAdjust="spacing" textLength="91.5" x="746.25" y="363.0869">equals(obj: Object) : boolean</text><ellipse cx="741.75" cy="370.249" fill="#84BE84" rx="1.5" ry="1.5" style="stroke:#038048;stroke-width:0.5;"/><text fill="#000000" font-family="sans-serif" font-size="7" lengthAdjust="spacing" textLength="54" x="746.25" y="372.3975">toString() : String</text></g><!--class DomainEntity--><g id="elem_DomainEntity"><rect codeLine="95" fill="#F1F1F1" height="24" id="DomainEntity" rx="1.25" ry="1.25" style="stroke:#181818;stroke-width:0.25;" width="57.5" x="935.25" y="449.5"/><ellipse cx="942.75" cy="457.5" fill="#B4A7E5" rx="5.5" ry="5.5" style="stroke:#181818;stroke-width:0.5;"/><path d="M943.2266,455.8203 L943.2266,459.1484 L944.0859,459.1484 Q944.3906,459.1484 944.5234,459.2656 Q944.6563,459.3828 944.6563,459.5781 Q944.6563,459.7656 944.5234,459.8828 Q944.3906,460 944.0859,460 L941.5156,460 Q941.2109,460 941.0781,459.8828 Q940.9453,459.7656 940.9453,459.5703 Q940.9453,459.3828 941.0781,459.2656 Q941.2109,459.1484 941.5156,459.1484 L942.375,459.1484 L942.375,455.8203 L941.5156,455.8203 Q941.2109,455.8203 941.0781,455.7031 Q940.9453,455.5859 940.9453,455.3906 Q940.9453,455.2031 941.0781,455.0859 Q941.2109,454.9688 941.5156,454.9688 L944.0859,454.9688 Q944.3906,454.9688 944.5234,455.0859 Q944.6563,455.2031 944.6563,455.3906 Q944.6563,455.5859 944.5234,455.7031 Q944.3906,455.8203 944.0859,455.8203 L943.2266,455.8203 Z " fill="#000000"/><text fill="#000000" font-family="sans-serif" font-size="7" font-style="italic" lengthAdjust="spacing" textLength="41.5" x="949.75" y="460.3984">DomainEntity</text><line style="stroke:#181818;stroke-width:0.25;" x1="935.75" x2="992.25" y1="465.5" y2="465.5"/><line style="stroke:#181818;stroke-width:0.25;" x1="935.75" x2="992.25" y1="469.5" y2="469.5"/></g><!--class DomainID--><g id="elem_DomainID"><rect codeLine="98" fill="#F1F1F1" height="24" id="DomainID" rx="1.25" ry="1.25" style="stroke:#181818;stroke-width:0.25;" width="47" x="936" y="492"/><ellipse cx="943.5" cy="500" fill="#B4A7E5" rx="5.5" ry="5.5" style="stroke:#181818;stroke-width:0.5;"/><path d="M943.9766,498.3203 L943.9766,501.6484 L944.8359,501.6484 Q945.1406,501.6484 945.2734,501.7656 Q945.4063,501.8828 945.4063,502.0781 Q945.4063,502.2656 945.2734,502.3828 Q945.1406,502.5 944.8359,502.5 L942.2656,502.5 Q941.9609,502.5 941.8281,502.3828 Q941.6953,502.2656 941.6953,502.0703 Q941.6953,501.8828 941.8281,501.7656 Q941.9609,501.6484 942.2656,501.6484 L943.125,501.6484 L943.125,498.3203 L942.2656,498.3203 Q941.9609,498.3203 941.8281,498.2031 Q941.6953,498.0859 941.6953,497.8906 Q941.6953,497.7031 941.8281,497.5859 Q941.9609,497.4688 942.2656,497.4688 L944.8359,497.4688 Q945.1406,497.4688 945.2734,497.5859 Q945.4063,497.7031 945.4063,497.8906 Q945.4063,498.0859 945.2734,498.2031 Q945.1406,498.3203 944.8359,498.3203 L943.9766,498.3203 Z " fill="#000000"/><text fill="#000000" font-family="sans-serif" font-size="7" font-style="italic" lengthAdjust="spacing" textLength="31" x="950.5" y="502.8984">DomainID</text><line style="stroke:#181818;stroke-width:0.25;" x1="936.5" x2="982.5" y1="508" y2="508"/><line style="stroke:#181818;stroke-width:0.25;" x1="936.5" x2="982.5" y1="512" y2="512"/></g><!--class AggregateRoot--><g id="elem_AggregateRoot"><rect codeLine="101" fill="#F1F1F1" height="24" id="AggregateRoot" rx="1.25" ry="1.25" style="stroke:#181818;stroke-width:0.25;" width="64" x="934" y="407"/><ellipse cx="941.5" cy="415" fill="#B4A7E5" rx="5.5" ry="5.5" style="stroke:#181818;stroke-width:0.5;"/><path d="M941.9766,413.3203 L941.9766,416.6484 L942.8359,416.6484 Q943.1406,416.6484 943.2734,416.7656 Q943.4063,416.8828 943.4063,417.0781 Q943.4063,417.2656 943.2734,417.3828 Q943.1406,417.5 942.8359,417.5 L940.2656,417.5 Q939.9609,417.5 939.8281,417.3828 Q939.6953,417.2656 939.6953,417.0703 Q939.6953,416.8828 939.8281,416.7656 Q939.9609,416.6484 940.2656,416.6484 L941.125,416.6484 L941.125,413.3203 L940.2656,413.3203 Q939.9609,413.3203 939.8281,413.2031 Q939.6953,413.0859 939.6953,412.8906 Q939.6953,412.7031 939.8281,412.5859 Q939.9609,412.4688 940.2656,412.4688 L942.8359,412.4688 Q943.1406,412.4688 943.2734,412.5859 Q943.4063,412.7031 943.4063,412.8906 Q943.4063,413.0859 943.2734,413.2031 Q943.1406,413.3203 942.8359,413.3203 L941.9766,413.3203 Z " fill="#000000"/><text fill="#000000" font-family="sans-serif" font-size="7" font-style="italic" lengthAdjust="spacing" textLength="48" x="948.5" y="417.8984">AggregateRoot</text><line style="stroke:#181818;stroke-width:0.25;" x1="934.5" x2="997.5" y1="423" y2="423"/><line style="stroke:#181818;stroke-width:0.25;" x1="934.5" x2="997.5" y1="427" y2="427"/></g><!--class ValueObject--><g id="elem_ValueObject"><rect codeLine="103" fill="#F1F1F1" height="24" id="ValueObject" rx="1.25" ry="1.25" style="stroke:#181818;stroke-width:0.25;" width="54.5" x="934.25" y="534.5"/><ellipse cx="941.75" cy="542.5" fill="#B4A7E5" rx="5.5" ry="5.5" style="stroke:#181818;stroke-width:0.5;"/><path d="M942.2266,540.8203 L942.2266,544.1484 L943.0859,544.1484 Q943.3906,544.1484 943.5234,544.2656 Q943.6563,544.3828 943.6563,544.5781 Q943.6563,544.7656 943.5234,544.8828 Q943.3906,545 943.0859,545 L940.5156,545 Q940.2109,545 940.0781,544.8828 Q939.9453,544.7656 939.9453,544.5703 Q939.9453,544.3828 940.0781,544.2656 Q940.2109,544.1484 940.5156,544.1484 L941.375,544.1484 L941.375,540.8203 L940.5156,540.8203 Q940.2109,540.8203 940.0781,540.7031 Q939.9453,540.5859 939.9453,540.3906 Q939.9453,540.2031 940.0781,540.0859 Q940.2109,539.9688 940.5156,539.9688 L943.0859,539.9688 Q943.3906,539.9688 943.5234,540.0859 Q943.6563,540.2031 943.6563,540.3906 Q943.6563,540.5859 943.5234,540.7031 Q943.3906,540.8203 943.0859,540.8203 L942.2266,540.8203 Z " fill="#000000"/><text fill="#000000" font-family="sans-serif" font-size="7" font-style="italic" lengthAdjust="spacing" textLength="38.5" x="948.75" y="545.3984">ValueObject</text><line style="stroke:#181818;stroke-width:0.25;" x1="934.75" x2="988.25" y1="550.5" y2="550.5"/><line style="stroke:#181818;stroke-width:0.25;" x1="934.75" x2="988.25" y1="554.5" y2="554.5"/></g><polygon fill="none" points="256.26,164.4972,265.6819,163.3889,263.1325,157.9575,256.26,164.4972" style="stroke:#181818;stroke-width:0.5;"/><path d="M490.0132,64.5343 C471.5348,71.2125 450.1548,79.1972 431,87 C368.6661,112.392 305.5482,141.3628 264.4072,160.6732 " fill="none" style="stroke:#181818;stroke-width:0.5;stroke-dasharray:7.0,7.0;"/><polygon fill="#181818" points="691.8208,101.4532,688.5071,97.8105,689.5324,100.4465,686.8964,101.4718,691.8208,101.4532" style="stroke:#181818;stroke-width:0.5;"/><path d="M592.9579,64.5166 C613.503,70.9095 636.7641,78.7046 657.5,87 C668.764,91.5061 677.5406,95.1711 689.0747,100.2452 " fill="none" style="stroke:#181818;stroke-width:0.5;stroke-dasharray:7.0,7.0;"/><text fill="#000000" font-family="sans-serif" font-size="6.5" lengthAdjust="spacing" textLength="21.5" x="645" y="81.0142">creates</text><text fill="#000000" font-family="sans-serif" font-size="6.5" lengthAdjust="spacing" textLength="3.5" x="687.8208" y="99.4673">1</text><text fill="#000000" font-family="sans-serif" font-size="6.5" lengthAdjust="spacing" textLength="3.5" x="588.9579" y="72.0307">1</text><polygon fill="none" points="1226.9306,289.9212,1220.2126,283.2228,1217.5372,288.5933,1226.9306,289.9212" style="stroke:#181818;stroke-width:0.5;"/><path d="M1042.9345,223.9188 C1102.4451,240.3398 1167.2623,261.7533 1224,288.5 C1224.9757,288.96 1217.8972,285.421 1218.8749,285.9081 " fill="none" style="stroke:#181818;stroke-width:0.5;stroke-dasharray:7.0,7.0;"/><polygon fill="#181818" points="691.0698,294.4111,695.9005,293.4546,693.1136,292.9714,693.5969,290.1845,691.0698,294.4111" style="stroke:#181818;stroke-width:0.5;"/><path d="M738.3597,261.0982 C721.8963,272.6957 708.0639,282.4398 693.5224,292.6834 " fill="none" style="stroke:#181818;stroke-width:0.5;"/><text fill="#000000" font-family="sans-serif" font-size="6.5" lengthAdjust="spacing" textLength="10.5" x="725" y="277.5142">has</text><text fill="#000000" font-family="sans-serif" font-size="6.5" lengthAdjust="spacing" textLength="3.5" x="687.0698" y="292.4253">1</text><text fill="#000000" font-family="sans-serif" font-size="6.5" lengthAdjust="spacing" textLength="3.5" x="738.8597" y="268.6124">1</text><polygon fill="#181818" points="896.5647,289.9213,896.661,284.9978,895.5942,287.6173,892.9747,286.5506,896.5647,289.9213" style="stroke:#181818;stroke-width:0.5;"/><path d="M884.4236,261.0982 C888.6067,271.0288 891.5863,278.1025 895.4001,287.1565 " fill="none" style="stroke:#181818;stroke-width:0.5;"/><text fill="#000000" font-family="sans-serif" font-size="6.5" lengthAdjust="spacing" textLength="10.5" x="892.5" y="277.5142">has</text><text fill="#000000" font-family="sans-serif" font-size="6.5" lengthAdjust="spacing" textLength="3.5" x="892.5647" y="287.9354">1</text><text fill="#000000" font-family="sans-serif" font-size="6.5" lengthAdjust="spacing" textLength="3.5" x="880.4236" y="268.6124">1</text><polygon fill="#181818" points="1113.2151,291.3339,1110.4494,287.2595,1111.0919,290.014,1108.3375,290.6565,1113.2151,291.3339" style="stroke:#181818;stroke-width:0.5;"/><path d="M1042.8825,254.6252 C1065.4348,265.1323 1087.7734,276.4894 1108.5,288.5 C1110.0684,289.4088 1109.0942,288.772 1110.6673,289.75 " fill="none" style="stroke:#181818;stroke-width:0.5;"/><text fill="#000000" font-family="sans-serif" font-size="6.5" lengthAdjust="spacing" textLength="10.5" x="1089" y="277.5142">has</text><text fill="#000000" font-family="sans-serif" font-size="6.5" lengthAdjust="spacing" textLength="3.5" x="1109.2151" y="289.348">1</text><text fill="#000000" font-family="sans-serif" font-size="6.5" lengthAdjust="spacing" textLength="3.5" x="1043.3825" y="252.6393">1</text><polygon fill="#181818" points="806.1529,289.9213,809.7238,286.5303,807.1103,287.6119,806.0288,284.9984,806.1529,289.9213" style="stroke:#181818;stroke-width:0.5;"/><path d="M818.1027,261.0982 C813.9856,271.0288 811.0556,278.0959 807.3018,287.15 " fill="none" style="stroke:#181818;stroke-width:0.5;"/><text fill="#000000" font-family="sans-serif" font-size="6.5" lengthAdjust="spacing" textLength="10.5" x="814.5" y="277.5142">has</text><text fill="#000000" font-family="sans-serif" font-size="6.5" lengthAdjust="spacing" textLength="3.5" x="802.1529" y="287.9354">1</text><text fill="#000000" font-family="sans-serif" font-size="6.5" lengthAdjust="spacing" textLength="3.5" x="814.1027" y="268.6124">1</text><polygon fill="#181818" points="1008.9564,303.8624,1006.6195,299.5278,1006.9785,302.3334,1004.173,302.6925,1008.9564,303.8624" style="stroke:#181818;stroke-width:0.5;"/><path d="M953.6395,261.0982 C973.4583,276.4197 990.6198,289.6868 1006.5829,302.0276 " fill="none" style="stroke:#181818;stroke-width:0.5;"/><text fill="#000000" font-family="sans-serif" font-size="6.5" lengthAdjust="spacing" textLength="10.5" x="977.5" y="277.5142">has</text><text fill="#000000" font-family="sans-serif" font-size="6.5" lengthAdjust="spacing" textLength="3.5" x="1004.9564" y="301.8766">1</text><text fill="#000000" font-family="sans-serif" font-size="6.5" lengthAdjust="spacing" textLength="3.5" x="949.6395" y="268.6124">1</text><polygon fill="#181818" points="518.3059,303.9992,523.0882,302.8244,520.2823,302.4681,520.6385,299.6622,518.3059,303.9992" style="stroke:#181818;stroke-width:0.5;"/><path d="M659.1864,260.4546 C658.6236,260.6373 658.0615,260.8191 657.5,261 C607.4805,277.1176 589.7117,265.418 542.5,288.5 C534.0961,292.6087 528.175,296.3537 520.6775,302.1619 " fill="none" style="stroke:#181818;stroke-width:0.5;"/><text fill="#000000" font-family="sans-serif" font-size="6.5" lengthAdjust="spacing" textLength="10.5" x="615.5" y="277.5142">has</text><text fill="#000000" font-family="sans-serif" font-size="6.5" lengthAdjust="spacing" textLength="3.5" x="514.3059" y="302.0133">1</text><text fill="#000000" font-family="sans-serif" font-size="6.5" lengthAdjust="spacing" textLength="3.5" x="655.1864" y="258.4687">1</text><polygon fill="none" points="934.1302,544.3582,925.3457,540.7759,924.9532,546.7631,934.1302,544.3582" style="stroke:#181818;stroke-width:0.5;"/><path d="M687.0817,371.6775 C698.8303,384.8575 708,400.8104 708,418.5 C708,418.5 708,418.5 708,504.5 C708,527.2162 859.5999,539.4725 925.1495,543.7695 " fill="none" style="stroke:#181818;stroke-width:0.5;stroke-dasharray:7.0,7.0;"/><polygon fill="none" points="934.1037,545.7861,925.1403,542.6782,925.0683,548.6777,934.1037,545.7861" style="stroke:#181818;stroke-width:0.5;"/><path d="M517.0723,362.0872 C525.119,369.4644 533.9721,377.2291 542.5,384 C563.7881,400.9021 593,391.3179 593,418.5 C593,418.5 593,418.5 593,504.5 C593,538.8227 839.7035,544.6521 925.1043,545.678 " fill="none" style="stroke:#181818;stroke-width:0.5;stroke-dasharray:7.0,7.0;"/><polygon fill="none" points="960.7624,491.858,964.7151,483.2339,958.7501,482.587,960.7624,491.858" style="stroke:#181818;stroke-width:0.5;"/><path d="M962.7465,473.5601 C962.1276,479.2681 962.3527,477.1913 961.7326,482.9104 " fill="none" style="stroke:#181818;stroke-width:0.5;"/><polygon fill="none" points="964.5611,449.358,967.9908,440.5128,961.9978,440.224,964.5611,449.358" style="stroke:#181818;stroke-width:0.5;"/><path d="M965.4429,431.0601 C965.1678,436.7681 965.2699,434.6493 964.9943,440.3684 " fill="none" style="stroke:#181818;stroke-width:0.5;"/><polygon fill="none" points="998.1208,416.3321,1007.3161,418.6661,1006.8774,412.6821,998.1208,416.3321" style="stroke:#181818;stroke-width:0.5;"/><path d="M1236.7073,377.5537 C1232.5568,379.9884 1228.3011,382.1791 1224,384 C1183.894,400.9795 1066.8969,411.2904 1007.0967,415.6741 " fill="none" style="stroke:#181818;stroke-width:0.5;"/><polygon fill="none" points="935.9486,495.3228,929.5262,488.3404,926.6213,493.5903,935.9486,495.3228" style="stroke:#181818;stroke-width:0.5;"/><path d="M906.1304,376.1049 C902.2248,407.9601 902.1118,451.3004 922,483 C925.3123,488.2795 922.6136,487.9441 928.0737,490.9654 " fill="none" style="stroke:#181818;stroke-width:0.5;stroke-dasharray:7.0,7.0;"/><polygon fill="none" points="974.1442,491.9958,983.0707,488.7837,979.3582,484.0702,974.1442,491.9958" style="stroke:#181818;stroke-width:0.5;"/><path d="M1117.7469,376.0952 C1114.6309,378.7855 1111.529,381.4394 1108.5,384 C1060.1034,424.9123 1047.0372,433.9764 997.5,473.5 C989.8127,479.6334 988.285,480.858 981.2144,486.427 " fill="none" style="stroke:#181818;stroke-width:0.5;stroke-dasharray:7.0,7.0;"/><polygon fill="none" points="944.6487,491.9025,940.1806,483.5337,936.053,487.8883,944.6487,491.9025" style="stroke:#181818;stroke-width:0.5;"/><path d="M1017.1474,362.049 C1007.2184,370.3688 995.5485,378.6503 983.5,384 C961.2949,393.8593 945.2875,374.0331 929.5,392.5 C926.9475,395.4857 930.7841,472.9858 931,473.5 C933.948,480.5212 932.8091,480.6799 938.1168,485.711 " fill="none" style="stroke:#181818;stroke-width:0.5;stroke-dasharray:7.0,7.0;"/><polygon fill="none" points="935.965,493.2922,929.2906,486.5503,926.5804,491.9033,935.965,493.2922" style="stroke:#181818;stroke-width:0.5;"/><path d="M819.5801,376.1185 C841.8944,405.2337 873.6312,443.7729 906,473.5 C914.745,481.5313 917.9919,484.1923 927.9355,489.2268 " fill="none" style="stroke:#181818;stroke-width:0.5;stroke-dasharray:7.0,7.0;"/><polygon fill="none" points="960.9389,534.358,963.5022,525.224,957.5092,525.5128,960.9389,534.358" style="stroke:#181818;stroke-width:0.5;"/><path d="M960.0571,516.0601 C960.3322,521.7681 960.2301,519.6493 960.5057,525.3684 " fill="none" style="stroke:#181818;stroke-width:0.5;"/><!--SRC=[pLPBZzCm4BxxLvWzjTes4jUggeG8I3qi88hWYDpOf5cIE2GkKWNzx_YPU1odwdQ588VMyNmpcTTdpukc9Nb5S4bE_2XmLp51Qe9GGxBl96UOyeeKTR9ZTSTR_0iXB9-Y5gpzHZA6pVvRaWdUdgGOs-SUPoqZWXdvZBAVHSQsALxXr2uNkEAKbH-8ECZT1xTUu4whV3er1h_pNftm7QbOBr8lS_UY7JZhtwmaNGSTt5PDEUta-_qZoqII9BWXhJGgO-n2mz7mWScSYMqww_MsAPGfRttFeRHFWpBGlq2Cdv3XE-RTGmg-4srHvngYLz3CPr8UcHBgXOaT8bob5CYjRHhE4msIV2bg2dl5b64AvIkirwmMXJXjDdBvaNCX5qDcrRF4NwDD4u8ckYGEyxhCIo20H9inX0wHw8nATB0JAaH8WG3cthFmzoaKVDhsyLHk-cRs8ACSXpqzMRD8Or_ATj2UEEZFM9zVA8TiPWIF2vsSzTfZHgmLQqDbo2tptS7ChBQ9rh3vfHmEXen7q2TPoVKwrJJQfi0TwKf18oHtUhD1EaVH0eUQ1z8TNij2QQayxJmH-t4aPJVZ-ySLDgbHc3td9IDrzFWPXJP45b8cdd95muOnAWrHVjoNpEtIefMuWjTGSX_QdMbrXrbuYcvlZeOkL5ZjDJ2f6ivfXTBpk5gMUpTLp3AW4stAkgmj6kDfl8BqtrQmfpC8TKILHY8cg38S3z7xT_fKWiOWPTnnyDG2z6UAaU22_W-C6T-sb59plmwZY8dpZRv1TQJdc5oc929xbUSjo-Kaf6vT2m1pZaTBcqNjrNYuIfBV6pXpHK1tB-yaSAF_hnaCLdPEwn2w1gvzW40xmrsZhPnQBgzspjtriW6UP5ulTl2UVeQDs_NJOQwuIV_16q6U4O2THvG5T7NQ_KfBIYJ-AEkPlGH3W3VBfKGwfY182qzcqA6ZDZYDyxu6h3ZEs9g7dlMVxgiwYHZoFWdfIpk9YEoD_FUpzGS0]--></g></svg>