<?xml version="1.0" encoding="us-ascii" standalone="no"?><svg xmlns="http://www.w3.org/2000/svg" xmlns:xlink="http://www.w3.org/1999/xlink" contentStyleType="text/css" height="441px" preserveAspectRatio="none" style="width:1308px;height:441px;background:#FFFFFF;" version="1.1" viewBox="0 0 1308 441" width="1308px" zoomAndPan="magnify"><defs/><g><!--cluster SmartHome--><g id="cluster_SmartHome"><path d="M16.5,4 L97.5,4 A3.75,3.75 0 0 1 100,6.5 L107,28.6211 L1298.5,28.6211 A2.5,2.5 0 0 1 1301,31.1211 L1301,431.5 A2.5,2.5 0 0 1 1298.5,434 L16.5,434 A2.5,2.5 0 0 1 14,431.5 L14,6.5 A2.5,2.5 0 0 1 16.5,4 " fill="none" style="stroke:#000000;stroke-width:1.5;"/><line style="stroke:#000000;stroke-width:1.5;" x1="14" x2="107" y1="28.6211" y2="28.6211"/><text fill="#000000" font-family="sans-serif" font-size="14" font-weight="bold" lengthAdjust="spacing" textLength="80" x="18" y="21.1074">SmartHome</text></g><!--cluster sensors--><g id="cluster_sensors"><path d="M24.5,33 L82.5,33 A3.75,3.75 0 0 1 85,35.5 L92,57.6211 L445.5,57.6211 A2.5,2.5 0 0 1 448,60.1211 L448,423.5 A2.5,2.5 0 0 1 445.5,426 L24.5,426 A2.5,2.5 0 0 1 22,423.5 L22,35.5 A2.5,2.5 0 0 1 24.5,33 " fill="none" style="stroke:#000000;stroke-width:1.5;"/><line style="stroke:#000000;stroke-width:1.5;" x1="22" x2="92" y1="57.6211" y2="57.6211"/><text fill="#000000" font-family="sans-serif" font-size="14" font-weight="bold" lengthAdjust="spacing" textLength="57" x="26" y="50.1074">sensors</text></g><!--cluster domain--><g id="cluster_domain"><path d="M485.5,276 L537.5,276 A3.75,3.75 0 0 1 540,278.5 L547,300.6211 L1290.5,300.6211 A2.5,2.5 0 0 1 1293,303.1211 L1293,395.5 A2.5,2.5 0 0 1 1290.5,398 L485.5,398 A2.5,2.5 0 0 1 483,395.5 L483,278.5 A2.5,2.5 0 0 1 485.5,276 " fill="none" style="stroke:#000000;stroke-width:1.5;"/><line style="stroke:#000000;stroke-width:1.5;" x1="483" x2="547" y1="300.6211" y2="300.6211"/><text fill="#000000" font-family="sans-serif" font-size="14" font-weight="bold" lengthAdjust="spacing" textLength="51" x="487" y="293.1074">domain</text></g><!--class WindSensor--><g id="elem_WindSensor"><rect codeLine="6" fill="#F1F1F1" height="159.7266" id="WindSensor" rx="2.5" ry="2.5" style="stroke:#181818;stroke-width:0.5;" width="410" x="30" y="62"/><ellipse cx="192.25" cy="78" fill="#ADD1B2" rx="11" ry="11" style="stroke:#181818;stroke-width:1.0;"/><path d="M195.0156,73.875 Q195.1719,73.6563 195.3594,73.5469 Q195.5469,73.4375 195.7656,73.4375 Q196.1406,73.4375 196.375,73.7031 Q196.6094,73.9531 196.6094,74.5625 L196.6094,76.0156 Q196.6094,76.625 196.375,76.8906 Q196.1406,77.1563 195.7656,77.1563 Q195.4219,77.1563 195.2188,76.9531 Q195.0156,76.7656 194.9063,76.25 Q194.8594,75.8906 194.6719,75.7031 Q194.3438,75.3281 193.7344,75.1094 Q193.125,74.8906 192.5,74.8906 Q191.7344,74.8906 191.0938,75.2188 Q190.4688,75.5469 189.9688,76.2969 Q189.4844,77.0469 189.4844,78.0781 L189.4844,79.1719 Q189.4844,80.4063 190.375,81.2344 Q191.2656,82.0469 192.8594,82.0469 Q193.7969,82.0469 194.4531,81.7969 Q194.8438,81.6406 195.2656,81.2031 Q195.5313,80.9375 195.6719,80.8594 Q195.8281,80.7813 196.0313,80.7813 Q196.3594,80.7813 196.6094,81.0469 Q196.875,81.2969 196.875,81.6406 Q196.875,81.9844 196.5313,82.3906 Q196.0313,82.9688 195.2344,83.2969 Q194.1563,83.75 192.8594,83.75 Q191.3438,83.75 190.1406,83.125 Q189.1563,82.625 188.4688,81.5625 Q187.7813,80.4844 187.7813,79.2031 L187.7813,78.0469 Q187.7813,76.7188 188.3906,75.5781 Q189.0156,74.4219 190.1094,73.8125 Q191.2031,73.1875 192.4375,73.1875 Q193.1719,73.1875 193.8125,73.3594 Q194.4688,73.5156 195.0156,73.875 Z " fill="#000000"/><text fill="#000000" font-family="sans-serif" font-size="14" lengthAdjust="spacing" textLength="77" x="212.75" y="83.7969">WindSensor</text><line style="stroke:#181818;stroke-width:0.5;" x1="31" x2="439" y1="94" y2="94"/><rect fill="none" height="6" style="stroke:#C82930;stroke-width:1.0;" width="6" x="38" y="105.8105"/><text fill="#000000" font-family="sans-serif" font-size="14" lengthAdjust="spacing" textLength="202" x="50" y="113.1074">final _sensorType : SensorType</text><rect fill="none" height="6" style="stroke:#C82930;stroke-width:1.0;" width="6" x="38" y="124.4316"/><text fill="#000000" font-family="sans-serif" font-size="14" lengthAdjust="spacing" textLength="167" x="50" y="131.7285">_value : WindSensorValue</text><line style="stroke:#181818;stroke-width:0.5;" x1="31" x2="439" y1="139.2422" y2="139.2422"/><ellipse cx="41" cy="154.0527" fill="#84BE84" rx="3" ry="3" style="stroke:#038048;stroke-width:1.0;"/><text fill="#000000" font-family="sans-serif" font-size="14" lengthAdjust="spacing" textLength="271" x="50" y="158.3496">WindSensor(catalogue : CatalogueSensor)</text><ellipse cx="41" cy="172.6738" fill="#84BE84" rx="3" ry="3" style="stroke:#038048;stroke-width:1.0;"/><text fill="#000000" font-family="sans-serif" font-size="14" lengthAdjust="spacing" textLength="384" x="50" y="176.9707">setSensorType(catalogue : CatalogueSensor) : SensorType)</text><ellipse cx="41" cy="191.2949" fill="#84BE84" rx="3" ry="3" style="stroke:#038048;stroke-width:1.0;"/><text fill="#000000" font-family="sans-serif" font-size="14" lengthAdjust="spacing" textLength="196" x="50" y="195.5918">getSensorType() : SensorType</text><ellipse cx="41" cy="209.916" fill="#84BE84" rx="3" ry="3" style="stroke:#038048;stroke-width:1.0;"/><text fill="#000000" font-family="sans-serif" font-size="14" lengthAdjust="spacing" textLength="114" x="50" y="214.2129">getValue() : Value</text></g><!--class WindSensorValue--><g id="elem_WindSensorValue"><rect codeLine="15" fill="#F1F1F1" height="141.1055" id="WindSensorValue" rx="2.5" ry="2.5" style="stroke:#181818;stroke-width:0.5;" width="360" x="30" y="277"/><ellipse cx="149.25" cy="293" fill="#ADD1B2" rx="11" ry="11" style="stroke:#181818;stroke-width:1.0;"/><path d="M152.0156,288.875 Q152.1719,288.6563 152.3594,288.5469 Q152.5469,288.4375 152.7656,288.4375 Q153.1406,288.4375 153.375,288.7031 Q153.6094,288.9531 153.6094,289.5625 L153.6094,291.0156 Q153.6094,291.625 153.375,291.8906 Q153.1406,292.1563 152.7656,292.1563 Q152.4219,292.1563 152.2188,291.9531 Q152.0156,291.7656 151.9063,291.25 Q151.8594,290.8906 151.6719,290.7031 Q151.3438,290.3281 150.7344,290.1094 Q150.125,289.8906 149.5,289.8906 Q148.7344,289.8906 148.0938,290.2188 Q147.4688,290.5469 146.9688,291.2969 Q146.4844,292.0469 146.4844,293.0781 L146.4844,294.1719 Q146.4844,295.4063 147.375,296.2344 Q148.2656,297.0469 149.8594,297.0469 Q150.7969,297.0469 151.4531,296.7969 Q151.8438,296.6406 152.2656,296.2031 Q152.5313,295.9375 152.6719,295.8594 Q152.8281,295.7813 153.0313,295.7813 Q153.3594,295.7813 153.6094,296.0469 Q153.875,296.2969 153.875,296.6406 Q153.875,296.9844 153.5313,297.3906 Q153.0313,297.9688 152.2344,298.2969 Q151.1563,298.75 149.8594,298.75 Q148.3438,298.75 147.1406,298.125 Q146.1563,297.625 145.4688,296.5625 Q144.7813,295.4844 144.7813,294.2031 L144.7813,293.0469 Q144.7813,291.7188 145.3906,290.5781 Q146.0156,289.4219 147.1094,288.8125 Q148.2031,288.1875 149.4375,288.1875 Q150.1719,288.1875 150.8125,288.3594 Q151.4688,288.5156 152.0156,288.875 Z " fill="#000000"/><text fill="#000000" font-family="sans-serif" font-size="14" lengthAdjust="spacing" textLength="113" x="169.75" y="298.7969">WindSensorValue</text><line style="stroke:#181818;stroke-width:0.5;" x1="31" x2="389" y1="309" y2="309"/><rect fill="none" height="6" style="stroke:#C82930;stroke-width:1.0;" width="6" x="38" y="320.8105"/><text fill="#000000" font-family="sans-serif" font-size="14" lengthAdjust="spacing" textLength="102" x="50" y="328.1074">_speed : double</text><rect fill="none" height="6" style="stroke:#C82930;stroke-width:1.0;" width="6" x="38" y="339.4316"/><text fill="#000000" font-family="sans-serif" font-size="14" lengthAdjust="spacing" textLength="117" x="50" y="346.7285">_direction : double</text><line style="stroke:#181818;stroke-width:0.5;" x1="31" x2="389" y1="354.2422" y2="354.2422"/><ellipse cx="41" cy="369.0527" fill="#84BE84" rx="3" ry="3" style="stroke:#038048;stroke-width:1.0;"/><text fill="#000000" font-family="sans-serif" font-size="14" lengthAdjust="spacing" textLength="334" x="50" y="373.3496">WindSensorValue(speed : double, direction : double)</text><ellipse cx="41" cy="387.6738" fill="#84BE84" rx="3" ry="3" style="stroke:#038048;stroke-width:1.0;"/><text fill="#000000" font-family="sans-serif" font-size="14" lengthAdjust="spacing" textLength="126" x="50" y="391.9707">getSpeed() : double</text><ellipse cx="41" cy="406.2949" fill="#84BE84" rx="3" ry="3" style="stroke:#038048;stroke-width:1.0;"/><text fill="#000000" font-family="sans-serif" font-size="14" lengthAdjust="spacing" textLength="141" x="50" y="410.5918">getDirection() : double</text></g><!--class Value--><g id="elem_Value"><rect codeLine="35" fill="#F1F1F1" height="48" id="Value" rx="2.5" ry="2.5" style="stroke:#181818;stroke-width:0.5;" width="68" x="491" y="323.5"/><ellipse cx="506" cy="339.5" fill="#B4A7E5" rx="11" ry="11" style="stroke:#181818;stroke-width:1.0;"/><path d="M506.9531,336.1406 L506.9531,342.7969 L508.6719,342.7969 Q509.2813,342.7969 509.5469,343.0313 Q509.8125,343.2656 509.8125,343.6563 Q509.8125,344.0313 509.5469,344.2656 Q509.2813,344.5 508.6719,344.5 L503.5313,344.5 Q502.9219,344.5 502.6563,344.2656 Q502.3906,344.0313 502.3906,343.6406 Q502.3906,343.2656 502.6563,343.0313 Q502.9219,342.7969 503.5313,342.7969 L505.25,342.7969 L505.25,336.1406 L503.5313,336.1406 Q502.9219,336.1406 502.6563,335.9063 Q502.3906,335.6719 502.3906,335.2813 Q502.3906,334.9063 502.6563,334.6719 Q502.9219,334.4375 503.5313,334.4375 L508.6719,334.4375 Q509.2813,334.4375 509.5469,334.6719 Q509.8125,334.9063 509.8125,335.2813 Q509.8125,335.6719 509.5469,335.9063 Q509.2813,336.1406 508.6719,336.1406 L506.9531,336.1406 Z " fill="#000000"/><text fill="#000000" font-family="sans-serif" font-size="14" font-style="italic" lengthAdjust="spacing" textLength="36" x="520" y="345.2969">Value</text><line style="stroke:#181818;stroke-width:0.5;" x1="492" x2="558" y1="355.5" y2="355.5"/><line style="stroke:#181818;stroke-width:0.5;" x1="492" x2="558" y1="363.5" y2="363.5"/></g><!--class Sensor--><g id="elem_Sensor"><rect codeLine="27" fill="#F1F1F1" height="85.2422" id="Sensor" rx="2.5" ry="2.5" style="stroke:#181818;stroke-width:0.5;" width="222" x="577" y="305"/><ellipse cx="661.25" cy="321" fill="#B4A7E5" rx="11" ry="11" style="stroke:#181818;stroke-width:1.0;"/><path d="M662.2031,317.6406 L662.2031,324.2969 L663.9219,324.2969 Q664.5313,324.2969 664.7969,324.5313 Q665.0625,324.7656 665.0625,325.1563 Q665.0625,325.5313 664.7969,325.7656 Q664.5313,326 663.9219,326 L658.7813,326 Q658.1719,326 657.9063,325.7656 Q657.6406,325.5313 657.6406,325.1406 Q657.6406,324.7656 657.9063,324.5313 Q658.1719,324.2969 658.7813,324.2969 L660.5,324.2969 L660.5,317.6406 L658.7813,317.6406 Q658.1719,317.6406 657.9063,317.4063 Q657.6406,317.1719 657.6406,316.7813 Q657.6406,316.4063 657.9063,316.1719 Q658.1719,315.9375 658.7813,315.9375 L663.9219,315.9375 Q664.5313,315.9375 664.7969,316.1719 Q665.0625,316.4063 665.0625,316.7813 Q665.0625,317.1719 664.7969,317.4063 Q664.5313,317.6406 663.9219,317.6406 L662.2031,317.6406 Z " fill="#000000"/><text fill="#000000" font-family="sans-serif" font-size="14" font-style="italic" lengthAdjust="spacing" textLength="45" x="681.75" y="326.7969">Sensor</text><line style="stroke:#181818;stroke-width:0.5;" x1="578" x2="798" y1="337" y2="337"/><line style="stroke:#181818;stroke-width:0.5;" x1="578" x2="798" y1="345" y2="345"/><ellipse cx="588" cy="359.8105" fill="#84BE84" rx="3" ry="3" style="stroke:#038048;stroke-width:1.0;"/><text fill="#000000" font-family="sans-serif" font-size="14" lengthAdjust="spacing" textLength="196" x="597" y="364.1074">getSensorType() : SensorType</text><ellipse cx="588" cy="378.4316" fill="#84BE84" rx="3" ry="3" style="stroke:#038048;stroke-width:1.0;"/><text fill="#000000" font-family="sans-serif" font-size="14" lengthAdjust="spacing" textLength="114" x="597" y="382.7285">getValue() : Value</text></g><!--class SensorType--><g id="elem_SensorType"><rect codeLine="32" fill="#F1F1F1" height="48" id="SensorType" rx="2.5" ry="2.5" style="stroke:#181818;stroke-width:0.5;" width="109" x="817.5" y="323.5"/><ellipse cx="832.5" cy="339.5" fill="#ADD1B2" rx="11" ry="11" style="stroke:#181818;stroke-width:1.0;"/><path d="M835.2656,335.375 Q835.4219,335.1563 835.6094,335.0469 Q835.7969,334.9375 836.0156,334.9375 Q836.3906,334.9375 836.625,335.2031 Q836.8594,335.4531 836.8594,336.0625 L836.8594,337.5156 Q836.8594,338.125 836.625,338.3906 Q836.3906,338.6563 836.0156,338.6563 Q835.6719,338.6563 835.4688,338.4531 Q835.2656,338.2656 835.1563,337.75 Q835.1094,337.3906 834.9219,337.2031 Q834.5938,336.8281 833.9844,336.6094 Q833.375,336.3906 832.75,336.3906 Q831.9844,336.3906 831.3438,336.7188 Q830.7188,337.0469 830.2188,337.7969 Q829.7344,338.5469 829.7344,339.5781 L829.7344,340.6719 Q829.7344,341.9063 830.625,342.7344 Q831.5156,343.5469 833.1094,343.5469 Q834.0469,343.5469 834.7031,343.2969 Q835.0938,343.1406 835.5156,342.7031 Q835.7813,342.4375 835.9219,342.3594 Q836.0781,342.2813 836.2813,342.2813 Q836.6094,342.2813 836.8594,342.5469 Q837.125,342.7969 837.125,343.1406 Q837.125,343.4844 836.7813,343.8906 Q836.2813,344.4688 835.4844,344.7969 Q834.4063,345.25 833.1094,345.25 Q831.5938,345.25 830.3906,344.625 Q829.4063,344.125 828.7188,343.0625 Q828.0313,341.9844 828.0313,340.7031 L828.0313,339.5469 Q828.0313,338.2188 828.6406,337.0781 Q829.2656,335.9219 830.3594,335.3125 Q831.4531,334.6875 832.6875,334.6875 Q833.4219,334.6875 834.0625,334.8594 Q834.7188,335.0156 835.2656,335.375 Z " fill="#000000"/><text fill="#000000" font-family="sans-serif" font-size="14" lengthAdjust="spacing" textLength="77" x="846.5" y="345.2969">SensorType</text><line style="stroke:#181818;stroke-width:0.5;" x1="818.5" x2="925.5" y1="355.5" y2="355.5"/><line style="stroke:#181818;stroke-width:0.5;" x1="818.5" x2="925.5" y1="363.5" y2="363.5"/></g><!--class CatalogueSensor--><g id="elem_CatalogueSensor"><rect codeLine="38" fill="#F1F1F1" height="66.6211" id="CatalogueSensor" rx="2.5" ry="2.5" style="stroke:#181818;stroke-width:0.5;" width="340" x="945" y="314"/><ellipse cx="1055.75" cy="330" fill="#ADD1B2" rx="11" ry="11" style="stroke:#181818;stroke-width:1.0;"/><path d="M1058.5156,325.875 Q1058.6719,325.6563 1058.8594,325.5469 Q1059.0469,325.4375 1059.2656,325.4375 Q1059.6406,325.4375 1059.875,325.7031 Q1060.1094,325.9531 1060.1094,326.5625 L1060.1094,328.0156 Q1060.1094,328.625 1059.875,328.8906 Q1059.6406,329.1563 1059.2656,329.1563 Q1058.9219,329.1563 1058.7188,328.9531 Q1058.5156,328.7656 1058.4063,328.25 Q1058.3594,327.8906 1058.1719,327.7031 Q1057.8438,327.3281 1057.2344,327.1094 Q1056.625,326.8906 1056,326.8906 Q1055.2344,326.8906 1054.5938,327.2188 Q1053.9688,327.5469 1053.4688,328.2969 Q1052.9844,329.0469 1052.9844,330.0781 L1052.9844,331.1719 Q1052.9844,332.4063 1053.875,333.2344 Q1054.7656,334.0469 1056.3594,334.0469 Q1057.2969,334.0469 1057.9531,333.7969 Q1058.3438,333.6406 1058.7656,333.2031 Q1059.0313,332.9375 1059.1719,332.8594 Q1059.3281,332.7813 1059.5313,332.7813 Q1059.8594,332.7813 1060.1094,333.0469 Q1060.375,333.2969 1060.375,333.6406 Q1060.375,333.9844 1060.0313,334.3906 Q1059.5313,334.9688 1058.7344,335.2969 Q1057.6563,335.75 1056.3594,335.75 Q1054.8438,335.75 1053.6406,335.125 Q1052.6563,334.625 1051.9688,333.5625 Q1051.2813,332.4844 1051.2813,331.2031 L1051.2813,330.0469 Q1051.2813,328.7188 1051.8906,327.5781 Q1052.5156,326.4219 1053.6094,325.8125 Q1054.7031,325.1875 1055.9375,325.1875 Q1056.6719,325.1875 1057.3125,325.3594 Q1057.9688,325.5156 1058.5156,325.875 Z " fill="#000000"/><text fill="#000000" font-family="sans-serif" font-size="14" lengthAdjust="spacing" textLength="110" x="1076.25" y="335.7969">CatalogueSensor</text><line style="stroke:#181818;stroke-width:0.5;" x1="946" x2="1284" y1="346" y2="346"/><line style="stroke:#181818;stroke-width:0.5;" x1="946" x2="1284" y1="354" y2="354"/><ellipse cx="956" cy="368.8105" fill="#84BE84" rx="3" ry="3" style="stroke:#038048;stroke-width:1.0;"/><text fill="#000000" font-family="sans-serif" font-size="14" lengthAdjust="spacing" textLength="314" x="965" y="373.1074">getSensorType(description : String) : SensorType</text></g><polygon fill="none" points="490.7896,347.5,472.7896,341.5,472.7896,353.5,490.7896,347.5" style="stroke:#181818;stroke-width:1.0;"/><path d="M472.7896,347.5 C439.281,347.5 423.7723,347.5 390.2637,347.5 " fill="none" style="stroke:#181818;stroke-width:1.0;stroke-dasharray:7.0,7.0;"/><polygon fill="none" points="621.3928,304.9639,608.8795,290.7015,602.8247,301.0619,621.3928,304.9639" style="stroke:#181818;stroke-width:1.0;"/><path d="M440.0897,219.2511 C482.883,236.7315 527.3302,256.0734 568,276 C585.684,284.6645 588.7299,285.8752 605.8521,295.8817 " fill="none" style="stroke:#181818;stroke-width:1.0;stroke-dasharray:7.0,7.0;"/><text fill="#000000" font-family="sans-serif" font-size="13" lengthAdjust="spacing" textLength="81" x="524" y="255.0283">&#171;implements&#187;</text><polygon fill="#181818" points="856.7801,323.4099,854.6696,313.7898,853.8175,319.3821,848.2252,318.5299,856.7801,323.4099" style="stroke:#181818;stroke-width:1.0;"/><path d="M440.3342,160.3578 C554.8184,177.2208 696.3743,210.4645 808,276 C827.9576,287.7171 841.6721,302.8699 853.2249,318.5765 " fill="none" style="stroke:#181818;stroke-width:1.0;"/><text fill="#000000" font-family="sans-serif" font-size="13" lengthAdjust="spacing" textLength="35" x="767" y="255.0283">&#171;has&#187;</text><polygon fill="#181818" points="218.5722,276.7226,223.2739,271.2552,220.0354,264.8122,215.3336,270.2797,218.5722,276.7226" style="stroke:#181818;stroke-width:1.0;"/><path d="M225.2628,222.2611 C223.0554,240.2288 222.1903,247.2708 220.0354,264.8122 " fill="none" style="stroke:#181818;stroke-width:1.0;"/><text fill="#000000" font-family="sans-serif" font-size="13" lengthAdjust="spacing" textLength="35" x="224" y="255.0283">&#171;has&#187;</text><polygon fill="#181818" points="1037.2243,313.8492,1030.3705,306.7764,1032.5864,311.9812,1027.3816,314.1972,1037.2243,313.8492" style="stroke:#181818;stroke-width:1.0;"/><path d="M440.0551,166.9048 C581.853,187.0438 773.492,221.4836 936,276 C969.5655,287.2602 1000.4581,299.041 1031.6588,311.6076 " fill="none" style="stroke:#181818;stroke-width:1.0;stroke-dasharray:7.0,7.0;"/><text fill="#000000" font-family="sans-serif" font-size="13" lengthAdjust="spacing" textLength="42" x="881" y="255.0283">&#171;uses&#187;</text><polygon fill="none" points="490.7509,347.5,472.7509,341.5,472.7509,353.5,490.7509,347.5" style="stroke:#181818;stroke-width:1.0;"/><path d="M390.0408,347.5 C428.629,347.5 447.3739,347.5 472.7509,347.5 " fill="none" style="stroke:#181818;stroke-width:1.0;stroke-dasharray:7.0,7.0;"/><text fill="#000000" font-family="sans-serif" font-size="13" lengthAdjust="spacing" textLength="81" x="400" y="340.5283">&#171;implements&#187;</text><!--SRC=[hLFBReCm4Bpp5TjRqZJ-W0ZbqXvwfqgFqHOsrAeVo3QLefP_BnWIpACqX_e4tfdPsT7whZ2OImI1Prqwi98SAeoY0jCFp0aIYSOzQqdCahBQMFYA8gXFAj1QUEKgItoXleVkRE745GeujfINSq6mW-Jw4m2FdoZAfjeB7PgRAsGJL5OfEXGwzuJ7otTRMmSCIwvljaWQs0ebye74Ujw-Xtcx7j4Rh-OZyW3WiX0aIJaRX9jfYLon5X4cURG5KLQhPxfy4uFeCcueTLohQNKpxheQoZp0b3mUlo7ukIRQTVNfGXyZwj6hkUrf1xmi3rUEp0bJWido_6lsFR7hK8txXuaFgADLMN2OaKqDBxem4sUuocTSLqqma-V4WXV4sFT-kXDTSGTntA_EVhyijTt-gjGznpX-nnjaxc49SEXUxqrYZCru6iVSQ9MM_X9h6yy7rfiQvFK3]--></g></svg>