<?xml version="1.0" encoding="us-ascii" standalone="no"?><svg xmlns="http://www.w3.org/2000/svg" xmlns:xlink="http://www.w3.org/1999/xlink" contentStyleType="text/css" height="241px" preserveAspectRatio="none" style="width:597px;height:241px;background:#FFFFFF;" version="1.1" viewBox="0 0 597 241" width="597px" zoomAndPan="magnify"><defs/><g><rect fill="#FFFFFF" height="50.6211" style="stroke:#181818;stroke-width:1.0;" width="10" x="71.5" y="91.4883"/><rect fill="#FFFFFF" height="29.3105" style="stroke:#181818;stroke-width:1.0;" width="10" x="555.5" y="112.7988"/><line style="stroke:#181818;stroke-width:0.5;stroke-dasharray:5.0,5.0;" x1="76" x2="76" y1="81.4883" y2="160.1094"/><line style="stroke:#181818;stroke-width:0.5;stroke-dasharray:5.0,5.0;" x1="560.5" x2="560.5" y1="81.4883" y2="160.1094"/><text fill="#000000" font-family="sans-serif" font-size="14" lengthAdjust="spacing" textLength="137" x="5" y="78.5352">Power User / Admin</text><ellipse cx="76.5" cy="13.5" fill="#E2E2F0" rx="8" ry="8" style="stroke:#181818;stroke-width:0.5;"/><path d="M76.5,21.5 L76.5,48.5 M63.5,29.5 L89.5,29.5 M76.5,48.5 L63.5,63.5 M76.5,48.5 L89.5,63.5 " fill="none" style="stroke:#181818;stroke-width:0.5;"/><text fill="#000000" font-family="sans-serif" font-size="14" lengthAdjust="spacing" textLength="137" x="5" y="172.6445">Power User / Admin</text><ellipse cx="76.5" cy="184.0977" fill="#E2E2F0" rx="8" ry="8" style="stroke:#181818;stroke-width:0.5;"/><path d="M76.5,192.0977 L76.5,219.0977 M63.5,200.0977 L89.5,200.0977 M76.5,219.0977 L63.5,234.0977 M76.5,219.0977 L89.5,234.0977 " fill="none" style="stroke:#181818;stroke-width:0.5;"/><rect fill="#E2E2F0" height="30.4883" rx="2.5" ry="2.5" style="stroke:#181818;stroke-width:0.5;" width="62" x="529.5" y="50"/><text fill="#000000" font-family="sans-serif" font-size="14" lengthAdjust="spacing" textLength="48" x="536.5" y="70.5352">System</text><rect fill="#E2E2F0" height="30.4883" rx="2.5" ry="2.5" style="stroke:#181818;stroke-width:0.5;" width="62" x="529.5" y="159.1094"/><text fill="#000000" font-family="sans-serif" font-size="14" lengthAdjust="spacing" textLength="48" x="536.5" y="179.6445">System</text><rect fill="#FFFFFF" height="50.6211" style="stroke:#181818;stroke-width:1.0;" width="10" x="71.5" y="91.4883"/><rect fill="#FFFFFF" height="29.3105" style="stroke:#181818;stroke-width:1.0;" width="10" x="555.5" y="112.7988"/><polygon fill="#181818" points="543.5,108.7988,553.5,112.7988,543.5,116.7988,547.5,112.7988" style="stroke:#181818;stroke-width:1.0;"/><line style="stroke:#181818;stroke-width:1.0;" x1="81.5" x2="549.5" y1="112.7988" y2="112.7988"/><text fill="#000000" font-family="sans-serif" font-size="13" font-weight="bold" lengthAdjust="spacing" textLength="9" x="88.5" y="108.0566">1</text><text fill="#000000" font-family="sans-serif" font-size="13" lengthAdjust="spacing" textLength="442" x="101.5" y="108.0566">I want to get a list of all devices in the house grouped by functionality</text><polygon fill="#181818" points="87.5,138.1094,77.5,142.1094,87.5,146.1094,83.5,142.1094" style="stroke:#181818;stroke-width:1.0;"/><line style="stroke:#181818;stroke-width:1.0;stroke-dasharray:2.0,2.0;" x1="81.5" x2="559.5" y1="142.1094" y2="142.1094"/><text fill="#000000" font-family="sans-serif" font-size="13" font-weight="bold" lengthAdjust="spacing" textLength="9" x="93.5" y="137.3672">2</text><text fill="#000000" font-family="sans-serif" font-size="13" lengthAdjust="spacing" textLength="332" x="106.5" y="137.3672">List of devices in the house grouped by functionality</text><!--SRC=[bOyzRiCm38LtdUB1IoV7kuS27GjaC53u08p4s0BqLubAuDjNRWmqoDQ591x9xv5lgqWgup0aHq6gToST_L3uktBGt1jBIoQlI4lCwAPuvuovj33WmtWREb31D2kLA8lLDZKAkg-j2FlVtgDKYgh4KFs5izffzaR2- -8qety_faPyuhu3969X0S7P8eXNa7CmVBEQ2so0h8mrri9OSgo93IuRhZKqRWpah6n_7iS1ZuI-cKtpYFC1_X_Ky2lsIMdF_000]--></g></svg>