<?xml version="1.0" encoding="us-ascii" standalone="no"?><svg xmlns="http://www.w3.org/2000/svg" xmlns:xlink="http://www.w3.org/1999/xlink" contentStyleType="text/css" height="651px" preserveAspectRatio="none" style="width:1918px;height:651px;background:#FFFFFF;" version="1.1" viewBox="0 0 1918 651" width="1918px" zoomAndPan="magnify"><defs/><g><rect fill="#ADD8E6" height="639.5195" style="stroke:#181818;stroke-width:0.5;" width="328" x="110" y="6"/><text fill="#000000" font-family="sans-serif" font-size="13" font-weight="bold" lengthAdjust="spacing" textLength="63" x="242.5" y="20.0283">Controller</text><rect fill="#90EE90" height="639.5195" style="stroke:#181818;stroke-width:0.5;" width="474" x="440" y="6"/><text fill="#000000" font-family="sans-serif" font-size="13" font-weight="bold" lengthAdjust="spacing" textLength="48" x="653" y="20.0283">Service</text><rect fill="#FFFFE0" height="639.5195" style="stroke:#181818;stroke-width:0.5;" width="558" x="916" y="6"/><text fill="#000000" font-family="sans-serif" font-size="13" font-weight="bold" lengthAdjust="spacing" textLength="67" x="1161.5" y="20.0283">Repository</text><rect fill="#E0FFFF" height="639.5195" style="stroke:#181818;stroke-width:0.5;" width="430.5" x="1476" y="6"/><text fill="#000000" font-family="sans-serif" font-size="13" font-weight="bold" lengthAdjust="spacing" textLength="66" x="1658.25" y="20.0283">Assembler</text><rect fill="#FFFFFF" height="496.6953" style="stroke:#181818;stroke-width:1.0;" width="10" x="269" y="94.2031"/><rect fill="#FFFFFF" height="93.873" style="stroke:#181818;stroke-width:1.0;" width="10" x="537" y="125.4941"/><rect fill="#FFFFFF" height="93.873" style="stroke:#181818;stroke-width:1.0;" width="10" x="775" y="276.9492"/><rect fill="#FFFFFF" height="31.291" style="stroke:#181818;stroke-width:1.0;" width="10" x="1034" y="156.7852"/><rect fill="#FFFFFF" height="31.291" style="stroke:#181818;stroke-width:1.0;" width="10" x="1314" y="308.2402"/><rect fill="#FFFFFF" height="106.2031" style="stroke:#181818;stroke-width:1.0;" width="10" x="1536.5" y="402.1133"/><rect fill="#FFFFFF" height="33.6211" style="stroke:#181818;stroke-width:1.0;" width="10" x="1812.5" y="443.4043"/><rect fill="none" height="326.2402" style="stroke:#000000;stroke-width:1.5;" width="1808.5" x="104" y="234.3672"/><line style="stroke:#181818;stroke-width:0.5;stroke-dasharray:5.0,5.0;" x1="14" x2="14" y1="60.9121" y2="608.8984"/><line style="stroke:#181818;stroke-width:0.5;stroke-dasharray:5.0,5.0;" x1="274" x2="274" y1="60.9121" y2="608.8984"/><line style="stroke:#181818;stroke-width:0.5;stroke-dasharray:5.0,5.0;" x1="542" x2="542" y1="60.9121" y2="608.8984"/><line style="stroke:#181818;stroke-width:0.5;stroke-dasharray:5.0,5.0;" x1="780" x2="780" y1="60.9121" y2="608.8984"/><line style="stroke:#181818;stroke-width:0.5;stroke-dasharray:5.0,5.0;" x1="1039" x2="1039" y1="60.9121" y2="608.8984"/><line style="stroke:#181818;stroke-width:0.5;stroke-dasharray:5.0,5.0;" x1="1319" x2="1319" y1="60.9121" y2="608.8984"/><line style="stroke:#181818;stroke-width:0.5;stroke-dasharray:5.0,5.0;" x1="1541" x2="1541" y1="60.9121" y2="608.8984"/><line style="stroke:#181818;stroke-width:0.5;stroke-dasharray:5.0,5.0;" x1="1817.5" x2="1817.5" y1="441.9238" y2="608.8984"/><rect fill="#E2E2F0" height="32.6211" rx="2.5" ry="2.5" style="stroke:#181818;stroke-width:0.5;" width="18" x="5" y="27.291"/><text fill="#000000" font-family="sans-serif" font-size="14" lengthAdjust="spacing" textLength="4" x="12" y="49.3984">&#160;</text><rect fill="#E2E2F0" height="32.6211" rx="2.5" ry="2.5" style="stroke:#181818;stroke-width:0.5;" width="18" x="5" y="607.8984"/><text fill="#000000" font-family="sans-serif" font-size="14" lengthAdjust="spacing" textLength="4" x="12" y="630.0059">&#160;</text><rect fill="#E2E2F0" height="32.6211" rx="2.5" ry="2.5" style="stroke:#181818;stroke-width:0.5;" width="320" x="114" y="27.291"/><text fill="#000000" font-family="sans-serif" font-size="14" lengthAdjust="spacing" textLength="306" x="121" y="49.3984">:GetAllDevicesGroupedByFunctionalityController</text><rect fill="#E2E2F0" height="32.6211" rx="2.5" ry="2.5" style="stroke:#181818;stroke-width:0.5;" width="320" x="114" y="607.8984"/><text fill="#000000" font-family="sans-serif" font-size="14" lengthAdjust="spacing" textLength="306" x="121" y="630.0059">:GetAllDevicesGroupedByFunctionalityController</text><rect fill="#E2E2F0" height="32.6211" rx="2.5" ry="2.5" style="stroke:#181818;stroke-width:0.5;" width="196" x="444" y="27.291"/><text fill="#000000" font-family="sans-serif" font-size="14" lengthAdjust="spacing" textLength="182" x="451" y="49.3984">deviceServiceImpl:DeviceService</text><rect fill="#E2E2F0" height="32.6211" rx="2.5" ry="2.5" style="stroke:#181818;stroke-width:0.5;" width="196" x="444" y="607.8984"/><text fill="#000000" font-family="sans-serif" font-size="14" lengthAdjust="spacing" textLength="182" x="451" y="630.0059">deviceServiceImpl:DeviceService</text><rect fill="#E2E2F0" height="32.6211" rx="2.5" ry="2.5" style="stroke:#181818;stroke-width:0.5;" width="260" x="650" y="27.291"/><text fill="#000000" font-family="sans-serif" font-size="14" lengthAdjust="spacing" textLength="246" x="657" y="49.3984">deviceTypeServiceImpl:DeviceTypeService</text><rect fill="#E2E2F0" height="32.6211" rx="2.5" ry="2.5" style="stroke:#181818;stroke-width:0.5;" width="260" x="650" y="607.8984"/><text fill="#000000" font-family="sans-serif" font-size="14" lengthAdjust="spacing" textLength="246" x="657" y="630.0059">deviceTypeServiceImpl:DeviceTypeService</text><rect fill="#E2E2F0" height="32.6211" rx="2.5" ry="2.5" style="stroke:#181818;stroke-width:0.5;" width="238" x="920" y="27.291"/><text fill="#000000" font-family="sans-serif" font-size="14" lengthAdjust="spacing" textLength="224" x="927" y="49.3984">deviceRepository:DeviceRepository</text><rect fill="#E2E2F0" height="32.6211" rx="2.5" ry="2.5" style="stroke:#181818;stroke-width:0.5;" width="238" x="920" y="607.8984"/><text fill="#000000" font-family="sans-serif" font-size="14" lengthAdjust="spacing" textLength="224" x="927" y="630.0059">deviceRepository:DeviceRepository</text><rect fill="#E2E2F0" height="32.6211" rx="2.5" ry="2.5" style="stroke:#181818;stroke-width:0.5;" width="302" x="1168" y="27.291"/><text fill="#000000" font-family="sans-serif" font-size="14" lengthAdjust="spacing" textLength="288" x="1175" y="49.3984">deviceTypeRepository:DeviceTypeRepository</text><rect fill="#E2E2F0" height="32.6211" rx="2.5" ry="2.5" style="stroke:#181818;stroke-width:0.5;" width="302" x="1168" y="607.8984"/><text fill="#000000" font-family="sans-serif" font-size="14" lengthAdjust="spacing" textLength="288" x="1175" y="630.0059">deviceTypeRepository:DeviceTypeRepository</text><rect fill="#E2E2F0" height="32.6211" rx="2.5" ry="2.5" style="stroke:#181818;stroke-width:0.5;" width="123" x="1480" y="27.291"/><text fill="#000000" font-family="sans-serif" font-size="14" lengthAdjust="spacing" textLength="109" x="1487" y="49.3984">DeviceAssembler</text><rect fill="#E2E2F0" height="32.6211" rx="2.5" ry="2.5" style="stroke:#181818;stroke-width:0.5;" width="123" x="1480" y="607.8984"/><text fill="#000000" font-family="sans-serif" font-size="14" lengthAdjust="spacing" textLength="109" x="1487" y="630.0059">DeviceAssembler</text><rect fill="#E2E2F0" height="32.6211" rx="2.5" ry="2.5" style="stroke:#181818;stroke-width:0.5;" width="170" x="1732.5" y="607.8984"/><text fill="#000000" font-family="sans-serif" font-size="14" lengthAdjust="spacing" textLength="156" x="1739.5" y="630.0059">deviceDTO : DeviceDTO</text><rect fill="#FFFFFF" height="496.6953" style="stroke:#181818;stroke-width:1.0;" width="10" x="269" y="94.2031"/><rect fill="#FFFFFF" height="93.873" style="stroke:#181818;stroke-width:1.0;" width="10" x="537" y="125.4941"/><rect fill="#FFFFFF" height="93.873" style="stroke:#181818;stroke-width:1.0;" width="10" x="775" y="276.9492"/><rect fill="#FFFFFF" height="31.291" style="stroke:#181818;stroke-width:1.0;" width="10" x="1034" y="156.7852"/><rect fill="#FFFFFF" height="31.291" style="stroke:#181818;stroke-width:1.0;" width="10" x="1314" y="308.2402"/><rect fill="#FFFFFF" height="106.2031" style="stroke:#181818;stroke-width:1.0;" width="10" x="1536.5" y="402.1133"/><rect fill="#FFFFFF" height="33.6211" style="stroke:#181818;stroke-width:1.0;" width="10" x="1812.5" y="443.4043"/><ellipse cx="13.5" cy="93.4531" fill="none" rx="4" ry="4" style="stroke:#181818;stroke-width:1.5;"/><polygon fill="#181818" points="257,90.2031,267,94.2031,257,98.2031,261,94.2031" style="stroke:#181818;stroke-width:1.0;"/><line style="stroke:#181818;stroke-width:1.0;" x1="18" x2="263" y1="94.2031" y2="94.2031"/><text fill="#000000" font-family="sans-serif" font-size="13" font-weight="bold" lengthAdjust="spacing" textLength="7" x="21" y="88.9404">1</text><text fill="#000000" font-family="sans-serif" font-size="13" lengthAdjust="spacing" textLength="225" x="32" y="88.9404">getAllDevicesGroupedByFunctionality()</text><polygon fill="#181818" points="525,121.4941,535,125.4941,525,129.4941,529,125.4941" style="stroke:#181818;stroke-width:1.0;"/><line style="stroke:#181818;stroke-width:1.0;" x1="279" x2="531" y1="125.4941" y2="125.4941"/><text fill="#000000" font-family="sans-serif" font-size="13" font-weight="bold" lengthAdjust="spacing" textLength="7" x="286" y="120.2314">2</text><text fill="#000000" font-family="sans-serif" font-size="13" lengthAdjust="spacing" textLength="86" x="297" y="120.2314">getAllDevices()</text><polygon fill="#181818" points="1022,152.7852,1032,156.7852,1022,160.7852,1026,156.7852" style="stroke:#181818;stroke-width:1.0;"/><line style="stroke:#181818;stroke-width:1.0;" x1="547" x2="1028" y1="156.7852" y2="156.7852"/><text fill="#000000" font-family="sans-serif" font-size="13" font-weight="bold" lengthAdjust="spacing" textLength="7" x="554" y="151.5225">3</text><text fill="#000000" font-family="sans-serif" font-size="13" lengthAdjust="spacing" textLength="43" x="565" y="151.5225">findAll()</text><polygon fill="#181818" points="558,184.0762,548,188.0762,558,192.0762,554,188.0762" style="stroke:#181818;stroke-width:1.0;"/><line style="stroke:#181818;stroke-width:1.0;stroke-dasharray:2.0,2.0;" x1="552" x2="1038" y1="188.0762" y2="188.0762"/><text fill="#000000" font-family="sans-serif" font-size="13" font-weight="bold" lengthAdjust="spacing" textLength="7" x="564" y="182.8135">4</text><text fill="#000000" font-family="sans-serif" font-size="13" lengthAdjust="spacing" textLength="43" x="575" y="182.8135">devices</text><polygon fill="#181818" points="290,215.3672,280,219.3672,290,223.3672,286,219.3672" style="stroke:#181818;stroke-width:1.0;"/><line style="stroke:#181818;stroke-width:1.0;stroke-dasharray:2.0,2.0;" x1="284" x2="541" y1="219.3672" y2="219.3672"/><text fill="#000000" font-family="sans-serif" font-size="13" font-weight="bold" lengthAdjust="spacing" textLength="7" x="296" y="214.1045">5</text><text fill="#000000" font-family="sans-serif" font-size="13" lengthAdjust="spacing" textLength="43" x="307" y="214.1045">devices</text><path d="M104,234.3672 L177,234.3672 L177,243.6582 L167,253.6582 L104,253.6582 L104,234.3672 " fill="#EEEEEE" style="stroke:#000000;stroke-width:1.5;"/><rect fill="none" height="326.2402" style="stroke:#000000;stroke-width:1.5;" width="1808.5" x="104" y="234.3672"/><text fill="#000000" font-family="sans-serif" font-size="13" font-weight="bold" lengthAdjust="spacing" textLength="28" x="119" y="249.3955">loop</text><text fill="#000000" font-family="sans-serif" font-size="11" font-weight="bold" lengthAdjust="spacing" textLength="151" x="192" y="248.2373">[for each device in devices]</text><polygon fill="#181818" points="763,272.9492,773,276.9492,763,280.9492,767,276.9492" style="stroke:#181818;stroke-width:1.0;"/><line style="stroke:#181818;stroke-width:1.0;" x1="279" x2="769" y1="276.9492" y2="276.9492"/><text fill="#000000" font-family="sans-serif" font-size="13" font-weight="bold" lengthAdjust="spacing" textLength="7" x="286" y="271.6865">6</text><text fill="#000000" font-family="sans-serif" font-size="13" lengthAdjust="spacing" textLength="196" x="297" y="271.6865">getDeviceTypeByID(deviceTypeID)</text><polygon fill="#181818" points="1302,304.2402,1312,308.2402,1302,312.2402,1306,308.2402" style="stroke:#181818;stroke-width:1.0;"/><line style="stroke:#181818;stroke-width:1.0;" x1="785" x2="1308" y1="308.2402" y2="308.2402"/><text fill="#000000" font-family="sans-serif" font-size="13" font-weight="bold" lengthAdjust="spacing" textLength="7" x="792" y="302.9775">7</text><text fill="#000000" font-family="sans-serif" font-size="13" lengthAdjust="spacing" textLength="136" x="803" y="302.9775">ofIdentity(deviceTypeID)</text><polygon fill="#181818" points="796,335.5313,786,339.5313,796,343.5313,792,339.5313" style="stroke:#181818;stroke-width:1.0;"/><line style="stroke:#181818;stroke-width:1.0;stroke-dasharray:2.0,2.0;" x1="790" x2="1318" y1="339.5313" y2="339.5313"/><text fill="#000000" font-family="sans-serif" font-size="13" font-weight="bold" lengthAdjust="spacing" textLength="7" x="802" y="334.2686">8</text><text fill="#000000" font-family="sans-serif" font-size="13" lengthAdjust="spacing" textLength="64" x="813" y="334.2686">deviceType</text><polygon fill="#181818" points="290,366.8223,280,370.8223,290,374.8223,286,370.8223" style="stroke:#181818;stroke-width:1.0;"/><line style="stroke:#181818;stroke-width:1.0;stroke-dasharray:2.0,2.0;" x1="284" x2="779" y1="370.8223" y2="370.8223"/><text fill="#000000" font-family="sans-serif" font-size="13" font-weight="bold" lengthAdjust="spacing" textLength="7" x="296" y="365.5596">9</text><text fill="#000000" font-family="sans-serif" font-size="13" lengthAdjust="spacing" textLength="64" x="307" y="365.5596">deviceType</text><polygon fill="#181818" points="1524.5,398.1133,1534.5,402.1133,1524.5,406.1133,1528.5,402.1133" style="stroke:#181818;stroke-width:1.0;"/><line style="stroke:#181818;stroke-width:1.0;" x1="279" x2="1530.5" y1="402.1133" y2="402.1133"/><text fill="#000000" font-family="sans-serif" font-size="13" font-weight="bold" lengthAdjust="spacing" textLength="14" x="286" y="396.8506">10</text><text fill="#000000" font-family="sans-serif" font-size="13" lengthAdjust="spacing" textLength="126" x="304" y="396.8506">domainToDTO(device)</text><polygon fill="#181818" points="1720.5,429.4043,1730.5,433.4043,1720.5,437.4043,1724.5,433.4043" style="stroke:#181818;stroke-width:1.0;"/><line style="stroke:#181818;stroke-width:1.0;" x1="1546.5" x2="1726.5" y1="433.4043" y2="433.4043"/><text fill="#000000" font-family="sans-serif" font-size="13" font-weight="bold" lengthAdjust="spacing" textLength="14" x="1553.5" y="428.1416">11</text><text fill="#000000" font-family="sans-serif" font-size="13" lengthAdjust="spacing" textLength="144" x="1571.5" y="428.1416">createDeviceDTO(device)</text><rect fill="#E2E2F0" height="32.6211" rx="2.5" ry="2.5" style="stroke:#181818;stroke-width:0.5;" width="170" x="1732.5" y="410.1133"/><text fill="#000000" font-family="sans-serif" font-size="14" lengthAdjust="spacing" textLength="156" x="1739.5" y="432.2207">deviceDTO : DeviceDTO</text><polygon fill="#181818" points="1557.5,473.0254,1547.5,477.0254,1557.5,481.0254,1553.5,477.0254" style="stroke:#181818;stroke-width:1.0;"/><line style="stroke:#181818;stroke-width:1.0;stroke-dasharray:2.0,2.0;" x1="1551.5" x2="1816.5" y1="477.0254" y2="477.0254"/><text fill="#000000" font-family="sans-serif" font-size="13" font-weight="bold" lengthAdjust="spacing" textLength="14" x="1563.5" y="471.7627">12</text><text fill="#000000" font-family="sans-serif" font-size="13" lengthAdjust="spacing" textLength="62" x="1581.5" y="471.7627">deviceDTO</text><polygon fill="#181818" points="290,504.3164,280,508.3164,290,512.3164,286,508.3164" style="stroke:#181818;stroke-width:1.0;"/><line style="stroke:#181818;stroke-width:1.0;stroke-dasharray:2.0,2.0;" x1="284" x2="1540.5" y1="508.3164" y2="508.3164"/><text fill="#000000" font-family="sans-serif" font-size="13" font-weight="bold" lengthAdjust="spacing" textLength="14" x="296" y="503.0537">13</text><text fill="#000000" font-family="sans-serif" font-size="13" lengthAdjust="spacing" textLength="62" x="314" y="503.0537">deviceDTO</text><line style="stroke:#181818;stroke-width:1.0;" x1="279" x2="321" y1="539.6074" y2="539.6074"/><line style="stroke:#181818;stroke-width:1.0;" x1="321" x2="321" y1="539.6074" y2="552.6074"/><line style="stroke:#181818;stroke-width:1.0;" x1="280" x2="321" y1="552.6074" y2="552.6074"/><polygon fill="#181818" points="290,548.6074,280,552.6074,290,556.6074,286,552.6074" style="stroke:#181818;stroke-width:1.0;"/><text fill="#000000" font-family="sans-serif" font-size="13" font-weight="bold" lengthAdjust="spacing" textLength="14" x="286" y="534.3447">14</text><text fill="#000000" font-family="sans-serif" font-size="13" lengthAdjust="spacing" textLength="219" x="304" y="534.3447">addDeviceByFunctionality(deviceDTO)</text><polygon fill="#181818" points="25,586.8984,15,590.8984,25,594.8984,21,590.8984" style="stroke:#181818;stroke-width:1.0;"/><line style="stroke:#181818;stroke-width:1.0;stroke-dasharray:2.0,2.0;" x1="19" x2="273" y1="590.8984" y2="590.8984"/><text fill="#000000" font-family="sans-serif" font-size="13" font-weight="bold" lengthAdjust="spacing" textLength="14" x="31" y="585.6357">15</text><text fill="#000000" font-family="sans-serif" font-size="13" lengthAdjust="spacing" textLength="159" x="49" y="585.6357">deviceDTOsByFunctionality</text><!--SRC=[fLLDZzem4BtxLxZqqEL0kUTGQTbe4LAbIYqzz6YI0ImvTjPsjis_hmrPUsp2qj3bifdC-yWyP_BfQ6rhYkMo5KpQhX6VAzKi3Rnq82jOr9mTD6l8XrQpGyEeOBtgB3KDM2OP8ItJbbUyTLWwSpzcw4y3cf2T-aDdJqfQhOG0FQCVl_B3qQv41oceM8Dz5AA4Lrw1MMlLjL2l-kTELfOhoGItFUPn2fCG16HDdPl1qW_G7lRcPwq1P6geFl4EVKM9hqxgIMKCkktR38ugY09LCvFVeLM6MwNxDv-_G0ZrUqmjzWvY61oqOl6QumkUj9ZvHdofzKTZeDcXn9zwbWtup88Q0tEeaJ6NvVORBOPEzp_2kQjeWtLMoQxPUHP_5gbQV9bsP0fwkDt-C7TIxlALMPXu8WcPr4-T_-JGqSnWOYKzdYG51YQKDjrpMJko4HQKCiahT97RAkWv9qD83JUPWgNfwLoN2Oyjb6hfNcdgEeu3W78PeTJztPa2Vhzz4B6wwZVbGtobDkNyB9Ivn2_-wVv5EHN3OQdzfWPf_G7yDo4y-LHhDClauQB26Ninx_S5_ZlY6yh93EyCCwmSfwaQnkLMkMqop7Pygd5B-PkLXdZBBw8uWz0OvLn3CK12uLqnpuWe_GvSZ9fFko_cbV4WQ_U6SrqBhV6xafbeXzNrkJVVqC7dt7yT9czTvyH_Fz3pcgmxsK3JlW5_0G00]--></g></svg>