<?xml version="1.0" encoding="us-ascii" standalone="no"?><svg xmlns="http://www.w3.org/2000/svg" xmlns:xlink="http://www.w3.org/1999/xlink" contentStyleType="text/css" height="533px" preserveAspectRatio="none" style="width:1221px;height:533px;background:#FFFFFF;" version="1.1" viewBox="0 0 1221 533" width="1221px" zoomAndPan="magnify"><defs/><g><!--class GetAllDevicesByFunctionalityController--><g id="elem_GetAllDevicesByFunctionalityController"><rect codeLine="5" fill="#F1F1F1" height="141.1055" id="GetAllDevicesByFunctionalityController" rx="2.5" ry="2.5" style="stroke:#181818;stroke-width:0.5;" width="512" x="613" y="12"/><ellipse cx="741.75" cy="28" fill="#ADD1B2" rx="11" ry="11" style="stroke:#181818;stroke-width:1.0;"/><path d="M744.5156,23.875 Q744.6719,23.6563 744.8594,23.5469 Q745.0469,23.4375 745.2656,23.4375 Q745.6406,23.4375 745.875,23.7031 Q746.1094,23.9531 746.1094,24.5625 L746.1094,26.0156 Q746.1094,26.625 745.875,26.8906 Q745.6406,27.1563 745.2656,27.1563 Q744.9219,27.1563 744.7188,26.9531 Q744.5156,26.7656 744.4063,26.25 Q744.3594,25.8906 744.1719,25.7031 Q743.8438,25.3281 743.2344,25.1094 Q742.625,24.8906 742,24.8906 Q741.2344,24.8906 740.5938,25.2188 Q739.9688,25.5469 739.4688,26.2969 Q738.9844,27.0469 738.9844,28.0781 L738.9844,29.1719 Q738.9844,30.4063 739.875,31.2344 Q740.7656,32.0469 742.3594,32.0469 Q743.2969,32.0469 743.9531,31.7969 Q744.3438,31.6406 744.7656,31.2031 Q745.0313,30.9375 745.1719,30.8594 Q745.3281,30.7813 745.5313,30.7813 Q745.8594,30.7813 746.1094,31.0469 Q746.375,31.2969 746.375,31.6406 Q746.375,31.9844 746.0313,32.3906 Q745.5313,32.9688 744.7344,33.2969 Q743.6563,33.75 742.3594,33.75 Q740.8438,33.75 739.6406,33.125 Q738.6563,32.625 737.9688,31.5625 Q737.2813,30.4844 737.2813,29.2031 L737.2813,28.0469 Q737.2813,26.7188 737.8906,25.5781 Q738.5156,24.4219 739.6094,23.8125 Q740.7031,23.1875 741.9375,23.1875 Q742.6719,23.1875 743.3125,23.3594 Q743.9688,23.5156 744.5156,23.875 Z " fill="#000000"/><text fill="#000000" font-family="sans-serif" font-size="14" lengthAdjust="spacing" textLength="246" x="762.25" y="33.7969">GetAllDevicesByFunctionalityController</text><line style="stroke:#181818;stroke-width:0.5;" x1="614" x2="1124" y1="44" y2="44"/><rect fill="none" height="6" style="stroke:#C82930;stroke-width:1.0;" width="6" x="621" y="55.8105"/><text fill="#000000" font-family="sans-serif" font-size="14" lengthAdjust="spacing" textLength="135" x="633" y="63.1074">catalogue: Catalogue</text><rect fill="none" height="6" style="stroke:#C82930;stroke-width:1.0;" width="6" x="621" y="74.4316"/><text fill="#000000" font-family="sans-serif" font-size="14" lengthAdjust="spacing" textLength="87" x="633" y="81.7285">house: House</text><line style="stroke:#181818;stroke-width:0.5;" x1="614" x2="1124" y1="89.2422" y2="89.2422"/><ellipse cx="624" cy="104.0527" fill="#84BE84" rx="3" ry="3" style="stroke:#038048;stroke-width:1.0;"/><text fill="#000000" font-family="sans-serif" font-size="14" lengthAdjust="spacing" textLength="486" x="633" y="108.3496">GetAllDevicesByFunctionalityController(house: House, catalogue: Catalogue)</text><rect fill="#F24D5C" height="6" style="stroke:#C82930;stroke-width:1.0;" width="6" x="621" y="119.6738"/><text fill="#000000" font-family="sans-serif" font-size="14" lengthAdjust="spacing" textLength="475" x="633" y="126.9707">isValidConstructorArgument(house: House, catalogue: Catalogue): boolean</text><ellipse cx="624" cy="141.2949" fill="#84BE84" rx="3" ry="3" style="stroke:#038048;stroke-width:1.0;"/><text fill="#000000" font-family="sans-serif" font-size="14" lengthAdjust="spacing" textLength="486" x="633" y="145.5918">getAllDevicesGroupedByFunctionality(): HashMap&lt;String, List&lt;DeviceDTO&gt;&gt;</text></g><!--class DeviceAssembler--><g id="elem_DeviceAssembler"><rect codeLine="16" fill="#F1F1F1" height="103.8633" id="DeviceAssembler" rx="2.5" ry="2.5" style="stroke:#181818;stroke-width:0.5;" width="640" x="6" y="208"/><ellipse cx="267.25" cy="224" fill="#ADD1B2" rx="11" ry="11" style="stroke:#181818;stroke-width:1.0;"/><path d="M270.0156,219.875 Q270.1719,219.6563 270.3594,219.5469 Q270.5469,219.4375 270.7656,219.4375 Q271.1406,219.4375 271.375,219.7031 Q271.6094,219.9531 271.6094,220.5625 L271.6094,222.0156 Q271.6094,222.625 271.375,222.8906 Q271.1406,223.1563 270.7656,223.1563 Q270.4219,223.1563 270.2188,222.9531 Q270.0156,222.7656 269.9063,222.25 Q269.8594,221.8906 269.6719,221.7031 Q269.3438,221.3281 268.7344,221.1094 Q268.125,220.8906 267.5,220.8906 Q266.7344,220.8906 266.0938,221.2188 Q265.4688,221.5469 264.9688,222.2969 Q264.4844,223.0469 264.4844,224.0781 L264.4844,225.1719 Q264.4844,226.4063 265.375,227.2344 Q266.2656,228.0469 267.8594,228.0469 Q268.7969,228.0469 269.4531,227.7969 Q269.8438,227.6406 270.2656,227.2031 Q270.5313,226.9375 270.6719,226.8594 Q270.8281,226.7813 271.0313,226.7813 Q271.3594,226.7813 271.6094,227.0469 Q271.875,227.2969 271.875,227.6406 Q271.875,227.9844 271.5313,228.3906 Q271.0313,228.9688 270.2344,229.2969 Q269.1563,229.75 267.8594,229.75 Q266.3438,229.75 265.1406,229.125 Q264.1563,228.625 263.4688,227.5625 Q262.7813,226.4844 262.7813,225.2031 L262.7813,224.0469 Q262.7813,222.7188 263.3906,221.5781 Q264.0156,220.4219 265.1094,219.8125 Q266.2031,219.1875 267.4375,219.1875 Q268.1719,219.1875 268.8125,219.3594 Q269.4688,219.5156 270.0156,219.875 Z " fill="#000000"/><text fill="#000000" font-family="sans-serif" font-size="14" lengthAdjust="spacing" textLength="109" x="287.75" y="229.7969">DeviceAssembler</text><line style="stroke:#181818;stroke-width:0.5;" x1="7" x2="645" y1="240" y2="240"/><line style="stroke:#181818;stroke-width:0.5;" x1="7" x2="645" y1="248" y2="248"/><ellipse cx="17" cy="262.8105" fill="#84BE84" rx="3" ry="3" style="stroke:#038048;stroke-width:1.0;"/><text fill="#000000" font-family="sans-serif" font-size="14" lengthAdjust="spacing" textLength="361" x="26" y="267.1074">domainToDTO(device: Device, room: Room): DeviceDTO</text><ellipse cx="17" cy="281.4316" fill="#84BE84" rx="3" ry="3" style="stroke:#038048;stroke-width:1.0;"/><text fill="#000000" font-family="sans-serif" font-size="14" lengthAdjust="spacing" textLength="614" x="26" y="285.7285">listByFunctionality(copyOfSensorTypes: List&lt;SensorType&gt;): HashMap&lt;String, List&lt;DeviceDTO&gt;&gt;</text><ellipse cx="17" cy="300.0527" fill="#84BE84" rx="3" ry="3" style="stroke:#038048;stroke-width:1.0;"/><text fill="#000000" font-family="sans-serif" font-size="14" lengthAdjust="spacing" textLength="398" x="26" y="304.3496">addDeviceToListByFunctionality(deviceDTO: DeviceDTO): void</text></g><!--class Catalogue--><g id="elem_Catalogue"><rect codeLine="25" fill="#F1F1F1" height="103.8633" id="Catalogue" rx="2.5" ry="2.5" style="stroke:#181818;stroke-width:0.5;" width="263" x="664.5" y="208"/><ellipse cx="759.25" cy="224" fill="#ADD1B2" rx="11" ry="11" style="stroke:#181818;stroke-width:1.0;"/><path d="M762.0156,219.875 Q762.1719,219.6563 762.3594,219.5469 Q762.5469,219.4375 762.7656,219.4375 Q763.1406,219.4375 763.375,219.7031 Q763.6094,219.9531 763.6094,220.5625 L763.6094,222.0156 Q763.6094,222.625 763.375,222.8906 Q763.1406,223.1563 762.7656,223.1563 Q762.4219,223.1563 762.2188,222.9531 Q762.0156,222.7656 761.9063,222.25 Q761.8594,221.8906 761.6719,221.7031 Q761.3438,221.3281 760.7344,221.1094 Q760.125,220.8906 759.5,220.8906 Q758.7344,220.8906 758.0938,221.2188 Q757.4688,221.5469 756.9688,222.2969 Q756.4844,223.0469 756.4844,224.0781 L756.4844,225.1719 Q756.4844,226.4063 757.375,227.2344 Q758.2656,228.0469 759.8594,228.0469 Q760.7969,228.0469 761.4531,227.7969 Q761.8438,227.6406 762.2656,227.2031 Q762.5313,226.9375 762.6719,226.8594 Q762.8281,226.7813 763.0313,226.7813 Q763.3594,226.7813 763.6094,227.0469 Q763.875,227.2969 763.875,227.6406 Q763.875,227.9844 763.5313,228.3906 Q763.0313,228.9688 762.2344,229.2969 Q761.1563,229.75 759.8594,229.75 Q758.3438,229.75 757.1406,229.125 Q756.1563,228.625 755.4688,227.5625 Q754.7813,226.4844 754.7813,225.2031 L754.7813,224.0469 Q754.7813,222.7188 755.3906,221.5781 Q756.0156,220.4219 757.1094,219.8125 Q758.2031,219.1875 759.4375,219.1875 Q760.1719,219.1875 760.8125,219.3594 Q761.4688,219.5156 762.0156,219.875 Z " fill="#000000"/><text fill="#000000" font-family="sans-serif" font-size="14" lengthAdjust="spacing" textLength="65" x="779.75" y="229.7969">Catalogue</text><line style="stroke:#181818;stroke-width:0.5;" x1="665.5" x2="926.5" y1="240" y2="240"/><rect fill="none" height="6" style="stroke:#C82930;stroke-width:1.0;" width="6" x="672.5" y="251.8105"/><text fill="#000000" font-family="sans-serif" font-size="14" lengthAdjust="spacing" textLength="205" x="684.5" y="259.1074">sensorTypes: List&lt;SensorType&gt;</text><line style="stroke:#181818;stroke-width:0.5;" x1="665.5" x2="926.5" y1="266.6211" y2="266.6211"/><ellipse cx="675.5" cy="281.4316" fill="#84BE84" rx="3" ry="3" style="stroke:#038048;stroke-width:1.0;"/><text fill="#000000" font-family="sans-serif" font-size="14" lengthAdjust="spacing" textLength="75" x="684.5" y="285.7285">Catalogue()</text><ellipse cx="675.5" cy="300.0527" fill="#84BE84" rx="3" ry="3" style="stroke:#038048;stroke-width:1.0;"/><text fill="#000000" font-family="sans-serif" font-size="14" lengthAdjust="spacing" textLength="237" x="684.5" y="304.3496">getSensorTypes(): List&lt;SensorType&gt;</text></g><!--class DeviceDTO--><g id="elem_DeviceDTO"><rect codeLine="34" fill="#F1F1F1" height="159.7266" id="DeviceDTO" rx="2.5" ry="2.5" style="stroke:#181818;stroke-width:0.5;" width="286" x="183" y="367"/><ellipse cx="285.25" cy="383" fill="#ADD1B2" rx="11" ry="11" style="stroke:#181818;stroke-width:1.0;"/><path d="M288.0156,378.875 Q288.1719,378.6563 288.3594,378.5469 Q288.5469,378.4375 288.7656,378.4375 Q289.1406,378.4375 289.375,378.7031 Q289.6094,378.9531 289.6094,379.5625 L289.6094,381.0156 Q289.6094,381.625 289.375,381.8906 Q289.1406,382.1563 288.7656,382.1563 Q288.4219,382.1563 288.2188,381.9531 Q288.0156,381.7656 287.9063,381.25 Q287.8594,380.8906 287.6719,380.7031 Q287.3438,380.3281 286.7344,380.1094 Q286.125,379.8906 285.5,379.8906 Q284.7344,379.8906 284.0938,380.2188 Q283.4688,380.5469 282.9688,381.2969 Q282.4844,382.0469 282.4844,383.0781 L282.4844,384.1719 Q282.4844,385.4063 283.375,386.2344 Q284.2656,387.0469 285.8594,387.0469 Q286.7969,387.0469 287.4531,386.7969 Q287.8438,386.6406 288.2656,386.2031 Q288.5313,385.9375 288.6719,385.8594 Q288.8281,385.7813 289.0313,385.7813 Q289.3594,385.7813 289.6094,386.0469 Q289.875,386.2969 289.875,386.6406 Q289.875,386.9844 289.5313,387.3906 Q289.0313,387.9688 288.2344,388.2969 Q287.1563,388.75 285.8594,388.75 Q284.3438,388.75 283.1406,388.125 Q282.1563,387.625 281.4688,386.5625 Q280.7813,385.4844 280.7813,384.2031 L280.7813,383.0469 Q280.7813,381.7188 281.3906,380.5781 Q282.0156,379.4219 283.1094,378.8125 Q284.2031,378.1875 285.4375,378.1875 Q286.1719,378.1875 286.8125,378.3594 Q287.4688,378.5156 288.0156,378.875 Z " fill="#000000"/><text fill="#000000" font-family="sans-serif" font-size="14" lengthAdjust="spacing" textLength="73" x="305.75" y="388.7969">DeviceDTO</text><line style="stroke:#181818;stroke-width:0.5;" x1="184" x2="468" y1="399" y2="399"/><rect fill="none" height="6" style="stroke:#C82930;stroke-width:1.0;" width="6" x="191" y="410.8105"/><text fill="#000000" font-family="sans-serif" font-size="14" lengthAdjust="spacing" textLength="93" x="203" y="418.1074">deviceID: UUID</text><rect fill="none" height="6" style="stroke:#C82930;stroke-width:1.0;" width="6" x="191" y="429.4316"/><text fill="#000000" font-family="sans-serif" font-size="14" lengthAdjust="spacing" textLength="80" x="203" y="436.7285">name: String</text><rect fill="none" height="6" style="stroke:#C82930;stroke-width:1.0;" width="6" x="191" y="448.0527"/><text fill="#000000" font-family="sans-serif" font-size="14" lengthAdjust="spacing" textLength="97" x="203" y="455.3496">status: boolean</text><rect fill="none" height="6" style="stroke:#C82930;stroke-width:1.0;" width="6" x="191" y="466.6738"/><text fill="#000000" font-family="sans-serif" font-size="14" lengthAdjust="spacing" textLength="137" x="203" y="473.9707">roomDTO: RoomDTO</text><rect fill="none" height="6" style="stroke:#C82930;stroke-width:1.0;" width="6" x="191" y="485.2949"/><text fill="#000000" font-family="sans-serif" font-size="14" lengthAdjust="spacing" textLength="215" x="203" y="492.5918">deviceFunctionalities: List&lt;String&gt;</text><line style="stroke:#181818;stroke-width:0.5;" x1="184" x2="468" y1="500.1055" y2="500.1055"/><ellipse cx="194" cy="514.916" fill="#84BE84" rx="3" ry="3" style="stroke:#038048;stroke-width:1.0;"/><text fill="#000000" font-family="sans-serif" font-size="14" lengthAdjust="spacing" textLength="260" x="203" y="519.2129">DeviceDTO(device: Device, room: Room)</text></g><!--class House--><g id="elem_House"><rect codeLine="46" fill="#F1F1F1" height="103.8633" id="House" rx="2.5" ry="2.5" style="stroke:#181818;stroke-width:0.5;" width="183" x="945.5" y="208"/><ellipse cx="1012.75" cy="224" fill="#ADD1B2" rx="11" ry="11" style="stroke:#181818;stroke-width:1.0;"/><path d="M1015.5156,219.875 Q1015.6719,219.6563 1015.8594,219.5469 Q1016.0469,219.4375 1016.2656,219.4375 Q1016.6406,219.4375 1016.875,219.7031 Q1017.1094,219.9531 1017.1094,220.5625 L1017.1094,222.0156 Q1017.1094,222.625 1016.875,222.8906 Q1016.6406,223.1563 1016.2656,223.1563 Q1015.9219,223.1563 1015.7188,222.9531 Q1015.5156,222.7656 1015.4063,222.25 Q1015.3594,221.8906 1015.1719,221.7031 Q1014.8438,221.3281 1014.2344,221.1094 Q1013.625,220.8906 1013,220.8906 Q1012.2344,220.8906 1011.5938,221.2188 Q1010.9688,221.5469 1010.4688,222.2969 Q1009.9844,223.0469 1009.9844,224.0781 L1009.9844,225.1719 Q1009.9844,226.4063 1010.875,227.2344 Q1011.7656,228.0469 1013.3594,228.0469 Q1014.2969,228.0469 1014.9531,227.7969 Q1015.3438,227.6406 1015.7656,227.2031 Q1016.0313,226.9375 1016.1719,226.8594 Q1016.3281,226.7813 1016.5313,226.7813 Q1016.8594,226.7813 1017.1094,227.0469 Q1017.375,227.2969 1017.375,227.6406 Q1017.375,227.9844 1017.0313,228.3906 Q1016.5313,228.9688 1015.7344,229.2969 Q1014.6563,229.75 1013.3594,229.75 Q1011.8438,229.75 1010.6406,229.125 Q1009.6563,228.625 1008.9688,227.5625 Q1008.2813,226.4844 1008.2813,225.2031 L1008.2813,224.0469 Q1008.2813,222.7188 1008.8906,221.5781 Q1009.5156,220.4219 1010.6094,219.8125 Q1011.7031,219.1875 1012.9375,219.1875 Q1013.6719,219.1875 1014.3125,219.3594 Q1014.9688,219.5156 1015.5156,219.875 Z " fill="#000000"/><text fill="#000000" font-family="sans-serif" font-size="14" lengthAdjust="spacing" textLength="40" x="1033.25" y="229.7969">House</text><line style="stroke:#181818;stroke-width:0.5;" x1="946.5" x2="1127.5" y1="240" y2="240"/><rect fill="none" height="6" style="stroke:#C82930;stroke-width:1.0;" width="6" x="953.5" y="251.8105"/><text fill="#000000" font-family="sans-serif" font-size="14" lengthAdjust="spacing" textLength="122" x="965.5" y="259.1074">rooms: List&lt;Room&gt;</text><line style="stroke:#181818;stroke-width:0.5;" x1="946.5" x2="1127.5" y1="266.6211" y2="266.6211"/><ellipse cx="956.5" cy="281.4316" fill="#84BE84" rx="3" ry="3" style="stroke:#038048;stroke-width:1.0;"/><text fill="#000000" font-family="sans-serif" font-size="14" lengthAdjust="spacing" textLength="50" x="965.5" y="285.7285">House()</text><ellipse cx="956.5" cy="300.0527" fill="#84BE84" rx="3" ry="3" style="stroke:#038048;stroke-width:1.0;"/><text fill="#000000" font-family="sans-serif" font-size="14" lengthAdjust="spacing" textLength="157" x="965.5" y="304.3496">getRooms(): List&lt;Room&gt;</text></g><!--class Room--><g id="elem_Room"><rect codeLine="55" fill="#F1F1F1" height="103.8633" id="Room" rx="2.5" ry="2.5" style="stroke:#181818;stroke-width:0.5;" width="163" x="1051.5" y="395"/><ellipse cx="1110.25" cy="411" fill="#ADD1B2" rx="11" ry="11" style="stroke:#181818;stroke-width:1.0;"/><path d="M1113.0156,406.875 Q1113.1719,406.6563 1113.3594,406.5469 Q1113.5469,406.4375 1113.7656,406.4375 Q1114.1406,406.4375 1114.375,406.7031 Q1114.6094,406.9531 1114.6094,407.5625 L1114.6094,409.0156 Q1114.6094,409.625 1114.375,409.8906 Q1114.1406,410.1563 1113.7656,410.1563 Q1113.4219,410.1563 1113.2188,409.9531 Q1113.0156,409.7656 1112.9063,409.25 Q1112.8594,408.8906 1112.6719,408.7031 Q1112.3438,408.3281 1111.7344,408.1094 Q1111.125,407.8906 1110.5,407.8906 Q1109.7344,407.8906 1109.0938,408.2188 Q1108.4688,408.5469 1107.9688,409.2969 Q1107.4844,410.0469 1107.4844,411.0781 L1107.4844,412.1719 Q1107.4844,413.4063 1108.375,414.2344 Q1109.2656,415.0469 1110.8594,415.0469 Q1111.7969,415.0469 1112.4531,414.7969 Q1112.8438,414.6406 1113.2656,414.2031 Q1113.5313,413.9375 1113.6719,413.8594 Q1113.8281,413.7813 1114.0313,413.7813 Q1114.3594,413.7813 1114.6094,414.0469 Q1114.875,414.2969 1114.875,414.6406 Q1114.875,414.9844 1114.5313,415.3906 Q1114.0313,415.9688 1113.2344,416.2969 Q1112.1563,416.75 1110.8594,416.75 Q1109.3438,416.75 1108.1406,416.125 Q1107.1563,415.625 1106.4688,414.5625 Q1105.7813,413.4844 1105.7813,412.2031 L1105.7813,411.0469 Q1105.7813,409.7188 1106.3906,408.5781 Q1107.0156,407.4219 1108.1094,406.8125 Q1109.2031,406.1875 1110.4375,406.1875 Q1111.1719,406.1875 1111.8125,406.3594 Q1112.4688,406.5156 1113.0156,406.875 Z " fill="#000000"/><text fill="#000000" font-family="sans-serif" font-size="14" lengthAdjust="spacing" textLength="37" x="1130.75" y="416.7969">Room</text><line style="stroke:#181818;stroke-width:0.5;" x1="1052.5" x2="1213.5" y1="427" y2="427"/><rect fill="none" height="6" style="stroke:#C82930;stroke-width:1.0;" width="6" x="1059.5" y="438.8105"/><text fill="#000000" font-family="sans-serif" font-size="14" lengthAdjust="spacing" textLength="137" x="1071.5" y="446.1074">devices: List&lt;Device&gt;</text><line style="stroke:#181818;stroke-width:0.5;" x1="1052.5" x2="1213.5" y1="453.6211" y2="453.6211"/><ellipse cx="1062.5" cy="468.4316" fill="#84BE84" rx="3" ry="3" style="stroke:#038048;stroke-width:1.0;"/><text fill="#000000" font-family="sans-serif" font-size="14" lengthAdjust="spacing" textLength="47" x="1071.5" y="472.7285">Room()</text><ellipse cx="1062.5" cy="487.0527" fill="#84BE84" rx="3" ry="3" style="stroke:#038048;stroke-width:1.0;"/><text fill="#000000" font-family="sans-serif" font-size="14" lengthAdjust="spacing" textLength="80" x="1071.5" y="491.3496">getDevices()</text></g><polygon fill="#181818" points="484.1625,207.8812,493.9565,208.9195,488.9202,206.3435,491.4962,201.3072,484.1625,207.8812" style="stroke:#181818;stroke-width:1.0;"/><path d="M653.6121,153.1143 C597.0574,171.3931 542.8152,188.9244 489.8717,206.0359 " fill="none" style="stroke:#181818;stroke-width:1.0;stroke-dasharray:7.0,7.0;"/><text fill="#000000" font-family="sans-serif" font-size="13" lengthAdjust="spacing" textLength="28" x="599" y="186.0283">uses</text><text fill="#000000" font-family="sans-serif" font-size="13" lengthAdjust="spacing" textLength="7" x="476.1625" y="203.9095">1</text><text fill="#000000" font-family="sans-serif" font-size="13" lengthAdjust="spacing" textLength="7" x="645.6121" y="168.1426">1</text><polygon fill="#181818" points="817.2631,207.8812,824.4128,201.1076,819.1834,203.2646,817.0264,198.0352,817.2631,207.8812" style="stroke:#181818;stroke-width:1.0;"/><path d="M840.0436,153.1143 C832.4405,171.3931 826.6851,185.2298 819.5674,202.3413 " fill="none" style="stroke:#181818;stroke-width:1.0;stroke-dasharray:7.0,7.0;"/><text fill="#000000" font-family="sans-serif" font-size="13" lengthAdjust="spacing" textLength="28" x="834" y="186.0283">uses</text><text fill="#000000" font-family="sans-serif" font-size="13" lengthAdjust="spacing" textLength="7" x="809.2631" y="203.9095">1</text><text fill="#000000" font-family="sans-serif" font-size="13" lengthAdjust="spacing" textLength="7" x="832.0436" y="168.1426">1</text><polygon fill="#181818" points="326,366.6732,330,357.6732,326,361.6732,322,357.6732,326,366.6732" style="stroke:#181818;stroke-width:1.0;"/><path d="M326,312.0418 C326,328.94 326,342.1658 326,360.6732 " fill="none" style="stroke:#181818;stroke-width:1.0;stroke-dasharray:7.0,7.0;"/><text fill="#000000" font-family="sans-serif" font-size="13" lengthAdjust="spacing" textLength="43" x="327" y="345.0283">creates</text><text fill="#000000" font-family="sans-serif" font-size="13" lengthAdjust="spacing" textLength="5" x="320" y="362.7016">*</text><text fill="#000000" font-family="sans-serif" font-size="13" lengthAdjust="spacing" textLength="7" x="318" y="327.0701">1</text><polygon fill="#181818" points="988.0657,207.8812,984.7317,198.6138,984.6082,204.2693,978.9527,204.1458,988.0657,207.8812" style="stroke:#181818;stroke-width:1.0;"/><path d="M935.6393,153.1143 C953.1369,171.3931 967.5364,186.4354 983.9167,203.5469 " fill="none" style="stroke:#181818;stroke-width:1.0;stroke-dasharray:7.0,7.0;"/><text fill="#000000" font-family="sans-serif" font-size="13" lengthAdjust="spacing" textLength="28" x="970" y="186.0283">uses</text><text fill="#000000" font-family="sans-serif" font-size="13" lengthAdjust="spacing" textLength="7" x="980.0657" y="203.9095">1</text><text fill="#000000" font-family="sans-serif" font-size="13" lengthAdjust="spacing" textLength="7" x="927.6393" y="168.1426">1</text><polygon fill="#181818" points="1149.1499,394.6919,1155.2191,386.9353,1150.3662,389.8421,1147.4594,384.9893,1149.1499,394.6919" style="stroke:#181818;stroke-width:1.0;"/><path d="M1082.8872,153.1559 C1104.197,168.0907 1123.0638,186.1593 1137,208 C1172.6779,263.914 1163.5063,337.448 1150.6094,388.8722 " fill="none" style="stroke:#181818;stroke-width:1.0;stroke-dasharray:7.0,7.0;"/><text fill="#000000" font-family="sans-serif" font-size="13" lengthAdjust="spacing" textLength="28" x="1163" y="265.5283">uses</text><text fill="#000000" font-family="sans-serif" font-size="13" lengthAdjust="spacing" textLength="7" x="1141.1499" y="390.7203">1</text><text fill="#000000" font-family="sans-serif" font-size="13" lengthAdjust="spacing" textLength="7" x="1074.8872" y="168.1842">1</text><polygon fill="#181818" points="1063.4865,312.0418,1062.6997,319.2098,1069.0137,322.6931,1069.8006,315.5251,1063.4865,312.0418" style="stroke:#181818;stroke-width:1.0;"/><path d="M1069.0137,322.6931 C1082.3889,348.4683 1093.047,369.0072 1106.4334,394.8039 " fill="none" style="stroke:#181818;stroke-width:1.0;"/><text fill="#000000" font-family="sans-serif" font-size="13" lengthAdjust="spacing" textLength="21" x="1084" y="345.0283">has</text><text fill="#000000" font-family="sans-serif" font-size="13" lengthAdjust="spacing" textLength="5" x="1100.4334" y="390.8323">*</text><text fill="#000000" font-family="sans-serif" font-size="13" lengthAdjust="spacing" textLength="7" x="1055.4865" y="327.0701">1</text><!--SRC=[dLHBQ-Cm4BxxLsXpITAD4_PgIY3Ri6sXfT2cUvzOgYtGmqZZWbdslwyi-LMlquRaaDXZVO_vPfnlXO5C0X5GwHA9bGn1GHJDSyJ29fjD8K1XASKwrNAJ2h0sfXmo0pAA_2svPRWJOi_UUShip-fNgLBaMe7WMDreXKOBmSoVYBZFV8Te-B54PkU-49CK48JEIfQGc_QoUPJhqhhoNVqJ1VmZmrpJ1lpzFEd5a6SrARWCYjp-TbZge1PDcQ8sEvELaYayXoCXHwq50nNCPKDpjqQN1QCZZmk7kGERFq9n_UA2KTcAF72Brm6rFpnjjz7VDkXGt5dBv74wqQcCg9R0rK4xiWNr34d3j296QvcGP_UzR8lkMC09vsDiDzL5zVJsmfJLvb0Lp2R1Rb_PdjEHvmTAG-sW7oQaQ7j-OCnnlsjE-qIwx4zkb_tCwsHU7UTYsSrnq74zilzuHYDoLayQ2dtTxnFo-dg_RueAf9jAoAirZe2b_RXIiH-Op-GvN7mW7GR8-tuzwtIldTtFDgFlpYy_ETbQZMbLQ-IqfYSPP5kVx5CDk4wnllqYobOnE9_Mh6a6aiqxkV2jdVSVGcO_PcIztlhVqOj84k9QifSmTSlMSeofkyDNitwvtE7KCC3BDCCKB_TSXzd20rTTlOfZRx9vceFz1m00]--></g></svg>