<?xml version="1.0" encoding="us-ascii" standalone="no"?><svg xmlns="http://www.w3.org/2000/svg" xmlns:xlink="http://www.w3.org/1999/xlink" contentStyleType="text/css" height="516px" preserveAspectRatio="none" style="width:1768px;height:516px;background:#FFFFFF;" version="1.1" viewBox="0 0 1768 516" width="1768px" zoomAndPan="magnify"><defs/><g><!--cluster SmartHome--><g id="cluster_SmartHome"><path d="M16.5,4 L97.5,4 A3.75,3.75 0 0 1 100,6.5 L107,28.6211 L1758.5,28.6211 A2.5,2.5 0 0 1 1761,31.1211 L1761,506.5 A2.5,2.5 0 0 1 1758.5,509 L16.5,509 A2.5,2.5 0 0 1 14,506.5 L14,6.5 A2.5,2.5 0 0 1 16.5,4 " fill="none" style="stroke:#000000;stroke-width:1.5;"/><line style="stroke:#000000;stroke-width:1.5;" x1="14" x2="107" y1="28.6211" y2="28.6211"/><text fill="#000000" font-family="sans-serif" font-size="14" font-weight="bold" lengthAdjust="spacing" textLength="80" x="18" y="21.1074">SmartHome</text></g><!--cluster actuators--><g id="cluster_actuators"><path d="M24.5,33 L91.5,33 A3.75,3.75 0 0 1 94,35.5 L101,57.6211 L361.5,57.6211 A2.5,2.5 0 0 1 364,60.1211 L364,470.5 A2.5,2.5 0 0 1 361.5,473 L24.5,473 A2.5,2.5 0 0 1 22,470.5 L22,35.5 A2.5,2.5 0 0 1 24.5,33 " fill="none" style="stroke:#000000;stroke-width:1.5;"/><line style="stroke:#000000;stroke-width:1.5;" x1="22" x2="101" y1="57.6211" y2="57.6211"/><text fill="#000000" font-family="sans-serif" font-size="14" font-weight="bold" lengthAdjust="spacing" textLength="66" x="26" y="50.1074">actuators</text></g><!--cluster domain--><g id="cluster_domain"><path d="M387.5,248 L439.5,248 A3.75,3.75 0 0 1 442,250.5 L449,272.6211 L1750.5,272.6211 A2.5,2.5 0 0 1 1753,275.1211 L1753,498.5 A2.5,2.5 0 0 1 1750.5,501 L387.5,501 A2.5,2.5 0 0 1 385,498.5 L385,250.5 A2.5,2.5 0 0 1 387.5,248 " fill="none" style="stroke:#000000;stroke-width:1.5;"/><line style="stroke:#000000;stroke-width:1.5;" x1="385" x2="449" y1="272.6211" y2="272.6211"/><text fill="#000000" font-family="sans-serif" font-size="14" font-weight="bold" lengthAdjust="spacing" textLength="51" x="389" y="265.1074">domain</text></g><!--class SwitchActuator--><g id="elem_SwitchActuator"><rect codeLine="5" fill="#F1F1F1" height="141.1055" id="SwitchActuator" rx="2.5" ry="2.5" style="stroke:#181818;stroke-width:0.5;" width="325" x="30.5" y="62"/><ellipse cx="142.25" cy="78" fill="#ADD1B2" rx="11" ry="11" style="stroke:#181818;stroke-width:1.0;"/><path d="M145.0156,73.875 Q145.1719,73.6563 145.3594,73.5469 Q145.5469,73.4375 145.7656,73.4375 Q146.1406,73.4375 146.375,73.7031 Q146.6094,73.9531 146.6094,74.5625 L146.6094,76.0156 Q146.6094,76.625 146.375,76.8906 Q146.1406,77.1563 145.7656,77.1563 Q145.4219,77.1563 145.2188,76.9531 Q145.0156,76.7656 144.9063,76.25 Q144.8594,75.8906 144.6719,75.7031 Q144.3438,75.3281 143.7344,75.1094 Q143.125,74.8906 142.5,74.8906 Q141.7344,74.8906 141.0938,75.2188 Q140.4688,75.5469 139.9688,76.2969 Q139.4844,77.0469 139.4844,78.0781 L139.4844,79.1719 Q139.4844,80.4063 140.375,81.2344 Q141.2656,82.0469 142.8594,82.0469 Q143.7969,82.0469 144.4531,81.7969 Q144.8438,81.6406 145.2656,81.2031 Q145.5313,80.9375 145.6719,80.8594 Q145.8281,80.7813 146.0313,80.7813 Q146.3594,80.7813 146.6094,81.0469 Q146.875,81.2969 146.875,81.6406 Q146.875,81.9844 146.5313,82.3906 Q146.0313,82.9688 145.2344,83.2969 Q144.1563,83.75 142.8594,83.75 Q141.3438,83.75 140.1406,83.125 Q139.1563,82.625 138.4688,81.5625 Q137.7813,80.4844 137.7813,79.2031 L137.7813,78.0469 Q137.7813,76.7188 138.3906,75.5781 Q139.0156,74.4219 140.1094,73.8125 Q141.2031,73.1875 142.4375,73.1875 Q143.1719,73.1875 143.8125,73.3594 Q144.4688,73.5156 145.0156,73.875 Z " fill="#000000"/><text fill="#000000" font-family="sans-serif" font-size="14" lengthAdjust="spacing" textLength="93" x="162.75" y="83.7969">SwitchActuator</text><line style="stroke:#181818;stroke-width:0.5;" x1="31.5" x2="354.5" y1="94" y2="94"/><rect fill="none" height="6" style="stroke:#C82930;stroke-width:1.0;" width="6" x="38.5" y="105.8105"/><text fill="#000000" font-family="sans-serif" font-size="14" lengthAdjust="spacing" textLength="189" x="50.5" y="113.1074">_actuatorType : ActuatorType</text><rect fill="none" height="6" style="stroke:#C82930;stroke-width:1.0;" width="6" x="38.5" y="124.4316"/><text fill="#000000" font-family="sans-serif" font-size="14" lengthAdjust="spacing" textLength="183" x="50.5" y="131.7285">_value : SwitchActuatorValue</text><line style="stroke:#181818;stroke-width:0.5;" x1="31.5" x2="354.5" y1="139.2422" y2="139.2422"/><ellipse cx="41.5" cy="154.0527" fill="#84BE84" rx="3" ry="3" style="stroke:#038048;stroke-width:1.0;"/><text fill="#000000" font-family="sans-serif" font-size="14" lengthAdjust="spacing" textLength="299" x="50.5" y="158.3496">SwitchActuator (catalogue : CatalogueActuator)</text><ellipse cx="41.5" cy="172.6738" fill="#84BE84" rx="3" ry="3" style="stroke:#038048;stroke-width:1.0;"/><text fill="#000000" font-family="sans-serif" font-size="14" lengthAdjust="spacing" textLength="216" x="50.5" y="176.9707">getActuatorType () : ActuatorType</text><ellipse cx="41.5" cy="191.2949" fill="#84BE84" rx="3" ry="3" style="stroke:#038048;stroke-width:1.0;"/><text fill="#000000" font-family="sans-serif" font-size="14" lengthAdjust="spacing" textLength="199" x="50.5" y="195.5918">setValue (value : Value) : Value</text></g><!--class SwitchActuatorValue--><g id="elem_SwitchActuatorValue"><rect codeLine="16" fill="#F1F1F1" height="159.7266" id="SwitchActuatorValue" rx="2.5" ry="2.5" style="stroke:#181818;stroke-width:0.5;" width="262" x="30" y="305"/><ellipse cx="92.25" cy="321" fill="#ADD1B2" rx="11" ry="11" style="stroke:#181818;stroke-width:1.0;"/><path d="M95.0156,316.875 Q95.1719,316.6563 95.3594,316.5469 Q95.5469,316.4375 95.7656,316.4375 Q96.1406,316.4375 96.375,316.7031 Q96.6094,316.9531 96.6094,317.5625 L96.6094,319.0156 Q96.6094,319.625 96.375,319.8906 Q96.1406,320.1563 95.7656,320.1563 Q95.4219,320.1563 95.2188,319.9531 Q95.0156,319.7656 94.9063,319.25 Q94.8594,318.8906 94.6719,318.7031 Q94.3438,318.3281 93.7344,318.1094 Q93.125,317.8906 92.5,317.8906 Q91.7344,317.8906 91.0938,318.2188 Q90.4688,318.5469 89.9688,319.2969 Q89.4844,320.0469 89.4844,321.0781 L89.4844,322.1719 Q89.4844,323.4063 90.375,324.2344 Q91.2656,325.0469 92.8594,325.0469 Q93.7969,325.0469 94.4531,324.7969 Q94.8438,324.6406 95.2656,324.2031 Q95.5313,323.9375 95.6719,323.8594 Q95.8281,323.7813 96.0313,323.7813 Q96.3594,323.7813 96.6094,324.0469 Q96.875,324.2969 96.875,324.6406 Q96.875,324.9844 96.5313,325.3906 Q96.0313,325.9688 95.2344,326.2969 Q94.1563,326.75 92.8594,326.75 Q91.3438,326.75 90.1406,326.125 Q89.1563,325.625 88.4688,324.5625 Q87.7813,323.4844 87.7813,322.2031 L87.7813,321.0469 Q87.7813,319.7188 88.3906,318.5781 Q89.0156,317.4219 90.1094,316.8125 Q91.2031,316.1875 92.4375,316.1875 Q93.1719,316.1875 93.8125,316.3594 Q94.4688,316.5156 95.0156,316.875 Z " fill="#000000"/><text fill="#000000" font-family="sans-serif" font-size="14" lengthAdjust="spacing" textLength="129" x="112.75" y="326.7969">SwitchActuatorValue</text><line style="stroke:#181818;stroke-width:0.5;" x1="31" x2="291" y1="337" y2="337"/><rect fill="none" height="6" style="stroke:#C82930;stroke-width:1.0;" width="6" x="38" y="348.8105"/><text fill="#000000" font-family="sans-serif" font-size="14" lengthAdjust="spacing" textLength="105" x="50" y="356.1074">_value : boolean</text><line style="stroke:#181818;stroke-width:0.5;" x1="31" x2="291" y1="363.6211" y2="363.6211"/><ellipse cx="41" cy="378.4316" fill="#84BE84" rx="3" ry="3" style="stroke:#038048;stroke-width:1.0;"/><text fill="#000000" font-family="sans-serif" font-size="14" lengthAdjust="spacing" textLength="236" x="50" y="382.7285">SwitchActuatorValue(value : boolean)</text><ellipse cx="41" cy="397.0527" fill="#84BE84" rx="3" ry="3" style="stroke:#038048;stroke-width:1.0;"/><text fill="#000000" font-family="sans-serif" font-size="14" lengthAdjust="spacing" textLength="108" x="50" y="401.3496">toString() : String</text><ellipse cx="41" cy="415.6738" fill="#84BE84" rx="3" ry="3" style="stroke:#038048;stroke-width:1.0;"/><text fill="#000000" font-family="sans-serif" font-size="14" lengthAdjust="spacing" textLength="147" x="50" y="419.9707">setValueOn() : boolean</text><ellipse cx="41" cy="434.2949" fill="#84BE84" rx="3" ry="3" style="stroke:#038048;stroke-width:1.0;"/><text fill="#000000" font-family="sans-serif" font-size="14" lengthAdjust="spacing" textLength="143" x="50" y="438.5918">setValueOff(): boolean</text><ellipse cx="41" cy="452.916" fill="#84BE84" rx="3" ry="3" style="stroke:#038048;stroke-width:1.0;"/><text fill="#000000" font-family="sans-serif" font-size="14" lengthAdjust="spacing" textLength="108" x="50" y="457.2129">toString() : String</text></g><!--class Value--><g id="elem_Value"><rect codeLine="47" fill="#F1F1F1" height="48" id="Value" rx="2.5" ry="2.5" style="stroke:#181818;stroke-width:0.5;" width="68" x="393" y="361"/><ellipse cx="408" cy="377" fill="#B4A7E5" rx="11" ry="11" style="stroke:#181818;stroke-width:1.0;"/><path d="M408.9531,373.6406 L408.9531,380.2969 L410.6719,380.2969 Q411.2813,380.2969 411.5469,380.5313 Q411.8125,380.7656 411.8125,381.1563 Q411.8125,381.5313 411.5469,381.7656 Q411.2813,382 410.6719,382 L405.5313,382 Q404.9219,382 404.6563,381.7656 Q404.3906,381.5313 404.3906,381.1406 Q404.3906,380.7656 404.6563,380.5313 Q404.9219,380.2969 405.5313,380.2969 L407.25,380.2969 L407.25,373.6406 L405.5313,373.6406 Q404.9219,373.6406 404.6563,373.4063 Q404.3906,373.1719 404.3906,372.7813 Q404.3906,372.4063 404.6563,372.1719 Q404.9219,371.9375 405.5313,371.9375 L410.6719,371.9375 Q411.2813,371.9375 411.5469,372.1719 Q411.8125,372.4063 411.8125,372.7813 Q411.8125,373.1719 411.5469,373.4063 Q411.2813,373.6406 410.6719,373.6406 L408.9531,373.6406 Z " fill="#000000"/><text fill="#000000" font-family="sans-serif" font-size="14" font-style="italic" lengthAdjust="spacing" textLength="36" x="422" y="382.7969">Value</text><line style="stroke:#181818;stroke-width:0.5;" x1="394" x2="460" y1="393" y2="393"/><line style="stroke:#181818;stroke-width:0.5;" x1="394" x2="460" y1="401" y2="401"/></g><!--class Actuator--><g id="elem_Actuator"><rect codeLine="32" fill="#F1F1F1" height="66.6211" id="Actuator" rx="2.5" ry="2.5" style="stroke:#181818;stroke-width:0.5;" width="238" x="479" y="351.5"/><ellipse cx="567.25" cy="367.5" fill="#B4A7E5" rx="11" ry="11" style="stroke:#181818;stroke-width:1.0;"/><path d="M568.2031,364.1406 L568.2031,370.7969 L569.9219,370.7969 Q570.5313,370.7969 570.7969,371.0313 Q571.0625,371.2656 571.0625,371.6563 Q571.0625,372.0313 570.7969,372.2656 Q570.5313,372.5 569.9219,372.5 L564.7813,372.5 Q564.1719,372.5 563.9063,372.2656 Q563.6406,372.0313 563.6406,371.6406 Q563.6406,371.2656 563.9063,371.0313 Q564.1719,370.7969 564.7813,370.7969 L566.5,370.7969 L566.5,364.1406 L564.7813,364.1406 Q564.1719,364.1406 563.9063,363.9063 Q563.6406,363.6719 563.6406,363.2813 Q563.6406,362.9063 563.9063,362.6719 Q564.1719,362.4375 564.7813,362.4375 L569.9219,362.4375 Q570.5313,362.4375 570.7969,362.6719 Q571.0625,362.9063 571.0625,363.2813 Q571.0625,363.6719 570.7969,363.9063 Q570.5313,364.1406 569.9219,364.1406 L568.2031,364.1406 Z " fill="#000000"/><text fill="#000000" font-family="sans-serif" font-size="14" font-style="italic" lengthAdjust="spacing" textLength="53" x="587.75" y="373.2969">Actuator</text><line style="stroke:#181818;stroke-width:0.5;" x1="480" x2="716" y1="383.5" y2="383.5"/><line style="stroke:#181818;stroke-width:0.5;" x1="480" x2="716" y1="391.5" y2="391.5"/><ellipse cx="490" cy="406.3105" fill="#84BE84" rx="3" ry="3" style="stroke:#038048;stroke-width:1.0;"/><text fill="#000000" font-family="sans-serif" font-size="14" lengthAdjust="spacing" textLength="212" x="499" y="410.6074">getActuatorType() : ActuatorType</text></g><!--class ActuatorType--><g id="elem_ActuatorType"><rect codeLine="37" fill="#F1F1F1" height="122.4844" id="ActuatorType" rx="2.5" ry="2.5" style="stroke:#181818;stroke-width:0.5;" width="324" x="735" y="324"/><ellipse cx="850.25" cy="340" fill="#ADD1B2" rx="11" ry="11" style="stroke:#181818;stroke-width:1.0;"/><path d="M853.0156,335.875 Q853.1719,335.6563 853.3594,335.5469 Q853.5469,335.4375 853.7656,335.4375 Q854.1406,335.4375 854.375,335.7031 Q854.6094,335.9531 854.6094,336.5625 L854.6094,338.0156 Q854.6094,338.625 854.375,338.8906 Q854.1406,339.1563 853.7656,339.1563 Q853.4219,339.1563 853.2188,338.9531 Q853.0156,338.7656 852.9063,338.25 Q852.8594,337.8906 852.6719,337.7031 Q852.3438,337.3281 851.7344,337.1094 Q851.125,336.8906 850.5,336.8906 Q849.7344,336.8906 849.0938,337.2188 Q848.4688,337.5469 847.9688,338.2969 Q847.4844,339.0469 847.4844,340.0781 L847.4844,341.1719 Q847.4844,342.4063 848.375,343.2344 Q849.2656,344.0469 850.8594,344.0469 Q851.7969,344.0469 852.4531,343.7969 Q852.8438,343.6406 853.2656,343.2031 Q853.5313,342.9375 853.6719,342.8594 Q853.8281,342.7813 854.0313,342.7813 Q854.3594,342.7813 854.6094,343.0469 Q854.875,343.2969 854.875,343.6406 Q854.875,343.9844 854.5313,344.3906 Q854.0313,344.9688 853.2344,345.2969 Q852.1563,345.75 850.8594,345.75 Q849.3438,345.75 848.1406,345.125 Q847.1563,344.625 846.4688,343.5625 Q845.7813,342.4844 845.7813,341.2031 L845.7813,340.0469 Q845.7813,338.7188 846.3906,337.5781 Q847.0156,336.4219 848.1094,335.8125 Q849.2031,335.1875 850.4375,335.1875 Q851.1719,335.1875 851.8125,335.3594 Q852.4688,335.5156 853.0156,335.875 Z " fill="#000000"/><text fill="#000000" font-family="sans-serif" font-size="14" lengthAdjust="spacing" textLength="85" x="870.75" y="345.7969">ActuatorType</text><line style="stroke:#181818;stroke-width:0.5;" x1="736" x2="1058" y1="356" y2="356"/><rect fill="none" height="6" style="stroke:#C82930;stroke-width:1.0;" width="6" x="743" y="367.8105"/><text fill="#000000" font-family="sans-serif" font-size="14" lengthAdjust="spacing" textLength="144" x="755" y="375.1074">_strDescription : String</text><line style="stroke:#181818;stroke-width:0.5;" x1="736" x2="1058" y1="382.6211" y2="382.6211"/><polygon fill="#FFFF44" points="746,392.4316,750,396.4316,746,400.4316,742,396.4316" style="stroke:#B38D22;stroke-width:1.0;"/><text fill="#000000" font-family="sans-serif" font-size="14" lengthAdjust="spacing" textLength="298" x="755" y="401.7285">ActuatorType(strDescription : String, unit : Unit)</text><rect fill="#F24D5C" height="6" style="stroke:#C82930;stroke-width:1.0;" width="6" x="743" y="413.0527"/><text fill="#000000" font-family="sans-serif" font-size="14" lengthAdjust="spacing" textLength="274" x="755" y="420.3496">setDescription(strDescription : String) : void</text><ellipse cx="746" cy="434.6738" fill="#84BE84" rx="3" ry="3" style="stroke:#038048;stroke-width:1.0;"/><text fill="#000000" font-family="sans-serif" font-size="14" lengthAdjust="spacing" textLength="168" x="755" y="438.9707">getStrDescription() : String</text></g><!--class CatalogueActuator--><g id="elem_CatalogueActuator"><rect codeLine="50" fill="#F1F1F1" height="215.5898" id="CatalogueActuator" rx="2.5" ry="2.5" style="stroke:#181818;stroke-width:0.5;" width="668" x="1077" y="277"/><ellipse cx="1347.75" cy="293" fill="#ADD1B2" rx="11" ry="11" style="stroke:#181818;stroke-width:1.0;"/><path d="M1350.5156,288.875 Q1350.6719,288.6563 1350.8594,288.5469 Q1351.0469,288.4375 1351.2656,288.4375 Q1351.6406,288.4375 1351.875,288.7031 Q1352.1094,288.9531 1352.1094,289.5625 L1352.1094,291.0156 Q1352.1094,291.625 1351.875,291.8906 Q1351.6406,292.1563 1351.2656,292.1563 Q1350.9219,292.1563 1350.7188,291.9531 Q1350.5156,291.7656 1350.4063,291.25 Q1350.3594,290.8906 1350.1719,290.7031 Q1349.8438,290.3281 1349.2344,290.1094 Q1348.625,289.8906 1348,289.8906 Q1347.2344,289.8906 1346.5938,290.2188 Q1345.9688,290.5469 1345.4688,291.2969 Q1344.9844,292.0469 1344.9844,293.0781 L1344.9844,294.1719 Q1344.9844,295.4063 1345.875,296.2344 Q1346.7656,297.0469 1348.3594,297.0469 Q1349.2969,297.0469 1349.9531,296.7969 Q1350.3438,296.6406 1350.7656,296.2031 Q1351.0313,295.9375 1351.1719,295.8594 Q1351.3281,295.7813 1351.5313,295.7813 Q1351.8594,295.7813 1352.1094,296.0469 Q1352.375,296.2969 1352.375,296.6406 Q1352.375,296.9844 1352.0313,297.3906 Q1351.5313,297.9688 1350.7344,298.2969 Q1349.6563,298.75 1348.3594,298.75 Q1346.8438,298.75 1345.6406,298.125 Q1344.6563,297.625 1343.9688,296.5625 Q1343.2813,295.4844 1343.2813,294.2031 L1343.2813,293.0469 Q1343.2813,291.7188 1343.8906,290.5781 Q1344.5156,289.4219 1345.6094,288.8125 Q1346.7031,288.1875 1347.9375,288.1875 Q1348.6719,288.1875 1349.3125,288.3594 Q1349.9688,288.5156 1350.5156,288.875 Z " fill="#000000"/><text fill="#000000" font-family="sans-serif" font-size="14" lengthAdjust="spacing" textLength="118" x="1368.25" y="298.7969">CatalogueActuator</text><line style="stroke:#181818;stroke-width:0.5;" x1="1078" x2="1744" y1="309" y2="309"/><rect fill="none" height="6" style="stroke:#C82930;stroke-width:1.0;" width="6" x="1085" y="320.8105"/><text fill="#000000" font-family="sans-serif" font-size="14" lengthAdjust="spacing" textLength="252" x="1097" y="328.1074">_listActuatorTypes : List&lt;ActuatorType&gt;</text><rect fill="none" height="6" style="stroke:#C82930;stroke-width:1.0;" width="6" x="1085" y="339.4316"/><text fill="#000000" font-family="sans-serif" font-size="14" lengthAdjust="spacing" textLength="252" x="1097" y="346.7285">_listStringClassesActuator : List&lt;String&gt;</text><line style="stroke:#181818;stroke-width:0.5;" x1="1078" x2="1744" y1="354.2422" y2="354.2422"/><ellipse cx="1088" cy="369.0527" fill="#84BE84" rx="3" ry="3" style="stroke:#038048;stroke-width:1.0;"/><text fill="#000000" font-family="sans-serif" font-size="14" lengthAdjust="spacing" textLength="259" x="1097" y="373.3496">CatalogueActuator(filePathname : String)</text><ellipse cx="1088" cy="387.6738" fill="#84BE84" rx="3" ry="3" style="stroke:#038048;stroke-width:1.0;"/><text fill="#000000" font-family="sans-serif" font-size="14" lengthAdjust="spacing" textLength="642" x="1097" y="391.9707">addActuatorType((strDescription : String, actuatorTypeFactory : ActuatorTypeFactory) : ActuatorType</text><polygon fill="#FFFF44" points="1088,401.2949,1092,405.2949,1088,409.2949,1084,405.2949" style="stroke:#B38D22;stroke-width:1.0;"/><text fill="#000000" font-family="sans-serif" font-size="14" lengthAdjust="spacing" textLength="436" x="1097" y="410.5918">addActuatorTypeToList(actuatorType : ActuatorType) : ActuatorType</text><ellipse cx="1088" cy="424.916" fill="#84BE84" rx="3" ry="3" style="stroke:#038048;stroke-width:1.0;"/><text fill="#000000" font-family="sans-serif" font-size="14" lengthAdjust="spacing" textLength="253" x="1097" y="429.2129">getActuatorTypes(): List&lt;ActuatorType&gt;</text><ellipse cx="1088" cy="443.5371" fill="#84BE84" rx="3" ry="3" style="stroke:#038048;stroke-width:1.0;"/><text fill="#000000" font-family="sans-serif" font-size="14" lengthAdjust="spacing" textLength="348" x="1097" y="447.834">getActuatorType(strDescription : String) : ActuatorType</text><ellipse cx="1088" cy="462.1582" fill="#84BE84" rx="3" ry="3" style="stroke:#038048;stroke-width:1.0;"/><text fill="#000000" font-family="sans-serif" font-size="14" lengthAdjust="spacing" textLength="215" x="1097" y="466.4551">getActuatorModels() : List&lt;String&gt;</text><ellipse cx="1088" cy="480.7793" fill="#84BE84" rx="3" ry="3" style="stroke:#038048;stroke-width:1.0;"/><text fill="#000000" font-family="sans-serif" font-size="14" lengthAdjust="spacing" textLength="407" x="1097" y="485.0762">getActuator(strModel : String, actuatorFactory : ActuatorFactory)</text></g><polygon fill="none" points="392.7688,385,374.7688,379,374.7688,391,392.7688,385" style="stroke:#181818;stroke-width:1.0;"/><path d="M374.7688,385 C341.2397,385 325.7107,385 292.1816,385 " fill="none" style="stroke:#181818;stroke-width:1.0;stroke-dasharray:7.0,7.0;"/><polygon fill="none" points="573.952,351.3932,567.5709,333.5248,558.126,340.9271,573.952,351.3932" style="stroke:#181818;stroke-width:1.0;"/><path d="M355.714,187.3139 C394.8323,203.8167 435.3037,224.0674 470,248 C511.7703,276.8121 539.2028,307.0558 562.8485,337.2259 " fill="none" style="stroke:#181818;stroke-width:1.0;stroke-dasharray:7.0,7.0;"/><text fill="#000000" font-family="sans-serif" font-size="13" lengthAdjust="spacing" textLength="81" x="457" y="236.0283">&#171;implements&#187;</text><polygon fill="#181818" points="835.5957,323.6902,831.4766,314.7441,831.8402,320.3892,826.195,320.7528,835.5957,323.6902" style="stroke:#181818;stroke-width:1.0;"/><path d="M355.7519,148.8283 C464.6404,163.7247 608.889,192.6168 726,248 C765.9487,266.8923 800.4447,292.7935 831.0891,319.729 " fill="none" style="stroke:#181818;stroke-width:1.0;"/><text fill="#000000" font-family="sans-serif" font-size="13" lengthAdjust="spacing" textLength="35" x="700" y="236.0283">&#171;has&#187;</text><text fill="#000000" font-family="sans-serif" font-size="13" lengthAdjust="spacing" textLength="7" x="827.5957" y="319.7185">1</text><text fill="#000000" font-family="sans-serif" font-size="13" lengthAdjust="spacing" textLength="7" x="356.7519" y="163.8566">1</text><polygon fill="#181818" points="171.1065,304.8853,176.2147,296.4647,171.74,299.9256,168.2791,295.451,171.1065,304.8853" style="stroke:#181818;stroke-width:1.0;"/><path d="M184.0862,203.2782 C180.0547,234.8375 176.0313,266.3335 171.8668,298.9337 " fill="none" style="stroke:#181818;stroke-width:1.0;"/><text fill="#000000" font-family="sans-serif" font-size="13" lengthAdjust="spacing" textLength="35" x="183" y="236.0283">&#171;has&#187;</text><text fill="#000000" font-family="sans-serif" font-size="13" lengthAdjust="spacing" textLength="7" x="163.1065" y="300.9137">1</text><text fill="#000000" font-family="sans-serif" font-size="13" lengthAdjust="spacing" textLength="7" x="176.0862" y="218.3065">1</text><polygon fill="#181818" points="1161.8972,276.9944,1154.73,270.2394,1157.1794,275.3384,1152.0804,277.7878,1161.8972,276.9944" style="stroke:#181818;stroke-width:1.0;"/><path d="M1156.2359,275.0072 C1124.9992,264.0428 1098.8483,256.0019 1068,248 C824.4224,184.8169 533.2083,155.5764 355.7544,142.7326 " fill="none" style="stroke:#181818;stroke-width:1.0;stroke-dasharray:7.0,7.0;"/><text fill="#000000" font-family="sans-serif" font-size="13" lengthAdjust="spacing" textLength="42" x="1022" y="236.0283">&#171;uses&#187;</text><text fill="#000000" font-family="sans-serif" font-size="13" lengthAdjust="spacing" textLength="7" x="356.7544" y="138.761">1</text><text fill="#000000" font-family="sans-serif" font-size="13" lengthAdjust="spacing" textLength="7" x="1153.8972" y="273.0227">1</text><polygon fill="none" points="392.982,385,374.982,379,374.982,391,392.982,385" style="stroke:#181818;stroke-width:1.0;"/><path d="M292.0518,385 C329.4263,385 349.006,385 374.982,385 " fill="none" style="stroke:#181818;stroke-width:1.0;stroke-dasharray:7.0,7.0;"/><text fill="#000000" font-family="sans-serif" font-size="13" lengthAdjust="spacing" textLength="81" x="302" y="378.0283">&#171;implements&#187;</text><!--SRC=[fLLDZvim4BtpAzpTmnAb8FLQ8QHegwg7hbefsxr6i-0aLi56UDWgQlU_rzWGR6oogSe5xFbups_6mxkcXKCDf8AJw938cY9mYA86Yfzme6HRGujVH4rJAB035AqalwE8gAUeG4go_SMmE6u6exAHuRdR8BRikKCgxywR2TcDUHvF3IKVoSPQsculK7MztSt_rEz64yO3nQCeBO3rZ4zS048b3ZhN_VWzcbTJt86YJON4goLoQqbHyo3nI58lL-E7zdnT5ia4ixgfQ4qvIalaKjJ0U6eytjBohD6p41K5_W-wQ81u5c-fWMAh0Fb1gs0-_VD_uzeyells_JvU1UnBoPLahw7ECwACRSSuqdOF1IMXflCFJcQL3HVMAPVJ22QvLu5a9x7zH6NHiWQPuDDH8f_8hKDW8V0zwJX3jVoXNgOMYPBISbsAx4_q8bWPdG-yTHm3GhjAsltcAE7Tc4KvoAvYqX5QAj2lQY-pDtFRsr2wxv6eF2CCKSQOX-HSUxJYFQleTy0ZXvfEkXXlA4j7_-K2sBFfirg8zZHhbc4ts4EtCw17qHyalZ3mWcdceqZsbsX1oBdlfGwv2FGWIbf9tIYE-dE_7a3x1bJp5HlL6XfBjLRWVvBEHdQQ_idzaMYrHvPDipFFhqbvy-6694cktukPX_fasH7-A-sI-zCmRNs0WOX_sVh4MPfU2Q1pT-egNSNUq0cBFL5rbFuB]--></g></svg>