<?xml version="1.0" encoding="us-ascii" standalone="no"?><svg xmlns="http://www.w3.org/2000/svg" xmlns:xlink="http://www.w3.org/1999/xlink" contentStyleType="text/css" height="1052px" preserveAspectRatio="none" style="width:1611px;height:1052px;background:#FFFFFF;" version="1.1" viewBox="0 0 1611 1052" width="1611px" zoomAndPan="magnify"><defs/><g><!--cluster domain--><g id="cluster_domain"><path d="M16.5,4 L68.5,4 A3.75,3.75 0 0 1 71,6.5 L78,28.6211 L1601.5,28.6211 A2.5,2.5 0 0 1 1604,31.1211 L1604,1042.5 A2.5,2.5 0 0 1 1601.5,1045 L16.5,1045 A2.5,2.5 0 0 1 14,1042.5 L14,6.5 A2.5,2.5 0 0 1 16.5,4 " fill="none" style="stroke:#000000;stroke-width:1.5;"/><line style="stroke:#000000;stroke-width:1.5;" x1="14" x2="78" y1="28.6211" y2="28.6211"/><text fill="#000000" font-family="sans-serif" font-size="14" font-weight="bold" lengthAdjust="spacing" textLength="51" x="18" y="21.1074">domain</text></g><!--cluster actuator--><g id="cluster_actuator"><path d="M24.5,33 L83.5,33 A3.75,3.75 0 0 1 86,35.5 L93,57.6211 L1593.5,57.6211 A2.5,2.5 0 0 1 1596,60.1211 L1596,760.5 A2.5,2.5 0 0 1 1593.5,763 L24.5,763 A2.5,2.5 0 0 1 22,760.5 L22,35.5 A2.5,2.5 0 0 1 24.5,33 " fill="none" style="stroke:#000000;stroke-width:1.5;"/><line style="stroke:#000000;stroke-width:1.5;" x1="22" x2="93" y1="57.6211" y2="57.6211"/><text fill="#000000" font-family="sans-serif" font-size="14" font-weight="bold" lengthAdjust="spacing" textLength="58" x="26" y="50.1074">actuator</text></g><!--cluster SwitchActuator--><g id="cluster_SwitchActuator"><path d="M364.5,174 L470.5,174 A3.75,3.75 0 0 1 473,176.5 L480,198.6211 L1585.5,198.6211 A2.5,2.5 0 0 1 1588,201.1211 L1588,739 A2.5,2.5 0 0 1 1585.5,741.5 L364.5,741.5 A2.5,2.5 0 0 1 362,739 L362,176.5 A2.5,2.5 0 0 1 364.5,174 " fill="none" style="stroke:#000000;stroke-width:1.5;"/><line style="stroke:#000000;stroke-width:1.5;" x1="362" x2="480" y1="198.6211" y2="198.6211"/><text fill="#000000" font-family="sans-serif" font-size="14" font-weight="bold" lengthAdjust="spacing" textLength="105" x="366" y="191.1074">SwitchActuator</text></g><!--cluster ddd--><g id="cluster_ddd"><path d="M695.5,782 L723.5,782 A3.75,3.75 0 0 1 726,784.5 L733,806.6211 L949.5,806.6211 A2.5,2.5 0 0 1 952,809.1211 L952,1034.5 A2.5,2.5 0 0 1 949.5,1037 L695.5,1037 A2.5,2.5 0 0 1 693,1034.5 L693,784.5 A2.5,2.5 0 0 1 695.5,782 " fill="none" style="stroke:#000000;stroke-width:1.5;"/><line style="stroke:#000000;stroke-width:1.5;" x1="693" x2="733" y1="806.6211" y2="806.6211"/><text fill="#000000" font-family="sans-serif" font-size="14" font-weight="bold" lengthAdjust="spacing" textLength="27" x="697" y="799.1074">ddd</text></g><!--class Actuator--><g id="elem_Actuator"><rect codeLine="5" fill="#F1F1F1" height="178.3477" id="Actuator" rx="2.5" ry="2.5" style="stroke:#181818;stroke-width:0.5;" width="303" x="49.5" y="577"/><ellipse cx="170.25" cy="593" fill="#B4A7E5" rx="11" ry="11" style="stroke:#181818;stroke-width:1.0;"/><path d="M171.2031,589.6406 L171.2031,596.2969 L172.9219,596.2969 Q173.5313,596.2969 173.7969,596.5313 Q174.0625,596.7656 174.0625,597.1563 Q174.0625,597.5313 173.7969,597.7656 Q173.5313,598 172.9219,598 L167.7813,598 Q167.1719,598 166.9063,597.7656 Q166.6406,597.5313 166.6406,597.1406 Q166.6406,596.7656 166.9063,596.5313 Q167.1719,596.2969 167.7813,596.2969 L169.5,596.2969 L169.5,589.6406 L167.7813,589.6406 Q167.1719,589.6406 166.9063,589.4063 Q166.6406,589.1719 166.6406,588.7813 Q166.6406,588.4063 166.9063,588.1719 Q167.1719,587.9375 167.7813,587.9375 L172.9219,587.9375 Q173.5313,587.9375 173.7969,588.1719 Q174.0625,588.4063 174.0625,588.7813 Q174.0625,589.1719 173.7969,589.4063 Q173.5313,589.6406 172.9219,589.6406 L171.2031,589.6406 Z " fill="#000000"/><text fill="#000000" font-family="sans-serif" font-size="14" font-style="italic" lengthAdjust="spacing" textLength="53" x="190.75" y="598.7969">Actuator</text><line style="stroke:#181818;stroke-width:0.5;" x1="50.5" x2="351.5" y1="609" y2="609"/><line style="stroke:#181818;stroke-width:0.5;" x1="50.5" x2="351.5" y1="617" y2="617"/><ellipse cx="60.5" cy="631.8105" fill="#84BE84" rx="3" ry="3" style="stroke:#038048;stroke-width:1.0;"/><text fill="#000000" font-family="sans-serif" font-size="14" lengthAdjust="spacing" textLength="121" x="69.5" y="636.1074">getID() : ActuatorID</text><ellipse cx="60.5" cy="650.4316" fill="#84BE84" rx="3" ry="3" style="stroke:#038048;stroke-width:1.0;"/><text fill="#000000" font-family="sans-serif" font-size="14" lengthAdjust="spacing" textLength="167" x="69.5" y="654.7285">getName() : ActuatorName</text><ellipse cx="60.5" cy="669.0527" fill="#84BE84" rx="3" ry="3" style="stroke:#038048;stroke-width:1.0;"/><text fill="#000000" font-family="sans-serif" font-size="14" lengthAdjust="spacing" textLength="176" x="69.5" y="673.3496">getModelPath() : ModelPath</text><ellipse cx="60.5" cy="687.6738" fill="#84BE84" rx="3" ry="3" style="stroke:#038048;stroke-width:1.0;"/><text fill="#000000" font-family="sans-serif" font-size="14" lengthAdjust="spacing" textLength="238" x="69.5" y="691.9707">getActuatorTypeID() : ActuatorTypeID</text><ellipse cx="60.5" cy="706.2949" fill="#84BE84" rx="3" ry="3" style="stroke:#038048;stroke-width:1.0;"/><text fill="#000000" font-family="sans-serif" font-size="14" lengthAdjust="spacing" textLength="154" x="69.5" y="710.5918">getDeviceID() : DeviceID</text><ellipse cx="60.5" cy="724.916" fill="#84BE84" rx="3" ry="3" style="stroke:#038048;stroke-width:1.0;"/><text fill="#000000" font-family="sans-serif" font-size="14" lengthAdjust="spacing" textLength="108" x="69.5" y="729.2129">toString() : String</text><ellipse cx="60.5" cy="743.5371" fill="#84BE84" rx="3" ry="3" style="stroke:#038048;stroke-width:1.0;"/><text fill="#000000" font-family="sans-serif" font-size="14" lengthAdjust="spacing" textLength="277" x="69.5" y="747.834">setValue(value : ValueObject) : ValueObject</text></g><!--class ActuatorFactory--><g id="elem_ActuatorFactory"><rect codeLine="16" fill="#F1F1F1" height="66.6211" id="ActuatorFactory" rx="2.5" ry="2.5" style="stroke:#181818;stroke-width:0.5;" width="323" x="30.5" y="329"/><ellipse cx="137.25" cy="345" fill="#B4A7E5" rx="11" ry="11" style="stroke:#181818;stroke-width:1.0;"/><path d="M138.2031,341.6406 L138.2031,348.2969 L139.9219,348.2969 Q140.5313,348.2969 140.7969,348.5313 Q141.0625,348.7656 141.0625,349.1563 Q141.0625,349.5313 140.7969,349.7656 Q140.5313,350 139.9219,350 L134.7813,350 Q134.1719,350 133.9063,349.7656 Q133.6406,349.5313 133.6406,349.1406 Q133.6406,348.7656 133.9063,348.5313 Q134.1719,348.2969 134.7813,348.2969 L136.5,348.2969 L136.5,341.6406 L134.7813,341.6406 Q134.1719,341.6406 133.9063,341.4063 Q133.6406,341.1719 133.6406,340.7813 Q133.6406,340.4063 133.9063,340.1719 Q134.1719,339.9375 134.7813,339.9375 L139.9219,339.9375 Q140.5313,339.9375 140.7969,340.1719 Q141.0625,340.4063 141.0625,340.7813 Q141.0625,341.1719 140.7969,341.4063 Q140.5313,341.6406 139.9219,341.6406 L138.2031,341.6406 Z " fill="#000000"/><text fill="#000000" font-family="sans-serif" font-size="14" font-style="italic" lengthAdjust="spacing" textLength="101" x="157.75" y="350.7969">ActuatorFactory</text><line style="stroke:#181818;stroke-width:0.5;" x1="31.5" x2="352.5" y1="361" y2="361"/><line style="stroke:#181818;stroke-width:0.5;" x1="31.5" x2="352.5" y1="369" y2="369"/><ellipse cx="41.5" cy="383.8105" fill="#84BE84" rx="3" ry="3" style="stroke:#038048;stroke-width:1.0;"/><text fill="#000000" font-family="sans-serif" font-size="14" lengthAdjust="spacing" textLength="297" x="50.5" y="388.1074">createActuator(Object... parameters) : Actuator</text></g><!--class ImplActuatorFactory--><g id="elem_ImplActuatorFactory"><rect codeLine="20" fill="#F1F1F1" height="66.6211" id="ImplActuatorFactory" rx="2.5" ry="2.5" style="stroke:#181818;stroke-width:0.5;" width="319" x="370.5" y="62"/><ellipse cx="462.75" cy="78" fill="#ADD1B2" rx="11" ry="11" style="stroke:#181818;stroke-width:1.0;"/><path d="M465.5156,73.875 Q465.6719,73.6563 465.8594,73.5469 Q466.0469,73.4375 466.2656,73.4375 Q466.6406,73.4375 466.875,73.7031 Q467.1094,73.9531 467.1094,74.5625 L467.1094,76.0156 Q467.1094,76.625 466.875,76.8906 Q466.6406,77.1563 466.2656,77.1563 Q465.9219,77.1563 465.7188,76.9531 Q465.5156,76.7656 465.4063,76.25 Q465.3594,75.8906 465.1719,75.7031 Q464.8438,75.3281 464.2344,75.1094 Q463.625,74.8906 463,74.8906 Q462.2344,74.8906 461.5938,75.2188 Q460.9688,75.5469 460.4688,76.2969 Q459.9844,77.0469 459.9844,78.0781 L459.9844,79.1719 Q459.9844,80.4063 460.875,81.2344 Q461.7656,82.0469 463.3594,82.0469 Q464.2969,82.0469 464.9531,81.7969 Q465.3438,81.6406 465.7656,81.2031 Q466.0313,80.9375 466.1719,80.8594 Q466.3281,80.7813 466.5313,80.7813 Q466.8594,80.7813 467.1094,81.0469 Q467.375,81.2969 467.375,81.6406 Q467.375,81.9844 467.0313,82.3906 Q466.5313,82.9688 465.7344,83.2969 Q464.6563,83.75 463.3594,83.75 Q461.8438,83.75 460.6406,83.125 Q459.6563,82.625 458.9688,81.5625 Q458.2813,80.4844 458.2813,79.2031 L458.2813,78.0469 Q458.2813,76.7188 458.8906,75.5781 Q459.5156,74.4219 460.6094,73.8125 Q461.7031,73.1875 462.9375,73.1875 Q463.6719,73.1875 464.3125,73.3594 Q464.9688,73.5156 465.5156,73.875 Z " fill="#000000"/><text fill="#000000" font-family="sans-serif" font-size="14" lengthAdjust="spacing" textLength="126" x="483.25" y="83.7969">ImplActuatorFactory</text><line style="stroke:#181818;stroke-width:0.5;" x1="371.5" x2="688.5" y1="94" y2="94"/><line style="stroke:#181818;stroke-width:0.5;" x1="371.5" x2="688.5" y1="102" y2="102"/><ellipse cx="381.5" cy="116.8105" fill="#84BE84" rx="3" ry="3" style="stroke:#038048;stroke-width:1.0;"/><text fill="#000000" font-family="sans-serif" font-size="14" lengthAdjust="spacing" textLength="293" x="390.5" y="121.1074">createActuator(Object... parameters): Actuator</text></g><!--class SwitchActuator--><g id="elem_SwitchActuator"><rect codeLine="27" fill="#F1F1F1" height="318.6172" id="SwitchActuator" rx="2.5" ry="2.5" style="stroke:#181818;stroke-width:0.5;" width="927" x="403.5" y="203"/><ellipse cx="816.25" cy="233.2715" fill="#ADD1B2" rx="11" ry="11" style="stroke:#181818;stroke-width:1.0;"/><path d="M819.0156,229.1465 Q819.1719,228.9277 819.3594,228.8184 Q819.5469,228.709 819.7656,228.709 Q820.1406,228.709 820.375,228.9746 Q820.6094,229.2246 820.6094,229.834 L820.6094,231.2871 Q820.6094,231.8965 820.375,232.1621 Q820.1406,232.4277 819.7656,232.4277 Q819.4219,232.4277 819.2188,232.2246 Q819.0156,232.0371 818.9063,231.5215 Q818.8594,231.1621 818.6719,230.9746 Q818.3438,230.5996 817.7344,230.3809 Q817.125,230.1621 816.5,230.1621 Q815.7344,230.1621 815.0938,230.4902 Q814.4688,230.8184 813.9688,231.5684 Q813.4844,232.3184 813.4844,233.3496 L813.4844,234.4434 Q813.4844,235.6777 814.375,236.5059 Q815.2656,237.3184 816.8594,237.3184 Q817.7969,237.3184 818.4531,237.0684 Q818.8438,236.9121 819.2656,236.4746 Q819.5313,236.209 819.6719,236.1309 Q819.8281,236.0527 820.0313,236.0527 Q820.3594,236.0527 820.6094,236.3184 Q820.875,236.5684 820.875,236.9121 Q820.875,237.2559 820.5313,237.6621 Q820.0313,238.2402 819.2344,238.5684 Q818.1563,239.0215 816.8594,239.0215 Q815.3438,239.0215 814.1406,238.3965 Q813.1563,237.8965 812.4688,236.834 Q811.7813,235.7559 811.7813,234.4746 L811.7813,233.3184 Q811.7813,231.9902 812.3906,230.8496 Q813.0156,229.6934 814.1094,229.084 Q815.2031,228.459 816.4375,228.459 Q817.1719,228.459 817.8125,228.6309 Q818.4688,228.7871 819.0156,229.1465 Z " fill="#000000"/><text fill="#000000" font-family="sans-serif" font-size="12" font-style="italic" lengthAdjust="spacing" textLength="43" x="861.75" y="220.9492">&#171;entity&#187;</text><text fill="#000000" font-family="sans-serif" font-size="12" font-style="italic" lengthAdjust="spacing" textLength="40" x="863.25" y="236.9102">&#171;Root&#187;</text><text fill="#000000" font-family="sans-serif" font-size="14" lengthAdjust="spacing" textLength="93" x="836.75" y="255.0293">SwitchActuator</text><line style="stroke:#181818;stroke-width:0.5;" x1="404.5" x2="1329.5" y1="263.543" y2="263.543"/><rect fill="none" height="6" style="stroke:#C82930;stroke-width:1.0;" width="6" x="411.5" y="275.3535"/><text fill="#000000" font-family="sans-serif" font-size="14" lengthAdjust="spacing" textLength="130" x="423.5" y="282.6504">_deviceID : DeviceID</text><rect fill="none" height="6" style="stroke:#C82930;stroke-width:1.0;" width="6" x="411.5" y="293.9746"/><text fill="#000000" font-family="sans-serif" font-size="14" lengthAdjust="spacing" textLength="193" x="423.5" y="301.2715">_actuatorName :ActuatorName</text><rect fill="none" height="6" style="stroke:#C82930;stroke-width:1.0;" width="6" x="411.5" y="312.5957"/><text fill="#000000" font-family="sans-serif" font-size="14" lengthAdjust="spacing" textLength="154" x="423.5" y="319.8926">_modelPath : ModelPath</text><rect fill="none" height="6" style="stroke:#C82930;stroke-width:1.0;" width="6" x="411.5" y="331.2168"/><text fill="#000000" font-family="sans-serif" font-size="14" lengthAdjust="spacing" textLength="215" x="423.5" y="338.5137">_actuatorTypeID : ActuatorTypeID</text><rect fill="none" height="6" style="stroke:#C82930;stroke-width:1.0;" width="6" x="411.5" y="349.8379"/><text fill="#000000" font-family="sans-serif" font-size="14" lengthAdjust="spacing" textLength="151" x="423.5" y="357.1348">_actuatorID : ActuatorID</text><rect fill="none" height="6" style="stroke:#C82930;stroke-width:1.0;" width="6" x="411.5" y="368.459"/><text fill="#000000" font-family="sans-serif" font-size="14" lengthAdjust="spacing" textLength="183" x="423.5" y="375.7559">_value : SwitchActuatorValue</text><line style="stroke:#181818;stroke-width:0.5;" x1="404.5" x2="1329.5" y1="383.2695" y2="383.2695"/><ellipse cx="414.5" cy="398.0801" fill="#84BE84" rx="3" ry="3" style="stroke:#038048;stroke-width:1.0;"/><text fill="#000000" font-family="sans-serif" font-size="14" lengthAdjust="spacing" textLength="901" x="423.5" y="402.377">domain.actuator.SwitchActuator (deviceID : DeviceID, modelPath : ModelPath, actuatorTypeID : ActuatorTypeID, actuatorName : ActuatorName)</text><ellipse cx="414.5" cy="416.7012" fill="#84BE84" rx="3" ry="3" style="stroke:#038048;stroke-width:1.0;"/><text fill="#000000" font-family="sans-serif" font-size="14" lengthAdjust="spacing" textLength="125" x="423.5" y="420.998">getID () : ActuatorID</text><ellipse cx="414.5" cy="435.3223" fill="#84BE84" rx="3" ry="3" style="stroke:#038048;stroke-width:1.0;"/><text fill="#000000" font-family="sans-serif" font-size="14" lengthAdjust="spacing" textLength="180" x="423.5" y="439.6191">getModelPath () : ModelPath</text><ellipse cx="414.5" cy="453.9434" fill="#84BE84" rx="3" ry="3" style="stroke:#038048;stroke-width:1.0;"/><text fill="#000000" font-family="sans-serif" font-size="14" lengthAdjust="spacing" textLength="171" x="423.5" y="458.2402">getName () : ActuatorName</text><ellipse cx="414.5" cy="472.5645" fill="#84BE84" rx="3" ry="3" style="stroke:#038048;stroke-width:1.0;"/><text fill="#000000" font-family="sans-serif" font-size="14" lengthAdjust="spacing" textLength="242" x="423.5" y="476.8613">getActuatorTypeID () : ActuatorTypeID</text><ellipse cx="414.5" cy="491.1855" fill="#84BE84" rx="3" ry="3" style="stroke:#038048;stroke-width:1.0;"/><text fill="#000000" font-family="sans-serif" font-size="14" lengthAdjust="spacing" textLength="158" x="423.5" y="495.4824">getDeviceID () : DeviceID</text><ellipse cx="414.5" cy="509.8066" fill="#84BE84" rx="3" ry="3" style="stroke:#038048;stroke-width:1.0;"/><text fill="#000000" font-family="sans-serif" font-size="14" lengthAdjust="spacing" textLength="281" x="423.5" y="514.1035">setValue (value : ValueObject) : ValueObject</text></g><!--class SwitchActuatorValue--><g id="elem_SwitchActuatorValue"><rect codeLine="47" fill="#F1F1F1" height="135.0664" id="SwitchActuatorValue" rx="2.5" ry="2.5" style="stroke:#181818;stroke-width:0.5;" width="262" x="590" y="598.5"/><ellipse cx="652.25" cy="620.791" fill="#ADD1B2" rx="11" ry="11" style="stroke:#181818;stroke-width:1.0;"/><path d="M655.0156,616.666 Q655.1719,616.4473 655.3594,616.3379 Q655.5469,616.2285 655.7656,616.2285 Q656.1406,616.2285 656.375,616.4941 Q656.6094,616.7441 656.6094,617.3535 L656.6094,618.8066 Q656.6094,619.416 656.375,619.6816 Q656.1406,619.9473 655.7656,619.9473 Q655.4219,619.9473 655.2188,619.7441 Q655.0156,619.5566 654.9063,619.041 Q654.8594,618.6816 654.6719,618.4941 Q654.3438,618.1191 653.7344,617.9004 Q653.125,617.6816 652.5,617.6816 Q651.7344,617.6816 651.0938,618.0098 Q650.4688,618.3379 649.9688,619.0879 Q649.4844,619.8379 649.4844,620.8691 L649.4844,621.9629 Q649.4844,623.1973 650.375,624.0254 Q651.2656,624.8379 652.8594,624.8379 Q653.7969,624.8379 654.4531,624.5879 Q654.8438,624.4316 655.2656,623.9941 Q655.5313,623.7285 655.6719,623.6504 Q655.8281,623.5723 656.0313,623.5723 Q656.3594,623.5723 656.6094,623.8379 Q656.875,624.0879 656.875,624.4316 Q656.875,624.7754 656.5313,625.1816 Q656.0313,625.7598 655.2344,626.0879 Q654.1563,626.541 652.8594,626.541 Q651.3438,626.541 650.1406,625.916 Q649.1563,625.416 648.4688,624.3535 Q647.7813,623.2754 647.7813,621.9941 L647.7813,620.8379 Q647.7813,619.5098 648.3906,618.3691 Q649.0156,617.2129 650.1094,616.6035 Q651.2031,615.9785 652.4375,615.9785 Q653.1719,615.9785 653.8125,616.1504 Q654.4688,616.3066 655.0156,616.666 Z " fill="#000000"/><text fill="#000000" font-family="sans-serif" font-size="12" font-style="italic" lengthAdjust="spacing" textLength="82" x="696.25" y="616.4492">&#171;ValueObject&#187;</text><text fill="#000000" font-family="sans-serif" font-size="14" lengthAdjust="spacing" textLength="129" x="672.75" y="634.5684">SwitchActuatorValue</text><line style="stroke:#181818;stroke-width:0.5;" x1="591" x2="851" y1="643.082" y2="643.082"/><rect fill="none" height="6" style="stroke:#C82930;stroke-width:1.0;" width="6" x="598" y="654.8926"/><text fill="#000000" font-family="sans-serif" font-size="14" lengthAdjust="spacing" textLength="105" x="610" y="662.1895">_value : boolean</text><line style="stroke:#181818;stroke-width:0.5;" x1="591" x2="851" y1="669.7031" y2="669.7031"/><ellipse cx="601" cy="684.5137" fill="#84BE84" rx="3" ry="3" style="stroke:#038048;stroke-width:1.0;"/><text fill="#000000" font-family="sans-serif" font-size="14" lengthAdjust="spacing" textLength="236" x="610" y="688.8105">SwitchActuatorValue(value : boolean)</text><ellipse cx="601" cy="703.1348" fill="#84BE84" rx="3" ry="3" style="stroke:#038048;stroke-width:1.0;"/><text fill="#000000" font-family="sans-serif" font-size="14" lengthAdjust="spacing" textLength="161" x="610" y="707.4316">performAction() : boolean</text><ellipse cx="601" cy="721.7559" fill="#84BE84" rx="3" ry="3" style="stroke:#038048;stroke-width:1.0;"/><text fill="#000000" font-family="sans-serif" font-size="14" lengthAdjust="spacing" textLength="108" x="610" y="726.0527">toString() : String</text></g><!--class ActuatorTypeID--><g id="elem_ActuatorTypeID"><rect codeLine="57" fill="#F1F1F1" height="116.4453" id="ActuatorTypeID" rx="2.5" ry="2.5" style="stroke:#181818;stroke-width:0.5;" width="186" x="870" y="608"/><ellipse cx="910.2" cy="630.291" fill="#ADD1B2" rx="11" ry="11" style="stroke:#181818;stroke-width:1.0;"/><path d="M912.9656,626.166 Q913.1219,625.9473 913.3094,625.8379 Q913.4969,625.7285 913.7156,625.7285 Q914.0906,625.7285 914.325,625.9941 Q914.5594,626.2441 914.5594,626.8535 L914.5594,628.3066 Q914.5594,628.916 914.325,629.1816 Q914.0906,629.4473 913.7156,629.4473 Q913.3719,629.4473 913.1688,629.2441 Q912.9656,629.0566 912.8563,628.541 Q912.8094,628.1816 912.6219,627.9941 Q912.2938,627.6191 911.6844,627.4004 Q911.075,627.1816 910.45,627.1816 Q909.6844,627.1816 909.0438,627.5098 Q908.4188,627.8379 907.9188,628.5879 Q907.4344,629.3379 907.4344,630.3691 L907.4344,631.4629 Q907.4344,632.6973 908.325,633.5254 Q909.2156,634.3379 910.8094,634.3379 Q911.7469,634.3379 912.4031,634.0879 Q912.7938,633.9316 913.2156,633.4941 Q913.4813,633.2285 913.6219,633.1504 Q913.7781,633.0723 913.9813,633.0723 Q914.3094,633.0723 914.5594,633.3379 Q914.825,633.5879 914.825,633.9316 Q914.825,634.2754 914.4813,634.6816 Q913.9813,635.2598 913.1844,635.5879 Q912.1063,636.041 910.8094,636.041 Q909.2938,636.041 908.0906,635.416 Q907.1063,634.916 906.4188,633.8535 Q905.7313,632.7754 905.7313,631.4941 L905.7313,630.3379 Q905.7313,629.0098 906.3406,627.8691 Q906.9656,626.7129 908.0594,626.1035 Q909.1531,625.4785 910.3875,625.4785 Q911.1219,625.4785 911.7625,625.6504 Q912.4188,625.8066 912.9656,626.166 Z " fill="#000000"/><text fill="#000000" font-family="sans-serif" font-size="12" font-style="italic" lengthAdjust="spacing" textLength="71" x="943.3" y="625.9492">&#171;DomainID&#187;</text><text fill="#000000" font-family="sans-serif" font-size="14" lengthAdjust="spacing" textLength="98" x="929.8" y="644.0684">ActuatorTypeID</text><line style="stroke:#181818;stroke-width:0.5;" x1="871" x2="1055" y1="652.582" y2="652.582"/><rect fill="none" height="6" style="stroke:#C82930;stroke-width:1.0;" width="6" x="878" y="664.3926"/><text fill="#000000" font-family="sans-serif" font-size="14" lengthAdjust="spacing" textLength="64" x="890" y="671.6895">_id: String</text><line style="stroke:#181818;stroke-width:0.5;" x1="871" x2="1055" y1="679.2031" y2="679.2031"/><ellipse cx="881" cy="694.0137" fill="#84BE84" rx="3" ry="3" style="stroke:#038048;stroke-width:1.0;"/><text fill="#000000" font-family="sans-serif" font-size="14" lengthAdjust="spacing" textLength="160" x="890" y="698.3105">ActuatorTypeID(String id)</text><ellipse cx="881" cy="712.6348" fill="#84BE84" rx="3" ry="3" style="stroke:#038048;stroke-width:1.0;"/><text fill="#000000" font-family="sans-serif" font-size="14" lengthAdjust="spacing" textLength="92" x="890" y="716.9316">getID() : String</text></g><!--class ModelPath--><g id="elem_ModelPath"><rect codeLine="64" fill="#F1F1F1" height="116.4453" id="ModelPath" rx="2.5" ry="2.5" style="stroke:#181818;stroke-width:0.5;" width="172" x="1074" y="608"/><ellipse cx="1122.25" cy="630.291" fill="#ADD1B2" rx="11" ry="11" style="stroke:#181818;stroke-width:1.0;"/><path d="M1125.0156,626.166 Q1125.1719,625.9473 1125.3594,625.8379 Q1125.5469,625.7285 1125.7656,625.7285 Q1126.1406,625.7285 1126.375,625.9941 Q1126.6094,626.2441 1126.6094,626.8535 L1126.6094,628.3066 Q1126.6094,628.916 1126.375,629.1816 Q1126.1406,629.4473 1125.7656,629.4473 Q1125.4219,629.4473 1125.2188,629.2441 Q1125.0156,629.0566 1124.9063,628.541 Q1124.8594,628.1816 1124.6719,627.9941 Q1124.3438,627.6191 1123.7344,627.4004 Q1123.125,627.1816 1122.5,627.1816 Q1121.7344,627.1816 1121.0938,627.5098 Q1120.4688,627.8379 1119.9688,628.5879 Q1119.4844,629.3379 1119.4844,630.3691 L1119.4844,631.4629 Q1119.4844,632.6973 1120.375,633.5254 Q1121.2656,634.3379 1122.8594,634.3379 Q1123.7969,634.3379 1124.4531,634.0879 Q1124.8438,633.9316 1125.2656,633.4941 Q1125.5313,633.2285 1125.6719,633.1504 Q1125.8281,633.0723 1126.0313,633.0723 Q1126.3594,633.0723 1126.6094,633.3379 Q1126.875,633.5879 1126.875,633.9316 Q1126.875,634.2754 1126.5313,634.6816 Q1126.0313,635.2598 1125.2344,635.5879 Q1124.1563,636.041 1122.8594,636.041 Q1121.3438,636.041 1120.1406,635.416 Q1119.1563,634.916 1118.4688,633.8535 Q1117.7813,632.7754 1117.7813,631.4941 L1117.7813,630.3379 Q1117.7813,629.0098 1118.3906,627.8691 Q1119.0156,626.7129 1120.1094,626.1035 Q1121.2031,625.4785 1122.4375,625.4785 Q1123.1719,625.4785 1123.8125,625.6504 Q1124.4688,625.8066 1125.0156,626.166 Z " fill="#000000"/><text fill="#000000" font-family="sans-serif" font-size="12" font-style="italic" lengthAdjust="spacing" textLength="71" x="1140.75" y="625.9492">&#171;DomainID&#187;</text><text fill="#000000" font-family="sans-serif" font-size="14" lengthAdjust="spacing" textLength="67" x="1142.75" y="644.0684">ModelPath</text><line style="stroke:#181818;stroke-width:0.5;" x1="1075" x2="1245" y1="652.582" y2="652.582"/><rect fill="none" height="6" style="stroke:#C82930;stroke-width:1.0;" width="6" x="1082" y="664.3926"/><text fill="#000000" font-family="sans-serif" font-size="14" lengthAdjust="spacing" textLength="81" x="1094" y="671.6895">_path: String</text><line style="stroke:#181818;stroke-width:0.5;" x1="1075" x2="1245" y1="679.2031" y2="679.2031"/><ellipse cx="1085" cy="694.0137" fill="#84BE84" rx="3" ry="3" style="stroke:#038048;stroke-width:1.0;"/><text fill="#000000" font-family="sans-serif" font-size="14" lengthAdjust="spacing" textLength="146" x="1094" y="698.3105">ModelPath(String path)</text><ellipse cx="1085" cy="712.6348" fill="#84BE84" rx="3" ry="3" style="stroke:#038048;stroke-width:1.0;"/><text fill="#000000" font-family="sans-serif" font-size="14" lengthAdjust="spacing" textLength="108" x="1094" y="716.9316">getPath() : String</text></g><!--class ActuatorName--><g id="elem_ActuatorName"><rect codeLine="70" fill="#F1F1F1" height="116.4453" id="ActuatorName" rx="2.5" ry="2.5" style="stroke:#181818;stroke-width:0.5;" width="201" x="370.5" y="608"/><ellipse cx="422.25" cy="630.291" fill="#ADD1B2" rx="11" ry="11" style="stroke:#181818;stroke-width:1.0;"/><path d="M425.0156,626.166 Q425.1719,625.9473 425.3594,625.8379 Q425.5469,625.7285 425.7656,625.7285 Q426.1406,625.7285 426.375,625.9941 Q426.6094,626.2441 426.6094,626.8535 L426.6094,628.3066 Q426.6094,628.916 426.375,629.1816 Q426.1406,629.4473 425.7656,629.4473 Q425.4219,629.4473 425.2188,629.2441 Q425.0156,629.0566 424.9063,628.541 Q424.8594,628.1816 424.6719,627.9941 Q424.3438,627.6191 423.7344,627.4004 Q423.125,627.1816 422.5,627.1816 Q421.7344,627.1816 421.0938,627.5098 Q420.4688,627.8379 419.9688,628.5879 Q419.4844,629.3379 419.4844,630.3691 L419.4844,631.4629 Q419.4844,632.6973 420.375,633.5254 Q421.2656,634.3379 422.8594,634.3379 Q423.7969,634.3379 424.4531,634.0879 Q424.8438,633.9316 425.2656,633.4941 Q425.5313,633.2285 425.6719,633.1504 Q425.8281,633.0723 426.0313,633.0723 Q426.3594,633.0723 426.6094,633.3379 Q426.875,633.5879 426.875,633.9316 Q426.875,634.2754 426.5313,634.6816 Q426.0313,635.2598 425.2344,635.5879 Q424.1563,636.041 422.8594,636.041 Q421.3438,636.041 420.1406,635.416 Q419.1563,634.916 418.4688,633.8535 Q417.7813,632.7754 417.7813,631.4941 L417.7813,630.3379 Q417.7813,629.0098 418.3906,627.8691 Q419.0156,626.7129 420.1094,626.1035 Q421.2031,625.4785 422.4375,625.4785 Q423.1719,625.4785 423.8125,625.6504 Q424.4688,625.8066 425.0156,626.166 Z " fill="#000000"/><text fill="#000000" font-family="sans-serif" font-size="12" font-style="italic" lengthAdjust="spacing" textLength="82" x="446.25" y="625.9492">&#171;ValueObject&#187;</text><text fill="#000000" font-family="sans-serif" font-size="14" lengthAdjust="spacing" textLength="89" x="442.75" y="644.0684">ActuatorName</text><line style="stroke:#181818;stroke-width:0.5;" x1="371.5" x2="570.5" y1="652.582" y2="652.582"/><rect fill="none" height="6" style="stroke:#C82930;stroke-width:1.0;" width="6" x="378.5" y="664.3926"/><text fill="#000000" font-family="sans-serif" font-size="14" lengthAdjust="spacing" textLength="88" x="390.5" y="671.6895">_name: String</text><line style="stroke:#181818;stroke-width:0.5;" x1="371.5" x2="570.5" y1="679.2031" y2="679.2031"/><ellipse cx="381.5" cy="694.0137" fill="#84BE84" rx="3" ry="3" style="stroke:#038048;stroke-width:1.0;"/><text fill="#000000" font-family="sans-serif" font-size="14" lengthAdjust="spacing" textLength="175" x="390.5" y="698.3105">ActuatorName(String name)</text><ellipse cx="381.5" cy="712.6348" fill="#84BE84" rx="3" ry="3" style="stroke:#038048;stroke-width:1.0;"/><text fill="#000000" font-family="sans-serif" font-size="14" lengthAdjust="spacing" textLength="115" x="390.5" y="716.9316">getName() : String</text></g><!--class ActuatorID--><g id="elem_ActuatorID"><rect codeLine="77" fill="#F1F1F1" height="116.4453" id="ActuatorID" rx="2.5" ry="2.5" style="stroke:#181818;stroke-width:0.5;" width="154" x="1264" y="608"/><ellipse cx="1303.75" cy="630.291" fill="#ADD1B2" rx="11" ry="11" style="stroke:#181818;stroke-width:1.0;"/><path d="M1306.5156,626.166 Q1306.6719,625.9473 1306.8594,625.8379 Q1307.0469,625.7285 1307.2656,625.7285 Q1307.6406,625.7285 1307.875,625.9941 Q1308.1094,626.2441 1308.1094,626.8535 L1308.1094,628.3066 Q1308.1094,628.916 1307.875,629.1816 Q1307.6406,629.4473 1307.2656,629.4473 Q1306.9219,629.4473 1306.7188,629.2441 Q1306.5156,629.0566 1306.4063,628.541 Q1306.3594,628.1816 1306.1719,627.9941 Q1305.8438,627.6191 1305.2344,627.4004 Q1304.625,627.1816 1304,627.1816 Q1303.2344,627.1816 1302.5938,627.5098 Q1301.9688,627.8379 1301.4688,628.5879 Q1300.9844,629.3379 1300.9844,630.3691 L1300.9844,631.4629 Q1300.9844,632.6973 1301.875,633.5254 Q1302.7656,634.3379 1304.3594,634.3379 Q1305.2969,634.3379 1305.9531,634.0879 Q1306.3438,633.9316 1306.7656,633.4941 Q1307.0313,633.2285 1307.1719,633.1504 Q1307.3281,633.0723 1307.5313,633.0723 Q1307.8594,633.0723 1308.1094,633.3379 Q1308.375,633.5879 1308.375,633.9316 Q1308.375,634.2754 1308.0313,634.6816 Q1307.5313,635.2598 1306.7344,635.5879 Q1305.6563,636.041 1304.3594,636.041 Q1302.8438,636.041 1301.6406,635.416 Q1300.6563,634.916 1299.9688,633.8535 Q1299.2813,632.7754 1299.2813,631.4941 L1299.2813,630.3379 Q1299.2813,629.0098 1299.8906,627.8691 Q1300.5156,626.7129 1301.6094,626.1035 Q1302.7031,625.4785 1303.9375,625.4785 Q1304.6719,625.4785 1305.3125,625.6504 Q1305.9688,625.8066 1306.5156,626.166 Z " fill="#000000"/><text fill="#000000" font-family="sans-serif" font-size="12" font-style="italic" lengthAdjust="spacing" textLength="71" x="1321.25" y="625.9492">&#171;DomainID&#187;</text><text fill="#000000" font-family="sans-serif" font-size="14" lengthAdjust="spacing" textLength="66" x="1323.75" y="644.0684">ActuatorID</text><line style="stroke:#181818;stroke-width:0.5;" x1="1265" x2="1417" y1="652.582" y2="652.582"/><rect fill="none" height="6" style="stroke:#C82930;stroke-width:1.0;" width="6" x="1272" y="664.3926"/><text fill="#000000" font-family="sans-serif" font-size="14" lengthAdjust="spacing" textLength="64" x="1284" y="671.6895">_id: String</text><line style="stroke:#181818;stroke-width:0.5;" x1="1265" x2="1417" y1="679.2031" y2="679.2031"/><ellipse cx="1275" cy="694.0137" fill="#84BE84" rx="3" ry="3" style="stroke:#038048;stroke-width:1.0;"/><text fill="#000000" font-family="sans-serif" font-size="14" lengthAdjust="spacing" textLength="128" x="1284" y="698.3105">ActuatorID(String id)</text><ellipse cx="1275" cy="712.6348" fill="#84BE84" rx="3" ry="3" style="stroke:#038048;stroke-width:1.0;"/><text fill="#000000" font-family="sans-serif" font-size="14" lengthAdjust="spacing" textLength="92" x="1284" y="716.9316">getID() : String</text></g><!--class DeviceID--><g id="elem_DeviceID"><rect codeLine="83" fill="#F1F1F1" height="116.4453" id="DeviceID" rx="2.5" ry="2.5" style="stroke:#181818;stroke-width:0.5;" width="144" x="1436" y="608"/><ellipse cx="1471.25" cy="630.291" fill="#ADD1B2" rx="11" ry="11" style="stroke:#181818;stroke-width:1.0;"/><path d="M1474.0156,626.166 Q1474.1719,625.9473 1474.3594,625.8379 Q1474.5469,625.7285 1474.7656,625.7285 Q1475.1406,625.7285 1475.375,625.9941 Q1475.6094,626.2441 1475.6094,626.8535 L1475.6094,628.3066 Q1475.6094,628.916 1475.375,629.1816 Q1475.1406,629.4473 1474.7656,629.4473 Q1474.4219,629.4473 1474.2188,629.2441 Q1474.0156,629.0566 1473.9063,628.541 Q1473.8594,628.1816 1473.6719,627.9941 Q1473.3438,627.6191 1472.7344,627.4004 Q1472.125,627.1816 1471.5,627.1816 Q1470.7344,627.1816 1470.0938,627.5098 Q1469.4688,627.8379 1468.9688,628.5879 Q1468.4844,629.3379 1468.4844,630.3691 L1468.4844,631.4629 Q1468.4844,632.6973 1469.375,633.5254 Q1470.2656,634.3379 1471.8594,634.3379 Q1472.7969,634.3379 1473.4531,634.0879 Q1473.8438,633.9316 1474.2656,633.4941 Q1474.5313,633.2285 1474.6719,633.1504 Q1474.8281,633.0723 1475.0313,633.0723 Q1475.3594,633.0723 1475.6094,633.3379 Q1475.875,633.5879 1475.875,633.9316 Q1475.875,634.2754 1475.5313,634.6816 Q1475.0313,635.2598 1474.2344,635.5879 Q1473.1563,636.041 1471.8594,636.041 Q1470.3438,636.041 1469.1406,635.416 Q1468.1563,634.916 1467.4688,633.8535 Q1466.7813,632.7754 1466.7813,631.4941 L1466.7813,630.3379 Q1466.7813,629.0098 1467.3906,627.8691 Q1468.0156,626.7129 1469.1094,626.1035 Q1470.2031,625.4785 1471.4375,625.4785 Q1472.1719,625.4785 1472.8125,625.6504 Q1473.4688,625.8066 1474.0156,626.166 Z " fill="#000000"/><text fill="#000000" font-family="sans-serif" font-size="12" font-style="italic" lengthAdjust="spacing" textLength="71" x="1487.75" y="625.9492">&#171;DomainID&#187;</text><text fill="#000000" font-family="sans-serif" font-size="14" lengthAdjust="spacing" textLength="56" x="1495.25" y="644.0684">DeviceID</text><line style="stroke:#181818;stroke-width:0.5;" x1="1437" x2="1579" y1="652.582" y2="652.582"/><rect fill="none" height="6" style="stroke:#C82930;stroke-width:1.0;" width="6" x="1444" y="664.3926"/><text fill="#000000" font-family="sans-serif" font-size="14" lengthAdjust="spacing" textLength="64" x="1456" y="671.6895">_id: String</text><line style="stroke:#181818;stroke-width:0.5;" x1="1437" x2="1579" y1="679.2031" y2="679.2031"/><ellipse cx="1447" cy="694.0137" fill="#84BE84" rx="3" ry="3" style="stroke:#038048;stroke-width:1.0;"/><text fill="#000000" font-family="sans-serif" font-size="14" lengthAdjust="spacing" textLength="118" x="1456" y="698.3105">DeviceID(String id)</text><ellipse cx="1447" cy="712.6348" fill="#84BE84" rx="3" ry="3" style="stroke:#038048;stroke-width:1.0;"/><text fill="#000000" font-family="sans-serif" font-size="14" lengthAdjust="spacing" textLength="92" x="1456" y="716.9316">getID() : String</text></g><!--class DomainEntity--><g id="elem_DomainEntity"><rect codeLine="92" fill="#F1F1F1" height="48" id="DomainEntity" rx="2.5" ry="2.5" style="stroke:#181818;stroke-width:0.5;" width="115" x="701.5" y="896"/><ellipse cx="716.5" cy="912" fill="#B4A7E5" rx="11" ry="11" style="stroke:#181818;stroke-width:1.0;"/><path d="M717.4531,908.6406 L717.4531,915.2969 L719.1719,915.2969 Q719.7813,915.2969 720.0469,915.5313 Q720.3125,915.7656 720.3125,916.1563 Q720.3125,916.5313 720.0469,916.7656 Q719.7813,917 719.1719,917 L714.0313,917 Q713.4219,917 713.1563,916.7656 Q712.8906,916.5313 712.8906,916.1406 Q712.8906,915.7656 713.1563,915.5313 Q713.4219,915.2969 714.0313,915.2969 L715.75,915.2969 L715.75,908.6406 L714.0313,908.6406 Q713.4219,908.6406 713.1563,908.4063 Q712.8906,908.1719 712.8906,907.7813 Q712.8906,907.4063 713.1563,907.1719 Q713.4219,906.9375 714.0313,906.9375 L719.1719,906.9375 Q719.7813,906.9375 720.0469,907.1719 Q720.3125,907.4063 720.3125,907.7813 Q720.3125,908.1719 720.0469,908.4063 Q719.7813,908.6406 719.1719,908.6406 L717.4531,908.6406 Z " fill="#000000"/><text fill="#000000" font-family="sans-serif" font-size="14" font-style="italic" lengthAdjust="spacing" textLength="83" x="730.5" y="917.7969">DomainEntity</text><line style="stroke:#181818;stroke-width:0.5;" x1="702.5" x2="815.5" y1="928" y2="928"/><line style="stroke:#181818;stroke-width:0.5;" x1="702.5" x2="815.5" y1="936" y2="936"/></g><!--class DomainID--><g id="elem_DomainID"><rect codeLine="95" fill="#F1F1F1" height="48" id="DomainID" rx="2.5" ry="2.5" style="stroke:#181818;stroke-width:0.5;" width="94" x="850" y="981"/><ellipse cx="865" cy="997" fill="#B4A7E5" rx="11" ry="11" style="stroke:#181818;stroke-width:1.0;"/><path d="M865.9531,993.6406 L865.9531,1000.2969 L867.6719,1000.2969 Q868.2813,1000.2969 868.5469,1000.5313 Q868.8125,1000.7656 868.8125,1001.1563 Q868.8125,1001.5313 868.5469,1001.7656 Q868.2813,1002 867.6719,1002 L862.5313,1002 Q861.9219,1002 861.6563,1001.7656 Q861.3906,1001.5313 861.3906,1001.1406 Q861.3906,1000.7656 861.6563,1000.5313 Q861.9219,1000.2969 862.5313,1000.2969 L864.25,1000.2969 L864.25,993.6406 L862.5313,993.6406 Q861.9219,993.6406 861.6563,993.4063 Q861.3906,993.1719 861.3906,992.7813 Q861.3906,992.4063 861.6563,992.1719 Q861.9219,991.9375 862.5313,991.9375 L867.6719,991.9375 Q868.2813,991.9375 868.5469,992.1719 Q868.8125,992.4063 868.8125,992.7813 Q868.8125,993.1719 868.5469,993.4063 Q868.2813,993.6406 867.6719,993.6406 L865.9531,993.6406 Z " fill="#000000"/><text fill="#000000" font-family="sans-serif" font-size="14" font-style="italic" lengthAdjust="spacing" textLength="62" x="879" y="1002.7969">DomainID</text><line style="stroke:#181818;stroke-width:0.5;" x1="851" x2="943" y1="1013" y2="1013"/><line style="stroke:#181818;stroke-width:0.5;" x1="851" x2="943" y1="1021" y2="1021"/></g><!--class ValueObject--><g id="elem_ValueObject"><rect codeLine="101" fill="#F1F1F1" height="48" id="ValueObject" rx="2.5" ry="2.5" style="stroke:#181818;stroke-width:0.5;" width="109" x="834.5" y="896"/><ellipse cx="849.5" cy="912" fill="#B4A7E5" rx="11" ry="11" style="stroke:#181818;stroke-width:1.0;"/><path d="M850.4531,908.6406 L850.4531,915.2969 L852.1719,915.2969 Q852.7813,915.2969 853.0469,915.5313 Q853.3125,915.7656 853.3125,916.1563 Q853.3125,916.5313 853.0469,916.7656 Q852.7813,917 852.1719,917 L847.0313,917 Q846.4219,917 846.1563,916.7656 Q845.8906,916.5313 845.8906,916.1406 Q845.8906,915.7656 846.1563,915.5313 Q846.4219,915.2969 847.0313,915.2969 L848.75,915.2969 L848.75,908.6406 L847.0313,908.6406 Q846.4219,908.6406 846.1563,908.4063 Q845.8906,908.1719 845.8906,907.7813 Q845.8906,907.4063 846.1563,907.1719 Q846.4219,906.9375 847.0313,906.9375 L852.1719,906.9375 Q852.7813,906.9375 853.0469,907.1719 Q853.3125,907.4063 853.3125,907.7813 Q853.3125,908.1719 853.0469,908.4063 Q852.7813,908.6406 852.1719,908.6406 L850.4531,908.6406 Z " fill="#000000"/><text fill="#000000" font-family="sans-serif" font-size="14" font-style="italic" lengthAdjust="spacing" textLength="77" x="863.5" y="917.7969">ValueObject</text><line style="stroke:#181818;stroke-width:0.5;" x1="835.5" x2="942.5" y1="928" y2="928"/><line style="stroke:#181818;stroke-width:0.5;" x1="835.5" x2="942.5" y1="936" y2="936"/></g><!--class AggregateRoot--><g id="elem_AggregateRoot"><rect codeLine="98" fill="#F1F1F1" height="48" id="AggregateRoot" rx="2.5" ry="2.5" style="stroke:#181818;stroke-width:0.5;" width="128" x="701" y="811"/><ellipse cx="716" cy="827" fill="#B4A7E5" rx="11" ry="11" style="stroke:#181818;stroke-width:1.0;"/><path d="M716.9531,823.6406 L716.9531,830.2969 L718.6719,830.2969 Q719.2813,830.2969 719.5469,830.5313 Q719.8125,830.7656 719.8125,831.1563 Q719.8125,831.5313 719.5469,831.7656 Q719.2813,832 718.6719,832 L713.5313,832 Q712.9219,832 712.6563,831.7656 Q712.3906,831.5313 712.3906,831.1406 Q712.3906,830.7656 712.6563,830.5313 Q712.9219,830.2969 713.5313,830.2969 L715.25,830.2969 L715.25,823.6406 L713.5313,823.6406 Q712.9219,823.6406 712.6563,823.4063 Q712.3906,823.1719 712.3906,822.7813 Q712.3906,822.4063 712.6563,822.1719 Q712.9219,821.9375 713.5313,821.9375 L718.6719,821.9375 Q719.2813,821.9375 719.5469,822.1719 Q719.8125,822.4063 719.8125,822.7813 Q719.8125,823.1719 719.5469,823.4063 Q719.2813,823.6406 718.6719,823.6406 L716.9531,823.6406 Z " fill="#000000"/><text fill="#000000" font-family="sans-serif" font-size="14" font-style="italic" lengthAdjust="spacing" textLength="96" x="730" y="832.7969">AggregateRoot</text><line style="stroke:#181818;stroke-width:0.5;" x1="702" x2="828" y1="843" y2="843"/><line style="stroke:#181818;stroke-width:0.5;" x1="702" x2="828" y1="851" y2="851"/></g><polygon fill="none" points="891.2284,944.1201,886.9831,962.6127,898.9277,961.4614,891.2284,944.1201" style="stroke:#181818;stroke-width:1.0;"/><path d="M892.9554,962.0371 C894.0557,973.4532 893.6533,969.2778 894.7558,980.716 " fill="none" style="stroke:#181818;stroke-width:1.0;"/><polygon fill="none" points="214.1865,328.863,229.5243,317.6938,219.7552,310.7249,214.1865,328.863" style="stroke:#181818;stroke-width:1.0;"/><path d="M438.5483,129.1682 C411.3011,141.0982 382.2632,156.1326 358,174 C297.6106,218.4708 253.6873,273.4899 224.6398,314.2093 " fill="none" style="stroke:#181818;stroke-width:1.0;stroke-dasharray:7.0,7.0;"/><polygon fill="#181818" points="665.2536,202.8567,660.6514,194.1492,661.3232,199.766,655.7064,200.4378,665.2536,202.8567" style="stroke:#181818;stroke-width:1.0;"/><path d="M571.6608,129.26 C596.4033,148.7162 625.0898,171.2739 660.5371,199.1479 " fill="none" style="stroke:#181818;stroke-width:1.0;stroke-dasharray:7.0,7.0;"/><text fill="#000000" font-family="sans-serif" font-size="13" lengthAdjust="spacing" textLength="43" x="613" y="162.0283">creates</text><text fill="#000000" font-family="sans-serif" font-size="13" lengthAdjust="spacing" textLength="7" x="657.2536" y="198.885">1</text><text fill="#000000" font-family="sans-serif" font-size="13" lengthAdjust="spacing" textLength="7" x="563.6608" y="144.2883">1</text><polygon fill="none" points="352.5002,579.7056,371.2921,577.0857,365.9618,566.3346,352.5002,579.7056" style="stroke:#181818;stroke-width:1.0;"/><path d="M476.2408,522.0494 C436.0223,539.9605 396,558.4552 358,577 C356.1747,577.8908 370.4677,570.7976 368.627,571.7102 " fill="none" style="stroke:#181818;stroke-width:1.0;stroke-dasharray:7.0,7.0;"/><polygon fill="#181818" points="753.3377,598.2204,760.8603,591.8635,755.5169,593.7202,753.6601,588.3768,753.3377,598.2204" style="stroke:#181818;stroke-width:1.0;"/><path d="M790.152,522.1964 C777.1681,549.009 766.962,570.0853 755.9527,592.8202 " fill="none" style="stroke:#181818;stroke-width:1.0;"/><text fill="#000000" font-family="sans-serif" font-size="13" lengthAdjust="spacing" textLength="21" x="781" y="555.0283">has</text><text fill="#000000" font-family="sans-serif" font-size="13" lengthAdjust="spacing" textLength="7" x="745.3377" y="594.2487">1</text><text fill="#000000" font-family="sans-serif" font-size="13" lengthAdjust="spacing" textLength="7" x="782.152" y="537.2248">1</text><polygon fill="#181818" points="944.7631,607.7249,945.844,597.9355,943.2462,602.9606,938.2211,600.3627,944.7631,607.7249" style="stroke:#181818;stroke-width:1.0;"/><path d="M917.5302,522.1964 C927.2872,552.8394 935.084,577.3262 942.9428,602.0077 " fill="none" style="stroke:#181818;stroke-width:1.0;"/><text fill="#000000" font-family="sans-serif" font-size="13" lengthAdjust="spacing" textLength="21" x="930" y="555.0283">has</text><text fill="#000000" font-family="sans-serif" font-size="13" lengthAdjust="spacing" textLength="7" x="936.7631" y="603.7532">1</text><text fill="#000000" font-family="sans-serif" font-size="13" lengthAdjust="spacing" textLength="7" x="909.5302" y="537.2248">1</text><polygon fill="#181818" points="1104.3396,607.7249,1100.9358,598.4829,1100.855,604.1392,1095.1987,604.0583,1104.3396,607.7249" style="stroke:#181818;stroke-width:1.0;"/><path d="M1021.2224,522.1964 C1051.0015,552.8394 1076.1723,578.7405 1100.1581,603.422 " fill="none" style="stroke:#181818;stroke-width:1.0;"/><text fill="#000000" font-family="sans-serif" font-size="13" lengthAdjust="spacing" textLength="21" x="1057" y="555.0283">has</text><text fill="#000000" font-family="sans-serif" font-size="13" lengthAdjust="spacing" textLength="7" x="1096.3396" y="603.7532">1</text><text fill="#000000" font-family="sans-serif" font-size="13" lengthAdjust="spacing" textLength="7" x="1013.2224" y="537.2248">1</text><polygon fill="#181818" points="541.731,607.8434,551.2644,605.3707,545.6439,604.7306,546.2839,599.1101,541.731,607.8434" style="stroke:#181818;stroke-width:1.0;"/><path d="M652.8402,522.151 C628.5209,540.528 604.1645,559.096 581,577 C568.2288,586.8709 559.4268,593.7659 546.4264,604.108 " fill="none" style="stroke:#181818;stroke-width:1.0;"/><text fill="#000000" font-family="sans-serif" font-size="13" lengthAdjust="spacing" textLength="21" x="628" y="555.0283">has</text><text fill="#000000" font-family="sans-serif" font-size="13" lengthAdjust="spacing" textLength="7" x="533.731" y="603.8717">1</text><text fill="#000000" font-family="sans-serif" font-size="13" lengthAdjust="spacing" textLength="7" x="653.8402" y="537.1793">1</text><polygon fill="#181818" points="1290.093,607.932,1286.5034,598.7606,1286.5367,604.4173,1280.8799,604.4506,1290.093,607.932" style="stroke:#181818;stroke-width:1.0;"/><path d="M1175.4814,522.1194 C1203.0596,539.5936 1229.9808,557.9816 1255,577 C1267.0745,586.1784 1274.7989,592.8171 1285.8254,603.7144 " fill="none" style="stroke:#181818;stroke-width:1.0;"/><text fill="#000000" font-family="sans-serif" font-size="13" lengthAdjust="spacing" textLength="21" x="1227" y="555.0283">has</text><text fill="#000000" font-family="sans-serif" font-size="13" lengthAdjust="spacing" textLength="7" x="1282.093" y="603.9603">1</text><text fill="#000000" font-family="sans-serif" font-size="13" lengthAdjust="spacing" textLength="7" x="1167.4814" y="537.1477">1</text><polygon fill="#181818" points="1462.6798,607.8774,1459.3299,598.6157,1459.2161,604.2715,1453.5604,604.1577,1462.6798,607.8774" style="stroke:#181818;stroke-width:1.0;"/><path d="M1330.6976,520.2625 C1364.2487,537.6053 1396.7443,556.4995 1427,577 C1439.7207,585.6192 1447.6988,592.2813 1458.5234,603.5503 " fill="none" style="stroke:#181818;stroke-width:1.0;"/><text fill="#000000" font-family="sans-serif" font-size="13" lengthAdjust="spacing" textLength="21" x="1387" y="555.0283">has</text><text fill="#000000" font-family="sans-serif" font-size="13" lengthAdjust="spacing" textLength="7" x="1454.6798" y="603.9057">1</text><text fill="#000000" font-family="sans-serif" font-size="13" lengthAdjust="spacing" textLength="7" x="1331.6976" y="516.2909">1</text><polygon fill="none" points="883.6744,895.7629,885.0496,876.8391,873.4203,879.7987,883.6744,895.7629" style="stroke:#181818;stroke-width:1.0;"/><path d="M798.7584,733.7856 C813.1009,748.6301 826.9993,765.0319 838,782 C861.6087,818.4152 871.9935,849.865 879.235,878.3189 " fill="none" style="stroke:#181818;stroke-width:1.0;stroke-dasharray:7.0,7.0;"/><polygon fill="none" points="834.4571,898.7824,819.3173,887.3462,815.4836,898.7174,834.4571,898.7824" style="stroke:#181818;stroke-width:1.0;"/><path d="M522.9651,724.3803 C564.7478,767.2566 627.0177,824.2362 692,859 C746.4783,888.1445 767.1557,877.1683 826,896 C828.7724,896.8872 814.5474,892.0699 817.4005,893.0318 " fill="none" style="stroke:#181818;stroke-width:1.0;stroke-dasharray:7.0,7.0;"/><polygon fill="none" points="858.2868,980.716,845.9543,966.297,839.7694,976.5803,858.2868,980.716" style="stroke:#181818;stroke-width:1.0;"/><path d="M797.4407,944.1201 C816.4217,955.5362 823.844,960.0004 842.8618,971.4386 " fill="none" style="stroke:#181818;stroke-width:1.0;"/><polygon fill="none" points="760.6832,895.716,767.9654,878.1954,755.9966,877.3302,760.6832,895.716" style="stroke:#181818;stroke-width:1.0;"/><path d="M763.3287,859.1201 C762.5034,870.5362 762.8079,866.3246 761.981,877.7628 " fill="none" style="stroke:#181818;stroke-width:1.0;"/><polygon fill="none" points="700.6505,830.2342,683.1776,822.8383,682.2346,834.8012,700.6505,830.2342" style="stroke:#181818;stroke-width:1.0;"/><path d="M339.1348,755.1811 C345.4187,758.0061 351.7227,760.6318 358,763 C473.932,806.7375 600.7889,822.3627 682.7061,828.8198 " fill="none" style="stroke:#181818;stroke-width:1.0;stroke-dasharray:7.0,7.0;"/><polygon fill="none" points="925.8878,980.9936,943.0209,972.8416,934.7031,964.1922,925.8878,980.9936" style="stroke:#181818;stroke-width:1.0;"/><path d="M972.2271,724.104 C979.0257,781.8991 982.6143,872.6679 953,944 C947.1541,958.081 949.3862,958.3962 938.862,968.5169 " fill="none" style="stroke:#181818;stroke-width:1.0;stroke-dasharray:7.0,7.0;"/><polygon fill="none" points="938.2842,980.8433,956.8792,977.0712,950.8969,966.6686,938.2842,980.8433" style="stroke:#181818;stroke-width:1.0;"/><path d="M1294.0627,724.0351 C1281.9355,737.4317 1268.4815,751.2231 1255,763 C1149.6242,855.0522 1023.081,932.0786 953.888,971.8699 " fill="none" style="stroke:#181818;stroke-width:1.0;stroke-dasharray:7.0,7.0;"/><polygon fill="none" points="927.4216,980.791,945.0908,973.8775,937.4089,964.6586,927.4216,980.791" style="stroke:#181818;stroke-width:1.0;"/><path d="M1123.2672,724.1927 C1085.6786,781.4639 1024.5045,871.2949 965,944 C954.0312,957.4022 953.7621,958.8417 941.2499,969.268 " fill="none" style="stroke:#181818;stroke-width:1.0;stroke-dasharray:7.0,7.0;"/><polygon fill="none" points="944.0598,990.6086,963.0254,991.162,959.5644,979.672,944.0598,990.6086" style="stroke:#181818;stroke-width:1.0;"/><path d="M1466.6847,724.1602 C1454.9116,738.003 1441.3515,751.9715 1427,763 C1269.508,884.0249 1058.7625,956.0576 961.2949,985.417 " fill="none" style="stroke:#181818;stroke-width:1.0;stroke-dasharray:7.0,7.0;"/><!--SRC=[hLPDZzem4BtdLqpt0YXBf5uHGa9AAt6WhRhLNYjlueQqIHmbPblKyjyxSJxy4HiQ2eVT13_FZ6VUy-DDMP4a9v2H4pjog7FAIK4yhoJH3v9GY5bEqY8W4JyIpYhuxNc0dxJWjFf68WfRkGBAPxQd_C3YUgPzwqD2-IwSBs0rRDo5OyW7abCDr7mnXkrPJBDFX1y4TdWR0_imNqubDTAtNustXFGrZNfm_sB0E7lYLLea0jC-6eYQycUI7UdyjVcBAF7syUKxZVX2VnKxpwxsliS9iEgaTDc7gAA4qnunRyC4GG0bgR1V6A9MJwecY39Irx3Boyn8C3N-AFpPoPtWwMVAeyFMe98ivpBUtBvUquAd_BJPuEDdnZW-oEfdMuxpU3bogb1m2L_ZRfAseU8oKVW6Aolx49NtJBEoJWdJailDDWMgmNH8pnsz0O8wieLZmVbN-Z-tzE8Hh6TxX2idae2sSvfm5x8a8NzmwTzNDGqEKVlT_G3k2y8VIHukQTvNv0vslVkza662aXMbMKQ7h5Ns_0Dv1nwyC9PHKboSlINXtDYlZAN4suPLES9JLeWEz3a6YEkkqouKe-dhTIWek0kruo6bqtXqOVh6xdcx3cci5AhuXrw3KeHaa3j_YSkM2gIXTCaRd95-y9jhJH0aTGyPgoWGSQ4FmWMxGWfTHvf9EZiX9NRhAAQEGUOU13Kny-2xK_AEJIUEuzPWf9MsPRmJfY4AETlMiMBwYzCYhbL9M-3R9AbeWWRPU8yjdhAzMqQ0nN8X2FviJAEt0X_UFY1u8_vFCyjLP-QrvqtRA6epjmoMForMK_PoUKFvpzt5TI3rZId5mzRqiF-CjrUiyawbTUvvfsZtE6GeVoGqaRmR1gTo27KPg5Pv9PpMbqjnF4tTooKYUprxkbALjHOzFfEL_Kr6BPBd6OGoqR80EGydHfB92Hb6uKJy1G00]--></g></svg>