<?xml version="1.0" encoding="us-ascii" standalone="no"?><svg xmlns="http://www.w3.org/2000/svg" xmlns:xlink="http://www.w3.org/1999/xlink" contentStyleType="text/css" height="1347px" preserveAspectRatio="none" style="width:2326px;height:1347px;background:#FFFFFF;" version="1.1" viewBox="0 0 2326 1347" width="2326px" zoomAndPan="magnify"><defs/><g><rect fill="#808080" height="1335.6211" style="stroke:#181818;stroke-width:0.5;" width="654.5" x="170" y="6"/><text fill="#000000" font-family="sans-serif" font-size="13" font-weight="bold" lengthAdjust="spacing" textLength="106" x="444.25" y="20.0283">Pure Fabrication</text><rect fill="#DDDDDD" height="1335.6211" style="stroke:#181818;stroke-width:0.5;" width="989" x="826.5" y="6"/><text fill="#000000" font-family="sans-serif" font-size="13" font-weight="bold" lengthAdjust="spacing" textLength="49" x="1296.5" y="20.0283">Domain</text><rect fill="#808080" height="1335.6211" style="stroke:#181818;stroke-width:0.5;" width="503" x="1817.5" y="6"/><text fill="#000000" font-family="sans-serif" font-size="13" font-weight="bold" lengthAdjust="spacing" textLength="130" x="2004" y="20.0283">Data Transfer Object</text><rect fill="#FFFFFF" height="264.6582" style="stroke:#181818;stroke-width:1.0;" width="10" x="278" y="94.2031"/><rect fill="#FFFFFF" height="327.2402" style="stroke:#181818;stroke-width:1.0;" width="10" x="278" y="390.1523"/><rect fill="#FFFFFF" height="538.3164" style="stroke:#181818;stroke-width:1.0;" width="10" x="278" y="748.6836"/><rect fill="#FFFFFF" height="139.4941" style="stroke:#181818;stroke-width:1.0;" width="10" x="483" y="188.0762"/><rect fill="#FFFFFF" height="31.291" style="stroke:#181818;stroke-width:1.0;" width="10" x="483" y="421.4434"/><rect fill="#FFFFFF" height="139.4941" style="stroke:#181818;stroke-width:1.0;" width="10" x="617" y="546.6074"/><rect fill="#FFFFFF" height="31.291" style="stroke:#181818;stroke-width:1.0;" width="10" x="617" y="779.9746"/><rect fill="#FFFFFF" height="106.2031" style="stroke:#181818;stroke-width:1.0;" width="10" x="753" y="1149.5059"/><rect fill="#FFFFFF" height="31.291" style="stroke:#181818;stroke-width:1.0;" width="10" x="854.5" y="125.4941"/><rect fill="#FFFFFF" height="31.291" style="stroke:#181818;stroke-width:1.0;" width="10" x="937" y="484.0254"/><rect fill="#FFFFFF" height="275.6582" style="stroke:#181818;stroke-width:1.0;" width="10" x="1041.5" y="842.5566"/><rect fill="#FFFFFF" height="168.7852" style="stroke:#181818;stroke-width:1.0;" width="10" x="1281.5" y="873.8477"/><rect fill="#FFFFFF" height="106.2031" style="stroke:#181818;stroke-width:1.0;" width="10" x="1512.5" y="905.1387"/><rect fill="#FFFFFF" height="33.6211" style="stroke:#181818;stroke-width:1.0;" width="10" x="1753.5" y="946.4297"/><rect fill="#FFFFFF" height="33.6211" style="stroke:#181818;stroke-width:1.0;" width="10" x="1890" y="255.6582"/><rect fill="#FFFFFF" height="33.6211" style="stroke:#181818;stroke-width:1.0;" width="10" x="2054.5" y="614.1895"/><rect fill="#FFFFFF" height="33.6211" style="stroke:#181818;stroke-width:1.0;" width="10" x="2228.5" y="1190.7969"/><rect fill="none" height="94.2031" style="stroke:#000000;stroke-width:1.5;" width="1561" x="417.5" y="203.0762"/><rect fill="none" height="94.2031" style="stroke:#000000;stroke-width:1.5;" width="1602" x="548.5" y="561.6074"/><line style="stroke:#181818;stroke-width:0.5;stroke-dasharray:5.0,5.0;" x1="14" x2="14" y1="60.9121" y2="1305"/><line style="stroke:#181818;stroke-width:0.5;stroke-dasharray:5.0,5.0;" x1="283" x2="283" y1="60.9121" y2="1305"/><line style="stroke:#181818;stroke-width:0.5;stroke-dasharray:5.0,5.0;" x1="487.5" x2="487.5" y1="60.9121" y2="1305"/><line style="stroke:#181818;stroke-width:0.5;stroke-dasharray:5.0,5.0;" x1="621.5" x2="621.5" y1="60.9121" y2="1305"/><line style="stroke:#181818;stroke-width:0.5;stroke-dasharray:5.0,5.0;" x1="757.5" x2="757.5" y1="60.9121" y2="1305"/><line style="stroke:#181818;stroke-width:0.5;stroke-dasharray:5.0,5.0;" x1="859.5" x2="859.5" y1="60.9121" y2="1305"/><line style="stroke:#181818;stroke-width:0.5;stroke-dasharray:5.0,5.0;" x1="941.5" x2="941.5" y1="60.9121" y2="1305"/><line style="stroke:#181818;stroke-width:0.5;stroke-dasharray:5.0,5.0;" x1="1046.5" x2="1046.5" y1="60.9121" y2="1305"/><line style="stroke:#181818;stroke-width:0.5;stroke-dasharray:5.0,5.0;" x1="1286.5" x2="1286.5" y1="60.9121" y2="1305"/><line style="stroke:#181818;stroke-width:0.5;stroke-dasharray:5.0,5.0;" x1="1517.5" x2="1517.5" y1="60.9121" y2="1305"/><line style="stroke:#181818;stroke-width:0.5;stroke-dasharray:5.0,5.0;" x1="1758.5" x2="1758.5" y1="944.9492" y2="1305"/><line style="stroke:#181818;stroke-width:0.5;stroke-dasharray:5.0,5.0;" x1="1894.5" x2="1894.5" y1="254.1777" y2="1305"/><line style="stroke:#181818;stroke-width:0.5;stroke-dasharray:5.0,5.0;" x1="2059.5" x2="2059.5" y1="612.709" y2="1305"/><line style="stroke:#181818;stroke-width:0.5;stroke-dasharray:5.0,5.0;" x1="2233.5" x2="2233.5" y1="1189.3164" y2="1305"/><rect fill="#E2E2F0" height="32.6211" rx="2.5" ry="2.5" style="stroke:#181818;stroke-width:0.5;" width="18" x="5" y="27.291"/><text fill="#000000" font-family="sans-serif" font-size="14" lengthAdjust="spacing" textLength="4" x="12" y="49.3984">&#160;</text><rect fill="#E2E2F0" height="32.6211" rx="2.5" ry="2.5" style="stroke:#181818;stroke-width:0.5;" width="18" x="5" y="1304"/><text fill="#000000" font-family="sans-serif" font-size="14" lengthAdjust="spacing" textLength="4" x="12" y="1326.1074">&#160;</text><rect fill="#E2E2F0" height="32.6211" rx="2.5" ry="2.5" style="stroke:#181818;stroke-width:0.5;" width="218" x="174" y="27.291"/><text fill="#000000" font-family="sans-serif" font-size="14" lengthAdjust="spacing" textLength="204" x="181" y="49.3984">:AddSensorToDevice_Controller</text><rect fill="#E2E2F0" height="32.6211" rx="2.5" ry="2.5" style="stroke:#181818;stroke-width:0.5;" width="218" x="174" y="1304"/><text fill="#000000" font-family="sans-serif" font-size="14" lengthAdjust="spacing" textLength="204" x="181" y="1326.1074">:AddSensorToDevice_Controller</text><rect fill="#E2E2F0" height="32.6211" rx="2.5" ry="2.5" style="stroke:#181818;stroke-width:0.5;" width="121" x="427.5" y="27.291"/><text fill="#000000" font-family="sans-serif" font-size="14" lengthAdjust="spacing" textLength="107" x="434.5" y="49.3984">:RoomAssembler</text><rect fill="#E2E2F0" height="32.6211" rx="2.5" ry="2.5" style="stroke:#181818;stroke-width:0.5;" width="121" x="427.5" y="1304"/><text fill="#000000" font-family="sans-serif" font-size="14" lengthAdjust="spacing" textLength="107" x="434.5" y="1326.1074">:RoomAssembler</text><rect fill="#E2E2F0" height="32.6211" rx="2.5" ry="2.5" style="stroke:#181818;stroke-width:0.5;" width="127" x="558.5" y="27.291"/><text fill="#000000" font-family="sans-serif" font-size="14" lengthAdjust="spacing" textLength="113" x="565.5" y="49.3984">:DeviceAssembler</text><rect fill="#E2E2F0" height="32.6211" rx="2.5" ry="2.5" style="stroke:#181818;stroke-width:0.5;" width="127" x="558.5" y="1304"/><text fill="#000000" font-family="sans-serif" font-size="14" lengthAdjust="spacing" textLength="113" x="565.5" y="1326.1074">:DeviceAssembler</text><rect fill="#E2E2F0" height="32.6211" rx="2.5" ry="2.5" style="stroke:#181818;stroke-width:0.5;" width="125" x="695.5" y="27.291"/><text fill="#000000" font-family="sans-serif" font-size="14" lengthAdjust="spacing" textLength="111" x="702.5" y="49.3984">SensorAssembler</text><rect fill="#E2E2F0" height="32.6211" rx="2.5" ry="2.5" style="stroke:#181818;stroke-width:0.5;" width="125" x="695.5" y="1304"/><text fill="#000000" font-family="sans-serif" font-size="14" lengthAdjust="spacing" textLength="111" x="702.5" y="1326.1074">SensorAssembler</text><rect fill="#E2E2F0" height="32.6211" rx="2.5" ry="2.5" style="stroke:#181818;stroke-width:0.5;" width="58" x="830.5" y="27.291"/><text fill="#000000" font-family="sans-serif" font-size="14" lengthAdjust="spacing" textLength="44" x="837.5" y="49.3984">:House</text><rect fill="#E2E2F0" height="32.6211" rx="2.5" ry="2.5" style="stroke:#181818;stroke-width:0.5;" width="58" x="830.5" y="1304"/><text fill="#000000" font-family="sans-serif" font-size="14" lengthAdjust="spacing" textLength="44" x="837.5" y="1326.1074">:House</text><rect fill="#E2E2F0" height="32.6211" rx="2.5" ry="2.5" style="stroke:#181818;stroke-width:0.5;" width="87" x="898.5" y="27.291"/><text fill="#000000" font-family="sans-serif" font-size="14" lengthAdjust="spacing" textLength="73" x="905.5" y="49.3984">room:Room</text><rect fill="#E2E2F0" height="32.6211" rx="2.5" ry="2.5" style="stroke:#181818;stroke-width:0.5;" width="87" x="898.5" y="1304"/><text fill="#000000" font-family="sans-serif" font-size="14" lengthAdjust="spacing" textLength="73" x="905.5" y="1326.1074">room:Room</text><rect fill="#E2E2F0" height="32.6211" rx="2.5" ry="2.5" style="stroke:#181818;stroke-width:0.5;" width="102" x="995.5" y="27.291"/><text fill="#000000" font-family="sans-serif" font-size="14" lengthAdjust="spacing" textLength="88" x="1002.5" y="49.3984">device:Device</text><rect fill="#E2E2F0" height="32.6211" rx="2.5" ry="2.5" style="stroke:#181818;stroke-width:0.5;" width="102" x="995.5" y="1304"/><text fill="#000000" font-family="sans-serif" font-size="14" lengthAdjust="spacing" textLength="88" x="1002.5" y="1326.1074">device:Device</text><rect fill="#E2E2F0" height="32.6211" rx="2.5" ry="2.5" style="stroke:#181818;stroke-width:0.5;" width="190" x="1191.5" y="27.291"/><text fill="#000000" font-family="sans-serif" font-size="14" lengthAdjust="spacing" textLength="176" x="1198.5" y="49.3984">catalogue:CatalogueSensor</text><rect fill="#E2E2F0" height="32.6211" rx="2.5" ry="2.5" style="stroke:#181818;stroke-width:0.5;" width="190" x="1191.5" y="1304"/><text fill="#000000" font-family="sans-serif" font-size="14" lengthAdjust="spacing" textLength="176" x="1198.5" y="1326.1074">catalogue:CatalogueSensor</text><rect fill="#E2E2F0" height="32.6211" rx="2.5" ry="2.5" style="stroke:#181818;stroke-width:0.5;" width="202" x="1416.5" y="27.291"/><text fill="#000000" font-family="sans-serif" font-size="14" lengthAdjust="spacing" textLength="188" x="1423.5" y="49.3984">sensorFactory:SensorFactory</text><rect fill="#E2E2F0" height="32.6211" rx="2.5" ry="2.5" style="stroke:#181818;stroke-width:0.5;" width="202" x="1416.5" y="1304"/><text fill="#000000" font-family="sans-serif" font-size="14" lengthAdjust="spacing" textLength="188" x="1423.5" y="1326.1074">sensorFactory:SensorFactory</text><rect fill="#E2E2F0" height="32.6211" rx="2.5" ry="2.5" style="stroke:#181818;stroke-width:0.5;" width="106" x="1705.5" y="1304"/><text fill="#000000" font-family="sans-serif" font-size="14" lengthAdjust="spacing" textLength="92" x="1712.5" y="1326.1074">sensor:Sensor</text><rect fill="#E2E2F0" height="32.6211" rx="2.5" ry="2.5" style="stroke:#181818;stroke-width:0.5;" width="147" x="1821.5" y="1304"/><text fill="#000000" font-family="sans-serif" font-size="14" lengthAdjust="spacing" textLength="133" x="1828.5" y="1326.1074">roomDTO:RoomDTO</text><rect fill="#E2E2F0" height="32.6211" rx="2.5" ry="2.5" style="stroke:#181818;stroke-width:0.5;" width="162" x="1978.5" y="1304"/><text fill="#000000" font-family="sans-serif" font-size="14" lengthAdjust="spacing" textLength="148" x="1985.5" y="1326.1074">deviceDTO:DeviceDTO</text><rect fill="#E2E2F0" height="32.6211" rx="2.5" ry="2.5" style="stroke:#181818;stroke-width:0.5;" width="166" x="2150.5" y="1304"/><text fill="#000000" font-family="sans-serif" font-size="14" lengthAdjust="spacing" textLength="152" x="2157.5" y="1326.1074">sensorDTO:SensorDTO</text><rect fill="#FFFFFF" height="264.6582" style="stroke:#181818;stroke-width:1.0;" width="10" x="278" y="94.2031"/><rect fill="#FFFFFF" height="327.2402" style="stroke:#181818;stroke-width:1.0;" width="10" x="278" y="390.1523"/><rect fill="#FFFFFF" height="538.3164" style="stroke:#181818;stroke-width:1.0;" width="10" x="278" y="748.6836"/><rect fill="#FFFFFF" height="139.4941" style="stroke:#181818;stroke-width:1.0;" width="10" x="483" y="188.0762"/><rect fill="#FFFFFF" height="31.291" style="stroke:#181818;stroke-width:1.0;" width="10" x="483" y="421.4434"/><rect fill="#FFFFFF" height="139.4941" style="stroke:#181818;stroke-width:1.0;" width="10" x="617" y="546.6074"/><rect fill="#FFFFFF" height="31.291" style="stroke:#181818;stroke-width:1.0;" width="10" x="617" y="779.9746"/><rect fill="#FFFFFF" height="106.2031" style="stroke:#181818;stroke-width:1.0;" width="10" x="753" y="1149.5059"/><rect fill="#FFFFFF" height="31.291" style="stroke:#181818;stroke-width:1.0;" width="10" x="854.5" y="125.4941"/><rect fill="#FFFFFF" height="31.291" style="stroke:#181818;stroke-width:1.0;" width="10" x="937" y="484.0254"/><rect fill="#FFFFFF" height="275.6582" style="stroke:#181818;stroke-width:1.0;" width="10" x="1041.5" y="842.5566"/><rect fill="#FFFFFF" height="168.7852" style="stroke:#181818;stroke-width:1.0;" width="10" x="1281.5" y="873.8477"/><rect fill="#FFFFFF" height="106.2031" style="stroke:#181818;stroke-width:1.0;" width="10" x="1512.5" y="905.1387"/><rect fill="#FFFFFF" height="33.6211" style="stroke:#181818;stroke-width:1.0;" width="10" x="1753.5" y="946.4297"/><rect fill="#FFFFFF" height="33.6211" style="stroke:#181818;stroke-width:1.0;" width="10" x="1890" y="255.6582"/><rect fill="#FFFFFF" height="33.6211" style="stroke:#181818;stroke-width:1.0;" width="10" x="2054.5" y="614.1895"/><rect fill="#FFFFFF" height="33.6211" style="stroke:#181818;stroke-width:1.0;" width="10" x="2228.5" y="1190.7969"/><ellipse cx="13.5" cy="93.4531" fill="none" rx="4" ry="4" style="stroke:#181818;stroke-width:1.5;"/><polygon fill="#181818" points="266,90.2031,276,94.2031,266,98.2031,270,94.2031" style="stroke:#181818;stroke-width:1.0;"/><line style="stroke:#181818;stroke-width:1.0;" x1="18" x2="272" y1="94.2031" y2="94.2031"/><text fill="#000000" font-family="sans-serif" font-size="13" font-weight="bold" lengthAdjust="spacing" textLength="7" x="21" y="88.9404">1</text><text fill="#000000" font-family="sans-serif" font-size="13" lengthAdjust="spacing" textLength="67" x="32" y="88.9404">getRooms()</text><polygon fill="#181818" points="842.5,121.4941,852.5,125.4941,842.5,129.4941,846.5,125.4941" style="stroke:#181818;stroke-width:1.0;"/><line style="stroke:#181818;stroke-width:1.0;" x1="288" x2="848.5" y1="125.4941" y2="125.4941"/><text fill="#000000" font-family="sans-serif" font-size="13" font-weight="bold" lengthAdjust="spacing" textLength="7" x="295" y="120.2314">2</text><text fill="#000000" font-family="sans-serif" font-size="13" lengthAdjust="spacing" textLength="67" x="306" y="120.2314">getRooms()</text><polygon fill="#181818" points="299,152.7852,289,156.7852,299,160.7852,295,156.7852" style="stroke:#181818;stroke-width:1.0;"/><line style="stroke:#181818;stroke-width:1.0;stroke-dasharray:2.0,2.0;" x1="293" x2="858.5" y1="156.7852" y2="156.7852"/><text fill="#000000" font-family="sans-serif" font-size="13" font-weight="bold" lengthAdjust="spacing" textLength="7" x="305" y="151.5225">3</text><text fill="#000000" font-family="sans-serif" font-size="13" lengthAdjust="spacing" textLength="82" x="316" y="151.5225">copyOfRooms</text><polygon fill="#181818" points="471,184.0762,481,188.0762,471,192.0762,475,188.0762" style="stroke:#181818;stroke-width:1.0;"/><line style="stroke:#181818;stroke-width:1.0;" x1="288" x2="477" y1="188.0762" y2="188.0762"/><text fill="#000000" font-family="sans-serif" font-size="13" font-weight="bold" lengthAdjust="spacing" textLength="7" x="295" y="182.8135">4</text><text fill="#000000" font-family="sans-serif" font-size="13" lengthAdjust="spacing" textLength="165" x="306" y="182.8135">domain2DTO(copyOfRooms)</text><path d="M417.5,203.0762 L490.5,203.0762 L490.5,212.3672 L480.5,222.3672 L417.5,222.3672 L417.5,203.0762 " fill="#EEEEEE" style="stroke:#000000;stroke-width:1.5;"/><rect fill="none" height="94.2031" style="stroke:#000000;stroke-width:1.5;" width="1561" x="417.5" y="203.0762"/><text fill="#000000" font-family="sans-serif" font-size="13" font-weight="bold" lengthAdjust="spacing" textLength="28" x="432.5" y="218.1045">loop</text><text fill="#000000" font-family="sans-serif" font-size="11" font-weight="bold" lengthAdjust="spacing" textLength="179" x="505.5" y="216.9463">[for each room in copyOfRooms]</text><polygon fill="#181818" points="1809.5,241.6582,1819.5,245.6582,1809.5,249.6582,1813.5,245.6582" style="stroke:#181818;stroke-width:1.0;"/><line style="stroke:#181818;stroke-width:1.0;" x1="493" x2="1815.5" y1="245.6582" y2="245.6582"/><text fill="#000000" font-family="sans-serif" font-size="13" font-weight="bold" lengthAdjust="spacing" textLength="7" x="500" y="240.3955">5</text><text fill="#000000" font-family="sans-serif" font-size="13" lengthAdjust="spacing" textLength="133" x="511" y="240.3955">createRoomDTO(room)</text><rect fill="#E2E2F0" height="32.6211" rx="2.5" ry="2.5" style="stroke:#181818;stroke-width:0.5;" width="147" x="1821.5" y="222.3672"/><text fill="#000000" font-family="sans-serif" font-size="14" lengthAdjust="spacing" textLength="133" x="1828.5" y="244.4746">roomDTO:RoomDTO</text><polygon fill="#181818" points="504,285.2793,494,289.2793,504,293.2793,500,289.2793" style="stroke:#181818;stroke-width:1.0;"/><line style="stroke:#181818;stroke-width:1.0;stroke-dasharray:2.0,2.0;" x1="498" x2="1894" y1="289.2793" y2="289.2793"/><text fill="#000000" font-family="sans-serif" font-size="13" font-weight="bold" lengthAdjust="spacing" textLength="7" x="510" y="284.0166">6</text><text fill="#000000" font-family="sans-serif" font-size="13" lengthAdjust="spacing" textLength="55" x="521" y="284.0166">roomDTO</text><polygon fill="#181818" points="299,323.5703,289,327.5703,299,331.5703,295,327.5703" style="stroke:#181818;stroke-width:1.0;"/><line style="stroke:#181818;stroke-width:1.0;stroke-dasharray:2.0,2.0;" x1="293" x2="487" y1="327.5703" y2="327.5703"/><text fill="#000000" font-family="sans-serif" font-size="13" font-weight="bold" lengthAdjust="spacing" textLength="7" x="305" y="322.3076">7</text><text fill="#000000" font-family="sans-serif" font-size="13" lengthAdjust="spacing" textLength="62" x="316" y="322.3076">roomsDTO</text><polygon fill="#181818" points="25,354.8613,15,358.8613,25,362.8613,21,358.8613" style="stroke:#181818;stroke-width:1.0;"/><line style="stroke:#181818;stroke-width:1.0;stroke-dasharray:2.0,2.0;" x1="19" x2="282" y1="358.8613" y2="358.8613"/><text fill="#000000" font-family="sans-serif" font-size="13" font-weight="bold" lengthAdjust="spacing" textLength="7" x="31" y="353.5986">8</text><text fill="#000000" font-family="sans-serif" font-size="13" lengthAdjust="spacing" textLength="62" x="42" y="353.5986">roomsDTO</text><ellipse cx="13.5" cy="389.4023" fill="none" rx="4" ry="4" style="stroke:#181818;stroke-width:1.5;"/><polygon fill="#181818" points="266,386.1523,276,390.1523,266,394.1523,270,390.1523" style="stroke:#181818;stroke-width:1.0;"/><line style="stroke:#181818;stroke-width:1.0;" x1="18" x2="272" y1="390.1523" y2="390.1523"/><text fill="#000000" font-family="sans-serif" font-size="13" font-weight="bold" lengthAdjust="spacing" textLength="7" x="21" y="384.8896">9</text><text fill="#000000" font-family="sans-serif" font-size="13" lengthAdjust="spacing" textLength="126" x="32" y="384.8896">getDevices(roomDTO)</text><polygon fill="#181818" points="471,417.4434,481,421.4434,471,425.4434,475,421.4434" style="stroke:#181818;stroke-width:1.0;"/><line style="stroke:#181818;stroke-width:1.0;" x1="288" x2="477" y1="421.4434" y2="421.4434"/><text fill="#000000" font-family="sans-serif" font-size="13" font-weight="bold" lengthAdjust="spacing" textLength="14" x="295" y="416.1807">10</text><text fill="#000000" font-family="sans-serif" font-size="13" lengthAdjust="spacing" textLength="132" x="313" y="416.1807">dto2Domain(roomDTO)</text><polygon fill="#181818" points="299,448.7344,289,452.7344,299,456.7344,295,452.7344" style="stroke:#181818;stroke-width:1.0;"/><line style="stroke:#181818;stroke-width:1.0;stroke-dasharray:2.0,2.0;" x1="293" x2="487" y1="452.7344" y2="452.7344"/><text fill="#000000" font-family="sans-serif" font-size="13" font-weight="bold" lengthAdjust="spacing" textLength="14" x="305" y="447.4717">11</text><text fill="#000000" font-family="sans-serif" font-size="13" lengthAdjust="spacing" textLength="29" x="323" y="447.4717">room</text><polygon fill="#181818" points="925,480.0254,935,484.0254,925,488.0254,929,484.0254" style="stroke:#181818;stroke-width:1.0;"/><line style="stroke:#181818;stroke-width:1.0;" x1="288" x2="931" y1="484.0254" y2="484.0254"/><text fill="#000000" font-family="sans-serif" font-size="13" font-weight="bold" lengthAdjust="spacing" textLength="14" x="295" y="478.7627">12</text><text fill="#000000" font-family="sans-serif" font-size="13" lengthAdjust="spacing" textLength="71" x="313" y="478.7627">getDevices()</text><polygon fill="#181818" points="299,511.3164,289,515.3164,299,519.3164,295,515.3164" style="stroke:#181818;stroke-width:1.0;"/><line style="stroke:#181818;stroke-width:1.0;stroke-dasharray:2.0,2.0;" x1="293" x2="941" y1="515.3164" y2="515.3164"/><text fill="#000000" font-family="sans-serif" font-size="13" font-weight="bold" lengthAdjust="spacing" textLength="14" x="305" y="510.0537">13</text><text fill="#000000" font-family="sans-serif" font-size="13" lengthAdjust="spacing" textLength="86" x="323" y="510.0537">copyOfDevices</text><polygon fill="#181818" points="605,542.6074,615,546.6074,605,550.6074,609,546.6074" style="stroke:#181818;stroke-width:1.0;"/><line style="stroke:#181818;stroke-width:1.0;" x1="288" x2="611" y1="546.6074" y2="546.6074"/><text fill="#000000" font-family="sans-serif" font-size="13" font-weight="bold" lengthAdjust="spacing" textLength="14" x="295" y="541.3447">14</text><text fill="#000000" font-family="sans-serif" font-size="13" lengthAdjust="spacing" textLength="169" x="313" y="541.3447">domain2DTO(copyOfDevices)</text><path d="M548.5,561.6074 L621.5,561.6074 L621.5,570.8984 L611.5,580.8984 L548.5,580.8984 L548.5,561.6074 " fill="#EEEEEE" style="stroke:#000000;stroke-width:1.5;"/><rect fill="none" height="94.2031" style="stroke:#000000;stroke-width:1.5;" width="1602" x="548.5" y="561.6074"/><text fill="#000000" font-family="sans-serif" font-size="13" font-weight="bold" lengthAdjust="spacing" textLength="28" x="563.5" y="576.6357">loop</text><text fill="#000000" font-family="sans-serif" font-size="11" font-weight="bold" lengthAdjust="spacing" textLength="189" x="636.5" y="575.4775">[for each device in copyOfDevices]</text><polygon fill="#181818" points="1966.5,600.1895,1976.5,604.1895,1966.5,608.1895,1970.5,604.1895" style="stroke:#181818;stroke-width:1.0;"/><line style="stroke:#181818;stroke-width:1.0;" x1="627" x2="1972.5" y1="604.1895" y2="604.1895"/><text fill="#000000" font-family="sans-serif" font-size="13" font-weight="bold" lengthAdjust="spacing" textLength="14" x="634" y="598.9268">15</text><text fill="#000000" font-family="sans-serif" font-size="13" lengthAdjust="spacing" textLength="144" x="652" y="598.9268">createDeviceDTO(device)</text><rect fill="#E2E2F0" height="32.6211" rx="2.5" ry="2.5" style="stroke:#181818;stroke-width:0.5;" width="162" x="1978.5" y="580.8984"/><text fill="#000000" font-family="sans-serif" font-size="14" lengthAdjust="spacing" textLength="148" x="1985.5" y="603.0059">deviceDTO:DeviceDTO</text><polygon fill="#181818" points="638,643.8105,628,647.8105,638,651.8105,634,647.8105" style="stroke:#181818;stroke-width:1.0;"/><line style="stroke:#181818;stroke-width:1.0;stroke-dasharray:2.0,2.0;" x1="632" x2="2058.5" y1="647.8105" y2="647.8105"/><text fill="#000000" font-family="sans-serif" font-size="13" font-weight="bold" lengthAdjust="spacing" textLength="14" x="644" y="642.5479">16</text><text fill="#000000" font-family="sans-serif" font-size="13" lengthAdjust="spacing" textLength="62" x="662" y="642.5479">deviceDTO</text><polygon fill="#181818" points="299,682.1016,289,686.1016,299,690.1016,295,686.1016" style="stroke:#181818;stroke-width:1.0;"/><line style="stroke:#181818;stroke-width:1.0;stroke-dasharray:2.0,2.0;" x1="293" x2="621" y1="686.1016" y2="686.1016"/><text fill="#000000" font-family="sans-serif" font-size="13" font-weight="bold" lengthAdjust="spacing" textLength="14" x="305" y="680.8389">17</text><text fill="#000000" font-family="sans-serif" font-size="13" lengthAdjust="spacing" textLength="69" x="323" y="680.8389">devicesDTO</text><polygon fill="#181818" points="25,713.3926,15,717.3926,25,721.3926,21,717.3926" style="stroke:#181818;stroke-width:1.0;"/><line style="stroke:#181818;stroke-width:1.0;stroke-dasharray:2.0,2.0;" x1="19" x2="282" y1="717.3926" y2="717.3926"/><text fill="#000000" font-family="sans-serif" font-size="13" font-weight="bold" lengthAdjust="spacing" textLength="14" x="31" y="712.1299">18</text><text fill="#000000" font-family="sans-serif" font-size="13" lengthAdjust="spacing" textLength="69" x="49" y="712.1299">devicesDTO</text><ellipse cx="13.5" cy="747.9336" fill="none" rx="4" ry="4" style="stroke:#181818;stroke-width:1.5;"/><polygon fill="#181818" points="266,744.6836,276,748.6836,266,752.6836,270,748.6836" style="stroke:#181818;stroke-width:1.0;"/><line style="stroke:#181818;stroke-width:1.0;" x1="18" x2="272" y1="748.6836" y2="748.6836"/><text fill="#000000" font-family="sans-serif" font-size="13" font-weight="bold" lengthAdjust="spacing" textLength="14" x="21" y="743.4209">19</text><text fill="#000000" font-family="sans-serif" font-size="13" lengthAdjust="spacing" textLength="227" x="39" y="743.4209">addSensorToDevice(deviceDTO, model)</text><polygon fill="#181818" points="605,775.9746,615,779.9746,605,783.9746,609,779.9746" style="stroke:#181818;stroke-width:1.0;"/><line style="stroke:#181818;stroke-width:1.0;" x1="288" x2="611" y1="779.9746" y2="779.9746"/><text fill="#000000" font-family="sans-serif" font-size="13" font-weight="bold" lengthAdjust="spacing" textLength="14" x="295" y="774.7119">20</text><text fill="#000000" font-family="sans-serif" font-size="13" lengthAdjust="spacing" textLength="139" x="313" y="774.7119">dto2Domain(deviceDTO)</text><polygon fill="#181818" points="299,807.2656,289,811.2656,299,815.2656,295,811.2656" style="stroke:#181818;stroke-width:1.0;"/><line style="stroke:#181818;stroke-width:1.0;stroke-dasharray:2.0,2.0;" x1="293" x2="621" y1="811.2656" y2="811.2656"/><text fill="#000000" font-family="sans-serif" font-size="13" font-weight="bold" lengthAdjust="spacing" textLength="14" x="305" y="806.0029">21</text><text fill="#000000" font-family="sans-serif" font-size="13" lengthAdjust="spacing" textLength="36" x="323" y="806.0029">device</text><polygon fill="#181818" points="1029.5,838.5566,1039.5,842.5566,1029.5,846.5566,1033.5,842.5566" style="stroke:#181818;stroke-width:1.0;"/><line style="stroke:#181818;stroke-width:1.0;" x1="288" x2="1035.5" y1="842.5566" y2="842.5566"/><text fill="#000000" font-family="sans-serif" font-size="13" font-weight="bold" lengthAdjust="spacing" textLength="14" x="295" y="837.2939">22</text><text fill="#000000" font-family="sans-serif" font-size="13" lengthAdjust="spacing" textLength="260" x="313" y="837.2939">addSensor(model, catalogue, sensorFactory)</text><polygon fill="#181818" points="1269.5,869.8477,1279.5,873.8477,1269.5,877.8477,1273.5,873.8477" style="stroke:#181818;stroke-width:1.0;"/><line style="stroke:#181818;stroke-width:1.0;stroke-dasharray:2.0,2.0;" x1="1051.5" x2="1275.5" y1="873.8477" y2="873.8477"/><text fill="#000000" font-family="sans-serif" font-size="13" font-weight="bold" lengthAdjust="spacing" textLength="14" x="1058.5" y="868.585">23</text><text fill="#000000" font-family="sans-serif" font-size="13" lengthAdjust="spacing" textLength="193" x="1076.5" y="868.585">getSensor(model, sensorFactory)</text><polygon fill="#181818" points="1500.5,901.1387,1510.5,905.1387,1500.5,909.1387,1504.5,905.1387" style="stroke:#181818;stroke-width:1.0;"/><line style="stroke:#181818;stroke-width:1.0;stroke-dasharray:2.0,2.0;" x1="1291.5" x2="1506.5" y1="905.1387" y2="905.1387"/><text fill="#000000" font-family="sans-serif" font-size="13" font-weight="bold" lengthAdjust="spacing" textLength="14" x="1298.5" y="899.876">24</text><text fill="#000000" font-family="sans-serif" font-size="13" lengthAdjust="spacing" textLength="184" x="1316.5" y="899.876">createSensor(model, catalogue)</text><polygon fill="#181818" points="1693.5,932.4297,1703.5,936.4297,1693.5,940.4297,1697.5,936.4297" style="stroke:#181818;stroke-width:1.0;"/><line style="stroke:#181818;stroke-width:1.0;" x1="1522.5" x2="1699.5" y1="936.4297" y2="936.4297"/><text fill="#000000" font-family="sans-serif" font-size="13" font-weight="bold" lengthAdjust="spacing" textLength="14" x="1529.5" y="931.167">25</text><text fill="#000000" font-family="sans-serif" font-size="13" lengthAdjust="spacing" textLength="141" x="1547.5" y="931.167">createSensor(catalogue)</text><rect fill="#E2E2F0" height="32.6211" rx="2.5" ry="2.5" style="stroke:#181818;stroke-width:0.5;" width="106" x="1705.5" y="913.1387"/><text fill="#000000" font-family="sans-serif" font-size="14" lengthAdjust="spacing" textLength="92" x="1712.5" y="935.2461">sensor:Sensor</text><polygon fill="#181818" points="1533.5,976.0508,1523.5,980.0508,1533.5,984.0508,1529.5,980.0508" style="stroke:#181818;stroke-width:1.0;"/><line style="stroke:#181818;stroke-width:1.0;stroke-dasharray:2.0,2.0;" x1="1527.5" x2="1757.5" y1="980.0508" y2="980.0508"/><text fill="#000000" font-family="sans-serif" font-size="13" font-weight="bold" lengthAdjust="spacing" textLength="14" x="1539.5" y="974.7881">26</text><text fill="#000000" font-family="sans-serif" font-size="13" lengthAdjust="spacing" textLength="39" x="1557.5" y="974.7881">sensor</text><polygon fill="#181818" points="1302.5,1007.3418,1292.5,1011.3418,1302.5,1015.3418,1298.5,1011.3418" style="stroke:#181818;stroke-width:1.0;"/><line style="stroke:#181818;stroke-width:1.0;stroke-dasharray:2.0,2.0;" x1="1296.5" x2="1516.5" y1="1011.3418" y2="1011.3418"/><text fill="#000000" font-family="sans-serif" font-size="13" font-weight="bold" lengthAdjust="spacing" textLength="14" x="1308.5" y="1006.0791">27</text><text fill="#000000" font-family="sans-serif" font-size="13" lengthAdjust="spacing" textLength="39" x="1326.5" y="1006.0791">sensor</text><polygon fill="#181818" points="1062.5,1038.6328,1052.5,1042.6328,1062.5,1046.6328,1058.5,1042.6328" style="stroke:#181818;stroke-width:1.0;"/><line style="stroke:#181818;stroke-width:1.0;stroke-dasharray:2.0,2.0;" x1="1056.5" x2="1285.5" y1="1042.6328" y2="1042.6328"/><text fill="#000000" font-family="sans-serif" font-size="13" font-weight="bold" lengthAdjust="spacing" textLength="14" x="1068.5" y="1037.3701">28</text><text fill="#000000" font-family="sans-serif" font-size="13" lengthAdjust="spacing" textLength="39" x="1086.5" y="1037.3701">sensor</text><line style="stroke:#181818;stroke-width:1.0;" x1="1051.5" x2="1093.5" y1="1073.9238" y2="1073.9238"/><line style="stroke:#181818;stroke-width:1.0;" x1="1093.5" x2="1093.5" y1="1073.9238" y2="1086.9238"/><line style="stroke:#181818;stroke-width:1.0;" x1="1052.5" x2="1093.5" y1="1086.9238" y2="1086.9238"/><polygon fill="#181818" points="1062.5,1082.9238,1052.5,1086.9238,1062.5,1090.9238,1058.5,1086.9238" style="stroke:#181818;stroke-width:1.0;"/><text fill="#000000" font-family="sans-serif" font-size="13" font-weight="bold" lengthAdjust="spacing" textLength="14" x="1058.5" y="1068.6611">29</text><text fill="#000000" font-family="sans-serif" font-size="13" lengthAdjust="spacing" textLength="161" x="1076.5" y="1068.6611">addSensorToDevice(sensor)</text><polygon fill="#181818" points="299,1114.2148,289,1118.2148,299,1122.2148,295,1118.2148" style="stroke:#181818;stroke-width:1.0;"/><line style="stroke:#181818;stroke-width:1.0;stroke-dasharray:2.0,2.0;" x1="293" x2="1045.5" y1="1118.2148" y2="1118.2148"/><text fill="#000000" font-family="sans-serif" font-size="13" font-weight="bold" lengthAdjust="spacing" textLength="14" x="305" y="1112.9521">30</text><text fill="#000000" font-family="sans-serif" font-size="13" lengthAdjust="spacing" textLength="39" x="323" y="1112.9521">sensor</text><polygon fill="#181818" points="741,1145.5059,751,1149.5059,741,1153.5059,745,1149.5059" style="stroke:#181818;stroke-width:1.0;"/><line style="stroke:#181818;stroke-width:1.0;" x1="288" x2="747" y1="1149.5059" y2="1149.5059"/><text fill="#000000" font-family="sans-serif" font-size="13" font-weight="bold" lengthAdjust="spacing" textLength="14" x="295" y="1144.2432">31</text><text fill="#000000" font-family="sans-serif" font-size="13" lengthAdjust="spacing" textLength="122" x="313" y="1144.2432">domain2DTO(sensor)</text><polygon fill="#181818" points="2138.5,1176.7969,2148.5,1180.7969,2138.5,1184.7969,2142.5,1180.7969" style="stroke:#181818;stroke-width:1.0;"/><line style="stroke:#181818;stroke-width:1.0;" x1="763" x2="2144.5" y1="1180.7969" y2="1180.7969"/><text fill="#000000" font-family="sans-serif" font-size="13" font-weight="bold" lengthAdjust="spacing" textLength="14" x="770" y="1175.5342">32</text><text fill="#000000" font-family="sans-serif" font-size="13" lengthAdjust="spacing" textLength="150" x="788" y="1175.5342">createSensorDTO(sensor)</text><rect fill="#E2E2F0" height="32.6211" rx="2.5" ry="2.5" style="stroke:#181818;stroke-width:0.5;" width="166" x="2150.5" y="1157.5059"/><text fill="#000000" font-family="sans-serif" font-size="14" lengthAdjust="spacing" textLength="152" x="2157.5" y="1179.6133">sensorDTO:SensorDTO</text><polygon fill="#181818" points="774,1220.418,764,1224.418,774,1228.418,770,1224.418" style="stroke:#181818;stroke-width:1.0;"/><line style="stroke:#181818;stroke-width:1.0;stroke-dasharray:2.0,2.0;" x1="768" x2="2232.5" y1="1224.418" y2="1224.418"/><text fill="#000000" font-family="sans-serif" font-size="13" font-weight="bold" lengthAdjust="spacing" textLength="14" x="780" y="1219.1553">33</text><text fill="#000000" font-family="sans-serif" font-size="13" lengthAdjust="spacing" textLength="65" x="798" y="1219.1553">sensorDTO</text><polygon fill="#181818" points="299,1251.709,289,1255.709,299,1259.709,295,1255.709" style="stroke:#181818;stroke-width:1.0;"/><line style="stroke:#181818;stroke-width:1.0;stroke-dasharray:2.0,2.0;" x1="293" x2="757" y1="1255.709" y2="1255.709"/><text fill="#000000" font-family="sans-serif" font-size="13" font-weight="bold" lengthAdjust="spacing" textLength="14" x="305" y="1250.4463">34</text><text fill="#000000" font-family="sans-serif" font-size="13" lengthAdjust="spacing" textLength="65" x="323" y="1250.4463">sensorDTO</text><polygon fill="#181818" points="25,1283,15,1287,25,1291,21,1287" style="stroke:#181818;stroke-width:1.0;"/><line style="stroke:#181818;stroke-width:1.0;stroke-dasharray:2.0,2.0;" x1="19" x2="282" y1="1287" y2="1287"/><text fill="#000000" font-family="sans-serif" font-size="13" font-weight="bold" lengthAdjust="spacing" textLength="14" x="31" y="1281.7373">35</text><text fill="#000000" font-family="sans-serif" font-size="13" lengthAdjust="spacing" textLength="65" x="49" y="1281.7373">sensorDTO</text><!--SRC=[nLTDZzem4BtdLrZqG5Q28kqnXqghHQlUg0ezLoOnRAeafhQpAl- -_eWJU-mab6vLE12ScJVFR-QPi7mLuiAppUPIuKQqTVKnf_M6avyjQNAoBafyPhXEaWjceipBYmn22_d677tZX2N9aVv2Yoyj8-W57rcPOr7IPe4-d1cvWhJigIZsfE6K7UYMl9Kv-VvC6y5eLH6c8QS28DXNIkidpabzjDdU2WmtU7u2M0CfXecV0TQIX3G5aX9qEcnfZSjc0Mj_fYqdEbzVWTjCqjQxwJS10WfDizk1Gno4IUbnHSyjoPxjbQ6hKy0QoELwyGNdWh9hjdU_EVlkLgAvcLFBbW3YI0Rem733JuIXtV47oKLyK9GYsyDEYo8_UrtaTLGQ5RkrLuv0ORpXgkBtzifXhEDnAsZJraVLtUNwZjSoIPGr45r_cXpe39s9KDlYwOCiculo3Giouu6fkqWMr0CsWjmDd_v0wrbsERrSToSDaoG5WJ1pJ3mtPgZGrdYK4gSEi4iFsBUYz89Eb25P-HMfaK1buvFA6R69gdL8lZmGIqFr6vdWxckgy1vqXbVVXP7NMYMm4UQ4EQhOR3dpIG9Op4gjCBcUFe3ew36jjooXXcu4Qdgc_lsKcrMUTjgztxZ38HFqqPp1iL90q7kQT7-335TF3SZDKBhPcHrCG6cU2VZTYvYpmtOP1Z-Mla7DIJnOj6VNcNGuaPLn0DX0oh5glv0QR63N6A2rRBX1BzWHR43HnWrupVR280UE2zIwqRuZSF_Lm1ZUJNivLwYc1QdUpz1XvmPBzrKdn_BU5lvD-onlHwjK2xD2_LFP2daFMU4UB7ND63okwNF31nv52vxqm8B6znxehED6cBlWu46mCxUjvDr5VHc0Fm5i8M8SUHVXj6caRao_qUn-Bp6PR5iZsO7CjdkHOUYDOt0Ul5PF3sUaiXsNkPa4VrQyOxud0jHmHjxhhJwGGCXGmpcr-uNH4WwKFQy3fdo831eMftAZa778Fp-dusZJPzzl]--></g></svg>