<?xml version="1.0" encoding="us-ascii" standalone="no"?><svg xmlns="http://www.w3.org/2000/svg" xmlns:xlink="http://www.w3.org/1999/xlink" contentStyleType="text/css" height="1120px" preserveAspectRatio="none" style="width:5010px;height:1120px;background:#FFFFFF;" version="1.1" viewBox="0 0 5010 1120" width="5010px" zoomAndPan="magnify"><defs/><g><!--class AddSensorToDeviceController--><g id="elem_AddSensorToDeviceController"><rect codeLine="7" fill="#F1F1F1" height="345.9375" id="AddSensorToDeviceController" rx="2.5" ry="2.5" style="stroke:#181818;stroke-width:0.5;" width="1435" x="2278.5" y="12"/><ellipse cx="2895.75" cy="28" fill="#ADD1B2" rx="11" ry="11" style="stroke:#181818;stroke-width:1.0;"/><path d="M2898.5156,23.875 Q2898.6719,23.6563 2898.8594,23.5469 Q2899.0469,23.4375 2899.2656,23.4375 Q2899.6406,23.4375 2899.875,23.7031 Q2900.1094,23.9531 2900.1094,24.5625 L2900.1094,26.0156 Q2900.1094,26.625 2899.875,26.8906 Q2899.6406,27.1563 2899.2656,27.1563 Q2898.9219,27.1563 2898.7188,26.9531 Q2898.5156,26.7656 2898.4063,26.25 Q2898.3594,25.8906 2898.1719,25.7031 Q2897.8438,25.3281 2897.2344,25.1094 Q2896.625,24.8906 2896,24.8906 Q2895.2344,24.8906 2894.5938,25.2188 Q2893.9688,25.5469 2893.4688,26.2969 Q2892.9844,27.0469 2892.9844,28.0781 L2892.9844,29.1719 Q2892.9844,30.4063 2893.875,31.2344 Q2894.7656,32.0469 2896.3594,32.0469 Q2897.2969,32.0469 2897.9531,31.7969 Q2898.3438,31.6406 2898.7656,31.2031 Q2899.0313,30.9375 2899.1719,30.8594 Q2899.3281,30.7813 2899.5313,30.7813 Q2899.8594,30.7813 2900.1094,31.0469 Q2900.375,31.2969 2900.375,31.6406 Q2900.375,31.9844 2900.0313,32.3906 Q2899.5313,32.9688 2898.7344,33.2969 Q2897.6563,33.75 2896.3594,33.75 Q2894.8438,33.75 2893.6406,33.125 Q2892.6563,32.625 2891.9688,31.5625 Q2891.2813,30.4844 2891.2813,29.2031 L2891.2813,28.0469 Q2891.2813,26.7188 2891.8906,25.5781 Q2892.5156,24.4219 2893.6094,23.8125 Q2894.7031,23.1875 2895.9375,23.1875 Q2896.6719,23.1875 2897.3125,23.3594 Q2897.9688,23.5156 2898.5156,23.875 Z " fill="#000000"/><text fill="#000000" font-family="sans-serif" font-size="14" lengthAdjust="spacing" textLength="192" x="2916.25" y="33.7969">AddSensorToDeviceController</text><line style="stroke:#181818;stroke-width:0.5;" x1="2279.5" x2="3712.5" y1="44" y2="44"/><rect fill="none" height="6" style="stroke:#C82930;stroke-width:1.0;" width="6" x="2286.5" y="55.8105"/><text fill="#000000" font-family="sans-serif" font-size="14" lengthAdjust="spacing" textLength="175" x="2298.5" y="63.1074">RoomService _roomService</text><rect fill="none" height="6" style="stroke:#C82930;stroke-width:1.0;" width="6" x="2286.5" y="74.4316"/><text fill="#000000" font-family="sans-serif" font-size="14" lengthAdjust="spacing" textLength="213" x="2298.5" y="81.7285">RoomAssembler _roomAssembler</text><rect fill="none" height="6" style="stroke:#C82930;stroke-width:1.0;" width="6" x="2286.5" y="93.0527"/><text fill="#000000" font-family="sans-serif" font-size="14" lengthAdjust="spacing" textLength="190" x="2298.5" y="100.3496">DeviceService _deviceService</text><rect fill="none" height="6" style="stroke:#C82930;stroke-width:1.0;" width="6" x="2286.5" y="111.6738"/><text fill="#000000" font-family="sans-serif" font-size="14" lengthAdjust="spacing" textLength="228" x="2298.5" y="118.9707">DeviceAssembler _deviceAssembler</text><rect fill="none" height="6" style="stroke:#C82930;stroke-width:1.0;" width="6" x="2286.5" y="130.2949"/><text fill="#000000" font-family="sans-serif" font-size="14" lengthAdjust="spacing" textLength="270" x="2298.5" y="137.5918">SensorModelService _sensorModelService</text><rect fill="none" height="6" style="stroke:#C82930;stroke-width:1.0;" width="6" x="2286.5" y="148.916"/><text fill="#000000" font-family="sans-serif" font-size="14" lengthAdjust="spacing" textLength="308" x="2298.5" y="156.2129">SensorModelAssembler _sensorModelAssembler</text><rect fill="none" height="6" style="stroke:#C82930;stroke-width:1.0;" width="6" x="2286.5" y="167.5371"/><text fill="#000000" font-family="sans-serif" font-size="14" lengthAdjust="spacing" textLength="258" x="2298.5" y="174.834">SensorTypeService _sensorTypeService</text><rect fill="none" height="6" style="stroke:#C82930;stroke-width:1.0;" width="6" x="2286.5" y="186.1582"/><text fill="#000000" font-family="sans-serif" font-size="14" lengthAdjust="spacing" textLength="296" x="2298.5" y="193.4551">SensorTypeAssembler _sensorTypeAssembler</text><rect fill="none" height="6" style="stroke:#C82930;stroke-width:1.0;" width="6" x="2286.5" y="204.7793"/><text fill="#000000" font-family="sans-serif" font-size="14" lengthAdjust="spacing" textLength="232" x="2298.5" y="212.0762">SensorAssembler _sensorAssembler</text><rect fill="none" height="6" style="stroke:#C82930;stroke-width:1.0;" width="6" x="2286.5" y="223.4004"/><text fill="#000000" font-family="sans-serif" font-size="14" lengthAdjust="spacing" textLength="194" x="2298.5" y="230.6973">SensorService _sensorService</text><line style="stroke:#181818;stroke-width:0.5;" x1="2279.5" x2="3712.5" y1="238.2109" y2="238.2109"/><ellipse cx="2289.5" cy="253.0215" fill="#84BE84" rx="3" ry="3" style="stroke:#038048;stroke-width:1.0;"/><text fill="#000000" font-family="sans-serif" font-size="14" lengthAdjust="spacing" textLength="1409" x="2298.5" y="257.3184">AddSensorToDeviceController(RoomService, RoomAssembler, DeviceService, DeviceAssembler, SensorModelService, SensorModelAssembler, SensorTypeService, SensorTypeAssembler, SensorAssembler, SensorService)</text><ellipse cx="2289.5" cy="271.6426" fill="#84BE84" rx="3" ry="3" style="stroke:#038048;stroke-width:1.0;"/><text fill="#000000" font-family="sans-serif" font-size="14" lengthAdjust="spacing" textLength="187" x="2298.5" y="275.9395">getRooms(): List&lt;RoomDTO&gt;</text><ellipse cx="2289.5" cy="290.2637" fill="#84BE84" rx="3" ry="3" style="stroke:#038048;stroke-width:1.0;"/><text fill="#000000" font-family="sans-serif" font-size="14" lengthAdjust="spacing" textLength="336" x="2298.5" y="294.5605">getDevicesFromRoom(RoomDTO): List&lt;DeviceDTO&gt;</text><ellipse cx="2289.5" cy="308.8848" fill="#84BE84" rx="3" ry="3" style="stroke:#038048;stroke-width:1.0;"/><text fill="#000000" font-family="sans-serif" font-size="14" lengthAdjust="spacing" textLength="267" x="2298.5" y="313.1816">getSensorTypes(): List&lt;SensorTypeDTO&gt;</text><ellipse cx="2289.5" cy="327.5059" fill="#84BE84" rx="3" ry="3" style="stroke:#038048;stroke-width:1.0;"/><text fill="#000000" font-family="sans-serif" font-size="14" lengthAdjust="spacing" textLength="386" x="2298.5" y="331.8027">getSensorModels(SensorTypeDTO): List&lt;SensorModelDTO&gt;</text><ellipse cx="2289.5" cy="346.127" fill="#84BE84" rx="3" ry="3" style="stroke:#038048;stroke-width:1.0;"/><text fill="#000000" font-family="sans-serif" font-size="14" lengthAdjust="spacing" textLength="327" x="2298.5" y="350.4238">addSensorToDevice(SensorDataDTO): SensorDTO</text></g><!--class SensorModelService--><g id="elem_SensorModelService"><rect codeLine="27" fill="#F1F1F1" height="178.3477" id="SensorModelService" rx="2.5" ry="2.5" style="stroke:#181818;stroke-width:0.5;" width="542" x="554" y="422.5"/><ellipse cx="755.75" cy="438.5" fill="#ADD1B2" rx="11" ry="11" style="stroke:#181818;stroke-width:1.0;"/><path d="M758.5156,434.375 Q758.6719,434.1563 758.8594,434.0469 Q759.0469,433.9375 759.2656,433.9375 Q759.6406,433.9375 759.875,434.2031 Q760.1094,434.4531 760.1094,435.0625 L760.1094,436.5156 Q760.1094,437.125 759.875,437.3906 Q759.6406,437.6563 759.2656,437.6563 Q758.9219,437.6563 758.7188,437.4531 Q758.5156,437.2656 758.4063,436.75 Q758.3594,436.3906 758.1719,436.2031 Q757.8438,435.8281 757.2344,435.6094 Q756.625,435.3906 756,435.3906 Q755.2344,435.3906 754.5938,435.7188 Q753.9688,436.0469 753.4688,436.7969 Q752.9844,437.5469 752.9844,438.5781 L752.9844,439.6719 Q752.9844,440.9063 753.875,441.7344 Q754.7656,442.5469 756.3594,442.5469 Q757.2969,442.5469 757.9531,442.2969 Q758.3438,442.1406 758.7656,441.7031 Q759.0313,441.4375 759.1719,441.3594 Q759.3281,441.2813 759.5313,441.2813 Q759.8594,441.2813 760.1094,441.5469 Q760.375,441.7969 760.375,442.1406 Q760.375,442.4844 760.0313,442.8906 Q759.5313,443.4688 758.7344,443.7969 Q757.6563,444.25 756.3594,444.25 Q754.8438,444.25 753.6406,443.625 Q752.6563,443.125 751.9688,442.0625 Q751.2813,440.9844 751.2813,439.7031 L751.2813,438.5469 Q751.2813,437.2188 751.8906,436.0781 Q752.5156,434.9219 753.6094,434.3125 Q754.7031,433.6875 755.9375,433.6875 Q756.6719,433.6875 757.3125,433.8594 Q757.9688,434.0156 758.5156,434.375 Z " fill="#000000"/><text fill="#000000" font-family="sans-serif" font-size="14" lengthAdjust="spacing" textLength="130" x="776.25" y="444.2969">SensorModelService</text><line style="stroke:#181818;stroke-width:0.5;" x1="555" x2="1095" y1="454.5" y2="454.5"/><rect fill="none" height="6" style="stroke:#C82930;stroke-width:1.0;" width="6" x="562" y="466.3105"/><text fill="#000000" font-family="sans-serif" font-size="14" lengthAdjust="spacing" textLength="278" x="574" y="473.6074">SensorModelRepo _sensorModelRepository</text><rect fill="none" height="6" style="stroke:#C82930;stroke-width:1.0;" width="6" x="562" y="484.9316"/><text fill="#000000" font-family="sans-serif" font-size="14" lengthAdjust="spacing" textLength="269" x="574" y="492.2285">SensorModelFactory _factorySensorModel</text><line style="stroke:#181818;stroke-width:0.5;" x1="555" x2="1095" y1="499.7422" y2="499.7422"/><ellipse cx="565" cy="514.5527" fill="#84BE84" rx="3" ry="3" style="stroke:#038048;stroke-width:1.0;"/><text fill="#000000" font-family="sans-serif" font-size="14" lengthAdjust="spacing" textLength="396" x="574" y="518.8496">SensorModelService(SensorModelRepo, SensorModelFactory)</text><ellipse cx="565" cy="533.1738" fill="#84BE84" rx="3" ry="3" style="stroke:#038048;stroke-width:1.0;"/><text fill="#000000" font-family="sans-serif" font-size="14" lengthAdjust="spacing" textLength="516" x="574" y="537.4707">createSensorModel(SensorModelName, ModelPath, SensorTypeID): SensorModel</text><ellipse cx="565" cy="551.7949" fill="#84BE84" rx="3" ry="3" style="stroke:#038048;stroke-width:1.0;"/><text fill="#000000" font-family="sans-serif" font-size="14" lengthAdjust="spacing" textLength="264" x="574" y="556.0918">getAllSensorModels(): List&lt;SensorModel&gt;</text><ellipse cx="565" cy="570.416" fill="#84BE84" rx="3" ry="3" style="stroke:#038048;stroke-width:1.0;"/><text fill="#000000" font-family="sans-serif" font-size="14" lengthAdjust="spacing" textLength="340" x="574" y="574.7129">getSensorModel(ModelPath): Optional&lt;SensorModel&gt;</text><ellipse cx="565" cy="589.0371" fill="#84BE84" rx="3" ry="3" style="stroke:#038048;stroke-width:1.0;"/><text fill="#000000" font-family="sans-serif" font-size="14" lengthAdjust="spacing" textLength="443" x="574" y="593.334">getSensorModelsBySensorTypeId(SensorTypeID): List&lt;SensorModel&gt;</text></g><!--class SensorModelAssembler--><g id="elem_SensorModelAssembler"><rect codeLine="39" fill="#F1F1F1" height="85.2422" id="SensorModelAssembler" rx="2.5" ry="2.5" style="stroke:#181818;stroke-width:0.5;" width="409" x="1560.5" y="469"/><ellipse cx="1686.25" cy="485" fill="#ADD1B2" rx="11" ry="11" style="stroke:#181818;stroke-width:1.0;"/><path d="M1689.0156,480.875 Q1689.1719,480.6563 1689.3594,480.5469 Q1689.5469,480.4375 1689.7656,480.4375 Q1690.1406,480.4375 1690.375,480.7031 Q1690.6094,480.9531 1690.6094,481.5625 L1690.6094,483.0156 Q1690.6094,483.625 1690.375,483.8906 Q1690.1406,484.1563 1689.7656,484.1563 Q1689.4219,484.1563 1689.2188,483.9531 Q1689.0156,483.7656 1688.9063,483.25 Q1688.8594,482.8906 1688.6719,482.7031 Q1688.3438,482.3281 1687.7344,482.1094 Q1687.125,481.8906 1686.5,481.8906 Q1685.7344,481.8906 1685.0938,482.2188 Q1684.4688,482.5469 1683.9688,483.2969 Q1683.4844,484.0469 1683.4844,485.0781 L1683.4844,486.1719 Q1683.4844,487.4063 1684.375,488.2344 Q1685.2656,489.0469 1686.8594,489.0469 Q1687.7969,489.0469 1688.4531,488.7969 Q1688.8438,488.6406 1689.2656,488.2031 Q1689.5313,487.9375 1689.6719,487.8594 Q1689.8281,487.7813 1690.0313,487.7813 Q1690.3594,487.7813 1690.6094,488.0469 Q1690.875,488.2969 1690.875,488.6406 Q1690.875,488.9844 1690.5313,489.3906 Q1690.0313,489.9688 1689.2344,490.2969 Q1688.1563,490.75 1686.8594,490.75 Q1685.3438,490.75 1684.1406,490.125 Q1683.1563,489.625 1682.4688,488.5625 Q1681.7813,487.4844 1681.7813,486.2031 L1681.7813,485.0469 Q1681.7813,483.7188 1682.3906,482.5781 Q1683.0156,481.4219 1684.1094,480.8125 Q1685.2031,480.1875 1686.4375,480.1875 Q1687.1719,480.1875 1687.8125,480.3594 Q1688.4688,480.5156 1689.0156,480.875 Z " fill="#000000"/><text fill="#000000" font-family="sans-serif" font-size="14" lengthAdjust="spacing" textLength="149" x="1706.75" y="490.7969">SensorModelAssembler</text><line style="stroke:#181818;stroke-width:0.5;" x1="1561.5" x2="1968.5" y1="501" y2="501"/><line style="stroke:#181818;stroke-width:0.5;" x1="1561.5" x2="1968.5" y1="509" y2="509"/><ellipse cx="1571.5" cy="523.8105" fill="#84BE84" rx="3" ry="3" style="stroke:#038048;stroke-width:1.0;"/><text fill="#000000" font-family="sans-serif" font-size="14" lengthAdjust="spacing" textLength="307" x="1580.5" y="528.1074">domainToDTO(SensorModel): SensorModelDTO</text><ellipse cx="1571.5" cy="542.4316" fill="#84BE84" rx="3" ry="3" style="stroke:#038048;stroke-width:1.0;"/><text fill="#000000" font-family="sans-serif" font-size="14" lengthAdjust="spacing" textLength="383" x="1580.5" y="546.7285">domainToDTO(List&lt;SensorModel&gt;): List&lt;SensorModelDTO&gt;</text></g><!--class SensorTypeService--><g id="elem_SensorTypeService"><rect codeLine="44" fill="#F1F1F1" height="196.9688" id="SensorTypeService" rx="2.5" ry="2.5" style="stroke:#181818;stroke-width:0.5;" width="538" x="2203" y="413"/><ellipse cx="2405.75" cy="429" fill="#ADD1B2" rx="11" ry="11" style="stroke:#181818;stroke-width:1.0;"/><path d="M2408.5156,424.875 Q2408.6719,424.6563 2408.8594,424.5469 Q2409.0469,424.4375 2409.2656,424.4375 Q2409.6406,424.4375 2409.875,424.7031 Q2410.1094,424.9531 2410.1094,425.5625 L2410.1094,427.0156 Q2410.1094,427.625 2409.875,427.8906 Q2409.6406,428.1563 2409.2656,428.1563 Q2408.9219,428.1563 2408.7188,427.9531 Q2408.5156,427.7656 2408.4063,427.25 Q2408.3594,426.8906 2408.1719,426.7031 Q2407.8438,426.3281 2407.2344,426.1094 Q2406.625,425.8906 2406,425.8906 Q2405.2344,425.8906 2404.5938,426.2188 Q2403.9688,426.5469 2403.4688,427.2969 Q2402.9844,428.0469 2402.9844,429.0781 L2402.9844,430.1719 Q2402.9844,431.4063 2403.875,432.2344 Q2404.7656,433.0469 2406.3594,433.0469 Q2407.2969,433.0469 2407.9531,432.7969 Q2408.3438,432.6406 2408.7656,432.2031 Q2409.0313,431.9375 2409.1719,431.8594 Q2409.3281,431.7813 2409.5313,431.7813 Q2409.8594,431.7813 2410.1094,432.0469 Q2410.375,432.2969 2410.375,432.6406 Q2410.375,432.9844 2410.0313,433.3906 Q2409.5313,433.9688 2408.7344,434.2969 Q2407.6563,434.75 2406.3594,434.75 Q2404.8438,434.75 2403.6406,434.125 Q2402.6563,433.625 2401.9688,432.5625 Q2401.2813,431.4844 2401.2813,430.2031 L2401.2813,429.0469 Q2401.2813,427.7188 2401.8906,426.5781 Q2402.5156,425.4219 2403.6094,424.8125 Q2404.7031,424.1875 2405.9375,424.1875 Q2406.6719,424.1875 2407.3125,424.3594 Q2407.9688,424.5156 2408.5156,424.875 Z " fill="#000000"/><text fill="#000000" font-family="sans-serif" font-size="14" lengthAdjust="spacing" textLength="124" x="2426.25" y="434.7969">SensorTypeService</text><line style="stroke:#181818;stroke-width:0.5;" x1="2204" x2="2740" y1="445" y2="445"/><rect fill="none" height="6" style="stroke:#C82930;stroke-width:1.0;" width="6" x="2211" y="456.8105"/><text fill="#000000" font-family="sans-serif" font-size="14" lengthAdjust="spacing" textLength="300" x="2223" y="464.1074">SensorTypeRepository _sensorTypeRepository</text><rect fill="none" height="6" style="stroke:#C82930;stroke-width:1.0;" width="6" x="2211" y="475.4316"/><text fill="#000000" font-family="sans-serif" font-size="14" lengthAdjust="spacing" textLength="260" x="2223" y="482.7285">SensorTypeFactory _sensorTypeFactory</text><rect fill="none" height="6" style="stroke:#C82930;stroke-width:1.0;" width="6" x="2211" y="494.0527"/><text fill="#000000" font-family="sans-serif" font-size="14" lengthAdjust="spacing" textLength="195" x="2223" y="501.3496">UnitRepository _unitRepository</text><line style="stroke:#181818;stroke-width:0.5;" x1="2204" x2="2740" y1="508.8633" y2="508.8633"/><ellipse cx="2214" cy="523.6738" fill="#84BE84" rx="3" ry="3" style="stroke:#038048;stroke-width:1.0;"/><text fill="#000000" font-family="sans-serif" font-size="14" lengthAdjust="spacing" textLength="512" x="2223" y="527.9707">SensorTypeService(SensorTypeRepository, SensorTypeFactory, UnitRepository)</text><ellipse cx="2214" cy="542.2949" fill="#84BE84" rx="3" ry="3" style="stroke:#038048;stroke-width:1.0;"/><text fill="#000000" font-family="sans-serif" font-size="14" lengthAdjust="spacing" textLength="360" x="2223" y="546.5918">createSensorType(TypeDescription, UnitID): SensorType</text><ellipse cx="2214" cy="560.916" fill="#84BE84" rx="3" ry="3" style="stroke:#038048;stroke-width:1.0;"/><text fill="#000000" font-family="sans-serif" font-size="14" lengthAdjust="spacing" textLength="279" x="2223" y="565.2129">saveSensorType(SensorType): SensorType</text><ellipse cx="2214" cy="579.5371" fill="#84BE84" rx="3" ry="3" style="stroke:#038048;stroke-width:1.0;"/><text fill="#000000" font-family="sans-serif" font-size="14" lengthAdjust="spacing" textLength="383" x="2223" y="583.834">findSensorTypeByID(SensorTypeID): Optional&lt;SensorType&gt;</text><ellipse cx="2214" cy="598.1582" fill="#84BE84" rx="3" ry="3" style="stroke:#038048;stroke-width:1.0;"/><text fill="#000000" font-family="sans-serif" font-size="14" lengthAdjust="spacing" textLength="255" x="2223" y="602.4551">findAllSensorTypes(): List&lt;SensorType&gt;</text></g><!--class SensorTypeAssembler--><g id="elem_SensorTypeAssembler"><rect codeLine="56" fill="#F1F1F1" height="85.2422" id="SensorTypeAssembler" rx="2.5" ry="2.5" style="stroke:#181818;stroke-width:0.5;" width="397" x="2797.5" y="469"/><ellipse cx="2920.25" cy="485" fill="#ADD1B2" rx="11" ry="11" style="stroke:#181818;stroke-width:1.0;"/><path d="M2923.0156,480.875 Q2923.1719,480.6563 2923.3594,480.5469 Q2923.5469,480.4375 2923.7656,480.4375 Q2924.1406,480.4375 2924.375,480.7031 Q2924.6094,480.9531 2924.6094,481.5625 L2924.6094,483.0156 Q2924.6094,483.625 2924.375,483.8906 Q2924.1406,484.1563 2923.7656,484.1563 Q2923.4219,484.1563 2923.2188,483.9531 Q2923.0156,483.7656 2922.9063,483.25 Q2922.8594,482.8906 2922.6719,482.7031 Q2922.3438,482.3281 2921.7344,482.1094 Q2921.125,481.8906 2920.5,481.8906 Q2919.7344,481.8906 2919.0938,482.2188 Q2918.4688,482.5469 2917.9688,483.2969 Q2917.4844,484.0469 2917.4844,485.0781 L2917.4844,486.1719 Q2917.4844,487.4063 2918.375,488.2344 Q2919.2656,489.0469 2920.8594,489.0469 Q2921.7969,489.0469 2922.4531,488.7969 Q2922.8438,488.6406 2923.2656,488.2031 Q2923.5313,487.9375 2923.6719,487.8594 Q2923.8281,487.7813 2924.0313,487.7813 Q2924.3594,487.7813 2924.6094,488.0469 Q2924.875,488.2969 2924.875,488.6406 Q2924.875,488.9844 2924.5313,489.3906 Q2924.0313,489.9688 2923.2344,490.2969 Q2922.1563,490.75 2920.8594,490.75 Q2919.3438,490.75 2918.1406,490.125 Q2917.1563,489.625 2916.4688,488.5625 Q2915.7813,487.4844 2915.7813,486.2031 L2915.7813,485.0469 Q2915.7813,483.7188 2916.3906,482.5781 Q2917.0156,481.4219 2918.1094,480.8125 Q2919.2031,480.1875 2920.4375,480.1875 Q2921.1719,480.1875 2921.8125,480.3594 Q2922.4688,480.5156 2923.0156,480.875 Z " fill="#000000"/><text fill="#000000" font-family="sans-serif" font-size="14" lengthAdjust="spacing" textLength="143" x="2940.75" y="490.7969">SensorTypeAssembler</text><line style="stroke:#181818;stroke-width:0.5;" x1="2798.5" x2="3193.5" y1="501" y2="501"/><line style="stroke:#181818;stroke-width:0.5;" x1="2798.5" x2="3193.5" y1="509" y2="509"/><ellipse cx="2808.5" cy="523.8105" fill="#84BE84" rx="3" ry="3" style="stroke:#038048;stroke-width:1.0;"/><text fill="#000000" font-family="sans-serif" font-size="14" lengthAdjust="spacing" textLength="295" x="2817.5" y="528.1074">domainToDTO(SensorType): SensorTypeDTO</text><ellipse cx="2808.5" cy="542.4316" fill="#84BE84" rx="3" ry="3" style="stroke:#038048;stroke-width:1.0;"/><text fill="#000000" font-family="sans-serif" font-size="14" lengthAdjust="spacing" textLength="371" x="2817.5" y="546.7285">domainToDTO(List&lt;SensorType&gt;): List&lt;SensorTypeDTO&gt;</text></g><!--class SensorAssembler--><g id="elem_SensorAssembler"><rect codeLine="61" fill="#F1F1F1" height="85.2422" id="SensorAssembler" rx="2.5" ry="2.5" style="stroke:#181818;stroke-width:0.5;" width="333" x="3345.5" y="469"/><ellipse cx="3452.25" cy="485" fill="#ADD1B2" rx="11" ry="11" style="stroke:#181818;stroke-width:1.0;"/><path d="M3455.0156,480.875 Q3455.1719,480.6563 3455.3594,480.5469 Q3455.5469,480.4375 3455.7656,480.4375 Q3456.1406,480.4375 3456.375,480.7031 Q3456.6094,480.9531 3456.6094,481.5625 L3456.6094,483.0156 Q3456.6094,483.625 3456.375,483.8906 Q3456.1406,484.1563 3455.7656,484.1563 Q3455.4219,484.1563 3455.2188,483.9531 Q3455.0156,483.7656 3454.9063,483.25 Q3454.8594,482.8906 3454.6719,482.7031 Q3454.3438,482.3281 3453.7344,482.1094 Q3453.125,481.8906 3452.5,481.8906 Q3451.7344,481.8906 3451.0938,482.2188 Q3450.4688,482.5469 3449.9688,483.2969 Q3449.4844,484.0469 3449.4844,485.0781 L3449.4844,486.1719 Q3449.4844,487.4063 3450.375,488.2344 Q3451.2656,489.0469 3452.8594,489.0469 Q3453.7969,489.0469 3454.4531,488.7969 Q3454.8438,488.6406 3455.2656,488.2031 Q3455.5313,487.9375 3455.6719,487.8594 Q3455.8281,487.7813 3456.0313,487.7813 Q3456.3594,487.7813 3456.6094,488.0469 Q3456.875,488.2969 3456.875,488.6406 Q3456.875,488.9844 3456.5313,489.3906 Q3456.0313,489.9688 3455.2344,490.2969 Q3454.1563,490.75 3452.8594,490.75 Q3451.3438,490.75 3450.1406,490.125 Q3449.1563,489.625 3448.4688,488.5625 Q3447.7813,487.4844 3447.7813,486.2031 L3447.7813,485.0469 Q3447.7813,483.7188 3448.3906,482.5781 Q3449.0156,481.4219 3450.1094,480.8125 Q3451.2031,480.1875 3452.4375,480.1875 Q3453.1719,480.1875 3453.8125,480.3594 Q3454.4688,480.5156 3455.0156,480.875 Z " fill="#000000"/><text fill="#000000" font-family="sans-serif" font-size="14" lengthAdjust="spacing" textLength="111" x="3472.75" y="490.7969">SensorAssembler</text><line style="stroke:#181818;stroke-width:0.5;" x1="3346.5" x2="3677.5" y1="501" y2="501"/><line style="stroke:#181818;stroke-width:0.5;" x1="3346.5" x2="3677.5" y1="509" y2="509"/><ellipse cx="3356.5" cy="523.8105" fill="#84BE84" rx="3" ry="3" style="stroke:#038048;stroke-width:1.0;"/><text fill="#000000" font-family="sans-serif" font-size="14" lengthAdjust="spacing" textLength="231" x="3365.5" y="528.1074">domainToDTO(Sensor): SensorDTO</text><ellipse cx="3356.5" cy="542.4316" fill="#84BE84" rx="3" ry="3" style="stroke:#038048;stroke-width:1.0;"/><text fill="#000000" font-family="sans-serif" font-size="14" lengthAdjust="spacing" textLength="307" x="3365.5" y="546.7285">domainToDTO(List&lt;Sensor&gt;): List&lt;SensorDTO&gt;</text></g><!--class SensorService--><g id="elem_SensorService"><rect codeLine="66" fill="#F1F1F1" height="141.1055" id="SensorService" rx="2.5" ry="2.5" style="stroke:#181818;stroke-width:0.5;" width="509" x="3799.5" y="441"/><ellipse cx="4003.75" cy="457" fill="#ADD1B2" rx="11" ry="11" style="stroke:#181818;stroke-width:1.0;"/><path d="M4006.5156,452.875 Q4006.6719,452.6563 4006.8594,452.5469 Q4007.0469,452.4375 4007.2656,452.4375 Q4007.6406,452.4375 4007.875,452.7031 Q4008.1094,452.9531 4008.1094,453.5625 L4008.1094,455.0156 Q4008.1094,455.625 4007.875,455.8906 Q4007.6406,456.1563 4007.2656,456.1563 Q4006.9219,456.1563 4006.7188,455.9531 Q4006.5156,455.7656 4006.4063,455.25 Q4006.3594,454.8906 4006.1719,454.7031 Q4005.8438,454.3281 4005.2344,454.1094 Q4004.625,453.8906 4004,453.8906 Q4003.2344,453.8906 4002.5938,454.2188 Q4001.9688,454.5469 4001.4688,455.2969 Q4000.9844,456.0469 4000.9844,457.0781 L4000.9844,458.1719 Q4000.9844,459.4063 4001.875,460.2344 Q4002.7656,461.0469 4004.3594,461.0469 Q4005.2969,461.0469 4005.9531,460.7969 Q4006.3438,460.6406 4006.7656,460.2031 Q4007.0313,459.9375 4007.1719,459.8594 Q4007.3281,459.7813 4007.5313,459.7813 Q4007.8594,459.7813 4008.1094,460.0469 Q4008.375,460.2969 4008.375,460.6406 Q4008.375,460.9844 4008.0313,461.3906 Q4007.5313,461.9688 4006.7344,462.2969 Q4005.6563,462.75 4004.3594,462.75 Q4002.8438,462.75 4001.6406,462.125 Q4000.6563,461.625 3999.9688,460.5625 Q3999.2813,459.4844 3999.2813,458.2031 L3999.2813,457.0469 Q3999.2813,455.7188 3999.8906,454.5781 Q4000.5156,453.4219 4001.6094,452.8125 Q4002.7031,452.1875 4003.9375,452.1875 Q4004.6719,452.1875 4005.3125,452.3594 Q4005.9688,452.5156 4006.5156,452.875 Z " fill="#000000"/><text fill="#000000" font-family="sans-serif" font-size="14" lengthAdjust="spacing" textLength="92" x="4024.25" y="462.7969">SensorService</text><line style="stroke:#181818;stroke-width:0.5;" x1="3800.5" x2="4307.5" y1="473" y2="473"/><rect fill="none" height="6" style="stroke:#C82930;stroke-width:1.0;" width="6" x="3807.5" y="484.8105"/><text fill="#000000" font-family="sans-serif" font-size="14" lengthAdjust="spacing" textLength="318" x="3819.5" y="492.1074">Repository&lt;SensorID, Sensor&gt; _sensorRepository</text><rect fill="none" height="6" style="stroke:#C82930;stroke-width:1.0;" width="6" x="3807.5" y="503.4316"/><text fill="#000000" font-family="sans-serif" font-size="14" lengthAdjust="spacing" textLength="196" x="3819.5" y="510.7285">SensorFactory _sensorFactory</text><rect fill="none" height="6" style="stroke:#C82930;stroke-width:1.0;" width="6" x="3807.5" y="522.0527"/><text fill="#000000" font-family="sans-serif" font-size="14" lengthAdjust="spacing" textLength="198" x="3819.5" y="529.3496">DeviceRepo _deviceRepository</text><line style="stroke:#181818;stroke-width:0.5;" x1="3800.5" x2="4307.5" y1="536.8633" y2="536.8633"/><ellipse cx="3810.5" cy="551.6738" fill="#84BE84" rx="3" ry="3" style="stroke:#038048;stroke-width:1.0;"/><text fill="#000000" font-family="sans-serif" font-size="14" lengthAdjust="spacing" textLength="483" x="3819.5" y="555.9707">SensorService(Repository&lt;SensorID, Sensor&gt;, SensorFactory, DeviceRepo)</text><ellipse cx="3810.5" cy="570.2949" fill="#84BE84" rx="3" ry="3" style="stroke:#038048;stroke-width:1.0;"/><text fill="#000000" font-family="sans-serif" font-size="14" lengthAdjust="spacing" textLength="450" x="3819.5" y="574.5918">addSensor(DeviceID, ModelPath, SensorTypeID, SensorName): Sensor</text></g><!--class SensorModelRepository--><g id="elem_SensorModelRepository"><rect codeLine="75" fill="#F1F1F1" height="178.3477" id="SensorModelRepository" rx="2.5" ry="2.5" style="stroke:#181818;stroke-width:0.5;" width="382" x="6" y="665"/><ellipse cx="117.25" cy="681" fill="#ADD1B2" rx="11" ry="11" style="stroke:#181818;stroke-width:1.0;"/><path d="M120.0156,676.875 Q120.1719,676.6563 120.3594,676.5469 Q120.5469,676.4375 120.7656,676.4375 Q121.1406,676.4375 121.375,676.7031 Q121.6094,676.9531 121.6094,677.5625 L121.6094,679.0156 Q121.6094,679.625 121.375,679.8906 Q121.1406,680.1563 120.7656,680.1563 Q120.4219,680.1563 120.2188,679.9531 Q120.0156,679.7656 119.9063,679.25 Q119.8594,678.8906 119.6719,678.7031 Q119.3438,678.3281 118.7344,678.1094 Q118.125,677.8906 117.5,677.8906 Q116.7344,677.8906 116.0938,678.2188 Q115.4688,678.5469 114.9688,679.2969 Q114.4844,680.0469 114.4844,681.0781 L114.4844,682.1719 Q114.4844,683.4063 115.375,684.2344 Q116.2656,685.0469 117.8594,685.0469 Q118.7969,685.0469 119.4531,684.7969 Q119.8438,684.6406 120.2656,684.2031 Q120.5313,683.9375 120.6719,683.8594 Q120.8281,683.7813 121.0313,683.7813 Q121.3594,683.7813 121.6094,684.0469 Q121.875,684.2969 121.875,684.6406 Q121.875,684.9844 121.5313,685.3906 Q121.0313,685.9688 120.2344,686.2969 Q119.1563,686.75 117.8594,686.75 Q116.3438,686.75 115.1406,686.125 Q114.1563,685.625 113.4688,684.5625 Q112.7813,683.4844 112.7813,682.2031 L112.7813,681.0469 Q112.7813,679.7188 113.3906,678.5781 Q114.0156,677.4219 115.1094,676.8125 Q116.2031,676.1875 117.4375,676.1875 Q118.1719,676.1875 118.8125,676.3594 Q119.4688,676.5156 120.0156,676.875 Z " fill="#000000"/><text fill="#000000" font-family="sans-serif" font-size="14" lengthAdjust="spacing" textLength="151" x="137.75" y="686.7969">SensorModelRepository</text><line style="stroke:#181818;stroke-width:0.5;" x1="7" x2="387" y1="697" y2="697"/><rect fill="none" height="6" style="stroke:#C82930;stroke-width:1.0;" width="6" x="14" y="708.8105"/><text fill="#000000" font-family="sans-serif" font-size="14" lengthAdjust="spacing" textLength="246" x="26" y="716.1074">DATA: Map&lt;ModelPath, SensorModel&gt;</text><line style="stroke:#181818;stroke-width:0.5;" x1="7" x2="387" y1="723.6211" y2="723.6211"/><ellipse cx="17" cy="738.4316" fill="#84BE84" rx="3" ry="3" style="stroke:#038048;stroke-width:1.0;"/><text fill="#000000" font-family="sans-serif" font-size="14" lengthAdjust="spacing" textLength="161" x="26" y="742.7285">SensorModelRepository()</text><ellipse cx="17" cy="757.0527" fill="#84BE84" rx="3" ry="3" style="stroke:#038048;stroke-width:1.0;"/><text fill="#000000" font-family="sans-serif" font-size="14" lengthAdjust="spacing" textLength="214" x="26" y="761.3496">save(SensorModel): SensorModel</text><ellipse cx="17" cy="775.6738" fill="#84BE84" rx="3" ry="3" style="stroke:#038048;stroke-width:1.0;"/><text fill="#000000" font-family="sans-serif" font-size="14" lengthAdjust="spacing" textLength="177" x="26" y="779.9707">findAll(): List&lt;SensorModel&gt;</text><ellipse cx="17" cy="794.2949" fill="#84BE84" rx="3" ry="3" style="stroke:#038048;stroke-width:1.0;"/><text fill="#000000" font-family="sans-serif" font-size="14" lengthAdjust="spacing" textLength="294" x="26" y="798.5918">ofIdentity(ModelPath): Optional&lt;SensorModel&gt;</text><ellipse cx="17" cy="812.916" fill="#84BE84" rx="3" ry="3" style="stroke:#038048;stroke-width:1.0;"/><text fill="#000000" font-family="sans-serif" font-size="14" lengthAdjust="spacing" textLength="249" x="26" y="817.2129">containsOfIdentity(ModelPath): boolean</text><ellipse cx="17" cy="831.5371" fill="#84BE84" rx="3" ry="3" style="stroke:#038048;stroke-width:1.0;"/><text fill="#000000" font-family="sans-serif" font-size="14" lengthAdjust="spacing" textLength="356" x="26" y="835.834">findBySensorTypeId(SensorTypeID): List&lt;SensorModel&gt;</text></g><!--class SensorTypeRepository--><g id="elem_SensorTypeRepository"><rect codeLine="85" fill="#F1F1F1" height="159.7266" id="SensorTypeRepository" rx="2.5" ry="2.5" style="stroke:#181818;stroke-width:0.5;" width="365" x="1858.5" y="674"/><ellipse cx="1964.25" cy="690" fill="#ADD1B2" rx="11" ry="11" style="stroke:#181818;stroke-width:1.0;"/><path d="M1967.0156,685.875 Q1967.1719,685.6563 1967.3594,685.5469 Q1967.5469,685.4375 1967.7656,685.4375 Q1968.1406,685.4375 1968.375,685.7031 Q1968.6094,685.9531 1968.6094,686.5625 L1968.6094,688.0156 Q1968.6094,688.625 1968.375,688.8906 Q1968.1406,689.1563 1967.7656,689.1563 Q1967.4219,689.1563 1967.2188,688.9531 Q1967.0156,688.7656 1966.9063,688.25 Q1966.8594,687.8906 1966.6719,687.7031 Q1966.3438,687.3281 1965.7344,687.1094 Q1965.125,686.8906 1964.5,686.8906 Q1963.7344,686.8906 1963.0938,687.2188 Q1962.4688,687.5469 1961.9688,688.2969 Q1961.4844,689.0469 1961.4844,690.0781 L1961.4844,691.1719 Q1961.4844,692.4063 1962.375,693.2344 Q1963.2656,694.0469 1964.8594,694.0469 Q1965.7969,694.0469 1966.4531,693.7969 Q1966.8438,693.6406 1967.2656,693.2031 Q1967.5313,692.9375 1967.6719,692.8594 Q1967.8281,692.7813 1968.0313,692.7813 Q1968.3594,692.7813 1968.6094,693.0469 Q1968.875,693.2969 1968.875,693.6406 Q1968.875,693.9844 1968.5313,694.3906 Q1968.0313,694.9688 1967.2344,695.2969 Q1966.1563,695.75 1964.8594,695.75 Q1963.3438,695.75 1962.1406,695.125 Q1961.1563,694.625 1960.4688,693.5625 Q1959.7813,692.4844 1959.7813,691.2031 L1959.7813,690.0469 Q1959.7813,688.7188 1960.3906,687.5781 Q1961.0156,686.4219 1962.1094,685.8125 Q1963.2031,685.1875 1964.4375,685.1875 Q1965.1719,685.1875 1965.8125,685.3594 Q1966.4688,685.5156 1967.0156,685.875 Z " fill="#000000"/><text fill="#000000" font-family="sans-serif" font-size="14" lengthAdjust="spacing" textLength="145" x="1984.75" y="695.7969">SensorTypeRepository</text><line style="stroke:#181818;stroke-width:0.5;" x1="1859.5" x2="2222.5" y1="706" y2="706"/><rect fill="none" height="6" style="stroke:#C82930;stroke-width:1.0;" width="6" x="1866.5" y="717.8105"/><text fill="#000000" font-family="sans-serif" font-size="14" lengthAdjust="spacing" textLength="339" x="1878.5" y="725.1074">_sensorTypeData: Map&lt;SensorTypeID, SensorType&gt;</text><line style="stroke:#181818;stroke-width:0.5;" x1="1859.5" x2="2222.5" y1="732.6211" y2="732.6211"/><ellipse cx="1869.5" cy="747.4316" fill="#84BE84" rx="3" ry="3" style="stroke:#038048;stroke-width:1.0;"/><text fill="#000000" font-family="sans-serif" font-size="14" lengthAdjust="spacing" textLength="155" x="1878.5" y="751.7285">SensorTypeRepository()</text><ellipse cx="1869.5" cy="766.0527" fill="#84BE84" rx="3" ry="3" style="stroke:#038048;stroke-width:1.0;"/><text fill="#000000" font-family="sans-serif" font-size="14" lengthAdjust="spacing" textLength="202" x="1878.5" y="770.3496">save(SensorType): SensorType</text><ellipse cx="1869.5" cy="784.6738" fill="#84BE84" rx="3" ry="3" style="stroke:#038048;stroke-width:1.0;"/><text fill="#000000" font-family="sans-serif" font-size="14" lengthAdjust="spacing" textLength="171" x="1878.5" y="788.9707">findAll(): List&lt;SensorType&gt;</text><ellipse cx="1869.5" cy="803.2949" fill="#84BE84" rx="3" ry="3" style="stroke:#038048;stroke-width:1.0;"/><text fill="#000000" font-family="sans-serif" font-size="14" lengthAdjust="spacing" textLength="311" x="1878.5" y="807.5918">ofIdentity(SensorTypeID): Optional&lt;SensorType&gt;</text><ellipse cx="1869.5" cy="821.916" fill="#84BE84" rx="3" ry="3" style="stroke:#038048;stroke-width:1.0;"/><text fill="#000000" font-family="sans-serif" font-size="14" lengthAdjust="spacing" textLength="272" x="1878.5" y="826.2129">containsOfIdentity(SensorTypeID): boolean</text></g><!--class SensorRepository--><g id="elem_SensorRepository"><rect codeLine="94" fill="#F1F1F1" height="178.3477" id="SensorRepository" rx="2.5" ry="2.5" style="stroke:#181818;stroke-width:0.5;" width="276" x="4020" y="665"/><ellipse cx="4097.25" cy="681" fill="#ADD1B2" rx="11" ry="11" style="stroke:#181818;stroke-width:1.0;"/><path d="M4100.0156,676.875 Q4100.1719,676.6563 4100.3594,676.5469 Q4100.5469,676.4375 4100.7656,676.4375 Q4101.1406,676.4375 4101.375,676.7031 Q4101.6094,676.9531 4101.6094,677.5625 L4101.6094,679.0156 Q4101.6094,679.625 4101.375,679.8906 Q4101.1406,680.1563 4100.7656,680.1563 Q4100.4219,680.1563 4100.2188,679.9531 Q4100.0156,679.7656 4099.9063,679.25 Q4099.8594,678.8906 4099.6719,678.7031 Q4099.3438,678.3281 4098.7344,678.1094 Q4098.125,677.8906 4097.5,677.8906 Q4096.7344,677.8906 4096.0938,678.2188 Q4095.4688,678.5469 4094.9688,679.2969 Q4094.4844,680.0469 4094.4844,681.0781 L4094.4844,682.1719 Q4094.4844,683.4063 4095.375,684.2344 Q4096.2656,685.0469 4097.8594,685.0469 Q4098.7969,685.0469 4099.4531,684.7969 Q4099.8438,684.6406 4100.2656,684.2031 Q4100.5313,683.9375 4100.6719,683.8594 Q4100.8281,683.7813 4101.0313,683.7813 Q4101.3594,683.7813 4101.6094,684.0469 Q4101.875,684.2969 4101.875,684.6406 Q4101.875,684.9844 4101.5313,685.3906 Q4101.0313,685.9688 4100.2344,686.2969 Q4099.1563,686.75 4097.8594,686.75 Q4096.3438,686.75 4095.1406,686.125 Q4094.1563,685.625 4093.4688,684.5625 Q4092.7813,683.4844 4092.7813,682.2031 L4092.7813,681.0469 Q4092.7813,679.7188 4093.3906,678.5781 Q4094.0156,677.4219 4095.1094,676.8125 Q4096.2031,676.1875 4097.4375,676.1875 Q4098.1719,676.1875 4098.8125,676.3594 Q4099.4688,676.5156 4100.0156,676.875 Z " fill="#000000"/><text fill="#000000" font-family="sans-serif" font-size="14" lengthAdjust="spacing" textLength="113" x="4117.75" y="686.7969">SensorRepository</text><line style="stroke:#181818;stroke-width:0.5;" x1="4021" x2="4295" y1="697" y2="697"/><rect fill="none" height="6" style="stroke:#C82930;stroke-width:1.0;" width="6" x="4028" y="708.8105"/><text fill="#000000" font-family="sans-serif" font-size="14" lengthAdjust="spacing" textLength="245" x="4040" y="716.1074">_SensorData: Map&lt;SensorID, Sensor&gt;</text><line style="stroke:#181818;stroke-width:0.5;" x1="4021" x2="4295" y1="723.6211" y2="723.6211"/><ellipse cx="4031" cy="738.4316" fill="#84BE84" rx="3" ry="3" style="stroke:#038048;stroke-width:1.0;"/><text fill="#000000" font-family="sans-serif" font-size="14" lengthAdjust="spacing" textLength="123" x="4040" y="742.7285">SensorRepository()</text><ellipse cx="4031" cy="757.0527" fill="#84BE84" rx="3" ry="3" style="stroke:#038048;stroke-width:1.0;"/><text fill="#000000" font-family="sans-serif" font-size="14" lengthAdjust="spacing" textLength="138" x="4040" y="761.3496">save(Sensor): Sensor</text><ellipse cx="4031" cy="775.6738" fill="#84BE84" rx="3" ry="3" style="stroke:#038048;stroke-width:1.0;"/><text fill="#000000" font-family="sans-serif" font-size="14" lengthAdjust="spacing" textLength="139" x="4040" y="779.9707">findAll(): List&lt;Sensor&gt;</text><ellipse cx="4031" cy="794.2949" fill="#84BE84" rx="3" ry="3" style="stroke:#038048;stroke-width:1.0;"/><text fill="#000000" font-family="sans-serif" font-size="14" lengthAdjust="spacing" textLength="247" x="4040" y="798.5918">ofIdentity(SensorID): Optional&lt;Sensor&gt;</text><ellipse cx="4031" cy="812.916" fill="#84BE84" rx="3" ry="3" style="stroke:#038048;stroke-width:1.0;"/><text fill="#000000" font-family="sans-serif" font-size="14" lengthAdjust="spacing" textLength="240" x="4040" y="817.2129">containsOfIdentity(SensorID): boolean</text><ellipse cx="4031" cy="831.5371" fill="#84BE84" rx="3" ry="3" style="stroke:#038048;stroke-width:1.0;"/><text fill="#000000" font-family="sans-serif" font-size="14" lengthAdjust="spacing" textLength="250" x="4040" y="835.834">findByDeviceId(DeviceID): List&lt;Sensor&gt;</text></g><!--class SensorTypeDTO--><g id="elem_SensorTypeDTO"><rect codeLine="104" fill="#F1F1F1" height="122.4844" id="SensorTypeDTO" rx="2.5" ry="2.5" style="stroke:#181818;stroke-width:0.5;" width="551" x="2720.5" y="693"/><ellipse cx="2938.25" cy="709" fill="#ADD1B2" rx="11" ry="11" style="stroke:#181818;stroke-width:1.0;"/><path d="M2941.0156,704.875 Q2941.1719,704.6563 2941.3594,704.5469 Q2941.5469,704.4375 2941.7656,704.4375 Q2942.1406,704.4375 2942.375,704.7031 Q2942.6094,704.9531 2942.6094,705.5625 L2942.6094,707.0156 Q2942.6094,707.625 2942.375,707.8906 Q2942.1406,708.1563 2941.7656,708.1563 Q2941.4219,708.1563 2941.2188,707.9531 Q2941.0156,707.7656 2940.9063,707.25 Q2940.8594,706.8906 2940.6719,706.7031 Q2940.3438,706.3281 2939.7344,706.1094 Q2939.125,705.8906 2938.5,705.8906 Q2937.7344,705.8906 2937.0938,706.2188 Q2936.4688,706.5469 2935.9688,707.2969 Q2935.4844,708.0469 2935.4844,709.0781 L2935.4844,710.1719 Q2935.4844,711.4063 2936.375,712.2344 Q2937.2656,713.0469 2938.8594,713.0469 Q2939.7969,713.0469 2940.4531,712.7969 Q2940.8438,712.6406 2941.2656,712.2031 Q2941.5313,711.9375 2941.6719,711.8594 Q2941.8281,711.7813 2942.0313,711.7813 Q2942.3594,711.7813 2942.6094,712.0469 Q2942.875,712.2969 2942.875,712.6406 Q2942.875,712.9844 2942.5313,713.3906 Q2942.0313,713.9688 2941.2344,714.2969 Q2940.1563,714.75 2938.8594,714.75 Q2937.3438,714.75 2936.1406,714.125 Q2935.1563,713.625 2934.4688,712.5625 Q2933.7813,711.4844 2933.7813,710.2031 L2933.7813,709.0469 Q2933.7813,707.7188 2934.3906,706.5781 Q2935.0156,705.4219 2936.1094,704.8125 Q2937.2031,704.1875 2938.4375,704.1875 Q2939.1719,704.1875 2939.8125,704.3594 Q2940.4688,704.5156 2941.0156,704.875 Z " fill="#000000"/><text fill="#000000" font-family="sans-serif" font-size="14" lengthAdjust="spacing" textLength="107" x="2958.75" y="714.7969">SensorTypeDTO</text><line style="stroke:#181818;stroke-width:0.5;" x1="2721.5" x2="3270.5" y1="725" y2="725"/><rect fill="none" height="6" style="stroke:#C82930;stroke-width:1.0;" width="6" x="2728.5" y="736.8105"/><text fill="#000000" font-family="sans-serif" font-size="14" lengthAdjust="spacing" textLength="133" x="2740.5" y="744.1074">sensorTypeID: String</text><rect fill="none" height="6" style="stroke:#C82930;stroke-width:1.0;" width="6" x="2728.5" y="755.4316"/><text fill="#000000" font-family="sans-serif" font-size="14" lengthAdjust="spacing" textLength="191" x="2740.5" y="762.7285">sensorTypeDescription: String</text><rect fill="none" height="6" style="stroke:#C82930;stroke-width:1.0;" width="6" x="2728.5" y="774.0527"/><text fill="#000000" font-family="sans-serif" font-size="14" lengthAdjust="spacing" textLength="68" x="2740.5" y="781.3496">unit: String</text><line style="stroke:#181818;stroke-width:0.5;" x1="2721.5" x2="3270.5" y1="788.8633" y2="788.8633"/><ellipse cx="2731.5" cy="803.6738" fill="#84BE84" rx="3" ry="3" style="stroke:#038048;stroke-width:1.0;"/><text fill="#000000" font-family="sans-serif" font-size="14" lengthAdjust="spacing" textLength="525" x="2740.5" y="807.9707">SensorTypeDTO(sensorTypeID: String, sensorTypeDescription: String, unit: String)</text></g><!--class SensorModelDTO--><g id="elem_SensorModelDTO"><rect codeLine="111" fill="#F1F1F1" height="122.4844" id="SensorModelDTO" rx="2.5" ry="2.5" style="stroke:#181818;stroke-width:0.5;" width="578" x="1262" y="693"/><ellipse cx="1490.25" cy="709" fill="#ADD1B2" rx="11" ry="11" style="stroke:#181818;stroke-width:1.0;"/><path d="M1493.0156,704.875 Q1493.1719,704.6563 1493.3594,704.5469 Q1493.5469,704.4375 1493.7656,704.4375 Q1494.1406,704.4375 1494.375,704.7031 Q1494.6094,704.9531 1494.6094,705.5625 L1494.6094,707.0156 Q1494.6094,707.625 1494.375,707.8906 Q1494.1406,708.1563 1493.7656,708.1563 Q1493.4219,708.1563 1493.2188,707.9531 Q1493.0156,707.7656 1492.9063,707.25 Q1492.8594,706.8906 1492.6719,706.7031 Q1492.3438,706.3281 1491.7344,706.1094 Q1491.125,705.8906 1490.5,705.8906 Q1489.7344,705.8906 1489.0938,706.2188 Q1488.4688,706.5469 1487.9688,707.2969 Q1487.4844,708.0469 1487.4844,709.0781 L1487.4844,710.1719 Q1487.4844,711.4063 1488.375,712.2344 Q1489.2656,713.0469 1490.8594,713.0469 Q1491.7969,713.0469 1492.4531,712.7969 Q1492.8438,712.6406 1493.2656,712.2031 Q1493.5313,711.9375 1493.6719,711.8594 Q1493.8281,711.7813 1494.0313,711.7813 Q1494.3594,711.7813 1494.6094,712.0469 Q1494.875,712.2969 1494.875,712.6406 Q1494.875,712.9844 1494.5313,713.3906 Q1494.0313,713.9688 1493.2344,714.2969 Q1492.1563,714.75 1490.8594,714.75 Q1489.3438,714.75 1488.1406,714.125 Q1487.1563,713.625 1486.4688,712.5625 Q1485.7813,711.4844 1485.7813,710.2031 L1485.7813,709.0469 Q1485.7813,707.7188 1486.3906,706.5781 Q1487.0156,705.4219 1488.1094,704.8125 Q1489.2031,704.1875 1490.4375,704.1875 Q1491.1719,704.1875 1491.8125,704.3594 Q1492.4688,704.5156 1493.0156,704.875 Z " fill="#000000"/><text fill="#000000" font-family="sans-serif" font-size="14" lengthAdjust="spacing" textLength="113" x="1510.75" y="714.7969">SensorModelDTO</text><line style="stroke:#181818;stroke-width:0.5;" x1="1263" x2="1839" y1="725" y2="725"/><rect fill="none" height="6" style="stroke:#C82930;stroke-width:1.0;" width="6" x="1270" y="736.8105"/><text fill="#000000" font-family="sans-serif" font-size="14" lengthAdjust="spacing" textLength="139" x="1282" y="744.1074">sensorModelID: String</text><rect fill="none" height="6" style="stroke:#C82930;stroke-width:1.0;" width="6" x="1270" y="755.4316"/><text fill="#000000" font-family="sans-serif" font-size="14" lengthAdjust="spacing" textLength="162" x="1282" y="762.7285">sensorModelName: String</text><rect fill="none" height="6" style="stroke:#C82930;stroke-width:1.0;" width="6" x="1270" y="774.0527"/><text fill="#000000" font-family="sans-serif" font-size="14" lengthAdjust="spacing" textLength="120" x="1282" y="781.3496">_modelPath: String</text><line style="stroke:#181818;stroke-width:0.5;" x1="1263" x2="1839" y1="788.8633" y2="788.8633"/><ellipse cx="1273" cy="803.6738" fill="#84BE84" rx="3" ry="3" style="stroke:#038048;stroke-width:1.0;"/><text fill="#000000" font-family="sans-serif" font-size="14" lengthAdjust="spacing" textLength="552" x="1282" y="807.9707">SensorModelDTO(sensorModelID: String, sensorModelName: String, modelPath: String)</text></g><!--class SensorDataDTO--><g id="elem_SensorDataDTO"><rect codeLine="118" fill="#F1F1F1" height="141.1055" id="SensorDataDTO" rx="2.5" ry="2.5" style="stroke:#181818;stroke-width:0.5;" width="676" x="4327" y="441"/><ellipse cx="4608.25" cy="457" fill="#ADD1B2" rx="11" ry="11" style="stroke:#181818;stroke-width:1.0;"/><path d="M4611.0156,452.875 Q4611.1719,452.6563 4611.3594,452.5469 Q4611.5469,452.4375 4611.7656,452.4375 Q4612.1406,452.4375 4612.375,452.7031 Q4612.6094,452.9531 4612.6094,453.5625 L4612.6094,455.0156 Q4612.6094,455.625 4612.375,455.8906 Q4612.1406,456.1563 4611.7656,456.1563 Q4611.4219,456.1563 4611.2188,455.9531 Q4611.0156,455.7656 4610.9063,455.25 Q4610.8594,454.8906 4610.6719,454.7031 Q4610.3438,454.3281 4609.7344,454.1094 Q4609.125,453.8906 4608.5,453.8906 Q4607.7344,453.8906 4607.0938,454.2188 Q4606.4688,454.5469 4605.9688,455.2969 Q4605.4844,456.0469 4605.4844,457.0781 L4605.4844,458.1719 Q4605.4844,459.4063 4606.375,460.2344 Q4607.2656,461.0469 4608.8594,461.0469 Q4609.7969,461.0469 4610.4531,460.7969 Q4610.8438,460.6406 4611.2656,460.2031 Q4611.5313,459.9375 4611.6719,459.8594 Q4611.8281,459.7813 4612.0313,459.7813 Q4612.3594,459.7813 4612.6094,460.0469 Q4612.875,460.2969 4612.875,460.6406 Q4612.875,460.9844 4612.5313,461.3906 Q4612.0313,461.9688 4611.2344,462.2969 Q4610.1563,462.75 4608.8594,462.75 Q4607.3438,462.75 4606.1406,462.125 Q4605.1563,461.625 4604.4688,460.5625 Q4603.7813,459.4844 4603.7813,458.2031 L4603.7813,457.0469 Q4603.7813,455.7188 4604.3906,454.5781 Q4605.0156,453.4219 4606.1094,452.8125 Q4607.2031,452.1875 4608.4375,452.1875 Q4609.1719,452.1875 4609.8125,452.3594 Q4610.4688,452.5156 4611.0156,452.875 Z " fill="#000000"/><text fill="#000000" font-family="sans-serif" font-size="14" lengthAdjust="spacing" textLength="105" x="4628.75" y="462.7969">SensorDataDTO</text><line style="stroke:#181818;stroke-width:0.5;" x1="4328" x2="5002" y1="473" y2="473"/><rect fill="none" height="6" style="stroke:#C82930;stroke-width:1.0;" width="6" x="4335" y="484.8105"/><text fill="#000000" font-family="sans-serif" font-size="14" lengthAdjust="spacing" textLength="99" x="4347" y="492.1074">deviceID: String</text><rect fill="none" height="6" style="stroke:#C82930;stroke-width:1.0;" width="6" x="4335" y="503.4316"/><text fill="#000000" font-family="sans-serif" font-size="14" lengthAdjust="spacing" textLength="155" x="4347" y="510.7285">sensorModelPath: String</text><rect fill="none" height="6" style="stroke:#C82930;stroke-width:1.0;" width="6" x="4335" y="522.0527"/><text fill="#000000" font-family="sans-serif" font-size="14" lengthAdjust="spacing" textLength="124" x="4347" y="529.3496">sensorName: String</text><rect fill="none" height="6" style="stroke:#C82930;stroke-width:1.0;" width="6" x="4335" y="540.6738"/><text fill="#000000" font-family="sans-serif" font-size="14" lengthAdjust="spacing" textLength="133" x="4347" y="547.9707">sensorTypeID: String</text><line style="stroke:#181818;stroke-width:0.5;" x1="4328" x2="5002" y1="555.4844" y2="555.4844"/><ellipse cx="4338" cy="570.2949" fill="#84BE84" rx="3" ry="3" style="stroke:#038048;stroke-width:1.0;"/><text fill="#000000" font-family="sans-serif" font-size="14" lengthAdjust="spacing" textLength="650" x="4347" y="574.5918">SensorDataDTO(deviceID: String, sensorModelPath: String, sensorName: String, sensorTypeID: String)</text></g><!--class SensorDTO--><g id="elem_SensorDTO"><rect codeLine="126" fill="#F1F1F1" height="159.7266" id="SensorDTO" rx="2.5" ry="2.5" style="stroke:#181818;stroke-width:0.5;" width="712" x="3290" y="674"/><ellipse cx="3604.25" cy="690" fill="#ADD1B2" rx="11" ry="11" style="stroke:#181818;stroke-width:1.0;"/><path d="M3607.0156,685.875 Q3607.1719,685.6563 3607.3594,685.5469 Q3607.5469,685.4375 3607.7656,685.4375 Q3608.1406,685.4375 3608.375,685.7031 Q3608.6094,685.9531 3608.6094,686.5625 L3608.6094,688.0156 Q3608.6094,688.625 3608.375,688.8906 Q3608.1406,689.1563 3607.7656,689.1563 Q3607.4219,689.1563 3607.2188,688.9531 Q3607.0156,688.7656 3606.9063,688.25 Q3606.8594,687.8906 3606.6719,687.7031 Q3606.3438,687.3281 3605.7344,687.1094 Q3605.125,686.8906 3604.5,686.8906 Q3603.7344,686.8906 3603.0938,687.2188 Q3602.4688,687.5469 3601.9688,688.2969 Q3601.4844,689.0469 3601.4844,690.0781 L3601.4844,691.1719 Q3601.4844,692.4063 3602.375,693.2344 Q3603.2656,694.0469 3604.8594,694.0469 Q3605.7969,694.0469 3606.4531,693.7969 Q3606.8438,693.6406 3607.2656,693.2031 Q3607.5313,692.9375 3607.6719,692.8594 Q3607.8281,692.7813 3608.0313,692.7813 Q3608.3594,692.7813 3608.6094,693.0469 Q3608.875,693.2969 3608.875,693.6406 Q3608.875,693.9844 3608.5313,694.3906 Q3608.0313,694.9688 3607.2344,695.2969 Q3606.1563,695.75 3604.8594,695.75 Q3603.3438,695.75 3602.1406,695.125 Q3601.1563,694.625 3600.4688,693.5625 Q3599.7813,692.4844 3599.7813,691.2031 L3599.7813,690.0469 Q3599.7813,688.7188 3600.3906,687.5781 Q3601.0156,686.4219 3602.1094,685.8125 Q3603.2031,685.1875 3604.4375,685.1875 Q3605.1719,685.1875 3605.8125,685.3594 Q3606.4688,685.5156 3607.0156,685.875 Z " fill="#000000"/><text fill="#000000" font-family="sans-serif" font-size="14" lengthAdjust="spacing" textLength="75" x="3624.75" y="695.7969">SensorDTO</text><line style="stroke:#181818;stroke-width:0.5;" x1="3291" x2="4001" y1="706" y2="706"/><rect fill="none" height="6" style="stroke:#C82930;stroke-width:1.0;" width="6" x="3298" y="717.8105"/><text fill="#000000" font-family="sans-serif" font-size="14" lengthAdjust="spacing" textLength="99" x="3310" y="725.1074">deviceID: String</text><rect fill="none" height="6" style="stroke:#C82930;stroke-width:1.0;" width="6" x="3298" y="736.4316"/><text fill="#000000" font-family="sans-serif" font-size="14" lengthAdjust="spacing" textLength="112" x="3310" y="743.7285">modelPath: String</text><rect fill="none" height="6" style="stroke:#C82930;stroke-width:1.0;" width="6" x="3298" y="755.0527"/><text fill="#000000" font-family="sans-serif" font-size="14" lengthAdjust="spacing" textLength="133" x="3310" y="762.3496">sensorTypeID: String</text><rect fill="none" height="6" style="stroke:#C82930;stroke-width:1.0;" width="6" x="3298" y="773.6738"/><text fill="#000000" font-family="sans-serif" font-size="14" lengthAdjust="spacing" textLength="101" x="3310" y="780.9707">sensorID: String</text><rect fill="none" height="6" style="stroke:#C82930;stroke-width:1.0;" width="6" x="3298" y="792.2949"/><text fill="#000000" font-family="sans-serif" font-size="14" lengthAdjust="spacing" textLength="124" x="3310" y="799.5918">sensorName: String</text><line style="stroke:#181818;stroke-width:0.5;" x1="3291" x2="4001" y1="807.1055" y2="807.1055"/><ellipse cx="3301" cy="821.916" fill="#84BE84" rx="3" ry="3" style="stroke:#038048;stroke-width:1.0;"/><text fill="#000000" font-family="sans-serif" font-size="14" lengthAdjust="spacing" textLength="686" x="3310" y="826.2129">SensorDTO(deviceID: String, modelPath: String, sensorTypeID: String, sensorID: String, sensorName: String)</text></g><!--class ImpSensorModelFactory--><g id="elem_ImpSensorModelFactory"><rect codeLine="135" fill="#F1F1F1" height="66.6211" id="ImpSensorModelFactory" rx="2.5" ry="2.5" style="stroke:#181818;stroke-width:0.5;" width="838" x="406" y="720.5"/><ellipse cx="744.25" cy="736.5" fill="#ADD1B2" rx="11" ry="11" style="stroke:#181818;stroke-width:1.0;"/><path d="M747.0156,732.375 Q747.1719,732.1563 747.3594,732.0469 Q747.5469,731.9375 747.7656,731.9375 Q748.1406,731.9375 748.375,732.2031 Q748.6094,732.4531 748.6094,733.0625 L748.6094,734.5156 Q748.6094,735.125 748.375,735.3906 Q748.1406,735.6563 747.7656,735.6563 Q747.4219,735.6563 747.2188,735.4531 Q747.0156,735.2656 746.9063,734.75 Q746.8594,734.3906 746.6719,734.2031 Q746.3438,733.8281 745.7344,733.6094 Q745.125,733.3906 744.5,733.3906 Q743.7344,733.3906 743.0938,733.7188 Q742.4688,734.0469 741.9688,734.7969 Q741.4844,735.5469 741.4844,736.5781 L741.4844,737.6719 Q741.4844,738.9063 742.375,739.7344 Q743.2656,740.5469 744.8594,740.5469 Q745.7969,740.5469 746.4531,740.2969 Q746.8438,740.1406 747.2656,739.7031 Q747.5313,739.4375 747.6719,739.3594 Q747.8281,739.2813 748.0313,739.2813 Q748.3594,739.2813 748.6094,739.5469 Q748.875,739.7969 748.875,740.1406 Q748.875,740.4844 748.5313,740.8906 Q748.0313,741.4688 747.2344,741.7969 Q746.1563,742.25 744.8594,742.25 Q743.3438,742.25 742.1406,741.625 Q741.1563,741.125 740.4688,740.0625 Q739.7813,738.9844 739.7813,737.7031 L739.7813,736.5469 Q739.7813,735.2188 740.3906,734.0781 Q741.0156,732.9219 742.1094,732.3125 Q743.2031,731.6875 744.4375,731.6875 Q745.1719,731.6875 745.8125,731.8594 Q746.4688,732.0156 747.0156,732.375 Z " fill="#000000"/><text fill="#000000" font-family="sans-serif" font-size="14" lengthAdjust="spacing" textLength="153" x="764.75" y="742.2969">ImpSensorModelFactory</text><line style="stroke:#181818;stroke-width:0.5;" x1="407" x2="1243" y1="752.5" y2="752.5"/><line style="stroke:#181818;stroke-width:0.5;" x1="407" x2="1243" y1="760.5" y2="760.5"/><ellipse cx="417" cy="775.3105" fill="#84BE84" rx="3" ry="3" style="stroke:#038048;stroke-width:1.0;"/><text fill="#000000" font-family="sans-serif" font-size="14" lengthAdjust="spacing" textLength="812" x="426" y="779.6074">createSensorModel(sensorModelName: SensorModelName, modelPath: ModelPath, sensorTypeID: SensorTypeID): SensorModel</text></g><!--class ImpSensorTypeFactory--><g id="elem_ImpSensorTypeFactory"><rect codeLine="140" fill="#F1F1F1" height="66.6211" id="ImpSensorTypeFactory" rx="2.5" ry="2.5" style="stroke:#181818;stroke-width:0.5;" width="460" x="2242" y="720.5"/><ellipse cx="2394.25" cy="736.5" fill="#ADD1B2" rx="11" ry="11" style="stroke:#181818;stroke-width:1.0;"/><path d="M2397.0156,732.375 Q2397.1719,732.1563 2397.3594,732.0469 Q2397.5469,731.9375 2397.7656,731.9375 Q2398.1406,731.9375 2398.375,732.2031 Q2398.6094,732.4531 2398.6094,733.0625 L2398.6094,734.5156 Q2398.6094,735.125 2398.375,735.3906 Q2398.1406,735.6563 2397.7656,735.6563 Q2397.4219,735.6563 2397.2188,735.4531 Q2397.0156,735.2656 2396.9063,734.75 Q2396.8594,734.3906 2396.6719,734.2031 Q2396.3438,733.8281 2395.7344,733.6094 Q2395.125,733.3906 2394.5,733.3906 Q2393.7344,733.3906 2393.0938,733.7188 Q2392.4688,734.0469 2391.9688,734.7969 Q2391.4844,735.5469 2391.4844,736.5781 L2391.4844,737.6719 Q2391.4844,738.9063 2392.375,739.7344 Q2393.2656,740.5469 2394.8594,740.5469 Q2395.7969,740.5469 2396.4531,740.2969 Q2396.8438,740.1406 2397.2656,739.7031 Q2397.5313,739.4375 2397.6719,739.3594 Q2397.8281,739.2813 2398.0313,739.2813 Q2398.3594,739.2813 2398.6094,739.5469 Q2398.875,739.7969 2398.875,740.1406 Q2398.875,740.4844 2398.5313,740.8906 Q2398.0313,741.4688 2397.2344,741.7969 Q2396.1563,742.25 2394.8594,742.25 Q2393.3438,742.25 2392.1406,741.625 Q2391.1563,741.125 2390.4688,740.0625 Q2389.7813,738.9844 2389.7813,737.7031 L2389.7813,736.5469 Q2389.7813,735.2188 2390.3906,734.0781 Q2391.0156,732.9219 2392.1094,732.3125 Q2393.2031,731.6875 2394.4375,731.6875 Q2395.1719,731.6875 2395.8125,731.8594 Q2396.4688,732.0156 2397.0156,732.375 Z " fill="#000000"/><text fill="#000000" font-family="sans-serif" font-size="14" lengthAdjust="spacing" textLength="147" x="2414.75" y="742.2969">ImpSensorTypeFactory</text><line style="stroke:#181818;stroke-width:0.5;" x1="2243" x2="2701" y1="752.5" y2="752.5"/><line style="stroke:#181818;stroke-width:0.5;" x1="2243" x2="2701" y1="760.5" y2="760.5"/><ellipse cx="2253" cy="775.3105" fill="#84BE84" rx="3" ry="3" style="stroke:#038048;stroke-width:1.0;"/><text fill="#000000" font-family="sans-serif" font-size="14" lengthAdjust="spacing" textLength="434" x="2262" y="779.6074">createSensorType(name: TypeDescription, unit: UnitID): SensorType</text></g><!--class ImpSensorFactory--><g id="elem_ImpSensorFactory"><rect codeLine="143" fill="#F1F1F1" height="66.6211" id="ImpSensorFactory" rx="2.5" ry="2.5" style="stroke:#181818;stroke-width:0.5;" width="262" x="4314" y="720.5"/><ellipse cx="4383.25" cy="736.5" fill="#ADD1B2" rx="11" ry="11" style="stroke:#181818;stroke-width:1.0;"/><path d="M4386.0156,732.375 Q4386.1719,732.1563 4386.3594,732.0469 Q4386.5469,731.9375 4386.7656,731.9375 Q4387.1406,731.9375 4387.375,732.2031 Q4387.6094,732.4531 4387.6094,733.0625 L4387.6094,734.5156 Q4387.6094,735.125 4387.375,735.3906 Q4387.1406,735.6563 4386.7656,735.6563 Q4386.4219,735.6563 4386.2188,735.4531 Q4386.0156,735.2656 4385.9063,734.75 Q4385.8594,734.3906 4385.6719,734.2031 Q4385.3438,733.8281 4384.7344,733.6094 Q4384.125,733.3906 4383.5,733.3906 Q4382.7344,733.3906 4382.0938,733.7188 Q4381.4688,734.0469 4380.9688,734.7969 Q4380.4844,735.5469 4380.4844,736.5781 L4380.4844,737.6719 Q4380.4844,738.9063 4381.375,739.7344 Q4382.2656,740.5469 4383.8594,740.5469 Q4384.7969,740.5469 4385.4531,740.2969 Q4385.8438,740.1406 4386.2656,739.7031 Q4386.5313,739.4375 4386.6719,739.3594 Q4386.8281,739.2813 4387.0313,739.2813 Q4387.3594,739.2813 4387.6094,739.5469 Q4387.875,739.7969 4387.875,740.1406 Q4387.875,740.4844 4387.5313,740.8906 Q4387.0313,741.4688 4386.2344,741.7969 Q4385.1563,742.25 4383.8594,742.25 Q4382.3438,742.25 4381.1406,741.625 Q4380.1563,741.125 4379.4688,740.0625 Q4378.7813,738.9844 4378.7813,737.7031 L4378.7813,736.5469 Q4378.7813,735.2188 4379.3906,734.0781 Q4380.0156,732.9219 4381.1094,732.3125 Q4382.2031,731.6875 4383.4375,731.6875 Q4384.1719,731.6875 4384.8125,731.8594 Q4385.4688,732.0156 4386.0156,732.375 Z " fill="#000000"/><text fill="#000000" font-family="sans-serif" font-size="14" lengthAdjust="spacing" textLength="115" x="4403.75" y="742.2969">ImpSensorFactory</text><line style="stroke:#181818;stroke-width:0.5;" x1="4315" x2="4575" y1="752.5" y2="752.5"/><line style="stroke:#181818;stroke-width:0.5;" x1="4315" x2="4575" y1="760.5" y2="760.5"/><ellipse cx="4325" cy="775.3105" fill="#84BE84" rx="3" ry="3" style="stroke:#038048;stroke-width:1.0;"/><text fill="#000000" font-family="sans-serif" font-size="14" lengthAdjust="spacing" textLength="236" x="4334" y="779.6074">create(parameters: Object...): Sensor</text></g><!--class SensorModel--><g id="elem_SensorModel"><rect codeLine="147" fill="#F1F1F1" height="196.9688" id="SensorModel" rx="2.5" ry="2.5" style="stroke:#181818;stroke-width:0.5;" width="707" x="85.5" y="907.5"/><ellipse cx="393.25" cy="923.5" fill="#ADD1B2" rx="11" ry="11" style="stroke:#181818;stroke-width:1.0;"/><path d="M396.0156,919.375 Q396.1719,919.1563 396.3594,919.0469 Q396.5469,918.9375 396.7656,918.9375 Q397.1406,918.9375 397.375,919.2031 Q397.6094,919.4531 397.6094,920.0625 L397.6094,921.5156 Q397.6094,922.125 397.375,922.3906 Q397.1406,922.6563 396.7656,922.6563 Q396.4219,922.6563 396.2188,922.4531 Q396.0156,922.2656 395.9063,921.75 Q395.8594,921.3906 395.6719,921.2031 Q395.3438,920.8281 394.7344,920.6094 Q394.125,920.3906 393.5,920.3906 Q392.7344,920.3906 392.0938,920.7188 Q391.4688,921.0469 390.9688,921.7969 Q390.4844,922.5469 390.4844,923.5781 L390.4844,924.6719 Q390.4844,925.9063 391.375,926.7344 Q392.2656,927.5469 393.8594,927.5469 Q394.7969,927.5469 395.4531,927.2969 Q395.8438,927.1406 396.2656,926.7031 Q396.5313,926.4375 396.6719,926.3594 Q396.8281,926.2813 397.0313,926.2813 Q397.3594,926.2813 397.6094,926.5469 Q397.875,926.7969 397.875,927.1406 Q397.875,927.4844 397.5313,927.8906 Q397.0313,928.4688 396.2344,928.7969 Q395.1563,929.25 393.8594,929.25 Q392.3438,929.25 391.1406,928.625 Q390.1563,928.125 389.4688,927.0625 Q388.7813,925.9844 388.7813,924.7031 L388.7813,923.5469 Q388.7813,922.2188 389.3906,921.0781 Q390.0156,919.9219 391.1094,919.3125 Q392.2031,918.6875 393.4375,918.6875 Q394.1719,918.6875 394.8125,918.8594 Q395.4688,919.0156 396.0156,919.375 Z " fill="#000000"/><text fill="#000000" font-family="sans-serif" font-size="14" lengthAdjust="spacing" textLength="83" x="413.75" y="929.2969">SensorModel</text><line style="stroke:#181818;stroke-width:0.5;" x1="86.5" x2="791.5" y1="939.5" y2="939.5"/><rect fill="none" height="6" style="stroke:#C82930;stroke-width:1.0;" width="6" x="93.5" y="951.3105"/><text fill="#000000" font-family="sans-serif" font-size="14" lengthAdjust="spacing" textLength="252" x="105.5" y="958.6074">_sensorModelName: SensorModelName</text><rect fill="none" height="6" style="stroke:#C82930;stroke-width:1.0;" width="6" x="93.5" y="969.9316"/><text fill="#000000" font-family="sans-serif" font-size="14" lengthAdjust="spacing" textLength="150" x="105.5" y="977.2285">_modelPath: ModelPath</text><rect fill="none" height="6" style="stroke:#C82930;stroke-width:1.0;" width="6" x="93.5" y="988.5527"/><text fill="#000000" font-family="sans-serif" font-size="14" lengthAdjust="spacing" textLength="194" x="105.5" y="995.8496">_sensorTypeID: SensorTypeID</text><line style="stroke:#181818;stroke-width:0.5;" x1="86.5" x2="791.5" y1="1003.3633" y2="1003.3633"/><ellipse cx="96.5" cy="1018.1738" fill="#84BE84" rx="3" ry="3" style="stroke:#038048;stroke-width:1.0;"/><text fill="#000000" font-family="sans-serif" font-size="14" lengthAdjust="spacing" textLength="681" x="105.5" y="1022.4707">SensorModel(sensorModelName: SensorModelName, modelPath: ModelPath, sensorTypeID: SensorTypeID)</text><ellipse cx="96.5" cy="1036.7949" fill="#84BE84" rx="3" ry="3" style="stroke:#038048;stroke-width:1.0;"/><text fill="#000000" font-family="sans-serif" font-size="14" lengthAdjust="spacing" textLength="218" x="105.5" y="1041.0918">getSensorTypeID(): SensorTypeID</text><ellipse cx="96.5" cy="1055.416" fill="#84BE84" rx="3" ry="3" style="stroke:#038048;stroke-width:1.0;"/><text fill="#000000" font-family="sans-serif" font-size="14" lengthAdjust="spacing" textLength="276" x="105.5" y="1059.7129">getSensorModelName(): SensorModelName</text><ellipse cx="96.5" cy="1074.0371" fill="#84BE84" rx="3" ry="3" style="stroke:#038048;stroke-width:1.0;"/><text fill="#000000" font-family="sans-serif" font-size="14" lengthAdjust="spacing" textLength="172" x="105.5" y="1078.334">getModelPath(): ModelPath</text><ellipse cx="96.5" cy="1092.6582" fill="#84BE84" rx="3" ry="3" style="stroke:#038048;stroke-width:1.0;"/><text fill="#000000" font-family="sans-serif" font-size="14" lengthAdjust="spacing" textLength="118" x="105.5" y="1096.9551">getID(): ModelPath</text></g><!--class SensorType--><g id="elem_SensorType"><rect codeLine="158" fill="#F1F1F1" height="215.5898" id="SensorType" rx="2.5" ry="2.5" style="stroke:#181818;stroke-width:0.5;" width="335" x="1981.5" y="898"/><ellipse cx="2106.25" cy="914" fill="#ADD1B2" rx="11" ry="11" style="stroke:#181818;stroke-width:1.0;"/><path d="M2109.0156,909.875 Q2109.1719,909.6563 2109.3594,909.5469 Q2109.5469,909.4375 2109.7656,909.4375 Q2110.1406,909.4375 2110.375,909.7031 Q2110.6094,909.9531 2110.6094,910.5625 L2110.6094,912.0156 Q2110.6094,912.625 2110.375,912.8906 Q2110.1406,913.1563 2109.7656,913.1563 Q2109.4219,913.1563 2109.2188,912.9531 Q2109.0156,912.7656 2108.9063,912.25 Q2108.8594,911.8906 2108.6719,911.7031 Q2108.3438,911.3281 2107.7344,911.1094 Q2107.125,910.8906 2106.5,910.8906 Q2105.7344,910.8906 2105.0938,911.2188 Q2104.4688,911.5469 2103.9688,912.2969 Q2103.4844,913.0469 2103.4844,914.0781 L2103.4844,915.1719 Q2103.4844,916.4063 2104.375,917.2344 Q2105.2656,918.0469 2106.8594,918.0469 Q2107.7969,918.0469 2108.4531,917.7969 Q2108.8438,917.6406 2109.2656,917.2031 Q2109.5313,916.9375 2109.6719,916.8594 Q2109.8281,916.7813 2110.0313,916.7813 Q2110.3594,916.7813 2110.6094,917.0469 Q2110.875,917.2969 2110.875,917.6406 Q2110.875,917.9844 2110.5313,918.3906 Q2110.0313,918.9688 2109.2344,919.2969 Q2108.1563,919.75 2106.8594,919.75 Q2105.3438,919.75 2104.1406,919.125 Q2103.1563,918.625 2102.4688,917.5625 Q2101.7813,916.4844 2101.7813,915.2031 L2101.7813,914.0469 Q2101.7813,912.7188 2102.3906,911.5781 Q2103.0156,910.4219 2104.1094,909.8125 Q2105.2031,909.1875 2106.4375,909.1875 Q2107.1719,909.1875 2107.8125,909.3594 Q2108.4688,909.5156 2109.0156,909.875 Z " fill="#000000"/><text fill="#000000" font-family="sans-serif" font-size="14" lengthAdjust="spacing" textLength="77" x="2126.75" y="919.7969">SensorType</text><line style="stroke:#181818;stroke-width:0.5;" x1="1982.5" x2="2315.5" y1="930" y2="930"/><rect fill="none" height="6" style="stroke:#C82930;stroke-width:1.0;" width="6" x="1989.5" y="941.8105"/><text fill="#000000" font-family="sans-serif" font-size="14" lengthAdjust="spacing" textLength="117" x="2001.5" y="949.1074">_id: SensorTypeID</text><rect fill="none" height="6" style="stroke:#C82930;stroke-width:1.0;" width="6" x="1989.5" y="960.4316"/><text fill="#000000" font-family="sans-serif" font-size="14" lengthAdjust="spacing" textLength="154" x="2001.5" y="967.7285">_name: TypeDescription</text><rect fill="none" height="6" style="stroke:#C82930;stroke-width:1.0;" width="6" x="1989.5" y="979.0527"/><text fill="#000000" font-family="sans-serif" font-size="14" lengthAdjust="spacing" textLength="76" x="2001.5" y="986.3496">_unit: UnitID</text><line style="stroke:#181818;stroke-width:0.5;" x1="1982.5" x2="2315.5" y1="993.8633" y2="993.8633"/><ellipse cx="1992.5" cy="1008.6738" fill="#84BE84" rx="3" ry="3" style="stroke:#038048;stroke-width:1.0;"/><text fill="#000000" font-family="sans-serif" font-size="14" lengthAdjust="spacing" textLength="309" x="2001.5" y="1012.9707">SensorType(name: TypeDescription, unit: UnitID)</text><ellipse cx="1992.5" cy="1027.2949" fill="#84BE84" rx="3" ry="3" style="stroke:#038048;stroke-width:1.0;"/><text fill="#000000" font-family="sans-serif" font-size="14" lengthAdjust="spacing" textLength="141" x="2001.5" y="1031.5918">getID(): SensorTypeID</text><ellipse cx="1992.5" cy="1045.916" fill="#84BE84" rx="3" ry="3" style="stroke:#038048;stroke-width:1.0;"/><text fill="#000000" font-family="sans-serif" font-size="14" lengthAdjust="spacing" textLength="177" x="2001.5" y="1050.2129">getName(): TypeDescription</text><ellipse cx="1992.5" cy="1064.5371" fill="#84BE84" rx="3" ry="3" style="stroke:#038048;stroke-width:1.0;"/><text fill="#000000" font-family="sans-serif" font-size="14" lengthAdjust="spacing" textLength="99" x="2001.5" y="1068.834">getUnit(): UnitID</text><ellipse cx="1992.5" cy="1083.1582" fill="#84BE84" rx="3" ry="3" style="stroke:#038048;stroke-width:1.0;"/><text fill="#000000" font-family="sans-serif" font-size="14" lengthAdjust="spacing" textLength="198" x="2001.5" y="1087.4551">equals(object: Object): boolean</text><ellipse cx="1992.5" cy="1101.7793" fill="#84BE84" rx="3" ry="3" style="stroke:#038048;stroke-width:1.0;"/><text fill="#000000" font-family="sans-serif" font-size="14" lengthAdjust="spacing" textLength="104" x="2001.5" y="1106.0762">toString(): String</text></g><!--class Sensor--><g id="elem_Sensor"><rect codeLine="170" fill="#F1F1F1" height="178.3477" id="Sensor" rx="2.5" ry="2.5" style="stroke:#181818;stroke-width:0.5;" width="244" x="4179" y="917"/><ellipse cx="4274.25" cy="933" fill="#B4A7E5" rx="11" ry="11" style="stroke:#181818;stroke-width:1.0;"/><path d="M4275.2031,929.6406 L4275.2031,936.2969 L4276.9219,936.2969 Q4277.5313,936.2969 4277.7969,936.5313 Q4278.0625,936.7656 4278.0625,937.1563 Q4278.0625,937.5313 4277.7969,937.7656 Q4277.5313,938 4276.9219,938 L4271.7813,938 Q4271.1719,938 4270.9063,937.7656 Q4270.6406,937.5313 4270.6406,937.1406 Q4270.6406,936.7656 4270.9063,936.5313 Q4271.1719,936.2969 4271.7813,936.2969 L4273.5,936.2969 L4273.5,929.6406 L4271.7813,929.6406 Q4271.1719,929.6406 4270.9063,929.4063 Q4270.6406,929.1719 4270.6406,928.7813 Q4270.6406,928.4063 4270.9063,928.1719 Q4271.1719,927.9375 4271.7813,927.9375 L4276.9219,927.9375 Q4277.5313,927.9375 4277.7969,928.1719 Q4278.0625,928.4063 4278.0625,928.7813 Q4278.0625,929.1719 4277.7969,929.4063 Q4277.5313,929.6406 4276.9219,929.6406 L4275.2031,929.6406 Z " fill="#000000"/><text fill="#000000" font-family="sans-serif" font-size="14" font-style="italic" lengthAdjust="spacing" textLength="45" x="4294.75" y="938.7969">Sensor</text><line style="stroke:#181818;stroke-width:0.5;" x1="4180" x2="4422" y1="949" y2="949"/><line style="stroke:#181818;stroke-width:0.5;" x1="4180" x2="4422" y1="957" y2="957"/><ellipse cx="4190" cy="971.8105" fill="#84BE84" rx="3" ry="3" style="stroke:#038048;stroke-width:1.0;"/><text fill="#000000" font-family="sans-serif" font-size="14" lengthAdjust="spacing" textLength="109" x="4199" y="976.1074">getID(): SensorID</text><ellipse cx="4190" cy="990.4316" fill="#84BE84" rx="3" ry="3" style="stroke:#038048;stroke-width:1.0;"/><text fill="#000000" font-family="sans-serif" font-size="14" lengthAdjust="spacing" textLength="155" x="4199" y="994.7285">getName(): SensorName</text><ellipse cx="4190" cy="1009.0527" fill="#84BE84" rx="3" ry="3" style="stroke:#038048;stroke-width:1.0;"/><text fill="#000000" font-family="sans-serif" font-size="14" lengthAdjust="spacing" textLength="172" x="4199" y="1013.3496">getModelPath(): ModelPath</text><ellipse cx="4190" cy="1027.6738" fill="#84BE84" rx="3" ry="3" style="stroke:#038048;stroke-width:1.0;"/><text fill="#000000" font-family="sans-serif" font-size="14" lengthAdjust="spacing" textLength="218" x="4199" y="1031.9707">getSensorTypeID(): SensorTypeID</text><ellipse cx="4190" cy="1046.2949" fill="#84BE84" rx="3" ry="3" style="stroke:#038048;stroke-width:1.0;"/><text fill="#000000" font-family="sans-serif" font-size="14" lengthAdjust="spacing" textLength="104" x="4199" y="1050.5918">toString(): String</text><ellipse cx="4190" cy="1064.916" fill="#84BE84" rx="3" ry="3" style="stroke:#038048;stroke-width:1.0;"/><text fill="#000000" font-family="sans-serif" font-size="14" lengthAdjust="spacing" textLength="151" x="4199" y="1069.2129">getValue(): ValueObject</text><ellipse cx="4190" cy="1083.5371" fill="#84BE84" rx="3" ry="3" style="stroke:#038048;stroke-width:1.0;"/><text fill="#000000" font-family="sans-serif" font-size="14" lengthAdjust="spacing" textLength="150" x="4199" y="1087.834">getDeviceID(): DeviceID</text></g><polygon fill="#181818" points="1096.2617,469.9544,1105.7541,472.58,1101.2067,469.2153,1104.5715,464.6679,1096.2617,469.9544" style="stroke:#181818;stroke-width:1.0;"/><path d="M2278.3637,293.2653 C1873.32,353.8073 1396.7116,425.0461 1102.1957,469.0675 " fill="none" style="stroke:#181818;stroke-width:1.0;stroke-dasharray:7.0,7.0;"/><text fill="#000000" font-family="sans-serif" font-size="13" lengthAdjust="spacing" textLength="28" x="1718" y="391.0283">uses</text><text fill="#000000" font-family="sans-serif" font-size="13" lengthAdjust="spacing" textLength="7" x="1097.2617" y="465.9828">1</text><text fill="#000000" font-family="sans-serif" font-size="13" lengthAdjust="spacing" textLength="7" x="2270.3637" y="289.2936">1</text><polygon fill="#181818" points="1922.5507,468.9686,1932.273,470.5423,1927.3856,467.6941,1930.2338,462.8066,1922.5507,468.9686" style="stroke:#181818;stroke-width:1.0;"/><path d="M2343.1036,358.1079 C2185.9192,399.5428 2037.801,438.5878 1928.3525,467.4392 " fill="none" style="stroke:#181818;stroke-width:1.0;stroke-dasharray:7.0,7.0;"/><text fill="#000000" font-family="sans-serif" font-size="13" lengthAdjust="spacing" textLength="28" x="2272" y="391.0283">uses</text><text fill="#000000" font-family="sans-serif" font-size="13" lengthAdjust="spacing" textLength="7" x="1914.5507" y="464.9969">1</text><text fill="#000000" font-family="sans-serif" font-size="13" lengthAdjust="spacing" textLength="7" x="2335.1036" y="373.1363">1</text><polygon fill="#181818" points="2629.619,412.8905,2639.3766,411.5528,2633.8699,410.2581,2635.1646,404.7514,2629.619,412.8905" style="stroke:#181818;stroke-width:1.0;"/><path d="M2717.8899,358.2266 C2687.6383,376.9606 2662.7752,392.3577 2634.72,409.7316 " fill="none" style="stroke:#181818;stroke-width:1.0;stroke-dasharray:7.0,7.0;"/><text fill="#000000" font-family="sans-serif" font-size="13" lengthAdjust="spacing" textLength="28" x="2689" y="391.0283">uses</text><text fill="#000000" font-family="sans-serif" font-size="13" lengthAdjust="spacing" textLength="7" x="2621.619" y="408.9189">1</text><text fill="#000000" font-family="sans-serif" font-size="13" lengthAdjust="spacing" textLength="7" x="2718.8899" y="373.2549">1</text><polygon fill="#181818" points="2996,468.6899,3000,459.6899,2996,463.6899,2992,459.6899,2996,468.6899" style="stroke:#181818;stroke-width:1.0;"/><path d="M2996,358.2266 C2996,399.487 2996,433.8839 2996,462.6899 " fill="none" style="stroke:#181818;stroke-width:1.0;stroke-dasharray:7.0,7.0;"/><text fill="#000000" font-family="sans-serif" font-size="13" lengthAdjust="spacing" textLength="28" x="2997" y="391.0283">uses</text><text fill="#000000" font-family="sans-serif" font-size="13" lengthAdjust="spacing" textLength="7" x="2988" y="464.7182">1</text><text fill="#000000" font-family="sans-serif" font-size="13" lengthAdjust="spacing" textLength="7" x="2988" y="373.2549">1</text><polygon fill="#181818" points="3445.7685,468.8486,3440.2792,460.6713,3441.5359,466.1868,3436.0204,467.4435,3445.7685,468.8486" style="stroke:#181818;stroke-width:1.0;"/><path d="M3269.8641,358.2266 C3335.5946,399.5629 3394.8676,436.8382 3440.6894,465.6545 " fill="none" style="stroke:#181818;stroke-width:1.0;stroke-dasharray:7.0,7.0;"/><text fill="#000000" font-family="sans-serif" font-size="13" lengthAdjust="spacing" textLength="28" x="3317" y="391.0283">uses</text><text fill="#000000" font-family="sans-serif" font-size="13" lengthAdjust="spacing" textLength="7" x="3437.7685" y="464.8769">1</text><text fill="#000000" font-family="sans-serif" font-size="13" lengthAdjust="spacing" textLength="7" x="3261.8641" y="373.2549">1</text><polygon fill="#181818" points="3827.2508,440.9536,3819.8193,434.4903,3822.4705,439.4874,3817.4735,442.1387,3827.2508,440.9536" style="stroke:#181818;stroke-width:1.0;"/><path d="M3557.1408,358.1079 C3652.7708,387.4387 3741.2586,414.5789 3821.5145,439.1942 " fill="none" style="stroke:#181818;stroke-width:1.0;stroke-dasharray:7.0,7.0;"/><text fill="#000000" font-family="sans-serif" font-size="13" lengthAdjust="spacing" textLength="28" x="3652" y="391.0283">uses</text><text fill="#000000" font-family="sans-serif" font-size="13" lengthAdjust="spacing" textLength="7" x="3819.2508" y="436.9819">1</text><text fill="#000000" font-family="sans-serif" font-size="13" lengthAdjust="spacing" textLength="7" x="3549.1408" y="373.1363">1</text><polygon fill="#181818" points="4429.4997,440.9862,4421.8412,434.7937,4424.67,439.6925,4419.7712,442.5212,4429.4997,440.9862" style="stroke:#181818;stroke-width:1.0;"/><path d="M3713.7982,295.5184 C3910.1832,329.2364 4122.4827,369.1603 4317,413 C4353.5717,421.2424 4386.2334,429.396 4423.704,439.4337 " fill="none" style="stroke:#181818;stroke-width:1.0;stroke-dasharray:7.0,7.0;"/><text fill="#000000" font-family="sans-serif" font-size="13" lengthAdjust="spacing" textLength="28" x="4212" y="391.0283">uses</text><text fill="#000000" font-family="sans-serif" font-size="13" lengthAdjust="spacing" textLength="7" x="4421.4997" y="437.0146">1</text><text fill="#000000" font-family="sans-serif" font-size="13" lengthAdjust="spacing" textLength="7" x="3714.7982" y="291.5468">1</text><polygon fill="#181818" points="388.2189,668.5169,398.0617,668.8599,392.8559,666.6465,395.0692,661.4406,388.2189,668.5169" style="stroke:#181818;stroke-width:1.0;"/><path d="M568.4114,600.5232 C511.6733,620.9315 452.0676,643.1077 397,665 C394.0918,666.1562 396.7277,665.0848 393.7833,666.2725 " fill="none" style="stroke:#181818;stroke-width:1.0;stroke-dasharray:7.0,7.0;"/><text fill="#000000" font-family="sans-serif" font-size="13" lengthAdjust="spacing" textLength="28" x="491" y="643.0283">uses</text><text fill="#000000" font-family="sans-serif" font-size="13" lengthAdjust="spacing" textLength="7" x="389.2189" y="664.5452">1</text><text fill="#000000" font-family="sans-serif" font-size="13" lengthAdjust="spacing" textLength="7" x="560.4114" y="615.5516">1</text><polygon fill="#181818" points="825,720.2854,829,711.2854,825,715.2854,821,711.2854,825,720.2854" style="stroke:#181818;stroke-width:1.0;"/><path d="M825,600.6877 C825,642.3803 825,683.6202 825,714.2854 " fill="none" style="stroke:#181818;stroke-width:1.0;stroke-dasharray:7.0,7.0;"/><text fill="#000000" font-family="sans-serif" font-size="13" lengthAdjust="spacing" textLength="28" x="826" y="643.0283">uses</text><text fill="#000000" font-family="sans-serif" font-size="13" lengthAdjust="spacing" textLength="7" x="817" y="716.3137">1</text><text fill="#000000" font-family="sans-serif" font-size="13" lengthAdjust="spacing" textLength="7" x="817" y="615.716">1</text><polygon fill="#181818" points="4119.8302,664.7324,4119.9295,654.884,4117.8457,660.1431,4112.5866,658.0593,4119.8302,664.7324" style="stroke:#181818;stroke-width:1.0;"/><path d="M4084.0811,582.0626 C4095.2393,607.866 4105.6643,631.9736 4117.4488,659.2253 " fill="none" style="stroke:#181818;stroke-width:1.0;stroke-dasharray:7.0,7.0;"/><text fill="#000000" font-family="sans-serif" font-size="13" lengthAdjust="spacing" textLength="28" x="4111" y="643.0283">uses</text><text fill="#000000" font-family="sans-serif" font-size="13" lengthAdjust="spacing" textLength="7" x="4111.8302" y="660.7607">1</text><text fill="#000000" font-family="sans-serif" font-size="13" lengthAdjust="spacing" textLength="7" x="4076.0811" y="597.0909">1</text><polygon fill="#181818" points="4393.5873,720.4225,4388.1112,712.2363,4389.359,717.7539,4383.8414,719.0016,4393.5873,720.4225" style="stroke:#181818;stroke-width:1.0;"/><path d="M4169.4968,582.17 C4212.1645,608.0401 4260.867,637.7249 4305,665 C4334.4272,683.1867 4362.0961,700.5473 4388.5133,717.2201 " fill="none" style="stroke:#181818;stroke-width:1.0;stroke-dasharray:7.0,7.0;"/><text fill="#000000" font-family="sans-serif" font-size="13" lengthAdjust="spacing" textLength="28" x="4272" y="643.0283">uses</text><text fill="#000000" font-family="sans-serif" font-size="13" lengthAdjust="spacing" textLength="7" x="4385.5873" y="716.4508">1</text><text fill="#000000" font-family="sans-serif" font-size="13" lengthAdjust="spacing" textLength="7" x="4161.4968" y="597.1983">1</text><polygon fill="#181818" points="2182.7021,673.9296,2192.5104,673.0371,2187.0683,671.4932,2188.6122,666.0511,2182.7021,673.9296" style="stroke:#181818;stroke-width:1.0;"/><path d="M2297.0065,610.1472 C2258.9949,631.3579 2224.4785,650.6182 2187.9415,671.0059 " fill="none" style="stroke:#181818;stroke-width:1.0;stroke-dasharray:7.0,7.0;"/><text fill="#000000" font-family="sans-serif" font-size="13" lengthAdjust="spacing" textLength="28" x="2258" y="643.0283">uses</text><text fill="#000000" font-family="sans-serif" font-size="13" lengthAdjust="spacing" textLength="7" x="2174.7021" y="669.9579">1</text><text fill="#000000" font-family="sans-serif" font-size="13" lengthAdjust="spacing" textLength="7" x="2289.0065" y="625.1755">1</text><polygon fill="#181818" points="2472,720.2208,2476,711.2208,2472,715.2208,2468,711.2208,2472,720.2208" style="stroke:#181818;stroke-width:1.0;"/><path d="M2472,610.3206 C2472,649.4645 2472,685.896 2472,714.2208 " fill="none" style="stroke:#181818;stroke-width:1.0;stroke-dasharray:7.0,7.0;"/><text fill="#000000" font-family="sans-serif" font-size="13" lengthAdjust="spacing" textLength="28" x="2473" y="643.0283">uses</text><text fill="#000000" font-family="sans-serif" font-size="13" lengthAdjust="spacing" textLength="7" x="2464" y="716.2491">1</text><text fill="#000000" font-family="sans-serif" font-size="13" lengthAdjust="spacing" textLength="7" x="2464" y="625.3489">1</text><polygon fill="#181818" points="344.5647,907.4429,341.1791,898.1943,341.0872,903.8504,335.4311,903.7584,344.5647,907.4429" style="stroke:#181818;stroke-width:1.0;"/><path d="M282.3201,843.1406 C302.4601,863.9464 319.8752,881.9372 340.3916,903.1319 " fill="none" style="stroke:#181818;stroke-width:1.0;"/><text fill="#000000" font-family="sans-serif" font-size="13" lengthAdjust="spacing" textLength="21" x="319" y="876.0283">has</text><text fill="#000000" font-family="sans-serif" font-size="13" lengthAdjust="spacing" textLength="7" x="336.5647" y="903.4712">1</text><text fill="#000000" font-family="sans-serif" font-size="13" lengthAdjust="spacing" textLength="7" x="274.3201" y="858.169">1</text><polygon fill="#181818" points="2102.6107,897.6174,2102.7135,887.769,2100.6278,893.0274,2095.3695,890.9417,2102.6107,897.6174" style="stroke:#181818;stroke-width:1.0;"/><path d="M2075.1719,834.1016 C2083.8854,854.2718 2091.0194,870.7855 2100.2312,892.1094 " fill="none" style="stroke:#181818;stroke-width:1.0;"/><text fill="#000000" font-family="sans-serif" font-size="13" lengthAdjust="spacing" textLength="21" x="2096" y="876.0283">has</text><text fill="#000000" font-family="sans-serif" font-size="13" lengthAdjust="spacing" textLength="7" x="2094.6107" y="893.6457">1</text><text fill="#000000" font-family="sans-serif" font-size="13" lengthAdjust="spacing" textLength="7" x="2067.1719" y="849.1299">1</text><polygon fill="#181818" points="4250.5568,916.8126,4249.5603,907.0143,4248.0743,912.4725,4242.6161,910.9864,4250.5568,916.8126" style="stroke:#181818;stroke-width:1.0;"/><path d="M4208.4165,843.1406 C4222.0864,867.0391 4233.9064,887.7034 4247.5778,911.6045 " fill="none" style="stroke:#181818;stroke-width:1.0;"/><text fill="#000000" font-family="sans-serif" font-size="13" lengthAdjust="spacing" textLength="21" x="4231" y="876.0283">has</text><text fill="#000000" font-family="sans-serif" font-size="13" lengthAdjust="spacing" textLength="7" x="4242.5568" y="912.841">1</text><text fill="#000000" font-family="sans-serif" font-size="13" lengthAdjust="spacing" textLength="7" x="4200.4165" y="858.169">1</text><polygon fill="#181818" points="4351.7532,916.8868,4359.7114,911.0845,4354.2488,912.5542,4352.7792,907.0916,4351.7532,916.8868" style="stroke:#181818;stroke-width:1.0;"/><path d="M4426.1745,787.6831 C4407.3442,820.3747 4380.5449,866.9011 4354.7479,911.6876 " fill="none" style="stroke:#181818;stroke-width:1.0;stroke-dasharray:7.0,7.0;"/><text fill="#000000" font-family="sans-serif" font-size="13" lengthAdjust="spacing" textLength="43" x="4383" y="876.0283">creates</text><text fill="#000000" font-family="sans-serif" font-size="13" lengthAdjust="spacing" textLength="20" x="4330.7532" y="912.9151">1..*</text><text fill="#000000" font-family="sans-serif" font-size="13" lengthAdjust="spacing" textLength="7" x="4418.1745" y="802.7115">1</text><polygon fill="#181818" points="589.8918,907.2722,599.6202,905.737,594.0885,904.5541,595.2714,899.0223,589.8918,907.2722" style="stroke:#181818;stroke-width:1.0;"/><path d="M774.5372,787.6831 C727.6377,818.0585 660.4024,861.6047 594.9278,904.0105 " fill="none" style="stroke:#181818;stroke-width:1.0;stroke-dasharray:7.0,7.0;"/><text fill="#000000" font-family="sans-serif" font-size="13" lengthAdjust="spacing" textLength="43" x="657" y="876.0283">creates</text><text fill="#000000" font-family="sans-serif" font-size="13" lengthAdjust="spacing" textLength="20" x="568.8918" y="903.3005">1..*</text><text fill="#000000" font-family="sans-serif" font-size="13" lengthAdjust="spacing" textLength="7" x="766.5372" y="802.7115">1</text><polygon fill="#181818" points="2287.5222,897.7847,2297.0877,895.4392,2291.4762,894.7243,2292.1911,889.1128,2287.5222,897.7847" style="stroke:#181818;stroke-width:1.0;"/><path d="M2429.7734,787.6831 C2393.4355,815.8085 2343.6404,854.3496 2292.267,894.1122 " fill="none" style="stroke:#181818;stroke-width:1.0;stroke-dasharray:7.0,7.0;"/><text fill="#000000" font-family="sans-serif" font-size="13" lengthAdjust="spacing" textLength="43" x="2331" y="876.0283">creates</text><text fill="#000000" font-family="sans-serif" font-size="13" lengthAdjust="spacing" textLength="20" x="2266.5222" y="893.813">1..*</text><text fill="#000000" font-family="sans-serif" font-size="13" lengthAdjust="spacing" textLength="7" x="2421.7734" y="802.7115">1</text><polygon fill="#181818" points="3601.7244,673.5353,3600.8382,663.7264,3599.2908,669.1675,3593.8497,667.6201,3601.7244,673.5353" style="stroke:#181818;stroke-width:1.0;"/><path d="M3535.188,554.1173 C3553.4654,586.9212 3576.5685,628.3861 3598.8041,668.2939 " fill="none" style="stroke:#181818;stroke-width:1.0;stroke-dasharray:7.0,7.0;"/><text fill="#000000" font-family="sans-serif" font-size="13" lengthAdjust="spacing" textLength="43" x="3585" y="643.0283">creates</text><text fill="#000000" font-family="sans-serif" font-size="13" lengthAdjust="spacing" textLength="20" x="3580.7244" y="669.5636">1..*</text><text fill="#000000" font-family="sans-serif" font-size="13" lengthAdjust="spacing" textLength="7" x="3527.188" y="569.1457">1</text><polygon fill="#181818" points="1604.4078,692.9787,1613.3788,688.9141,1607.7315,689.2433,1607.4022,683.5961,1604.4078,692.9787" style="stroke:#181818;stroke-width:1.0;"/><path d="M1727.9684,554.1173 C1693.8743,592.4333 1646.8916,645.2339 1608.3963,688.4963 " fill="none" style="stroke:#181818;stroke-width:1.0;stroke-dasharray:7.0,7.0;"/><text fill="#000000" font-family="sans-serif" font-size="13" lengthAdjust="spacing" textLength="43" x="1659" y="643.0283">creates</text><text fill="#000000" font-family="sans-serif" font-size="13" lengthAdjust="spacing" textLength="20" x="1583.4078" y="689.007">1..*</text><text fill="#000000" font-family="sans-serif" font-size="13" lengthAdjust="spacing" textLength="7" x="1719.9684" y="569.1457">1</text><polygon fill="#181818" points="2996,692.9787,3000,683.9787,2996,687.9787,2992,683.9787,2996,692.9787" style="stroke:#181818;stroke-width:1.0;"/><path d="M2996,554.1173 C2996,592.4333 2996,643.7163 2996,686.9787 " fill="none" style="stroke:#181818;stroke-width:1.0;stroke-dasharray:7.0,7.0;"/><text fill="#000000" font-family="sans-serif" font-size="13" lengthAdjust="spacing" textLength="43" x="2997" y="643.0283">creates</text><text fill="#000000" font-family="sans-serif" font-size="13" lengthAdjust="spacing" textLength="20" x="2975" y="689.007">1..*</text><text fill="#000000" font-family="sans-serif" font-size="13" lengthAdjust="spacing" textLength="7" x="2988" y="569.1457">1</text><!--SRC=[jLXDZzis4BthLwYvLAvfRt9T10iuDG8OQEeWSN8rk1PtLuKakYATmZ3otokIeZWaX_9s5yqb5ZaVRzuyZgZzzKdAexYzkJdMj9MdfbuUU7DpgAaGYxAYZnrjikoNOqSV6vhNzCnFCXSDaxIbux8uq9hbxzw-pV-fIlaqhfy4-yuwMVNRcuVFN8ZglcPPfeFdgxByobh1knrVin_LWVtEMzdnkcPTVidoV95_uRpvoZgrb-yxzp1kheHWpRroqDlZepOmGKV_4Zu20n2Zz1UqaO7uYPUi7aE9Q2qq1K45iWhCT-SZ2mA3fS0m2kij0kF843CAqjgKlSLygZa5Q0lnsq1yqab8CK7e92Xl9AQ7O4IGi63Y5pVJrJmogN2AOdQR_r49-LuzhNVRExjhS8gF7M_KLZ7iMtEp3HqS51VKhSMMkZfHU2Q-dxOO7Md8_-2wff8Qr-5vjyr-sXCLavjTGcL-OKVkYL8jY4hoxXoQVgG7jPpl7ymFi6L44kShWam4YMTQSkWObGpiGjS_QTEtM__yJEKJxFncFTPka0mqh-hQOneX5sj9CIRf7RP7MV6MrjUSn8Sp05GM0ReuBzOXTqGlEaN96rgrVRjtMqY5NwrgTsWSfKlfAa019yyb63HE573Ie59H6wDIHBYa3R-rbOGHJzupr1B0L61eI9oK1E5ZUIdZGfyv9WvTfPjil82OrBxs5FG7z7C_OzE7gYtTqeVpPXrA8L2KMhyRNKV9fiO8shBhked0Nb6DJfKOOW60wyczoJIHD4Y89VF5wJeyk6pMLWrtLdYeG0DnGc6QqMf6OZd-ZcLf9Jc5WVZf20W-yqTwONQKRsB4sISr1qT2qIa2ZfMXQRtQhMxpJ_JuFeeDvXaQePYD1o0zWQ1wqqEMFsnArifAdfyvO0_zzQANYTZYZlUSruosO_9N3k1Wn1dcmF1IRrb38jOLTugnQ36BwU4HS-XY0mgVErGG4WDNosF0Hyo5ksr07e3SGVrJjJlrfcjEr8lLUgLEhqQdbU6ybUF12_CZykW7qi2501JsrSYkQX-33V1YyIpKYmuipFtu1HQPJ8SbNimPEXD2w7eHnJvUjhozVMDF7eBTPYZGs2GLcEHHq0ZySBSTi9T3hrAm0tnsBwecqRwvdxG8qv5KBe8a8cYMkC3fufg9ifBoGnS34kOkFr9daweG5sQy0hE1cZVD4VcOk2Hk_x5kmiy1W1EysWAewU-47bS835vTB_YriTLOeikZEOJO5V9dc0GcCF_c9ajnf5qVNR9Ez7Fk_YzsaClb4WxCFCUEDuYqs5-Z3PXY_4MHC28TyF-vOIwHzuNTNwjdAKJ-XvdAMypI92Zp4OeoZ8bG9YQXluUy8hn6L6K2ucAFQWZiGp65N3zRX4W1ISOiJIb8oaQ5LJOXBFRtYVQVrrphrUhMU-iEXfARYQ2Hs4caUQpQNlCFjB_P6uIN9FO4RdSv_g-TVPwe4j1jaE-qFcaS-eTXm3EmrmnbOt_RugV-wldctPjykRpJ_oD_TxnLVqyLBudWFjjU50F-fU350Lw9uPNkhu9lBoQ3SuRq9a4yk5WFpbTyyPUcvvjEcSescGZD0JkEjpELA-M9ldGHGa5SvRPOH9psNayKffjqqOCQUanQ3vPPn8uhPRdy3LYRLxd8yBwXNhQ8o1KoWteEjLZ7B3mPg9CHhlL1Xq8Q9kRi7-OaKC_rNm00]--></g></svg>