<?xml version="1.0" encoding="us-ascii" standalone="no"?><svg xmlns="http://www.w3.org/2000/svg" xmlns:xlink="http://www.w3.org/1999/xlink" contentStyleType="text/css" height="2031px" preserveAspectRatio="none" style="width:2345px;height:2031px;background:#FFFFFF;" version="1.1" viewBox="0 0 2345 2031" width="2345px" zoomAndPan="magnify"><defs/><g><!--class AddSensorToDeviceController--><g id="elem_AddSensorToDeviceController"><rect codeLine="3" fill="#F1F1F1" height="234.2109" id="AddSensorToDeviceController" rx="2.5" ry="2.5" style="stroke:#181818;stroke-width:0.5;" width="553" x="1152.5" y="7"/><ellipse cx="1328.75" cy="23" fill="#ADD1B2" rx="11" ry="11" style="stroke:#181818;stroke-width:1.0;"/><path d="M1331.5156,18.875 Q1331.6719,18.6563 1331.8594,18.5469 Q1332.0469,18.4375 1332.2656,18.4375 Q1332.6406,18.4375 1332.875,18.7031 Q1333.1094,18.9531 1333.1094,19.5625 L1333.1094,21.0156 Q1333.1094,21.625 1332.875,21.8906 Q1332.6406,22.1563 1332.2656,22.1563 Q1331.9219,22.1563 1331.7188,21.9531 Q1331.5156,21.7656 1331.4063,21.25 Q1331.3594,20.8906 1331.1719,20.7031 Q1330.8438,20.3281 1330.2344,20.1094 Q1329.625,19.8906 1329,19.8906 Q1328.2344,19.8906 1327.5938,20.2188 Q1326.9688,20.5469 1326.4688,21.2969 Q1325.9844,22.0469 1325.9844,23.0781 L1325.9844,24.1719 Q1325.9844,25.4063 1326.875,26.2344 Q1327.7656,27.0469 1329.3594,27.0469 Q1330.2969,27.0469 1330.9531,26.7969 Q1331.3438,26.6406 1331.7656,26.2031 Q1332.0313,25.9375 1332.1719,25.8594 Q1332.3281,25.7813 1332.5313,25.7813 Q1332.8594,25.7813 1333.1094,26.0469 Q1333.375,26.2969 1333.375,26.6406 Q1333.375,26.9844 1333.0313,27.3906 Q1332.5313,27.9688 1331.7344,28.2969 Q1330.6563,28.75 1329.3594,28.75 Q1327.8438,28.75 1326.6406,28.125 Q1325.6563,27.625 1324.9688,26.5625 Q1324.2813,25.4844 1324.2813,24.2031 L1324.2813,23.0469 Q1324.2813,21.7188 1324.8906,20.5781 Q1325.5156,19.4219 1326.6094,18.8125 Q1327.7031,18.1875 1328.9375,18.1875 Q1329.6719,18.1875 1330.3125,18.3594 Q1330.9688,18.5156 1331.5156,18.875 Z " fill="#000000"/><text fill="#000000" font-family="sans-serif" font-size="14" lengthAdjust="spacing" textLength="192" x="1349.25" y="28.7969">AddSensorToDeviceController</text><line style="stroke:#181818;stroke-width:0.5;" x1="1153.5" x2="1704.5" y1="39" y2="39"/><rect fill="none" height="6" style="stroke:#C82930;stroke-width:1.0;" width="6" x="1160.5" y="50.8105"/><text fill="#000000" font-family="sans-serif" font-size="14" lengthAdjust="spacing" textLength="87" x="1172.5" y="58.1074">house: House</text><rect fill="none" height="6" style="stroke:#C82930;stroke-width:1.0;" width="6" x="1160.5" y="69.4316"/><text fill="#000000" font-family="sans-serif" font-size="14" lengthAdjust="spacing" textLength="180" x="1172.5" y="76.7285">catalogue: CatalogueSensor</text><rect fill="none" height="6" style="stroke:#C82930;stroke-width:1.0;" width="6" x="1160.5" y="88.0527"/><text fill="#000000" font-family="sans-serif" font-size="14" lengthAdjust="spacing" textLength="301" x="1172.5" y="95.3496">roomsDTOAndRooms: Map&lt;RoomDTO, Room&gt;</text><rect fill="none" height="6" style="stroke:#C82930;stroke-width:1.0;" width="6" x="1160.5" y="106.6738"/><text fill="#000000" font-family="sans-serif" font-size="14" lengthAdjust="spacing" textLength="328" x="1172.5" y="113.9707">devicesDTOAndDevices: Map&lt;DeviceDTO, Device&gt;</text><line style="stroke:#181818;stroke-width:0.5;" x1="1153.5" x2="1704.5" y1="121.4844" y2="121.4844"/><ellipse cx="1163.5" cy="136.2949" fill="#84BE84" rx="3" ry="3" style="stroke:#038048;stroke-width:1.0;"/><text fill="#000000" font-family="sans-serif" font-size="14" lengthAdjust="spacing" textLength="477" x="1172.5" y="140.5918">AddSensorToDeviceController(house: House, catalogue: CatalogueSensor)</text><rect fill="#F24D5C" height="6" style="stroke:#C82930;stroke-width:1.0;" width="6" x="1160.5" y="151.916"/><text fill="#000000" font-family="sans-serif" font-size="14" lengthAdjust="spacing" textLength="527" x="1172.5" y="159.2129">isValidConstructorArguments(house: House, catalogue: CatalogueSensor): boolean</text><ellipse cx="1163.5" cy="173.5371" fill="#84BE84" rx="3" ry="3" style="stroke:#038048;stroke-width:1.0;"/><text fill="#000000" font-family="sans-serif" font-size="14" lengthAdjust="spacing" textLength="187" x="1172.5" y="177.834">getRooms(): List&lt;RoomDTO&gt;</text><ellipse cx="1163.5" cy="192.1582" fill="#84BE84" rx="3" ry="3" style="stroke:#038048;stroke-width:1.0;"/><text fill="#000000" font-family="sans-serif" font-size="14" lengthAdjust="spacing" textLength="406" x="1172.5" y="196.4551">getDevicesFromRoom(roomDTO: RoomDTO): List&lt;DeviceDTO&gt;</text><ellipse cx="1163.5" cy="210.7793" fill="#84BE84" rx="3" ry="3" style="stroke:#038048;stroke-width:1.0;"/><text fill="#000000" font-family="sans-serif" font-size="14" lengthAdjust="spacing" textLength="203" x="1172.5" y="215.0762">getSensorModels(): List&lt;String&gt;</text><ellipse cx="1163.5" cy="229.4004" fill="#84BE84" rx="3" ry="3" style="stroke:#038048;stroke-width:1.0;"/><text fill="#000000" font-family="sans-serif" font-size="14" lengthAdjust="spacing" textLength="465" x="1172.5" y="233.6973">addSensorToDevice(deviceDTO: DeviceDTO, model: String): SensorDTO</text></g><!--class RoomAssembler--><g id="elem_RoomAssembler"><rect codeLine="17" fill="#F1F1F1" height="103.8633" id="RoomAssembler" rx="2.5" ry="2.5" style="stroke:#181818;stroke-width:0.5;" width="408" x="7" y="348"/><ellipse cx="155.25" cy="364" fill="#ADD1B2" rx="11" ry="11" style="stroke:#181818;stroke-width:1.0;"/><path d="M158.0156,359.875 Q158.1719,359.6563 158.3594,359.5469 Q158.5469,359.4375 158.7656,359.4375 Q159.1406,359.4375 159.375,359.7031 Q159.6094,359.9531 159.6094,360.5625 L159.6094,362.0156 Q159.6094,362.625 159.375,362.8906 Q159.1406,363.1563 158.7656,363.1563 Q158.4219,363.1563 158.2188,362.9531 Q158.0156,362.7656 157.9063,362.25 Q157.8594,361.8906 157.6719,361.7031 Q157.3438,361.3281 156.7344,361.1094 Q156.125,360.8906 155.5,360.8906 Q154.7344,360.8906 154.0938,361.2188 Q153.4688,361.5469 152.9688,362.2969 Q152.4844,363.0469 152.4844,364.0781 L152.4844,365.1719 Q152.4844,366.4063 153.375,367.2344 Q154.2656,368.0469 155.8594,368.0469 Q156.7969,368.0469 157.4531,367.7969 Q157.8438,367.6406 158.2656,367.2031 Q158.5313,366.9375 158.6719,366.8594 Q158.8281,366.7813 159.0313,366.7813 Q159.3594,366.7813 159.6094,367.0469 Q159.875,367.2969 159.875,367.6406 Q159.875,367.9844 159.5313,368.3906 Q159.0313,368.9688 158.2344,369.2969 Q157.1563,369.75 155.8594,369.75 Q154.3438,369.75 153.1406,369.125 Q152.1563,368.625 151.4688,367.5625 Q150.7813,366.4844 150.7813,365.2031 L150.7813,364.0469 Q150.7813,362.7188 151.3906,361.5781 Q152.0156,360.4219 153.1094,359.8125 Q154.2031,359.1875 155.4375,359.1875 Q156.1719,359.1875 156.8125,359.3594 Q157.4688,359.5156 158.0156,359.875 Z " fill="#000000"/><text fill="#000000" font-family="sans-serif" font-size="14" lengthAdjust="spacing" textLength="103" x="175.75" y="369.7969">RoomAssembler</text><line style="stroke:#181818;stroke-width:0.5;" x1="8" x2="414" y1="380" y2="380"/><line style="stroke:#181818;stroke-width:0.5;" x1="8" x2="414" y1="388" y2="388"/><ellipse cx="18" cy="402.8105" fill="#84BE84" rx="3" ry="3" style="stroke:#038048;stroke-width:1.0;"/><text fill="#000000" font-family="sans-serif" font-size="14" lengthAdjust="spacing" textLength="382" x="27" y="407.1074">&#171;static&#187; domain2DTO(rooms: List&lt;Room&gt;): List&lt;RoomDTO&gt;</text><ellipse cx="18" cy="421.4316" fill="#84BE84" rx="3" ry="3" style="stroke:#038048;stroke-width:1.0;"/><text fill="#000000" font-family="sans-serif" font-size="14" lengthAdjust="spacing" textLength="321" x="27" y="425.7285">&#171;static&#187; dto2Domain(roomDTO: RoomDTO): Room</text><ellipse cx="18" cy="440.0527" fill="#84BE84" rx="3" ry="3" style="stroke:#038048;stroke-width:1.0;"/><text fill="#000000" font-family="sans-serif" font-size="14" lengthAdjust="spacing" textLength="371" x="27" y="444.3496">&#171;static&#187; domain2DTOMap(rooms: List&lt;Room&gt;): RoomDTO</text></g><!--class DeviceAssembler--><g id="elem_DeviceAssembler"><rect codeLine="23" fill="#F1F1F1" height="85.2422" id="DeviceAssembler" rx="2.5" ry="2.5" style="stroke:#181818;stroke-width:0.5;" width="429" x="450.5" y="357.5"/><ellipse cx="606.25" cy="373.5" fill="#ADD1B2" rx="11" ry="11" style="stroke:#181818;stroke-width:1.0;"/><path d="M609.0156,369.375 Q609.1719,369.1563 609.3594,369.0469 Q609.5469,368.9375 609.7656,368.9375 Q610.1406,368.9375 610.375,369.2031 Q610.6094,369.4531 610.6094,370.0625 L610.6094,371.5156 Q610.6094,372.125 610.375,372.3906 Q610.1406,372.6563 609.7656,372.6563 Q609.4219,372.6563 609.2188,372.4531 Q609.0156,372.2656 608.9063,371.75 Q608.8594,371.3906 608.6719,371.2031 Q608.3438,370.8281 607.7344,370.6094 Q607.125,370.3906 606.5,370.3906 Q605.7344,370.3906 605.0938,370.7188 Q604.4688,371.0469 603.9688,371.7969 Q603.4844,372.5469 603.4844,373.5781 L603.4844,374.6719 Q603.4844,375.9063 604.375,376.7344 Q605.2656,377.5469 606.8594,377.5469 Q607.7969,377.5469 608.4531,377.2969 Q608.8438,377.1406 609.2656,376.7031 Q609.5313,376.4375 609.6719,376.3594 Q609.8281,376.2813 610.0313,376.2813 Q610.3594,376.2813 610.6094,376.5469 Q610.875,376.7969 610.875,377.1406 Q610.875,377.4844 610.5313,377.8906 Q610.0313,378.4688 609.2344,378.7969 Q608.1563,379.25 606.8594,379.25 Q605.3438,379.25 604.1406,378.625 Q603.1563,378.125 602.4688,377.0625 Q601.7813,375.9844 601.7813,374.7031 L601.7813,373.5469 Q601.7813,372.2188 602.3906,371.0781 Q603.0156,369.9219 604.1094,369.3125 Q605.2031,368.6875 606.4375,368.6875 Q607.1719,368.6875 607.8125,368.8594 Q608.4688,369.0156 609.0156,369.375 Z " fill="#000000"/><text fill="#000000" font-family="sans-serif" font-size="14" lengthAdjust="spacing" textLength="109" x="626.75" y="379.2969">DeviceAssembler</text><line style="stroke:#181818;stroke-width:0.5;" x1="451.5" x2="878.5" y1="389.5" y2="389.5"/><line style="stroke:#181818;stroke-width:0.5;" x1="451.5" x2="878.5" y1="397.5" y2="397.5"/><ellipse cx="461.5" cy="412.3105" fill="#84BE84" rx="3" ry="3" style="stroke:#038048;stroke-width:1.0;"/><text fill="#000000" font-family="sans-serif" font-size="14" lengthAdjust="spacing" textLength="403" x="470.5" y="416.6074">&#171;static&#187; domain2DTO(devices: List&lt;Device&gt;): List&lt;DeviceDTO&gt;</text><ellipse cx="461.5" cy="430.9316" fill="#84BE84" rx="3" ry="3" style="stroke:#038048;stroke-width:1.0;"/><text fill="#000000" font-family="sans-serif" font-size="14" lengthAdjust="spacing" textLength="342" x="470.5" y="435.2285">&#171;static&#187; dto2Domain(deviceDTO: DeviceDTO): Device</text></g><!--class SensorAssembler--><g id="elem_SensorAssembler"><rect codeLine="28" fill="#F1F1F1" height="66.6211" id="SensorAssembler" rx="2.5" ry="2.5" style="stroke:#181818;stroke-width:0.5;" width="352" x="915" y="366.5"/><ellipse cx="1031.25" cy="382.5" fill="#ADD1B2" rx="11" ry="11" style="stroke:#181818;stroke-width:1.0;"/><path d="M1034.0156,378.375 Q1034.1719,378.1563 1034.3594,378.0469 Q1034.5469,377.9375 1034.7656,377.9375 Q1035.1406,377.9375 1035.375,378.2031 Q1035.6094,378.4531 1035.6094,379.0625 L1035.6094,380.5156 Q1035.6094,381.125 1035.375,381.3906 Q1035.1406,381.6563 1034.7656,381.6563 Q1034.4219,381.6563 1034.2188,381.4531 Q1034.0156,381.2656 1033.9063,380.75 Q1033.8594,380.3906 1033.6719,380.2031 Q1033.3438,379.8281 1032.7344,379.6094 Q1032.125,379.3906 1031.5,379.3906 Q1030.7344,379.3906 1030.0938,379.7188 Q1029.4688,380.0469 1028.9688,380.7969 Q1028.4844,381.5469 1028.4844,382.5781 L1028.4844,383.6719 Q1028.4844,384.9063 1029.375,385.7344 Q1030.2656,386.5469 1031.8594,386.5469 Q1032.7969,386.5469 1033.4531,386.2969 Q1033.8438,386.1406 1034.2656,385.7031 Q1034.5313,385.4375 1034.6719,385.3594 Q1034.8281,385.2813 1035.0313,385.2813 Q1035.3594,385.2813 1035.6094,385.5469 Q1035.875,385.7969 1035.875,386.1406 Q1035.875,386.4844 1035.5313,386.8906 Q1035.0313,387.4688 1034.2344,387.7969 Q1033.1563,388.25 1031.8594,388.25 Q1030.3438,388.25 1029.1406,387.625 Q1028.1563,387.125 1027.4688,386.0625 Q1026.7813,384.9844 1026.7813,383.7031 L1026.7813,382.5469 Q1026.7813,381.2188 1027.3906,380.0781 Q1028.0156,378.9219 1029.1094,378.3125 Q1030.2031,377.6875 1031.4375,377.6875 Q1032.1719,377.6875 1032.8125,377.8594 Q1033.4688,378.0156 1034.0156,378.375 Z " fill="#000000"/><text fill="#000000" font-family="sans-serif" font-size="14" lengthAdjust="spacing" textLength="111" x="1051.75" y="388.2969">SensorAssembler</text><line style="stroke:#181818;stroke-width:0.5;" x1="916" x2="1266" y1="398.5" y2="398.5"/><line style="stroke:#181818;stroke-width:0.5;" x1="916" x2="1266" y1="406.5" y2="406.5"/><ellipse cx="926" cy="421.3105" fill="#84BE84" rx="3" ry="3" style="stroke:#038048;stroke-width:1.0;"/><text fill="#000000" font-family="sans-serif" font-size="14" lengthAdjust="spacing" textLength="326" x="935" y="425.6074">&#171;static&#187; domain2DTO(sensor: Sensor): SensorDTO</text></g><!--class House--><g id="elem_House"><rect codeLine="32" fill="#F1F1F1" height="159.7266" id="House" rx="2.5" ry="2.5" style="stroke:#181818;stroke-width:0.5;" width="660" x="1302" y="320"/><ellipse cx="1607.75" cy="336" fill="#ADD1B2" rx="11" ry="11" style="stroke:#181818;stroke-width:1.0;"/><path d="M1610.5156,331.875 Q1610.6719,331.6563 1610.8594,331.5469 Q1611.0469,331.4375 1611.2656,331.4375 Q1611.6406,331.4375 1611.875,331.7031 Q1612.1094,331.9531 1612.1094,332.5625 L1612.1094,334.0156 Q1612.1094,334.625 1611.875,334.8906 Q1611.6406,335.1563 1611.2656,335.1563 Q1610.9219,335.1563 1610.7188,334.9531 Q1610.5156,334.7656 1610.4063,334.25 Q1610.3594,333.8906 1610.1719,333.7031 Q1609.8438,333.3281 1609.2344,333.1094 Q1608.625,332.8906 1608,332.8906 Q1607.2344,332.8906 1606.5938,333.2188 Q1605.9688,333.5469 1605.4688,334.2969 Q1604.9844,335.0469 1604.9844,336.0781 L1604.9844,337.1719 Q1604.9844,338.4063 1605.875,339.2344 Q1606.7656,340.0469 1608.3594,340.0469 Q1609.2969,340.0469 1609.9531,339.7969 Q1610.3438,339.6406 1610.7656,339.2031 Q1611.0313,338.9375 1611.1719,338.8594 Q1611.3281,338.7813 1611.5313,338.7813 Q1611.8594,338.7813 1612.1094,339.0469 Q1612.375,339.2969 1612.375,339.6406 Q1612.375,339.9844 1612.0313,340.3906 Q1611.5313,340.9688 1610.7344,341.2969 Q1609.6563,341.75 1608.3594,341.75 Q1606.8438,341.75 1605.6406,341.125 Q1604.6563,340.625 1603.9688,339.5625 Q1603.2813,338.4844 1603.2813,337.2031 L1603.2813,336.0469 Q1603.2813,334.7188 1603.8906,333.5781 Q1604.5156,332.4219 1605.6094,331.8125 Q1606.7031,331.1875 1607.9375,331.1875 Q1608.6719,331.1875 1609.3125,331.3594 Q1609.9688,331.5156 1610.5156,331.875 Z " fill="#000000"/><text fill="#000000" font-family="sans-serif" font-size="14" lengthAdjust="spacing" textLength="40" x="1628.25" y="341.7969">House</text><line style="stroke:#181818;stroke-width:0.5;" x1="1303" x2="1961" y1="352" y2="352"/><rect fill="none" height="6" style="stroke:#C82930;stroke-width:1.0;" width="6" x="1310" y="363.8105"/><text fill="#000000" font-family="sans-serif" font-size="14" lengthAdjust="spacing" textLength="207" x="1322" y="371.1074">locationFactory: LocationFactory</text><rect fill="none" height="6" style="stroke:#C82930;stroke-width:1.0;" width="6" x="1310" y="382.4316"/><text fill="#000000" font-family="sans-serif" font-size="14" lengthAdjust="spacing" textLength="173" x="1322" y="389.7285">roomFactory: RoomFactory</text><rect fill="none" height="6" style="stroke:#C82930;stroke-width:1.0;" width="6" x="1310" y="401.0527"/><text fill="#000000" font-family="sans-serif" font-size="14" lengthAdjust="spacing" textLength="111" x="1322" y="408.3496">location: Location</text><rect fill="none" height="6" style="stroke:#C82930;stroke-width:1.0;" width="6" x="1310" y="419.6738"/><text fill="#000000" font-family="sans-serif" font-size="14" lengthAdjust="spacing" textLength="122" x="1322" y="426.9707">rooms: List&lt;Room&gt;</text><line style="stroke:#181818;stroke-width:0.5;" x1="1303" x2="1961" y1="434.4844" y2="434.4844"/><polygon fill="#FFFF44" points="1313,444.2949,1317,448.2949,1313,452.2949,1309,448.2949" style="stroke:#B38D22;stroke-width:1.0;"/><text fill="#000000" font-family="sans-serif" font-size="14" lengthAdjust="spacing" textLength="634" x="1322" y="453.5918">House(locationFactory: LocationFactory, roomFactory: RoomFactory, deviceFactory: DeviceFactory)</text><ellipse cx="1313" cy="467.916" fill="#84BE84" rx="3" ry="3" style="stroke:#038048;stroke-width:1.0;"/><text fill="#000000" font-family="sans-serif" font-size="14" lengthAdjust="spacing" textLength="157" x="1322" y="472.2129">getRooms(): List&lt;Room&gt;</text></g><!--class Room--><g id="elem_Room"><rect codeLine="42" fill="#F1F1F1" height="252.832" id="Room" rx="2.5" ry="2.5" style="stroke:#181818;stroke-width:0.5;" width="314" x="1762" y="559"/><ellipse cx="1896.25" cy="575" fill="#ADD1B2" rx="11" ry="11" style="stroke:#181818;stroke-width:1.0;"/><path d="M1899.0156,570.875 Q1899.1719,570.6563 1899.3594,570.5469 Q1899.5469,570.4375 1899.7656,570.4375 Q1900.1406,570.4375 1900.375,570.7031 Q1900.6094,570.9531 1900.6094,571.5625 L1900.6094,573.0156 Q1900.6094,573.625 1900.375,573.8906 Q1900.1406,574.1563 1899.7656,574.1563 Q1899.4219,574.1563 1899.2188,573.9531 Q1899.0156,573.7656 1898.9063,573.25 Q1898.8594,572.8906 1898.6719,572.7031 Q1898.3438,572.3281 1897.7344,572.1094 Q1897.125,571.8906 1896.5,571.8906 Q1895.7344,571.8906 1895.0938,572.2188 Q1894.4688,572.5469 1893.9688,573.2969 Q1893.4844,574.0469 1893.4844,575.0781 L1893.4844,576.1719 Q1893.4844,577.4063 1894.375,578.2344 Q1895.2656,579.0469 1896.8594,579.0469 Q1897.7969,579.0469 1898.4531,578.7969 Q1898.8438,578.6406 1899.2656,578.2031 Q1899.5313,577.9375 1899.6719,577.8594 Q1899.8281,577.7813 1900.0313,577.7813 Q1900.3594,577.7813 1900.6094,578.0469 Q1900.875,578.2969 1900.875,578.6406 Q1900.875,578.9844 1900.5313,579.3906 Q1900.0313,579.9688 1899.2344,580.2969 Q1898.1563,580.75 1896.8594,580.75 Q1895.3438,580.75 1894.1406,580.125 Q1893.1563,579.625 1892.4688,578.5625 Q1891.7813,577.4844 1891.7813,576.2031 L1891.7813,575.0469 Q1891.7813,573.7188 1892.3906,572.5781 Q1893.0156,571.4219 1894.1094,570.8125 Q1895.2031,570.1875 1896.4375,570.1875 Q1897.1719,570.1875 1897.8125,570.3594 Q1898.4688,570.5156 1899.0156,570.875 Z " fill="#000000"/><text fill="#000000" font-family="sans-serif" font-size="14" lengthAdjust="spacing" textLength="37" x="1916.75" y="580.7969">Room</text><line style="stroke:#181818;stroke-width:0.5;" x1="1763" x2="2075" y1="591" y2="591"/><rect fill="none" height="6" style="stroke:#C82930;stroke-width:1.0;" width="6" x="1770" y="602.8105"/><text fill="#000000" font-family="sans-serif" font-size="14" lengthAdjust="spacing" textLength="80" x="1782" y="610.1074">name: String</text><rect fill="none" height="6" style="stroke:#C82930;stroke-width:1.0;" width="6" x="1770" y="621.4316"/><text fill="#000000" font-family="sans-serif" font-size="14" lengthAdjust="spacing" textLength="51" x="1782" y="628.7285">floor: int</text><rect fill="none" height="6" style="stroke:#C82930;stroke-width:1.0;" width="6" x="1770" y="640.0527"/><text fill="#000000" font-family="sans-serif" font-size="14" lengthAdjust="spacing" textLength="248" x="1782" y="647.3496">dimensionsFactory: DimensionsFactory</text><rect fill="none" height="6" style="stroke:#C82930;stroke-width:1.0;" width="6" x="1770" y="658.6738"/><text fill="#000000" font-family="sans-serif" font-size="14" lengthAdjust="spacing" textLength="152" x="1782" y="665.9707">dimensions: Dimensions</text><rect fill="none" height="6" style="stroke:#C82930;stroke-width:1.0;" width="6" x="1770" y="677.2949"/><text fill="#000000" font-family="sans-serif" font-size="14" lengthAdjust="spacing" textLength="82" x="1782" y="684.5918">roomId: UUID</text><rect fill="none" height="6" style="stroke:#C82930;stroke-width:1.0;" width="6" x="1770" y="695.916"/><text fill="#000000" font-family="sans-serif" font-size="14" lengthAdjust="spacing" textLength="137" x="1782" y="703.2129">devices: List&lt;Device&gt;</text><line style="stroke:#181818;stroke-width:0.5;" x1="1763" x2="2075" y1="710.7266" y2="710.7266"/><polygon fill="#FFFF44" points="1773,720.5371,1777,724.5371,1773,728.5371,1769,724.5371" style="stroke:#B38D22;stroke-width:1.0;"/><text fill="#000000" font-family="sans-serif" font-size="14" lengthAdjust="spacing" textLength="158" x="1782" y="729.834">Room(location: Location)</text><rect fill="#F24D5C" height="6" style="stroke:#C82930;stroke-width:1.0;" width="6" x="1770" y="741.1582"/><text fill="#000000" font-family="sans-serif" font-size="14" lengthAdjust="spacing" textLength="179" x="1782" y="748.4551">setName(name: String): void</text><rect fill="#F24D5C" height="6" style="stroke:#C82930;stroke-width:1.0;" width="6" x="1770" y="759.7793"/><text fill="#000000" font-family="sans-serif" font-size="14" lengthAdjust="spacing" textLength="288" x="1782" y="767.0762">setDimensions(dimensions: Dimensions): void</text><rect fill="#F24D5C" height="6" style="stroke:#C82930;stroke-width:1.0;" width="6" x="1770" y="778.4004"/><text fill="#000000" font-family="sans-serif" font-size="14" lengthAdjust="spacing" textLength="147" x="1782" y="785.6973">setFloor(floor: int): void</text><ellipse cx="1773" cy="800.0215" fill="#84BE84" rx="3" ry="3" style="stroke:#038048;stroke-width:1.0;"/><text fill="#000000" font-family="sans-serif" font-size="14" lengthAdjust="spacing" textLength="169" x="1782" y="804.3184">getDevices(): List&lt;Device&gt;</text></g><!--class Device--><g id="elem_Device"><rect codeLine="57" fill="#F1F1F1" height="271.4531" id="Device" rx="2.5" ry="2.5" style="stroke:#181818;stroke-width:0.5;" width="629" x="1709.5" y="891"/><ellipse cx="1998.25" cy="907" fill="#ADD1B2" rx="11" ry="11" style="stroke:#181818;stroke-width:1.0;"/><path d="M2001.0156,902.875 Q2001.1719,902.6563 2001.3594,902.5469 Q2001.5469,902.4375 2001.7656,902.4375 Q2002.1406,902.4375 2002.375,902.7031 Q2002.6094,902.9531 2002.6094,903.5625 L2002.6094,905.0156 Q2002.6094,905.625 2002.375,905.8906 Q2002.1406,906.1563 2001.7656,906.1563 Q2001.4219,906.1563 2001.2188,905.9531 Q2001.0156,905.7656 2000.9063,905.25 Q2000.8594,904.8906 2000.6719,904.7031 Q2000.3438,904.3281 1999.7344,904.1094 Q1999.125,903.8906 1998.5,903.8906 Q1997.7344,903.8906 1997.0938,904.2188 Q1996.4688,904.5469 1995.9688,905.2969 Q1995.4844,906.0469 1995.4844,907.0781 L1995.4844,908.1719 Q1995.4844,909.4063 1996.375,910.2344 Q1997.2656,911.0469 1998.8594,911.0469 Q1999.7969,911.0469 2000.4531,910.7969 Q2000.8438,910.6406 2001.2656,910.2031 Q2001.5313,909.9375 2001.6719,909.8594 Q2001.8281,909.7813 2002.0313,909.7813 Q2002.3594,909.7813 2002.6094,910.0469 Q2002.875,910.2969 2002.875,910.6406 Q2002.875,910.9844 2002.5313,911.3906 Q2002.0313,911.9688 2001.2344,912.2969 Q2000.1563,912.75 1998.8594,912.75 Q1997.3438,912.75 1996.1406,912.125 Q1995.1563,911.625 1994.4688,910.5625 Q1993.7813,909.4844 1993.7813,908.2031 L1993.7813,907.0469 Q1993.7813,905.7188 1994.3906,904.5781 Q1995.0156,903.4219 1996.1094,902.8125 Q1997.2031,902.1875 1998.4375,902.1875 Q1999.1719,902.1875 1999.8125,902.3594 Q2000.4688,902.5156 2001.0156,902.875 Z " fill="#000000"/><text fill="#000000" font-family="sans-serif" font-size="14" lengthAdjust="spacing" textLength="43" x="2018.75" y="912.7969">Device</text><line style="stroke:#181818;stroke-width:0.5;" x1="1710.5" x2="2337.5" y1="923" y2="923"/><rect fill="none" height="6" style="stroke:#C82930;stroke-width:1.0;" width="6" x="1717.5" y="934.8105"/><text fill="#000000" font-family="sans-serif" font-size="14" lengthAdjust="spacing" textLength="76" x="1729.5" y="942.1074">name:String</text><rect fill="none" height="6" style="stroke:#C82930;stroke-width:1.0;" width="6" x="1717.5" y="953.4316"/><text fill="#000000" font-family="sans-serif" font-size="14" lengthAdjust="spacing" textLength="97" x="1729.5" y="960.7285">status: boolean</text><rect fill="none" height="6" style="stroke:#C82930;stroke-width:1.0;" width="6" x="1717.5" y="972.0527"/><text fill="#000000" font-family="sans-serif" font-size="14" lengthAdjust="spacing" textLength="141" x="1729.5" y="979.3496">sensors: List&lt;Sensor&gt;</text><rect fill="none" height="6" style="stroke:#C82930;stroke-width:1.0;" width="6" x="1717.5" y="990.6738"/><text fill="#000000" font-family="sans-serif" font-size="14" lengthAdjust="spacing" textLength="91" x="1729.5" y="997.9707">deviceId: UUID</text><rect fill="none" height="6" style="stroke:#C82930;stroke-width:1.0;" width="6" x="1717.5" y="1009.2949"/><text fill="#000000" font-family="sans-serif" font-size="14" lengthAdjust="spacing" textLength="158" x="1729.5" y="1016.5918">actuators: List&lt;Actuator&gt;</text><line style="stroke:#181818;stroke-width:0.5;" x1="1710.5" x2="2337.5" y1="1024.1055" y2="1024.1055"/><polygon fill="#FFFF44" points="1720.5,1033.916,1724.5,1037.916,1720.5,1041.916,1716.5,1037.916" style="stroke:#B38D22;stroke-width:1.0;"/><text fill="#000000" font-family="sans-serif" font-size="14" lengthAdjust="spacing" textLength="133" x="1729.5" y="1043.2129">Device(name: String)</text><rect fill="#F24D5C" height="6" style="stroke:#C82930;stroke-width:1.0;" width="6" x="1717.5" y="1054.5371"/><text fill="#000000" font-family="sans-serif" font-size="14" lengthAdjust="spacing" textLength="179" x="1729.5" y="1061.834">setName(name: String): void</text><ellipse cx="1720.5" cy="1076.1582" fill="#84BE84" rx="3" ry="3" style="stroke:#038048;stroke-width:1.0;"/><text fill="#000000" font-family="sans-serif" font-size="14" lengthAdjust="spacing" textLength="603" x="1729.5" y="1080.4551">addSensor(model: String, catalogue: CatalogueSensor, sensorFactory: SensorFactory): Sensor</text><ellipse cx="1720.5" cy="1094.7793" fill="#84BE84" rx="3" ry="3" style="stroke:#038048;stroke-width:1.0;"/><text fill="#000000" font-family="sans-serif" font-size="14" lengthAdjust="spacing" textLength="288" x="1729.5" y="1099.0762">addSensorToDevice(sensor: Sensor): Sensor</text><ellipse cx="1720.5" cy="1113.4004" fill="#84BE84" rx="3" ry="3" style="stroke:#038048;stroke-width:1.0;"/><text fill="#000000" font-family="sans-serif" font-size="14" lengthAdjust="spacing" textLength="111" x="1729.5" y="1117.6973">getName(): String</text><ellipse cx="1720.5" cy="1132.0215" fill="#84BE84" rx="3" ry="3" style="stroke:#038048;stroke-width:1.0;"/><text fill="#000000" font-family="sans-serif" font-size="14" lengthAdjust="spacing" textLength="123" x="1729.5" y="1136.3184">getDeviceId(): UUID</text><ellipse cx="1720.5" cy="1150.6426" fill="#84BE84" rx="3" ry="3" style="stroke:#038048;stroke-width:1.0;"/><text fill="#000000" font-family="sans-serif" font-size="14" lengthAdjust="spacing" textLength="104" x="1729.5" y="1154.9395">toString(): String</text></g><!--class CatalogueSensor--><g id="elem_CatalogueSensor"><rect codeLine="73" fill="#F1F1F1" height="252.832" id="CatalogueSensor" rx="2.5" ry="2.5" style="stroke:#181818;stroke-width:0.5;" width="686" x="1483" y="1241"/><ellipse cx="1766.75" cy="1257" fill="#ADD1B2" rx="11" ry="11" style="stroke:#181818;stroke-width:1.0;"/><path d="M1769.5156,1252.875 Q1769.6719,1252.6563 1769.8594,1252.5469 Q1770.0469,1252.4375 1770.2656,1252.4375 Q1770.6406,1252.4375 1770.875,1252.7031 Q1771.1094,1252.9531 1771.1094,1253.5625 L1771.1094,1255.0156 Q1771.1094,1255.625 1770.875,1255.8906 Q1770.6406,1256.1563 1770.2656,1256.1563 Q1769.9219,1256.1563 1769.7188,1255.9531 Q1769.5156,1255.7656 1769.4063,1255.25 Q1769.3594,1254.8906 1769.1719,1254.7031 Q1768.8438,1254.3281 1768.2344,1254.1094 Q1767.625,1253.8906 1767,1253.8906 Q1766.2344,1253.8906 1765.5938,1254.2188 Q1764.9688,1254.5469 1764.4688,1255.2969 Q1763.9844,1256.0469 1763.9844,1257.0781 L1763.9844,1258.1719 Q1763.9844,1259.4063 1764.875,1260.2344 Q1765.7656,1261.0469 1767.3594,1261.0469 Q1768.2969,1261.0469 1768.9531,1260.7969 Q1769.3438,1260.6406 1769.7656,1260.2031 Q1770.0313,1259.9375 1770.1719,1259.8594 Q1770.3281,1259.7813 1770.5313,1259.7813 Q1770.8594,1259.7813 1771.1094,1260.0469 Q1771.375,1260.2969 1771.375,1260.6406 Q1771.375,1260.9844 1771.0313,1261.3906 Q1770.5313,1261.9688 1769.7344,1262.2969 Q1768.6563,1262.75 1767.3594,1262.75 Q1765.8438,1262.75 1764.6406,1262.125 Q1763.6563,1261.625 1762.9688,1260.5625 Q1762.2813,1259.4844 1762.2813,1258.2031 L1762.2813,1257.0469 Q1762.2813,1255.7188 1762.8906,1254.5781 Q1763.5156,1253.4219 1764.6094,1252.8125 Q1765.7031,1252.1875 1766.9375,1252.1875 Q1767.6719,1252.1875 1768.3125,1252.3594 Q1768.9688,1252.5156 1769.5156,1252.875 Z " fill="#000000"/><text fill="#000000" font-family="sans-serif" font-size="14" lengthAdjust="spacing" textLength="110" x="1787.25" y="1262.7969">CatalogueSensor</text><line style="stroke:#181818;stroke-width:0.5;" x1="1484" x2="2168" y1="1273" y2="1273"/><rect fill="none" height="6" style="stroke:#C82930;stroke-width:1.0;" width="6" x="1491" y="1284.8105"/><text fill="#000000" font-family="sans-serif" font-size="14" lengthAdjust="spacing" textLength="224" x="1503" y="1292.1074">listSensorTypes: List&lt;SensorType&gt;</text><rect fill="none" height="6" style="stroke:#C82930;stroke-width:1.0;" width="6" x="1491" y="1303.4316"/><text fill="#000000" font-family="sans-serif" font-size="14" lengthAdjust="spacing" textLength="239" x="1503" y="1310.7285">listStringClassesSensors: List&lt;String&gt;</text><line style="stroke:#181818;stroke-width:0.5;" x1="1484" x2="2168" y1="1318.2422" y2="1318.2422"/><polygon fill="#FFFF44" points="1494,1328.0527,1498,1332.0527,1494,1336.0527,1490,1332.0527" style="stroke:#B38D22;stroke-width:1.0;"/><text fill="#000000" font-family="sans-serif" font-size="14" lengthAdjust="spacing" textLength="247" x="1503" y="1337.3496">CatalogueSensor(filePathname: String)</text><rect fill="#F24D5C" height="6" style="stroke:#C82930;stroke-width:1.0;" width="6" x="1491" y="1348.6738"/><text fill="#000000" font-family="sans-serif" font-size="14" lengthAdjust="spacing" textLength="169" x="1503" y="1355.9707">setListSensorTypes(): void</text><rect fill="#F24D5C" height="6" style="stroke:#C82930;stroke-width:1.0;" width="6" x="1491" y="1367.2949"/><text fill="#000000" font-family="sans-serif" font-size="14" lengthAdjust="spacing" textLength="224" x="1503" y="1374.5918">setListStringClassesSensors(): void</text><ellipse cx="1494" cy="1388.916" fill="#84BE84" rx="3" ry="3" style="stroke:#038048;stroke-width:1.0;"/><text fill="#000000" font-family="sans-serif" font-size="14" lengthAdjust="spacing" textLength="660" x="1503" y="1393.2129">addSensorType(strDescription: String, unit: Unit, sensorTypeFactory: SensorTyperFactory): SensorType</text><ellipse cx="1494" cy="1407.5371" fill="#84BE84" rx="3" ry="3" style="stroke:#038048;stroke-width:1.0;"/><text fill="#000000" font-family="sans-serif" font-size="14" lengthAdjust="spacing" textLength="395" x="1503" y="1411.834">addSensorTypeToList(sensorType: SensorType): SensorType</text><ellipse cx="1494" cy="1426.1582" fill="#84BE84" rx="3" ry="3" style="stroke:#038048;stroke-width:1.0;"/><text fill="#000000" font-family="sans-serif" font-size="14" lengthAdjust="spacing" textLength="324" x="1503" y="1430.4551">getSensorType(strDescription: String): SensorType</text><ellipse cx="1494" cy="1444.7793" fill="#84BE84" rx="3" ry="3" style="stroke:#038048;stroke-width:1.0;"/><text fill="#000000" font-family="sans-serif" font-size="14" lengthAdjust="spacing" textLength="237" x="1503" y="1449.0762">getSensorTypes(): List&lt;SensorType&gt;</text><ellipse cx="1494" cy="1463.4004" fill="#84BE84" rx="3" ry="3" style="stroke:#038048;stroke-width:1.0;"/><text fill="#000000" font-family="sans-serif" font-size="14" lengthAdjust="spacing" textLength="203" x="1503" y="1467.6973">getSensorModels(): List&lt;String&gt;</text><ellipse cx="1494" cy="1482.0215" fill="#84BE84" rx="3" ry="3" style="stroke:#038048;stroke-width:1.0;"/><text fill="#000000" font-family="sans-serif" font-size="14" lengthAdjust="spacing" textLength="411" x="1503" y="1486.3184">getSensor(model: String, sensorFactory: SensorFactory): Sensor</text></g><!--class SensorFactory--><g id="elem_SensorFactory"><rect codeLine="88" fill="#F1F1F1" height="66.6211" id="SensorFactory" rx="2.5" ry="2.5" style="stroke:#181818;stroke-width:0.5;" width="445" x="1693.5" y="1573"/><ellipse cx="1865.25" cy="1589" fill="#ADD1B2" rx="11" ry="11" style="stroke:#181818;stroke-width:1.0;"/><path d="M1868.0156,1584.875 Q1868.1719,1584.6563 1868.3594,1584.5469 Q1868.5469,1584.4375 1868.7656,1584.4375 Q1869.1406,1584.4375 1869.375,1584.7031 Q1869.6094,1584.9531 1869.6094,1585.5625 L1869.6094,1587.0156 Q1869.6094,1587.625 1869.375,1587.8906 Q1869.1406,1588.1563 1868.7656,1588.1563 Q1868.4219,1588.1563 1868.2188,1587.9531 Q1868.0156,1587.7656 1867.9063,1587.25 Q1867.8594,1586.8906 1867.6719,1586.7031 Q1867.3438,1586.3281 1866.7344,1586.1094 Q1866.125,1585.8906 1865.5,1585.8906 Q1864.7344,1585.8906 1864.0938,1586.2188 Q1863.4688,1586.5469 1862.9688,1587.2969 Q1862.4844,1588.0469 1862.4844,1589.0781 L1862.4844,1590.1719 Q1862.4844,1591.4063 1863.375,1592.2344 Q1864.2656,1593.0469 1865.8594,1593.0469 Q1866.7969,1593.0469 1867.4531,1592.7969 Q1867.8438,1592.6406 1868.2656,1592.2031 Q1868.5313,1591.9375 1868.6719,1591.8594 Q1868.8281,1591.7813 1869.0313,1591.7813 Q1869.3594,1591.7813 1869.6094,1592.0469 Q1869.875,1592.2969 1869.875,1592.6406 Q1869.875,1592.9844 1869.5313,1593.3906 Q1869.0313,1593.9688 1868.2344,1594.2969 Q1867.1563,1594.75 1865.8594,1594.75 Q1864.3438,1594.75 1863.1406,1594.125 Q1862.1563,1593.625 1861.4688,1592.5625 Q1860.7813,1591.4844 1860.7813,1590.2031 L1860.7813,1589.0469 Q1860.7813,1587.7188 1861.3906,1586.5781 Q1862.0156,1585.4219 1863.1094,1584.8125 Q1864.2031,1584.1875 1865.4375,1584.1875 Q1866.1719,1584.1875 1866.8125,1584.3594 Q1867.4688,1584.5156 1868.0156,1584.875 Z " fill="#000000"/><text fill="#000000" font-family="sans-serif" font-size="14" lengthAdjust="spacing" textLength="93" x="1885.75" y="1594.7969">SensorFactory</text><line style="stroke:#181818;stroke-width:0.5;" x1="1694.5" x2="2137.5" y1="1605" y2="1605"/><line style="stroke:#181818;stroke-width:0.5;" x1="1694.5" x2="2137.5" y1="1613" y2="1613"/><ellipse cx="1704.5" cy="1627.8105" fill="#84BE84" rx="3" ry="3" style="stroke:#038048;stroke-width:1.0;"/><text fill="#000000" font-family="sans-serif" font-size="14" lengthAdjust="spacing" textLength="419" x="1713.5" y="1632.1074">createSensor(model: String, catalogue: CatalogueSensor): Sensor</text></g><!--class GenericSensor--><g id="elem_GenericSensor"><rect codeLine="92" fill="#F1F1F1" height="141.1055" id="GenericSensor" rx="2.5" ry="2.5" style="stroke:#181818;stroke-width:0.5;" width="261" x="1953.5" y="1719"/><ellipse cx="2032.25" cy="1735" fill="#ADD1B2" rx="11" ry="11" style="stroke:#181818;stroke-width:1.0;"/><path d="M2035.0156,1730.875 Q2035.1719,1730.6563 2035.3594,1730.5469 Q2035.5469,1730.4375 2035.7656,1730.4375 Q2036.1406,1730.4375 2036.375,1730.7031 Q2036.6094,1730.9531 2036.6094,1731.5625 L2036.6094,1733.0156 Q2036.6094,1733.625 2036.375,1733.8906 Q2036.1406,1734.1563 2035.7656,1734.1563 Q2035.4219,1734.1563 2035.2188,1733.9531 Q2035.0156,1733.7656 2034.9063,1733.25 Q2034.8594,1732.8906 2034.6719,1732.7031 Q2034.3438,1732.3281 2033.7344,1732.1094 Q2033.125,1731.8906 2032.5,1731.8906 Q2031.7344,1731.8906 2031.0938,1732.2188 Q2030.4688,1732.5469 2029.9688,1733.2969 Q2029.4844,1734.0469 2029.4844,1735.0781 L2029.4844,1736.1719 Q2029.4844,1737.4063 2030.375,1738.2344 Q2031.2656,1739.0469 2032.8594,1739.0469 Q2033.7969,1739.0469 2034.4531,1738.7969 Q2034.8438,1738.6406 2035.2656,1738.2031 Q2035.5313,1737.9375 2035.6719,1737.8594 Q2035.8281,1737.7813 2036.0313,1737.7813 Q2036.3594,1737.7813 2036.6094,1738.0469 Q2036.875,1738.2969 2036.875,1738.6406 Q2036.875,1738.9844 2036.5313,1739.3906 Q2036.0313,1739.9688 2035.2344,1740.2969 Q2034.1563,1740.75 2032.8594,1740.75 Q2031.3438,1740.75 2030.1406,1740.125 Q2029.1563,1739.625 2028.4688,1738.5625 Q2027.7813,1737.4844 2027.7813,1736.2031 L2027.7813,1735.0469 Q2027.7813,1733.7188 2028.3906,1732.5781 Q2029.0156,1731.4219 2030.1094,1730.8125 Q2031.2031,1730.1875 2032.4375,1730.1875 Q2033.1719,1730.1875 2033.8125,1730.3594 Q2034.4688,1730.5156 2035.0156,1730.875 Z " fill="#000000"/><text fill="#000000" font-family="sans-serif" font-size="14" lengthAdjust="spacing" textLength="95" x="2052.75" y="1740.7969">GenericSensor</text><line style="stroke:#181818;stroke-width:0.5;" x1="1954.5" x2="2213.5" y1="1751" y2="1751"/><rect fill="none" height="6" style="stroke:#C82930;stroke-width:1.0;" width="6" x="1961.5" y="1762.8105"/><text fill="#000000" font-family="sans-serif" font-size="14" lengthAdjust="spacing" textLength="160" x="1973.5" y="1770.1074">sensorType: SensorType</text><rect fill="none" height="6" style="stroke:#C82930;stroke-width:1.0;" width="6" x="1961.5" y="1781.4316"/><text fill="#000000" font-family="sans-serif" font-size="14" lengthAdjust="spacing" textLength="78" x="1973.5" y="1788.7285">value: Value</text><line style="stroke:#181818;stroke-width:0.5;" x1="1954.5" x2="2213.5" y1="1796.2422" y2="1796.2422"/><polygon fill="#FFFF44" points="1964.5,1806.0527,1968.5,1810.0527,1964.5,1814.0527,1960.5,1810.0527" style="stroke:#B38D22;stroke-width:1.0;"/><text fill="#000000" font-family="sans-serif" font-size="14" lengthAdjust="spacing" textLength="235" x="1973.5" y="1815.3496">Sensor(catalogue: CatalogueSensor)</text><ellipse cx="1964.5" cy="1829.6738" fill="#84BE84" rx="3" ry="3" style="stroke:#038048;stroke-width:1.0;"/><text fill="#000000" font-family="sans-serif" font-size="14" lengthAdjust="spacing" textLength="192" x="1973.5" y="1833.9707">getSensorType(): SensorType</text><ellipse cx="1964.5" cy="1848.2949" fill="#84BE84" rx="3" ry="3" style="stroke:#038048;stroke-width:1.0;"/><text fill="#000000" font-family="sans-serif" font-size="14" lengthAdjust="spacing" textLength="110" x="1973.5" y="1852.5918">getValue(): Value</text></g><!--class Sensor--><g id="elem_Sensor"><rect codeLine="101" fill="#F1F1F1" height="85.2422" id="Sensor" rx="2.5" ry="2.5" style="stroke:#181818;stroke-width:0.5;" width="204" x="1982" y="1939"/><ellipse cx="2057.25" cy="1955" fill="#B4A7E5" rx="11" ry="11" style="stroke:#181818;stroke-width:1.0;"/><path d="M2058.2031,1951.6406 L2058.2031,1958.2969 L2059.9219,1958.2969 Q2060.5313,1958.2969 2060.7969,1958.5313 Q2061.0625,1958.7656 2061.0625,1959.1563 Q2061.0625,1959.5313 2060.7969,1959.7656 Q2060.5313,1960 2059.9219,1960 L2054.7813,1960 Q2054.1719,1960 2053.9063,1959.7656 Q2053.6406,1959.5313 2053.6406,1959.1406 Q2053.6406,1958.7656 2053.9063,1958.5313 Q2054.1719,1958.2969 2054.7813,1958.2969 L2056.5,1958.2969 L2056.5,1951.6406 L2054.7813,1951.6406 Q2054.1719,1951.6406 2053.9063,1951.4063 Q2053.6406,1951.1719 2053.6406,1950.7813 Q2053.6406,1950.4063 2053.9063,1950.1719 Q2054.1719,1949.9375 2054.7813,1949.9375 L2059.9219,1949.9375 Q2060.5313,1949.9375 2060.7969,1950.1719 Q2061.0625,1950.4063 2061.0625,1950.7813 Q2061.0625,1951.1719 2060.7969,1951.4063 Q2060.5313,1951.6406 2059.9219,1951.6406 L2058.2031,1951.6406 Z " fill="#000000"/><text fill="#000000" font-family="sans-serif" font-size="14" font-style="italic" lengthAdjust="spacing" textLength="45" x="2077.75" y="1960.7969">Sensor</text><line style="stroke:#181818;stroke-width:0.5;" x1="1983" x2="2185" y1="1971" y2="1971"/><line style="stroke:#181818;stroke-width:0.5;" x1="1983" x2="2185" y1="1979" y2="1979"/><text fill="#000000" font-family="sans-serif" font-size="14" lengthAdjust="spacing" textLength="192" x="1988" y="1998.1074">getSensorType(): SensorType</text><text fill="#000000" font-family="sans-serif" font-size="14" lengthAdjust="spacing" textLength="110" x="1988" y="2016.7285">getValue(): Value</text></g><!--class RoomDTO--><g id="elem_RoomDTO"><rect codeLine="106" fill="#F1F1F1" height="141.1055" id="RoomDTO" rx="2.5" ry="2.5" style="stroke:#181818;stroke-width:0.5;" width="180" x="121" y="615"/><ellipse cx="173.25" cy="631" fill="#ADD1B2" rx="11" ry="11" style="stroke:#181818;stroke-width:1.0;"/><path d="M176.0156,626.875 Q176.1719,626.6563 176.3594,626.5469 Q176.5469,626.4375 176.7656,626.4375 Q177.1406,626.4375 177.375,626.7031 Q177.6094,626.9531 177.6094,627.5625 L177.6094,629.0156 Q177.6094,629.625 177.375,629.8906 Q177.1406,630.1563 176.7656,630.1563 Q176.4219,630.1563 176.2188,629.9531 Q176.0156,629.7656 175.9063,629.25 Q175.8594,628.8906 175.6719,628.7031 Q175.3438,628.3281 174.7344,628.1094 Q174.125,627.8906 173.5,627.8906 Q172.7344,627.8906 172.0938,628.2188 Q171.4688,628.5469 170.9688,629.2969 Q170.4844,630.0469 170.4844,631.0781 L170.4844,632.1719 Q170.4844,633.4063 171.375,634.2344 Q172.2656,635.0469 173.8594,635.0469 Q174.7969,635.0469 175.4531,634.7969 Q175.8438,634.6406 176.2656,634.2031 Q176.5313,633.9375 176.6719,633.8594 Q176.8281,633.7813 177.0313,633.7813 Q177.3594,633.7813 177.6094,634.0469 Q177.875,634.2969 177.875,634.6406 Q177.875,634.9844 177.5313,635.3906 Q177.0313,635.9688 176.2344,636.2969 Q175.1563,636.75 173.8594,636.75 Q172.3438,636.75 171.1406,636.125 Q170.1563,635.625 169.4688,634.5625 Q168.7813,633.4844 168.7813,632.2031 L168.7813,631.0469 Q168.7813,629.7188 169.3906,628.5781 Q170.0156,627.4219 171.1094,626.8125 Q172.2031,626.1875 173.4375,626.1875 Q174.1719,626.1875 174.8125,626.3594 Q175.4688,626.5156 176.0156,626.875 Z " fill="#000000"/><text fill="#000000" font-family="sans-serif" font-size="14" lengthAdjust="spacing" textLength="67" x="193.75" y="636.7969">RoomDTO</text><line style="stroke:#181818;stroke-width:0.5;" x1="122" x2="300" y1="647" y2="647"/><rect fill="none" height="6" style="stroke:#C82930;stroke-width:1.0;" width="6" x="129" y="658.8105"/><text fill="#000000" font-family="sans-serif" font-size="14" lengthAdjust="spacing" textLength="80" x="141" y="666.1074">name: String</text><rect fill="none" height="6" style="stroke:#C82930;stroke-width:1.0;" width="6" x="129" y="677.4316"/><text fill="#000000" font-family="sans-serif" font-size="14" lengthAdjust="spacing" textLength="152" x="141" y="684.7285">dimensions: Dimensions</text><rect fill="none" height="6" style="stroke:#C82930;stroke-width:1.0;" width="6" x="129" y="696.0527"/><text fill="#000000" font-family="sans-serif" font-size="14" lengthAdjust="spacing" textLength="51" x="141" y="703.3496">floor: int</text><rect fill="none" height="6" style="stroke:#C82930;stroke-width:1.0;" width="6" x="129" y="714.6738"/><text fill="#000000" font-family="sans-serif" font-size="14" lengthAdjust="spacing" textLength="82" x="141" y="721.9707">roomId: UUID</text><line style="stroke:#181818;stroke-width:0.5;" x1="122" x2="300" y1="729.4844" y2="729.4844"/><polygon fill="#FFFF44" points="132,739.2949,136,743.2949,132,747.2949,128,743.2949" style="stroke:#B38D22;stroke-width:1.0;"/><text fill="#000000" font-family="sans-serif" font-size="14" lengthAdjust="spacing" textLength="154" x="141" y="748.5918">RoomDTO(room: Room)</text></g><!--class DeviceDTO--><g id="elem_DeviceDTO"><rect codeLine="115" fill="#F1F1F1" height="196.9688" id="DeviceDTO" rx="2.5" ry="2.5" style="stroke:#181818;stroke-width:0.5;" width="241" x="544.5" y="587"/><ellipse cx="624.25" cy="603" fill="#ADD1B2" rx="11" ry="11" style="stroke:#181818;stroke-width:1.0;"/><path d="M627.0156,598.875 Q627.1719,598.6563 627.3594,598.5469 Q627.5469,598.4375 627.7656,598.4375 Q628.1406,598.4375 628.375,598.7031 Q628.6094,598.9531 628.6094,599.5625 L628.6094,601.0156 Q628.6094,601.625 628.375,601.8906 Q628.1406,602.1563 627.7656,602.1563 Q627.4219,602.1563 627.2188,601.9531 Q627.0156,601.7656 626.9063,601.25 Q626.8594,600.8906 626.6719,600.7031 Q626.3438,600.3281 625.7344,600.1094 Q625.125,599.8906 624.5,599.8906 Q623.7344,599.8906 623.0938,600.2188 Q622.4688,600.5469 621.9688,601.2969 Q621.4844,602.0469 621.4844,603.0781 L621.4844,604.1719 Q621.4844,605.4063 622.375,606.2344 Q623.2656,607.0469 624.8594,607.0469 Q625.7969,607.0469 626.4531,606.7969 Q626.8438,606.6406 627.2656,606.2031 Q627.5313,605.9375 627.6719,605.8594 Q627.8281,605.7813 628.0313,605.7813 Q628.3594,605.7813 628.6094,606.0469 Q628.875,606.2969 628.875,606.6406 Q628.875,606.9844 628.5313,607.3906 Q628.0313,607.9688 627.2344,608.2969 Q626.1563,608.75 624.8594,608.75 Q623.3438,608.75 622.1406,608.125 Q621.1563,607.625 620.4688,606.5625 Q619.7813,605.4844 619.7813,604.2031 L619.7813,603.0469 Q619.7813,601.7188 620.3906,600.5781 Q621.0156,599.4219 622.1094,598.8125 Q623.2031,598.1875 624.4375,598.1875 Q625.1719,598.1875 625.8125,598.3594 Q626.4688,598.5156 627.0156,598.875 Z " fill="#000000"/><text fill="#000000" font-family="sans-serif" font-size="14" lengthAdjust="spacing" textLength="73" x="644.75" y="608.7969">DeviceDTO</text><line style="stroke:#181818;stroke-width:0.5;" x1="545.5" x2="784.5" y1="619" y2="619"/><rect fill="none" height="6" style="stroke:#C82930;stroke-width:1.0;" width="6" x="552.5" y="630.8105"/><text fill="#000000" font-family="sans-serif" font-size="14" lengthAdjust="spacing" textLength="80" x="564.5" y="638.1074">name: String</text><rect fill="none" height="6" style="stroke:#C82930;stroke-width:1.0;" width="6" x="552.5" y="649.4316"/><text fill="#000000" font-family="sans-serif" font-size="14" lengthAdjust="spacing" textLength="97" x="564.5" y="656.7285">status: boolean</text><rect fill="none" height="6" style="stroke:#C82930;stroke-width:1.0;" width="6" x="552.5" y="668.0527"/><text fill="#000000" font-family="sans-serif" font-size="14" lengthAdjust="spacing" textLength="91" x="564.5" y="675.3496">deviceId: UUID</text><rect fill="none" height="6" style="stroke:#C82930;stroke-width:1.0;" width="6" x="552.5" y="686.6738"/><text fill="#000000" font-family="sans-serif" font-size="14" lengthAdjust="spacing" textLength="137" x="564.5" y="693.9707">roomDTO: RoomDTO</text><rect fill="none" height="6" style="stroke:#C82930;stroke-width:1.0;" width="6" x="552.5" y="705.2949"/><text fill="#000000" font-family="sans-serif" font-size="14" lengthAdjust="spacing" textLength="215" x="564.5" y="712.5918">deviceFunctionalities: List&lt;String&gt;</text><rect fill="none" height="6" style="stroke:#C82930;stroke-width:1.0;" width="6" x="552.5" y="723.916"/><text fill="#000000" font-family="sans-serif" font-size="14" lengthAdjust="spacing" textLength="133" x="564.5" y="731.2129">sensors: List&lt;String&gt;</text><rect fill="none" height="6" style="stroke:#C82930;stroke-width:1.0;" width="6" x="552.5" y="742.5371"/><text fill="#000000" font-family="sans-serif" font-size="14" lengthAdjust="spacing" textLength="133" x="564.5" y="749.834">sensors: List&lt;String&gt;</text><line style="stroke:#181818;stroke-width:0.5;" x1="545.5" x2="784.5" y1="757.3477" y2="757.3477"/><polygon fill="#FFFF44" points="555.5,767.1582,559.5,771.1582,555.5,775.1582,551.5,771.1582" style="stroke:#B38D22;stroke-width:1.0;"/><text fill="#000000" font-family="sans-serif" font-size="14" lengthAdjust="spacing" textLength="175" x="564.5" y="776.4551">DeviceDTO(device: Device)</text></g><!--class SensorDTO--><g id="elem_SensorDTO"><rect codeLine="127" fill="#F1F1F1" height="85.2422" id="SensorDTO" rx="2.5" ry="2.5" style="stroke:#181818;stroke-width:0.5;" width="207" x="987.5" y="643"/><ellipse cx="1049.25" cy="659" fill="#ADD1B2" rx="11" ry="11" style="stroke:#181818;stroke-width:1.0;"/><path d="M1052.0156,654.875 Q1052.1719,654.6563 1052.3594,654.5469 Q1052.5469,654.4375 1052.7656,654.4375 Q1053.1406,654.4375 1053.375,654.7031 Q1053.6094,654.9531 1053.6094,655.5625 L1053.6094,657.0156 Q1053.6094,657.625 1053.375,657.8906 Q1053.1406,658.1563 1052.7656,658.1563 Q1052.4219,658.1563 1052.2188,657.9531 Q1052.0156,657.7656 1051.9063,657.25 Q1051.8594,656.8906 1051.6719,656.7031 Q1051.3438,656.3281 1050.7344,656.1094 Q1050.125,655.8906 1049.5,655.8906 Q1048.7344,655.8906 1048.0938,656.2188 Q1047.4688,656.5469 1046.9688,657.2969 Q1046.4844,658.0469 1046.4844,659.0781 L1046.4844,660.1719 Q1046.4844,661.4063 1047.375,662.2344 Q1048.2656,663.0469 1049.8594,663.0469 Q1050.7969,663.0469 1051.4531,662.7969 Q1051.8438,662.6406 1052.2656,662.2031 Q1052.5313,661.9375 1052.6719,661.8594 Q1052.8281,661.7813 1053.0313,661.7813 Q1053.3594,661.7813 1053.6094,662.0469 Q1053.875,662.2969 1053.875,662.6406 Q1053.875,662.9844 1053.5313,663.3906 Q1053.0313,663.9688 1052.2344,664.2969 Q1051.1563,664.75 1049.8594,664.75 Q1048.3438,664.75 1047.1406,664.125 Q1046.1563,663.625 1045.4688,662.5625 Q1044.7813,661.4844 1044.7813,660.2031 L1044.7813,659.0469 Q1044.7813,657.7188 1045.3906,656.5781 Q1046.0156,655.4219 1047.1094,654.8125 Q1048.2031,654.1875 1049.4375,654.1875 Q1050.1719,654.1875 1050.8125,654.3594 Q1051.4688,654.5156 1052.0156,654.875 Z " fill="#000000"/><text fill="#000000" font-family="sans-serif" font-size="14" lengthAdjust="spacing" textLength="75" x="1069.75" y="664.7969">SensorDTO</text><line style="stroke:#181818;stroke-width:0.5;" x1="988.5" x2="1193.5" y1="675" y2="675"/><rect fill="none" height="6" style="stroke:#C82930;stroke-width:1.0;" width="6" x="995.5" y="686.8105"/><text fill="#000000" font-family="sans-serif" font-size="14" lengthAdjust="spacing" textLength="160" x="1007.5" y="694.1074">sensorType: SensorType</text><line style="stroke:#181818;stroke-width:0.5;" x1="988.5" x2="1193.5" y1="701.6211" y2="701.6211"/><polygon fill="#FFFF44" points="998.5,711.4316,1002.5,715.4316,998.5,719.4316,994.5,715.4316" style="stroke:#B38D22;stroke-width:1.0;"/><text fill="#000000" font-family="sans-serif" font-size="14" lengthAdjust="spacing" textLength="181" x="1007.5" y="720.7285">SensorDTO(sensor: Sensor)</text></g><!--link AddSensorToDeviceController to House--><g id="link_AddSensorToDeviceController_House"><path codeLine="133" d="M1515.09,241.2 C1534.76,267.75 1551.6486,290.5387 1569.8486,315.1087 " fill="none" id="AddSensorToDeviceController-to-House" style="stroke:#181818;stroke-width:1.0;stroke-dasharray:7.0,7.0;"/><polygon fill="#181818" points="1573.42,319.93,1571.2772,310.3171,1570.4439,315.9122,1564.8487,315.0789,1573.42,319.93" style="stroke:#181818;stroke-width:1.0;"/><text fill="#000000" font-family="sans-serif" font-size="13" lengthAdjust="spacing" textLength="42" x="1550" y="286.0283">&#171;uses&#187;</text><text fill="#000000" font-family="sans-serif" font-size="13" lengthAdjust="spacing" textLength="7" x="1513.3809" y="263.2835">1</text><text fill="#000000" font-family="sans-serif" font-size="13" lengthAdjust="spacing" textLength="7" x="1560.697" y="308.8193">1</text></g><!--link AddSensorToDeviceController to Room--><g id="link_AddSensorToDeviceController_Room"><path codeLine="134" d="M1705.71,155.84 C1808.86,182.3 1916.09,230.95 1979,320 C2027.66,388.88 2012.6011,477.5499 1984.4011,552.9799 " fill="none" id="AddSensorToDeviceController-to-Room" style="stroke:#181818;stroke-width:1.0;stroke-dasharray:7.0,7.0;"/><polygon fill="#181818" points="1982.3,558.6,1989.1984,551.5706,1984.0509,553.9166,1981.7049,548.7691,1982.3,558.6" style="stroke:#181818;stroke-width:1.0;"/><text fill="#000000" font-family="sans-serif" font-size="13" lengthAdjust="spacing" textLength="42" x="2011" y="405.5283">&#171;uses&#187;</text><text fill="#000000" font-family="sans-serif" font-size="13" lengthAdjust="spacing" textLength="7" x="1713.1531" y="153.4894">1</text><text fill="#000000" font-family="sans-serif" font-size="13" lengthAdjust="spacing" textLength="7" x="1978.7572" y="547.8138">1</text></g><!--link AddSensorToDeviceController to Device--><g id="link_AddSensorToDeviceController_Device"><path codeLine="135" d="M1705.56,175.08 C1855.81,208.72 2019.47,258.19 2062,320 C2178.29,489.01 2128.2772,732.6079 2078.3272,885.1479 " fill="none" id="AddSensorToDeviceController-to-Device" style="stroke:#181818;stroke-width:1.0;stroke-dasharray:7.0,7.0;"/><polygon fill="#181818" points="2076.46,890.85,2083.0621,883.5417,2078.016,886.0983,2075.4594,881.0521,2076.46,890.85" style="stroke:#181818;stroke-width:1.0;"/><text fill="#000000" font-family="sans-serif" font-size="13" lengthAdjust="spacing" textLength="42" x="2131" y="525.0283">&#171;uses&#187;</text><text fill="#000000" font-family="sans-serif" font-size="13" lengthAdjust="spacing" textLength="7" x="1713.8743" y="173.3736">1</text><text fill="#000000" font-family="sans-serif" font-size="13" lengthAdjust="spacing" textLength="7" x="2072.2905" y="879.54">1</text></g><!--link AddSensorToDeviceController to RoomAssembler--><g id="link_AddSensorToDeviceController_RoomAssembler"><path codeLine="136" d="M1152.46,167.79 C951.15,201.68 672.92,254.22 433,320 C404,327.95 379.0272,335.8794 350.0672,345.9494 " fill="none" id="AddSensorToDeviceController-to-RoomAssembler" style="stroke:#181818;stroke-width:1.0;stroke-dasharray:7.0,7.0;"/><polygon fill="#181818" points="344.4,347.92,354.2145,348.7422,349.1226,346.2778,351.587,341.186,344.4,347.92" style="stroke:#181818;stroke-width:1.0;"/><text fill="#000000" font-family="sans-serif" font-size="13" lengthAdjust="spacing" textLength="42" x="623" y="286.0283">&#171;uses&#187;</text><text fill="#000000" font-family="sans-serif" font-size="13" lengthAdjust="spacing" textLength="7" x="1137.1463" y="165.8672">1</text><text fill="#000000" font-family="sans-serif" font-size="13" lengthAdjust="spacing" textLength="7" x="354.8553" y="336.8366">1</text></g><!--link AddSensorToDeviceController to DeviceAssembler--><g id="link_AddSensorToDeviceController_DeviceAssembler"><path codeLine="137" d="M1152.37,224.21 C1024.44,270.09 885.0576,320.0741 786.7076,355.3541 " fill="none" id="AddSensorToDeviceController-to-DeviceAssembler" style="stroke:#181818;stroke-width:1.0;stroke-dasharray:7.0,7.0;"/><polygon fill="#181818" points="781.06,357.38,790.882,358.1062,785.7664,355.6917,788.1808,350.5761,781.06,357.38" style="stroke:#181818;stroke-width:1.0;"/><text fill="#000000" font-family="sans-serif" font-size="13" lengthAdjust="spacing" textLength="42" x="1003" y="286.0283">&#171;uses&#187;</text><text fill="#000000" font-family="sans-serif" font-size="13" lengthAdjust="spacing" textLength="7" x="1137.929" y="223.6754">1</text><text fill="#000000" font-family="sans-serif" font-size="13" lengthAdjust="spacing" textLength="7" x="791.9993" y="346.265">1</text></g><!--link AddSensorToDeviceController to SensorAssembler--><g id="link_AddSensorToDeviceController_SensorAssembler"><path codeLine="138" d="M1285.66,241.2 C1229.52,286.71 1174.1811,331.5719 1135.8611,362.6319 " fill="none" id="AddSensorToDeviceController-to-SensorAssembler" style="stroke:#181818;stroke-width:1.0;stroke-dasharray:7.0,7.0;"/><polygon fill="#181818" points="1131.2,366.41,1140.7104,363.8503,1135.0843,363.2616,1135.673,357.6355,1131.2,366.41" style="stroke:#181818;stroke-width:1.0;"/><text fill="#000000" font-family="sans-serif" font-size="13" lengthAdjust="spacing" textLength="42" x="1241" y="286.0283">&#171;uses&#187;</text><text fill="#000000" font-family="sans-serif" font-size="13" lengthAdjust="spacing" textLength="7" x="1269.2531" y="263.2835">1</text><text fill="#000000" font-family="sans-serif" font-size="13" lengthAdjust="spacing" textLength="7" x="1131.4253" y="355.2178">1</text></g><!--link RoomAssembler to RoomDTO--><g id="link_RoomAssembler_RoomDTO"><path codeLine="140" d="M211,452.01 C211,497.53 211,558.57 211,608.98 " fill="none" id="RoomAssembler-to-RoomDTO" style="stroke:#181818;stroke-width:1.0;stroke-dasharray:7.0,7.0;"/><polygon fill="#181818" points="211,614.98,215,605.98,211,609.98,207,605.98,211,614.98" style="stroke:#181818;stroke-width:1.0;"/><text fill="#000000" font-family="sans-serif" font-size="13" lengthAdjust="spacing" textLength="57" x="212" y="525.0283">&#171;creates&#187;</text><text fill="#000000" font-family="sans-serif" font-size="13" lengthAdjust="spacing" textLength="7" x="203.5516" y="473.8186">1</text><text fill="#000000" font-family="sans-serif" font-size="13" lengthAdjust="spacing" textLength="5" x="205.7422" y="603.869">*</text></g><!--link DeviceAssembler to DeviceDTO--><g id="link_DeviceAssembler_DeviceDTO"><path codeLine="142" d="M665,442.53 C665,480.28 665,531.47 665,580.76 " fill="none" id="DeviceAssembler-to-DeviceDTO" style="stroke:#181818;stroke-width:1.0;stroke-dasharray:7.0,7.0;"/><polygon fill="#181818" points="665,586.76,669,577.76,665,581.76,661,577.76,665,586.76" style="stroke:#181818;stroke-width:1.0;"/><text fill="#000000" font-family="sans-serif" font-size="13" lengthAdjust="spacing" textLength="57" x="666" y="525.0283">&#171;creates&#187;</text><text fill="#000000" font-family="sans-serif" font-size="13" lengthAdjust="spacing" textLength="7" x="657.4422" y="464.6951">1</text><text fill="#000000" font-family="sans-serif" font-size="13" lengthAdjust="spacing" textLength="5" x="659.8086" y="575.5901">*</text></g><!--link SensorAssembler to SensorDTO--><g id="link_SensorAssembler_SensorDTO"><path codeLine="144" d="M1091,433.52 C1091,485.15 1091,579.84 1091,636.74 " fill="none" id="SensorAssembler-to-SensorDTO" style="stroke:#181818;stroke-width:1.0;stroke-dasharray:7.0,7.0;"/><polygon fill="#181818" points="1091,642.74,1095,633.74,1091,637.74,1087,633.74,1091,642.74" style="stroke:#181818;stroke-width:1.0;"/><text fill="#000000" font-family="sans-serif" font-size="13" lengthAdjust="spacing" textLength="57" x="1092" y="525.0283">&#171;creates&#187;</text><text fill="#000000" font-family="sans-serif" font-size="13" lengthAdjust="spacing" textLength="7" x="1083.3766" y="455.0928">1</text><text fill="#000000" font-family="sans-serif" font-size="13" lengthAdjust="spacing" textLength="7" x="1083.4422" y="631.6026">1</text></g><!--link SensorFactory to GenericSensor--><g id="link_SensorFactory_GenericSensor"><path codeLine="146" d="M1946.42,1640.28 C1966.75,1662.18 1990.1882,1687.4324 2015.2682,1714.4524 " fill="none" id="SensorFactory-to-GenericSensor" style="stroke:#181818;stroke-width:1.0;stroke-dasharray:7.0,7.0;"/><polygon fill="#181818" points="2019.35,1718.85,2016.159,1709.5324,2015.9485,1715.1854,2010.2955,1714.9749,2019.35,1718.85" style="stroke:#181818;stroke-width:1.0;"/><text fill="#000000" font-family="sans-serif" font-size="13" lengthAdjust="spacing" textLength="57" x="1991" y="1685.0283">&#171;creates&#187;</text><text fill="#000000" font-family="sans-serif" font-size="13" lengthAdjust="spacing" textLength="7" x="1944.0469" y="1661.6328">1</text><text fill="#000000" font-family="sans-serif" font-size="13" lengthAdjust="spacing" textLength="7" x="2005.322" y="1707.7255">1</text></g><!--link House to Room--><g id="link_House_Room"><path codeLine="148" d="M1712.33,480.35 C1737.04,504.75 1760.6014,528.0335 1787.6414,554.7435 " fill="none" id="House-to-Room" style="stroke:#181818;stroke-width:1.0;"/><polygon fill="#181818" points="1791.91,558.96,1788.3181,549.7895,1788.3528,555.4462,1782.6961,555.481,1791.91,558.96" style="stroke:#181818;stroke-width:1.0;"/><text fill="#000000" font-family="sans-serif" font-size="13" lengthAdjust="spacing" textLength="35" x="1760" y="525.0283">&#171;has&#187;</text><text fill="#000000" font-family="sans-serif" font-size="13" lengthAdjust="spacing" textLength="7" x="1711.6925" y="501.7596">1</text><text fill="#000000" font-family="sans-serif" font-size="13" lengthAdjust="spacing" textLength="5" x="1779.0131" y="547.7733">*</text></g><!--link Room to Device--><g id="link_Room_Device"><path codeLine="150" d="M1957.95,812.25 C1965.89,837.88 1972.4951,859.1985 1980.5251,885.1285 " fill="none" id="Room-to-Device" style="stroke:#181818;stroke-width:1.0;"/><polygon fill="#181818" points="1982.3,890.86,1983.4586,881.0795,1980.8209,886.0838,1975.8166,883.4461,1982.3,890.86" style="stroke:#181818;stroke-width:1.0;"/><text fill="#000000" font-family="sans-serif" font-size="13" lengthAdjust="spacing" textLength="35" x="1973" y="857.0283">&#171;has&#187;</text><text fill="#000000" font-family="sans-serif" font-size="13" lengthAdjust="spacing" textLength="7" x="1952.8887" y="833.6874">1</text><text fill="#000000" font-family="sans-serif" font-size="13" lengthAdjust="spacing" textLength="5" x="1974.7447" y="879.5505">*</text></g><!--link Device to GenericSensor--><g id="link_Device_GenericSensor"><path codeLine="152" d="M2146.8,1162.01 C2163.29,1186.75 2177.7,1213.5 2187,1241 C2243.97,1409.5 2213.69,1471.75 2156,1640 C2146.89,1666.56 2136.8889,1689.1812 2124.6989,1713.6112 " fill="none" id="Device-to-GenericSensor" style="stroke:#181818;stroke-width:1.0;"/><polygon fill="#181818" points="2122.02,1718.98,2129.6175,1712.7128,2124.2524,1714.506,2122.4592,1709.1409,2122.02,1718.98" style="stroke:#181818;stroke-width:1.0;"/><text fill="#000000" font-family="sans-serif" font-size="13" lengthAdjust="spacing" textLength="35" x="2195" y="1539.0283">&#171;has&#187;</text><text fill="#000000" font-family="sans-serif" font-size="13" lengthAdjust="spacing" textLength="7" x="2146.697" y="1184.3592">1</text><text fill="#000000" font-family="sans-serif" font-size="13" lengthAdjust="spacing" textLength="5" x="2120.683" y="1707.869">*</text></g><!--link Device to CatalogueSensor--><g id="link_Device_CatalogueSensor"><path codeLine="153" d="M1945.18,1162.46 C1930.08,1188.31 1917.3556,1210.0887 1902.4356,1235.6387 " fill="none" id="Device-to-CatalogueSensor" style="stroke:#181818;stroke-width:1.0;stroke-dasharray:7.0,7.0;"/><polygon fill="#181818" points="1899.41,1240.82,1907.4026,1235.0652,1901.9314,1236.5023,1900.4942,1231.031,1899.41,1240.82" style="stroke:#181818;stroke-width:1.0;"/><text fill="#000000" font-family="sans-serif" font-size="13" lengthAdjust="spacing" textLength="42" x="1926" y="1207.0283">&#171;uses&#187;</text><text fill="#000000" font-family="sans-serif" font-size="13" lengthAdjust="spacing" textLength="7" x="1933.6781" y="1184.384">1</text><text fill="#000000" font-family="sans-serif" font-size="13" lengthAdjust="spacing" textLength="7" x="1896.6701" y="1229.6248">1</text></g><!--link GenericSensor to Sensor--><g id="link_GenericSensor_Sensor"><path codeLine="155" d="M2084,1860.17 C2084,1886.54 2084,1897.72 2084,1920.74 " fill="none" id="GenericSensor-to-Sensor" style="stroke:#181818;stroke-width:1.0;stroke-dasharray:7.0,7.0;"/><polygon fill="none" points="2084,1938.74,2090,1920.74,2078,1920.74,2084,1938.74" style="stroke:#181818;stroke-width:1.0;"/><text fill="#000000" font-family="sans-serif" font-size="13" lengthAdjust="spacing" textLength="81" x="2085" y="1905.0283">&#171;implements&#187;</text><text fill="#000000" font-family="sans-serif" font-size="13" lengthAdjust="spacing" textLength="7" x="2076.6391" y="1882.3723">1</text><text fill="#000000" font-family="sans-serif" font-size="13" lengthAdjust="spacing" textLength="7" x="2076.4422" y="1927.6026">1</text></g><!--link CatalogueSensor to SensorFactory--><g id="link_CatalogueSensor_SensorFactory"><path codeLine="157" d="M1873.77,1494.29 C1884.79,1523.31 1893.4603,1546.1407 1901.3803,1567.0007 " fill="none" id="CatalogueSensor-to-SensorFactory" style="stroke:#181818;stroke-width:1.0;stroke-dasharray:7.0,7.0;"/><polygon fill="#181818" points="1903.51,1572.61,1904.055,1562.7762,1901.7352,1567.9356,1896.5759,1565.6158,1903.51,1572.61" style="stroke:#181818;stroke-width:1.0;"/><text fill="#000000" font-family="sans-serif" font-size="13" lengthAdjust="spacing" textLength="42" x="1893" y="1539.0283">&#171;uses&#187;</text><text fill="#000000" font-family="sans-serif" font-size="13" lengthAdjust="spacing" textLength="7" x="1869.191" y="1515.7295">1</text><text fill="#000000" font-family="sans-serif" font-size="13" lengthAdjust="spacing" textLength="5" x="1895.6525" y="1561.6216">*</text></g><!--SRC=[fLTRJzim57xFhx3OmzBHWhR7gefK4NLKWcsYmBj9J6ifYQlOGKBR_ljyl-6qXV504lixj-ySd-D-tZ6sf_FBotq3EpQqpKL5sikgWPJEQWotFMopJ7w2PLrlK4T9VqzAz88hT4KwrfEcGVtl3F2_sOuC5Ct1jNYebGeos93jm5UlpAjIelPxGbfQtlzSTlMTU9s3MxXVY5U-E0NYfL38MfhKM6LVezM7nAlN8fCYvmSSpdrNfs3SpOcoZkaZR73D5L3M3nKZ_RBV3Ytg63rTrHmy4T8Ws2dtjeZ9c7E-SOCfCs4NTbk7kUf9A_RoNW7cG2EDe6N0YIgJjwH6ZJEmOJtkjXe4OtRosgYP0u_JLkYO0oNBDIaXlfM1lwOqX3zBIb7xP8lXVB6W339S5GMeIGjnzutBo12e5s-H3juNPkHRAHMauXTl1-pn-aYQr0eo6u4A-BGOQbDz7ld5M2xIaQIedfXtvvNY-ZIlgCIQ_0I9ilfaZUh3sX1UgfXqAoZA-PMx7owu0seHT-uZrE64lMFjKwvEv2TfFpzcUGh6h4w18ixkbVxdvC2vAhAWM3K77MoHAMsryjmGGIBkc6uxc1zoodsZpcQy52DzYEDZNS_1myEw3DfPM4EQ9NdMtrAhMn55x0TtE_Tzvv6-45nRWBEVfzsA1LOYxDm5x-zxdIYVH0v7vyUdrMTLrEj0m_utKmLhA53L6ZJxa37EzG2P4rZgRyEQRc81BQSnvbfX7ZIxGyry2fJxjYes_gSzVMEjTkImMhwblvEWD5qQrhNOiioSCw9Wde3DI-IsEVkSGEtHwnw5AH0hXGUJ2g-4CaGtOShqE57yHvRoPzoWNv3jqWcv2Jt8uuAy6J6TfnCdbEHyD9U8LZtUguDZiZXqc76- -7-JDG6FCYUMtgHFB2OitHFXNkvq-VY4i9t71zmy9kPDyIXDfurx2ufh_BGwZaQItjS3gUeHPEYzHoYX_3lgK8-he5RJBAkz5zW8nO_YeSjGUt7iHXVb9Cs-r2lsb07kvhfZg7-65GA-ZyTq9LMvOSH7zEWyEZHLubaLJ1atIiorIqtIITop3rbFzkrKSuvlPZvoDNILg7H-WMOOqKHnngFW-9RVyjsLpDm79d6vkXX7gicldSHbIkWxy6i2d7qz0nSNXNnUgvy3YmL_qA8uMUvEfkZTOgME_4FsxCtomuR_HqDqk_KqP85pJkZBcIam0LPjH-8ZPmA9qjsr0vd8VCArCHdT_GA9e7L5Kh8a96esSr48q0xQS8DzbrMDK0i1ver51VMGnhUe0_f41qgqq1-V0m76xRv1yiUk48cq1Lnlmc7YxF2_Vm00]--></g></svg>