<?xml version="1.0" encoding="us-ascii" standalone="no"?><svg xmlns="http://www.w3.org/2000/svg" xmlns:xlink="http://www.w3.org/1999/xlink" contentStyleType="text/css" height="678px" preserveAspectRatio="none" style="width:1626px;height:678px;background:#FFFFFF;" version="1.1" viewBox="0 0 1626 678" width="1626px" zoomAndPan="magnify"><defs/><g><rect fill="#FFFFFF" height="362.9004" style="stroke:#181818;stroke-width:1.0;" width="10" x="202" y="71.9121"/><rect fill="#FFFFFF" height="156.4551" style="stroke:#181818;stroke-width:1.0;" width="10" x="202" y="466.1035"/><rect fill="#FFFFFF" height="31.291" style="stroke:#181818;stroke-width:1.0;" width="10" x="423" y="103.2031"/><rect fill="#FFFFFF" height="31.291" style="stroke:#181818;stroke-width:1.0;" width="10" x="423" y="315.6094"/><rect fill="#FFFFFF" height="106.2031" style="stroke:#181818;stroke-width:1.0;" width="10" x="868.5" y="178.1152"/><rect fill="#FFFFFF" height="93.873" style="stroke:#181818;stroke-width:1.0;" width="10" x="868.5" y="497.3945"/><rect fill="#FFFFFF" height="31.291" style="stroke:#181818;stroke-width:1.0;" width="10" x="1099.5" y="209.4063"/><rect fill="#FFFFFF" height="31.291" style="stroke:#181818;stroke-width:1.0;" width="10" x="1568.5" y="528.6855"/><line style="stroke:#181818;stroke-width:0.5;stroke-dasharray:5.0,5.0;" x1="16" x2="16" y1="38.6211" y2="640.5586"/><line style="stroke:#181818;stroke-width:0.5;stroke-dasharray:5.0,5.0;" x1="206.5" x2="206.5" y1="38.6211" y2="640.5586"/><line style="stroke:#181818;stroke-width:0.5;stroke-dasharray:5.0,5.0;" x1="428" x2="428" y1="38.6211" y2="640.5586"/><line style="stroke:#181818;stroke-width:0.5;stroke-dasharray:5.0,5.0;" x1="738" x2="738" y1="143.0137" y2="640.5586"/><line style="stroke:#181818;stroke-width:0.5;stroke-dasharray:5.0,5.0;" x1="873" x2="873" y1="38.6211" y2="640.5586"/><line style="stroke:#181818;stroke-width:0.5;stroke-dasharray:5.0,5.0;" x1="1104.5" x2="1104.5" y1="38.6211" y2="640.5586"/><line style="stroke:#181818;stroke-width:0.5;stroke-dasharray:5.0,5.0;" x1="1338.5" x2="1338.5" y1="249.2168" y2="640.5586"/><line style="stroke:#181818;stroke-width:0.5;stroke-dasharray:5.0,5.0;" x1="1456.5" x2="1456.5" y1="355.4199" y2="640.5586"/><line style="stroke:#181818;stroke-width:0.5;stroke-dasharray:5.0,5.0;" x1="1573.5" x2="1573.5" y1="38.6211" y2="640.5586"/><rect fill="#E2E2F0" height="32.6211" rx="2.5" ry="2.5" style="stroke:#181818;stroke-width:0.5;" width="22" x="5" y="5"/><text fill="#000000" font-family="sans-serif" font-size="14" lengthAdjust="spacing" textLength="8" x="12" y="27.1074">&#160;&#160;</text><rect fill="#E2E2F0" height="32.6211" rx="2.5" ry="2.5" style="stroke:#181818;stroke-width:0.5;" width="22" x="5" y="639.5586"/><text fill="#000000" font-family="sans-serif" font-size="14" lengthAdjust="spacing" textLength="8" x="12" y="661.666">&#160;&#160;</text><rect fill="#E2E2F0" height="32.6211" rx="2.5" ry="2.5" style="stroke:#181818;stroke-width:0.5;" width="85" x="164.5" y="5"/><text fill="#000000" font-family="sans-serif" font-size="14" lengthAdjust="spacing" textLength="71" x="171.5" y="27.1074">:ControlerX</text><rect fill="#E2E2F0" height="32.6211" rx="2.5" ry="2.5" style="stroke:#181818;stroke-width:0.5;" width="85" x="164.5" y="639.5586"/><text fill="#000000" font-family="sans-serif" font-size="14" lengthAdjust="spacing" textLength="71" x="171.5" y="661.666">:ControlerX</text><rect fill="#E2E2F0" height="32.6211" rx="2.5" ry="2.5" style="stroke:#181818;stroke-width:0.5;" width="92" x="382" y="5"/><text fill="#000000" font-family="sans-serif" font-size="14" lengthAdjust="spacing" textLength="78" x="389" y="27.1074">:AssemblerX</text><rect fill="#E2E2F0" height="32.6211" rx="2.5" ry="2.5" style="stroke:#181818;stroke-width:0.5;" width="92" x="382" y="639.5586"/><text fill="#000000" font-family="sans-serif" font-size="14" lengthAdjust="spacing" textLength="78" x="389" y="661.666">:AssemblerX</text><rect fill="#E2E2F0" height="32.6211" rx="2.5" ry="2.5" style="stroke:#181818;stroke-width:0.5;" width="178" x="649" y="639.5586"/><text fill="#000000" font-family="sans-serif" font-size="14" lengthAdjust="spacing" textLength="164" x="656" y="661.666">valueObject:ValueObjectX</text><rect fill="#E2E2F0" height="32.6211" rx="2.5" ry="2.5" style="stroke:#181818;stroke-width:0.5;" width="73" x="837" y="5"/><text fill="#000000" font-family="sans-serif" font-size="14" lengthAdjust="spacing" textLength="59" x="844" y="27.1074">:ServiceX</text><rect fill="#E2E2F0" height="32.6211" rx="2.5" ry="2.5" style="stroke:#181818;stroke-width:0.5;" width="73" x="837" y="639.5586"/><text fill="#000000" font-family="sans-serif" font-size="14" lengthAdjust="spacing" textLength="59" x="844" y="661.666">:ServiceX</text><rect fill="#E2E2F0" height="32.6211" rx="2.5" ry="2.5" style="stroke:#181818;stroke-width:0.5;" width="74" x="1067.5" y="5"/><text fill="#000000" font-family="sans-serif" font-size="14" lengthAdjust="spacing" textLength="60" x="1074.5" y="27.1074">:FactoryX</text><rect fill="#E2E2F0" height="32.6211" rx="2.5" ry="2.5" style="stroke:#181818;stroke-width:0.5;" width="74" x="1067.5" y="639.5586"/><text fill="#000000" font-family="sans-serif" font-size="14" lengthAdjust="spacing" textLength="60" x="1074.5" y="661.666">:FactoryX</text><rect fill="#E2E2F0" height="32.6211" rx="2.5" ry="2.5" style="stroke:#181818;stroke-width:0.5;" width="95" x="1291.5" y="639.5586"/><text fill="#000000" font-family="sans-serif" font-size="14" lengthAdjust="spacing" textLength="81" x="1298.5" y="661.666">entity:EntityX</text><rect fill="#E2E2F0" height="32.6211" rx="2.5" ry="2.5" style="stroke:#181818;stroke-width:0.5;" width="120" x="1396.5" y="639.5586"/><text fill="#000000" font-family="sans-serif" font-size="14" lengthAdjust="spacing" textLength="106" x="1403.5" y="661.666">entityDTO:XDTO</text><rect fill="#E2E2F0" height="32.6211" rx="2.5" ry="2.5" style="stroke:#181818;stroke-width:0.5;" width="94" x="1526.5" y="5"/><text fill="#000000" font-family="sans-serif" font-size="14" lengthAdjust="spacing" textLength="80" x="1533.5" y="27.1074">:RepositoryX</text><rect fill="#E2E2F0" height="32.6211" rx="2.5" ry="2.5" style="stroke:#181818;stroke-width:0.5;" width="94" x="1526.5" y="639.5586"/><text fill="#000000" font-family="sans-serif" font-size="14" lengthAdjust="spacing" textLength="80" x="1533.5" y="661.666">:RepositoryX</text><rect fill="#FFFFFF" height="362.9004" style="stroke:#181818;stroke-width:1.0;" width="10" x="202" y="71.9121"/><rect fill="#FFFFFF" height="156.4551" style="stroke:#181818;stroke-width:1.0;" width="10" x="202" y="466.1035"/><rect fill="#FFFFFF" height="31.291" style="stroke:#181818;stroke-width:1.0;" width="10" x="423" y="103.2031"/><rect fill="#FFFFFF" height="31.291" style="stroke:#181818;stroke-width:1.0;" width="10" x="423" y="315.6094"/><rect fill="#FFFFFF" height="106.2031" style="stroke:#181818;stroke-width:1.0;" width="10" x="868.5" y="178.1152"/><rect fill="#FFFFFF" height="93.873" style="stroke:#181818;stroke-width:1.0;" width="10" x="868.5" y="497.3945"/><rect fill="#FFFFFF" height="31.291" style="stroke:#181818;stroke-width:1.0;" width="10" x="1099.5" y="209.4063"/><rect fill="#FFFFFF" height="31.291" style="stroke:#181818;stroke-width:1.0;" width="10" x="1568.5" y="528.6855"/><ellipse cx="15.5" cy="71.1621" fill="none" rx="4" ry="4" style="stroke:#181818;stroke-width:1.5;"/><polygon fill="#181818" points="190,67.9121,200,71.9121,190,75.9121,194,71.9121" style="stroke:#181818;stroke-width:1.0;"/><line style="stroke:#181818;stroke-width:1.0;" x1="20" x2="196" y1="71.9121" y2="71.9121"/><text fill="#000000" font-family="sans-serif" font-size="13" lengthAdjust="spacing" textLength="167" x="23" y="66.6494">1: addEntity(EntityDTO data)</text><polygon fill="#181818" points="411,99.2031,421,103.2031,411,107.2031,415,103.2031" style="stroke:#181818;stroke-width:1.0;"/><line style="stroke:#181818;stroke-width:1.0;" x1="212" x2="417" y1="103.2031" y2="103.2031"/><text fill="#000000" font-family="sans-serif" font-size="13" lengthAdjust="spacing" textLength="192" x="219" y="97.9404">1.1: toValueObject(data.attribute)</text><polygon fill="#181818" points="637,130.4941,647,134.4941,637,138.4941,641,134.4941" style="stroke:#181818;stroke-width:1.0;"/><line style="stroke:#181818;stroke-width:1.0;" x1="428" x2="643" y1="134.4941" y2="134.4941"/><text fill="#000000" font-family="sans-serif" font-size="13" lengthAdjust="spacing" textLength="192" x="435" y="129.2314">1.1.1: ValueObject(data.attribute)</text><rect fill="#E2E2F0" height="32.6211" rx="2.5" ry="2.5" style="stroke:#181818;stroke-width:0.5;" width="178" x="649" y="111.2031"/><text fill="#000000" font-family="sans-serif" font-size="14" lengthAdjust="spacing" textLength="164" x="656" y="133.3105">valueObject:ValueObjectX</text><polygon fill="#181818" points="856.5,174.1152,866.5,178.1152,856.5,182.1152,860.5,178.1152" style="stroke:#181818;stroke-width:1.0;"/><line style="stroke:#181818;stroke-width:1.0;" x1="212" x2="862.5" y1="178.1152" y2="178.1152"/><text fill="#000000" font-family="sans-serif" font-size="13" lengthAdjust="spacing" textLength="191" x="219" y="172.8525">1.2: createEntity(valueObject, ...)</text><polygon fill="#181818" points="1087.5,205.4063,1097.5,209.4063,1087.5,213.4063,1091.5,209.4063" style="stroke:#181818;stroke-width:1.0;"/><line style="stroke:#181818;stroke-width:1.0;" x1="878.5" x2="1093.5" y1="209.4063" y2="209.4063"/><text fill="#000000" font-family="sans-serif" font-size="13" lengthAdjust="spacing" textLength="202" x="885.5" y="204.1436">1.2.1: createEntity(valueObject, ...)</text><polygon fill="#181818" points="1279.5,236.6973,1289.5,240.6973,1279.5,244.6973,1283.5,240.6973" style="stroke:#181818;stroke-width:1.0;"/><line style="stroke:#181818;stroke-width:1.0;" x1="1104.5" x2="1285.5" y1="240.6973" y2="240.6973"/><text fill="#000000" font-family="sans-serif" font-size="13" lengthAdjust="spacing" textLength="158" x="1111.5" y="235.4346">1.2.2Entity(valueObject, ...)</text><rect fill="#E2E2F0" height="32.6211" rx="2.5" ry="2.5" style="stroke:#181818;stroke-width:0.5;" width="95" x="1291.5" y="217.4063"/><text fill="#000000" font-family="sans-serif" font-size="14" lengthAdjust="spacing" textLength="81" x="1298.5" y="239.5137">entity:EntityX</text><polygon fill="#181818" points="223,280.3184,213,284.3184,223,288.3184,219,284.3184" style="stroke:#181818;stroke-width:1.0;"/><line style="stroke:#181818;stroke-width:1.0;" x1="217" x2="872.5" y1="284.3184" y2="284.3184"/><text fill="#000000" font-family="sans-serif" font-size="13" lengthAdjust="spacing" textLength="32" x="229" y="279.0557">entity</text><polygon fill="#181818" points="411,311.6094,421,315.6094,411,319.6094,415,315.6094" style="stroke:#181818;stroke-width:1.0;"/><line style="stroke:#181818;stroke-width:1.0;" x1="212" x2="417" y1="315.6094" y2="315.6094"/><text fill="#000000" font-family="sans-serif" font-size="13" lengthAdjust="spacing" textLength="103" x="219" y="310.3467">1.3: toDTO(entity)</text><polygon fill="#181818" points="1384.5,342.9004,1394.5,346.9004,1384.5,350.9004,1388.5,346.9004" style="stroke:#181818;stroke-width:1.0;"/><line style="stroke:#181818;stroke-width:1.0;" x1="428" x2="1390.5" y1="346.9004" y2="346.9004"/><text fill="#000000" font-family="sans-serif" font-size="13" lengthAdjust="spacing" textLength="114" x="435" y="341.6377">1.3.1: toDTO(entity)</text><rect fill="#E2E2F0" height="32.6211" rx="2.5" ry="2.5" style="stroke:#181818;stroke-width:0.5;" width="120" x="1396.5" y="323.6094"/><text fill="#000000" font-family="sans-serif" font-size="14" lengthAdjust="spacing" textLength="106" x="1403.5" y="345.7168">entityDTO:XDTO</text><line style="stroke:#181818;stroke-width:1.0;" x1="212" x2="254" y1="390.5215" y2="390.5215"/><line style="stroke:#181818;stroke-width:1.0;" x1="254" x2="254" y1="390.5215" y2="403.5215"/><line style="stroke:#181818;stroke-width:1.0;" x1="213" x2="254" y1="403.5215" y2="403.5215"/><polygon fill="#181818" points="223,399.5215,213,403.5215,223,407.5215,219,403.5215" style="stroke:#181818;stroke-width:1.0;"/><text fill="#000000" font-family="sans-serif" font-size="13" lengthAdjust="spacing" textLength="169" x="219" y="385.2588">1.4: map &lt;entity, entityDTO&gt;</text><polygon fill="#181818" points="27,430.8125,17,434.8125,27,438.8125,23,434.8125" style="stroke:#181818;stroke-width:1.0;"/><line style="stroke:#181818;stroke-width:1.0;" x1="21" x2="206" y1="434.8125" y2="434.8125"/><text fill="#000000" font-family="sans-serif" font-size="13" lengthAdjust="spacing" textLength="58" x="33" y="429.5498">entityDTO</text><polygon fill="#181818" points="190,462.1035,200,466.1035,190,470.1035,194,466.1035" style="stroke:#181818;stroke-width:1.0;"/><line style="stroke:#181818;stroke-width:1.0;" x1="16" x2="196" y1="466.1035" y2="466.1035"/><text fill="#000000" font-family="sans-serif" font-size="13" lengthAdjust="spacing" textLength="123" x="23" y="460.8408">2: confirm(entityDTO)</text><polygon fill="#181818" points="856.5,493.3945,866.5,497.3945,856.5,501.3945,860.5,497.3945" style="stroke:#181818;stroke-width:1.0;"/><line style="stroke:#181818;stroke-width:1.0;" x1="212" x2="862.5" y1="497.3945" y2="497.3945"/><text fill="#000000" font-family="sans-serif" font-size="13" lengthAdjust="spacing" textLength="92" x="219" y="492.1318">2.1: save(entity)</text><polygon fill="#181818" points="1556.5,524.6855,1566.5,528.6855,1556.5,532.6855,1560.5,528.6855" style="stroke:#181818;stroke-width:1.0;"/><line style="stroke:#181818;stroke-width:1.0;" x1="878.5" x2="1562.5" y1="528.6855" y2="528.6855"/><text fill="#000000" font-family="sans-serif" font-size="13" lengthAdjust="spacing" textLength="95" x="885.5" y="523.4229">2.1.1save(entity)</text><polygon fill="#181818" points="889.5,555.9766,879.5,559.9766,889.5,563.9766,885.5,559.9766" style="stroke:#181818;stroke-width:1.0;"/><line style="stroke:#181818;stroke-width:1.0;" x1="883.5" x2="1572.5" y1="559.9766" y2="559.9766"/><text fill="#000000" font-family="sans-serif" font-size="13" lengthAdjust="spacing" textLength="32" x="895.5" y="554.7139">entity</text><polygon fill="#181818" points="223,587.2676,213,591.2676,223,595.2676,219,591.2676" style="stroke:#181818;stroke-width:1.0;"/><line style="stroke:#181818;stroke-width:1.0;" x1="217" x2="872.5" y1="591.2676" y2="591.2676"/><text fill="#000000" font-family="sans-serif" font-size="13" lengthAdjust="spacing" textLength="49" x="229" y="586.0049">success</text><polygon fill="#181818" points="27,618.5586,17,622.5586,27,626.5586,23,622.5586" style="stroke:#181818;stroke-width:1.0;"/><line style="stroke:#181818;stroke-width:1.0;" x1="21" x2="206" y1="622.5586" y2="622.5586"/><text fill="#000000" font-family="sans-serif" font-size="13" lengthAdjust="spacing" textLength="49" x="33" y="617.2959">success</text><!--SRC=[ZLFBQiCm4BpxAqHFBgI2f3s94YXjUWtqHQwAlG6Ln3AIOiZVLozBQyT90o5UIRCpgzrHovKHbMXvOyWTiJ-koRS6LRJuWBtAnYYv1xNnYBZSd-5Uj8R3Dk7ISWZh-Fu8w-qlL8Rzv3Zae8qH-IUeJbGGO74nWhppoaXr2f2u64AWCSASsCf_0Yx4Kx2thpNRs3yFSy58xWDQgKLMpEkYA5mRYNnOecunCcU4rtLGB5Uz2AcvuVU5hLTqt03kRmw9fKeDjKpKSXc9sbKw5igDKM9xD83uyXmg1Mu3DpaTEW5qu2MSo3M96YP4XZN7IJcw1IEXWDW0P8GPePIYallvngyZYlFqHAwkMwbw7yIxnt77NKSSTWBluY8VkchFY8h3GmxcmGdzRQvCyz5DqtgX3DdNfkUTE1YRs_4amHIOPd92eq863gLFZ1nuIvu3muoajx0SfJc7itoCfP23_JiOYJWZo6OdrA5CwRVuFtd96q3p3ixRDU6S_2vz9frFPwBdcyE1xFbaKSu5D-XZLO7M_ziXj7C2Zjhn1m00]--></g></svg>