<?xml version="1.0" encoding="us-ascii" standalone="no"?><svg xmlns="http://www.w3.org/2000/svg" xmlns:xlink="http://www.w3.org/1999/xlink" contentStyleType="text/css" height="508px" preserveAspectRatio="none" style="width:1645px;height:508px;background:#FFFFFF;" version="1.1" viewBox="0 0 1645 508" width="1645px" zoomAndPan="magnify"><defs/><g><rect fill="#FFFFFF" height="381.1914" style="stroke:#181818;stroke-width:1.0;" width="10" x="202" y="71.9121"/><rect fill="#FFFFFF" height="31.291" style="stroke:#181818;stroke-width:1.0;" width="10" x="423" y="103.2031"/><rect fill="#FFFFFF" height="31.291" style="stroke:#181818;stroke-width:1.0;" width="10" x="423" y="378.1914"/><rect fill="#FFFFFF" height="168.7852" style="stroke:#181818;stroke-width:1.0;" width="10" x="868.5" y="178.1152"/><rect fill="#FFFFFF" height="31.291" style="stroke:#181818;stroke-width:1.0;" width="10" x="1099.5" y="209.4063"/><rect fill="#FFFFFF" height="31.291" style="stroke:#181818;stroke-width:1.0;" width="10" x="1457.5" y="284.3184"/><line style="stroke:#181818;stroke-width:0.5;stroke-dasharray:5.0,5.0;" x1="16" x2="16" y1="38.6211" y2="471.1035"/><line style="stroke:#181818;stroke-width:0.5;stroke-dasharray:5.0,5.0;" x1="206.5" x2="206.5" y1="38.6211" y2="471.1035"/><line style="stroke:#181818;stroke-width:0.5;stroke-dasharray:5.0,5.0;" x1="428" x2="428" y1="38.6211" y2="471.1035"/><line style="stroke:#181818;stroke-width:0.5;stroke-dasharray:5.0,5.0;" x1="738" x2="738" y1="143.0137" y2="471.1035"/><line style="stroke:#181818;stroke-width:0.5;stroke-dasharray:5.0,5.0;" x1="873" x2="873" y1="38.6211" y2="471.1035"/><line style="stroke:#181818;stroke-width:0.5;stroke-dasharray:5.0,5.0;" x1="1104.5" x2="1104.5" y1="38.6211" y2="471.1035"/><line style="stroke:#181818;stroke-width:0.5;stroke-dasharray:5.0,5.0;" x1="1357.5" x2="1357.5" y1="249.2168" y2="471.1035"/><line style="stroke:#181818;stroke-width:0.5;stroke-dasharray:5.0,5.0;" x1="1462.5" x2="1462.5" y1="38.6211" y2="471.1035"/><line style="stroke:#181818;stroke-width:0.5;stroke-dasharray:5.0,5.0;" x1="1579.5" x2="1579.5" y1="418.002" y2="471.1035"/><rect fill="#E2E2F0" height="32.6211" rx="2.5" ry="2.5" style="stroke:#181818;stroke-width:0.5;" width="22" x="5" y="5"/><text fill="#000000" font-family="sans-serif" font-size="14" lengthAdjust="spacing" textLength="8" x="12" y="27.1074">&#160;&#160;</text><rect fill="#E2E2F0" height="32.6211" rx="2.5" ry="2.5" style="stroke:#181818;stroke-width:0.5;" width="22" x="5" y="470.1035"/><text fill="#000000" font-family="sans-serif" font-size="14" lengthAdjust="spacing" textLength="8" x="12" y="492.2109">&#160;&#160;</text><rect fill="#E2E2F0" height="32.6211" rx="2.5" ry="2.5" style="stroke:#181818;stroke-width:0.5;" width="85" x="164.5" y="5"/><text fill="#000000" font-family="sans-serif" font-size="14" lengthAdjust="spacing" textLength="71" x="171.5" y="27.1074">:ControlerX</text><rect fill="#E2E2F0" height="32.6211" rx="2.5" ry="2.5" style="stroke:#181818;stroke-width:0.5;" width="85" x="164.5" y="470.1035"/><text fill="#000000" font-family="sans-serif" font-size="14" lengthAdjust="spacing" textLength="71" x="171.5" y="492.2109">:ControlerX</text><rect fill="#E2E2F0" height="32.6211" rx="2.5" ry="2.5" style="stroke:#181818;stroke-width:0.5;" width="92" x="382" y="5"/><text fill="#000000" font-family="sans-serif" font-size="14" lengthAdjust="spacing" textLength="78" x="389" y="27.1074">:AssemblerX</text><rect fill="#E2E2F0" height="32.6211" rx="2.5" ry="2.5" style="stroke:#181818;stroke-width:0.5;" width="92" x="382" y="470.1035"/><text fill="#000000" font-family="sans-serif" font-size="14" lengthAdjust="spacing" textLength="78" x="389" y="492.2109">:AssemblerX</text><rect fill="#E2E2F0" height="32.6211" rx="2.5" ry="2.5" style="stroke:#181818;stroke-width:0.5;" width="178" x="649" y="470.1035"/><text fill="#000000" font-family="sans-serif" font-size="14" lengthAdjust="spacing" textLength="164" x="656" y="492.2109">valueObject:ValueObjectX</text><rect fill="#E2E2F0" height="32.6211" rx="2.5" ry="2.5" style="stroke:#181818;stroke-width:0.5;" width="73" x="837" y="5"/><text fill="#000000" font-family="sans-serif" font-size="14" lengthAdjust="spacing" textLength="59" x="844" y="27.1074">:ServiceX</text><rect fill="#E2E2F0" height="32.6211" rx="2.5" ry="2.5" style="stroke:#181818;stroke-width:0.5;" width="73" x="837" y="470.1035"/><text fill="#000000" font-family="sans-serif" font-size="14" lengthAdjust="spacing" textLength="59" x="844" y="492.2109">:ServiceX</text><rect fill="#E2E2F0" height="32.6211" rx="2.5" ry="2.5" style="stroke:#181818;stroke-width:0.5;" width="74" x="1067.5" y="5"/><text fill="#000000" font-family="sans-serif" font-size="14" lengthAdjust="spacing" textLength="60" x="1074.5" y="27.1074">:FactoryX</text><rect fill="#E2E2F0" height="32.6211" rx="2.5" ry="2.5" style="stroke:#181818;stroke-width:0.5;" width="74" x="1067.5" y="470.1035"/><text fill="#000000" font-family="sans-serif" font-size="14" lengthAdjust="spacing" textLength="60" x="1074.5" y="492.2109">:FactoryX</text><rect fill="#E2E2F0" height="32.6211" rx="2.5" ry="2.5" style="stroke:#181818;stroke-width:0.5;" width="95" x="1310.5" y="470.1035"/><text fill="#000000" font-family="sans-serif" font-size="14" lengthAdjust="spacing" textLength="81" x="1317.5" y="492.2109">entity:EntityX</text><rect fill="#E2E2F0" height="32.6211" rx="2.5" ry="2.5" style="stroke:#181818;stroke-width:0.5;" width="94" x="1415.5" y="5"/><text fill="#000000" font-family="sans-serif" font-size="14" lengthAdjust="spacing" textLength="80" x="1422.5" y="27.1074">:RepositoryX</text><rect fill="#E2E2F0" height="32.6211" rx="2.5" ry="2.5" style="stroke:#181818;stroke-width:0.5;" width="94" x="1415.5" y="470.1035"/><text fill="#000000" font-family="sans-serif" font-size="14" lengthAdjust="spacing" textLength="80" x="1422.5" y="492.2109">:RepositoryX</text><rect fill="#E2E2F0" height="32.6211" rx="2.5" ry="2.5" style="stroke:#181818;stroke-width:0.5;" width="120" x="1519.5" y="470.1035"/><text fill="#000000" font-family="sans-serif" font-size="14" lengthAdjust="spacing" textLength="106" x="1526.5" y="492.2109">entityDTO:XDTO</text><rect fill="#FFFFFF" height="381.1914" style="stroke:#181818;stroke-width:1.0;" width="10" x="202" y="71.9121"/><rect fill="#FFFFFF" height="31.291" style="stroke:#181818;stroke-width:1.0;" width="10" x="423" y="103.2031"/><rect fill="#FFFFFF" height="31.291" style="stroke:#181818;stroke-width:1.0;" width="10" x="423" y="378.1914"/><rect fill="#FFFFFF" height="168.7852" style="stroke:#181818;stroke-width:1.0;" width="10" x="868.5" y="178.1152"/><rect fill="#FFFFFF" height="31.291" style="stroke:#181818;stroke-width:1.0;" width="10" x="1099.5" y="209.4063"/><rect fill="#FFFFFF" height="31.291" style="stroke:#181818;stroke-width:1.0;" width="10" x="1457.5" y="284.3184"/><polygon fill="#181818" points="190,67.9121,200,71.9121,190,75.9121,194,71.9121" style="stroke:#181818;stroke-width:1.0;"/><line style="stroke:#181818;stroke-width:1.0;" x1="16" x2="196" y1="71.9121" y2="71.9121"/><text fill="#000000" font-family="sans-serif" font-size="13" lengthAdjust="spacing" textLength="167" x="23" y="66.6494">1: addEntity(EntityDTO data)</text><polygon fill="#181818" points="411,99.2031,421,103.2031,411,107.2031,415,103.2031" style="stroke:#181818;stroke-width:1.0;"/><line style="stroke:#181818;stroke-width:1.0;" x1="212" x2="417" y1="103.2031" y2="103.2031"/><text fill="#000000" font-family="sans-serif" font-size="13" lengthAdjust="spacing" textLength="192" x="219" y="97.9404">1.1: toValueObject(data.attribute)</text><polygon fill="#181818" points="637,130.4941,647,134.4941,637,138.4941,641,134.4941" style="stroke:#181818;stroke-width:1.0;"/><line style="stroke:#181818;stroke-width:1.0;" x1="428" x2="643" y1="134.4941" y2="134.4941"/><text fill="#000000" font-family="sans-serif" font-size="13" lengthAdjust="spacing" textLength="192" x="435" y="129.2314">1.1.1: ValueObject(data.attribute)</text><rect fill="#E2E2F0" height="32.6211" rx="2.5" ry="2.5" style="stroke:#181818;stroke-width:0.5;" width="178" x="649" y="111.2031"/><text fill="#000000" font-family="sans-serif" font-size="14" lengthAdjust="spacing" textLength="164" x="656" y="133.3105">valueObject:ValueObjectX</text><polygon fill="#181818" points="856.5,174.1152,866.5,178.1152,856.5,182.1152,860.5,178.1152" style="stroke:#181818;stroke-width:1.0;"/><line style="stroke:#181818;stroke-width:1.0;" x1="212" x2="862.5" y1="178.1152" y2="178.1152"/><text fill="#000000" font-family="sans-serif" font-size="13" lengthAdjust="spacing" textLength="176" x="219" y="172.8525">1.2: addEntity(valueObject, ...)</text><polygon fill="#181818" points="1087.5,205.4063,1097.5,209.4063,1087.5,213.4063,1091.5,209.4063" style="stroke:#181818;stroke-width:1.0;"/><line style="stroke:#181818;stroke-width:1.0;" x1="878.5" x2="1093.5" y1="209.4063" y2="209.4063"/><text fill="#000000" font-family="sans-serif" font-size="13" lengthAdjust="spacing" textLength="202" x="885.5" y="204.1436">1.2.1: createEntity(valueObject, ...)</text><polygon fill="#181818" points="1298.5,236.6973,1308.5,240.6973,1298.5,244.6973,1302.5,240.6973" style="stroke:#181818;stroke-width:1.0;"/><line style="stroke:#181818;stroke-width:1.0;" x1="1104.5" x2="1304.5" y1="240.6973" y2="240.6973"/><text fill="#000000" font-family="sans-serif" font-size="13" lengthAdjust="spacing" textLength="177" x="1111.5" y="235.4346">1.2.1.1: Entity(valueObject, ...)</text><rect fill="#E2E2F0" height="32.6211" rx="2.5" ry="2.5" style="stroke:#181818;stroke-width:0.5;" width="95" x="1310.5" y="217.4063"/><text fill="#000000" font-family="sans-serif" font-size="14" lengthAdjust="spacing" textLength="81" x="1317.5" y="239.5137">entity:EntityX</text><polygon fill="#181818" points="1445.5,280.3184,1455.5,284.3184,1445.5,288.3184,1449.5,284.3184" style="stroke:#181818;stroke-width:1.0;"/><line style="stroke:#181818;stroke-width:1.0;" x1="878.5" x2="1451.5" y1="284.3184" y2="284.3184"/><text fill="#000000" font-family="sans-serif" font-size="13" lengthAdjust="spacing" textLength="103" x="885.5" y="279.0557">1.2.2: save(entity)</text><polygon fill="#181818" points="889.5,311.6094,879.5,315.6094,889.5,319.6094,885.5,315.6094" style="stroke:#181818;stroke-width:1.0;"/><line style="stroke:#181818;stroke-width:1.0;" x1="883.5" x2="1461.5" y1="315.6094" y2="315.6094"/><text fill="#000000" font-family="sans-serif" font-size="13" lengthAdjust="spacing" textLength="32" x="895.5" y="310.3467">entity</text><polygon fill="#181818" points="223,342.9004,213,346.9004,223,350.9004,219,346.9004" style="stroke:#181818;stroke-width:1.0;"/><line style="stroke:#181818;stroke-width:1.0;" x1="217" x2="872.5" y1="346.9004" y2="346.9004"/><text fill="#000000" font-family="sans-serif" font-size="13" lengthAdjust="spacing" textLength="32" x="229" y="341.6377">entity</text><polygon fill="#181818" points="411,374.1914,421,378.1914,411,382.1914,415,378.1914" style="stroke:#181818;stroke-width:1.0;"/><line style="stroke:#181818;stroke-width:1.0;" x1="212" x2="417" y1="378.1914" y2="378.1914"/><text fill="#000000" font-family="sans-serif" font-size="13" lengthAdjust="spacing" textLength="103" x="219" y="372.9287">1.3: toDTO(entity)</text><polygon fill="#181818" points="1507.5,405.4824,1517.5,409.4824,1507.5,413.4824,1511.5,409.4824" style="stroke:#181818;stroke-width:1.0;"/><line style="stroke:#181818;stroke-width:1.0;" x1="428" x2="1513.5" y1="409.4824" y2="409.4824"/><text fill="#000000" font-family="sans-serif" font-size="13" lengthAdjust="spacing" textLength="114" x="435" y="404.2197">1.3.1: toDTO(entity)</text><rect fill="#E2E2F0" height="32.6211" rx="2.5" ry="2.5" style="stroke:#181818;stroke-width:0.5;" width="120" x="1519.5" y="386.1914"/><text fill="#000000" font-family="sans-serif" font-size="14" lengthAdjust="spacing" textLength="106" x="1526.5" y="408.2988">entityDTO:XDTO</text><polygon fill="#181818" points="27,449.1035,17,453.1035,27,457.1035,23,453.1035" style="stroke:#181818;stroke-width:1.0;"/><line style="stroke:#181818;stroke-width:1.0;" x1="21" x2="206" y1="453.1035" y2="453.1035"/><text fill="#000000" font-family="sans-serif" font-size="13" lengthAdjust="spacing" textLength="58" x="33" y="447.8408">entityDTO</text><!--SRC=[ZPDDJuGm48Rl_8h64oPAejvwC36wNZVnAtljmXowGI3jBCd-Uplze0Eigmc1Vhppp7JwCYY3kjQ3wb1S2VSeApujc6BW6_Avxz3qBPYTLyHfkz8zMGlV-qatJUUoKRL7sEuFKAFyokCGmnOMy7SmewuXoE9a8NbLDVRc52HnCfT0XnfFSkC_GHV62z8R3BtL6PRdvtWl7rkvSoylfK5HK1V5xIFhbHHtKgYc2VdAJOeKZK9rNRXgzQWGU7Vpa51JEnsfSYpiMRDAebGAqUZz4O7nyYtK1cY1jtZQf0HimwUW99TID70coRpcU4-4k-UdPnwu4LLLiNhJrSOlKU9LUWeL5GxoDofP81uytdHS9N1OYLmY_yfaPqrKLc2sHs2virerGXdimIfYFih3MQD22C_7ObXARgnrJ6hY9Giza8MS0TTLhYpZFJtp2gruI70Yn_p35lHtfB89pKAoy0S0]--></g></svg>