<?xml version="1.0" encoding="us-ascii" standalone="no"?><svg xmlns="http://www.w3.org/2000/svg" xmlns:xlink="http://www.w3.org/1999/xlink" contentStyleType="text/css" height="499px" preserveAspectRatio="none" style="width:1026px;height:499px;background:#FFFFFF;" version="1.1" viewBox="0 0 1026 499" width="1026px" zoomAndPan="magnify"><defs/><g><rect fill="#FFFFFF" height="371.5313" style="stroke:#181818;stroke-width:1.0;" width="10" x="134" y="71.9121"/><rect fill="#FFFFFF" height="308.9492" style="stroke:#181818;stroke-width:1.0;" width="10" x="336" y="103.2031"/><rect fill="#FFFFFF" height="62.582" style="stroke:#181818;stroke-width:1.0;" width="10" x="486" y="134.4941"/><rect fill="#FFFFFF" height="183.7852" style="stroke:#181818;stroke-width:1.0;" width="10" x="589" y="228.3672"/><rect fill="#FFFFFF" height="70.9121" style="stroke:#181818;stroke-width:1.0;" width="10" x="945" y="295.9492"/><rect fill="none" height="138.4941" style="stroke:#000000;stroke-width:1.5;" width="482" x="538" y="243.3672"/><line style="stroke:#181818;stroke-width:0.5;stroke-dasharray:5.0,5.0;" x1="16" x2="16" y1="38.6211" y2="461.4434"/><line style="stroke:#181818;stroke-width:0.5;stroke-dasharray:5.0,5.0;" x1="138.5" x2="138.5" y1="38.6211" y2="461.4434"/><line style="stroke:#181818;stroke-width:0.5;stroke-dasharray:5.0,5.0;" x1="340.5" x2="340.5" y1="38.6211" y2="461.4434"/><line style="stroke:#181818;stroke-width:0.5;stroke-dasharray:5.0,5.0;" x1="491" x2="491" y1="38.6211" y2="461.4434"/><line style="stroke:#181818;stroke-width:0.5;stroke-dasharray:5.0,5.0;" x1="594" x2="594" y1="38.6211" y2="461.4434"/><line style="stroke:#181818;stroke-width:0.5;stroke-dasharray:5.0,5.0;" x1="950" x2="950" y1="294.4688" y2="461.4434"/><rect fill="#E2E2F0" height="32.6211" rx="2.5" ry="2.5" style="stroke:#181818;stroke-width:0.5;" width="22" x="5" y="5"/><text fill="#000000" font-family="sans-serif" font-size="14" lengthAdjust="spacing" textLength="8" x="12" y="27.1074">&#160;&#160;</text><rect fill="#E2E2F0" height="32.6211" rx="2.5" ry="2.5" style="stroke:#181818;stroke-width:0.5;" width="22" x="5" y="460.4434"/><text fill="#000000" font-family="sans-serif" font-size="14" lengthAdjust="spacing" textLength="8" x="12" y="482.5508">&#160;&#160;</text><rect fill="#E2E2F0" height="32.6211" rx="2.5" ry="2.5" style="stroke:#181818;stroke-width:0.5;" width="85" x="96.5" y="5"/><text fill="#000000" font-family="sans-serif" font-size="14" lengthAdjust="spacing" textLength="71" x="103.5" y="27.1074">:ControlerX</text><rect fill="#E2E2F0" height="32.6211" rx="2.5" ry="2.5" style="stroke:#181818;stroke-width:0.5;" width="85" x="96.5" y="460.4434"/><text fill="#000000" font-family="sans-serif" font-size="14" lengthAdjust="spacing" textLength="71" x="103.5" y="482.5508">:ControlerX</text><rect fill="#E2E2F0" height="32.6211" rx="2.5" ry="2.5" style="stroke:#181818;stroke-width:0.5;" width="73" x="304.5" y="5"/><text fill="#000000" font-family="sans-serif" font-size="14" lengthAdjust="spacing" textLength="59" x="311.5" y="27.1074">:ServiceX</text><rect fill="#E2E2F0" height="32.6211" rx="2.5" ry="2.5" style="stroke:#181818;stroke-width:0.5;" width="73" x="304.5" y="460.4434"/><text fill="#000000" font-family="sans-serif" font-size="14" lengthAdjust="spacing" textLength="59" x="311.5" y="482.5508">:ServiceX</text><rect fill="#E2E2F0" height="32.6211" rx="2.5" ry="2.5" style="stroke:#181818;stroke-width:0.5;" width="94" x="444" y="5"/><text fill="#000000" font-family="sans-serif" font-size="14" lengthAdjust="spacing" textLength="80" x="451" y="27.1074">:RepositoryX</text><rect fill="#E2E2F0" height="32.6211" rx="2.5" ry="2.5" style="stroke:#181818;stroke-width:0.5;" width="94" x="444" y="460.4434"/><text fill="#000000" font-family="sans-serif" font-size="14" lengthAdjust="spacing" textLength="80" x="451" y="482.5508">:RepositoryX</text><rect fill="#E2E2F0" height="32.6211" rx="2.5" ry="2.5" style="stroke:#181818;stroke-width:0.5;" width="92" x="548" y="5"/><text fill="#000000" font-family="sans-serif" font-size="14" lengthAdjust="spacing" textLength="78" x="555" y="27.1074">:AssemblerX</text><rect fill="#E2E2F0" height="32.6211" rx="2.5" ry="2.5" style="stroke:#181818;stroke-width:0.5;" width="92" x="548" y="460.4434"/><text fill="#000000" font-family="sans-serif" font-size="14" lengthAdjust="spacing" textLength="78" x="555" y="482.5508">:AssemblerX</text><rect fill="#E2E2F0" height="32.6211" rx="2.5" ry="2.5" style="stroke:#181818;stroke-width:0.5;" width="120" x="890" y="460.4434"/><text fill="#000000" font-family="sans-serif" font-size="14" lengthAdjust="spacing" textLength="106" x="897" y="482.5508">entityDTO:XDTO</text><rect fill="#FFFFFF" height="371.5313" style="stroke:#181818;stroke-width:1.0;" width="10" x="134" y="71.9121"/><rect fill="#FFFFFF" height="308.9492" style="stroke:#181818;stroke-width:1.0;" width="10" x="336" y="103.2031"/><rect fill="#FFFFFF" height="62.582" style="stroke:#181818;stroke-width:1.0;" width="10" x="486" y="134.4941"/><rect fill="#FFFFFF" height="183.7852" style="stroke:#181818;stroke-width:1.0;" width="10" x="589" y="228.3672"/><rect fill="#FFFFFF" height="70.9121" style="stroke:#181818;stroke-width:1.0;" width="10" x="945" y="295.9492"/><polygon fill="#181818" points="122,67.9121,132,71.9121,122,75.9121,126,71.9121" style="stroke:#181818;stroke-width:1.0;"/><line style="stroke:#181818;stroke-width:1.0;" x1="16" x2="128" y1="71.9121" y2="71.9121"/><text fill="#000000" font-family="sans-serif" font-size="13" lengthAdjust="spacing" textLength="99" x="23" y="66.6494">1: getAllEntity's()</text><polygon fill="#181818" points="324,99.2031,334,103.2031,324,107.2031,328,103.2031" style="stroke:#181818;stroke-width:1.0;"/><line style="stroke:#181818;stroke-width:1.0;" x1="144" x2="330" y1="103.2031" y2="103.2031"/><text fill="#000000" font-family="sans-serif" font-size="13" lengthAdjust="spacing" textLength="173" x="151" y="97.9404">1.1: getAllEntity's(): ListEntity</text><polygon fill="#181818" points="474,130.4941,484,134.4941,474,138.4941,478,134.4941" style="stroke:#181818;stroke-width:1.0;"/><line style="stroke:#181818;stroke-width:1.0;" x1="346" x2="480" y1="134.4941" y2="134.4941"/><text fill="#000000" font-family="sans-serif" font-size="13" lengthAdjust="spacing" textLength="121" x="353" y="129.2314">1.1.1: getAllEntity's()</text><polygon fill="#181818" points="357,161.7852,347,165.7852,357,169.7852,353,165.7852" style="stroke:#181818;stroke-width:1.0;"/><line style="stroke:#181818;stroke-width:1.0;stroke-dasharray:2.0,2.0;" x1="351" x2="485" y1="165.7852" y2="165.7852"/><text fill="#000000" font-family="sans-serif" font-size="13" lengthAdjust="spacing" textLength="51" x="363" y="160.5225">listEntity</text><polygon fill="#181818" points="155,193.0762,145,197.0762,155,201.0762,151,197.0762" style="stroke:#181818;stroke-width:1.0;"/><line style="stroke:#181818;stroke-width:1.0;stroke-dasharray:2.0,2.0;" x1="149" x2="335" y1="197.0762" y2="197.0762"/><text fill="#000000" font-family="sans-serif" font-size="13" lengthAdjust="spacing" textLength="51" x="161" y="191.8135">listEntity</text><polygon fill="#181818" points="577,224.3672,587,228.3672,577,232.3672,581,228.3672" style="stroke:#181818;stroke-width:1.0;"/><line style="stroke:#181818;stroke-width:1.0;" x1="144" x2="583" y1="228.3672" y2="228.3672"/><text fill="#000000" font-family="sans-serif" font-size="13" lengthAdjust="spacing" textLength="167" x="151" y="223.1045">1.2: domainToDTO(listEntity)</text><path d="M538,243.3672 L611,243.3672 L611,252.6582 L601,262.6582 L538,262.6582 L538,243.3672 " fill="#EEEEEE" style="stroke:#000000;stroke-width:1.5;"/><rect fill="none" height="138.4941" style="stroke:#000000;stroke-width:1.5;" width="482" x="538" y="243.3672"/><text fill="#000000" font-family="sans-serif" font-size="13" font-weight="bold" lengthAdjust="spacing" textLength="28" x="553" y="258.3955">loop</text><polygon fill="#181818" points="878,281.9492,888,285.9492,878,289.9492,882,285.9492" style="stroke:#181818;stroke-width:1.0;"/><line style="stroke:#181818;stroke-width:1.0;" x1="599" x2="884" y1="285.9492" y2="285.9492"/><text fill="#000000" font-family="sans-serif" font-size="13" lengthAdjust="spacing" textLength="267" x="606" y="280.6865">1.2.1: domainToDTO(listEntity): ListEntityDTO</text><rect fill="#E2E2F0" height="32.6211" rx="2.5" ry="2.5" style="stroke:#181818;stroke-width:0.5;" width="120" x="890" y="262.6582"/><text fill="#000000" font-family="sans-serif" font-size="14" lengthAdjust="spacing" textLength="106" x="897" y="284.7656">entityDTO:XDTO</text><polygon fill="#181818" points="610,325.5703,600,329.5703,610,333.5703,606,329.5703" style="stroke:#181818;stroke-width:1.0;"/><line style="stroke:#181818;stroke-width:1.0;stroke-dasharray:2.0,2.0;" x1="604" x2="944" y1="329.5703" y2="329.5703"/><text fill="#000000" font-family="sans-serif" font-size="13" lengthAdjust="spacing" textLength="58" x="616" y="324.3076">entityDTO</text><line style="stroke:#181818;stroke-width:1.0;" x1="599" x2="641" y1="365.8613" y2="365.8613"/><line style="stroke:#181818;stroke-width:1.0;" x1="641" x2="641" y1="365.8613" y2="378.8613"/><line style="stroke:#181818;stroke-width:1.0;" x1="594" x2="641" y1="378.8613" y2="378.8613"/><polygon fill="#181818" points="604,374.8613,594,378.8613,604,382.8613,600,378.8613" style="stroke:#181818;stroke-width:1.0;"/><text fill="#000000" font-family="sans-serif" font-size="13" lengthAdjust="spacing" textLength="122" x="606" y="360.5986">addToList(entityDTO)</text><polygon fill="#181818" points="155,408.1523,145,412.1523,155,416.1523,151,412.1523" style="stroke:#181818;stroke-width:1.0;"/><line style="stroke:#181818;stroke-width:1.0;stroke-dasharray:2.0,2.0;" x1="149" x2="593" y1="412.1523" y2="412.1523"/><text fill="#000000" font-family="sans-serif" font-size="13" lengthAdjust="spacing" textLength="77" x="161" y="406.8896">listEntityDTO</text><polygon fill="#181818" points="27,439.4434,17,443.4434,27,447.4434,23,443.4434" style="stroke:#181818;stroke-width:1.0;"/><line style="stroke:#181818;stroke-width:1.0;stroke-dasharray:2.0,2.0;" x1="21" x2="138" y1="443.4434" y2="443.4434"/><text fill="#000000" font-family="sans-serif" font-size="13" lengthAdjust="spacing" textLength="77" x="33" y="438.1807">listEntityDTO</text><!--SRC=[VLB1QWCX4Btx5T9BDuS4qgE7GcXpAnJIBUHgrw48HaKbaB-lusvqTfi4TbT7txoPzsQz34aFsakR-1FFZupyEq9Wdbw8DsTJS0R2iI2cqFp3VK4uwm56r1Gi80VmBkhamcL4jNW1tCK8fvzQiuPp6DYaq-Mz_nJ7_2d8l3B6K0LVlv9U1TyA_WjfPyo-P3t7RiNaaFHP9g2YsXOP9XqvVNE3GF0F7TCODxAhzcb5cYQqC6qUDaDSQLk-fjsOLhPMMUWb40MtkET2gyNOu8lWofsajhtBXdQDYdJPPZ84m0EqtZZdMRr1NfmECgBaEvpKHIIf9J38Rv56-gjZdrSY2AbKxv2qgzWLTG5pmIgQVzSzn9BK9fiSNYTEBSs4-1i-e28_tHy0]--></g></svg>