<?xml version="1.0" encoding="us-ascii" standalone="no"?><svg xmlns="http://www.w3.org/2000/svg" xmlns:xlink="http://www.w3.org/1999/xlink" contentStyleType="text/css" height="496px" preserveAspectRatio="none" style="width:1300px;height:496px;background:#FFFFFF;" version="1.1" viewBox="0 0 1300 496" width="1300px" zoomAndPan="magnify"><defs/><g><rect fill="#FFFFFF" height="368.8613" style="stroke:#181818;stroke-width:1.0;" width="10" x="261" y="71.9121"/><rect fill="#FFFFFF" height="33.6211" style="stroke:#181818;stroke-width:1.0;" width="10" x="518.5" y="113.2031"/><rect fill="#FFFFFF" height="93.873" style="stroke:#181818;stroke-width:1.0;" width="10" x="642.5" y="178.1152"/><rect fill="#FFFFFF" height="31.291" style="stroke:#181818;stroke-width:1.0;" width="10" x="812.5" y="209.4063"/><rect fill="#FFFFFF" height="106.2031" style="stroke:#181818;stroke-width:1.0;" width="10" x="915.5" y="303.2793"/><rect fill="#FFFFFF" height="33.6211" style="stroke:#181818;stroke-width:1.0;" width="10" x="1229.5" y="344.5703"/><line style="stroke:#181818;stroke-width:0.5;stroke-dasharray:5.0,5.0;" x1="16" x2="16" y1="38.6211" y2="458.7734"/><line style="stroke:#181818;stroke-width:0.5;stroke-dasharray:5.0,5.0;" x1="265.5" x2="265.5" y1="38.6211" y2="458.7734"/><line style="stroke:#181818;stroke-width:0.5;stroke-dasharray:5.0,5.0;" x1="523" x2="523" y1="111.7227" y2="458.7734"/><line style="stroke:#181818;stroke-width:0.5;stroke-dasharray:5.0,5.0;" x1="647" x2="647" y1="38.6211" y2="458.7734"/><line style="stroke:#181818;stroke-width:0.5;stroke-dasharray:5.0,5.0;" x1="817.5" x2="817.5" y1="38.6211" y2="458.7734"/><line style="stroke:#181818;stroke-width:0.5;stroke-dasharray:5.0,5.0;" x1="920.5" x2="920.5" y1="38.6211" y2="458.7734"/><line style="stroke:#181818;stroke-width:0.5;stroke-dasharray:5.0,5.0;" x1="1234.5" x2="1234.5" y1="343.0898" y2="458.7734"/><rect fill="#E2E2F0" height="32.6211" rx="2.5" ry="2.5" style="stroke:#181818;stroke-width:0.5;" width="22" x="5" y="5"/><text fill="#000000" font-family="sans-serif" font-size="14" lengthAdjust="spacing" textLength="8" x="12" y="27.1074">&#160;&#160;</text><rect fill="#E2E2F0" height="32.6211" rx="2.5" ry="2.5" style="stroke:#181818;stroke-width:0.5;" width="22" x="5" y="457.7734"/><text fill="#000000" font-family="sans-serif" font-size="14" lengthAdjust="spacing" textLength="8" x="12" y="479.8809">&#160;&#160;</text><rect fill="#E2E2F0" height="32.6211" rx="2.5" ry="2.5" style="stroke:#181818;stroke-width:0.5;" width="85" x="223.5" y="5"/><text fill="#000000" font-family="sans-serif" font-size="14" lengthAdjust="spacing" textLength="71" x="230.5" y="27.1074">:ControlerX</text><rect fill="#E2E2F0" height="32.6211" rx="2.5" ry="2.5" style="stroke:#181818;stroke-width:0.5;" width="85" x="223.5" y="457.7734"/><text fill="#000000" font-family="sans-serif" font-size="14" lengthAdjust="spacing" textLength="71" x="230.5" y="479.8809">:ControlerX</text><rect fill="#E2E2F0" height="32.6211" rx="2.5" ry="2.5" style="stroke:#181818;stroke-width:0.5;" width="155" x="446" y="457.7734"/><text fill="#000000" font-family="sans-serif" font-size="14" lengthAdjust="spacing" textLength="141" x="453" y="479.8809">entityID:ValueObjectID</text><rect fill="#E2E2F0" height="32.6211" rx="2.5" ry="2.5" style="stroke:#181818;stroke-width:0.5;" width="73" x="611" y="5"/><text fill="#000000" font-family="sans-serif" font-size="14" lengthAdjust="spacing" textLength="59" x="618" y="27.1074">:ServiceX</text><rect fill="#E2E2F0" height="32.6211" rx="2.5" ry="2.5" style="stroke:#181818;stroke-width:0.5;" width="73" x="611" y="457.7734"/><text fill="#000000" font-family="sans-serif" font-size="14" lengthAdjust="spacing" textLength="59" x="618" y="479.8809">:ServiceX</text><rect fill="#E2E2F0" height="32.6211" rx="2.5" ry="2.5" style="stroke:#181818;stroke-width:0.5;" width="94" x="770.5" y="5"/><text fill="#000000" font-family="sans-serif" font-size="14" lengthAdjust="spacing" textLength="80" x="777.5" y="27.1074">:RepositoryX</text><rect fill="#E2E2F0" height="32.6211" rx="2.5" ry="2.5" style="stroke:#181818;stroke-width:0.5;" width="94" x="770.5" y="457.7734"/><text fill="#000000" font-family="sans-serif" font-size="14" lengthAdjust="spacing" textLength="80" x="777.5" y="479.8809">:RepositoryX</text><rect fill="#E2E2F0" height="32.6211" rx="2.5" ry="2.5" style="stroke:#181818;stroke-width:0.5;" width="92" x="874.5" y="5"/><text fill="#000000" font-family="sans-serif" font-size="14" lengthAdjust="spacing" textLength="78" x="881.5" y="27.1074">:AssemblerX</text><rect fill="#E2E2F0" height="32.6211" rx="2.5" ry="2.5" style="stroke:#181818;stroke-width:0.5;" width="92" x="874.5" y="457.7734"/><text fill="#000000" font-family="sans-serif" font-size="14" lengthAdjust="spacing" textLength="78" x="881.5" y="479.8809">:AssemblerX</text><rect fill="#E2E2F0" height="32.6211" rx="2.5" ry="2.5" style="stroke:#181818;stroke-width:0.5;" width="120" x="1174.5" y="457.7734"/><text fill="#000000" font-family="sans-serif" font-size="14" lengthAdjust="spacing" textLength="106" x="1181.5" y="479.8809">entityDTO:XDTO</text><rect fill="#FFFFFF" height="368.8613" style="stroke:#181818;stroke-width:1.0;" width="10" x="261" y="71.9121"/><rect fill="#FFFFFF" height="33.6211" style="stroke:#181818;stroke-width:1.0;" width="10" x="518.5" y="113.2031"/><rect fill="#FFFFFF" height="93.873" style="stroke:#181818;stroke-width:1.0;" width="10" x="642.5" y="178.1152"/><rect fill="#FFFFFF" height="31.291" style="stroke:#181818;stroke-width:1.0;" width="10" x="812.5" y="209.4063"/><rect fill="#FFFFFF" height="106.2031" style="stroke:#181818;stroke-width:1.0;" width="10" x="915.5" y="303.2793"/><rect fill="#FFFFFF" height="33.6211" style="stroke:#181818;stroke-width:1.0;" width="10" x="1229.5" y="344.5703"/><polygon fill="#181818" points="249,67.9121,259,71.9121,249,75.9121,253,71.9121" style="stroke:#181818;stroke-width:1.0;"/><line style="stroke:#181818;stroke-width:1.0;" x1="16" x2="255" y1="71.9121" y2="71.9121"/><text fill="#000000" font-family="sans-serif" font-size="13" lengthAdjust="spacing" textLength="226" x="23" y="66.6494">1: getEntityByID(DTO data): EntityDTO</text><polygon fill="#181818" points="434,99.2031,444,103.2031,434,107.2031,438,103.2031" style="stroke:#181818;stroke-width:1.0;"/><line style="stroke:#181818;stroke-width:1.0;" x1="271" x2="440" y1="103.2031" y2="103.2031"/><text fill="#000000" font-family="sans-serif" font-size="13" lengthAdjust="spacing" textLength="151" x="278" y="97.9404">1.1: createValueObject(id)</text><rect fill="#E2E2F0" height="32.6211" rx="2.5" ry="2.5" style="stroke:#181818;stroke-width:0.5;" width="155" x="446" y="79.9121"/><text fill="#000000" font-family="sans-serif" font-size="14" lengthAdjust="spacing" textLength="141" x="453" y="102.0195">entityID:ValueObjectID</text><polygon fill="#181818" points="282,142.8242,272,146.8242,282,150.8242,278,146.8242" style="stroke:#181818;stroke-width:1.0;"/><line style="stroke:#181818;stroke-width:1.0;stroke-dasharray:2.0,2.0;" x1="276" x2="522.5" y1="146.8242" y2="146.8242"/><text fill="#000000" font-family="sans-serif" font-size="13" lengthAdjust="spacing" textLength="44" x="288" y="141.5615">entityID</text><polygon fill="#181818" points="630.5,174.1152,640.5,178.1152,630.5,182.1152,634.5,178.1152" style="stroke:#181818;stroke-width:1.0;"/><line style="stroke:#181818;stroke-width:1.0;" x1="271" x2="636.5" y1="178.1152" y2="178.1152"/><text fill="#000000" font-family="sans-serif" font-size="13" lengthAdjust="spacing" textLength="202" x="278" y="172.8525">1.2: getEntity(String id): EntityDTO</text><polygon fill="#181818" points="800.5,205.4063,810.5,209.4063,800.5,213.4063,804.5,209.4063" style="stroke:#181818;stroke-width:1.0;"/><line style="stroke:#181818;stroke-width:1.0;" x1="652.5" x2="806.5" y1="209.4063" y2="209.4063"/><text fill="#000000" font-family="sans-serif" font-size="13" lengthAdjust="spacing" textLength="141" x="659.5" y="204.1436">1.2.1: getEntity(entityID)</text><polygon fill="#181818" points="663.5,236.6973,653.5,240.6973,663.5,244.6973,659.5,240.6973" style="stroke:#181818;stroke-width:1.0;"/><line style="stroke:#181818;stroke-width:1.0;stroke-dasharray:2.0,2.0;" x1="657.5" x2="816.5" y1="240.6973" y2="240.6973"/><text fill="#000000" font-family="sans-serif" font-size="13" lengthAdjust="spacing" textLength="32" x="669.5" y="235.4346">entity</text><polygon fill="#181818" points="282,267.9883,272,271.9883,282,275.9883,278,271.9883" style="stroke:#181818;stroke-width:1.0;"/><line style="stroke:#181818;stroke-width:1.0;stroke-dasharray:2.0,2.0;" x1="276" x2="646.5" y1="271.9883" y2="271.9883"/><text fill="#000000" font-family="sans-serif" font-size="13" lengthAdjust="spacing" textLength="32" x="288" y="266.7256">entity</text><polygon fill="#181818" points="903.5,299.2793,913.5,303.2793,903.5,307.2793,907.5,303.2793" style="stroke:#181818;stroke-width:1.0;"/><line style="stroke:#181818;stroke-width:1.0;" x1="271" x2="909.5" y1="303.2793" y2="303.2793"/><text fill="#000000" font-family="sans-serif" font-size="13" lengthAdjust="spacing" textLength="148" x="278" y="298.0166">1.3: domainToDTO(entity)</text><polygon fill="#181818" points="1162.5,330.5703,1172.5,334.5703,1162.5,338.5703,1166.5,334.5703" style="stroke:#181818;stroke-width:1.0;"/><line style="stroke:#181818;stroke-width:1.0;" x1="925.5" x2="1168.5" y1="334.5703" y2="334.5703"/><text fill="#000000" font-family="sans-serif" font-size="13" lengthAdjust="spacing" textLength="225" x="932.5" y="329.3076">1.3.1: domainToDTO(entity): entityDTO</text><rect fill="#E2E2F0" height="32.6211" rx="2.5" ry="2.5" style="stroke:#181818;stroke-width:0.5;" width="120" x="1174.5" y="311.2793"/><text fill="#000000" font-family="sans-serif" font-size="14" lengthAdjust="spacing" textLength="106" x="1181.5" y="333.3867">entityDTO:XDTO</text><polygon fill="#181818" points="936.5,374.1914,926.5,378.1914,936.5,382.1914,932.5,378.1914" style="stroke:#181818;stroke-width:1.0;"/><line style="stroke:#181818;stroke-width:1.0;stroke-dasharray:2.0,2.0;" x1="930.5" x2="1233.5" y1="378.1914" y2="378.1914"/><text fill="#000000" font-family="sans-serif" font-size="13" lengthAdjust="spacing" textLength="58" x="942.5" y="372.9287">entityDTO</text><polygon fill="#181818" points="282,405.4824,272,409.4824,282,413.4824,278,409.4824" style="stroke:#181818;stroke-width:1.0;"/><line style="stroke:#181818;stroke-width:1.0;stroke-dasharray:2.0,2.0;" x1="276" x2="919.5" y1="409.4824" y2="409.4824"/><text fill="#000000" font-family="sans-serif" font-size="13" lengthAdjust="spacing" textLength="58" x="288" y="404.2197">entityDTO</text><polygon fill="#181818" points="27,436.7734,17,440.7734,27,444.7734,23,440.7734" style="stroke:#181818;stroke-width:1.0;"/><line style="stroke:#181818;stroke-width:1.0;stroke-dasharray:2.0,2.0;" x1="21" x2="265" y1="440.7734" y2="440.7734"/><text fill="#000000" font-family="sans-serif" font-size="13" lengthAdjust="spacing" textLength="58" x="33" y="435.5107">entityDTO</text><!--SRC=[TLAnRiCW4Dtv2jJ96HAfxSPGgQqpP8hKf5LMOfyY8iTOc4RAtvV36Cw8IfRXuDwxzxWRfB6gKOFiBN_YxfCZ_nx1i85UY4_TMwCxC2UV4S8kpuFUAllOrU97Th-mFr-XiRlQGyW9oyWFOEwgWOaw15dA5mnwL5QRnvILuYpnVHpXTev2OrZIMH_tukH-FjEjZ36qpjTlnA3Wpu9Vm6uzvCEPgrmgRwMLAy6tCn6JZLLtQO6-3MiCuD72Uxh7GkJALTguMXE6d5UgNILwoaNsV9sfdbl1MYXYbpB2gwE45sAtEbYZ-Wjt2efUvsQ55PbIPppPXhvUDOiYVaWdqzQxYPec53L2GB5qqJy5pM8pwt54KE-huAs-ITKVjJCQz1ArQPv2Q_tOn5Famwb29dHUu9gLBTuH0vogzL9FoYGsyef5tnacoQRU7HBd_HyCcUC_]--></g></svg>