<?xml version="1.0" encoding="us-ascii" standalone="no"?><svg xmlns="http://www.w3.org/2000/svg" xmlns:xlink="http://www.w3.org/1999/xlink" contentStyleType="text/css" height="1070px" preserveAspectRatio="none" style="width:1610px;height:1070px;background:#FFFFFF;" version="1.1" viewBox="0 0 1610 1070" width="1610px" zoomAndPan="magnify"><defs/><g><!--cluster domain--><g id="cluster_domain"><path d="M16.5,4 L68.5,4 A3.75,3.75 0 0 1 71,6.5 L78,28.6211 L1600.5,28.6211 A2.5,2.5 0 0 1 1603,31.1211 L1603,1060.5 A2.5,2.5 0 0 1 1600.5,1063 L16.5,1063 A2.5,2.5 0 0 1 14,1060.5 L14,6.5 A2.5,2.5 0 0 1 16.5,4 " fill="none" style="stroke:#000000;stroke-width:1.5;"/><line style="stroke:#000000;stroke-width:1.5;" x1="14" x2="78" y1="28.6211" y2="28.6211"/><text fill="#000000" font-family="sans-serif" font-size="14" font-weight="bold" lengthAdjust="spacing" textLength="51" x="18" y="21.1074">domain</text></g><!--cluster Sensor--><g id="cluster_Sensor"><path d="M24.5,33 L75.5,33 A3.75,3.75 0 0 1 78,35.5 L85,57.6211 L1592.5,57.6211 A2.5,2.5 0 0 1 1595,60.1211 L1595,778.5 A2.5,2.5 0 0 1 1592.5,781 L24.5,781 A2.5,2.5 0 0 1 22,778.5 L22,35.5 A2.5,2.5 0 0 1 24.5,33 " fill="none" style="stroke:#000000;stroke-width:1.5;"/><line style="stroke:#000000;stroke-width:1.5;" x1="22" x2="85" y1="57.6211" y2="57.6211"/><text fill="#000000" font-family="sans-serif" font-size="14" font-weight="bold" lengthAdjust="spacing" textLength="50" x="26" y="50.1074">Sensor</text></g><!--cluster ElectricConsumptionWhSensor--><g id="cluster_ElectricConsumptionWhSensor"><path d="M298.5,174 L517.5,174 A3.75,3.75 0 0 1 520,176.5 L527,198.6211 L1584.5,198.6211 A2.5,2.5 0 0 1 1587,201.1211 L1587,747.5 A2.5,2.5 0 0 1 1584.5,750 L298.5,750 A2.5,2.5 0 0 1 296,747.5 L296,176.5 A2.5,2.5 0 0 1 298.5,174 " fill="none" style="stroke:#000000;stroke-width:1.5;"/><line style="stroke:#000000;stroke-width:1.5;" x1="296" x2="527" y1="198.6211" y2="198.6211"/><text fill="#000000" font-family="sans-serif" font-size="14" font-weight="bold" lengthAdjust="spacing" textLength="218" x="300" y="191.1074">ElectricConsumptionWhSensor</text></g><!--cluster ddd--><g id="cluster_ddd"><path d="M614.5,800 L642.5,800 A3.75,3.75 0 0 1 645,802.5 L652,824.6211 L868.5,824.6211 A2.5,2.5 0 0 1 871,827.1211 L871,1052.5 A2.5,2.5 0 0 1 868.5,1055 L614.5,1055 A2.5,2.5 0 0 1 612,1052.5 L612,802.5 A2.5,2.5 0 0 1 614.5,800 " fill="none" style="stroke:#000000;stroke-width:1.5;"/><line style="stroke:#000000;stroke-width:1.5;" x1="612" x2="652" y1="824.6211" y2="824.6211"/><text fill="#000000" font-family="sans-serif" font-size="14" font-weight="bold" lengthAdjust="spacing" textLength="27" x="616" y="817.1074">ddd</text></g><!--class FactorySensor--><g id="elem_FactorySensor"><rect codeLine="4" fill="#F1F1F1" height="66.6211" id="FactorySensor" rx="2.5" ry="2.5" style="stroke:#181818;stroke-width:0.5;" width="258" x="30" y="338"/><ellipse cx="108.25" cy="354" fill="#B4A7E5" rx="11" ry="11" style="stroke:#181818;stroke-width:1.0;"/><path d="M109.2031,350.6406 L109.2031,357.2969 L110.9219,357.2969 Q111.5313,357.2969 111.7969,357.5313 Q112.0625,357.7656 112.0625,358.1563 Q112.0625,358.5313 111.7969,358.7656 Q111.5313,359 110.9219,359 L105.7813,359 Q105.1719,359 104.9063,358.7656 Q104.6406,358.5313 104.6406,358.1406 Q104.6406,357.7656 104.9063,357.5313 Q105.1719,357.2969 105.7813,357.2969 L107.5,357.2969 L107.5,350.6406 L105.7813,350.6406 Q105.1719,350.6406 104.9063,350.4063 Q104.6406,350.1719 104.6406,349.7813 Q104.6406,349.4063 104.9063,349.1719 Q105.1719,348.9375 105.7813,348.9375 L110.9219,348.9375 Q111.5313,348.9375 111.7969,349.1719 Q112.0625,349.4063 112.0625,349.7813 Q112.0625,350.1719 111.7969,350.4063 Q111.5313,350.6406 110.9219,350.6406 L109.2031,350.6406 Z " fill="#000000"/><text fill="#000000" font-family="sans-serif" font-size="14" font-style="italic" lengthAdjust="spacing" textLength="93" x="128.75" y="359.7969">FactorySensor</text><line style="stroke:#181818;stroke-width:0.5;" x1="31" x2="287" y1="370" y2="370"/><line style="stroke:#181818;stroke-width:0.5;" x1="31" x2="287" y1="378" y2="378"/><ellipse cx="41" cy="392.8105" fill="#84BE84" rx="3" ry="3" style="stroke:#038048;stroke-width:1.0;"/><text fill="#000000" font-family="sans-serif" font-size="14" lengthAdjust="spacing" textLength="232" x="50" y="397.1074">create(Object... parameters): Sensor</text></g><!--class ImplFactorySensor--><g id="elem_ImplFactorySensor"><rect codeLine="8" fill="#F1F1F1" height="66.6211" id="ImplFactorySensor" rx="2.5" ry="2.5" style="stroke:#181818;stroke-width:0.5;" width="258" x="368" y="62"/><ellipse cx="433.75" cy="78" fill="#ADD1B2" rx="11" ry="11" style="stroke:#181818;stroke-width:1.0;"/><path d="M436.5156,73.875 Q436.6719,73.6563 436.8594,73.5469 Q437.0469,73.4375 437.2656,73.4375 Q437.6406,73.4375 437.875,73.7031 Q438.1094,73.9531 438.1094,74.5625 L438.1094,76.0156 Q438.1094,76.625 437.875,76.8906 Q437.6406,77.1563 437.2656,77.1563 Q436.9219,77.1563 436.7188,76.9531 Q436.5156,76.7656 436.4063,76.25 Q436.3594,75.8906 436.1719,75.7031 Q435.8438,75.3281 435.2344,75.1094 Q434.625,74.8906 434,74.8906 Q433.2344,74.8906 432.5938,75.2188 Q431.9688,75.5469 431.4688,76.2969 Q430.9844,77.0469 430.9844,78.0781 L430.9844,79.1719 Q430.9844,80.4063 431.875,81.2344 Q432.7656,82.0469 434.3594,82.0469 Q435.2969,82.0469 435.9531,81.7969 Q436.3438,81.6406 436.7656,81.2031 Q437.0313,80.9375 437.1719,80.8594 Q437.3281,80.7813 437.5313,80.7813 Q437.8594,80.7813 438.1094,81.0469 Q438.375,81.2969 438.375,81.6406 Q438.375,81.9844 438.0313,82.3906 Q437.5313,82.9688 436.7344,83.2969 Q435.6563,83.75 434.3594,83.75 Q432.8438,83.75 431.6406,83.125 Q430.6563,82.625 429.9688,81.5625 Q429.2813,80.4844 429.2813,79.2031 L429.2813,78.0469 Q429.2813,76.7188 429.8906,75.5781 Q430.5156,74.4219 431.6094,73.8125 Q432.7031,73.1875 433.9375,73.1875 Q434.6719,73.1875 435.3125,73.3594 Q435.9688,73.5156 436.5156,73.875 Z " fill="#000000"/><text fill="#000000" font-family="sans-serif" font-size="14" lengthAdjust="spacing" textLength="118" x="454.25" y="83.7969">ImplFactorySensor</text><line style="stroke:#181818;stroke-width:0.5;" x1="369" x2="625" y1="94" y2="94"/><line style="stroke:#181818;stroke-width:0.5;" x1="369" x2="625" y1="102" y2="102"/><ellipse cx="379" cy="116.8105" fill="#84BE84" rx="3" ry="3" style="stroke:#038048;stroke-width:1.0;"/><text fill="#000000" font-family="sans-serif" font-size="14" lengthAdjust="spacing" textLength="232" x="388" y="121.1074">create(Object... parameters): Sensor</text></g><!--class Sensor--><g id="elem_Sensor"><rect codeLine="12" fill="#F1F1F1" height="178.3477" id="Sensor" rx="2.5" ry="2.5" style="stroke:#181818;stroke-width:0.5;" width="244" x="42" y="595"/><ellipse cx="137.25" cy="611" fill="#B4A7E5" rx="11" ry="11" style="stroke:#181818;stroke-width:1.0;"/><path d="M138.2031,607.6406 L138.2031,614.2969 L139.9219,614.2969 Q140.5313,614.2969 140.7969,614.5313 Q141.0625,614.7656 141.0625,615.1563 Q141.0625,615.5313 140.7969,615.7656 Q140.5313,616 139.9219,616 L134.7813,616 Q134.1719,616 133.9063,615.7656 Q133.6406,615.5313 133.6406,615.1406 Q133.6406,614.7656 133.9063,614.5313 Q134.1719,614.2969 134.7813,614.2969 L136.5,614.2969 L136.5,607.6406 L134.7813,607.6406 Q134.1719,607.6406 133.9063,607.4063 Q133.6406,607.1719 133.6406,606.7813 Q133.6406,606.4063 133.9063,606.1719 Q134.1719,605.9375 134.7813,605.9375 L139.9219,605.9375 Q140.5313,605.9375 140.7969,606.1719 Q141.0625,606.4063 141.0625,606.7813 Q141.0625,607.1719 140.7969,607.4063 Q140.5313,607.6406 139.9219,607.6406 L138.2031,607.6406 Z " fill="#000000"/><text fill="#000000" font-family="sans-serif" font-size="14" font-style="italic" lengthAdjust="spacing" textLength="45" x="157.75" y="616.7969">Sensor</text><line style="stroke:#181818;stroke-width:0.5;" x1="43" x2="285" y1="627" y2="627"/><line style="stroke:#181818;stroke-width:0.5;" x1="43" x2="285" y1="635" y2="635"/><ellipse cx="53" cy="649.8105" fill="#84BE84" rx="3" ry="3" style="stroke:#038048;stroke-width:1.0;"/><text fill="#000000" font-family="sans-serif" font-size="14" lengthAdjust="spacing" textLength="109" x="62" y="654.1074">getID(): SensorID</text><ellipse cx="53" cy="668.4316" fill="#84BE84" rx="3" ry="3" style="stroke:#038048;stroke-width:1.0;"/><text fill="#000000" font-family="sans-serif" font-size="14" lengthAdjust="spacing" textLength="155" x="62" y="672.7285">getName(): SensorName</text><ellipse cx="53" cy="687.0527" fill="#84BE84" rx="3" ry="3" style="stroke:#038048;stroke-width:1.0;"/><text fill="#000000" font-family="sans-serif" font-size="14" lengthAdjust="spacing" textLength="172" x="62" y="691.3496">getModelPath(): ModelPath</text><ellipse cx="53" cy="705.6738" fill="#84BE84" rx="3" ry="3" style="stroke:#038048;stroke-width:1.0;"/><text fill="#000000" font-family="sans-serif" font-size="14" lengthAdjust="spacing" textLength="218" x="62" y="709.9707">getSensorTypeID(): SensorTypeID</text><ellipse cx="53" cy="724.2949" fill="#84BE84" rx="3" ry="3" style="stroke:#038048;stroke-width:1.0;"/><text fill="#000000" font-family="sans-serif" font-size="14" lengthAdjust="spacing" textLength="150" x="62" y="728.5918">getDeviceID(): DeviceID</text><ellipse cx="53" cy="742.916" fill="#84BE84" rx="3" ry="3" style="stroke:#038048;stroke-width:1.0;"/><text fill="#000000" font-family="sans-serif" font-size="14" lengthAdjust="spacing" textLength="151" x="62" y="747.2129">getValue(): ValueObject</text><ellipse cx="53" cy="761.5371" fill="#84BE84" rx="3" ry="3" style="stroke:#038048;stroke-width:1.0;"/><text fill="#000000" font-family="sans-serif" font-size="14" lengthAdjust="spacing" textLength="104" x="62" y="765.834">toString(): String</text></g><!--class ElectricConsumptionWhSensor--><g id="elem_ElectricConsumptionWhSensor"><rect codeLine="25" fill="#F1F1F1" height="337.2383" id="ElectricConsumptionWhSensor" rx="2.5" ry="2.5" style="stroke:#181818;stroke-width:0.5;" width="1025" x="322.5" y="203"/><ellipse cx="733.25" cy="233.2715" fill="#ADD1B2" rx="11" ry="11" style="stroke:#181818;stroke-width:1.0;"/><path d="M736.0156,229.1465 Q736.1719,228.9277 736.3594,228.8184 Q736.5469,228.709 736.7656,228.709 Q737.1406,228.709 737.375,228.9746 Q737.6094,229.2246 737.6094,229.834 L737.6094,231.2871 Q737.6094,231.8965 737.375,232.1621 Q737.1406,232.4277 736.7656,232.4277 Q736.4219,232.4277 736.2188,232.2246 Q736.0156,232.0371 735.9063,231.5215 Q735.8594,231.1621 735.6719,230.9746 Q735.3438,230.5996 734.7344,230.3809 Q734.125,230.1621 733.5,230.1621 Q732.7344,230.1621 732.0938,230.4902 Q731.4688,230.8184 730.9688,231.5684 Q730.4844,232.3184 730.4844,233.3496 L730.4844,234.4434 Q730.4844,235.6777 731.375,236.5059 Q732.2656,237.3184 733.8594,237.3184 Q734.7969,237.3184 735.4531,237.0684 Q735.8438,236.9121 736.2656,236.4746 Q736.5313,236.209 736.6719,236.1309 Q736.8281,236.0527 737.0313,236.0527 Q737.3594,236.0527 737.6094,236.3184 Q737.875,236.5684 737.875,236.9121 Q737.875,237.2559 737.5313,237.6621 Q737.0313,238.2402 736.2344,238.5684 Q735.1563,239.0215 733.8594,239.0215 Q732.3438,239.0215 731.1406,238.3965 Q730.1563,237.8965 729.4688,236.834 Q728.7813,235.7559 728.7813,234.4746 L728.7813,233.3184 Q728.7813,231.9902 729.3906,230.8496 Q730.0156,229.6934 731.1094,229.084 Q732.2031,228.459 733.4375,228.459 Q734.1719,228.459 734.8125,228.6309 Q735.4688,228.7871 736.0156,229.1465 Z " fill="#000000"/><text fill="#000000" font-family="sans-serif" font-size="12" font-style="italic" lengthAdjust="spacing" textLength="43" x="829.75" y="220.9492">&#171;entity&#187;</text><text fill="#000000" font-family="sans-serif" font-size="12" font-style="italic" lengthAdjust="spacing" textLength="40" x="831.25" y="236.9102">&#171;Root&#187;</text><text fill="#000000" font-family="sans-serif" font-size="14" lengthAdjust="spacing" textLength="195" x="753.75" y="255.0293">ElectricConsumptionWhSensor</text><line style="stroke:#181818;stroke-width:0.5;" x1="323.5" x2="1346.5" y1="263.543" y2="263.543"/><rect fill="none" height="6" style="stroke:#C82930;stroke-width:1.0;" width="6" x="330.5" y="275.3535"/><text fill="#000000" font-family="sans-serif" font-size="14" lengthAdjust="spacing" textLength="130" x="342.5" y="282.6504">_sensorID: SensorID</text><rect fill="none" height="6" style="stroke:#C82930;stroke-width:1.0;" width="6" x="330.5" y="293.9746"/><text fill="#000000" font-family="sans-serif" font-size="14" lengthAdjust="spacing" textLength="169" x="342.5" y="301.2715">_senorName: SensorName</text><rect fill="none" height="6" style="stroke:#C82930;stroke-width:1.0;" width="6" x="330.5" y="312.5957"/><text fill="#000000" font-family="sans-serif" font-size="14" lengthAdjust="spacing" textLength="194" x="342.5" y="319.8926">_sensorTypeID: SensorTypeID</text><rect fill="none" height="6" style="stroke:#C82930;stroke-width:1.0;" width="6" x="330.5" y="331.2168"/><text fill="#000000" font-family="sans-serif" font-size="14" lengthAdjust="spacing" textLength="150" x="342.5" y="338.5137">_modelPath: ModelPath</text><rect fill="none" height="6" style="stroke:#C82930;stroke-width:1.0;" width="6" x="330.5" y="349.8379"/><text fill="#000000" font-family="sans-serif" font-size="14" lengthAdjust="spacing" textLength="126" x="342.5" y="357.1348">_deviceID: DeviceID</text><rect fill="none" height="6" style="stroke:#C82930;stroke-width:1.0;" width="6" x="330.5" y="368.459"/><text fill="#000000" font-family="sans-serif" font-size="14" lengthAdjust="spacing" textLength="236" x="342.5" y="375.7559">_value: ElectricConsumptionWhValue</text><line style="stroke:#181818;stroke-width:0.5;" x1="323.5" x2="1346.5" y1="383.2695" y2="383.2695"/><ellipse cx="333.5" cy="398.0801" fill="#84BE84" rx="3" ry="3" style="stroke:#038048;stroke-width:1.0;"/><text fill="#000000" font-family="sans-serif" font-size="14" lengthAdjust="spacing" textLength="999" x="342.5" y="402.377">ElectricConsumptionWhSensor(sensorTypeID: SensorTypeID, modelPath: ModelPath, deviceID: DeviceID, sensorName: SensorName, dataPeriod: DataPeriod)</text><ellipse cx="333.5" cy="416.7012" fill="#84BE84" rx="3" ry="3" style="stroke:#038048;stroke-width:1.0;"/><text fill="#000000" font-family="sans-serif" font-size="14" lengthAdjust="spacing" textLength="189" x="342.5" y="420.998">getSensorTypeString(): String</text><ellipse cx="333.5" cy="435.3223" fill="#84BE84" rx="3" ry="3" style="stroke:#038048;stroke-width:1.0;"/><text fill="#000000" font-family="sans-serif" font-size="14" lengthAdjust="spacing" textLength="109" x="342.5" y="439.6191">getID(): SensorID</text><ellipse cx="333.5" cy="453.9434" fill="#84BE84" rx="3" ry="3" style="stroke:#038048;stroke-width:1.0;"/><text fill="#000000" font-family="sans-serif" font-size="14" lengthAdjust="spacing" textLength="155" x="342.5" y="458.2402">getName(): SensorName</text><ellipse cx="333.5" cy="472.5645" fill="#84BE84" rx="3" ry="3" style="stroke:#038048;stroke-width:1.0;"/><text fill="#000000" font-family="sans-serif" font-size="14" lengthAdjust="spacing" textLength="172" x="342.5" y="476.8613">getModelPath(): ModelPath</text><ellipse cx="333.5" cy="491.1855" fill="#84BE84" rx="3" ry="3" style="stroke:#038048;stroke-width:1.0;"/><text fill="#000000" font-family="sans-serif" font-size="14" lengthAdjust="spacing" textLength="218" x="342.5" y="495.4824">getSensorTypeID(): SensorTypeID</text><ellipse cx="333.5" cy="509.8066" fill="#84BE84" rx="3" ry="3" style="stroke:#038048;stroke-width:1.0;"/><text fill="#000000" font-family="sans-serif" font-size="14" lengthAdjust="spacing" textLength="150" x="342.5" y="514.1035">getDeviceID(): DeviceID</text><ellipse cx="333.5" cy="528.4277" fill="#84BE84" rx="3" ry="3" style="stroke:#038048;stroke-width:1.0;"/><text fill="#000000" font-family="sans-serif" font-size="14" lengthAdjust="spacing" textLength="151" x="342.5" y="532.7246">getValue(): ValueObject</text></g><!--class SensorName--><g id="elem_SensorName"><rect codeLine="42" fill="#F1F1F1" height="116.4453" id="SensorName" rx="2.5" ry="2.5" style="stroke:#181818;stroke-width:0.5;" width="193" x="304.5" y="626"/><ellipse cx="356.25" cy="648.291" fill="#ADD1B2" rx="11" ry="11" style="stroke:#181818;stroke-width:1.0;"/><path d="M359.0156,644.166 Q359.1719,643.9473 359.3594,643.8379 Q359.5469,643.7285 359.7656,643.7285 Q360.1406,643.7285 360.375,643.9941 Q360.6094,644.2441 360.6094,644.8535 L360.6094,646.3066 Q360.6094,646.916 360.375,647.1816 Q360.1406,647.4473 359.7656,647.4473 Q359.4219,647.4473 359.2188,647.2441 Q359.0156,647.0566 358.9063,646.541 Q358.8594,646.1816 358.6719,645.9941 Q358.3438,645.6191 357.7344,645.4004 Q357.125,645.1816 356.5,645.1816 Q355.7344,645.1816 355.0938,645.5098 Q354.4688,645.8379 353.9688,646.5879 Q353.4844,647.3379 353.4844,648.3691 L353.4844,649.4629 Q353.4844,650.6973 354.375,651.5254 Q355.2656,652.3379 356.8594,652.3379 Q357.7969,652.3379 358.4531,652.0879 Q358.8438,651.9316 359.2656,651.4941 Q359.5313,651.2285 359.6719,651.1504 Q359.8281,651.0723 360.0313,651.0723 Q360.3594,651.0723 360.6094,651.3379 Q360.875,651.5879 360.875,651.9316 Q360.875,652.2754 360.5313,652.6816 Q360.0313,653.2598 359.2344,653.5879 Q358.1563,654.041 356.8594,654.041 Q355.3438,654.041 354.1406,653.416 Q353.1563,652.916 352.4688,651.8535 Q351.7813,650.7754 351.7813,649.4941 L351.7813,648.3379 Q351.7813,647.0098 352.3906,645.8691 Q353.0156,644.7129 354.1094,644.1035 Q355.2031,643.4785 356.4375,643.4785 Q357.1719,643.4785 357.8125,643.6504 Q358.4688,643.8066 359.0156,644.166 Z " fill="#000000"/><text fill="#000000" font-family="sans-serif" font-size="12" font-style="italic" lengthAdjust="spacing" textLength="82" x="376.25" y="643.9492">&#171;ValueObject&#187;</text><text fill="#000000" font-family="sans-serif" font-size="14" lengthAdjust="spacing" textLength="81" x="376.75" y="662.0684">SensorName</text><line style="stroke:#181818;stroke-width:0.5;" x1="305.5" x2="496.5" y1="670.582" y2="670.582"/><rect fill="none" height="6" style="stroke:#C82930;stroke-width:1.0;" width="6" x="312.5" y="682.3926"/><text fill="#000000" font-family="sans-serif" font-size="14" lengthAdjust="spacing" textLength="88" x="324.5" y="689.6895">_name: String</text><line style="stroke:#181818;stroke-width:0.5;" x1="305.5" x2="496.5" y1="697.2031" y2="697.2031"/><ellipse cx="315.5" cy="712.0137" fill="#84BE84" rx="3" ry="3" style="stroke:#038048;stroke-width:1.0;"/><text fill="#000000" font-family="sans-serif" font-size="14" lengthAdjust="spacing" textLength="167" x="324.5" y="716.3105">SensorName(String name)</text><ellipse cx="315.5" cy="730.6348" fill="#84BE84" rx="3" ry="3" style="stroke:#038048;stroke-width:1.0;"/><text fill="#000000" font-family="sans-serif" font-size="14" lengthAdjust="spacing" textLength="115" x="324.5" y="734.9316">getName() : String</text></g><!--class SensorID--><g id="elem_SensorID"><rect codeLine="48" fill="#F1F1F1" height="116.4453" id="SensorID" rx="2.5" ry="2.5" style="stroke:#181818;stroke-width:0.5;" width="146" x="809" y="626"/><ellipse cx="845.15" cy="648.291" fill="#ADD1B2" rx="11" ry="11" style="stroke:#181818;stroke-width:1.0;"/><path d="M847.9156,644.166 Q848.0719,643.9473 848.2594,643.8379 Q848.4469,643.7285 848.6656,643.7285 Q849.0406,643.7285 849.275,643.9941 Q849.5094,644.2441 849.5094,644.8535 L849.5094,646.3066 Q849.5094,646.916 849.275,647.1816 Q849.0406,647.4473 848.6656,647.4473 Q848.3219,647.4473 848.1188,647.2441 Q847.9156,647.0566 847.8063,646.541 Q847.7594,646.1816 847.5719,645.9941 Q847.2438,645.6191 846.6344,645.4004 Q846.025,645.1816 845.4,645.1816 Q844.6344,645.1816 843.9938,645.5098 Q843.3688,645.8379 842.8688,646.5879 Q842.3844,647.3379 842.3844,648.3691 L842.3844,649.4629 Q842.3844,650.6973 843.275,651.5254 Q844.1656,652.3379 845.7594,652.3379 Q846.6969,652.3379 847.3531,652.0879 Q847.7438,651.9316 848.1656,651.4941 Q848.4313,651.2285 848.5719,651.1504 Q848.7281,651.0723 848.9313,651.0723 Q849.2594,651.0723 849.5094,651.3379 Q849.775,651.5879 849.775,651.9316 Q849.775,652.2754 849.4313,652.6816 Q848.9313,653.2598 848.1344,653.5879 Q847.0563,654.041 845.7594,654.041 Q844.2438,654.041 843.0406,653.416 Q842.0563,652.916 841.3688,651.8535 Q840.6813,650.7754 840.6813,649.4941 L840.6813,648.3379 Q840.6813,647.0098 841.2906,645.8691 Q841.9156,644.7129 843.0094,644.1035 Q844.1031,643.4785 845.3375,643.4785 Q846.0719,643.4785 846.7125,643.6504 Q847.3688,643.8066 847.9156,644.166 Z " fill="#000000"/><text fill="#000000" font-family="sans-serif" font-size="12" font-style="italic" lengthAdjust="spacing" textLength="71" x="861.85" y="643.9492">&#171;DomainID&#187;</text><text fill="#000000" font-family="sans-serif" font-size="14" lengthAdjust="spacing" textLength="58" x="868.35" y="662.0684">SensorID</text><line style="stroke:#181818;stroke-width:0.5;" x1="810" x2="954" y1="670.582" y2="670.582"/><rect fill="none" height="6" style="stroke:#C82930;stroke-width:1.0;" width="6" x="817" y="682.3926"/><text fill="#000000" font-family="sans-serif" font-size="14" lengthAdjust="spacing" textLength="64" x="829" y="689.6895">_id: String</text><line style="stroke:#181818;stroke-width:0.5;" x1="810" x2="954" y1="697.2031" y2="697.2031"/><ellipse cx="820" cy="712.0137" fill="#84BE84" rx="3" ry="3" style="stroke:#038048;stroke-width:1.0;"/><text fill="#000000" font-family="sans-serif" font-size="14" lengthAdjust="spacing" textLength="120" x="829" y="716.3105">SensorID(String id)</text><ellipse cx="820" cy="730.6348" fill="#84BE84" rx="3" ry="3" style="stroke:#038048;stroke-width:1.0;"/><text fill="#000000" font-family="sans-serif" font-size="14" lengthAdjust="spacing" textLength="92" x="829" y="734.9316">getID() : String</text></g><!--class ElectricConsumptionWhValue--><g id="elem_ElectricConsumptionWhValue"><rect codeLine="54" fill="#F1F1F1" height="116.4453" id="ElectricConsumptionWhValue" rx="2.5" ry="2.5" style="stroke:#181818;stroke-width:0.5;" width="275" x="515.5" y="626"/><ellipse cx="556.15" cy="648.291" fill="#ADD1B2" rx="11" ry="11" style="stroke:#181818;stroke-width:1.0;"/><path d="M558.9156,644.166 Q559.0719,643.9473 559.2594,643.8379 Q559.4469,643.7285 559.6656,643.7285 Q560.0406,643.7285 560.275,643.9941 Q560.5094,644.2441 560.5094,644.8535 L560.5094,646.3066 Q560.5094,646.916 560.275,647.1816 Q560.0406,647.4473 559.6656,647.4473 Q559.3219,647.4473 559.1188,647.2441 Q558.9156,647.0566 558.8063,646.541 Q558.7594,646.1816 558.5719,645.9941 Q558.2438,645.6191 557.6344,645.4004 Q557.025,645.1816 556.4,645.1816 Q555.6344,645.1816 554.9938,645.5098 Q554.3688,645.8379 553.8688,646.5879 Q553.3844,647.3379 553.3844,648.3691 L553.3844,649.4629 Q553.3844,650.6973 554.275,651.5254 Q555.1656,652.3379 556.7594,652.3379 Q557.6969,652.3379 558.3531,652.0879 Q558.7438,651.9316 559.1656,651.4941 Q559.4313,651.2285 559.5719,651.1504 Q559.7281,651.0723 559.9313,651.0723 Q560.2594,651.0723 560.5094,651.3379 Q560.775,651.5879 560.775,651.9316 Q560.775,652.2754 560.4313,652.6816 Q559.9313,653.2598 559.1344,653.5879 Q558.0563,654.041 556.7594,654.041 Q555.2438,654.041 554.0406,653.416 Q553.0563,652.916 552.3688,651.8535 Q551.6813,650.7754 551.6813,649.4941 L551.6813,648.3379 Q551.6813,647.0098 552.2906,645.8691 Q552.9156,644.7129 554.0094,644.1035 Q555.1031,643.4785 556.3375,643.4785 Q557.0719,643.4785 557.7125,643.6504 Q558.3688,643.8066 558.9156,644.166 Z " fill="#000000"/><text fill="#000000" font-family="sans-serif" font-size="12" font-style="italic" lengthAdjust="spacing" textLength="82" x="627.85" y="643.9492">&#171;ValueObject&#187;</text><text fill="#000000" font-family="sans-serif" font-size="14" lengthAdjust="spacing" textLength="186" x="575.85" y="662.0684">ElectricConsumptionWhValue</text><line style="stroke:#181818;stroke-width:0.5;" x1="516.5" x2="789.5" y1="670.582" y2="670.582"/><rect fill="none" height="6" style="stroke:#C82930;stroke-width:1.0;" width="6" x="523.5" y="682.3926"/><text fill="#000000" font-family="sans-serif" font-size="14" lengthAdjust="spacing" textLength="69" x="535.5" y="689.6895">_value : int</text><line style="stroke:#181818;stroke-width:0.5;" x1="516.5" x2="789.5" y1="697.2031" y2="697.2031"/><ellipse cx="526.5" cy="712.0137" fill="#84BE84" rx="3" ry="3" style="stroke:#038048;stroke-width:1.0;"/><text fill="#000000" font-family="sans-serif" font-size="14" lengthAdjust="spacing" textLength="249" x="535.5" y="716.3105">ElectricConsumptionWhValue(int value)</text><ellipse cx="526.5" cy="730.6348" fill="#84BE84" rx="3" ry="3" style="stroke:#038048;stroke-width:1.0;"/><text fill="#000000" font-family="sans-serif" font-size="14" lengthAdjust="spacing" textLength="108" x="535.5" y="734.9316">toString() : String</text></g><!--class SensorTypeID--><g id="elem_SensorTypeID"><rect codeLine="60" fill="#F1F1F1" height="116.4453" id="SensorTypeID" rx="2.5" ry="2.5" style="stroke:#181818;stroke-width:0.5;" width="254" x="973" y="626"/><ellipse cx="1050.75" cy="648.291" fill="#ADD1B2" rx="11" ry="11" style="stroke:#181818;stroke-width:1.0;"/><path d="M1053.5156,644.166 Q1053.6719,643.9473 1053.8594,643.8379 Q1054.0469,643.7285 1054.2656,643.7285 Q1054.6406,643.7285 1054.875,643.9941 Q1055.1094,644.2441 1055.1094,644.8535 L1055.1094,646.3066 Q1055.1094,646.916 1054.875,647.1816 Q1054.6406,647.4473 1054.2656,647.4473 Q1053.9219,647.4473 1053.7188,647.2441 Q1053.5156,647.0566 1053.4063,646.541 Q1053.3594,646.1816 1053.1719,645.9941 Q1052.8438,645.6191 1052.2344,645.4004 Q1051.625,645.1816 1051,645.1816 Q1050.2344,645.1816 1049.5938,645.5098 Q1048.9688,645.8379 1048.4688,646.5879 Q1047.9844,647.3379 1047.9844,648.3691 L1047.9844,649.4629 Q1047.9844,650.6973 1048.875,651.5254 Q1049.7656,652.3379 1051.3594,652.3379 Q1052.2969,652.3379 1052.9531,652.0879 Q1053.3438,651.9316 1053.7656,651.4941 Q1054.0313,651.2285 1054.1719,651.1504 Q1054.3281,651.0723 1054.5313,651.0723 Q1054.8594,651.0723 1055.1094,651.3379 Q1055.375,651.5879 1055.375,651.9316 Q1055.375,652.2754 1055.0313,652.6816 Q1054.5313,653.2598 1053.7344,653.5879 Q1052.6563,654.041 1051.3594,654.041 Q1049.8438,654.041 1048.6406,653.416 Q1047.6563,652.916 1046.9688,651.8535 Q1046.2813,650.7754 1046.2813,649.4941 L1046.2813,648.3379 Q1046.2813,647.0098 1046.8906,645.8691 Q1047.5156,644.7129 1048.6094,644.1035 Q1049.7031,643.4785 1050.9375,643.4785 Q1051.6719,643.4785 1052.3125,643.6504 Q1052.9688,643.8066 1053.5156,644.166 Z " fill="#000000"/><text fill="#000000" font-family="sans-serif" font-size="12" font-style="italic" lengthAdjust="spacing" textLength="71" x="1080.75" y="643.9492">&#171;DomainID&#187;</text><text fill="#000000" font-family="sans-serif" font-size="14" lengthAdjust="spacing" textLength="90" x="1071.25" y="662.0684">SensorTypeID</text><line style="stroke:#181818;stroke-width:0.5;" x1="974" x2="1226" y1="670.582" y2="670.582"/><rect fill="none" height="6" style="stroke:#C82930;stroke-width:1.0;" width="6" x="981" y="682.3926"/><text fill="#000000" font-family="sans-serif" font-size="14" lengthAdjust="spacing" textLength="122" x="993" y="689.6895">_description: String</text><line style="stroke:#181818;stroke-width:0.5;" x1="974" x2="1226" y1="697.2031" y2="697.2031"/><ellipse cx="984" cy="712.0137" fill="#84BE84" rx="3" ry="3" style="stroke:#038048;stroke-width:1.0;"/><text fill="#000000" font-family="sans-serif" font-size="14" lengthAdjust="spacing" textLength="228" x="993" y="716.3105">SensorTypeID(String strDescription)</text><ellipse cx="984" cy="730.6348" fill="#84BE84" rx="3" ry="3" style="stroke:#038048;stroke-width:1.0;"/><text fill="#000000" font-family="sans-serif" font-size="14" lengthAdjust="spacing" textLength="124" x="993" y="734.9316">getTypeID() : String</text></g><!--class ModelPath--><g id="elem_ModelPath"><rect codeLine="66" fill="#F1F1F1" height="116.4453" id="ModelPath" rx="2.5" ry="2.5" style="stroke:#181818;stroke-width:0.5;" width="172" x="1245" y="626"/><ellipse cx="1293.25" cy="648.291" fill="#ADD1B2" rx="11" ry="11" style="stroke:#181818;stroke-width:1.0;"/><path d="M1296.0156,644.166 Q1296.1719,643.9473 1296.3594,643.8379 Q1296.5469,643.7285 1296.7656,643.7285 Q1297.1406,643.7285 1297.375,643.9941 Q1297.6094,644.2441 1297.6094,644.8535 L1297.6094,646.3066 Q1297.6094,646.916 1297.375,647.1816 Q1297.1406,647.4473 1296.7656,647.4473 Q1296.4219,647.4473 1296.2188,647.2441 Q1296.0156,647.0566 1295.9063,646.541 Q1295.8594,646.1816 1295.6719,645.9941 Q1295.3438,645.6191 1294.7344,645.4004 Q1294.125,645.1816 1293.5,645.1816 Q1292.7344,645.1816 1292.0938,645.5098 Q1291.4688,645.8379 1290.9688,646.5879 Q1290.4844,647.3379 1290.4844,648.3691 L1290.4844,649.4629 Q1290.4844,650.6973 1291.375,651.5254 Q1292.2656,652.3379 1293.8594,652.3379 Q1294.7969,652.3379 1295.4531,652.0879 Q1295.8438,651.9316 1296.2656,651.4941 Q1296.5313,651.2285 1296.6719,651.1504 Q1296.8281,651.0723 1297.0313,651.0723 Q1297.3594,651.0723 1297.6094,651.3379 Q1297.875,651.5879 1297.875,651.9316 Q1297.875,652.2754 1297.5313,652.6816 Q1297.0313,653.2598 1296.2344,653.5879 Q1295.1563,654.041 1293.8594,654.041 Q1292.3438,654.041 1291.1406,653.416 Q1290.1563,652.916 1289.4688,651.8535 Q1288.7813,650.7754 1288.7813,649.4941 L1288.7813,648.3379 Q1288.7813,647.0098 1289.3906,645.8691 Q1290.0156,644.7129 1291.1094,644.1035 Q1292.2031,643.4785 1293.4375,643.4785 Q1294.1719,643.4785 1294.8125,643.6504 Q1295.4688,643.8066 1296.0156,644.166 Z " fill="#000000"/><text fill="#000000" font-family="sans-serif" font-size="12" font-style="italic" lengthAdjust="spacing" textLength="71" x="1311.75" y="643.9492">&#171;DomainID&#187;</text><text fill="#000000" font-family="sans-serif" font-size="14" lengthAdjust="spacing" textLength="67" x="1313.75" y="662.0684">ModelPath</text><line style="stroke:#181818;stroke-width:0.5;" x1="1246" x2="1416" y1="670.582" y2="670.582"/><rect fill="none" height="6" style="stroke:#C82930;stroke-width:1.0;" width="6" x="1253" y="682.3926"/><text fill="#000000" font-family="sans-serif" font-size="14" lengthAdjust="spacing" textLength="81" x="1265" y="689.6895">_path: String</text><line style="stroke:#181818;stroke-width:0.5;" x1="1246" x2="1416" y1="697.2031" y2="697.2031"/><ellipse cx="1256" cy="712.0137" fill="#84BE84" rx="3" ry="3" style="stroke:#038048;stroke-width:1.0;"/><text fill="#000000" font-family="sans-serif" font-size="14" lengthAdjust="spacing" textLength="146" x="1265" y="716.3105">ModelPath(String path)</text><ellipse cx="1256" cy="730.6348" fill="#84BE84" rx="3" ry="3" style="stroke:#038048;stroke-width:1.0;"/><text fill="#000000" font-family="sans-serif" font-size="14" lengthAdjust="spacing" textLength="108" x="1265" y="734.9316">getPath() : String</text></g><!--class DeviceID--><g id="elem_DeviceID"><rect codeLine="72" fill="#F1F1F1" height="116.4453" id="DeviceID" rx="2.5" ry="2.5" style="stroke:#181818;stroke-width:0.5;" width="144" x="1435" y="626"/><ellipse cx="1470.25" cy="648.291" fill="#ADD1B2" rx="11" ry="11" style="stroke:#181818;stroke-width:1.0;"/><path d="M1473.0156,644.166 Q1473.1719,643.9473 1473.3594,643.8379 Q1473.5469,643.7285 1473.7656,643.7285 Q1474.1406,643.7285 1474.375,643.9941 Q1474.6094,644.2441 1474.6094,644.8535 L1474.6094,646.3066 Q1474.6094,646.916 1474.375,647.1816 Q1474.1406,647.4473 1473.7656,647.4473 Q1473.4219,647.4473 1473.2188,647.2441 Q1473.0156,647.0566 1472.9063,646.541 Q1472.8594,646.1816 1472.6719,645.9941 Q1472.3438,645.6191 1471.7344,645.4004 Q1471.125,645.1816 1470.5,645.1816 Q1469.7344,645.1816 1469.0938,645.5098 Q1468.4688,645.8379 1467.9688,646.5879 Q1467.4844,647.3379 1467.4844,648.3691 L1467.4844,649.4629 Q1467.4844,650.6973 1468.375,651.5254 Q1469.2656,652.3379 1470.8594,652.3379 Q1471.7969,652.3379 1472.4531,652.0879 Q1472.8438,651.9316 1473.2656,651.4941 Q1473.5313,651.2285 1473.6719,651.1504 Q1473.8281,651.0723 1474.0313,651.0723 Q1474.3594,651.0723 1474.6094,651.3379 Q1474.875,651.5879 1474.875,651.9316 Q1474.875,652.2754 1474.5313,652.6816 Q1474.0313,653.2598 1473.2344,653.5879 Q1472.1563,654.041 1470.8594,654.041 Q1469.3438,654.041 1468.1406,653.416 Q1467.1563,652.916 1466.4688,651.8535 Q1465.7813,650.7754 1465.7813,649.4941 L1465.7813,648.3379 Q1465.7813,647.0098 1466.3906,645.8691 Q1467.0156,644.7129 1468.1094,644.1035 Q1469.2031,643.4785 1470.4375,643.4785 Q1471.1719,643.4785 1471.8125,643.6504 Q1472.4688,643.8066 1473.0156,644.166 Z " fill="#000000"/><text fill="#000000" font-family="sans-serif" font-size="12" font-style="italic" lengthAdjust="spacing" textLength="71" x="1486.75" y="643.9492">&#171;DomainID&#187;</text><text fill="#000000" font-family="sans-serif" font-size="14" lengthAdjust="spacing" textLength="56" x="1494.25" y="662.0684">DeviceID</text><line style="stroke:#181818;stroke-width:0.5;" x1="1436" x2="1578" y1="670.582" y2="670.582"/><rect fill="none" height="6" style="stroke:#C82930;stroke-width:1.0;" width="6" x="1443" y="682.3926"/><text fill="#000000" font-family="sans-serif" font-size="14" lengthAdjust="spacing" textLength="64" x="1455" y="689.6895">_id: String</text><line style="stroke:#181818;stroke-width:0.5;" x1="1436" x2="1578" y1="697.2031" y2="697.2031"/><ellipse cx="1446" cy="712.0137" fill="#84BE84" rx="3" ry="3" style="stroke:#038048;stroke-width:1.0;"/><text fill="#000000" font-family="sans-serif" font-size="14" lengthAdjust="spacing" textLength="118" x="1455" y="716.3105">DeviceID(String id)</text><ellipse cx="1446" cy="730.6348" fill="#84BE84" rx="3" ry="3" style="stroke:#038048;stroke-width:1.0;"/><text fill="#000000" font-family="sans-serif" font-size="14" lengthAdjust="spacing" textLength="92" x="1455" y="734.9316">getID() : String</text></g><!--class DomainEntity--><g id="elem_DomainEntity"><rect codeLine="82" fill="#F1F1F1" height="48" id="DomainEntity" rx="2.5" ry="2.5" style="stroke:#181818;stroke-width:0.5;" width="115" x="620.5" y="914"/><ellipse cx="635.5" cy="930" fill="#B4A7E5" rx="11" ry="11" style="stroke:#181818;stroke-width:1.0;"/><path d="M636.4531,926.6406 L636.4531,933.2969 L638.1719,933.2969 Q638.7813,933.2969 639.0469,933.5313 Q639.3125,933.7656 639.3125,934.1563 Q639.3125,934.5313 639.0469,934.7656 Q638.7813,935 638.1719,935 L633.0313,935 Q632.4219,935 632.1563,934.7656 Q631.8906,934.5313 631.8906,934.1406 Q631.8906,933.7656 632.1563,933.5313 Q632.4219,933.2969 633.0313,933.2969 L634.75,933.2969 L634.75,926.6406 L633.0313,926.6406 Q632.4219,926.6406 632.1563,926.4063 Q631.8906,926.1719 631.8906,925.7813 Q631.8906,925.4063 632.1563,925.1719 Q632.4219,924.9375 633.0313,924.9375 L638.1719,924.9375 Q638.7813,924.9375 639.0469,925.1719 Q639.3125,925.4063 639.3125,925.7813 Q639.3125,926.1719 639.0469,926.4063 Q638.7813,926.6406 638.1719,926.6406 L636.4531,926.6406 Z " fill="#000000"/><text fill="#000000" font-family="sans-serif" font-size="14" font-style="italic" lengthAdjust="spacing" textLength="83" x="649.5" y="935.7969">DomainEntity</text><line style="stroke:#181818;stroke-width:0.5;" x1="621.5" x2="734.5" y1="946" y2="946"/><line style="stroke:#181818;stroke-width:0.5;" x1="621.5" x2="734.5" y1="954" y2="954"/></g><!--class DomainID--><g id="elem_DomainID"><rect codeLine="85" fill="#F1F1F1" height="48" id="DomainID" rx="2.5" ry="2.5" style="stroke:#181818;stroke-width:0.5;" width="94" x="769" y="999"/><ellipse cx="784" cy="1015" fill="#B4A7E5" rx="11" ry="11" style="stroke:#181818;stroke-width:1.0;"/><path d="M784.9531,1011.6406 L784.9531,1018.2969 L786.6719,1018.2969 Q787.2813,1018.2969 787.5469,1018.5313 Q787.8125,1018.7656 787.8125,1019.1563 Q787.8125,1019.5313 787.5469,1019.7656 Q787.2813,1020 786.6719,1020 L781.5313,1020 Q780.9219,1020 780.6563,1019.7656 Q780.3906,1019.5313 780.3906,1019.1406 Q780.3906,1018.7656 780.6563,1018.5313 Q780.9219,1018.2969 781.5313,1018.2969 L783.25,1018.2969 L783.25,1011.6406 L781.5313,1011.6406 Q780.9219,1011.6406 780.6563,1011.4063 Q780.3906,1011.1719 780.3906,1010.7813 Q780.3906,1010.4063 780.6563,1010.1719 Q780.9219,1009.9375 781.5313,1009.9375 L786.6719,1009.9375 Q787.2813,1009.9375 787.5469,1010.1719 Q787.8125,1010.4063 787.8125,1010.7813 Q787.8125,1011.1719 787.5469,1011.4063 Q787.2813,1011.6406 786.6719,1011.6406 L784.9531,1011.6406 Z " fill="#000000"/><text fill="#000000" font-family="sans-serif" font-size="14" font-style="italic" lengthAdjust="spacing" textLength="62" x="798" y="1020.7969">DomainID</text><line style="stroke:#181818;stroke-width:0.5;" x1="770" x2="862" y1="1031" y2="1031"/><line style="stroke:#181818;stroke-width:0.5;" x1="770" x2="862" y1="1039" y2="1039"/></g><!--class ValueObject--><g id="elem_ValueObject"><rect codeLine="91" fill="#F1F1F1" height="48" id="ValueObject" rx="2.5" ry="2.5" style="stroke:#181818;stroke-width:0.5;" width="109" x="753.5" y="914"/><ellipse cx="768.5" cy="930" fill="#B4A7E5" rx="11" ry="11" style="stroke:#181818;stroke-width:1.0;"/><path d="M769.4531,926.6406 L769.4531,933.2969 L771.1719,933.2969 Q771.7813,933.2969 772.0469,933.5313 Q772.3125,933.7656 772.3125,934.1563 Q772.3125,934.5313 772.0469,934.7656 Q771.7813,935 771.1719,935 L766.0313,935 Q765.4219,935 765.1563,934.7656 Q764.8906,934.5313 764.8906,934.1406 Q764.8906,933.7656 765.1563,933.5313 Q765.4219,933.2969 766.0313,933.2969 L767.75,933.2969 L767.75,926.6406 L766.0313,926.6406 Q765.4219,926.6406 765.1563,926.4063 Q764.8906,926.1719 764.8906,925.7813 Q764.8906,925.4063 765.1563,925.1719 Q765.4219,924.9375 766.0313,924.9375 L771.1719,924.9375 Q771.7813,924.9375 772.0469,925.1719 Q772.3125,925.4063 772.3125,925.7813 Q772.3125,926.1719 772.0469,926.4063 Q771.7813,926.6406 771.1719,926.6406 L769.4531,926.6406 Z " fill="#000000"/><text fill="#000000" font-family="sans-serif" font-size="14" font-style="italic" lengthAdjust="spacing" textLength="77" x="782.5" y="935.7969">ValueObject</text><line style="stroke:#181818;stroke-width:0.5;" x1="754.5" x2="861.5" y1="946" y2="946"/><line style="stroke:#181818;stroke-width:0.5;" x1="754.5" x2="861.5" y1="954" y2="954"/></g><!--class AggregateRoot--><g id="elem_AggregateRoot"><rect codeLine="88" fill="#F1F1F1" height="48" id="AggregateRoot" rx="2.5" ry="2.5" style="stroke:#181818;stroke-width:0.5;" width="128" x="620" y="829"/><ellipse cx="635" cy="845" fill="#B4A7E5" rx="11" ry="11" style="stroke:#181818;stroke-width:1.0;"/><path d="M635.9531,841.6406 L635.9531,848.2969 L637.6719,848.2969 Q638.2813,848.2969 638.5469,848.5313 Q638.8125,848.7656 638.8125,849.1563 Q638.8125,849.5313 638.5469,849.7656 Q638.2813,850 637.6719,850 L632.5313,850 Q631.9219,850 631.6563,849.7656 Q631.3906,849.5313 631.3906,849.1406 Q631.3906,848.7656 631.6563,848.5313 Q631.9219,848.2969 632.5313,848.2969 L634.25,848.2969 L634.25,841.6406 L632.5313,841.6406 Q631.9219,841.6406 631.6563,841.4063 Q631.3906,841.1719 631.3906,840.7813 Q631.3906,840.4063 631.6563,840.1719 Q631.9219,839.9375 632.5313,839.9375 L637.6719,839.9375 Q638.2813,839.9375 638.5469,840.1719 Q638.8125,840.4063 638.8125,840.7813 Q638.8125,841.1719 638.5469,841.4063 Q638.2813,841.6406 637.6719,841.6406 L635.9531,841.6406 Z " fill="#000000"/><text fill="#000000" font-family="sans-serif" font-size="14" font-style="italic" lengthAdjust="spacing" textLength="96" x="649" y="850.7969">AggregateRoot</text><line style="stroke:#181818;stroke-width:0.5;" x1="621" x2="747" y1="861" y2="861"/><line style="stroke:#181818;stroke-width:0.5;" x1="621" x2="747" y1="869" y2="869"/></g><polygon fill="none" points="810.2284,962.1201,805.9831,980.6127,817.9277,979.4614,810.2284,962.1201" style="stroke:#181818;stroke-width:1.0;"/><path d="M811.9554,980.0371 C813.0557,991.4532 812.6533,987.2778 813.7558,998.716 " fill="none" style="stroke:#181818;stroke-width:1.0;"/><polygon fill="none" points="173.3542,337.7238,186.4832,324.026,175.6387,318.8882,173.3542,337.7238" style="stroke:#181818;stroke-width:1.0;"/><path d="M373.9498,129.0596 C345.2237,140.3039 316.0342,155.0131 292,174 C235.2706,218.816 201.5226,278.2683 181.061,321.4571 " fill="none" style="stroke:#181818;stroke-width:1.0;stroke-dasharray:7.0,7.0;"/><polygon fill="#181818" points="628.2277,202.8798,623.7552,194.105,624.3436,199.7312,618.7174,200.3196,628.2277,202.8798" style="stroke:#181818;stroke-width:1.0;"/><path d="M537.1003,129.0074 C561.0573,148.4281 588.8617,170.9678 623.5668,199.1015 " fill="none" style="stroke:#181818;stroke-width:1.0;stroke-dasharray:7.0,7.0;"/><text fill="#000000" font-family="sans-serif" font-size="13" lengthAdjust="spacing" textLength="43" x="579" y="162.0283">creates</text><text fill="#000000" font-family="sans-serif" font-size="13" lengthAdjust="spacing" textLength="7" x="620.2277" y="198.9081">1</text><text fill="#000000" font-family="sans-serif" font-size="13" lengthAdjust="spacing" textLength="7" x="529.1003" y="144.0357">1</text><polygon fill="none" points="286.2896,598.1409,304.9284,594.592,299.0713,584.1185,286.2896,598.1409" style="stroke:#181818;stroke-width:1.0;"/><path d="M402.029,540.0172 C364.3304,557.5689 327.1762,575.9841 292,595 C290.1022,596.0259 303.9082,588.288 301.9998,589.3552 " fill="none" style="stroke:#181818;stroke-width:1.0;stroke-dasharray:7.0,7.0;"/><polygon fill="#181818" points="686.4644,625.9083,694.4664,620.1665,688.9928,621.5947,687.5647,616.1211,686.4644,625.9083" style="stroke:#181818;stroke-width:1.0;"/><path d="M736.8084,540.0191 C718.6759,570.954 703.9607,596.0587 689.4985,620.7319 " fill="none" style="stroke:#181818;stroke-width:1.0;"/><text fill="#000000" font-family="sans-serif" font-size="13" lengthAdjust="spacing" textLength="21" x="723" y="573.0283">has</text><text fill="#000000" font-family="sans-serif" font-size="13" lengthAdjust="spacing" textLength="7" x="678.4644" y="621.9366">1</text><text fill="#000000" font-family="sans-serif" font-size="13" lengthAdjust="spacing" textLength="7" x="728.8084" y="555.0475">1</text><polygon fill="#181818" points="1051.2744,625.9083,1048.4743,616.4658,1048.0285,622.1051,1042.3892,621.6592,1051.2744,625.9083" style="stroke:#181818;stroke-width:1.0;"/><path d="M977.9712,540.0191 C1004.373,570.954 1026.3217,596.6712 1047.3793,621.3444 " fill="none" style="stroke:#181818;stroke-width:1.0;"/><text fill="#000000" font-family="sans-serif" font-size="13" lengthAdjust="spacing" textLength="21" x="1007" y="573.0283">has</text><text fill="#000000" font-family="sans-serif" font-size="13" lengthAdjust="spacing" textLength="7" x="1043.2744" y="621.9366">1</text><text fill="#000000" font-family="sans-serif" font-size="13" lengthAdjust="spacing" textLength="7" x="969.9712" y="555.0475">1</text><polygon fill="#181818" points="1273.8653,625.9912,1269.8477,616.9991,1270.1475,622.648,1264.4985,622.9477,1273.8653,625.9912" style="stroke:#181818;stroke-width:1.0;"/><path d="M1153.815,540.0089 C1182.1703,557.7 1209.9665,576.1432 1236,595 C1248.8362,604.2976 1257.3457,611.1363 1269.4039,621.9793 " fill="none" style="stroke:#181818;stroke-width:1.0;"/><text fill="#000000" font-family="sans-serif" font-size="13" lengthAdjust="spacing" textLength="21" x="1206" y="573.0283">has</text><text fill="#000000" font-family="sans-serif" font-size="13" lengthAdjust="spacing" textLength="7" x="1265.8653" y="622.0195">1</text><text fill="#000000" font-family="sans-serif" font-size="13" lengthAdjust="spacing" textLength="7" x="1145.815" y="555.0372">1</text><polygon fill="#181818" points="467.0996,625.8499,476.5874,623.2076,470.9564,622.6678,471.4961,617.0368,467.0996,625.8499" style="stroke:#181818;stroke-width:1.0;"/><path d="M581.215,540.2701 C555.5499,558.384 530.0869,576.8372 506,595 C493.1812,604.666 484.4505,611.5343 471.7277,622.0314 " fill="none" style="stroke:#181818;stroke-width:1.0;"/><text fill="#000000" font-family="sans-serif" font-size="13" lengthAdjust="spacing" textLength="21" x="551" y="573.0283">has</text><text fill="#000000" font-family="sans-serif" font-size="13" lengthAdjust="spacing" textLength="7" x="459.0996" y="621.8782">1</text><text fill="#000000" font-family="sans-serif" font-size="13" lengthAdjust="spacing" textLength="7" x="582.215" y="555.2985">1</text><polygon fill="#181818" points="873.3581,625.9083,875.9661,616.411,872.6098,620.9646,868.0562,617.6083,873.3581,625.9083" style="stroke:#181818;stroke-width:1.0;"/><path d="M860.3572,540.0191 C865.0397,570.954 868.7254,595.3026 872.4601,619.9758 " fill="none" style="stroke:#181818;stroke-width:1.0;"/><text fill="#000000" font-family="sans-serif" font-size="13" lengthAdjust="spacing" textLength="21" x="866" y="573.0283">has</text><text fill="#000000" font-family="sans-serif" font-size="13" lengthAdjust="spacing" textLength="7" x="865.3581" y="621.9366">1</text><text fill="#000000" font-family="sans-serif" font-size="13" lengthAdjust="spacing" textLength="7" x="852.3572" y="555.0475">1</text><polygon fill="#181818" points="1461.7071,625.8371,1458.3553,616.5761,1458.2426,622.2319,1452.5869,622.1192,1461.7071,625.8371" style="stroke:#181818;stroke-width:1.0;"/><path d="M1333.4254,540.1806 C1365.6246,557.0485 1396.8015,575.3046 1426,595 C1438.7386,603.5927 1446.7235,610.2444 1457.5498,621.5108 " fill="none" style="stroke:#181818;stroke-width:1.0;"/><text fill="#000000" font-family="sans-serif" font-size="13" lengthAdjust="spacing" textLength="21" x="1398" y="573.0283">has</text><text fill="#000000" font-family="sans-serif" font-size="13" lengthAdjust="spacing" textLength="7" x="1453.7071" y="621.8654">1</text><text fill="#000000" font-family="sans-serif" font-size="13" lengthAdjust="spacing" textLength="7" x="1325.4254" y="555.2089">1</text><polygon fill="none" points="802.317,913.9872,803.43,895.0462,791.8428,898.1666,802.317,913.9872" style="stroke:#181818;stroke-width:1.0;"/><path d="M712.4239,742.1202 C728.3883,759.6107 744.6336,779.638 757,800 C779.528,837.0935 790.0346,868.3786 797.6364,896.6064 " fill="none" style="stroke:#181818;stroke-width:1.0;stroke-dasharray:7.0,7.0;"/><polygon fill="none" points="753.4571,916.7824,738.3173,905.3462,734.4836,916.7174,753.4571,916.7824" style="stroke:#181818;stroke-width:1.0;"/><path d="M449.8488,742.4407 C489.267,785.3495 548.3128,842.3433 611,877 C665.0711,906.8932 686.1557,895.1683 745,914 C747.7724,914.8872 733.5474,910.0699 736.4005,911.0318 " fill="none" style="stroke:#181818;stroke-width:1.0;stroke-dasharray:7.0,7.0;"/><polygon fill="none" points="777.2868,998.716,764.9543,984.297,758.7694,994.5803,777.2868,998.716" style="stroke:#181818;stroke-width:1.0;"/><path d="M716.4407,962.1201 C735.4217,973.5362 742.844,978.0004 761.8618,989.4386 " fill="none" style="stroke:#181818;stroke-width:1.0;"/><polygon fill="none" points="679.6832,913.716,686.9654,896.1954,674.9966,895.3302,679.6832,913.716" style="stroke:#181818;stroke-width:1.0;"/><path d="M682.3287,877.1201 C681.5034,888.5362 681.8079,884.3246 680.981,895.7628 " fill="none" style="stroke:#181818;stroke-width:1.0;"/><polygon fill="none" points="619.9523,849.4244,602.3808,842.2662,601.6001,854.2408,619.9523,849.4244" style="stroke:#181818;stroke-width:1.0;"/><path d="M275.6636,773.0714 C281.0685,775.9481 286.5259,778.6121 292,781 C400.8786,828.4957 522.1434,843.0483 601.9904,848.2535 " fill="none" style="stroke:#181818;stroke-width:1.0;"/><polygon fill="none" points="845.345,998.9693,863.0466,992.1391,855.4082,982.8842,845.345,998.9693" style="stroke:#181818;stroke-width:1.0;"/><path d="M1057.9004,742.2387 C1015.4527,799.1569 947.3277,888.3726 884,962 C876.4148,970.8189 874.5142,973.0743 866,981 C859.5088,987.0426 866.1448,981.8025 859.2274,987.5116 " fill="none" style="stroke:#181818;stroke-width:1.0;stroke-dasharray:7.0,7.0;"/><polygon fill="none" points="844.8878,998.9936,862.0209,990.8416,853.7031,982.1922,844.8878,998.9936" style="stroke:#181818;stroke-width:1.0;"/><path d="M891.2271,742.104 C898.0257,799.8991 901.6143,890.6679 872,962 C866.1541,976.081 868.3862,976.3962 857.862,986.5169 " fill="none" style="stroke:#181818;stroke-width:1.0;stroke-dasharray:7.0,7.0;"/><polygon fill="none" points="863.2864,1000.1145,882.1166,997.786,876.9534,986.9536,863.2864,1000.1145" style="stroke:#181818;stroke-width:1.0;"/><path d="M1279.6165,742.0133 C1266.091,755.5552 1251.053,769.4186 1236,781 C1111.0692,877.1187 960.0856,953.9762 879.535,992.3698 " fill="none" style="stroke:#181818;stroke-width:1.0;stroke-dasharray:7.0,7.0;"/><polygon fill="none" points="863.1965,1012.0319,882.0787,1013.8927,879.4187,1002.1913,863.1965,1012.0319" style="stroke:#181818;stroke-width:1.0;"/><path d="M1466.459,742.1261 C1454.5851,756.1286 1440.7826,770.1829 1426,781 C1241.5236,915.9896 988.8126,983.477 880.7487,1008.042 " fill="none" style="stroke:#181818;stroke-width:1.0;stroke-dasharray:7.0,7.0;"/><!--SRC=[jLRBZjiW5Dtp5NHMiPfOwZQAB5NrLCgYxQXJJPSLOrE7rYy16JLgvz-B0MEmmV72oIPO7Euzzzm7l6afAYe4ItHfpXoo2dDK8m1QbFr61OPvKo5Inu-uPWs5Vm4KFr9pJ7-Y3CEFAECDlJYxtUyjp2X676- -FF_26O_Z6BQ88c4SKnRjeJeWuQz0_cKbOWmUgxPSp-R0Ss9C6ImmFwORS_QOJlS_2mS3elkQOZurEIuV43zrGFCnnIaRtoujjhsgxoawnIyaqyX-FKKzeV8i2Sg5acQ4uiqZfwGkf4kvqY9rEddp7D-NmWmbsOUcPkUgvQIflv-CY5R25X-RDNauu9eJVacIm-5hq_0a6JArWp-OpeudJsfN9SQR97DSoHmGNQ2gFc- -58hzNAV0amon-zAfluVU86Lch3AUKM8Jvhg5FePREEMrXSpeO6iYi8YZ1qn9amkqMKSWKANUihdMETUwPad7BE-MwvqotoNEz1dOYegqa7OvwdpNIbjN5kLkiB9H-x03Hw7H0aTDEU5pJ0MRLFRPCVLG8Vai4I6Bfa7oo3__PYY42_ggHB8bX6anXKTkmqOt0WpbmIWunBni7SLKZSoevhGrooYH7BmoZkNKzQWbPPocWu4eS5B8t9Snd3Zf0p0nc7PO5a0h1y8iyw7RDEtkp0nPrPWBgFRDjenfe507rwQF0mLxfN0LHK5oVAdbUQvkhU51eEZUorj7FWjUVViYClo7upfdzk3mmDyN1SM5U9nqjvVFddLSRml0zBKJn_yIzr7b0TszknF0HFwlS__kzTEA0R2EGHc7Qqg7iuxzBlJTRXK9dlIOEY6sCZcvS2RIpRmCC-F6WSZBySO-RYcKcLZA0rYbUEng5xCcjXyPonrO0iyP1Cxeskq4iXzMm1r3rfv2ZyFL0acSvSsn0e1JmMDcnhL9NH0nr6WGOh8JHFm7]--></g></svg>