<?xml version="1.0" encoding="us-ascii" standalone="no"?><svg xmlns="http://www.w3.org/2000/svg" xmlns:xlink="http://www.w3.org/1999/xlink" contentStyleType="text/css" height="749px" preserveAspectRatio="none" style="width:1369px;height:749px;background:#FFFFFF;" version="1.1" viewBox="0 0 1369 749" width="1369px" zoomAndPan="magnify"><defs/><g><!--cluster SmartHome--><g id="cluster_SmartHome"><path d="M16.5,4 L97.5,4 A3.75,3.75 0 0 1 100,6.5 L107,28.6211 L1359.5,28.6211 A2.5,2.5 0 0 1 1362,31.1211 L1362,739.5 A2.5,2.5 0 0 1 1359.5,742 L16.5,742 A2.5,2.5 0 0 1 14,739.5 L14,6.5 A2.5,2.5 0 0 1 16.5,4 " fill="none" style="stroke:#000000;stroke-width:1.5;"/><line style="stroke:#000000;stroke-width:1.5;" x1="14" x2="107" y1="28.6211" y2="28.6211"/><text fill="#000000" font-family="sans-serif" font-size="14" font-weight="bold" lengthAdjust="spacing" textLength="80" x="18" y="21.1074">SmartHome</text></g><!--cluster sensors--><g id="cluster_sensors"><path d="M164.5,33 L222.5,33 A3.75,3.75 0 0 1 225,35.5 L232,57.6211 L1207.5,57.6211 A2.5,2.5 0 0 1 1210,60.1211 L1210,497.5 A2.5,2.5 0 0 1 1207.5,500 L164.5,500 A2.5,2.5 0 0 1 162,497.5 L162,35.5 A2.5,2.5 0 0 1 164.5,33 " fill="none" style="stroke:#000000;stroke-width:1.5;"/><line style="stroke:#000000;stroke-width:1.5;" x1="162" x2="232" y1="57.6211" y2="57.6211"/><text fill="#000000" font-family="sans-serif" font-size="14" font-weight="bold" lengthAdjust="spacing" textLength="57" x="166" y="50.1074">sensors</text></g><!--cluster domain--><g id="cluster_domain"><path d="M24.5,519 L76.5,519 A3.75,3.75 0 0 1 79,521.5 L86,543.6211 L1351.5,543.6211 A2.5,2.5 0 0 1 1354,546.1211 L1354,731.5 A2.5,2.5 0 0 1 1351.5,734 L24.5,734 A2.5,2.5 0 0 1 22,731.5 L22,521.5 A2.5,2.5 0 0 1 24.5,519 " fill="none" style="stroke:#000000;stroke-width:1.5;"/><line style="stroke:#000000;stroke-width:1.5;" x1="22" x2="86" y1="543.6211" y2="543.6211"/><text fill="#000000" font-family="sans-serif" font-size="14" font-weight="bold" lengthAdjust="spacing" textLength="51" x="26" y="536.1074">domain</text></g><!--class ElectricConsumptionWhSensor--><g id="elem_ElectricConsumptionWhSensor"><rect codeLine="5" fill="#F1F1F1" height="252.832" id="ElectricConsumptionWhSensor" rx="2.5" ry="2.5" style="stroke:#181818;stroke-width:0.5;" width="1031" x="170.5" y="62"/><ellipse cx="584.25" cy="78" fill="#ADD1B2" rx="11" ry="11" style="stroke:#181818;stroke-width:1.0;"/><path d="M587.0156,73.875 Q587.1719,73.6563 587.3594,73.5469 Q587.5469,73.4375 587.7656,73.4375 Q588.1406,73.4375 588.375,73.7031 Q588.6094,73.9531 588.6094,74.5625 L588.6094,76.0156 Q588.6094,76.625 588.375,76.8906 Q588.1406,77.1563 587.7656,77.1563 Q587.4219,77.1563 587.2188,76.9531 Q587.0156,76.7656 586.9063,76.25 Q586.8594,75.8906 586.6719,75.7031 Q586.3438,75.3281 585.7344,75.1094 Q585.125,74.8906 584.5,74.8906 Q583.7344,74.8906 583.0938,75.2188 Q582.4688,75.5469 581.9688,76.2969 Q581.4844,77.0469 581.4844,78.0781 L581.4844,79.1719 Q581.4844,80.4063 582.375,81.2344 Q583.2656,82.0469 584.8594,82.0469 Q585.7969,82.0469 586.4531,81.7969 Q586.8438,81.6406 587.2656,81.2031 Q587.5313,80.9375 587.6719,80.8594 Q587.8281,80.7813 588.0313,80.7813 Q588.3594,80.7813 588.6094,81.0469 Q588.875,81.2969 588.875,81.6406 Q588.875,81.9844 588.5313,82.3906 Q588.0313,82.9688 587.2344,83.2969 Q586.1563,83.75 584.8594,83.75 Q583.3438,83.75 582.1406,83.125 Q581.1563,82.625 580.4688,81.5625 Q579.7813,80.4844 579.7813,79.2031 L579.7813,78.0469 Q579.7813,76.7188 580.3906,75.5781 Q581.0156,74.4219 582.1094,73.8125 Q583.2031,73.1875 584.4375,73.1875 Q585.1719,73.1875 585.8125,73.3594 Q586.4688,73.5156 587.0156,73.875 Z " fill="#000000"/><text fill="#000000" font-family="sans-serif" font-size="14" lengthAdjust="spacing" textLength="195" x="604.75" y="83.7969">ElectricConsumptionWhSensor</text><line style="stroke:#181818;stroke-width:0.5;" x1="171.5" x2="1200.5" y1="94" y2="94"/><rect fill="none" height="6" style="stroke:#C82930;stroke-width:1.0;" width="6" x="178.5" y="105.8105"/><text fill="#000000" font-family="sans-serif" font-size="14" lengthAdjust="spacing" textLength="120" x="190.5" y="113.1074">_type: SensorType</text><rect fill="none" height="6" style="stroke:#C82930;stroke-width:1.0;" width="6" x="178.5" y="124.4316"/><text fill="#000000" font-family="sans-serif" font-size="14" lengthAdjust="spacing" textLength="392" x="190.5" y="131.7285">_ElectricConsumptionWhValue : ElectricConsumptionWhValue</text><line style="stroke:#181818;stroke-width:0.5;" x1="171.5" x2="1200.5" y1="139.2422" y2="139.2422"/><ellipse cx="181.5" cy="154.0527" fill="#84BE84" rx="3" ry="3" style="stroke:#038048;stroke-width:1.0;"/><text fill="#000000" font-family="sans-serif" font-size="14" lengthAdjust="spacing" textLength="381" x="190.5" y="158.3496">ElectricConsumptionWhSensor(CatalogueSensor catalogue)</text><ellipse cx="181.5" cy="172.6738" fill="#84BE84" rx="3" ry="3" style="stroke:#038048;stroke-width:1.0;"/><text fill="#000000" font-family="sans-serif" font-size="14" lengthAdjust="spacing" textLength="192" x="190.5" y="176.9707">getSensorType(): SensorType</text><ellipse cx="181.5" cy="191.2949" fill="#84BE84" rx="3" ry="3" style="stroke:#038048;stroke-width:1.0;"/><text fill="#000000" font-family="sans-serif" font-size="14" lengthAdjust="spacing" textLength="110" x="190.5" y="195.5918">getValue(): Value</text><ellipse cx="181.5" cy="209.916" fill="#84BE84" rx="3" ry="3" style="stroke:#038048;stroke-width:1.0;"/><text fill="#000000" font-family="sans-serif" font-size="14" lengthAdjust="spacing" textLength="506" x="190.5" y="214.2129">getValue(LocalDateTime startTimestamp, LocalDateTime endTimestamp): Value</text><ellipse cx="181.5" cy="228.5371" fill="#84BE84" rx="3" ry="3" style="stroke:#038048;stroke-width:1.0;"/><text fill="#000000" font-family="sans-serif" font-size="14" lengthAdjust="spacing" textLength="282" x="190.5" y="232.834">setSensorType(CatalogueSensor catalogue)</text><ellipse cx="181.5" cy="247.1582" fill="#84BE84" rx="3" ry="3" style="stroke:#038048;stroke-width:1.0;"/><text fill="#000000" font-family="sans-serif" font-size="14" lengthAdjust="spacing" textLength="459" x="190.5" y="251.4551">artificialDatabaseOfReadingsSetTo50W(): Map&lt;LocalDateTime, Integer&gt;</text><ellipse cx="181.5" cy="265.7793" fill="#84BE84" rx="3" ry="3" style="stroke:#038048;stroke-width:1.0;"/><text fill="#000000" font-family="sans-serif" font-size="14" lengthAdjust="spacing" textLength="814" x="190.5" y="270.0762">getDataFromSelectedTimePeriod(LocalDateTime startTimestamp, LocalDateTime endTimestamp): Map&lt;LocalDateTime, Integer&gt;</text><ellipse cx="181.5" cy="284.4004" fill="#84BE84" rx="3" ry="3" style="stroke:#038048;stroke-width:1.0;"/><text fill="#000000" font-family="sans-serif" font-size="14" lengthAdjust="spacing" textLength="1005" x="190.5" y="288.6973">filterPowerConsumptionsByTime(LocalDateTime startTimestamp, LocalDateTime endTimestamp, Map&lt;LocalDateTime, Integer&gt;): Map&lt;LocalDateTime, Integer&gt;</text><ellipse cx="181.5" cy="303.0215" fill="#84BE84" rx="3" ry="3" style="stroke:#038048;stroke-width:1.0;"/><text fill="#000000" font-family="sans-serif" font-size="14" lengthAdjust="spacing" textLength="629" x="190.5" y="307.3184">calculateConsumptionInWh(LocalDateTime startTimestamp, LocalDateTime endTimestamp): Integer</text></g><!--class ElectricConsumptionWhValue--><g id="elem_ElectricConsumptionWhValue"><rect codeLine="19" fill="#F1F1F1" height="122.4844" id="ElectricConsumptionWhValue" rx="2.5" ry="2.5" style="stroke:#181818;stroke-width:0.5;" width="275" x="221.5" y="370"/><ellipse cx="262.15" cy="386" fill="#ADD1B2" rx="11" ry="11" style="stroke:#181818;stroke-width:1.0;"/><path d="M264.9156,381.875 Q265.0719,381.6563 265.2594,381.5469 Q265.4469,381.4375 265.6656,381.4375 Q266.0406,381.4375 266.275,381.7031 Q266.5094,381.9531 266.5094,382.5625 L266.5094,384.0156 Q266.5094,384.625 266.275,384.8906 Q266.0406,385.1563 265.6656,385.1563 Q265.3219,385.1563 265.1188,384.9531 Q264.9156,384.7656 264.8063,384.25 Q264.7594,383.8906 264.5719,383.7031 Q264.2438,383.3281 263.6344,383.1094 Q263.025,382.8906 262.4,382.8906 Q261.6344,382.8906 260.9938,383.2188 Q260.3688,383.5469 259.8688,384.2969 Q259.3844,385.0469 259.3844,386.0781 L259.3844,387.1719 Q259.3844,388.4063 260.275,389.2344 Q261.1656,390.0469 262.7594,390.0469 Q263.6969,390.0469 264.3531,389.7969 Q264.7438,389.6406 265.1656,389.2031 Q265.4313,388.9375 265.5719,388.8594 Q265.7281,388.7813 265.9313,388.7813 Q266.2594,388.7813 266.5094,389.0469 Q266.775,389.2969 266.775,389.6406 Q266.775,389.9844 266.4313,390.3906 Q265.9313,390.9688 265.1344,391.2969 Q264.0563,391.75 262.7594,391.75 Q261.2438,391.75 260.0406,391.125 Q259.0563,390.625 258.3688,389.5625 Q257.6813,388.4844 257.6813,387.2031 L257.6813,386.0469 Q257.6813,384.7188 258.2906,383.5781 Q258.9156,382.4219 260.0094,381.8125 Q261.1031,381.1875 262.3375,381.1875 Q263.0719,381.1875 263.7125,381.3594 Q264.3688,381.5156 264.9156,381.875 Z " fill="#000000"/><text fill="#000000" font-family="sans-serif" font-size="14" lengthAdjust="spacing" textLength="186" x="281.85" y="391.7969">ElectricConsumptionWhValue</text><line style="stroke:#181818;stroke-width:0.5;" x1="222.5" x2="495.5" y1="402" y2="402"/><rect fill="none" height="6" style="stroke:#C82930;stroke-width:1.0;" width="6" x="229.5" y="413.8105"/><text fill="#000000" font-family="sans-serif" font-size="14" lengthAdjust="spacing" textLength="69" x="241.5" y="421.1074">_value : int</text><line style="stroke:#181818;stroke-width:0.5;" x1="222.5" x2="495.5" y1="428.6211" y2="428.6211"/><ellipse cx="232.5" cy="443.4316" fill="#84BE84" rx="3" ry="3" style="stroke:#038048;stroke-width:1.0;"/><text fill="#000000" font-family="sans-serif" font-size="14" lengthAdjust="spacing" textLength="249" x="241.5" y="447.7285">ElectricConsumptionWhValue(int value)</text><ellipse cx="232.5" cy="462.0527" fill="#84BE84" rx="3" ry="3" style="stroke:#038048;stroke-width:1.0;"/><text fill="#000000" font-family="sans-serif" font-size="14" lengthAdjust="spacing" textLength="118" x="241.5" y="466.3496">setValue(int value)</text><ellipse cx="232.5" cy="480.6738" fill="#84BE84" rx="3" ry="3" style="stroke:#038048;stroke-width:1.0;"/><text fill="#000000" font-family="sans-serif" font-size="14" lengthAdjust="spacing" textLength="108" x="241.5" y="484.9707">toString() : String</text></g><!--class Sensor--><g id="elem_Sensor"><rect codeLine="29" fill="#F1F1F1" height="103.8633" id="Sensor" rx="2.5" ry="2.5" style="stroke:#181818;stroke-width:0.5;" width="532" x="116" y="585"/><ellipse cx="355.25" cy="601" fill="#B4A7E5" rx="11" ry="11" style="stroke:#181818;stroke-width:1.0;"/><path d="M356.2031,597.6406 L356.2031,604.2969 L357.9219,604.2969 Q358.5313,604.2969 358.7969,604.5313 Q359.0625,604.7656 359.0625,605.1563 Q359.0625,605.5313 358.7969,605.7656 Q358.5313,606 357.9219,606 L352.7813,606 Q352.1719,606 351.9063,605.7656 Q351.6406,605.5313 351.6406,605.1406 Q351.6406,604.7656 351.9063,604.5313 Q352.1719,604.2969 352.7813,604.2969 L354.5,604.2969 L354.5,597.6406 L352.7813,597.6406 Q352.1719,597.6406 351.9063,597.4063 Q351.6406,597.1719 351.6406,596.7813 Q351.6406,596.4063 351.9063,596.1719 Q352.1719,595.9375 352.7813,595.9375 L357.9219,595.9375 Q358.5313,595.9375 358.7969,596.1719 Q359.0625,596.4063 359.0625,596.7813 Q359.0625,597.1719 358.7969,597.4063 Q358.5313,597.6406 357.9219,597.6406 L356.2031,597.6406 Z " fill="#000000"/><text fill="#000000" font-family="sans-serif" font-size="14" font-style="italic" lengthAdjust="spacing" textLength="45" x="375.75" y="606.7969">Sensor</text><line style="stroke:#181818;stroke-width:0.5;" x1="117" x2="647" y1="617" y2="617"/><line style="stroke:#181818;stroke-width:0.5;" x1="117" x2="647" y1="625" y2="625"/><ellipse cx="127" cy="639.8105" fill="#84BE84" rx="3" ry="3" style="stroke:#038048;stroke-width:1.0;"/><text fill="#000000" font-family="sans-serif" font-size="14" lengthAdjust="spacing" textLength="192" x="136" y="644.1074">getSensorType(): SensorType</text><ellipse cx="127" cy="658.4316" fill="#84BE84" rx="3" ry="3" style="stroke:#038048;stroke-width:1.0;"/><text fill="#000000" font-family="sans-serif" font-size="14" lengthAdjust="spacing" textLength="110" x="136" y="662.7285">getValue(): Value</text><ellipse cx="127" cy="677.0527" fill="#84BE84" rx="3" ry="3" style="stroke:#038048;stroke-width:1.0;"/><text fill="#000000" font-family="sans-serif" font-size="14" lengthAdjust="spacing" textLength="506" x="136" y="681.3496">getValue(LocalDateTime startTimestamp, LocalDateTime endTimestamp): Value</text></g><!--class Value--><g id="elem_Value"><rect codeLine="34" fill="#F1F1F1" height="48" id="Value" rx="2.5" ry="2.5" style="stroke:#181818;stroke-width:0.5;" width="68" x="30" y="613"/><ellipse cx="45" cy="629" fill="#B4A7E5" rx="11" ry="11" style="stroke:#181818;stroke-width:1.0;"/><path d="M45.9531,625.6406 L45.9531,632.2969 L47.6719,632.2969 Q48.2813,632.2969 48.5469,632.5313 Q48.8125,632.7656 48.8125,633.1563 Q48.8125,633.5313 48.5469,633.7656 Q48.2813,634 47.6719,634 L42.5313,634 Q41.9219,634 41.6563,633.7656 Q41.3906,633.5313 41.3906,633.1406 Q41.3906,632.7656 41.6563,632.5313 Q41.9219,632.2969 42.5313,632.2969 L44.25,632.2969 L44.25,625.6406 L42.5313,625.6406 Q41.9219,625.6406 41.6563,625.4063 Q41.3906,625.1719 41.3906,624.7813 Q41.3906,624.4063 41.6563,624.1719 Q41.9219,623.9375 42.5313,623.9375 L47.6719,623.9375 Q48.2813,623.9375 48.5469,624.1719 Q48.8125,624.4063 48.8125,624.7813 Q48.8125,625.1719 48.5469,625.4063 Q48.2813,625.6406 47.6719,625.6406 L45.9531,625.6406 Z " fill="#000000"/><text fill="#000000" font-family="sans-serif" font-size="14" font-style="italic" lengthAdjust="spacing" textLength="36" x="59" y="634.7969">Value</text><line style="stroke:#181818;stroke-width:0.5;" x1="31" x2="97" y1="645" y2="645"/><line style="stroke:#181818;stroke-width:0.5;" x1="31" x2="97" y1="653" y2="653"/></g><!--class SensorType--><g id="elem_SensorType"><rect codeLine="37" fill="#F1F1F1" height="178.3477" id="SensorType" rx="2.5" ry="2.5" style="stroke:#181818;stroke-width:0.5;" width="321" x="666.5" y="548"/><ellipse cx="784.25" cy="564" fill="#ADD1B2" rx="11" ry="11" style="stroke:#181818;stroke-width:1.0;"/><path d="M787.0156,559.875 Q787.1719,559.6563 787.3594,559.5469 Q787.5469,559.4375 787.7656,559.4375 Q788.1406,559.4375 788.375,559.7031 Q788.6094,559.9531 788.6094,560.5625 L788.6094,562.0156 Q788.6094,562.625 788.375,562.8906 Q788.1406,563.1563 787.7656,563.1563 Q787.4219,563.1563 787.2188,562.9531 Q787.0156,562.7656 786.9063,562.25 Q786.8594,561.8906 786.6719,561.7031 Q786.3438,561.3281 785.7344,561.1094 Q785.125,560.8906 784.5,560.8906 Q783.7344,560.8906 783.0938,561.2188 Q782.4688,561.5469 781.9688,562.2969 Q781.4844,563.0469 781.4844,564.0781 L781.4844,565.1719 Q781.4844,566.4063 782.375,567.2344 Q783.2656,568.0469 784.8594,568.0469 Q785.7969,568.0469 786.4531,567.7969 Q786.8438,567.6406 787.2656,567.2031 Q787.5313,566.9375 787.6719,566.8594 Q787.8281,566.7813 788.0313,566.7813 Q788.3594,566.7813 788.6094,567.0469 Q788.875,567.2969 788.875,567.6406 Q788.875,567.9844 788.5313,568.3906 Q788.0313,568.9688 787.2344,569.2969 Q786.1563,569.75 784.8594,569.75 Q783.3438,569.75 782.1406,569.125 Q781.1563,568.625 780.4688,567.5625 Q779.7813,566.4844 779.7813,565.2031 L779.7813,564.0469 Q779.7813,562.7188 780.3906,561.5781 Q781.0156,560.4219 782.1094,559.8125 Q783.2031,559.1875 784.4375,559.1875 Q785.1719,559.1875 785.8125,559.3594 Q786.4688,559.5156 787.0156,559.875 Z " fill="#000000"/><text fill="#000000" font-family="sans-serif" font-size="14" lengthAdjust="spacing" textLength="77" x="804.75" y="569.7969">SensorType</text><line style="stroke:#181818;stroke-width:0.5;" x1="667.5" x2="986.5" y1="580" y2="580"/><rect fill="none" height="6" style="stroke:#C82930;stroke-width:1.0;" width="6" x="674.5" y="591.8105"/><text fill="#000000" font-family="sans-serif" font-size="14" lengthAdjust="spacing" textLength="144" x="686.5" y="599.1074">_strDescription : String</text><rect fill="none" height="6" style="stroke:#C82930;stroke-width:1.0;" width="6" x="674.5" y="610.4316"/><text fill="#000000" font-family="sans-serif" font-size="14" lengthAdjust="spacing" textLength="67" x="686.5" y="617.7285">_unit : Unit</text><line style="stroke:#181818;stroke-width:0.5;" x1="667.5" x2="986.5" y1="625.2422" y2="625.2422"/><ellipse cx="677.5" cy="640.0527" fill="#84BE84" rx="3" ry="3" style="stroke:#038048;stroke-width:1.0;"/><text fill="#000000" font-family="sans-serif" font-size="14" lengthAdjust="spacing" textLength="274" x="686.5" y="644.3496">SensorType(String strDescription, Unit unit)</text><ellipse cx="677.5" cy="658.6738" fill="#84BE84" rx="3" ry="3" style="stroke:#038048;stroke-width:1.0;"/><text fill="#000000" font-family="sans-serif" font-size="14" lengthAdjust="spacing" textLength="295" x="686.5" y="662.9707">setStrDescription(String strDescription) : String</text><ellipse cx="677.5" cy="677.2949" fill="#84BE84" rx="3" ry="3" style="stroke:#038048;stroke-width:1.0;"/><text fill="#000000" font-family="sans-serif" font-size="14" lengthAdjust="spacing" textLength="140" x="686.5" y="681.5918">setUnit(Unit unit) : Unit</text><ellipse cx="677.5" cy="695.916" fill="#84BE84" rx="3" ry="3" style="stroke:#038048;stroke-width:1.0;"/><text fill="#000000" font-family="sans-serif" font-size="14" lengthAdjust="spacing" textLength="150" x="686.5" y="700.2129">getDescription() : String</text><ellipse cx="677.5" cy="714.5371" fill="#84BE84" rx="3" ry="3" style="stroke:#038048;stroke-width:1.0;"/><text fill="#000000" font-family="sans-serif" font-size="14" lengthAdjust="spacing" textLength="90" x="686.5" y="718.834">getUnit() : Unit</text></g><!--class CatalogueSensor--><g id="elem_CatalogueSensor"><rect codeLine="47" fill="#F1F1F1" height="66.6211" id="CatalogueSensor" rx="2.5" ry="2.5" style="stroke:#181818;stroke-width:0.5;" width="340" x="1006" y="603.5"/><ellipse cx="1116.75" cy="619.5" fill="#ADD1B2" rx="11" ry="11" style="stroke:#181818;stroke-width:1.0;"/><path d="M1119.5156,615.375 Q1119.6719,615.1563 1119.8594,615.0469 Q1120.0469,614.9375 1120.2656,614.9375 Q1120.6406,614.9375 1120.875,615.2031 Q1121.1094,615.4531 1121.1094,616.0625 L1121.1094,617.5156 Q1121.1094,618.125 1120.875,618.3906 Q1120.6406,618.6563 1120.2656,618.6563 Q1119.9219,618.6563 1119.7188,618.4531 Q1119.5156,618.2656 1119.4063,617.75 Q1119.3594,617.3906 1119.1719,617.2031 Q1118.8438,616.8281 1118.2344,616.6094 Q1117.625,616.3906 1117,616.3906 Q1116.2344,616.3906 1115.5938,616.7188 Q1114.9688,617.0469 1114.4688,617.7969 Q1113.9844,618.5469 1113.9844,619.5781 L1113.9844,620.6719 Q1113.9844,621.9063 1114.875,622.7344 Q1115.7656,623.5469 1117.3594,623.5469 Q1118.2969,623.5469 1118.9531,623.2969 Q1119.3438,623.1406 1119.7656,622.7031 Q1120.0313,622.4375 1120.1719,622.3594 Q1120.3281,622.2813 1120.5313,622.2813 Q1120.8594,622.2813 1121.1094,622.5469 Q1121.375,622.7969 1121.375,623.1406 Q1121.375,623.4844 1121.0313,623.8906 Q1120.5313,624.4688 1119.7344,624.7969 Q1118.6563,625.25 1117.3594,625.25 Q1115.8438,625.25 1114.6406,624.625 Q1113.6563,624.125 1112.9688,623.0625 Q1112.2813,621.9844 1112.2813,620.7031 L1112.2813,619.5469 Q1112.2813,618.2188 1112.8906,617.0781 Q1113.5156,615.9219 1114.6094,615.3125 Q1115.7031,614.6875 1116.9375,614.6875 Q1117.6719,614.6875 1118.3125,614.8594 Q1118.9688,615.0156 1119.5156,615.375 Z " fill="#000000"/><text fill="#000000" font-family="sans-serif" font-size="14" lengthAdjust="spacing" textLength="110" x="1137.25" y="625.2969">CatalogueSensor</text><line style="stroke:#181818;stroke-width:0.5;" x1="1007" x2="1345" y1="635.5" y2="635.5"/><line style="stroke:#181818;stroke-width:0.5;" x1="1007" x2="1345" y1="643.5" y2="643.5"/><ellipse cx="1017" cy="658.3105" fill="#84BE84" rx="3" ry="3" style="stroke:#038048;stroke-width:1.0;"/><text fill="#000000" font-family="sans-serif" font-size="14" lengthAdjust="spacing" textLength="314" x="1026" y="662.6074">getSensorType(description : String) : SensorType</text></g><polygon fill="none" points="433.3437,584.9714,450.1089,576.0872,441.4253,567.805,433.3437,584.9714" style="stroke:#181818;stroke-width:1.0;"/><path d="M621.0859,315.3382 C589.1512,373.3718 548.442,442.0728 506,500 C484.1887,529.7693 469.2412,547.3348 445.7671,571.9461 " fill="none" style="stroke:#181818;stroke-width:1.0;stroke-dasharray:7.0,7.0;"/><polygon fill="#181818" points="799.1387,547.7724,800.2428,537.9857,797.633,543.0045,792.6141,540.3947,799.1387,547.7724" style="stroke:#181818;stroke-width:1.0;"/><path d="M725.6516,315.0634 C749.0695,389.2202 776.3373,475.568 797.3319,542.0509 " fill="none" style="stroke:#181818;stroke-width:1.0;"/><text fill="#000000" font-family="sans-serif" font-size="13" lengthAdjust="spacing" textLength="21" x="785" y="436.5283">has</text><text fill="#000000" font-family="sans-serif" font-size="13" lengthAdjust="spacing" textLength="7" x="779.1387" y="543.8007">1</text><text fill="#000000" font-family="sans-serif" font-size="13" lengthAdjust="spacing" textLength="7" x="717.6516" y="330.0917">1</text><polygon fill="#181818" points="1140.3255,603.4925,1136.3673,594.4741,1136.6297,600.1249,1130.979,600.3873,1140.3255,603.4925" style="stroke:#181818;stroke-width:1.0;"/><path d="M823.7963,315.0634 C931.9275,413.5952 1070.328,539.7091 1135.8906,599.4513 " fill="none" style="stroke:#181818;stroke-width:1.0;"/><text fill="#000000" font-family="sans-serif" font-size="13" lengthAdjust="spacing" textLength="28" x="1027" y="436.5283">uses</text><polygon fill="#181818" points="440.6395,369.9563,450.2597,367.8462,444.6674,366.9939,445.5198,361.4016,440.6395,369.9563" style="stroke:#181818;stroke-width:1.0;"/><path d="M515.317,315.0329 C489.301,334.167 468.3615,349.5675 445.473,366.4014 " fill="none" style="stroke:#181818;stroke-width:1.0;"/><text fill="#000000" font-family="sans-serif" font-size="13" lengthAdjust="spacing" textLength="49" x="484" y="348.0283">contains</text><text fill="#000000" font-family="sans-serif" font-size="13" lengthAdjust="spacing" textLength="7" x="432.6395" y="365.9846">1</text><text fill="#000000" font-family="sans-serif" font-size="13" lengthAdjust="spacing" textLength="7" x="507.317" y="330.0612">1</text><polygon fill="none" points="66.6206,612.583,75.3546,595.7391,63.5014,593.8675,66.6206,612.583" style="stroke:#181818;stroke-width:1.0;"/><path d="M221.2996,455.8331 C180.295,468.7212 138.0666,488.5416 107,519 C81.1936,544.3012 73.5651,568.6021 69.428,594.8033 " fill="none" style="stroke:#181818;stroke-width:1.0;stroke-dasharray:7.0,7.0;"/><!--SRC=[pLLDZzCm4BttLmmvDQADs0EN2lN0BeYLGAn8OOzeSAPPYyIER0TKGVyxZfqsJfD-xEw5NkfwvhrvVfwfNrGAynAXm8si3UYI30gSJ2faFp4dI4jKveCiAT4aj5GQ_amc0An0hU5TGSmepgwbq7LP6Ix5_KFgycmQsCySlfjDHGlmkokxtksFWhzXKHCiu7ZGmL-UAZszHeE5p6jgfR3TxxW5vsGwFTDueCvbk6fDC2oxt_ye6HOtQ6Z5Im9jh4lDoYxAQWRzA8bi7plWqpqbPuNRAdpD6NVa-0CrVLv_8Souo7LAPYLVlxfl97_2warFmmnkXQ6SrB8xI4FnNiaofSPBSXhlI76PFUTqvqklUM58tSdVf8BRqsytJVQJIyzELRv8busnkh3HGDMjxQhdkD6Mi1MsPyR6T_v-QdwrWy25ETNnlXbj4ZX0tBNLaOYHgIKH-JIsv7xfnMt7PZwJ9NBXL5acKcja1Bq1_r-6QTkJs9aPsDxfwcpMHjsGPeexFqDBNBWMtDZDh_QhrHmSrQT2dsBcag411fUHzdB6aN6_kiCrNDEEi2-b6U60T83FMtm0QzpmPXp-rOpVPZRYZQiJNh5ldi53aPnw7PBaxtBGPuaFFf8gkehcysLqPUL7noZTfI_W0VKZoItpaFFGkmNKclGJPKTm8MxtD38fZ5LnSJsF6pVSJyy_]--></g></svg>